<?xml version="1.0" encoding="utf-8"?>
<!-- Generator: Adobe Illustrator 16.0.0, SVG Export Plug-In . SVG Version: 6.00 Build 0)  -->
<!DOCTYPE svg PUBLIC "-//W3C//DTD SVG 1.1//EN" "http://www.w3.org/Graphics/SVG/1.1/DTD/svg11.dtd">
<svg version="1.1" id="Layer_2" xmlns="http://www.w3.org/2000/svg" xmlns:xlink="http://www.w3.org/1999/xlink" x="0px" y="0px"
	 width="300px" height="350px" viewBox="0 0 300 350" enable-background="new 0 0 300 350" xml:space="preserve">
<g>
	<defs>
		<path id="french" d="M1,1v249c0,50,49,75,99,75s50,24,50,24s0-24,50-24s99-25,99-75V1H1z"/>
	</defs>
	<clipPath id="french_1_">
		<use xlink:href="#french"  overflow="visible"/>
	</clipPath>
	<g clip-path="url(#french_1_)">
		<path fill="none" d="M1,1v249c0,50,49,75,99,75s50,24,50,24s0-24,50-24s99-25,99-75V1H1z"/>
		<g id="Layer_5">
			
				<radialGradient id="SVGID_1_" cx="-51.3379" cy="543.5195" r="201.5608" gradientTransform="matrix(1.2146 0 0 1.1716 195.1877 -502.6621)" gradientUnits="userSpaceOnUse">
				<stop  offset="0" style="stop-color:#FFFFFF;stop-opacity:0.8"/>
				<stop  offset="1" style="stop-color:#000000;stop-opacity:0.4"/>
			</radialGradient>
			
				<rect x="-131.334" y="-81.75" opacity="0.3" fill="url(#SVGID_1_)" enable-background="new    " width="528.333" height="431.75"/>
		</g>
		<path fill="none" d="M1,1v249c0,50,49,75,99,75s50,24,50,24s0-24,50-24s99-25,99-75V1H1z"/>
		
			<linearGradient id="SVGID_2_" gradientUnits="userSpaceOnUse" x1="62" y1="740.5" x2="211.0439" y2="740.5" gradientTransform="matrix(1 0 0 1 88 -441)">
			<stop  offset="0.7043" style="stop-color:#FFFFFF"/>
			<stop  offset="1" style="stop-color:#000000"/>
		</linearGradient>
		<path opacity="0.3" fill="url(#SVGID_2_)" enable-background="new    " d="M150,349c0,0,0-26.667,0-16.25s9.25-14.25,54.75-12.75
			s96-25.75,94.25-70c0,0,4.667,74.501-100.248,75.009C198.752,325.009,154,323.75,150,349z"/>
		<path fill="none" d="M1,1v249c0,50,49,75,99,75s50,24,50,24s0-24,50-24s99-25,99-75V1H1z"/>
		
			<radialGradient id="SVGID_3_" cx="-480.4346" cy="446.5" r="63.26" gradientTransform="matrix(-1 0 0 3 -404.957 -1040)" gradientUnits="userSpaceOnUse">
			<stop  offset="0.2258" style="stop-color:#FFFFFF"/>
			<stop  offset="1" style="stop-color:#000000"/>
		</radialGradient>
		<path opacity="0.3" fill="url(#SVGID_3_)" enable-background="new    " d="M150,349c0,0,0-26.667,0-16.25S140.75,318.5,95.25,320
			s-96-25.75-94.25-70c0,0-4.667,74.501,100.248,75.009C101.248,325.009,146,323.75,150,349z"/>
	</g>
</g>
</svg>
