<?xml version="1.0" encoding="utf-8"?>
<!-- Generator: Adobe Illustrator 16.0.0, SVG Export Plug-In . SVG Version: 6.00 Build 0)  -->
<!DOCTYPE svg PUBLIC "-//W3C//DTD SVG 1.1//EN" "http://www.w3.org/Graphics/SVG/1.1/DTD/svg11.dtd">
<svg version="1.1" id="Layer_3" xmlns="http://www.w3.org/2000/svg" xmlns:xlink="http://www.w3.org/1999/xlink" x="0px" y="0px"
	 width="300px" height="350px" viewBox="0 0 300 350" enable-background="new 0 0 300 350" xml:space="preserve">
<g opacity="0.3">
	
		<radialGradient id="german_2_" cx="105.9971" cy="313.75" r="161.9844" gradientTransform="matrix(1 0 0 -6 44 2057.5)" gradientUnits="userSpaceOnUse">
		<stop  offset="0" style="stop-color:#FFFFFF"/>
		<stop  offset="0.086" style="stop-color:#F2F2F2"/>
		<stop  offset="1" style="stop-color:#000000"/>
	</radialGradient>
	<path id="german" fill="url(#german_2_)" d="M15,120c20,0,40-5,40-25S40,55,1,70c0,0-1-20,24-40s50-20,85-10c10,0,40-19,110-19
		c35,0,79,24,79,24s-34,20-34,60s20,55,30,100c20,90-45,155-145,164C50,340-15,245,5,165C10,145,15,140,15,120z"/>
</g>
<g opacity="0.3">
	
		<linearGradient id="german_3_" gradientUnits="userSpaceOnUse" x1="-43.0054" y1="130" x2="255" y2="130" gradientTransform="matrix(1 0 0 -1 44 305)">
		<stop  offset="0" style="stop-color:#FFFFFF"/>
		<stop  offset="0.086" style="stop-color:#F2F2F2"/>
		<stop  offset="1" style="stop-color:#000000"/>
	</linearGradient>
	<path id="german_1_" fill="url(#german_3_)" d="M15,120c20,0,40-5,40-25S40,55,1,70c0,0-1-20,24-40s50-20,85-10c10,0,40-19,110-19
		c35,0,79,24,79,24s-34,20-34,60s20,55,30,100c20,90-45,155-145,164C50,340-15,245,5,165C10,145,15,140,15,120z"/>
</g>
<radialGradient id="SVGID_1_" cx="-11.376" cy="361.3574" r="31.2479" gradientTransform="matrix(1 0 0 -3 44 1174.7148)" gradientUnits="userSpaceOnUse">
	<stop  offset="0.1" style="stop-color:#FFFFFF"/>
	<stop  offset="1" style="stop-color:#000000"/>
</radialGradient>
<path opacity="0.3" fill="url(#SVGID_1_)" enable-background="new    " d="M1,70c0,0,23.774-11.998,33.125-10S55,62.125,62,82.5
	s-4.25,26.875-7.875,29.625S25.75,125.375,15,120c0,0,49,2.875,38.625-35.125C53.625,84.875,46.75,52.375,1,70z"/>
<radialGradient id="SVGID_2_" cx="77.5938" cy="288.4229" r="46.3863" gradientTransform="matrix(1 0 0 -1 44 305)" gradientUnits="userSpaceOnUse">
	<stop  offset="0.1" style="stop-color:#FFFFFF"/>
	<stop  offset="1" style="stop-color:#000000"/>
</radialGradient>
<path opacity="0.3" fill="url(#SVGID_2_)" enable-background="new    " d="M57.488,14.601c0,0,16.227-5.162,53.203,5.369
	c0,0,49.874-17.498,75.008-17.316c0,0-74.324,14.597-74.199,27.847C111.5,30.5,110.125,12.5,57.488,14.601z"/>
<radialGradient id="SVGID_3_" cx="-26.25" cy="298.625" r="0" gradientTransform="matrix(1 0 0 -1 44 305)" gradientUnits="userSpaceOnUse">
	<stop  offset="0.1" style="stop-color:#FFFFFF"/>
	<stop  offset="1" style="stop-color:#000000"/>
</radialGradient>
<path opacity="0.4" fill="url(#SVGID_3_)" enable-background="new    " d="M17.75,6.375"/>
</svg>
