<?xml version="1.0" encoding="utf-8"?>
<!-- Generator: Adobe Illustrator 16.0.0, SVG Export Plug-In . SVG Version: 6.00 Build 0)  -->
<!DOCTYPE svg PUBLIC "-//W3C//DTD SVG 1.1//EN" "http://www.w3.org/Graphics/SVG/1.1/DTD/svg11.dtd">
<svg version="1.1" id="Layer_4" xmlns="http://www.w3.org/2000/svg" xmlns:xlink="http://www.w3.org/1999/xlink" x="0px" y="0px"
	 width="300px" height="350px" viewBox="0 0 300 350" enable-background="new 0 0 300 350" xml:space="preserve">
<g id="Layer_2">
	<g>
		<g>
			<defs>
				<path id="SVGID_1_" d="M1,1v199c0,75,74,149,149,149s149-74,149-149V1H1z"/>
			</defs>
			<clipPath id="SVGID_2_">
				<use xlink:href="#SVGID_1_"  overflow="visible"/>
			</clipPath>
			
				<radialGradient id="SVGID_3_" cx="65.6631" cy="541.6455" r="321.5744" gradientTransform="matrix(1 0 0 1 88 -441)" gradientUnits="userSpaceOnUse">
				<stop  offset="0.6828" style="stop-color:#FFFFFF;stop-opacity:0"/>
				<stop  offset="1" style="stop-color:#000000;stop-opacity:0"/>
			</radialGradient>
			<path clip-path="url(#SVGID_2_)" fill="url(#SVGID_3_)" stroke="#000000" stroke-miterlimit="10" d="M-101.5,175.833
				c0,0,93,240,259,240s220-240,220-240l104-238c0,0-348-186-355-147s-317,77-300,95"/>
		</g>
		<g>
			<defs>
				<path id="SVGID_4_" d="M1,1v199c0,75,74,149,149,149s149-74,149-149V1H1z"/>
			</defs>
			<clipPath id="SVGID_5_">
				<use xlink:href="#SVGID_4_"  overflow="visible"/>
			</clipPath>
			
				<radialGradient id="SVGID_6_" cx="-52.833" cy="561.168" r="249.9581" gradientTransform="matrix(1 0 0 1 88 -441)" gradientUnits="userSpaceOnUse">
				<stop  offset="0" style="stop-color:#FFFFFF"/>
				<stop  offset="1" style="stop-color:#000000;stop-opacity:0"/>
			</radialGradient>
			
				<rect x="-231.833" y="-111.499" opacity="0.3" clip-path="url(#SVGID_5_)" fill="url(#SVGID_6_)" stroke="#000000" stroke-miterlimit="10" enable-background="new    " width="534" height="463.333"/>
		</g>
		<g>
			<defs>
				<path id="SVGID_7_" d="M1,1v199c0,75,74,149,149,149s149-74,149-149V1H1z"/>
			</defs>
			<clipPath id="SVGID_8_">
				<use xlink:href="#SVGID_7_"  overflow="visible"/>
			</clipPath>
			<g opacity="0.2" clip-path="url(#SVGID_8_)">
				
					<linearGradient id="spanish_2_" gradientUnits="userSpaceOnUse" x1="-87" y1="616" x2="211" y2="616" gradientTransform="matrix(1 0 0 1 88 -441)">
					<stop  offset="0" style="stop-color:#FFFFFF"/>
					<stop  offset="0.9946" style="stop-color:#000000;stop-opacity:0"/>
					<stop  offset="1" style="stop-color:#2A2627"/>
				</linearGradient>
				<path id="spanish_1_" fill="url(#spanish_2_)" d="M1,1v199c0,75,74,149,149,149s149-74,149-149V1H1z"/>
			</g>
		</g>
	</g>
</g>
</svg>
