<?xml version="1.0" encoding="UTF-8" standalone="no"?>
<!DOCTYPE svg PUBLIC "-//W3C//DTD SVG 1.1//EN" "http://www.w3.org/Graphics/SVG/1.1/DTD/svg11.dtd">
<svg xmlns="http://www.w3.org/2000/svg" width="300px" height="350px">
<g>
<path id="fill" d="m 218.31,50.781 c -3.61,0.113 -6.8,2.076 -9.46,4.319 -8.19,3.427 -16.74,7.057 -22.44,14.119 -3.14,-0.852 -7.72,-1.097 -8.85,2.656 -2.26,2.978 -5.18,5.737 -8.28,7.813 -6.93,2.484 -12.45,7.585 -18.72,11.406 -12.1,8.552 -23.44,17.956 -34.56,27.786 -7.05,-2.42 -16.037,-4.18 -22.344,0.65 -5.482,4.82 -3.797,12.8 -7.178,18.74 -3.653,8.23 -10.033,15.1 -16.79,20.79 -4.053,3.09 -9.046,5.03 -12.907,8.28 0.213,2.66 4.1,2.26 6,2.88 8.526,1.09 14.236,8.21 19.281,14.5 1.985,8.1 1.906,16.64 3.844,24.69 2.337,4.16 6.86,6.99 11.781,6.16 2.583,-0.29 5.393,-1.11 7.503,0.96 4.85,3.71 7.65,10.07 13.25,12.75 2.95,2.37 -1.46,7.78 2.59,9.34 2.89,1.87 6.9,-0.12 9.5,2.54 3.64,2.47 6.33,6.18 10.16,8.31 3.4,-0.79 6.68,-2.63 10.37,-1.99 17.42,-0.54 34.92,-1.03 52.25,1.21 2.13,0.33 5.99,0.32 5.47,-2.78 -1.09,-3.64 -4.06,-6.6 -6.25,-9.72 -2.3,-2.87 -3.77,-6.16 -6.43,-8.68 -2.13,-2.93 -4.31,-6.16 -7.51,-7.82 -1.53,-3.66 -4.96,-6.12 -7.13,-9.2 -0.66,-3.43 -2.53,-7.23 -5.9,-8.4 -2.15,0.11 -5.57,0.25 -5.65,-2.71 -4.13,-5.01 -9.36,-9.25 -13.91,-13.69 -3.66,-0.8 -2.44,-5.33 -2.66,-8.03 -2.47,-7.07 -11.08,-7.6 -16.53,-11.38 2.05,-3.55 7.84,-1.98 9.66,-5.94 5.88,-3.82 4.46,-11.9 6.85,-17.64 7.71,-13.16 20.44,-22.49 32.27,-31.51 2.26,-2.07 5.27,-2.9 7.13,-5.36 2.55,-2.35 5.6,-4.57 9.22,-4.55 1.15,-3.744 5.61,-4.674 9.05,-3.409 4.12,1.217 9.08,2.369 12.39,-1.215 4.03,-3.885 11.55,-5.722 12.15,-12.281 -0.82,-2.849 1.66,-4.862 4.13,-5.5 1.88,-0.799 3.6,-2.861 3.53,-4.937 -0.61,-3.082 -4.54,-4.296 -4.66,-7.563 -2.19,-4.591 -7.58,-6.265 -10.94,-9.781 -3.21,-1.676 -6.91,-2.748 -8.97,-5.844 l -0.31,0.03 z"/><path id="outline" d="m 211.37,60.287 c 3.78,-3.565 -4.3,-3.376 -1.04,0.294 0.23,0.702 0.77,-0.39 1.04,-0.294 z m -4.06,0.578 c 3.13,-1.852 -3.88,-1.549 0,0 z m 10.19,1.509 c 1.83,-2.403 5.02,-6.212 1.48,-8.922 -2.69,-1.35 -4.43,3.254 -4.23,5.545 -0.93,1.941 1.19,3.51 2.75,3.377 z m -9.24,1.384 c 0.76,-2.225 -6.35,-5.446 -6.21,-1.861 1.91,1.004 4.09,1.621 6.21,1.861 z m -2.95,2.49 c 6.07,-1.593 -10.64,-6.024 -6.41,-1.572 2.09,0.654 4.3,1.252 6.41,1.572 z m 18.05,0.955 c 2.04,-1.79 6.94,-5.478 5.61,-8.411 -2.34,-2.006 -6.24,-1.479 -7.83,1.242 -1.97,1.928 -0.21,6.332 2.22,7.169 z m -9.89,2.138 c 3.28,1.281 4.25,-4.378 0.91,-1.76 -1.24,-0.394 4.25,-4.926 -0.64,-5.826 -3.29,-0.04 -1.42,5.09 -2.2,6.178 -2.52,1.31 1.69,1.163 1.93,1.408 z m 2.52,4.201 c 3.33,0.256 4.29,-4.279 4.39,-5.954 1.63,-2.558 -2.38,-2.346 -2.1,0.64 1.54,2.73 -6.47,0.747 -3.51,4.669 -0.19,1.021 1.33,0.03 1.22,0.645 z m 4.35,0.905 c 4,-2.144 -2.68,-2.754 0,0 z m 0.73,3.848 c 4.21,0.638 1.79,-4.929 4.45,-3.823 -3.49,-4.242 1.23,0.848 4.12,-2.473 2.74,-1.062 7.31,-5.306 3.85,-7.904 -2.79,-1.83 -5.81,0.968 -7.45,3.341 -1.03,2.912 -5.08,3.634 -3.21,6.106 1.55,1.782 -8.06,3.037 -4.88,4.376 1.01,0.823 2.06,0.338 3.12,0.377 z m 14.59,0 c 3.88,0.139 6.28,-6.412 1.53,-6.023 -4.62,-1.884 -4.94,8.148 -1.29,6.023 l -0.24,0 z m -10.94,1.258 c 1.82,-2.362 -3.99,-0.426 -0.17,0.07 l 0.17,-0.07 z m -7.73,1.182 c 1.49,-1.364 -7.83,-1.784 0,-0.05 l 0,0.05 z m 6.63,0.93 c 2.22,-0.862 -4.21,-3.611 -1.73,-0.628 l 1.71,0.628 0,0 z m -44.24,0 c 1.18,-3.645 -3.8,-0.45 0,0 z m 5.17,8.828 c 0.23,-2.986 -5.99,-8.379 -1.97,-1.983 l 0.89,1.128 1.08,0.855 z m 12.2,2.893 c 0.95,-2.837 -3.66,-1.501 -0,0 l 0,0 0,0 z m 23.08,1.433 c 4.81,-1.52 8.71,-5.525 12.8,-8.475 -1.19,-2.757 1.38,-10.678 -2.72,-10.69 -4.98,0.782 4.53,3.421 -2.14,4.578 -0.14,2.165 -0.44,7.229 -2.43,3.848 -3.26,1.246 -4.38,3.14 -6.52,-0.729 -3.92,-2.792 -8.93,-3.835 -13.51,-2.768 -4.21,4.755 -6.53,3.349 -1.93,-1.483 -1.8,-0.303 -7.34,4.395 -4.88,0.694 3.21,-1.611 5.26,-4.514 9.39,-3.385 2.54,0.972 8.22,1.113 3.16,-1.27 -2.31,-1.535 -10.44,-0.112 -7.85,-4.188 2.28,2.521 5.46,2.271 8,3.169 -0.53,-4.246 -7.4,-4.442 -11.11,-5.828 1.02,-3.635 -6.42,-2.429 -8.06,0.07 -2.06,1.94 -4.54,6.262 -2.21,8.502 3.87,-6.342 4.9,-2.188 0.71,2.552 -1.63,5.036 1.72,2.245 2.51,-1.169 2.23,0.904 -1.38,4.505 0.91,6.653 -0.63,3.167 2.73,-0.367 3.02,4.148 4.62,5.959 12.98,4.615 19.57,6.032 1.06,0.147 2.36,0.37 3.29,-0.259 z m -19.8,4.352 c 5.52,-0.902 -0.3,-3.499 -2.94,-4.112 -4.12,-2.559 -6.84,-6.313 -9.34,-10.388 -1.86,-3.028 -3.65,-6.179 -3.63,-9.847 1.98,-5.766 -4.66,-3.384 -3.71,0.302 -0,6.243 4.79,10.79 7.59,15.901 3.6,3.222 6.95,8.206 12.03,8.144 z m -32.22,20.879 c 6.58,-4.2 12.22,-9.75 18.44,-14.47 4.96,-1.91 5.17,-3.82 3.46,-4.28 2.87,-1.28 6.71,-2.132 1.38,-2.959 -3.89,1.609 -10.14,6.389 -10.55,8.459 -3.47,-1.41 0.84,5.66 -3.25,2.49 -3.73,-2.1 -1.41,2.04 -2.07,2.65 -2.69,-1.07 -4.68,3.06 -6.32,4.89 -0.24,0.85 -2.02,2.89 -1.09,3.22 z m -63.93,8.55 c -7.79,-2.12 3.2,-1.61 0,0 z m -1.41,2.76 c 1.56,-2.58 4.69,-2.61 4.15,-5.51 3.89,-0.4 1.24,-4.02 -1.97,-3.12 -4.5,1.43 -0.93,2.68 -5.845,4.06 0.806,2.37 -0.766,3.28 3.315,3.82 -0.34,0.59 1.16,0.43 0.35,0.75 z m -2.26,1.36 c 5.43,-0.31 -3.824,-3.95 -1.755,-0.55 0.373,0.77 1.116,0.52 1.755,0.55 z m -4.025,1.81 c -0.759,-3.7 -1.953,-10.94 3.289,-13.75 4.256,-0.75 8.916,-0.27 13.116,0.93 0.24,-3.72 -6.73,-3.26 -9.9,-2.87 -3.701,0.7 -8.944,1.28 -8.795,6.05 -0.264,3.32 0.113,6.51 1.54,9.54 l 0.45,0 0.3,0.1 z M 155.9,133.4 c 2.46,-3.9 7.51,-6.35 8.15,-10.95 4.44,-4.66 3.95,-8.72 -0.8,-3.24 -5.21,3.87 -7.8,9.76 -8.87,16 0.52,-0.56 0.96,-1.33 1.52,-1.81 z m -4.65,6.09 c 2.56,-1.74 0.7,-5.76 2.61,-8.31 -0,-3 -5.28,3.19 -4.34,5.22 0.53,1.06 0.98,2.16 1.73,3.09 z m -44.44,0.45 c 13.62,-12.74 32.28,-16.86 49.31,-22.88 5.34,-1.83 9.94,-5.46 14.84,-7.85 5.93,-1.45 9.82,-8.46 15.97,-10.481 1.47,-1.55 4.71,-3.24 0.85,-4.537 -2.93,1.963 -7.23,-7.555 -9.15,-10.367 -4.01,-7.555 -11.3,2.786 -16.39,4.365 -18.37,11.87 -35.16,25.97 -51.47,40.5 -3.94,2.01 -5.92,5.91 -5.11,10.17 -0,0.2 1.44,1.11 1.15,1.08 z m 1.62,3.62 c 9.76,-6.31 19.92,-12.29 31.39,-14.92 5.07,-1.36 10.17,-2.9 14.9,-4.97 3.67,0.54 5.21,-3.97 7.91,-5.78 5.01,-5.24 -7.65,1.95 -9.37,2.18 -15.38,5.44 -32.27,9.22 -44.72,20.35 -0.8,0.69 -2.08,2.89 -0.11,3.14 z m -4.33,2.21 c -0.14,-3.6 -11.563,-14.92 -4.294,-4.59 1.414,1.25 2.574,4.05 4.294,4.59 z m 8.76,1.36 c 3.53,-1.33 5.58,-5.78 9.45,-7.02 7.01,-4.25 16.04,-8.79 24.21,-5.25 2.67,-1.85 12.12,-12.08 2.57,-7.19 -13.79,3.21 -27.3,8.09 -38.96,16.29 -0.55,1.99 1.16,2.63 2.73,3.17 z m 6.74,4.58 c 5.76,-3.66 10.76,-8.17 17.89,-8.91 3.86,-0.51 8.63,2.67 1.7,-2.02 -3.65,-2.99 8.96,0.99 8.15,5.31 3.05,-1.61 0.23,-5.55 -0.43,-8.21 -4.19,-2.64 -9.55,-2.87 -13.96,-0.61 -5.56,2.77 -14.67,5.79 -16.77,11.6 2.38,3.7 6.96,-4.57 10.28,-4.97 2.65,-1.64 8.55,-4.86 10.33,-3.81 -5.88,3 -14.59,6.04 -17.19,11.62 z m 26.33,1.53 c 5.14,-4.72 2.09,-6.76 -0.52,-1.5 0.1,0.38 -0.51,2.49 0.52,1.5 z m -13.86,-1.53 c -4.05,-0.93 3.12,-1.42 0,0 z m 4.61,0.45 c -3.94,-1.59 2.72,-0.11 0,0 z m -5.61,2.11 c -5.97,0 -0.74,-1.05 2.29,-0.62 2.09,1.2 -1.76,0.47 -2.29,0.62 z m 2.94,2.27 c 4.93,1.46 5.53,-4.8 8.17,-7.62 0.15,-5.56 -12.03,-2.66 -7.54,0.1 -4.23,-1.62 -7.54,1.48 -10.21,4.53 2.35,2.18 5.93,3.5 9.53,3.17 l 0,0 0,-0.17 z m -1.99,3.17 c 5.19,-1.32 -8.02,-2.03 -9.24,-4.21 -2.87,-1.58 -6.75,-1.16 -8.65,-4.39 -7.05,-3.6 -3.22,1.29 1.33,2.69 4.41,3.24 9.89,3.8 14.76,6.13 0.56,-0.1 1.31,-0.23 1.8,-0.22 z m 7.27,0.8 c 2.86,-0.41 6.87,-2.03 7.24,-5.1 -2.69,2.03 -6.7,1.89 -9.3,4.16 -1.44,1.26 1.32,1.39 2.06,0.94 z m -18.79,4.25 c 3.14,-0.33 17.84,-1.8 8.68,-3.8 -3.9,-0.93 -8.03,-2.37 -11.52,-4.21 -6.74,-2.86 -12.58,-7.66 -18.075,-12.51 -2.789,-3.81 -4.762,-8.1 -7.22,-12.12 -2.121,2.47 -1.316,6.18 -3.492,8.78 -2.937,4.52 -6.569,10.23 1.379,8.98 6.268,1.01 10.148,6.45 15.168,9.75 3.73,3.29 13.32,5.28 3.47,0.98 -4.33,-4.18 3.55,1.27 5.44,0.18 -1.79,-0.8 -10.43,-5.8 -4.2,-4.86 2.17,3.2 13.73,4.88 11.33,6.43 -3.43,-1.63 -7.68,1.96 -1.18,2.13 l 0.22,0.27 z m -43.835,5.94 c -1.097,-2.79 -5.143,-0.64 -5.43,-3.47 2.883,-1.82 10.416,-0.41 5.43,3.47 z m 1.94,2.71 c 4.669,-0.57 4.595,-7.38 5.073,-11.01 0.885,-3.16 -0.927,-7.91 -4.812,-7.09 -4.437,2.99 -7.352,10.03 -13.81,10.53 -1.408,2.55 4.803,1.97 6.358,3.66 2.392,1.14 4.664,3.77 7.191,3.91 z m 16.55,0.46 c 1.004,-2.01 4.594,-8.21 5.905,-2.72 5.42,-1.46 13.3,-1.12 17.37,-3.62 5.21,0.89 -0.3,-3.11 -1.6,-0.53 -1.53,-3.7 -1.86,1.35 -5.85,-1.31 -7.28,-1.97 -12.21,-8.26 -18.595,-11.94 0.08,2.13 3.491,4.82 3.994,7.75 0.245,3.4 1.179,6.93 -0.52,9.94 0.327,1 -2.389,1.7 -0.704,2.43 z m 54.585,6.18 c 3.99,0.21 -1.24,-5.12 -3.09,-4.88 0.99,1.43 0.77,6.02 3.09,4.88 z m -61.775,-7.09 c -2.348,-2.63 4.201,-4.16 0,0 l 0,0 z m -4.05,2.24 c -2.059,-1.69 5.317,-10.22 2.992,-4.05 -0.947,1.26 -1.961,3.32 -2.992,4.05 z m 2.44,0.96 c -3.872,4.43 0.739,-5.22 1.477,-1.71 0.157,0.59 -1.169,1.21 -1.477,1.71 z m -1.36,5.38 c 2.412,-1.58 1.242,-5.13 4.756,-8.6 3.584,-2.24 -4.382,9.04 0.895,3.04 3.347,-4.47 3.675,-10.31 2.983,-15.65 -1.573,-5.11 -7.039,-10 -12.434,-6.74 3.524,2.59 5.884,6.88 4.61,11.28 -0.21,4.1 -2.878,7.49 -6.12,9.8 1.267,2.3 2.821,6.29 5.31,6.87 z m 45.895,3.62 c -1.13,-1.28 -1.39,-7.29 -4.53,-6.34 0.25,2.58 2.39,5.02 4.53,6.34 z m 6.57,-4.02 c -6.32,-0.16 1.99,-2.33 0,0 z m 5.86,5.78 c -2.72,-0.24 5.74,-1.38 0,0 z m 1.35,1.58 c 4.71,0.4 2.32,-3.02 1.54,-3.52 1.15,-3.3 -4.82,-1.96 -1.75,-4.07 -4.46,-0.84 -3.26,-2.29 -5.66,-4.35 -4.66,-1.31 -9.04,2.91 -2.35,1.41 1.02,1.94 -9.45,-1.08 -4.28,3.62 2.19,1.45 4.84,1.48 7.57,2.09 3.25,1.52 -6.67,1.61 0.87,4.22 1.31,0.96 2.67,0.8 4.06,0.6 z m 9.23,1.64 c 3.93,-1.54 -3.26,-2 0,0 z m -4.25,0.45 c 2.88,-0.86 -2.88,-1.36 0,0 z m -8.04,1.36 c 2.43,-2.45 -9.35,-3.06 -0.99,-0.37 l 0.99,0.37 z m 11.44,2.21 c -1.88,-0.6 5.75,-2.33 0,0 z m -4.08,4.78 c 5.47,2.8 12.47,-7.13 6.17,-8.4 -4.95,2.03 -10.65,5.52 -15.97,2.54 -5.05,-1.19 -8.03,-5.87 -12.38,-8.42 -0.37,-5.02 -7.9,-5.5 -7.38,-1.03 7.01,7.94 16.5,14.59 27.28,15.41 0.69,0 1.72,-0.25 2.28,-0.1 z m -60.155,-0.75 c 2.315,-4.35 7,-10.06 11.925,-13.57 4.52,-2.65 8.57,-5.88 11.57,-8.5 5.84,-2.2 11.94,-3.26 17.52,-5.97 2.68,-0.34 9.56,-0.69 4.33,-3.41 -2.11,1.01 -5.78,-4.09 -5.26,-0.26 -5.18,0.96 -10.4,5.04 -15.67,6.88 -5.59,4.46 -6.54,0.84 -0.9,-0.75 -0.48,-1.87 -8.72,1.14 -11.24,1.36 -5.294,3.01 -14.948,6.59 -14.386,13.88 0.589,2.58 -0.837,13.17 2.111,10.34 z m 71.555,3.47 c 7.61,-1.61 2.55,-2.93 -1.27,-0.67 -0.96,1.24 0.72,0.64 1.27,0.67 z m -63.625,7.47 c 5.695,0.42 2.823,-4.1 0.95,-3.47 0.852,-3.27 -9.698,0.99 -3.47,-5.51 5.349,-9.42 14.265,-16.18 24.065,-20.4 4.47,-2.81 9.75,-4.38 14.87,-5.56 3.32,0.3 11.3,-1.89 4.58,-3.12 -8.38,0.27 -16.1,4.28 -23.38,8 -7.73,5.25 -16.237,9.88 -21.345,18.07 -2.186,2.77 -3.793,6.19 -3.77,9.63 1.885,3.6 2.59,0.26 4.191,-0.42 0.848,-2.32 2.285,1.13 1.819,2.78 0.497,0 0.993,0 1.49,0 z m 2.06,2.26 c 4.365,-0.5 -4.31,-1.33 0,0 z m 2.805,0.81 c 4.95,-3.09 -3.712,0 0,0 z m 7.45,-12.13 c -3.29,-0.33 6.97,-6.55 2.35,-1.54 -0.29,0.33 -2.91,1.48 -2.35,1.54 z m -4.96,0.91 c -0.69,-1.16 7.28,-9.6 5.84,-5.13 -1.88,1.78 -3.74,3.6 -5.84,5.13 z m 3.8,5.43 c -0.52,-1.62 5.13,-9.47 7.62,-7.64 -2.27,2.52 -4.71,6.04 -7.62,7.64 z m 3.98,4.08 c -3.64,-1.37 2.21,-6.3 4.04,-7.98 4.71,-1.76 -0.48,2.87 -2.27,3.85 -1.22,0.72 0.16,4.56 -1.77,4.13 z m 2.84,3.57 c -3.87,-1.31 0.11,-5.59 2.26,-6.94 2.04,-4.26 9.02,-3.65 2.54,0 -4.4,1.22 -1.54,5.47 -4.8,6.94 z m 1.46,4.78 c -3.29,-2.32 3.74,-7.44 5.53,-10.44 4.43,-2.35 2.59,1.84 0.1,3.48 -2.57,1.59 -2.71,6.46 -5.6,6.96 z m 3.17,2.26 c -1.62,-3.44 4.15,-8.4 6.99,-10.83 5.5,-0.88 -3.79,5.6 -3.76,7.62 -1.04,1.09 -1.91,2.42 -3.23,3.21 z m 2.61,3.62 c -3.14,-3.46 5.42,-10.26 8.68,-12.62 0.48,2.68 -4.26,4.76 -5.85,7.23 -1.3,1.32 -1.19,5.19 -2.83,5.39 z m 1.64,2.17 c 1.36,-5.88 6.4,-9.82 10.71,-13.51 1.4,3.68 -7.71,5.76 -5.91,9.63 3.97,-1.69 5.29,-5.28 8.89,-7.47 4.29,-6.4 15.36,-8.01 18.61,-13.58 1.56,-2.07 5.99,-1.83 7.9,-3.87 -0.55,-3.1 -3.85,-5.13 -4.35,-1.06 -4.16,4.24 -10.55,4.5 -16.09,3.95 -7.69,-2.25 -14.87,-6.06 -20.97,-11.25 -2.9,-1.78 -4.42,-8.96 -8.35,-4.96 -4.34,2.49 -7.93,5.79 -10.65,10 1.49,0.85 8.34,-4.5 3.24,0.71 -2.31,2.22 -7.084,5.64 -3.86,8.96 2.62,3.7 6.29,8.82 7.13,11.18 5.13,3.24 7.71,9.81 13.53,12.39 0.36,1.21 1.21,-2.4 0.17,-1.12 z m 12.82,3.72 c 3.18,-0.9 -4.39,-2.06 0,0 z m -11.59,4.05 c 5.85,-4.69 10.18,-13.01 17.3,-17.1 7.01,-4.93 14.09,-10.73 22.77,-12.18 7.06,-4.53 -5,-2.17 -7.43,0 -8.24,2.57 -13.9,9.68 -21.18,14.12 -3.85,3.73 -8.77,7.01 -11.57,11.56 -0.1,0.98 -1.93,4.13 0.11,3.56 z m 4.55,0.9 c 6.94,-8.52 15.47,-15.83 24.83,-21.56 3.56,-0.63 4.53,-4.15 8.93,-4.65 3.05,-1.9 6.44,-0.72 9.06,-2.07 5.04,1.85 2.78,-3.47 -1.03,-1.78 -11.01,0.99 -20.34,8.22 -29.21,14.29 -4.92,4.05 -11.05,8.54 -13.47,14.42 -1.5,-0.16 1.35,2.33 0.89,1.35 z m 41.4,-18.99 c -3.88,-1.83 7.21,-2.93 3.32,-0.77 -1.08,0.34 -2.29,0.45 -3.32,0.77 z m 3.4,2.27 c -3.73,-0.99 5.88,-3.62 1.68,-0.32 -0.41,0.59 -1.12,0.22 -1.68,0.32 z m 3.14,2.26 c -3.64,-0.64 5.02,-3.8 2.11,-0.63 -0.63,0.66 -1.25,0.71 -2.11,0.63 z m 3.67,2.16 c -4.87,0.33 1.98,-3.82 1.41,0.18 -0.34,-0.17 -1.8,0.79 -1.41,-0.18 z m 2.72,2.72 c -4.38,-0.82 2.92,-2.39 0,0 z m 3.29,3.09 c -4.24,1.22 -0.76,-3.26 2.07,-1.63 -0.1,1.17 -1.69,1.44 -2.07,1.63 z m -37.55,2.9 c -1.34,-2.75 8.74,-1.85 1.08,-0.16 l -1.08,0.16 0,0 z m -4.98,-0.25 c -4.56,0.29 10.47,-5.96 3.76,-1.57 -1.22,0.57 -2.9,1.34 -3.76,1.57 z m 46.64,0.5 c -0.33,1.24 -6.28,-2.17 -1.67,-2.32 1.23,-0 3.4,1.27 1.67,2.32 z m 5.79,5.93 c -3.68,0.23 -6.72,-5.48 -1.28,-2.79 1.98,-0 3.23,2.35 1.28,2.79 z m -52.92,5.06 c -1.75,-3 8.16,-4.16 10.4,-6.48 2.07,-0.87 6.98,-4.41 6.78,-0.76 -5.77,2.31 -11.5,4.7 -17.18,7.24 z m 0.38,2.21 c 5.21,-1.13 9.61,-5.25 14.8,-6.93 6.23,-2.08 -0,3 -3.4,2.9 -7.77,3.51 0.39,2.5 4.53,0.15 7.52,-2.45 3.39,0.88 -0.68,1.72 2.13,2.32 9.84,-4.38 7.73,0.33 11.81,0 23.62,0 35.43,0 0.1,-6.23 -7.13,-9.75 -9.86,-14.89 -3.49,-2.56 -4.09,-6.01 -7.28,-8.64 -3.53,-3.23 -6.65,-7.48 -10.47,-10.03 -5.33,-0.86 -9.64,2.82 -14.64,4.07 -6.69,3.36 -13.2,7.69 -18.79,12.63 -1.83,4.56 5.91,-2.91 8.28,-3.03 4.17,0.88 -2.51,3.24 -4,4.19 -2.83,1.25 -8.03,3.71 -6.94,6.44 1.95,-0.36 -2.03,4.27 3.09,0.98 3.57,-2.01 -2.31,4.72 3.65,0.71 2.23,-0.69 11.2,-6.38 10.29,-2.47 -5.4,0.69 -9.33,5.51 -14.29,6.39 -5.09,0.17 -2.07,-5.96 -6.52,-5.51 -3.41,1.16 -1.65,6.37 1.3,7.62 1.93,2.25 5.53,3 7.77,3.37 z m -3.35,4.58 c -4.1,-2.01 -7.89,-7.35 -11.91,-9.34 -2.31,-1.43 -5.07,0.36 -7.97,-1.61 -4.87,-1.76 1.01,-8.16 -3.75,-10.08 -5.9,-3.01 -9.31,-12.3 -15.21,-13.46 -3.598,0.77 -9.151,1.19 -11.815,-1.05 -1.683,-1.12 -3.977,-3.33 -4.96,-5.72 -1.284,-7.91 -1.727,-16.23 -3.475,-23.92 -3.991,-4.6 -7.901,-10.06 -13.547,-12.42 -2.956,-2.44 -13.031,-1.16 -11.647,-5.57 6.008,-4.38 13.371,-6.96 18.113,-12.99 3.735,-3.29 6.608,-7.28 9.325,-11.32 2.243,-4.35 4.467,-8.66 4.812,-13.64 0.915,-5.39 3.532,-10.69 9.144,-12.04 5.89,-1.8 12.38,-0.52 18.09,1.47 12.64,-11.03 25.63,-21.918 39.62,-31.149 4.71,-2.785 8.75,-6.673 14.16,-8.086 3.14,-3.09 6.98,-5.521 8.67,-9.633 2.44,-1.712 5.73,-1.314 7.91,-0.788 5.92,-7.14 14.6,-10.744 22.9,-14.201 2.49,-2.681 6.32,-4.127 9.77,-4.197 2.59,3.762 6.16,4.175 9.61,6.274 3.52,4.153 10.38,5.63 11.01,11.733 1.89,2.115 6.33,5.378 3.1,8.548 -1.1,3.497 -7.32,2.442 -6.58,6.741 0.25,4.693 -3.53,7.565 -7.11,9.821 -4.44,2.045 -7.23,7.207 -12.45,6.125 -5.32,-0.262 -11.44,-4.682 -14.19,2.282 -4.88,-0.23 -8.91,4.05 -12.27,7.32 -3.44,0.99 -4.85,3.77 -7.97,5.39 -10.7,8.2 -21.73,17.03 -28.53,28.89 -1.92,5.87 -0.94,13.55 -6.74,17.36 -1.74,3.82 -7.6,2.76 -9.25,5.43 5.15,3.39 13.9,4.11 16.31,11.42 0.47,2.87 -1.33,7.04 2.7,7.7 4.42,4.81 9.92,8.83 13.87,13.92 0.37,4.34 5.26,0.74 7.08,3.47 3,1.8 3.74,5 4.57,8.16 2.72,2.56 5.35,5.22 6.99,8.63 4.61,2.16 6.52,7.65 10.37,10.9 1.6,3.93 5.29,7.08 7.54,11.09 1.93,2.15 4,6.11 0.4,7.69 -5.26,0.46 -11.24,-1 -16.78,-1.11 -14.54,-1.17 -29.16,-0.12 -43.73,0 -2.05,0.66 -4.08,1.58 -6.18,1.96 z"/></g>
</svg>
