<?xml version="1.0" encoding="UTF-8" standalone="no"?>
<!DOCTYPE svg PUBLIC "-//W3C//DTD SVG 1.1//EN" "http://www.w3.org/Graphics/SVG/1.1/DTD/svg11.dtd">
<svg xmlns="http://www.w3.org/2000/svg" width="300px" height="350px">
<g>
<path id="fill" d="m 191.47,50.58 c -2.88,1.05 -4.16,5.89 -7.88,4.62 -10.89,-0.1 -21.68,2.93 -32.62,3.04 -2.13,-0.15 -4.61,1.61 -3.13,3.9 1.72,2.16 3,5.14 1.35,7.72 -0.86,1.76 0.55,3.51 2.5,2.78 2.12,-0.92 3.7,-0.69 5.69,0.62 3.23,2.49 5.13,6.7 9.21,8.16 -0.95,1.01 -3.79,0.27 -3.9,0.91 1.54,1.83 -0.73,3.31 -2.5,3.28 -2.56,0.62 -4.43,2.41 -6.44,3.93 -1.27,1.75 -3.33,1.38 -5.13,1.13 0.69,1.16 2.55,3.67 0.19,4.19 -2.67,-0.1 -5.25,1.59 -7.97,0.44 -9.1,-2.07 -16.99,-8.61 -26.56,-8.28 -5.57,-0.27 -10.37,3.79 -15.999,3.43 -2.466,0.46 -5.096,-2.17 -6.843,0.31 -1.425,1.63 -4.643,2.93 -5,4.72 1.676,4.06 -5.458,6.95 -2.782,10.91 2.776,-0.76 2.62,-5.85 6.188,-5.31 2.385,1.83 -0.418,4.87 -1.532,6.65 -1.292,1.41 0.06,3.85 1.688,2.13 1.185,-2.03 2.752,-4.66 5.531,-3.81 2.629,0.88 -0.374,4.12 0.219,5.71 3.97,-0.42 6.26,-4.47 9.16,-6.81 5.02,-2.76 11.61,-1.71 15.68,2.28 1.29,1.26 3.75,0.47 3.85,2.66 0.31,1.84 2.3,2.24 3.84,2.28 1.36,0.69 1.63,2.84 -0.19,3.06 -6.61,0.39 -13.51,0.55 -19.38,3.83 -5.05,2.34 -9.116,6.32 -12.977,10.13 -4.175,1.66 -8.741,4.29 -9.639,9.14 -0.692,1.17 -0.8,2.75 0.81,1.34 0.936,-1.07 3.457,-1.15 2.658,0.85 -0.938,1.53 -1.266,4.56 -0.156,5.74 1.17,-1.4 0.499,-3.99 2.438,-5.09 1.461,-1.61 4.646,-0.73 3.968,1.75 -0.242,2.43 0.04,5.86 2.313,7.22 2.115,-0.1 0.08,-2.47 0.531,-3.75 -0.29,-1.86 1.754,-4.9 3.404,-3.59 0.69,0.65 1.02,4.02 1.97,1.96 2.46,-4.41 5.09,-10.59 10.91,-10.81 6.06,1.29 12.67,-0.89 18.44,1.41 1.64,0.47 0.3,2.81 1.93,3.69 0.54,0.72 2.75,1.89 1.78,0 -0.54,-1.32 0.34,-4.27 1.97,-2.72 1.92,1.61 1.35,4.44 2.13,6.46 2.4,4.76 1.76,10.38 4.22,15.16 0.32,2.32 3.78,1.87 3.53,4.41 0.33,1.25 -0.84,3.22 0.22,4.09 0.24,-1.74 2.62,-2.3 2.81,-0.22 0.37,1.7 1.38,2.94 3,3.41 1.99,1.83 1.54,5 2.03,7.41 -2.46,4.79 -9.28,0.62 -12.56,4.27 -4.01,2.88 -6.97,7.49 -6.64,12.73 0,4.7 0.83,9.5 3.64,13.37 1.16,1.76 1.15,4.06 -0.28,5.6 0.28,1.47 3.43,1.27 3.12,3.37 -0.52,4.51 5.27,5.73 8.34,7.25 2,0.77 4.41,2.31 3.72,4.78 -5.41,0.46 -11.07,0.15 -16.34,0.97 -1.98,2.1 -6.39,-1.1 -7.22,2.28 -1.23,2.38 -4.83,2.07 -6.09,4.13 0.52,1.5 2.96,0.39 4.19,1.22 2.22,0.68 4.22,1.89 6.34,2.84 -1.29,0.37 -3.46,2.73 -1.38,3.41 2.45,0.13 3.69,-3.61 6.28,-2.78 1.3,1.41 -0.88,3.71 0.47,5.21 2.34,-1.76 4.62,-5.23 7.88,-4.62 2.75,1.79 -0.95,4.22 -1.25,6.34 -0.7,0.85 0.36,3.04 1,1.16 1.14,-2.27 2.53,-6.4 5.84,-5.25 1.73,1.39 -1.79,4.38 0.47,5.16 1.19,-1.9 3.08,-4.73 5.94,-4.79 4.46,0 8.81,-2.16 13.44,-1.5 2.54,0 4.91,1.43 7.21,0.19 4.39,-0.12 8.72,-0.11 13.07,-0.72 3.65,0.67 7.74,-0.22 11.06,-1.4 3.84,1.78 5.36,-3.27 8,-4.88 1.9,-1.18 2.68,-4.83 -0.19,-5.09 -4.83,0 -5.75,-6.86 -3.15,-9.94 2.52,-5.68 -0.35,-12.32 1.87,-18.09 -0.77,-4.24 -2.61,-8.71 -1.37,-12.97 -2.23,-7.75 -1.53,-16.46 -3.96,-24.22 0.4,-6.31 -1.79,-12.38 -2.01,-18.63 -1.03,-4.72 -3.18,-9.35 -3.05,-14.32 -1.31,-6.43 -1.96,-13.11 -3.8,-19.36 -2.19,-2.87 -4.15,-6.86 -1.87,-10.33 1.89,-3.44 4.18,-7.04 3.22,-11.11 -0.24,-3.19 3.47,-6.07 1.75,-9.1 -0.18,-2.23 0.69,-4.5 1.72,-6.34 5.29,-1.58 7.52,-7.26 9.87,-11.72 -0.68,-2.74 -4.57,-2.41 -6.84,-2.88 -2.42,-0.44 -6.51,1.16 -7.78,-1.65 -0.66,-2.8 4.31,-4.56 2.5,-7.19 -3.07,-1.85 -7.22,-1.42 -10.69,-1.9 z m -95.72,61.18 c -0.104,0 0.04,0.1 0,0 z"/><path id="outline" d="m 184.45,61.79 c -3.85,0.39 -12.17,-3.29 -2.37,-1.22 0.29,0.21 4.02,0.49 2.37,1.22 z m -3.19,4.15 c 2.76,-1.46 -2.96,-1.71 0,0 z m -2.58,0.21 c 3.58,-4.01 -3.54,-2.62 0,0 z m -3.05,11.26 c -2.29,-1.08 -4.75,-5.32 -3.01,-7.88 -2.31,-1.93 0.66,-6.57 2.78,-5.3 -5.87,-2.17 -0.94,-5.03 1.83,-2.34 1.78,1.98 14.16,1.93 8.08,3.78 -1.79,1.93 -5.08,4.72 -8.05,1.83 -3.86,-2.96 -3.17,4.41 -1.26,5.89 -0.33,1.77 0.97,3.18 -0.37,4.02 z m 17.55,-20.25 c 5.99,-0.31 2.8,-2.23 5.04,-3.11 5.38,-2.11 -6.47,0.13 -2.55,-1.87 -4.43,-2.91 -8.52,4.07 -1.53,0.88 -5.07,1.86 -1.34,3.21 -0.66,2.89 -0.88,0.42 -2.13,0.5 -0.3,1.21 z m 4.86,0.68 c 4.84,-1.83 -4.02,-2.36 0,0 z m 4.74,8.78 c 0.92,-1.24 -2.48,-1.27 0,0 z m -3.41,4.02 c 4.76,-3.57 -5.65,-1.92 0,0 z m 7.85,1.19 c 7.91,-3.44 -5.3,-5.93 -1.44,-3.86 2.63,1.02 3.4,2.23 -0.56,1.24 -5.13,1.04 0.51,1.7 2,2.62 z m -45.83,1.2 c 4.98,-1.65 -1.69,-5.65 -4.23,-4.43 -2.24,-1.42 -7.63,-2.5 -5.02,2.07 3.74,-5.15 2.77,1.85 7.44,1.05 0.56,0.49 1.08,1.04 1.81,1.31 z m 4.2,3.39 c 2.34,-1.27 -3.23,-1.98 0,0 z m 16.03,5.06 c -4.76,0 -0.59,-4.01 0,0 z m 7.75,0.95 c -3.54,-1.23 2.96,-2.21 0,0 z m 12.56,-0.62 c 2.54,-1.73 -4.25,-1.66 0,0 z m -33.07,4.39 c 3.28,-2.66 -4.94,-1.93 0,0 z m -2.79,1.68 c 2.15,-1.26 -7.83,-3.69 -3.47,-0.88 1.14,0.34 2.28,0.73 3.47,0.88 z m 10.24,0.35 c 3.68,-0.54 -7.69,-5.24 -5.17,-2.05 1.23,1.47 3.47,1.53 5.17,2.05 z m -82.402,6.43 c 10.152,-3.02 -3.701,-5.46 0,0 z m 105.102,2.81 c -0.83,-1.74 -2.93,0.5 0,0 z m -71.36,8.21 c 5.59,-1.18 -3.07,-0.28 0,0 z M 116.9,94.66 c -5.34,0.13 0.84,-3.72 1.43,-0.84 0.35,1.33 -0.63,0.71 -1.43,0.84 z m -6.2,2.03 c -4.5,-0.38 -2.31,-3.95 1.08,-1.69 1.54,1.04 0.34,2.07 -1.08,1.69 z m 20,3.04 c -4.99,-0.17 2.29,-3.72 2.8,-0.69 -0.89,0.63 -1.71,0.83 -2.8,0.69 z m -1.68,2.7 c -3.23,-1.39 2.51,-1.51 0,0 z m -28.91,4.72 c 4.68,-1.52 2.96,-7.87 7.25,-8.07 2.1,1.57 -0.6,5.18 5.04,2.37 3.61,-0.94 7.28,1.58 8.45,3.2 5.33,0.22 10.87,-0.5 15.99,-2 3.63,-1.18 8.29,-6.24 1.01,-6.24 -7.02,-2.69 -13.81,-6.59 -21.27,-7.88 -8.59,-0.68 -15.76,5.13 -23.446,7.92 -2.427,-0.81 -5.837,1.83 -2.341,3.28 3.473,0.11 6.847,-2.19 9.637,-3.93 0.48,-1.73 5.71,1.89 3.43,2.67 -4.183,-2.71 -8.115,2.65 -11.888,4.02 4.096,3.71 7.331,-2.54 10.818,-3.92 2.59,2.75 -7.779,4.73 -4.175,7.85 l 0.408,0.22 1.087,0.51 z m 27.53,1.7 c 2.04,-2.18 -3.04,-1.32 0,0 z m 3.26,1.31 c 2.69,-1.84 5.46,-2.2 3.13,-3.54 3.52,-1.3 5.41,-2.65 8.51,-4.14 -0.21,-4.2 -6.15,4.08 -8.95,1.96 -4.03,0.35 -5.62,3.35 -2.1,3.34 -1.62,0.32 -3.72,2.52 -0.59,2.38 z m 4.07,1.17 c 5.39,-0.23 3.05,-2.02 3.48,-3.11 4.94,-2 -2.34,-1.57 -2.66,1.41 -3.87,-0.69 -5.92,3.67 -0.82,1.7 z m -4.1,1.24 c 2.12,-1.55 -3.7,-1.34 -0.1,0 z m 4.24,0.67 c 4.74,-1.72 -2.81,-2.19 0,0 z m 5.42,0.34 c 1.04,-0.23 8.36,-4.1 4.93,-5.41 -2.67,-1.22 -6.57,-0.4 -3.15,1.03 -5.6,1.42 -2.31,4.41 1.33,0 4.29,0.19 -6.89,3.4 -3.11,4.39 z m -7.19,0.88 c 2.07,-2.32 -3.26,0.1 0,0 z m 4.09,0.47 c 3.63,-1.64 -3.87,-0.56 0,0 z m -43.417,18.24 c 4.645,-1.61 4.797,-5.05 -0.819,-1.35 -0.272,0.61 -0.643,1.85 0.819,1.35 z m 49.307,2.03 c 2.47,-0.67 -2.4,-0.54 0,0 z m 11.46,1.3 c 1.65,-1.45 -1.75,0.43 0,0 z m -65.528,-0.29 c 5.916,-3.78 -3.233,-0.73 0,0 z m 53.948,6.87 c 1.83,-2.58 -2.54,-1.13 0,0 z m -45.858,1.75 c 2.085,-3.92 -1.635,0.68 0,0 z m 60.868,34.63 c 4.4,-1.34 -2.69,-1.49 0,0 z m -14.67,4.73 c 4.15,-2.52 0.26,-1.52 0,0 z m 0.96,3.01 c 3.97,-1.5 9.61,-9.04 2.18,-4.01 -0.83,0.9 -5.81,3.24 -2.18,4.01 z m -3.52,3.18 c 1.99,-4.26 -2.63,1.43 0,0 z m 70.26,0.7 c 0.83,-1.63 -2.05,-0.18 0,0 z m -70.75,1.89 c 1.83,-0.3 -2.69,-1.14 0,0 z m 0.3,5.74 c -0.13,-2.33 6.97,-11.63 3.8,-4.95 -3.74,5.37 -0.12,6.03 2.11,-0.28 3.33,-3.56 0.3,-3.93 0.22,-4.62 2.54,-0.59 2.02,-4.22 5.22,-5.17 9.12,-4.62 -1.8,-2.92 -4.04,1.81 -2.54,2.18 -5.95,4.83 -6.13,8.32 -2.16,0.3 -2.71,3.52 -1.18,4.89 z m 3.48,3.37 c 5.06,-2.69 2.04,-10.71 -0.43,-2.07 -0.48,0.71 0,1.5 0.43,2.07 z m 1.84,2.38 c 5.34,-3.27 -2.81,-3.88 0,0 z m 3.23,8.99 c 2.47,-2.85 0.64,-5.24 -0.62,-6.23 2.01,-4.95 -4.04,-0.1 -2.05,3.66 3.65,-3.17 -0.19,3.25 2.67,2.57 z m 1.52,3.42 c 2.81,-3.77 0.19,-8.87 -0.79,-2.11 -0.61,0.44 0,2.59 0.79,2.11 z m -4.16,0.43 c 1.79,-1.56 -0.66,-7.89 -1.22,-3.18 0.27,1.12 -0.17,2.66 1.22,3.18 z m 6.37,1.62 c 2.6,-1.93 -0.85,-10.54 -1.35,-1.72 0.42,0.74 -0.1,2.41 1.35,1.72 z m -2.09,1.3 c -0.37,-4.27 -5.84,0.31 -0.64,-0.61 l 0.24,0.38 0.4,0.23 z m 58.13,3.83 c 1.14,-1.09 3.97,-9.87 1.5,-8.35 -0.27,2.53 -2.27,6.35 -1.5,8.35 z m -51.71,0.44 c 2.08,-2.33 -3.51,-4.99 -2.33,-2.46 1.62,-0.52 -0.21,3.31 2.33,2.46 z m 11.58,6.2 c 1.62,-1.3 -10.99,-8.73 -9.03,-3.22 3.12,-0.55 5.8,2.59 9.03,3.22 z m -25.42,0 c 6.95,-1.9 -6.49,-0.45 0,0 z m 35.55,0.42 c 2.16,0.17 -5.98,-2.83 -7.63,-3.77 -4.63,0.23 6.07,3.85 7.63,3.77 z m -17.32,1.4 c 2.01,-1.51 -0.8,-6.6 -1.95,-2.52 -4.36,-1.47 -0.49,1.97 1.95,2.52 z m 47.87,0.67 c 6.32,-1.81 -6.8,-6.75 0,0 z m -61.48,0 c 5.46,-0.84 -4.05,-3.87 -0.87,-0.17 0.16,0.37 0.57,0.14 0.87,0.17 z m 65.32,0.69 c 4.37,-2.23 -4.6,-2.33 0,0 z m -69.34,0.66 c 5.81,-1.49 -6.37,-4.44 -6.82,-0.87 2.49,1.5 3.56,-2.14 6.82,0.87 z m -11.56,1.23 c 6.37,-0.23 3.41,-2.03 0.61,-0.95 -1.27,-1.47 -3.12,1.99 -0.61,0.95 z m 7.96,0.57 c 4.15,-2.54 -4.17,-0.88 0,0 z m 5.12,1.35 c 7.59,-2.66 -4.8,-4.23 -1.18,0.19 0.39,-0.1 0.79,-0.12 1.18,-0.19 z m -7.26,0.24 c 2.66,-1.26 -2.86,-1.42 0,0 z m 10.85,1.64 c 3.08,-1.09 5.69,-4.9 9.96,-4.18 5.03,-2.55 -3.93,-0.27 -2.91,-2.52 0.64,-4.32 -10.33,-2.83 -3.12,-1.31 4,1.8 -1.8,0.99 -3.01,4.26 -0.78,1.24 -5.21,4.22 -0.92,3.75 z m -8.06,0.55 c 5.51,-0.26 -0.82,-3.96 -1.94,-0.32 -0.51,1.16 1.47,0.14 1.94,0.32 z m 3.78,1.87 c 4.84,-0.71 -1.28,-3 0,0 z M 198.36,83.7 c -1.32,0.24 1.39,-2.55 0,0 z m -2.32,2.19 c -1.05,-0.88 2.85,-0.97 0,0 z m -35.57,7.35 c -5.26,-0.28 -1.62,-2.94 0.84,-0.42 0.12,0.59 -0.52,0.33 -0.84,0.42 z m 20.9,1.1 c -6,-1.55 3.32,-2.21 5.61,-2.42 6.41,-1.69 -3.54,4.28 -5.61,2.42 z m 8.71,1.88 c -5.06,-0.26 7.85,-4.55 3.05,-1.23 -0.97,0.51 -1.98,0.97 -3.05,1.23 z m -1.01,3.09 c -5.63,-0.58 6.64,-3.58 2.08,-0.64 l -2.08,0.64 z m -36.3,0.42 c -5.41,0.26 5.21,-2.97 1.89,0 -0.62,0 -1.26,0 -1.89,0 z m 23.07,0.13 c -5.08,-0.1 -0.16,-2.75 2.53,-1.63 3.33,0.97 -1.2,1.8 -2.53,1.63 z m -4.52,2.48 c -7.82,-1.14 -2.22,-3.3 1.76,-0.88 -0.1,1.26 -0.89,0.74 -1.76,0.88 z m 1.32,3.8 c -3.76,-1.01 -7.09,-0.39 -10.56,-1.36 -2.5,0.94 -6.02,-0.68 -9.09,-0.29 -4.19,0.11 -9.53,1.59 -1.53,-0.99 6.63,-0.57 4.13,-0.37 0.3,-1.38 2.81,-1.61 7.49,-0.36 10.66,0.79 2.22,0.74 12.83,0.97 10.22,3.23 z m -1.66,5.35 c -4.39,0.5 -2.28,-4.2 0.86,-1.2 1.42,0.21 -0.1,1.63 -0.86,1.2 z m 17.5,4.81 c -1.76,-0.99 6.33,-6.68 6.16,-4.67 -1.86,1.67 -3.73,4.11 -6.16,4.67 z m 5.72,4.72 c -1.46,-3.11 -11.28,0.94 -6.34,-2.92 2.76,-2.85 8.45,-3.77 2.56,-0.1 0.65,0.38 6.59,1.52 3.78,3.01 z m -52.91,1.66 c -5.41,0.28 -2.33,-4.56 1.27,-3.35 5.62,-4.23 3.56,0.19 -0.85,1.45 1.65,2.58 7.72,-2.99 6.75,1.12 -2.39,0.28 -4.77,0.66 -7.17,0.78 z m 54.81,1.69 c -8.09,-0.5 -1.28,-5.09 0.51,-0.71 -0.12,0.44 0.57,1.15 -0.51,0.71 z m -50.75,0.26 c -7.66,0.5 3.69,-3.67 2.65,-0.36 l -0.94,0.2 -1.71,0.16 z m -0.36,2.82 c -3.03,-2.85 9.75,-1.89 0,0 z m -27.15,0.3 c -5.76,0.3 -4.26,-4.78 0.25,-1.78 3.06,-0.18 1.95,2.07 -0.25,1.78 z m 78.09,0.71 c -3.48,-3.01 6.15,-0.85 0,0 z m -84.71,0.67 c -2.86,1.32 -5.65,-4.59 -2.76,-3.95 -0.26,4.37 8.35,1.3 5.09,3.53 -0.77,0.37 -1.48,0.54 -2.33,0.42 z m 40.32,1.02 c -2.76,-1.41 3.72,-1.39 0,0 z m -4.1,0.34 c -4.59,-1.85 5.93,-3.4 1.07,-0.79 -1.08,-0.18 0.2,1.39 -1.07,0.79 z m -16.69,1.35 c -2.21,-2.21 4.54,-1.61 0,0 z m 43.04,14.13 c -2.79,0.51 0.23,-6.3 0.78,-2.53 -0.42,0.49 0.89,2.93 -0.78,2.53 z m 2.33,3.09 c -4.7,-2.06 3.87,-5.35 0,0 z m 1.33,3.39 c -3.72,-2.39 3.72,-2.94 0.11,0 z m -13.22,2.36 c -2.68,-4.6 5.01,-8.32 1.52,-1.78 -0.25,0.91 -0.49,1.57 -1.52,1.78 z m 14.93,1.97 c -1.48,-0.24 -1.68,-4.93 0.41,-2.24 1.39,0.59 0.96,2.25 -0.41,2.24 z m -25.46,0 c -2.59,0.14 -1.39,-6.92 1.2,-7.7 -0.16,2.15 -0.77,5.48 -1.2,7.7 z m 6.97,11.23 c -2.45,-4.83 3.34,-4.07 0,0 z m 5.72,0.67 c -1.02,-1.8 5.77,-10.74 -0.85,-4.88 -4.26,0.93 3.01,-6.31 0.6,-9.12 0.11,-4.48 4.13,-1.76 1.5,1.34 -1.35,7.04 0.31,3.71 3.32,-1.35 2,2.74 -1.54,7.5 -1.62,11.13 -0.88,1.02 -1.45,2.71 -2.95,2.88 z m 2.58,0.68 c 0,0.47 1.89,-9.74 3.39,-5.72 0.42,2.16 -1.76,5.01 -3.39,5.72 z m 5.65,3.94 c -5.58,-0.15 0.99,-0.87 2.82,-2.1 -1.92,0 0.1,-4.18 2.69,-3.45 0.79,-6.84 3.44,-2.94 1.69,1.37 -0.9,2.54 -4.61,4.1 -7.2,4.18 z m 5.56,2.96 c -1.9,0 0.68,-1.66 0,0 z m -6.92,0.47 c -4.98,-0.68 2.17,-1.84 4.02,-2.41 4.92,-5.33 0,3.97 -4.02,2.41 z m 13.57,3.61 c -2.8,-0.1 2.53,-4.34 2.98,-6.16 2.63,0.55 -1.14,6.12 -2.98,6.16 z m -1.51,5.24 c 0.1,-1.86 -0.89,-3.34 2.8,-4.54 4.34,-5.47 2.93,2.39 -1.24,2.48 3.5,-1.03 9.62,0.34 2.36,0.91 -1.36,0.1 -2.54,1.12 -3.92,1.15 z m -4.16,2.36 c -8.26,-1.14 3.29,-4.17 0.57,0 l -0.56,0 0,0 0,0 z m 14.13,0.34 c -5.7,0.3 -5.72,-2.58 -0.38,-2.03 0.93,1 2.55,1.27 0.38,2.03 z m -10.65,3.91 c -6.42,-2.62 5.8,-2.32 0,0 z m 13.45,0.43 c -3.57,0.66 -7.3,-4.69 -1.08,-1.76 0.66,0.1 2.64,1.35 1.08,1.76 z m 0.21,4.61 c -4.8,-0.9 2.31,-3.3 0.76,-0.16 l -0.76,0.16 z m -13.77,1.19 c -4.26,-2.98 4.63,-4.23 0,0 z m 16.35,5.74 c -2.88,-1.53 -2.94,-6.14 0.84,-2.63 0.85,0.58 0.1,2.81 -0.84,2.63 z m 0.52,2.36 c -3.31,-2.58 3.17,-1.78 0,0 z m -10.06,19.25 c -5.88,-1.03 -3.72,-2.47 0.97,-1.67 -5.65,-2.15 4.09,-3.51 1.11,0.24 0.29,1.16 -0.91,1.79 -2.08,1.43 z m -27.42,16.82 c 3.03,-0.46 6.17,-1.44 9.02,-1.34 2.1,-3.09 6.21,1.81 9.55,0.84 -5.73,-4.03 0.91,-2.92 3.04,-2.05 -2.52,-3.34 3.68,-3 3.22,-0.33 4.99,3.2 1.01,-1.1 3.26,-1.77 2.38,1.99 6.98,4.29 9.47,1.69 -2,-5.32 3.76,2.33 4.37,-1.38 -4.66,-2.04 0.35,-6.69 2.65,-2.27 4.62,0.65 -1.04,-2.37 -2.24,-4.09 -3.53,-1.55 -3.07,-4.17 -4.42,-7.29 -1.25,-2.63 -12.61,-7.29 -6.21,-6.97 5.67,4.65 6.76,3.89 2.77,0.1 3.28,-1.67 4.25,3 6.45,4.08 1.24,-3.18 -0.24,-7.38 0,-10.96 1.94,-5.96 0.36,9.41 3.75,4.75 1.16,-2.85 -0.75,-6.53 0.15,-9.23 1.67,-1.87 3.29,3.88 1.78,-0.95 -2.97,-4.07 1.46,-5.59 -1.36,-8.98 0.51,-3.36 -5.7,-16.24 -0.41,-8.33 4.06,0.55 -2.84,-8.18 -5.14,-9.45 -0.93,-5.1 5.24,4.6 4.65,0.45 -1.18,-4.02 -4.18,-6.69 -7.42,-8.42 1.56,-2.87 9.27,5.63 6.37,-1.97 -0.23,-3.83 -5.06,-5.13 -1.72,-8.06 -2.51,-2.08 -2.99,-5.22 -0.5,-5.38 -1.79,-6.5 -1.35,-16.8 -4.75,-21.37 -4.88,-0.99 4.73,-2.61 0.22,-7.09 -1.17,-4.01 -2.51,-20.67 -7.43,-16.42 -3.01,4.61 -7.72,2.28 -0.96,-0.91 6.37,-6.2 -5.78,3.05 -0.71,-1.95 2.48,-0.51 4.47,-7.56 1.2,-4.25 -2.19,2.62 -5.52,4.82 -9.06,4.38 -0.92,2.71 -7.28,4.91 -7.9,1.93 4.63,0.11 8.45,-6.05 12.41,-6.42 -2.4,5.28 2.19,0.6 3.92,-0.73 0.76,-2.95 -6.27,0.52 -1.2,-1.98 3.89,-0.77 8.9,-2.17 3.28,-1.64 1.34,-3.28 -0.62,-3.76 3.75,-5.56 0.68,4.77 3.55,-8.63 -2.33,-1.59 -4.96,4.19 -6.64,1.22 -0.2,-0.59 7.62,-5.58 -1.24,-0.8 -3.92,-0.55 2.05,-1.59 5.03,-2.36 7.29,-4.38 3.11,-2.13 0.54,-3.6 1.15,-5.25 -3.77,1.55 -8.59,6.6 -13.97,6.97 -2.02,0.59 -6.38,-0.68 -6.4,0.25 4.49,1.79 9.36,2.89 13.11,-1.14 5.17,-0.93 -0.7,0.46 -1.42,2.58 -3.13,1.38 -7.65,2.71 -10.33,0 -3.06,-0.3 -6.43,0 -9,-1.47 -4.4,1.4 -7.69,0.63 -12.34,-0.3 -3.03,0.62 10.38,2.34 3.56,2.92 -2.28,-2.5 -13.2,0.62 -8.54,1.75 5.23,2.12 -6.83,-0.16 -5.49,3.99 0.98,0.45 8.69,1.22 5.2,-0.69 -3.83,-1.01 6.46,-1.94 4.44,1 -2.52,1.59 -6.83,1.3 -10.12,1.42 -4.91,0.92 -3.6,5.4 1.26,1.51 3.17,0 -5.82,1.88 -0.95,2.76 -3.91,0.5 -6.98,5.52 -0.79,5.58 3.43,-1.66 7.82,-2.42 11.3,-0.72 -2.02,2.16 -6.95,-0.71 -9.32,2.25 -2.43,-0.18 -11.09,9.54 -5.83,5.84 5.76,-5.39 -1.89,6.99 -3.64,1.82 -3.75,-0.66 -9.18,-0.81 -13.55,-0.1 -6.15,1.11 -12.8,-0.1 -18.35,3.74 -4.46,4.25 -11.407,6.75 -8.13,9.94 -1.206,3.69 -8.453,3.01 -9.035,7.5 2.235,2.83 5.316,-1.27 6.901,-2.97 1.475,-5.62 7.814,-5.49 3.234,-0.85 -1.42,2.15 -6.804,4.48 -3.918,7.15 5.158,1.8 4.038,-5.42 7.218,-7.52 2.5,-1.02 -2.81,7.2 1.45,4.86 1.93,-2.99 2.71,-6.07 5.27,-8.48 1.41,1.83 3.51,3.34 6.84,0.83 -2.58,-1.75 8.97,-2.2 3.85,-0.23 -2.25,3.92 8.96,-4.86 4.22,1.19 4.14,4.1 11.19,-3.13 12.83,-0.46 -3.67,2.3 -4.55,3.3 0.39,2.53 3.47,-0.18 5.56,-1.67 8.16,-1.51 3.38,-0.67 -3.49,5.28 2.59,1.72 1.07,-4.93 8.73,0.9 8.99,-6.95 3.04,-3.81 1.64,2.14 0.69,3.87 -0.61,3.4 0.37,4.77 1.14,1.05 3.39,-2.62 -0.48,5.62 3.35,4.59 1.35,-4.7 3.38,4.39 7.25,3.46 1.19,3.74 -4.49,2.52 -4.93,-0.44 -2.26,-1.41 -5.22,-2.26 -7.65,-3.64 0.31,-3.25 -3.27,-4.21 -2.98,0 1.64,2.58 5.12,2.73 0.39,6.47 -2.28,-0.39 1.54,-4.1 -2.73,-2.88 -0.64,-4.94 -5.5,-0.89 -2.22,-5.05 -0.5,-1.31 -5.16,4.72 -5.01,1.53 -4.43,-0.33 -2.45,6.7 -1.12,4.25 -2.17,-3.12 5.97,-2.99 2.12,0.1 0.81,3.57 -4.9,2.88 -2.8,5.78 3.47,-0.63 3.55,-6.64 7.43,-7.4 -1.36,0.66 -4.04,8.09 -6.2,8.44 -3.47,7.26 3.5,0.17 4.98,-3.23 1.5,0.37 -2.53,6.19 -3.4,7.9 -2.78,3.07 -2.2,0.41 -0.42,3.83 2.46,2.68 3.78,-14.51 5.86,-8.72 -2.74,1.9 -0.73,5.87 -2.96,7.51 -2.11,0.9 0.85,8.22 2.15,7.07 0.1,-3.53 3.81,-3.95 3.55,-7.58 2.86,-2.51 1.97,8.29 0.1,7.4 -0.81,-3.87 -2.43,1.17 -1.7,3.09 0.4,5.46 0.98,-0.32 2.26,-2.07 1.78,0.8 -0.19,5.56 2.05,7.51 4.85,-3.13 -0.57,5.35 3.14,4.66 3.15,-6.55 4.38,-2.18 0.42,0.94 -2.04,3 4.29,-1.1 5.25,-2.85 1.77,-3.47 5.68,-2.21 6.13,-6.85 4.17,1.22 -2.87,5.64 -4.23,7.64 -5.69,4.03 -1.04,3.57 0.49,3.81 -3.64,1.04 -6.68,1.6 -0.57,1.38 2.49,0.4 9.96,1.03 7.94,-1.27 -5.52,0.19 -0.87,-2 2.28,-0.81 2.08,0.53 6.04,1.39 6.75,-1.79 1.48,-1.67 -0.18,-7.64 2.88,-4.58 0.39,3.11 -1.36,8.48 -5.07,8.3 -2.17,0.39 -10.41,1.72 -6.72,4 4.67,1.47 -4.9,2.45 -4.4,0 5.21,-0.33 -2.29,-1.94 -4.18,-1.3 -3.14,-0.9 -5.24,3.49 -7.78,2.39 0.42,-2.66 10.07,-3.3 4.75,-3.87 -5.02,0.22 -9.95,3.14 -13.37,6.66 -2.78,3.66 -5.03,11.81 -2.72,14.87 0,-1.43 3.04,-5.53 2.17,-0.73 -1.65,2.29 0.59,5.58 0.32,7.62 2.73,-0.57 3.87,-3.56 2.4,1.97 1.44,2.12 1.56,5.79 0.61,7.69 1.95,3.02 0.97,-2.93 2.89,-4.77 -1.95,-3.01 -2.84,-7.51 -0.79,-10.57 2,2.7 -1.75,7.23 1.94,9.72 -0.65,3.98 -1.69,7.72 0.84,10.71 2.68,1.73 0,-4.78 1.69,-5.83 -4.37,-3.08 -0.53,-13.89 -0.75,-5.34 3.08,3.93 1.48,6.51 2.71,10.95 -3.7,0.98 3.02,2.28 3.2,1.53 2.24,-1.82 0.46,3.75 3.57,0.81 1.42,-4.12 4.07,3.11 6.95,2.57 4.98,2.79 12.61,2.43 3.75,-0.89 -2.42,-3.42 3.84,-2.65 5.09,-0.41 3.15,0.99 6.25,-0.44 5.98,2.1 4.67,-1.74 2.57,2.15 -1.04,1.42 -0.38,3.32 4.23,5.5 5.98,2.87 3.08,1.13 9.24,1.93 2.5,2.56 -3.32,0 -7.39,1.15 -9.26,-2.46 -0.64,-4.21 -3.9,-1.41 -6.79,-2.12 -3.4,-0.33 0.43,3.92 -5.17,2.16 -4.09,-0.33 -8.1,-3.8 -12.15,-1.2 -3.62,2.39 -7.46,4.4 -12.38,5.99 -4.4,2.81 2.38,2.62 4.6,2.5 3.24,-1.75 6.23,-3.36 10.05,-2.62 1.7,2.95 -6.42,0.91 -8.24,3.32 0.17,1.84 2.54,0.81 3.68,1.24 z m -10.71,0.76 c 3.47,-1.26 -1.38,-1.27 0,0 z m 13.94,-161.9 c 2.01,0 3.9,0.16 4.53,1.26 -3.47,-5.19 -1.85,-5.95 1.78,-1.45 0,2.2 3.12,4.26 4.64,4.36 -0.24,-2.18 -5.55,-7.96 -1.25,-5.39 1.79,1.28 1.1,5.89 5.2,3.2 5.21,-4.97 -0.68,3.61 3.33,1.12 3.29,0 5.95,-0.47 6.7,-4.72 0,3.64 1.99,-0.77 3.26,1.43 2.01,-2.58 5.69,-1.54 2.19,-3.31 -2.51,-4.72 5.7,0.91 1.83,-2.22 4.75,-0.76 -2.2,-1.66 -4.54,-1.3 -4.83,-0.39 -3.79,-4.57 0.46,-1.74 1.98,2.45 6.74,-0.62 8.17,2.2 4.35,-5.71 -3.91,0.16 -6.38,-3.77 -2.41,-2.02 -7.4,-3.18 -1.41,-5.63 2.65,1.5 4.45,-3.19 8.27,-0.74 3.27,-1.2 5.27,2.35 7.17,1.41 3.37,-6.11 -8.23,-3.1 -11.53,-4.76 -2.39,0.82 -4.79,4.09 -7.79,2.43 -1.27,-1.4 6.17,-4.15 -0.31,-4.94 -2.48,-3.44 -7.24,-1.3 -10.85,-1.97 -10.25,-0.1 -20.13,3.16 -30.42,2.65 -3.66,3.81 2.15,-0.74 3.48,0.81 0.41,2.66 -5.97,2.68 -0.35,4.93 2.84,1.11 7.38,1.91 9.44,1.18 1.43,-2.66 5.64,4.6 2.14,4.76 2.24,2.17 2.28,6.85 4.41,9.26 -1.95,-0.37 -6.36,-4.42 -3.72,-0.6 M 153.81,72.6 c -2.63,1.01 -6.27,1.34 -5.08,-2.91 1.08,-2.35 1.18,-3.87 -1.08,-6.77 -3.27,-6.33 5.58,-5 9,-5.47 8.9,-0.67 17.82,-2.71 26.71,-2.83 4.69,1.95 5.35,-6.1 9.88,-4.32 5.47,0.44 14.04,0.43 7.57,7.13 -3.19,5.34 5.6,2.58 8.47,3.73 2.87,0 7.66,1.84 4.43,5.06 -1.6,3.43 -3.88,8.56 -9.14,10.21 -1.35,3.58 -2.04,5.61 -0.75,7.03 l 0,0 c -0.29,3.44 -2.97,5.69 -2.28,9.2 0.95,5.12 -4.46,9.51 -4.36,13.73 0.11,2.76 2.13,4.62 3.33,7.1 1.29,6.64 2.39,13.13 3.55,19.64 -0.39,6.03 3.62,11.15 3.09,17.14 1.05,5.07 2.11,10.31 1.79,15.4 2.71,7.6 1.6,15.99 4.01,23.73 -1.36,4.46 0.64,8.57 1.37,12.95 -2.35,6.04 0.71,12.53 -2.01,18.36 -2.43,3.12 -1.51,9.66 3.22,9.12 3.69,1.53 1.54,5.14 -0.86,6.71 -2.51,2.32 -3.55,5.87 -7.59,4.27 -2.21,1.36 -5.86,1.2 -8.62,1.87 -3.15,-1.24 -5.85,0.62 -9.1,0 -3.01,0.7 -5.48,-0.57 -8.14,1.03 -5.78,-1.71 -11.27,-1.03 -16.82,0.68 -3.45,-0.78 -6.28,1.54 -7.25,4.73 -4.3,-0.12 0.27,-4.46 -1.56,-5.4 -3.71,-0.54 -3.92,4.99 -5.95,6.35 l 0,0 c -2.72,-1.1 0.23,-5.16 1.45,-6.92 -0.6,-4.68 -6.83,1.81 -8.44,3.27 -3.12,-1.84 2.61,-8.2 -3.82,-4.24 -2.47,3.71 -6.89,0.49 -2.6,-2.2 -3.48,-1.56 -5.22,-2.97 -9.47,-2.89 -2.78,-3.37 5.57,-2.87 5.89,-6.56 1.98,-2.31 5.35,0.62 7.46,-1.83 5.27,-0.22 10.53,-0.41 15.79,-0.69 0.88,-4.85 -12.23,-4.4 -12.17,-10.93 0.77,-3.57 -5.6,-1.67 -1.99,-5.83 0.6,-2.54 -2.24,-5.56 -3.3,-8.33 -1.24,-5.27 -1.99,-11.37 0.5,-16.35 2.52,-3.08 2.59,-3.72 5.59,-5.88 3.18,-3.29 9.83,0.57 12.04,-3.81 -0.69,-2.24 -0.1,-6.23 -2.57,-7.15 -2.96,-0.27 -2.15,-7.56 -4.57,-2.72 -2.95,0.34 1.08,-6.41 -2.74,-6.45 -2.25,-1.71 -2.21,-4.66 -3.52,-6.99 -0.61,-4.1 -0.83,-8.14 -3.05,-11.55 1.04,-3.11 -3.12,-9.05 -2.53,-2.92 1.54,3.75 -4.82,0.1 -3.73,-2.82 -3.64,-2.65 -11.91,-0.69 -17.37,-1.61 -6,-1.2 -8.42,4.42 -11.2,8.65 -2.56,6.03 -2.64,0.6 -3.83,-0.45 -3.103,0.86 -2.378,4.95 -1.701,7.06 -3.243,3.03 -4.589,-3.78 -4.641,-6.16 1.513,-5.12 -5.166,-2.7 -4.45,1.57 -2.398,4.81 -3.155,-2.87 -1.577,-5 0.938,-3.58 -6.398,4.77 -3.213,-2.83 1.302,-5.28 6.032,-7 10.082,-8.97 6.76,-7.92 16.52,-13.39 27.05,-13.43 1.87,-0.22 8.42,0.4 4.93,-2.51 -3.12,0.1 -3.63,-1.31 -4.4,-3.72 -3.5,-0.25 -4.82,-3.35 -8.19,-4.21 -3.33,-1.36 -7.9,-0.72 -10.79,1.1 -2.28,2.74 -3.89,4.43 -7.039,6.21 -5.905,2.19 1.376,-5.99 -2.692,-5.38 -3.798,-0.94 -3.165,5.5 -7.041,4.17 -2.21,-3.18 4.28,-6.31 2.022,-9.16 -3.612,-0.38 -3.194,5.41 -6.391,5.34 -3.768,-4.27 5.352,-8.34 2.072,-11.96 2.881,-2.17 4.859,-4.05 7.572,-6.06 4.13,1.72 9.037,1.29 12.937,-0.69 3.04,-0.31 5.46,-2.41 8.69,-1.62 7.21,-0.43 13.79,3.83 20.27,6.29 3.89,1.11 8.22,3.61 11.82,1.48 7.01,0.82 -2.32,-5.13 3.09,-4.11 2.91,1.09 3.77,-2.33 6.09,-2.78 2.93,-3.84 9.55,-1.22 5.42,-6.01 1.66,0.1 3.25,0.31 3.98,-0.1 -5.18,-2.44 -6.33,-8.61 -11.55,-8.77 z"/></g>
</svg>
