<?xml version="1.0" encoding="UTF-8" standalone="no"?>
<!DOCTYPE svg PUBLIC "-//W3C//DTD SVG 1.1//EN" "http://www.w3.org/Graphics/SVG/1.1/DTD/svg11.dtd">
<svg xmlns="http://www.w3.org/2000/svg" width="300px" height="350px">
<g>
<path id="fill" d="m 91.188,81.094 c -5.273,1.148 -9.569,5.096 -12.532,9.468 -0.929,3.38 -0.177,7.411 -2.844,10.218 -1.533,2.54 -4.145,3.94 -5.394,6.77 -5.469,8.31 -12.619,15.44 -19.449,22.45 -0.74,1.95 1.348,4.17 3.093,5 2.385,0.69 4.435,3.17 2.844,5.62 -1.427,2.01 0.693,6.01 3.156,4.47 0.953,-4.18 5.109,-6.43 9.126,-6.5 3.986,-1.64 8.162,-5.21 12.657,-2.95 1.639,0.96 3.79,0.86 5.28,0.36 3.457,2.98 10.183,1.18 11.687,6.38 -0.05,2.08 0.66,3.95 2.598,5 1.97,1.07 1.36,3.46 -0.32,4.4 -4.697,5.42 -12.524,7.31 -17.434,12.25 -3.813,5.23 -5.264,11.96 -10.344,16.31 -3.173,2.84 -5.83,6.76 -6.312,11.04 1.348,0.79 4.42,0.17 4.281,2.68 -1.374,2.92 2.071,5.96 4.813,5.06 -0.181,-1.67 -2.195,-3.09 -1.5,-5.12 -0.155,-2.08 2.431,-4.37 4,-2.28 0.831,2.48 1.583,6.8 5.125,5.94 2.277,0 -0.256,-2.74 -0.281,-3.82 -0.4,-1.81 0.475,-3.63 1.093,-5.25 2.227,0.33 1.551,4.72 4.281,4.6 2.686,-0.48 1.035,-3.64 0.75,-5.31 -0.442,-4.18 3.753,-6.98 6.688,-9.16 2.167,-1.95 4.89,-2.71 7.69,-2.94 3.99,-1.04 7.79,-2.68 11.65,-4.12 0.1,7.7 0.72,15.44 3.03,22.74 0.83,3.91 0.68,10.22 -4.18,11.07 -3.17,0.19 -6.47,-0.31 -9.11,1.78 -2.44,1.15 -4.99,1.57 -6.768,3.78 -1.124,0.6 -1.692,2.11 -0.187,2.59 -1.183,1.05 -1.804,4.34 0.656,3.79 2.599,-0.65 3.389,-5.06 6.439,-4.6 1.63,1.49 -0.99,3.95 -0.47,5.41 2.66,1.13 3.84,-3.27 6.55,-2.94 3.67,-1.38 7.7,-1.15 11.51,-0.78 5.67,-0.13 11.43,-3.11 13.38,-8.72 2.3,-4.76 2.32,-10.26 2.97,-15.34 1,-2.2 6.29,-1.28 5.25,-4.66 -1.56,-0.85 -4.73,-0.62 -4.5,-3.31 0.44,-1.68 1.7,-3.05 1.78,-4.94 0.73,-1.77 2.17,-3.06 1.68,-5.25 0.3,-2.2 -1.59,-4.53 -0.56,-6.37 3.82,-4.48 10.22,-2.03 15.28,-2.66 2.24,0.33 4.56,2.69 6.78,0.97 4.83,-0.54 10.09,-0.71 14.35,1.56 2.17,-0.26 4.03,-2.53 6.37,-1.44 1.07,-0.64 3.03,0.38 1.66,1.44 -1.54,1.45 -4.78,4.07 -2.5,6.13 2.33,3.41 0.21,8.15 2.59,11.53 1.25,4.34 -0.25,9.84 3.85,12.84 2.39,1.41 1.67,5.12 -1.06,5.5 -2.31,1.04 -4.39,-1.74 -6.5,0.1 -2.16,1.87 -4.9,1.37 -7.35,2.32 -3.4,1.6 -4.32,5.45 -6.22,8.28 -0.79,1.54 0.4,4.14 2.31,2.87 3.39,-1.44 6.61,-4.97 10.6,-3.62 -1.58,1.46 -3.76,3.64 -3.38,5.81 2.42,-0.64 4.14,-3.01 6.78,-3.38 4.57,-0.94 9.2,-1.47 13.29,-3.78 1.83,-1.21 3.3,1.02 2.25,2.6 -0.6,1.01 -0.72,3.14 0.87,2 1.96,-2.13 4.29,-3.66 7.35,-3.47 1.18,-0.31 4.66,-0.61 3.68,1.53 -1.25,1.79 -4.81,3.07 -4.37,5.53 2.78,1.1 4.66,-3.25 7.62,-2.84 5.86,-0 11.79,-1.07 17.48,-2.13 3.6,-1.6 9.12,-3.63 8.37,-8.59 -0.28,-4.89 0.98,-10.27 -1.82,-14.59 -1.27,-2.25 -0.92,-4.82 -2,-7.04 0.32,-1.96 0.45,-4.22 -1.72,-5.12 -4.35,-3.67 -3.18,-10.53 -1.53,-15.25 0.42,-1.82 -1.45,-4.77 0.53,-5.81 2,0.46 2.12,3.4 4.26,4.09 2.64,1.78 6.97,1.52 8,-2 1.05,-1.73 0.39,-2.81 -1.22,-3.53 -4.39,-3.9 -3.44,-10.65 -3.91,-16 0.59,-7.48 -3.46,-14.08 -5.5,-21 -1.28,-2.59 -4.56,-2.88 -6,-5.47 -2.53,-2.78 -7.01,-2.44 -9.56,-5.31 -4.4,-2.9 -9.66,-4.71 -14.91,-5.03 -5.24,0.84 -10.21,-1.29 -15.5,-0.77 -3.16,0.1 -6.33,-0.61 -9.22,0.86 -5.71,1.01 -11.32,-1.46 -17.06,-1.34 -8.51,-1.15 -16.85,-3.607 -25.38,-4.504 -8.84,-2.504 -18.3,-1.863 -27.4,-2.25 -2.48,-0.888 -1.46,-4.314 -1.56,-6.281 1.09,-1.754 1.14,-6.396 -1.94,-5.719 -3.93,2.656 -9.836,1.633 -12.454,6.362 -1.215,1.105 -2.761,4.13 -4.704,2.92 -1.188,-2.399 1.611,-4.588 0.157,-7.063 -0.57,-1.254 0.235,-3.051 -0.09,-3.937 -0.474,-0.07 -0.956,-0.183 -1.437,-0.09 z M 213.91,192.66 c 2.52,0.21 2.55,3.66 4.15,5.12 1,1.39 2.65,5.1 -0.18,5.41 -1.94,-0.39 -4.06,-0.16 -5.97,-0.75 -0.43,-1.63 3.66,-1.01 2.25,-2.97 -1.91,-1.43 -3.28,-5.86 -0.25,-6.81 z"/><path id="outline" d="m 210.2,219.25 c -3.03,-0.57 0.62,-4.31 2.1,-5.22 4.56,-3.57 -2.61,-1.88 -5.03,-1.61 -2.2,0.27 -4.21,4.96 -6.22,2.76 0.77,-3.4 2.54,-6.33 -3.15,-3.43 -5.28,2.91 -11.9,1.27 -16.4,5.81 -4.8,2.16 -1.08,-4.22 0.66,-5.58 -2.94,-0.81 -6.91,2.96 -9.93,4.02 -2.99,0.91 -3.4,-3.82 -1.26,-5.35 1.28,-3.65 3.69,-7.18 7.81,-7.66 3.11,0.41 4.87,-2.59 7.73,-2.32 1.47,1.35 5.33,1.03 5.89,-1.31 0.64,-2.38 -3.88,-3.68 -3.82,-6.59 -1.74,-3.51 0.16,-7.85 -2.52,-11.09 -0.54,-3.64 0.46,-7.8 -2.4,-10.66 -0.58,-4 7.12,-6.87 2.16,-6.19 -3.43,-1.11 -4.45,2.06 -7.04,1.35 -4.09,-2.52 -9.11,-1.75 -13.63,-1.46 -2.79,1.99 -4.96,-1.22 -7.6,-0.98 -5.33,0.73 -10.58,-2.01 -14.47,2.95 0.86,2.98 1.5,5.92 0.67,9.08 -2.03,1 -1.12,4.36 -3,5.94 -0.86,4.59 4.85,1.57 4.6,5 -0.79,3.48 -5.06,1.78 -5.66,4.39 -0.23,6.55 -1.03,13.15 -4.96,18.64 -2.81,3.95 -8.42,5.17 -13,5.35 -4.11,-1.15 -8.06,0.13 -12.04,1.18 -1.16,1.55 -4.42,4.27 -5.51,1.56 1.49,-2.94 2.58,-7.14 -1.92,-2.74 -2.559,4.8 -7.532,3.03 -4.527,-1.33 -2.747,-1.71 2.092,-3.85 3.067,-5.43 2.73,-0.46 5.05,-1.99 7.44,-3.09 3.31,-0.67 8.13,1.18 9.5,-3.14 2.49,-6.02 -1.83,-12.49 -1.94,-18.61 -0.29,-3.52 -0.79,-8.05 -0.7,-11.1 -4.63,1.68 -9.68,4.07 -15.04,4.5 -3.692,2.31 -7.938,4.76 -9.82,8.75 -1.217,2.86 2.372,6.07 -0.57,7.83 -4.335,1.99 -4.528,-8.84 -5.346,-2.19 -2.27,2.57 3.731,6.97 -1.004,6.89 -3.721,0.7 -4.325,-4.17 -5.192,-6.28 -2.775,-2.2 -3.841,3.48 -2.502,4.99 4.22,5.13 -6.045,2.91 -5.056,-1.56 1.612,-5.51 -6.439,-0.39 -3.45,-6.37 1.184,-6.14 7.051,-8.92 9.926,-14 3.365,-4.87 4.191,-11.64 10.224,-14.32 4.609,-3.16 10.093,-5.13 13.84,-9.62 3.58,-2.83 -2.732,-3.57 -2.598,-6.85 0,-6.86 -7.802,-4.34 -11.712,-7.79 -3.01,1.95 -5.845,-1.71 -9.104,-0.82 -3.848,0.23 -6.526,3.96 -10.486,3.76 -3.904,0.88 -5.629,2.64 -6.731,6.14 -2.635,1.89 -5.374,-1.81 -4.251,-4.52 2.951,-5.83 -4.212,-4.12 -5.468,-8.76 -2.187,-2.39 2.527,-4.71 3.812,-6.62 6.771,-6.64 12.972,-14.1 17.923,-22.07 2.342,-1.15 2.8,-3.21 4.264,-5.094 1.158,-2.787 0.475,-5.311 1.47,-8.047 1.966,-3.43 5.04,-5.821 8.289,-7.976 1.82,-1.262 5.525,-2.63 7.002,-1.166 -1.611,3.132 1.35,5.699 -0.638,8.368 -0.913,5.891 3.67,-0.25 5.43,-2.319 2.858,-3.122 7.898,-2.416 11.298,-4.826 3.68,-0.921 3.78,4.497 2.36,6.669 0.7,1.871 -1.14,5.301 2.28,5.471 9.17,0.04 18.45,-0.253 27.32,2.368 9.84,0.593 19.19,4.372 29.1,4.542 4.93,0.54 10.31,2.69 14.99,-0 5.35,0.43 10.93,-0.26 16.13,0.88 3.07,0.88 6.43,-0.71 9.58,0.54 3.94,0.86 7.77,2.09 11.21,4.32 2.2,2.02 4.6,3.03 7.44,3.82 2.86,1.06 3.73,4.29 6.79,5.19 2.29,1.75 2.72,4.53 3.36,6.86 2.43,5.43 4.59,11.21 4.05,17.25 0.59,5.54 -0.54,13.65 5.78,16.2 -0.23,3.09 -2.1,6.84 -5.72,6.26 -2.97,-0.12 -5.78,-2.09 -6.97,-4.9 -2.42,-1.54 0.21,4.57 -1.08,6.18 -1.29,4.44 -2.12,9.77 1.27,13.49 4.89,2.83 0.74,4.66 3.16,7.43 -0.34,3.89 2.43,6.61 2.98,9.98 -0.19,4.39 0.37,9.02 -0.28,13.27 -1.97,3.29 -6.03,4.72 -9.34,6.22 -5.63,0.37 -11.08,1.92 -16.71,1.72 -2.86,0 -4.53,2.99 -7.11,3.34 l 0,-0.25 z m 10.43,-6.13 c 3.56,0 4.1,-4.59 6.95,-4.9 -1.31,3.31 -2,5.34 2.19,1.38 2.55,-4.22 1.79,3.96 5.25,0.97 0.28,-2.25 3.56,-5.97 3.75,-1.84 3.27,1.09 2.52,-6.04 0,-6.67 -2.58,0.56 -5.61,-0.59 -4.79,1.87 -4.6,0.31 -9.49,-0.57 -13.94,0.43 -2.35,1.61 -4.95,1.83 -7.69,1.23 -3.44,-0.18 -1.17,4.07 -0.34,5.06 4.47,0.34 8.19,-3.95 12.34,-4.64 -0.6,2.47 -4.4,3.88 -7.06,4.62 -1.84,1.85 3.28,3.16 3.34,2.49 z m -105.22,-0.71 c 2.88,0.22 3.45,-4.76 6.32,-4.57 -4.28,3.29 -1.26,4 2.47,3.13 2.42,-0.5 4.67,-1.19 6.92,-2.13 2.46,-1.1 4.8,-6.75 3.17,-7.52 -1.09,2.37 -2.6,5.55 -5.21,6.11 3.32,-5.42 1.61,-3.75 -2.03,-0.75 0.12,-0.16 3.77,-10.05 4.09,-4.91 4.89,1.94 -1.38,-7.66 2.95,-5.31 4.22,3.47 0.64,-2.36 -0.91,-2.89 -1.8,-2.97 -0.74,-4.85 1.79,-4.41 0.12,-2.42 -4.27,-3.41 -2.65,-5.62 1.96,0.77 5.11,0.23 1.87,-2.5 -4.13,-1.33 -1.31,-6.16 1.26,-1.83 1.94,1.09 1.9,8.43 3.49,5.56 -0.74,-2.5 0.44,-5.36 -0.91,-7.86 -4.02,1.25 -2.77,-2.49 -4.35,-4.35 -3.1,-3.81 4.01,-1.6 3.58,1.63 3.38,4.3 4.45,-2.11 -0.27,-2.35 -1.05,-2.17 -4.77,-3.03 -5.32,-5.24 2.89,-1.48 -2.6,-2.35 -4.11,-2.29 -2.8,-1.55 -6.68,-2.93 -8.28,-5.52 -1.91,2.47 -4.42,-2.78 -5.91,-0.54 0.67,3.77 4.02,3.47 5.31,2.62 3.47,1.37 2.67,4.48 3.53,7.36 -2.09,2.99 -2.05,-2.69 -3.38,-3.98 -3.19,-2 -1.63,5.89 -1.35,7.47 1.03,9.01 2.19,18.2 4.76,26.84 -1.23,1.99 0.51,7.51 2.38,4.43 0.66,-6.37 4.41,-1.41 1.36,1.58 -1.35,2.31 -4.63,3.06 -5.53,-0.11 -5.61,0 0.81,2.7 -4.05,3.8 -0.54,2.08 -6.13,2.77 -0.99,4.15 z m -11.9,-0.62 c 6.8,-2.23 -2.92,-1.26 -0.39,0.1 l 0.39,-0.1 0,0 z m 5.93,-0.21 c 1.61,-0.7 7.69,-5.05 2.63,-4.09 -4,-1.02 -4.49,1.22 -2.61,3.99 l -0,0.1 z m 80.72,-0.57 c 4.73,1.39 3.82,-2.59 5.11,-3.13 3.46,0.43 11.11,3.22 4.59,-1.91 -4.04,-2.26 -3.2,-5.43 0.22,-1.62 2.35,-0.18 4.64,0.24 7.52,0.33 4.75,0.46 1.58,-0.71 0.28,-2.39 -3.21,0.44 -5.6,-0.63 -8.03,-2.94 -3.07,-1.39 6.06,7.45 -0.46,2.5 -2.32,-3.42 -3.63,0.18 -6.18,0.94 -3.49,2.17 -7.65,2.57 -11.69,2.48 0.65,2.17 3.2,1.51 -1.66,2.32 -0.17,2.04 5.24,2.6 6.18,1.16 2.03,-3.68 6.54,-5.38 10.24,-3.38 -1.03,0.33 -10.41,4.12 -7.37,5.98 0.38,-0.17 1.03,0.12 1.25,-0.34 z m 15.67,0.21 c 3.82,1.44 4.82,-5.2 1.24,-2.33 -0.45,0.66 -2.42,1.84 -1.24,2.33 z m -30.43,-0.4 c 5.34,-1.2 -2.65,-3.82 0,0 l 0,0 z m 40.9,-8.38 c 5.24,1.57 1.46,-4.44 -0.1,-6.57 -2.02,-6.04 -5.44,-0.63 -2.24,2.64 4.13,3.94 -6.2,3.23 1.16,3.89 0.36,0.1 0.79,-0.11 1.13,0 z m 7.9,0 c 2.86,-1.74 -4.33,-1.44 0,0 z m 4.35,-0.34 c 0.64,-3.5 -6.32,-4.44 -0.88,-0.45 -0.16,0.68 0.91,0.18 0.88,0.45 z m 4.05,0 c -0.62,-1.54 2.31,-1.85 4.87,-1.06 4.38,0.57 2.74,-3.81 0.44,-5.65 -0.52,-4.48 3.89,1.75 3.85,-0.25 -0.37,-2.72 -3.2,-3.91 -4.89,-5.79 -5.83,-0.1 1.6,-1.31 0.47,-3.79 -1.7,-1.34 -4.06,-3.2 -4.61,-5.59 2.85,-1.32 0.12,-5.35 -0.68,-7.92 -0.43,-3.32 1.1,-7.19 -1.31,-9.94 -3.15,2.8 -4.95,-3.78 -1.18,-2.83 -0.23,1.56 5.4,2.85 5.11,1.36 -0.15,-3.03 -3.41,-5.52 -3.29,-8.69 1.87,-1.55 4.18,4.22 4.96,2.25 -3.3,-0.57 -1.1,-6.54 -3.49,-5.69 -3.52,5.31 -5.05,-0.1 0.4,-1.76 0.43,-4.06 -2.95,1.19 -4.28,1.13 -1.01,-3.07 5.24,-4.75 3.76,-8.62 -1.23,2.86 -5.17,3.12 -2.47,-0.19 1.46,-1.89 2.44,-4.89 0.95,-7.03 0.68,-3.22 -1.84,-5.13 -1.8,-8.38 2.79,-2.76 3.01,3.97 4.09,3.96 3.02,-2.53 2.52,2.9 4.84,3.85 0.45,4.92 3.1,1.49 1.24,-1.52 -0.24,-4.3 -2.67,-7.59 -5.99,-10.01 3.23,-4.21 -7.75,-4.45 -6.52,-7.51 -4.53,0.1 -6.15,-1.78 -7.5,-3.88 -2.75,-1.29 -5.67,-0.93 -8.59,-0.6 1.87,-2.23 3.77,-2.75 -0.9,-2.44 -2.89,-0.22 -6.35,1.4 -8.54,-1.17 -6.64,-0.64 -13.25,-0.44 -19.76,1.16 -3.87,1.06 -8.62,-2.21 -11.32,1.54 -2.34,2.89 -7.2,0.15 -2.43,-0.95 5.41,-0.81 -3.76,-3.53 -3.08,-0.57 -3.48,2.56 -5.87,0.18 -8.72,1.73 -2.05,1.55 -5.26,0.14 -6.84,0.17 0.66,-3.71 4.63,-0.87 6.9,-2.41 2.7,-1.33 4.08,1.3 7.08,-0.67 -3.53,-1.82 -9.69,-1.73 -14.08,-3.11 -3.16,0.18 -5.59,-2.651 -8.77,-1.66 -3.76,1.63 -6.97,0.204 -4.71,-1.656 -5.45,0.367 -11.16,0.657 -15.71,4.016 -1.84,0.7 -9.67,7.9 -7.48,3.06 4.54,-3.1 9.66,-5.285 14.81,-7.15 -1.76,-2.23 -5.24,-0.333 -7.34,0.975 -4.58,1.845 -8.2,5.305 -11.47,8.795 -2.53,0.68 -3.25,5.48 -5.79,2.87 -4.103,0.58 4.05,-5.41 -0.78,-2.31 -2.281,2.08 -7.106,1.22 -6.745,-1.87 1.888,-0.46 4.226,0.7 6.535,-1.12 3.49,0.44 6.29,-4.04 7.51,-6.503 0.63,-2.285 0.44,-4.009 -0.17,-4.963 1.48,-2.761 -2.86,0.65 -4.19,0.934 2.98,-0.934 3.66,0.544 -0.47,1.482 -5.414,1.519 -0.19,0.809 2.51,0.63 -1.81,0.913 -3.03,3.168 -6.01,3.33 -4.606,-0.648 -0.67,3.32 1.68,0.81 3.41,0.78 -4.105,3.02 -5.93,2.05 -1.509,-2.42 0.447,-6.551 1.839,-9.093 1.105,-2.57 12.271,-6.071 7.001,-2.89 -3.19,1.717 0.74,2.919 2.46,1.083 1.1,-1.912 3.11,-7.003 -0.96,-5.883 -3.7,1.404 -7.588,2.515 -10.126,5.764 -3.812,2.537 -2.226,8.339 -6.056,10.999 -5.248,1.64 -2.843,-3.837 0.85,-4.958 1.973,-1.944 -2.997,-2.354 -4.11,-1.792 -6.112,2.24 -10.245,7.77 -15.534,11.25 -5.627,7.57 -10.831,15.99 -18.904,21.21 3.54,0.42 -0.473,4.43 3.493,5.35 3.424,1.3 6.825,-1.26 10.147,-2.01 -0.166,-3.11 3.607,-1.8 5.427,-2.96 1.882,2.82 6.965,-1.72 7.62,1.4 3.674,-1.36 2.655,2.65 5.827,1.89 4.721,-2.41 7.877,0.78 11.819,1.01 3.517,-2.35 4.867,1.33 8.047,-0.83 -2.16,-1.48 -1.17,-1.14 1.84,-0.51 4.46,0.87 -1.35,-3.47 2.62,-3.04 -1.93,-1.89 -4.64,1.92 -7,1.97 -5.34,1.58 -3.35,-3.89 1.6,-2.2 2.05,-1.33 4.79,-1.26 6.42,-2.87 1.46,0.17 -2.44,6.37 2.27,1.82 1.18,-2.45 9.61,-4.2 4.81,-1.01 -3.28,-0.1 -6.73,7.01 -2.03,3.81 2.86,1.52 -5.24,3.55 -6.3,5.29 -1.87,5.84 5.68,-3.49 5.91,-0.2 -1.41,1.34 -5.66,5 -1.1,4.41 0.41,2.14 -1.23,4.83 -2.07,6.77 -2.8,1.84 -1.52,4.4 0.16,5.58 0.23,2.82 3.46,3.47 5.57,4.58 -1.24,-6.16 3.26,1.33 6.23,0.93 2.37,1.5 5.26,1.65 7.89,2.47 2.86,-3.41 0.86,1.73 3.4,2.55 4.17,2.68 0.49,-2.39 -0.19,-2.25 -0.51,-4.01 6.1,0.8 2.28,-3.4 -2.9,1.15 -8.06,-4.88 -3.14,-2.7 3.85,4.15 3.88,-1.19 3.22,-3.95 0.12,-3.09 -4.57,-7.22 -2.08,-9.29 1.81,0.17 6.88,5.97 6.65,1.12 2.11,-0.49 5.66,2.18 4.54,4.26 -3.41,-0.77 -11.06,-2.58 -5.69,3.25 2.84,5.17 -0.21,-5.07 3.15,-0.31 0.83,1.84 5.11,4.71 5.75,1.68 0.88,-0.85 8.49,2.38 6.51,3.54 -4.16,0.58 -11.87,-2.57 -14.26,-0.36 -2.2,2.06 4.32,4.73 5.95,2.89 2.38,2.25 7.82,6.63 5.94,1.28 1.75,-2.61 4.34,1.52 6.64,2.22 2.29,1.23 -0.93,-6.07 3.53,-2.95 2.47,1.69 9.47,5.77 5.41,0.33 0.53,-2.65 2.81,0.94 4.85,-1.05 1.96,3.12 4.93,2.28 7.46,3.84 1.08,1.34 7.78,2.66 4.7,0.26 -3.81,-3.13 -9.01,-3.25 -13.21,-5.73 0.5,-3.27 4.42,1.68 6.72,1.28 3.84,1.57 6.56,2.43 9.79,0.6 2.76,2.52 5.53,-2.17 2.26,-3.12 -5.45,-1.76 -11.47,-1.63 -17.06,-3.15 0.77,-4.15 10.79,2.38 14.59,1.33 6.19,2.67 3.46,-0.58 -1.63,-1.78 -4.88,-1.32 1.89,-2.24 3.44,-0.23 2.41,-1.46 3.79,1.06 5.5,0.68 0.5,-2.44 -6.59,-1.84 -8,-4.84 -0.83,-4.26 4.65,1.71 6.56,2.09 3.91,-2.24 -3.67,-3.38 -3.86,-5.02 2.81,-1.3 6.87,5.22 6.44,-0.21 -2.66,-0.15 -4.94,-1.48 -7.24,-2.87 -4.02,-0.53 -9.01,-2.93 -8.96,-7.6 -1.01,-2.44 2.58,-6.43 2.64,-2.05 -0.33,2.1 2.35,8.35 3.94,6.06 -1.72,-3.06 2.38,-3.92 2.26,-0.56 1.72,2.94 5.94,6.52 4.38,1.27 2.42,-1.28 4.64,4.21 4.9,6.49 -0.97,2.03 -3.4,7.6 0.1,3.2 2.84,-2.45 -0.21,-6.3 1.87,-8.73 -1.93,-1.78 -0.35,-6 1.24,-2.47 2.2,3.96 1.05,9.41 -1.66,12.85 -1.33,2.51 -2.03,4.25 -3.91,6.38 -2.47,1.8 0.48,7.13 -3.48,6.76 -3.22,-0.64 2.83,0 1.92,2.36 2.08,-0.66 2.32,0.87 4.68,-0.17 1.88,-3.85 2.52,4.27 4.02,5.85 2.05,2.3 3.41,4.74 5.32,1.96 3.9,4.31 3.54,0.37 5.79,0.52 3.92,0.39 5.7,4.48 0.94,2.82 -2.17,0.51 -4.18,1.43 -7.45,-0.99 1.02,0.73 -1.58,6.95 3.02,3.02 1.1,1.28 0.29,4.96 1.79,6.93 1.71,2.28 4.73,2.65 1.44,4.85 4.59,1.12 1.18,5.82 5.66,7.74 5.21,3.15 2.41,0.32 0,-1.83 2.18,-2.21 5.58,3.48 7.77,3.61 6.12,0.18 -5.36,-3.65 0.99,-3.45 4.38,1.09 3.95,3.42 0.69,4.53 -2.58,0.79 1.92,1.87 1.38,2.47 z m 3.76,-4.94 c -6.11,-1.7 3.2,-3.32 0.19,0 l -0.21,0 0,0 z m -3.48,-11.42 c -5.02,-1.42 3.43,-2.58 0.12,0 l -0.17,0 0,-0 z m -2.92,-3.38 c -3.88,0.28 -1.21,-3.33 1.39,-1.55 1.56,1.46 -0.24,1.88 -1.39,1.55 z m 0,-2.66 c -1.39,-0.8 -6.1,-0.21 -4.77,-2.32 1.41,-0.97 6.98,0.5 5.34,2.32 l -0.48,0 -0.1,0 0,0 z m -5,-4.01 c -2.67,1.38 -6.26,-1.75 -5.58,-3.89 2.17,-1.04 4.29,3.44 7.17,2.2 4.51,0.58 1.08,1.94 -1.59,1.69 z m 0.44,-4.37 c -4.95,-1.47 3.29,-2.47 0,0 l 0,-0 z m 2.22,-2.62 c -4.21,-1.6 4.04,-2.19 0.17,0 l -0.17,0 z m 2.11,-3.09 c -2.9,0.77 1.24,-2.53 0,0 z m -31.9,-2.23 c -1.68,-1.28 -0.61,-5.43 1.09,-6.8 1.53,0.48 -0.52,6.42 -1.09,6.8 z m -7.33,-6.49 c -3.75,-0.75 -10.49,-0.36 -12.48,-3.27 4.26,0.47 9.02,2.12 13.56,2.66 0.29,1.07 -0.53,0.61 -1.08,0.61 z M 161,153.9 c -4.26,0.1 0.94,-2.84 2.76,-2.09 2.83,0.9 -1.63,2.71 -2.76,2.09 z m 22.53,-5.37 c -4.07,1.7 -7.96,-3.59 -2.32,-1.9 3.64,-0.45 9.15,1.6 2.32,1.9 z m -31.61,-2.62 c -4.03,-0.29 0.35,-5.1 1.51,-1.47 0.51,0.63 -0.93,1.87 -1.51,1.47 z m 54.63,-3.8 c -0.95,-1.04 -1.71,-5.83 -0.17,-6.38 2.91,0.9 1.49,4.32 0.67,6.38 l -0.49,0 -0,0 0,0 z m 2.93,-0.74 c -3.24,-2.08 3.54,-4.08 1.14,-0.61 l -1.1,0.61 -0,0 z m 15.82,-1.9 c -2.72,-0.92 2.64,-7.08 2.55,-2.04 -0.83,0.76 -1.16,2.43 -2.55,2.04 z m -3.04,-0.38 c -3.63,-1.12 2.17,-5.48 1.37,-1.05 -0.2,1.12 -0.77,0.6 -1.37,1.05 z M 109.48,126.55 c -3.26,-0.23 -5.13,-1.56 -0.91,-2.87 3.25,-0.54 7.5,-1.7 2.26,2.34 l -1.35,0.34 0,0.19 z m 5.95,-2.26 c 0.85,-1.71 5.37,-4.33 6.46,-6.79 2.56,-1.22 4.31,-3.42 6.11,-5.52 4.22,1.9 -3.72,4.18 -3.65,6.76 -0.59,2.93 -6.7,4.1 -8.92,5.55 z m -36.92,-0.76 c -1.202,-1.19 -4.834,-3.56 -4.16,-5.85 4.274,-1.83 -2.06,-1.9 -2.851,-3.11 -0.708,-4.13 2.273,-0.72 3.909,-1.45 4.122,-1.29 7.569,-4.94 11.902,-5.23 3.325,2.12 -0.674,4.49 -3.1,3.23 0.609,2.89 0.726,6.76 -2.793,7.67 -2.639,0.73 -7.646,-2.37 -3.042,1.03 3.399,-0.32 3.439,4.25 0.135,3.71 z m 0.84,-6.5 c -2.968,-2.41 2.927,-2.47 1.67,-4.39 -2.442,-0.79 -5.952,4.34 -1.67,4.39 z m 31.44,5.47 c -4.29,-0.18 2.98,-2.72 0.79,-3.97 -0.98,1.74 -5.59,0.59 -3.6,-1.52 2.26,2.04 5.16,-2.3 6.31,-0.3 2.97,0.76 3.95,-3.78 6.76,-3.42 0.12,3.75 -5.52,3.81 -7.23,6.69 -1.01,0.8 -1.68,2.37 -3.03,2.52 z m 118.52,-2.16 c -4.64,-1.22 2.41,-3.43 0,0 z m -3.91,-2.89 c -4.03,0.63 -9.82,-3.97 -3.14,-2.89 1.25,0.15 6.41,1.84 3.14,2.89 z m -116.43,-1.14 c -3.53,-1.36 5.22,-2.67 0.24,-3.11 2.11,-4.22 1.8,2.05 4.07,-0.32 2.87,1.31 -3.11,3.5 -4.31,3.43 z m 14.66,-1.52 c -1.85,-1.03 2.44,-4.74 1.52,-6.38 2.1,-1.33 4.73,-1.91 6.75,-3.66 3.75,-3.52 4.8,1.33 0,2 -4.39,0.63 -4.5,6.46 -8.12,8.04 l -0.22,0 0,0 z m 93.96,-0.82 c -5.49,1.47 -5.87,-4.14 -0.68,-2.17 2.54,-0.58 3.82,2.43 0.68,2.17 z m -8.83,-2.24 c -3.96,-1.07 -5.21,-2.05 -10.06,-0.93 -2.64,-3.02 5.1,-2.09 7.28,-2.62 -0.72,3.6 4.61,-0 5.8,2.56 -0,1.77 -2.15,1.19 -3.02,0.99 z m -24.28,-1.88 c -2.85,-1.77 2.63,-2.61 4.2,-2.83 4.73,-1.81 5.23,-0.52 5.18,0.47 1.61,-1.35 9.48,-0.52 4.75,0.97 -4.12,1.29 -7.13,1.2 -8.51,-0.3 -1.86,0.58 -3.78,1.22 -5.62,1.69 z m -64.04,-1.88 c -2.3,-1.97 3.62,-2.85 5.06,-4.05 2.85,-2.88 6.91,0.48 0.98,1.05 -2.15,0.73 -3.92,2.23 -6.04,3 z m 15.73,-0.38 c -3,-1.34 3.9,-5.29 5.94,-4.25 -1.01,2.6 5.16,-0.1 0.35,3.39 -3.15,-0.7 0.69,-3.67 -6.29,0.86 z m 10.51,0 c -4.49,-0.81 3.09,-4.34 2.22,-1.54 -0.69,0.59 -1.31,1.26 -2.22,1.54 z m -27.04,-2.66 c -1.51,-1.66 3.84,-2.74 5.38,-3.69 2.93,-1.92 4.61,0.83 0.61,1.24 -2.1,0.54 -3.9,2.06 -5.99,2.45 z m 89.5,96.75 c 1.84,-1.43 -3.51,-3 -4.94,-3.99 -4.78,-3.9 -8.57,-8.75 -12.33,-13.6 -0.44,1.74 -0.21,3.7 -0.79,4.73 3.26,1.51 5.61,4.81 7.44,7.78 2.9,2.81 6.63,4.47 10.62,5.08 z m 0.91,-2.62 c 1.49,-2.48 -4.97,-4.82 -7.03,-6.78 -4.91,-3.68 -7.9,-9.4 -12.33,-13.51 2.93,6.91 8.83,12.54 14.36,17.5 1.59,1.05 3.31,2.05 5,2.79 z m -11.91,-0.76 c -0.17,-3.45 -5.05,-1.57 0,0 l 0,0 z M 81.02,195.64 c 3.233,-1.66 -0.642,-4.07 0,0 z m 128.31,-1.37 c 5.87,0.26 -5.75,-3.88 0.97,-3.21 -1.2,-2.6 4.61,-1.86 1.41,-2.26 -2.07,-4.05 -7.58,-6.71 -10.1,-11.15 -1.66,-3.52 -9.62,-7.54 -3.27,-7.41 1.41,-3.07 -1.14,-3.71 -1.48,-0.98 -6.84,1.37 3.87,8.82 5.15,12.08 1.12,1.97 12.11,10.59 5.65,6.53 -3.23,-2.47 -5.29,-4.46 -7.81,-7.43 -2.63,-3.85 -7.72,-9.56 -7.87,-12.73 1.06,2.5 7.62,-1.23 2.87,-2.02 -4.78,-1.82 -3.85,1.92 -4.87,3.86 -1.61,-0.22 -5.76,1.57 -1.67,1.55 2.93,3.48 4.55,10.06 8.65,13.71 3.65,2.54 8.29,10.21 12.37,9.46 z m -2.7,-3.95 c -7.36,-4.47 -12.47,-12.43 -16.2,-20 1.62,-0.38 3.29,5.99 5.49,7.79 2.99,4.28 8.9,8.55 10.71,12.21 z m -13.91,3.8 c 2.18,-1.44 -3.7,-2.67 0,0 l 0,0 z M 73.84,193.15 c 1.559,-5.49 -4.081,2.62 0,0 z m 62.98,-1.31 c 3.05,-2.95 -3.29,-1.52 0,0 z m -55.8,-1.71 c 4.236,-1.14 1.336,-7.35 3.44,-10.62 4.102,-0.88 0.136,3.55 1.14,5.45 2.205,3.12 4.381,-4.82 4.209,-7.05 0.526,-4.65 2.655,1.07 5.631,-0.47 2.212,-2.84 -3.967,-3.42 -5.839,-3.76 0.418,-4.22 5.356,0.2 7.949,-0.38 4.38,-0.44 0.321,-1.49 0.72,-2.87 3.31,-0.47 7.01,0.41 9.86,-1.69 -1.81,2.52 0.66,2.1 3.57,0.53 4.47,-2.53 4.79,-2.9 0.19,-3.13 -2.47,0.19 -7.98,3.66 -8.38,1.09 2.07,-2 9.6,0.13 8.5,-3.68 -5.27,2.06 -3.99,0.67 -0.71,-0.83 -0.54,-2.57 -7.92,0.58 -6.19,-2.13 1.2,-0.94 -10.088,1.59 -4.19,-1.23 1.96,-0.67 9.59,0.12 5.31,-3.06 0.8,-3.45 -4.73,-2.03 -5.99,-0 -4.691,3.34 7.69,-1.73 3.72,0.82 -2.94,2.83 -6.309,1.31 -9.263,3.08 -4.261,2.28 -9.268,4.14 -10.935,9.15 -3.665,5.59 -4.804,12.49 -9.513,17.37 -3.28,3.16 3.379,3.74 3.901,0.42 -0.219,-2.6 2.392,-4.38 2.206,-6.95 2.428,-3.91 3.095,0.92 0.671,2.54 -0.432,2.49 -2.012,5.09 -0.937,7.6 0.143,-0 2.353,-0.46 0.93,-0.19 z M 70.16,189.5 c 2.88,-5.38 -2.72,-0.64 0,0 z m 17.76,-1.44 c 1.026,-3.41 -1.523,1.61 0,0 z m -14.38,-3.42 c 4.466,-3.98 -1.652,-4.44 0,0 l 0,0 z m 136.66,0 c 1.32,-1.6 -2.94,-5.31 -5.43,-6.04 -2.09,0.19 3.01,3.88 4.07,5.34 0.49,0.43 0.59,0.94 1.36,0.7 z m 28.1,-2.28 c 1.76,-1.33 -6.18,-4.07 -0.72,-0 -0.18,0.43 0.77,-0.26 0.72,0 z m -48.84,-1.14 c 1.69,-1.19 -2.95,-1.14 0,0 z m 14.05,-3.42 c 1.07,-2.91 -4.38,-2.02 0,0 z m -14,-1.48 c -1.91,-5.62 -1.48,1.36 0,0 z m 12.56,-2.81 c 3.76,-0.69 -1.61,-3.38 -0.65,-5.84 -2.86,-1.87 -0.21,5.69 -1.9,5.45 0.77,0.28 1.82,1.04 2.55,0.39 z m -94.81,-0.25 c 7.01,-2.38 2.99,-2.3 -0.76,-0.89 -0.37,0.75 0.8,0.46 0.76,0.89 z m 34.19,-0.76 c 2.26,-3.37 -2.68,-5.52 -4.86,-7.6 -6.16,-2.74 2.04,3.06 1.73,5.28 1.23,0.49 1.98,1.76 3.13,2.32 z m 0.38,-7.22 c 4.06,-0.76 -4.87,-1.04 0,0 z M 130.41,163 c 1.41,-1.78 -2.31,-1.39 0,0 z m -3.62,-0.38 c 1.45,-2.05 -3.27,-1.94 0,0 l 0,0 z m 51.1,0 c 4.25,-0.8 -4.94,-3.84 -4.9,-2.98 -0,2.78 3.11,2.27 4.9,2.98 z m 13.94,0 c 4.38,-3.32 -6.5,-5.77 -2.45,-1.85 0.84,0.52 1.37,2.08 2.45,1.85 z m -45.19,-1.5 c -0.37,-2.08 -7.38,-2.88 0,-0 l 0,0 z m 98.67,-1.25 c 4.51,-0.56 -0.89,-2.75 -1.56,-4.62 -2.94,-4.65 0,-10.97 -3.13,-15.48 -2.3,1.56 -1.45,6.42 -1.89,9.23 -1.93,3.75 2.65,3.77 1.28,6.94 0.94,2.09 3.02,4.32 5.3,3.93 z m -104.2,-0.23 c 1.32,-1.59 -3.22,-0.45 0,0 z m -30.78,-2.91 c 0.26,-2.06 0.1,-8.5 -2.52,-7.63 -1.5,2.22 0.88,7.38 2.52,7.63 z m -5.68,-8.47 c 1.42,-1.2 -2.04,-2.01 0,0 z m 5.8,-0.23 c 3.83,-3.58 1.06,-7.29 -0.36,-1.71 0.16,0.16 -0.79,2.69 0.36,1.71 z m 126.04,-0.22 c 1.51,-1.38 -0.96,-10.44 -2.33,-5.78 -0.69,1.26 2.19,6.3 2.33,5.78 z M 107.26,147.1 c 3,-0.72 4.42,-6.16 3.3,-7.96 -1.04,2.49 -3.84,1.39 -4.85,-0.22 -1.96,1.15 -0.63,4.56 -1.19,6.02 0.84,-0.79 4.38,-6.02 3.46,-0.29 0.49,1.13 -3.77,1.49 -0.72,2.45 z m -5.04,-2.35 c 3.31,-2.36 -3.019,-1.83 -0,-0.13 l 0.2,-0.1 -0.19,0.19 z m -42.27,-2.7 c -0.02,-1.94 3.731,-4.38 2.241,-5.63 -3.594,-0.59 -3.991,4.72 -2.241,5.63 z m 42.88,-0.38 c 5.42,-3.93 -1.48,-5.84 -0.7,-1.01 0.17,0.39 0.1,1.62 0.7,1.01 z m -3.13,-2.15 c 2.95,-1.9 -3.138,-2.23 -0.183,0 l 0.233,0 -0.05,0 z m 133.75,-0.57 c 4.95,0.8 3.93,-3.86 2.69,-6.82 -2.74,-5.79 -3.24,-2.46 -2.09,0.88 0.13,1.48 -2.63,7.02 -0.6,5.94 z m -132.27,-1.33 c 2.73,-0.52 -2.384,-1.28 -0.27,0 l 0.27,0 z M 66.7,137.24 c 3.581,0.49 13.737,-7.33 5.308,-4.36 -1.783,-0.53 -6.581,3.15 -5.308,4.36 z m 30.2,-0.47 c 0.53,-2.76 -4.425,0.43 -0.03,0 l 0.03,0 z m 9.79,0.42 c 6.1,-2.59 -7.298,-1.19 0,0 z m -3.27,-0.71 c 3.41,-1.51 -2.2,-1.35 0,0 z m -2.64,-0.38 c 4.09,-0.87 -3.027,-1.45 0,0 z m 6.78,-29.61 c 1.27,-2.76 13.91,-7.515 9.07,-8.454 -1.71,1.944 -6.48,0.53 -6.54,3.154 3.24,1.79 -3.83,3.62 -2.53,5.3 z M 83.32,97.75 c 3.364,-1.419 -2.653,-1.569 0,0 z m -1.44,-2.28 c 1.25,-1.769 12.639,-4.372 7.508,-5.979 -3.256,1.274 -6.82,2.337 -8.598,4.819 -2.297,-0.386 1.724,1.121 1.09,1.16 z m 6.68,-0.82 c 6.58,-0.603 -0.779,-2.896 -1.413,0 0.471,0 0.942,0 1.413,0 z m -3.3,-4.86 c 4.512,0.394 7.947,-5.807 2.156,-2.303 -1.109,0.443 -6.198,4.435 -2.156,2.303 z"/></g>
</svg>
