<?xml version="1.0" encoding="UTF-8" standalone="no"?>
<!DOCTYPE svg PUBLIC "-//W3C//DTD SVG 1.1//EN" "http://www.w3.org/Graphics/SVG/1.1/DTD/svg11.dtd">
<svg xmlns="http://www.w3.org/2000/svg" width="300px" height="350px">
<g>
<path id="fill" d="m 199.97,50.594 c -2.47,-0.107 -4.05,2.113 -4.94,3.781 -6.78,0.669 -13.7,-0.109 -20.4,1.154 -5.56,-0.694 -11.15,-0.04 -16.69,-0.341 -2.57,0.736 -0.39,4.157 0.81,5.343 1.28,1.158 2.43,3.879 0.1,4.594 -1.78,0.01 -3.53,2.344 -1.43,3.313 1.81,0.905 3.68,-0.743 5.47,0.615 1.51,0.987 4.94,-0.238 5.28,1.572 0.95,2.091 5.34,0.376 4.93,3.313 -0.53,2.117 -3.21,1.886 -4.62,3.25 -1.48,0.873 -3.26,-0.77 -4.03,0.968 -1.4,1.064 -4.07,0.345 -5.06,1.782 1.51,1.952 -2.07,1.11 -3.16,2.124 -3.14,1.532 -6.54,4.134 -7,7.719 -2.81,1.409 -5.01,-3.432 -7.91,-2.406 -8.23,-6.383 -16.41,-13.149 -25.06,-18.89 -2.86,-3.223 -6.5,-5.619 -9.97,-8.047 -1.33,-1.628 -1.02,-5.828 -4.16,-4.938 -3.458,0.233 -6.161,-3.732 -9.558,-2.75 -1.474,1.761 2.282,3.291 3.5,2.062 1.7,-0.855 4.198,2.395 2.126,3 -0.924,-0.531 -1.219,-1.146 -2.063,0.03 -2.43,1.573 -6.441,0.366 -7.75,3.468 -0.408,0.71 -1.962,2.778 -0.875,3.188 1.673,-0.78 3.443,-2.237 5.594,-1.906 2.582,-0.25 2.541,3.683 0,3.656 -1.651,0.596 -5.24,0.389 -5.156,2.844 1.807,1.334 5.194,-0.493 6.343,1.562 -0.162,1.072 -2.526,1.795 -0.812,2.875 0.812,0.824 2.973,0.933 2.125,-0.781 2.057,-2.038 2.945,2.082 4.031,3.125 1.275,1.664 3.365,-0.557 4.565,1.25 1.86,1.583 3.13,3.956 5.31,5.063 1.32,4.124 5.59,6.072 7.16,9.906 1.79,2.579 5.41,2.442 7.96,2.937 0.93,0.911 0.82,3.33 -0.96,2.781 -1.29,-0.08 -2.75,-1.635 -3.69,-1.468 0.21,2.06 3.58,1.659 4.41,2.5 0.2,2.906 -2.93,6.226 -0.1,8.686 1.51,0.39 0,-3.38 1.16,-3.56 2.69,-0.41 5.08,1.92 7.19,3.06 1.55,0.91 1.93,3.66 -0.28,3.88 -7.07,1.08 -14.21,1.89 -21.34,2.66 -4.11,0.41 -7.61,2.77 -11.665,3.65 -2.169,1.37 -4.616,1.98 -7.187,1.31 -1.679,-0.45 -3.337,0.68 -3.282,2.5 -4.247,0.19 -8.096,4.7 -7.844,8.72 0.787,0.57 1.51,-2.13 2.126,-2.75 0.699,-1.08 3.52,-3.56 4.156,-1.59 -0.761,3.18 -4.741,6.91 -2.282,10.09 1.067,1.4 2.106,0.1 1.376,-1.22 0.03,-2.35 2.654,-5.34 5.062,-4.37 1.66,2.31 -2.261,4.81 -1.281,7.47 0.2,1.7 2.765,1.75 2.75,-0.1 0.162,-2.08 1.474,-5.16 3.906,-4.9 1.339,1.59 -0.668,4.1 0.187,5.97 -0.864,2.17 3.498,1.86 1.876,-0.19 0.811,-2.67 3.052,-5.42 5.092,-7.5 1.71,-2.69 4.73,1.04 6.94,-0.22 1.92,2.97 6.91,-2.02 8.06,1.87 -0.78,1.81 1.95,3.56 2.81,1.82 -0.47,-1.4 -0.68,-4.08 1.54,-3.91 2.06,0.11 3.65,2.34 5.62,0.91 3.53,-1 3.28,3.74 5.41,5.18 1.97,0.78 0.71,-2.63 1.37,-3.68 1.09,-2.13 3.7,0.31 5.13,-1.38 3.7,-1.95 6.92,2.25 7.18,5.47 1.2,1.62 3.98,4.39 1.41,6.25 -2,-0.26 -2.12,3.75 -0.1,2.69 0.87,-0.87 1.8,-3.65 3.28,-1.75 1.24,2.59 3.88,3.44 5.18,6.05 1.98,3.27 6.54,5.46 6.32,9.85 0.57,2.51 -2.53,2.22 -3.94,1.57 -1.43,-0.71 -2.94,0 -3.47,1.18 -4.67,0.6 -8.8,3.34 -13.5,4.03 -3.27,1.52 -5.39,4.69 -6.59,7.97 -2.73,-0 -5.52,-1.32 -8.13,-0.4 -3.64,-1.23 -2.4,-7.22 -6.59,-7.97 -2.47,-1.06 -4.7,-4.87 -7.69,-3.75 0.66,0.46 2.85,2.97 0.5,2.94 -2.82,-0.62 -6.22,-2.56 -8.62,0.18 -0.87,0.52 -1.99,2.58 -0,2.29 3.26,-1.25 8.54,-0.1 8.5,4.12 -0.1,2.72 -2.94,0.16 -4.71,0.81 -1.5,0.1 -5.08,1.14 -4.07,2.85 2.43,0.92 5.52,-0.62 7.47,1.78 1.55,0.7 1.11,2.76 -0.69,2.53 -1.85,-0.24 -5.38,0.66 -4.5,3.15 1.28,1.53 2.86,-0.87 4.26,0.44 2.21,1 4.65,3.82 7.15,2.22 1.52,2.94 4.02,5.27 6.97,6.75 -2.12,2.04 2.14,2.98 3.28,3.85 1.91,0.84 2.5,2.89 4.88,2.93 1.84,0.93 4.31,0.78 5.12,-1.37 2.24,-2.57 5.88,-5.02 9.22,-4.44 1.65,0.98 5.42,-1.19 5.72,1.47 -0.85,1.26 -0.1,4.16 1.62,3.84 0.3,-1.63 0.21,-4.68 2.69,-4.65 2.76,0.2 5.57,1.42 8.13,-0.35 2.21,-1.11 3.37,1.73 2.66,3.56 -0.94,3.39 -0.51,7.02 1.38,9.94 1.19,3.74 2.03,8.2 5.8,10.13 2.54,2.29 2,6.21 2.16,9.37 -3.68,0.52 -4.96,6.09 -9.13,5.03 -3.55,-0.28 -9.04,-0.82 -10.44,3.35 1.27,2.62 -1.97,5.18 -0.78,7.69 2.39,-0.41 4.09,-3.71 6.47,-3.32 0.67,0.94 -0.16,2.14 -0.1,3.22 -0.64,2.13 -3.79,3.67 -2.88,6.1 2.45,-1.85 4.3,-5.7 7.88,-5.04 1.3,0.26 1.39,2.15 1.62,2.82 2.69,-1.59 4.18,-5.77 7.85,-5.19 3,-1.12 6.44,-1.37 9.19,-2.94 2.25,-0.79 4.67,-1.86 6.96,-1.91 1.97,-1.96 5.06,-1.2 7.28,-2.24 0.68,-1.34 0.26,-4.03 2.29,-3.91 -1.75,-1.09 -5.16,0.1 -5.57,-2.85 1.02,0.12 3.91,-0.5 2.35,-1.84 -2.32,-1.12 -4.44,-3.13 -3.94,-5.97 0.36,-2.68 1,-5.45 -0.16,-8 -0.55,-2.45 4.49,-1.22 2.94,-3.4 -0.83,-1.11 -3.35,-4.03 -0.72,-4.57 0.7,0.1 1.07,2.24 1.57,0.44 1.32,-2.72 1.02,-6.87 4.09,-8.34 0.2,3.42 -1.21,8.52 2.84,10.22 2.51,1.96 4.99,5.66 8.57,4.96 2.99,-2.03 2.08,-8.07 -2.07,-7.84 1.58,-8.01 3.36,-16.31 1.22,-24.4 -1.12,-6.99 -2.06,-14.09 -5.21,-20.36 -2.39,-4.18 -5.1,-8.39 -6.48,-12.93 -2.9,-2.51 -1.05,-6.89 -2.78,-10 -1.07,-5.17 -1.99,-10.51 -2.09,-15.78 0.73,-3.7 -0.9,-7.27 -1.31,-10.84 -0.79,-2.16 -1.3,-4.7 -1.35,-6.91 -1.5,-2.629 2.51,-4.292 1.75,-6.935 0.79,-3.154 3.68,-5.328 4.42,-8.52 2.28,-3.844 5.07,-8.476 3.83,-12.98 -1.49,-0.58 -1.35,-2.803 0.47,-2.406 3.61,0.778 4.45,-3.953 7.22,-5.25 0.34,-1.842 3.78,-2.271 3.09,-4.25 -3.04,-1.083 -6.67,-1.864 -9.78,-3.329 -3.28,-0.874 0.39,-4.258 -0.75,-6.078 -2.23,-1.107 -4.96,-1.944 -7.59,-1.718 z"/><path id="outline" d="m 202.47,58.52 c 2.72,-0.566 6.6,-6.207 1.51,-5.639 -2.54,-0.61 -6.48,-0.277 -6,3.179 1.91,-0.384 2.93,1.78 4.49,2.46 z m -97.73,3.21 c 1.73,-2.951 -2.06,-4.251 -2.9,-2.7 -3.371,-1.202 1.08,4.252 2.9,2.7 z M 94.583,61.9 c 3.948,0.252 -0.131,-3.25 -1.737,-0.823 -0.477,0.919 1.113,0.903 1.737,0.823 z m 65.847,5.47 c 7.53,-2.029 1.99,-3.379 0,0 z m 16.71,1.21 c 1.07,-1.306 -2.53,-0.38 0,0 z m -82.847,0.91 c 3.479,-2.889 -4.524,-0.763 0,0 z m 77.957,1.45 c 2.56,-1.29 -1.49,-4.196 -3.33,-4.358 -1.91,-0.803 -6.84,2.033 -2.55,2.098 2.57,-0.522 4.51,2.338 5.88,2.26 z m 32.74,9.4 c 2.07,-1.523 -1.12,-6.526 -0.21,-2.66 0.1,0.696 -0.16,3.015 0.21,2.66 z m -29.37,0.34 c 4.2,-1.119 -6.48,-3.398 -4.03,-0.47 1.33,0.27 2.7,0.276 4.03,0.47 z m -65.46,0 c 0.96,-1.198 -0.73,-6.943 -2.09,-3.471 -0.64,1.982 0.11,2.779 2.09,3.471 z m 71.77,0.31 c 2.03,-1.102 -2.5,-4.36 0,0 z m -16.87,0.3 c 3.18,0.548 3.34,-4.961 2.39,-1.52 -1.07,-0.391 -5.64,1.233 -2.39,1.52 z m -3.75,3.34 c 6.28,-2.54 -5.65,-2.006 0,0 z m 41.53,-18.51 c -5.55,-0.699 0.64,-2.542 2.58,-4.181 1.59,-3.035 9.55,0.974 7.04,1.971 -3.39,-0.374 -6.53,0.946 -9.62,2.21 z M 186.3,65.44 c 3.58,-0.298 -1.42,-4.503 0.78,-1.21 -0.77,1.048 -4.46,-1.013 -1.02,1.114 l 0.24,-0.03 0,0.13 z m 0.31,2.04 c -2.35,0.489 -5.06,-2.494 -3.82,-4.86 -0.67,-1.065 -4.32,-3.903 0.36,-4.304 1.6,0.662 -0.17,2.676 3.91,3.544 1.52,-0.1 6.94,0.491 4.38,2.109 -2.43,-0.981 -1.53,4.194 -4.83,3.511 z m -3.58,0.17 c -3.22,-0.06 -3.42,-8.269 -1.27,-3.69 -0.52,0.786 3.09,3.918 1.27,3.69 z m 4.86,16.69 c -5.89,-1.855 -0.38,-2.929 0.52,-0.28 l -0.52,0.28 0,0 z m 12.13,3.63 c 2.08,-1.633 1.26,-4.677 2.89,-6.555 -0.67,-2.986 0.97,-5.03 -1.21,-5.995 1.15,-1.426 7.59,-0.279 1.46,-1.69 -3.27,0.291 -6.71,-3.379 -7.22,-6.278 2.39,-3.491 4.14,4.177 6.9,4.458 2.6,0.03 4.48,-1.604 5.37,-2.72 4.28,1.266 1.65,-2.151 3.97,-2.43 0.95,-1.264 4.98,-3.754 3.74,-4.25 -3.86,-0.887 -8.1,-5.422 -12.03,-2.13 -1.21,2.038 -6.64,1.04 -4.78,-0.76 5.3,-0.23 -3.38,-3.404 -5.53,-2.698 -8.96,-0.676 -17.84,0.892 -26.81,0.418 -1.5,0.02 -8.28,-0.312 -5.12,0.78 0.19,1.576 -0.66,5.141 3.05,5.241 3.44,2.704 6.53,-0.333 8.59,1.39 1.57,5.273 6.65,-1.227 7.6,2.129 4.13,4.242 -0.97,0.36 -1.28,1.681 2.55,1.231 5.45,3.39 2.2,3.829 1.52,4.501 -10.2,-8.259 -5.92,-0.894 2.62,2.415 3.68,2.971 0.25,3.189 0.46,3.162 2.9,-0.8 3.41,2.455 -2.33,-0.231 0.56,6.771 1.64,3.85 -1.79,-4.11 0.86,-6.827 1.96,-1.95 3.83,1.034 -0.36,5.784 4.18,6.28 1.58,1.967 4.12,3.402 6.99,0.94 2.49,-0.254 0.54,-6.096 2.92,-3.601 0.1,1.929 1.2,6.568 2.65,2.311 2.61,-5.331 0.96,4.698 0.13,3 z m -46.69,0 c 3.8,-0.07 7.15,-4.921 0.96,-1.37 -0.45,0.482 -3.76,1.084 -0.96,1.37 z m 39.47,0.91 c 1.65,0.123 4.74,-3.532 0.96,-1.516 -0.7,0.258 -3.35,1.566 -0.96,1.516 z m -3.58,0.6 c 4.05,-1.415 -4.07,-1.179 0,0 z m -70.19,1.19 c 1.72,-3.145 -1.05,-0.737 -2.65,-3.09 -1.48,1.11 1.47,3.387 2.65,3.09 z m 2.26,2.76 c 1.96,-0.29 -2.3,-0.745 0,0 z m 76.46,0.91 c 1.17,-2.171 0.89,-5.887 3.57,-4.59 -1.78,-2.313 -6.63,1.614 -4.15,4.13 -0.39,0.884 0.61,0.127 0.58,0.46 z m -45.55,2.18 c 6.3,-3.037 3.01,-4.436 -1.81,-2.43 -4.24,3.018 -0.56,2.131 1.81,2.43 z m -24.86,5.4 c 5.87,-1.24 -3.25,-2.695 0,0 l 0,0 z m 8,0.31 c 3.3,-0 1.16,-5.174 0.63,-5.785 -1.69,0.499 -2.8,5.535 -0.63,5.785 z m 12.99,0.6 c 2.13,-1.85 1.01,-6.535 -1.47,-2.11 -0.81,1.05 0.14,2.25 1.47,2.11 z M 131.98,92.57 c -2.22,1.129 0.1,-4.645 1.59,-5.291 1.84,0.565 -0.88,4.297 -1.59,5.291 z m 1.25,2.08 c -2.61,-1.403 3.87,-9.321 3.24,-5.35 -2.09,1.01 -2.17,4.379 -3.24,5.35 z m -0.17,8.15 c 0.99,-2.37 -0.71,-6.861 1.99,-8.51 1.95,-1.636 7.61,-5.91 2.75,-7.641 -8.19,-6.159 -16.53,-12.101 -24.79,-18.169 -2.1,-4.847 -8.89,-3.595 -12.49,-6.19 -3.499,-3.082 -4.271,4.566 0.4,3.03 4.36,-1.22 9.12,4.647 2.28,2.3 -2.15,-0.124 -5.969,-1.724 -7.137,0.368 1.368,3.214 6.137,0.436 8.987,1.112 4.35,1.314 -0.6,2.679 -2.87,1.739 -2.517,-0.741 -3.69,3.887 -0.84,3.766 2.76,0.872 5.4,-1.462 8.17,-0.315 2.26,-3.837 2.79,0.655 1.99,2.931 1.04,5.32 2.02,-4.81 2.98,0.609 2.22,4.559 -3.14,1.251 -2.96,5.01 1.22,1.871 6.8,5.043 5.82,0.815 0.74,-3.168 3.18,-0.269 1.57,1.665 0.94,0.388 3.52,-1.03 2.52,2.97 3.24,-2.561 1.2,3.536 2.17,5.113 2.52,1.601 -0.13,-3.576 1.9,-3.593 1.93,0.421 -0.26,8.574 2.58,6.53 -1.76,-3.983 1.95,-6.885 1.18,-1.492 -0.75,2.717 1.99,6.562 1.47,1.662 -0.76,-4.293 2.51,-2.44 1.37,0.808 -0.16,1.892 0.7,4.842 0.96,5.482 z m -2.72,2.04 c 5.95,-2.82 -4.96,-1.32 0,0 z m 6.21,0.36 c 2.73,-0.82 -2.2,-1.06 0,0 z m 8.1,1.28 c 2.69,-2.76 -2.65,-2.63 0,0 l 0,0 z m -9.58,0.66 c -0.28,-3.19 -0.47,2 0,0 z m 5.29,-8.31 c -1.29,-1.32 0.98,-5.54 3.38,-5.815 4.24,0.03 -0.29,1.012 -1.52,2.702 -1.36,0.559 -0.91,2.693 -1.86,3.113 z m 0,2.76 c -1.88,-0.47 1.3,-4.319 0,-0 l -0,0 -0,0 z m 2.37,6.95 c 0.61,-1.82 1.05,-5.39 1.82,-7.82 -2.91,-2.24 -0.97,1.42 -2.06,3.6 -0.27,3.11 -3.41,1.1 -2.6,-1.4 2.45,4.83 0.32,-2.89 2.42,-5.01 0.97,-2.392 3.88,-3.943 0.8,0.28 1.63,3.95 2.41,-2.23 3.93,-3.529 3.8,-0.546 -0.6,-1.513 -1.74,-3.812 -1.86,0.396 -6.95,5.627 -3.16,0.731 3.6,-2.933 -4.05,-2.078 -3.19,0.5 0.63,2.594 -2.12,3.901 0.98,3.083 -0.25,2.125 -4.08,3.812 -1.69,5.597 -1.03,3.14 1.68,4.7 0.96,6.61 3.11,-1.74 1.38,0.55 3.53,1.17 z m -3.9,0.98 c 2.23,-0.54 -1.91,-0.52 0,0 z m 4.35,1.03 c 3.83,-2.18 -1.42,-1.73 -0.35,0.17 l 0.35,-0.17 z m -55.537,13.46 c 2.459,-1.3 -2.691,-0.43 0,0 z m 2.21,0.97 c 2.415,-0.97 -1.926,-0.64 0,0 z M 155,127.96 c 2.04,-2.77 -2.74,-0.31 -0.26,0.1 l 0.39,-0.16 -0.13,0.1 z m -32.93,1.57 c 1.92,-1.17 -2.61,-1.19 0,0 z m 30.45,0.17 c 1.41,-2.67 -1.38,-0.21 0,0 z M 126,129.97 c 4.7,-0.73 0.11,-1.85 -0.86,0.17 -0,0.32 0.91,-0.55 0.86,-0.17 z m 28.47,0.8 c 2.78,-2.91 -2.61,-2.12 0,0 z m -67.517,0 c 7.372,-3.67 -1.236,-3.71 0,0 z m 63.977,0.42 c -0.42,-2.65 -1.58,1.76 0,0 z m 5.77,1.03 c 1.25,-0.94 4.06,-5.47 -0.1,-4.14 -0.65,1.12 -0.72,4.38 0.1,4.14 z m -7.14,1.89 c 2.27,-0.92 -1.75,-1.66 0,0 z m -49.937,1.06 c 1.177,-2.91 -2.212,1.46 0,0 z m -6.41,-0.59 c 2.827,-5.24 -3.717,3.44 -0.02,0 l 0.02,0 z m 59.457,5.25 c 0.28,-2.48 3.22,-7.55 1.01,-8.79 -3.09,1.05 0.24,6.79 -3.54,5.77 0.41,0.49 2.38,3 2.53,3.02 z m 2.58,4.89 c 1.87,-2.31 0.64,-3.85 0.96,-6.8 1.99,-5.5 -1.83,-5.65 -1.45,-0.66 -0.32,3.18 -1.99,6.24 0.49,7.46 z m 6.35,6.06 c 1.71,-2.6 -3.22,-3.24 0,0 z m 7.34,4.56 c 1.37,-2.39 -3.04,-0.69 0,0 z m -6.96,10.92 c 4.32,-0 -2.54,-2.3 -4.18,-1.94 -5.58,-1.07 2.44,2.46 4.18,1.94 z m -47.01,1.79 c 2.74,-1.71 -6.85,-3.24 -2.41,-1 0.77,0.4 1.63,0.77 2.41,1 z m 63.4,1.85 c 1.08,-0.52 5.23,-7.15 3.09,-5.21 -0.89,4.04 -5.44,2.96 -5.44,2.05 -4.18,1.9 1.9,0.51 2.35,3.16 z m -3.78,2.13 c 4.65,-3.17 -1.64,-3.69 0,-0 l 0,0 z m -49.5,0.91 c 0,-0.98 -1.24,-5.85 -3.83,-4.2 -0.45,2.16 2.38,3.28 3.83,4.2 z m -12.57,2.72 c 2.25,-2.53 -5.22,-1.54 0,0 z m 62.49,0.3 c 3.73,-1.25 -1.13,-2.12 0,0 z m -1.75,3.26 c 2.66,-0.9 -4.15,-1.19 0,0 z m -59.75,3.34 c 1.78,-2.24 -3.33,-1.98 0,0 z m 100.56,3.12 c 2.44,-4.35 -1.08,-7.73 -1.24,-1.16 0.22,0.39 1.1,1.02 1.24,1.16 z m -58.06,1.69 c 4.98,-1.9 1.46,-2.31 -0.46,-0.47 -0.77,1.01 -0.38,0.65 0.46,0.47 z m -13.37,3.46 c 1.45,-1.6 3.41,-4.29 6.05,-4.98 3.8,-0.87 6.09,-3.89 9.26,-5.6 3.77,-2.07 8.1,-2.48 12.27,-3.23 0.31,-3.5 -7.06,0.85 -8.93,0.33 -2.61,0.71 -6.24,1.74 -6.87,4.69 -4.76,0.89 -9.18,3.4 -12.11,7.3 -0.1,0.52 -0.1,1.9 0.33,1.49 z m 6.6,0.61 c 7.14,-2.89 1.72,-4.69 -0.39,-0 l 0.39,0 0,0 z m 3.06,1.21 c 3.3,-1.18 4.85,-4.21 8.35,-5.31 2.1,-1.97 12.1,-3.96 4.18,-0.65 -3.38,0.62 -4.85,3.27 -7.49,4.51 -0.26,2.83 3.84,0.67 5,-0.24 2.99,0 10.53,-3.7 4.37,-2.89 -3.39,2 -4.17,-0.28 -0.38,-1.03 6.57,-1.58 1.84,-1.92 2.76,-3.15 2.7,-2.62 -13.67,3.82 -3.35,-1.03 4.47,0.36 8.1,-4.25 2.25,-2.51 -3.76,0.94 -9.79,3.36 -8.27,5.95 -2.79,1.77 -7.64,2.49 -8.13,6.39 l 0.44,0 0.27,-0 z m -8.48,0.61 c 1.26,-1.58 3.74,-2.66 4.73,-4.42 3.89,-1.76 7.34,-3.8 10.78,-6.2 3.53,-2.14 7.63,-3.25 11.65,-4 -1.37,-0.93 -5.45,-0.49 -7.52,0.48 -2.94,0.96 -6.75,2.45 -8.01,4.89 -4.43,1.71 -9.38,3.32 -11.74,7.78 -0.45,0.26 -0.63,1.76 0.11,1.47 z m 19.87,0.3 c 2.17,1.3 9.33,-4.05 4.57,-3.35 -1.87,1.1 -2.75,2.48 -5.01,3.35 l 0.44,0 0,0 z m -7.49,1.79 c 0.64,-1.31 -2.35,-0.31 0,0 z m 12.72,-24.23 c -6.05,-1.99 -12.96,-4.03 -19.17,-1.49 -1.82,-2.5 3.96,-1.72 5.53,-2.06 4.78,0.38 9.8,0.73 14.18,2.82 0.21,0.93 -0.21,0.43 -0.54,0.73 z m -27.24,14.77 c -2.25,-1.95 3.35,-5.31 5.45,-6.02 3.93,-2.61 6.94,0.22 0.58,1.2 -2.71,0.84 -4.76,2.42 -6.03,4.82 z m -5.47,11.83 c 2.93,0.72 5.96,-5.12 4.15,-7.04 0.95,-6.58 9.1,-6.93 12.84,-10.98 5.12,-3.62 12,-4.68 18.23,-4.73 1.45,0.69 4.25,-1.27 1.8,-0.75 -5.46,-1.27 -11.76,-0.89 -16.68,1.81 -3.35,1.08 -8.83,0.28 -12.79,4.34 -3.31,3.05 -2.14,-2.23 0.66,-2.39 3.35,-1.88 7.1,-2.96 10.88,-3.02 5.26,-2.18 -1.78,-1.04 -3.88,-1.01 -2.46,0.99 -6.22,3.04 -8.17,1.47 3.41,-1.47 7.25,-2.96 11.22,-2.82 2.71,-0.89 6.27,1.64 8.36,-0.33 -3.22,-2.2 -8.22,-1.54 -11.94,-0.3 -6,2.48 -0.13,-2.98 3.09,-1.88 3.99,-0.17 8.21,-0.1 11.53,2.43 1.89,0 8.24,1.39 5.21,-0.85 0.47,-0.86 6.1,-2.74 2.34,-3.61 -2.22,4.23 -4.41,-1.39 -6.72,-3.33 -3.77,-2.77 -0.66,4.19 2.33,3.18 -1.25,1.3 -6.38,-1.46 -9.3,-1.01 -4.2,-0.17 -8.55,-1.13 -12.34,1.31 -2.24,0.62 -5.87,2.44 -2.68,3.97 -1.43,1.51 -4.97,1.67 -6.25,4.24 -2.73,2.45 -3.87,7.26 0.32,3.37 4,0.83 -2.93,2.57 -1.51,5.1 1.26,-2.35 4.18,1.95 -0.58,2.19 -3.12,-2.49 -3.79,-7.48 -1.15,-10.58 -3.49,-2.01 -2.9,-0.21 -1.84,1.17 -1.86,-2.05 -4.65,2.09 -5.72,-0.16 0.26,-3.52 -5.61,-3.17 -6.85,-6.27 -2.06,-0.49 -2.03,-5.56 -3.36,-2.54 -1.78,1.16 -0.54,2.99 1.2,4.85 3.17,1.05 12.48,7.23 3.99,4.04 -2.5,-3.16 -10.85,-3.71 -6.03,0.72 2.89,1.91 4.24,-0.81 7.69,1.5 4.79,2.68 -1.75,1.77 -3.95,0.82 -2.49,-0.79 -5.97,3.18 -2.15,3.72 2.37,0.17 7.71,0.31 7.79,2.67 -3.12,0.24 -0.31,4.66 2.13,4.4 4.34,0.13 0.68,2.31 1.76,2.89 1.72,1.79 5.9,-1.31 6.02,1.9 -4.54,1.32 -0.98,2.13 0.35,1.51 z m 73.59,1.92 c 2.54,-1.01 -2.26,-0.62 0,0 z m -10.86,5.72 c 3.16,-1.57 -4.48,-1 0,0 z m 18.38,4.22 c 2.95,-2.33 -2.76,-3.2 -2.71,-6.55 1.25,-3.36 0.91,-6.81 0.91,-9.58 1.02,-2.55 1.3,-5.83 1.04,-8.36 -1.07,-0.19 -2.34,6.26 -3.76,3.23 2.89,-4.88 -4.13,3.6 -1.5,4.27 1.77,0.93 -2.24,5.21 0.54,5.9 1.3,2.97 -4.77,5.39 -1.32,3.95 2.63,0.65 2.94,0.98 3.86,4.47 0.3,0.76 2.41,3.72 2.94,2.67 z m -15.98,24.94 c 4.17,-0.94 -2.01,-5.77 -1.55,-1.63 -0.4,1.25 0.59,1.32 1.55,1.63 z m -37.87,4.49 c 4.77,-1.66 -1.49,-3.18 -1.18,-0.15 -0.1,1.02 0.87,0 1.18,0.15 z m 17.16,1.88 c 3.61,-1.46 -0.67,-1.57 0,0 z m 1.2,-149.6 c -7.61,-1.192 3.83,-1.941 0.3,0.03 l -0.3,0 0,-0.03 z m -7.21,8.74 c -2.81,-1.497 -5.58,-4.071 -9.09,-4.27 0.12,1.412 6.07,2.253 3.18,3.718 -2.99,-1.955 -6.28,-3.789 -10,-3.138 -0.17,-2.476 4.62,-0.338 6.1,-1.984 2.93,0.476 11.2,2.825 9.93,5.504 l -0.12,0.17 z m 6.15,1.57 c -2.55,-1.03 -4.35,-3.882 -7.22,-4.694 1,-2.098 -1.86,-0.324 -2.59,-3.156 4.01,-0.241 5.74,1.389 4.8,2.703 0.95,0.355 8.27,4.367 5.01,5.147 z m 7.17,2.16 c -3.03,-0.15 -7.3,-6.476 -2.22,-3.23 1,1.04 5.65,2.49 2.22,3.23 z m 6.41,12.14 c -3.3,-0.18 -1.78,-5.99 0.43,-2.59 0.78,0.58 0.94,2.95 -0.43,2.59 z m -50.09,4.55 c -3.74,-1.15 1.81,-1.63 2.38,-2.13 -0.13,-2.63 2.86,-7.32 5.02,-5.37 -1.99,1.32 -2.84,4.13 -2.22,6.42 -1.71,0.4 -3.42,1 -5.18,1.08 z m 4.37,3.94 c -3.64,-2.12 1.86,-4.46 3.78,-4.7 0.11,1.04 -3,3.77 -3.78,4.7 z m 21.2,19.12 c -2.7,-0.51 -1.47,-8.74 1.04,-7 -1.11,2.25 0.64,5.18 -1.04,7 z m 32.46,9.65 c -1.88,0.46 -3.16,-5.92 -0.35,-3.82 0.95,1.15 1.77,3.87 0.35,3.82 z m -29.72,6.43 c -1.61,-1.2 -1.56,-6.38 -0.14,-7.59 2.1,0.79 0.87,5.09 0.76,7.03 l -0.51,0.56 -0.11,0 z m 36.47,6.01 c -3.75,-1.39 2.17,-4.51 0.45,-0 0.24,-0.19 -1.07,0.41 -0.45,0 z m -1.05,7.04 c -1.96,-0.1 -1.74,-7.55 0.68,-4.64 0.51,1.01 0.93,4.73 -0.68,4.64 z m -1.03,4.84 c -3.19,-0.26 0.19,-7.21 1.08,-2.63 0.39,0.8 0.15,2.99 -1.08,2.63 z m -1.3,5.77 c -2.61,-1.57 2.78,-3.42 0.74,-0.37 l -0.74,0.37 0,0 z m -30.07,6.01 c -1.97,-0.58 1.29,-9.17 2.64,-6.44 -0.74,1.76 -0.8,5.77 -2.64,6.44 z m 25.31,3.7 c -2.06,-0.1 -0.84,-6.67 0.95,-3.25 0.34,0.99 0.62,3.48 -0.95,3.25 z m -3.66,4.33 c -3.08,-0.54 -0.67,-4.59 0.67,-4.67 2.81,-2.63 1.25,3.8 -0.13,4.27 0.16,0.35 -0.29,0.41 -0.54,0.4 z m -2.23,3.8 c -3.8,-2.08 2.21,-4.74 0.51,-0.17 0.28,0 -1.19,0.22 -0.51,0.17 z m -2.51,6.43 c -4.41,-4.04 4.43,-2.8 0,0 z m -1.86,4.56 c -3.38,-1.9 1.75,-4.71 1,-0.57 -0.22,0.51 -0.72,0.72 -1,0.57 z m -1.43,2.72 c -5.25,-3.17 4.51,-3.68 0,0 z m -1.86,2.07 c -3,1.17 -4.7,-6.57 -1.38,-3.29 0.19,1.09 4.89,3.42 1.38,3.29 z m -12.57,26.33 c 3.41,-1.76 5.38,-5.92 8.87,-7.71 0.45,2.2 -2.98,5.29 2.82,3.41 2.2,-0.75 3,-3.58 5.5,-2.21 1.27,-4.58 6.14,-0.52 5.95,-5.63 0.29,-2.92 -2.86,-5.1 -3.46,-7.23 -2.35,-0.58 -4.83,-3.52 -3.73,-5.95 2.45,0.75 2.52,4.44 5.46,5.02 0.19,2.49 5.45,5.64 2.39,1.64 -1.94,-3.13 -1.64,-7.2 -1.5,-10.72 0.51,-2.69 -1.06,-5.46 -0.46,-8.32 -0.67,-3.15 1.51,-4.03 3.44,-4.46 2.3,-2.88 4.63,-5.99 4.5,-9.84 -3.3,0.1 -1.94,-5.41 0.13,-2.61 0.99,1.62 0.84,4.88 2.98,4.74 0,-2.61 0.61,-5.74 1.01,-8.08 3.71,2.64 0.55,-4.09 3.2,-5.66 0.8,-1.23 -3.32,-7.79 0.31,-5.92 1.45,1.56 0.58,5.94 1.83,5.9 0.29,-4.45 -1.16,-9.53 -1.76,-14.16 -3.95,-7.74 -7.58,-15.62 -10.77,-23.71 -2.32,1.2 1.69,8.46 -2.04,4.69 -1.17,-3.39 -0.31,-5.44 -2.71,-8.5 0.44,-4 3.92,4.09 3.82,1.23 0.59,-3.27 -7.89,-8.55 -3.66,-10.14 2.81,3.57 1.82,1.55 1.66,-1.83 0.72,-3.25 -2.71,-8.02 -0.86,-11.03 1.19,-1.73 -0.77,-6.49 -1.27,-1.79 -2.41,-1.05 -0.16,-5.23 -1.17,-7.43 -1.32,-3.18 -0.1,-6.35 -2.39,-9.452 0.13,-2.71 5.54,2.732 2.6,-2.068 0.2,-2.892 -1.32,-4.968 -4.19,-3.35 -2.48,-0.854 -5.87,1.864 -7.54,-0.03 1.95,-0.618 4.64,-3.277 0.66,-4.345 -6.21,2.771 -1.61,-4.394 -7.6,-5.648 -2.8,-0.908 -5.97,-1.692 -9.16,-0.987 0.51,1.692 5.49,0.241 7.59,1.217 3.22,2.257 -5.82,0.103 -8.07,0.431 -5.64,1.96 2.7,0.158 4.6,0.931 0.9,2.226 -4.72,0.567 -6.39,1.081 -4.91,1.826 -10.04,3.877 -14.69,6.51 0.93,2.51 6.66,-2.031 9.68,-1.22 3.23,0.05 -0.74,-3.477 3.46,-3.338 2.49,-0.889 8.05,0.379 2.66,0.728 -5.87,0.242 0.8,1.028 2.95,2.02 0.68,2.774 -4.6,1.058 -6.52,1.297 -2.59,0.118 -6.44,2.355 -1.63,1.893 -2.11,1.578 -6.79,2.943 -9.64,5.136 -1.97,1.006 -2.63,6.114 -0.17,2.714 2.93,-4.447 9.32,-2.976 13.5,-1.42 -1.89,2.42 -9.13,-2.721 -7.93,0.97 -2.98,1.66 -7.15,2.16 -8.79,5.67 2.88,-0.3 2.86,3.48 0.23,4.57 -0.24,3.12 -10.08,7.01 -4.59,6.43 1.89,1.46 -5.58,3.51 -4.17,0.39 -0.64,-3.27 7.42,-3.68 7.87,-8.02 -1.17,-3.62 -6.18,8.35 -6.23,3.71 -0.13,0.96 -5.31,2.9 -1.41,-0.62 2.29,-2.62 -2.83,-3.27 -1.36,0.14 -2.83,1.57 -3.17,1.73 -2.46,-0.65 -8.61,2.11 -17.34,3.54 -26.21,3.99 -5.67,1.96 -11.202,5.78 -17.447,4.27 -4.721,3.35 0.735,5.22 3.68,1.58 5.337,-1.4 -1.293,3.1 -3.201,3.44 -2.333,-0.2 -5.32,1.42 -1.749,2.59 1.373,2.92 3.934,-2.29 6.08,-1.79 4.577,-3.79 -0.639,3.19 -3.59,3.8 -2.351,1.81 2.711,3.73 3.71,1.58 0.594,-2.6 1.934,-3.91 4.137,-5.69 3.94,1.2 -2.637,2.81 -1.727,5.27 -0.589,4.27 3.077,-0.12 2.697,-1.75 1.58,-0.44 4.71,-4.99 5.28,-1.57 -3.91,3.5 3.34,-1.32 3.65,1.62 0.23,1.34 6.89,-4.55 3.56,1.45 3.8,0.85 4.74,-5.73 8.22,-3.19 0.51,3.44 2.83,-0.81 4.74,-0.46 2.2,-0.33 4.27,1.88 1.26,3.92 0.92,1.29 3.94,-2.01 4.64,-3.73 2.3,-1.74 3.51,2.45 0.61,3.18 -0.2,2.89 5.69,-0.27 6.06,-2.45 3.16,2.78 3.53,-2.94 7.23,-1.76 0.81,1.6 -3.53,6.08 -0.34,5.89 0.36,-3.21 7.64,-4.8 5.34,-8.55 2.52,-0.92 6.91,-2.88 3.35,2.15 1.71,2.56 2.08,-2.72 2.41,-4.04 3.39,-3.92 1.38,2.94 1.24,5.16 -0.64,3.14 3.05,4.86 1.7,0.68 1.95,-4.1 1.59,3.28 3.29,4.4 1.73,0.54 2.82,-0.12 4.27,0.27 -1.56,2.62 -0.63,6.72 -1.82,8.84 -2.4,-0.36 0.1,-4.83 -2.14,-6.3 -2.39,-0.62 -3.94,-4.16 -6.4,-2.53 -1.77,2.17 1.29,5.9 1.84,1.68 2.63,-2.11 0.26,3.18 0.35,4.08 -3.15,2.52 -0.1,11.19 0.1,2.98 2.39,-6.46 1.5,3.86 0.66,6.24 -3.61,3.05 -3.18,-3.14 -2.82,-6.76 2.16,-2.51 -1.8,-5.75 -1.65,-1.58 0,2.23 0.1,6.59 -0.25,7.37 0.78,1.63 4.6,4.25 6.02,2.01 -1.61,-3.55 2.89,-8.03 1.6,-2.6 0.56,2.99 -0.28,4.62 -1.19,6.28 0.83,2.73 2.7,10.12 3.74,3.39 -1.65,-2.23 -0.97,-5.76 -0.62,-8.25 2.73,-2.36 1.17,3.59 1.57,5.12 1.16,4.59 -0.1,-3.8 2.5,-1.21 -0.86,1.6 1.4,5.43 -1.03,5.35 -2.85,0.69 -1.41,6.42 -0.34,8.64 1.66,3.58 1.5,-3.15 3.64,-1.55 -2.65,2.47 -0.73,5.74 0.53,2.45 3.26,-1.57 0,-6.28 1.99,-7.88 1.97,0.73 1.18,5.82 2.48,0.1 0.1,-3.55 -2.09,-6.84 -2.07,-10.88 0.1,-6.69 3.99,2.91 2.49,5.69 -0.1,2.26 2.34,4.15 0.81,6.7 -0.66,2.43 1.06,6.64 -2.97,4.86 -1.93,1.45 2.5,0.33 1.49,2.84 2.21,-0.8 3.58,-3.93 3.68,-6.22 -0.31,-2.17 -2.03,-3.75 -1.05,-6.83 -0.17,-1.59 0.69,-6.77 2.86,-4.45 -1.3,4.02 -1.66,5.66 1.13,6.47 -3.3,4.74 0.69,9.05 0.38,2.68 2.65,-2.71 1.77,4.68 1.11,6.24 3.38,-0.95 1.27,5.46 -0.52,6.43 -3.54,0.79 1.45,-4.55 -0.1,-4.4 -1.87,4.08 -2.71,-1.52 -4.3,3.22 0,3.27 -3.33,4.79 -1.32,6.33 -1.01,2.09 -2.46,5.72 -4.46,5.99 0.29,-2.33 5.81,-10.32 0.12,-3.94 -2.91,1.35 -5.12,12.87 -1.29,5.73 2.39,-3.19 2.56,1.45 0.1,2.5 -0.99,2.18 -2.81,4.98 -2.31,7.15 6.22,-3.66 -0.79,4.94 0.4,7.56 3.93,0.95 0.88,8.76 4.59,11.6 1.98,2.41 4.07,4.74 5.13,7.76 3.76,2.67 -0.79,-2.53 -0.63,-4.49 -2.63,-4.92 1.21,-0.69 2.82,0.6 5.08,1.58 -1.37,1.12 0.43,3.14 2.44,3.84 3.79,4.58 5.11,2.05 3.48,2.54 7.15,3.85 2.05,4.01 5.31,2.17 -1.93,2.09 -3.61,-0.1 -2.18,0.76 -8.84,-3.77 -4.88,0.63 2.69,0.46 5.09,2.38 0.62,2.08 -3.96,-0.96 -6.55,3.04 -9.28,5.03 -1.33,3.5 -6.76,-0.25 -8.19,1.79 1.18,3.68 3.41,4.41 7.17,0.79 3.8,-2.05 -0.13,2.95 -2.04,3.09 -6.22,2.05 1.41,5.47 3,0 1.32,-3.35 5.97,-2.3 1.88,0.19 -1.27,0.35 -3.83,5.27 -1.26,3.6 z m -8.42,1.64 c 2.98,-0.6 -1.13,-1.56 0,0 z m -3.5,5.16 c -3.71,-2.82 3.13,-6.05 2.03,-8.59 1.93,-4.47 -4.56,2.69 -6.28,1.97 -1.67,-2.78 2,-5.31 0.57,-8.26 1.49,-4.52 7.27,-4.03 11.12,-3.74 3.68,1.02 5.08,-4.21 8.48,-4.94 -0.21,-2.5 0.69,-7.2 -2.85,-9.24 -3.81,-2.41 -3.84,-7.41 -5.52,-10.83 -1.96,-2.6 -1.48,-6.5 -0.85,-9.54 0.45,-5.7 -3.85,-0.32 -6.83,-1.65 -2.49,-0.27 -5.11,-1.71 -5.52,1.98 0.49,4.43 -3.95,1.66 -3.07,-1.59 1.49,-2.79 -4.06,-0.31 -5.52,-1.82 -4.32,0.54 -7.61,3.09 -9.51,6.29 -2.56,1.07 -4.69,-0.56 -7.08,-1.06 -1.04,-2.8 -8.35,-3.53 -6.11,-6.26 -2.35,-1.19 -5.03,-3.57 -6.41,-6.24 -3.4,1.87 -7.81,-4.69 -9.35,-2.23 -3.85,0.25 -2.97,-3.99 0.1,-4.51 3.99,-0.29 5.55,-0.39 0.84,-3.19 -1.93,-0.34 -6.84,1.03 -5.69,-2.24 2.2,-2.11 5.76,-2.51 8.63,-1.37 1.41,-3.67 -3.72,-5.92 -6.7,-4.64 -6.38,1.11 0,-6.36 3.95,-4.34 3.69,1.04 6.24,2.02 2.34,-1.35 2.4,-3.15 6.94,2.74 9.52,3.58 3.63,1.04 2.69,7.27 6.01,7.59 2.38,-1.22 5.26,0.5 7.33,0.36 1.49,-3.73 4.14,-7.44 8.3,-8.42 4.45,-0.52 7.77,-3.25 12.09,-3.59 1.28,-4 7.89,2.18 6.91,-2.64 0.23,-3.26 -2.76,-4.61 -4.24,-6.92 -1.69,-1.48 -2.83,-3.8 -4.32,-5.27 -2.09,-0.29 -3.15,-6.27 -4.57,-1.85 -2.86,3.23 -4.73,-2.31 -1.08,-2.9 2.31,-2.86 -2.23,-3.96 -1.98,-6.75 -1.86,-4.47 -3.97,-5.7 -8.2,-3.04 -5.57,-2.45 -1.39,4.42 -4.5,4.39 -3.8,-1.66 -1.61,-7.77 -7.46,-4.71 -1.47,-0.76 -5.64,-3.45 -5.26,0.32 1.78,3.35 -3.67,3.6 -3.45,0.38 0.1,-4.36 -5.67,0.86 -7.76,-2.04 -2.53,1.12 -5.15,-2.79 -6.62,0.38 -2.59,2.1 -3,3.68 -4.827,6.47 1.937,3.08 -3.54,3.54 -2.798,0.37 -0.909,-1.71 1.847,-7.38 -1.252,-4.84 -2.464,1.43 -0.892,6.05 -3.978,5.81 -3.314,-1.48 -1.047,-5.4 0.09,-7.71 0.573,-3.64 -5.44,0.55 -4.364,3.19 0.571,3.91 -3.958,1.07 -3.25,-1.69 -0.16,-3.36 6.7,-11.2 0.232,-6.41 -1.103,1.31 -2.918,6.53 -3.692,2.34 0.782,-3.9 3.938,-8.05 8.14,-8.4 0.818,-4.98 6.186,-0.76 9,-3.02 2.987,-1.66 6.187,-1.71 9.097,-3.52 7.03,-2.02 14.64,-1.41 21.76,-3.24 2.64,-0.22 7.68,0.14 3.59,-3.76 -1.82,-0.62 -4.71,-3.3 -6.45,-2.51 0.29,2.29 -0.33,5.83 -2.47,2.02 -1.61,-2.7 1.23,-5.24 0.86,-7.63 -1.75,0.19 -5.84,-1.513 -3.96,-3.439 1.48,0.873 6.39,3.921 4.27,-0.191 -3.5,0.13 -7.88,-0.893 -8.79,-4.79 -2.47,-2.388 -5.12,-4.928 -6.38,-8.108 -2.69,-1.117 -3.88,-4.733 -6.47,-5.642 -4.362,2.124 -4.616,-5.586 -6.427,-3.832 0.998,3.49 -5.435,0.939 -3.393,-1.204 4.041,-2.645 -4.857,-0.482 -5.397,-2.652 0.191,-3.357 5.093,-2.463 6.92,-3.822 1.855,-3.192 -4.657,-2.347 -5.81,-0.397 -4.051,1.315 -0.387,-4.817 1.499,-5.912 3.893,-0.869 6.375,-0.758 7.039,-3.001 2.592,4.185 1.705,-2.498 -1.695,-0.153 -2.141,0.263 -5.222,-1.911 -2.653,-3.697 3.859,-0.582 6.601,3.822 10.567,2.77 3.18,0.572 1.82,5.261 4.72,6.17 3.43,2.087 6.26,4.636 9.01,7.505 8.64,5.421 16.38,12.077 24.42,18.315 2.36,-1.22 8.2,5.839 7.59,1.221 2.04,-3.545 5.88,-6.789 10.23,-7.311 -1.92,-3.138 5.83,-1.328 5.6,-4.221 4.21,1.446 3.68,-0.821 7.19,-1.538 2.86,-3.997 -3.99,-1.143 -4.39,-4.74 -2.44,0 -4.81,-0.626 -7,-1.379 -3.73,1.817 -7.33,-2.698 -1.9,-4.202 3.56,-1.494 -2.95,-5.023 -2.42,-8.3 0.39,-3.066 4.91,-1.036 7.1,-1.62 3.97,0.09 7.98,-0.318 11.83,0.373 6.48,-1.59 13.24,-0.402 19.79,-1.233 1.49,-4.988 7.82,-4.218 11.55,-2.541 4.17,0.94 -0.35,4.72 1.21,6.328 3.28,1.092 6.37,2.763 9.89,3.117 3.52,2.128 -1.73,3.461 -2.23,5.526 -2.5,1.548 -3.14,3.85 -5.77,5.621 -3.08,-0.499 -3.89,-0.06 -1.63,1.63 0.84,4.91 -1.86,9.74 -4.33,13.739 -0.58,3.16 -4,5.497 -4.18,8.47 0.68,2.466 -3.5,3.914 -1.44,6.49 -0.75,3.31 1.74,6.25 1.54,9.67 0.81,2.92 1.56,5.5 0.76,8.56 0.58,5.34 1.14,10.83 2.44,15.98 1.63,2.74 -0.5,6.57 2.67,9.02 1.73,7.28 7.93,12.78 8.93,20.25 1.9,5.56 2.21,11.69 3.41,17.47 0.93,6.63 -0.8,13.13 -1.88,19.63 3.41,0.42 4.45,3.87 3.23,6.76 -2.17,5.62 -8.22,-0.88 -10.69,-3.06 -4.03,-1.85 -2.85,-6.27 -3,-9.74 -2.3,1.21 -2.97,12.63 -5.1,7.54 -2.52,0.41 1.97,3.57 1.52,5.44 -2.19,1.23 -4.37,0.1 -2.7,3.89 0.71,3.49 -2.07,7.71 1.13,10.36 4.13,1.99 3.46,3.69 0.26,4.04 0.71,2.51 5.47,0.14 5.5,3.04 -3.46,-0.74 -0.53,3.32 -3.68,4.25 -2.39,0 -4.68,0.26 -6.6,1.98 -2.7,-0.48 -4.81,1.36 -7.29,1.76 -2.61,1.84 -5.91,1.64 -8.71,2.88 -3.92,-0.77 -5.38,4.75 -8.62,5.47 0.53,-5.65 -4.65,-2.78 -6.69,0.1 -0.21,0.78 -3.15,2.18 -1.77,2.45 z"/></g>
</svg>
