<?xml version="1.0" encoding="UTF-8" standalone="no"?>
<!DOCTYPE svg PUBLIC "-//W3C//DTD SVG 1.1//EN" "http://www.w3.org/Graphics/SVG/1.1/DTD/svg11.dtd">
<svg xmlns="http://www.w3.org/2000/svg" width="300px" height="350px">
<g>
<path id="fill" d="m 183.12,50.33 c -3.01,0 -5.02,2.5 -7.18,4.12 -3.06,1.9 -3.26,6.97 -7.38,7.44 -3.35,1.66 -7.25,1.27 -10.64,2.75 -7.41,1.3 -14.98,-0.44 -22.39,0.72 -2.54,0.1 -5.02,-1.3 -5.91,-3.69 -2.91,0.1 -6.77,1.84 -5.93,5.38 -0.21,2.32 -0.54,5.61 2,6.71 1.5,4.5 7.24,3.01 10.25,5.57 1.11,2.28 -2.68,2.79 -4.22,2.5 -2.6,-0.32 -4.45,-3.64 -7.34,-1.81 -2.79,0.77 -2.65,6.11 0.74,5.5 2.12,-0.33 3.5,1.19 3.82,3.09 2.85,4.94 9.88,3.26 13.84,6.44 0.53,2.37 -3.29,2.57 -4.78,3.34 -1.64,0.84 -2.72,1 -3.88,-0.41 -0.74,-0.87 -3.79,-0.77 -2.12,0.75 2.51,1 -0.15,2.49 -1.06,3.75 -1.59,1.64 -4.58,3.67 -6.19,0.82 -4.73,-4.02 -7.64,-9.68 -11.15,-14.56 -4.63,-5.23 -11.73,-8.57 -13.953,-15.63 -1.579,-3.37 -3.256,-8.09 -6.678,-9.28 -0.542,2.7 1.365,5.76 -0.665,8.28 -0.473,0.25 0.02,-3.16 -1.71,-3.5 -2.141,-0.6 -1.68,2.22 -1.469,3.53 -0.321,4.06 2.67,7.26 6.031,8.81 2.179,1.39 0.748,4.87 -1.781,4.16 -1.287,-0.97 -3.579,-0.24 -2.937,1.56 1.453,4.41 6.119,6.06 9.682,8.35 2.53,2.33 3.2,6.01 5.46,8.67 1.82,2.55 2.4,5.63 4.73,7.7 1.76,2.23 0.43,5.31 0.53,7.66 1.78,1.72 5.68,1.55 5.6,4.87 -0.76,1.88 -3.76,2.63 -5.26,4.27 -3.78,3.41 -8.35,5.36 -12.649,7.83 -3.993,2.35 -6.821,6.13 -10.406,8.9 -2.783,1.36 -5.731,2.48 -7.771,4.84 -1.736,1.72 -5.241,2.81 -5.448,5.44 1.414,0.52 3.861,-0.37 4.969,1.41 0.862,2.88 3.912,1.58 6.187,1.5 2.465,-0.25 4.875,-1.14 5.933,-3.52 0.799,-1.56 3.752,-1.13 2.693,0.93 -0.311,0.68 -1.224,1.9 0.156,1.53 1.813,-1.46 3.718,-2.62 5.996,-2.85 3.5,-1.9 4.94,-7.14 9.63,-6.87 4.14,-1.22 8.23,-3.98 12.78,-3.22 1.51,0.1 3.29,2.29 4.34,0.22 0.9,-1.79 3.71,-3.37 5.13,-1.53 -0.19,2.88 3.86,5.3 1.9,7.9 -0.62,1.83 1.86,1.66 2.66,0.6 3.18,0.7 3.16,5.62 6.22,6.09 1.49,-1.9 4.1,-0.61 4.69,1.41 0.87,1.52 -0.25,3.33 1.56,4.37 2.86,3.2 6.54,5.85 8.66,9.53 -1.08,1.64 -3.66,-0.62 -5.24,-0.64 -5.97,-2.21 -13.09,0.91 -16.67,5.89 -1.22,2.71 -4.52,5.88 -7.59,4.14 -4.11,-3.56 -6.52,-8.55 -8.91,-13.29 -3.13,-3.4 -8.92,-2.53 -11.47,-6.57 -1.99,-0.84 -1.96,2.53 -0.69,3.44 0.97,1.07 -2.28,0.61 -2.15,2.38 -0.48,3.16 2.35,5.19 4.72,6.56 1.57,1.28 -0.37,2.8 -1.63,3.22 0.16,2.47 3.1,4.68 5.63,4.43 3.23,0.42 5.11,3.68 5.65,6.5 3.21,0.8 2.49,4.44 2.97,6.88 2.37,2.37 7.26,2.51 8.22,6.34 -1.74,2.35 1.27,3.22 2.75,4.25 1.47,1.3 -0.19,3.83 1.81,4.85 1.04,1.29 3.87,1.07 2.53,-1.03 -0.92,-2.3 1.63,-4.56 3.69,-3.13 0.77,0.28 2.06,1.84 2.66,0.84 -0.57,-1.64 -1.13,-3.92 0.81,-4.93 0.66,-1.53 3.06,-2.16 3.5,-0.1 0.32,0.99 1.11,4.03 2.44,2.57 0.2,-1.96 1.68,-3.86 3.87,-3.13 1.98,-1 3.89,1.92 1.57,2.69 -1.1,0.15 -2.82,-0.1 -2.47,1.5 2.01,0.75 5.92,0 6.28,2.97 1.75,1.28 3.98,4.9 1.25,6.28 -1.45,0 -1.49,1.04 0,1.09 1.66,0.24 2.66,-1.05 3.43,-2.09 4.35,-1.18 6.13,6 10.69,4.59 1.17,0.98 3.07,1.18 4.72,0.5 1.74,-0.63 5.4,0.53 3.69,2.6 -2.48,4.5 -1.67,10.64 -5.25,14.46 -3,0.11 -6.84,1.1 -7.25,4.6 -0.85,2.06 -4.26,3.12 -3.75,5.59 2.77,-1.19 4.48,3.16 7.22,1.6 1.18,0.43 0.63,1.24 3.78,0.1 0.22,-2.6 3.03,-4.12 5.06,-5.16 1.87,-0.16 1.74,4.25 3.63,2.57 3.22,-1.59 4.62,-5.42 3.59,-8.79 -0.52,-1.94 2.51,-3.05 3.16,-4.94 1.36,-2.52 3.69,-4.07 6.09,-5.37 0.87,-1.79 -3.56,-2.18 -2.5,-4.31 1.02,-2.39 4.88,-1.01 5.87,-3.03 -3.18,-0.65 -3.74,-5.76 -0.37,-6.53 2.2,-0.74 3.44,-4.31 0.66,-5.07 -3.26,1.47 -7.04,0.17 -9.72,-1.9 2.32,-2.27 -2.57,-3.27 -2.32,-5.72 0.14,-2.45 -0.19,-6.27 2.44,-7.34 2.21,0.25 2.55,3.22 4.81,3.68 4.54,2.12 10.22,3.08 14.94,1.38 2.83,-2.07 5.42,2.16 4.06,4.65 -1.69,2.49 -4.73,4.14 -5.4,7.38 -0.76,2.33 -0.48,5.72 2.06,6.69 2.34,2.21 -0.68,5.25 -2.99,6.07 -1.78,0.78 -2.33,2.06 0.15,1.49 5.42,0.67 11.11,-2.87 12.09,-8.28 2,-3.27 1.02,-7.3 0.1,-10.69 0.53,-3.94 -2.36,-7.27 -5.18,-9.72 4.01,-3.03 6.24,-8.68 3.65,-13.31 -1.47,-5.3 -9.39,-5.18 -11.56,-0.53 -2.37,4.09 0.51,8.3 2.41,11.9 0,1.37 -3.14,1.15 -4.47,1.29 -3.76,-0.21 -8.31,-1.19 -9.57,-5.22 -3.37,-7.01 -1.26,-15.01 -1.87,-22.47 0.99,-9.01 -0.1,-18.06 -1.13,-27 -0.81,-12.3 0.51,-24.89 -1.53,-37 -0.7,-1.3 -0.81,-2.2 -0.12,-3.35 0.77,-2.46 -1.98,-4 -1.22,-6.4 0.17,-3.13 -0.97,-5.98 -2.75,-8.38 -1.39,-3.16 2.87,-4.49 5.22,-4.72 4.43,0.27 6.01,-4.76 9.9,-5.72 2.3,-0.55 2.35,-3.34 0.25,-4.18 -2.15,-1.19 -4.71,-2.47 -7.12,-1.63 -1.81,-0.35 -2.29,-3.12 -4.56,-2.87 -2.19,-0.33 -4.37,0.34 -6.57,0.18 2.5,-3.49 2.12,-8.44 0.22,-11.96 -0.24,-1.6 -0.1,-4.28 -2.36,-3.73 -1.01,-0.23 -2.04,-0.35 -3.08,-0.24 z M 140.5,79.86 c 3.21,0.21 7.34,0.68 9.16,3.59 0.37,2.14 -2.23,1.39 -3.25,0.91 -2.46,0.1 -7.45,-0.2 -6.47,-3.78 0.19,-0.25 -0.1,-1.02 0.56,-0.72 z m 77.53,102 c 2.07,0 2.38,2.45 3.88,3.25 0.17,1.94 -1.73,3.97 -2.91,5.06 -2.53,-0.51 -2.88,-4.02 -3.12,-6.19 0.19,-1.07 0.96,-2.14 2.15,-2.12 z"/><path id="outline" d="m 188.99,89.79 c -2.57,-7.33 -5.63,2 -2.28,4.18 3.5,3.09 0.86,5.21 3,8.76 -0.94,4.11 -4.64,-4.96 -3,-5.46 -0.89,-4.46 -2.99,-2.06 -5.38,-0.19 -2.32,2.76 -3.45,4.77 -6.93,2.04 -4.07,1.62 3.46,2.07 2.99,4.12 -2.61,0.45 -5.33,-2.72 -8,-2.69 -2.9,-1.96 -2.68,1.95 -5.39,1.74 -5.12,-0.12 4.92,-2.62 -0.81,-1.87 -0.86,-1.57 -4.02,-1.16 -5.93,-1.2 -3.38,0.6 -6.69,0.57 -9.93,2.1 -1.53,0.51 -7.56,3.46 -5.06,0.54 7.89,-2.5 0.79,-1.13 -2.32,-0.22 2.45,-1.71 7.05,-3.23 1.08,-2.62 -2.87,1.05 -2.94,2.92 -5.69,4.14 -1.8,-0.17 -7.51,3.23 -3.44,3.08 0.55,1.81 -4.41,1.35 -5.6,3.28 -3.69,2.95 5.41,-0.89 -0.66,2.72 -0.84,1.05 -3.89,5.74 -2.2,5.91 2.69,-3.07 6.04,-6.05 9.81,-7.41 1.9,1.19 -3.85,2.79 -4.68,4.92 -3.37,2.52 -3.94,6.49 -3.57,10.54 1.37,0.86 1.39,-6.28 2.35,-2.16 -2.44,5.65 1.53,3.05 1.85,-1.59 2.53,-2.79 -0.33,2.87 0.1,4.45 3.1,-0.8 -1.47,5.53 3.53,1.29 0.84,2.42 -5.74,8.59 0.59,3.36 2.26,0.1 3.12,-5.14 4.46,-1.7 -2.96,3.55 -1.36,5.34 2.23,2.02 -2.57,1.88 -1.03,6.04 1.65,3.14 3.03,-1.34 2.02,-6.01 4.83,-6.87 -2.41,3.26 0.32,7.31 -2.42,9.03 -2.8,1.61 -3.09,11.05 -0.92,3.81 2.28,-2.5 -0.97,10.15 1.55,3.62 2.18,-1.52 1.3,7.54 -1.88,4.36 -0.63,-3.01 -2.85,-4.38 -5.44,-5.11 -0.23,1.23 0.91,5.46 1.78,8.2 2.53,2.51 0.1,-9.02 1.87,-3.14 -0.78,3.16 2.9,7.7 2.5,2.06 2.35,0.74 3.41,-4.83 4.31,-2.3 1.05,2.28 -1.09,8.29 -1.33,2.93 -2.31,-0.38 -0.61,5.72 0.91,4.16 2.29,4.4 0.68,-1.42 1.67,-2.97 1.12,1.92 1.06,5.56 1.56,7.63 2.54,0.9 -0.45,-10.75 1.93,-4.39 -0.68,3.81 3.14,5.79 0.84,0.99 -1.57,-3.04 1.4,-6.27 1.13,-1.28 0,3.47 1.35,6.93 3.4,9.52 2.14,-1.77 0.41,5.6 2.92,2.46 1.26,-1.29 -1,-6.75 1.92,-4.84 -0.5,3.75 2.26,2.46 0.86,-0.6 0.33,-2.2 -0.58,-5.36 -0.27,-8.05 0.4,-2.58 0.54,-12.59 2.53,-9.04 -1.19,4.13 -1.35,16.99 0,5.76 2.63,-8.45 1.76,3.2 0.44,6.11 2.24,0.26 0.74,-6.27 3.42,-3.87 -0.85,2.62 -0.74,5.53 -1.22,7.95 0.4,2.38 -1.13,3.17 -0.82,6.56 3.66,-5.13 2.32,7.78 -0.22,6.92 -4.41,-0.47 1.81,0.84 0.77,3.36 -0.45,3.16 -2.99,6.14 -5.5,9.13 -0.23,2.83 -2.06,5.25 -2.64,8.05 1,1.5 -1.03,6.75 1.13,5.53 4.37,-5.56 -1.16,4.05 2.44,5.48 1.03,1.25 -0.36,8.3 2.01,4.74 2.81,-4.34 0.26,3.95 3.46,3.87 -0.47,-5.2 1.86,-1.35 2.42,1.41 1.12,1.96 2.34,-6.44 2.44,-0.78 1.42,4.06 3.3,3.4 2.19,-0.48 2.05,-0.8 1.23,5.88 3.48,3.39 -2.42,-4.25 2.4,-4.54 2.44,-0.88 1.34,2.61 7.44,-0.6 5.81,3.03 -4.68,5.47 -3.22,13.96 -8.52,19.01 -1.91,-1.05 -6.43,1.43 -4.41,2.01 6.05,-2.02 -2.79,3.43 -0.99,5.67 5.02,2.52 0.21,-4.94 3.96,-3.02 3.08,-0.33 5.9,-3.11 6.68,-5.75 2.15,-3.59 0.45,2.57 2.52,2.63 3.51,0.65 2.5,-3.66 1.98,-5.76 0.4,-3.09 3.16,-3.17 3.44,-6.02 3.04,-1.46 -0.83,-6.51 2.28,-6.64 1.83,-1.17 -2.53,-5.21 1,-3.81 1.41,4.71 1.18,-2.23 -0.96,-3.62 -2.03,-2.71 3.4,-1.69 -0.99,-5.12 1.75,-0.68 3.44,2.03 6.28,0.64 0.26,-3.12 -7.57,-1.44 -8.85,-5.14 -2.36,-1.13 -4.32,2.61 -6.45,3.51 -5.81,-0.56 5.54,-6.63 -2.79,-3.65 -3.5,2.93 -9.05,2.45 -3.35,-1.82 4.42,1.57 7.03,-3.16 9.74,-5.76 -3.23,3.79 -3.48,6.74 0.44,2.4 2.2,-1.77 0.48,-7.29 -1.39,-3.45 -2.12,1.57 -4.71,4.26 -7.35,3.64 -0.49,-1.69 5.16,-2.41 6.06,-5.62 3.22,-2.99 0.32,2.03 4.47,-1.14 4.71,0.95 -2.04,-6.08 1.65,-6.24 -1.01,-2.65 2.07,-3.89 1.85,-0.18 0.95,2.25 1.23,4.69 3.08,6.29 5.28,4.99 13.93,4.93 20.08,1.48 3.18,-3.95 -4.2,1.25 -6.57,1.01 -3.82,0.65 -8.16,-0.28 -11.29,-2.33 -0.86,-3.74 -4.87,-4.25 -3.76,-8.16 0.55,-4.58 -3.66,0.85 -4.86,-4.44 2.8,-1.54 0,-5.04 0.69,-7.6 0.59,-1.61 -1.38,-6.5 1.62,-4.12 0.46,2.96 0.21,6.59 1.45,6.38 3.74,0.63 -2.48,-4.81 0.63,-4.21 2.57,0 -3.14,-7.67 1.04,-5.92 0.1,-2.07 -1.38,-4.89 -1.67,-6.96 -1.06,3.58 -3.12,-2.37 -2.99,-5.67 2.6,1.72 4.46,0.62 2.12,-3.38 -2.1,2.67 -2.95,-3.25 -3.11,-4.94 1.19,-0.77 3.02,2.98 3.77,4.47 2.69,1.08 -0.93,-3.16 -1.27,-5.02 -1.57,-1.08 -4.07,-4.52 -2.09,-5.82 1.49,3.29 6.91,10.57 3.35,3.23 -0.98,-4.21 -5.35,-4.99 -5.7,-9.61 3.8,0 -2.92,-5.43 0.11,-7.82 2.57,-1.73 6.49,11.09 5.48,2.76 -0.67,-2.77 -0.54,-5.45 -0.97,-8.11 -3.29,-4.88 4.61,1.35 0.24,-5.18 -2.12,-3.65 -2.13,-6.89 -1.07,-11.58 -0.98,-5.9 -1.39,-9.47 -3.68,-12.2 z m 7.59,20.93 c 1.23,12.74 -0.63,25.78 1.9,38.35 0.14,6.13 0.76,12.22 0,18.31 0.28,6.19 -0.57,12.56 0.44,18.64 0.96,2.5 1.62,4.79 3.43,6.65 3.39,1.64 7.39,2.49 11.05,1.27 -1.36,-3.26 -4.1,-6.25 -3.14,-10.08 0.62,-4.41 5.42,-7.1 9.41,-5.71 3.55,1.34 4.32,5.02 5.08,8.4 -0.18,3.56 -1.86,6.86 -4.62,9.1 2.91,2.64 5.59,5.97 4.88,10.16 1.6,3.73 1.69,7.6 -0.33,10.98 -0.82,5.39 -7,8.62 -12.3,8.1 -5.18,0.38 -1.13,-2.08 0.88,-3.22 2.46,-1.2 3.71,-4.13 0.1,-5.42 -2.57,-4.25 0,-9.54 3.61,-12.3 2.93,-1.81 0.98,-8.36 -2.84,-4.96 -5.81,1.05 -12.31,0.16 -17.15,-3.3 -2.77,-5.39 -4.25,0.38 -4.12,4.06 -0.33,3.31 4.58,3.59 2.47,6.23 2.49,1.73 6.2,2.99 9.13,1.36 3.88,2 1.89,5.42 -1.83,6.76 -1.24,2.14 -1.15,4.03 2.28,5.27 -1.27,3.09 -5.91,1.08 -6.36,3.87 0.51,1.69 5,2.54 1.66,4.76 -4.12,1.26 -5.25,5.81 -8.47,8.47 1.12,3.41 0.58,7.67 -2.95,9.43 -3.45,3.65 -2.88,-3.21 -5.1,-1.76 -2.05,1.9 -4.08,2.11 -4.02,5.06 -1.26,0.1 -7.46,1.93 -4.25,-0.14 l -0.1,0 c -3.66,1.38 -3.94,-2.92 -7.4,-1.53 -1.71,-2.79 3.22,-4.42 3.85,-7.14 0.67,-3.34 4.54,-3.87 7.36,-4.12 3.24,-4.36 2.39,-10.55 5.39,-15.14 -2.6,-2.92 -5.84,1.26 -8.36,-1.5 -4.89,1.59 -7.74,-6.6 -10.92,-4.33 -0.49,2.33 -5.65,2.7 -5.01,0.16 4.04,-0.23 2.6,-3.58 0,-5.9 -0.2,-4.19 -9.32,-0.29 -5.46,-5.25 3.22,1.06 3.92,-2.41 0.31,-1.6 -4.17,-1.05 -1.67,4.48 -5.03,3.3 -1.75,-1.63 -1.26,-6.83 -4.48,-2.49 -2.9,1.42 2.12,5.77 -2.28,4.9 -2.58,-2.7 -5.74,-1.48 -4.1,2.55 -0.22,3.43 -5.84,0.2 -5.02,-2.59 0.73,-3.36 -5.64,-2.13 -3.44,-6.44 -0.8,-2.95 -5.39,-4.01 -7.76,-5.4 -1.83,-2.47 0.99,-6.19 -3.49,-7.43 -0.32,-3.49 -2.65,-6.65 -6.57,-6.43 -2.21,-0.24 -6.89,-5.01 -3.5,-5.78 3.21,-1.62 -1.48,-2.83 -2.67,-4.33 -2.85,-3.62 -1.52,-6.39 0.7,-6.63 -2.7,-3.34 0.64,-6.53 2.77,-2.48 3.45,2.51 9.62,2.11 11.28,6.97 1.87,4.48 4.53,8.37 8.13,11.62 3.83,0.41 5.55,-2.52 7,-5.45 3.9,-3.55 8.69,-6.53 14.13,-5.63 1.92,0 8.9,3.24 6.69,1.12 -2.53,-3.78 -7.34,-7.18 -9.54,-10.49 1.05,-1.73 -1.7,-6.26 -3.55,-4.18 -2.91,2.52 -4.66,-5.34 -6.96,-5.56 -2.78,1.97 -4.38,-0.29 -2.59,-2.48 -0.46,-2.41 -2.57,-3.97 -2.59,-6.57 -3.24,-1.57 -3.75,2.63 -5.93,3.04 -3.06,-1.65 -5.16,-1.91 -8.35,-0.62 -2.98,0.27 -5.44,2.65 -8.48,2.69 -4.78,0.65 -5.36,6.74 -9.927,7.14 -2.223,-0.27 -4.695,4.27 -6.143,1.83 2.74,-4.08 -0.996,-3.38 -2.244,0 -2.983,1.96 -6.925,1.9 -10.316,2.08 -1.452,-2.11 -1.628,-3.76 -5.723,-2.9 -3.391,-2.26 5.351,-6.17 6.813,-8.5 2.338,-1.91 6.314,-2.32 8.27,-5.19 4.158,-4.13 8.304,-7.61 13.65,-9.7 4.08,-2.28 8.68,-6.53 12.12,-8.38 -0.14,-4.41 -4.15,-2.46 -5.88,-5.54 1.02,-4.05 1.29,-6.52 -2.07,-9.05 -1.35,-4.57 -4.83,-7.89 -6.55,-12.35 -2.028,-3.77 -6.893,-3.69 -9.35,-7.23 -1.673,-1.52 -3.985,-5.43 -0.18,-6.09 3.49,1.98 5.448,-1.45 2.08,-3.32 -3.863,-1.65 -5.699,-5.38 -5.353,-9.36 -1.419,-4.48 3.604,-4.13 3.773,-0.83 1.301,-2.23 -1.184,-5.39 0.42,-7.53 5.044,1.92 6.759,10.16 9.81,14.78 4.22,5.12 10.54,8.07 13.76,14.12 2.65,4.73 6.12,8.82 10.18,12.37 2.38,0.1 5.21,-3.46 5.99,-4.42 -4.09,-2.92 0.65,-4.3 3.11,-1.14 1.52,-0.93 10.09,-2.48 5.32,-4.26 -4.52,-1.64 -10.87,-1.3 -12.94,-6.55 -0.38,-3.65 -5.5,0 -6.07,-4.22 -1,-3.59 4.33,-6.22 7.17,-3.6 2.68,2.81 10.22,0.36 4.38,-1.55 -3.19,-0.6 -7.04,-1.09 -8.32,-4.59 -3.26,-1.35 -1.75,-5.86 -2.1,-8.68 0.83,-3.16 4.01,-3.86 6.85,-4.14 1.22,3.62 4.71,4.18 8.14,3.44 6.9,-0.64 14.07,0.93 20.83,-0.66 3.12,-1.63 6.67,-0.74 9.65,-2.65 4.32,-0.47 3.78,-6.21 7.81,-7.56 2.4,-3.34 6.36,-4.63 10.36,-3.53 2.98,-0.55 1.33,4.04 3.12,5.65 1.13,3.43 0.89,7.54 -0.67,9.94 3.09,0 6.4,-1.21 8.85,1.36 1.54,2.84 2.09,0 4.35,1.33 4.6,0.67 9.82,4.76 3.02,7.22 -2.83,1.08 -3.99,4.65 -7.47,5.07 -3.81,0.57 -9.28,1.49 -4.92,6.25 1.42,2.63 1.5,5.98 1.39,8.73 1.85,1.63 2.17,6.58 -1.35,6.28 2.58,-4.3 3.75,5.74 3.49,8.73 z m -16.25,134.05 c 1,-1.39 -1.99,-0.89 0,0 z m -7.27,-0.32 c 3.66,-0.99 -3.81,-1.87 -0.12,0 z m 25.2,-17.74 c 1.71,-1.97 -3.49,-1.51 0,-0.1 z m 21.35,-5.79 c 3.37,-0.39 2.75,-4.12 3.24,-6.82 -0.1,-1.89 -1.94,-8.04 1.01,-4.26 3.87,5.06 -0.53,-5.38 -1.01,-6.91 3.84,-0.72 -4.33,-8.95 -3.4,-5.41 2.03,2.19 2.4,5.54 -0.38,7.31 -3.7,0.18 -5.1,11.6 -2.96,7.48 -1.56,-2.38 4.11,-6.87 2.35,-3.5 -2.99,3.64 2.05,3.7 1.61,5.98 0,1.97 0.18,4.19 -0.46,6.13 z m -17.94,-2.01 c 2.68,-2.97 -4.88,-2.52 0.16,0 z m -1.95,-4.77 c 1.19,-1.96 -3.84,-3.97 0,0 z m 3.62,-2.91 c 3.66,-1.88 -2.92,-1.95 0,0 z m -66.6,-3.69 c 1.64,-2.71 5.27,-4.93 5.56,-8.03 -0.51,-4.02 -2.19,-3.63 -2.59,0.18 -1.32,2.07 -4.84,6.99 -3.01,8.01 l 0,-0.16 0,0 z m 25.83,0.48 c 2.31,-1.66 -1.64,-6.74 -0.97,-1.86 0.89,-0.14 0,2.15 0.97,1.86 z m 25.27,-2.9 c 3.28,-1.66 -2.15,0 0,0 z m -27.83,-0.33 c 1.48,-1.72 -3.12,-1.72 0,0 z m 32.57,-1.63 c 2.14,-2.11 -3.21,0.42 0,0 z m -4.54,0 c 4.78,-1.6 -4.48,-1.31 0,0 z m -53.13,-0.65 c 3.42,-0.51 4.65,-5 4.7,-8.07 0.72,-6.29 -0.13,-12.96 3.45,-18.6 -2.62,-0.7 -3.29,5.54 -4.87,7.61 -1.56,4.34 -2.77,9.74 0.1,13.83 0.1,1.9 -6.16,5.37 -3.38,5.23 z m 11.57,-1.29 c 0.68,-1.48 -0.88,-6.46 -1.27,-9.27 -0.19,-6.38 -0.12,-12.79 2.3,-18.83 -2.76,1.19 -3.16,7.76 -3.61,11.41 -0.11,5.64 -0.22,11.41 2.01,16.69 -0.9,0 0.99,0 0.57,0 z m 5.65,-0.18 c 4.93,0.22 2.25,-0.79 1.76,-1.75 -0.86,-0.46 -4.12,2.8 -1.76,1.75 z m 7.07,0.18 c 1.73,-2.45 -1.96,-3.03 0,0 z m 31.42,-0.48 c 1.64,-3.06 -1.53,-0.45 0,0 z m -55.58,-0.81 c 4.03,-1.44 -1.28,-6.12 0.27,-9.22 0.98,-2.56 -1.53,-4.97 -2.51,-5.59 -0.13,2.96 -0.75,3.75 -1.74,6.59 -4.13,2.66 1.65,9.96 1.86,5.24 -0.8,-2.98 0.12,-6.23 1.01,-9.14 0.19,2.51 1.03,10.82 -0.63,11.15 -0.14,0.22 1.49,1.9 1.74,0.97 z m 21.47,-0.32 c -1.66,-2.16 -2.17,-6.37 -2.26,-10.15 0.18,-5.12 0.23,-10.25 1,-15.32 -4.6,2.85 -1.06,11.25 -2.9,16.03 0.16,3 -0.28,6.74 2.17,8.95 1.05,-2.03 0.69,0 1.99,0.49 z m -7.39,-0.68 c 1.16,-2.46 -1.38,-6.72 -0.5,-9.95 -0.14,-5.44 -0.1,-10.85 1.13,-16.17 -2.5,0.87 -2.64,6.53 -2.94,9.45 -0.81,5.68 -0.34,11.72 1.74,17.01 -0.66,0.1 0.95,-0.37 0.57,-0.34 z m 2.96,0.27 c 0.47,-2.89 -1.31,-6.78 -0.66,-10.13 -0.32,-5.31 0.42,-10.54 1.38,-15.75 -2.65,-2.61 -2.53,3.94 -2.72,5.72 -0.21,6.72 -1.15,13.91 1.51,20.25 l 0.36,-0.18 0.13,0.1 z m -23.34,-2.82 c 2.24,-1.2 -2.41,-1.07 0,0 z m 29.17,0 c 3.67,-1.91 -2.68,-0.33 0,0 z m -29.27,-1.95 c 2.11,-2.23 3.25,-6.91 1.25,-9.69 -4.18,-4.14 -8.42,-8.56 -10.24,-14.31 -2.71,-1.29 -2.1,-3.8 -5.61,-3.3 -3.7,3.14 4.11,2.51 3.52,4.48 1.7,3.91 -1.6,0.96 -3.9,-0.57 -4,3.69 4.43,4.07 3.46,6.42 -5.03,-0.28 -1.37,4.38 1.54,4.3 3.14,1.01 0.99,5.66 4.17,6.55 1.84,4.16 6.29,0.6 6.36,1.8 -0.76,2.78 -1.05,4.23 -2.23,1.55 -3.95,1.04 -1.29,3.11 1.68,2.77 z m 13.52,-0.61 c 0.93,-2.38 -0.75,-6.76 0.52,-9.9 0.1,-1.67 1.96,-8.13 -0.41,-4.45 -0.3,2.54 -2.05,5.17 -0.95,7.71 0.38,1.88 -0.93,5.82 0.84,6.64 z m 15.89,-0.22 c 0.41,-5.86 0.38,-11.77 0.72,-17.65 -1.77,2.56 -1.88,6.33 -1.71,0.76 -1.51,-4.38 -2.09,8.3 -2.18,10.62 0.1,6.93 2.35,2.39 1.54,-2.68 -0.28,-6.2 1.78,-1.44 1.3,2.06 -0.31,2.19 -0.7,5.79 0.33,6.89 z m 1.33,-0.75 c 3.04,-2.89 -0.46,-11.47 2.46,-12.79 4.64,-0.52 -1.89,-0.65 -1.03,-3.43 -2.37,2.56 -1.75,12.06 -1.45,16.18 l 0,0 z m 58.07,-0.7 c -0.36,-1.71 -3.81,-4.37 -2.63,-6.94 -1.62,-1.7 1.35,-4.97 3.34,-4.94 2.62,1.18 6.4,4.69 2.77,-0.34 -2.55,-2.23 -7.04,-1.49 -7.68,2.14 -0.89,2.66 0.69,5.42 0.92,7.55 0.91,1.17 1.71,2.81 3.28,2.53 z m 1.67,-2.53 c 1.02,-1.64 3.74,-4.86 1.49,-4.59 -1.59,-4.66 -5.58,-2.59 -3.79,1.35 0.22,1.05 0.98,3.57 2.3,3.24 z m -83.27,-2.91 c 1.31,-1.99 -0.73,-2.09 0,0 z m 0.61,-1.93 c 2.75,-4.13 -1.58,-4.77 -0.25,0 z M 166,181.67 c 2.37,-2.78 -2.76,0.41 0,0 z m 29.81,-1.39 c 1.83,-3.02 -2.71,-7.94 -0.45,-0.89 0,0.26 0.23,1.15 0.45,0.89 z M 113,179.12 c 1.25,-2.68 -2.56,-0.13 0,0 z m 52.62,-1.56 c 2.13,0.61 -1.29,-3.9 -1.31,-1.74 -1.09,1.34 -1.88,1.55 1.42,1.86 z m -4.81,-1.47 c 4.49,0.5 0.33,-6.85 -2.11,-6.77 -1.7,1.06 4.63,5.02 0.18,5.14 -1.36,2.16 1.44,0.52 1.93,1.63 z m 4.92,-3.34 c 0.81,-0.81 -0.26,-4.01 -3.03,-3.23 -0.23,1.13 0.3,4.62 3.03,3.23 z m -55.05,-0.55 c 3.76,-1.47 0.22,-4.41 -1.9,-2.35 -0.75,1.14 1,2.21 1.9,2.35 z m 57.88,-0.79 c 1.63,-4.28 -1,-3.82 -0.46,0.36 -0.14,1.32 0.23,-0.1 0.46,-0.36 z m -58.99,-3.09 c 5.16,-1.47 -5.04,-1.34 0,0 z m 55.28,0 c 5.39,0.26 -1.68,-2.18 -2.26,-1.02 -0.63,1.73 1.47,1.03 2.26,1.02 z m 1.24,-1.29 c 3.83,-3.94 -1.4,-6.53 0,0 z m -55.01,-0.32 c 1,-2.21 -2.67,-2.62 0,0 z m 43.83,-0.92 c 1.28,-3.01 -4.92,-1.54 0,0 z m 2.12,-1.34 c 1.59,-1.54 -3.27,-0.7 0,0 z m -3.3,-2.12 c 4.92,-1.31 -4.31,-3.62 -0.58,0.1 l 0.58,-0.13 0,0.1 z m 14.01,-1.11 c 2.34,-3.99 -0.44,-1.68 -1.89,-4.16 -1.26,2.98 1.59,2.21 1.89,4.16 z m -82.31,-5.17 c 3.869,0.75 1.477,-5.6 -0.763,-2.42 -1.041,0.62 -1.113,3 0.763,2.42 z m -5.9,-0.97 c 1.971,-0.33 -3.1,-1.97 -0.65,0 l 0.503,0 z m 10.87,-1.27 c 1.14,-3 3.722,-5.01 7.678,-4.92 -2.681,3.65 4.682,4.83 4.062,0.1 1.68,-3.25 5.61,-2.09 7.35,-5.37 1.85,-1.28 4.27,1.85 5.77,-1.48 1.78,-0.1 2.49,0.1 4.26,-3.51 2.61,-0.32 4.48,-8.71 4.67,-4.71 -3.2,4.62 6.19,-0.9 1.91,-0.97 -4.36,-0.42 1.95,-1.82 1.64,-3.63 -0.88,-1.5 -6.22,-0.71 -1.85,-2.7 -2.79,-3.4 -7.32,0 -10.54,1.43 -4.9,2.91 -9.23,6.48 -14.48,8.61 -4.897,2.15 -7.378,7.54 -12.09,10.01 -0.911,2.4 -2.046,5.4 0.67,7.5 -0.282,0.88 1.005,-0.7 0.95,-0.36 z m 11.8,-8.39 c -2.786,-1.55 5.58,-5.22 1.64,-1.17 -0.57,0.32 -0.85,1.4 -1.64,1.17 z m 5.81,-1.62 c -1.83,-3.14 7.11,-4.05 0,0 z m 3.73,-1.61 c -1.78,-1.46 3.83,-4.85 5,-3.96 2.5,-5.15 3.52,-1.22 0.72,1.41 -2.84,-0.31 -3.61,1.81 -5.72,2.55 z m -31.03,11.35 c 6.705,-0.84 -4.562,-3.51 -0.918,0 0.08,0.27 1.053,-0.45 0.918,0 z m 16.52,0 c 2.007,-1.81 -2.824,-0.27 0,0 z m -12.05,-2.26 c 3.612,-2.9 -1.91,-4.89 -1.707,-1.16 1.154,-0.83 0.864,0.84 1.707,1.16 z m 51.64,-3.69 c 2.24,-2.62 1.61,-3.63 -1.62,-3.34 0.27,0.82 1.06,3.31 1.62,3.34 z m -17.01,-4.36 c 2.95,-0.68 2.9,-8.15 -0.23,-1.81 0.15,0.63 -1.51,2.29 0.23,1.81 z m 4.56,-0.65 c 1.71,-1.83 4.09,-4.02 5.47,-6.6 -0.69,-1.08 -8.27,4.45 -5.49,6.6 l 0,0 z m 13.79,-1.29 c 4.41,-2.21 -1.6,-2.48 -0.65,-0.41 l 0.65,0.39 0,0 z m -8.14,-1.5 c 2.46,-0.29 4.26,-7.37 5.06,-4.86 -4.75,5.18 2.28,4.35 2.24,-0.15 -3.2,-1.66 -1.46,-5.44 -5.64,-1.43 -1.55,1.93 -2.55,5.11 -2.83,6.97 0.4,-0.11 0.7,-0.73 1.17,-0.53 z m 11.53,0 c 2.49,-3.29 -4.51,-0.91 0,0 z m -16.61,-2.01 c 3.16,-1.63 2.34,-3.94 -0.28,-0.33 -0.79,0.56 0.1,0.1 0.28,0.33 z m 13.02,-0.18 c 5.36,-0.69 -2.47,-2.77 0,0 z m 56.77,-1.31 c -0.42,-3.6 -2.88,-3.26 -0.27,0.14 l 0.18,-0.18 0.1,0 z m -1.96,-3.41 c 0.95,-2.59 -2.79,-1.37 0,0 z m -63.34,-0.32 c 4.03,-2.58 -1.57,-2.03 0,0 z m 65.71,0 c 3.3,0.26 -8.47,-11.57 -2.87,-4.02 0.81,1.18 1.02,4.52 2.87,4.02 z m -65.62,-5.17 c 2.96,-1.16 -2.02,-0.69 0,0 z m -8.06,-3.67 c 4.78,-2.31 -4.94,-1.82 -0.48,0.11 l 0.48,-0.1 0,0 z m -3.8,-0.18 c 4.54,-2.55 -3.16,-2.1 0,0 z m 0.61,-2.35 c 3.94,-2.6 -4.57,0.26 -1.34,-3.17 -1.39,-2.39 -5.74,-0.43 -1.87,1.27 0.35,1.2 2.01,2.29 3.21,1.9 z m 3.23,-0.88 c 5.43,-1.7 -3.75,-2.82 -0.31,-1.6 0.48,0.25 -1.89,1.97 0.31,1.6 z m -3.23,-3.25 c 5.03,-2 -5.56,-1.69 0,0 z m -2.01,-1.16 c 3.81,-2.2 -1.18,-4.08 -2.6,-1.33 -0.56,1.38 2.06,1.42 2.6,1.33 z m 3.89,-0.44 c 7.6,-1.59 -2.59,-5.64 -6.35,-5.14 1.08,3.03 8.25,2.61 7.38,4.19 -3.47,-2.53 -4.19,1.51 -1.03,0.95 z m 2.39,-4.1 c 0.35,-2.6 -6.67,-1.27 -8.32,-4.06 -1.93,-2.45 6.06,1.8 8.06,2.06 4.96,0.46 -8.43,-4.08 -10.48,-4.96 -2.25,-1.22 1.46,1.53 -1.4,2.17 0.13,3.27 3.57,-0.16 2.18,2.96 1.57,-0.71 5.13,0.42 7.85,1.32 0.64,0.29 1.77,0.43 2.11,0.51 z m 3.82,-3.02 c 4.74,-3.22 -7.99,-0.86 -1.46,-3.16 -2.36,-2.48 -5.98,-4.85 -6.25,-7.41 -4.46,-6.49 -9.56,-12.6 -15.97,-17.31 -2.762,-1.93 -3.548,-5.31 -3.92,-7.88 -2.353,-1.99 -1.262,3.23 -3.21,2.83 -2.894,2.98 2.737,4 2.201,7.18 1.425,1.56 7.249,2.82 2.299,4.32 -2.517,-2.07 -3.267,3.36 -2.467,4.48 5.387,0.44 8.717,1.95 13.027,5.74 -4.56,1.12 3.11,2.26 3.89,3.84 -5,1.99 4.85,1.97 5.51,4.17 5.29,2.2 -6.46,-0.89 1.51,2.16 1.48,0.47 3.65,0.92 4.84,1.04 z m -17.92,-5.45 c 3.25,-0.1 2.47,-1.96 -0.36,-4.3 0.31,-1.77 -5.72,-6.59 -4.48,-4 3.79,2.6 -0.81,2.37 1.69,4.43 1.9,0.94 2.16,3.22 3.15,3.87 z m 62.85,-5.76 c 2.62,-4.57 1.94,4.26 3.17,-0.14 1,-6.39 2.71,3.28 4.4,-1.27 1.03,2.63 3.91,-2.07 4.18,-2.89 -1.89,-3.82 2.47,-2.64 0.1,-6.13 2.75,-0.13 5.44,-0.96 0.33,-2.4 -2.95,-3.68 3.9,-0.17 -1.26,-3.96 -5.18,-6.05 4.86,-1.73 6.67,0.7 1.41,-0.95 3.87,-1.11 5.86,-1.23 2.35,-0.48 5.82,-1.54 7.25,-3.75 4.46,-2.25 3.33,-5.45 0.52,-2.26 -1.59,-1.3 -9.67,-0.16 -5.2,1.08 0.85,1.44 -4.59,0 -5.72,1.7 -2.51,1.38 -6.98,-0.97 -7.21,-2.17 3.34,-0.94 4.06,-4.27 6.45,-5.7 3.07,-0.2 5.4,1.81 8.47,1.25 -3.41,-2.08 -7.37,-3.44 -11.28,-2.04 -0.15,3.83 -3.31,-2.26 -2.94,0.48 0.56,2.36 -6.07,2.53 -8.26,0.74 1.03,-2.49 5.61,0.33 7.22,-2.73 0.18,-4.07 -6.65,3.2 -8.56,-0.21 1.16,-2.28 5.26,-1.47 7.7,-1.74 2.39,-0.12 3.87,-1.34 5.84,-1.42 1.15,-3.6 -6.35,-2.04 -7.19,0.48 -0.94,-0.17 -4.19,-1.37 -6.7,-0.4 -4.68,0.59 -7.25,1.12 -11.79,2.6 -3.87,0.95 -7.28,2.41 -11.14,2.29 -3.46,0.94 -7.43,-1.09 -9.99,-1.17 -3.13,-1.17 -3.26,1.11 -6.28,0.27 -3.39,-0.74 -3.97,2.53 -6.53,3.73 -3.51,4.35 2.61,6.34 6.08,6.17 2.2,-0.25 6.94,-6.12 6.68,-0.79 -2.88,0.77 -2.94,0.71 -2.13,2.08 -2.99,-0.6 -2.96,3.98 -2.75,6.06 2.75,4.1 -4.54,1.77 -0.56,3.38 3.82,1.88 3.43,-0.39 1.8,-2.73 3.62,-0.15 -2.48,-5.94 2.76,-5.74 -0.53,-0.4 2.81,-3.01 2.53,-0.3 3.04,1.32 6.56,-0.4 8.7,3.01 2.26,2.61 4.48,5.25 7.58,6.89 1.46,1.8 2.19,5.71 -0.61,6.74 -1.05,-2.71 -1.45,-4.65 -4.57,-3.81 -3.82,1.05 1.08,1.9 0.46,3 -3.39,0.66 -4.4,-3.41 -7.78,-3.51 -5.33,0.22 -10.08,-2.55 -14.56,-4.37 -7.8,-0.65 3.16,3.45 5.42,4.84 4.15,0.34 4.35,3.95 9.09,3.22 1.42,2.66 4.81,0.83 6.76,2.56 3.83,-0.51 7.96,-1.43 11.59,0.35 3.05,-2.39 4.88,-0.26 4.94,0 -0.16,-0.23 0.98,-0.56 0.51,-0.77 z m -8.88,-1 c -2.21,-4.57 5.29,-4.49 0,0 z m 3.07,0 c -1.55,-3.18 4.61,-2.96 0,0 z m 7.71,-2.26 c -2.82,-2.44 3.5,-1.08 0,0 z m 2.44,-1.7 c -5.34,-0.92 1.25,-4.62 0.85,-0.24 0.1,0.36 -1.47,-0.26 -0.85,0.24 z m 2.67,-2.51 c -10.03,-1.45 2.86,-2.58 0,0 z m 0.34,-2.89 c -2.88,-0.1 -1.24,-6.84 0.95,-3.54 2.72,1.86 -0.64,2.34 -0.95,3.54 z M 161.1,82.82 c -1.67,-0.52 -2.75,-4.97 -1.29,-6.38 1.72,2.99 1.84,3.74 5.06,3.92 -1.02,1.63 -3.97,0.67 -3.77,2.46 z m -14.71,-4.21 c -1.48,-0.63 1.47,-4.01 0.2,-5.94 -1.77,-3.28 -0.46,5.24 -2.68,2.9 2.25,-3.73 -2.42,-5.75 -4.4,-6.47 -1.81,-1.13 4.53,-1.53 5.65,-0.17 3.38,1.75 5.01,6.33 2.13,9.41 0,0.44 -1.12,-0.29 -0.9,0.27 z m 18.67,-0.54 c -2.8,-0.61 -5,-2.96 -7.87,-3.62 -0.71,-1.9 6.15,-0.7 1.73,-2.16 -4.13,-1.04 -0.97,-3.87 1.46,-0.93 4.28,-0.62 8.82,0.55 13.19,0.27 1.18,2.85 -3.52,2.12 -4.93,1.08 -2.57,0.1 1.23,5.99 -3.51,5.38 l 0,0 -0.1,0 z m -2.15,-2.91 c 4.62,-2.62 -3.23,-2.52 0,0 z m -26.96,-5.14 c -3.28,-2.05 4.24,-1.11 0,0 z m 23.39,0 c -2.88,-2.4 3.52,-1.08 0,0 z m -5.22,20.94 c 4.12,-0.87 -3.44,-5.13 -5.7,-5.12 -2.62,0.7 -5.66,-1.25 -7.82,-0.29 1.61,4.53 7.86,3.3 11.42,5.23 0.61,0.32 1.57,0.35 2.1,0.18 z m 36.86,-0.62 c 2.45,-2.24 -2.55,-1.5 0,0 z M 142.3,89.6 c 2.06,-1.9 -3.37,0.6 0,0 z M 95.4,89.26 c 1.963,-4.22 -5.727,-3.11 0,0 z m 95.15,-2.8 c 1.27,-3.99 -7.44,-5.45 -1.87,-1.41 l 0.81,0.79 z m -55.49,-0.34 c 1.72,-3.44 -5.28,-3.99 -8.03,-4.76 -4.4,0.42 -1.34,3.6 1.79,2.69 2.09,0.64 4.13,1.46 6.24,2.07 z m 16.77,-0.34 c 1.55,-2.15 -2.82,0.65 0,0 z M 95.89,85.49 c 2.982,-0.78 -2.984,-0.49 0,0 z m 53.16,-1.2 c 1.2,-2.04 -5.67,-4.15 -8.54,-3.94 -1.32,3.61 3.63,3.34 5.92,3.48 0.92,0 1.79,0.9 2.62,0.46 z M 92.8,76.15 c 3.196,-1.92 1.63,-4.08 2.257,-4.79 -2.474,0.59 -3.979,0.14 -4.367,2.82 0.508,0.76 1.678,1.36 2.11,1.97 z m 95.72,-1.29 c 3.8,-0.69 -3.74,-1.1 0,0 z m 0,-1.29 c 2.03,-0.76 -1.92,-0.74 0,0 z m 4.92,0 c -2.97,-4.57 -4.2,-0.62 0,0 z m -66.29,-0.61 c 1.04,-1.43 0.83,-3.2 3.35,-5.54 1.4,-3.81 -3.19,-6.27 -4.82,-2.03 -0.21,4.01 4.95,-0.76 0.43,4.07 -0.39,0.78 0.21,3.04 1.04,3.5 z m 70.2,-1.83 c -1.08,-2.93 -4.43,0.74 0,0 z M 96.28,70.59 c 5.91,1.05 -4.277,-5.64 -0.91,-0.41 -0.02,0.82 0.407,0.57 0.91,0.41 z m 35.94,-3.82 c 3.71,-1.07 -3.06,-0.82 0,0 z m 55.53,0 c 3.86,-0.97 -1.83,-1.76 0,0 z m -8.41,-4.84 c 6.14,-1.04 -3.72,-1.03 0,0 z m -3.41,-1.06 c 4.82,-1.26 9.74,-2.7 10.96,-7.63 -0.54,-3.17 -7.24,-1.51 -8.14,1.75 0,1.79 -6.95,5.57 -2.82,5.88 z m 6.28,-4.41 c -1.35,-1.83 6.99,-2.25 0,0 z m 2.57,3.53 c 5.5,-2.61 -3.64,-1.35 0,0 z m 3.64,-1.52 c -1.37,-3.16 0,-0.48 0,0 z m 2.72,150.49 c -4.96,-0.71 4.81,-3.29 1.9,-0.53 -0.57,0.56 -1.14,0.6 -1.9,0.53 z m -24.37,-1.61 c -3.14,-2.18 2.74,-2.54 -0.1,0 z m 23.21,-10.49 c -1.59,-0.34 1.43,-3.07 0,0 z m -2.91,-4.34 c -3.25,-0.74 3.69,-3.42 0,0 z m 2.21,-2.91 c -0.9,-2.15 -0.52,-3.78 0.28,-6.67 -0.61,-4.08 2.32,-8.91 1.52,-2.57 -0.1,3.31 0.93,6.52 -1.8,9.24 z M 170.39,188 c -2.44,-4.55 5.42,-5.33 1.09,-0.4 -0.28,0.1 -1.11,0.83 -1.09,0.4 z m 2.26,-4.59 c -2.33,-1.74 1.84,-1.82 0,0 z m -0.18,-4.11 c -1.98,-3.32 4.77,-14.53 1.81,-4.52 -0.77,1.34 -0.22,3.81 -1.81,4.52 z m 5.99,-0.97 c -3.03,-2.33 5.26,-6.41 0.72,-0.35 l -0.23,0.35 z m 3.32,-7.8 c -2.48,0.6 -0.55,-4.64 0.74,-5.62 2,-1.96 0.29,2.44 0.16,4.02 -0.26,0.48 -0.13,1.58 -0.9,1.6 z m -9.34,-0.33 c -2.88,0.47 1.6,-4.85 0.94,-6.52 1.96,-1.09 -0.51,5.83 -0.94,6.52 z m 4.19,0 c -1.42,0.29 -2.19,-9.35 0.48,-6.12 2.5,0 -0.59,4.88 -0.62,6.25 l -0.1,0 0.21,-0.15 z m 12.81,-2.83 c -3.61,-1.43 1.94,-4.75 1.13,-0.79 -0.35,0.3 -0.6,0.74 -1.13,0.79 z m 4.46,-1.7 c -3.54,-2.42 1.7,-4.55 0.38,-0.1 l -0.38,0.17 0,-0.1 z m -22.88,-1.94 c -0.65,-0.54 -0.22,-6.44 1.34,-6.8 -0.24,2.29 0.79,5.29 -1.34,6.8 z m -10.21,-0.23 c -0.98,-3.12 -2.58,-8.08 -2.23,-11.88 2.36,0 1.2,-7.66 2.76,-4.38 0.2,2.52 -0.94,5.33 -0.78,6.94 -1.77,2.84 1.47,6.37 0.56,9.32 l -0.45,0 z m 1.76,-2.59 c -2.66,-2.64 -0.48,-6.35 -0.2,-9.3 -0.83,-2.08 1.24,-13.55 2.21,-7.48 -0.78,3.15 -1.57,6.86 -0.8,9.8 -3.08,1.08 0.42,5.74 -1.21,6.98 z m 24.36,-0.64 c -3.3,-0.86 0.87,-7.13 1.34,-2.08 0.21,0.62 -0.71,2.09 -1.34,2.08 z m -28.99,-0.32 c -2.04,-1.33 -1.7,-11.99 0.1,-6.06 -0.2,1.8 0.79,4.93 -0.1,6.06 z m 19.02,-0.38 c -3.27,-0.13 0.22,-8.02 0.61,-2.89 -0.14,0.62 0.44,4.05 -0.61,2.89 z m -1.22,-6.23 c -2.48,-1.67 1.73,-3.9 0,0 z m -1.37,-2.49 c -3.25,-0.16 0.23,-7.99 0.63,-2.86 -0.14,0.62 0.45,4.07 -0.63,2.86 z m -16.01,-1.22 c -2.08,-0.34 -0.78,-8.67 1.03,-6.28 -0.56,1.77 0.56,5.96 -1.03,6.28 z m 27.96,-0.18 c -6.04,-1.84 5.06,-4.47 0,0 z m -29.92,-3.28 c -0.36,-2.61 -3.27,-0.84 -2.89,-4.27 -3.9,0.15 -1.56,-7.22 -0.12,-9.37 2.67,0.5 -1.87,9.19 0.77,6.84 2.51,-6.17 0.45,6.1 1.58,2.96 1.01,-5.86 2.74,3.14 0.66,3.84 z m 13.02,-5.58 c -2.14,-0.4 -2.73,-5.14 0.24,-4.5 0.53,1.43 2.03,3.99 -0.24,4.5 z M 149.6,139 c -2.14,-2.3 -2,-6.55 -1.64,-9.64 1.36,-3.54 2.41,-7.04 5.06,-9.86 2.72,-3.39 4,-1.14 1.48,2.55 -1.08,3.7 -2.55,-2.48 -3.75,3.41 -3.74,6.17 0,4.73 1.26,0.78 0.39,2.88 -2.37,6.61 -1.75,10.1 0,1.05 0,2.61 -0.66,2.66 z m 35.09,-2.59 c -4.56,-1.4 0.77,-4.42 1.36,-1.31 0.42,1 -0.92,0.86 -1.36,1.31 z m -19.32,-2.42 c -4.29,-0.1 1.82,-5.92 1.02,-0.97 0.21,1 -0.22,0.8 -1.02,0.97 z m -7.71,-2.47 c -3.95,0.1 1.73,-6.35 0.86,-1.55 0,0.83 -0.23,2.23 -0.86,1.55 z m 26.97,-1.89 c -4.2,-2.32 4.5,-7.59 0.88,-0.7 0.1,0.77 -0.24,0.77 -0.88,0.7 z m -29.52,-0.39 c -2.04,-1.02 -0.8,-5.85 0.7,-6.91 1.72,-0.62 0.1,6.74 -0.7,6.91 z m 7.78,0 c -4.3,-2.1 3.66,-4.54 0,0 z m -30.36,-3.86 c -1.83,-4.12 8.75,-8.23 2.62,-2.38 l -1.17,1.34 z m 9.94,-0.71 c -2.69,0 2.05,-6 2.67,-3.43 -0.23,1.03 -1.86,3.41 -2.67,3.43 z m 49.21,-2.95 c -4.13,-1.83 2.12,-2 0,0 z m -49.7,-1.82 c -3.81,4.1 -1.1,-3.13 1.54,-3.61 1.58,0.62 -0.93,2.99 -1.54,3.61 z m 48.86,-2.59 c -3.21,-4.41 3.63,-2.13 0,0 z m -39.93,-1.29 c -2.62,-2.52 4.25,-4.47 1.74,-1.07 -0.49,0.37 -1.29,1.88 -1.74,1.07 z m 11.45,-0.64 c -3.7,-1.51 1.86,-6.17 1.79,-1.46 -0.31,0.67 -1.71,0.86 -1.79,1.46 z m 4.39,-0.24 c -4.81,-0.26 3.51,-3.18 0,0 z m 23.98,-2.02 c -4.12,-2.51 1.46,-4.36 0.5,0 l 0,0 z m -30.65,-1.28 c -5.31,-1.79 2.64,-6.56 1.15,-0.52 -0.14,0.67 -0.76,0.43 -1.15,0.52 z m -27.44,-2.53 c -4.55,2.22 3.12,-4.76 5.36,-2.9 -0.69,1.96 -4.09,1.4 -5.36,2.9 z m 46.41,0.22 c -3.89,1.03 -1.36,-4.37 0.58,-0.84 0.57,0.53 -0.18,0.82 -0.58,0.84 z m 10.53,-2.21 c -5.14,-4.3 1.6,-4.85 0.68,-0.51 l 0,0.1 -0.63,0.45 z m -11.42,-1 c -5,-1.08 -2.43,-5.92 0.64,-2.01 0.68,1.26 0.2,1.67 -0.64,2.01 z"/></g>
</svg>
