<?xml version="1.0" encoding="UTF-8" standalone="no"?>
<!DOCTYPE svg PUBLIC "-//W3C//DTD SVG 1.1//EN" "http://www.w3.org/Graphics/SVG/1.1/DTD/svg11.dtd">
<svg xmlns="http://www.w3.org/2000/svg" width="300px" height="350px">
<g>
<path id="fill" d="m 113.25,50.83 c -4.18,1.46 -6.05,6.52 -9.41,8.62 -3.1,-0.56 -5.88,-2.6 -7.871,-4.59 -0.949,1.24 -2.198,4.83 -4.188,2.97 -1.549,-2 -3.749,-5.08 -6.562,-4.63 -0.593,2.22 2.236,3.64 2.406,5.85 1.668,5.09 -0.903,10.79 2,15.53 1.119,1.63 -0.72,3.08 -2.25,2.06 -2.071,-1.46 -1.275,2.37 -0.844,3.34 2.066,4.54 5.775,8.45 6.541,13.41 2.754,4.09 4.977,8.8 9.428,11.44 -3.712,3.25 -8.534,-0.73 -10.625,-3.94 -2.8,-5.12 -9.246,-7.36 -11.031,-13.22 -2.089,-3.04 -5.197,-6.15 -8.906,-6.81 -2.834,-0.17 -1.079,3.19 0.124,4.09 4.096,2.87 4.763,8.53 6.341,13.02 1.549,5.68 3.79,11.94 8.816,15.39 1.906,0.9 4.702,0.42 5.437,2.9 1.259,3.19 1.327,7.43 4.969,8.94 3.365,2.83 7.705,4.24 12.035,3.63 3.03,1.48 0.44,6.69 3.96,7.9 2.15,1.24 6.55,2.32 5.6,5.63 -7.13,3.88 -12.65,10.43 -20.457,13.11 -5.089,2.74 -10.834,4.45 -15.857,7.17 -4.556,3.56 -3.879,12.76 2.344,14.09 0.394,4.34 5.48,4.82 8.969,4.44 4.361,-0.5 8.421,-4.12 13.121,-2.84 3.06,1.19 6.68,0.4 9.78,1.99 1.65,1.08 4.51,0 5.26,2.38 1.12,3.37 -3.16,5.09 -5.76,5.72 -2.17,0.53 0.59,1.73 0.63,2.81 -0.21,4.02 -7.1,3.65 -6.94,8.07 -1.06,4.19 -6.58,5.88 -6.4,10.59 -1.18,3.91 -4.313,7.8 -2.35,11.97 0.57,3.88 -3.512,7.92 -7.279,5.94 -1.72,1.77 1.575,3.25 2.969,3.78 2.712,-0.1 1.56,1.98 0.844,3.65 -1.554,2.97 -2.966,6.56 -0.875,9.53 0.251,1.03 0.476,3.86 1.437,3.82 5.364,-2.51 11.904,-2.45 17.814,-1.41 6.79,0.72 13.44,-0.83 20.15,-1.37 3.94,-0.3 7.96,0.37 11.82,-0.13 1.97,-0.98 4.2,-1.28 6.22,-0.53 2.82,-0.1 7.91,1.01 8.53,-2.91 -0.54,-2.43 -5.74,-2.13 -4.47,-5.18 0.21,-1.6 2.72,0.22 1.66,-1.6 -0.54,-2.1 -3.56,-4.23 -2.47,-6.47 1.32,-1.07 4.04,1.91 4.5,-0.28 0.2,-1.75 -1.34,-3 -2.5,-3.72 -1.03,-2.42 0.7,-5.73 3.56,-4.68 1.12,0.99 3.62,0.1 2.31,-1.41 -1.75,-1.76 -3.67,-3.8 -3.06,-6.63 0,-5.23 1.39,-10.44 0.84,-15.65 0.7,-3.13 5.77,-1.18 6.32,-4.59 1.09,-2.51 -2.65,-0.96 -3.79,-2.04 -1.71,-1.75 -0.13,-4.9 -0.5,-7.18 0.37,-8.05 1.19,-16.69 -1.86,-24.21 -1.06,-2.45 -2.67,-4.63 -3.67,-7.11 4.65,-1.57 9.77,-0.17 14.38,-1.43 2.72,-2.08 4.57,-5.22 7.65,-6.75 3.36,-3.48 9.33,-5 10.57,-10.1 0.18,-2.62 -3.36,-0.86 -5,-1.4 -7.07,-0.17 -14.48,-3 -21.22,0.22 -4.29,1.18 -6.76,5.7 -10.94,7.06 -1.7,0.68 -1.88,-3.25 -2.16,-1.13 -0.13,1.68 -2.16,1.43 -2.15,-0.15 -1.22,-5.48 4.94,-8.41 8.75,-10.85 4.39,-0.91 8.36,-3.42 12.99,-3.24 10.92,-1.32 22.28,-2.88 31.69,-8.91 5.88,-5.21 10.85,-11.71 12.84,-19.44 1.26,-2.48 1.93,-5.82 4.2,-7.47 2.17,-0.78 5.59,-0.77 5.68,-3.84 0,-2.89 2.6,-5.35 2.63,-7.97 -2.75,-2.07 -6.67,2.5 -9.35,-0.38 1.85,-5.36 7.01,-9.07 9.07,-14.18 -1.79,-2.02 -5,-0.64 -7.1,0.21 -2.12,1.25 -3.86,3.5 -6.53,3.41 0.15,-3.33 1.4,-6.61 3.1,-9.34 1.66,-0.29 3.04,-2.86 0.56,-3 -2.59,-0.45 -3.57,2.46 -5.72,3.06 -1.98,1.36 -3.19,5.61 -6.19,4.34 -1.94,-1.25 -2.19,2.3 -2.51,3.46 -0.1,1.84 -1.14,3.14 -2.42,4.29 -1.37,1.74 -1.19,5.95 -4.04,5.85 -2.83,-1.34 -3.35,-4.79 -3.06,-7.69 0.16,-2.82 -2.93,-0.27 -2.62,1.31 -0.36,2.38 -0.45,4.79 -0.78,7.06 0.55,1.8 1.33,5.52 -1.57,5.44 -2.92,-1.22 -5.17,2.71 -3.5,5.1 -0.32,2.01 -5.58,1.68 -4.06,4.71 3.48,5 7.48,10.71 5.97,17.13 -0.5,4.99 -6.34,6.1 -10.5,6.31 -4.91,1.09 -11.79,0.59 -13.52,-4.97 -1.96,-5.91 -2.11,-12.41 -1.76,-18.59 1.61,-6.17 4.68,-12.06 4.62,-18.56 0.43,-1.77 -1.47,-5.19 -3.44,-4.03 -1.1,2.22 -0.74,5.38 -2.31,7.66 -2.12,4.11 -4.98,8 -6.03,12.49 -2.68,6.43 -2.01,13.76 -1.66,20.59 0.61,3.02 4.2,6.9 1.41,9.66 -1.75,1.09 -3.77,1.15 -5.56,2.22 -5.59,1.35 -10.54,-3.31 -13.41,-7.56 -2.32,-3.8 -4.49,-8.02 -5.57,-12.31 0.56,-6.26 0.1,-13.02 -3.08,-18.44 -0.65,-1.46 -4.29,-2.78 -3.5,0 0.37,5.68 0.38,11.51 -0.85,17.03 -0.2,3.21 2.34,7.02 0.35,9.9 -1.7,0.91 -2.96,-3.2 -4.31,-4.38 -2.25,-3.12 -3.11,-6.89 -4.51,-10.27 -0.47,-3.1 0,-6.48 0.25,-9.44 2.67,-2.38 3.36,-6.89 7.04,-8.09 4.44,-1.51 10.07,2.9 13.53,-1.44 2.12,-1.93 -0.23,-4.57 -2.63,-4.38 -2.43,-0.48 -0.99,-3.25 -1.37,-4.84 -2.73,-1.84 0.5,-5.05 1.87,-6.7 1.08,-1.2 3.56,-4.08 0.81,-4.71 -1.85,-0.9 -2.66,1.73 -4.59,1.75 -3.04,0.86 -6.55,1.24 -8.53,3.94 -2.06,0.81 -1.53,-3.8 -3.53,-2.25 -1.14,1.36 -4.29,2.67 -4.56,-0.1 -0.52,-2.02 0.54,-5.22 -0.63,-6.53 z m -9.66,62.31 c 3.68,-0.26 7.3,2.18 9,5.22 0,2.63 -3.91,1.92 -5.56,1.44 -2.57,-0.84 -5.5,-2.61 -6.15,-5.35 0.26,-1.17 1.73,-1.26 2.71,-1.31 z m 15.16,12.97 c 2.69,0.18 4.32,2.92 5.34,5.19 -1.32,1.28 1.95,2.79 0.38,4.25 -1.16,1.58 -2.61,1.32 -3.5,-0.48 -1.64,-2.26 -5.11,-4.8 -3.81,-7.9 0.4,-0.52 0.89,-0.97 1.59,-1.06 z"/><path id="outline" d="m 99.42,250 c -3.361,-1.71 -1.61,-4.48 -3.73,-7.16 -0.656,-3.79 1.911,-6.9 2.86,-10.4 -2.153,-0.26 -7.638,-3.03 -4.256,-5.26 3.623,2.13 7.306,-1.56 6.716,-5.71 -2.296,-4.97 2.75,-9.08 2.73,-13.95 1.29,-3.41 6.01,-5.52 6.15,-8.93 0.22,-4.02 8.23,-4.72 6.68,-7.84 -4.24,-3.23 2.57,-2.65 4.05,-4.7 2.87,-1.54 1.16,-5.53 -1.89,-4.51 -2.99,-1.33 -6.05,-2.35 -9.37,-1.92 -4.53,-2.46 -9.34,0.1 -13.54,2.01 -4.103,0 -9.909,1.02 -10.978,-4.49 -3.15,-0.65 -4.709,-3.42 -5.336,-6.32 -0.498,-4.27 1.443,-8.83 5.989,-10.02 5.713,-2.31 10.896,-4.75 15.345,-6.85 6.81,-2.68 11.68,-8.74 17.93,-11.94 0.84,-2.64 -3.78,-3.78 -5.82,-5.08 -3.61,-1.64 -0.49,-8.66 -4.77,-7.56 -4.14,0.57 -8.317,-1.66 -11.471,-4.24 -4.33,-1.87 -2.828,-8.59 -6.08,-10.46 -5.802,-0.15 -7.514,-4.87 -10.083,-8.84 -2.748,-6.06 -3.406,-13.3 -7.066,-19.15 -3.341,-1.93 -6.059,-7.22 -0.09,-6.21 3.853,2.24 7.43,4.85 8.965,9.26 2.238,4.17 7.164,6.16 9.59,10.3 1.806,3.05 6.36,7.27 9.685,4.8 -4.527,-2.91 -6.398,-7.59 -9.34,-11.69 -0.107,-6.08 -8.923,-12.42 -6.254,-17.63 4.82,2.26 3.599,0.17 1.676,-4.12 -0.326,-5.54 1.31,-11.97 -2.981,-16.33 -1.325,-5.52 5.723,-0.72 6.81,1.73 2.233,3.21 2.685,-1.59 4.591,-2.68 2.815,3.22 4.678,3.96 7.858,4.86 2.98,-2.81 5.85,-8.08 9.84,-8.81 1.5,2.94 -1.73,11.9 4.33,6.85 3.22,-2.23 1.92,5.14 4.77,0.92 3.01,-2.5 9.33,-1.93 10.36,-4.72 10.36,0.78 -5.29,9.22 -0.55,11.77 1.32,1.65 -1.95,4.56 2.22,4.95 6.35,1.79 0.38,8.4 -3.76,7.05 -3.65,-0.18 -8.22,-2.33 -10.68,1.55 -2.19,1.79 -2.11,4.46 -4.37,6.02 0.24,4.01 -1.37,8.17 1.16,11.7 0.89,4.61 3.7,8.26 6.58,11.8 2.4,-1.72 -1.8,-8.9 0.28,-12.54 0.62,-5.5 0.54,-11.37 0.1,-15.96 3.24,-1.62 5.75,2.56 6.3,5.4 1.62,4.88 2,10.27 1.37,15.38 2.71,6.4 5.32,13.8 11.61,17.47 2.72,1.86 6.22,2.41 8.95,0.24 8.37,-0.87 1.29,-7.2 1.38,-12.08 0.12,-6.62 -0.81,-13.43 2.25,-19.6 1.15,-6.22 6.47,-10.47 7.28,-16.69 0.11,-7 6.49,-1.94 4.96,2.25 0.34,6.66 -3.64,12.66 -4.67,18.99 0.21,5.9 0,12.04 2.14,17.61 2.33,5.49 8.88,4.89 13.69,3.99 4.27,-0.16 9.35,-1.53 9.22,-6.62 1.28,-5.91 -2.67,-11.01 -5.78,-15.61 -2,-3.52 2.72,-3.94 3.88,-5.07 -1.61,-3.05 0.41,-6.92 4.09,-5.76 3.28,-0.38 -0.1,-4.64 1.25,-6.91 0.29,-2.91 -0.25,-8.28 3.51,-8.33 1.46,2.12 -0.5,5.93 2.02,8.03 3.31,4.22 3.16,-4.75 6.16,-5.93 1.34,-1.7 0.88,-8.21 4,-6.69 2.64,2.04 4.31,-4.64 7.44,-4.89 3,-4.95 9.94,-1.34 4.07,1.51 -1.35,2.6 -2.63,5.34 -2.75,8.34 2.73,-0.17 4.4,-3.31 7.22,-3.79 1.78,-1.41 8.31,-1.04 5.78,2.17 -2.51,4.45 -6.54,7.8 -8.42,12.62 2.38,2.24 7.87,-2.91 9.51,0.83 -0.79,2.47 -2.56,4.58 -2.81,7.26 -0.66,4.8 -3.73,3.4 -6.66,4.95 -2.19,3.74 -3.93,7.85 -4.97,12.06 -3.09,5.81 -7.29,11.33 -12.28,15.24 -10.3,5.75 -22.11,7.38 -33.69,8.59 -3.77,0.1 -6.85,2.55 -10.31,2.94 -3.47,2.43 -9.04,4.78 -8.47,9.78 1.28,5 1.81,-4.64 2.59,-0.51 0.25,5.91 7.72,-4.04 10.74,-4.52 3.6,-1.91 7.98,-2.51 11.98,-2.2 5.22,1.02 10.47,1.52 15.8,1.26 2.81,5.4 -7.34,9.13 -10.53,12.75 -3.33,1.37 -5.03,5.18 -7.96,6.8 -4.41,0.7 -9.29,-0.21 -13.4,1.03 0.98,2.37 4.94,7.79 4.97,12.2 1.56,8.24 0.22,16.74 0.12,25.08 1.69,2.02 6.09,-0.66 4.31,3.47 -1.56,4.26 -7.3,0.43 -5.94,6.17 0.1,5.5 -1.56,11.17 -0.82,16.55 1.09,1.94 5.87,4.87 1.38,6.01 -3.39,-1.66 -5.25,-0.1 -4.37,3.57 3,0.97 3.75,6.54 -0.1,4.84 -6.84,-2.92 4.88,8.72 -0.72,6.98 -3.12,3.28 6.43,2.62 3.55,7.23 -2.1,2.63 -6.06,1.43 -9.04,1.76 -3.02,-1.71 -5.06,1.38 -8.17,0.58 -5.52,0.1 -11.07,-0.42 -16.44,0.96 -5.73,0.62 -11.75,0.94 -17.35,-0.16 -3.94,-0.19 -8.59,-0.21 -12.304,1.69 -1.536,-0.25 -0.464,0.73 -0.391,1.23 z m 4.71,-2.77 c 1.46,-3.65 -3.6,-0.13 -0.19,0.17 l 0.17,-0.17 0,0 z m 20.23,-1.42 c 1.85,-3.88 7.1,1.91 6.11,-2.74 -0.14,-4.5 1.82,-0.19 3.68,0.56 2.04,2.27 6.95,0.11 3.55,-1.57 -3.4,0.1 -3.39,-5.13 -3.17,-7.78 2.28,-1.25 1.63,-4.08 2.44,-6.71 0.76,-6.45 5.32,-3.27 2.17,1.1 -2.04,3.86 1.58,7.32 0.53,10.92 -0.16,3.68 4.18,6.74 1.76,0.97 1.43,-2.18 2.13,5.2 3.65,2.8 -2.9,-4.56 1.33,-5.84 1.6,-0.36 3.65,2.21 2.07,-1.68 1.47,-3.54 -4.69,-1.91 -4.17,-7.91 -3.64,-12.09 -0.2,-2.94 2.83,-4.66 2.02,-7.64 1.59,-6.15 -0.54,-6.1 -1.85,-0.68 -1.9,1.39 0.1,8.29 -2.94,6.37 -0.32,-5.68 2.95,-10.87 4.77,-15.98 0.72,-2.22 -1.57,-6.69 1.42,-7.21 1.95,1.99 -1.83,10.02 0.67,8.08 4.23,0.1 -0.91,4.78 -0.58,7.28 -0.23,2.84 -0.75,5.23 0,7.21 2.14,-0.68 0.32,-5.47 1.59,-8.03 2.81,-5.16 1.09,4.26 0.47,6.47 -0.31,1.8 1.58,9.65 2.23,6.61 -0.59,-4.74 1.72,-0.39 2.94,0.1 -0.53,-5.12 1.45,-10.36 1.96,-15.26 -2.11,-1.06 -1.15,-4.44 -1.34,-7.12 1.08,-1.92 -2.22,-6.18 0.77,-6.33 1.32,3.96 1.75,-3.15 0.53,-4.57 -2.33,-3.74 0.82,-3.6 2.84,-2.15 1.97,3.09 2.69,-4.28 -0.46,-2.19 -1.7,-1.18 -3.6,-8.22 -4.32,-3.19 -0.8,3.89 -1.98,-3.33 -3.44,-3.98 5.15,0.9 -2.1,-4.47 -3.75,-6.15 -3.56,-1.56 -2.25,1.33 -4.88,0 -4.25,-1.39 -4.7,1.36 -0.34,1.78 3.29,-3.66 10.49,5.56 3.75,1.15 -2.22,2.72 4.37,2.75 5.6,5.41 1.13,2.7 3.59,6.11 1.38,8.82 -0.48,3.59 0.81,9.68 -1.57,11.62 -1.77,-3.65 -1.01,-5.99 -0.35,-9.19 0.1,-2.3 -3.16,-6.94 1.2,-4.5 0.1,-2.67 -2.18,-7.72 -4.19,-7.57 1.27,2.94 0.1,1.95 -0.64,3.77 -0.9,-3.45 -10.61,-8.86 -4.19,-1.96 1.24,3.32 4.87,4.11 6.15,7.58 1.34,6 -1.54,3.71 -2.57,-1.3 -2.49,2.61 -2.78,-3.72 -4.97,-5.94 -1.71,-3.29 -8.69,-6.51 -2.96,-1.44 2.32,2.96 4.84,6.95 3.92,10.76 -2.28,0.52 -1.37,-6.12 -3.89,-8.16 -1.9,-3.99 -5.17,-7.92 -6.26,-2.12 -5.24,5.31 -1.86,-1.27 -1.16,-2.97 -3.66,-2.86 -5.49,0.89 -7.27,2.88 -4.49,2.41 2.03,1.87 3.17,-0.86 3.39,0.1 -7.4,5.6 -3.02,4.83 6.71,-2.01 -3.63,1.55 -2.71,3.6 -2.01,2.85 -7.48,4.59 -5.23,6.74 -4.25,1.33 -7.27,5.44 -8.14,9.66 -2.6,-0.86 -3.24,-0.1 -4.28,2.62 -2.16,2.07 -1.15,3.82 1.36,0.99 3.07,-1.04 3.81,-6.03 7.24,-6.3 -1.81,3.8 -6.56,8.05 -7.77,11.67 -2.31,0.31 -7.887,13.45 -2.09,6.06 4.65,-2.73 1.94,-4.47 4.94,-7.67 3.91,-4.05 2.6,-0.37 0.79,2.5 -2.59,5.58 -2.28,6.26 1.19,3.13 0.35,3.36 -2.45,7.41 -5.3,9.36 -1.64,1.17 -8.363,3.97 -4.9,4.08 -1.263,4.94 1.6,1.26 2.66,-0.94 3.26,-0.78 4.45,-5.22 7.1,-6.16 2.39,1.14 -2.09,3.76 -2.88,5.32 4.12,-2.82 1.13,1.45 0.1,3.68 2.22,-2.84 3.95,-1.36 1.18,1.34 -1.81,3.16 2.36,5.02 2.35,0.9 2.48,-5.35 0.49,4.22 2.41,0.84 1.88,-2.65 2.2,1.86 4.27,0.79 1.9,1.21 2.87,-1.24 5.61,0.15 0.3,1.27 1.87,0.76 1.59,1.86 z m 28.68,-19.88 c -2.56,-1.18 0.1,-10.82 1.68,-7.95 -1.25,2.38 -0.44,5.91 -1.68,7.95 z m -21.13,-1.02 c -3.31,-1.36 3.2,-3.69 2.6,-6.19 0.96,-2.3 4.62,-3.61 3.65,-7.37 0.41,-3.59 3.69,-2.76 2.7,-7.83 1.08,-3.64 2.94,2.47 1.95,4.33 -0.35,3.19 -2.91,3.92 -2.8,7.44 -1.39,3.6 -4.88,4.66 -5.82,8.81 -0.4,0.49 -1.79,1.94 -2.28,0.81 z m 6.2,-17.92 c -1.8,0.68 -0.88,-5.56 0.23,-6.36 0.9,1.55 2.46,5.09 -0.23,6.36 z m 2.7,-5.32 c -1.93,-0.99 -1.69,-4.9 -2.64,-6.94 1.88,-2.12 4.53,5.88 2.64,6.94 z m -11.94,-6.82 c -3.59,-1.21 6.12,-7.76 4.31,-2.96 -1.09,1.06 -2.78,2.66 -4.31,2.96 z m -23.68,50.57 c 4.22,-2.8 -5.471,-1.58 -0.77,-4.59 1.05,-3.51 -5.861,-0.29 -2.76,2.78 1.1,0.61 2.51,1.22 3.53,1.81 z m 48.38,-2.95 c 0.24,-2.81 4.08,-1.4 0.66,-6.32 -1.87,-2.49 -4.36,-5.07 -4.91,-8.95 -2.3,-2.57 -3.62,-1.04 -3.26,2.57 -1.11,2.2 1.87,9.54 1.16,4.21 1.04,-5.14 1.82,0.42 1.84,2.76 0.61,2.34 1.73,6.07 4.51,5.73 z m -50.39,-9.39 c 5.89,-1.9 2.05,-7.41 -1.45,-1.28 -1.797,1.62 -0.41,2.83 1.45,1.28 z m 54.69,-4.38 c 2.46,-0.67 -2.92,-0.95 0,0 z m 1.41,-8.06 c 2.2,-1.84 -3.45,-0.45 0,0 z m -0.21,-3.35 c 4.95,-0.73 -3.31,-3 -0.73,0.15 -0.11,-0.29 1.08,0.3 0.73,-0.15 z m 0,-7.21 c 1.01,-2.16 1.46,-5.48 0.2,-7.81 -1.94,1.1 -2.55,7.38 -0.2,7.81 l 0,0 z m -50.09,-2.28 c 0.64,-2.39 -3.56,-0.79 0,0 z m 51.09,-7.62 c 3.04,-0.17 -1.93,-7.42 -1.18,-2.34 0.1,0.96 -0.5,2.52 1.18,2.34 z m -41.59,-4.72 c 3.79,-1.28 1.23,-4.55 -1.4,0.1 0.29,0.11 1.35,-0.45 1.4,-0.1 z m 1.65,-5.15 c 2.76,-1.2 -3.12,-0.55 0,0 z m 39.6,-3.1 c 3.23,-0.78 -2.18,-3.15 2.2,-1.96 -0.35,-2.81 1.78,-0.81 -2.69,-2.96 1.11,-2.23 -4.16,-9.13 -4.34,-5.14 2.78,1.4 5.66,12.82 2.46,5.03 -4.43,-5.65 -0.64,1.69 -2.04,1.44 -0.74,-2.28 -3.98,-6.72 -5.92,-4.95 1.69,1.76 4.69,4.21 5.86,6.32 1.64,0 2.61,2.8 4.47,2.22 z m -13.45,-0.9 c 0.55,-2.39 -5.43,-5.76 -3.87,-2.45 1.27,0.83 2.51,1.8 3.87,2.45 z m 14.63,-3.62 c 2.65,-1.3 -2.62,-8.48 -1.84,-2.06 0.19,0.64 0.8,3.07 1.84,2.06 z m -24.85,-0.95 c 7,-0.83 -3.11,-4.69 -0.62,0.21 -0.37,0.77 0.67,-0.51 0.62,-0.21 z m -7.19,-0.77 c 7.64,-0.97 -7.28,-1.41 -1.41,-0.1 l 1.41,-0.1 0,0.13 z m 5.58,-0.64 c 0.47,-4.28 -5.64,-0.34 0,0 l 0,0 z m -9.26,-0.68 c 2.16,-1.92 -5.49,-2.09 -4.87,-4.94 2.83,-0.64 6.48,6.37 7.97,2.66 -4.86,-3.14 0.98,-0.77 3.41,0 3.74,-2.29 -1.1,-3.26 -3.31,-3.7 -4.17,-4.44 1.89,-0.14 4.4,-0.21 1.07,1.53 2.97,2.83 6.09,2.29 1.88,0.44 5.69,3.93 4.82,-0.19 1.49,-0.1 3.53,-2.41 4.13,-4.62 -2.72,-0.68 -1.56,-1.92 -2.68,-3.17 4.79,-2.67 5.18,7.01 6.56,1.73 0.5,-2.71 -7.67,-4.87 -1.2,-3.16 4.35,1.12 0.28,-2.53 -2.04,-2.69 1.25,-2.64 7.56,3.84 4.79,-0.16 -5.8,-1.87 -4.99,-5.03 0.14,-1.29 3.8,-1.64 -4.64,-2.94 -2.59,-4.46 5.29,-0.1 -4.79,-4.66 -0.41,-4.26 7.92,-0.5 1.61,-1.89 -1.52,-2.12 0.22,-2.37 -1.13,-6.14 2.33,-2.94 4.79,2.02 2.08,-2.61 3.45,-2.43 3.66,2.45 3.44,-0.25 6.21,-1.34 3.84,-1.12 4.36,-5.4 8.54,-6.93 4.07,-2.2 9.34,-5.22 13.59,-1.79 4.52,2.28 -1.42,3.71 -2.89,2.32 -1.76,-2.35 -11.39,1.2 -10.5,2.57 1.83,-0.96 12.92,-2.6 6.29,-0.5 -3.35,-1.07 -10.77,3.74 -4.26,2.05 7.3,-1.76 -0.35,0.95 -1.7,2.17 -1.91,5.09 6.87,-0.87 9.01,-1.53 2.1,-1.35 12.26,-7.22 7.52,-8.83 -5.57,-0.71 -11.06,-1.76 -16.65,-0.74 -7.43,1.02 -11.91,8.85 -19.06,10.85 -3.9,-0.63 -5.82,2.41 -7.21,3.08 -1.04,-3.13 1.29,-3.46 -2.1,-4.09 -2.55,0.39 -6.02,-2.46 -0.66,-4.36 -1.75,4.44 3.45,0.59 3.27,-1.87 -5.54,0.47 -0.44,-6.35 1.87,-3.9 1.22,-2.53 8.39,-8.82 2.85,-8.32 -1.34,-2.69 -4.44,-3.17 -7.03,-4.27 -3.12,2.16 -6.41,-3.45 -7.92,-5.87 -0.31,-2.93 -3.81,-11.63 -5.07,-9.8 -0.48,4.33 -0.94,-7.92 -0.26,-9.59 0.12,-3.27 0.27,-8.01 -1.73,-10.23 -0.66,2.97 0.19,5.48 -1.18,8.36 -1.4,9.26 1.62,19.7 8.54,26.13 1.7,2.55 5.07,4.54 8.36,5.69 4.37,-0.15 4,6.97 0.83,5.57 -0.73,-1.49 -3.99,-2.63 -7.83,-1.3 -0.91,-0.88 -3.09,-2.15 -3.41,-0.17 -1.77,-2.77 -4.41,0.13 -2.31,2.33 -1.92,3.74 1.88,-0.1 1.89,1.92 2.41,-2.5 4.95,0.29 2.7,0.98 2.44,0 4.7,-6.15 4.64,-0.68 4.39,-1.86 0.6,3.33 -0.49,4.92 -0.8,0.53 -5.4,4.43 -3.08,0.9 4.38,-2.5 3.39,-7.41 0.52,-1.8 -3.9,4.57 -7.25,1.57 -1.25,0.1 3.18,-3.83 -1.07,-0.52 -1.68,-3.43 -2.95,1.19 -2.66,6.02 -5.7,4.61 -4.14,4.02 -9.7,5.85 -13.65,10.12 -8.06,6.89 -18.185,10.28 -27.608,14.74 -2.202,2 -4.268,5.45 -2.957,8.4 2.036,3.44 -0.142,-3.83 3.538,-3.18 1.615,-1.24 4.47,-5.4 6.134,-2.22 -0.417,3.14 -4.503,4.05 -6.057,5.76 -2.799,3.03 0.827,3.18 3.999,2.96 3.69,-1.27 7.667,-2.48 7.484,-5.49 2.207,-0.53 5.767,0.92 5.637,3.62 -3.61,-2.27 -4.289,1.95 -9.779,2.73 -0.796,1.54 -7.573,1.35 -3.639,2.38 1.743,0.75 2.836,-1.09 6.124,-2.23 3.624,-1.28 8.624,-0.81 11.854,-0.78 0.79,-0.61 -5.14,-4.62 0.45,-2.07 0.4,-3.37 3.44,-0.77 5.29,0.59 3.95,-1.29 6.79,5.76 11.05,5.17 z m 1.96,-5.4 c -2.81,0.13 -6.25,-1.36 -8.54,-3.39 1.5,-1.62 8.25,2.36 8.54,3.39 z m 16.19,0.46 c -4.41,-0.27 1.29,-3.08 1.11,0 -0.37,0 -0.74,0 -1.11,0 z m -12.66,-7.3 c -2.51,-0.21 -3.62,-4.16 -3.72,-5.89 -0.65,3.95 -3.88,-0.6 -0.58,-1.91 1.35,1.27 3.94,1.07 6.19,2.53 2.31,-0.79 5.64,-2.28 8.07,-0.62 -1.09,1.76 -3.1,1.14 -3.8,3.46 -3.28,-2.12 -4.59,-1.53 -2.97,1.14 -1.95,1.22 -6.51,-5.94 -3.49,-0.85 0.97,0.8 1.61,1.83 0.3,2.14 z m -28.92,-2.6 c -4.997,-1.11 2.43,-4.12 0.94,0 -0.31,0 -0.63,0 -0.94,0 z m 3.05,-1.14 c -3.73,-1.96 5.92,-5.44 1.86,-1.4 -0.61,0.41 -0.97,1.66 -1.86,1.4 z m 4.31,-2.26 c -3.24,-0.75 4.49,-6.8 1.14,-0.87 -0.25,0.68 -0.29,1.08 -1.14,0.87 z m 32.92,-0.66 c -4.97,-0.1 3.17,-2.93 0,0 z m -21.43,-0.49 c -7.67,-2.37 4.72,-3.98 2.73,-6.81 -4.01,0.6 -2.74,-3.84 -1.28,-5.98 0.72,-0.86 6.9,-4.09 4.13,-1.28 -4.5,3.85 0.23,2.52 2.92,0.1 2.08,-1.15 6.9,-1.6 7.18,1.32 -0.12,3.2 3.62,5.38 6.26,3.34 2.52,1.36 5.37,1.55 2.9,6.12 -1.44,1.92 -2.43,-2.85 -6.11,-1.53 -2.12,-3.07 -4.62,2.03 -7.72,1.54 -4.14,2.07 -7.76,-4.93 -10.03,2.02 l -1.04,0.76 0.1,0.42 z m 8.55,-4.95 c 3.72,-0.17 -4.27,-6.53 1.9,-3.43 2.8,-4.08 1.5,2.9 3.75,2.12 1.84,-3.08 -0.82,-5.99 -4.15,-5.88 -3.92,0.79 -5.9,6.18 -1.5,7.19 z m -16.84,3.57 c -2.71,-2.36 5.17,-5.4 5.92,-8.4 2.03,0.9 -4.32,5.92 -5.38,8.28 0,0.23 -0.75,0.51 -0.54,0.12 z m 20.36,-26.77 c -2.68,-2.3 3.28,-1.32 0,0 z m 2.83,-0.38 c -3.3,-1.66 3.24,-1.14 0,0 z m 10.77,-7.6 c -6.63,-1.46 -3.65,-3.55 0.44,-0.8 -0.14,0.28 0.34,1.17 -0.44,0.8 z m -31.48,54.5 c 2.07,-2.25 -3.44,-0.1 0,0 l 0,0 z m 33.37,0.25 c 4.05,-1.28 -2.32,-4.01 -0.73,-0.29 -0.1,0.51 0.44,0.26 0.73,0.29 z m -10.95,-0.74 c 3.95,-1.35 -3.75,-1.32 0,0 z m 15.59,0 c 4.06,-3.98 -5.93,-2.05 0,0.1 l 0,-0.1 z m 6.49,-1.53 c 4.25,-1.27 -4.84,-1.8 -0.1,0 l 0.1,0 0,0 z m -3.45,-1.52 c 1.62,-0.87 2.02,-4.09 0,-1.76 -1.73,-0.35 -1.43,2.14 0,1.76 z m -6.81,-0.38 c 1.79,-1.68 -2.81,-0.86 0,0 z m 1.91,0 c 1.44,-1.17 -2.05,-2.03 0,0 z m 11.47,-0.32 c 0.57,-2.58 -6.8,-4.69 -2.14,0 0.64,0.14 1.68,0.24 2.14,0 z m -8.8,-0.44 c 0.38,-2.08 3.96,-4.8 2.02,-6.62 -4.98,-1.9 1.85,3.75 -3.53,5.17 -0.88,0.77 0.68,2.38 1.51,1.45 z m 7.63,-4.23 c 0.69,-1.15 -1.14,-3.62 -3.01,-5.32 -3.33,-3.88 -1.84,1.65 -0.1,3.35 0.44,1.27 2.33,1.22 3.1,1.97 z m 0.58,-4.15 c 4.42,-2.88 -2.45,-3.15 -2.98,-5.72 -1.19,-1.95 -6.59,-3.04 -3.74,0.12 1.78,1.91 4.18,3.47 6.14,4.53 0.15,0.53 0.2,1.03 0.58,1.07 z m -2.44,-8.01 c 0.78,-3.71 -5.25,-5.03 -2.77,-0.83 0.86,0.31 2.04,0.52 2.77,0.83 z m 2.97,-7.62 c 6.27,-2.37 -7.24,-0.97 0,0 l 0,0 z m 9.49,-1.1 c 6.87,-1.38 -6.37,-1.9 0,0 l 0,0 z m -4.02,-0.38 c 3.66,-0.76 -3.9,-3.24 -3.91,-0.2 1.35,-0.46 3.03,0.15 3.91,0.2 z m -0.42,-2.65 c 7.71,-1.7 -5.21,-2.2 0,0 z m -22.24,-4.57 c 5.1,-3.29 2.02,-6.32 -0.34,-1.53 0.25,0.31 -0.48,1.84 0.34,1.53 z m -24.56,-2.28 c 1.18,-2.37 -5.19,-4.56 -5.83,-3.77 1.05,1.62 4.11,2.51 5.83,3.77 z m 2.01,-2.67 c 4.16,-2.07 -0.71,-3.45 0.91,-5.09 -0.62,-1.73 -4.15,-6.58 -5.96,-3.71 -1.58,2.12 3.94,7.16 5.05,8.8 z m 4.83,-5.35 c 1.78,-1.95 1.18,-3.37 -0.73,-2.24 -1.49,1.36 -3.45,0.7 0.73,2.24 z m 23.57,-1.87 c 5.08,-2.8 10.21,-5.04 15.95,-5.92 3.21,0.14 3.82,-4.47 7.34,-2.6 3.57,0.23 9.82,-1.21 6.77,-3.99 3.22,0.94 6.07,-4.77 1.6,-2 -1.51,1.67 -11.28,0.55 -6.32,2.69 0.1,2.84 -4.31,0.8 -6.1,1.04 -2.97,-2.48 -6.43,-5.33 -7.82,-8.96 0.58,-4.22 -2.99,-6.67 -2.68,-9.51 0.77,-1.24 0,-5.21 -0.52,-4.49 -2.14,0.39 5.06,-5.67 -0.3,-2.79 0.29,-2.38 2,-3.22 1.37,-5.57 1.88,-1.95 1.83,-4.58 3.77,-6.59 3.47,-8.07 -2.83,-0.67 -4.41,3.49 -3.8,8.19 -4.6,17.96 -1.62,26.5 1.64,3.85 4.31,8.4 8.42,9.7 1.74,2.6 -7,2.51 -9.59,4.06 -2.33,0.57 -5.97,3.04 -5.86,4.94 z m 12.85,-12.94 c -4.78,-4.55 1.38,-1.97 0,0 z m -1.66,-3.95 c -2.29,-1.28 0.19,-3.56 0,0 z m -1.76,-6.11 c -2.31,-0.65 1.66,-2.66 0,0 z m -23.09,22.51 c 2.12,-2.34 -3.15,-2.95 0,0 z m 4.39,-0.68 c 2.41,-1.65 -6.86,-1.93 0,0 l 0,0 z m -16.12,-0.34 c 2.29,-0.72 -2.18,-1.34 0,0 z m 1.75,-0.81 c 6.35,1.01 -2.91,-8.25 2.25,-3.85 1.36,4.47 3.33,1.94 0.63,-1.67 -2.28,-3.9 -4.8,-7.27 -8.46,-10.01 -3.55,-4.84 -6.98,-10.12 -9.27,-15.55 0.32,-5.79 -0.17,-12.24 3.49,-16.96 0.47,-2.98 2.73,-5.8 5.09,-7.93 4.56,-1.64 2.3,-4.4 6.31,-5.55 1.97,-2.76 9.54,-11.1 1.29,-6.7 -4.41,0.77 -8.33,3.35 -10.59,7.23 -8.09,7.41 -12.74,18.55 -11.98,29.52 2.57,1.62 1.08,4.74 2.73,6.55 -0.7,1.9 -2.38,-3.18 -4.53,-2.3 -3.07,-5.05 -5.445,-10.43 -7.57,-15.95 -1.431,5.06 -7.932,-4.64 -4.014,3.57 1.496,5.09 4.126,9.86 8.224,13.38 7.43,6.64 -2.37,-4.56 -3.47,-7.71 -2.526,-4.02 -2.672,-9.06 0.21,-1.8 2.53,5.32 6.24,10.56 11.02,14.01 1.89,1.71 6.4,4.85 3.74,0.1 -2.96,-3.99 -3.71,-8.73 -3.27,-13.53 -0.44,-5.08 1.18,-10.19 3.53,-14.59 3.43,-4.32 6.65,-9.82 11.3,-12.66 1.59,1.92 -4.26,3.25 -4.77,5.79 -7.85,7.93 -10.8,20.3 -7.31,30.82 3.78,7.34 10.65,12.17 15.3,18.79 -1.15,2.72 -6.92,-8.78 -10.07,-10.38 -1.75,-4.41 -4.91,2.39 -3.25,2.13 3.2,-2.57 3.75,2.31 7.12,4.3 1.44,2.26 6.06,4.82 5.45,8.21 -0.74,1.5 -0.64,2.46 0.87,2.79 z m -18.47,-0.72 c 2.08,-1.41 4.52,1.14 5.39,-0.99 2.5,-0.85 5.84,-3.01 9.97,-2.52 0.31,-3.35 -5.21,-7.59 -7.55,-8.92 -1.87,2.25 6.42,5.4 3.43,6.03 -1.75,-2.52 -4,2.32 -6.32,2.38 -4.42,1.36 -9.88,0.1 -13.43,-2.66 -2.595,-2.04 -1.761,-4.15 -3.57,-6.24 -1.244,-3.64 -5.853,-13.27 -8.328,-12.21 2.366,8.16 6.396,15.74 11.678,22.36 2.64,1.66 3.59,0.1 5.72,2.37 0.48,-2.5 3.07,1.54 3.01,0.4 z m 27.3,0.3 c 3.5,-3.36 -8.13,-0.34 -1.87,-0.69 2.42,-1.05 -0.39,1.39 1.87,0.69 z m 17.51,-1.82 c 1.64,-2.51 8.84,-0.48 6.35,-4.48 -1.58,-2.87 -8.38,-0.13 -6.69,3.46 -0.23,0.49 0.18,1.36 0.34,1.02 z m -42.83,-4.87 c 3.75,-0.67 -2,-4.54 -3.72,-5.46 -1.48,-0.72 -7.86,-1.16 -5.14,1.61 1.79,2.66 5.75,4.34 8.86,3.85 z m 76.37,-0.84 c 3.48,-0.76 -2.7,-1.22 0,0 z m -72.52,-1.56 c 1.38,-2.65 -3.07,0.98 0,0 z m 74.75,0.42 c 3.55,-0.97 0.98,-5.45 0.62,-2.04 -0.95,-2.7 -4.08,-3.43 -1.29,-0.6 -1.38,1.09 0.17,1.52 0.67,2.64 z m -52.53,-0.38 c 1.7,-1.12 -2.46,-2.19 0,0.1 l 0,-0.1 z m 63.17,-0.77 c 0.18,-1.02 0,-5.37 -1.05,-1.29 -0.43,0.87 0.91,1.12 1.05,1.29 z m -5.62,-1.63 c 5.28,-2.66 6.55,-10.38 8.34,-15.79 2.86,-8.08 0.3,-16.9 3.41,-24.9 2.3,-5.78 -3.94,-6 -3.86,0.73 -2.2,4.68 -0.58,10.11 -1.13,15.14 0.76,6.07 -2.27,4.63 -1.73,0.34 0.24,-3.6 0.72,-5.42 -1.12,-7.94 0.1,-3.66 -1.87,-7.31 -4.01,-9.95 0.23,3.68 -0.46,7.73 0.35,11.19 1.83,2.49 3.38,5.82 3.22,9.07 0,4.93 0.47,10.09 -2.1,14.54 0.29,-6.74 1.91,-13.67 -0.9,-20.12 -2.17,0.71 -5.18,-5.45 -4.94,-1.49 0.17,4.9 0.35,2.14 1.95,6 -2.02,3.43 -3.48,-3.67 -6.47,-2.67 1.07,4.23 7.56,7.94 6.8,13.53 1.19,3.4 -1.15,5.46 -1.11,8.53 2.25,-0.75 3.36,-7.2 3,-10.54 2.06,-1.87 0.75,7.08 -0.58,8.59 -2.09,6.64 5.07,-6.46 2.55,1.66 -1.1,1.82 -4.85,3.45 -3.01,4.74 0.1,-0.14 2.17,-0.64 1.34,-0.66 z m 3.72,-8.28 c -1.78,2.94 1.18,-12.58 1.76,-5.38 -0.1,1.86 -1.22,3.77 -1.76,5.38 z m -85.11,6.76 c 1.95,-4.55 -5.91,-4.19 -1.17,-0.53 0.38,0.84 0.63,0.36 1.17,0.53 z m 86.06,-0.61 c 3.78,-1.97 5.61,-6.51 7,-10.54 3.71,-8.24 2.47,-17.35 4.15,-26 2.91,1.31 -0.1,8.07 0.51,11.46 -0.7,8.11 -3.09,16.42 -7.97,22.99 -3,3.99 1.1,1.46 2.28,-1.02 1.75,-4.22 5.55,-8.28 6.49,-13.21 1.91,-6.23 2.23,-13.95 3.87,-19.73 2.98,-1.14 2.89,-4.74 2.48,-0.1 2.04,0 2.52,-6.03 3.31,-7.81 2.43,-2.09 4.49,-2.21 4.6,-5.55 -1.96,2.94 -5.53,0.42 -5.61,4.51 -5.06,6.45 -1.53,0.54 -2.07,-0.13 -2.87,1.81 -1.58,3.79 -2.13,5.72 -2.6,4.32 -0.73,4.17 -2.43,1.35 -4.96,-2.15 1.58,-6.99 0.22,-10.83 -2.18,3.11 -1.91,-1.78 1.04,-2.54 1.4,-2.06 -4.9,0.43 -5.47,3.62 -2.04,3.48 -0.63,7.61 -2.56,11.17 -2.14,7.75 0.68,16.21 -2.61,23.82 -1.2,4.44 -3.74,8.72 -5.62,12.63 -0.68,1.17 1.04,0 0.52,0.15 z m 14.16,-31.42 c -1.44,-1.6 1.46,-5.67 0,0 z m -3.43,-6.64 c -1.14,-3.9 2.41,-6.89 0.34,-0.37 0.68,0.41 -0.71,0.55 -0.34,0.37 z m -103.7,36.23 c 1.51,-4.06 -5.03,-0.78 -2.92,-3.19 -4.944,3.06 1.49,1.73 2.92,3.19 z m 2.89,0.28 c 2.46,-2.19 -4.68,-5.11 -1.38,-0.88 0.45,0.32 0.66,1.18 1.38,0.88 z m -20.025,-0.38 c 2.451,-3.51 -3.977,-2.64 0,0 z m 11.025,0 c 2.53,-3.25 -5.238,-3.87 0,0 l 0,0 z m 22.79,-1.18 c -0.95,-1.63 -0.35,-0.22 0,0 z m 84.16,0 c 2.24,-1.62 4.31,-4.94 5.56,-7.84 1.34,-2.8 2.6,-6.18 2.71,-9.11 -0.49,-2.02 1.9,-3.89 0.99,-6.62 0.16,-2.89 3.8,-3.1 4.22,-0.84 4.59,0.21 7.59,-5.18 1.9,-2.8 3.07,-2.22 6.01,-4.34 -0.2,-1.65 -2.75,5.12 -6.43,-4 -6.76,1.43 -1.37,8.6 -2.29,17.88 -7.93,24.93 -0.14,0.59 -2.13,2.7 -0.49,2.5 z m -120.33,-2.1 c 1.658,-3.09 -0.966,-3.83 -1.428,-4.39 1.503,-6.03 -2.908,-1.56 -1.508,2.28 1.004,0.17 1.895,3.67 2.936,2.11 z m -3.809,-5.66 c 3.78,-5.46 -3.423,-9.14 -4.764,-14.05 -5.088,-7.51 1.898,6.07 2.314,8.45 4.648,0.55 -0.529,3.67 2.45,5.6 z M 105.8,99.36 c -2.02,-5.06 -5.16,-12.19 -5.72,-18.58 -1.411,-7 1.27,-14.79 -2.47,-21.2 -3.921,0.19 1.009,5.99 -1.34,8.06 0.526,7.91 1.276,15.9 4.47,23.23 0.77,3.1 3.13,6.38 5.06,8.49 z m -0.89,-7.93 c -1.2,-5.4 1.08,-6.83 2.49,-12.83 2.48,-4.3 4.74,-8.93 8.62,-12.16 1.74,-3.13 1.67,-9.17 -1.59,-4.1 -2.45,5.6 -7.74,9.61 -8.67,15.92 -1.74,-1.49 1.4,-7.46 3.24,-9.79 2.87,-1.65 1.38,-4.37 1.97,-6.88 1.5,-3.7 0.82,-8.72 -2.94,-4.13 -1.38,1.53 -3.88,4.71 -2.1,6.54 1.07,2.88 -2.94,7.43 -2.15,11.29 -0.13,3.22 0,6.33 0.75,9.33 -2.62,1.48 -2.31,-6.57 -2.16,-8.97 0.1,-4.19 3.49,-8.54 0.1,-11.46 -2.01,1.94 0.54,6.37 -1.72,8.7 0.7,6.91 0.91,14.07 4.04,20.39 -0.1,0 0.39,-2.71 0.15,-1.85 z m -8.2,-8.05 C 96.596,78.6 95.364,72.01 94.662,66.76 92.71,65.07 94.444,60.6 91.08,61.87 c -0.166,5.87 0.427,11.71 2.238,17.3 -3.267,-1.01 3.735,3.58 3.392,4.21 z m 123.02,-3.44 c 1.97,-2.26 -4.07,-1.13 0,0 z M 90.549,79.13 c 1.603,-1.57 -1.88,0.51 0,0 z m 131.991,0 c 4.82,-1.34 -3.66,-0.18 0,0 z m -59.01,-2.28 c 2.05,-1.89 -1.84,-1.29 0,0 z m -41.5,-0.95 c 3.08,-2.18 6.8,-1.26 10.09,-2.15 3.03,-1.82 -2.67,-3.64 -4.07,-1.23 -1.53,-0.55 -8.68,3.27 -6.02,3.38 z M 120.4,75 c 2.93,-2.89 7.22,-4.54 9.68,-7.62 -2.62,-2.8 -3.45,1.08 -5.26,2.57 -1.56,0.18 -8.13,5.35 -4.42,5.05 z m 8.64,-4.17 c 1.09,-3.4 -2.81,1.25 0,0 z M 130.91,70 c 1.31,-0.58 -2.37,-1.86 0,0 z"/></g>
</svg>
