<?xml version="1.0" encoding="UTF-8" standalone="no"?>
<!DOCTYPE svg PUBLIC "-//W3C//DTD SVG 1.1//EN" "http://www.w3.org/Graphics/SVG/1.1/DTD/svg11.dtd">
<svg xmlns="http://www.w3.org/2000/svg" width="300px" height="350px">
<g>
<path id="fill" d="m 138.31,50.938 c -2.96,1.484 -3.89,5.359 -5.84,8 -0.1,2.869 -2.06,5.377 -1.75,8.312 -0.63,3.832 -5.61,6.229 -4.41,10.344 -0.39,2.834 -1.69,5.514 -1.15,8.437 0.67,2.663 1.36,5.361 2.31,7.907 0.15,3.469 -4.02,5.441 -3.69,9.002 -0.82,2.83 -4.33,4.51 -3.5,7.87 -4.08,-0.83 -10.15,1.29 -12.19,-3.56 -0.98,-3.88 -4.29,-6.66 -5.87,-10.37 -1.85,-3.342 -3.844,-6.743 -6.845,-9.036 -2.6,-3.403 2.14,-7.227 0.06,-10.875 -1.02,-3.81 -4.838,-7.981 -9,-6.438 0.741,1.748 5.077,2.109 3.5,4.625 -1.246,0.515 -1.331,3.507 -3.063,2.625 -0.913,-0.86 -1.639,-3.009 -3.25,-1.906 -2.96,-2.607 -7.737,-3.729 -10.687,-0.469 -0.847,0.647 -2.164,2.354 -0.688,3.063 1.719,-0.732 5.039,-2.601 6.219,-0.25 0.173,1.573 -1.443,3.384 0.562,4.5 1.659,0.964 2.725,3.497 0.531,4.469 -2.196,1.477 -5.654,0.286 -7.531,2.124 0.299,2.265 3.747,1.663 5.281,2.938 1.383,0.259 1.945,2.741 3.25,1.219 1.813,-1.215 5.626,0 4.157,2.5 -1.093,1.569 -2.566,3.414 -4.844,2.687 -1.022,-0.119 -2.997,-0.845 -3.187,0.688 3.221,3.106 7.942,4.536 12.218,4.596 3.062,4.43 3.661,10.18 6.934,14.47 1.399,4.19 3.702,8.2 6.07,11.81 3.82,1.29 2.44,6.05 4.4,8.62 -0.92,4.23 -6.483,4.57 -9.81,5.91 -3.363,0.71 -6.216,2.51 -8.5,4.94 -3.214,2.25 -6.749,-0.55 -10.054,-0.82 -1.416,-0.42 -3.821,-1.84 -4.915,-0.4 -0,1.06 1.642,2.39 -0.125,3.12 -2.758,0.97 -6.495,0.92 -7.656,4.29 -0.908,2.36 3.078,1.15 4.312,1.31 1.687,-0.43 3.556,1.22 2.157,2.75 -1.571,2.76 1.564,6.82 -1.719,8.87 -1.881,0.78 -0.843,4.65 0.969,4.25 0.336,-1.45 0.485,-3.4 2.281,-4 2.195,-1.52 5.332,-0.46 6.875,-2.9 2.197,-1.62 3.63,1.5 3.344,3.37 0.485,2.37 -1.045,4.82 -0.719,6.94 3.126,-1.48 4.076,-5.53 7.281,-6.91 1.388,-1.2 2.03,-3.29 1.625,-5.15 5.69,-0.46 11.094,-2.56 16.004,-5.13 4.33,2.42 9.27,-4.4 13.12,-0.56 0.21,3.48 3.96,4.82 5.85,7.28 5.3,3.75 9.24,9.62 15.46,11.97 2.11,1.23 0,3.68 -1.84,3.65 -5.49,1.33 -7.37,7.86 -7.71,12.91 -0.39,7.23 -0.62,14.49 -0.42,21.72 0.26,4.91 3.07,9.23 7.31,11.63 1.72,1.28 3.57,2.54 4.32,4.65 -6.36,0.55 -12.4,-3.01 -18.78,-1.5 -2.01,-0.16 -3.94,-0.38 -5.09,1.66 -2.26,3.06 -5.12,6.2 -5.88,9.9 0.1,1.39 2.21,-0.86 2.84,-0.87 2.23,-1.03 0.59,2.07 0.94,3.34 -0.22,1.05 0.81,3.05 1.81,1.72 0.12,-2.46 1.51,-5.66 4.5,-4.97 2.14,-0.2 6.18,-0.51 5.94,2.66 -1.01,1.73 2.16,4.37 3.22,2.5 -1.05,-1.59 -1.39,-5.31 1.34,-5.35 1.51,0.59 4,-0.52 4.75,1.57 1.21,1.62 -0.73,4.27 0.82,5.34 2.48,-0.68 2.64,-5.07 5.68,-5.12 1.18,-0.11 2.23,-3.48 3.69,-1.69 0.21,1.74 2.88,2.37 1.88,4.28 -0.19,1.1 -2.28,2.57 -1.66,3.22 1.5,-1.57 4.3,-1.86 5.16,-3.97 2.96,-2.76 7.43,-0.78 10.9,-2.25 6.02,-0.87 12.37,0.73 18.16,-1.44 3.77,-0.79 7.93,0.61 11.5,-0.81 1.2,-1.78 3.71,-3.52 5.47,-1.37 5.72,2.05 12.47,2.56 18.18,0.24 2.79,-1.61 3.9,-4.94 6.91,-6.34 2.24,-1.28 2.75,-3.68 4.53,-5.34 -1.74,0.63 -2.51,-1.45 -1.09,-2.35 3.4,-2.23 3.01,-6.31 3.53,-9.81 0.74,-2.94 2.75,-5.81 1.72,-9.09 -0.71,-3.95 0.6,-8.07 -1.31,-11.78 -1.55,-3.59 -3.25,-7.61 -6.13,-10.22 -4.5,-2.33 -8.45,2.83 -8.5,6.97 -1.16,5.04 2.61,9.19 2.84,14.03 -1.61,3.41 0.67,7.5 -0.5,11 -0.43,1.35 -2.35,-0.94 -2.31,0.9 -0.16,1.81 0.32,5.65 -2.59,4.97 -2.11,1.44 -1.86,5.64 -5.06,5.88 -5.01,1.95 -8.89,-3.28 -11.38,-6.85 -2.8,-4.87 -4.38,-10.41 -4.9,-16.01 -1.69,-9.54 -7.24,-17.76 -12.27,-25.9 -5.36,-10.25 -8.21,-21.7 -11.11,-32.82 -1.16,-5.85 -1.38,-11.83 -1.81,-17.77 2.45,-0.45 2.21,-3.98 0.69,-5.34 -1.78,-5.61 2.72,-10.66 3.34,-16.09 1.43,-3.18 1.25,-6.59 0.87,-9.972 -0,-4.406 1.83,-8.675 1.22,-13.094 4.09,-2.192 2.64,-7.736 5.35,-11 1.7,-3.609 1.12,-8.2 0.37,-11.813 -6.05,0.225 -11.18,4.765 -17.28,4.657 -5.82,-2.631 -13.28,-2.125 -17.69,-7.407 -2.56,-2.676 -4.51,-6.348 -7.72,-8.156 -0.17,0 -0.36,-0.03 -0.53,0.06 z"/><path id="outline" d="m 142.06,68.45 c 0.81,-2.961 7.54,-3.591 2.92,-8.13 -3.4,-5.756 -3.68,-0.02 -1.37,3.61 -4.06,4.338 -3.47,-6.619 -3.4,0.646 0.27,1.086 0,4.344 1.85,3.874 z m 25.55,0.34 c 4.5,-1.655 -0.99,-2.64 0,0 z m -21.59,6.19 c 1.74,-1.425 -1.62,-1.483 0,0 z m -2.89,0.69 c -0.79,-1.917 -0,-1.638 2.39,-3.422 -1.28,-2.959 -6.76,0.382 -3.62,2.482 0.42,0.33 0.91,1.203 1.23,0.94 z m 30.05,1.37 c 2.23,-1.028 5.02,-2.061 5.85,-4.88 0.89,-2.071 2.17,-8.842 -1.91,-7.234 -3.91,1.07 -10.1,3.103 -9.13,8.294 2.92,2.223 2.22,-2.051 3.8,-3.717 1.81,-0.109 3.06,-4.84 6.08,-1.873 0.7,1.779 -5.52,5.554 -0.37,3.88 -2.34,1.448 -6.76,4.733 -1.49,2.49 -0,0.801 -5.93,2.585 -2.83,3.04 z m -3.54,0 c 5.31,-1.45 -3.39,-3.397 -0.56,0 l 0.52,0 0,0 z m -40.96,0.69 c 2.84,-2.202 -3.45,-2.78 0,0 z m -46.755,1.13 c 2.261,-3.687 -6.709,-3.885 -0.517,0.17 l 0.459,-0.19 0.06,0.02 z m 80.185,0.94 c 4.31,-0.683 2.39,-5.96 -1.56,-4.44 -4.15,-0.04 -1.1,5.952 0.43,1.55 5.26,-2.282 -1.03,3.694 1.13,2.89 z m -69.181,1.68 c 2.985,-1.023 -2.933,-3.861 -3.655,-2.98 -0.546,2.06 2.25,2.468 3.655,2.98 z m 40.711,0.6 c 4.18,-0.459 -0.81,-3.062 1.99,-4.742 3.24,-0.386 2.96,-1.95 4.09,-2.288 -0.32,-4.91 1.25,-5.243 -2.31,-8.76 0.79,-3.787 2.06,-7.799 3.12,-10.99 -2.42,-4.266 -2.8,3.315 -2.94,4.1 -1.44,-2.773 -3.04,-2.251 -2.42,1.41 0.38,2.2 -3.5,4.179 0.13,6.74 2.61,1.801 -4.72,3.2 0.27,5.803 0.47,4.111 -4.81,-3.334 -2.32,2.577 -2.56,-1.91 -4.02,0.9 -1.58,3.204 0.84,0.829 0.12,3.458 1.97,2.946 z m 41.91,0 c 2.21,-1.13 1.78,-5.836 0.85,-5.82 -3.63,0.475 -4.92,6.081 -0.85,5.82 z m -44.21,0.48 c 0.94,-4.688 -4.15,-2.887 -0.47,0.02 0.1,0.468 0.5,-0.286 0.47,-0.02 z m 20,0 c 2.37,-1.262 1.61,-2.576 3.31,-6.47 -3.31,-4.65 -0.1,-3.926 2.95,-4.27 -2.15,4.684 3.97,-0.56 6.33,1.61 4.6,2.156 0.11,-4.826 -1.88,-4.961 -3.5,-1.947 -8.13,-1.862 -11.48,-3.143 -1.46,-0.343 -4.13,-0.539 -6.31,0.844 -0.66,3.224 3.01,3.777 4.92,4.39 0.37,3.918 4.31,-1.456 2.62,2.745 -1.95,1.838 -5.75,1.185 -5.69,4.315 -1.05,2.997 3.44,-0.07 2.29,3.653 1.82,1.189 0.4,2.683 2.94,1.287 z m 17.99,1.2 c 7.03,-0.261 0.23,-3.889 -0.8,-0.34 0,0.514 0.48,0.329 0.8,0.34 z m -86.276,0.35 c 5.241,0.862 3.455,-7.621 0.612,-4.6 -2.413,2.174 -5.012,2.325 -0.612,4.52 l 0,0.08 z m 85.206,2.37 c 1.55,-0.796 5.83,0.273 5.3,-2.43 -1.79,-0.428 -5.35,2.852 -7.44,-0.02 -1.03,-0.19 1.99,-2.872 2.86,-2.973 5.04,-0.388 0.72,-2.035 -1.56,-1.28 0.85,-1.075 5.9,-2.082 0.32,-2.73 -1.37,-1.72 -3,2.905 -3.25,4.34 0.56,1.761 -5.87,-3.164 -6.32,0 2.86,-2.332 3.7,4.243 6.39,1.89 0.33,2.216 1.52,3.32 3.7,3.2 z m -39.6,2.08 c 1.15,-2.714 -3.44,-2.556 0,0 z m 38.16,0.66 c 8,-0.505 -0.85,-4.329 -1.2,-0.5 0.2,0.407 1.3,-0.04 1.2,0.5 z m 6.43,0.38 c 2.99,-3.051 -3.13,-4.195 -1.03,-0.92 l 0.99,0.9 0,0.02 z m -19.6,-1.44 c -2.11,-0.916 2.19,-1.508 0,0 z m -1.37,2.82 c 1.99,-0.483 5.59,-4.537 1.42,-4.48 0.24,-2.901 -4.03,-0.754 -5.33,-2.74 -2.84,0.08 -3.01,-3.447 -3.88,-5.263 0.4,-2.018 -8.95,-2.015 -4.98,1.183 -4.21,-2.625 -3.48,1.825 0.35,1.34 0.3,-2.152 6.91,7.475 2.68,-0.15 -3.34,-4.798 4.94,1.424 2.67,3.773 0.16,3.72 -3.07,2.815 -2.69,-0.109 -0.63,-3.979 -3.48,3.283 -0.18,3.871 2.43,2.518 6.74,-5.019 6.59,0.965 0.76,0.505 3.72,1.574 3.35,1.61 z m -5.09,0 c 1.68,-1.818 -2.77,-1.393 0,0 z m 0.72,1.47 c 2.15,-0.801 -2.03,-0.786 0,0 z m -5.2,-0.25 c 2.71,-2.507 -3.91,-1.243 0,-0.02 l -0,0.02 z m 14.39,0 c 4.8,-7.811 -4.05,2.297 0,0 z m -26.49,0.59 c 1.71,-1.686 -3.73,-1.463 0,0 l 0,0 z m 7.51,0.35 c 3.32,-2.225 -2.83,-2.643 0,0 z m 33.54,0.34 c 2.83,-2.339 -3.02,-3.217 0,0 z m -20.49,0.69 c 4.16,-2.899 -3.73,-2.569 0,0 z m 14.1,0.65 c 5.4,-0.461 0.19,-1.842 0.84,-2.408 2.39,1.431 7.49,-4.248 3.15,-2.965 -3.38,-1.575 -8.41,5.024 -4.15,5.453 l 0.14,0 0,-0.08 z m 4.1,1.07 c 4.23,-2.286 -4.07,-2.023 0,0 z m -29.4,0.2 c 5.67,-4.795 -3.72,-1.8 -1.7,-0.6 0.64,0.624 0.94,0.832 1.7,0.6 z m 22.83,0.9 c 3.96,-1.239 -1.36,-2.999 0,0 z m -8.49,0 c 2.21,-0.756 -2.37,-0.97 -0.1,-0.06 l 0.1,0.06 z m 8.32,2.39 c 4.21,-1.619 -2.25,-0.765 0,0 z m -9.66,0 c 3.77,-4.221 -3.47,-0.627 0,0 z m -7.91,-0.19 c 4.06,-0.57 2.83,-5.503 -1.5,-4.33 -1.14,-0.04 0.48,5.66 1.5,4.33 z m 18.05,2.2 c 5.93,-1.804 -3.63,-1.735 0,0 z m -5.88,-2.13 c -2.07,-0.895 3.07,-1.879 0,0 z m -1.28,2.82 c -2.63,-2.503 2.59,-1.44 0,0 z m -10.79,6.2 c 2.87,-2.54 5.41,-1.33 7.38,-4.14 1.47,2.6 0.77,-4.236 2.87,-0.23 3.94,-1.46 1.74,-3.13 4.83,-0.93 -1.62,3.5 2.76,-4.191 -1.57,-2.4 0.18,-1.711 2.48,-4.566 0.73,-4.889 3.78,1.617 3.26,-2.387 2.59,-4.395 1.66,-0.884 1.91,-1.875 0.66,-3.936 -1.13,-0.894 -2.47,-3.034 -2.05,-4.08 -2.02,-1.985 -5.07,0.851 -3.23,2.62 -0.5,2.084 3.1,1.422 4,3.24 -2.7,-0.274 -4.46,3.367 -0.92,5.13 -4.97,-1.593 -4.16,4.621 -6.99,6.68 -2.43,4.52 -4.56,-2.208 -7.05,0.3 -3.68,3.99 -5.08,-3.52 -6.92,-3.071 -2.77,1.423 -5.62,-1.539 -4.15,-4.478 0.16,-2.781 3.21,-4.561 1.11,-7.508 -0.89,-1.327 2.8,-5.955 -0.38,-3.963 -3.71,-0.162 -0.88,3.599 -2.63,3.32 -3.75,-0.791 4.57,3.863 -1.72,1.29 0.23,-3.321 -5.26,-3.832 -2.43,-0.94 2.88,2.268 6.79,5.259 1.5,2.461 -2.39,-0.563 1.35,3.838 1.47,5.557 0.17,2.708 -0.41,3.95 2.66,7.352 -0.33,2.7 2.36,4.33 4.61,3.6 -0.75,3.44 4.71,1.09 5.09,2.34 -1.45,1.12 -0.7,1.85 0.54,1.07 z m -8.04,0 c 0.77,-2.06 -1.34,0.1 0,0 z m 1.87,0.71 c 2.86,-1.41 -1.46,-1.65 0,0 z m 0,3.1 c 7.07,-3.14 -2.03,-3.07 0,0 z m -15.21,1.26 c 4.18,-0.72 5.09,-4.65 9.14,-4.93 -0.26,-0.94 0.62,-4.55 -1.6,-6.28 -1.53,-1.32 -3.19,-6.731 -2.98,-1.9 2.01,3.61 1.3,4.52 -0.5,5.82 -2.33,0.89 -4.33,3.71 -5.15,6.22 0.4,0.23 0.52,2.02 1.09,1.07 z m 0.38,2.16 c 1.86,-2.03 12.7,-1.28 9.16,-4.86 -2.67,1.32 -8.17,2.39 -9.16,4.86 z m -22.35,0.67 c 1.22,-1.28 -7.105,-2.72 -6.335,-6.18 -0.848,-2.26 -0.07,-4.46 -2.835,-6.46 1.742,-3.37 3.093,3.35 5.618,3.68 2.952,2.6 -4.922,0.1 0.833,2.78 6.849,1.89 -7.131,1.53 2.679,3.02 2.81,0.19 6.75,1.22 8.94,-0.3 -4.66,-6.88 -8.95,-14.026 -13.513,-20.92 -2.854,-2.818 -5.413,-10.973 -10.39,-7.288 0.759,2.132 3.712,1.631 -0.653,2.788 0.115,4.036 -4.239,-0.754 -5.819,2.155 -2.623,5.803 5.986,-0.199 8.25,2.665 0.889,2.763 -2.995,2.23 1.033,4.586 -1.315,0.679 -7.843,1.675 -2.971,4.594 1.68,-1.374 4.611,-3.704 6.57,-1.14 0.393,2.44 -4.726,0.41 -1.151,4.64 1.17,5.12 4.054,10.93 10.054,11.27 l -0.31,0.11 z m 3.69,0.23 c 5.96,-0.1 -4.96,-3.08 -1.41,-0.71 1.43,-0.28 0.31,1.45 1.41,0.71 z m -6.676,0.82 c 1.406,-2.67 -5.11,-1.38 0,0 z m 12.826,0.87 c 1.71,0.15 9.12,-1.09 4.53,-2.09 -5.7,-0.25 5.57,-4.32 -0.57,-3.77 -2.87,0.64 -2.71,2.32 -3.92,3.66 -4.67,-0.94 -5.61,3.16 -0,2.2 z m 5.43,2.58 c 0.82,-2.81 7.87,-2.66 5.13,-5.82 -2.57,0.76 -5.32,3 -5.57,5.82 l 0.44,0 z m 2.11,2.41 c 3.52,-2.85 7.2,-2.96 10.67,-5.34 5.09,-2.25 0.19,-0.49 -0.45,-2.95 -2.84,2.02 -11.26,4.74 -10.22,8.29 z m -10.13,1.21 c 2.17,1.54 10.02,-1.69 5.11,-1.51 -5.36,1.78 5.57,-3.34 -0.97,-2.21 -3.52,0.39 -7.27,0.15 -10.66,-0.99 0.18,-1.41 11.18,1.49 5.39,-1.03 -2.33,0.89 -8.388,-3.23 -7.06,0.15 -1.183,3.05 4.08,3.62 6.35,3.84 8.04,-0.35 0.1,1.92 -2.81,0.53 -5.881,-3.38 -2.9,1.72 1.15,1.22 1.1,0.18 2.59,0.19 3.5,0 z m 7.37,1.2 c 3.25,-2.53 -2.02,-0.69 0,0 z m -7.46,2.03 c 3.59,0.57 5.28,-3.19 0.67,-2.1 -3.56,-0.47 -9.39,-0.3 -2.45,2.1 0.59,0 1.19,0 1.78,0 z m 9.32,0.9 c 5.28,-1.5 3.53,-7.46 -0.18,-1.84 -0.96,0.21 -1.06,2.73 0.18,1.84 z m -9.57,1.88 c 3.93,1.51 7.47,-3.98 1.72,-1.93 -1.71,-1.31 -7.84,1.03 -4.35,1.75 0.76,0.14 2.19,-0.26 2.63,0.18 z m 9.82,1.37 c 2.53,-3.01 -3.26,1.11 0,0 z m -2.32,0.25 c 3.73,-0.66 -3.87,-3.74 -0.57,-0.37 0,1.11 -0.15,1.17 0.57,0.37 z m -0.73,4.23 c 0.25,-2.82 0.1,-0.79 0,0 z m -8.63,0 c 2.63,-2.65 8.76,0.71 4.83,-4.82 -1.26,1.41 -5.9,2.36 -4.83,4.82 z m 10.47,2.59 c 2.67,-4.72 -3.37,0.59 0,0 l 0,0 z m -7.98,0.72 c 7.84,-1.75 -4.88,-5.15 -0.86,0.21 -0.25,-0.1 1.41,-0.14 0.86,-0.21 z m 29.26,10.8 c 2.48,-2.02 3.36,-11.28 0.1,-3.81 -0.14,0.94 -1.62,3.2 -0.1,3.81 z m -3.79,0.34 c 4.5,-0.22 0.49,-5.09 -0.3,-1.53 -0.86,0.18 -0.66,2.01 0.3,1.53 z m -0.26,3.37 c 1.28,-4.7 -2.74,0.53 0,-0 l -0,0 z m -3.14,0.77 c 3.53,-2.28 -0.54,-7.85 -1.22,-1.56 -0.47,0.73 1.29,1.11 1.22,1.56 z m -51.16,0 c 3.957,-1.48 -1.536,-4.62 0,0 z m -8.326,0.57 c 4.689,-0.86 -4.476,-3.01 -1.837,-0 l 1.818,0.19 0.02,-0.17 z m 48.176,1.15 c 5.04,-1.29 3.24,-8.94 0.65,-3.62 1.39,1.16 -2.03,3.33 -0.65,3.62 z m -3.2,-0.21 c 6.35,-3.35 -2.36,-3.45 -0.9,0.57 0.3,-0.19 0.6,-0.38 0.9,-0.57 z m -6.01,1.59 c 4.28,-1.06 1.45,-4.11 -0.56,-0.4 -0.75,0.67 0.25,0.34 0.56,0.4 z m -33.052,0.26 c 3.945,-1.52 -4.239,-9 -2.992,-3.49 -0.893,2.58 -0.172,3.72 2.992,3.49 z m 50.542,4.2 c 1.44,-0.28 3.44,-3.48 2.1,-6.17 -3.6,-2.07 0.57,6.81 -2.21,3.72 -2,0.16 -0.22,1.68 0.11,2.45 z m 3.28,1.03 c 1.46,-0.56 3.05,-8.92 -0.21,-5.67 0.36,1.41 -1.38,5.53 0.21,5.67 z m 2.75,0.69 c 0.7,-2.98 3.51,-5.12 3.29,-8.61 1.46,-3.46 -1.87,-6.44 -2.53,-1.54 2.65,4.71 -2.18,3.82 -1.9,8.73 -0.24,0.67 1,4.7 1.14,1.42 z m -60.897,3.44 c 3.289,-0.69 0.277,-3.87 0,0 z m 59.487,0.92 c 1.99,-4.81 -5.5,-4.46 -1.55,-1.22 l 1.55,1.2 0,0 z m 3.63,2.45 c 1.94,-1.03 0.1,-5.72 -0.57,-8.02 -1.21,0.98 -0.26,5.55 -0.5,7.95 0.33,0.12 0.76,-0.15 1.07,0.1 z m -50.715,0 c 1.544,-2.75 -2.477,0.9 -0.02,0 l 0.02,0 z m 56.365,20.67 c -0.45,-1.99 -2.15,-8.01 0.91,-2.58 2,-0.33 -3.29,-8.85 0.27,-5.74 0.79,5.05 2.24,1.56 0.58,-1.79 -5.19,-3.6 -1.69,6.74 -5.04,2.82 0.1,2.51 1.73,5.68 3.3,7.22 l -0,0.1 z m -0.62,2.76 c 0.44,-3.06 -5.3,-10.66 -2.92,-4.03 0.83,1.36 1.35,3.46 2.92,4.03 z m -0.8,3.1 c 2.7,-1.58 -2.7,-4.38 -2.66,-7.25 -3.67,-7.04 -0.31,4.25 1.8,6.48 0.31,0.21 0.22,1.11 0.86,0.77 z m -0.19,4.48 c 1.32,-3.03 -4.86,-12.69 -5.74,-10.72 1.11,3.7 3.14,8.11 5.74,10.72 z m 0,2.71 c -0.83,-3.78 -4.64,-7.26 -5.91,-11.33 -2.67,2.34 2.84,7.48 3.82,10.33 0.2,0.51 2.06,2.68 2.09,1 z m -1.44,3.81 c 2.89,-2.62 -3.87,-5.71 -4.8,-9.05 -0.41,3.54 3.49,6.02 4.8,9.05 z m -3.69,0.69 c 3.56,-0.99 0.11,-4.94 -1.78,-6.25 -0.46,0.76 0.35,6.54 1.78,6.25 z m 3.62,1.25 c -1.48,-7.04 -1.07,3.57 0,0 z m -4.1,4.19 c 1.65,-1.7 -2.51,-7.33 -1.57,-1.76 -0.17,-0.11 0.85,3.01 1.57,1.76 z m 60.21,8.32 c 2.5,-2.92 -1.28,-8.01 -0.9,-1.93 -0.27,0.9 0.54,1.74 0.9,1.93 z m -55.12,2.97 c -0.51,-2.02 -2.76,-8.13 -5.05,-6.95 0.83,2.58 2.75,5.98 5.05,6.95 z m 54.68,2.95 c 0.68,-4.52 -1.95,-5.09 -0.15,0.46 l 0.19,-0.46 -0,0 z m -49.15,1.49 c 3.94,-1.38 -1.96,-1.54 -2.02,-4.13 -1.8,-3.29 -1.94,-9.8 -5.35,-13.76 -2.85,0.32 -1.33,3.88 -0.3,0.82 3,3.35 0.35,5.25 2.22,8.28 -2.73,0.91 1.09,0.14 2.08,2.24 -5.05,-2.38 0.43,4.84 2.59,6.59 0.1,0.44 0.73,0.3 0.78,-0 z m 74.78,1.17 c 2.11,-3.66 -5.7,-0.53 0,-0 l 0,0 z m 1.26,0.71 c 4.35,-1.58 4.18,-2.79 -0,-1.36 -1.12,0.1 -0.2,1.01 0,1.36 z m -90.26,1.72 c 5.88,-1.89 -3.81,-2.62 0,0 z m 88.31,1.03 c 1.59,-1.49 -2.07,-0.72 0,0 z m -98.26,0.35 c 4.59,-4.58 -1.68,-3.6 0,0 z m 81.34,1.03 c 0.17,-2.34 -3.04,-6.16 -1.78,-9.31 -1.49,-1.17 -3.03,-5.63 -4.11,-5.79 -0.47,2.8 -0.63,6.22 0.11,9.03 2.08,7.19 3.35,4.56 1.61,-1.14 -1.18,-9.5 1.68,2.82 3.02,5.93 0.41,0.3 0.55,1.54 1.15,1.28 z m -67.23,0 c 5.21,-3 -3.22,-3.94 0,0 z m 85.2,-9.63 c 0.65,-3.32 6.95,-4.8 1.16,-0.63 -0.39,0.19 -0.59,0.9 -1.16,0.63 z m -9.68,11.01 c -0,-1.17 -5.73,-8.57 0.44,-3.03 5.21,2.94 -2.41,-4.26 3.99,-0.78 4.76,0.46 0.28,-1.98 1.19,-4.29 3.62,-0.89 6.23,-2.63 6.26,-0.34 1.59,-1.7 4.58,-3.73 4.97,-5.37 1.18,-3.81 6.68,-10.59 3.38,-13.31 3.11,-4.83 -2.02,-4.13 0.69,-9.51 -3.27,-0.94 -0,-5.31 -1.63,-7.75 -0.86,-2.88 -2.31,-8 -6.26,-5.89 -5.17,4.55 -1.23,12.42 -0.19,18.06 -0.16,5.57 0.72,11.64 -2.55,16.51 -3.46,0.68 -4.14,6.01 -7.42,7.74 -2.24,1.43 -5.48,1.34 -7.94,0.34 -1.33,2.17 1.93,5.54 3.86,7.02 -0.1,0.53 1.79,0.75 1.21,0.6 z m -83.54,0.34 c -0.48,-5.31 5.05,1.63 4.06,-2.1 4.81,-1.2 -2.36,-0.65 -2.22,-2.09 -0.42,-2.11 -2.48,1.21 -3.12,1.8 -0.14,1.13 -0,2.15 1.28,2.39 z m 80.78,1.38 c 1.52,-2.06 -4.38,-5.22 -4.62,-8.52 -0.12,-5.35 -3.49,0.63 0.2,3.16 1.07,1.7 2.56,4.82 4.42,5.36 z m -83.86,-0.21 c -0.77,-4.42 1.91,1.43 1.61,-2.91 -0.29,-6.66 -0.78,-0.38 -2.8,-0.65 -4,0.8 -0.39,3.16 1.19,3.56 z m 6.1,0.55 c -1.14,-3.54 -2.76,-0.83 0,0 z m 29.26,-121.79 c -3.15,-1.3 2.97,-2.05 0,0 l 0,0 z m -33.07,11 c -1.96,-3.13 4.9,-10.52 7.62,-8.48 -1.06,1.56 -4.93,3.1 -5.84,5.95 -0.2,1.09 -0.81,2.01 -1.78,2.53 z m 33.59,4.82 c -2.84,-1.32 3.26,-4.83 -0.88,-4.74 1.93,-3.96 3.56,-3.66 0.71,-4.75 1.15,-3.3 -0.12,-4.64 2.3,-8.71 0.94,-1.86 -5.62,2.32 -3.22,-1.55 -0.34,-0.8 0,-4.94 4.32,-3.59 -0.66,2.55 -4.51,2.64 -0.28,3.5 1.65,1.15 0.73,4.44 0.82,6.52 0.55,3.26 -1.13,6.5 -0.65,9.11 -0.25,1.34 -1.7,4.59 -3.12,4.21 z m -39.16,11.7 c -2.39,-1.27 6.1,-4.14 4.16,-5.74 -2.37,0.37 1.2,-4.86 2.66,-4.73 1.78,2.51 0.6,4.25 -1.81,6.95 -1.34,1.32 -3.23,3.07 -5.01,3.52 z m -18.25,9.3 c -4.274,-0.85 6.05,-3.06 2.26,-0.58 l -0.23,0.1 -2.03,0.48 0,0 z m 64.78,2.41 c -1.95,-0.48 -2.58,-4.68 -1.68,-7.16 -3.49,0.3 0.41,-8.25 0.74,-3.54 1.06,2.18 0.94,3.85 2.07,6.72 -0.48,1.17 0.34,3.58 -1.13,3.98 z m 1.78,4.11 c -2.61,2.47 -1.11,-7.99 0.8,-3.8 -0.26,1.21 0.65,3.22 -0.8,3.8 z m -10.58,5.08 c -5.55,-3.92 3.42,-4.37 0,-0.1 l 0,0.1 z m -18.61,1.36 c -3.14,-1.3 0.64,-7.87 0.33,-2.05 -0.13,0.61 0.31,2.19 -0.33,2.05 z m 45.67,40.3 c -1.88,-1.17 2.89,-6.61 -1.48,-3.83 2.85,-5.69 -3.18,-4.57 -0.37,-10.33 -0.83,-0.71 -4.95,-4.26 -2.54,-7.85 2.33,-0.57 0.53,7.48 2.63,4.19 2.26,1.98 1.63,6.17 2.83,8.96 2.15,0.87 1.58,5.45 -0,8.02 0.11,0.81 -0.85,0.41 -1.05,0.84 z m -4.84,5.57 c -2.75,-0.69 0.54,-7.45 1.27,-2.81 -0.23,0.99 -0.1,3.18 -1.27,2.81 z m -33.54,4.92 c -2.71,0.45 -1.48,-7.42 0.39,-4.91 -0.4,1.27 1.33,4.7 -0.39,4.91 z m 42.05,6.77 c -1.83,-3.26 2.47,-7.8 1.46,-11.12 -3.2,6.31 -2.72,0.31 -0.71,-2.64 0.4,-3.32 -0.41,-7.08 -1.42,-1.66 -0.76,5.96 -4.29,1.91 -1.03,-2.03 -0,-5.04 1.72,-4.43 2.66,-2.24 1.35,0.17 2.12,3.41 2.88,5.17 -1.21,4.76 -1.05,10.56 -3.84,14.52 z m -5.74,14.8 c 1.43,-3.87 1.51,0.74 4.19,-1.07 -0.62,-2.85 -4.12,-3.2 -6.16,-4.27 -3.27,0.51 -5.72,-3.82 -9.15,-5.53 -0.74,-3.87 -4.71,-2.34 -5.48,-5.61 -1.94,-1.42 -5.2,-5.84 -2.48,-8.47 2.57,-1.19 0.62,5.86 2.07,4.8 1.3,-5.03 2.71,0.73 2.43,3.15 1.25,-1.94 3.59,0.69 5.05,4.64 3.26,-3.88 3.93,6.42 8.16,5.05 4.07,3.33 -0.1,-2.89 2.46,-2.15 1.09,2.24 3.02,8 6.44,5.89 -0.34,-1.58 -4.02,-0.27 -4.05,-3.52 -0.46,-1.45 -2.08,-7.08 0.98,-4.91 0,1.94 -0.66,7.67 2.2,5.95 -0.71,-1.8 -2.33,-6.94 -0.21,-6.79 1.05,1.62 0.12,8.08 2.14,6.77 5.2,1.56 -3.53,4.09 4.02,3.79 -1.46,-1.38 -1.13,-6.55 -3.91,-8.33 -0.27,-4.4 -0.93,-10.47 1.72,-14.22 -0,-6.78 -2.75,-14.64 -5.88,-20.99 -4.96,-8.89 -11.4,-17.07 -14.07,-27.06 -2.72,-7.44 -2.79,-15.48 -6.22,-22.62 2.13,-3.66 -2.69,-5.69 -1.61,-8.57 2.4,-2.76 0.62,-7.15 -0.63,-10.01 -0.78,-2.06 0.11,-7.83 1.24,-3.26 2.23,7.07 0.81,-1.68 0.65,-4.44 0.85,-3.28 -0.89,-10.05 1.51,-10.87 3.13,2.24 -1.5,-7.819 1.77,-5.46 1.44,6.29 2.26,-3.308 0.62,-3.766 -2.52,-0.726 -4.15,1.251 -5.45,3.506 -3.6,2.98 -4.79,8.25 -1.2,2.62 3.59,0.34 -1.37,4.1 -2.9,4.65 -2.92,1.91 -4.51,1.73 -2.9,-0.56 -4.39,0.59 2.56,-1.62 3.2,-3.37 -1.01,-2.7 -4.1,1.86 -5.31,3.03 -2.21,-0 -2.65,2.58 -5.49,3.06 -2.96,0.47 -5.07,1.58 -7.8,2.2 -3.11,1.07 -9.47,1 -10.97,2.62 5.81,1.61 -6.28,3.32 -7.5,6.13 -2.72,2.93 -5.55,6.98 -5.88,10.41 1.29,-3.32 7.58,-7.37 2.91,-2.21 -2.74,2.32 -3.41,6.24 -4.42,9.24 -2.15,4.62 4.45,-3.17 4.78,-5.71 7.47,-3.76 -0.99,6.28 -3.56,7.92 -0.1,1.16 7.39,-2.93 2.1,0.89 -3.37,1.13 -7.82,2.63 -8.64,6.58 -1.95,2.28 -6.69,1.3 -2.14,-0.53 0.96,-2.99 3.76,-3.69 2.92,-6.23 3.18,-6.75 -8.37,3.37 -12.04,3.5 -8.046,3.22 -16.875,6.33 -22.235,13.55 -1.368,2.7 -6.054,0.68 -6.124,3.12 2.089,0.71 5.798,6.48 5.837,1.46 2.102,-1.79 3.682,-7.51 4.049,-1.97 6.121,-0.61 -0.455,7.51 5.046,5.6 1.899,-0.6 -0.58,-6.58 1.709,-7.33 -5.696,-1.23 5.543,-3.03 1.158,1.02 2.835,2.25 5.664,-3.42 8.458,-3.27 2.382,-0.1 4.712,-2.7 6.532,-2.01 2.3,-1.94 5.4,-2.74 7.73,-3.52 1.89,-1 5.43,-5.4 3.4,0.26 2.74,-2.85 2.96,-6.19 7.06,-8.05 4.68,-5.44 2.79,1.48 -1.24,3.13 -3.45,5.16 4.72,-4.48 3.44,-0.28 -3.79,2.14 -1.13,5.06 -2,7.63 4.78,-2.58 -0.1,2.59 3.48,3.43 0.58,-3.3 -1.54,-3.99 -0.63,-6.37 -0.37,-2.43 -0.33,-4.06 2.82,-6.35 1.06,-1.28 3.87,-6.54 4.02,-2.68 -2.95,2.93 -3.08,7.21 0.83,1.76 1.44,-3.56 3.01,-3.98 5.51,-5.46 3.01,-2.86 0.21,4.51 3.51,1.34 -1.52,2.33 1.35,9.62 1.87,2.98 3.34,-0.9 -0.36,5.81 2.7,5.13 3.15,-1.07 1.01,6.63 4.35,5.33 2.71,2.31 1.05,8.04 -1.08,3.31 -1.01,-2.59 -3.38,-4.31 -4.49,-7.01 -1.47,-1.34 -3.47,-2.33 -4.59,-4.5 -1.29,-3.16 -3.62,5.36 -0.53,4.5 -1.56,3.81 -0.1,4.2 1.61,3.35 1.33,1.39 1.46,7.97 3.55,7.03 2.19,-3.48 2,2.09 1.92,3.77 0.63,5.25 1.55,3.12 3.28,2.7 -1.11,2.66 6.35,8.33 2.09,8.34 -1.55,-3.16 -5.16,-3.44 -6.2,-6.92 0.84,-5.48 -4.32,0.74 -2.67,-4.32 -0.4,-2.9 -2.65,-4.21 -3.49,-6.3 -1.52,-0.84 -2.32,-5.87 -3.83,-2.49 -1.04,2 1.79,6.48 0.13,6.34 -2.08,-0.1 -0.14,5.17 0.23,6.94 -0.1,3.92 1.19,4.37 2.39,2.06 1.56,2.92 2.05,8.36 3.24,3.08 0.97,4.26 2.81,4.18 5.36,5.72 3.87,5.22 0.1,-2.73 -2.18,-3.87 -3.83,-2.75 -0.84,-6.77 0.55,-1.78 2.07,1.97 3.22,6.06 5.28,3.22 1.59,3.99 4.42,5.78 8.04,7.47 5.21,2.37 -3.81,-4.37 0.78,-4.35 1.61,1.99 3.87,3.04 4.6,5.55 -2.01,4.31 2.4,3.07 3.99,6.63 0.51,4.04 7.13,4.1 2.93,6.31 1.34,2.19 6.16,-0.17 5.27,4.19 -0.16,3.31 4.37,1.16 0.84,6.39 -3.73,1.21 0.72,-4.44 -2.62,-4.61 -0.95,-2.28 -2.98,-2.26 -5.17,-3.9 -3.94,-3.04 -6.5,-7.68 -9.05,-11.74 -3.31,-3.06 -7.22,-6.23 -11.9,-5.07 -3.07,0.92 -5.18,4.07 -5.96,7.1 -3.99,5.99 2.91,4.55 -0.94,9.06 -1.51,3.86 2.69,-3.89 1.02,2.71 3.28,0.46 -1.84,4.51 0.84,4.83 2.26,0.7 -1.67,9.79 -1.57,3.35 -2.2,-1.16 0.46,-8.28 -1.91,-4.6 -2.04,1.71 -1.27,5.25 -0.32,8.34 1.31,5.32 1.36,3.59 2.75,2.67 1.26,3.66 -1.61,7.98 1.6,4.3 1.56,-4.6 0.48,2.59 1.78,4.19 3.21,2.27 0.42,-5.71 -0.1,-7.27 2.25,-2.49 1.81,2.68 3.39,3.52 1.72,1.94 -3.47,5.05 1.2,7.45 -1.1,-2.79 0.31,-5.38 1.82,-0.5 1.71,2.84 3.33,-1.84 5.75,1.49 2.64,4.02 5.22,0.39 8.32,1.71 3.13,2.17 4.29,-1.28 7.33,3.75 0.61,-4.15 3.92,2.5 6.92,1.03 0.57,0.1 -0.99,3.9 1,2.51 z m -63.5,1.38 c 5.11,-1.91 -4.25,-3.97 -0.13,0 l 0.13,-0 z m 11.14,0.34 c 4.83,-3.25 -2.7,-1.79 0,0 z m 23.27,1.82 c 1.81,-0.95 -2.34,-8.27 3.7,-4.94 2.59,0.9 3.45,3.15 7.16,2.47 2.58,0.38 5.39,-0.44 7.57,-0.57 3.65,0.97 5.01,-3.42 3.85,1.72 5.25,-0.65 3.15,-5.31 -0.15,-4.09 -2.06,0.53 -5.11,-5.07 -5.31,-1.77 1.59,1.73 5.78,3.73 0.86,3.07 -2.11,-2.54 -5.3,-6.22 -8.86,-3.79 -3.7,0.49 -9.75,-1.82 -11.86,-2.42 -2.65,1.89 -6.43,2.89 -9.29,0.94 -3.43,-0.64 -3.79,4.9 -7.11,3.21 -2.79,3.28 3.64,3.72 5.19,1.37 0.96,-2.82 5.72,-2.35 2.4,0.26 -4.06,2.16 1.37,6.17 3.1,2.41 -1.2,-1.87 3.76,-6.2 2.95,-2.32 1.04,0.95 5.42,-3.79 3.43,1.04 -2.96,1.88 1.81,4.07 2.37,3.41 z m -4.57,6.22 c -3.8,-0.47 1.43,-3.26 0.61,-5.49 -2.47,-1.19 -1.19,-5.41 -4.48,-0.54 -3.96,-0.92 -4.5,7.91 -7.66,4.15 0.59,-2.73 0.86,-6.92 -3.08,-5.58 -3.12,-1.69 -3.52,2.33 -1.99,4.07 -0.22,3.27 -5.29,0.66 -4.32,-1.89 0.45,-3.46 -3.78,-2.2 -5.84,-2.44 -3.33,-0.22 -2.99,2.97 -3.73,5.06 -2.98,1.84 -2.91,-3.35 -2.36,-5.3 -1.02,-0.1 -5.52,4.39 -3.59,-1.59 2.25,-3.47 4.48,-7.88 7.84,-10.18 2.91,0.69 5.4,-0.15 8.44,-0.12 4.26,0.48 8.34,2.17 12.71,1.9 -1.36,-3.09 -7.84,-5.34 -9.7,-9.69 -3.03,-6.27 -1.22,-13.4 -1.62,-20.1 0.35,-7.33 -0.21,-16.9 7.27,-20.91 3.51,-0.44 5.51,-2.42 0.95,-3.87 -5.45,-2.71 -8.96,-8.12 -14.05,-11.44 -1.91,-2.76 -5.27,-3.4 -5.55,-7.28 -4.18,-2.81 -8.28,3.48 -12.8,0.98 -4.56,2.87 -9.867,4.47 -15.234,5.09 0.335,3.12 -1.455,5.41 -4.082,6.5 -0.867,1.48 -6.229,8.79 -6.101,4.07 1.554,-3.19 1.659,-13.58 -3.307,-7.11 -2.626,-0 -7.67,1.03 -6.961,4.31 -1.214,3.44 -4.96,-2.02 -2.402,-3.96 3.738,-2.5 0.05,-5.79 1.888,-8.94 2.006,-3.04 -3.555,-1.62 -5.161,-1.93 -3.614,-0.1 -0.01,-4.9 2.063,-5.44 1.355,-0.56 7.026,-0.85 4.44,-2.85 -0.911,-3.54 4.148,-1.73 5.995,-0.9 4.161,0.12 6.766,3.95 11.026,-1.11 3.837,-3.89 15.856,-3.91 16.186,-8.7 -2.36,-2.74 -0,-6.6 -4.53,-8.28 -2.135,-3.96 -4.879,-8.15 -6.058,-12.4 -3.436,-3.99 -3.789,-10.02 -6.736,-13.88 -4.584,0.39 -9.002,-1.65 -12.356,-4.7 0.565,-3.901 5.641,0.92 7.168,-2.74 3.607,-3.035 -1.51,-4.478 -3.831,-1.89 -1.578,-2.698 -5.021,-3.008 -7.452,-4.08 -2.559,-4.053 5.523,-2.386 7.485,-4.216 3.294,-2.282 -3.85,-3.687 -1.684,-6.911 1.339,-3.85 -4.484,-1.325 -5.6,-0.606 -3.234,-1.757 1.152,-4.913 3.025,-5.777 2.896,-1.245 6.09,0.263 8.449,2.03 2.998,-1.598 3.276,5.192 4.754,0.532 4.284,-3.045 -2.939,-3.083 -2.534,-5.722 5.154,-1.942 9.242,2.994 10.204,7.561 1.852,4.758 -4.572,7.7 1.811,11.648 3.875,4.763 6.015,10.657 9.995,15.421 1.17,7.29 6.65,4.64 11.79,5.49 -0.33,-4.18 3.87,-5 3.71,-8.73 0.42,-3.478 5.63,-5.93 2.65,-9.33 0.1,-2.68 -1.85,-4.859 -1.4,-7.632 -0.75,-3.282 2.02,-5.491 0.82,-8.738 0.85,-3.602 4.03,-5.196 4.84,-9.05 -0.51,-2.914 1.7,-5.169 1.63,-7.975 1.94,-2.612 5.24,-11.921 8.9,-7.035 3.92,3.437 6.57,9.465 11.7,10.607 3.05,1.7 8.35,1.684 11.91,3.633 6.09,-0.153 11.38,-4.811 17.63,-4.71 0.63,4.778 1.53,9.939 -1.41,14.123 -1.64,3.07 -0.88,7.619 -4.35,9.437 0.58,5.396 -2.15,10.433 -0.97,15.86 0.39,3.95 -1.24,6.07 -1.7,9.46 -1.12,4.61 -4.37,8.61 -2.83,13.46 1.94,1.98 1.37,5.24 -0.62,5.82 0.52,8.2 0.91,16.39 3.57,24.22 2.7,9.57 5.33,19.24 10.39,27.88 6.06,8.72 11.33,18.64 11.89,29.47 1.26,3.66 2.37,7.71 4.53,10.95 2.55,3.2 5.76,7.85 10.48,5.98 3.47,-0.35 2.85,-6.33 5.62,-5.87 3,0.76 -0.24,-7.85 3.72,-5.37 1.19,-0.78 0,-6.64 0,-9.33 2.06,-2.19 -0.96,-6.93 -1.82,-9.94 -0.85,-3.41 -0.6,-8.43 1.67,-11.21 1.82,-2.87 6.15,-3.66 8.47,-0.96 3.06,4.59 6.28,10.06 6.42,15.73 -1,3.8 1.25,7.47 -0.3,11.13 -3.42,6.5 0.18,9.32 -4.74,13.46 -3.55,3.9 4.28,-0.37 -0.55,4.12 -1.21,3.55 -5.13,4.61 -7.08,7.26 -1.89,3.77 -6.75,4.55 -10.64,4.61 -3.33,-0.12 -7.15,-0 -11.21,-1.77 -3,-2.89 -3.62,1.58 -6.15,1.86 -4.53,0.68 -8.54,-0.62 -12.9,1.08 -6.02,1.42 -12.54,-0.62 -18.54,1.43 -3.1,0.1 -7.29,-0.72 -8.69,2.81 -0.61,0.72 -5.44,2.28 -3.98,3.01 z"/></g>
</svg>
