<?xml version="1.0" encoding="UTF-8" standalone="no"?>
<!DOCTYPE svg PUBLIC "-//W3C//DTD SVG 1.1//EN" "http://www.w3.org/Graphics/SVG/1.1/DTD/svg11.dtd">
<svg xmlns="http://www.w3.org/2000/svg" width="300px" height="350px">
<g>
<path id="fill" d="m 102.44,68.281 c -3.127,2.314 -5.042,5.88 -4.784,9.688 -3.333,2.221 1.176,7.622 -2.812,9.375 -2.584,2.407 -0.117,6.674 -2.906,8.812 -1.392,3.476 -0.892,7.444 -2.622,10.854 -1.261,4.77 -3.28,9.66 -2.941,14.58 1.699,3.83 -3.246,6.52 -2.375,10.25 -0.02,2.15 -2.526,1.48 -3.125,0.1 -1.441,-1.77 -1.725,-4.27 -0.219,-6.03 -0.483,-0.4 -3.102,0 -2,-1.57 0.789,-0.73 1.594,-2.43 1.094,-3.28 -2.547,1.58 -4.133,-1.72 -5,-3.69 -0.997,-2.23 -1.661,-4.61 -3.562,-6.28 2.146,-3.11 2.64,-7.31 0.906,-10.62 0.457,-1.703 -2.12,-4.353 -3.532,-2.752 1.67,1.773 -0.938,3.252 -2.593,2.842 -1.677,0.31 -2.927,-0.746 -4.125,-1.436 -2.036,0.346 -3.93,1.266 -6,1.026 -2.256,0.62 -5.295,2.72 -4.406,5.38 3.041,-1.82 6.288,2.59 3.781,5 -0.668,3.36 -6.154,5.32 -4.094,9.19 0.355,1.33 2.323,1.93 2.313,0 0.05,-2.54 3.56,-1.05 4.812,-0.1 2.323,1.09 2.311,5.85 -0.688,5.57 -1.196,0.14 -3.739,-2.57 -3.531,-0.16 -0.192,2.38 1.615,4.63 3.781,5.16 1.542,2.43 6.398,0.65 6.563,4.31 -0.611,1.83 0.248,3.46 2.094,4.12 2.448,1.63 2.183,5.6 -0.09,7.22 -1.947,1.7 0.255,3.66 1.437,4.91 1.221,1.84 1.049,6.02 4.219,5.19 1.558,0.1 4.88,1.89 3.219,3.59 -1.291,0.77 -3.794,-1.87 -3.719,0.53 0.757,2.62 3.367,4.16 5.281,5.78 -2.413,2.2 0.929,4.31 2.719,5.28 1.608,2.32 4.287,3.53 7.157,3.41 1.919,0.48 4.615,-1.43 5.281,1.09 2.689,3.49 9.261,2.12 10.311,7.16 1.92,5.82 0.51,12.26 -1.06,17.94 -1.892,3.32 0,8.37 -3.001,11.03 -1.808,0.47 -3.676,-1.75 -5.375,-0.1 -2.059,2.83 -6.466,3.16 -8,6.53 -0.579,1.35 1.631,2.21 0.687,3.81 -0.612,1.35 -1.82,4.92 0.688,4.75 0.91,-1.43 0.555,-5.12 3.25,-4.56 1.407,0.48 1.753,2.86 3.719,2.37 1.285,0.4 4.806,-2.37 4,-0.28 -1.114,2.76 2.822,2.44 4.402,2.1 2.55,0.13 4.62,-0.89 6.22,-2.79 1.35,-1.72 4.4,-0.37 3.19,1.79 -0.27,2.59 4.1,2.64 3.88,0 0.68,-3.01 4.04,-6.56 1.31,-9.38 -1.06,-5.6 2.74,-10.56 2.81,-16.03 3.3,-4.89 2.69,-12.03 7.56,-15.84 1.75,-2.25 0.96,-7.43 4.82,-7.41 1.05,0.41 2.67,0.7 2.18,-1.06 0.42,-1.72 2.92,-0.45 2.66,0.87 4.84,0.88 9.15,-3.06 13.9,-3.75 5.48,-1.56 11.58,-1.33 16.97,-3 1.61,-1.56 5.37,-2.24 5.82,0.72 0.58,3.73 -3.52,5.74 -3.35,9.41 -2.22,9.25 1.62,19.97 -4.47,28.09 -0.45,3.18 -3.68,5.08 -6.68,3.85 -3.06,-1.44 -4.83,1.94 -7.35,3 -2.68,1.77 -6.31,3.03 -6.62,6.65 -0.49,0.94 -0.1,3.45 1.34,2.31 1.73,-1.24 4.53,-3.62 6.31,-1.12 2.44,1.19 0.81,4.39 2.07,6.22 1.44,0.54 2.03,-2.05 3.65,-2.16 2.82,-1.46 6.74,-0.29 8.94,-2.87 2.58,-1.03 6.15,0.73 8.01,-1.98 4.25,-3.8 10.55,-6.1 12.46,-11.87 -1.11,-3.34 2.46,-4.96 4.94,-5.97 2.26,-1.52 -1.38,-3.06 -0.97,-4.97 0.21,-4.14 3.56,-7 4.69,-10.81 1.52,-2.13 2.96,-5.85 6.03,-5.62 2.61,1.12 2.25,4.82 4.48,6.52 4.42,5.86 12.19,11.66 10.55,20.01 -0,2.66 -2.71,2.31 -4.25,3.78 -1.63,1.49 -4.2,0.66 -5.32,2.8 -3.25,3.07 -6.83,7.17 -5.78,11.92 1.2,1.86 3.65,-0.35 2.69,-2.06 1.58,-1.5 4.27,-0.85 4.26,1.52 0.36,1.37 0.19,3.36 1.15,4.29 2.29,-0.97 1.25,-4.57 3.97,-4.94 2.67,-0.1 5.43,1.01 7.8,-0.92 2.34,-1.18 4.71,-2.65 6.29,-4.86 0.81,1.88 -1.12,4.31 0.13,5.87 4.34,0.12 5.5,-5.41 5.62,-8.9 0.33,-3.07 1.72,-6.08 2.25,-9.16 0.94,-2.29 0.59,-4.78 2.28,-6.81 1.86,-2.65 -2.22,-3.92 -3.25,-5.91 -3.34,-4.27 -4.31,-9.72 -5.6,-14.83 -0.8,-4.39 0.51,-9.05 -1.71,-13.1 -0.83,-2.02 0.59,-3.65 1.72,-5.03 -0.6,-2.06 -4.19,-2.37 -3.94,-5 -0.2,-3.74 -3.29,-7.1 -2.69,-10.79 2.37,-3.34 7.46,-2.14 10.38,-4.97 6.97,-4.77 11.35,-12.3 14.4,-19.9 1.02,-3.13 0.38,-6.59 1.78,-9.63 1.19,-4.96 0.29,-11.3 -4.21,-14.215 -3.1,0.06 -7.4,2.785 -5.72,6.285 1.45,7.77 -2.86,15.18 -8,20.62 -6.2,7.79 -17.12,9.41 -26.47,7.58 -12.31,-1.81 -24.85,-1.78 -37.26,-2.77 -10.61,-0.7 -23.13,-0.24 -30.77,-8.71 -3.48,-2.84 -1.73,-7.62 0.34,-10.75 3.05,-4.21 2.84,-9.58 5.46,-14.027 1.76,-2.755 3.5,-5.82 3.1,-9.228 0.71,-2.247 3.68,-5.137 1.72,-7.344 -1.42,-1.182 -2.8,1.182 -4.5,0.688 -2.73,-0.212 -5.45,0.18 -7.78,1.469 -5.6,0.996 -10.22,-3.735 -15.75,-3.844 -4.83,-0.287 -8.39,-3.447 -11.25,-7.063 -1.47,-1.663 -3.26,-3.252 -5.59,-3 z"/><path id="outline" d="m 209.56,232.13 c -2.3,-1.59 -0.1,-8.99 -4.71,-6.19 0.63,3.98 -4.8,4 -3.89,-0.13 0.1,-5.37 4.43,-8.45 7.66,-12.05 3.13,0.27 4.66,-2.58 7.14,-2.76 1.68,-3.25 0.85,-7.49 -0.99,-10.54 -3.08,-5.14 -8.1,-9.12 -10.86,-13.98 -1.53,-5.72 -4.37,-3.16 -6.42,0.28 -2.02,2.28 -1.92,5.2 -4.19,7.32 -0.77,2.31 -2.95,5.45 -0.42,7.39 2.94,4.76 -6.73,2.64 -5.13,8.58 -1.75,5.97 -8.66,8.61 -13.05,12.58 -2.33,3.16 -7.07,-0.44 -9.17,3.08 -3.41,1.03 -7.73,-0 -10.41,3.97 -3.74,-0.1 -0.49,-5.12 -3.2,-6.38 -2.4,-3.4 -4.9,1.48 -7.2,1.37 -2.03,-1.2 -0.34,-5.2 0.79,-6.87 3.56,-2.47 7.2,-4.23 10.13,-6.82 4.04,0.1 7.21,2.82 9.04,-3.24 5.26,-6.96 2.97,-15.94 3.77,-24 0.38,-2.71 0.78,-5.22 1.45,-7.44 4.58,-4.68 2.67,-10.22 -3.05,-5.69 -6.59,1.24 -13.69,1.49 -19.96,3.63 -2.52,1.07 -11.72,5.31 -11.34,1.52 -3.28,-1.83 0.53,2.94 -3.9,1.55 -4.09,-0.8 -2.48,6.59 -5.99,8.35 -3.48,3.91 -3.24,10.25 -6.23,14.6 0,5.3 -3.85,10.49 -2.74,15.67 3,2.97 -1.16,7.05 -1.53,10.66 -1.64,2.71 -5.8,0.92 -4.37,-2.33 -1.2,-2.82 -4.03,1.49 -5.68,2.24 -2.76,0 -9.852,2.38 -8.39,-2.35 -1.841,0.65 -5.345,2.25 -6.76,-1.19 -3.876,-2.15 -1.375,6.78 -5.35,3.8 -1.679,-2.33 2.181,-5.77 -0.286,-7.12 -0.715,-2.41 2.535,-4.81 4.753,-5.58 2.492,-1.22 3.597,-4.42 6.953,-3.28 4.86,3.26 2.652,-7.96 4.99,-10.65 1.28,-6.12 3,-12.98 0.11,-18.87 -2.93,-3.5 -8.127,-1.8 -10.249,-6.54 -2.771,0.54 -9.26,0.82 -10.997,-2.65 -1.389,-1.4 -6.25,-3.09 -3.744,-6.12 -1.874,-1.45 -7.356,-5.71 -4.14,-7.64 6.059,2.92 2.68,-2.82 -1.609,-1.76 -2.496,-1.43 -1.633,-4.92 -4.111,-6.69 -3.808,-3.96 2.572,-4.8 1.273,-8.34 0.08,-3.3 -4.753,-2.71 -3.7,-6.29 0.47,-4.27 -4.748,-1.88 -6.487,-4.78 -2.916,-0.5 -4.623,-4.39 -3.486,-7.08 2.108,0.12 5.083,3.48 5.59,-0.85 -0.171,-2.16 -3.218,-4.06 -5.4,-3.66 -0.446,5.77 -5.12,0.78 -3.607,-2.4 1.254,-2.66 3.633,-3.39 4.317,-6.18 2.174,-2.43 -0.427,-6.04 -3.53,-4.1 -2.076,-2.94 2.367,-6.488 5.393,-6.707 2.23,0.917 4.868,-2.494 6.717,0.117 1.138,0.63 7.179,0.97 4.61,-1.8 1.108,-2.934 5.341,0.391 4.6,2.78 2.107,3.75 0.949,7.48 -0.764,10.39 2.903,2.65 3.306,8.52 6.311,10.1 4.082,-1.9 1.567,2.03 1.745,2.7 -3.498,3.25 3.874,-0.97 0.289,4.1 -0.667,2.79 4.239,8.35 3.209,2.06 1.003,-3.09 4.126,-5.31 2.26,-8.78 0.445,-5.68 2.296,-11.19 3.98,-16.69 1.482,-3.23 0.08,-7.481 3.2,-10.12 0.309,-2.973 -0.355,-6.412 2.738,-8.055 1.894,-2.268 -1.525,-6.354 1.789,-8.668 -0.594,-4.029 1.81,-7.239 4.883,-9.816 4.4,-0.462 6.32,3.898 9.27,6.356 3.08,3.956 8.81,3.311 13.19,4.938 3.92,1.345 8.03,4.362 12.17,1.764 2.99,-1.467 6.59,0.477 9.3,-1.815 5.17,0.999 0.32,6.875 -0.13,8.696 0.41,2.647 -0.8,5.901 -2.59,8.1 -1.42,3.162 -2.97,6.18 -3.46,10.02 -1.3,4.2 -5.62,8.19 -4.65,12.74 4.1,7.07 12.72,9.51 20.34,10.24 15.19,1.03 30.47,1.77 45.61,2.9 7.11,1.37 14.71,2.29 21.54,-0.81 5.7,-2.11 9.3,-7.53 12.92,-12.15 2.42,-4.68 4.41,-10.3 2.55,-15.49 0,-3.398 3.75,-5.204 6.74,-5.45 2.98,1.623 4.33,5.22 4.99,8.33 0.2,3.25 0.1,6.43 -1.37,9.35 0.2,4.75 -1.12,9.16 -3.82,13.13 -2.89,6.15 -7.64,11.8 -13.58,15.1 -2.57,1.64 -8.3,1.22 -8.39,4.43 0.65,3.48 2.78,6.75 2.98,10.29 0.45,2.59 6.19,2.99 2.84,5.91 -2.33,2.2 0.68,5.62 0.72,8.35 -0.17,4.71 -0.1,9.35 1.85,13.76 0.88,4.99 3.19,9.07 7.3,12.41 1.84,2.4 -2.19,4.64 -1.46,7.45 -1.42,2.9 -1.5,6.99 -3.04,10.04 0,3.48 -0.62,8.72 -4.13,10.45 -4.7,1.72 -2.31,-3.19 -2.51,-4.83 -1.86,2.14 -5.36,4.1 -8.64,5.35 -2.65,0.31 -6.02,-1.96 -6.92,1.87 0.33,1.47 -3.07,3.54 -2.27,2.91 z M 99.58,225.76 c 3.25,-1.36 -2.568,-2.5 0,0 z m 2.72,-1.5 c 4.67,1.14 1.47,-8.34 4.51,-5.47 -1.33,3.35 3.66,1.86 1.6,-0.92 1.07,1.64 5.91,2.2 3.94,-1.47 -2.62,-2.19 -1.75,-5.41 -0.43,-7.99 1.12,-3.04 -1.78,-4.47 -0.86,-7.67 4.18,0 -1.41,-5.97 2.82,-4.43 -1,-3.12 0.27,-3.08 1.34,-5.51 -2.3,-2.07 2.48,-4.73 -0.94,-5.6 -1.76,5.23 -0.49,-4.68 -1.45,-6.64 -2.1,-3.85 -1.86,-8.54 -1.67,-12.71 0.19,-1.95 4.46,-6.8 3.78,-3.52 -1.91,1.64 -2.54,5.51 -1.91,6.76 4.21,-0.58 1.99,5.84 4.69,5.26 -1.52,-4.65 -0.37,-8.49 0.81,-1.59 2.28,2.03 -3.75,7.17 0.95,5.53 0.79,-2.92 0.63,-6.02 0.98,-0.96 1.21,1.45 0.37,-5.01 -0.1,-6.78 -2.35,-3.23 -2.36,-9.7 0.1,-3.59 -0.97,2.13 3.31,7.3 2.75,3.05 -2.88,-3.31 -1.31,-10.59 -0.19,-3.7 -0.17,4.87 3.82,3.25 2.08,-0.89 -1.49,-1.55 -3.35,-9.6 -0.53,-5.5 -0.13,2.75 3.54,8.77 2.52,2.88 -2.65,-2.45 -3.01,-7.74 0.37,-3.26 0.15,-4.69 4.02,-2.12 6.37,0 3.14,1.79 7.4,6.15 1.21,3.93 -1.02,-1.57 -6.62,-7.03 -3.96,-1.92 2.67,2.35 6.15,4.57 9.96,3.84 3.49,1.29 -6.24,1.01 -5.13,3.66 3.74,3.43 4.49,0.88 4.7,-0.56 4.12,3.49 10.92,3.24 4.25,-1.1 2.45,2.19 8.91,1.8 3.59,-0.89 -2.91,-0.34 -12.22,-3.94 -9.15,-6.41 1.71,3.13 4.57,1.17 6.97,0.79 4.99,3.57 3.19,1.65 2.78,-0.9 2.88,-0.26 8.99,4.22 7.1,0.16 2.57,-0.67 11.33,3.24 5.3,2.87 -3.69,-1.19 -1.85,3.23 0.61,3.26 -1.32,2.05 -3.96,-0.55 -4.28,-2.11 -3.49,2.13 -8.1,0.82 -12.35,-1.47 -3.75,2.44 7.43,2.34 6.15,5.77 -0.67,3.42 4.27,-0.99 0.52,-0.71 0.36,-1.12 7.09,-0.71 5.5,0.1 -3.93,-0.94 -1.93,3 0.98,1.43 3.19,-1.94 6.69,-1.36 10.74,-1.25 3.83,-2.11 -9.26,-1.44 -7.31,-3.72 2.14,1.66 8.87,1.76 4.54,-1.62 -6.15,-2.88 2.53,0.46 3.19,-2.17 1.34,-1.57 4.54,3.02 7.45,2.43 2.45,-0.67 5.18,4.6 6.43,2.14 -2.33,-2.01 -4.69,-2.86 0.21,-1.2 3.64,-2.09 -6.43,-7.75 -5.51,-3.73 -1.66,-0.69 -3.39,-2.68 -5.63,-0.9 -2.39,-1.65 -6.15,-1.82 -7.44,-4.65 2.77,-0.36 4.78,1.32 5.99,-0.56 2.86,3.14 7.71,3.88 2.61,-0.63 -2.2,-1.73 -6.03,1.53 -7.47,-1.8 1.93,-0.1 3.72,-1.22 5.37,-1.35 2.74,0.59 5.97,6.03 7.2,4.11 -1.34,-1.41 -5.39,-4.54 -0.63,-2.64 2.47,2.72 11.12,7.5 4.53,1.93 -3.66,-3.2 2.65,-2.27 3.86,-0.27 5.43,5.16 -3.69,-7.15 2.69,-3.36 1.53,4.37 6.15,5.69 7.71,9.87 0.19,3.94 5.65,2.53 5.01,6.72 0.51,2 3.14,3.32 2.3,6.1 -2.2,0.37 -1.33,-3.8 -3.3,-4.26 -0.55,-2.96 -4.67,-6.28 -3.8,-1.09 1.08,3.46 5.09,5.56 5.55,10.02 3.07,6.02 6.39,12.59 11.59,17.33 3.62,2.83 6.19,7.16 5.77,11.87 -0.18,2.59 -3.43,5.69 -1.1,7.83 1.97,-1.85 7.16,4.36 0.88,3.12 -2.03,1.43 -5.1,1.57 -4.15,5.06 1.38,2.93 4.71,0.23 4.77,-2.4 2.34,-2.13 0.25,6.94 2.05,1.51 1.34,-3.05 3.44,-1.42 3.53,-5.3 3.05,2.53 3.49,-2.71 3.15,-4.75 -0.49,-1.92 -2.96,-7.23 0.46,-3.49 3.77,4.82 -1.99,-5.29 2.97,-1.03 1.54,-2.28 -4.51,-4.64 -2.45,-6.15 1.82,2.26 4.68,0 0.99,-1.12 -2.28,-0.46 -5.64,-3.58 -3.68,-5.63 -1.13,-1.45 -6.05,-9.99 -1.75,-5.55 6.84,7.51 -0.89,-2.19 -2.09,-5.03 5.34,1.75 -0.92,-4.75 -2.63,-5.36 -3.28,-3.55 5.3,1.03 1.35,-3.34 -4.71,-3.45 -0.75,-4.86 1.88,0.1 2.63,4.5 3.5,-0.27 1.33,-2.65 -0.69,-2.61 -4.22,-3.51 -3.6,-6.04 -2.93,-1.18 -4.43,-4.73 0,-3.25 4.95,-0.75 0.57,-1.09 -1.11,-2.74 -0.67,-2.73 -3.78,-4.84 -3.53,-6.48 1.42,-1.45 -8.04,-6.18 -1.28,-4.04 3.91,1.2 3.55,5.25 6.77,6.76 2.95,0.82 -2.07,-7.28 -5.16,-7.18 -2.4,-1.78 -8.61,-2.15 -7.21,-5.86 -4.63,-4.82 3.58,-0.27 3.72,1.73 3.55,-0.65 4.28,6.36 8.04,4.15 -1.87,-3.33 -4.74,-3.49 -7.35,-5.79 -0.25,-2.73 -6.16,-1.32 -3.5,-4.79 1.86,-0.58 5.14,0.1 7.51,1.14 2.16,1.76 6.94,-1.31 7.45,2.01 5.57,0 3.88,-4.43 -0.65,-3.18 -1.73,0.3 -9.23,-0.7 -4.4,-1.02 4.2,0.49 9.03,1.03 12.63,-1.54 1.46,1.58 6.41,-3.84 4.61,-3.64 -3.57,1.7 -4.31,-0.13 -8.71,-0.15 3.09,-0.43 9.53,-1.83 9.82,-4.54 -7.57,2.36 0.46,-2.76 2.3,-1.86 0.2,2.2 3.19,-5.74 0.1,-2.96 -4.07,2.95 0.49,-1.94 1.92,-3.11 -1.4,-2.57 3,-3.75 3.03,-6.92 1.58,-3.86 0.41,-7.98 -1.04,-11.69 -4.83,-2.013 -3.88,3.19 -3.3,6.38 0.23,7.12 -4.61,13.12 -8.46,18.72 -2.51,1.81 -4.47,4.65 -8.03,6.09 -9.19,4.28 -19.78,2.83 -29.54,1.78 -3.27,0.68 -8.79,0.1 -10.96,-1.09 -1.27,1.04 -5.51,-0.29 -8.37,0.11 -2.73,0.32 -6.81,-1.07 -5.85,1.67 -3.15,-0.17 -4.22,-4.33 -9.85,-2.43 -2.88,-0 -6.29,-0.2 -8.73,-1.44 -3.25,-1.08 -8.52,-1.21 -11.61,-4.02 -3.04,1.31 4.24,2.4 4.77,4.62 2.8,-0.5 5.2,1.86 7.75,3.21 -0.13,3.34 -4.64,-2.2 -6.12,0.21 -2.09,-2.41 -4.81,-1.09 -6.72,-3.26 -2.62,-6.24 -4.49,-0.52 -3.01,2.69 2.95,2.8 2.94,11.03 -0.22,3.97 -1.28,-1.23 -1.35,-10.51 -2.25,-5.43 1.39,3.64 -2.9,5.34 -1.69,0.85 -0,-2.61 2.92,-11.84 0.59,-9.81 0.8,4.31 -1.98,5.31 -4.54,6.33 -3.52,5.49 0.99,0.33 1.75,1.55 -2.85,4.23 -6.34,8.01 -11.09,10.06 -5.33,1.28 1.01,-3.67 3.72,-3.92 3.78,-2.51 2.47,-3.4 -0.52,-0.53 -3.94,0.73 2.05,-3.12 2.9,-4.37 0.31,-3.86 5.45,-3.97 4.85,-7.99 1.44,-1.85 1.09,-4.72 0.22,-6.47 -2.58,1.3 -0.54,6.76 -4.05,8.33 -0.37,1.8 -6.37,4.13 -4.34,1.61 2.04,-1.76 6.02,-3.48 5.71,-6.27 -0.6,1.01 -5.01,3.95 -7.63,4.91 -0.67,3.46 -8.03,3.22 -3.02,1.42 -0.17,-3 -8.22,3.64 -10.24,4.44 -4.6,4.98 -4.81,-0.63 -0.93,-3.13 2.97,-0.32 0.65,-3.1 0.11,-5.05 -3.86,2.43 -10.677,2.91 -12.1,7.77 -0.689,0.53 -4.183,0.56 -5.054,-1.81 -0.08,-4.02 2.559,-1.14 4.764,-1.43 6.88,-1.1 -4.903,-7.22 -5.859,-1.23 -2.698,2.4 -0.37,4.06 1.123,5.11 0.892,1.69 -3.89,9.09 0.583,3.58 3.59,-1.95 6.367,-5.15 10.353,-8.04 -0.82,2.52 -6.893,8.01 -8.58,12.56 0.196,2.81 3.143,-4.08 4.818,-3.51 2.542,1.72 -3.781,2.83 -3.464,5.36 -2.171,1.31 -3.449,3.66 -3.754,6.4 -1.517,5.61 4.002,5.83 3.383,-0.39 0.316,-5.67 5.342,-9.13 8.307,-13.47 2.56,1.85 -4.104,7.4 -5.7,10.02 -0.848,2.22 -1.256,4.6 -2.59,6.91 0.34,2.59 -0.877,6.2 1.063,8.07 1.122,2.6 2.577,1.76 1.827,-1.16 0.463,-2.73 -3.064,-4.34 -1.457,-7.53 -0.925,-3.92 7.627,-9.86 5.387,-4.18 -2.161,1.93 -3.343,5.19 -0.2,2.98 -0.922,2.61 -2.821,5.86 -2.06,9.25 2.54,3.75 2.6,-2.36 3.23,-4.03 3.01,-1.84 6.08,-9.45 1.14,-3.2 -5.643,9.79 0.22,-8.79 3.16,-3.02 5.44,-4.26 -2.06,4.68 -3.05,7.13 -2.45,3.65 -1.47,9.34 1.38,1.68 1.64,-4.42 5.6,-10.13 5.74,-5.8 4.03,-1.78 -0.58,-4.3 3.16,-5.83 3.28,2.25 6.97,-4.85 10.87,-5.91 3.56,3.59 -4.34,2.73 -5.49,5.78 -3.03,1.28 -4.51,4.75 -6.55,6.37 -4.41,1.39 -8.02,5.32 -2.68,2.68 -1.24,2.76 -5.31,2.96 -4.82,5.7 0.45,3 -3.43,3.72 -3.65,1.54 -0.64,2.01 0.21,4.71 0.3,7.25 2.51,2.81 0.71,-4.01 2.64,-4.31 3.25,-1.45 -0.12,5.37 2.8,5.64 2.42,2.13 -1.19,3.96 -1.17,5.45 2.48,4.6 2.05,-0.25 3.44,1.13 3.57,2.15 -0.73,-3.74 -0.27,-5.6 -0.48,-1.59 0.47,-8.2 -0.94,-4.28 -2.88,5.71 4.62,-13.97 -1.01,-3.72 -1.72,2.01 1.41,-6.99 4.23,-5.5 2.13,-3.4 6.37,-6.16 8.56,-8.52 -2.29,1.73 -4.31,-0.89 -0.29,-1.66 3.19,-4.21 4.92,-0.65 1.78,2.87 -2.42,3.02 -6.81,5.14 -8.46,8.06 1.17,0.95 -2.8,5.12 -2.89,8.03 -0.35,3.09 -0.48,6.36 1.9,8.74 -0.92,2.01 0.97,4.7 1.14,7.27 -0.81,5.86 -0.9,-5.03 -2.58,-3.77 -0.84,2.75 0.64,4.13 -2.1,3.03 -2.16,4.07 -0.62,8.66 -2.26,13.15 0.18,4.79 -5.22,11.08 -1.75,14.91 -1.8,2.62 1.1,6.97 -1.55,8.04 -3.352,0.41 -0.76,4.53 0.11,4.56 z m 4.26,-9.77 c 0.38,-2.51 2.56,-4.95 2.71,-8.41 2.55,-1.94 0.84,4.14 0,5.68 -0.82,0.94 -1.81,2.27 -2.75,2.73 z M 207.24,177.4 c -2.08,0.85 -2.47,-5.7 0.1,-3.54 0.31,1.11 1.04,2.74 -0.1,3.54 z m -29.29,-15.85 c -4.57,-0.68 0.1,-2.77 0,0 z m -40.39,-1.84 c -4.63,-0.58 -3.23,-5.43 0.11,-1.81 0.4,0.63 1.32,1.78 -0.11,1.81 z m 28.2,-1.79 c -2.11,0.91 -6.56,-3.84 -2.31,-2.71 0.27,0.85 3.84,1.76 2.31,2.71 z m -34.4,-8.33 c -5.78,-0.96 2.36,-6.52 1.08,-0.44 0.37,0.87 -0.76,0.25 -1.08,0.44 z m 9.68,-3.01 c -3.47,-0.92 0.58,-4.03 1.69,-0.71 -0.51,0.32 -1.01,0.75 -1.69,0.71 z m -3.61,-0.5 c -2.36,-0.35 -3.85,-3.27 -6.11,-4.15 -3.62,-0.25 -0.35,-9.95 0.76,-3.32 2.21,0.46 2.2,4.05 4.74,4.33 1.06,0.97 1.89,2.65 0.61,3.14 z m -33.76,-3.49 c -2.94,-2.23 5.16,-3.42 0,0 z m 41.19,0.23 c -3.22,0.13 -5.32,-9.63 -1.85,-4.84 -0.1,1.84 5.27,4.1 1.85,4.84 z m -43.21,-1.12 c -1.9,-3.46 4.34,-5.27 6.74,-7.06 3.86,1.83 -6.01,4.5 -6.74,7.1 l 0,-0 z m 16.16,-4.89 c -3.26,-1.6 6.96,-5.75 -0.25,-2.45 -7.25,2.77 -0.46,-3.41 3.07,-2.98 2.21,1.55 9.31,-5.02 4.51,-0.21 -2.69,2.26 -2.65,4.07 -6.66,5.64 -0.22,0 -0.45,0 -0.67,0 z m 40.48,-0.38 c -3.03,0.76 -3.85,-4.85 -0.67,-2.4 1.55,0.24 3.43,2.69 0.67,2.4 z m 6.82,-0.37 c -3.75,-1.29 3.41,-2.83 0,0 z m 59.5,0 c -4.87,-0.69 5.87,-1.65 0.99,-0.19 -0.22,0.24 -0.95,-0.33 -0.99,0.19 z m 5.56,-0.38 c -5.72,-0.8 9.14,-2.77 2.51,-0.58 -0.72,0.19 -2,0.61 -2.51,0.58 z m -17.94,88.12 c 4.61,-2.8 -2.48,-0.54 0,0 z m -51.08,-0.3 c 3.27,-0.16 4.79,-3.31 5.8,-6.06 1.94,0.92 2.5,7.14 5.87,1.17 0.95,-4.08 3.2,-4.98 4.16,-2.13 3.48,-0.53 2.5,-5.2 3.83,-5.87 0.99,4.31 3.38,-0.15 2.63,-3.08 -1.56,-5.65 -2.72,3.11 -5.63,3.03 -2.45,2.66 -4.18,0.98 -1.73,-1.79 3.23,-0.23 4.2,-3.32 3.34,-6.09 2.51,0.41 3.69,1.5 3.04,-2.92 -0.38,-3.07 1.07,-5.54 -1.52,-8.12 -1.99,-4.04 -5.08,-7.65 -8.54,-10.36 -2.11,4.65 -0.23,4.7 2.75,5.76 1.51,1.59 5.69,4.33 4.08,6.5 -1.76,-1.84 -9.95,-10.96 -3.8,-3.06 2.68,4.08 -1.97,0 -2.95,-1.76 -2.16,1.52 -0,5.49 -0.3,7.99 -0,6.98 -4.18,13.47 -9.19,18.04 -0.5,2.6 4.82,1.27 0.45,4.28 -1.92,0.12 -7.72,-0.2 -3.81,2.54 0.98,0.62 0.48,2.17 1.52,1.93 z m 47.93,-0.56 c 3.18,-0.17 7.57,-7.33 1.8,-6.42 -1.56,-1.46 -4.33,8.65 -1.8,6.42 z m -116.2,-0.56 c 2.64,-1.25 5.479,-2.91 7.16,-5.09 1.37,-4.5 -3.868,0 -5.921,-0.29 -5.449,0.3 -1.602,1.31 -1.768,4.69 -0.308,-0.14 0.648,1.31 0.529,0.69 z M 113.32,222 c 1.42,-1.75 -2.28,-1.38 0,0 z m 91.29,0 c 4.6,-2.23 -0.1,-3.75 -0,-0.12 l 0,0 0,0.12 z m 26.31,0 c 2.57,-2.01 -2.39,-2.15 0,0 z m -75.45,-1.23 c 1.07,-4.2 9.8,-3.8 1.25,-4.38 -3.02,-2.04 -5.76,3.48 -2.66,4.78 0.8,1.05 0.85,0.28 1.41,-0.4 z m -66.01,0.48 c 3.995,0.73 0.52,-4.97 -1.46,-2.67 2.915,-0.32 -1.616,3.51 1.46,2.67 z m 58.89,-1.5 c 4.81,-0.86 -1.7,-2.56 0,0 z m 79.37,0 c 8.63,-2.56 -0.38,-4.64 -0.44,0.11 l 0.44,-0.11 z m -12.23,-2.52 c 3.34,-1.19 -2.6,-0.98 0,0 z M 95.57,214.97 c 6.51,-1.76 -2.02,-4.32 0,0 z m 5.79,-1.67 c 1.74,-3 -2.151,-0.47 0,0 z m 12.9,-4.51 c 1.46,-6.68 -2.16,3.59 0,0 z m 71.08,-1.12 c 2.56,-4.49 -4.14,-6.23 -0.64,-0.46 0.24,0.1 0.11,1.26 0.64,0.46 z m -71.16,-2.03 c 2.41,-1.79 -1.96,-6.97 -1.63,-2.77 -0.43,1.02 0.62,3.48 1.63,2.77 z m 75.21,-3.61 c -0.12,-4.4 -3.43,-7.8 -3.15,-1.69 0.72,0.7 2.65,3.03 3.15,1.69 z m -4.98,-2.44 c 4.41,-5.87 -4.27,-3.84 0,0 z m 49.81,-0.4 c 1.78,-2.19 -9.1,-5.04 -4.87,-2.38 1.62,0.8 3.22,1.7 4.87,2.38 z m -117.46,-1.77 c 0.82,-2.57 -2.12,0.31 0,0 l 0,0 z m 67.85,-2.7 c 0.91,-2.93 -2.84,-7.23 -5.02,-9.89 -2.29,-1.77 -3.97,-4.99 -6.63,-5.87 -1.97,2.42 7.04,5.63 7.39,9.37 1.53,2.05 2.13,4.85 4.26,6.39 z m -66.68,-1.08 c 0.81,-4.27 -3.01,-1.75 0,0 z m 1.8,-1.55 c 1.47,-1.16 1.94,-6.22 -0,-6.57 -2.4,-0.23 -0.96,6.05 0,6.57 z m 67.03,-0.29 c 2.99,-1.8 -2.12,-0.99 0,0 z m 5.24,-2.11 c 1.18,-1.96 1.77,-5.98 -0.81,-6.99 -2.62,-0.85 -0.51,8.82 0.81,6.99 z m -7.03,0.21 c -0.37,-4.52 -6.87,-12.35 -11.82,-14.82 0.5,5.5 9.36,9 11.63,14.82 l 0.19,0 z m 1.5,-1.31 c 0.85,-1.85 -2.1,-6.92 0.82,-2.47 1.01,4.47 4.34,1.27 0.81,-0.71 -3.2,-2.75 -1.88,-9.68 0.58,-3.75 3.6,3.4 -1.13,-3.75 0,-5.27 -2.05,-2.44 4.32,0.76 3.92,5.18 3,6.66 2.12,-4.27 -0.83,-5.7 2.72,-1.7 -3.18,-0.43 -3.94,-2.41 -5.11,-6.48 1.66,5.49 -3.26,-0.66 -7.08,-6.53 4.25,6.71 0.69,4.68 -0.66,0.5 -0.56,1.95 -3.23,-1.4 -3.23,-2.68 -7.13,-8.24 -1.25,-2.51 3.62,4.49 2.7,-0.64 0.1,-2.55 -0.65,-3.26 -0.98,-2.03 -4.75,-3.1 3.16,3.19 -2.36,0.53 0.48,4.69 4.2,1.55 10.74,15.41 4.59,5.59 -1.54,-3.3 -10.02,-7.09 -4.25,-2.43 3.74,3.89 6.43,8.72 9.36,13.23 l 0.36,-0.23 -0.15,-0.18 z m -69.66,-3.57 c 0.41,-2.79 -3.19,-5.96 -3.04,-9.56 -1.99,-0.13 -0.39,9.25 3.04,9.56 z m 5.22,-0.86 c -0.86,-6.03 0.24,-0.62 1.52,-1.84 -0.69,-2.47 1.72,-4.46 -2.17,-2.52 -2.53,-1.28 -2.63,2.83 -0.1,4.21 0.18,0 0.76,1.22 0.71,0.15 z m -17.27,-1.75 c 3.15,-1.45 -3.63,-1.3 0,0 z m 12.99,-0.76 c 1.11,-0.1 -1.17,-5.48 -2.15,-4.57 -1.22,1.49 0.56,4.6 2.15,4.57 z m 78.58,-1.12 c 4.77,-1.13 -1.93,-6.4 1.67,-5.65 -0.69,-3.16 -4.48,-0.17 -1.72,2.95 1.12,2.1 -3.48,0.84 0.1,2.7 z m -70.76,-1.21 c 5,-4.75 -2.69,-5.17 -0.75,0.18 0.19,0.65 0.49,-0 0.75,-0.18 z m -23.46,-1.05 c 2.14,-2.62 -3.376,-1.97 0,0 z m 92.09,-1.13 c 2.75,-1.68 -3,-1.74 0,0 z m -71.8,-0.75 c 1.24,-1.8 -2.6,-3.48 -0.54,-0.12 l 0.35,0.1 0.19,0.1 z m 2.03,-0.27 c 3.07,-3.49 -1.62,-7.4 -0.69,-1.04 -0.88,0.45 1.12,2.01 0.69,1.04 z m -22.18,-0.9 c 4.57,-0.1 -3.686,-3.57 -1.69,-0.33 0.29,-0.1 1.79,0.97 1.69,0.33 z m 27,0 c 0.34,-1.57 8.92,-1.09 2.52,-2.63 -1.33,-0.8 -2.82,0 -4.71,-2.63 -2.68,2.68 3.83,2.67 2.17,5.22 l 0,0 -0,0 z m 10.44,-0.48 c 3,-4.29 -3.23,-2.33 -5.37,-4.55 -5.28,-2.24 -0.71,-3.12 2.11,-3.48 -2.05,0.29 -8.4,-7.11 -6.76,-1.84 -0.45,1.79 1.79,0.95 0.98,4.17 2.35,3.93 4.98,3.13 8.14,5.47 0.12,0.75 0.52,0.43 0.9,0.23 z m -25.58,-0.64 c 1.49,-3.56 -3.67,-6.17 -0.84,-0.63 l 0.1,0.1 0.75,0.53 0,0 z m -27.05,-1.57 c 5.74,-2.59 -4.056,-2.46 -1.751,-0.25 0.353,-0.17 1.804,0.89 1.751,0.25 z m 9.68,0 c 2.535,-1.02 0.775,-5.5 -1.37,-4.2 1.213,1.28 0.977,3.37 1.37,4.2 z m 94.6,0 c 3.23,-0.69 2.67,-0.61 -0,-2.61 -0.6,0.89 -2.21,2.61 0,2.61 z m -97.6,-0.75 c 1.273,-0.16 -2.213,-4.01 -4.046,-3.4 -1.857,3.6 1.375,0.1 2.97,3.2 0.203,0.44 0.728,0.11 1.076,0.2 z m 95.15,-1.13 c 1.85,-1.3 -2.75,-3.66 -3.97,-2.34 -4.62,-1.44 -2.35,0.19 -0.26,2.38 1.24,-2.01 2.73,1.05 4.23,-0 z M 82.71,169.71 c 7.89,0.49 4.653,-4.72 -1.23,-1.65 -0.831,1.3 -0.148,2.17 1.23,1.65 z m 10.32,-0.94 c 3.457,-2.08 -1.958,-0.98 -0.15,-5.78 -1.53,-1.78 -0.04,-8.41 -3.059,-4.31 0.115,1.79 2.102,0.61 1.063,4.29 -0.986,1.66 -1.195,-4.94 -3.184,-0.96 -0.933,-5.03 -3.078,2.62 -3.21,-2.97 -3.335,-0.74 2.331,-6.46 -1.86,-6.15 -2.022,0.7 -6.283,-5.49 -8.294,-2.22 -3.945,-1.27 -2.236,2.83 1.035,1.88 4.347,-1.15 2.514,2.11 4.069,3.93 3.542,-4.78 0.643,0.1 1.252,3.11 1.831,1.71 3.027,4.19 7.333,3.55 0.388,2.21 4.091,3.18 4.705,5.59 l 0.3,0 z m 132.15,-0.37 c 2.67,-2.77 -4.3,-4.01 -1.32,-0.86 l 1.32,0.86 0,0 z M 78.66,167.62 c 1.548,-2.77 -2.838,0.97 0,0 l 0,0 z m 19.8,0.21 c 1.81,-1.29 1.004,-6.66 -2.13,-4.82 1.75,0.92 0.337,4.96 2.13,4.82 z m 92.92,-0.21 c 8.08,-1.25 -5.64,-1.63 0,0 z m -12.76,-0.37 c 0.86,-1.49 -3.56,-1.08 0,0 z m -94.59,-0.38 c 6.074,-0.12 -1.8,-5.05 -1.11,0 0.37,0 0.74,0 1.11,0 z m 105.36,-1.48 c 2.86,-1.71 5.71,-0.58 2.04,-2.78 -0.96,-3.71 -5.92,0.66 -2.06,1.26 0.1,0.32 -0.95,2.07 0,1.52 z m -16.22,-0.75 c 5.71,-0.27 -7.19,-4.77 0,0 z m 3.84,0 c 3.93,-0.89 -2.74,-1.78 0,0 z m 9.48,-0.98 c 2.01,-3.48 -3.46,-0.59 0,0 z m 6.27,-1.65 c 2.17,-2.3 -4.61,-4.17 0,0 z M 78.25,161.26 c 4.464,-1.01 -0.887,-5.94 -1.28,0 0.378,0 1.039,0 1.28,0 z m 108.43,-1.92 c 4.1,0.33 1.06,-3.19 -1.03,-0.74 -1.31,0.19 0.9,1.7 1.03,0.74 z M 86.26,158.63 c 3.76,-1.17 -0.468,-8.23 -0.789,-2.89 -0.658,1.22 0.1,1.99 0.789,2.89 z m -9.06,-2.32 c 1.82,-3.02 -2.822,-2.18 -4.32,-2.65 -2.994,0.47 3.753,3.61 4.32,2.65 z M 96.51,156 c 3.54,-3.11 -3.249,-3.9 0,0 z m 89.69,-1.51 c -0.15,-1.98 -3.41,-1.5 0,0 z M 86.12,151.11 c 1.593,-3.17 -2.246,0.75 0,0 z m -3.76,-0.37 c 3.473,-1.01 2.151,-4.83 -0.92,-2.43 0.11,0.84 -0.424,2.38 0.92,2.43 z m -8.58,-1.11 c 3.099,-2.11 -3.452,-2.45 0,0 z m 6.2,0 c 1.36,-0.93 -0.457,-4.71 -0.88,-6.12 -1.215,1.23 -0.49,6.03 0.88,6.12 z m 6.41,-0.21 c 4.481,-1.27 2.897,-7.64 6.356,-10.33 2.639,-3.77 -0.938,-3.54 -2.641,-0.49 0.06,3.34 -3.38,4.54 -2.695,8.98 -1.25,-0.16 -3.006,2.85 -1.02,1.84 z m -17.33,-2.53 c 2.424,-1.98 -3.66,-2.06 0,0 z m 12.63,0 c 4.622,-1.51 -1.128,-6.9 3.858,-7.09 -0.84,-2.25 -6.927,-0.27 -5.238,4.13 4.137,-0.8 -1.981,2.82 1.38,2.96 z m -6.16,-0.37 c 1.043,-1.64 -3.42,-2.38 0,0 z m -4.82,-0.38 c 3.46,-3.47 -1.932,-2.78 0.02,0 l -0.02,0 z m 6.14,-0.75 c 2.422,-3.14 3.364,-5.06 4.38,-9.41 -3.853,-0.23 -1.79,-7.15 -5.41,-11.17 -2.348,-3.93 -3.014,-8.93 -6.68,-11.94 0.115,-4.5 -6.378,-5.22 -7.137,-8.98 -0.132,-5.241 -2.64,3.08 -4.093,2.31 -0.328,2.48 7.281,5.4 4.003,6.55 -2.373,-2.01 -6.873,0.93 -4.788,3.66 1.946,4.15 3.808,-2.49 6.825,-1 3.251,-0.53 2.721,3.15 2.88,4.28 -1.584,2.34 0.223,6.14 -4.26,4.76 -3.788,1.78 2.069,7.24 3.73,3.57 3.446,-2.13 4.175,1 5.45,3.34 0.542,1.2 -3.495,4.84 -1.54,6.91 0.133,-1.64 1.863,-6.23 3.63,-4.05 -0.713,0.62 -4.438,8.06 -1.032,5.42 3.402,-3.92 0.984,1.08 1.032,3.45 1.357,-3.63 3.897,-4.16 2.563,0.36 -0.179,0.53 1.287,2.03 0.447,1.94 z m 9.83,-1.88 c 3.781,-3.41 -2.977,-2.69 0,0 z m 136.76,0 c 3.32,-2.02 -7.84,-4.36 -3.65,-1.35 1.04,0.78 2.6,0.79 3.65,1.35 z M 86.01,135.6 c 2.753,-1.47 -3.425,-4.45 -0.292,-1.52 -0.06,0.56 -0.612,2.06 0.292,1.52 z m -17.83,-0.69 c -0.03,-0.4 0.697,-5.38 -0.844,-3.66 -0.687,1.18 -1.075,3.44 0.844,3.66 z m 18.96,-2.09 c 0.773,-1.74 -2.225,-0.33 0,0 z m 5.7,-1.27 c 3.576,-0.87 -2.781,-0.98 0,0 z m -6.16,-2.63 c 2.697,-0.34 3.151,-5.57 0.277,-1.67 -0.244,0.53 -1.204,1.72 -0.277,1.67 z m -27.54,-0.65 c -0.743,-1.53 -0.06,-0.34 0,0 z m 78.38,-0.48 c 2.26,-0.71 -2.11,-1.33 0,0 z m -39.84,-1.13 c 4.94,-1.41 3.68,-2.18 -0.27,-2.25 6.22,0.16 -0.952,-2.95 -2.428,-1.67 -1.622,-1.88 -8.108,-3.76 -5.17,-1.54 -0.378,3.03 3.803,3.35 5.428,3.59 -2.631,2.16 2.107,0.39 2.44,1.87 z m 11.97,-1.5 c 0.82,-4.32 1.04,-5.04 2.6,-0.73 2.25,-3.61 2.35,0.69 4.7,-2.09 2.32,-1.68 0.93,2.63 4.09,-0.85 4.3,1.36 2.6,-5.99 4.1,-2.26 -1.31,1.25 3.22,2.13 3.22,-0.66 5.23,-1.5 -4.06,-1.36 -5.94,-1.38 -0.53,5.79 -4.74,-0.84 -6.61,-1.15 -1.56,2.36 -4.78,3.31 -6.65,1.38 -1.96,-1.54 -0.72,-6.65 -4.8,-3.14 -2.69,-2.16 -6.166,3.55 -2.82,1.53 4.5,-0.33 -0.66,4.38 4.26,4.51 2.29,-0.35 2.58,4.58 3.85,4.84 z m 13.71,0 c 4.19,-1.51 -2.03,-2.53 -0.38,0 l 0.19,0 0.19,0 z m -59.41,-2.63 c 1.982,-4.73 -3.979,-4.6 -0.69,-0.52 l 0.66,0.56 0.03,-0 z m 36.66,-0.38 c 3.6,-1.38 -4.634,-1.38 0,0 z m 26.84,0 c 2.17,-1.07 -4.69,-1.66 0,0 z m -32.02,-0.41 c 2.253,-1.51 -2.549,-4.5 -4.198,-5.24 -4.702,1.56 1.958,2.47 2.588,4.84 l 1.61,0.38 0,0 z m 5.38,-2.74 c 0.32,-3.07 -2.08,-0.44 0,0 z m -46.8,-1.33 c 4.304,-1.72 -3.563,-3.22 0,0 z m 66.28,-0.38 c 2.43,-0.87 -3.15,-1.33 0,0 z m 6.68,-0.38 c 0.19,-1.37 2.95,-1.33 5.17,-3.03 3.25,-2.72 -4.66,0.13 -2.31,-2.23 -2.67,5.95 -5.89,-0.1 -1.98,-1.41 4.66,0.7 2.53,-5.96 -1.48,-4.95 -2.75,0.81 -5.87,-2.33 -8.14,-0.4 -3.28,1.95 -0.67,-4.17 -4.18,-4.3 1.78,-1.892 7.77,3.41 7.12,-2.643 0.57,-2.477 -2.49,-7.502 1.18,-7.934 6.61,-0.431 -0.5,3.188 3.18,3.497 4.1,-0.944 8.77,0.856 12.57,-1 -0,-2.914 -3.86,-4.172 -5.48,-6.376 -5.14,-3.39 -11.47,-4.938 -17.59,-5.694 -1.43,2.99 -8.24,1.404 -6.22,5.349 1.6,1.886 4.16,4.768 6.51,4.151 -1.4,-1.619 -0.68,-3.904 1.96,-1.56 4.67,1.913 -2.67,4.778 -3.39,7.12 1.61,5.67 -3.52,-1.97 -3.91,0.91 -0.1,3.5 -2.6,1.527 -2.92,-2.04 0.49,-1.881 -4.96,-8.454 -0.84,-6.54 3.58,2.017 -1.13,-4.63 -3.21,-4.71 -0.99,-3.786 -2.24,-4.242 -2.06,0.414 0.58,4.321 2.52,3.735 -1.321,4.227 -0.03,2.575 2.761,3.959 1.961,6.649 5.46,0.07 5.19,3.951 3.16,5.259 -2.18,0.168 -4.839,-6.446 -6.94,-1.999 5.09,1.289 -2.272,0.599 1.272,3.19 1.278,3.09 5.318,-2.383 4.008,1.17 -3.337,-0.18 -0.48,5.36 -3.38,2.25 -2.519,-3.92 -3.886,1.86 0.54,2.26 2.02,3.58 -1.415,4.46 -3.84,4.03 1.756,4.61 8.28,3.16 6.55,-2.38 0.58,-3.13 2.22,-8.303 5.93,-8.06 1.4,1.84 -1.3,4.54 0.63,6.56 2.15,3.84 5.02,-2.16 7.49,-0.41 0.37,1.56 1.57,5.16 4.18,3.19 1.19,-2.08 3.66,-4.43 5.93,-2.41 0.79,3.14 -0,6.88 -2.74,8.83 0.84,-0.34 6.32,0.66 2.59,1.02 z m -13.32,-12.46 c -1.77,0.11 -5.06,-6.042 -0.82,-4 1.8,0.39 1.78,4.07 0.82,4 z m -4.05,-1.44 c -2.36,-2.17 1.67,-4.983 0,0 z m -4.65,-8.73 c -1.61,-4.21 -0.17,-2.586 0,0 z m -9.29,21.8 c 3.101,-0.29 -0.398,-3.99 -1.444,-3.78 0.453,2.21 -2.541,3.98 1.444,3.78 z m 36.3,0 c 2.88,-1.67 -2.49,-1.05 0.1,0 l -0.1,0 z m -20.19,-0.29 c 2.71,-0.21 3.95,-5.2 0.15,-4.41 -2.53,-0.21 -2.25,4.25 -0.15,4.41 z m 7.06,-1.32 c 2.04,-4.32 -3.89,2.47 0,-0.14 l 0,0.14 z m 4.66,-0.98 c 1.72,-3.53 -2.53,1 0,0 z m -31.92,-0.33 c 2.715,-0.53 -2.44,-1.23 -0.242,0 l 0.242,0 z m 12.21,-0.75 c 2.42,-1.13 -2.94,-1.28 0,0 z m 2,-0.76 c 5.3,-0.61 -4.22,-1.26 0,0 z m 17.89,-0.79 c 1.49,-3.97 -3.64,0.14 -0.1,0 l 0.1,0 z m -29.56,-0.33 c 4.276,-3.08 -3.735,-3.39 0,0 z m 9.08,-1.13 c 1.77,-2.51 -1.44,-3.17 0,0 z m -32.94,-1.57 c 3.42,-1.76 -2.286,-2.61 -3.24,-4.32 -4.296,1.02 2,5.36 3.24,4.32 z m 21.04,0 c 3.132,-3.01 -2.36,-0.22 0,0 z m 44.58,-0.69 c 5.4,-2.73 -4.65,-1.54 0,0 z m -40.15,-0.37 c 0.858,-3.29 -3.802,-3.42 0,0 z m 37.1,0 c 7.44,-3.28 -6.93,-1.57 0,-0 l 0,0 z m -6.16,-2.23 c 2.46,-1.52 5.87,-1.03 9.16,-1.52 3.95,0.46 -3.79,-2.69 2.26,-4.16 -3.25,-4.008 -5.46,0.925 -7.99,1.92 -1.25,2.19 -5.19,0.93 -7.08,-0.42 -3.56,3.32 4.35,2.82 0.92,3.82 0.77,0.11 2.67,0.61 2.73,0.36 z M 94.3,102.72 c 1.297,-2.07 -2.492,0.36 0,0 z m 0.86,-1.19 c 3.89,-0.56 -0.364,-4.475 -2.09,-2.07 -0.595,0.97 1.482,1.95 2.09,2.07 z m 30.79,-1.09 c 1.68,-2.214 -4.78,-1.543 0,0 z m 1.65,-0.75 c 5.94,-0.289 -5.26,-4.297 0,0 z m -0.82,-2.94 c 4.41,-1.273 -0.42,-3.282 -0.48,-0.09 0,1.375 0.51,-0.361 0.48,0.09 z m 5.62,0 c 7.24,-0.606 -1.22,-3.598 -0.9,-0.38 -0.1,1.029 1.24,-0.07 0.9,0.38 z m -29.58,-0.21 c 4.11,-1.295 -4.239,-1.362 0,0 z m -3.28,-0.75 c 2.04,-2.912 -6.364,-4.949 -1.71,-1.23 l 1.072,0.848 0.638,0.382 0,0 z M 108,93.91 c 3.37,-1.446 -3.12,-2.733 0,0 z m 31.98,-1.02 c 2.09,-4.371 -3.11,0.676 -0,0.05 l 0,-0.05 0,0 z m 2.82,-1.61 c 1.98,-1.42 -2.65,-1.433 0,0 l -0,0 z M 109.12,90.9 c 2.57,-1.28 -4.19,-1.54 0,0 z m 33.24,-1.5 c 4.15,-1.025 -1.63,-2.135 0,0 z M 97.52,88.27 c 2.61,-3.005 -2.031,-1.524 0,0 z m 40.75,-1.15 c 2.27,-0.884 3.15,-4.251 5.86,-2.324 1.9,-3.176 -6.33,-0.925 -7.87,-0.35 -4.04,0.671 0.42,2.65 2.01,2.674 z m -28.21,-5.67 c 2.03,-1.302 0.57,-6.033 -1.94,-6.742 -3.91,-0.41 3.26,5.626 1.67,6.642 l 0.38,-0.09 -0.11,0.19 z m -7.55,-1.8 c -1.34,-1.83 1.91,-3.356 -0.82,-5.228 -1.726,0.428 -0.1,4.521 0.82,5.228 z m 3,-3.76 c 1.65,-1.741 -4.84,-1.994 0,0 l 0,0 z m -1.5,-3.297 c 2.8,-4.254 -3.37,0.543 0,0 z"/></g>
</svg>
