<?xml version="1.0" encoding="UTF-8" standalone="no"?>
<!DOCTYPE svg PUBLIC "-//W3C//DTD SVG 1.1//EN" "http://www.w3.org/Graphics/SVG/1.1/DTD/svg11.dtd">
<svg xmlns="http://www.w3.org/2000/svg" width="300px" height="350px">
<g>
<path id="fill" d="m 91.594,50.45 c -7.292,0.4 -13.653,4.5 -18.947,9.17 -4.823,3.89 -9.018,8.58 -11.219,14.45 -1.316,2.72 -3.92,7.25 -0.959,9.76 4.33,0.95 8.056,-4.71 12.593,-2.88 9.076,1.04 16.786,7.03 22.117,14.24 3.007,3.74 6.111,7.47 7.541,12.2 1.54,4.07 3.95,7.81 3.5,12.37 -0.25,1.49 1.38,3.68 0.66,4.28 -3.62,0.13 -7.419,3.16 -6.88,7.1 0,4.6 0.24,9.26 0.5,13.81 1.6,2.74 5.97,0.46 7.72,1.78 0.33,9.51 -4.09,18.47 -8.97,26.38 -4.125,6.03 -8.683,11.91 -14.156,16.65 -2.895,0.93 -4.097,4.13 -6.375,5.88 0.761,9.56 0.399,19.16 1,28.72 -0.913,5.15 0.275,10.44 0.09,15.72 0.527,2.69 -1.589,7.09 1.719,8.47 10.667,0.59 21.382,-0.8 32.062,-0.1 14.69,0.33 29.43,0.1 44.09,0.22 7.24,1.5 14.42,-0.56 21.76,0.27 2.85,0.39 5.92,-0.52 8.4,-0.64 1.82,2.71 4.78,-1.52 6.94,0.22 9.67,-0.53 19.38,-0.66 29.03,-0.59 3.23,0 1.44,-3.81 1.75,-5.85 -0.33,-14.46 -0.51,-28.95 -0.52,-43.41 0.29,-3.13 -0.16,-7.16 -3.79,-8.09 -6.26,-3.42 -11.39,-8.53 -15.75,-14.03 -4.95,-5.18 -7.19,-12.34 -10.66,-18.49 -0.93,-4.09 -3.55,-8.31 -2.06,-12.67 3.3,1.43 7.6,-0.48 7.6,-4.34 -0.16,-3.55 -0.83,-7.1 -0.16,-10.69 0.37,-2.47 -0.22,-6.57 -3.38,-6.37 -2.29,1.4 -6.17,0.15 -5.53,-2.94 0.87,-6.85 2.9,-13.6 5.57,-19.88 3.2,-5.24 8.22,-9.27 12.58,-13.52 2.99,-2 6.45,-3.94 9.82,-4.95 2.99,0.13 5.78,-2.72 8.75,-1.06 3.85,0.1 8.17,0.1 11,2.66 2.83,0.55 1.84,-3.3 1.28,-4.78 -1.67,-6.46 -7.78,-10.31 -12.42,-14.31 -5.81,-4.16 -11.14,-9.88 -18.67,-10.32 -3.18,-0.25 -6.35,-0.71 -9.22,-2 -2.63,-1.01 -4.67,1.43 -7.25,0.69 -6.8,0.18 -13.14,2.93 -19.38,5.13 -5.64,3.53 -10.29,8.53 -15.57,12.67 -2.47,1.89 -4.17,4.31 -5.33,7.11 -0.82,2.27 -4.05,2.87 -5.25,0.62 -1.58,-2.28 -2.62,-4.79 -5.08,-6.4 C 133.87,64.55 124.99,56.82 113.75,53.2 106.98,49.64 99.008,50.59 91.591,50.42 z"/><path id="outline" d="m 215.33,83.75 c 4.99,-0.88 -5.44,-1.29 0,0 z m -27.29,6.67 c 1.2,-5.3 10.64,-12.19 16.46,-16.41 4.09,-2.99 -2.82,-2.71 -4.98,-2.52 -8.08,-0.55 -16.89,1.21 -22.85,7.04 -4.6,5.57 -6.2,0.45 -1.28,-1.58 7.81,-5.46 17.33,-8.51 26.84,-7.94 2.47,0.84 5.73,0.66 8.01,2.48 -3.63,3 -10.5,6.82 -14.63,11.06 -2.44,2.25 -5.42,7.09 -7.57,7.87 z M 106.95,98.9 C 103.88,94.74 99.745,90.14 95.707,86.23 92.668,82.09 87.794,80.37 84.08,77.06 79.751,75.72 75.34,75.52 70.89,76.32 c 1.721,-3.05 7.505,-2.77 10.638,-2.29 2.552,1.69 6.22,2.37 8.122,4.64 2.304,1.92 5.223,3.71 7.211,6.34 2.092,2.59 5.459,4.66 6.769,7.57 0,1.86 6.15,5.02 3.32,6.32 z m 3.99,8.92 c -1.68,-1.56 -3.31,-5.09 -3.42,-7.73 1.5,-0.62 5.31,7.15 3.42,7.73 z m 6.84,8.9 c -3.93,-3.31 -1.84,-10.51 -5.29,-12.91 C 108.25,91.56 99.231,81 87.776,74.94 85.603,74.69 79.297,72.01 84.15,71.49 c 6.905,0.74 12.409,6.79 17.39,11.2 7.51,7.47 11.46,17.59 15.58,27.13 -0.44,2.31 2.66,5.07 0.66,6.9 z m 62.06,5.65 c -2.9,-0.41 -0.89,-5.42 -0.94,-7.69 2.38,-8.36 6.03,-16.54 11.4,-23.42 7.37,-7.73 15.16,-15.53 25.65,-18.78 4.69,-2.18 -5.27,-4.89 -7.83,-5.04 -5.39,-0.92 -10.77,-1.46 -16.17,-0.25 -8.31,0.7 -16.48,4.78 -22.26,10.69 -1.54,2.51 -7.07,9.76 -5.47,2.98 6.98,-7.66 15.97,-13.61 26.1,-15.99 6.55,0.24 13.27,-0.48 19.71,0.37 5.05,1.46 9.79,3.83 13.57,7.56 -12.11,0.73 -22.08,8.75 -30.34,16.93 -6.58,7.93 -10.2,17.9 -12.42,27.88 -0.64,1.1 0.23,4.33 -1,4.76 z m -4.86,1.04 c -3.22,-1.98 0,-7.78 -0.17,-10.93 1.07,-7.01 5.61,-12.93 9.79,-18.49 5.65,-6.79 -2.65,7.02 -4.81,10.29 -3.72,5.59 -2.8,12.83 -4.39,19.03 l -0.49,0.1 0.1,0 z m -63.3,1.34 c 3.21,-0.93 0.86,-5.52 1.25,-8.06 -1.13,-3.95 -1.41,-12.21 1.01,-3.72 1.64,2.91 -1.39,11.59 3.66,10.89 0.38,-1.1 -1.08,-8.77 1.18,-5.16 -1.33,3.33 2.96,8.9 2.1,2.68 -0.9,-12.99 -5.57,-25.81 -13.64,-36.01 -2.98,-2.23 -11.543,-11.5 -2.97,-6.65 8,7.35 12.42,17.59 16.39,27.37 1.95,5.68 1.83,11.88 1.83,17.91 4.67,1.45 2.97,-3.93 3.6,-6.82 -1.12,-6.03 -2.4,-12.62 -5.41,-17.81 -2.86,-6.54 5.01,-1.03 4.11,3.66 2.2,5.92 3.67,12.35 4.09,18.66 -0.1,3.94 5.33,1.89 7.85,2.39 8.85,0 17.7,0 26.55,0 1.84,-5.63 1.29,-12.4 3.63,-18.18 2.07,-4.71 4.71,-9.37 7.52,-13.71 2.72,-2.64 4.21,-7.07 7.89,-8.34 5.55,-3.77 -6.13,8 -6.85,10.85 -2.41,5.28 -5.77,10.1 -7.18,15.92 -1.33,4.33 -2.44,8.59 -1.96,13.16 4.32,2.04 1.26,-3.8 2.04,-6.08 2.48,-10.9 8.35,-20.77 15.12,-29.48 3.08,-4.31 9.32,-8.69 11.63,-12.06 -3.8,-0.58 -7.9,1.85 -11.49,3.26 -2.23,2.35 -9.53,5.23 -3.79,0.12 4.79,-2.55 9.83,-6.07 15.44,-5.67 7.15,-1.31 1.82,4 -1.51,5.91 -2.31,3.85 -6.05,5.78 -8.7,9.47 -4.78,4.85 -7.12,11.58 -11.38,16.74 0.97,3.59 -3.09,7.21 -2.75,11.16 0.38,2.4 -2.16,7.52 1.82,7.25 3.54,-0.22 7.66,0.46 10.83,-0.68 0.38,-2.63 0.1,-6.85 1.29,-10.29 2.55,-6.88 4.07,-14.85 9.73,-19.94 -0.1,-3.14 3.81,-4.7 5.48,-7.13 6.42,-7.49 16.15,-10.71 25.65,-12.08 3.86,-0.95 -1.83,-4.03 -2.74,-5.68 -6.07,-4.26 -13.44,-6.56 -20.76,-7.33 -6.73,-0.95 -14.6,1.17 -21.16,3.57 -4.24,2.06 -8.43,4.11 -11.79,6.97 -4.85,4.62 -9.45,9.72 -11.11,16.36 -4.94,-0.44 1.94,-8.01 3.15,-10.25 2.3,-2.96 5.09,-5.44 8.05,-7.66 6.72,-6.07 15.36,-9.69 24.34,-10.72 7.17,-1.01 14.67,0.89 21.56,2.9 6.4,2.15 10.87,7.12 15.56,11.67 -0.36,4.16 -7.86,1.53 -11.07,3.32 -4.84,1.34 -9.54,2.91 -13.46,6.16 -3.71,2.36 -6.46,5.92 -9.77,8.79 -2.28,3.29 -5.18,8.92 -6.86,13.85 -1.03,5.71 -4.51,11.53 -3.23,17.37 3.58,2.75 2.83,-3.68 3.02,-5.97 0.93,-8.43 4.85,-15.88 9.33,-22.92 2.61,-1.02 3.22,-5.19 6.09,-6.1 2.24,-3.48 6.53,-3.38 9.45,-6.15 4.72,-3 10.59,-2.88 15.93,-3.83 7.68,2.86 6.56,-3.66 1.14,-6.77 -7.21,-7.56 -16.95,-12.49 -27.25,-14.24 -7.09,-1.48 -14.88,-0.16 -21.71,1.89 -3.79,2.79 -9.46,3.39 -12.14,7.11 -4.03,0.74 -5.99,5.26 -9.11,7.65 -3.1,0.64 -3.33,4.53 -5.55,4.58 0.34,0.95 -1.58,4.48 -2.4,6.76 -1.89,2.2 1.13,7.22 -2.37,7.46 -3.01,-0.42 -1.3,-5.35 -3.68,-7.04 -4.77,-10.29 -14.02,-17.54 -23.16,-23.73 -7.85,-3.52 -16,-7.72 -24.83,-6.75 -4.735,0.15 -9.709,-0.85 -13.9,1.93 -7.834,2.51 -13.453,8.51 -18.46,14.7 -0.25,2.59 -3.735,4.69 -1.26,7.61 5.226,-1.76 10.837,-1.73 15.882,0.62 5.279,1.46 9.78,5.03 13.602,8.82 5.096,6.25 10.986,12.22 13.136,20.2 3.19,3.55 2.77,13.96 3.9,15.57 l -0.43,-0.25 z m 27.39,17.99 c 18.8,-0.22 37.61,-0.38 56.41,-0.37 2.45,-1.62 0.49,-5.73 1.11,-8.39 0.17,-2.97 0.77,-7.57 -3.73,-6.29 -4.43,-0.1 -9.15,0.75 -13.41,0.11 -4.45,-3.67 -0.99,1.06 -5,0.43 -23.33,0.27 -46.79,0 -70.03,0.88 0.17,4.63 -0.34,9.51 0.25,13.98 9.45,0.57 19.38,-0.1 29.01,0.1 1.62,-0.27 4.41,0.47 5.39,-0.41 z m 48.6,44.36 c -6.92,-6.82 -10.62,-16.31 -13.66,-25.38 0.64,-2.86 -4.55,-12.51 -0.22,-12.49 0.53,6.15 0.62,12.52 3.98,17.92 2.37,6.93 6.16,13.05 10.74,18.71 -0.23,0.45 -0.26,1.02 -0.84,1.24 z m -8.3,1.66 c -5.38,-3.39 -7.79,-10.25 -11.41,-15.77 -2.5,-6.17 -4.48,-12.96 -4.78,-19.69 2.99,-3.65 2.58,2.87 2.88,4.85 1.55,4.66 2.14,10.06 4.91,13.96 2.12,3.73 3.23,8.49 6.56,11.97 0.6,1.12 3.59,3.39 1.84,4.68 z m -77.52,0.25 c -1.75,-2.05 4.84,-7.03 6.33,-10.33 4.14,-7.72 7.35,-15.85 9.28,-24.42 3.16,0.67 0.1,7.31 -0.69,9.96 -3.26,8.96 -7.17,17.81 -13.91,24.74 0,0.35 -1.06,-0.35 -1.01,0 z m 100.37,2.23 c -4.25,-2.45 -7.77,-6.9 -10.34,-11.2 -3.86,-3.36 -1.67,-9.04 1.02,-2.04 2.05,5.17 8.65,8.11 9.91,13.24 l -0.54,0 -0.1,0 0,0 z m -112.34,2.45 c 41.58,-0.85 83.17,-0.87 124.75,-1.21 1.95,-3.14 -7.82,-7 -9.07,-10.96 -5.46,-5.58 -9.64,-11.82 -12.44,-19.12 -0.74,-3.22 -3.47,-6.38 -2.95,-10.81 0.1,-2.4 -0.62,-6.63 -3.76,-5.63 0.11,9.55 4.31,19.29 9.37,27.44 3.34,6.09 9.73,11.64 13.05,16.7 -1.69,2.35 -4.64,-2.2 -5.26,-3.43 -4.65,-3.62 -7.43,-10.05 -11.23,-14.7 -4.99,-7.57 -7.16,-16.52 -7.62,-25.49 -4.41,-1.6 -1.4,3.35 -1.61,5.7 -0.84,7.21 7.22,16.76 5.56,21.51 -5.34,-8.05 -7.51,-17.84 -7.41,-27.44 -5.39,-2.26 -1.86,7.24 -1.96,9.93 0.94,8.53 5.71,15.88 9.2,23.52 1.2,2.74 7.55,6.39 4.82,8.69 -5.09,-3.29 -7.59,-10.11 -10.53,-15.37 -3.99,-8.09 -6.67,-16.95 -5.88,-26.03 -0.3,-3.84 -1.42,-1.73 -4.65,-2.3 2.36,0.87 0.4,5.68 -0.72,1.42 -3.84,-0.56 -2.08,4.56 -1.86,6.79 1.19,4.69 1.62,9.5 2.59,14.09 3.26,7.71 7.93,14.71 12.8,21.45 -2.95,3.19 -6.33,-7.21 -8.58,-9.72 -6.09,-9 -9.2,-20.16 -8.9,-31.05 -1.67,-2.76 -6.09,-0.61 -8.92,-1.29 -9.48,0 -18.95,0 -28.42,0 -3.13,1.8 1.11,5.94 -0.83,8.81 -0.75,3.77 -1.39,10.67 -5.1,11.69 -0.56,-2.66 2.02,-5.91 2.33,-8.87 0.47,-3.68 1.4,-7.37 0.47,-11.06 -4.44,-2.12 -2.46,3.38 -2.87,6.04 -0.23,6.23 -1.91,12.47 -3.73,18.37 -2.77,6.07 -5.43,12.31 -9.78,17.45 -3.96,-2.62 6.23,-9.76 5.81,-14.71 3.43,-8.31 6.5,-17.45 6.09,-26.5 -1.7,-3.94 -4.55,0.87 -3.3,3.53 -0.28,5.41 -2.68,-1.47 -1.25,-3.76 -3.05,-2.96 -2.9,2.38 -2.71,4.68 -0.6,3.31 -2.01,5.05 -2.33,8.12 -3.1,9.28 -7.37,18.39 -13.572,25.97 -1.451,1.15 -5.838,6.65 -5.847,3.39 7.469,-6.94 12.529,-15.74 16.599,-25.03 0.84,-5.32 6.48,-13.73 2.4,-18.02 -2.43,3.9 -0.82,10.02 -3.38,14.47 -1.45,5.82 -4.73,9.72 -7.07,14.78 -1.64,2.99 -5.313,6.36 -6.313,7.92 -0.472,3.8 -7.118,5.18 -8.197,9.52 0.242,1.21 2.41,-0.28 2.21,0.52 z m 0,8.7 c -3.803,-3.23 3.639,-3.48 0.1,0 l -0.1,0 0,0 z m 114.59,0.35 c -4.76,-2.28 3.11,-6.93 0.91,-1.16 0.18,1.14 -0.75,0.7 -0.91,1.16 z m -4.73,3.12 c -4.32,-0.79 2.41,-5.67 1.01,-0.53 0.23,0.62 -0.85,0.22 -1.01,0.53 z m -6.22,2.68 c -4.35,-0.21 2.38,-5.64 0.99,-0.29 0.38,0.33 -1.33,0.74 -0.99,0.29 z m -6.5,9.89 c -3.2,-0.7 -1.56,-5.85 1.47,-3.57 0.2,1.58 0,2.72 -1.47,3.57 z m 21.74,14.25 c -2.09,-2.01 -0.59,-6.97 -0.67,-10.01 0.11,-7.28 -0.36,-14.56 -0.22,-21.84 3.63,-0.33 0.97,5.64 1.78,8.13 -0.12,7.91 0.37,15.85 -0.49,23.72 0.47,0 -1.24,0 -0.4,0 z M 86.08,235.8 c -1.595,-7.81 -0.468,-16.94 -0.871,-25.27 0.923,-2.99 -1.981,-9.96 0.893,-11.26 0.883,11.87 0.785,23.8 0.748,35.71 0.216,0.3 -1.085,1.04 -0.77,0.82 z m 127.36,6.1 c -3.67,-0.48 -0.86,-5.99 -1.65,-8.65 0,-10.57 0.85,-21.21 -0.29,-31.71 3.01,-8.19 2.32,7.45 2.3,10.4 0.18,9.91 0.29,19.82 0.41,29.73 -0.11,0.29 -0.82,-0.31 -0.77,0.23 z m -5.1,0.57 c -1.82,-1.61 -1.07,-10.4 1.26,-7.74 -0.11,2.44 1.58,6.31 -1.26,7.74 z m -8.53,0 c -2.66,-2.09 -0.53,-6.62 -1.21,-9.7 0,-7.93 0,-15.86 0,-23.79 3.28,-3.65 2.16,3.26 2.3,5.21 0.19,8.73 -0.38,17.6 0.28,26.24 0.9,1 -0.97,1.73 -1.37,2.04 z m -13.26,-0.52 c -3.3,0.19 -0.81,-7.59 -1.6,-10.15 1.29,-2.96 -1.81,-10.74 2.13,-10.99 1.79,3.03 0.22,7.48 0.72,11.01 -0.58,3.14 0.68,7.62 -1.25,10.13 z m -92.09,0.52 c -1.933,-3.54 0.307,-8.83 -0.298,-12.93 0.599,-9.49 -1.111,-19.09 -0.742,-28.49 2.455,-3.04 2.526,3.34 2.23,5.11 0.02,11.67 0.434,23.33 0.74,34.99 -0.446,0.45 -1.699,1.14 -1.93,1.32 z m 123.2,0.44 c -2.52,-1.5 -0.57,-5.91 -0.33,-8.67 -1.74,-2.74 -0.27,-6.57 -0.76,-9.74 0,-7.89 0.16,-15.8 -0.55,-23.67 1.29,-5.11 3.46,-0.1 2.91,2.78 -1.04,10.46 0.38,21.32 0.1,31.94 -0.35,1.56 0.74,8.08 -1.36,7.36 z m -13.11,0 c -2.41,-1.24 -0.7,-5.53 -0.9,-8.01 0,-9.73 0,-19.46 0,-29.19 2.69,-3.49 2.11,3.41 2.01,5.27 -0.14,9.99 -0.28,19.97 -0.42,29.95 -0.97,0.93 1.72,2.09 -0.69,1.98 z m -12.05,0.45 c -3.24,-8.82 0.86,-19.92 -0.19,-29.62 1.53,-6.87 3.15,3.67 2.18,6.2 -0.17,7.5 -0.36,15 -0.65,22.5 -0.17,0.12 -1.39,1.83 -1.34,0.92 z m -92.22,0 c -3.288,-0.22 -0.8,-5.61 -1.195,-8.01 0.495,-9.01 -0.633,-18.02 -1.155,-26.99 3.96,-0.46 2.68,4.9 2.87,7.43 0,9.18 0,18.36 0,27.54 0.11,-0.18 -1.224,0.62 -0.52,0 z m -10.13,0 c -2.306,-0.77 -0.21,-7.05 -0.716,-9.98 0.306,-9.45 0.58,-18.93 -0.774,-28.31 2.871,-2.68 2.859,3.66 2.9,5.54 0.313,9.12 -0.743,18.32 -0.23,27.38 0.383,1.49 0.768,5.74 -1.18,5.37 z m -4.36,0 c -0.879,-0.59 -1.5,-7.2 0.76,-6.37 0.508,1.39 0.42,5.77 -0.76,6.37 z m 19.2,0.44 c -2.7,-1.15 -0.69,-5.68 -1.31,-8.16 0.1,-5.53 0.14,-11.06 -0.89,-16.52 3.23,-3.54 3.15,2.77 2.9,5.07 -0.17,6.38 0.34,12.98 -0.25,19.22 0,0.47 -1.63,0.38 -0.45,0.39 z m -4.73,1.62 c 35.12,-1.09 70.27,-0.74 105.4,-1.29 3.11,-1.31 5.95,1.17 9.61,0.27 4.09,0.87 7.94,-1.58 6.07,-6.06 -0.32,-13.76 -0.1,-27.53 -0.16,-41.3 -1.52,-2.5 -6.43,0 -6.31,-2.74 -3.5,3.55 -11.92,1.21 -17.26,2.24 -37.99,0.69 -75.99,0.81 -113.98,1.19 -2.671,1.59 -0.516,6.05 -1.21,8.8 0.249,12.38 -0.555,24.82 0.52,37.15 1.219,3.73 5.536,1.59 8.479,2.06 2.931,-0.17 5.964,0.12 8.841,-0.32 z m 65.97,4.28 c -4.46,0.74 -8.77,-1.2 -13.3,-0.54 -16.32,0 -32.66,0.1 -48.96,-0.42 -7.38,0.1 -14.873,0.74 -22.18,0.41 -4.219,-0.92 -1.948,-6.24 -2.52,-9.3 -0.06,-4.05 -0.05,-8.48 -0.58,-12.27 1.319,-4.21 -0.191,-9.08 0.148,-13.52 0,-6.21 -0.208,-12.41 -0.658,-18.61 2.47,-1.83 4.069,-5.72 7.102,-6.24 9.328,-9.45 17.848,-20.36 21.328,-33.38 0.81,-2.84 1.44,-6.3 1.11,-9.03 -3.05,-0.1 -8.61,1.29 -7.868,-4.03 0.08,-5.16 -0.995,-10.41 0.138,-15.5 2.1,-1.94 4,-3.73 6.62,-3.71 -1.53,-3.37 -0.43,-6.64 -1.72,-9.83 -2.74,-5.28 -3.76,-11.45 -8.25,-15.65 C 91.122,90.06 83.523,82.63 73.336,81.65 68.433,78.83 61.88,88.19 58.944,82.92 57.531,78.19 61.43,74.07 62.835,69.73 66.961,62.95 73.43,58.17 79.737,53.62 84.666,50.97 90.062,49.45 95.701,50 c 6.189,-0.1 12.679,-0.18 18.259,2.8 6.61,2.28 12.68,5.54 17.96,10.12 5.16,3.87 9.2,8.32 13.66,12.32 2.63,6.28 5.46,6.77 7.88,-0.1 3.79,-4.6 9.03,-8 13.39,-12.11 3.22,-2.85 6.21,-5.43 10.29,-6.1 5.74,-2.17 11.72,-4.31 17.94,-3.71 3.1,-2.03 5.94,-0.64 8.94,0.65 5.6,0.48 11.37,0.93 15.82,4.7 6.73,4.94 13.55,9.83 19.06,16.16 1.05,2.56 5.43,11.43 -0.5,9.99 -2.83,-3.15 -7.4,-2.1 -11.1,-2.64 -2.65,-1.59 -5.32,1.77 -8.41,1.09 -3.5,1.78 -7.74,3.39 -10.68,6.21 -4.62,5.22 -11.04,9.25 -12.51,16.34 -1.75,4.93 -3.21,9.75 -3.86,15.08 -0.54,3.62 2.78,3.82 5.3,2.53 6.16,1.36 2.37,9.86 3.48,14.38 1.37,5.57 -1.79,9.94 -7.45,8.29 -1.26,4.15 1.51,8.48 2.26,12.49 3.91,6.15 5.78,13.75 11.48,18.71 4.25,6.27 10.45,10.79 17.04,14.36 2.85,3.47 0.96,8.39 1.59,12.53 0.22,14.48 0.1,28.96 0.72,43.43 -2.77,2.05 -6.81,0.45 -10.11,0.96 -7.18,-0.1 -14.35,0.29 -21.52,0.57 -2.01,-1.82 -4.78,2.77 -7.2,-0.42 -4.83,1.69 -10.26,0.34 -15.34,0.77 -1.9,-0.11 -4.24,0.18 -5.86,0.27 z"/></g>
</svg>
