<?xml version="1.0" encoding="UTF-8" standalone="no"?>
<!DOCTYPE svg PUBLIC "-//W3C//DTD SVG 1.1//EN" "http://www.w3.org/Graphics/SVG/1.1/DTD/svg11.dtd">
<svg xmlns="http://www.w3.org/2000/svg" width="300px" height="350px">
<g>
<path id="fill" d="m 203.06,50.76 c -7.1,4.22 -13.93,9.21 -20.73,14 -4.22,3.33 -8.64,6.29 -12.51,9.93 -3.26,3.41 -5.9,9.7 -11.51,9.26 -2.69,-1.38 1.03,-4.59 -0.56,-6.56 0.78,-2.89 4.03,0.1 5.47,-0.56 -0.1,-2.41 -2.39,-5.83 0.12,-7.6 1.28,-1.19 3.81,0.99 4.47,-0.62 -1.44,-2.51 -4.57,-5.52 -2.47,-8.63 1.38,-1.69 3.74,-2.03 5.44,-3.28 -3.85,-0.39 -8.48,-0.44 -11.12,2.72 -3.88,2.19 -6.69,-4.7 -2.88,-6.4 1.2,-0.79 -2.22,0 -2.63,0.48 -2.61,1.58 -5.37,3.17 -8.21,3.89 -2.7,2.29 -2.31,7.61 -5.97,8.66 -4.72,0.43 -9.23,-0.71 -13.56,-2.16 -1.51,0.65 -2.4,3.38 -4.53,2.22 -3.74,-0.1 -7.88,0.77 -11.72,0.97 -2.15,1.44 -3.66,-1.05 -5.13,-2.16 -2.96,-0.55 -3.49,3.3 -1.87,5.03 2.19,3.01 6.38,2.64 9.25,4.44 1.26,1.06 1.23,3.36 -1,2.66 -3.8,0 -8.56,-0.55 -10.38,-4.25 -1.157,-1.65 -3.264,-0.26 -2.78,1.46 1.158,4.08 6.58,4.35 10.09,4.32 2.18,-0.88 5.99,0.7 5.41,3.31 -2.48,1.98 -5.8,-0.63 -8,-1.72 -2.44,-0.2 -0.92,3.57 0.69,3.91 5.65,2.12 12.13,1.13 17.78,3.12 2.98,1.18 0.95,5.24 -1.63,5.47 -2.12,0.35 -3.9,1.65 -4,3.88 -1.14,2.73 -6.08,2.64 -5.34,6.25 -0.43,3.12 -5.58,2.56 -5.22,6.18 -0.14,1.95 -2.42,3.71 -4.03,1.97 -2.76,-2.75 -3.27,-6.96 -4.75,-10.25 -0.304,-3.68 -3.282,-6.32 -4.688,-9.72 -2.035,-3.81 -5.702,-7.85 -4.093,-12.5 1.014,-2.85 5.561,-3.27 4.416,-6.84 -0.273,-3.31 -1.021,-8.33 -4.947,-9.03 -1.24,-0.38 -2.371,1.05 -0.782,1.72 2.175,0.45 3.319,3.39 1.032,4.47 -1.196,0.84 -3.319,2.07 -1.938,3.68 1.117,2.29 -2.389,5.49 -3.875,2.78 -1.052,-2.25 1.596,-4.85 -0.844,-6.65 -2.348,-1.49 -2.91,-5.12 -6.125,-5.06 -1.422,-0.18 -3.785,0.74 -4.062,2 2.111,0.47 6.701,0.59 5.5,3.97 -0.572,1.43 -3.977,2.97 -1.656,4.4 2.681,2.25 3.697,5.87 5.093,8.97 -1.056,2.41 -4.313,-1.33 -5.593,1.13 -2.52,1.17 -5.832,2.94 -5.5,6.12 0.177,1.27 1.185,3.2 2.031,3.53 -0.537,-1.4 -1.397,-3.43 0.5,-4.41 1.574,-1.24 3.965,0.11 3.25,2.16 -0.02,2.54 3.283,1.54 3.656,-0.31 0.8,-1.49 1.939,1.62 1.344,2.72 -0.193,2.27 -2.781,4.12 -2.469,6.25 0.834,1.52 3.473,4.57 0.844,5.68 -1.577,1.28 -1.715,-1.46 -3.063,-0.93 -1.668,1.83 1.151,4.59 3.157,4.72 1.945,0.29 3.323,-1.47 3.874,-2.91 2.999,-1.16 0.393,-5.19 2.157,-7.09 2.265,0.74 1.14,4.13 2.235,5.85 1.791,6.69 5.845,12.47 7.858,18.96 0.802,3.01 -1.98,7.21 1.376,9.19 1.899,0 -0.73,-2.83 0.25,-3.97 2.172,-2.35 6.502,-1.14 8.752,0.62 2.18,1.42 0.82,4.23 -1.16,4.88 -1.19,2.86 -5.09,3.6 -5.811,6.65 -4.236,2.26 -7.572,5.86 -11.594,8.22 -1.222,2.43 -5.767,4.3 -7.219,1.19 -0.468,-3.53 -5.132,-4.17 -7.437,-1.78 -3.027,0.88 -6.121,4.99 -3.907,7.84 1.411,-1.08 3.222,-3.67 5.126,-1.81 0.818,2.04 3.981,-0.75 4.531,1.72 -0.504,2.88 -4.179,4.04 -6.625,4.53 -1.258,1.97 -1.271,4.57 -2.063,6.69 0.116,2.22 3.313,4.33 4.907,3.06 -1.641,-2.04 0.216,-4.64 2.593,-4.63 1.656,-0.26 1.635,-3 3.313,-3.68 1.561,-1.69 4.803,-0.59 4.187,1.9 -0.184,1.48 -1.235,2.97 0.281,4 1.72,2.04 3.868,4.05 6.657,4.32 -1.462,-1.2 -3.318,-3.67 -1.25,-5.25 1.468,-1.99 0.835,-4.73 -0.407,-6.69 3.709,-3.31 9.158,-1.95 13.498,-2.47 0.93,-0.63 4.41,-1.9 3.72,0.34 -0.91,0.71 -0.83,1.63 0.34,0.94 1.77,-1.47 2.11,-4.62 -0.31,-5.72 -1.9,-1.77 -4.98,-2.4 -7,-0.56 -1.965,1.1 -4.721,3.96 -6.779,1.44 3.377,-5.41 10.569,-6.59 14.969,-10.78 3.86,-0.13 6.44,-4.53 10.53,-3.48 3.76,-0.29 8.33,-0.12 10.66,3.1 3.76,0.1 5,4.92 8.65,5.03 1.74,1 4.55,2.95 3.66,5.22 -2.54,1.63 -5.28,-1.69 -7.84,-1.94 -1.85,-0.6 -2.98,1.66 -4.97,1.35 -3.41,-0.37 -6.05,1.64 -7.91,4.34 -2.33,1.46 -4.53,3.43 -4.62,6.44 -0.56,2.05 1.73,3.93 0,5.5 -1.59,2.75 -0.1,6.19 2.09,7.97 -0.22,3.29 0.64,7.24 3.94,8.59 -2.59,3.18 -6.8,0 -9.69,-1.06 -1.87,-0.66 -4.68,-0.81 -4.94,-3.28 -0.32,-2.71 1.2,-6.05 -1.7,-7.78 -2.34,-2.61 -7.33,-4.21 -9.828,-1.19 -0.707,1.71 1.62,2.16 2.598,1.09 2.82,1.18 0.8,6.38 4.53,6.41 1.69,0.92 0.3,3.64 -1.6,2.78 -2.36,-0.36 -3.668,-2.47 -4.309,-4.53 -2.105,-2.22 -5.683,-1.31 -8.375,-1.41 -3.08,0.67 -5.003,4.3 -3.968,7.1 0.805,0.89 2.778,0 1.406,-1.1 -1.432,-2.26 3.445,-4.96 4.312,-1.84 0.403,1.21 -0.567,2.73 1.344,2.78 3.147,0.37 7.13,0.12 8.66,3.56 -4.741,0.49 -9.665,4.2 -10.098,9.1 0.06,2.25 2.685,5.11 4.626,3.9 -1.318,-1.55 -1.925,-4.64 0.75,-5.12 1.282,0.18 3.122,0.98 4.032,-0.75 0.97,-1.73 3.18,-4.43 5.03,-2.07 2.34,2.05 3.54,5.3 3.75,8.29 0.83,1.94 4.22,1.98 4.31,4.15 -0.39,1.17 -3.99,0.87 -2.37,2.28 2.1,1.39 5.87,1.33 6.4,-1.65 1.09,-3.08 0.11,-6.72 -3.06,-7.91 -1.6,-0.67 -2.39,-3.61 -0.1,-3.72 2.23,-0.43 3.84,1.63 5.31,2.35 2.76,0 4.4,3.03 6.91,3.34 1.68,2.37 5.08,2.6 7.31,4.06 2.12,0.1 4.55,2.05 6.41,1.07 -2.45,-2.53 -4.22,-5.99 -5.2,-9.32 0.62,-5.05 -2.07,-11.13 1.85,-15.22 2.34,-2.93 7.17,-4 9.82,-0.87 2.23,2.1 1.19,4.99 0.53,7.47 -0.66,2.63 2.24,4.33 1.25,7.03 -0.71,2.11 0,4.26 2.03,5.03 2.25,1.77 0.65,5.75 3.65,6.72 1.37,1.49 1.78,4.09 2.69,5.62 -2.9,5.16 -7.58,9.02 -10.65,14.04 -2.93,3.44 -9.43,3.32 -11.16,-1.19 -2.23,-2.35 -5.98,-0.99 -8.81,-1.13 -1.74,1.43 -4.59,3.61 -3.94,6.06 1.06,0.57 0.85,-1.99 2.22,-1.96 2.19,-0.75 6.01,0.78 5.75,3.37 -1.62,1.68 -4.76,0.3 -6.78,1.47 -3.15,0.37 -6.23,4.92 -3.54,7.25 2.26,-0.72 3.22,-5.1 6.04,-4.09 1.11,0.79 0.81,3.53 2.93,2.56 2.42,-0.9 5.31,-2.71 7.82,-1.41 0.89,2.04 -2.12,4.42 -0.32,6.31 -0.81,3.61 3.59,6.1 6.44,6.07 0.12,-2.33 -3.26,-2.02 -2.69,-4.31 0.82,-2.34 5.79,-1.72 4.6,-5 0.2,-3.49 4.23,-4.5 6.97,-3.29 2.74,0.76 5.8,2.23 8.37,0.41 2.67,-0.72 0.99,2.92 2.34,3.69 3.4,-0.15 3.87,-5.85 1.38,-7.47 -1.62,-2.05 -4.54,-3.42 -6.91,-1.63 -1.37,1 -4.14,0.39 -3.06,-1.71 1.43,-3.42 4.68,-5.11 7.38,-7.1 3.29,-2.97 5.54,-8.91 10.9,-8.16 2.49,0.89 5.53,-1.88 5.66,-4.28 -1.13,-0.33 -2.52,1.58 -3.81,0.5 -2.81,-1.23 -2.23,-5.14 -4.72,-6.59 -2.99,-3.42 -3.33,-9.44 -0.16,-12.91 2.46,-3.97 4.28,-8.28 6.78,-12.22 2.17,3.62 -0.4,8.1 1.56,11.76 -0.1,7.92 1.41,16.28 6.85,22.28 3.1,3.25 7.68,4.77 12.09,5.06 8.97,0.15 16.87,-6.18 19.94,-14.5 2.13,-5.49 1.09,-11.75 1.01,-17.59 0.12,-4.31 -2.17,-8.09 -2.57,-12.25 -0.21,-2.34 2.66,-2.18 4.06,-1.69 1.13,-0.21 4.68,-1.47 2.62,-2.88 -1.94,-0.5 -3.61,-1.5 -4.21,-3.56 -2.82,-7.32 2.34,-14.14 5.25,-20.44 0.75,-1.39 1.66,-4.5 -0.35,-4.87 -2.09,5.26 -8.45,6.79 -11.75,11.12 -6.32,5.9 -10.04,15.36 -8.28,23.91 2.39,1.57 2.88,-2.58 3.75,-3.88 0.34,-1.83 3.66,-1.84 2.94,0.41 0.11,7.74 4.62,14.84 3.44,22.75 -0.39,3.99 -1.33,8.29 -3.57,11.5 -2.02,0.38 -5.84,0.1 -5.22,3.22 -0.31,2.89 -4.47,2.6 -6.74,2.5 -6.64,-0.51 -9.89,-7.49 -10.94,-13.25 1.55,-0.89 3.38,-4.76 0.47,-4.97 -2.41,-0.19 -1.02,-4.33 -1.65,-6.25 -0.1,-5.26 -0.9,-10.58 -2.35,-15.47 0.5,-2.95 -4.24,-5.32 -2.13,-8.09 0.49,-0.5 2.83,-1.14 1.16,-1.72 -1.99,-0.68 -5.55,-2.19 -4,-4.88 -0.21,-2.82 -2.12,-5.34 -1.66,-8.31 5.43,1.68 10.49,5.26 13.56,9.78 0.66,1.11 -0.29,3.67 0.75,4.13 3.01,-1.91 0.23,-5.57 0.44,-8.28 0.98,-9.21 4.48,-18.88 11.71,-24.89 1.67,-1.51 4.69,-0.83 4.73,1.67 1.75,1.66 1.34,-1.33 0.94,-2.19 -0.31,-2.08 -2.21,-3.37 -3.14,-4.86 -1.75,-8.66 2.48,-17.14 6.89,-24.27 1.84,-2.14 3.98,-4.94 6.62,-5.59 1.2,0.81 4.03,-0.78 1.84,-1.59 -3.54,-0.7 -7.16,-3.75 -6.43,-7.78 -0.74,-10.77 5.07,-20.42 11.09,-28.75 0.98,-1.56 4.07,-1.73 4.88,-3.13 -2.55,-0.87 -5.49,1.06 -7.91,1.88 -5.55,2.95 -11.55,4.98 -16.28,9.22 -2.49,2.33 -7.74,2.91 -8.78,-1.07 -1.08,-4.6 2.23,-8.71 5.56,-11.4 0.26,-0.39 0.69,-1.5 -0.19,-1.29 z m -39.94,26.22 c 0,0.1 0.11,0 0,0 z m -36.62,0.75 c 1.22,-0.25 4.53,0.46 2.94,2.13 -1.26,0.94 -4.17,-0.11 -4.25,-1.6 0.34,-0.39 0.8,-0.52 1.31,-0.53 z m -8.81,1.63 c 2.63,0.24 6.11,0.83 7.59,3.16 -0.33,1.69 -2.89,-0.12 -4.27,0.27 -1.53,-0.42 -5.44,0.16 -5.26,-2.27 0.41,-0.69 1.13,-1.16 1.94,-1.16 z m 34.06,25.44 c 1.92,3.31 1.95,9.19 -2.41,10.4 -1.85,0.5 -4.7,-0.47 -3.87,-2.81 1.1,-3.16 2.57,-7.1 6.12,-7.97 l 0.16,0.38 z"/><path id="outline" d="m 142.99,249.78 c -2.9,-0.55 -6.75,-3.07 -5.9,-6.62 -2.36,-2.13 3.28,-6.94 -1.33,-6.04 -2.8,-0.61 -7.62,4.85 -8.44,-0.47 -2.37,-3.28 -6.11,8.87 -7.77,1.13 0.21,-5.2 6.26,-6.42 10.46,-6.32 4.04,-0.58 -4.86,-6.67 -5.61,-0.93 -4.37,-0.28 1.14,-6.75 3.23,-7.46 3.34,0.42 7.68,-1.42 9.54,2.32 2.31,4.26 8.86,2.74 10.8,-1.02 2.94,-4.73 7.02,-7.8 9.63,-12.64 -1.91,-1.98 -0.9,-4.71 -3.93,-5.78 -1.55,-2.08 -0.35,-5.21 -3.17,-6.5 -3.15,-1.85 -0.26,-5.58 -1.62,-7.99 -2.02,-2.51 -0.58,-5.54 0,-7.72 -0.34,-2.84 -1.79,-4.27 -4.77,-5.16 -4,0.14 -7.24,3.38 -7.75,7.29 0.12,3.51 0.55,7.24 0.34,10.87 1.58,3.19 2.85,6.53 5.52,8.88 -1.8,1.93 -5.38,-0.81 -7.75,-0.68 -2.17,-1.93 -5.53,-1.6 -7.22,-4.31 -2.85,-0.1 -4.17,-3.82 -7.24,-2.95 -1.78,-3.64 -8.93,-3.22 -3.7,0.74 3.89,1.2 4.02,7.67 1.48,10.18 -1.76,2.04 -9.28,-0.52 -5.61,-2.28 5.93,-1.28 -3.71,-2.31 -2.54,-6.22 -0.64,-2.89 -2.2,-6.06 -4.79,-7.37 -2.71,0.52 -3.01,5.96 -6.937,3.72 -3.675,0.97 -1.013,3.42 -0.525,5.23 -3.437,1.52 -6.134,-2.39 -5.84,-5.51 1.685,-4.44 4.846,-7.45 9.722,-8.31 -2.335,-3.93 -6.742,-1.23 -9.756,-3.64 1.412,-3.74 -2.596,-4.56 -3.538,-1.13 3.101,3.17 -3.394,3.59 -2.182,0.12 -0.505,-3.74 3.646,-6.91 7.214,-5.99 2.691,-0.22 6.11,-0.1 6.863,3.08 0.309,2.59 6.379,4.48 4.799,1.06 -4.45,-0.38 -2.06,-4.96 -4.55,-6.3 -3.495,1.93 -4.429,-2.62 -1.067,-3.33 3.667,-1.87 8.517,1.45 10.457,4.57 0.99,2.64 -1.51,6.33 1.69,8.05 3.57,0.1 9.38,5.05 11.7,2.44 -3.1,-1.62 -3.81,-5.52 -3.61,-8.74 -3.16,-2.21 -3.6,-6.42 -1.3,-9.34 -1.61,-2.91 -0.88,-6.76 1.5,-9.24 2.72,-1.05 3.6,-3.61 5.93,-5.17 2.45,-1.56 5.97,-0.1 8.19,-2.43 3.1,-0.27 5.27,2.19 8.03,2.56 3.36,0 -1.68,-5.54 -4.01,-5.01 -2.97,-1.45 -3.72,-4.73 -7.33,-4.76 -2.49,-3.79 -6.91,-3.08 -10.86,-3.09 -3.8,-0.8 -6.23,3.61 -9.93,3.47 -4.09,4.19 -11.125,5.32 -14.32,10.18 2.082,2.13 4.346,-1.61 6.29,-1.89 2.79,-2.72 7.11,0.1 8.94,2.6 0.7,2.12 -1.42,6.56 -3.72,4.41 3.34,-3.25 -0.9,-1.61 -2.67,-0.59 -3.94,-0.33 -9.168,-0.84 -12.31,1.78 1.188,1.95 1.797,5.14 -0.224,7.22 -2.566,2.55 6.27,6.4 -0.583,4.66 -2.633,-0.98 -5.132,-3.62 -6.407,-5.82 3.089,-6.93 -3.673,-5.8 -4.964,-0.47 -3.395,0.29 -5.174,1.58 -3.057,4.6 -2.383,1.88 -6.66,-1.03 -6.187,-4.21 1.33,-1.99 0.694,-5 2.46,-6.53 4.882,0 9.608,-6.13 2.906,-4.07 -3.101,-4.07 -3.849,0.52 -6.074,0.82 -2.833,-3.08 0.513,-7.73 3.94,-8.84 2.92,-2.32 6.918,-2.18 8.091,2.08 1.345,2.87 5.758,0.52 6.544,-1.73 4.361,-1.99 7.37,-5.94 11.577,-7.95 0.618,-3.27 4.688,-3.61 5.718,-6.73 5.49,-2.46 -0.81,-6.32 -4.92,-5.65 -4.087,0.47 -0.575,3.29 -1.606,5.08 -2.537,0.84 -3.726,-3.36 -3.109,-5.42 1.308,-3.89 -0.813,-7.17 -2.456,-10.58 -2.653,-5.6 -5.416,-11.33 -6.216,-17.52 -2.036,-2.08 0.925,5.76 -2.689,6.64 -0.806,3.48 -5.453,3.95 -7.235,0.97 -2.404,-1.84 0.08,-6.02 1.935,-2.58 4.249,-0.4 -0.09,-3.96 -0.373,-6.04 0.863,-2.21 4.009,-5.99 2.314,-8.17 -0.996,2.39 -4.546,3.54 -4.654,-0.17 0.731,-3.54 -5.24,-1.24 -2.973,1.35 1.523,5.46 -5.023,-2.08 -2.074,-4.96 0.938,-2.76 4.479,-2.87 6.152,-4.92 2.21,-0.16 5.912,2.47 3.257,-1.81 -1.267,-2.45 -1.803,-5.22 -4.415,-6.77 -2.436,-2.63 3.963,-3.79 1.656,-6.67 -1.59,-1.42 -7.771,-0.4 -4.231,-3.22 2.67,-1.97 6.71,-1.29 7.895,2.04 1.917,1.9 4.521,3.43 2.953,6.71 -0.749,5.43 5.138,2.39 2.549,-1.33 0.08,-2.9 6.027,-3.44 2.886,-6.15 -5.261,-2.28 -0.212,-4.84 2.388,-2.13 2.676,2.97 2.979,7.22 2.936,11.03 -2.209,2.26 -5.481,3.06 -4.715,7.25 -0.02,2.85 1.973,5.2 3.376,7.4 1.147,2.46 2.655,4.68 3.773,7.11 2.266,1.85 1.248,5.27 3.086,7.18 0.63,4.84 5.4,12.64 6.93,4.22 0.62,-2.89 5.55,-2.11 4.8,-5.57 0.21,-3.59 5.61,-2.96 5.75,-6.81 1.02,-3.55 5.92,-1.76 6.82,-5.5 0.47,-3.55 -8.95,-2.71 -11.87,-3.63 -3.37,-0.49 -9.84,-0.4 -9.38,-5.37 1.63,-2.86 4.55,1.67 7.08,1.41 5.22,0.76 0.51,-4.59 -2.89,-2.79 -3.83,-0.2 -9.933,-0.6 -10.51,-5.3 0.478,-3.75 3.79,-2.5 4.7,0.22 3.07,2.32 6.75,2.6 10.41,2.36 0,-3.48 -5.69,-2.3 -7.79,-4.47 -3.15,-1.04 -5.01,-6.8 -0.89,-7.57 2.66,-0.76 2.77,4.1 6.06,2.06 3.74,-0.31 7.68,-0.43 11.27,-1.16 3.67,2.16 2.8,-3.28 6.31,-1.63 4.05,1.63 8.34,2.13 12.7,1.83 2.97,-2.33 2.64,-6.86 5.67,-8.94 3.99,0.1 9.52,-6.58 12.41,-3.67 -6.33,1.2 -1.57,10.04 2.3,4.73 2.95,-2.09 7.11,-1.64 10.54,-1.42 0.5,2.06 -6.8,2.16 -6.1,6.09 -0.99,2.65 6.54,7.39 1.07,7.43 -4.13,-1.57 -4.28,2.32 -2.87,5.09 1.55,6.09 -4.25,-0.41 -5.2,2.53 1.53,2.43 -1.98,4.96 0.27,6.16 6.19,0.42 9.01,-9.43 14.54,-12.18 8.71,-7.4 18.45,-13.57 27.84,-19.99 3.78,-2.97 4.3,0.7 0.93,2.57 -2.77,2.61 -5.49,7.76 -2.75,11.06 4.76,3.5 9.45,-4.02 14.07,-5.55 5.61,-2.38 10.86,-6.2 17.01,-6.93 3.92,2.06 -4.13,2.42 -4.42,5.27 -6.34,7.98 -11.48,18.01 -10.51,28.48 -0.5,3.11 2.69,5.27 5.1,6.1 4.12,0.85 1.62,3.8 -1.46,2.72 -3.72,2.51 -6.44,5.6 -8.34,9.78 -3.15,5.99 -5.95,13.32 -4.16,20.06 2.8,1.03 5.35,10.25 1.12,6.94 -0.62,-4.44 -4.98,-1.39 -6.51,0.84 -5.13,5.85 -8.04,13.58 -8.84,21.25 -0.78,3.25 2.58,6.68 -0.39,9.38 -2.94,1.64 -0.55,-4.36 -2.71,-5.17 -2.97,-3.92 -7.1,-6.72 -11.77,-8.26 -0.22,2.88 1.6,4.97 1.65,7.68 -2.49,4.25 8.1,3.81 3.52,6.38 -3.88,1.53 2.33,5.13 1.38,8.61 2.68,6.64 2.05,13.83 2.87,20.78 4.43,-0.1 2.6,4.14 0.8,5.69 1.04,5.46 4.08,12.05 10.35,12.58 1.77,-0.21 4.7,0.76 6.33,-1.59 -0.79,-4.27 3.05,-3.53 5.55,-4.14 3.29,-6.09 3.96,-13.34 2.62,-20.02 -1.16,-4.85 -3.24,-9.64 -2.85,-14.71 -3.08,-2.19 -2.37,8.16 -6.9,4.6 -1.39,-9.19 2.22,-18.96 9.3,-25.01 3.12,-4.26 9.53,-5.5 11.1,-10.85 5.44,1.14 -1.64,9.84 -2.5,13.12 -2.59,4.48 -3.79,11.19 0,15.2 4.83,0.92 4.24,3.64 -0.89,4.67 -6.9,-2.47 -0.41,7.58 -0.91,11.02 0.8,4.94 0.47,10.27 0.47,15.33 -0.65,5.82 -4.2,11.12 -8.36,15.02 -5.83,4.29 -13.81,6.34 -20.47,2.76 -4.86,-1.17 -7.48,-6.31 -9.71,-10.39 -1.96,-4.96 -2.45,-10.29 -2.5,-15.6 -1.86,-3.13 0.21,-7.7 -1.13,-10.7 -2.42,3.74 -4.83,9.8 -8.04,13.93 -0.81,4.04 -0.46,8.73 3.42,11.06 0.44,2.66 2.74,7.52 5.84,4.47 3.87,0 -1.78,6.73 -4.53,5.6 -5.59,-1.67 -8.24,6.55 -12.46,9.09 -3.6,1.31 -10.19,10.12 -1.97,6.21 2.96,-1.39 5.85,1.94 7.64,4.01 0.24,2.66 0.27,5.9 -2.93,6.68 -3.37,-0.16 1.03,-6.16 -4.52,-2.8 -4.23,0.46 -11.83,-5.2 -13.02,1.54 1.41,4.29 -6.47,2.83 -4.25,6.42 1.82,-0.1 3.85,4.41 0.78,3.24 z m -3.44,-5.88 c 2.15,-1.59 -1.88,-0.25 0,0 z m 3.76,-2.47 c 0.31,-5.53 4.75,-8.87 10.14,-6.02 2.88,-0.35 4.36,-0.31 6.11,1.11 0.69,-3.31 -0.91,-5.57 -4.77,-3.25 -1.59,-0.74 -6.04,-1.5 -5.52,-3.06 5.64,-0.62 9.57,-7.9 14.05,-11.42 1.79,-1.93 6.83,-4.93 2.55,-7.01 2.13,-3.4 4.51,3.07 7.94,1.27 4.23,-0.95 -2.48,-2.23 -2.98,-4.56 -1.98,-1.68 -1.57,-4.56 -3.9,-6.07 -0.92,-2.28 0.3,-6.96 -3.09,-6.08 2.82,-2.36 7.36,-9.37 9.82,-14.38 1.94,-4.36 1.61,-10.93 -1.4,-3.16 -1.13,0.39 -3.3,-5.16 0.25,-3.31 0.59,-0.74 -0.84,-7.46 1.74,-2.92 1.05,3.44 1.47,-8.23 3.05,0.78 2.73,2.44 -1.29,-6.84 1.78,-5.06 0.55,4.17 5.2,8.13 2.06,0.9 -1.55,-2.61 -3.5,-4.89 -1.57,-7.17 -2.58,0.17 -2.84,-2.28 -3.84,0.72 -1.98,-2.11 -0.81,5.75 -3.28,3.45 -0.14,-3.57 0.12,-6.13 -0.1,-8.27 1.03,-1.51 -2.8,-4.89 0.91,-5.5 -1.22,0.16 -3.89,-1.2 -5,-2.94 4.46,-1.04 -1.92,-2.81 -3.61,-2.43 -5.56,1.86 -4.65,-0.29 -5.91,-4.87 -2.72,-1.09 -4.22,-2.18 -6.49,-2.61 0.33,-3.12 -2.09,-0.32 -4.47,-0.65 -0.79,-2.47 -5.49,-0.72 -4.17,-4.26 -2.1,2.58 -2.62,-0.1 -4.92,0.25 -2.42,-0.37 -2.03,-4.89 -2.59,-6.41 -2.07,2.34 0.2,5.22 -3.96,3.48 0.41,2.56 2.92,6.27 4.47,3.47 1.8,1.73 4.37,0.9 5.08,3.61 2.06,0.9 6.59,-0.54 2.76,1.79 -1.79,2.97 4.36,-0.31 5.48,2.65 3.15,0.5 2.7,5.22 0.96,5.57 -0.47,-1.69 -0.65,-5.35 -2.13,-1.72 -2.16,-1.18 -1.26,-3.75 -3.68,-0.46 -3.59,-0.1 -3.21,4.03 -0.24,4.67 3.02,1.27 5.85,-0.61 8.21,-2.26 2.75,1.55 3.95,-5.92 4.11,-1.82 0.32,2.51 3.49,4.4 5.95,8.77 5.1,1.28 -2.5,0.45 1.54,2.96 -1.92,3.11 2.95,5.18 -0.31,5.34 -1.88,-0.87 2.21,5.87 -2.02,5.79 0.65,-1.27 1.31,-7.04 -3.42,-3.22 -3.54,0.13 -7.7,4.73 -4.59,7.75 3.85,1.82 5.52,-1.93 7.91,-3.6 2.42,0.83 -1.3,3.82 -2.02,5.08 -4.63,2.1 0.4,0.92 -0.17,3.02 1.86,1.6 -5.36,2.87 -2.58,0.59 0.73,-0.71 -1.36,-4.48 -5.17,-3.9 -2.48,2.77 -1.73,7.57 2.16,8.52 1.77,-0.16 5.15,-3.75 5.09,0.76 -2.3,1.48 -6.09,1.4 -8.64,0 -2.31,2.73 2.27,7.73 5.43,6.42 2.52,-0.45 -1.04,-4.08 3.51,-2.81 0.4,2.88 -0.38,4.66 -5.33,4.35 -4.25,-1.96 -3.74,3.86 -0.91,5.08 2.32,4.08 6.11,-1.65 7.9,1.32 -3.51,1.23 1.89,1.93 1.82,4.01 -2.24,0.43 -4.69,3.2 -0.66,1.46 0.51,1.32 5.95,2.72 1.5,3.3 -1.78,-0.22 -6.34,-2.34 -4.38,1.1 1.62,1.79 9.73,-2.75 5.82,0.76 -2.7,1.43 -7.4,0.88 -7.22,5.13 -0.61,2.17 -3.57,3.56 -5.28,5.66 -3.49,1.71 -3.61,7.81 -7.05,7.46 -3.44,1.29 -1.51,4.12 0,1.29 3.69,2.07 -1.97,4.19 -3.73,2.04 -3.22,0.73 -7.34,2.29 -11.04,0.41 -3.68,-1.77 -0.69,3.91 0.31,3.63 0.96,-3.08 4.76,0.69 7.36,-0.97 3.62,-2.85 6.41,-1.03 2.09,1.94 -4.21,2.87 1.21,2.69 2.22,4.47 l 0,0 z m 20.32,-42.62 c -2.72,-1 3.14,-0.63 0,0 z m -5.53,-0.73 c -3.56,-0.98 7.2,-2.78 0,0 l 0,0 z m -0.19,-2.34 c -5.84,-1.12 4.96,-2.3 0.98,0 0,-0.35 -1,0.34 -0.98,0 z m 6.22,-1.24 c -2.88,-1.15 2.56,-1.58 0,0 z m -0.17,-3.09 c -5.1,-2.44 3.14,-2.32 0,0 z m 3.01,-1.29 c -4.59,-2.19 4.16,-1.46 0,0 z m -9.06,-1.49 c -5.56,-0.86 3.76,-2.39 1,0 l -0.51,0 -0.49,0 z m 10.91,-0.98 c -3.94,-1.33 3.3,-1.72 0,0 z m -6.87,-0.26 c -2.88,-1.17 2.59,-1.56 0,0 z m 7.97,-2.14 c -2.53,-1.14 2.99,-1.17 0,0 z m -2.42,-1.86 c -1.33,-1.68 1.75,-2.31 1.75,-4.64 3.35,1.19 -0.96,3.87 -1.75,4.64 z m 4.14,-0.69 c 0.1,-0.83 0,-0.38 0,0 z m -4.67,-21.95 c -2.31,-0.83 1.92,-1.72 0,0 z m -1.67,-5.15 c -1.91,-0.53 1.56,-2.97 0.23,-4.04 1.97,-0.7 1.97,4.75 -0.23,4.04 z m -11.59,-7.2 c -2.3,-0.82 1.87,-1.71 0,0 z m 1.66,-2.08 c -1.67,-3.29 3.06,-4 0,0 z m 0.21,-3.38 c -1.8,-0.78 2.09,-1.64 0,0 z m -6.79,-2.47 c -1.85,-1.07 2.2,-1.34 0,0 z m 15.12,94.95 c 2,-3.26 -5.71,-2.66 -1.53,-0.43 l 1.61,0.58 -0.1,-0.15 z m -38.96,-0.72 c 6.19,-2.75 -4.89,-0.33 0,0 z m 10.79,-2.25 c 4.39,-3.18 -9.44,-1.6 0,0 l 0,0 z m 4.29,-0.9 c 3.71,-2.5 -4.18,-2.69 -4.87,-5.41 -4.84,0.5 -3.33,3.64 0.54,3.21 1.6,0.37 2.9,1.52 4.33,2.2 z m -9.57,-5 c 4.93,-2.66 -7.93,-0.59 0,0 z m 67.57,-10.16 c 9.79,-1.08 19.98,-10.02 18.67,-20.55 0.71,-10.23 -1.91,-20.21 -4.22,-30.09 2.19,-2.35 1.36,3.48 3.98,3.94 3.01,2.97 4.34,-0.32 0.97,-2.1 -3.48,-4.9 -1.92,-11.45 0.65,-16.44 5.13,-8.9 -5.85,0.72 -8.42,4.09 -2.94,4.89 -6.69,10.55 -5.05,16.44 2.86,-2.78 3.8,-6.3 4.41,-10.12 2.76,-3.15 1.13,2.34 0.65,3.83 0.39,6.85 2.55,13.33 4.32,19.87 0.1,5.35 1.6,10.87 -0.98,15.87 -0.49,2.94 -2.06,5.2 -4.41,6.98 -3.6,-1.89 -2.14,4.13 -5.69,4.04 -6.02,2.53 -13.7,-0.4 -15.83,-6.83 -1.43,-2.52 -1.98,-5.8 -1.46,-8.65 3.98,-0.83 -3.61,-5.13 -2.58,-3.03 0.56,3.98 -3.78,-2.4 -0.32,-3.41 2.48,-2.39 1.12,-6.43 1,-9.56 0.26,-1.78 -1.56,-7.51 -1.79,-3.08 2.38,2.13 -3.04,4.48 0,4.24 -0.47,1.17 -5.68,2.54 -2.52,7.17 1.1,8.53 1.32,18.63 8.69,24.39 2.5,1.99 6.72,2.42 9.88,3 z m -15.16,-17.58 c -2.77,-4.06 3.97,-2.37 0,0 z m -0.72,-10.49 c -2.65,0.65 1.71,-3.08 0,0 z m -0.43,-2.49 c -3.08,2.1 1.42,-5.25 0,0 z m -65.1,20.1 c 3.17,-5.07 -2.01,-3.61 0,0 z m 41.28,0 c 3.69,-1.47 0.33,-4.58 -2.61,-4.02 -1.01,2.06 1.32,3.38 2.61,4.02 z m -44.28,-3.41 c 2.14,-1.52 4.46,-2.09 0.77,-4.07 -1.78,-2.37 -1.75,-5.44 -3.46,-7.49 0.71,-3.83 6.06,4.38 9.53,2.71 2.16,0.73 4.39,1.03 5.08,4.07 2.25,-2.85 4.03,3.96 4.84,0.61 0.91,-1.15 6.91,6.22 5.17,1.24 0.19,-2.97 -4.1,-4.15 -4.69,-4.07 -0.89,2.89 -5.36,-3.21 -6.36,-4.81 -1.41,-2.91 -7.26,-1.28 -10.11,-3.94 -4.86,-2.04 -10.91,-1.15 -14.95,-4.98 -1.584,-3.85 -3.336,-1.03 -6.247,-3.52 -4.477,-0.41 3.578,3.16 3.349,2.9 -3.405,1.58 -3.242,2.94 1.203,2.2 4.265,2.55 11.375,5.76 2.247,6.41 -4.575,-0.29 -1.14,8.12 1.258,3.16 3.03,-2.69 5.28,-2.54 5.39,-5.22 2.49,1.32 -0.76,3.54 2.41,5.22 1.83,2.93 2.64,7.28 4.57,9.58 z m -18.349,-6.85 c 3.517,-5.04 -3.905,1.55 0,0 z m 38.289,-0.24 c 1.48,-2.69 2.22,-7.42 -1.65,-7.09 -3.36,-3.88 3.7,1.09 1.57,-1.38 -0.66,-2.93 -4.41,-0.95 -4.84,-3.7 0.55,-3.13 3.16,0.52 4.81,0.88 2.84,2.58 0.83,-3.12 -1.7,-2.74 1.01,-0.58 7.04,-1.09 4.97,-2.74 -3.57,2.74 -3.13,-1.8 -3.76,-2.91 -1.53,-1.29 4.38,-3.11 2.53,-0.8 -3.01,3.05 2.62,4.39 3.01,0.52 -0.85,1.02 1.83,3.89 2.33,-0.14 -0.59,-3.09 0.76,-8.88 -3.82,-9.24 1.81,0.88 4.13,9.06 1.3,5.93 -0.3,-2.48 -1.42,-6.92 -4.75,-5.43 -1.53,1.46 -6.1,0.13 -4.83,3.23 -2.38,2.21 -1.9,5.38 -2.32,8.5 1.08,4.29 -6.63,1.07 -3.89,5.11 1.8,3.08 4.69,4.73 7.79,3.83 3.58,4.07 1.84,6.94 -0.98,1.59 -2.14,0.36 0.99,4.83 2.88,5.37 0.22,0.84 1.55,1.61 1.35,1.21 z m -8.87,-12.47 c -3.61,-1.5 4.65,-1.28 0,0 z m 9.26,-10.44 c -3.04,-1.54 2.74,-1.4 0,0 z m 0,-3.33 c -1.79,-0.79 2.15,-1.63 0,0 z m -6.89,21.24 c 0.17,-4.17 -2.5,-0.28 0,0 z m -19.97,-7.45 c 0.53,-1.53 2.1,-8.38 -1.47,-5.63 -5.22,0.98 -0.15,1.32 0.51,4.29 0.29,0.48 0.44,1.65 0.96,1.34 z m 16.25,-2.99 c 2.89,-1.85 -1.24,-4.23 -0.34,-7.14 3.26,3.3 2.57,-2.77 -0.82,-0.86 -4.89,-3.52 -5.1,2.59 -1.75,4.79 1.9,0.82 0.14,3.2 2.91,3.21 z m 55.7,-1.12 c 3.62,-4.03 -2,-6.62 -0.94,-0.58 0.34,0.2 0.34,1.2 0.94,0.58 z m -32.12,-2.06 c 1.88,-2.63 2.69,-4.24 2.87,-7.38 -2.3,-2.4 -1.72,-0.26 -4.11,-0.14 0.42,2.48 0.39,5.5 -0.4,1.19 -1.15,-5.76 -3.22,0.22 -1.59,2.95 -0.6,5.12 -0.9,-3.84 -1.65,-5.7 -3.48,-4.78 0.2,5.72 -0.19,8.09 2.6,1.12 3.95,-1.72 5.07,0.99 z m 1.41,-3.79 c -2.74,-0.68 0.69,-5.16 0,0 z m -44.39,2.95 c 3.68,-1.72 -6.455,-4.71 -1.93,-1.04 0.65,0.31 1.11,1.28 1.93,1.04 z m 21.01,-4.65 c -0.97,-0.34 -4.38,-5.31 0.52,-1.81 1.93,0.13 -3.66,-4.68 0.64,-2.28 3.81,-1.25 1.59,-2.44 -0.77,-2.17 -2.75,-0.65 -1.33,-5.94 -4.42,-4.78 -1.92,2.51 -2.59,6.71 0.25,8.85 0.34,1.86 2.53,1.51 3.78,2.19 z m 26.54,-0.97 c 1.38,-1.85 -3.29,-4.54 -0.82,-0.27 -0.29,0.84 0.51,0 0.82,0.27 z m -78.788,-1.16 c 5.054,-4.17 -1.744,-6.68 -0.444,-0.32 l 0.117,0.32 0.327,0 0,0 z m 14.17,-1.24 c 4.065,-0.53 4.535,-4.51 1.563,-7.2 0.688,-3.36 0.425,-4.94 3.47,-5.89 1.559,-2.67 4.76,-2.48 6.441,-4.93 2.634,-0.28 4.224,-2.73 6.164,-3.94 2.39,-2.08 5.05,-2.7 7.6,-4.15 3.02,-1.93 5.92,-3.45 10.13,-1.46 -0.3,-1.84 -1.7,-4.66 -2.99,-4.53 -1.46,-0.65 -6.31,1.17 -4.43,-1.43 4.12,-1.09 1.88,-1.82 0.7,-2.56 -0.1,-0.93 -2.93,1.24 -1.6,-2.35 -4.03,-1.85 -2.7,6.23 -7.15,5.23 -0.15,3.26 -2.12,3.35 -4.47,4.66 0.16,3.72 -5.339,2.8 -5.287,5.99 1.978,2.55 -2.427,3.21 -2.772,1.04 -1.202,2.36 -1.979,2.5 -5.29,4.23 -1.922,2.62 -4.788,3.2 -6.734,5.94 -1.878,3.13 -5.629,3.88 -8.141,5.73 3.421,3.53 5.601,-1.34 8.586,-3.06 1.248,-3.8 3.938,-1.43 3.823,1.62 0.252,2.19 -1.58,5.59 0.387,7.06 z m 12.573,-21.32 c -0.915,-2.02 4.525,-6.38 6.615,-6.39 -1.45,2.51 -4.38,4.49 -6.615,6.39 z m 9.325,-7.09 c -4.47,1.43 0.28,-3.57 2.78,-2.78 4.1,-1.32 0.36,1.32 -0.38,1.32 -0.77,0.54 -1.57,1.03 -2.4,1.46 z m 41.11,27.48 c 2.4,-2.09 1.24,-9.53 -3.18,-7.66 -1.6,1.35 0.42,5.46 1.12,4.28 1.49,-3.16 0.39,4.01 2.06,3.38 z m -3.41,-0.69 c 2.86,-0.94 -3.68,-0.61 0,0 z m -15.54,-0.3 c 2.43,-1.52 -1.53,-0.66 0,0 z M 77.7,165.78 c 1.414,-1.31 -1.841,-0.68 0,0 z m 65.46,0 c 5.28,-0.66 -1.15,-5.29 1.82,-8.77 -1.69,-3.12 -5.71,-1.85 -6.28,2.35 0.28,5.74 1.25,-0.39 2.72,1.89 4.84,-1.69 -0.88,4.75 1.74,4.53 z m 9.21,0 c 3.21,-2.03 -2.47,-0.48 0,0 z m 2.78,0 c 4.66,-1.19 -4.93,-0.73 0,0 z m -15.24,-0.48 c 4.64,-2.08 0.33,-2.54 -2.09,-1.59 -0.33,1.05 1.16,2.08 2.09,1.59 z m -5.49,0 c 5.75,-0.55 -1.93,-4.09 -1.04,-0.51 0.1,0.64 0.59,0.63 1.04,0.51 z m 23.48,-0.65 c 4.95,-2.15 3.6,-4.64 -1.02,-2.78 -2.01,0.26 -0.89,3.24 1.02,2.78 z m -31.87,-2.01 c 4.19,0.48 3.9,-3.82 3.66,-6.71 -3.21,-2.99 -6.91,3.95 -4.15,6.88 0,0.37 0.78,-0.14 0.49,-0.17 z m 7.25,0.19 c 0,-3.67 1.31,-1.58 3.56,-3.37 2.32,-2.94 0.92,-6.55 -2.97,-5.83 -2.75,1.22 -3.61,5.53 -1.53,7.88 -1,1.01 1.49,0.81 0.94,1.32 z m 24.45,-1.75 c 2.26,-1.28 2.06,-2.89 2.06,-4.26 -2.03,2.97 -6.88,-1.92 -6.35,2.05 0.55,1.36 2.82,2.68 4.29,2.21 z m -0.86,-1.03 c -3.36,-0.88 2.31,-1.07 0,0 z m 4.74,0 c 1.98,-0.74 -2.68,-1.49 0,0 z m 15.15,-1.14 c 1.71,-3.61 -3.31,0.92 0,0 z m -79.221,-0.18 c 1.693,-2.32 9.971,1.32 5.871,-2.26 -0.1,-3.11 -1.4,-2.04 -3.89,-0.48 -2.031,3.01 -7.886,-1.51 -7.495,2.55 1.518,0.34 3.935,0.68 5.514,0.19 z m 54.171,-0.43 c 2.9,-2.16 -2.98,-0.56 0,0 z m 5.91,-1.05 c 4.12,-3.42 -3.91,-0.89 0,0 z m -52.34,-1.82 c 5.46,-1.15 -3.68,-1.38 0,0 z m 46.67,0 c 4.37,-1.51 2.29,-3.78 -1.25,-2.63 -2.66,1.2 -0.1,2.05 1.25,2.63 z m -71.605,-0.31 c 4.719,-0.14 -2.666,-5.33 -3.607,-5.07 0.716,4.03 -0.384,3.54 2.867,5.07 0.172,0.18 0.525,-0.1 0.74,0 z M 188.71,154.5 c -1.56,-9.48 -5.8,-18.47 -9.6,-27.27 -0.19,-2.77 -7.24,-13.08 -5.5,-5.8 0.81,3.61 5.56,7.5 3.78,10.96 -2.49,-1.56 -1.88,-8.7 -4.82,-7.57 -1.25,-0.17 -2.04,2.44 -1.58,4.41 -2.32,-1.18 -3.17,-6.54 -1.93,-0.52 0.9,3.94 2.02,8.01 2.18,12.19 -3.96,2.14 -1.39,-7.1 -2.81,-9.42 -3.06,-0.1 -1.37,-5.52 -4.16,-5.84 1.08,3.42 1.94,10.71 -0.35,2.48 0.53,-3.41 -4.74,-3.77 -2.48,-0.63 2.35,5.5 -0.63,13.65 1.01,18.19 9.58,-1.43 19.23,2.47 26.48,8.56 l -0.22,0.26 z M 70.933,153.76 c 7.146,0.48 3.194,-5.88 -0.197,-1.37 -0.586,0.14 -1.015,2.33 0.197,1.37 z m 85.177,-1.77 c 1.87,-2.12 -5,-1.19 0,0 z m 18.48,-0.77 c 0.93,-1.77 -1.85,0 0,0 z m -1.72,-0.74 c 1.7,-0.64 -2.46,-0.95 0,0 z m -33.64,-3.09 c 2.04,-1.22 3.82,-4.14 1.68,-5.62 0.94,-4.89 -9.8,7.83 -1.68,5.62 z m 49.55,0 c -0.84,-8.01 -5.7,-16.61 -9.1,-24.36 -1.78,-4.39 -0.36,-4.33 -4.35,-6.82 -4.9,-0.95 3.49,6.45 4.31,8.74 3.64,7.18 7,14.57 8.88,22.44 l 0.26,0 0,0 z m 2.07,0 c 1.83,-3.59 2.33,-8.75 5.52,-12.06 0.95,-3.83 5.67,-5.1 6.87,-7.97 -7.85,-4.98 -15.43,-10.63 -24.22,-13.86 0.1,4.72 5.74,5.39 7.61,8.77 1.59,3.05 5.33,3.98 5.21,8.34 -0.51,3.2 -2.5,-1.79 -4.37,-2.13 -2.38,-2.29 -3.16,-6.4 -6.57,-7.7 -3.21,-1.63 3.48,7.9 4.05,10.26 3.15,4.98 3.6,11.46 5.9,16.35 z m -58.89,-4 c 3.26,-0.5 4.13,-2.61 5.24,-5.3 -2.25,-0.63 -6.24,-0.38 -7.1,2.58 -1.62,0.91 0.75,3.09 1.86,2.72 z m -4.38,-2.79 c 4.03,-1.53 -2.14,-2.93 0,0 z m 31.3,-0.92 c 0.68,-1.43 3.63,-7.18 0.8,-4.3 -1.26,-2.83 -2.34,-4.54 -2.73,-7.69 0.56,-2.95 -4.71,-3.92 -2.9,-0.43 2.06,5.26 -1.78,5.43 -0.81,0.69 -1.42,1.54 -1.9,7.88 -2.68,2.72 -1.17,-1.31 -1.86,-3.88 -2.02,-5.92 -1.85,-4.35 1.34,-0.64 2.64,-2.75 1.99,-3.06 7.19,5.81 7.71,2.32 -1.44,-3.92 4.39,-0.27 6.36,-1.5 2.79,1.94 -0.53,-4.65 3.33,-0.82 1.49,-1.83 -2.05,-3.94 2.23,-3.54 0.29,-3.87 -0.1,-6.22 2.75,-5.45 -1.32,-4.04 0.48,-2.22 1.67,-3.87 -2.97,-2.44 -1.18,-3.55 -2.58,-5.17 1.93,-2.11 0,-5.26 1.56,-8.06 9.1,-13.67 23.13,-23.13 36.74,-31.96 3.27,-1.54 9.26,-6.56 2.05,-2.53 -7.99,5.26 -17.56,8.99 -24.08,16.05 -4.41,3.32 -10.23,7.22 -13.86,12.17 -3.02,4.07 -6.13,7.25 -6.72,12.02 -1.42,3.87 1.04,9.01 -2.27,12.06 -2.34,4.58 -8.62,6.15 -13.27,5.05 -2.51,-1.51 -6.33,0.11 -7.61,3.08 -1.43,2.99 -3.14,-0.46 -2.13,3.14 -2.4,0.63 -0.97,-4.96 -3.54,-3.59 0.1,5.06 -4.27,-2.16 -0.28,-2.85 -3.94,-1.33 -0.39,-4.63 3.15,-1.22 -1.78,1.96 -1.59,3.93 1.75,0.98 4.13,0.62 2.14,-2.18 0.18,-3.73 -1.81,-5.27 4.64,-8.43 6.27,-12.91 3.54,-6.58 6.63,-14.6 4.3,-22.11 -3.8,-3.79 0.55,6.06 -3.78,3.92 -4.22,-0.41 -5.31,-1.97 -1.6,-2.45 0.32,-2.63 -5,-3.76 0.62,-3.53 2.73,-2.61 7.26,3.46 6.72,-2.29 1.51,-3.87 6.84,2.73 4.35,-2.43 -2.33,-2 -0.32,-5.11 2.42,-4.8 5.77,0.77 -2.34,-3.57 -0.36,-6.48 3.87,-6.13 -2.68,-1.78 -5.6,0.59 -3.79,2.68 -6.36,6.17 -9.74,9.48 -1.76,3.16 -5.48,-1.44 -2.03,-2.07 2.76,-1.24 -3.09,-2.25 -4.54,-2.43 -2.49,0.21 -5.81,-0.41 -7.84,0.26 2.73,0.44 6.12,7.22 7.35,4.83 -1.2,-3.89 3.82,1.55 1.72,2.85 -3.53,-2.16 -8.41,0.27 -3.9,2.45 4.98,4.53 -6.13,-0.91 -7.57,-2.16 -3.43,-2.19 -5.56,-5.62 -10.43,-4.81 -3.59,1.75 -1.36,-3.6 -4.59,-2.71 -2.58,2.57 -11.4,-2.67 -11.33,0.86 1.33,4.49 7.65,1.88 10.07,5.48 6.73,1.09 15.1,0.44 19.86,6.31 1.62,2.46 -0.67,3.41 -0.82,5.78 1.76,2.81 4.95,-3.08 2.92,-5.25 -1.77,-4.8 3.64,4.64 3.52,0.32 4.8,-0.84 2.47,2.23 0.65,4.38 -5.42,-1.07 0.82,1.71 -2.51,2.89 0.57,2.7 4.39,0.1 6.1,1.9 -0.97,-2.21 -1.13,-4.85 2.71,-3.66 2.61,0.22 -2.13,-5.79 2.51,-2.18 0.13,1.78 3.55,4.68 0.6,4.65 -2.32,-1.73 -5.67,-1.65 -3.5,1.64 -0.81,4.43 -3.52,1.19 -5.79,0.74 -4.12,-0.93 -6.03,1.25 -7.2,4.2 -2.08,1.38 -0.71,4.7 -4.02,4.23 1.93,3.28 -3.79,4.21 -4.29,7.32 -1.24,1.57 -3.69,5.44 -3.49,7.19 -1.24,2.45 5.94,4.12 7.5,1.49 1.89,0.4 5.72,-2.02 6.48,0 -3.16,-1.02 -2.95,3.15 -6.16,2.66 -3.13,-0.89 -4.47,1.83 -8.38,0.84 -3.31,-0.22 -5.43,2.94 -5.12,6.02 2.89,-0.16 -1.57,8.18 4.62,6.85 0.1,2.43 1.29,3.53 3.6,1.17 0.42,-3.87 5.79,-0.11 3.87,-4.37 2.93,-2.72 1.76,3.73 2.49,3.2 0.89,-2.66 4.95,-4.12 4.65,-7.58 1.02,0.99 4.06,2.28 2.43,4.58 0.1,4.38 1.69,0.85 1.96,-1.42 1.23,0.95 3.47,1.29 3,3.41 3.66,-2.65 2.2,3.28 3.16,5.02 3.61,-1.09 7.11,-0.47 10.45,1.36 0.5,0.49 2.35,1.27 2.25,1.88 z m -23.11,-20.06 c -5.83,-3.1 4.23,-1.95 0,0 z m -10.37,-3.41 c -4.62,-1.92 -0.75,-3.43 0.1,-1.76 0.75,-4.08 4.42,0.73 0.31,1.76 l -0.38,0 0,0 z m 14.72,-0.92 c -1.82,-0.85 2.12,-1.51 0,0 z m -2.8,-1.55 c -3.3,-2.81 1.14,-1.05 3.01,-2.16 1.98,-0.17 -2.51,3.33 -3.01,2.16 z m -5.07,-0.31 c -6.05,-1.26 0.99,-3.84 1.06,-0.32 -0.11,0.56 -0.94,0 -1.06,0.32 z m 3.28,-2.78 c -3.77,-3.76 7.18,-1.05 0,0.1 l 0,-0.1 z m 5.36,-0.62 c -4.39,-0.47 3.04,-3.99 1.59,-0.83 -0.53,0.6 -0.7,1.03 -1.59,0.83 z m -2.09,-2.78 c -5.47,-1.99 5.36,-1.71 0,-0.1 l 0,0.1 z m 4.31,-2.46 c -4.03,-1.97 3.36,-2.74 0.12,0 l -0.12,0 z m -3.59,-1.23 c -3.93,-2.53 5.36,-1.04 0,0 z m 5.34,-1.31 c -4.49,-0.55 1.22,-3.94 0.77,-0.55 l -0.77,0.62 0,-0.1 z m -6.27,-1.79 c -6.06,-2.99 6.07,-1.83 0,0 z m 10.7,-0.92 c -1.65,-0.46 -5.91,-1.9 -1.92,-2.6 1.08,-0.6 3.37,2.02 1.92,2.6 z M 140.7,96.7 c -4.28,-2.27 3.98,-0.68 0,0 z m 9.88,0 c -2.31,-0.8 1.94,-1.75 0,0 z m -2.16,-1.15 c -4.89,-2.98 5.48,-1.51 0,0 z m 3.4,-1.32 c -2.3,-0.68 1.87,-1.68 0,0 z m -2.01,-2.44 c -4.41,-0.43 4.08,-1.69 0,0.33 l 0,-0.33 z m 1.53,-5.5 c -3.39,-1.96 4.2,-0.82 0,0 z m 1.3,-11.26 c -4.46,0.8 -3.15,-2.46 -1.08,-4.45 1.2,-2.36 3.97,-2.99 5.29,-5.28 1.16,-0.3 5.4,-7.54 4.77,-3.2 0,2.93 -0.15,5.63 -3.53,4.75 2.39,2.62 -2.87,0.55 -0.76,3.66 -3.06,2.07 -5.29,0 -2.34,4.16 -0.1,0.83 -2.05,0.2 -2.35,0.36 z m -26.23,63.91 c 4.67,-5.08 -4.34,-4.47 -1.91,-1.36 0.68,-3.79 0.62,2.02 1.91,1.36 z m 5.05,-1.39 c 3.28,-1.47 -2.79,-1.64 0,0 z m -2.82,-0.36 c 2.2,-3.56 -1.86,-0.78 0,0 z m 32.02,-3.35 c 0.99,-4.02 -2.36,-5.03 0,0 l 0,0 z m -49.76,-5.52 c 0.54,-1.38 3.07,-4.45 -1.66,-4.71 -4.11,-1.25 -0.98,6.48 1.66,4.71 z m -12.984,-0.44 c 4.844,-0.57 -2.307,-4.32 -1.116,0.19 0.299,0 0.884,-0.14 1.116,-0.19 z m 5.104,-0.55 c 1.33,-0.83 -2.32,-4.85 -1.67,-7.08 -2.803,-1.91 2.64,-5.25 -1.716,-4.77 -1.234,0.47 -1.703,-3.51 -0.387,-4.66 2.303,-0.77 -0.311,4.83 1.593,3.42 3.37,-1.17 1.4,-6.98 -1.687,-5.93 0.441,3.64 -3.599,0.57 -2.151,-1.4 3.728,0.54 2.38,-4.23 -0.02,-5.41 1.006,-3.4 -2.851,-6.74 -3.941,-9.23 -2.103,-0.1 0.09,-4.49 -3.411,-4.76 -1.231,-3.74 -4.658,-7.88 -6.682,-11.84 -0.72,-3.62 0.152,-7.36 -3.162,-3.08 -4.509,-0.81 1.367,2.74 1.782,4.72 -1.635,3.22 3.41,5.78 2.937,7.66 -2.251,1.66 -8.129,-2.83 -6.779,0.99 1.545,2.15 -2.626,5.08 0.733,5.25 0.1,-2.64 6.077,-4.88 5.582,-1.15 -2.038,1.65 -1.232,4.88 -1.929,7.74 -2.734,0.54 -2.839,2.73 -0.05,2.13 3.413,4.12 1.467,-3.68 3.601,-5.07 3.423,-1.49 1.976,6.37 3.759,8.64 1.126,4.96 4.651,9.31 6.279,13.7 2.489,0.34 0.298,7 2.481,4.36 1.978,-4.72 -0.25,4.14 2.648,4.93 0.62,0.59 1.95,-0.16 2.19,0.84 z m -6.237,-20.67 c -0.83,-0.7 -4.111,-4.57 -0.355,-3.38 -0.261,1.43 2.975,2.34 0.355,3.38 z m -1.941,-4.07 c -2.846,-0.85 2.599,-2.04 -0.137,0.16 l 0.137,-0.16 z m -1.168,-2.09 c -3.872,-1.32 4.536,-2.16 0,0 z m -0.412,-2.17 c -4.426,-3.59 1.668,-1.79 0,0 z m -3.144,-5.92 c 0.269,-0.92 0.109,-0.45 0,0 z M 89.5,89.93 c 0.08,-0.83 -0.02,-0.38 0,0 z m 113.67,34.6 c 0,-4.32 -0.1,-10.52 2.37,-15.12 1.58,-6.16 6.14,-10.19 9.95,-14.82 -11.35,0.63 -22.6,4.31 -32.26,10.25 3.45,0.14 9.32,-4.5 11.42,-1.63 -6.48,0.3 -8.7,2.76 -12.3,4.13 -3.78,2.13 6.93,0.18 1.38,1.85 0.43,1.51 -0.33,2.34 4.14,3.37 4.32,4.25 10.12,6.7 13.93,11.56 0.37,0.39 0.89,1.19 1.37,0.41 z m -14.36,-13.26 c -6.41,-1.46 2.65,-1.12 0,0 z m 0,-2.75 c -5.6,-0.77 5.02,-0.74 0.1,0.15 l -0.1,-0.15 z m -0.56,-2.18 c -8.39,0.16 9.82,-2.35 2.12,-0.1 l -1.02,0 -1.1,0 z m -75.03,16.69 c 1.97,-1.17 -2.78,-0.66 0,0 z m -8.36,-1.08 c 1.29,-2.33 -1.84,0.1 0,0 z m 7.72,-0.17 c 5.66,-0.79 -3.42,-2.66 3.47,-2.29 4.77,-4.38 -3.36,-1.9 -5.7,-4.51 -3.49,-1.94 -5.88,5.87 -1.32,5.34 1.14,0.48 2.34,1.51 3.55,1.46 z M 102,119.32 c 3.16,-2.3 1.39,-6.35 -0.15,-1.03 0.14,0.28 -0.68,1.31 0.15,1.03 z m 18.4,-0.92 c 3.46,-1.19 -2.54,-1.22 0,0 z m 34.42,-0.31 c 2,-1.04 -1.95,-1.09 0,0 z m -4.79,-0.62 c 2.02,-1.42 5.92,-0.88 6.9,-2.67 -3.86,-1.93 2.99,-3.36 -0.6,-4.72 1.14,-0.78 -1.12,-5.62 -1.82,-1.23 0.64,3.31 -1.53,6.54 -4.38,7.73 -0.85,-0.72 -0.75,1.61 -0.1,0.89 z m 7.42,-0.17 c 4.5,-0.45 4.97,-3.24 6.99,-5.02 -0.37,-1.65 -6.48,1.5 -3.7,2.38 -1.1,0 -6.82,2.94 -3.29,2.64 z m 32.79,-0.18 c -1.97,-2.31 -7.62,-6.93 -12.26,-7.19 0.45,3.96 6.5,3.29 8.94,5.61 1.2,0.33 2.14,1.21 3.32,1.58 z m -76.85,-1.85 c 3.18,-0.74 -2.42,-1.97 0,0 z m 35.95,-0.58 c 4.01,-1.28 3.61,-6.68 1.96,-9.66 -2.47,0.43 -4.84,5.16 -5.5,8.08 0.39,2.05 1.95,1.6 3.54,1.58 z m -42.85,-0.66 c 2.37,-1.69 -2.99,-1.83 0,0 l 0,0 z m 9.48,-0.31 c 3.71,0.46 1.72,-2.72 3.62,-3.05 -6.01,-0.15 6.25,-1.46 -1.58,-2.56 -3.13,-0.22 -5.28,-4.68 -7.87,-0.76 -3.26,4.22 0.6,5.47 4.07,6.34 0.57,0.1 1.18,0 1.76,0 z m 42.25,0 c 4.41,-2.81 -3.95,-3.02 0,0 z m 3.44,-2.16 c 5.59,-0.99 4.02,-4.36 -0.72,-1.16 -1.06,0.82 0,1.38 0.72,1.16 z m -2.01,-1.44 c 0.19,-1.94 -1.24,-5.29 0.83,-5.86 -1.23,-4.21 -2.7,-0.6 -3.94,0.36 -2.82,-1.92 -4.67,3.3 -0.75,1.43 4.41,-1.33 -0.1,4.39 3.91,3.91 l 0,0.16 z m 2.58,-1.03 c 4.83,-0.64 3.82,-5.1 -0.88,-1.28 -0.97,0 0.12,2.08 0.88,1.28 z m 14.13,-1.24 c 5.09,-2.97 9.71,-7.58 15.66,-9.22 4.14,-1.21 13.47,-5.5 3.54,-2.29 -7.1,2.91 -14.33,5.86 -20.49,10.53 0.44,0.3 0.6,1.23 1.29,0.98 z m -95.62,-0.31 c 5.904,-2 -0.331,-6.24 0,0 z m 40.3,-0.31 c 4.41,-0.63 -4.25,-0.81 0,0 z m 40.22,0 c 3.5,-0.26 6.88,-6.74 1.95,-2.3 -0.1,0.43 -4.1,2.04 -1.95,2.3 z m -39.85,-1.56 c 2.92,-0.23 -3.7,-2.29 2.39,-1.85 3.44,0.35 4.3,-4.31 0.26,-3.36 -3.23,0.45 -6.59,-3.59 -9.19,0.1 -1.62,3.74 1.66,1.29 2.49,4.1 1.1,0.97 2.94,0.43 4.05,1.05 z m 41.02,-1.2 c 5.29,-1.48 2.87,-4.89 5.07,-7.12 2.77,-4.79 -4.76,3.04 -5.43,4.17 4.21,-0.86 1.87,-1.58 0.36,2.95 z m -7.62,-0.97 c 2.94,-1.21 6.92,-4.2 7.36,-6.3 -2.74,0.27 -2.71,3.06 -5.92,3.04 0.21,2.26 -5.89,0 -3.37,3.02 0.57,-0.1 1.48,0.72 1.93,0.24 z m 24.23,-1.2 c 8.09,-4.37 16.4,-9.25 25.86,-9.53 5.28,-0.83 12.26,0.72 7.48,-5.76 -0.77,-10.12 4.2,-19.63 9.48,-27.94 -6.14,3.07 -11.33,8.21 -17.69,11.11 2.46,1.32 5.88,-4.4 8.81,-2.8 -0.43,3.46 -6.18,1.01 -8.29,4.97 -3.62,2.64 -10.55,4.53 -7.63,6.59 -3.55,0.95 -15.41,8.88 -5.54,4.23 1.02,2.01 -5.53,1.79 -4.7,4.76 -2.85,3.18 -3.08,5.43 -7.54,7.54 -4.96,4.19 -1.59,0.81 1.12,0.61 -0.48,3.59 7.2,-3.79 9.92,-4.26 3.19,-0.18 -4.9,3.99 -5.84,5.27 -4.92,4.17 -0.54,-2.27 -6.81,2.62 3.33,-3.74 -4.9,1.64 -0.66,1.32 -0.66,0.81 1.66,0.76 2.03,1.27 z m -17.14,-1.85 c 3.87,-3.21 -1.53,-1.15 0,0 z m -7.06,-0.62 c -0.21,-1.65 4.41,-2.91 0.81,-3.81 -0.82,0.3 -2.48,4.09 -0.81,3.81 z M 122,98.59 c 1.04,-2.16 4.95,0.4 4.93,-1.64 1.94,1.49 7.25,-1.99 3.15,-2.22 -3.05,0.6 -5.64,-2.95 -8.47,-0.84 -2.67,0.94 -2.09,3.98 0.39,4.7 z m 42.05,-0.62 c 4.94,-3.86 9.07,-8.51 13.11,-13.23 6.6,-6.29 14,-11.59 21.63,-16.58 0.79,-2.31 -4.67,-1.78 -3.35,-5.2 2.92,-7.96 -2,-2.66 -5.47,-0.45 -3.31,1.44 -4.77,5 -8.15,6.45 -7.67,7.89 -15.4,15.95 -21.59,25.1 -1.75,8.3 6.51,-7.17 8.73,-8.76 6.83,-7.41 13.38,-15.87 22.09,-20.94 -2.16,4.16 -11.01,9.66 -15.12,14.82 -3.24,2.71 -8.89,10.16 -1.62,3.4 1.5,-2.17 12.51,-11.2 5.59,-4.01 -5.03,4.68 -10.89,9.22 -14.58,14.9 6.83,-3.33 -3.46,3.91 -1.27,4.5 z m 4.58,-6.51 c 2.81,-3.9 11.16,-11.74 16.97,-15.71 -1.72,4.03 -10.45,8.38 -14.04,12.98 -0.95,0.94 -1.9,1.88 -2.93,2.73 z m 9.29,4.07 c 3.92,-2.48 -2.76,-0.33 0,0 z m -20.04,-0.67 c 0.43,-2.57 5.22,-4.93 7.51,-9.75 5.39,-7.38 12.08,-13.83 18.81,-19.93 -5.57,2.46 -9.96,7.54 -14.49,11.65 -4.24,1.72 -4.48,7.86 -6.12,7.18 -4.22,1.21 0,3.29 -3.93,4.06 3.5,1.4 -8.42,5.53 -1.76,6.93 l 0,-0.14 z m -29.24,-1.51 c 2.4,-0.34 3.23,-5.26 -1.11,-3.92 -3.92,1.25 0.68,3.57 1.11,3.92 z M 181.1,91.5 c 3.99,-1.86 -1.82,-0.34 0,0 z m -45.17,-0.93 c 2.48,-1.73 -3.69,-4.04 -3.94,-3.09 0,1.45 3.26,1.88 3.94,3.09 z m -7.59,-2.82 c 3.72,-0.76 -2.48,-3.08 -3.8,-3.79 -5.73,-1.93 -11.98,0.22 -17.64,-2.23 -1.21,1.75 3.98,2.38 5.75,2.61 4.69,0.3 9.47,0.23 13.62,2.75 0.6,0.44 1.57,0.5 2.07,0.66 z M 74.729,87.32 c 5.862,-0.89 -4.831,-0.75 0,0 l 0,0 z m 56.651,-1.7 c 4.73,-2.15 -3.34,-5.91 -5.72,-5.73 -3.77,-1.99 -12.5,-1.7 -3.54,0.26 3.03,1.4 8.57,1.92 9.26,5.47 z m -6.72,-2.8 c 1.04,-0.9 -5.6,-3.56 -7.62,-2.85 -3.95,2.48 6.82,2.18 7.62,2.85 z M 88.263,81.21 c 0.739,-2.52 1.364,-6.43 4.844,-7.03 -0.12,-1.49 -3.602,-2.75 -4.174,-3.74 -0.989,2.16 2.266,4.36 -1.599,6 -0.439,1.55 -0.942,4.41 0.929,4.77 z M 190.92,80.99 c 5.23,-1.46 -0.68,-2.65 0,0 z m -62.31,-1.22 c 3.86,-1.87 -7.87,-2.25 -0.39,0 l 0.32,0 0.1,0 z M 113.7,78.58 c -0.34,-2.1 -4.22,0.4 0,0 z m 10.36,-0.36 c 2.02,-0.7 -3.7,-0.83 0,0 z m -8.88,-1.36 c 1.83,-2.76 -3.67,-1.33 0,0 z m 3.57,0.18 c 4.05,-0.74 -4.57,-1.98 0,0 z m 15.13,-1.24 c 3.54,-1.42 -4.35,-1.01 0,0 z m -2.45,-1.24 c -1.7,-1.96 0.67,-7.61 -5.11,-7.11 -2.8,-0.44 -2.95,2.84 -5.42,0 -4.64,0.94 -0.4,3.15 2.41,2.4 3.7,-0.93 5.61,1.89 7.36,4.52 l 0.76,0.35 0,-0.16 z m 3.38,-0.34 c 4.97,-2.23 -5.14,-0.34 -1,-3.06 2.89,-2.01 -4.46,-1.89 -1.47,1.24 0.32,1.28 1.28,1.56 2.47,1.82 z M 92.403,70.8 c 2.976,-3.52 -2.766,-4.01 0,0 z M 80.139,70.23 c 2.24,-3.14 -2.614,-4.63 -0.02,0 l 0.02,0 z m 49.431,-3.09 c 3.38,-1.8 -4.33,-1.48 0,0 z m 21.01,0 c 2.65,-3.78 -5.92,-0.33 0,0 l 0,0 z m -7.37,-1.2 c 0.57,-1.36 8.36,-8.45 6.05,-4.48 -4.82,3.77 -1.98,2.7 1.65,0.13 5.03,-0.5 2.79,-3.98 0.67,-5.61 -2.99,1.42 -6.79,2.92 -6.96,6.8 -0.45,0.73 -2.86,3.14 -1.41,3.16 z m 5.17,-0.62 c 5.91,-2.46 3.12,-4.69 -0.58,-0.34 l 0.17,0.17 0.41,0.17 0,0 z"/></g>
</svg>
