<?xml version="1.0" encoding="UTF-8" standalone="no"?>
<!DOCTYPE svg PUBLIC "-//W3C//DTD SVG 1.1//EN" "http://www.w3.org/Graphics/SVG/1.1/DTD/svg11.dtd">
<svg xmlns="http://www.w3.org/2000/svg" width="300px" height="350px">
<g>
<path id="fill" d="m 186.94,50.8 c -4.98,1.93 -9,5.94 -13.47,8.84 -9.05,6.91 -17.81,14.23 -25.48,22.69 -2.37,2.38 -4.93,5.06 -8.49,5.28 -0.86,-5.58 3.28,-9.9 6.28,-13.97 -0.49,-0.85 -2.69,0.59 -3.66,0.81 -3.2,1.54 -6.38,3.39 -8.21,6.5 -2.55,2.56 -6.22,-1.07 -4.91,-3.93 0.15,-2.67 2.76,-3.54 4.31,-5.29 0.51,-2.01 -2.6,0 -3.4,0.13 -6.99,3.57 -9.17,12.04 -16.1,15.75 -3.65,2.22 -7.96,4.74 -12.25,2.56 -1.738,-0.48 -3.521,-1.92 -5.06,-2.06 -2.493,3.73 -7.646,3.42 -11.469,2.25 -3.955,-0.44 -8.84,2.32 -12.219,-0.38 -1.674,-1.26 0.07,-5.34 -2.562,-5.37 -3.688,1.76 -2.19,6.78 -0.562,9.53 3.317,6.6 13.691,4.54 16.5,11.31 0.06,1.48 -3.508,0.27 -4.876,0.31 -4.318,-0.8 -8.684,-2.34 -12.5,-4.43 -0.766,-1.61 -2.565,-5.11 -4.593,-3.13 -2.491,3.06 1.52,6.61 4.381,7.7 2.235,1.34 5.744,0.8 6.655,3.84 0.799,2.91 3.087,4.15 5.732,5.15 4.606,2.34 9.7,4.24 15.013,3.44 2.316,0 1.147,2.69 -0.103,3.47 -1.442,2.28 -3.209,4.37 -5.531,5.88 -2.041,1.42 -2.732,4 -1.835,6.21 -0.385,3.37 -6.069,4.32 -4.625,8.25 0.273,1.43 1.209,5.19 -1.25,4.94 -3.214,-1.01 -4.024,-5.71 -7.875,-5.35 -5.172,-0.34 -6.502,5.92 -6.753,10 -0.242,6.65 -0.912,13.32 -2.778,19.63 -0.425,2.12 0.162,4.62 -2.75,3.94 -4.062,0 -6.708,3.76 -6.649,7.56 -0.306,0.96 -0.09,4.38 1.555,3.12 0.982,-1.15 1.118,-2.97 3.063,-2.53 2.859,-0.34 3.721,3.23 2.156,5.1 -1.459,1.95 -4.773,4.31 -2.844,7 1.288,1.4 0.02,4.15 1.813,5.71 2.246,3.6 9.658,3.97 9.75,-1.31 -1.349,-0.36 -4.214,1.61 -4.969,-0.65 -0.437,-2.39 2.374,-3.52 3.063,-5.19 0.08,-2.21 -1.801,-5.8 0.593,-7.16 2.975,0.73 -0.716,5.87 2.781,6.16 3.761,-0.55 4.379,5.38 8.188,4.44 1.755,-0.11 4.83,-1.35 4.312,-3.44 -1.657,0.55 -4.629,1.48 -5.062,-1.13 -0.837,-2.28 2.659,-5.42 0.03,-7.06 -3.899,0.16 -5.749,-5.2 -2.969,-7.75 1.38,-1.16 3.287,-0.63 4.719,-1.65 2.851,-0.58 2.514,3.48 3.407,4.74 2.519,-0.23 1.344,-5.05 3.906,-4.87 3.517,2.24 4.921,7.04 9.094,8.5 2.543,1.52 0.577,5.02 0.968,6.91 3.275,-0.29 4.605,-4.39 4.285,-7.19 0.64,-2.63 4.74,-1.4 5.59,-3.85 2.65,-0.69 4.06,2.01 3.3,4.25 -1.65,4.08 3.11,7.7 1.08,11.6 1.73,2.69 1.66,6.16 0.1,8.94 0.75,2.86 1.01,6.19 0.4,8.9 3.5,3.15 -3.26,7.09 -0.28,10.44 -1.93,2.36 -5.05,5.75 -8.31,3.59 -2.75,-1.33 -5.3,-5.9 -8.687,-3.72 -2.902,2.19 -7.714,3.47 -8.625,7.38 0.103,1.99 1.706,0.99 2.687,0 1.847,-1.51 4.52,-1.95 6.532,-0.5 1.696,0.52 5.433,-0.99 5.813,1.56 -0.55,2.87 -4.008,0.56 -6.032,1.25 -3.07,0.1 -2.188,3.75 -3.438,5.6 -0.85,2.22 -1.734,5.6 0.06,7.5 2.781,0.1 2.37,-3.92 4.937,-4.38 2.653,-1.16 6.233,-0.83 7.693,-3.81 0.96,-0.87 3.99,-2.42 3.91,0 -0.57,1.99 -0.94,5.45 2.03,5.43 0.95,0.72 0.59,4.81 2.84,4 2.31,-1.87 4.02,-4.97 4.53,-7.81 -0.44,-1.98 -3.66,-4.11 -2,-6.12 2.53,-1.59 4.52,1.75 7.1,1.91 2.44,0.49 4.35,3.18 7,1.71 1.6,-1.02 3.68,0.36 2.9,2.31 -0.14,1.73 2.74,0.3 3.13,-0.78 0.21,-1.28 0.1,-2.54 0.5,-3.84 -1.32,-2.69 -3.45,-6.44 -6.94,-6.31 -2.02,0.51 -6,2.35 -6.88,-0.6 0.15,-1.74 1.13,-3.03 0,-4.65 -1.85,-7.75 1.4,-15.57 1.95,-23.32 0.53,-4.18 1.35,-8.39 0.99,-12.53 0.41,-3.06 4.84,-4.63 4.81,-7.47 -1.57,-0.85 -4.15,-3.7 -2.12,-5.25 2.33,-0.48 4.6,1.96 6.86,0.17 2.01,-1.14 4.33,-2.13 6.7,-2.1 3.01,-1.45 6.07,-3.76 9.59,-3.53 3.4,-2.01 7.89,-0.89 11.32,-2.91 2.62,-0.99 3.63,2.21 3.24,4.25 0.64,3.31 -0.73,6.9 0.66,10 2.64,1.64 0.11,5.58 2.6,7.5 2.04,0.44 2.51,2.53 4.29,3.66 1.95,1.19 2.96,3.24 3.52,5.28 2.43,2.73 2.05,7.22 -0.85,9.4 -2.89,4.65 -6.74,8.56 -9.4,13.38 -2.27,2.43 -4.49,6.69 -8.34,6.18 -3.25,-0.65 -3.31,-5.76 -6.94,-5.28 -3.59,-0.2 -6.83,1.93 -9.38,4.07 -0.65,1.03 -1.83,3.56 -0.4,4.28 1.89,-0.58 3.67,-4.55 5.84,-2.38 0.88,3.03 -3.08,4.55 -4.38,6.78 -2.54,2.5 -1.63,7.31 1,9.13 1.75,-0.42 0.4,-3.22 1.29,-4.5 0.32,-2.66 3.37,-3 5,-1.25 2.58,-0.29 4.61,-3.83 7.25,-2.85 0.43,1.08 0.39,2.08 1.28,2.97 1.27,2.78 -1.06,7.01 1.59,9 3.14,-0.98 1.14,-6.17 4.38,-7.31 1.59,-0.66 4.02,-2.54 1.78,-4 -1.2,-1.51 0.19,-3.56 2.03,-2.72 3.07,0.78 6.03,1.86 8.84,3.19 1.23,-0.46 1.32,-2.37 3.03,-1.31 2.42,0.89 -0.39,3.84 1.03,5.03 4.23,-1.3 3.92,-7.83 0.79,-10.13 -1.56,-1.62 -3.95,-1.88 -5.75,-0.68 -1.36,0.23 -4.81,0.74 -4.5,-1.35 1.14,-0.75 2.23,-1.21 2.4,-2.81 2.11,-4.78 6.73,-8.05 9.72,-12.09 4.33,-3.36 5.66,-9.63 10.41,-12.38 5.14,1.04 5.71,-7.62 10.87,-6.37 2.57,1.36 5.25,3.82 8.47,2.53 3.6,0 2.44,4.69 2.35,7.03 1.81,2.32 -1.43,4.69 -0.47,7.12 -0.98,5.09 -0.84,10.78 -4.03,14.97 -2.76,1.71 -3.86,-2.5 -5.82,-3.59 -1.82,-1.45 -4.69,-2.2 -6.5,-0.34 -4.21,0.37 -10.05,3.9 -8.18,8.81 1.64,0.57 2.72,-1.79 3.46,-2.91 2,2.8 6.38,0.23 8.54,2.25 -0.1,2.67 -3.68,3.42 -5.88,2.59 -1.55,-0.62 -3.37,0 -3.41,1.79 -2.4,2.4 -5.02,5.52 -3.93,9.15 0.1,1.15 1.56,3.41 2.72,2.22 -0.77,-4.22 4.19,-6.9 7.65,-5.34 2.34,-2.45 6,-2.63 9.03,-3.82 -2.01,4 4.23,5.08 3.47,8.91 -0.5,2.08 3.09,4.89 4.56,2.81 0.1,-1.52 -1.94,-3.34 -0.68,-5.09 1.06,-2.31 5.73,-2.9 3.71,-5.94 -1.35,-3.57 3.22,-5.79 6.04,-4.25 2.17,0.63 4.78,2.43 6.25,0 2.14,-1.55 1.41,1.88 1.93,2.97 4.48,0.45 5.41,-6.75 2.13,-9 -1.38,-1.68 -4.12,-2.7 -5.5,-0.62 -1.99,1.8 -6,0.84 -5.59,-2.35 -0.17,-10.91 5.41,-20.92 6.87,-31.4 1.25,-3.71 7.16,-4.67 6.47,-9.1 -0.86,-2.44 -2.31,0.82 -3.22,1.53 -2.71,2.39 -6.57,-0.25 -9.12,-1.78 -2.97,-2.12 -6.09,-4.12 -9.66,-4.81 -3.2,-2.24 0,-7.78 -4.13,-9.46 -0.17,-0.94 4.22,0.31 5.73,0.77 6.76,2.32 15.33,1.27 20.4,-4.06 3.05,-3.88 3.03,-9.36 2.72,-14.12 -1.88,-7.03 -2.93,-14.67 -7.97,-20.33 -3.72,-5.45 -7.05,-11.72 -7.19,-18.42 -0.32,-1.66 1.05,-4.36 2.84,-2.63 2.22,1.58 4.52,5.79 7.6,4.63 1.33,-0.1 1.62,-1.08 0.44,-1.72 -1.94,-1.51 -4.08,-3.81 -2.78,-6.41 1.75,-7.21 7.6,-13.73 5.68,-21.53 0,-2.06 -3.03,-1.96 -2.44,0.31 0.1,3.3 -3.36,5.19 -5.15,7.53 -5.75,3.33 -14.41,4 -17.13,11.03 -0.91,2.32 -2.09,5.69 -0.65,7.82 2.47,-1.5 1.92,-7.02 5.87,-6.5 2.59,0.16 -0.17,2.51 0.1,4 -1.99,11.71 5.91,21.64 11.1,31.37 1.04,2.63 4.2,5.9 1.75,8.6 -1.87,1.5 -1.8,4.28 0.65,5.12 0.16,4.76 -4.5,9.22 -9.15,8.62 -2.51,-0.71 -1.58,-4.72 -3.88,-5.43 -1.64,0.43 -1.77,3.41 -3.97,3.34 -4.64,-0.35 -6.53,-5.96 -10.87,-7.03 -2.52,-1.86 1.46,-4.02 0.81,-6.22 -2.59,-0.81 -5.53,-0.42 -7.84,0.97 -2.04,-2.87 -6.66,-2.36 -8.13,-5.72 5.18,-2.06 11.32,-1.19 16,1.75 1.27,0.62 3.44,1.06 4.29,-0.22 -3.53,-4.14 -10.36,-6.07 -11.26,-12.09 -3.15,-7.12 -2.36,-16.3 2.6,-22.38 1.65,-2.12 4.51,-3.09 7.03,-2.43 2.27,-0.56 1.33,-3.29 -0.69,-3.47 -3.3,-0.13 -4.87,-3.83 -6.18,-6.47 -1.24,-4.51 -0.69,-9.45 -0.16,-14.1 0.87,-5.54 3.6,-10.61 7.06,-14.9 2.4,-5.36 10.02,-5.53 12.75,-10.34 -0.1,-1.48 -3.19,0.5 -4.41,0.43 -11.91,3.34 -22.65,9.45 -33.5,15.13 -4.37,1.57 -7.21,6.93 -12.15,6.87 -3.46,-1.66 -2.54,-6.84 -1.83,-9.92 1.81,-6.26 6.29,-11.06 10.92,-15.39 1.82,-0.65 4.8,-2.55 3.72,-4.72 -0.27,-0.1 -0.56,-0.21 -0.84,-0.12 z m 50.09,185.43 c -0.1,0 0,0.1 0,0 z m -140.78,-132 c 2.746,0.24 6.28,0.25 8.06,2.53 -0.1,2.58 -3.55,0.82 -5.147,0.89 -1.953,-0.62 -5.231,-0.35 -6.225,-1.92 0.265,-1.39 2.169,-1.47 3.312,-1.5 z m 33.84,27.72 c 2.17,0.52 3.94,4.88 0.85,5.19 -1.11,-0.39 -3.37,0.47 -3.35,-1.28 0.49,-1.32 1.49,-3.61 2.5,-3.91 z m -52.996,28.28 c 0.682,2.88 3.28,4.96 5.937,5.85 -0.55,1.46 0.582,2.49 1.094,3.81 -2.818,-2.47 -6.866,-0.33 -8.719,2.03 -1.516,-0.58 0.224,-4.51 -0.225,-6.4 0.426,-1.93 -0.391,-4.94 1.757,-6 l 0.106,0.48 0.05,0.23 z m -21.25,22 c 0.256,0.13 -0.09,-0.43 0,0 z m 135.816,1.85 c 4.43,1.9 8.18,5.13 10.81,9.03 0.55,2.88 -3.56,3.27 -5.59,3.37 -2.91,0.2 -5.82,-1.15 -6.5,-4.22 -1.4,-2.62 -1.41,-6.24 0.93,-8.31 l 0.35,0.13 z"/><path id="outline" d="m 210.46,166.69 c -2.63,-5.68 -4.11,2.23 -6.02,-0.23 1.3,-2.67 -1.69,-7.7 2.4,-3.78 0.68,0.27 4.86,2.61 4.68,0.28 -3.14,-1.29 -2.93,-3.39 -6.29,-4.16 -5.38,-0.9 -5.43,-7.46 0.76,-2.23 2.94,1.91 7.27,2.22 7.33,6.63 1.78,4.03 6.62,4.65 10.36,5.9 -2.23,-2.56 -6,-0.92 -6.77,-4.97 -1.32,-2.77 -4.35,-4.07 -5.3,-6.47 -3.06,-2.06 -8.82,-4.99 -5.85,-8.09 -3.85,4.5 -7.41,-2.23 -12.25,-3.47 -5.53,-1.44 -2.76,2.12 0.46,3.19 2.45,1.49 6.17,3.85 0.26,4.79 -2.72,0.13 2.39,-5.02 -3.5,-2.06 -2.23,0.1 -3.84,0.18 -5.93,0.69 -1.2,4.35 -6.94,3.41 -3.61,-0.55 3.83,-6.19 10.98,-9.95 18.11,-10.83 -1.69,-3.21 -13.3,-5.37 -18.64,-8.22 -3.24,-2.37 -13.53,-1.3 -5.12,-0.5 4.05,0.36 -2.3,3.42 -3.24,0.91 -6.01,0.79 -2.74,-3.99 -9.39,-3.38 -4.95,-2.05 -10.73,0.72 -3.48,0.63 3.55,-0.66 7.16,2.3 1.56,1.27 -7.29,-0.79 9.39,1.78 2.13,1.99 -7.71,-1.3 1.17,1.99 1.7,5.19 5.12,5.4 10,11.11 14.05,17.37 3.18,-1.61 6.59,5.32 7.51,1.88 2.26,-0.19 6.27,3.4 3.06,5.12 -1.86,-4.02 -4.81,-0.71 -3.51,2.7 -0.78,5.07 6.15,7.72 9.53,4.32 -1.9,-2.59 -1.62,-3.97 -3.91,-6.22 -2.82,-2.78 2.04,-4.79 2.99,-0.47 2.13,0.47 1.73,2.76 4.78,4.9 3.42,3.3 0.1,6.72 -2.47,4.4 -2.65,0.54 -16.81,0.18 -8.13,1.88 0.98,4.54 7.38,5.95 10.41,2.9 2.03,0.14 5.07,1.07 3.98,2.68 -1.52,0.14 -7.64,-1.16 -7.63,2.77 1.6,3.19 6.82,5.24 9.78,2.47 1.62,-2.82 -3.71,-3.37 0.48,-5.35 0.76,1.43 2.87,2.75 4.94,5.43 -0.37,3.89 -3.36,-0.51 -5.58,2.42 -4.65,0.95 -0.16,4.66 2.5,4.61 3.96,1.41 6.8,-2.11 9.19,-4.68 2.97,2.38 6.69,6.31 -0.21,3.14 -6.65,3.37 0.1,6.3 3.63,1.76 2.96,1.15 -2.76,6.98 3.23,5.19 3.17,-1.96 7.98,-5.62 1.48,-4.09 -5.13,-1.76 -1.86,-3.97 1.87,-2.61 1.46,1.69 7.92,-2.49 4.91,1.5 -1.77,4.45 1.05,6.91 1.84,0.13 -2,-2.62 5.75,-7.16 -0.77,-5.44 0.86,3.06 -7.43,0.1 -2.81,-0.85 2.19,-1.72 -4.98,-2.25 -5.99,-4.27 -3.48,-1.15 -4.97,-0.64 -9.2,-3.07 -3.34,-1.41 3.48,-3.84 -2.98,-2.41 -5,2.32 -1.05,-1.46 1.2,-2.31 4.09,0.65 0.76,-4.27 3.18,-5.66 -2.96,0.46 -2.94,-4.45 -5.71,-2.67 z m -73.04,70.35 c -0.91,-0.76 -1.95,-2.38 -2.18,-3.31 -4.62,-0.77 0.66,2.72 2.06,4.21 0.44,0.11 0.76,0.27 1.13,0 -0.13,-0.3 -0.55,-0.43 -1.01,-0.86 z m 1.19,2.08 c 0,0.52 -0.25,1.12 -0.73,1.63 -0.96,1.02 -2.63,1.71 -3.75,0.83 1.17,-5.6 -2.51,-1.39 -5.52,-2.53 -2.54,-2.1 -6.22,-2.05 -8.68,-4.26 -5.16,-0.1 0.53,4.27 0.47,6.67 -1.71,4.38 -6.46,13.16 -8.1,3.76 -6.68,-0.96 1.59,-10.02 -5.55,-5.56 -1.93,3.97 -6.77,2.27 -9.543,5.09 -0.598,3.1 -4.744,5.17 -4.752,0.52 -0.613,-3.23 1.295,-5.91 1.882,-8.42 -0.111,-3.99 5.052,-3.11 7.793,-2.7 2.6,-3.05 -3.519,-1.57 -5.133,-2.18 -3.013,-2.16 -5.816,0.55 -8.076,2.21 -4.534,-3.81 4.904,-8.03 7.636,-9.9 3.893,-2.56 6.623,2.87 9.863,3.96 2.97,1.41 5.01,-1.61 6.81,-3.47 -2.86,-3.58 4.12,-7.36 0.21,-10.27 1.08,-3.21 0.33,-6.01 -0.25,-9.04 1.65,-3.82 1.85,-4.99 -0.1,-8.91 1.71,-3.02 -0.65,-5.08 -1.14,-7.95 -0.8,-2.58 2.18,-7.73 -2.35,-7.36 -1.42,2.79 -6.51,0.84 -5.26,4.99 -0.54,2.72 -2.26,6.6 -5.593,5.97 -0.444,-2.32 2.203,-5.48 -1.17,-7.29 -4.091,-1.55 -5.041,-6.04 -8.517,-8.14 -1.849,0.73 -0.833,5.66 -4.373,4.87 -0.466,-3.05 -0.722,-6.38 -4.232,-3.77 -4.863,-1 -5.325,6.91 -0.938,7.29 4.106,0.78 1.449,4.56 1.11,6.72 0.275,4.08 3.061,1.62 5.027,1.68 1.416,2.4 -2.843,4.71 -5.097,4.45 -3.672,0.67 -4.109,-4.6 -7.42,-4.41 -4.643,-0.1 -0.869,-5.9 -3.157,-6.18 -1.784,1.97 0.698,5.37 -0.243,7.62 -3.313,2 -4.788,6.65 1.07,4.12 2.842,0.22 -0.399,5.37 -2.671,5.16 -4.429,0.82 -9.141,-3.28 -8.148,-7.84 -2.569,-2.33 -0.878,-5.42 1.451,-7.14 2.413,-2.93 2.016,-6.19 -2.431,-5.26 -0.857,3.05 -3.636,4.4 -3.775,-0.52 0.193,-1.16 0.385,-2.31 0.578,-3.47 l 0.04,0.1 c 0.961,-4.76 5.202,-5.55 8.542,-5.5 -0.08,-4.71 2.454,-8.91 2.332,-13.69 1.342,-6.16 -0.551,-15.06 4.883,-19.24 3.56,-1.21 6.727,-0.51 8.577,2.91 4.242,4.3 3.958,0.68 3.052,-3.19 -0.641,-4.03 5.034,-4.95 4.786,-7.96 -1.903,-4.79 3.422,-6.85 5.807,-9.45 0.734,-2.66 6.35,-5.83 0.362,-5.2 -6.217,0.67 -11.833,-3.03 -17.256,-5.4 -2.34,-2.36 -1.843,-6.21 -6.151,-6.1 -3.513,-1.33 -9.114,-4.14 -7.598,-8.65 2.534,-3.93 4.885,-0.11 6.073,2.37 5.206,2.38 10.641,4.57 16.457,4.49 -1.939,-6.1 -14.075,-4.58 -16.75,-11.9 -1.841,-2.89 -2.615,-8.61 1.53,-9.71 3.354,0.67 0.368,5.34 3.914,6.39 4.06,1.04 8.818,-1.66 13.094,0 3.947,0.9 7.318,-0.3 8.918,-3.05 3.887,1.53 8.297,4.74 12.377,2.28 5.29,-2.1 10.06,-5.88 13.01,-10.82 2.84,-3.92 6.84,-8.07 11.85,-8.56 1.4,3.07 -3.84,3.31 -3.9,6.19 -1.92,3.96 2.67,7.39 5.11,2.34 1.89,-2.92 16.93,-10.35 9.36,-2.22 -2.46,2.75 -4.74,6.92 -4.28,10.51 5.51,-0.49 11.31,-10.28 16.78,-14.06 8.27,-7.91 17.52,-14.79 26.97,-21.19 5.89,-4.41 6.95,1.84 0.56,4.31 -5.95,5.57 -12.56,13.14 -11.02,21.82 1.92,7.55 10.06,-3.91 14.22,-4.44 12.02,-6.72 24.53,-13.41 38.08,-16.25 1.03,5.29 -11.14,6.3 -12.98,12.34 -5.96,6.44 -7.93,15.34 -7.26,23.88 -0.56,3.86 2.1,7.65 4.59,10.11 3.45,0 6.44,3.03 2.18,4.85 -4.13,-1.54 -7.34,2.56 -8.94,5.91 -2.22,5.79 -2.74,12.41 0,18.17 0.92,6.19 8.14,7.75 11.45,12.31 -2.92,3.41 -7.32,-1.39 -10.82,-1.84 -3.16,-0.41 -6.4,-0.79 -9.44,0.45 1.08,2.3 5.56,2.39 7.52,4.83 2.34,-1.34 5.67,-1.66 8.09,-0.73 1.56,2.82 -5.07,5.51 1.23,7.01 3.26,2.48 8.66,10.38 11.15,3.17 4.3,-2.19 2.41,5.66 6.34,5.18 3.87,-0.48 7.44,-3.89 7.48,-7.97 -5.02,-3.18 0.79,-5.41 0.27,-8.14 -3.94,-10.3 -12.25,-18.91 -13.85,-30.06 -0.3,-3.55 -0.59,-7.15 1.18,-10.41 -4.54,-2.05 -3.8,6.78 -7.04,6.23 -1.58,-2.91 0,-7.31 1.53,-10.33 3.59,-5.48 11.08,-6.43 16.5,-9.43 1.57,-2 3.98,-3.53 4.98,-6.31 -0.74,-4.54 3.75,-4 3.48,0.19 1.48,7.58 -4.72,13.96 -5.93,21.03 -1.9,3.8 7.06,6.32 2.35,7.68 -4.3,2.72 -9.35,-8.95 -10.16,-3.62 -0.86,4.67 1.6,9.09 3.21,13.34 2.02,3.85 4.64,7.35 7.09,10.82 2.35,5.34 3.45,11.16 4.96,16.72 -0.32,5.02 0.1,10.56 -3.83,14.32 -2.95,3.06 -7.76,4.33 -12.13,4.6 -4.33,0.68 -8.48,-1.7 -12.57,-2.15 3.73,2.03 -0.2,9.02 4.82,9.19 5.33,1.28 9.22,6.7 14.62,7.09 2.96,0.52 4.25,-6.58 6.22,-1.83 0.6,5.17 -7.56,5.86 -6.9,11.49 -2.11,9.45 -6.53,18.69 -6.54,28.44 -0.31,4.47 4.29,3.63 6.11,1.1 2.95,-0.58 5.48,2.09 6.67,4.6 0.89,3.01 -0.43,6.92 -3.75,7.35 -3.16,0 0.82,-6.73 -3.82,-1.68 -3,-0.22 -5.18,-2.23 -8.37,-1.87 -3.14,1.53 -2.48,2.97 -1.46,6.18 -1.56,2.7 -7.23,3.34 -3.49,8.29 -0.48,4.11 -5.8,1.18 -5.84,-1.74 1.12,-4.02 -4.82,-4.54 -3.57,-8.46 -3.18,1.05 -5.91,1.15 -8.18,3.54 -3.79,-1.27 -7.93,0.44 -7.27,5.19 -2.7,1.96 -4.38,-2.8 -3.88,-5 -0.18,-3.06 2.76,-5.19 4.19,-7.05 0.72,-4.33 5.3,-0.56 7.85,-2.16 4.8,-3.95 -4.52,-0.77 -6.63,-3.35 -1.38,2.73 -4.8,4.58 -4.41,-0.1 0.51,-4.69 5.11,-6.28 8.94,-7.11 2.6,-2.66 6.86,-0.1 8.63,2.08 3.55,5.81 5.18,-1.02 5.9,-4.16 0.86,-2.69 0.71,-5.64 1.41,-8.53 -1.02,-2.76 2.37,-4.57 0.39,-6.98 0,-2.59 1.45,-6.42 -1.74,-6.6 -2.97,0.89 -5.46,-0.18 -7.69,-2.18 -5.41,-2.84 -6.09,7.37 -11.76,6.02 -3.78,2.38 -6.01,9.32 -10.42,12.58 -3.09,4.67 -8.59,7.88 -9.88,13.65 -5.01,1.46 1.97,2.46 3.61,0.73 3.24,-0.81 6.04,2.22 7.1,4.85 0.79,2.92 -0.33,7.26 -3.49,7.68 -2.68,-1.1 2.06,-5.12 -2.41,-5.32 -1.28,3.58 -3.7,-0.13 -6,-0.17 -2.09,-0.5 -7.9,-3.53 -5.98,0.56 2.98,2.83 -1.45,3.82 -3.14,5.51 -1.39,1.88 -0.58,6.89 -4.08,6.46 -2.96,-4.12 0.69,-7.96 -2.49,-10.6 0.83,-4.68 -5.4,2.3 -7.53,1.42 -3.62,-3.16 -4.51,1.39 -4.47,5.01 -1.99,2.92 -4.19,-2.45 -4.23,-4.27 -0.76,-3.48 2.44,-5.68 4.29,-7.86 3.45,-2.65 1.09,-5.59 -1.83,-1.75 -4.54,4.42 -3.9,-4.56 0.18,-5.46 2.61,-2.34 6.96,-3.45 10.24,-2.18 1.67,2.37 3.77,6.85 7.45,3.96 3.65,-2.95 6.17,-7.22 8.62,-11.15 2.14,-2.47 3.93,-4.65 5.61,-7.46 3.37,-2.98 2.73,-6.61 0.38,-9.27 0,-3.72 -4.56,-4.86 -5.69,-7.69 -3.41,-0.51 -3.2,-4.33 -3.04,-6.98 -3.05,-2.11 -1.69,-5.7 -1.81,-8.52 -0.78,-3.11 1.25,-8.85 -4.17,-6.27 -3.25,1.61 -7.02,0.37 -10.14,2.52 -3.99,-0.45 -6.51,2.35 -10,3.64 -3.79,-0.8 -6.64,3.96 -10.51,2.1 -4.88,-2.16 -2.69,3.02 0.28,4.16 -0.42,3.94 -6.64,5.48 -4.81,10.01 -0.87,8.78 -2.35,17.66 -3.72,26.4 -0.2,3.18 -0.11,6.4 1.37,9.03 -2.89,5.44 2.6,3.74 5.39,2.82 3.38,-0.57 5.73,3.52 7.55,6.02 0.14,1.22 0,1.85 -0.42,2.61 0,0.72 0.16,0.96 0.18,1.22 z m 75.26,-49.84 c -2.08,-0.1 -3.58,-3.93 -1.08,-1.88 0.15,0.58 3.99,0 1.08,1.88 z m 12.51,-1.05 c -3.91,-3.72 4.53,-3.22 0,0 z m -4.29,-2.34 c -5.24,0.37 -0.7,-3.23 2.34,-1.48 2.24,1.12 -1.87,1.8 -2.34,1.48 z m -5.65,-1.19 c -4.26,-1.61 3.69,-3.28 0.88,0 l -0.55,0 z m -15.57,-7.75 c -3.1,-0.54 2.42,-2.98 0,0 z m 11.24,-2.96 c -5.92,-0.3 2.08,-2.93 -1.24,-4.84 -1.69,2.99 -5.8,-0.18 -1.88,-1.38 4.17,-1.05 5.18,4.11 3.12,6.22 z m -6.63,-1.71 c -3.87,0.86 1.02,-4.63 0.65,-0.52 0.12,0.39 -0.56,0.27 -0.65,0.52 z m -3.2,-3.45 c -3.99,-0.94 3.35,-2.85 0,0 z m -2.39,-14.9 c -2.61,-0.92 2.15,-1.97 0,0 z m -21.08,-19.29 c -2.28,-2.68 4.34,-1.1 0,0 z m -63.33,110.08 c 1.74,-5.44 -4.42,2.13 0,0 z m 102.1,-1.02 c 3.04,-3.17 -3.51,-1.11 0,0 z M 94.787,243.5 c 2.998,0.54 5.493,-4.49 1.83,-4.94 0.106,1.84 -3.907,6.02 -1.83,4.94 z m 18.083,-1.41 c 4.19,0.4 4.94,-2.18 2.37,-5.4 0.32,-3.13 3.31,-5.94 5.55,-3.88 1.7,1.8 5.41,1.37 7.53,2.95 3.86,4.36 0.1,-1.88 3.39,-2.94 0.48,-3.64 -5.44,1.45 -8.07,-0.72 -3.54,-1.49 0.75,-4.87 -1.15,-6.83 -1.42,-8.04 1.53,-16.28 1.88,-24.4 0.87,-3.42 -0.63,-7.23 1.78,-10.11 -0.79,-1.53 -4.28,0.95 -4.94,2.23 -0.44,3.02 -0.1,5.81 -0.81,9.43 0.37,2.6 0.1,4.83 1.12,6.41 -1.52,3.76 -4.03,3.64 -2.35,-0.1 0.25,-2.18 -1.01,-3.61 -1.03,-6.24 -1.87,-2.64 -3.69,3.5 -1.73,5.02 0.65,2.1 -1.82,9.41 2.31,6.76 3.42,-6.52 1.55,2.39 0.74,5.72 1.13,5.29 -4.67,16.41 -2.8,5.52 -0.88,-1.94 -4.9,2.19 -3.71,4.98 -4.96,1.7 -9.52,6.09 -15.253,5.22 3.063,-0.27 3.493,7.76 5.573,2.84 1.26,-1.86 4.48,-1.73 6.38,-2.8 2.73,-7.94 4.59,2.54 1.75,5.72 0.38,1.09 1.88,-0.31 1.47,0.61 z m 50.28,0 c 2.5,-3.98 -1.86,-3.25 0,0 z m 31.35,-1.77 c 5.82,0.38 4.36,-8.15 0.74,-2.79 -0.38,0.68 -1.85,2.71 -0.74,2.79 z m 24.12,0 c 4.26,-0.43 0.3,-6.44 0.5,-8.8 -3.02,-4.18 5.06,0.18 5.95,-1.44 1.55,2.97 5.27,-0.88 6.53,1.34 0.43,2.22 2.46,-3.92 0.1,-3.19 -2.85,1.08 -7.08,-0.63 -6.72,-4.08 -5.59,-0.25 1.3,-3.64 -0.1,-6.45 -0.75,2.95 -5.07,5.66 -2.25,0.64 4.87,-2.35 5.18,-11.27 0.92,-3.27 -3.41,0.79 1.61,-3.44 1.71,-4.85 3.88,-0.7 2.47,-6.78 4.99,-9.45 1.32,-5.33 -2.29,0.55 -2.54,2.42 -1.05,2.09 -0.69,5.34 -3.87,6.62 -1.37,-0.78 -0.45,-4.93 2.12,-6.32 2.7,-1.98 -4.04,-1.09 1.43,-3.87 -1.52,0.5 -8.55,-1.07 -7.86,3.22 3.3,3.49 3.01,2.85 -0.1,6.01 1.77,3.6 -1.7,7.08 -0.2,10.67 -3.16,1.08 -0.83,5.41 -3.42,7.22 -2.33,4.14 -7.17,5.52 -11.37,6.78 -4.76,-0.4 -3.81,1.13 -3.31,4.9 2.06,-1.2 2.8,-2.81 5.96,-2.65 4.49,1.44 3.29,-4.4 7.5,-4.05 4.05,0.4 -0.1,4.05 -0.17,6.04 -3.79,4.11 3.19,0.2 4.24,2.56 z M 146.3,237.3 c 5.93,-1.42 2.76,-8.04 -0.43,-1.62 0.22,0.32 -0.47,2.54 0.43,1.62 z m 18.94,0.2 c 3.1,0.37 -0.9,-8.01 3.78,-6.13 3.86,1.64 8.72,2.33 11.62,1.33 0.31,-5.02 -5.83,-0.15 -8.48,-2.62 -3.58,-4.43 6.87,-9.12 8.3,-13.68 2.21,-3.47 5.04,-7.08 5.16,-10.9 3.42,-0.51 0,-6.03 4.61,-5.62 2.87,-1.7 6.42,0.18 8.77,-1.83 0.29,-1.84 -5.33,0.41 -7.44,-0.33 -2.79,2.29 -6.99,0.7 -3.9,-2.34 -2.24,-0.16 -6.59,0.1 -7.53,1.98 -0.46,2.91 10.1,4.14 2.58,4.34 0,2.86 -1.5,4.36 -3.31,6.8 -1.3,2.2 -3.19,4.27 -4.32,6.4 -3.93,3.89 -7.81,10.99 -11.21,13.8 4.18,1.53 -3.04,4.62 -2.12,8.09 1.06,0.61 2.27,1.14 3.49,0.71 z m -11.9,-1.29 c 0.86,-3.28 11.83,-3.66 8.13,-5.81 -2.5,1.61 -6.43,3.61 -9.01,1.14 1.87,-5.01 -4.18,3.12 0.88,4.67 z m 31.36,-1.63 c 1.77,-4.3 -5.38,-1.76 0,0 z m 53.86,-1.9 c 2.36,-2.23 -5.24,-7.25 -2.6,-3.29 2.02,0.26 1.46,2.58 2.6,3.29 z m -132.28,-0.79 c 4.23,-2.32 -4.53,-1.05 -5.05,-4.4 -4.088,-2.53 -4.513,5.49 0.87,3.01 1.14,1.26 2.62,1.32 4.18,1.39 z m 100.02,-0.98 c 3.19,-2.8 -3.52,-1.75 0,0 z m -48.72,-0.35 c 4.83,-1.93 -2.85,-4.18 -3.87,-6.71 -4.09,1.29 -2.16,5.27 1.94,4.86 0.12,1.02 0.87,1.9 1.93,1.85 z M 93.377,229.5 c 4.629,-1.72 -2.079,-1.24 0,0 z m 117.673,-0.8 c 2.66,-2.83 -6.63,-0.96 0,0 z m -8.63,-0.96 c 1.92,-1.63 8.9,-1.21 3.84,-4.16 -2.22,-2.83 -6.46,2.85 -3.84,4.16 z m -6.19,-0.36 c 4.29,-0.21 3.05,-5.78 -0.24,-1.57 -0.62,0.17 -0.81,2.16 0.24,1.57 z m -80.51,-4.23 c 2.43,-1.05 1.12,-4.08 2.33,-5.98 -1.76,0.24 -4.59,4.99 -2.33,5.98 z m 74.15,-17.34 c 4.64,-3.82 2.17,-6.71 -0.58,-2.81 0.33,0.88 -3.15,6.65 0.58,2.81 z M 65.127,201.65 c -1.729,-1.06 -1.473,-8.31 -3.435,-4.19 -0.957,1.55 2.442,5.46 3.435,4.19 z m 53.593,-1.49 c 3.08,-3.14 -2.68,-5.12 0.34,-7.93 1.86,-1.62 1.58,-8.5 -0.31,-9.78 -5.12,1.28 -0.26,-6.46 -5.86,-5.35 -2.5,2.82 4.06,4.85 3.9,7.77 2.12,2.21 -5.58,-0.81 -1.77,4.58 2.66,2.46 0.49,5.14 0.99,7.77 0.28,1.32 1.93,2.54 2.71,2.94 z m 77.39,-4.18 c 3.9,0 8.64,-1.4 4.16,-4.65 -1.6,-3.19 -7.34,-6.19 -8.84,-6.82 -2.91,3.24 -1.1,6.78 0.7,10.04 1.02,1.01 2.67,1.18 3.98,1.43 z m -14.02,-1.39 c 4.77,1.93 10.12,-4.71 3.21,-1.47 -5.47,0.18 -1.5,-3.85 1.7,-4.19 3.93,-5.26 -2.56,-0.99 -4.3,0.27 -1.4,2.05 -5.32,2.08 -5.65,3.68 1.51,0.67 3.37,1.74 5.04,1.71 z M 64.377,194.06 c 6.408,0.9 -0.632,-3.57 2.197,-4.86 1.038,-2.65 1.866,-5.09 2.258,-8 2.765,-6.18 1.654,1.89 3.215,3.78 0.725,4.73 -0.516,7.4 4.683,4.43 4.08,1.7 3.42,-3.77 -0.34,-2.35 -2.586,-0.1 -1.127,-6.15 -3.113,-7.98 -0.934,-4.53 3.815,0 4.65,-3.1 3.543,0.25 3.658,0.29 3.094,-3.69 -1.075,-3.42 -3.56,3.14 -6.404,2.26 -5.122,-1.64 -5.035,-1.46 -1.13,-5.17 1.088,-4.25 0.571,-8.77 0.97,-13.13 -4.896,-3.29 3.133,-5.96 4.77,-4.72 2.007,-1.57 2.084,7.62 3.552,0.41 0.631,-4.13 -0.437,-4.37 -1.972,-1.74 -2.601,-1.15 -1.623,-6.4 -5.212,-6.71 -4.725,-0.82 -3.746,5.16 -4.964,8.12 -0.697,3.91 -0.79,7.78 -0.84,11.65 0.225,3.57 -2.711,6.22 -1.964,9.8 -0.488,6.19 -1.82,12.61 -4.994,18.02 -4.126,3.45 2.076,3.04 1.544,2.98 z m 10.79,-46.45 c -2.525,-0.96 2.108,-1.89 0,0 z m 2.78,46.63 c 1.611,-4.15 -4.725,-2.9 0,0 z m 108.943,-2.53 c 3.46,-2.39 -3.62,-0.75 0,-0.2 z m -10.21,-1.69 c 3.56,0.6 7.76,-3.51 4.82,-6 -5.92,-1.42 -15.18,3.21 -4.96,6 z m -52.47,-0.49 c 6.47,-1.86 -4.39,-2.94 0,0 z m -22.38,-2.33 c 3.43,-4.02 -5.783,-5.84 -0.83,-0.95 l 0.38,0.67 z m 21.89,-0.57 c 3.46,-1.98 -5.24,-3.32 -1,0.53 0.2,-0.13 0.84,-0.42 1,-0.53 z m 65.21,-2.26 c 4.13,-0.66 -4.43,-1.36 0,0 z m -3.98,-0.7 c 1.79,-0.62 7.35,-6 2.48,-4.63 0.1,0.92 -5.51,5.12 -2.48,4.63 z M 59.891,182.96 c 2.586,-0.63 -2.193,-0.6 0,0 z m 61.219,0 c 0.38,-0.94 0.3,-2.59 0.43,-5.35 0.41,-2.34 -5.37,2.39 -3.04,4.27 1.75,-0.7 1.89,1.25 2.61,1.08 z m 2.47,0 c 4.37,-1.36 0.43,-4.97 -1.2,-0.92 -0.52,0.47 1.49,0.78 1.2,0.92 z m 6.15,0 c 2.55,-2.1 -3.03,-2.24 0,0 z m 44.04,-0.39 c 3.81,-1.26 17.86,-6.14 8.92,-8.17 2.82,-4.52 -4.41,-1.41 -2.19,0.46 3.17,1.78 2.17,3.78 -2.06,3.61 0.1,-2.38 -5.17,0.51 -6.63,-1.37 -3.89,-0.67 -1.56,4.87 0.71,5.64 -0.1,0.61 2.05,0 1.25,-0.17 z m 0,-1.73 c -1.52,-1.74 6.86,-1.62 0.3,0 l -0.18,0 z m 3.55,2.12 c 6.29,-1.3 -2.54,-1.61 0,0 z m -79.333,-0.35 c 2.923,-0.34 0.91,-7.01 -1.37,-3.41 1.648,-4.69 -1.935,-1.49 -3.38,-2.47 5.107,-3.49 -3.666,-3.71 -1.74,-5.14 -1.622,0.86 -6.172,-4.39 -3.978,0.12 0.08,6.64 7.489,0 4.268,4.13 0.841,2.45 4.067,5.99 6.2,6.77 z m 85.613,-0.75 c 9.01,-6.62 -6.31,-0.75 0,0 z m -125.69,0 c 3.238,-2.83 -3.361,-1.5 0,0 z m 3.977,-0.19 c 6.246,-2.27 0.233,-7.5 -1.918,-3.98 1.789,0.92 0.532,4.4 1.918,3.98 z m 65.613,-0.71 c 1.33,-3.2 -2.66,1.49 0,0 z m -2.71,-1.9 c 5.07,-0.58 -1.02,-5.2 -1.43,-1.07 0.37,0.89 0.31,1.28 1.43,1.07 z m -14.72,-0.71 c 1.6,-1.51 -2.12,-0.72 0,0 z m -23.963,-1.74 c 2.479,-3.68 -7.294,-8.14 -1.529,-1.27 -1.045,0.35 2.303,1.29 1.529,1.27 z m 91.083,-0.2 c 6.08,-3.02 -4.97,0.65 0,0 z m -72.65,-0.33 c 6.65,2.56 4.24,-10.01 1.06,-3.04 -0.13,-1.87 2.08,-7.83 -1.98,-5.35 -0.31,4.1 -7.819,1.94 -7.206,5.39 2.951,6.07 4.686,-0.33 7.396,0 2.53,0.2 -3.56,3.67 0.73,3.02 z m 29.63,-0.2 c 5.16,-1.99 -2.76,-2.75 0,0 z m 38.09,-0.74 c 2,-1.03 -1.96,-2.47 2.98,-3 -0.28,-2.79 -7.27,-2.89 -5.78,0.8 -0.38,1.53 1.78,2.28 2.8,2.2 z m 0.61,-2.65 c -3.74,-0.48 3.75,-1.45 0,0 z m -49.15,2.47 c 0.95,-2.73 4.9,-2.02 6.05,-4.86 -1.97,-1.11 -4.94,1.22 -1.82,-1.85 0.24,-2.41 -0.22,-3.25 -0.62,-8.02 0.22,-4.02 2.82,-1.59 4.02,0.51 2.26,0.84 1.78,7 3.98,4.29 -3.4,-3.01 -0.15,-3.51 2.4,-1.42 3.38,3.78 1.25,-1.25 3,-1.46 2.98,1.87 7.64,-0.32 9.38,3.4 -1.39,4.84 4.13,4.43 5.62,1.28 3.59,-1.49 1.27,-5.49 -1.61,-5.25 -4.79,1.78 -8.98,0.11 -11.82,-1.31 1.87,-3.56 7.57,-2.61 11,-2.47 4.13,-0.1 7.94,-4.04 12.54,-3.17 2.88,-0.85 6.34,1.54 8.64,0.1 -4.94,-4.63 -9.45,-9.78 -14.86,-13.87 -2.99,1.4 -3.32,6.72 0.31,2.22 1.2,1.81 0.87,6.5 -2.47,5.57 0.79,-2.98 -3.46,-2.62 -1.45,-5.07 4.12,-2.49 0.58,-6.9 -0.13,-2.09 -1.04,3.76 -6.42,9.09 -2.1,1.98 2.63,-7.41 -2.94,1.91 -4.28,4.34 -3.29,2.71 -4.92,-3.01 -0.82,-3.14 -1.03,-2.78 3.52,-3.94 -0.17,-6.28 1.8,-0.63 -2.33,-4.33 1.58,-4.33 -1.15,-1.89 0.22,-3.1 0.94,-4.34 -6.35,-0.51 -1.56,-4.34 -3.05,-5.56 -2.38,-1.16 2.44,-3.33 -0.3,-5.81 1.64,-11.08 11.26,-17.97 18.44,-25.58 6.39,-5.97 13.68,-11.16 20.85,-15.94 4.41,-3.73 10.67,-6.11 16.09,-8.64 4.3,-1.56 7.93,-4.39 12.03,-6.33 -4.62,0.26 -10.09,3.91 -14.93,5.7 -11.53,6.93 -23.66,13.06 -33.71,22.17 -3.83,2.79 -7.59,6.54 -11.09,9.23 -2.52,3.42 -6.78,5.88 -8.84,9.9 -3.69,5.29 -7,11.88 -5.55,18.5 0.14,5.32 3.77,9.83 3.14,15.25 -0.29,4.44 -5.82,6.24 -9.34,7.66 -4.42,2.07 3.02,7.41 -1.9,6.38 -2.45,-1.91 -7.86,-2.42 -3,-6.45 2.65,-5.5 -6.12,5.81 -3.14,-0.73 2.45,-1.69 -0.6,-5.12 4.2,-4.1 -3.4,2.89 5.75,1.09 5.12,-1.25 -3.91,0.4 -1.17,-5.11 -3.81,-7.26 0.19,1.53 -1.76,6.37 -4.98,6.41 -3.73,2.27 -10.31,-0.3 -7.41,-5.12 0.58,-2.5 8.2,-3.31 2.83,-4.91 -4.87,-1.13 3.7,-4.31 2.82,-7.2 2.42,-2.12 1.28,-7.14 5.24,-6.84 3.56,-2.69 -4.55,-1.03 -2.42,-4.71 1.44,-1.88 1.32,-6.3 -1.06,-7.49 -4.47,0.95 -4.37,4.29 -0.52,5.63 0.56,2.26 -1.57,9.02 -4.4,6.04 -0.96,-3.94 -2.62,0.74 -4.24,1.26 -2.23,1.35 -4.81,2.9 -7.21,2.84 -4.99,-1.87 -0.1,3.51 -3.58,4.23 -5.24,0.19 -2.73,4.87 -5,7.47 -3.008,2.62 -0.1,5.63 -2.03,7.83 0.31,4.12 -3.323,7 0.1,10.68 -0.434,4.26 0.71,6.79 3.6,8.51 1.29,-1.75 1.03,-5.93 -1.37,-2.47 -1.36,-4.92 3.41,-3.94 3.17,-3.07 3.25,-2.81 4.05,-8.76 9.3,-8.58 -1.39,3.55 -10.36,8.21 -8.35,12.2 2.02,-6.13 4.25,2.66 5.52,-1.7 -0.67,-4.92 7.6,-2.83 2.05,0.69 -2.18,1.49 -5.36,5.3 -1.22,5.15 -4.07,4.06 0.45,5.52 1.33,0.41 2.67,2.91 -4.16,5.87 -0.52,8.65 2.53,1.79 2.44,-2.2 5.69,1.21 3.02,-0.26 3.24,-3.14 4.15,1 z m -7.08,-7.41 c -3.37,-2.52 3.29,-4.88 0.66,-0.61 l -0.66,0.41 z m 3.23,-2.12 c -2.34,-2.52 3.91,-3.1 1.06,-0.33 l -1.06,0.35 0,0 z m 21.12,-9.86 c -5.04,-1.67 0.83,-2.44 1.62,-3.74 -0.75,-1.67 3.64,-5.85 3.3,-2.28 -0.83,2.24 -0.84,5.69 -4.53,6.02 z m -25.82,-1.94 c -4.2,-1.5 7.65,-3.74 0.91,-0.35 z m -11.79,-0.2 c -4.442,-5.04 4.39,-4.53 0,0 z m 36.51,-1.76 c -2.35,-0.98 3.01,-1.11 0.1,0 z m 21.28,-1.83 c -3.59,-1.44 5.01,-4.09 0.19,0.12 l -0.21,0.1 0,-0.18 z m -38.57,-1 c -1.99,-3.28 7.63,-2.97 0,0 z m -16.36,-1.06 c -4.68,-0.98 2.99,-5.29 1.51,-0.68 -0.34,0.7 -0.82,0.76 -1.51,0.68 z m 13.4,0 c -2.48,-2.84 7.22,-3.26 1.06,-0.66 z m -6.94,-2.45 c -3.48,0.53 -1.91,-4.9 1.08,-2.95 2.45,-0.26 0.16,4.35 -1.08,2.95 z m -2.73,-3.21 c -4.97,-2.34 4.65,-2.96 0,0 z m 4.14,-5.61 c -5.89,-3.46 5.26,-3.17 0,0 z m -7.06,-4.22 c -4.17,-0.95 1.84,-5.2 1.4,-1.24 -0.39,0.67 -0.34,1.59 -1.4,1.24 z m 10.19,0 c -3.39,0.58 -1.88,-5 0.96,-2.83 1.94,0.2 1.09,3.68 -0.96,2.83 z m 3.2,-5.29 c -3.29,-1.85 2.95,-4.68 1.65,-0.75 -0.52,0.25 -1.03,0.78 -1.65,0.75 z m -0.2,-3.18 c -6.88,-3.13 6.14,-3.53 0,0 z m 55.2,50.94 c 3.6,1.38 7.47,-5.77 2.43,-2.62 -0.28,0.31 -6.47,3.78 -2.43,2.62 z m -43.53,-0.78 c 3.49,-2.22 3.7,-3.18 5.35,-0.82 4.76,-5.17 1.38,-7.21 -0.56,-2.93 2.87,-7.65 -2.12,-1.11 -3.85,1.18 -2.18,-0.25 -1.55,3.37 -0.94,2.57 z m -20.19,-0.67 c 1.85,-4.14 -4.54,-1.36 0,0 z m 31.11,-0.49 c 5.56,-1.52 -3.97,-1.65 3.24,-3.82 4.77,-0.78 0.66,-6.01 -2.48,-4.33 -3.25,2.13 1.98,2.89 -2.26,4.9 0.48,0.91 -0.1,3.93 1.5,3.25 z m -60.094,-6.01 c 0.181,0 0.419,0 0.689,0 m 3.272,2.11 c 1.495,-0.42 -1.551,-5.94 -3.69,-5.84 -1.516,-2.36 -2.505,-5.5 -3.706,-6.72 -2.72,2.02 1.151,8.94 4.586,8.17 -0.262,1.01 -0.826,1.44 -0.996,1.88 1.613,0.62 3.208,1.55 3.806,2.51 z m -6.707,-3.86 c -1.644,-1.2 -3.201,-3.27 -3.383,-4.77 -1.057,0.48 -0.908,9.42 -1.35,11.1 l 0.14,0 0,0 c 2.064,-3.1 6.647,-3.91 7.847,-2.46 -0.731,-0.93 -0.956,-1.51 -0.863,-1.84 0.05,-0.16 0.173,-0.26 0.166,-0.69 -0.892,-0.36 -1.735,-0.74 -2.557,-1.33 z m 99.2,4.91 c 3.44,-0.54 -3.92,-1.13 0,0 z m -82.473,-0.49 c 3.373,0.33 6.893,-1.73 5.623,-5.49 -0.62,-3.73 -4.487,-4.45 -7.023,-1.78 -2.727,-0.47 -10.026,-1.97 -7.953,2.85 2.356,3.18 5.272,4.97 9.353,4.42 z m 2.74,-1.73 c -2.613,1.54 -8.777,-1.84 -4.14,-2.08 1.88,4.25 4.567,-6.48 5.973,-1.01 -0.34,0.93 -0.56,2.99 -1.833,3.09 z m 32.553,1.83 c 2.01,-1.43 -3.6,-0.85 0,0 z m 96.29,-0.39 c 3.83,0.1 8.34,-1.04 10.59,-4.34 -2.98,0.27 -7.62,1.36 -1.45,-1.38 3.98,-2.06 2.83,-6.39 3.18,-9.62 -0.28,-2.43 0.18,-4.76 -0.74,-7.18 0.72,-2.36 -1.38,-4.57 -1.46,-6.82 -0.49,-4.87 -5.18,-8.44 -7.27,-12.84 -3.02,-6.5 -5.86,-14.01 -2.79,-21.02 3.04,-4.51 -2.45,-4.63 -2.86,-0.33 -3.06,7.86 0.95,16.4 4.08,23.58 4.05,5.35 7.49,11.59 9.08,18.03 -0.33,2.76 -3.44,3.77 -0.55,6.45 0.24,4.6 -1.74,9.3 -6.59,10.66 -0.4,5.3 -3.95,-1.42 -6.62,-1.26 -4.83,-5.82 -3.48,7.23 0,1.61 4.52,2.13 -3.58,5.28 3.63,4.49 l -0.2,0 z m -67.9,-1.79 c 3.21,-0.76 6.96,-3.17 5.88,-6.94 4.59,-0.13 -1.28,6.12 2.2,7.04 3.2,0 7.95,-1.87 8.02,-5.49 -1.21,-1.34 -5.51,-0.57 -1.59,-2.41 3.76,-1.08 -0.83,-2.18 -1.44,-1.28 -1.92,-0.77 -2.65,2.02 -4.58,-2.24 -0.92,1.01 0.98,4.14 -2.86,2.36 -2.41,-2.32 -5.87,-1.31 -8.91,-0.26 -0.26,2.31 4.53,0.84 5.65,2.28 4.36,0.64 -1.48,1.52 -2.59,1.02 -0.72,1.67 -3.6,6.96 0.22,5.92 z m 9.55,-5.18 c -2.11,-3.47 4.5,-2.41 0,0 z m 10.53,4.79 c 6.24,2.87 2.29,-8.67 2.06,-4.12 -1.61,1.98 -5.58,-7.08 -4.39,-1.18 -0.37,2.76 -2.48,6.93 2.33,5.3 z m -75.25,-2.33 c 4.77,-3.91 -5.317,-1.79 0,0 z m -18.003,-5.63 c -1.153,-3.05 1.796,-2.14 4.33,-1.73 1.42,-0.74 6.747,0.9 7.345,-1.43 -2.915,-1.2 -2.13,-3.18 -2.975,-5.83 -2.386,-0.93 -5.883,0.74 -8.498,-1.09 -4.073,0.94 -4.428,9.25 -0.202,10.08 z m -4.79,-0.35 c 2.233,-2.69 -2.778,-3.06 0,0 z m -5.67,-3.18 c 6.455,-1.4 -3.307,-2.66 0,0 z m 110.343,-5.65 c 3.46,-1.42 -1.23,-1.12 0,0 z m -16,-1.06 c -2.33,-4.51 -9.72,-10.82 -14.1,-15.55 -2.44,-4.21 -5.45,-0.76 -2.73,2.08 6.08,3.67 11.6,8.18 16.34,13.49 l 0.49,0 0,0 z m -76.873,-0.66 c 7.393,-1.58 -8.115,-2.48 -2.995,0 0.935,0.15 2.197,0.2 2.995,0 z m 41.653,0 c 1.14,-2.91 -3.81,0.26 0,0 z m 3.28,-1.87 c 5,-2.82 -4.33,-4.21 0,0 z m -51.243,-0.35 c -0.787,-3.62 1.039,-1.32 3.212,-1.76 1.623,-0.24 6.038,2.24 5.346,-1.29 -1.348,-5.59 1.768,-0.28 1.85,-1.69 -0.292,-4.07 -5.085,-2.84 -7.522,-4.82 -3.969,-0.87 -5.299,4.41 -4.746,7.66 0.567,0.53 1.231,2.17 1.86,1.9 z m 50.453,-3.35 c 5.79,-0.27 0.85,-5.96 -1.49,-2.28 -0.24,0.32 0.63,3.17 1.49,2.28 z m 70.26,0.19 c -1.87,-3.9 -10.88,-6.29 -15.65,-8.82 -11.36,-4.38 -22.96,-9.4 -35.33,-9.5 -3.38,-2.34 -9.01,-0.88 -7.12,3.34 2.73,1.65 5.22,-1.73 7.82,-1.03 17.35,1.37 34.08,7.01 49.23,15.48 l 1.05,0.46 0,0.1 z m -80.57,-1.72 c 3.5,-1.73 -1.49,-5.8 -0.83,-1.08 0.26,0.56 -0.18,1.38 0.83,1.08 z m -3.18,-0.71 c 3.63,-1.77 -3.53,-1.91 0,0 z m 27.94,-0.7 c 4.26,-2.84 -3.28,-4.73 0,0 z m -16.41,-0.71 c 5.55,-3.5 -4.73,-2.9 0,0 z m -7.33,-2.61 c 4.96,1.54 2.83,-3.28 0.85,-3.93 -0.19,0.67 -3.46,4.82 -0.85,3.93 z m 6.98,-0.21 c 5.28,-4.45 -4.04,-1.5 -0.69,-3.45 3.51,-3.11 -4.78,-1.11 -2.45,2.15 2.16,-0.8 1.74,-0.11 3.14,1.3 z m 64.47,-0.71 c 1.15,-2.18 -2.47,-6.87 -2.12,-10.27 0.39,-5.79 0.37,-12.44 5.54,-16.29 1.39,-3.14 -4.17,3.15 -5.79,0.95 -4.41,2.3 -2.28,-2.01 -7.93,-1.58 3.18,1.19 2.15,2.66 -1.64,2.56 -3.14,0.41 0.16,-3.93 -5.49,-1.49 -1.39,0 -6.48,6.13 -5.38,1.85 0.24,-2.19 -5.14,1.85 -7.44,1.71 -8.88,2.27 5.26,1.35 -4.07,3.21 -4.25,0 -14.51,4.98 -4.43,2.77 10.25,-0.1 -5.93,0.58 -7.38,3.71 3.62,0.63 7.93,-1.86 11.93,-1.42 4.22,1.24 -3.67,1.63 -5.3,1.37 -4.61,2.13 8.59,0.89 11.13,0.78 3.4,0.23 -5.52,2.46 2.09,2.99 8.84,1.73 19.22,6.43 26.28,9.15 z m -17.73,-23.96 c -4.28,-1.63 5.23,-2.33 0,0 z m -83.173,23.61 c 1.783,-1.43 3.533,-7.48 -0.851,-6.73 -2.738,-0.3 -5.721,-3.39 -7.733,0.43 -1.978,2.43 0.499,6.87 3.424,4.28 2.156,3.52 3.466,-3.94 4.88,0.67 1.693,-0.96 0,2.21 0.28,1.35 z m 27.763,-1.3 c 0.49,-4.2 -5.69,-2.34 0,0 z m 5.59,-2.92 c 5.17,-3.1 -4.52,-3.28 0,0 z m 4.45,-1.1 c 3.31,-2.38 -2.53,-6.32 -1,-7.15 -3.92,1.06 -3.1,-1.46 0.54,-2.03 1.8,-2.92 -5.27,-3.21 -5.46,0.81 2.55,3.42 -1.47,5.04 -1.2,1.86 -4.52,1.87 1.07,8.21 4.1,2.75 2.87,0.58 -1.4,3.82 3.02,3.76 z m -33.82,-2.43 c 3.75,-2.18 2.64,-4.88 0,-6.64 -2.66,-1.22 -7.426,0.1 -7.063,3.66 1.111,6.1 5.443,-2.26 5.763,-0.1 -2.2,3.89 6.41,-2.69 0.57,2.5 -0.1,0.13 0.85,1.05 0.75,0.53 z m 5.92,-7.29 c 3.11,0.16 4.71,-1.03 6.6,-1.74 5.07,0.9 -2.22,-2.4 4.01,-2.18 -3.13,-1.36 2.7,-2.6 0.68,-5.9 2.76,-3.05 -5.49,-4.25 -6.29,-7.62 -2.02,0.1 -8.47,-1.45 -5.83,1.83 2.63,1.12 6.48,3.05 5.77,6.43 1.71,5.63 -3.37,5.93 -7.23,7.16 -3.54,-0.39 -9.111,-2.57 -11.043,-3.61 -1.187,-2.95 -8.353,0.97 -11.419,-1.19 -1.88,-3 -10.332,-4.09 -4.331,-0.83 4.971,1.86 9.709,4.96 15.22,4.1 3.587,0.5 6.993,1.7 10.193,3.14 1.23,0.16 3.25,0.68 3.67,0.41 z m 41.8,0.23 c 4.08,-1.35 7.45,-4.87 11.79,-6.03 13.01,-6.34 27.52,-7.74 41.74,-8.75 -3.98,-1.86 -8.81,0.11 -13.15,0 -4.68,1.19 -9.6,0.81 -14.32,2.14 -9.44,1.21 -18.33,5.02 -25.98,10.61 0,0 -1.46,3.26 -0.1,1.98 z m -12.61,-1.41 c 4.47,-4.23 -4.23,-2.4 -2.19,-6.36 4.68,-5.61 10.06,-12.13 13.88,-17.6 -5.52,3.15 -8.37,11.35 -13.73,13.39 -2.24,1.34 -0.36,3.57 -2.58,6.26 -3.72,-1.77 -4.02,3.25 0.95,2.86 2.27,-1.08 2.66,-0.83 3.67,1.45 z m -14.76,-1.41 c 3.98,-2.93 -3.26,-4.19 0,0 z m -15.71,-0.55 c 4.44,-0.52 4.87,-4.49 4.12,-7.82 -0.46,-2 -7.8,-5.57 -4.86,-2.59 3.12,1.8 6.39,7.54 1.35,9.01 -1.99,-0.22 -3.07,2.22 -0.61,1.4 z m -3.05,-1.02 c 2.04,-0.97 -3.65,-1.97 0,0 z m -3.57,-0.92 c 5.42,-0.19 -8.085,-1.77 0,0 z m 50,-1.72 c 5.68,-5.51 -2.1,-3.19 0,0 z m -52.403,-0.4 c 3.353,-2.92 -8.573,-1.6 -1.47,-0.19 l 1.47,0.21 0,0 z m 6.553,-0.31 c 3.63,-0.6 -3.15,-3.47 -4.8,-3.74 -1.961,-0.29 -8.816,-2.46 -7.48,0.48 4.223,0.41 8.34,2.85 12.28,3.26 z m -18.743,-0.35 c 4.032,0 -0.503,-4.34 -2.471,-2.34 -4.118,-0.28 1.713,3.4 2.471,2.34 z m 45.143,-0.79 c 3.34,-2.43 -2.47,-0.42 0,0 z m 10.17,0 c 3.02,-3.09 -1.98,0.82 0,0 z m 16.63,-0.19 c 5.23,-2.86 11.5,-7.37 17.16,-7.81 -4.93,3.17 -0.57,1.74 3.14,1.27 8.74,-0.48 17.43,-1.68 26.19,-1.31 0.52,-3.17 -3.8,-5.58 -3.58,-9.08 0,-9.12 1.82,-18.58 8.13,-25.58 -0.39,-4 -7.82,8.18 -8.63,3.55 -1.95,0.97 -4.75,1.49 -6.82,3.13 -5.86,1.93 -9.09,7.14 -14.73,9.14 -0.23,3.16 -12.99,8.77 -3.72,4.44 6.27,-3.71 1.14,1.95 -2.47,3.05 -1.41,1.4 0.52,3.69 -4.77,5.29 -2.11,1.13 -14.38,10.41 -9.57,8.55 2.87,-1.67 10.94,-9.38 11.41,-6.76 -4.1,3.15 -14.78,8.59 -14.37,11.7 3.82,-2.37 7.91,-6.44 11.67,-7.51 -1.19,2.88 -9.71,4.53 -9.51,8.22 l 0.41,-0.22 0.1,-0.1 z m 74.86,-0.85 c 0.8,-3.32 0.85,-8.22 3.6,-11.37 1.24,-3.03 3.42,-6.64 2.76,-9.8 -3.76,4.69 -9.13,8.02 -15.12,8.88 -2.25,0.63 -9.29,7.89 -4.04,5.29 2.4,-0.45 6.51,-3.89 8.1,-1.49 3.75,-4.79 3.88,0.1 1.51,3.55 0.73,1.88 1.2,3.94 3.19,4.94 z m -92.64,-0.7 c 2.98,-2.63 4.89,-5.03 7.16,-8.06 4.86,-4.88 10.02,-9.44 15.29,-13.88 3.43,0.67 7.56,-3.02 9.04,-6.02 -3.39,-2.72 -2.36,-7.43 -2.13,-11.13 3.93,-6.35 0.27,-5.75 -3.57,-0.72 -6.23,6.09 -13.18,12.04 -18.76,18.51 -2.61,1.89 -3.78,5.11 -6.64,7.44 -3.05,2.81 -7.6,9.05 -4.02,8.13 -0.1,4.21 3.16,-0.74 4.19,-2.05 4.99,-4.93 9.8,-10.08 15.28,-14.48 5.53,1.62 -1.4,3.7 -2.99,5.82 -3.56,3.52 -7.27,7.29 -9.97,11.24 -0.52,1.56 -4.48,3 -2.88,5.2 z m -2.53,-7.4 c 2.81,-4.75 7.18,-9.6 11.03,-14.11 5.31,-5.38 10.96,-11.09 17.14,-15.16 -1.24,4.7 -9.7,8.08 -13.17,12.63 -4.94,5.59 -9.94,11.17 -15,16.64 z m -50.443,6.12 c 4.947,-0.37 -0.879,-2.37 -3.039,-1.86 -6.786,-0.63 0.866,2.81 3.039,1.86 z m 45.713,-0.19 c 4.19,-0.62 0.72,-5.93 -0.84,-0.96 -0.74,0.59 0.44,1.21 0.84,0.96 z m -30.59,-0.49 c 3.04,-2.04 -10.124,-4.43 -9.918,-1.78 3.159,0.91 6.978,1.46 9.918,1.78 z m 27.73,0.19 c 2.34,-0.92 -2.96,-1.46 -0.1,-0.17 z m -50.283,-0.98 c -0.09,-1.62 -2.761,0.25 0,0 z m 42.853,-0.19 c 3.17,-0.97 3.62,-4.96 7.2,-5.38 4.02,0 0.81,-7.1 5.57,-7.83 5.58,-0.55 2.48,-3.11 1.05,-6.66 -0.16,-3.31 2.31,-6.04 0.84,-8.47 6.32,-3.51 -2.52,-0.77 -2.32,1.16 4.45,-1.34 -0.32,3.58 -0.36,5.31 -1,2.37 -1.08,2.94 -0.26,5.36 -0.23,2.9 -9.94,6.49 -7.35,10.09 -1.43,1.86 -9.97,2.52 -5.42,-1.6 3.03,-1.81 3.61,-7.96 7.89,-7.88 -0.6,-1.77 5.84,-11.47 1.18,-8.05 -2.22,2.63 -3.55,5.09 -6.53,7.01 -3.95,1.56 -2.69,6.23 -5.22,6.56 -6.5,4.86 1.38,-4.28 -7.07,-3.49 -4.38,-1.66 -14.19,-1.29 -6.93,4.02 0.77,1.58 5.93,4.99 4.78,0.89 -3.84,-3.82 -2.81,-5.62 0.37,-1.64 1.27,4.81 6.16,1.66 5.89,5.32 1.96,1.3 2.88,3.96 6.69,5.28 z M 77.677,106.3 c 1.157,-1.7 -9.586,-1.91 -1.93,-0.17 l 1.93,0.19 0,0 z m 12.64,-0.78 c 3.531,-3.71 -6.527,-1.74 -0.06,0.17 l 0.241,-0.17 -0.18,0 z m 42.123,0.2 c 5.76,-2.29 -4.16,-2.42 0,0 z m -29.35,-1.06 c 3.44,-0.53 -3.888,-1.15 0,0 z m -33.223,-0.71 c 0.622,-1.73 -4.382,-1.29 0,0 z m 28.43,0 c 3.583,-0.76 -3.367,-3.08 -1.884,-6.22 -4.154,-0.27 -2.548,-3.46 -5.206,-5.35 -3.505,-2.6 -4.394,3.38 -0.559,1.97 3.536,1.22 -1.663,3.91 -3.145,1.92 -1.118,-0.1 -3.07,-0.37 -5.006,-0.63 -3.956,1.73 -2.415,-4.35 -6.02,-3.42 -2.012,0.1 -6.6,-1.97 -3.917,1.66 7.09,6.32 17.071,7.71 25.737,10.07 z m 6.613,-1.35 c 5.8,-1.76 -5.594,-2.93 -0.49,-4.47 0.28,-3.58 -4.724,-0.39 -2.68,2.46 0.73,1.03 2.08,2.38 3.17,2.01 z m 27.35,0 c 3.54,-1.75 -2.36,0 0,0 z m -32.583,-1.26 c 1.623,-3.33 -2.692,-4.94 -0.984,-0.77 0.295,0.24 0.631,2.01 0.984,0.77 z m 61.643,-0.19 c 1.75,-1.22 15.38,-10.06 8,-6.59 -2.28,1.48 -8.26,4.6 -8,6.59 z m -25.08,-1.06 c 5.42,-2.9 2.26,-9.41 0,-2.24 -0.47,0.82 -1.07,1.55 0,2.24 z m 20.22,-4.32 c 3.02,-3.1 -2.03,0.85 0,0 z M 94.947,95.15 c 1.62,-0.27 7.733,-1.19 3.119,-2.47 -3.351,-3.52 -6.423,-0.94 -3.119,2.47 z m -8.61,-0.53 c 1.253,-3.7 -8.008,-4.64 -3.8,-0.1 1.482,-0.25 2.932,-0.57 3.8,0.1 z m 31.693,-2.65 c 2.35,-0.12 10.39,-7.74 5.2,-4.55 -1.76,1.04 -5.58,2.45 -5.2,4.55 z M 99.907,91.62 c 4.023,-1.05 -5.252,-1.4 0,0 z m 15.963,-0.36 c 4.63,-2.15 -2.43,-1.69 0,0 z m 27.14,-0.31 c 9.56,-9.88 19.15,-19.79 29.59,-28.73 -0.81,-0.96 -9.74,7.32 -13.39,10.4 -5.51,5.98 -12.78,11.14 -16.89,18.08 -0.34,1.02 0.31,0.41 0.69,0.25 z m -31.2,0 c 4.54,-2.88 9.67,-4.99 13.18,-9.23 2.3,1.64 -5.22,5.57 -7.08,7.37 2.61,0.82 6.87,-5.77 10.59,-5.87 0.86,-1.4 -1.84,-4.59 -2.57,-5.64 -4.02,4.42 -9.7,10.36 -14.78,13.25 l 0.66,0.32 z"/></g>
</svg>
