<?xml version="1.0" encoding="UTF-8" standalone="no"?>
<!DOCTYPE svg PUBLIC "-//W3C//DTD SVG 1.1//EN" "http://www.w3.org/Graphics/SVG/1.1/DTD/svg11.dtd">
<svg xmlns="http://www.w3.org/2000/svg" width="300px" height="350px">
<g>
<path id="fill" d="m 224.56,50.67 c -2.59,1.63 -4.21,4.8 -6.74,6.71 -3.85,3.26 -7.41,7 -11.35,9.92 -1.95,1.03 -1.89,-1.84 -1.13,-2.88 0.27,-1.46 1.88,-3.69 0.97,-4.87 -1.89,1.02 -2.27,4.38 -4.18,5.95 -5.11,5.87 -12.02,9.81 -17.38,15.48 -6.68,5.45 -12.46,13.35 -11.22,22.5 0,3.42 1.99,6.18 3.91,8.75 2.02,4.04 -0.76,10.31 -5.75,9.32 -2.86,-0.62 -2.36,-4.91 -5.13,-5.82 -2.15,-2.36 -6.76,-0.86 -7.87,-4.5 -0.6,-3.24 3.58,-3.87 5.4,-5.37 -2.25,0.1 -5.21,-0.78 -4.97,-3.53 -1.21,-2.28 1.17,-4.06 3.35,-3.91 1.07,0 2.35,-1.05 0.75,-1.4 -2.67,-2.42 1.03,-5.92 0,-8.82 -0.39,-3.31 3.11,-4.54 4.97,-6.4 0.77,-2.07 -1.63,0.37 -2.63,0 -1.97,-0.49 -2.31,-3.2 -2.65,-4.96 -0.36,-1.96 1.75,-3.83 2.06,-5 -2.96,-1.27 -7,-0.77 -8.91,-3.75 -6.79,-3.88 -14,-10.53 -22.34,-8.03 -4.71,0.33 -10.45,2.58 -11.34,7.71 -0.31,1.16 0.43,3.94 1.81,3.57 0.31,-2.06 2.75,-3.51 4.5,-1.97 1.8,1.4 3.1,3.78 3.37,5.93 -1.16,1.2 -2.6,-1.15 -3.84,-1.5 1.06,3.71 4.29,6.45 7.75,7.47 1.26,1.6 -0.72,2.96 -2.25,2.29 -2.4,-0.67 -5.88,-1.84 -5.63,-4.91 -0.66,-1.87 -3.06,-0.29 -2.09,1.28 1.34,5.37 7.4,6.06 11.85,7.66 2.19,0.91 5.57,2.35 4.43,5.37 -0.4,2.72 -5.43,3.98 -5.75,0.6 0.4,-2.12 -1.28,-1.24 -1.4,0 -0.13,3.7 -0.83,8.57 -5.22,9.32 0.56,-1.7 -1.43,-2.8 -2.06,-1 -0.61,1.08 0,2.24 1.34,2.25 2.9,0.79 2.59,4.38 1.03,6.31 -1.17,1.78 -1.41,4.81 -4.16,4.78 -1.07,0.1 -4.78,-0.27 -2.9,1.38 1.67,0.66 6.16,0 5.12,2.9 -2.67,1.64 -6.09,0.39 -9.03,0.5 -4.35,-0.75 -6.55,-7.01 -2.81,-9.9 2.79,-2.4 5.01,-5.29 5.12,-9.13 0.31,-5.9 -2.55,-11.7 -6.78,-15.66 -5.48,-7.49 -12.5,-13.64 -19.622,-19.65 -1.826,-2.06 -4.881,-3.78 -4.157,-6.88 0.363,-1.81 -2.656,-3.01 -2.875,-0.81 -0.426,2.44 3.291,4.91 1.656,7.06 -2.718,0.23 -4.635,-2.85 -6.593,-4.37 -3.485,-2.2 -4.992,-6.87 -8.875,-8.5 -3.075,0.17 -2.374,4.45 -2,6.56 0.324,2.25 1.515,4.28 1.875,6.56 -2.537,-1.39 -2.872,-5.52 -5.657,-6.18 -2.018,2.38 -0.761,6.22 -0.06,9 1.673,5.62 6.108,9.79 9.031,14.65 -0.06,2.19 -2.626,0 -3.299,-0.73 -1.722,-1.1 -3.655,-3.62 -5.857,-3.24 1.259,5.9 4.83,10.98 8.375,15.72 1.08,1.04 0.78,3.54 -1.062,2.81 -2.105,-0.1 -4.521,-3.7 -6.344,-1.4 -1.086,2.43 1.229,4.76 2.5,6.56 1.987,2.49 5.879,3.71 6.844,6.78 -1.03,2.34 -3.858,-0.26 -5.719,0.13 -2.818,-0.51 -4.89,2.49 -3.125,4.9 1.902,5.78 7.421,8.84 12.656,11.12 1.4,0.28 3.233,2.55 1.094,3.1 -4.121,0.74 -8.822,1.46 -11.469,5.1 -2.221,2.52 -0.891,7.48 2.844,7.46 2.117,0.29 4.165,3.06 1.937,4.6 -2.32,1.24 -4.659,2.71 -5.656,5.44 -1.891,3.27 1.762,6.92 5.125,6.37 1.187,0.14 4.15,-0.37 4.151,0.88 -1.226,3.26 -6.231,5.77 -4.495,9.68 3.498,3.94 9.677,1.79 13.407,-0.84 2.424,-1.48 4.928,-2.7 7.75,-3.09 -2.135,5.03 -7.186,9.48 -6.157,15.28 2.701,3.42 7.654,0.67 10.307,-1.41 3.21,-1.76 6.35,-3.6 8.82,-6.09 2.76,0.45 -0.6,5.32 2.28,5.9 3.17,1.66 5.94,-2.97 9,-1.9 0.84,1.67 -1.57,3.53 -2.48,4.97 -2.73,3.3 -6.4,5.68 -9.84,8.15 -0.4,4.22 -5.88,4.5 -8.59,6.84 -4.709,2.58 -10.562,0 -13.59,-4 -3.755,-3.09 -11.365,-0.57 -11,4.66 -0.08,1.5 2.788,2.99 2.25,0.56 -0.862,-1.88 2.439,-3.48 3.031,-1.15 0.625,1.53 1.527,3.71 3.593,2.75 1.533,-0.16 4.85,0.93 3.844,2.87 -2.659,1.34 -5.378,-1.87 -8.094,-0.31 -2.557,0.95 -5.821,1.92 -5.812,5.09 -0.676,2.36 0.378,5.98 3.219,5.72 -1.45,-1.89 -2.117,-4.96 0.281,-6.37 2.087,-1.66 5.231,0.72 4.031,3.22 2.353,1.73 5.631,0.25 6.813,-1.94 2.092,0 5.017,-1.62 6.75,-0.16 0.441,2.01 -3.716,2.11 -1.969,4.13 0.464,2.76 -1.73,6.71 1.469,8.37 1.522,0.78 5.044,0.51 5.064,-1.5 -1.571,0.27 -4.25,0 -3.502,-2.28 -0.448,-2.63 2.622,-2.77 4.432,-2.75 2.38,-1.09 -1.588,-3.67 0.32,-5.37 2.47,-1.63 6.66,-1.97 9.02,0.27 1.21,1.25 3.97,2.71 4.63,0.1 0.49,-1.4 2.75,-3.92 3.69,-1.56 0.79,1.51 0.13,3.3 -0.28,4.47 3.96,-0.57 4.49,-6.5 1.09,-8.35 -1.84,-1.81 -4.18,-1.33 -6.19,-0.56 -1.59,0.66 -3,-1.29 -1.46,-2.31 1.46,-1.1 3.01,-2.42 4.72,-3.03 2.2,-0.1 3.41,3.73 5.24,3.12 -1.15,-1.27 -0.58,-4.6 1.6,-3.37 0.84,0.47 1.89,2.57 2.4,1.59 -1.38,-0.74 -2.21,-3.16 -0.1,-3.41 3.38,0.92 5,-3.03 7.06,-4.62 3.05,0.16 6.82,4.1 4.38,7.03 -1.77,12.32 -6.43,24.29 -6.41,36.81 0.24,3.28 -0.78,8.41 2.97,9.91 3.16,-0.86 4.76,4.79 7.82,2.5 0.87,-2.43 3.53,-0.9 4.31,0.75 1.05,1.45 3.77,4.3 5.09,1.87 1.55,-1.73 4.74,-1.32 5.38,-3.81 2.9,-0.88 6.37,0.28 8.62,-2.37 4.72,-4.6 3.87,-12.13 3.25,-18.22 -0.32,-1.64 -1.4,-3.07 -3.06,-3.6 3.39,-2.56 0.25,-7.2 -0.41,-10.4 -1.53,-5.14 -3.75,-10.25 -4.82,-15.64 -0.33,-3.13 -2.72,-6.06 -2.27,-9.14 1.64,-1.59 3.59,1.18 4.34,2.46 1.2,1.4 -0.28,4.32 1.03,5.32 0.74,-1.35 1.62,-3.38 3.6,-2.5 2.73,1.07 5.37,3.17 8.33,2.69 4.13,1.55 9.34,3.68 10.64,8.31 -4.23,2.23 -8.28,-3.68 -12.57,-1 -3.58,1.76 -4.69,8.17 -0.5,9.56 -0.13,-1.91 -0.45,-6.32 2.44,-5.56 1.69,1.65 3.1,5.86 6.25,4.18 2.87,-2.22 7.23,-1.32 9.88,-3.84 1.25,-0.84 4.66,-0.1 3.09,1.78 -1.3,0.68 -3.11,2.32 -1,3.44 1.94,1.1 3.53,2.28 4.03,4.56 0.55,1.62 3.35,4.6 4.53,2.44 -1.87,-2.24 -1.67,-6.74 1.66,-7.47 -0.75,-2.31 2.12,-3.17 3.56,-1.81 2.11,1.27 3.33,4.42 6.34,3.66 1.86,-0.29 1.57,-2.31 1.57,-3.63 0.46,-2.59 5.07,-1.99 4.09,0.84 -1.08,0.94 -2.37,3.66 -0.47,4.5 1.65,-0.53 3.08,-1.98 4.19,-3.31 2.14,-3.75 -0.98,-8.62 -5.25,-8.66 -3.22,-0.77 -6.96,0.77 -9.87,-0.4 -1.79,-1.56 0.82,-2.89 2.34,-2.57 4,-0.11 8.43,-0.82 11,-4.18 1.83,-3.15 -2.61,-6.06 -5.44,-6 -3.52,-0.21 -6.1,2.48 -8.22,4.75 -5.08,3.31 -12.5,3.37 -17.31,-0.28 -1.93,-1.86 -0.13,-5 0.22,-6.66 -2.66,-0.4 -6.62,0.58 -7.69,-2.69 -1.46,-2.16 -0.2,-4.45 1.06,-6.28 0.54,-2.05 -1.41,-5.38 0.78,-6.84 3.08,0.43 4.71,4.21 7.6,5.36 2.97,2.11 6.14,6.72 10.31,4.79 2.12,-3.28 0.58,-7.33 -0.87,-10.59 3.7,-0.87 6.25,3.2 9.4,4.47 1.96,1.45 4.39,1.61 6.63,1.56 3.65,1.15 5.33,-4.44 3.25,-6.78 -0.77,-5.08 -4.23,-9.07 -7.32,-12.97 4.41,1.09 10.04,2.9 13.91,-0.15 1.17,-1.5 0.54,-3.36 -0.5,-4.69 1.87,-3.59 -2.5,-6.58 -5.03,-8.44 -0.93,-0.42 -3.59,-1.83 -1.72,-2.78 3.98,-0.67 9.2,-1.71 10.88,-5.81 0.86,-4.79 -5.2,-6.6 -8.75,-7.38 -1.7,-0.97 -4.57,0.33 -5.72,-1.44 1.36,-2.14 4.95,-1.78 6.59,-3.78 3.91,-3.01 9.99,-5.76 9.28,-11.62 -0.39,-3.14 -4.71,-1.66 -6.75,-1.63 -1.67,0.25 0.35,-2.28 1.03,-2.97 2.29,-1.94 4.63,-4.39 3.87,-7.65 0,-1.63 0.75,-5.77 -2.09,-5.16 -1.14,0.5 -4.33,1.89 -4.15,-0.43 1.82,-4.05 5.8,-7.33 5.68,-12.12 0.12,-1.57 1.13,-4.27 -0.68,-5.14 -1.13,0.87 -4.81,2.67 -4.56,-0.1 1.67,-4.65 4.86,-9.33 4.4,-14.41 -1.4,-2.18 -3.14,1.27 -4.53,1.85 -2.12,0.3 -0.58,-2.78 -0.23,-3.78 0.82,-2.2 2.71,-5.79 0.51,-7.66 -0.15,0 -0.34,0 -0.5,0 z m -72.65,198.44 c 1.07,0.37 0.41,-1.24 0,0 z"/><path id="outline" d="m 162.56,206.58 c -2.64,-7.23 -3.41,-15.29 -6.25,-22.3 -2.79,3.13 2.6,13.34 2.53,18.75 1.34,4.91 1.38,9.5 2.89,14.25 2.53,8.2 2.05,16.92 0.93,25.27 0.24,-5.12 4.81,-0.63 4.55,-6.97 1.16,-4.57 -0.63,-9.28 -0.9,-15.2 -2.12,-5.04 -1.56,-9.91 -3.75,-13.8 z m 58.86,-63.05 c -2.6,-3.09 -8.16,-1.8 -9.9,-5.48 -2.78,-1.21 -5.63,-2.02 -8.68,-1.98 -3.55,6.73 11.4,8.61 15.6,13.08 2.91,4.37 -7.83,-2.85 -9.4,-3.81 -3.1,-1.01 -10.93,-8.39 -12.05,-4.22 3.58,2.43 4.73,6.16 8.62,8.13 4.54,2.85 9.01,6.83 14.68,6.51 1.39,-2.39 7.18,1.56 6.72,-3.41 0.28,-0.21 0.52,-0.31 0.59,-1.2 -1.87,-2.91 -3.89,-5.65 -6.18,-7.62 z m 6.84,8.71 c 0.28,0.29 0.42,0.85 0.41,1.48 0,1.27 -0.62,2.83 -1.83,3.18 -3.94,1.92 -7.83,0.91 -11.89,-0.1 2.95,3.68 5.7,7.29 6.48,12.02 2.36,2.79 -0.21,9.33 -4.31,7.19 -5.28,1.63 -12.17,-6.92 -14.77,-6 1.44,3.23 2.76,7.52 0.51,10.65 -4.41,2.43 -8.11,-2.9 -11.34,-5.09 -3.67,-1.62 -8.38,-9.93 -7.25,-0.7 1.15,3.57 -2.96,4.16 -1.27,7.4 1.13,4.8 5.96,2.02 8.32,3.44 -2.56,5.15 -2.18,7.41 4.77,8.77 3.97,1.05 8.56,-0.2 11.86,-2.46 2.6,-4.3 9.2,-6.25 12.79,-2.16 3.85,3.17 -0.7,7.16 -4.01,7.76 -1.78,1.89 -11.89,0.1 -8.16,3.18 4.71,0.1 10.37,-1.39 14.09,2.2 2.22,2.84 2.16,7.49 -1.43,9.19 -3.31,4.2 -5.42,-1.25 -2.52,-3.33 1.19,-3.25 -4.38,-2.72 -2.87,0.84 -0.73,3.32 -4.5,2.8 -6.55,0.86 -0.9,-2.19 -6.06,-4.87 -4.98,-0.52 -3.74,0.62 -3.54,4.97 -1.48,7.27 -2.84,3.53 -5.87,-1.99 -6.76,-4.87 -1.47,-1.11 -6.34,-3.12 -2.87,-5.41 3.42,-1.99 -1.22,-2.56 -2.63,-0.95 -2.58,1.98 -6.42,0.94 -8.97,3.28 -4.11,1.5 -5.13,-3.43 -6.77,-4.52 -3.56,0.58 0.87,8.53 -3.73,4.88 -4.06,-4.02 0.85,-11.79 6.31,-10.08 2.65,0.26 5.29,2.92 7.92,1.67 -0.5,-3.06 -6.97,-6.81 -10.68,-7.7 -3.54,1.2 -8.16,-4.64 -9.95,-1.99 -1.69,4.56 -2.94,0.45 -2.29,-2.27 -1.1,-3.81 -5.79,-6.48 -3.47,-0.9 2.29,6.39 3.13,13.22 6.12,19.33 0.24,3.27 4.36,10.08 1.32,12.59 3.62,1.5 2.98,7.65 3.05,10.68 0.18,4.8 -0.89,10.09 -5.37,12.73 -2.4,1.73 -5.01,0.41 -7.22,1.35 -0.78,3.12 -4.09,1.34 -6.04,4.82 l -0.28,0 0.4,-0.29 0,0.1 c -4.18,1.62 -6.55,-8.03 -8.68,-3.55 -3.74,2.84 -4.87,-3.34 -8.44,-2.28 -4.36,-1.94 -2.73,-8.19 -3.34,-11.95 0.71,-12.02 4.68,-23.64 6.56,-35.55 2.91,-3.01 -2.87,-6.92 -4.03,-6.26 -1.67,2.17 -3.73,5.35 -6.91,4.59 -3.38,0.86 4.11,3.94 -1.06,3.57 -1.81,-3.37 -4.17,-2.28 -2.28,1.2 -1.92,2.86 -4.89,-5.42 -7.23,-1.78 -5.27,2.43 -4.37,4.8 0.83,2.48 3.45,0.51 7.38,3.57 5.95,7.47 0.15,2.64 -6.39,5.49 -3.34,1.01 -0.46,-5.44 -2.06,-2.85 -3.9,0.4 -2.78,2.28 -5.16,-3.2 -8.56,-2.57 -3.17,0.34 -6.699,0.25 -3.68,4.8 -0.43,3.85 -5.612,0.17 -5.34,3.85 -1.059,4.17 4.31,0 3.4,3.43 -1.642,1.89 -5.906,2.26 -7.268,-0.47 -1.797,-2.68 1.285,-6.08 -1.032,-8.77 6.427,-3.91 0.562,-2.68 -3.38,-2.01 -1.393,2.81 -5.103,3.5 -7.51,1.64 1.53,-4.15 -3.586,-4.58 -4.5,-1.12 -0.805,1.9 3.633,5.32 -0.423,4.48 -3.735,-1.52 -2.89,-6.52 -1.405,-9.44 3.253,-1.43 6.835,-4.01 10.358,-1.83 5.545,1.11 1.456,-2.89 -1.82,-1.87 -3.077,0.74 -2.788,-6.85 -5.35,-3.08 1.17,4.4 -3.384,2.96 -3.208,-0.9 1.378,-5.48 9.445,-7.3 13.037,-2.73 2.937,3.37 7.806,4.97 11.931,2.78 2.55,-1.99 8.88,-3.27 8.28,-6.68 4.75,-3.16 10.17,-6.97 12.73,-12.2 -1,-1.84 -5.85,3.48 -8.92,1.79 -3.35,-0.25 -0.33,-6.89 -2.43,-5.78 -2.34,3.01 -5.95,4.19 -8.89,6.25 -2.765,2.21 -8.475,4.63 -10.69,0.5 -0.612,-5.46 3.584,-9.86 5.91,-14.44 -4.697,0.69 -8.467,4.89 -13.308,5.75 -3.175,0.56 -8.678,-0.65 -7.782,-4.94 0.772,-2.94 3.821,-4.97 4.82,-7.38 -2.469,-0.81 -5.921,0.69 -7.993,-1.78 -3.757,-2.5 -0.728,-7.33 1.759,-9.71 5.106,-1.78 4.839,-4.63 -0.915,-5.7 -3.204,-1.95 -3.014,-6.95 0.122,-8.95 1.771,-2.54 5.304,-2.78 8.017,-3.71 9.304,-0.6 -4.942,-4.53 -6.675,-7.12 -2.879,-1.96 -4.599,-5.48 -5.589,-8.6 -0.432,-4.53 5.322,-4.36 8.194,-2.86 5.019,-0.5 -6.534,-5.88 -7.145,-9.64 -2.901,-3.01 -0.44,-7.56 3.174,-4.63 6.876,3.96 3.24,-1.68 0.407,-4.56 -1.987,-3.99 -4.991,-7.93 -5.551,-12.39 2.264,-2.68 10.692,7.98 8.996,3.58 -5.032,-6.19 -11.12,-13.9 -9.517,-22.33 2.005,-4.05 4.765,2.65 6.156,4.15 -1.213,-3.11 -2.53,-7.09 -1.637,-10.82 3.796,-5.36 7.82,5.05 11.249,6.55 2.562,2.94 9.639,8.82 5.394,1.11 -3.283,-5.47 4.187,-6.78 2.964,0 4.927,6.42 12.53,10.59 17.63,17.03 3.52,2.99 5.65,7.3 9.01,10.09 2.81,4.75 5.18,10.11 3.52,15.67 -0.53,4.36 -5.64,6.01 -6.62,10.03 0.13,3.11 1.86,5.56 5.06,5.97 2.49,-0.27 6.12,0.9 8,-0.54 0.47,-2.79 -6.72,-0.12 -5.84,-4.05 1.89,-0.72 6.26,0.84 6.53,-3 2.74,-4.48 3.72,-6.7 -1.36,-8.02 -1.09,-3.4 2.9,-5.17 3,-1.83 4.3,-1.19 3.85,-5.77 4.39,-9.35 3.41,-3.72 1.12,2.5 3.74,2.24 3.29,0.61 5.14,-4.75 1.54,-5.73 -4.65,-3.29 -12.03,-2.11 -14.17,-8.56 -1.99,-3.96 3.3,-5.02 2.92,-0.57 0.78,1.96 8.78,4.82 6.78,1.31 -4.03,-0.87 -7.1,-4.47 -8.05,-8.41 1.77,0 6.02,4.84 3.23,-0.1 -0.54,-2.17 -3.8,-5.5 -5.54,-2.67 -1.12,4.41 -4.55,-1.12 -2.96,-3.38 0.91,-5.03 6.97,-6.89 11.46,-7.39 8.49,-2.54 15.87,4.29 22.74,8.13 2.34,3.65 7.47,2.17 9.46,4.21 -1.98,2.39 -3.55,4.31 -1.54,7.91 0.87,4.43 5.98,-2.75 4.18,2.67 -2.73,2.1 -5.67,2.78 -4.53,7.32 -0.34,2.41 -3.05,6.4 0.62,7.38 0.1,3.3 -7.05,0.2 -4.86,5.54 -0.42,4.31 7.65,1.1 3.94,4.27 -3.14,1.08 -7.02,3.18 -2.68,6.33 2.64,0.56 3.95,0.26 6.32,2.49 2.74,1.01 2.09,5.68 4.9,5.28 5.33,0.73 6.93,-7.26 3.45,-10.37 -2.48,-2.82 -2.92,-7.07 -2.73,-10.64 0.15,-8.55 6.37,-15.29 12.63,-20.38 6.24,-7.02 16.03,-10.99 19.55,-20.23 5.92,-2.77 -4.12,11.88 2.64,6.35 5.14,-5.09 11.17,-9.24 15.51,-15.09 3.44,-2.25 3.79,3 2.72,5.21 -1.58,4.28 -3.75,8.77 1.25,3.29 5.58,-1.47 0.86,9.12 -0.16,11.8 -2.99,5.21 -2.03,5.81 2.29,3.26 2.73,0.71 1.22,4.96 1.04,7.17 0.26,5.06 -11.12,14.28 -1.91,10.56 3.93,-0.84 2.41,4.83 2.7,7.19 0.4,3.84 -4.25,5.49 -5.48,8.57 2.51,-0.2 7.5,-1.45 7.3,2.48 0.57,6.43 -6.29,8.78 -10.21,12.34 -2.87,1.89 -9.95,2.99 -1.88,3.28 3.99,1.03 9.84,2.04 10.84,6.76 0.17,3.83 -3.48,5.66 -6.69,6.67 -1.83,1.38 -7.97,0.32 -3.34,2.68 2.59,1.65 7.87,5.68 5.83,9.22 0.35,0.88 0.53,0.98 0.66,1.09 z m -77.34,95.35 c 4.12,-1.62 2.81,-6.7 4.8,-9.41 1.5,-3.59 -0.96,-8.22 0.83,-11.96 -2.32,-4.91 -0.2,-8.18 -0.22,-12.77 -2.06,-6.28 -0.62,-15.54 -5.65,-19.89 -3.37,-5.3 1.67,-2.12 1.34,-5.61 -1.12,-6.74 3.32,5.75 2.51,-3.19 0,-3.49 -4.68,-1.97 -3.78,-4.25 0.28,-2.6 0,-5.27 -0.42,-7.87 -2.01,-7.38 -4.24,3.23 -6.74,5.61 -0.6,2.44 1.4,5.36 0.57,8.49 0.43,3.41 6.91,4.94 5.35,9.43 -5.26,-6.93 -3.34,6.77 -4.96,10.53 -1.2,2.91 2.03,4.98 0,7.79 0.42,3.31 0,6.74 -0.75,10.25 -0.27,2.65 1.1,4.92 0.24,7.53 -0.1,3.68 0.2,7.54 1.3,11.01 1.39,2.11 2.55,4.21 5.58,4.31 z m -5.49,-68.74 c 1.02,-2.14 5.24,-12.33 3.16,-4.08 -0.97,1.39 -1.07,4.14 -3.16,4.08 z m -5.16,66.24 c 3.98,-1.33 1.62,-5.69 1.82,-8.76 0,-7.05 -0.98,-14.38 0.58,-21.25 0.24,-7.73 1.22,-15.56 2.96,-23.13 -3.14,-4.49 -3.3,2.64 -3.67,4.9 -1.65,11.04 -4.75,22.09 -4.23,33.29 1.43,4.23 -0.23,12.74 2.54,14.95 z m 16.09,-2.11 c 2.2,-1.15 6.26,-1.03 5.36,-4.84 -0.17,-7.08 0.77,-14.29 -1.7,-21.11 -1.25,-7.8 -2.9,-15.47 -4.33,-23.24 0.4,-5.59 -5.27,-1.19 -1.21,2.5 1.06,3.34 1.41,6.85 2.48,10.13 1.77,8.19 0.51,16.69 0.89,25.03 0.57,3.93 -0.92,8.48 -1.49,11.53 z m -19.94,-0.68 c 2.53,-2.59 -0.77,-7.71 -0.29,-11.18 -0.75,-12.77 3.56,-25.22 5.22,-37.78 1.93,-4.02 -2.14,-6.14 -2.28,-0.53 -0.4,8.84 -3.51,17.39 -4.82,26.16 -1.2,6.98 -2.94,14.56 -0.58,21.45 0.88,0.59 1.96,2.15 2.75,1.88 z M 95.34,216.29 c -0.744,-4.89 7.26,-3.74 4.74,-8.27 -0.778,-2.9 1.51,-5.93 3.17,-2.89 2.22,-1.6 4.56,-0.86 6.46,-0.83 2.49,-1.71 1.48,3.32 4.04,3 2.28,-0.13 -0.61,-6.43 2.75,-5.12 2.09,4.68 6.3,0.3 1.05,-0.69 -2.78,-1.05 -5.21,1.36 -8.08,0.25 -3.45,-1.37 -2.07,-3.4 0.86,-2.61 1.99,-0.52 12.09,-6.25 5.95,-5.78 -7.75,4.03 -2.15,-2.38 -3.19,-4.2 -4.61,2.04 -9.24,5.56 -13.16,8.99 -5.234,3.61 -12.405,4.57 -18.63,2.83 -5.688,0.86 -4.856,5.13 1.238,2.13 3.453,0.43 -0.846,5.96 3.131,4.75 1.393,-3.1 4.753,-3.25 7.823,-2.9 6.333,-5.42 7.808,-0.78 2.428,2.85 -3.563,1.23 2.761,3.35 -0.955,4.96 -0.273,1.05 -0.451,2.74 0.375,3.53 z m 104.14,-2.78 c -1.04,-2.63 4.56,-4.62 2.26,-6.46 -1.75,-1.13 -6.83,-8.12 -3.35,-7.65 2.87,1.94 3.66,7 8.61,7.33 2.91,-0.98 5.07,0.13 4.62,2.93 2.99,1.91 3.7,-2.7 3.18,-4.94 1.83,-3.97 4.62,1.2 5.67,3.14 2.1,3.44 2.68,-4.56 0,-4.92 -3.6,-2.88 -8.32,0.65 -12.33,-1.28 -7.32,-1.89 -13.19,-7.55 -20.27,-9.68 -5.1,1.89 -11.85,-6.18 -4.84,-1.77 4.45,0.59 -2.14,-5 4.09,-1.88 5.79,-0.69 -2.98,-1.6 -4.31,-3.7 -4.04,-6.71 -10.55,-11.35 -14.67,-18 -1.31,-2.67 -2.64,-5.33 -3.97,-7.99 -2.4,3.11 1.69,5.34 2.27,8.01 3.88,0.83 0.62,7.81 -0.72,3.48 0.1,-2.78 -3.1,-1.37 -1.08,-5.08 -2.52,0 -2.84,2.23 -1.94,-2.48 -3.56,-2.22 -1.52,7.34 -4.94,8.5 -1.02,1.76 -3.64,10.86 -0.13,7.8 -0.77,-5.86 1.75,-5.36 1.47,0.72 0.18,4.81 2.55,1.63 1.61,-1.51 3.11,-0.74 0.48,5.6 0.86,7.27 1.68,1.28 2.37,6.52 3.07,2.03 -2.71,-3.92 -0.74,-6.18 1.28,-2.88 1.39,0.51 4.43,1.54 6.17,3.58 3.81,-0.6 2.1,0.86 3.07,3.01 1.56,-2.84 3.45,2.77 6.29,1.72 5.4,0.37 -4.16,1.88 1.68,2.82 1.78,0 2.8,4.46 5.31,2.15 3.97,0.97 -0.49,5.42 -3.25,5.42 -4.29,-1.87 -5.83,-0.1 -5.97,3.5 2.26,1.25 3.95,-1.96 6.65,-0.66 2.91,-0.78 9.66,-2.06 6.1,-5.17 1.53,-1.96 4.07,2.63 5,4.17 -1.2,3.13 -3.19,4.67 1.49,5.06 0,1.1 0.16,3.36 1.03,3.41 z M 169.25,174.1 c -3.17,-0.71 2.37,-5.1 0.55,-0.3 0.33,0.43 -1.16,0.58 -0.55,0.3 z m 4.2,29.62 c 2.5,1.12 8.09,-3.44 2.87,-2.93 -1.02,0.1 -5.31,2.9 -2.87,2.93 z m -80.33,-4.31 c 5.52,-0.14 3.709,-2.73 -1.237,-2.61 -3.855,-1.54 -6.288,-6.49 -11.053,-5.37 -5.643,1.34 -0.355,3.45 2.69,2.02 3.172,-0.87 -2.419,4.77 1.553,4.07 2.6,-2.57 3.584,1.62 6.147,1.91 0.486,0.1 1.711,-0.43 1.9,0 z m 110.29,-1.08 c 2.34,-0.91 5.27,-0.77 7.6,-2.11 1.49,0.8 7.19,0.45 3.11,-2.33 -3.74,-4.01 -6.23,1.07 -10.82,1.84 -3.72,0 -5.75,1.01 0.11,2.6 z m -83.27,-2.8 c 3.33,-1.43 6.43,-4.03 8.98,-6.5 1.18,1.52 -4.06,5.87 1.44,1.78 2.33,-6.72 6.36,-4.5 9.03,-9.12 0.95,-2.05 3.33,-5.65 2.89,-8.84 -0.57,-3.42 -4.41,-0.17 -5.37,1.63 -2.7,0.9 -0.1,-8.13 1.04,-3.83 2.96,-1.38 -0.65,-10.53 -2.08,-12.52 -5.19,3.18 -4.98,11.11 -10.18,14.81 -3.45,4.86 -6.46,10.14 -11.84,13.14 -4.75,2.9 1.11,2.44 2.52,-0.13 3.49,0.67 -4.06,4.91 -1.07,6.85 1.67,-0.59 8.17,-2.62 5.28,0.15 -0.22,0.68 -2.86,2.26 -0.64,2.58 z m 13.37,-11.45 c -2.04,-1.69 5.91,-6.36 1,-0.46 -0.1,0.5 -0.74,0.52 -1,0.46 z m -2.3,-4.04 c -2.44,-2.7 6.16,-8.69 2.61,-2.29 -0.89,0.54 -1.52,2.32 -2.61,2.29 z m 6.71,-1.54 c -2.08,-1.49 2.31,-6.79 3.12,-2.9 -0.67,2.21 -2.44,0.63 -3.12,2.9 z m 79.86,15.91 c 0.98,-3.67 -3.49,-1.26 0,0 z m 1.94,-2.6 c 0,-3.22 -5.03,-3.62 -7.21,-1.83 0.89,3.8 4.93,-0.82 7.21,1.83 z m -47.75,-0.31 c 1.53,-2.58 -2.92,-4.3 -5.22,-4.34 0.55,1.93 3.35,3.29 5.22,4.34 z m -33.41,-2.38 c 2.04,-2.2 1.02,-8.18 -0.99,-2.1 0.1,0.67 -0.41,3.75 0.99,2.1 z m 4,-2.25 c 1.23,-1.32 -1.9,-1.28 0,0 z m 16.55,-2.79 c 2.47,-1.46 -3.47,-1.26 0,0 z m -2.84,-2.18 c 0,-2.56 -2.8,0 0,0 z m -60.49,-2.8 c 3.366,-0.57 6.54,-3.32 8.42,-6.23 3.46,1.5 5.01,-2.89 7.48,-4.53 3.15,-4.28 6.45,-9.02 8.25,-13.99 -1.42,-2.11 -4.85,-4.24 -6.39,-0.17 -4.81,4.06 -9.82,15.02 -14.46,15.59 4.1,-6.23 10.1,-11.26 13.71,-17.68 -5.29,0.3 -7.95,5.93 -11.82,8.9 -3.887,4.58 -7.612,9.99 -8.61,15.95 -0.602,1.81 2.288,2.03 3.42,2.16 z m 105.26,-0.6 c 3.11,-0.35 0.79,-4.94 0.73,-7 -3.25,-6.54 -6.93,-13.35 -12.54,-18.09 -3.79,0.17 -11.76,-5.73 -5.58,0.78 3.33,4.61 13.94,11.95 12.53,16.26 -4.93,-6.6 -10.95,-12.29 -16.25,-18.59 -5.88,0.85 1.52,8.94 3.49,11.47 1.79,6.5 5.65,5.82 8.64,9.09 2.07,2.83 5.58,5.4 8.98,6.08 z m -19.36,-1.24 c 3.96,-0.88 -1.72,-4.83 0.54,-6.51 2.36,-2.85 -4.62,-12.1 -7.09,-15.96 -1.16,-6.03 -8.93,-2.94 -4.37,1.01 2.15,2.48 11.29,14.64 7.79,13.76 -2.88,-4.87 -5.82,-9.72 -9.41,-14.1 2,3.35 -1.86,3.59 -1.57,-0.75 -1.37,-4.91 -2.22,4.19 -0.39,5.67 2.33,7.62 8.28,12.38 14.42,16.88 l 0.1,0 z m -66.92,-0.45 c 5.24,-1.15 8.64,-5.88 10.46,-10.67 3,4.28 5.03,-5.64 6.53,-8.23 0.8,-1.83 0.83,-7.33 -2.11,-5.46 -5.43,5.15 -8.17,13.78 -13.72,18.1 2.19,-6.56 9.98,-12.14 10.8,-18.49 -3.19,-4.09 -1.03,5.22 -3.93,3.03 -2.87,3.47 -4.34,7.31 -6.9,11.08 -1.44,3.05 -4.81,6.67 -2.92,10.07 0.32,1.08 1.38,0.21 1.79,0.57 z m 38.7,-1.01 c -0.4,-5.21 3.11,-0.31 3.05,-7.32 2.39,-2.64 2.85,-4.95 0.47,-5.02 0.65,-3.66 0.82,-6.11 2.02,-8.79 -2.91,-1.52 -2.04,-4.77 -3.47,-7.93 3.1,0.11 1.74,5.45 4.55,6.75 1.3,2.04 -1.72,6.23 0.93,7.04 1.77,-1.58 1.49,-5.27 0.96,-7.45 -1.86,-1.33 -4.13,-8.64 -0.1,-4.9 -0.22,3.53 3.79,8.69 3.03,2.64 0,-4.97 1.36,-10.11 -0.25,-14.73 3.92,1.15 1.38,-4.5 0.28,-6.32 -2.04,-1.37 -1.99,-7.14 -5.52,-4 -0.95,2.65 -7.88,4.32 -4.44,7.81 2.26,3.78 -5.49,-0.41 -2.03,-3.28 2.78,-1.27 1.34,-5.64 3.28,-6.35 1.39,4.15 3.03,0.1 1.81,-2.65 1.23,-4.15 1.99,5.08 3.19,1.18 1.43,-2.28 -3.98,-6.22 -0.34,-6.54 1.79,0.67 8.74,5.19 6.6,1.33 -2.74,-2.74 -8.29,-1.85 -9.63,-6.14 -1.5,-2.67 -2.15,-10.61 1.39,-4.48 3.43,-0.1 -1.94,-2.91 -0.71,-5.22 -0.1,-3.08 1.04,-5.87 0,-8.95 0.94,-4.06 3.17,-0.59 1.98,1.71 1.14,1.2 1.13,-4.66 1.98,-6.2 0.88,-3.12 -1.28,-5.53 -1.93,-8.1 1.28,-2.34 3.74,2.73 1.67,-2.73 -2.35,-3.04 -1.56,-5.19 -2.69,-6.78 -6.79,-3.53 -13.11,-9.26 -20.86,-10.38 -3.12,-0.59 -2,4.07 0,5.11 5.47,2.64 11,5.15 15.88,8.82 1.32,-0.27 4.61,4.89 1.74,4.87 -1.08,-2.76 -5.73,-7.21 -8.08,-3.1 -2.41,1.87 1.86,4.58 3.84,4.03 -0.72,1.52 -0.3,4.52 -0.81,7.51 -0.4,4.23 -8.99,4.36 -2.93,1.28 0.6,-2.48 1.72,-4.46 0.66,-6.96 -1.32,-4.77 -8.33,-4.68 -10.22,-8.62 1.25,-1.07 3.07,-6 -0.37,-6.48 -5.44,-2.86 2.64,7.54 -2.98,2.26 -0.14,-4.02 -2.9,-5.1 -6.48,-6.37 -1.74,-0.14 -6,3.67 -3.07,4.12 4.31,-0.91 6.11,3.43 7.42,6.64 3.4,4.81 10.26,3.94 13.77,8.49 1.59,2.8 -1.63,5.6 -4.23,3.69 -2.48,-1.79 -5.9,-1.83 -9.13,-2.04 -5.11,-0.36 2.21,1.71 3.82,2.24 2.43,2.14 10.17,2.58 6.91,6.75 -1.52,3.55 -5.42,4.11 -8.39,6.02 -0.96,1.4 -6.37,5.59 -2.29,5.19 2.84,1.02 5.73,-6.52 6.57,-2.76 -1.56,1.04 -6.02,5.13 -3.11,5.79 2.4,-0.12 -0.97,6.16 -1.81,6.38 -1,-3.09 -0.12,-4.86 -0.52,-7.82 -2.22,1.33 -8.08,10.49 -6.08,10.52 3,0 5.43,-7.81 4.2,-1.31 1.59,3.65 -6.01,3.66 -6.2,8.1 2.8,-0.36 6.32,-2.36 2.53,2.69 -1.87,3.75 -0.24,5.39 2.07,2.45 1.27,2.19 -3.8,10.66 -0.16,8.56 0.57,-1.53 4.37,-7.87 3.46,-3.5 -0.61,2.9 -3.21,4.94 -2.94,8.01 -0.17,1.79 -0.54,8.38 1.72,5.01 2.94,1.94 2.15,-6.83 3.83,-3.67 1.22,4.42 -4.97,8.23 -1.67,12.04 1.86,-1.23 2.69,-7.05 4.62,-4.8 0.61,2.54 -4.19,2.41 -2.95,5.93 3,2.37 1.85,9.57 5.2,13.21 0.16,4.39 4.74,7.62 2.35,2.46 2.67,-4.7 -2.15,-9.74 0.31,-14.5 -0.27,-4.51 3.89,-2.02 1.28,0.65 -1.06,2.67 0.11,5.73 0.82,8.43 0.93,-2.17 -1.18,-5.66 2.68,-5.81 0.59,2.02 -2.24,5.42 -1.17,8.43 2.55,2.97 1.01,-3.65 2.17,-4.35 1.57,2 -0.16,8.27 1.8,11.4 0.1,0.83 1.67,0.71 0.7,0.81 z m -11.22,-14.65 c -1.96,-1.14 -2.32,-4.98 -2.01,-7.21 2.46,-2.68 0.55,3.74 1.96,5.08 -0.19,-0.17 1.58,2.73 0.1,2.13 z m 10.07,-3.01 c -3.22,-0.88 1.9,-2.55 0,0 z m 2.04,-1.39 c -1.83,2.2 -1.83,-6.84 0.39,-3.85 0.16,1.14 0.45,2.97 -0.39,3.85 z m -6.43,-0.25 c -2.32,-3.45 4.38,-8.15 1.5,-1.64 -0.5,0.45 -0.47,1.99 -1.5,1.64 z m 3.92,-3.1 c -0.73,-0.57 -1.78,-6.71 1.07,-5.26 0.1,1.31 0.71,4.99 -1.07,5.26 z m 11.55,-6.8 c -3.71,-3.48 1,-6.47 0.59,-0.38 0.57,0.52 -0.92,0.38 -0.59,0.38 z m -3.03,-3.73 c -3.36,-1.85 1.22,-3.86 0.62,0.15 l -0.47,0 z m -25.73,-0.92 c -3.3,-0.61 1.31,-8.45 1.01,-4.15 -1.18,1.04 0.16,3.83 -1.01,4.15 z m 27.21,-3.72 c -1.33,-1.05 -3.91,-5.2 -0.1,-4.67 -1.07,-3.21 -2.9,-6.51 0.98,-2.09 0.83,2.79 -0.81,4.24 -0.89,6.76 z m -5.23,-2.16 c -2.14,-2.24 2.17,-8.2 1.41,-1.09 -0.51,0.35 -0.58,1.43 -1.41,1.09 z m -5.89,-1.86 c -2.91,-0.61 -2.1,-4.42 -1.32,-6.41 2.78,-1.54 1.42,5.97 1.35,6.56 l 0,-0.15 z m -6.58,-0.32 c -3.41,-2.38 2.62,-4.64 2.11,-7.37 3.81,-2.4 1.29,4.85 -1.14,5.28 0.1,0.62 -0.26,2.29 -0.97,2.09 z m -6.1,-4.95 c -2.99,-0.81 1.83,-6.43 -3.47,-6 -2.24,-2.1 -1.49,-5.67 0.59,-7.63 1.95,1.45 -2.17,4.39 0.51,5.9 1.55,-4.04 2.47,0.16 3.26,1.98 1,4.69 3.13,-4.95 3.65,2.58 1.07,4.46 -2.3,0.93 -4.52,3.25 l 0,-0.1 z m 12.41,-10.53 c -3.9,-0.43 1.58,-4.55 1.39,-1.11 -0.37,0.78 -0.35,1.35 -1.39,1.11 z m 3.45,-2.17 c -4.87,0.64 -3.21,-8.13 -1.04,-3.43 -0.32,1.63 5.31,2.3 1.04,3.43 z m 1.94,-3.41 c -3.79,0.55 -1.04,-9.06 -0.47,-3.85 -1.37,1.33 3.41,4.53 0.47,3.85 z m -1.98,-11.15 c -3.67,-4.13 3.52,-4.56 1.63,-9.33 2.83,-2.83 1,8.42 -1.59,9.16 l 0,0.17 z m -0.35,-21.06 c -2.92,-1.5 3.14,-1.65 0,0 z m 62.55,92.49 c 2.67,0.35 6.44,-1.85 3.34,-4.46 -4.16,-3.61 -1.34,-8.6 -6.83,-11.83 -4.48,-4.33 -10.05,-7.36 -14.53,-11.71 -6.54,6.04 6.68,10 9.96,15.24 4.38,1.97 8.9,9.31 1.71,3.38 -5.61,-4.65 -10.92,-9.65 -15.98,-14.89 -3.94,-0.15 -2.46,4.48 -0.13,5.87 4.57,5.12 7.63,11.62 13.97,14.95 2.47,1.61 5.57,3.81 8.49,3.45 z M 81.7,168.47 c 5.118,0.1 9.15,-4.09 13.51,-6 4.517,-0.71 6.86,-6.18 10.26,-9.08 2.68,-2.08 0.34,-5.09 2.14,-7.72 -6.5,2.53 -12.576,9.64 -18.249,14.47 -6.83,5.86 -0.708,-2.42 2.28,-4.34 4.278,-3.47 8.549,-6.94 12.829,-10.41 -5.509,-2.48 -10.086,5.37 -15.086,6.89 -3.93,4.15 -13.927,9.37 -10.964,16.02 0.91,0.17 2.733,0.78 3.28,0.17 z m -3.26,-12.12 c 6.287,-0.1 9.614,-6.58 15.127,-8.73 6.205,0 6.843,-9.05 0.503,-4.49 -4.539,0.97 -13.519,9.36 -14.915,7.53 3.674,-4.1 15.177,-7.9 15.847,-9.81 -4.636,0.8 -9.133,2.13 -13.71,2.9 -4.081,1.73 -7.928,4.71 -8.768,9.38 0.964,2.33 3.438,3.79 5.916,3.22 z m 42.91,-4.21 c 4.52,-0.85 5.29,-6.74 8.27,-9.59 1.68,-4.81 -2.25,-3.92 -4.45,-0.65 -3.52,0.94 -5.6,5.55 -5.93,8.82 0.17,1.16 1.06,1.62 2.11,1.42 z m 54.67,-0.3 c 2.16,-1.17 5.06,-2.74 2.56,-4.32 -1.32,-3.39 -2.9,-9.21 -7.24,-5.6 -0.2,2.76 2.02,8.83 4.68,9.92 z m -46.99,-0.3 c 3.35,-0.4 1.07,-7.86 -0.78,-4.32 -0.78,1.3 -1.12,3.94 0.78,4.32 z m 58.67,-0.17 c 4.43,-0.9 2.89,-7.58 0,-9.65 -0.96,-2.79 -7.56,-1.56 -3.81,-4.45 2.89,-2.67 -2.03,-5.56 -2.03,-7.48 2.56,-0.91 4.46,6.07 5.99,1.93 -0.46,-4.83 -5.71,-4.21 -8.92,-3.23 -2.98,2.87 -4.65,2.04 -3.2,-0.62 -4.76,0.1 -3.61,9.36 -1.49,5.12 -1.98,-3.12 6.21,1.28 1.02,2.01 -2.99,2.01 -3.41,-3.46 -5.52,-2.57 -1.22,4.21 5.33,2.8 5.46,6.41 2.22,3.06 5.9,-0.37 4.85,-3.36 -3.87,-3.13 2.02,-4.04 1.81,0.47 1.57,3.86 -5.87,4.72 -2.97,7.91 1.5,3.72 4.51,7.62 8.8,7.52 l 0,0 0,0 z m -76.2,-0.21 c 4.68,-0.5 8.15,-5.14 9.65,-9.23 1.31,-3.99 -4.94,-5.56 -6.46,-1.95 -2.76,1.85 -10.27,10.52 -3.19,11.18 z m 57.9,-0.65 c 3.09,-1.67 0.54,-4.01 -2.07,-4.06 -0.33,0.27 1.29,3.67 2.07,4.06 z m 24.21,-3.04 c 3.34,-0.54 2.94,-5.22 1.35,-7.35 -1.67,-2.43 -9.25,-7.92 -8.48,-1.96 2.79,2.33 6.14,4.72 6.3,8.78 -0.25,0.64 0.84,0.54 0.83,0.53 z m -23.94,-1.65 c 1.07,-3.14 -4.65,-8.95 -2.01,-1.76 0.19,-0.54 1.43,3.34 2.01,1.76 z m -64.61,-2.22 c 3.95,0.1 11.17,-3.91 5.89,-7.5 -3.29,-2.3 -7.55,0.21 -9.98,2.45 -2.634,3.11 1.02,5.94 4.09,5.05 z m -21.72,-2.52 c 5.114,0 10.059,-1.72 14.92,-3.08 -0.959,-1.27 -2.829,-4.92 -5.03,-5.1 -2.839,0.55 -14.027,2.44 -6.16,-0.23 3.35,-1.29 11.013,0.15 11.49,-3.89 -3.614,-0.89 -7.924,0.13 -11.799,0 -5.176,0.23 -11.975,1.56 -13.891,6.92 -0.833,3.98 4.38,4.81 7.17,5.53 1.079,0 2.29,-0.17 3.3,-0.12 z m 40.92,-0.17 c 5.49,-0.92 -3.51,-4.99 -1.91,-1.13 -0.43,0.73 2.82,1.07 1.91,1.13 z m 47,-0.31 c 4.8,-0.53 -1.95,-7.56 -1.47,-3.12 2.65,1.66 0,2.67 1.47,3.12 z m -2.56,-2.17 c 1.9,-2.25 -2.58,-1.38 0,0 z m 29.49,-0.7 c 4.29,0.34 3.63,-5.94 0.52,-7.17 -3.49,-4.66 -8.37,0.88 -8.94,3.4 2.98,0.77 5.55,4.36 8.42,3.77 z m 21.11,0 c 2.37,-0.96 3.48,-1.83 6.84,-1.34 3.58,-0.66 5.81,-4.58 2.08,-6.83 -7.02,-3.92 -15.82,-3.48 -23.62,-2.58 -2.85,-2.08 -6.15,3.05 -1.86,2.79 4.61,1.04 9.95,-0.8 14.17,1.04 -2.5,2.95 -9.33,-0.1 -13.29,0.22 -3.43,0.74 2,3.56 3.79,3.2 4.13,0.29 8.22,3.93 11.89,3.5 z m -93.65,-0.22 c 2.43,0.22 3.43,-4.42 1.04,-5.38 -1.93,-2.29 3.08,-9.14 -2.37,-7.45 -4.67,-0.32 -0.26,-2.12 0.98,-3.58 -2.05,-1.18 -7.36,0.38 -10.16,-1.99 -3.21,-3.41 -2.39,-9.01 1.67,-11.32 4.57,-4.38 4.09,-12.04 0.73,-17.02 -2.62,-3.13 -4.3,-9.45 -8.89,-9.01 -4.04,2.4 1.48,6.22 4.27,6.46 3.56,1.57 -4,1.18 -1,4.7 -2.98,3.9 0.38,-6.12 -4.25,-4.99 -3.28,-0.52 -4.66,5.15 -0.41,5.26 3.02,3.55 -4.4,-0.77 -5.46,2.15 -0.79,2.87 2.13,4.53 4.66,4.37 3.37,2.91 -6.16,2.33 -1.81,5.36 5.42,1.4 4.76,2.97 0.55,4 -1.3,3.15 6.28,6.48 -1.23,3.85 -1.03,0 -5.866,1.15 -4.778,3.74 1.788,1.17 5.328,2.62 6.728,-0.23 4.18,-2.02 1.24,-0.2 0.88,2.11 2.4,0 3.64,-2.28 2.1,2.03 2.13,0.79 4.19,-2.36 3.7,1.77 3.21,3.93 -5.73,-1.94 -6.09,3.23 -1.19,3.82 3.23,4.49 4.63,0.84 1.68,-0.95 8.61,-5.4 6.78,-0.89 0,5.91 5.05,-4.11 3.23,3.45 1.39,3.43 3.59,-4.15 3.16,1.46 3.63,3.87 -5.24,0.92 -6.21,-1.63 -2.01,-4.49 -6.12,-2.69 -8.18,1.46 -1.86,4.08 3.02,5.04 3.43,0.64 5.93,-3.6 -0.78,1.68 0.21,4.69 1.24,3.49 4.8,0.25 4.37,-2.37 3.9,-5.32 -0.52,7.93 4.49,2.8 3.05,-3.79 0.69,2.25 3.23,1.49 z m -15.16,-37.49 c -3.06,0 -2.94,-4.62 -0.31,-5.26 -0.67,1.22 2.47,5.2 0.31,5.26 z m -9.6,35.91 c 2.39,-0.79 6.77,-2.05 6.78,-5.04 -2.26,-2.98 -7.46,-2.99 -9.32,0.56 -1.98,1.63 0.136,4.95 2.54,4.48 z m 70.24,-5.92 c 3.26,-1.52 -3.07,-6.01 -1.68,-1.22 0.45,0.58 1.04,1.54 1.68,1.22 z m -4.4,-0.25 c 1.81,-4 -1.6,-8.44 -4.1,-10.99 -1.01,1.84 -0.12,5.65 1.98,7.37 -0.1,1.26 1.25,3.34 2.12,3.62 z m 23.57,0 c 4.25,-2.12 0.41,-8.13 -3.37,-8.37 -5,1.53 -4.39,7.04 1.63,6.36 3.2,-1.35 0.25,1.17 1.74,2.01 z m 7.55,-1.55 c 2.44,-1.09 -2.05,-4.92 -3.23,-4.77 -2.42,2.44 0.44,4.85 3.23,4.77 z m -95.91,-0.62 c 3.47,1.3 3.81,-4.8 0.39,-2.64 -1.59,0.17 -2.712,3.19 -0.39,2.64 z m 70.96,0 c -0.52,-4.21 1.14,-0.56 3.81,-1.22 2.91,1.74 5.38,-0.66 4.1,-2.85 4.42,0.39 0.1,-5.27 4.3,-3.26 -0.83,-2.98 4.11,-6.63 -0.22,-7 6.44,-0.57 3.81,-8.36 -0.7,-4.02 0.18,3.91 -3.47,0.25 -0.9,-1.36 -1.17,-1.68 0.78,-4.36 -2.15,-4.91 -0.11,-2.55 -1.73,-5.25 2.35,-3.9 2.47,0.72 6.12,-2.54 3.78,-4.52 -2.66,-2.27 -4.37,1.62 -6.6,1.5 0.61,-3.19 -0.18,-4.86 1.32,-7.02 -0.11,-3.66 4.2,0.98 0.85,2.65 0.68,2.66 6.56,0.2 7.7,-1.88 1.84,-1.96 5.37,-7.07 2.09,-9.11 -3.94,-2.29 -4.82,3.03 -7.2,3.59 -0.87,-4.13 -5.49,4.2 -6.96,5.47 -3.35,4.94 -3.84,11.56 -1.94,17.08 3.69,3.47 5.19,10.09 0.91,13.61 -2.33,2.54 -9,0.37 -5.54,5.48 0.29,0.51 0.63,1.77 1,1.67 z m -75.23,-0.67 c 2.66,-1.22 4.68,-4.25 8.12,-3.16 3.46,-2.95 0.27,-3.66 -1.65,-1.78 -8.163,0.12 -16.226,-2.46 -23.119,-6.71 -0.327,-2.97 5.845,2.41 8.008,2.5 2.471,0.54 12.181,4.45 8.132,-0.1 -6.243,-1.93 -11.91,-5.08 -18.119,-7.03 -2.917,0.1 -8.119,-2.12 -8.491,2.3 2.706,4.09 6.169,9.11 11.379,9.62 2.786,0.79 4.749,3.45 8.372,3.46 2.37,0.77 4.979,0.36 7.368,0.9 z m 72.17,-1.19 c 1.73,-3.26 -3.98,-1.81 0,0 z m 33.06,-0.63 c 5.35,-1.83 13.55,0.34 17.36,-4.32 4.86,-1.93 12.09,-5.31 11.12,-11.71 -2.56,-1.85 -6.32,-0.53 -8.94,0.74 -5.34,2.26 -10.09,6.1 -15.89,7.56 -3.56,2.24 -10.98,1.56 -12.37,4.65 3.03,-0.32 4.5,3.1 7.61,2.78 l 1.09,0.3 0,0 z m -3.72,-3.5 c -5.34,0.37 -1.43,-1.35 1.67,-1.03 5.37,-0.18 15.85,-4.01 18.72,-2.59 -6.49,2.39 -13.65,2.83 -20.39,3.62 z m -31.25,0 c 1.39,-2.45 -2.62,-0.13 0,0 z m 22.54,-1.05 c 3.79,0.73 7.95,-3.81 6.21,-7.47 -2.56,-0.72 -7.47,2.17 -2.06,-1.69 2.15,-2.58 -2.88,-2.95 -3.94,-1.23 -2.47,2.48 -0.98,6.02 -3.56,8.48 0.1,2.24 1.78,1.99 3.35,1.91 z m 8.81,-2.06 c 5.7,-2.45 12.7,-3.34 17.3,-7.66 2.31,-1.69 6.5,-1.89 7.36,-5.15 3.86,-1.89 5.77,-6.04 5.49,-10.21 -0.55,-6.24 -7.43,2.15 -10.11,3.01 -6.71,5.1 -14.42,9.07 -21.21,13.73 5.45,0.99 11.11,-4.93 16.2,-6.96 1.91,-2.07 13.13,-7.4 5.92,-1.82 -6.4,4.45 -13.36,8.12 -20.72,10.7 0,1.16 -3.09,5.27 -0.23,4.36 z M 96.15,116.16 c 7.44,-3.44 0.287,-4.53 -2.708,-6.98 -6.584,-2.26 -12.97,-5.38 -18.273,-9.98 0.262,-2.32 -6.138,-4.57 -4.465,-0.99 2.078,4.88 6.924,7.87 11.406,10.35 0.894,2.85 4.542,2.67 6.29,4.54 2.612,0.94 5.091,2.25 7.75,3.06 z m 5.57,-4.94 c 3.31,-1.23 4.56,-5.99 -0.65,-5.32 -2.935,-0.74 -6.448,-0.2 -4.008,2.22 -2.607,1.62 3.738,3.1 4.658,3.1 z m 96.52,-1.43 c 7.6,-2.67 13.58,-8.86 20.75,-12.49 4.33,-6.47 10.77,-13.04 9.91,-21.41 -4.88,1.37 -7.79,8.81 -12.48,11.74 -4.58,4.4 -9.41,8.59 -15.07,11.52 -0.33,6.26 6.93,-3.53 9.12,-4.37 3.95,-1.26 7.4,-9.87 11.13,-7.87 -7.39,8.25 -16.7,14.34 -25.7,20.63 0.42,1.16 1.39,2.9 2.34,2.25 z m -6.49,-1.67 c 4.82,0.14 11.85,-9.94 4.28,-10.6 -2.14,0.45 -6.25,1.66 -5.83,4.4 -3,3.92 -7.18,5.26 -0.14,5.42 0.46,0.33 1.71,0.14 1.69,0.78 z M 91.14,106.57 c -2.952,-1.72 -8.764,-6.9 -13.455,-8.03 -1.902,1.88 10.639,7.23 13.455,8.03 z m 1.88,-0.93 c 6.857,-1.88 -5.289,-4.06 -4.979,-7.83 0.461,-4.46 -5.476,-4.3 -7.791,-7.11 -3.496,-1.24 -8.432,-9.11 -1.582,-2.92 1.532,2.64 15.77,9.22 8.675,3.21 -4.592,-3.48 -9.98,-5.93 -14.488,-9.36 -6.149,-3.52 2.113,8.18 3.215,9.97 3.958,6.02 10.183,10.66 16.34,14.01 -0.222,0.81 0.531,-0.21 0.61,0 z m 92.29,-1.2 c 3.71,-0.1 3.26,-5.56 -0.32,-3.69 -3.1,0 -0.47,3.03 0.32,3.69 z m -85.08,-0.32 c 4.85,-1.41 1.15,-4.21 -0.339,-6.91 1.619,-4.69 -5.007,-4.07 -7.861,-3.02 -4.982,3.06 0.402,6.66 3.767,8.02 1.481,0.47 2.784,2.13 4.433,1.91 z m 89.85,-5.42 c 2.83,-0.61 9.26,-7.67 3.52,-8.21 -1.45,1.13 -5.69,1.97 -3.71,4.44 1.09,1.55 -3.47,5.05 0.19,3.77 z m 11.27,-1.38 c 7.74,-3.99 13.95,-10.42 19.64,-16.86 2.39,-3.78 3.75,-8.32 5.46,-12.46 -0.1,-2.05 3.12,-7.49 0.22,-7.18 -3.67,6.26 -9.95,10.67 -14.7,16.13 -4.18,4.97 -9.62,8.36 -14.99,11.87 4.48,4.37 11.02,-8.43 16.06,-10.77 1.77,-2.5 10.56,-11.66 5.34,-3.56 -6.45,7.73 -14.76,13.79 -21.98,20.6 1.37,1.05 3.41,0.97 4.95,2.23 z m -100,-4.03 c 3.12,-1.61 1.34,-6.07 -1.724,-7.1 -1.842,-2.58 -8.087,-1.26 -6.546,2.39 1.676,2.22 4.17,3.64 6.772,3.81 0.08,0.38 2.168,0.91 1.498,0.9 z M 92.74,92.35 C 91.622,89.11 91.211,84.14 86.677,82.4 81.972,78.89 77.515,74.85 74.081,70.06 c 3.541,0.6 7.61,8.06 11.97,10.27 1.858,2.4 10.456,5.73 3.749,1.07 -8.272,-5.5 -14.457,-13.39 -20.602,-21 -2.585,1.85 0.822,7.19 1.587,9.66 2.178,4.58 5.137,8.57 8.615,12.19 3.814,3.55 8.515,7.81 13.34,10.1 z m 101.33,-3.4 c 6.71,-3.38 12.33,-8.87 17.86,-13.92 3.41,-5.72 10.01,-9.22 11.32,-16.14 1.42,-2.51 1.88,-9.83 -0.94,-3.97 -8.49,8.83 -19.19,15.16 -27.87,23.83 1.78,8.8 9.73,-6.01 13.86,-7.57 3.77,-3.29 7.12,-7.68 11.12,-10.43 0.23,2.98 -6.51,6.79 -8.52,9.86 -5.04,5.38 -11.29,9.91 -16,15.4 -0.19,0.76 -2.19,3.01 -0.83,2.94 z M 104.7,87.39 c 2.35,-0.87 -0.66,-6.65 4.1,-7.15 -0.87,-2.54 -3.46,-5.12 -6.49,-4.3 -3.071,-0.27 -5.368,3.32 -3.483,5.91 0.739,2.33 3.903,4.91 5.873,5.54 z m -1.93,-5.91 c -3.04,0.4 -0.68,-4.51 1.62,-4.34 0.49,1.29 -1.78,2.71 -1.62,4.34 z m 41.84,2.8 c 0.25,-3.7 -8.1,-6.53 -12.24,-7.57 -2.58,2.09 7.5,4.21 9.94,6.15 0.74,0.51 1.44,1.1 2.3,1.42 z M 95.96,83.04 c 1.125,-1.19 1.559,-6.36 -1.482,-7.03 -6.882,-4.66 -13.326,-10.27 -17.968,-17.2 3.81,1.52 7.958,8.36 12.344,11.42 2.858,1.48 7.275,7.33 9.686,5.19 C 94.656,69.77 87.502,66.05 82.5,61.1 79.592,59.78 73.401,48.05 73.013,56.08 c 0.189,4.74 3.473,8.88 5.688,12.9 5.231,4.96 10.191,10.39 16.469,14.02 0.247,0.12 0.544,-0.1 0.79,0 z m 92.33,-3.38 c 3.12,-0.84 5.5,-2.48 7.67,-5.19 5.12,-1.66 3.72,-7.01 -0.32,-1.73 -1.29,2.27 -8.35,4.56 -7.35,6.92 z m -43.32,-4.39 c 3.69,1.05 3.98,-5.93 0.8,-1.92 -2.76,2.48 -4.04,-4.45 -0.94,-1.53 1.45,-2.77 -5.23,-2.9 -3.57,0.8 0.87,1.39 1.79,3.18 3.71,2.65 z M 101.79,75 c 3.87,-1.85 -6.334,-6.53 -7.7,-9.24 -4.053,-5.24 -4.04,-2.95 -1.62,1.34 3.051,2.48 5.788,6.7 9.32,7.9 z m 100.55,-6.56 c 2.23,-2.42 -2.03,0.1 0,0 z M 133.3,63.55 c 1.41,-3.41 -4.66,-2.18 0,0 z"/></g>
</svg>
