<?xml version="1.0" encoding="UTF-8" standalone="no"?>
<!DOCTYPE svg PUBLIC "-//W3C//DTD SVG 1.1//EN" "http://www.w3.org/Graphics/SVG/1.1/DTD/svg11.dtd">
<svg xmlns="http://www.w3.org/2000/svg" width="300px" height="350px">
<g>
<path id="fill" d="m 117.84,50.969 c -4.4,1.81 -6.78,6.544 -8.37,10.781 -4.02,7.428 -12.79,9.739 -20.323,11.99 -1.233,0.332 -4.859,1.727 -4.709,-0.584 0.31,-1.381 3.083,-1.711 3.124,-2.656 -2.97,0.455 -3.987,4.867 -7.218,4.625 0.298,-0.891 3.24,-3.515 2.25,-2.844 -1.967,1.668 -3.83,5.098 -6.782,4.688 -0.4,-1.744 -1.702,1.06 -2.874,1.156 -2.042,1.064 -5.714,3.36 -3.219,5.875 1.5,1.678 3.952,1.518 5.781,2.156 1.101,2.989 4.37,2.809 6.938,2.375 1.648,-0.239 3.181,1.261 4.281,1.688 2.139,-3.101 5.812,0.19 8.645,0.198 4.399,0.749 7.696,4.025 10.196,7.333 2.62,1.63 -0.74,5.68 2.03,7.03 -1.13,10.8 -9.822,19.27 -10.84,30.06 -1.438,5.8 -4.595,11.9 -1.938,17.85 1.34,5.14 -0.263,11.01 2.813,15.65 0.72,12.71 -0.471,25.45 -0.773,38.16 -0.5,8.24 -1.586,16.59 -5.446,23.94 -1.137,3.41 -3.844,5.84 -7.156,6.97 -2.365,2.01 -5.914,5.75 -3.562,8.97 5.321,0.97 10.887,0.19 16.281,0.46 4.661,-0.35 8.021,-4.34 10.031,-8.28 1.04,-3.5 2.86,-6.56 3.24,-10.28 3.28,-14.71 7.15,-29.2 11.04,-43.75 4.36,1.16 8.69,2.32 13.28,2.38 2.26,0.74 0.35,3.4 -1.34,3.53 -4.55,-0.19 -7.27,4.49 -8.67,8.34 -0.95,3.31 -1.49,6.66 -2.3,9.97 -0.56,6.18 2.03,12.05 3.84,17.78 2.09,3 6.43,4.29 7.07,8.19 -4.83,4.77 -13.51,0.1 -17.65,5.91 -0.94,1.32 -2.55,3.36 -2.39,4.93 4.05,2.23 8.98,0.27 13.32,1.75 2.79,0.1 5.42,-0.95 8.28,-0.39 13.43,0.31 27.03,0.45 40.31,-1.42 2.76,0.1 5.9,1.66 8.31,-0.28 4.85,3.26 11.27,4.84 16.85,3.69 4.29,-0.9 7.68,-4.74 12.06,-5.75 9.92,-4.84 15.53,-14.99 18.91,-25 -1,0.38 -3.57,2.69 -3.16,0.28 0.32,-3.19 1.88,-6.25 1.31,-9.47 0.43,-1.35 2.01,-3.2 1.5,-4.53 -1.57,0.3 -3.15,1.84 -2.62,-1 0.1,-6.62 0.69,-13.43 -1.47,-19.78 -1.1,-5.49 -2.27,-11.5 0.31,-16.69 0.23,-1.7 -2,0.61 -2.75,0.65 -1.49,1.27 -4.34,0.32 -2.47,-1.84 1.48,-4.3 2.62,-9.13 1.25,-13.62 -0.29,-3.48 0.14,-6.92 -1.14,-10.22 -0.32,-4.11 -1.37,-7.99 -1.42,-12.06 -0.79,-2.74 -1.15,-5.5 -1.38,-8.29 -0.1,-1.2 -1.51,-3.15 -1.93,-1.03 0.13,5.81 -6.57,7.72 -9.88,11.06 -6.36,5.17 -8.38,13.58 -11.09,20.97 -0.1,7.11 -0.13,14.4 0.62,21.38 3.16,12.51 9.27,24.44 9.27,37.47 -0.29,3.77 -0.84,8.05 -3.05,11.06 -1.58,0.7 -1.26,-3.63 -1.63,-1.22 -0.17,0.99 -0.18,4.41 -1.84,3.22 -0.82,-1.05 -0.93,-3.99 -2.25,-3.97 -0.54,2.26 1.22,6.36 -2.15,7.09 -6.26,2.15 -13.14,-2.96 -13.77,-9.36 -2.78,-12.11 -5.49,-24.35 -10.83,-35.64 -2.1,-5.41 -6.38,-9.91 -7.68,-15.62 -7.45,-12.91 -14.18,-26.26 -18.69,-40.5 -2.95,-5.9 -7.9,-11.28 -7.31,-18.34 -0.6,-11.104 1.19,-23.134 -4.07,-33.285 -0.64,-3.825 2.55,-7.111 1.86,-11.029 0.23,-3.631 1.14,-7.554 0.86,-11.034 -5.68,-0.761 -8.74,5.495 -13.34,7.563 -3.1,-0.212 -2.88,-4.521 -2.94,-6.813 0.19,-0.944 -0.16,-2.799 -1.44,-2.593 z"/><path id="outline" d="m 114.25,64.202 c 2.62,1.658 6.84,-3.73 3.24,-3.003 -2.61,1.439 1.1,-7.053 -2.65,-5.301 -1.57,1.813 -5.76,8.662 -2.4,8.45 0.6,-0.05 1.21,-0.1 1.81,-0.146 z m 11.04,5.509 c 6.2,-1.449 -2.26,-1.494 0,0 z M 95.765,88.316 c 0.06,-2.095 -13.239,-3.427 -6.668,-0.585 2.22,0.145 4.562,0.312 6.668,0.585 z m 17.445,10.228 c 2.08,-1.423 -5.12,-1.547 0,0 z M 98.005,145.33 c 2.605,-3.11 1.836,-10.63 -0.953,-3.13 0.509,0.44 -0.265,3.98 0.953,3.13 z m 116.655,8.73 c 3.76,-3.59 6.14,-9.51 4.94,-14.84 -2.58,-1.51 -5.23,6.79 -7.01,9.43 -2.27,5.71 2.5,3.35 2.57,-1.54 2.39,-5.92 3.46,-1.73 0.11,2.08 -0.43,0.82 -2.36,5.33 -0.61,4.87 z m -113.82,4.14 c 1.33,-1.55 -0.25,-7.41 -0.965,-2.92 -0.751,0.57 0.465,4.41 0.965,2.92 z m 98.91,3.34 c -0.72,-4.46 0.31,3.44 0,0 z m -96.85,11.67 c 2.8,-3.42 -2.41,-4.54 -3.245,-7.38 3.915,-2.48 -3.67,-7.35 -1.711,-2.19 1.194,3.97 0.897,7.66 4.956,9.57 z m 116.15,1.51 c 1.29,-2.1 3.27,-11.18 1.6,-9.68 -1.15,1.99 -4.03,8.55 -1.6,9.68 z m -98.74,1.95 c 2.17,-3.83 -2.83,-0.53 0,0 z m 3.37,0.92 c 0.81,-0.95 1.86,-6.89 -0.53,-5.55 -2.39,1.98 -0.88,4.57 0.73,5.46 l -0.2,0.1 z m -13.39,0.23 c 0.25,-3.03 -4.29,-0.63 0,0 z m 14.04,3.54 c 3.89,-1.38 -3.64,-2.71 0,0 z m -4.63,0.81 c 2.18,-1.26 -0.38,-5.67 -2.2,-6.69 -0.1,2.47 -0.5,5.67 2.2,6.69 z m -18.58,1.43 c 5.64,0.53 -0.31,-4.38 3.89,-2.26 -1.57,-2.76 2,-5.13 -1.31,-6.98 -5.165,-0.4 2.95,4.33 -1.92,2.12 0.19,2.79 -3.775,-2.87 -1.4,2.89 2.48,1.39 -1.364,5.14 0.74,4.23 z m 1.18,10.34 c 2.21,-1.52 -0.52,-4.16 1.4,-5.6 -0.38,-4.6 -3.53,-4.51 -2.33,0.11 -4.566,-5.52 0.8,5.66 0.93,5.49 z m 22.94,15.62 c 3.54,-4.29 -2.86,0.78 0,0 z m 101.53,2.64 c 3.35,-1.82 -2.31,-0.73 0,0 z m -94.29,17.46 c 0.51,-1.43 0.36,-6.37 -2.03,-6.91 -0.86,2.17 0.55,5.67 2.03,6.91 z m 61.6,0.81 c 4.17,-2.93 -2.14,-0 0,0 z m -1.99,2.8 c 0.45,-1.03 -3.2,-3.82 -5.44,-3.61 -2.42,1.88 4.4,3.26 5.44,3.61 z m -45.72,2.08 c 2.9,-1.36 -2.27,-2.38 -1.87,-4.43 -4.18,-1.77 0.33,4.46 1.87,4.43 z m -56.205,1.62 c 5.223,-3.94 8.743,-10 9.449,-16.51 1.506,-8.28 1.206,-16.8 2.526,-25.1 -3.53,-5.35 -2.282,2.09 -2.465,4.73 0.121,5.5 -0.856,10.92 -1.622,16.35 -1.603,6.18 -3.225,12.61 -6.108,18.23 -0.388,0.61 -2.816,1.65 -1.78,2.3 z M 178,237.85 c -0.14,-1.2 -1.68,-7.77 -1.28,-2.8 0.24,0.1 0.51,4.31 1.28,2.8 z m 2.44,0.75 c 1.63,-3.44 -5.37,-5.1 0,0 z m 3.27,4.85 c 2.04,-2.53 -5.67,-3.18 -0.76,-0 -0.24,0.5 0.79,-0.27 0.76,0 z m -100.585,0 c 4.037,-3.75 -2.72,-0.58 0,0 z m 3.93,0.52 c 2.726,-0.83 6.13,-6.02 0.85,-4.47 -0.997,1.35 -4.434,3.68 -0.85,4.47 z m 36.575,0.81 c 5.66,-2.39 -4.47,-2.85 0,0 l 0,0 z m -6.59,0 c 5.29,-2.35 -2.86,-2.71 0,0 z m -1.35,-55.2 c -1.42,-0.38 -4.65,-7.7 -1.6,-5.02 -0,0.75 3.55,5.1 1.6,5.02 z m -2.83,11.74 c -2.89,0.19 -0.75,-7.35 -0,-8.9 0.22,-0.4 -1.34,-7.07 1.4,-2.43 2.27,3.42 -0.1,5.62 -0.77,8.69 -0.19,0.87 0.5,2.24 -0.59,2.64 z m -18.225,43.4 c 3.629,0.27 7.785,-2.7 7.845,-6.44 2.17,-2.5 5.34,-4.46 5.26,-8.17 1.52,-8.97 -1.4,0.24 -4.34,2.39 -5.059,1.74 1.61,-2.4 -0.37,-3.65 3.68,-1.73 0.22,-3.96 3.81,-5.38 2.24,-2.84 4.57,-4.81 4.61,-9.44 1.38,-6.22 3.73,-12.1 4.75,-18.41 0.56,-4.21 3.88,-8.75 2.53,-12.9 -2.05,-2.9 -1.22,7.41 -4.03,0.77 -0.92,-3.94 -4.22,-4.88 -6.74,-3.55 -1.64,-6.4 -1.5,8.33 -2.4,10.52 -1.59,12.23 -2.32,24.72 -5.46,36.65 -2.525,4.37 -4.238,9.9 -8.875,12.41 1.538,-0.16 7.874,-1.06 4.43,1.09 -4.893,-0.25 -6.421,3.4 -1.02,4.11 z M 110.18,81.023 c -3.38,-0.532 -7.61,-0.231 -11.365,-1.039 0.337,-1.902 2.025,-8.047 4.665,-4.323 4.63,1.221 9.11,-2.118 13.81,-1.841 1.16,2.484 -4.9,1.486 -4.15,4.763 -0,1.283 -1.88,2.672 -2.96,2.44 z m -27.645,1.016 c -5.509,-2.729 1.512,-1.211 0,0 z m 28.345,1.987 c -7.54,-0.512 1.09,-3.765 2.82,-1.967 0.82,2.007 -2.45,1.351 -2.82,1.967 z m 16.16,5.712 c -2.18,-0.542 1.23,-3.845 1.76,-4.267 -1.07,1.812 3.42,3.772 -1.76,4.267 z m -23.48,0 c -3.638,-0.346 -4.917,-2.87 -0.28,-1.897 1.84,-0.112 3.17,2.3 0.28,1.897 z m 18.38,0.813 c -2.8,-1.63 3.05,-1.417 0,0 z m -6.32,0 c -5.01,1.631 -5.1,-5.256 0,0 z m -4.95,0.406 c -6.47,-1.311 -1.13,-3.868 0.48,-0.316 l -0.48,0.316 0,0 z m 12.17,9.803 c -2.53,-1.084 1.84,-1.888 0,0 z m -7.97,6.07 c -3.86,-3.85 1.54,-5.2 0.54,0 l -0.52,0 -0,0 0,0 z m -0.56,2.44 c -2.68,-0.68 2.02,-2.4 0,0 z m -1.29,4.87 c -2.64,-4.75 3.1,-2.69 0,0 z m 2.64,7.3 c -2.06,-1.05 2.12,-5.2 3.59,-5.15 2.43,1.14 -2.5,4.72 -3.59,5.15 z m 17.93,4.02 c -4.78,0.68 -6.37,-3.04 -10.69,-2.35 -1.1,-0.8 4.38,-2.06 5.56,-0.13 1.6,-0.1 9.84,2.07 5.13,2.48 z m 3.64,3.29 c -6.67,-0.47 0.91,-4.29 0.88,-0.29 0.13,0.46 -1.29,-0.33 -0.88,0.29 z m -19.42,1.13 c -3.62,-0.99 3.37,-2.15 0,0 z m -6.82,0 c -6.19,-0.27 4.77,-2.6 1,0 l -0.52,0 -0.48,0 z m 3.77,1.22 c -3.36,-2.97 4.71,-1.01 0,0 z m -4.99,7.7 c -1.99,-2.38 5.63,-2.33 0.29,-0 l -0.29,0 0,0 z m 35.58,6.91 c -3.65,-3.47 2.36,-3.65 0.25,0.2 l -0,0 -0.21,-0.2 z m 1.63,4.38 c -2.41,-0.3 1.61,-7.03 0.93,-1.35 -0,1.06 0.39,1.45 -0.93,1.35 z m 1.9,3.5 c -2.96,-0.12 1.48,-6.19 0.92,-1.25 -0.21,0.52 -0.23,1.42 -0.92,1.25 z m 1.53,4.22 c -2.88,-1.1 3.45,-5.81 0.9,-0 -0.12,-0.23 -1.09,0.65 -0.9,0 z m 1.63,3.23 c -3.29,-2.02 4.26,-4.28 0,0.2 l 0,-0.2 z m 1.62,2.85 c -3.26,0.19 2.46,-5.59 1.27,-1.2 -0,0.68 -0.78,1.84 -1.27,1.2 z m 1.13,2.93 c -2.78,-2.31 4.17,-3.74 -0,0 l 0,0 z m 2.12,3.25 c -3.34,-3.33 3.83,-3.8 0,0 z m 57.35,1.2 c -1.15,-3.57 -3.64,-7 1.82,-10.86 4.21,-6.58 -4.31,7.29 2.33,1.94 2.46,1.24 -3.26,1.94 -2.99,4.71 -1.36,0.97 -0.1,4.23 -1.16,4.21 z m -55.81,2.44 c -3.15,-0.58 2.89,-5.08 1.31,-1.02 -0.35,0.71 -0.34,1.3 -1.31,1.02 z m 2.55,2.77 c -2.9,-1.34 2.83,-4.26 0.1,0 l -0,0 -0,-0 z m 61.87,13.46 c -1.71,-2.86 -0,-9.49 0.18,-2.76 0,0.88 0.1,2.58 -0.18,2.76 z m -12.49,4.88 c -3.54,-3.12 1.13,-3.15 0,0 z m 6.32,2.35 c -3.1,-1.18 4.48,-5.53 0.2,-7.21 0.8,-4.17 4.12,-7.04 2.4,-1.35 1.82,2.8 -0.84,6.81 -2.6,8.76 l 0,-0.2 z m 2.73,12.75 c -3.73,1.37 2.07,-5.91 2.6,-7.92 1.34,2.54 -1.58,6.12 -2.6,7.92 z m -3.9,17.41 c -2.88,0.63 6.09,-7.26 1.58,-1.33 l -1.58,1.33 z m -63.09,17.77 c 1.43,-3.24 7.14,1.27 8.09,-2.44 3.62,0.1 7.44,2.92 10.56,0.41 4.97,1 3.59,-1.8 0.7,-4.09 1.8,-4.94 2.92,4.15 6.12,3.14 0.61,-2.47 -5.16,-3.57 -4.07,-6.86 -0.47,-4.46 0.56,-9.08 -1.1,-13.35 0.53,-2.09 0.19,-6.39 2.42,-2.1 1.55,3.56 1.41,7.19 1.25,10.55 1.03,0.63 1.53,-6.12 2.41,-0.52 1.03,4.29 3.3,9.11 7.23,11.29 5.06,2.49 0.4,-1.8 -1.5,-3.19 -3.17,-5.43 0.93,-1.79 2.96,0.97 3.93,4.05 3.09,-2.72 8.72,1.81 2.53,0.26 -0.45,-4.29 4.4,-1.6 2.76,-0.74 10.86,-2.1 4.44,0.56 -0.99,2.55 -4.72,0.62 -6.65,3.06 1.18,1.72 9.49,1.86 7.62,-1.7 2.81,-0.56 5.81,-1.4 8.5,-1.07 6.78,-4.24 -1.14,-1.43 -4.63,-1.85 3.64,-0.75 6.83,-3.11 10.05,-4.43 6.4,-8.33 -6.48,2.71 -10.05,2.41 -1.77,-1.24 4.66,-1.7 5.75,-3.42 1.54,-0.71 -4.07,-2.71 1.83,-4.22 1.6,3.02 5.8,-2.31 6.97,-4.5 1.05,-2.61 2.75,-6.08 2.15,-8.48 -1.61,5.75 -6.84,0.5 -7.13,7.34 0.79,-4.63 -1.79,0.1 -4.74,1.58 -2.1,-2.52 5.75,-4.13 6.17,-7.52 1.95,-0.68 6.22,-3.07 3.91,-5.93 -3.27,1.19 -3.46,5.62 -6.44,7.49 -4.62,0.73 3.53,-3.93 -0.14,-4.07 2.69,-6.14 7.24,-3.58 8.53,-10.61 -0.36,-2.68 -1.96,-5.01 -0.83,-7.81 0.98,-4.68 -2.28,-0.68 -2.13,1.61 -0.16,3.32 -3.48,5.26 -2.16,1.3 3.06,-2.46 1.57,-6.82 3.5,-9.51 0.38,-3.35 -2.54,-6.06 -1.44,-9.53 -0.27,-2.63 0.91,-6.13 -0.53,-8.23 -2.72,2.93 0.6,8.07 -1.04,10.49 -0.77,-7.12 -3.64,0.59 -4.56,1.56 -0.78,-1.69 1.73,-7.75 -0.97,-7.02 -2.2,1.29 -1.11,-5.34 0,-6.91 2.65,-1.88 1.88,-5.79 4.5,-7.7 -0.91,-1.47 -3.26,-1.47 -0.13,-5.6 -0.1,-2.73 1.58,-6.78 -0.23,-8.79 -2.17,2.57 0.1,6.15 -3.73,8.39 -1.14,5.33 -6.75,5.54 -1.81,1.5 4.98,-4.21 -2.42,-2.81 -2.39,0.55 -2.38,4.54 -0.11,-3.45 -1.74,-4.47 -3.07,-3.59 2.09,-7.92 3.68,-11.01 4.46,-5.53 -0.98,-2.82 -3.17,0.88 -3.59,1.71 1.35,-4.03 2.82,-5.01 1.78,-2.24 2.72,-5.08 2.57,-8.11 -2.92,0.31 -3.9,6.21 -5.78,8.93 -0.78,-2.89 2.69,-5.77 3.36,-8.76 -2.85,-0.32 -6.3,3.67 -7.84,6.42 -1.64,2.76 -1.55,6.42 -0.51,9.41 -2.88,1.79 -3.13,-7.2 -4.38,0.21 -2.19,4.55 -0.64,9.22 0.31,13.84 -1.92,2.8 1.94,11.31 -1.45,4.36 -2.25,-2.56 0.65,3.45 -0.89,4.61 0.56,5.02 2.08,10.22 4.52,14.68 2.2,2.7 6.89,10.62 1.07,4.61 0.95,4.01 3.34,7.79 1.18,10.21 4.19,6.26 1.79,13.76 0.51,20.52 -2.13,2.99 -3.37,6.45 -6.56,8.54 -0,2.6 -3.38,3.63 -5.6,2.83 -4.89,-0.56 0.66,2.37 2.76,0.89 2.78,0.41 -4.48,2.8 -5.78,2.99 -3.11,-0.35 -7.26,-5.27 -6.35,-1.11 -4.57,-3.78 -2.37,-2.94 -1.28,-5.15 -2.87,-2.23 -5.42,-4.71 -5.98,-8.47 -3.22,-9.06 -3.71,-18.86 -7.38,-27.82 -6.89,-20.41 -19.54,-38.21 -26.95,-58.4 -1.3,-4.41 -2.68,-9 -6.66,-11.7 -1.17,-4.07 -4.1,-8.67 -3.73,-12.46 0.1,-2.27 -1.18,-5.36 -0.61,-8.33 0.28,-1.77 -2.22,-7.474 -0.1,-6.374 2.01,2.592 0.17,-3.6 0.7,-5.265 -0.13,-3.53 0.96,-7.79 -2.71,-10.018 -4.13,2.521 -4.53,-1.972 -4.17,-2.129 -3.81,0.603 1.08,-3.75 2.24,-4.886 -1.11,-3.123 6.4,-4.796 3.27,-6.107 -0.77,0.416 -0.72,-2.753 -3.93,-2.465 -1.12,0.941 -2.28,4.403 1.35,3.552 0.99,0.277 -7.87,5.632 -2.77,5.186 -2.81,2.95 -5.7,1.566 -6.55,-1.37 0.19,-2.791 4.35,-8.288 7.39,-10.78 6.09,-4.097 -0.14,5.8 3.81,2.045 1.46,-1.507 3.06,-6.81 0.68,-6.932 -4.96,3.222 -9.94,6.78 -13.64,11.338 -4.87,3.074 -3.44,1.09 -3.65,-1.112 -7.95,2.23 -15.192,6.713 -22.833,9.819 -4.757,-1.082 -10.106,2.166 -15.027,3.177 -4.051,-0.412 -1.62,6.195 0.905,4.073 -0.666,-4.123 0.115,1.121 2.167,1.264 -1.239,-3.875 2.402,3.431 4.328,0.768 1.591,-1.075 5.792,-0.563 5.39,-1.829 -6.682,-3.477 -0.977,-1.705 3.012,0.226 4.802,-1.347 5.123,2.969 7.158,5.419 2.96,3.771 7.58,4.484 11.56,6.773 1.9,-1.596 -4.32,-5.141 1.72,-1.888 3.71,2.718 4.02,-3.608 7.53,-0.654 4,1.687 5.98,-0.154 2.17,-1.477 0.43,-1.504 7.37,-1.127 3.59,0.692 1.34,3.056 -3.64,3.026 -5.92,3.011 -7.93,0.523 5.36,0.713 2.64,2.913 -4,-1.175 -7.5,-0.162 -3.65,1.492 -3.26,-1.062 -3.06,1.548 -6.65,0.588 -3.93,-3.056 -4.89,1.19 -0.39,1.53 -0,3.39 -2.59,7.22 -2.27,11.05 -1.22,2.36 -3.77,4.08 -2.1,6.26 -3.34,0.84 -8.557,8.21 -2.55,4.34 -2.65,2.82 -8.2,13.87 -2.2,4.9 2.3,-5.36 3.5,0 6.52,-1.78 2.26,0.37 3.96,-5.97 5.18,-2.41 -1.4,2.95 -3.58,3.89 -8.59,4.44 0.28,3.7 -5.9,3.37 -5.49,7.4 -2.52,6.9 4.61,-1.61 7.93,-1.14 3.59,2.01 -5.46,1.49 -6.18,4.85 -0.52,1.45 6.13,-1.33 0.88,2.15 -2.94,2.12 -5.151,5.55 -4.445,9.28 1.995,-0.77 6.915,-0.4 6.545,-2.85 -4.5,2.77 -1.79,-5.74 0.92,-6.27 4.19,-2.69 5.14,-0.51 2.99,1.21 2.33,2.08 -4.2,2.62 -3.3,4.63 3.55,-3.12 5.24,0.88 1.44,2.49 -2.42,1.93 -3.52,5.35 -4.1,8.25 -0.1,2.75 2.06,3.99 1.2,7.27 0.3,4.56 0.86,4.41 2.68,1.97 0.3,2.35 6.58,6.82 0.16,5.24 0.38,3.61 1.77,-1.51 3.24,3.02 2,3.86 4.53,1.62 1.56,-1.29 -0.92,-4.9 2.03,0.1 3.69,1.57 0,-2.7 1.25,-3.54 -0.72,-5.6 0.95,-4.48 3.49,1.43 4.24,0.32 0.32,-3.05 -3.07,-5.48 -1.6,-8.58 3.64,-1 2.32,2.93 5.04,1.01 -1.41,1.97 2.85,11.14 3.81,6.87 -0,-4.82 2.36,-0.41 1.85,2.12 1.48,2.76 4.01,-2.78 3.99,2.49 4.3,4.6 -4.18,0.93 -5.71,-1.15 -2.24,0.82 -0.73,5.44 -0.1,7.55 1.35,0.93 1.31,-7.06 2.47,-0.68 1.59,4.98 3.64,-3.9 4.28,3.51 3.5,2.75 1.63,-5.6 4.51,1.09 1.04,1.84 7.27,3.73 5.06,0.67 -2.21,-1.64 -3.6,-5.42 -6.98,-7.61 -1.69,-1.83 4.3,-2.8 3.8,-0.51 1.4,0.95 3.3,8.97 5.29,4.92 0.62,1.73 3.18,3.76 2.84,6.25 0.51,-4.56 2.29,-1.59 3.49,0.72 1.32,3.79 5.32,1.09 6.23,4.17 0.5,4.62 4.07,4.54 5.66,8.02 1.88,0.2 3.93,2.41 3.86,5.23 -0.45,6.12 -2.4,-4.71 -3.4,-1.67 0.99,3.46 -2.25,4.87 -2.54,0.96 -1.44,-3.48 -4.92,-7.29 -7.46,-9.92 -2.53,0.23 -3.66,-2.73 -6.59,-1.62 -4.47,-0.91 -9.43,-4.08 -13.57,-0.92 -3.66,3.32 -3.68,9.01 -4.65,13.53 1.25,2.51 3.45,0.91 1.76,6.15 -0.42,5.59 -1.47,-2.78 -3.42,-0.25 -1.48,3.07 -0.99,6.8 -0.1,9.94 1.84,5.38 2.41,-0.4 2.43,-3.08 0.39,-2.5 3.84,-8.57 2.99,-2.87 -1.25,2.85 0.2,6.2 3.02,5.52 1.78,3.23 -3.99,1.66 -0.94,6.15 0.8,5.56 6.43,7.27 2.54,0.75 -1.74,-4.22 1.74,-2.36 1.11,0.96 0.7,3.15 7.01,7.35 3.55,1.12 -1.32,-1.73 -5.29,-7.52 -1.7,-7.45 0.93,1.67 1.45,6.74 4.48,4.47 2.47,1.02 3.39,3.89 4.12,0.84 2.8,0.32 4.92,6.45 0,2.84 -0.15,3.46 3.65,4.03 5.7,1.74 0.94,2.29 6.37,2.46 3.6,-1.1 -3.82,-0.66 -1.65,-2.19 0.14,-3.44 2.12,0.36 2.13,6.13 4.66,5.04 0.98,-2.25 5.42,1.39 4.65,2.49 -2.65,1.1 -6.76,-0.43 -9.71,1.29 -4.17,0.89 -8.63,1.87 -12.86,1.43 -5.71,0 -13.03,-3.44 -17.72,1.01 -2.31,4.44 3.72,0 5.11,-0.73 -3.72,2.41 0.17,6.59 3.74,4.49 4.86,-1.77 11.53,1.51 17.03,0.72 -0.42,-0.15 -0.85,-0.3 -1.27,-0.45 z m -62.885,0 c 2.92,-2.85 -2.504,-0.25 0,0 z m 108.605,1.85 c 7.68,-0.44 -2.93,-3.56 -5.41,-4.22 -3.59,-0.1 -9.05,1.69 -1.83,2.93 2.38,0.69 4.76,1.9 7.24,1.29 z m 0.23,3.05 c -5.32,-0.33 -10.63,-1.05 -15.06,-4.2 -3.31,2.41 -7.47,-0.95 -11.17,0.59 -13.91,1.65 -28.01,1.25 -41.94,0.93 -3.12,1.37 -5.68,-0.19 -8.75,-0.19 -3.17,-0 -6.48,0.53 -9.17,-1.53 0.91,-2.96 3.15,-6.71 6.27,-8.06 4.52,-1.48 9.98,0.35 14,-3.01 -0.56,-3.48 -5.5,-5 -7.24,-8.31 -1.87,-7.04 -5.61,-14.39 -2.53,-21.6 0.57,-5.69 2.85,-12.11 8.3,-14.64 3.2,0.77 6.4,-3.01 1.54,-2.75 -3.84,0.1 -7.36,-1.3 -11.02,-2.12 -4.35,16.15 -8.58,32.43 -12.12,48.81 -1.99,2.34 -1.33,5.41 -3.79,7.47 -2.29,4.29 -6.994,6.65 -11.806,5.92 -4.401,-0.24 -9.038,0.48 -13.289,-0.36 -3.478,-2.86 1.041,-8.49 3.914,-10.34 3.437,-0.92 5.574,-3.75 6.622,-6.94 1.43,-3.48 2.735,-5.32 3.366,-9.39 2.639,-11.52 1.86,-23.5 2.702,-35.22 0,-5.52 0.465,-11.23 -0.08,-16.67 -3.343,-4.93 -1.198,-11.17 -3.12,-16.59 -2.527,-6.61 2.021,-12.97 2.671,-19.54 1.81,-9.66 9.221,-17.38 10.391,-27.21 -2.87,-1.54 0.97,-5.583 -2.37,-7.268 -2.46,-4.197 -6.83,-6.915 -11.711,-7.193 -6.109,-3.095 -5.216,0.738 -6.734,0.165 -4.379,-4.291 -7.782,1.615 -11.195,-4.339 -2.851,-0.214 -6.601,-1.156 -6.753,-4.68 0.96,-3.527 7.799,-4.087 8.621,-9.16 4.031,-2.392 -4.145,6.153 0.699,3.585 2.481,-1.161 4.427,-5.1 6.663,-5.383 -0.162,1.458 -6.291,6.525 -0.593,2.064 2.984,-4.467 7.762,-3.004 1.579,-0.153 -2.829,3.631 10.007,-1.746 12.055,-2.049 5.089,-1.912 10.329,-5.318 12.339,-10.569 0.59,-3.35 8.81,-14.207 10.18,-7.457 -0.27,2.212 0,8.451 2.88,7.089 3.85,-2.688 8.5,-8.795 13.39,-7.271 0.23,4.367 -1.08,9.888 -1.08,14.769 -0.47,3.069 -3.35,6.307 -0.78,9.307 4.32,10.724 2.42,22.509 3.28,33.783 0,6.9 6.16,11.94 8.03,18.37 4.22,13.62 11.05,26.24 18.08,38.61 1.06,5.98 6.16,10.41 7.76,16.29 5.63,11.36 7.84,23.85 10.88,36.03 1.23,6.02 8.28,9.83 13.79,7.15 2.07,-2.01 -0.94,-6.97 1.85,-6.88 2.08,2.48 2.1,8.3 3.1,0.74 1.83,-5.27 0.46,2.54 2.08,1.32 2.83,-6.17 3.28,-13.18 1.42,-19.74 -1.67,-10.33 -6.48,-19.85 -8.56,-30 0,-6.72 -0.62,-13.57 -0.21,-20.21 3.09,-7.45 4.89,-16.2 11.88,-21.18 3.13,-3.27 9.23,-4.82 9.04,-10.21 1.4,-4.28 3.72,1.38 3.11,3.67 0.44,3.04 1.76,5.92 1.26,8.9 1.31,3.87 0.65,8.38 2.38,12.18 0,3.29 -0.31,6.65 0.82,9.73 0,4.3 -0.91,8.42 -2.53,12.39 1.75,1.57 6.92,-4.75 5.65,0.43 -2.81,5.09 -0.74,11.32 0,16.74 2.42,6.4 0.99,13.34 1.37,20.04 4.83,-2.59 2.06,2.29 1.01,4.52 0.81,3.36 -1.41,7.18 -1.24,9.82 1.09,-0.16 4.46,-3.61 2.67,0.93 -3.77,9.71 -9.6,19.87 -19.63,24.09 -4,0.78 -6.71,4.61 -10.92,5.14 -0.18,0.64 -4.06,0.37 -2.25,0.84 z"/></g>
</svg>
