<svg xmlns="http://www.w3.org/2000/svg" version="1.1" width="300" height="350">
 <path id="fill" d="m225.17 250.07c-.026-.303-.075-.946-.11-1.431-.082-1.135-1.747-1.396-3.13-.49-.901.59-1.103.596-1.563.041-.424-.51-.246-1.186.89-3.395 2.301-4.473 3.038-5.513 4.093-5.778.549-.138 1.446-.855 1.992-1.594 1.287-1.741 1.737-8.14.977-13.873-.289-2.179-.698-5.522-.909-7.428-.211-1.907-.68-4.383-1.041-5.502-.361-1.119-1.194-3.818-1.85-5.997-.656-2.179-1.519-4.358-1.918-4.842-.399-.484-1.191-1.871-1.76-3.081-.57-1.21-2.344-3.617-3.942-5.348-1.598-1.731-4.565-5.148-6.591-7.593-2.027-2.445-3.934-4.446-4.238-4.446-.739 0-1.482.943-1.576 2-.322 3.64-.026 8.132.651 9.884 1.632 4.223 1.682 5.058.454 7.581-1.526 3.137-4.294 8.167-4.701 8.545-.182.169-.334.62-.338 1-.008.669-1.661 3.452-3.423 5.759-.462.605-1.092 1.893-1.4 2.861-.308.968-.994 2.355-1.525 3.081-1.725 2.36-6.713 12.783-7.286 15.227-.307 1.309-.772 2.649-1.034 2.977-.261.328-.681 1.01-.933 1.51-.559 1.116-2.547 1.698-4.651 1.361-1.45-.232-1.665-.115-2.797 1.519-.675.973-1.953 2.09-2.84 2.481-.888.391-2.109.985-2.714 1.32-1.653.914-6.439 2.149-6.995 1.805-.268-.166-.488-.791-.488-1.39 0-1.421-.918-1.732-2.579-.872-1.653.855-3.143.894-3.143.084 0-1.713 8.602-8.312 11.557-8.865 1.747-.327 3.847-2.321 3.851-3.656.0001-.405 1.091-2.388 2.421-4.407 1.33-2.02 2.419-3.783 2.419-3.92 0-.137.464-.862 1.031-1.611.898-1.187 1.53-2.235 4-6.644.271-.484 1-1.673 1.623-2.641 1.343-2.093 3.47-7.286 3.47-8.471 0-.461.519-2.309 1.154-4.107.951-2.694 1.154-4.047 1.156-7.695.0001-3.114-.198-4.813-.671-5.728-.37-.716-.816-2.289-.991-3.496-.175-1.207-.473-2.393-.662-2.635-.189-.242-.484-1.431-.656-2.641-.184-1.293-.716-2.655-1.29-3.301-.537-.605-1.899-2.7-3.03-4.655-1.461-2.534-2.651-3.987-4.144-5.062-2.033-1.464-2.215-1.508-6.276-1.508-4.049 0-6.083.434-13.387 2.854-.705.234-3.775.64-6.823.902-3.392.292-6.991.912-9.282 1.599-2.058.617-4.35 1.298-5.093 1.514-.743.216-2.65.393-4.238.393-1.783 0-3.062.212-3.346.554-.69.832-2.922 7.225-3.571 10.23-.314 1.453-.734 3.037-.933 3.521-.199.484-.602 1.97-.894 3.301-.613 2.795-2.992 9.705-3.553 10.322-.209.23-.38.782-.38 1.226 0 .444-.277 1.246-.615 1.783-.613.972-2.906 8.563-2.906 9.62 0 .306-.579 2.448-1.287 4.759-.708 2.311-1.489 5.589-1.736 7.283-.247 1.695-.697 4.765-.999 6.823-.667 4.536-1.487 5.795-4.595 7.06-1.535.623-2.674 1.454-3.347 2.443-.561.824-1.16 1.5-1.33 1.502-.17.002-.65.721-1.066 1.598-.475 1-1.285 1.816-2.174 2.187-.78.326-2.611 1.292-4.07 2.147-2.82 1.653-4.909 1.974-5.805.894-.301-.363-1.152-.66-1.89-.66-.738 0-1.677-.303-2.087-.674-.64-.579-1.186-.601-3.864-.159-2.718.449-3.32.42-4.682-.227-.896-.425-1.563-1.064-1.563-1.498 0-1.45 5.569-7.317 9.131-9.619 2.66-1.719 3.26-2.534 4.321-5.87.424-1.332 1.418-3.917 2.211-5.746.83-1.915 1.571-4.528 1.748-6.162.169-1.561.553-3.134.852-3.498.3-.363.69-1.453.866-2.421.177-.968.483-2.652.681-3.741.198-1.089.559-2.773.802-3.741.243-.968.779-3.444 1.19-5.502.411-2.058 1.44-6.515 2.286-9.904 1.856-7.435 3.229-18.801 2.409-19.946-.292-.408-.734-1.237-.982-1.843-.248-.605-1.962-2.536-3.809-4.292-3.419-3.249-4.779-3.836-5.862-2.531-.666.803-1.619.859-1.878.11-.105-.303-.098-1.739.015-3.192.287-3.687-.662-5.941-2.501-5.941-1.395 0-2.239-.964-2.239-2.558 0-.47-.317-1.119-.705-1.44-.789-.655-3.152-4.255-4.257-6.486-.398-.804-.856-2.633-1.018-4.064-.162-1.432-.519-2.789-.794-3.02-.275-.228-1.288-.479-2.251-.558-2.206-.18-2.484-1.157-.915-3.216 1.266-1.659 1.485-3.793.476-4.63-.363-.301-.66-.756-.66-1.01 0-.254-.335-.831-.743-1.283-.655-.724-.685-1.199-.257-3.996.267-1.746.514-4.264.548-5.596.034-1.332.267-3.213.518-4.182.251-.968.502-2.205.559-2.748.057-.543.236-1.121.4-1.284.476-.476.342-2.129-.217-2.689-.867-.867.229-3.453 3.692-8.708 3.354-5.09 3.833-5.936 4.946-8.725.71-1.779.881-4.083.396-5.345-.156-.407-1.097-1.121-2.091-1.588-2.517-1.182-4.162-2.197-5.476-3.378-2.066-1.856-6.559-3.5-10.239-3.745-4.063-.271-5.183-.933-6.859-4.049-2.229-4.145-1.806-7.238 1.184-8.645 1.312-.617 2.054-.656 5.059-.264 4.95.646 16.01-.285 20.326-1.71 1.737-.574 3.722-1.044 4.41-1.044.688 0 2.04-.537 3-1.193 4.295-2.922 6.999-3.894 12.662-4.551 4.849-.562 9.08.3 9.112 1.858.004.163-.488.885-1.094 1.604-2.187 2.6-1.072 3.498 5.502 4.433 2.058.293 4.38.629 5.159.748 2.411.368 3.01 1.879 1.774 4.464-1.305 2.726-11.545 8.528-15.737 8.918-2.388.222-2.419.243-2.274 1.545.238 2.136.21 10.445-.041 11.936-.677 4.02-.739 4.131-2.353 4.131-1.244 0-1.598.214-1.97 1.193-.606 1.594-.165 3.136 1.058 3.693.931.424.976.623.662 2.956-.185 1.376-.681 6-1.103 10.276-.733 7.434-.733 7.883.016 10.259 1.362 4.319 4.149 5.128 10.625 3.082 1.938-.612 4.117-1.298 4.843-1.525.726-.226 2.905-.7 4.842-1.052 1.937-.352 4.215-.857 5.062-1.121 3.471-1.083 15.02-2.249 24.21-2.442 5.205-.11 11.543-.273 14.09-.364 23.47-.835 28.388-.858 30.782-.142 1.315.393 3.123.715 4.02.715.895 0 1.851.27 2.124.599.274.33 1.458.713 2.631.852 1.174.139 2.806.623 3.628 1.076.822.453 2.188 1.096 3.035 1.428.847.333 2.91 1.262 4.585 2.066 1.674.804 3.426 1.461 3.894 1.461.467 0 1.375.279 2.02.62 1.606.853 5.637 2.461 6.168 2.461.239 0 .995-.465 1.679-1.033 2.99-2.484 5.457-1.465 6.05 2.498.342 2.28.192 3.087-1.118 6.03-1.475 3.315-5.05 5.084-9.211 4.555-2.995-.381-3.401.515-4.808 10.619-.506 3.631-1.226 7.791-1.601 9.244-1.665 6.448-1.664 6.435-.98 12.66.621 5.653.773 6.218 2.72 10.09 2.282 4.538 2.782 5.444 5.294 9.603 1.778 2.944 3.341 8.77 3.351 12.488.006 2.111 1.042 9.228 2.443 16.783.584 3.147 1.292 6.991 1.574 8.541.282 1.55.78 3.333 1.108 3.962 1.404 2.69.012 6.205-2.458 6.205-1.558 0-1.976.538-2.649 3.412-.565 2.412-2.462 4.951-3.698 4.951-.771 0-3.458 1.429-5.067 2.695-1.224.963-1.794 1.048-1.86.277" fill="#d10000"/>
 <path id="outline" d="m224.53 249.28c-.146-.381-.145-1.174.003-1.763.25-.994.189-1.04-.849-.645-.614.234-1.537.681-2.051.995-.808.494-1.018.456-1.565-.281-.868-1.171-.832-1.319 1.254-5.276 1.274-2.416 2.35-3.839 3.483-4.607 2.975-2.02 3.173-2.596 3.155-9.227-.017-6.313-.805-12.148-2.635-19.523-1.366-5.504-2.491-8.775-3.358-9.763-.37-.422-.824-1.26-1.01-1.864-.54-1.767-2.12-4-4.616-6.528-1.282-1.298-2.816-3.075-3.408-3.948-1.134-1.672-5.706-7.08-6.42-7.592-.689-.495-.943-.077-1.52 2.501-.637 2.847-.324 6.152.837 8.826 1.364 3.144 1.473 4.996.435 7.418-.513 1.196-1.193 2.471-1.511 2.833-.318.362-1.898 3.225-3.509 6.361-1.612 3.137-3.311 6.111-3.777 6.609-.466.498-.847 1.214-.847 1.591 0 .377-.296.932-.658 1.232-.362.3-.658.837-.658 1.192 0 .355-.368 1.17-.817 1.811-2.034 2.899-6.581 12.359-7.097 14.765-.31 1.448-.829 2.944-1.151 3.325-.323.381-.587.901-.587 1.156 0 .963-3.082 1.978-5.092 1.677-1.541-.231-1.927-.159-1.927.362 0 .687-3.359 3.79-4.103 3.79-.239 0-.787.319-1.218.709-.817.74-6.03 2.327-7.716 2.349-1.383.018-2.02-1.353-1.176-2.552.823-1.175.402-1.191-1.801-.068-.947.483-2.272.877-2.944.877-.998 0-1.223-.193-1.223-1.051 0-.578.444-1.45.987-1.938 5.993-5.388 8.551-7.06 11.874-7.752.91-.19 1.405-.687 1.881-1.888.943-2.381 1.334-3.102 3.26-6.02.957-1.448 1.915-3.03 2.128-3.51.214-.483.806-1.254 1.317-1.713.51-.46.928-1.034.928-1.276 0-.242 1.356-2.827 3.01-5.745 3.8-6.689 4.335-7.858 4.852-10.609.231-1.228.715-3 1.076-3.948 1.415-3.7 1.66-6.378.943-10.305-.371-2.032-.986-4.88-1.366-6.327-.38-1.448-.96-3.692-1.288-4.988-.328-1.296-.976-2.776-1.441-3.29-.465-.514-1.447-2.05-2.182-3.413-2.658-4.927-3.139-5.495-5.895-6.964-2.027-1.08-6.145-1.148-9.56-.157-1.327.385-3.795 1.1-5.484 1.588-4.082 1.18-9.435 2.035-12.942 2.067-1.568.015-3.361.293-3.984.618-1.938 1.011-8.384 2.489-11.371 2.607-2.848.112-2.853.115-3.66 1.825-.445.942-1.692 4.885-2.771 8.762-2.164 7.774-4.299 14.672-5.169 16.701-1.518 3.539-2.076 5.148-3.123 8.994-.624 2.292-1.707 6.174-2.408 8.625-.7 2.451-1.679 7.091-2.175 10.31-.496 3.219-1.017 6.248-1.158 6.73-.543 1.857-2.37 3.701-4.138 4.177-1.87.504-2.586 1.113-4.352 3.706-2.152 3.158-3.113 4.121-4.394 4.403-.715.157-1.399.446-1.52.642-.121.196-1.206.872-2.41 1.502-2.441 1.277-4.887 1.485-5.715.487-.3-.362-1.1-.658-1.777-.658-.677 0-1.552-.321-1.944-.713-.647-.647-.959-.653-3.379-.062-2.398.586-2.881.58-4.802-.055-3.619-1.196-3.337-2.396 1.761-7.474 1.597-1.591 4.086-3.787 5.531-4.88 2.544-1.925 2.679-2.131 4.255-6.502.895-2.483 2.026-5.337 2.512-6.343.486-1.01 1.016-3.01 1.177-4.462.161-1.448.54-2.928.841-3.29.301-.362.772-2.04 1.046-3.729.274-1.689.777-4.256 1.118-5.703.341-1.448.951-4.31 1.357-6.361.405-2.051 1.424-6.493 2.263-9.871 1.455-5.857 1.884-8.424 2.566-15.355.273-2.772.194-3.274-.814-5.161-1.196-2.24-3.309-4.71-4.03-4.71-.242 0-.991-.691-1.665-1.536-1.307-1.638-2.494-1.946-3.381-.877-.3.362-.893.658-1.316.658-1.393 0-1.825-1.076-1.527-3.805.362-3.308-.584-5.847-2.177-5.847-1.209 0-2.438-1.046-2.438-2.076 0-.383-.966-2.12-2.146-3.86-2.678-3.948-3.325-5.395-4.01-8.981-.647-3.375-.906-3.751-2.13-3.096-1.31.701-2.679-.113-2.679-1.594 0-.632.515-1.825 1.145-2.651 1.324-1.736 1.227-3.284-.346-5.492-.844-1.186-.949-1.834-.85-5.253.1-3.46.872-9.521 1.608-12.624.334-1.406.322-2.502-.045-4.278-.299-1.445.353-2.756 4.712-9.479 3.426-5.284 4.878-8.676 4.664-10.899-.116-1.207-.46-1.608-2.113-2.468-1.086-.565-2.286-1.307-2.667-1.649-.381-.342-.9-.622-1.153-.622-.253 0-.731-.33-1.062-.733-.331-.403-2.182-1.46-4.112-2.349-2.636-1.213-4.324-1.681-6.781-1.881-3.92-.319-5.01-1-6.769-4.234-1.703-3.132-2.044-4.837-1.314-6.573 1.256-2.987 3.407-3.788 8.183-3.047 3.985.618 15.237-.211 18.746-1.382 1.327-.443 3.347-.938 4.488-1.1 1.303-.186 2.853-.848 4.166-1.783 1.15-.818 2.271-1.487 2.489-1.487.219 0 1.503-.538 2.853-1.195 2.236-1.088 2.996-1.209 8.5-1.359 5.03-.136 6.228-.044 7.129.547 1.43.937 1.368 1.787-.266 3.648-.88 1-1.201 1.687-.921 1.967.582.582 5.816 1.658 9.179 1.886 2.911.198 4.731 1.061 5.173 2.454.262.826-1.324 4.773-1.92 4.777-.159.0001-1.352.807-2.649 1.791-4.369 3.312-11.159 6.386-13.06 5.91-1.267-.318-1.599.255-1.023 1.768.623 1.639.54 8.537-.145 11.989-.567 2.857-.797 3.137-3.16 3.834-1.935.571-2.04 2.366-.216 3.665.864.615 1.276 1.217 1.116 1.632-.139.361-.659 4.625-1.156 9.474-1.027 10.02-.8 13.263 1.06 15.12 1.501 1.501 4.113 1.728 7.203.624 3.123-1.115 7.271-2.207 11.295-2.974 1.689-.322 4.354-.88 5.923-1.241 7.269-1.672 13.749-2.177 34.878-2.717 5.55-.142 10.979-.328 12.06-.413 1.086-.085 6.12-.172 11.187-.194 7.148-.03 9.607.107 10.968.613.965.359 2.353.661 3.083.671.731.011 1.718.291 2.194.623.476.332 1.655.698 2.62.814.965.116 4.03 1.251 6.8 2.522 2.775 1.271 6.23 2.753 7.678 3.293 1.448.54 3.718 1.404 5.05 1.92 3.01 1.17 3.86 1.175 5.084.025 1.429-1.343 4.142-1.601 5.147-.49 1.02 1.128 2.101 5.211 1.76 6.652-.681 2.88-2.416 5.544-4.446 6.829-1.779 1.125-2.495 1.307-5.248 1.332-1.753.016-3.349.213-3.546.439-.607.695-1.436 4.1-1.851 7.6-.218 1.836-.595 4.326-.839 5.533-.244 1.206-.647 3.466-.895 5.02-.248 1.555-.699 3.332-1 3.948-.719 1.463-.548 8.354.32 12.879.611 3.182 1.876 6.227 4.139 9.959.512.845 1.065 1.832 1.229 2.194.164.362 1.139 2.139 2.168 3.948 2.043 3.595 3.684 10.1 3.684 14.6 0 3.261 1.462 12.626 2.822 18.08.361 1.448.663 3.243.672 3.989.009.746.41 2.505.893 3.907 1.119 3.253 1.11 5.07-.032 6.522-.663.843-1.312 1.156-2.396 1.156-1.385 0-1.518.127-1.942 1.865-.25 1.026-.9 2.75-1.443 3.831-.829 1.651-1.34 2.095-3.181 2.768-1.206.44-2.922 1.382-3.813 2.092-1.79 1.427-3.191 1.659-3.598.598m-127.64-6.599c1.33-1.369 2.114-1.883 2.414-1.583.3.3.289.735-.035 1.34-.677 1.265-.619 1.392.637 1.392 1.336 0 3.083-1.637 3.943-3.695.343-.821 1.369-2.372 2.279-3.447.91-1.075 2-2.587 2.421-3.361.546-1 1.049-1.383 1.755-1.326 1.963.159 2.086.036 2.086-2.074 0-2.426.566-5.74 2.01-11.762 1.306-5.453 3.179-12.765 3.682-14.371l.378-1.209-1.266.748c-1.598.944-2.147.439-1.193-1.096 2.124-3.416 2.701-4.826 2.725-6.66.019-1.449.213-2 .735-2.105.959-.185 1.33 1.836.784 4.266-.234 1.043-.323 2-.197 2.126.424.424 1.507-2.815 2.403-7.188.49-2.389 1.196-5.43 1.569-6.757.373-1.327.859-3.598 1.081-5.05.221-1.448.619-3.891.885-5.429.408-2.366.378-2.911-.19-3.539-.505-.558-.664-1.731-.641-4.729.021-2.637-.226-4.802-.728-6.394-1.145-3.632.041-5.473 1.412-2.191.598 1.43 1.694 8.619 1.849 12.12.084 1.896.524 2.237 1.201.93.813-1.568.773-2.386-.233-4.732-.465-1.084-.75-2.065-.635-2.18.4-.4-1.133-7.89-1.833-8.959-.864-1.318-.574-2.197.908-2.76.62-.236 1.096-.677 1.056-.981-.171-1.31.078-1.703.993-1.569 1.292.188 1.9 2.505 1.208 4.601-.458 1.389-.405 1.649.551 2.706.582.643 1.57 1.87 2.196 2.727 1.025 1.404 4.088 2.965 4.672 2.381.11-.11-.159-.999-.599-1.975-1.044-2.314-.462-3.096 1.656-2.228 2.573 1.055 5.775 1.842 7.873 1.935 2.248.1 3.478.856 2.685 1.65-.446.446-5.298.015-8.296-.737-.586-.147-1.062-.072-1.062.167 0 .651 2.587 1.592 4.245 1.545 2.631-.075 2.055 1.5-.624 1.705-.751.057-1.261.274-1.133.482.435.703 3.428.148 4.675-.867 1.29-1.05 2.456-1.281 3.169-.627.561.514 3.463.928 3.964.566.221-.159.401-.586.401-.948 0-.686.301-.704 3.729-.22 1.784.252 1.898.217 1.18-.367-1.1-.894-.22-1.367 2.263-1.214 1.555.096 1.894-.009 1.697-.522-.135-.353-.043-.845.205-1.093.31-.31.161-.607-.473-.946-.508-.272-.925-.711-.925-.974 0-.741 6.414-.205 9.09.76 1.707.615 2.419.699 2.789.329.706-.706-1.065-1.575-3.207-1.575-1.128 0-1.872-.262-2.241-.789-.386-.55-.745-.667-1.189-.386-1.537.973-3.859.378-6.233-1.596-.678-.564-2.123-1.134-3.29-1.299-2.539-.358-4.363-1.383-3.678-2.068.336-.336.948-.335 2.131.004.913.262 2.473.604 3.467.761 1.351.213 1.934.562 2.308 1.385.458 1.01.71 1.09 2.955.986 1.926-.089 2.543.046 2.869.626.292.522.991.74 2.367.74 2.176 0 2.603-.619.748-1.085-2.702-.678-2.705-2.425-.005-2.425 1.018 0 1.211-.127.851-.56-.695-.837-3.648-1.809-3.974-1.309-1.025 1.57-5.06 1.922-6.697.584-.83-.678-.927-.957-.488-1.403.442-.45.949-.417 2.632.17 2.486.866 4.498.596 4.498-.604 0-1.062.92-1.046 3.071.051 2.182 1.113 3.01 1.144 2.042.075-.789-.872-.955-2.075-.34-2.456.213-.131 1.128.351 2.035 1.071.906.72 2.071 1.31 2.587 1.31.516 0 1.39.316 1.942.703.552.387 1.073.633 1.159.548.371-.371-1.033-1.656-2.631-2.408-.955-.45-1.803-1.163-1.884-1.585-.201-1.043 1.149-.985 2.549.11 1.235.966 1.689 1.044 2.625.452.529-.334.307-.707-1.186-1.984-1.754-1.501-2.129-2.855-.791-2.855.82 0 9.619 8.826 10.535 10.568 1.386 2.634 1.54 3.01 1.54 3.728 0 .389.543 1.266 1.206 1.949.664.683 1.808 1.901 2.544 2.707.735.806 2.414 2.184 3.729 3.062 2.924 1.951 4.314 3.426 5.924 6.285 1.537 2.73 3.173 4.707 8.823 10.659 6.461 6.806 8.92 9.733 9.847 11.716.451.965.997 2.051 1.213 2.413.858 1.435 3.137 7.902 4.173 11.845 1.029 3.913 2.37 14.181 2.494 19.08.087 3.444-.453 9.46-.928 10.348-.237.443-1.314 1.413-2.392 2.155-2.738 1.884-3.767 3.948-1.967 3.948.579 0 1.138-.53 1.617-1.536.79-1.658 2.191-2.194 1.718-.658-.149.483-.392 1.27-.54 1.75-.407 1.32.977 1.633 2.189.495.732-.688.947-1.287.805-2.249-.141-.957-.015-1.312.463-1.312.865 0 1.688-3.294 1.348-5.394-.315-1.94.483-2.454 2.505-1.616.727.301 1.414.456 1.527.343.112-.112-.2-1.669-.695-3.459-.994-3.598-1.33-5.232-2.338-11.371-.376-2.292-.909-5.254-1.183-6.581-1-4.854-1.258-6.446-1.696-10.664-.555-5.351-1.487-7.388-1.142-2.498.127 1.81.354 4.246.503 5.415.276 2.161-.37 3.812-.86 2.197-.458-1.509-1.15-6.504-1.154-8.321-.002-1.137-.328-2.218-.881-2.921-.483-.614-.877-1.331-.877-1.595 0-.643 1.448-.611 2.106.047 1.251 1.251.425-1.114-1.369-3.922-2.133-3.337-3.685-6.521-5.114-10.487-.818-2.269-1.164-2.734-2.192-2.94-1.457-.291-4.397-4.04-4.401-5.611-.002-.571-.379-1.609-.84-2.307-.789-1.197-.804-2.46-.029-2.46.193 0 1.076 1.01 1.962 2.243 1.086 1.511 1.537 2.549 1.383 3.181-.257 1.055.749 2.702 1.404 2.297.273-.169.255-.825-.052-1.824-.551-1.795.096-6.648 1.44-10.796.443-1.367.947-4.329 1.121-6.581.222-2.869.548-4.392 1.09-5.088.61-.782.726-1.527.547-3.51-.149-1.648.016-3.335.476-4.885l.704-2.368-1.283-2.243c-1.462-2.556-4.365-6.01-4.393-5.223-.001.287.179.645.42.794.241.149.439.704.44 1.232.0001.529.406 1.625.901 2.437.524.86.899 2.232.899 3.29-.0001 5.555-.082 6.343-.708 6.862-.37.307-.656 1.266-.656 2.199 0 1.014-.238 1.746-.615 1.89-.745.286-1.139-.052-1.142-.983-.0001-.382-.298-1.26-.658-1.951-.905-1.735-.827-2.254.425-2.824.972-.443 1.034-.623.624-1.8-.251-.719-.737-1.541-1.08-1.826-.855-.709-.783-1.447.232-2.365.806-.73.814-.842.138-1.933-.395-.637-1.125-1.495-1.624-1.906-.778-.643-.827-.876-.349-1.652.887-1.441-.339-3.357-2.579-4.03-1.67-.5-2.584-1.396-2.01-1.97.681-.681 3.97.468 5.384 1.882 1.471 1.471 2.377 1.613 2.377.373 0-.334-.363-.865-.808-1.181-.444-.315-1.345-1.427-2-2.471-.778-1.237-1.757-2.124-2.812-2.546-.89-.356-2.902-1.268-4.47-2.025-2.408-1.163-3.697-1.454-8.282-1.87-3.429-.311-6.421-.351-8.116-.106-1.477.213-3.574.291-4.66.174-1.086-.117-2.863-.049-3.948.152-1.086.201-8.687.485-16.891.632-8.204.147-16.397.404-18.207.571-1.81.167-3.556.281-3.88.252-.324-.028-2.2.229-4.168.571-4.823.84-8.875 1.466-11.238 1.736-1.076.123-5.222 1.018-9.213 1.989-4.406 1.072-8.485 1.798-10.385 1.847-3.61.095-4.143-.295-6.106-4.463-1.515-3.216-2.237-7.01-2.804-14.733-.265-3.605-.606-7.336-.759-8.29-.272-1.703-.256-1.729.886-1.443.948.238 1.163.14 1.163-.528 0-1.232-.919-3.654-1.89-4.978-.93-1.269-.751-2.554.356-2.554.4 0 1.054.854 1.565 2.047.508 1.184 1.036 1.877 1.254 1.645.57-.607-.224-5.287-1.139-6.713-3.221-5.02-4.095-5.877-4.095-3.998 0 1.036-.978 1.155-1.759.214-.406-.489-.702-.538-1.124-.187-.316.262-.931.431-1.368.377-.437-.055-1.147.054-1.578.241-.518.225-1.08.072-1.656-.449-1.187-1.074-1.928-.338-1.306 1.297.686 1.804.563 2.613-.673 4.434-.734 1.082-1.042 2-.883 2.639.193.767-.318 1.551-2.382 3.653-1.445 1.472-2.627 2.766-2.627 2.876 0 .11.444.263.987.34 1.591.226 1.452 1.786-.37 4.161-1.529 1.993-2.787 4.4-3.44 6.582-.242.809-.144.914.656.705 1.377-.36 1.698.586.823 2.428-.423.891-.898 2.557-1.056 3.703-.257 1.873-.2 2.084.571 2.084 1.136 0 1.406.845.928 2.908-.217.934-.391 2.587-.387 3.673l.007 1.974.655-1.206c.479-.883.992-1.206 1.91-1.206 1.394 0 1.788-.625 1.788-2.834 0-.795.311-1.704.692-2.02 1.093-.907 1.58.297 1.284 3.172-.241 2.344-.205 2.473.639 2.252 1.089-.285 1.211.949.223 2.255-.923 1.22-.819 2.439.207 2.439 1.316 0 1.447.685.477 2.494-.596 1.112-.884 2.46-.872 4.08.018 2.418.018 2.419.686 1.186.408-.753.956-1.176 1.408-1.087.611.121.714.576.591 2.611-.15 2.488.914 5.795 1.389 4.315.116-.362.323-1 .459-1.426.369-1.143 1.591-.958 1.591.241 0 .555-.202 1.211-.449 1.458-.306.306-.229.974.24 2.098.57 1.365.799 1.558 1.326 1.121.35-.291.637-.762.637-1.048 0-.286.494-1.188 1.097-2.01 1.234-1.672 1.403-2.632.465-2.632-1.284 0-1.067-.843.855-3.319 1.084-1.396 1.971-2.687 1.971-2.87 0-.579 1.823-.937 2.307-.454.326.326.28.686-.154 1.21-.34.411-.618 1.258-.618 1.883 0 .906-.238 1.164-1.174 1.272-1.604.185-2.407 1.179-1.669 2.067.359.433.525 1.865.472 4.078-.045 1.876.046 3.746.204 4.156.477 1.244 1.117.34.832-1.177-.317-1.69.216-2.255 2.543-2.689 1.94-.363 2.124.149.6 1.673-1.567 1.567-2.841 8.549-1.478 8.1.302-.099.609-.593.684-1.096.156-1.054 1.401-1.698 1.857-.96.169.274.45-.46.623-1.63.173-1.17.768-3.428 1.321-5.02.68-1.954.876-3.121.605-3.604-.3-.536-.007-1.149 1.172-2.454 1.362-1.507 1.5-1.854 1.037-2.596-.447-.716-.379-1.054.416-2.064.523-.665.95-1.456.95-1.758 0-.303.381-1.016.846-1.586 1.287-1.576 2.02-.602 1.316 1.748-.433 1.446-.427 1.929.033 2.483.482.581.39.876-.593 1.902-.64.668-1.164 1.602-1.164 2.076 0 .474-.5 1.597-1.111 2.497-1.476 2.173-2.678 10.797-2.114 15.177.33 2.566.515 2.973 1.58 3.482.664.317 1.206.768 1.206 1 0 .234.497.615 1.105.846.608.231 1.305.966 1.551 1.634.245.668.731 1.807 1.079 2.531l.633 1.316.001-1.206c.014-1.67 1.12-1.553 2.061.219.55 1.037.8 1.227.914.695.339-1.582 1.39-1.238 1.951.639l.552 1.846.146-1.932c.08-1.062-.17-2.897-.555-4.076-.722-2.208-.616-2.986.408-2.986.763 0 1.528 2.222 1.811 5.265.278 2.982-.275 5.096-1.286 4.916-.546-.097-.727.204-.727 1.206 0 .895-.217 1.335-.658 1.335-.362 0-.658-.192-.658-.428 0-.347-1.571-1.242-4.513-2.571-.19-.086-.22 1.097-.067 2.628.153 1.531.053 5.05-.222 7.829-.275 2.775-.777 8.599-1.116 12.942-.745 9.548-1.031 11.46-1.809 12.11-.329.273-.511.638-.404.811.107.173-.108 1.385-.478 2.692-.685 2.421-.942 3.423-2.07 8.08-2.807 11.587-3.701 14.184-5.976 17.361-1.653 2.308-3.988 4.201-5.618 4.556-1.072.233-1.651.734-2.285 1.976-.467.915-1.153 1.781-1.526 1.923-.641.246-.971 1.165-.418 1.165.142 0 1.145-.912 2.229-2.027m119.53-79.32c-.482-1.914-.31-3.322.406-3.322.579 0 .783.551 1.106 2.987.248 1.873.184 2.278-.36 2.278-.417 0-.843-.719-1.152-1.943m1.509-3.404c-1.28-3.961-1.59-5.773-1.045-6.118.319-.202.727-.37.908-.374.49-.001.398-1.667-.11-1.981-.684-.423-.515-2.29.233-2.577 1.335-.512 1.816 2.718 1.25 8.397-.262 2.632-.842 3.875-1.237 2.653m-69.61-.511c-2.946-.646-5.092-1.902-4.411-2.583.324-.324 1.233-.246 3.037.26 3.467.973 5.371.957 5.362-.045-.001-1.088-.465-1.64-1.935-2.345-.706-.339-1.356-.839-1.444-1.11-.266-.819 1-1.013 2.285-.348.661.343 1.418.623 1.683.623.265 0 .896.519 1.402 1.154.758.951 1.264 1.147 2.872 1.115 2.288-.046 3.275.436 2.9 1.416-.178.463-.805.702-1.841.702-.864 0-2.104.273-2.756.606-1.84.942-4.462 1.145-7.154.555m38.854-11c-2.676-2.636-3.206-3.758-1.775-3.758.312 0 1.547 1.135 2.745 2.523 2.661 3.081 2.911 3.486 2.362 3.826-.237.147-1.736-1.019-3.331-2.59m4.529-.159c-.496-.84-.592-1.427-.304-1.865.345-.524.615-.402 1.505.678.596.724 1.085 1.563 1.086 1.865.004 1.02-1.559.557-2.288-.678m-86.33-7.574c0-.747 2.724-3.923 3.364-3.923.723 0 .728.194.036 1.432-1.31 2.344-3.4 3.875-3.4 2.491m-5.515-6.697c-.317-.827 2.549-5.747 3.448-5.92 1.583-.305.326 3.523-1.806 5.498-1.262 1.169-1.347 1.191-1.643.422m-8.335 107.62c.288-.288.124-.747-.486-1.357l-.921-.921-.926.926c-.509.509-.926 1.247-.926 1.639 0 .569.285.656 1.412.43.777-.155 1.608-.478 1.848-.718m82.04.024c1.452-.552 1.435-1.233-.04-1.603-.858-.215-1.32-.08-1.755.514-1.12 1.532-.446 1.94 1.795 1.089m-4.829-.678c.465-.352.739-.746.609-.876-.359-.359-2.551.581-2.551 1.094 0 .639.951.532 1.942-.218m-74.09-4.454c1.382-1.193 2.576-2.66 2.856-3.51.368-1.114.731-1.46 1.534-1.46 1.334 0 2.209-1.32 3.08-4.649.903-3.45 1.924-9.268 1.934-11.02.006-.964.291-1.562.901-1.888.742-.397.846-.752.615-2.099-.153-.892-.653-1.949-1.112-2.35-1.01-.878-1.032-1.179-.181-2.118.359-.397.923-1.498 1.253-2.448.473-1.361.822-1.726 1.65-1.726 1.184 0 1.204-.141.392-2.747-.462-1.482-.472-2.075-.048-2.866.433-.81.406-1.242-.145-2.299-1.463-2.805-.115-4.03 1.554-1.411l.909 1.426-.29-1.755c-.159-.965-.794-2.623-1.41-3.684-1.31-2.255-1.525-2.065-2.485 2.188-.349 1.547-.944 3.997-1.322 5.445-.662 2.538-2.134 9.295-3.821 17.549-.444 2.172-1.192 4.837-1.662 5.923-.47 1.086-1.196 3.159-1.612 4.607-1.611 5.599-2.923 8.275-4.933 10.06-1.8 1.599-1.884 1.767-1.151 2.303.435.318.865.578.955.578.091 0 1.233-.923 2.54-2.05m82.18.85c.635-.393 1.676-1.188 2.313-1.767.71-.645 1.559-.996 2.194-.907.794.111 1.068-.084 1.175-.838.077-.541.555-1.274 1.062-1.629.706-.494.95-1.19 1.039-2.963.098-1.935.319-2.478 1.341-3.293.967-.771 1.218-1.325 1.194-2.635-.016-.912-.111-1.955-.209-2.317-.126-.462.114-.627.808-.554.88.093.987-.09.987-1.696 0-1.707.06-1.789 1.151-1.581l1.151.22-.284-2.416c-.282-2.403-.278-2.414.823-2.204.609.116 1.107.051 1.107-.146 0-.818-1.057-2.592-1.545-2.592-.511 0-2.822 3.902-4.159 7.02-.362.845-1.201 2.371-1.865 3.391-.664 1.021-1.206 2.01-1.206 2.208 0 .42-2.739 4.865-3.58 5.81-.856.962-3.641 5.248-4.489 6.907-.401.784-.9 1.426-1.109 1.426-.209 0-.479.256-.599.568-.32.834 1.341.826 2.698-.014m-77.16-1.019c0-.227-.197-.413-.439-.413-.241 0-.439.308-.439.684 0 .376.197.562.439.413.241-.149.439-.457.439-.684m94.55-28.3c-.607-.894-1.103-1.91-1.103-2.258 0-.995-1.08-.384-1.24.701-.093.632.244 1.278.961 1.842.607.478 1.238 1.29 1.402 1.806.257.809.351.842.69.236.276-.494.066-1.182-.71-2.326m-86.9-.663c-.141-.229-.444-.3-.672-.159-.229.141-.3.444-.159.672.141.229.444.3.672.159.229-.141.3-.444.159-.672m91.42-3.109c-.087-.589-.612-1.109-1.374-1.362-1.745-.579-1.929-.109-.462 1.181 1.553 1.366 2.02 1.411 1.836.18m-4.228-.897c-.315-.315-.519-.341-.519-.066 0 .586.519 1.104.812.812.125-.125-.007-.46-.292-.746m3.758-3.476c-1.146-.982-2.084-1.962-2.084-2.178 0-.822 1.728-.346 2.554.704 1.014 1.29 2.855 1.52 2.629.329-.087-.459-.621-.823-1.327-.905-.677-.078-1.291-.48-1.436-.939-.14-.441-.889-1.11-1.665-1.485-1.318-.638-1.43-.63-1.71.127-.165.445-.511.94-.769 1.1-.781.483-.554.948 1.488 3.05 1.421 1.462 2.293 2.01 3.181 1.999 1.201-.015 1.185-.048-.861-1.801m4.321-4.397c.18-.291-.138-.873-.742-1.357-.581-.466-1.841-1.471-2.8-2.232-.959-.762-2.195-1.86-2.746-2.441-1.119-1.178-1.663-1.017-1.225.362.304.957.423 1.094 3.133 3.573 2.683 2.455 3.822 3 4.381 2.095m.175-4.327c0-.5-2.188-1.457-2.536-1.109-.122.122.029.522.334.89.624.752 2.202.909 2.202.219m-93.82-5.467c-.35-1.31-1.387-2.071-1.387-1.018 0 .656 1.309 2.7 1.566 2.444.088-.088.008-.73-.178-1.426m88.18-2.452c-2.02-1.942-3.77-3.427-3.898-3.299-.521.521 5.654 6.827 6.686 6.829.646.0001-.09-.931-2.788-3.53m3.369-.665c-.12-.591-2.994-2.234-2.994-1.712 0 .326 2.395 2.41 2.77 2.41.201 0 .302-.314.224-.697m-90.98-2.576c-.824-1.737-1.514-2.026-1.514-.633 0 1.287 1.912 3.947 2.108 2.932.079-.41-.188-1.444-.593-2.299m86.89-.675c-.437-.483-.992-.877-1.233-.877-.241 0-.081.395.355.877.437.483.992.877 1.233.877.241 0 .081-.395-.355-.877m-85.33-2.826c0-.348-.203-.758-.451-.911-.248-.153-.704-.898-1.013-1.655-.309-.757-.685-1.177-.835-.934-.352.57 1.233 4.133 1.839 4.133.253 0 .46-.284.46-.632m84.07-5.728c-3.339-3.257-6.26-5.804-6.491-5.661-.417.258 7.818 8.699 10.337 10.595 3.241 2.44 1.743.518-3.846-4.934m-.058 3.727c-.374-.724-.843-1.316-1.041-1.316-.198 0-1.427-1.098-2.731-2.441-3.588-3.695-5.211-4.308-2.13-.805 1.469 1.67 5.997 5.878 6.325 5.878.141 0-.049-.592-.424-1.316m-84.21-4.286c-.144-.144-.479-.045-.745.221-.351.351-.319.66.117 1.133.525.57.618.542.745-.221.08-.479.027-.989-.117-1.133m85.74-1.643c-2.062-2.127-2.59-1.926-.598.227.894.966 1.727 1.654 1.852 1.529.125-.125-.44-.915-1.255-1.756m-60.54.665c0-.241-.296-.439-.658-.439-.362 0-.658.197-.658.439 0 .241.296.439.658.439.362 0 .658-.197.658-.439m2.194-3.313c0-.387-2.955-1.513-3.971-1.513-1.23 0-.874.988.494 1.37 1.341.375 3.477.463 3.477.143m28.612-6.442c-.74-.357-1.135-.349-1.514.03-.39.39-.152.505 1 .482 1.421-.028 1.453-.059.512-.512m22.06-1.213c-.149-.241-.358-.439-.465-.439-.106 0-.193.197-.193.439 0 .241.209.439.465.439.256 0 .343-.197.193-.439m-6.203-1.097c-.139-.362-.647-.658-1.129-.658-.482 0-1.463-.494-2.18-1.097-1.367-1.15-2.323-1.384-2.761-.675-.143.232.882 1.01 2.277 1.718 2.878 1.471 4.178 1.715 3.793.712m-82.2-.407c0-.345-.323-.95-.718-1.344-.99-.99-1.736-.187-.968 1.042.66 1.057 1.685 1.241 1.685.302m6.649-3.732c-.167-.47-.329-.393-.641.305-.229.514-.266 1.291-.081 1.726.296.697.373.66.641-.305.168-.603.204-1.38.081-1.726m-10.843-2.756c.634-.906.61-1.033-.36-1.865-.572-.491-1.159-1.242-1.304-1.67-.286-.845-1.467-1.476-1.918-1.024-.154.154-.047.514.238.8.286.286.519.795.519 1.133 0 .876 1.347 3.598 1.78 3.598.2 0 .67-.438 1.045-.972m-5.896-7.566c0-1.08-.258-1.529-1.097-1.911-.999-.455-1.097-.409-1.097.522 0 .562.219 1.65.487 2.418.391 1.123.606 1.297 1.097.889.336-.279.61-1.142.61-1.918m-4.266-8.02c.381-.905.793-3.06.916-4.79.188-2.655.109-3.188-.505-3.424-1.345-.516-1.848.996-1.848 5.556 0 2.367.167 4.303.372 4.303.205 0 .684-.74 1.065-1.645m148.61-.933c0-.212-.296-.631-.658-.931-.677-.562-.879-1.827-.371-2.334.158-.158.944.119 1.747.616.803.496 1.668.774 1.922.617.714-.442-1.511-1.97-2.869-1.97-1.728 0-5.24-1.195-8.843-3.01-2.912-1.466-4.148-1.66-3.456-.541.155.251.981.788 1.834 1.193.881.418 2.326 1.799 3.341 3.192.984 1.351 1.851 2.533 1.928 2.628.077.095.446-.083.822-.394.564-.468.775-.447 1.217.12.73.936 3.386 1.575 3.386.814m-10.205-2.112c-.408-.408-.889-.595-1.068-.415-.18.18-.036.51.319.735 1.068.675 1.543.473.75-.32m14.593-3.463c0-.382-.234-.617-.521-.521-.813.271-.948 1.216-.174 1.216.382 0 .695-.313.695-.695m-134.69-26.506c0-.241-.197-.439-.439-.439-.241 0-.439.197-.439.439 0 .241.197.439.439.439.241 0 .439-.197.439-.439m1.999-15.635c-.678-1.849-.832-1.336-.394 1.315.202 1.224.382 1.511.647 1.037.219-.39.116-1.344-.254-2.352m-1.109-4.288c-.273-.827-.782-1.742-1.132-2.032-.731-.606-.816-.305-.226.792.225.419.669 1.405.986 2.191.732 1.817 1.032 1.049.372-.952m1.977-2.722c.873-.572 1.081-1.074 1.081-2.604 0-2.691-.636-4.03-2.406-5.078-.918-.542-1.542-1.253-1.542-1.758 0-1.455 1.256-1.454 3.068.002 2.01 1.617 2.248 1.655 2.983.477.452-.724.842-.841 2.042-.616 1.221.229 1.57.116 1.975-.641.277-.518.926-.919 1.486-.919 1.212 0 2.06-.771 1.746-1.589-.305-.795-1.21-.77-1.893.053-.3.362-1.117.658-1.815.658-.698 0-1.646.236-2.107.524-.644.402-1.101.404-1.966.001-.62-.282-1.72-.395-2.445-.25-1.192.238-1.319.156-1.319-.866 0-1.331 1.656-2.708 5.307-4.414 2.813-1.314 4.04-1.412 6.236-.496 1.726.721 2.302 1.34 1.631 1.754-.275.17-.163.718.299 1.456.407.651.775 1.241.818 1.312.043.071 1.139-.345 2.436-.924 2.642-1.179 4.422-2.796 3.405-3.092-1.157-.337-6.322-1.144-8.897-1.39-1.422-.136-2.705-.278-2.852-.316-.147-.038-1.608.193-3.248.513-2.242.437-3.3.9-4.268 1.869-1.121 1.121-1.558 1.27-3.38 1.153-1.756-.112-2.093-.275-2.093-1.012 0-.639.297-.881 1.097-.892 1.482-.02 3.51-.655 3.51-1.098 0-.198-.642-.37-1.426-.383-.784-.013-4.051-.146-7.26-.295-3.975-.185-6.221-.112-7.05.231-.668.277-2.287.59-3.599.696-1.311.106-4.26.497-6.552.869-2.292.372-6.274.681-8.847.686-3.483.007-4.811.167-5.193.627-.744.897-.147 1.644.876 1.097.452-.242 1.131-.44 1.509-.44.894 0 .895 1.581.0001 1.924-.377.145-.563.462-.413.705.358.58 3.426.571 4.01-.011.69-.69 1.678-.106 2.212 1.308.336.89 1.118 1.561 2.613 2.242 1.174.535 2.745 1.438 3.493 2.01.852.65 1.953 1.036 2.953 1.036 1.216 0 1.764.26 2.312 1.097.395.603 1.076 1.097 1.512 1.097.436 0 1.404.514 2.15 1.141.789.664 1.642 1.032 2.04.879.376-.144 1.017-.083 1.426.135.494.265 1.021.193 1.577-.213.616-.451.988-.484 1.417-.128.32.266 1.112.382 1.76.258.648-.124 1.523-.001 1.944.253.559.349 1.076.337 1.916-.046 2.046-.932 3.323-.672 3.875.792.582 1.542.48 1.509 1.855.608m-16.42-5.157c-.293-.354-.587-1.103-.653-1.666-.065-.563-.365-1.615-.665-2.339-.3-.723-.461-1.758-.358-2.301.104-.542-.08-1.208-.408-1.481-.903-.749-.719-1.507.5-2.063.603-.275 1.097-.796 1.097-1.157 0-.362.515-.995 1.144-1.407 1.051-.689 1.176-.692 1.543-.036.226.404 1.254.842 2.369 1.01 2.731.41 4.344 2.296 4.02 4.704-.536 4-4.382 5.01-7.437 1.956-.677-.677-.978-.771-1.119-.35-.106.317.522 1.231 1.394 2.03 1.32 1.21 1.524 1.623 1.214 2.467-.44 1.197-1.886 1.543-2.642.632m4.997-9.05c.149-.241-.135-.439-.632-.439-.497 0-.903.197-.903.439 0 .241.284.439.632.439.348 0 .754-.197.903-.439m11.905-7.675c.691-.36 1.8-.657 2.463-.658.664-.0001 1.206-.2 1.206-.441 0-.424-1.392-.652-3.367-.551-1.213.062-3.283 1.399-2.964 1.915.351.568 1.233.481 2.662-.265" fill="#000"/>
</svg>
