<?xml version="1.0" encoding="UTF-8" standalone="no"?>
<!DOCTYPE svg PUBLIC "-//W3C//DTD SVG 1.1//EN" "http://www.w3.org/Graphics/SVG/1.1/DTD/svg11.dtd">
<svg xmlns="http://www.w3.org/2000/svg" width="300px" height="350px">
<g>
<path id="fill" d="m 88.812,56.719 c -1.835,-0.122 -1.14,2.045 -0.343,2.875 -3.107,-0.116 -6.483,0.09 -9.219,1.344 -4.464,-1.817 -6.705,4.574 -10.906,4.218 -1.231,-1 -2.142,-4.602 -4.438,-3.062 -1.839,1.279 -0.117,5.475 -3.031,5.218 -2.096,-0.985 -2.398,-4.576 -4.781,-4.843 -1.541,3.131 0.454,6.559 1.312,9.5 -0.69,2.894 -5.182,0.645 -4.594,-1.844 0.683,-1.244 -0.164,-2.793 -1.25,-1.313 -1.928,2.063 -1.159,5.219 0.813,6.938 1.38,1.105 -0.106,2.505 -1,2.531 1.342,2.892 5.143,3.341 7.813,3.969 1.838,1.484 -1.185,3.185 -1.907,4.312 2.978,0.262 4.057,3.657 2.688,6.063 -1.975,4.736 -5.792,8.745 -8.188,13.095 -0.4,2.12 0.25,4.45 0.125,6.5 1.561,0.75 5.319,0 4.532,2.81 -0.1,0.91 -2.197,3.53 -0.438,3.5 2.497,-1.21 3.486,-4.93 6.781,-4.34 2.217,0.53 4.507,-0.37 4.875,-2.69 1.053,-2.83 2.709,-5.45 4.938,-7.38 1.997,-3.14 7.014,-5.966 10.062,-2.59 1.725,2.29 0.273,5.8 0.75,8.56 0.315,7.21 -0.426,14.45 0.188,21.63 0.548,2.9 2.157,5.44 1.308,8.5 -0.636,6.54 -1.215,13.57 1.817,19.53 0.982,3.85 -4.029,4.51 -6.776,4.79 -2.795,0.25 -5.65,0.93 -7.631,2.96 -4.025,2.29 -10.649,1 -12.281,6.53 -2.632,7.76 0.173,16.7 -3.375,24.22 -1.611,6.53 4.157,11.62 6.282,17.22 2.409,2.03 3.497,6.33 6.968,6.5 2.196,-1.06 0.906,-4.46 0.938,-6.44 -0.585,-2 -0.595,-4.8 -2.156,-6.09 -3.527,-0.6 -6.478,-4.41 -4.907,-7.91 3.936,-3.46 0.647,-9.37 2.407,-13.81 0.745,-3.95 1.199,-9.56 5.718,-10.66 7.079,2.2 14.555,-0.89 21.805,-0.56 3.056,-0.43 5.857,-2.1 9.009,-2.19 -1.86,17.98 -5.135,36.02 -12.001,52.78 -1.466,3.54 -4.481,5.94 -8.063,7.03 -2.242,1.98 -2.591,5.85 -5.687,6.82 -1.74,1.9 1.944,2.6 3.281,2.4 2.302,-0.58 5.17,0.24 7.125,-1.25 1.053,-4.86 5.378,-8.23 10.125,-9.25 5.8,-10.65 5.95,-23.31 11.62,-33.96 0.83,-3.59 1.07,-7.46 3.16,-10.66 1.89,-4.27 2.27,-9.69 5.56,-13 7.11,0.23 14.27,0 21.16,-1.78 10.69,-1.87 20.84,-6.11 31.62,-7.5 3.99,0.66 2.97,6.01 3.35,8.97 1.94,4.36 3.41,9.41 7.32,12.53 3.17,3.36 8.86,6.46 6.83,11.94 -1.72,10.08 -7.04,19.36 -11.93,28.18 -2.33,3.29 -6.63,4.21 -9.88,6.16 -1.37,3.3 -6.19,4.62 -6.56,8.44 4.65,0.18 10.6,1.36 13.97,-2.38 1.02,-4.86 7.26,-3.66 10.28,-6.5 3.85,-12.93 11.07,-24.47 16.66,-36.62 0.59,-5.57 -4.56,-10.5 -2.69,-16.16 0.51,-2.68 3.89,-2.19 5.03,-0.25 6.63,5.66 16.14,7.87 21.12,15.28 2.08,11.26 2.98,23.33 -0.43,34.31 -1.6,2.66 -5.55,2.61 -6.88,5.57 -1.69,2.24 -5.12,3.92 -5,7.06 5.75,-0 13.35,-1.56 14.94,-8.06 3.08,-1.25 8.53,-2.14 7.47,-6.69 -0.26,-10.16 -1.32,-20.55 0,-30.6 2.14,-1.22 3.24,2.9 5.47,2.91 1.16,-0.43 3.21,-2.11 3.81,0 0.54,1.92 0.3,5.91 3.38,5.13 0.84,-0.19 2.35,-0.98 0.84,-1.5 -1.93,-0.93 -2.49,-2.81 -1.25,-4.63 2.07,-3.92 3.55,-8.15 2.53,-12.62 -0.53,-5.33 1.18,-10.84 -1.31,-15.85 -1.02,-3.97 -3.54,-7.23 -7.03,-9.18 -1.33,-1.57 -3.96,-3.89 -3,-6.07 1.92,-0.73 3.91,1.47 6.06,0.57 1.6,-0.45 4.96,-1.02 4.63,-3.07 -1.22,0.11 -4.07,0.26 -3.13,-1.81 0.8,-1.26 -1.69,-1.97 -1.44,-3.53 -0.28,-4.29 2.9,-7.96 2.72,-12.34 0.96,-7.98 0.81,-16.79 -3.97,-23.5 -1.34,-2.3 -0.23,-4.93 0.5,-7.1 0.37,-2.48 -3.06,-5.242 -4.78,-2.56 -1.5,1.88 2.36,0.39 3.06,1.5 0.82,2.2 -2.5,3.14 -4.25,2.56 -6.16,-2.28 -14.54,-2.24 -18.59,3.63 -2.86,3.18 -2.73,8.23 -1.84,12.06 1.55,2.4 1.92,7.14 -1.66,7.59 -5.02,-2.02 -9.93,-4.65 -14.92,-6.43 -11.49,-3.14 -23.54,-1.84 -35.07,0.29 -6.76,0.58 -13.8,0.38 -20.42,0.3 -2.18,-3.02 -7.23,0.41 -9.03,-3.38 -1.53,-1.39 -0.67,-3.73 1.35,-3.81 3.28,-0.1 6.99,-2.87 5.78,-6.5 -0.33,-1.55 -3.37,-1.74 -2.5,0.28 1.08,1.56 0,3.66 -2,3 -2.12,-0.97 -2.3,-4.22 -2.78,-6.4 -0.7,-4.63 0.31,-9.937 -2.97,-13.721 -1.02,-1.71 0.76,-3.006 1.39,-4.125 0.31,-2.162 0.12,-6.97 -2.99,-6.156 -0.69,1.622 1.53,5.114 -1.34,5.187 -2.45,-0.371 -2.35,-3.922 -3.62,-5.687 -0.53,-1.708 -2.28,-3.163 -0.63,-4.594 0.76,-1.358 -0.54,-4.366 -2.16,-2.594 -0.98,2.52 -5.43,0.286 -3.68,-2.125 1.82,-2.24 2.37,-5.616 -0.1,-7.656 -1.55,-1.255 -1.06,1.929 -1.78,2.593 -1.02,2.655 -5.64,1.779 -5.06,-1.25 0.1,-1.674 2.45,-3.66 0.38,-4.968 -0.89,-0.827 -3.21,-1.01 -2.63,0.812 0.13,2.947 -3.54,2.766 -5.22,1.5 -3.15,-1.219 -5.796,-4.008 -9.436,-3 -1.881,0.503 -3.926,-0.929 -3.438,-2.968 -0.832,-0.896 -2.14,-1.308 -3.344,-1.219 z M 228.09,129.75 c 3.25,0.29 2.81,5.06 2.19,7.31 -0.95,3.5 -3.65,6.15 -6.56,8.1 0.17,2.8 -2.58,-2.14 -3.25,-3.28 -1.46,-2.35 -1.75,-6.75 1.81,-7.29 1.79,-0.48 2.23,-3.18 4.06,-4.03 0.5,-0.43 1.1,-0.72 1.75,-0.81 z m -2.87,47.69 c 3.26,-0.1 5.94,4.06 9.28,2.12 3.98,3.45 8.63,8.04 7.41,13.82 -0.35,1.89 -2.44,2.78 -4.19,2.21 0.57,-0.32 2.75,-3.08 0.87,-2.62 -1.93,0.28 -1.79,4.09 -3.5,2.97 -0.93,-2.8 1.67,-7.16 -1.59,-8.91 -3.51,-2.46 -8.26,-4.91 -8.91,-9.59 l 0.5,0 0.13,0 z"/><path id="outline" d="m 71.56,69.128 c 1.611,-8.268 -3.062,3.566 -0.02,0 l 0.02,0 z m -11.24,3.163 c 4.139,0.138 -1.197,-7.719 -2.43,-4.852 0.695,1.298 0.953,4.409 2.43,4.852 z m -2.78,5.879 c 2.093,-1.922 -0.828,-4.59 -5.02,-4.747 0.168,3.213 4.043,3.119 4.3,4.917 -0.292,0.652 0.775,-0.506 0.72,-0.17 z m 73.4,16.78 c 3.24,-1.377 -5.33,-2.638 0,0 z m -1.5,5.12 c 0.49,-5.958 -10.74,-3.859 -13.18,-4.373 1.29,5.803 8.97,-0.199 12.4,4.061 l 0.78,0.232 0,0.08 z m -6.6,15.01 c 2.16,-4.08 -5.74,-6.73 -0.69,-0.28 0,0.69 0.51,0.47 0.69,0.28 z m -64.91,0.23 c 1.203,-2.47 9.622,-9.73 4.882,-9.59 -2.041,1.39 -3.142,5.26 -5.182,7.41 -0.366,0.77 -0.593,1.74 0.3,2.18 z m 61.68,3.55 c 2.15,-1.84 8.09,-0.96 1,-2.61 -2.64,-0.6 -3.27,6.2 -1,2.61 z m 5.11,0.79 c 5.23,-3.2 1.9,-11.31 -3.06,-13.05 -4.47,-2.53 -0.99,4.68 2.29,3.84 1.65,2.41 2.01,6.04 0,8.34 -5.51,-0.39 -1,3.1 0.75,0.87 z m -13.75,2.05 c 9.73,0.32 -1.36,-5.82 -2.84,0.24 0.94,-0.1 1.94,-0.21 2.84,-0.24 z m 115.93,-8.37 c -1.77,-0 2.88,-2.71 0,0 z m -3.49,6.98 c -0.24,4.71 -0.67,-2.92 0.11,-4.46 1.82,-3.64 0.3,4.7 -0.11,4.46 z m 0.73,3.32 c 1,-2.8 1.14,-6.19 4.02,-8.1 3.97,-3.41 9.85,-2.5 14.03,0.12 3.45,-1.61 -8.66,-11.03 -13.41,-7.43 -5.39,0.84 5.68,-2.93 -2.39,-1.69 -4.2,1.54 -8.06,6.65 -5.61,11.2 0.22,3.01 1.86,5.38 3.36,5.9 z m -86.02,2.07 c 6.51,-0.81 -4.92,-3.59 0,0 z m 4.44,0.75 c 3.08,-1.96 -1.32,-5.17 0,0 z m -7.54,0 c 1.42,-1.41 -2.59,-11.36 -2.63,-4.55 -0.31,1.77 0.63,4.36 2.63,4.55 z m -14.75,1.56 c 3.49,0.47 7.63,-1.41 9.06,-4.53 0.91,-2.7 3.51,-4.87 2.99,-8.51 -0.86,-2.51 -1.74,-5.35 -1.92,-8.27 -1.5,-3.05 -5.4,-4.12 -8.16,-4.77 1.26,-1.69 5.78,0.58 7.48,2.31 3.04,1.67 1.52,6.31 4.21,7.93 0.25,-1.96 0.99,-5.61 -1.04,-8.05 -2.52,-5.625 -0.88,2.19 -4.65,-3.22 -2.22,-2.805 -10.42,-3.074 -10.08,1.03 -0.1,3.96 4.98,1.89 6.68,4.59 3.2,2.42 4.78,6.94 2.68,10.59 3.05,1.33 1.04,5.15 -1.1,7.4 -2.01,3.24 -7.48,3.54 -9.4,0.36 2.43,1.41 6.72,1.43 9.25,-1.35 2.88,-5.39 -4.07,1.45 -6.61,-1.29 -2.44,-2.97 -5.59,-1.2 -3.39,1.44 -2.89,0.74 0.65,5.61 3.07,4.3 -0.1,0.4 0.97,-0.33 0.93,0 z m 18.53,0.7 c 5.29,-1.88 -4.88,-1.04 0.13,-0.17 l -0.13,0.17 z m 80.42,0.39 c 1.89,-2.02 2.76,-6.03 0.73,-8.49 -0.1,-6.57 -3.23,-3.94 -0.92,0.48 1.8,1.98 -1.42,7.48 0.19,8.01 z m -1.53,2.31 c 3.36,-2.45 -2.86,-0 0,0 z m 1.68,2.33 c 5.07,-0.41 4.55,-9.36 0.51,-2.68 -1.31,0.61 -3.34,2.44 -0.51,2.68 z m 3.85,11.17 c 4.2,-2.8 7.66,-6.79 6.86,-12.23 -0.89,-5.44 -5.44,-0.4 -6.66,2.29 -6.31,0.31 -2.63,7.42 -0.2,10.16 l 0,-0.22 z m 19.68,9.58 c -0.83,-1 1.07,-7.48 -1.83,-7.12 -2.92,2.84 -2.06,6.3 1.83,7.12 z m -150.86,5.04 c 2.325,-2.14 -1.875,-1.9 0,0 z m 5.26,0.73 c 1.089,-2.83 0.499,-6.13 -0.64,-1.01 0.212,0.62 -0.556,2.29 0.64,1.01 z m -6.8,1.17 c 1.693,-2.8 0.514,-7.61 0.85,-11.19 -4.218,-0.87 0.528,-7.89 -3.26,-9.19 -2.211,2.58 2.312,3.59 -1.24,4.57 0.924,4.28 -0.819,10.49 2.702,13.32 0.441,0.51 0.527,2.44 0.948,2.49 z m 5.02,0.58 c 1.061,-2.34 -2.02,-0.43 0,0 z m 5.47,5.96 c 2.46,-3.3 -3.257,-4.45 0,0 z m 144.8,1.89 c 0.44,-2.03 -3.8,-8.31 -5.49,-6.76 0.61,2.85 3.62,4.7 5.49,6.76 z m -152.98,0 c 3.442,0.73 -2.025,-8.76 -3.544,-4.76 -0.617,2.1 2.147,4.87 3.544,4.76 z m 6.11,1.06 c 3.21,-1.55 -4.055,-9.7 -5.313,-6.68 1.197,3.17 2.548,4.56 4.613,6.83 0.231,0.3 0.469,-0.43 0.7,-0.15 z m 11.24,0.47 c 1.86,-3.06 -2.97,-4.63 0,0 z m -20.34,0 c 1.124,-1.97 -3.199,-1.76 0,0 z M 192.49,174 c -1.9,-2.25 -5.78,-6.8 -8.79,-4.87 2.65,1.72 5.81,3.48 8.79,4.87 z m 56.1,8.53 c 2.94,-5.57 -7.35,-3.51 0,0 z m -55.97,0.73 c -0.1,-3.02 -8.1,-5.49 -11.5,-7.61 1.63,-1.6 10.83,5.1 14.64,7.28 2.54,-2.07 -7.33,-6.19 -9.69,-8.03 -2.04,-2.5 6.54,2.45 7.86,3.98 3.58,2.95 2.38,-4.11 1.01,-1.35 -5.5,-3.97 -12.33,-9.35 -18.72,-9.76 -0.81,3.14 5.25,3.35 7.36,5.23 -2.29,-0.57 -11.11,-3.04 -5,0.46 4.32,1.77 -4.95,0.95 1.02,2.85 4.29,2.02 9.4,4.92 13.02,6.95 z m 2.86,1.92 c 1.26,-2.91 -4.22,-0.81 0,0 l 0,-0 z m 51.89,1.2 c 4.09,-3 -2.58,-0.84 0,0 z m 1.3,2.69 c 0.29,-3.57 -1.55,1.06 0,0 z m -15.4,4.15 c 0.37,-7.69 -0.73,2.62 0,0 z m 2.69,2.11 c 1.67,-4.26 5.95,-3.6 2.8,-0.13 3.79,0.33 3.12,-5.48 1.86,-7.66 -1.1,-3.16 -4.01,-5.02 -6.2,-7.38 -3.42,1.72 -6.39,-2.37 -9.19,-2.23 0.36,3.51 5.27,6.31 8.1,8.53 4.44,1.16 0.99,8.57 2.4,9.5 -0.69,0 0.64,-0.58 0.23,-0.63 z m -48.88,-11.69 c -7.49,-2.36 -3.51,-4.25 -0,-0.36 1.23,0.1 -0,0.71 0,0.36 z m 4.42,4.66 c -4.81,-1.75 1.58,-0.75 0,0 z m 7.4,8.83 c 1.06,-2.36 -2.57,-4.87 -1.79,-6.52 -5.39,-4.37 -4.89,-4.12 -0.13,-2.2 -3.42,-5.23 -12.72,-8.06 -18.88,-10.88 1.51,2.56 5.13,2.94 1.05,3.59 3.04,2.21 6.39,3.86 9.88,5.41 -2.44,3.14 6.96,5.8 8.79,9.26 0.1,0.19 1.27,2.15 1.08,1.34 z m 41.78,1.15 c 3.76,-0.53 5,-5.26 4.47,-8.65 -0,-4.15 -2.24,-5.42 0.62,-6.6 -2.74,-2.83 -5.2,-5.93 -9.29,-6.69 -2.29,-0.92 -6.39,-4.49 -4.73,-6.48 1.85,1.79 3.7,5 6.74,5.9 4.76,3.74 7.82,3.36 2.96,-1.1 -5.81,-1.77 -10.1,-7.12 -9.49,-13.33 2.64,2.34 1.59,7.7 5.2,9.91 2.83,2.03 10.64,8.29 6.74,1.62 -4.55,-4.53 -10.69,-9.81 -9.46,-16.93 0.46,-7.06 6.58,-10.04 8.64,-16.22 2.67,-5.46 1.26,-11.67 -0.74,-16.88 -3.9,-2.39 -6.91,-7.51 -1.06,-3.12 3.54,5.89 5.65,2.84 2.07,-1.1 -2.69,-3.27 -7.72,-4 -11.63,-3.42 -3.87,2.08 -6.95,5.91 -7.05,10.45 2.28,-0.67 3.73,-3.63 6.73,-3.02 2.97,0.36 5.01,2.69 6.72,4.98 -1.39,3.36 -3.29,-2.83 -5.65,-2.79 -2.48,-1.63 -6.44,0.1 -7.39,2.66 -0.36,2.3 4.4,-0.9 6.52,-0.51 3.28,2.05 2.26,5.92 0.77,5.1 0.22,3.83 0.34,8.39 -3.61,10.41 -2.23,1.29 -7.37,8.33 -5.33,8.39 2.73,-1.05 -2.23,4.81 -1.51,6.95 -1.54,5.28 -0.45,11.3 2.49,15.83 1.94,3.1 5.3,3.57 8.26,5.08 -0.79,-3.92 -7.05,-3.87 -7.99,-8.22 -2.33,-3.4 -1.67,-7.76 -1.5,-11.78 0.86,-5.52 4.85,-9.71 8.38,-13.81 -0.57,-4.26 3.65,-7.31 3.19,-11.71 2,0.17 0.45,5.15 -0.54,7.08 2.26,3.82 -6.05,8.62 -7.61,12.54 -2.89,4.6 -2.81,10.33 -1.97,15.41 2.3,6.04 3.13,1.95 1.12,-2.34 0.14,-5.22 1.28,-10.86 4.67,-14.92 3.97,-2.06 4.89,-7.26 7.59,-10.64 1.53,-1.99 1.92,-11.21 3.65,-7.37 -1.46,7.6 -6.94,13.49 -10.18,20.39 -1.77,2.75 -1.32,6.81 -2.32,9.35 -1.82,-0.74 0.55,-7.57 -1.21,-4.22 -1.05,6.01 -1.06,12.95 4.14,17.21 2.21,3.65 9.55,4.43 10.09,7.37 -2.62,2.74 3.89,8.53 -0.1,12 -0.55,2.06 -5.81,2.7 -1.44,3.22 z m 4.11,1.92 c 1.73,-2.91 3.93,-7.24 2.78,-11.07 -1.2,-0.58 -2.99,9.34 -2.78,11.07 z M 87.74,173.53 c -3.67,-1.26 -4.421,-6.39 -0.174,-0.55 1.082,-0.41 -0,1.04 0.174,0.55 z m -23.08,2.48 c 0.04,-1.14 3.194,-5.03 5.077,-2.69 4.874,0 -4.966,2.97 -5.077,2.69 z m 0.64,37.38 c 6.285,-2.81 -6.102,-4.62 -3.117,-10.17 0.877,-2.64 2.639,-5.28 1.979,-8.69 -0.01,-5.18 0.75,-10.49 1.762,-15.42 2.602,-1.38 5.803,-3.93 9.003,-3.78 3.072,1.72 11.345,-0.23 4.653,-0.77 -3.722,-4.8 6.271,0.69 4.586,-0.44 -4.841,-7.13 2.173,2.09 5.408,0.12 1.88,-1.36 -5.861,-5.92 -2.104,-5.86 1.122,-8.26 -6.748,-2.67 -10.71,-1.47 -4.869,3.81 -16.396,2.43 -15.693,10.86 -0.219,8.29 -0.992,16.6 -2.627,24.68 0.533,3.59 3.682,10.13 6.86,10.94 z m 3.96,4.49 c 1.078,-1.44 -0.297,-7.32 -3.19,-4 -1.345,2.07 1.861,3.19 3.19,4 z m 126.58,-17.29 c -4.25,-5.6 3.25,2.3 -1.25,-4.34 -6.51,-6.6 7.41,2.27 1.25,4.34 l 0,0 z m -19.79,34.54 c 2.29,-2.29 7.07,-1.04 7.72,-5.04 3.45,-11.31 9.83,-21.45 15.02,-32 -3.31,-2.82 -5.85,-6.7 -9.83,-8.59 -0.25,3.01 3.27,6.89 2.18,10.66 -3.09,11.48 -7.67,23.21 -16.21,31.75 -4.9,0.66 -2.09,6.34 1.12,3.22 z M 99.18,70.731 c -6.869,4.828 4.69,-6.006 0,0 z m -25.46,3.312 c -3.055,-1.658 5.752,-1.34 6.27,-4.125 1.146,-2.493 2.344,2.736 3.29,2.886 -2.536,1.38 -6.697,0.377 -9.56,1.239 z m 20.63,0.919 c -2.556,-1.864 3.878,-2.569 0,0 z m 6.13,11.048 c -4.299,-3.512 3.31,-2.367 -0.15,0.04 l 0.15,-0.04 z m 2.89,4.96 c -3.27,-2.46 2.13,-2.016 0,0.15 l 0,-0.15 z M 67.18,87.25 c 6.425,-2.584 -2.75,-3.611 0,0 z m -1.6,3.85 c -0.406,-2.49 -3.38,-6.616 -0.09,-8.697 1.988,0.71 0.285,2.602 4.569,1.13 4.948,-1.044 5.255,4.351 0.376,5.344 -1.801,0.469 -3.318,1.045 -4.852,2.223 z m 0.62,1.92 c -3.072,-1.567 2.369,-0.732 0,0 z m 4.25,0.39 c -4.532,-0.164 0.958,-3.718 2.29,-1.33 0.866,1.163 -1.691,1.515 -2.29,1.33 z m 35.22,1.02 c -2.51,0.487 -0.63,-6.656 1.03,-3.31 -0.45,0.831 -0,3.397 -1.03,3.31 z m 1.35,2.8 c -2.99,-3.324 4.33,-5.946 0,0 z m 1.22,4.19 c -3.95,0.48 1.79,-5.758 0.73,-0.39 0,0.28 -0.6,0.19 -0.73,0.39 z m 0.85,3.04 c -3.91,-1.18 3.74,-2.44 -0.19,0.19 l 0.19,-0.19 z m -52.23,2.69 c -4.19,1.21 -0.442,-5.47 0.79,-0.34 -0.305,-0.1 -0.486,0.4 -0.79,0.34 z m 51.76,2.01 c -3.69,-2.87 6.45,-5.28 0.96,-0.35 -0.12,0.54 -0.6,0.33 -0.96,0.35 z m 1.26,3.05 c -3.23,-2.31 5.37,-4.39 0.58,0 l -0.55,0 -0,0 0,0 z m -0.38,3.85 c -1.76,-4.15 5.26,-2.43 0,0 z m -7.37,1.09 c -2.07,-1.84 2.26,-2.03 0,0 z m -1.18,8.83 c -1.741,0 2.31,-2.41 0,0 z m 11.82,9.68 c -2.54,-1.9 3.93,-2.54 0,0 l 0,0 z m -6.37,8.08 c -1.92,-1.56 0.75,-4.03 2.35,-5.81 6.63,-2.97 -0.85,3.26 -1.92,5.83 l -0.54,0 0.11,-0 z m 35.33,11.05 c -3.93,-1.28 3.74,-2.23 -0.19,-0 l 0.19,0 z m -9.15,3.16 c -3.42,-1.25 1.58,-2.75 2.33,-3.89 5.24,-1.16 5.59,0.99 1.63,2.87 -2.08,-0.88 -2.54,1.49 -3.96,1.02 z m 41.74,2.67 c -6.63,-2.45 2.11,-2.97 0,0 z m -9.27,1.24 c -4.72,-0.56 0.52,-1.69 1.38,-2.72 2.02,-1.76 8.52,2.2 2.91,1.38 -2.13,-0.73 -2.86,0.19 -4.29,1.34 z m -56.04,1.84 c -3.03,-1.26 3.23,-3.33 0,0 z m 39.02,0.9 c -5.94,-0.78 2.86,-3.93 0,0 z m -23.08,0.21 c -7.38,0.52 5.77,-1.81 -0.96,-2.61 0.88,-2.01 10.25,-0.19 3.71,2.4 -0.66,0.26 -2.09,0.47 -2.75,0.21 z m -11.71,3.53 c -2.38,-1.63 1.58,-1.51 0,0 z m -11.52,40.88 c -1.3,-1.63 0.64,-9.57 2.39,-10.53 2.5,3.37 -2.67,6 -2.05,9.2 -0.16,0.41 0.35,1.28 -0.34,1.33 z M 87.55,236.3 c 3.002,-3.03 6.703,-3.34 9.64,-5.01 2.396,-6.57 4.14,-13.97 6.38,-20.8 2.65,-8.05 5.19,-16.42 7.67,-24.38 -0.79,-3.41 3.09,-5.65 1.35,-8.69 -2.09,-2.78 0.61,-6.08 -2.11,-3.23 -2.51,0.33 -2.07,-6.51 -2.88,-3.42 1.74,4.13 -5.07,-1.27 -1.25,-0.68 1.14,-3.9 -3.83,-5.94 -0.17,-9.65 3.3,-0.66 -2.4,5.24 1.1,6.69 1.84,1.66 4.04,-2.22 3.78,2.36 1.09,3.26 3.81,-0.46 4.55,-2.16 2.37,0.21 -1.8,5.9 -1.75,5.45 0.72,3.89 -1.49,6.96 2.29,3.01 2.02,-3.16 2.27,-6.82 1.32,-10.34 0.18,-4.37 4.56,-7.66 4.04,-11.73 2.95,-1.13 6.24,4.49 8.31,0.85 1.89,4.13 -1.89,3.83 -4.78,2.76 -3.65,-1.59 -4,8.06 -4.19,7.63 -3.57,3.41 2.89,1 4.39,2.89 3.57,-0.1 3.02,-1.32 7.32,-1.1 2.22,-1.57 3.41,-1.07 7.33,-1.98 3.5,-1.91 4.27,3.91 9.02,2.46 0.88,2.97 -6.12,-0.73 -8.27,-0.53 -4.22,-0.3 -4.17,0.77 -3.91,1.66 -3.94,0.6 -5.21,1.79 -8.12,1.69 5.56,2.41 -2.14,0.79 -3.1,-1.5 -2.91,2 -6.55,-0.47 -2.65,3.24 0.41,3.46 5.87,0.77 7.54,1.79 6.29,0.22 -2.84,-2.76 4.26,-1.12 6.21,1.42 2.11,-1.71 -0.26,-2.56 3.15,0.44 6.26,1.97 9.44,1.47 0.63,-2.84 -7.08,-0.55 -5.56,-2.88 5.84,2.03 12.39,1.73 18.2,-0.69 6.84,-1.44 13.54,-4.93 20.65,-3.66 2.62,0.77 5.33,3.96 8.3,2.34 1.97,-2.04 3.8,1.5 0.66,-3.32 -3.36,0.36 -6.42,-2.62 -10.28,-2.39 -2.02,-3.09 3.94,-1.35 5.01,-1.94 2.59,-2.78 4.54,5.93 4.22,1.23 -0.72,-3.32 2.15,-6.31 -0.76,-8.35 0.17,-3.76 -5.9,-3.32 -4.02,-6.12 2.09,-2.85 4.29,1.3 5.39,2.17 1.64,1.75 1.78,4.25 3.31,6.64 -2.09,6.47 2.28,12.57 4.72,18.32 7.24,4.66 14.66,9.06 22.14,13.37 4.84,2.58 11.3,5.67 11.27,12.04 0.89,10.91 3.16,22.39 -1.07,32.91 -2.1,1.22 -6.15,6.26 -1.38,5.28 2.07,-3.4 7.09,-3.02 8.24,-6.94 -1.06,-7.4 -0.99,-15.12 -1.13,-22.66 -1.33,-3.18 -0.21,-7.39 -0.58,-10.98 0.58,-2.77 -3.41,-7.89 2.22,-5.41 -1.79,-2.66 -5.86,-3.63 -7.63,-6.41 -1.84,-5.96 -11.19,-10.98 -7.82,-17.04 2.71,-8.15 1.94,-17.03 0.94,-25.36 -2.1,-3.14 -2.84,-8.37 -7.16,-9 0.1,-3.08 -2.59,-3.37 -5.34,-4.53 -5.52,-1.98 -11.47,-2.9 -17.18,-4.23 -11.19,-0.45 -22.03,3.64 -33.25,2.71 -3.49,0.26 -7.43,-0.53 -10.63,0.4 -2.7,3.67 -8.08,5.36 -11.79,2.32 -2.81,-6.32 -5.67,1.5 -10.43,1.66 -3.08,0.31 -7.54,1.01 -8.75,-2.69 -0.1,-2.99 -5.28,-6.02 -6.2,-2.32 -0.25,2.19 2.88,3.78 1.56,5.35 -3.36,0.21 -4.43,-3.11 -3.86,-5.91 0.16,-3.3 3.19,-8.16 6.94,-6.4 3.77,2.76 6.93,-2.46 6.82,-5.55 -3.09,-12.32 -6.13,-27.076 -18.49,-33.489 -6.088,-1.618 -2.644,-5.919 0.88,-1.911 3.88,2.494 6.81,7.151 11.93,5.88 -5.19,1.37 -1.5,4.022 2.35,2.666 5.31,-0.14 -1.43,1.344 -1.5,2.674 2.91,-0.659 9.27,1.888 3.3,1.963 -5.69,-1.994 -2.71,3.6 0.89,4.08 2.96,0.621 6.21,-0.234 9.02,1.397 2.63,-2.265 -3.5,-6.56 1.45,-5 5,-2.243 -5.48,-1.965 -4.34,-6.5 -5.48,-1.818 -0.1,-2.776 -3.35,-3.65 -2.96,-0.779 -1.21,-5.119 -5.75,-4.38 0.21,-2.372 -9.23,-1.711 -4.24,-3.664 1.74,1.098 8.39,-0.614 4.53,-1.704 -2.95,0.492 -5.58,-0.65 -8.39,-0.876 -3.8,1.749 -5.87,-3.649 -1.29,-1.838 6.18,0.335 4.27,-3.1 -0.88,-1.859 -2.79,-1.757 -5.12,2.204 -7.828,-0.129 -2.382,2.353 1.267,3.816 -3.702,5.45 -2.519,2.351 -2.716,1.722 -4.08,1.219 -3.268,2.186 -6.568,-1.455 -0.65,-1.432 2.759,-3.108 3.323,-4.21 4.476,-2.346 1.333,-3.844 11.924,-7.057 2.171,-5.014 -4.45,3.427 0.629,-0.826 -0.585,-1.766 -2.364,-0.222 -8.664,6.32 -6.623,1.858 6.441,-4.436 -1.492,-2.927 -5.309,-1.089 -3.606,1.538 -2.75,6.714 -5.79,7.545 -1.31,-2.4 5.245,-7.752 0.853,-6.121 -1.817,3.365 -2.33,-3.095 -4.643,2.552 -0.563,3.491 -2.106,6.209 -0.533,9.81 -3.592,1.875 -2.889,-3.445 -3.194,-5.648 0.455,-3.414 -6.259,-9.265 -3.884,-3.117 1.83,3.852 0.366,4.704 -3.119,5.517 -7.036,2.78 -1.543,2.883 -0.261,2.835 -0.992,2.528 -6.407,2.359 -5.889,4.777 4.414,1.496 7.237,-3.626 10.15,-6.22 4.159,1.792 2.405,1.799 -0.289,3.125 -2.856,3.492 -3.785,8.393 -4.071,12.855 -1.808,5.243 -3.591,10.84 -8.01,14.51 0.216,1.91 -1.047,8.4 2.15,5.2 0.254,-4.34 14.707,-10.01 9.988,-3.5 -4.137,0.7 -3.078,9.22 0.524,4.98 0.798,-4.82 4.384,-8.37 7.938,-11.53 -1.019,-2.037 -4.406,-1.23 -4.38,-3.898 3.017,-0.822 5.477,1.171 8.6,1.094 2.495,-0.129 4.624,-3.763 6.36,-3.266 -3.833,2.64 -1.055,3.986 0.85,0.3 2.226,-3.111 1.937,-7.658 0.79,-11.22 -1.838,-0.908 -4.34,-6.952 -1.338,-5.728 1.74,3.972 5.103,2.882 4.961,7.067 -1.045,4.876 0.787,10.34 0.515,13.261 2.445,3.55 -2.494,3.93 -1.722,-0.226 -2.603,-2.15 -5.898,3.016 -3.206,5.416 0.174,9.02 -0.346,18.09 0.26,27.08 0.756,2.01 1.735,12.54 4.66,8.89 3.151,-3.88 -0.608,2.46 0.19,4.38 -0.983,3.44 -0.225,8.25 0.803,1.24 -0.292,-4.07 3.45,-7.44 3.406,-10.89 3.073,-1.63 1.731,-4.36 4.401,-6.29 3.06,0.92 -1.338,3.99 -0.53,6.41 -5.872,4.83 -7.296,12.6 -6.331,19.72 -1.079,3.99 2.447,6.81 1.569,1.33 1.067,-1.37 5.452,-11.05 5.802,-7.19 -0.91,2.66 -7.309,9.9 -1.53,7.15 1.4,0.89 -1.552,5.15 1.32,3.66 -2.143,7.24 3.32,-1.02 1.16,4.83 1.25,4.91 2.31,-1.61 2.47,-3.58 1.12,-2.42 1.84,9.71 -0.1,9.54 -0.58,1.96 1.48,6.1 0.38,9.56 -0.62,14.04 -4.67,27.58 -8.12,41.11 -4.274,0.35 0.05,4.57 -2.817,6.97 -1.006,3.81 -5.987,5.66 -7.223,8.63 0.627,1.31 2.818,1.37 0.79,-0.49 z m 130.61,4.04 c 3.84,0.58 6.13,-3.92 1.73,-4.73 -1.88,-0.31 -6.36,6.59 -1.73,4.73 z m -52,0.43 c 4.71,1.17 9.22,-3.59 3.67,-5.96 -2.09,0.7 -5.68,3.23 -5.36,5.79 0.15,0.91 1.16,0.1 1.69,0.17 z m -83.03,0.57 c 7.419,2.79 2.884,-8.1 -0.184,-4.27 -1.939,1.83 -4.255,4.96 0.184,4.27 z m -1.2,2.18 c -2.354,0.96 -8.195,-0.2 -5.08,-3.17 3.839,-1.18 3.095,-6.55 7.134,-7.32 5.392,-1.75 7.169,-7.98 8.912,-12.83 4.8,-14.7 7.764,-29.93 9.274,-45.32 -3.152,0.1 -7.098,2.75 -11.179,2.18 -6.332,0.13 -13.063,2.57 -19.231,0.47 -4.526,1.76 -4.176,7.14 -5.248,11.08 -1.282,4.19 1.504,10.41 -2.41,13.29 -1.013,4.34 1.935,6.45 5.408,7.24 1.63,3.75 2.653,8.92 1.84,12.52 -3.445,3.38 -6.604,-4.09 -9.006,-6.03 -2.244,-6.49 -9.164,-11.85 -5.394,-19.64 2.67,-7.68 -0.386,-17.44 3.567,-24.1 2.83,-3.98 8.525,-2.57 12.263,-5.28 3.124,-4.17 16.071,-0.83 13.151,-7.65 -3.534,-7.12 -1.405,-15.16 -1.374,-22.59 -2.97,-5.91 -1.149,-12.69 -1.647,-19.05 0,-4.91 0,-9.81 0,-14.72 -3.263,-4.409 -8.027,-1.17 -10.38,2.54 -2.877,1.84 -3.426,4.97 -4.902,7.6 -1.625,3.93 -5.598,0.37 -7.997,3.02 -1.028,1.56 -5.032,5.71 -4.819,1.57 3.528,-5.85 -1.336,-3.07 -3.532,-4.96 0.597,-2.88 -1.388,-6.91 1.39,-8.83 1.773,-3.815 12.691,-15.198 4.118,-16.559 -1.342,-0.682 6.01,-4.401 0.366,-4.652 -2.352,-0.275 -6.98,-2.599 -6.254,-4.719 4.432,0.05 -2.195,-3.301 -0.812,-6.195 -0.42,-2.927 4.374,-6.093 3.222,-1.189 0.01,3.499 5.718,3.545 2.738,-0.193 -0.608,-2.44 -1.827,-5.898 -0.218,-8.043 2.882,-0.965 4.631,7.848 6.46,3.847 -0.258,-5.593 4.416,-6.132 5.77,-1.418 2.518,2.054 6.784,-6.155 11.39,-3.946 2.508,-1.55 6.019,-1.301 8.19,-1.389 -2.292,-3.777 3.581,-3.476 5.04,-1.262 -0.501,5.076 5.545,0.651 8.05,3.456 2.25,0.539 8.77,5.786 9.03,1.096 -0.66,-3.737 5.85,-1.282 4.31,1.679 -3.65,5.277 3.04,6.807 3.55,1.947 0.52,-4.124 4.08,0.527 3.96,2.867 0.1,2.791 -4.8,6.347 0.35,6.771 2.99,-4.526 5.47,1.158 2.98,3.342 1.45,2.552 2.37,5.592 3.74,8.175 3.97,1.329 0.12,-3.769 2.2,-5.185 4.07,-0.08 3.59,4.718 3.46,7.63 -3.52,2.109 -0.38,4.167 0.54,6.5 1.27,5.38 0,11.59 2.97,16.44 5,0.7 -0.28,-3.26 2.82,-4.56 3.91,0.24 3.31,5.52 0.69,7.26 -2.49,2.26 -8.85,0.54 -4.69,5.44 2.21,2.28 6.05,-0.61 8.37,2.5 7.92,-0.43 16.07,0.47 23.86,-1.05 10.78,-2.14 22.21,-2.39 32.83,0.69 4.4,2.24 9.01,4 13.48,6.07 3.7,-1.41 1.73,-5.39 0.54,-7.96 0.1,-3.89 -0.75,-8.01 2.13,-11.12 2.63,-4.52 8.57,-6.14 13.57,-5.59 2.94,0.14 5.43,2.01 8.59,1.26 3.93,-3.59 -4.47,-0.45 -2.33,-3.47 2.5,-3.94 6.75,0 5.74,3.57 -1.85,3.07 -0.95,5.63 1.25,8.51 3.73,7.64 3.13,16.57 1.85,24.73 -0.7,3.64 -4.58,8.76 -0.25,11.33 -2.9,4.65 4.25,-0.26 2.45,4.15 -2.59,1.88 -5.95,2.87 -8.96,1.78 -4.58,-2.48 0.37,5.29 2.86,6.01 4.55,2.92 5.67,8.67 7.1,13.47 -0.24,4.82 -0.53,9.7 0.13,14.41 0.1,4.23 -2.51,7.55 -3.63,11.47 1.02,2.15 5.18,2.6 0.77,4.26 -5.56,1.12 -1.93,-8.72 -6,-5.66 -2.79,2.54 -6.34,-5.48 -6.53,-1.77 -0.8,10.46 -0,21.14 0.32,31.47 -0.96,3.49 -5.02,3.82 -7.62,5.05 -2,6.81 -9.18,7.97 -15.77,8.22 -0.94,-3.82 4.67,-6.36 6.35,-9.81 2.45,-1.49 6.12,-2.12 6.11,-5.9 2.62,-10.32 1.7,-21.34 -0.24,-31.69 -5.13,-7.27 -14.42,-9.31 -20.95,-15.03 -4.08,-4.24 -5.17,1.46 -4.26,4.66 0.45,4.3 3.93,7.94 2.57,12.28 -5.94,11.78 -12.6,23.36 -16.54,36 -2.95,3.25 -9.65,1.56 -10.32,6.88 -4.17,3.56 -9.81,2.49 -14.83,2.21 -0.64,-3.81 5.31,-5.78 6.71,-9.45 4.55,-2.15 9.8,-3.48 11.32,-8.98 5.15,-8.42 9.53,-17.81 10.74,-27.64 -0.57,-4.08 -5.12,-6.08 -7.47,-9.22 -3.94,-2.85 -4.69,-7.69 -7.03,-11.72 -0.59,-3.24 0.83,-10.17 -4.29,-9.03 -10.92,1.84 -21.25,6.06 -32.23,7.69 -6.16,1.86 -12.78,1.42 -19.17,1.47 -3.43,4.48 -3.48,10.71 -6.54,15.51 -1.28,3.31 -0.8,7.12 -2.83,10.23 -4.82,10.15 -5.08,21.99 -10.64,31.77 -5.094,1.39 -8.572,3.7 -10.006,9.07 -0.595,1.54 -7.69,1.36 -5.914,1.21 z"/></g>
</svg>
