<?xml version="1.0" encoding="UTF-8" standalone="no"?>
<!DOCTYPE svg PUBLIC "-//W3C//DTD SVG 1.1//EN" "http://www.w3.org/Graphics/SVG/1.1/DTD/svg11.dtd">
<svg xmlns="http://www.w3.org/2000/svg" width="300px" height="350px">
<g>
<path id="fill" d="m 83.125,104.94 c -3.918,2.11 -5.805,6.91 -10.219,8.37 -4.979,2.85 -9.846,6.44 -15.094,8.47 -2.137,0.24 -4.826,0.3 -5.406,2.84 -1.342,1.82 -2.622,4.33 -0.5,5.94 1.451,2.86 5.637,4.58 7.844,1.66 3.433,-3.1 8.623,-3.04 12.938,-2.5 3.648,1.7 7.734,0.26 11.531,0.66 3.997,1.03 7.695,3.21 9.625,6.96 2.409,4.02 4.704,8.25 8.436,10.97 1.8,1.89 -1,3.43 -2.749,3.31 -6.123,0.36 -11.984,2.51 -17.906,3.85 -7.015,1.78 -12.13,7.4 -18.144,11.17 -2.798,2.04 -6.047,3.89 -6.548,7.65 -1.096,3.22 -2.132,6.7 -2.464,9.9 3.982,0.3 6.371,-3.94 7.781,-7.03 1.226,-1.98 4.002,-1.98 4.929,-4.37 2.236,-2.99 5.127,-5.44 8.259,-7.32 2.114,-0.53 1.509,2.37 0.406,3.09 -3.528,4.04 -8.39,7.16 -11.313,11.69 -1.024,3.76 -3.349,7.1 -4.656,10.84 -1.206,2.49 2.588,2.27 3.906,1.38 1.895,-1.46 4.596,-2.14 5.25,-4.75 1.047,-2.61 4.509,-2.98 5.304,-5.91 1.307,-3.44 3.351,-6.73 6.821,-8.5 4.64,-3.69 10.217,-5.57 16.101,-5.93 7.963,-1.61 16.053,-2.37 24.123,-3.19 2.48,-0.37 5.1,-1.76 5.93,-4.38 7.33,0.1 14.85,0.48 21.7,-2.44 3.51,-0.9 6.56,-2.6 10.21,-2.87 5.08,-3.21 11.62,-5.94 17.67,-3.33 1.63,0.68 4.05,-0.12 4.64,2.02 4.41,6.61 11.6,13.22 20.35,12.37 3.28,0.13 7.2,2.01 7.28,5.72 -1.69,0.41 1.41,1.29 1.65,2.1 1.28,1.27 0.95,3.13 1.85,4.53 0.32,1.05 -0.72,2.67 -0.22,3.34 2.22,-0.81 0.65,0.61 0.5,1.59 0.67,1.75 3.15,2.38 3.22,4.57 2.17,3.51 7.3,3.28 10.18,6.2 1.59,1.58 4.15,2.01 5.25,-0.33 -1.96,-3.27 -3.33,-7.61 -7.21,-9.06 0.17,-5.07 -5.35,-7.81 -6.03,-12.69 -1.16,-3.78 -3.48,-7.2 -4.76,-10.84 0.85,-2.8 5.1,-1.34 6.57,0.22 3.36,3.69 5.36,8.52 7.87,12.78 1.59,4.66 4.16,8.94 7.53,12.4 0.43,4.68 5.83,5.84 8.88,8.29 2.05,-0 1.59,-3.06 0.53,-4.1 -0.51,-2.58 -0.86,-6.71 -4.28,-7 2.74,-3.57 0.32,-8.07 -3.16,-9.84 -4.56,-4.09 -5.61,-10.71 -7.84,-16.22 -1.26,-3.04 -2.74,-7.37 -6.84,-6.46 -3.65,-0.39 -8.25,0.81 -10.63,-2.7 -2.56,-2.95 -1.53,-7.21 -4.1,-10.18 -0.79,-0.94 -1.24,-4.45 0.76,-2.94 3.73,1.86 8.26,1.85 11.56,-0.75 6.79,-2.8 15.52,3.66 13.75,11.06 0.17,3.52 4.51,4.67 7.23,5.79 2.99,1.1 7.12,0.34 7.67,-3.26 0.24,-1.03 0.44,-2.61 -0.97,-1.84 -3.09,0.45 -5.53,-3.11 -3.74,-5.78 0.78,-3.48 -2.28,-6.66 -2,-10 -4.36,-1.73 -4.87,-7.46 -9.04,-9.66 -2.63,-1.49 -5.57,-2.23 -8.49,-2.88 -5.43,-0.27 -11.62,-1.27 -16.01,2.69 -2.83,3.49 -7.69,4.55 -11.96,3.35 -8.36,-6.53 -19.6,-3.57 -29.27,-2.47 -5.79,0.63 -11.58,2.46 -17.39,1.32 -4.14,-0.12 -8.36,0.38 -12.38,0.52 -1.66,-0.63 0.2,-3.63 -1.43,-3.81 -1.98,1.4 -3.5,4.82 -6.38,3.9 -1.18,-1.55 3.37,-4.17 0.22,-4.68 -2.05,-0.58 -2.74,-3.16 -1,-4.5 1.05,-0.23 1.87,-2.48 0.25,-1.82 -2.52,1.67 -5.66,2.53 -8.47,1 -1.23,-0.89 -4.07,0.24 -3.94,-2.06 0,-0.74 1.76,-3.62 0.1,-2.75 -1.17,1.56 -2.72,3.13 -4.78,2.53 -3.37,0 -6.59,-1.01 -9.79,-1.84 -0.13,-1.02 1.02,-3.13 0.1,-3.62 -1.26,1.2 -2.5,3.61 -4.784,2.9 -2.777,-1.77 -5.72,0.32 -8.625,0.53 0.829,-1.34 0.206,-4.11 -1.687,-3 -1.409,0.39 -3.138,3.48 -4.313,1.6 -0.292,-0.59 1.251,-2.88 -0.156,-2.47 z"/><path id="outline" d="m 79.5,112.32 c 4.358,-2.17 -2.969,-1.77 0,0 z m 3.21,1.15 c 4.329,-0.73 4.834,-8.04 0.72,-2.49 0.02,0.68 -1.7,1.74 -0.72,2.49 z m -8.39,5.73 c 4.185,-1.43 -1.743,-2.13 0,0 z m 51.45,1.48 c 5.53,-0.45 0.45,-2.71 -2.18,-1.86 -3.91,0.77 0.79,1.77 2.18,1.86 z m 92.94,2.55 c 2.14,0.63 5.53,-2.77 1.69,-2.33 -1.67,-0.19 -6.43,2.61 -2.46,2.28 0.2,0.18 0.64,-0.31 0.77,0 z m -8.27,1.04 c 2.5,-2.18 5.63,-3.68 8.17,-4.7 -1.77,-0.91 -4.78,0.63 -6.56,1.84 -0.58,0 -3.59,4.03 -1.61,2.86 z m -85.05,0.25 c 9.26,-0.16 -2.7,-5.19 -6.16,-3.34 0.14,1.36 4.64,2.55 6.16,3.34 z m 87.11,1.47 c 1.37,-2.68 -1.99,-0.16 0,0 z m -155.56,5.94 c 5.442,-0.57 2.973,-4.82 -0.367,-2.37 -0.877,0.67 -1.418,3.28 0.367,2.37 z m 151.01,0.58 c 3.62,-1.39 -4.92,-1.05 -3.04,-3.02 4.17,-0 8.55,0.26 12.15,-2.18 2.86,-1.87 13.04,-2.55 4.39,-4.01 -3.55,2.46 -8.32,2.21 -11.73,4.35 -1.84,1.49 -7.96,-1.47 -6.59,0.97 -1.73,-0.88 -3.12,3.23 1.35,2.28 1.12,0.47 2.43,1.21 3.47,1.61 z m 24.45,3.01 c 2.86,-1.31 -1.71,-3.46 -3.38,-4.22 -2.79,-1.27 -6.17,0 -9.2,-0.17 -1.33,1.12 -6.75,1.91 -5.19,3.39 4.21,0.79 7.75,-3.78 11.85,-1.68 2.94,-0.77 4.23,4.28 5.92,2.68 z m 9.83,2.36 c 0.94,-1.75 -2.55,-7.33 -4.65,-5.86 -2.51,2.09 2.4,2.38 2.92,4.26 0.52,0.59 1.02,1.22 1.73,1.6 z m -5.11,0 c 2.05,-2.42 -4.36,-5.58 -0.36,-5.97 0.84,-3.01 -3.33,-1.73 -4.46,-4.07 -1.97,-3.22 2.67,1.32 3.54,0.56 -0.41,-3 -5.54,-5.9 -8.84,-6.87 -3.71,-0.1 -0.5,3.3 1.72,2.85 3.07,2.02 -1.19,3.12 2.65,4.18 4.56,2.63 3.21,4.17 -0.45,0.75 -2.66,-1.31 -5.23,-1.26 -4.01,-3.29 -2.59,0.39 -5.25,-0.25 -7.33,1.07 -3.4,1.22 -6.5,3.27 -9.8,4.79 3.04,2.03 5.94,-2.33 9.18,-2.03 2.32,-0.69 3.48,-2.85 6.45,-1.55 3.41,2 7.96,2.96 9.73,6.87 0.63,0.87 1.39,2 1.98,2.71 z m -62.81,6.11 c 3.93,0.1 2.33,-2.05 -0.34,-3.55 -2.76,-0.88 0.49,4.12 0.34,3.55 z m 2.38,1.67 c 1.22,-2.07 -3.02,-0.21 0,0 z m 61.19,1.77 c 2.4,-1.65 -3,-8.26 -1.4,-5.78 0.12,1.67 0,5.15 1.4,5.78 z m -61.57,0.34 c 2.22,-1.34 -6.37,-3.67 -4.63,-1.11 1.63,-0.13 3.18,0.62 4.63,1.11 z m -4.93,0.27 c 0.61,-2.65 -7.73,-1.51 -1.21,-0.1 l 1.26,0.21 -0.1,-0.14 z m -4.05,0.53 c 2.88,-1.1 -6.08,-2.21 -0.39,0 l 0.39,0 z m 74.48,0.38 c 2.59,-1.7 -1.65,-4.64 -0.65,-7.25 0.54,-1.73 -1.64,-6.45 -2.9,-4.46 -0.36,3.67 0.49,7.34 2.1,10.58 0.45,0.28 0.84,1.41 1.45,1.13 z m -131.98,4.89 c 2.37,-2.06 -2.8,-5.39 -1.06,-0.53 0.11,1.06 0.59,0.19 1.06,0.53 z m -2.48,-0.32 c 0.51,-4.07 -4.34,-1.13 -0.1,0.1 l 0.1,-0.1 0,-0 z m -6.56,1.91 c 2.71,-1.97 -7.68,-2.31 0,0 z m -2.91,0.76 c 2.5,-0.93 -3.001,-0.97 0,0 z m 89.63,0.38 c 1.57,-1.64 -3.64,-1.57 0,0 z m -97.2,0.73 c 3.073,-0.18 -3.527,-0.69 0,0 z m 5.03,0.31 c 2.776,-1.16 -4.675,-3.53 -3.363,-1.23 0.993,0.3 2.654,1.6 3.363,1.23 z m -6.56,1.6 c 2.361,-2.04 -8.388,-2.84 -0.951,-0.24 l 0.951,0.17 0,0.1 z m -4.4,0.76 c 1.813,-3.34 -6.989,-1.77 0,0 z m 108.7,0.42 c -0,-2.48 -5.57,-1 0,0.1 l 0,-0.1 z m 14.41,2.4 c 4.1,-1.38 -2.37,-2.83 -3.84,-1.55 -0.1,1.3 2.88,1.84 3.84,1.55 z m -5.56,0.62 c 4.86,-0.13 -7.14,-1.83 -2.89,-0.35 0.74,0.62 2.17,-0.17 2.89,0.35 z m 7.74,0.66 c 7.2,-2.16 -6.22,-0.62 -0.32,0 l 0.37,-0 -0.1,0 z m 4.69,5.75 c 2.36,-1.44 -4.37,-2.24 -0.38,-3.24 0.1,-2.48 -5.91,-2.43 -5.73,-0.16 3.36,0.41 3.44,0.86 2.24,2.16 1.13,0.56 2.9,1.2 3.87,1.24 z m -153.68,5.26 c 1.189,-3.23 4.241,0.85 4.75,-2.78 2.197,-4.5 7.112,-7.23 10.87,-10.46 1.379,0.42 4.268,-1.63 4.373,-2.55 -1.839,-2.67 -4.823,1.34 -6.303,2.65 -4.752,3.17 -9.737,6.42 -14.004,10.12 -1.323,1.98 -2.811,6.82 0.354,3.04 l -0.04,-0 z m 156.66,2.4 c 3.13,-1.41 -3.38,-2.75 -2.55,-3.44 4.66,-0.41 -1.54,-0.6 -0.64,-3.11 -2.85,-2.46 -1.43,0.1 -1.21,1.54 -0.8,3.43 2.2,4.06 4.22,4.74 l 0.2,-0.1 -0,0.34 z m -160.21,4.29 c 4.307,-0.43 0.911,-6.39 -0.27,-2.49 -0.37,0.92 -0.748,1.8 0.27,2.49 z m 163.75,0.29 c 0.31,-2.48 -2.3,0.94 -0,0 l 0,-0 z M 93.13,114.61 c -3.685,0.2 -0.884,-2.64 1.409,-1.53 3.776,0.1 0.1,1.96 -1.409,1.53 z m 6.64,0.38 c -3.941,0.19 1.78,-3.32 1.32,-0.11 -0,0.29 -1.116,-0.1 -1.32,0.11 z m 5.82,2.68 c -0.21,-2.44 -6.077,0.29 -3.62,-2.35 2.67,-1.41 2.44,1.86 5.38,0.84 1.01,1.08 -0.79,1.64 -1.76,1.51 z m 3.52,1.53 c -4.54,-1.18 4.84,-2.85 0.64,0 l -0.44,0 -0.2,0 0,0 z m 4.5,1.89 c -3.82,-1.73 4.91,-1.5 0,0 l 0,0 z m -2.21,10.69 c -0.84,-1.51 -1.09,-4.43 -0.28,-5.68 2.17,-1.8 2.96,3.19 1.64,4.37 l -0.25,0.32 -1.11,0.99 0,0 z m 45.53,15.56 c -4.15,0.34 -0.25,-3.62 1.19,-0.68 0.36,1.08 -0.65,0.52 -1.19,0.68 z m -14.01,5.05 c -3.61,0.1 -0.76,-3.25 1.66,-1.91 2.04,1.02 -0.29,2.31 -1.66,1.91 z m -24.96,5.71 c -1.88,-0.97 2.83,-4.43 3.76,-3.12 -0.55,1.78 -2.2,2.59 -3.76,3.12 z m -17.74,5.35 c -3.679,-2.13 2.7,-1.1 0,0 z M 65.9,187.1 c 1.901,-1.02 1.114,-6.43 4.639,-6.1 0.802,4.25 3.916,-5.13 5.869,-6.14 2.47,-2.33 5.655,-4.33 8.154,-6.51 4.876,-1.76 9.933,-2.7 15.128,-2.92 3.9,-2.11 9.04,-1.4 13.35,-2.66 3.59,-1.59 8.55,0.62 11.19,-2.77 1.23,-3.75 1.63,-7.76 4.7,-10.51 1.06,-1.61 -0.21,-6.72 2.46,-4.26 1.21,4.07 4.64,0.1 6.38,2.64 -1.4,2.46 -8.07,-0.94 -5.55,2.42 1.41,0.4 7.63,1.06 6.14,2.61 -1.67,0.54 -6.34,-2.3 -5.5,0.91 5.59,4.82 -3.53,-1.65 -2.25,1.79 2.59,3.15 4.26,0.93 6.35,0.57 5.37,0.73 -3.31,-3.4 3.23,-1.11 3.79,0.98 7.62,0.57 11.02,-1.33 4.18,-1.27 7.29,-3.4 9.44,-4.46 -0.98,-1.83 6.99,2.02 3.35,-1.12 -2.36,-1.02 -7.8,-3.89 -2.28,-2.71 2.31,0.32 1.11,-3.5 3.79,-0.59 2.72,0.88 4.8,-3.6 6.62,-1.55 -0.65,-2.99 -5.17,-5.46 0.91,-4.24 2.76,0.9 -3.39,-2.93 1.44,-1.71 2.79,1.25 1.54,4.83 5.69,6.3 1.38,2.23 5.25,1.43 4.84,4.72 1.8,3.46 4.85,6.63 7.95,8.99 3.24,1.34 6.59,1.75 10.05,1.13 5.77,0 11.61,-2.24 17.25,-0.11 6.47,6.71 8.75,16.19 13.94,23.69 1.91,1.23 2.63,3.93 3.45,4.92 5.4,-0.97 -0.92,-5.49 -2.17,-8.12 0.93,-0.71 5.99,-0.99 0.28,-2.62 -3.43,-3.36 -4.17,-9.06 -6.54,-13.26 -1.75,-3.94 -2.36,-11.6 -8.32,-10.05 -3.9,0.33 -7.7,-0.36 -11.23,-2.1 -1.1,3.3 -5.25,1.67 -2.21,0.17 1.99,-1.1 -4.41,-4.9 -0.32,-3.98 -0,-1.31 -5.64,-3.28 -3.81,-6.53 -2.49,-3.36 2.71,-2.05 1.4,1.03 0.5,3.79 5.53,4.02 2.33,-1.07 -1.17,-4.96 -5.09,-8.8 -8.81,-12.05 -0.84,2.97 2.26,4.14 3,6.49 2.32,2.74 -3.49,1.2 -2.49,-1.18 -2.6,-0.93 -1,-4.15 -5.09,-3.61 1.35,-4.28 -8.26,-1.49 -6.69,-5.46 3.63,-0 6.81,2.26 10.45,1.87 -3.27,-3.33 -8.43,-3.31 -12.9,-3.69 -13.26,0.14 -26.21,3.97 -39.53,3.46 -6.94,-0.13 -14.04,0.33 -20.91,-0.15 -1.99,-1.86 -8.64,-2.16 -7.47,-4.6 4.55,-1.25 -0.9,-0.67 -0.1,-2.3 1.56,-1.56 5.53,0.69 6.15,-2.31 -0.51,-2.6 -4.64,-1.36 -6.74,-1.28 -2.43,-1.54 -6.11,2.05 -5.89,-2.07 -1.91,-1.56 -7.32,2.31 -6.04,-1.32 -2.92,1.18 -6.085,1.52 -4.88,-0.89 -3.076,-0.57 -7.296,1.81 -8.47,-0.39 -1.116,0.93 0.853,3.93 -3.89,3.12 0.633,1.97 -2.731,4.12 -4.26,2.52 2.264,-3.06 -1.527,-2.2 -3.194,-2.74 -3.863,0.45 -2.852,6.17 0.656,5.82 1.316,3.14 -2.493,1.59 -4.322,1.8 -1.987,-0.6 1.768,5.89 -2.769,3.86 -3.052,-0.43 -0.376,-4 0.289,-4.85 -3.213,1.01 -2.145,-0.78 0.19,-2.54 0.788,-3.8 -2.842,-1.14 -3.918,0.52 -4.629,2.1 -8.948,5.14 -13.972,6.23 1.822,2.79 -4.87,3.12 -1.691,4.31 2.764,0.89 3.776,-1.97 4.361,-3.1 3.592,1.42 4.945,2.9 8.938,1.68 3.072,-0.18 6.088,0 8.912,1.34 3.386,-0.19 7.409,-0.42 9.49,-3.51 -1.133,-1.33 1.409,-5.36 2.57,-3.81 0.397,1.4 4.355,1.56 1.014,3.97 -0.255,1.9 -1.761,4.4 1.673,5.2 7.417,3.88 8.55,13.4 15.183,18.05 2.32,-0.14 0.15,-4.51 0.67,-6.35 -2.06,-1.63 -0,-4.48 -0.1,-7.35 1.43,-3.56 -3.59,3.67 -1.83,-1.87 2,-3.88 -3.41,-2.08 -2.67,-5.82 -2.008,-0.51 -6.055,-5.94 -2.176,-5.41 1.286,3.14 4.856,0.82 4.486,4.97 3.25,-0.4 1.26,4.23 2.88,5.16 3.02,-0.17 -0.99,6.06 1.78,5.22 1.19,0.78 -2.19,8.5 -0.22,4.5 2.91,-1.98 2.37,-5.47 4.24,-7.68 2,-1.4 3.11,-4.88 5.86,-4.53 0.57,2.21 -2.27,4.05 -3.05,5.85 -3.05,2.3 -4.76,6.2 -6.57,9.57 -1.42,3.2 1.89,3.23 2.6,4.99 -0.1,1.64 0.22,6.98 2.22,4.09 0.76,1.1 5.22,-0.64 2.76,2.1 -1.35,1.19 -5.12,2.8 -5.09,-0.1 -8.49,1.08 -16.786,4.26 -24.861,6.61 -2.96,1.02 -4.977,3.19 -7.113,5.48 -4.117,4.43 -8.997,8.34 -13.015,12.76 -0.78,2.01 -2.522,5.66 -0.831,6.03 z m 154.56,1.04 c 2.73,-1.28 -2.44,-3.99 -1.08,-5.99 -1.13,-1.06 -4.34,-3.19 -1.15,-2.74 -4.85,-5.11 -3.82,2.36 -1,5.36 0.34,1.25 2.15,4.24 3.23,3.37 z m 21.24,1.97 c 2.85,-2.26 -2.51,-5.48 -2.79,-1.6 0.1,1.42 2.01,1.01 2.79,1.6 z m -178.73,0.42 c 5.68,-1.01 -1.349,-4.79 0,0 l 0,0 z m 164.62,0.73 c 2.27,-1.36 -4.63,-5.67 -4.35,-2.4 1.32,0.99 2.88,1.79 4.35,2.4 z m 1.67,4.24 c -2.69,-0.32 -4.54,-3.14 -7.28,-3.8 -2.42,-1.38 -5.82,-1.71 -6.53,-4.87 -0.38,-2.3 -4.29,-2.54 -2.57,-5.15 -2.83,0.64 0.83,-3.25 -1.56,-5.22 0.73,-3.79 -5.54,-4.52 -2.69,-5.53 -0.38,-3.66 -4.82,-5.09 -8.1,-4.85 -4.77,0.15 -9.16,-1.9 -12.68,-5.03 -2.91,-2.48 -5.63,-5.49 -7.51,-8.83 -3.72,-0 -7.02,-2.44 -10.75,-1.4 -3.07,0.32 -6,1.89 -8.76,3.15 -1.62,2.01 -4.63,0.77 -6.72,2.37 -5.24,1.35 -10.42,3.81 -15.8,3.97 -3.55,0 -7.11,0 -10.67,0 -1.97,4.88 -8.05,4.61 -12.42,5.04 -7.62,0.4 -15.13,2.32 -22.735,3.23 -5.473,0.74 -10.056,4.42 -14.332,7.54 -2.721,2.79 -3.077,7.53 -6.405,9.54 -2.906,0.9 -1.994,4.6 -5.213,5.5 -1.997,1.74 -4.845,3.41 -7.385,1.72 0.02,-4.17 3.606,-7.48 4.349,-11.58 1.826,-4.84 6.955,-7.3 10.021,-11.28 4.451,-3.38 3.299,-6.17 -0.53,-2.1 -3.235,1.76 -5.08,5 -7.4,7.61 -2.994,0.62 -3.423,2.76 -4.399,5.07 -1.836,2.04 -4.449,5.15 -7.451,3.85 0.916,-4.82 2.269,-9.77 4.198,-14.22 5.589,-4.5 11.714,-8.46 17.446,-12.77 6.229,-3.38 13.5,-3.92 20.186,-6.1 3.658,-0.11 10.55,-0.28 4.224,-4.45 -3.838,-3.88 -5.736,-9.48 -9.538,-13.33 -2.986,-1.38 -5.795,-3.59 -9.257,-2.67 -3.108,0.41 -6.14,0.25 -9.069,-0.94 -4.179,0 -9.028,-0.36 -12.157,2.92 -3.548,3.24 -6.92,0.24 -8.645,-2.6 -2.518,-2.16 0.723,-4.93 1.462,-7.26 1.856,-2.32 5.307,-0.83 7.463,-2.85 5.444,-2.5 10.217,-6.24 15.534,-8.88 2.404,-2.17 4.463,-5.19 7.112,-6.8 3.626,-1 -0.921,4.64 2.321,2.61 3.457,-3.49 5.656,-2.04 4.92,1.1 2.079,-0.23 4.338,-1.62 6.778,-1.04 1.606,1.27 3.912,0.9 4.962,-1.84 2.88,-1.92 1.53,2.1 1.5,3.3 2.92,0.76 6.64,1.89 9.83,1.68 2.63,0.97 3.52,-4.04 5.47,-2.39 0.13,1.62 -2.7,4.72 1.11,4.18 2.14,0.66 4.41,1.96 6.78,1.05 1.47,-0.64 4.99,-3.4 4.54,-0 -2.76,2.14 -3.48,3.94 0.95,5.36 0.71,1.85 -4.08,5.45 0.28,3.96 1.74,-0.85 2.4,-2.85 4.34,-3.88 2.73,0.42 -0.98,5.38 3.44,3.7 4.78,0.1 9.72,-0.9 14.35,0.25 9.83,-1.12 19.67,-3.2 29.55,-3.51 4.78,0.1 9.54,1.16 13.37,4.23 3.58,0.63 7.6,0.61 10.19,-2.36 2.98,-2.82 6.96,-4.58 11.1,-3.96 3.76,-0.1 7.48,-0.21 10.94,1.52 3.55,0.38 6.34,3.06 8.33,5.82 1.36,2.3 2.48,4.87 5.31,5.56 -0.79,3.96 3.28,7.24 1.55,11.15 -1.57,3.45 2.87,5.5 4.81,3.92 0.88,1.85 -0.14,5.05 -1.9,6.22 -1.93,1.49 -5.01,0.62 -7.24,0.17 -2.67,-1.53 -7.35,-2.79 -6.5,-6.81 0.52,-2.82 -0.82,-5.43 -2.56,-7.51 -3.39,-2.75 -8.2,-4.24 -12.1,-1.49 -3.4,2.24 -7.63,1.22 -11.08,-0.37 -0.61,2.19 2.46,4.58 2.54,7.11 0.32,3.39 1.78,6.27 4.89,7.73 3.52,0.14 7.03,0.28 10.55,0.43 2.82,2.46 3.82,5.79 5.05,9.22 1.5,4.48 3.04,9.26 6,12.96 4.04,2.39 6.9,5.86 4.38,10.37 3.04,0.53 3.49,4.71 4.03,7.24 2.14,2.58 0.11,6.74 -2.79,3.55 -3.15,-1.78 -7.37,-3.49 -7.63,-7.61 -3.82,-3.59 -6.17,-8.28 -7.81,-13.18 -2.86,-3.81 -4.3,-8.79 -7.78,-11.98 -1.29,-1.27 -5.76,-2.27 -5.34,0.27 2.42,4.21 4.24,8.69 5.84,13.25 1.58,3.13 5.13,5.7 4.9,9.4 3.98,1.69 5.21,6.05 7.36,9.46 -0.96,0.99 -1.64,2.14 -2.97,2.18 z"/></g>
</svg>
