<?xml version="1.0" encoding="UTF-8" standalone="no"?>
<!DOCTYPE svg PUBLIC "-//W3C//DTD SVG 1.1//EN" "http://www.w3.org/Graphics/SVG/1.1/DTD/svg11.dtd">
<svg xmlns="http://www.w3.org/2000/svg" width="300px" height="350px">
<g>
<path id="fill" d="m 189.09,50.55 c -5.54,0.69 -10.4,4.07 -15.78,5.4 -0.88,0.62 -3.74,1.96 -3.43,-0.1 0.23,-1.15 2.41,-3.84 0.28,-4.19 -11.81,6.99 -25.48,9.64 -38.54,13 -4.35,1.22 -8.06,3.79 -11.18,6.87 -2.48,1.81 -5.79,2.47 -8.28,0.29 -3.42,-1.87 -7.12,3.11 -10.35,0.94 -1.42,-1.73 0.35,-5.6 -2.872,-5.78 -2.092,-0.1 -3.784,1.35 -5.469,2.31 -1.566,1.79 -0.322,4.76 -1.031,6.47 -3.034,1.99 -6.951,-3.4 -3.469,-5.16 1.168,-0.17 2.247,-0.29 0.656,-0.81 -1.5,-0.7 -3.577,-0.39 -3.719,1.56 -0.789,1.63 0.379,5.22 -2.562,4.78 -2.566,0 -5.883,-1.95 -4.813,-5.06 0.451,-2.13 3.3,-2.51 4.657,-1.88 -1.094,-2.11 -4.254,-0.6 -5.75,0.32 -3.003,1.64 -2.361,6.06 0.374,7.75 1.027,1.11 3.334,1.07 2.25,2.96 -0.935,4.71 -6.635,4.37 -10.167,5.9 -2.78,1.04 -6.324,1.25 -8.645,2.89 -1.061,2.29 -4.548,3.7 -4.375,6.4 0.934,1.84 4.844,0.12 4.437,2.97 -0.38,1.8 -2.194,3.39 -2.187,5.16 2.69,0.16 5.735,-0.36 7.75,1.72 5.498,0.85 9.905,-5.41 15.563,-3.22 2.687,1.06 6.425,2.83 5.687,6.34 -0.368,7.29 -5.787,13.48 -4.813,20.97 -10e-4,7.2 1.888,14.34 2.75,21.34 -0.891,3.96 3.282,8.23 0.876,11.88 -2.077,1.77 -5.319,0.82 -7.594,2.47 -4.298,2.19 -8.438,5.25 -13.375,5.47 -3.63,1.7 -3.973,6.33 -2.683,9.7 1.405,7.28 0.728,14.77 1.495,22.08 0.8,2 0.825,4.92 2.281,6.4 4.206,2.36 3.519,8.57 7.638,11.23 1.825,1.55 3.128,3.8 4.644,5.4 2.794,-0.34 2.395,-4.33 2.718,-6.47 -0.08,-3.62 -1.083,-8.13 -4.937,-9.37 -2.996,-2.74 0.291,-7.35 -1.969,-10.54 -2.292,-6.19 -4.087,-12.91 -3.344,-19.53 3.131,-3.37 7.721,0.26 11.531,-0.74 5.692,-0.12 11.132,-1.87 16.563,-3.01 4.084,0.43 7.994,3.15 9.784,6.69 -1.65,10.22 -0.95,20.69 -2.72,30.87 -0.45,7.91 -3.24,15.63 -6.85,22.57 -1.415,2.51 -4.962,1.93 -6.558,4.47 -1.815,2.56 -4,4.78 -6.781,6 -1.279,2.01 2.203,3.58 3.813,3.53 2.226,-0.59 4.295,0.1 6.5,-1.16 3.346,-1.93 4.336,-6.98 8.566,-7.28 3.56,-2.19 2.77,-7.33 4.99,-10.58 5.53,-14.01 7.71,-28.96 12.75,-43.11 -0.13,-4.8 3.58,-9.17 8.51,-9.34 9.15,0 17.56,-4.34 26.29,-6.77 3.26,-0.61 6.63,-2.66 9.89,-1.95 4.13,2.42 1.61,8.04 1.13,11.72 -1.97,6.13 2.4,11.56 5.31,16.62 3.21,4.31 1.7,9.98 -0.96,14.13 -1.25,2.16 -2.45,4.35 -2.41,6.84 -1.37,2.49 -4.63,3.69 -4.88,6.91 -3.11,4.82 -6.18,10.8 -12.31,12.08 -4.08,2.54 -8.01,5.76 -10.97,9.39 3.05,1.78 6.78,-0.48 10.09,0.56 3.59,0.31 6.8,-1.85 8.25,-5.06 2.5,-2.67 8,0.55 9.22,-3.84 3.81,-7.29 7.29,-14.92 12.25,-21.44 2.5,-6.01 7.78,-10.03 11,-15.5 1.94,-4.06 -3.02,-7.23 -2.65,-11.41 0,-1.66 0.62,-3.22 1.59,-4.56 4.92,5.86 15.28,6.2 17.66,14.34 2.74,9.08 3.37,18.85 2.68,28.31 -0.42,5.26 -3.63,9.98 -8.71,11.79 -2.94,1.55 -5.5,4.03 -7.47,6.46 1.16,1.64 4.19,0.9 6.09,1.04 2.77,-0.63 6.25,0.88 8.06,-2.07 1.78,-2.14 0.78,-5.76 3.82,-7 2.61,-1.77 7.71,-1.81 7.09,-6.12 0.62,-8.72 -0.54,-17.51 0.81,-26.16 0.28,-3.95 -1.19,-7.88 -0.1,-11.69 -0.66,-4.73 -6.22,-6.53 -7.47,-10.96 -1.78,-2.89 -4.45,-5.61 -3.81,-9.32 0.11,-6.89 2.77,-13.56 2.68,-20.44 1.64,-3.31 6.43,1.15 8.32,-2.03 1.88,-3.06 0.82,1.97 -0.27,2.89 -2.64,4.24 -7.34,8.78 -5.83,14.24 1.78,0.6 0.34,1.65 -0.31,2.59 0.23,1.72 1.36,3.36 0.13,5.1 -0.62,1.12 -2.1,3.78 0.4,3.59 4.14,2.06 3.54,8.08 7.72,10.25 3.4,3.34 8.08,6.58 8.69,11.63 -0.5,4.98 -4.83,9.37 -3.5,14.46 0.4,2.1 3.47,3.58 4.44,1.16 1.01,-1.1 0.51,-3.21 -1.29,-2.22 -2.3,-2.83 1.68,-5.61 3.66,-7.22 3.61,-5.07 5.42,-11.29 5.03,-17.53 1.02,-3.89 0.99,-8.12 -1.34,-11.53 -1.33,-2.14 -0.29,-4.57 1.59,-5.88 0.96,-2.07 0.19,-4.78 0.22,-6.74 -1.11,0.91 -1.31,4.7 -3.34,3.09 -1.92,-2.44 -0.1,-6.02 0.34,-8.75 1.68,-5.61 3.72,-11.05 3.68,-16.97 1.03,-6.13 0.7,-12.33 -0.84,-18.34 0.14,-2.1 -2.26,-4.95 -0.53,-6.25 2.78,-1.82 1.97,-7.64 -1.87,-6.94 -0.99,0.74 1.18,2.56 0.19,3.69 -1.23,1.34 -3.8,-1.93 -5.38,-2.56 -2.76,-2.79 -6.33,-5.03 -10.47,-4.85 -8.03,-0.15 -16.06,6.13 -17.18,14.19 -0.81,4.84 2.47,9.02 6.65,11.1 2.3,1.09 4.61,5.43 1.31,6.71 -3.74,0.14 -5.8,-4.17 -9.37,-4.72 -5.33,-4.07 -11.57,-7.23 -18.28,-7.22 -3.25,-2.26 -5.93,-5.27 -9.44,-7.03 -0.52,-2.61 3.15,-1.69 4.66,-1.72 1.7,-0.1 2.24,-1.72 4.18,-1.12 3.42,-0.46 8.11,-0.94 9.6,-4.5 -0.77,-2.29 -5.81,-2.02 -4.88,-5.03 3.85,-3.66 11.24,-3.44 13.25,-9.07 -0.38,-2.94 -4.37,-1.52 -6.37,-1.93 -2.26,-0.21 -3.22,-1.21 -0.19,-1.44 5.66,-1.78 10.98,-5 14.88,-9.38 1.09,-1.38 0.75,-4.03 -1.57,-3.4 -1.42,0.2 -4.17,-1.12 -2.47,-2.6 4.13,-2.1 7.3,-5.72 11.4,-8.05 4.63,-2.7 8.36,-6.45 11.92,-10.23 0.9,-1.11 1.47,-3.65 -0.88,-3.15 -5.18,0.56 -7.83,7.33 -13.56,6.43 0.61,-1.24 3.38,-3.07 4.87,-4.54 2.77,-2.9 6.75,-5.52 7.38,-9.77 -0.55,-2.76 -4.24,-0.88 -5.8,-0.14 -7.39,2.87 -14.1,7.66 -21.83,9.42 -2.48,0.24 -1.54,-2.83 -0.46,-3.9 0.94,-1.96 3.36,-4.15 2.84,-6.22 -4.54,-1.81 -7.8,3.77 -11.94,4.72 -1.04,0.71 -3.18,0.19 -2.4,-1.35 0.61,-1.37 2.44,-4.64 -0.32,-4.68 l -0.47,0 z m 38,85.71 c 1.49,-0.28 3.67,1.99 1.44,2.57 -1.2,-0.58 -3.23,1.51 -3.56,-0.31 0.18,-1.15 0.79,-2.27 2.12,-2.26 z m -1.31,4.69 c 2.53,0.75 2.87,5.24 0.63,6.53 -1.17,-1.4 -0.79,-3.59 -1.38,-5.31 -0.1,-0.49 0.24,-1.18 0.75,-1.22 z"/><path id="outline" d="m 92.492,249.98 c -3.891,1.73 -10.017,-3.29 -4.131,-5.1 3.792,-2.06 4.535,-6.91 9.804,-7.74 2.535,-1.92 2.935,-4.88 4.405,-7.63 1.99,-5.63 4.03,-11.41 3.9,-17.4 2.01,-9.76 0.96,-19.96 2.73,-29.8 -2.01,-3.32 -6.25,-6.19 -10.027,-6.14 -5.969,1.96 -12.312,3.11 -18.705,3.13 -2.955,-0.14 -5.741,-2.11 -8.295,0.49 -0.408,6.97 1.351,13.87 3.935,20.25 1.543,3.34 -1.973,8.46 2.794,9.76 3.304,2.03 3.96,8.18 3.543,10.96 -0.39,1.56 -0.385,5.67 -3.747,5.03 -1.517,-2.8 -3.522,-4.6 -5.774,-6.93 -3.129,-2.97 -2.444,-8.48 -6.875,-10.03 -0.627,-3.45 -2.476,-6.71 -2.057,-10.5 -0.149,-7.23 -0.254,-14.61 -1.939,-21.62 -0.213,-2.85 1.764,-6.36 4.53,-6.83 6.689,-0.16 11.622,-6.79 18.64,-6.79 4.926,-1.46 -1.059,-9.16 0.468,-12.79 -1.68,-8.38 -3.412,-17.19 -2.727,-25.74 1.055,-6.36 5.514,-11.97 4.525,-18.62 -2.175,-2.18 -4.821,-3.89 -8.102,-3.76 -4.627,0.23 -8.345,4.84 -13.02,3.5 -2.256,-2.56 -5.728,-0.97 -7.78,-1.71 -0.534,-2.63 5.618,-7.43 -0.396,-6.98 -5.335,-2.1 1.984,-5.95 2.84,-8.71 3.614,-1.32 8.304,-2.28 12.249,-3.73 3.339,-0.78 5.979,-1.16 6.517,-5.52 -3.182,-1.13 -6.674,-5.27 -3.919,-8.69 1.498,-2.27 8.243,-4.55 7.874,-0.13 -4.948,-3.15 -7.111,4.35 -1.839,5.12 4.92,1.5 1.95,-2.03 3.83,-4.63 0.341,-3.99 9.215,0.3 3.673,0.27 -3.159,1.23 -0.06,6.03 2.821,4.35 -0.189,-2.55 -0.787,-6.71 2.884,-7.4 2.552,-2.41 7.039,-1.9 6.469,2.35 0.12,6.55 7.24,-1.54 11.05,1.33 4.08,2.4 4.71,0.71 8.07,-0.68 3.33,-4.19 8.56,-6.18 13.58,-7.49 8.54,-2.06 17.52,-4.01 25.53,-7.29 4,-1.58 6.99,-3.26 10.24,-4.98 5.03,0.59 -4.47,8.45 3.75,3.98 5.6,-1.11 10.53,-5.09 16.28,-5.14 4.7,1.42 -3.71,8.14 2.61,5.88 3.6,-1.18 8.37,-7.15 12.17,-4.2 0.99,2.96 -8.75,11.61 -1.37,9.43 8.06,-2.76 15.47,-7.62 23.4,-10.39 5.44,-0.4 2.43,5.56 0.16,7.37 -2.55,3.23 -5.84,5.65 -8.85,8.39 5.94,0.18 8.83,-8.56 14.66,-5.94 0.76,3.96 -3.89,5.73 -5.81,8.62 -4.82,4.35 -10.99,7.02 -15.46,11.71 -5.37,1.98 -3.6,3.22 0.81,3.3 2.66,1.62 -0.16,5.67 -2.43,6.78 -3.83,3.34 -8.37,5.89 -13.28,7.14 2.53,0.88 7.62,-1.07 7.87,2.63 -1.3,5.3 -9.2,6.17 -13.17,9.07 -2.12,2.88 8.55,2.76 3.33,7.34 -3.17,2.22 -6.93,2.69 -10.72,2.8 -1.16,2.4 -6.96,-0.55 -6.3,2.13 3.66,1.41 6.18,4.75 9.26,6.75 6.86,-0.18 12.94,3.27 18.32,7.2 2.95,0 8.69,7.95 10.27,3.13 -0.25,-4.36 -5.69,-5.12 -7.8,-8.35 -3.48,-4.52 -2.01,-11.8 2.01,-15.64 4.89,-6.28 14.85,-8.72 21.54,-4.2 2.25,2.36 5.41,4.4 7.56,5.56 1.22,-1.81 -2.84,-4.48 1.76,-4.19 3.61,1.32 3.36,6.39 0.18,8.26 1.19,3.78 1.58,6.96 2.27,10.66 1.42,5.95 -0.46,12.21 -0.44,18.3 -1.24,6.4 -4.42,12.71 -4.58,19.14 2.32,4.35 1.89,-3.02 4.38,-2.18 -0.51,2.93 1.35,6.87 -1.68,8.73 -2.93,2.92 2.37,6.58 1.63,10.73 0.37,2.69 -1.09,4.93 -0.53,7.8 0,5.3 -2.21,10.76 -4.92,14.99 -1.71,1.67 -5.93,4.22 -4.09,6.65 4.08,-1.16 1.35,5.59 -1.39,4.47 -4.63,-2.32 -2.52,-8.21 -0.68,-11.74 0.42,-2.54 2.84,-5.13 0.99,-8.11 -2.51,-4.69 -7.01,-7.78 -10.71,-11.44 -1.01,-2.13 -2.26,-6.53 -4.67,-7.47 -4.69,-0.55 1.57,-5.15 -0.62,-7.68 -1.22,-3.28 2.6,-2.69 0.18,-3.7 -2.48,-6.58 6.25,-13.7 6.9,-17.2 -2.23,3.58 -7.56,-1.19 -8.37,2.27 0.43,7.92 -3.73,15.71 -2.22,23.58 1.28,2.61 3.4,4.5 4.32,7.4 2.65,3.89 8.52,6.53 6.04,11.89 0.58,4.82 1.16,9.64 0,14.41 -0.24,7.73 0.49,15.64 -0.37,23.25 -2.06,3.17 -7.62,2.48 -9.32,6.54 -0.12,4.1 -3.04,7.54 -7.59,6.34 -3.04,0.66 -13.24,0.91 -6.93,-3.49 2.49,-3.35 6.25,-4.79 9.52,-6.77 4.01,-3.17 4.57,-7.71 4.99,-12.37 -0.12,-8.61 -0.41,-17.61 -3.24,-25.76 -2.8,-7.18 -12.03,-7.63 -16.88,-12.92 -2.91,4.64 0.47,8.38 2.13,12.43 0,4.85 -5.46,8.12 -7.67,12.26 -3.02,2.63 -3.49,6.85 -6.48,9.48 -3.84,6.38 -7.18,12.97 -10.5,19.58 -2.05,2.75 -7.12,0 -9.01,3.07 -1.73,3.92 -5.74,5.11 -9.67,4.53 -2.99,-0.66 -7.31,1.58 -9.32,-0.97 2.87,-3.43 7.69,-7.65 11.98,-10.07 5.84,-1.02 8.68,-7.42 11.6,-11.62 1.3,-5.7 5.69,-4.55 4.84,-8.69 1.86,-4.99 6.09,-9.4 5.02,-15.06 -2.12,-6.63 -9.28,-12.35 -7.07,-19.88 0.23,-3.5 3.53,-10.86 -1.62,-12.15 -10.45,2.05 -20.19,6.75 -30.65,8.91 -7.29,-0.31 -12.21,1.45 -12.52,9.61 -5.75,15.11 -7.5,31.63 -14.34,46.38 -0.59,3.25 -1.6,7.57 -5.68,7.55 -3.49,2.71 -4.709,8.06 -10.47,7.74 -0.125,0 -2.208,0 -0.878,0 z m 0.971,-2.71 c 4.289,0.1 8.197,-5.6 2.522,-6.42 -1.088,1.7 -9.438,7.14 -2.522,6.42 z m 58.147,-0.93 c 3.08,0.54 8.8,-1.21 4.81,-4.87 -2.67,-4.13 -8.85,5.03 -7.49,4.96 0.86,0 1.96,-0.17 2.68,-0.1 z m 50.46,0 c 1.92,0.43 10.24,-1.16 6,-3.84 -2.16,-1.57 -6.2,1.93 -6,3.84 z m -42.73,-3.97 c 3.45,-1.93 8.08,-7.92 7.67,-2.53 3.88,-0.73 2.6,-6.37 4.38,-9.03 6.05,-8.24 11.67,-16.91 17.56,-25.29 8.15,-7.72 -7.42,-10.09 -12.28,-12.99 3.34,-0.78 8.59,3.33 12.33,4.67 5.76,2.68 -4.38,-4.57 -0.29,-2.86 -0.2,-2.36 -3.88,-3.24 0.56,-2.45 2.72,-2.96 -0.96,-6.4 -3.89,-7.39 -3.42,-1.14 -7.3,-1.5 -9.14,-5.06 0.54,0.93 7.15,3.15 10.29,4.56 3.84,4.6 6.82,-1.31 1.34,-3.35 -1.43,-2.78 -10.83,-3.6 -7.91,-5.9 4.52,3.71 -4.57,-6.01 -1.33,-0.34 -2.62,-1.48 -7.98,-2.72 -6.12,1.08 5.64,-1.52 -2.51,0.46 3.29,2.89 -7.94,-1.78 7.78,6.33 -1.52,2.14 -4.23,-0.26 2.34,3.29 4.19,3.24 4.08,0.96 7.58,3.21 11.25,5.12 -3.35,0.89 -7.33,-4.02 -11.43,-3.93 -1.83,-0.45 -7.1,-3.91 -5.55,0.14 2.65,1.4 14.38,4.38 11.75,5.25 -2.22,-0.8 -12.73,-6.19 -10.63,-2.3 4.07,1.07 15.3,5.68 4.55,2.64 -4.13,-1.84 -8.07,-0.98 -3.21,2.27 0.8,3.45 7.56,1.36 10.07,4.92 5.22,-0.85 4.41,8.07 2.64,4.14 -0.54,-2.54 -10.46,-8.33 -11.45,-5.39 1.77,3.24 2.75,7.41 1.59,10.94 -1.86,3.8 -2.31,7.91 -5.04,11.25 -4.22,5.13 -5.43,12.7 -10.82,17.11 -1.7,3.43 -7.9,1.81 -3.5,6.04 -0.1,0.63 0.56,0 0.65,0.41 z m 25.51,-38.45 c -6.95,-0.89 -0.31,-5.18 0,0 z m 1.46,-1.23 c -2.17,-0.33 -8.95,-5.32 -3.44,-3.43 1.02,0.86 5.71,2.53 3.44,3.43 z m 3.46,-17.62 c -2.12,-1.47 -5.19,-3.64 -7.91,-5.11 -3.96,0.59 -9.77,-7.93 -2.23,-1.5 3.8,1.73 8.07,2.92 10.63,6.45 l -0.49,0.2 0,0 z m 21.15,56.72 c 1.41,-2.12 3.26,-4.95 6.05,-5.79 5.1,-0.17 2.71,-5.75 3.39,-8.98 0,-8.62 0.74,-17.56 0.91,-25.94 -0.82,0.96 -2.46,5.82 -1.75,-0.69 2.43,-2.59 -4.05,-5.74 -0.29,-5.87 3.84,-1.39 -5.38,-7.49 -7,-10.74 -2.31,-3.6 -3.63,-7.73 -2.39,-11.97 1.6,-7.63 4.6,-15.95 1.48,-23.46 -2.63,-3.32 -2.02,3.75 -0.94,5.3 -0.62,2.69 1.24,6.72 -0.96,8.55 -3.18,-2.18 1.22,-6.43 -2.1,-8.65 0.76,-3.47 -3.58,-5.41 0.75,-5.58 -0.53,-2.92 -5.04,-4.61 -4.87,-7.67 2.59,-1.33 4,3.99 7.03,4 2.65,2.43 6.02,8.41 9.71,4.22 1.76,-4.8 2.94,-0.13 -0.32,1.76 -5.76,1.02 1.72,3.46 3.19,0.3 2.15,-1.96 1.46,-5.68 1.26,-8.31 -2.31,-3.72 1.44,-9.4 5.64,-6.74 2.16,0.83 3.29,6.43 -0.1,5.8 0.76,3.98 -1.21,8.33 -3.14,11.71 -3.11,3.34 -7.06,7.11 -7.72,11.58 -0.65,2.08 -1.79,7.48 0.94,7.52 5.54,-2.73 0,4.45 0.85,7.09 0.1,6.24 4.69,11.04 9.62,14.21 2.26,1.31 3.35,3.96 4.15,5.96 1.41,2.74 0.58,4.6 0.14,6.57 -4.74,3.48 0.51,4.11 1.76,-0.31 2.19,-3.03 2.26,-7.43 -0.34,-10.16 -0.74,-5.67 -7.99,-7.98 -9.06,-13.23 3.72,-0.73 6.83,7.83 10.23,10.57 1.36,4.28 3.31,3.74 2.07,-0.57 -1.49,-2.78 -3.23,-6.56 -5.45,-8.19 -2.1,-1.34 -7.42,-7.24 -3.97,-7.41 0.79,3.67 5,4.91 5.91,7.72 2.26,1.96 5.81,6.66 4.1,0.66 0.42,-4.06 -3.29,-6.33 -6.04,-10.56 -3.68,-4.37 -2.45,-10.94 1.23,-14.94 1.55,-4.76 -3,0.23 -0.23,-5.65 -0.71,-3.28 3.05,-4.23 1.69,-0.44 1.05,2.72 -2.26,12.09 1.18,4.26 1.73,-4.75 3.17,-10.13 2.62,-15.27 -1.48,-2.43 -2.04,11.08 -3.36,5.17 0.26,-4.74 -1.92,-8.41 1.22,-9.51 -1.68,-2.48 -3.2,-8.41 0.13,-3.44 2.6,-0.57 -1.95,-5.85 -3.54,-7.44 -3.24,-0.51 1.58,-3.71 -4.03,-4.65 -1.68,-1.53 -7.67,2.11 -5.34,-1.48 3.79,-0.89 8.37,-0.1 10.47,3.48 1.84,3.4 4.56,6.72 4.73,10.81 -2.85,2.6 1.9,6.33 0.97,1.46 -0.85,-4.85 -1.25,-10.4 -3.91,-14.51 -3.42,-0.92 -6.26,-3.38 -9.3,-4.88 -3.42,-1.93 -5.44,5.42 -6.91,2.27 1.45,-4.68 9.2,-4.8 11.72,-0.62 3.45,1.82 10.05,-1.68 3.8,-1.68 -4.09,-1.15 -6.52,-5.1 -11.04,-5.15 -5.55,-1.31 -11.53,2.26 -14.08,7.07 -1.97,4.32 0.1,9.45 2.55,13.1 2.04,2.01 5.41,4.69 2.82,7.64 -1.96,2.68 -8.24,2.73 -1.17,4.77 3.94,-2.92 3.73,0.47 -0.27,1.23 -4.85,1.28 -2.71,-5.27 -6.66,-5.85 -6.05,-2.95 -11.52,-7.53 -18.03,-9.31 -5.04,-2.42 -3.85,4.31 -8.07,4.66 1.5,2.31 2.07,5.34 1.31,8.41 -4.16,1.67 -4.6,4.88 -5.38,8.35 -0.75,2.73 -7.09,0.12 -5.48,3.27 3.44,0.95 6.22,2.95 7.27,6.58 2.87,2.63 5.63,3.65 6.25,8.46 2.97,2.63 1.82,7.04 6.01,10.36 4.25,6.54 14.8,9.71 18.01,15.01 2.26,1.65 5.15,10.22 4.61,15.52 -0.16,7.09 1.69,14.76 -1.1,21.51 -0.49,3.11 -9.93,7.57 -3.46,8.73 z m 23.92,-61.52 c -5.73,-2.27 -6.83,-9.48 -6.24,-14.9 0.32,-4.61 5.16,-8.27 2.12,-1.96 -0.85,3.18 -0.68,6.9 -0.13,10.12 0,2.9 4.52,5.44 4.25,6.74 z m -28.75,-12.59 c -2.31,-1.91 2.38,-1.4 0,0 z m 2.75,-1.44 c -0.39,-1.69 -5.55,-4.23 -2.85,-5.8 1.74,-0.59 5.53,5.23 2.85,5.8 z m 10.46,-33.21 c -2.57,-1.99 -6.11,-4.65 -5.19,-8.59 -0.24,-4.58 4.22,-8.74 8.76,-8.95 -3.07,1.95 -7.55,4.28 -7.07,8.56 1.18,-0.81 6.33,-7.49 3.78,-2.57 -2.94,2.79 -2.84,8.17 0.62,10.84 0,0.14 -0.92,1.15 -0.9,0.71 z M 100.24,241.61 c 2.34,-2.78 7.27,-0.73 6.76,-6 3.66,-10.22 7.85,-20.35 9.63,-31.09 1.85,-7.81 5.23,-15.57 7.05,-23.16 -5.46,-3.39 -0.43,4.78 -4,5.81 -1.02,-1.2 1.96,-3.84 -3.62,-3.54 -3.47,-1.76 -3.96,-0.38 -4.55,3.4 -1.06,10.6 -1.15,21.41 -3.11,31.86 -2.29,6.29 -3.11,14.07 -7.95,18.92 -1.964,1.72 -5.471,1.8 -0.21,3.8 z m 12.11,-28.32 c -0.86,-1.17 -0.17,-5.85 1.12,-7.21 -3.28,-5.22 4.08,-1.25 0.64,1.14 0.23,1.96 -0.58,4.23 -1.76,6.07 z m -32.795,7.76 c 2.066,-2.67 -0.437,-9.43 -3.665,-3.97 0.968,1.49 2.487,2.81 3.665,3.97 z m -4.615,-5.38 c 6.78,-2.41 1.169,-4.64 -1.409,-6.98 -2.142,-2.3 1.684,-4.98 -0.03,-7.51 -1.516,-4.07 -3.582,-7.91 -3.418,-12.58 0.45,-3.83 -2.883,-9.72 1.968,-11.84 2.776,-3.2 5.656,1.66 8.909,0.5 1.907,0.26 9.664,0 6.761,-1.89 -2.802,-0.27 -6.473,1.99 -8.563,-0.52 0.321,-2.75 6.029,0.88 5.014,-2.04 1.939,-0.1 5.61,1.98 7.617,0.98 -0.68,-2.98 -6.311,-2.4 -4.455,-6.38 0.548,-2.06 5.357,5.58 3.393,-0.57 -1.982,-6.15 -8.801,-0.17 -13.356,1.09 -3.132,4.04 -12.43,2.35 -12.508,8.41 1.459,9.51 1.641,19.15 2.813,28.68 3.191,2.48 4.647,6.02 5.723,9.81 0.04,0.15 1.989,1.26 1.542,0.84 z m 12.12,-42.9 c -2.292,-1.94 2.386,-1.44 0,0 z m 103.55,22.34 c 2.37,-0.53 -3.2,-1.17 -0.17,0 l 0.17,0 z m -72.82,-13.82 c 2.19,0 1.86,-3.6 3.53,-5.35 0.57,-4.04 2.52,-6.08 -1.8,-8.88 0.99,-0.89 0.28,-7.64 2.94,-1.79 2.57,3.47 6.26,2.42 3.58,6.21 4.13,2.49 9.46,2.56 13.52,4.65 2.26,-2.2 -5.23,-2.19 -5.25,-4.67 1.18,-2.16 4.25,2.75 6.82,2.08 6.42,0 -1.92,-1.35 -0.29,-2.93 5.6,-0.43 5.35,3.85 9.1,2.02 3.64,-0.89 6.5,-3.21 10.55,-3.41 -4.19,-0.62 0.1,-1.73 3.53,-1.23 3.32,0.13 6.76,-0.53 9.86,0.98 1.42,-1.62 -6.9,-3.04 -0.25,-1.89 2.96,1.82 14.1,5.43 5.83,0.53 0,-2.24 -2.74,-4.31 -5.7,-3.44 -4.29,-1.27 -5.41,-3.88 -1.25,-2.85 4.88,-1.32 -1.66,-0.51 -3.3,-1.88 -3.42,1.89 -4.21,-2.74 -6.63,-2.11 -2.19,1.35 -1.51,5.99 -5.09,5.09 -3.97,-1.79 -5.73,-2.27 -8.56,0.7 -3.44,-1.02 -5.27,3.75 -8.32,1.61 -2.25,-1.38 -6.75,4.07 -7.19,-0.9 -3.28,1.29 -3.44,-3.26 -5.67,-3.95 -3.18,-0.18 2.08,-9.22 -4.11,-4.73 -3.67,1.04 -8.23,-2.06 -7.87,-6.11 -3.63,0.63 -6.29,-6.66 -8.02,-4.41 -0.1,4.28 -10.075,12.21 -7,13.34 0.25,-1.67 8.14,-9.5 5.89,-4.68 -3.09,2.49 -7.627,7.03 -6.3,11.08 3.71,-6.61 3.05,0.23 -0.26,2.13 3.18,1.28 2.81,-1.7 5.73,-4.44 -0.55,2.82 -2.18,6.2 -0.71,8.25 -2.11,4.85 2.97,6.65 2.79,0.98 3.86,-1.26 -1.68,7.61 2.39,4.08 1.1,3.13 1.08,4.46 2.6,2.01 0.8,2.55 3.72,2.07 5.26,4.84 0.37,-0.59 0.32,-0.76 -0.35,-0.93 z m 31.42,-8.95 c 0.45,-0.56 -3.71,-2.85 0.1,-2.95 1.79,-0.51 8.66,-3.59 2.8,0.49 -1.63,0.12 -2.64,1.83 -2.89,2.46 z m -17.97,-3.67 c -3.75,1.68 -6.38,-5.72 -2.05,-1.98 1.36,0.93 7.6,0.46 2.05,1.98 z m 33.16,-1.7 c -1.55,-0.94 -9.17,0 -6.22,-2.05 3.92,1.85 5.66,-1.97 9.31,-0.25 -6.25,-5.28 7.95,0.78 0.36,0.74 3.22,2.27 -2.81,1.11 -3.45,1.56 z m -60.65,-6.88 c -0.78,-3.86 5.07,-2.47 0,0 z m 84.83,20.22 c 2.82,-1.48 -6.81,-5.65 -5.09,-3.05 1.74,0.93 3.47,2.06 5.09,3.05 z m -65.27,-1.81 c 5.09,-0.81 -5.03,-1.43 0,0 z m 6.78,-0.38 c 4.77,-0.62 1.09,-1.4 -1.58,-1.64 2.31,-1.17 -4.96,-5.58 -4.07,-3.02 1.24,2.08 0.17,5.22 5.65,4.65 l 0,0 z m 4.66,-1.8 c 3.85,-1.57 -8.27,-2.01 0,0 z m 50.69,-0.37 c 3.41,-1.42 -7.18,-5.18 -4.68,-2.68 -0.1,2.46 3.58,2.01 4.68,2.68 z m -92.845,-0.34 c 3.658,-1.74 -2.414,0.1 0,0 z m 2.552,-1.78 c 2.85,-1.13 -2.262,-0.74 0,0 z m 144.203,-0.52 c 3.83,-1.87 -7.69,-3.05 -3.82,-8.42 -1.47,-4.81 -2.13,3.08 -2.49,4.46 -0.57,0.18 2.13,3.96 3.99,4.17 0.76,0.45 1.53,-0.29 2.32,-0.21 z M 99.865,173.5 c 2.245,-1.14 0.295,-2.45 1.395,-3.39 -2.482,-2.05 -4.151,-2.48 -1.957,2.39 l 0.562,1.02 0,0 z m -6.729,-0.71 c 1.436,-0.77 -3.218,-4.41 -1.368,-0.77 0.38,0.22 0.85,1.35 1.368,0.77 z m 3.298,-1.21 c 1.244,-1.69 -0.01,-5.84 1.031,-8.12 -2.386,-7.67 -0.09,5.65 -2.461,-1.79 -0.269,-2.78 -4.744,-7.89 -6.33,-5.53 -0.973,4.92 3.207,6.21 4.166,6.22 -0.57,3.01 -0.84,9.25 3.594,9.22 z m 76.256,-1.09 c 6.12,-1.66 -4.79,0.41 0,0 z m -50.22,-2.25 c 0.99,-2.7 -2.59,0.33 0,0 z m 13.61,-4.49 c 3.7,-1.2 1.93,-6.36 0.98,-8.96 -1.77,-2.33 -5.64,-1.86 -7.11,-4.99 0.79,0.91 7.93,-2.26 1.92,-3.13 -3.94,-1.79 4.75,-0.81 1.52,-3.65 1.08,-3.43 2.6,2.03 5,0.59 2.44,-2.11 -1.37,-6.65 3.63,-3.26 2.05,-1.33 -2.24,6.97 4.05,4.07 2.47,-2.65 -2.55,-4.06 -3.45,-5.88 -2.3,-1.76 -5.18,-6.15 -0.28,-3.18 4.96,-0.2 -2.64,-4.79 -0.74,-5.49 6.59,3.46 3.21,-1.81 1.3,-3.53 2.31,-0.95 3.64,2.52 6.17,2.82 2.43,0.33 6.34,-0.85 5.42,-3.94 0.1,-3.88 -10.7,-7.75 -7.39,-1.17 1.21,-0.48 4.6,-2.82 2.49,1.57 -2.68,3.29 -3.65,0 -4.65,-1.83 -4.21,-0.75 -1.03,-1.78 0.79,-3.21 -1.94,0.11 -5.01,1.42 -4.76,4.17 -1.14,2.91 -5.75,1.27 -1.92,-0.1 -1.39,-4.1 2.47,-3.68 4.59,-5.34 1.73,-0.81 -3.79,-5.24 1.13,-2.99 4.44,3.64 5.55,-3.27 1.72,-3.92 3.12,-3.25 3.41,3.06 5.53,-0.27 1.8,-3.21 3.67,3.91 8.11,1.58 1.96,-0.65 6.22,-3.44 2.93,-5.14 -4.69,-2.91 -10,0 -14.2,0.3 0.28,-1.46 4.8,-3.65 -0.7,-5.02 -2.02,0.37 -6.67,2.08 -3.11,-1.26 -2.05,-1.9 -3.36,-5.06 0.86,-2.75 1.83,1.5 6.04,0.45 6.36,-2.12 -1.99,-5.87 -3.64,2.45 -6.88,0.61 4.63,-2.01 -2.69,-4.18 0.29,-5.41 2.53,1.12 7.93,1.23 9.11,-2.18 -1.43,-3.43 -6.27,-2 -9,-0.71 -1.95,-0.74 3.34,-4.2 -2.71,-4.03 0.91,-1.22 7.65,-0.62 2.78,-3.7 -2.49,-2.5 5.13,-0.72 3.39,2.02 -3.69,4.22 4.71,4.57 4.81,2.21 6.26,-1.51 12.99,-3.21 18.2,-7.41 -6.11,0.84 -3.9,0 0.9,-1.52 -0.47,-4.89 -11.15,2.11 -14.62,2.65 -3.67,0 -4.32,7.49 -8.17,4.79 6.82,-2.27 2.01,-5.51 -1.37,-5.09 3.44,1.92 5.39,-6.07 6.45,-1.1 -0.49,2.83 6.12,-1.22 7.69,-2.96 4.86,-4.36 -1.07,-4.09 -2.93,-3.81 0.93,3.48 -12.36,2.76 -15.5,6.28 -4.53,0.26 -6.22,5.01 -7.27,8.94 -2.1,5.91 -7.26,10.93 -6.48,17.64 -0.41,7.55 5.23,14.21 4.12,21.94 2.61,4.47 -2.04,7.44 -4.91,10.28 -2.56,3.04 -6.68,4.08 -8.81,7.62 -1.82,3.09 -0.67,9.66 3.63,5.93 0.16,-4.35 1.89,-0.92 3.4,-2.43 2.7,-3.97 0,2.79 0.48,4.91 0,2.62 0.79,8.74 4.13,8 0.29,-5.51 3.3,-3.54 1.58,-0.21 -0.73,1.25 2.52,2.63 1.5,2.77 z m 6.88,-50.52 c -3.7,-2.87 7.08,-2.78 0,0 z M 142,110.02 c -2.09,-0.33 0.46,-5.54 2.04,-3.2 0.42,1.65 -0.74,2.46 -2.04,3.2 z m -2.29,-3.62 c -3.38,-1.43 1.5,-6.73 2.21,-1.4 -0.7,0.57 -1.14,1.71 -2.21,1.4 z m -0.54,-5.23 c -4.1,0.65 1.18,-3.36 0.48,-4.51 2.74,0.14 2.25,4.66 -0.48,4.51 z m 2.45,61.87 c 3.94,-1 2.23,-6.11 1.21,-8.91 -2.55,-3.3 -6.64,-3.91 -1.66,-7.74 1.53,-3.84 -8.33,-2.01 -5.05,1.38 -5.36,4.26 3.15,2.71 3.15,8.25 1.26,1.94 -0.45,6.48 2.35,7.02 z m 31.27,0 c 2.31,-1.2 -2.29,-1.21 0,0 z m -24.99,-1.5 c 2.78,-1.39 0.88,-6.23 0.14,-8.77 -5.11,-5.78 -0.26,-6.56 1.58,-1.44 0.65,4.38 2.89,8.06 7.29,9.2 3.76,-0.12 1.76,-5.7 0.91,-7.47 -2.43,-2.1 -3.38,-7.59 -7.66,-9.76 -2.83,-2.71 -1.63,3.64 -4.66,3.12 -4.63,0.31 -4.64,5.39 -0.91,7.14 1.71,1.99 0.59,8.12 3.31,7.98 z m 30.21,0 c 2.76,-1.77 -3.04,-0.17 0,0 z m -81.38,-2.45 c 1.533,-4.54 4.87,-8.42 7.98,-11.9 2.04,-3.74 3.77,-6.78 5.63,-10.07 0.74,-3.62 -6.55,-3.16 -6.87,-7.29 -2.79,-4.13 2.14,-9.93 6.69,-9.46 4.52,-1.15 2.43,3.34 -0.59,1.79 -5.3,1.76 -1.42,7.95 2.13,8.75 2.65,0.73 6.99,-0.75 6.38,-4.11 -4.83,-0.82 -2.34,-6.04 -4.84,-8.34 -2.89,-3.4 -1.85,-9.39 -3.31,-13.67 -0.67,-7.19 -1.7,-15.83 -7.89,-20.41 -2.123,-1.62 -5.894,3.69 -3.441,-0.86 1.188,-1.98 2.061,-4.84 3.071,-7.19 2.16,-1.17 -2.203,-5.55 -2.755,-3.03 -2.739,3.76 -0.688,9.13 -4.472,12.37 -4.031,-1.08 -3.874,1.43 -5.292,3.35 -5.636,1.43 0,2.03 -2.687,2.92 -3.564,0.44 -3.034,-2.2 -3.11,-3.61 -3.461,1.2 -2.308,-4.41 -0.307,-3.54 2.778,-0.47 6.877,-0.53 9.793,-0.37 -2.067,-1.07 -4.801,-3.8 -6.974,-4.39 -3.44,0.44 -5.588,3.96 -9.084,4.69 -3.25,2.25 -7.83,2.47 -10.913,4.14 -5.83,-1.14 1.275,2.66 -2.877,4.52 -2.182,-0.95 -0.102,-4.88 -3.647,0.27 -1.352,3.76 4.371,1.02 6.471,1.45 1.869,-1.41 3.565,-3.2 6.357,-1.87 0.55,2.04 2.889,1.4 4.115,1.69 1.426,2.34 5.645,3.1 6.902,5.02 4.038,2.19 6.894,1.72 10.752,1.36 4.259,1.5 7.358,-3.55 7.198,-7.28 3.69,-1.1 0.97,7.09 0.88,9.88 -3.485,2.98 0.82,3.61 -1.82,6.48 -0.341,5.93 -5.364,2.78 -1.244,-2.35 -1.33,-0.57 3.244,-6.33 -2.706,-4.9 -2.06,3.25 -8.386,-2.19 -6.228,3.34 1.298,6.91 -4.923,12.62 -3.799,19.62 0.03,8.62 -0.205,18.05 4.502,25.57 1.902,5.02 5.095,2.17 5.625,3.21 -0.562,1.73 -0.25,2.77 0.38,4.22 z m 4.53,-9.62 c -2.527,-2.51 4.36,-4 0,0 l 0,0 z m -1,-3.39 c -3.328,-1.46 3.4,-7.62 1.56,-1.68 -0.51,0.44 -0.76,1.94 -1.56,1.68 z m -1.161,-3.95 c -3.728,-0.41 3.591,-8.71 1.931,-3.51 -1.174,0.69 -0.11,4.09 -1.931,3.51 z m -1.123,-3.99 c -1.069,-1.95 -0.09,-3 -1.756,-4.82 3.171,-5.6 4.12,-3.98 2.062,0.67 3.788,-3.26 1.918,3.85 -0.286,4.17 l -0.02,0 z m -1.123,-8.02 c -1.125,-0.73 -0.475,-4.37 0.725,-6.07 -4.216,-1.16 4.232,-5.97 1.698,-2.04 1.804,1.98 -1.894,3.58 -0.434,5.58 -0.614,0.73 -1.073,2.93 -1.989,2.53 z M 87.448,95.95 c -6.81,-2.79 1.101,-4.06 0.684,-0.55 l -0.684,0.55 0,0 z m 11.406,-15.6 c -1.947,-1.86 3.226,-3.36 0,0 z m 77.336,78.72 c 0.96,-0.99 -2.05,-1.25 0,0 z m -7.59,-2.1 c 3.48,-0.95 2.67,-5.4 0.74,-7.63 -4.2,-5.57 -9.02,-11.14 -15.57,-13.79 -4.14,1.48 1.49,6.15 3.49,7.55 3.56,3.02 5.07,7.5 5.88,11.94 1.78,0.59 3.74,2.22 5.46,1.93 z m -7.98,-3.18 c 0.17,-3.84 -2.66,-8.09 -5.73,-10.72 -8.13,-4.77 -0.34,2.59 2.25,5.18 1.32,1.21 2.29,5.56 3.48,5.54 z m 14.7,-1.99 c 4.46,-0.93 1.48,-5.88 -0.6,-7.86 -3.14,-4.26 -8.55,-6.74 -12.02,-10.32 3.85,-2.08 8.15,4.49 11.57,6.29 1.64,3.16 6.38,7.52 7.97,1.94 -1.19,-8.7 -10.33,-12.12 -17.17,-15.7 -2.94,0.5 -9.48,-5.82 -9.06,-2.31 2.72,5.55 11,5.86 15.11,10.5 -4.6,-0.1 -10.03,-7.13 -14.99,-6.82 -4.5,4.03 6.93,2.16 6.08,5.32 -2.27,-0.13 -5.48,-2.14 -8.4,-2.27 -4.02,-0.28 2.79,6.39 4.99,5.73 5.46,3.61 10.24,8.62 13.46,14.4 0.92,0.46 2.32,0.46 3.06,1.1 z m -7.51,-11.85 c -2.54,-1.31 -11.99,-5.78 -9.78,-6.53 2.74,1.54 9.29,5.26 9.78,6.53 z m -48.86,7.18 c 0.77,-5.68 6.87,-7.36 10.2,-11.01 3.6,-3.82 1.91,-9.87 -1.03,-2.56 -2.67,5.05 -12.04,6.49 -11.17,13.63 1.3,2.2 0.86,3.4 2,-0.1 z m 107.95,-0.88 c 2.04,-3.19 -3.1,-8.21 -0.72,-1.43 0.1,1.37 0.12,2.97 0.72,1.43 z m -111.98,0.19 c 2.82,-1.06 -4.77,-4.72 -2.15,-0.96 0.68,0.41 1.3,0.9 2.15,0.96 z m 0.62,-2.14 c 5.53,-3.29 1.66,-6.91 -0.35,-1.87 0.21,0.4 -0.43,2.11 0.35,1.87 z m -3.95,-1.09 c 3.49,-5.25 11.39,-5.49 14.62,-10.75 3.22,-7.44 -8.2,5.25 -11.8,3 -6.82,3.25 3.04,1.39 4.83,-0.72 -0.5,2.06 -10.8,3.91 -7.65,8.25 l 0,0.22 z m 37.87,-2.53 c 3.02,-1.37 -0.12,-5.29 -2.34,-6.09 -6.34,2.28 -1.17,4.49 2.34,6.13 l 0,0 z m 77.67,-2.35 c 4.72,0.49 -0.69,-3.4 -1.47,-0.43 -0.67,1.77 0.55,0.44 1.47,0.43 z m -112.59,-4.01 c 3.72,-0.17 8.36,-1.75 10.21,-5.07 1.9,-1.7 -0.74,-9.45 2.04,-7.31 3.99,0.22 6.33,13.07 6.43,4.01 0.15,-3.79 -4.75,-6.32 -5.77,-8.21 5.6,1.89 2.18,-3.33 -1.34,-4.81 -3.78,-0.35 -0.11,-3.74 -5.08,-2.28 -1.84,0.74 -7.03,0.25 -5.97,-2.22 -2.03,-1.1 -2.49,-5.94 0.86,-1.73 3.84,-0.78 7.61,-1.29 11.06,0.93 3.07,-2.27 -3.39,-5.56 -4.87,-6.95 2.02,-0.12 6.34,2.09 3.41,-1.65 -2.24,-1.85 -11.89,-2.24 -10.17,-4.38 3.31,1.45 6.95,0.79 10.17,2.22 -1.71,-4.55 -7.81,-3.6 -11.61,-3.78 -5.26,3.02 -0.76,-3.45 2.77,-1.44 4.35,0 8.62,0 11.91,2.67 5.38,0.83 0.91,-7.91 0.22,-0.26 -2.64,-2.46 -2.74,-2.02 -3.62,-4.98 -4.85,0.38 -13.34,-4.41 -16.33,0.72 2.92,6.07 2.78,13.15 3.83,19.71 1.6,2.22 -0.4,7.36 3.02,7.82 3.77,-1.24 6.89,1.65 6.68,5.57 0.25,3.45 -1.74,6.43 -4.2,8.57 -3.65,1.73 -7.53,1.07 -11.15,-0.35 0.94,3.25 5.04,3.09 7.5,3.2 z m 34.4,-0.2 c 7.21,-1.2 -5.86,-6.61 -2.09,-0.95 0.7,0.31 1.4,0.61 2.09,0.95 z m 32.82,0 c 3.68,0.17 2.81,-4.9 0.54,-6.34 -5.18,-5.2 -12.66,-7.53 -19.66,-9.21 -7.99,0.48 3.89,3.73 6.31,4.98 4.25,0.79 7.82,4.78 1.19,1.42 -4.1,-0.99 -8.98,-5.8 -13.19,-3.83 1.18,2.71 7.82,2.95 11.03,4.92 4.49,2.28 9.4,4.04 12.6,8.18 0.29,-0.24 1.01,0.33 1.18,-0.12 z m -53.45,-2.59 c 1.65,-1.89 0.38,-5.34 0.1,-7.02 -1.4,0.33 -0.62,4.47 -0.53,6.72 -0.34,1.01 0.57,-0.22 0.45,0.3 z m 82.36,-2.2 c -2.56,-5.66 -0.56,-13.24 5.51,-15.6 1.53,-0.72 7.6,-2.01 5.9,-3.17 -4.1,0.91 -8.89,2.29 -11,6.14 -2.19,3.33 -4.19,10.06 -0.41,12.63 z m -89.81,-3.68 c 3.11,-3.57 -7.53,-4.72 -2.13,-1.68 1.88,-0.6 0.76,3.64 2.13,1.68 z m 33.36,-4.15 c 1.15,-2.05 7.39,-4.53 2.07,-6.39 -2.9,-0.83 -6.38,-0.83 -6.41,2.73 -2.41,2.28 3.25,3.19 4.34,3.66 z m -35.52,-0.36 c 3.23,-2.64 -3.96,-4.12 -1.55,-0.71 0.38,0.38 1.75,0 1.55,0.71 z m 55.25,-1.05 c 5.8,0.11 -1.85,-1.68 -4.14,-1 1.17,1.29 2.61,1.11 4.14,1 z m -7.55,-2.77 c 7.94,-0.67 15.98,0.42 23.88,-0.66 6.05,-5.39 -6.84,-4.71 -10.23,-5.02 -5.19,0.85 -10.93,-0.35 -15.85,1.52 2.06,1.95 6.39,0.36 9.37,0.87 6.17,-0.34 0.9,1.4 -2.27,0.78 -3.71,0.31 -7.95,-0.63 -11.34,0.45 1.38,2.08 4.78,2.04 6.44,2.06 z m -37.93,-5.05 c 0.35,-4.16 -5.76,-5.95 -8.95,-3.99 -5.62,-0.28 -0.37,2.23 2.75,1.39 2.88,-2.04 6.54,5.14 6.2,2.6 z m 59.11,-0.83 c 2.48,-1.7 -5.1,-1.26 0,0 l 0,0 z m -19.45,-0.36 c 11.14,-0.79 23.01,-2.33 32.38,-8.75 3.45,-3.33 -3.38,-3.12 -5.44,-2.38 -9.82,1.68 -19.57,4.03 -29.31,6.01 -5.08,3.4 6.2,0.95 7.66,1.12 4.38,-2.18 17.7,-3.22 7.08,-0.16 -3.03,1.77 -18.55,0.68 -12.81,4.12 l 0.44,0 0,0 z m -8.17,-4.74 c 3.88,0.78 9.04,-4.8 2.57,-5.26 -5.09,-0.34 -10.43,-0.8 -15.29,0.94 3.2,1.03 5.78,0.42 6.4,3.59 0.68,-5.14 2.08,0.71 4.95,0.57 l 1.47,0.12 -0.1,0 z m -90.861,-2.49 c 3.485,-0.43 6.067,-3.84 9.833,-2.87 2.775,-0.38 -3.311,-1.54 -3.042,-2.03 -2.286,2.08 -9.633,0.49 -8.748,4.62 0.284,1.06 1.327,0.16 1.957,0.28 z m 99.571,0 c 12.45,-2.55 25.3,-5.51 36.17,-12.31 3.54,-0.54 8.39,-7.84 1.86,-6.12 -11.66,1.42 -21.92,8.75 -33.83,9.06 -2.11,1.5 -13.05,5.28 -5.23,3.98 8.28,-1.13 16.14,-3.9 24.18,-6.06 -1.22,3.78 -11.9,4.5 -16.51,6.41 -2.87,1.12 -12.54,0.2 -6.64,5.04 z M 65.005,102.77 c 3.574,-0.8 -2.494,-0.96 0,0 z m -2.388,-0.91 c 2.432,-1.91 12.994,-0.26 11.036,-4.49 -1.283,0.17 -15.978,4.05 -11.036,4.49 z m 91.563,-2.75 c 1.1,-4.12 2.12,-1.64 3.24,0.11 3.57,-2.32 8.77,-1.6 11.68,-5.34 1.01,-3.24 -5.95,-2.7 -8.32,-1.95 -2.78,0.33 -10.28,1.15 -6.6,5.46 0.11,0.35 -1.11,2.66 0,1.72 z m -26.27,-0.39 c 2.23,-3.24 -2.42,-1.56 0,0 z M 70.08,97.01 c 1.864,-1.42 -1.691,-1.54 0,0 z m 102.63,-3.47 c 4.17,-1.13 15.79,-2.94 10.61,-5.02 8.1,0.29 8.41,-4.06 16.28,-4.53 4.79,0.27 11.56,-4.45 2.9,-2.09 -6.04,-0.48 8.69,-4.03 10.37,-5.42 4.95,-3.83 14.18,-7.3 15.7,-13.18 -5.92,2.67 -12.34,7.33 -18.99,9.55 -8.62,3.46 -17.85,5.24 -26.38,8.83 -4.48,1.46 -11.04,2.49 -13.74,5.51 5.76,1.46 10.79,-2.83 16.17,-4.17 2.74,-1.82 9.99,-3.08 2.89,0 -5.1,3.5 -15.8,3.92 -18.39,8.52 0.81,0.53 1.86,2.96 2.58,2 z m -44.62,-2.68 c 4.77,-1.99 -2.97,-3.6 0,0 z m 29.42,0 c 3.42,-1.27 9.1,-1.13 10.56,-5.11 -4.43,0.23 -8.87,0.99 -13.06,2.39 1.03,0.75 1.69,3.53 2.5,2.72 z m -25.99,-0.35 c 6.66,-3.22 -2.8,-4.69 0,0 l 0,0 z M 86.284,88.7 c 4.505,-4.27 -3.851,-2.69 -0.163,0 l 0.163,0 z m 21.826,-0.73 c 2.79,-2.35 7.53,0.44 9.42,-2.16 2.73,-2.8 -6.21,-3.18 -7.7,-0.53 -0.86,0.58 -3.97,2.21 -1.72,2.69 z m 17.29,0 c 1.37,-3.53 6.51,1.75 4.64,-1.91 -4.12,-2.29 -1.2,-0.7 0.66,-2.06 -0.53,-3.42 -5.13,-2.49 -5.46,0.72 -2.57,0.67 -2.97,2.68 0.16,3.25 z m 8.93,-1.44 c 4.68,-4.88 -7.04,-1.46 0,0 l 0,0 z m -12.95,-1.05 c 7.36,-2.33 -0.69,-3 -3.69,-4.81 -3.86,0.19 -8.23,-0.38 -8.69,3.41 3.58,-2.54 8.78,-1.83 11.66,1.36 0.21,0.19 0.5,-0.1 0.72,0 z m 46.47,-0.33 c 5.34,-1.79 10.62,-4.16 15.51,-6.13 4.1,-0.63 6.96,-3.28 11.68,-3.81 10.5,-4.37 21.75,-8.71 29.51,-17.44 5.57,-5.95 -1.87,-4.04 -5.88,-0.41 -7.17,3.66 -15.07,6 -22.73,8 -6.47,4.5 -13.94,7.24 -21.56,8.94 0.77,6 8.92,-1.36 12.83,-1.32 2.24,1.41 -8.44,3.67 -11.48,5.02 -1.05,2.37 -11.34,5.96 -7.88,7.15 z m -62.57,-0.73 c 3.63,-1.77 5.79,-6.61 10.45,-6.66 0.84,-3.13 -5.44,-1.09 -6.26,1 -0.8,1.75 -6.82,5.02 -4.19,5.66 z M 94.627,83.34 c 2.203,-3.49 -2.554,-3.3 1.082,-5.32 -2.957,-3.15 -9.969,0.42 -14.153,-1.24 -6.636,-4.14 -1.34,2.89 2.717,1.78 -0.987,1.28 -4.874,3.19 0.888,1.29 3.266,-1.04 5.841,-0.59 5.265,2.59 4.896,-3.88 0.772,-1.78 4.201,0.9 z m 38.563,-0.21 c 7.82,-1.29 -5.03,-5.03 -0.79,-0.1 0,0.64 0.76,-0.17 0.79,0.1 z m -30.24,-0.56 c 3.67,-1.02 5,-6.89 9.33,-6.87 8.92,-0.19 2.21,-1.8 -3.02,-1.67 -2.99,1.93 0.13,-2.72 -4.45,0.41 -0.59,2.22 -2.9,5.43 -2.55,8 -0.29,0.32 1.16,-0.23 0.69,0.13 z m 20.54,-0.71 c 0.93,-3.08 2.25,-4.71 6.55,-4 0.71,-3.96 -7.37,0.73 -3.98,-2.93 4.34,-4.01 -5.53,-0.17 -0.76,-3.39 6.45,-3.55 0.74,4.96 5.74,3.49 3.8,-0.81 7.55,0.82 2.89,4.11 5.12,3.24 2.97,-1.28 6.42,-3.01 0.46,-2.97 -6.51,-3 0.51,-4.29 3.94,-1.12 3.68,-4.63 8.64,-4.05 3.36,-0.33 6.33,-0.81 3.84,-2.2 4.57,-1.18 1.07,1.9 7.5,0.52 7.64,-2 15.3,-3.94 22.48,-7.26 5.52,-0.44 0.34,-3.08 -2.69,-0.6 -1.39,-1.02 13.17,-2.67 6.77,-5.9 -4.4,1.09 -8.27,4.3 -13,4.73 -9.07,1.65 -17.18,6.85 -25.96,8.99 -3.31,-0.22 -5.18,2.82 -7.44,4.31 -2.29,-1.06 -3.27,1.92 -6.02,2.67 -2.94,1.75 -4.64,0.26 -1.46,-1.17 3.42,-1.49 3.01,-4.23 -1.04,-2.86 -4.85,0.59 2.1,-2.13 4.18,-1.29 3.44,2.83 4.2,-2.62 8.01,-1.49 8.1,-3.32 17.08,-5.36 23.75,-11.36 -0.35,-3.53 -6.21,3.57 -9.03,3 -11.62,6.03 -26.19,5.59 -36.61,13.86 -2.02,2.97 -3.8,7.26 -0.5,10.17 0.39,-0.1 0.83,0.12 1.21,0 z m 35.43,-16.99 c -1.73,-0.56 21.24,-5.41 10.34,-2.39 -3.34,1.19 -6.82,2.01 -10.34,2.39 z m 16.68,-4.73 c -0.35,-0.97 7.12,-2.64 0.72,0 0.4,-0.65 -0.77,0.27 -0.72,0 z m -46.9,20.99 c 4.88,-1.85 -3.31,-2.48 0,0 z m 4.16,-3.11 c 3.89,-4.51 -4.2,-1.02 -1.13,1.11 0.38,-0.37 0.75,-0.74 1.13,-1.11 z m 9.28,-0.5 c 4.38,-2.31 -1.27,-4.35 5.57,-4.91 3.01,-0.33 9.85,-4.07 7.38,-0.77 2.86,1.36 8.3,-2.8 5.69,-2.97 5.18,-0.53 1.76,-2.98 -1.47,-0.73 -4.03,0.51 2.61,-1.86 -3.74,-0.93 -8.47,2.62 6.43,0 -2.15,1.98 -4.37,0.33 -8.17,2.52 -12.25,3.53 1.48,1.54 0.1,3.7 0.97,4.8 z m 23.49,-1.08 c 4.42,-2.24 9.87,-3.76 14.78,-5.82 4.02,-1.11 7.77,-1.42 11.2,-4.62 2.63,-0.21 5.68,-2.92 6.97,-3.35 -1.56,-1.11 -9.13,2.23 -7.9,2.18 -5.57,4.12 -13.24,5.12 -19.88,7.31 -2.04,-1.12 -8.1,3.79 -5.17,4.3 z M 86.683,76.07 c 2.426,-1.42 -2.657,-1.33 0,0 z m 8.178,0 c 3.84,-3.01 -6.984,-3.25 0,0 z m 51.999,-0.68 c 5.09,-1.4 3.44,-4.29 -0.83,-1.09 -0.61,0.34 0.31,1.49 0.83,1.09 z m -50.375,-1.8 c 5.005,-3.1 0.374,-8.06 -0.776,-1.81 l 0.235,1.56 0.541,0.25 0,0 z M 168.6,71.41 c 2.3,-1.74 5.92,-3.78 9.33,-3.61 -3.77,1.85 4.85,1.07 2.73,-0.86 -0.28,-1.63 5.3,-1.96 1.89,-0.29 3.6,0 2.78,-3.47 7.09,-3.77 3.74,-2.19 7.03,-3.88 9.59,-4.29 3.04,-5.35 -4.38,-3.58 -7.48,-1.07 -4.33,1.16 -8.12,3.39 -11.95,5.27 -3.27,0.63 1.87,2.37 -3.63,3.21 -1.96,2.32 -10.59,1.65 -8.57,5.41 0.18,0.3 0.73,0 1,0 z m 13.76,-7.92 c 0.61,-1.96 4.99,-1.48 0,0 z m 4.06,-1.85 c -1.97,-0.37 5.2,-1.3 0,0 z m 3.47,-1.41 c 0.73,-1.87 14.01,-6.74 3.37,-1.44 -1.27,0.17 -2.11,1.29 -3.37,1.44 z m -42.09,9.6 c 2.85,-1.78 -4.42,-0.21 0,0 z m 18.16,-1.31 c 8.69,-0.31 1.33,-5.86 -0.43,0 -0.72,0.1 1.19,0 0.43,0 z m 10.21,-4.67 c 4.14,-2.05 -2.38,-1.77 0,0 z"/></g>
</svg>
