<svg xmlns="http://www.w3.org/2000/svg" version="1.1" width="300" height="350">
 <path id="fill" d="m199.01 249.45c-.711-.509-1.063-.545-1.845-.189-.531.242-1.131.44-1.333.44-.682 0-.372-1.508.395-1.919.419-.224 1.45-1.421 2.291-2.66 1.617-2.382 3.545-4.07 5.834-5.11 2.42-1.099 3.286-3.169 3.591-8.579.671-11.91.058-20.696-1.749-25.03-.985-2.367-1.589-3.189-3.74-5.091-3.777-3.34-7.702-6.218-8.48-6.218-1.149 0-2.318 1.588-2.266 3.079.054 1.549-1.555 6-2.903 8.03-.506.763-1.135 2.426-1.396 3.695-.262 1.269-.697 2.74-.967 3.269-.27.529-.713 1.654-.984 2.5-.271.846-.72 1.889-.999 2.318-.6.923-2.453 6.478-2.453 7.352 0 .335-.338 1.238-.752 2.01-.413.769-1.198 3.129-1.744 5.244-1.408 5.456-2.967 6.738-7.05 5.798-1.904-.438-2.901.588-2.59 2.663.153 1.023.057 1.796-.281 2.258-.573.783-2.968 1.353-5.793 1.379-1.025.009-2.323.274-2.884.588-1.528.856-4.18 1.657-4.606 1.392-.206-.128-.436-.666-.51-1.195-.125-.888-.275-.954-1.962-.868-2.461.126-2.406-.599.192-2.534 1.11-.827 2.452-1.976 2.981-2.555 1.461-1.598 5.03-3.904 6.538-4.229 2.145-.461 2.662-.886 3.661-3.01.517-1.099 1.54-2.777 2.273-3.729 1.701-2.209 4.316-6.788 5.709-9.999.597-1.375 1.32-2.932 1.608-3.461.288-.529.651-1.654.808-2.5.157-.846.692-2.624 1.189-3.951 1.365-3.641 1.275-10.251-.196-14.509-.219-.635-.728-2.192-1.13-3.461-.402-1.269-1.18-3.606-1.729-5.192-.549-1.586-1.2-3.836-1.446-5-.598-2.82-1.251-3.759-3.195-4.592-2.424-1.039-4.589-1.329-9.283-1.245-4.742.085-14.03 1.139-14.595 1.655-.201.185-.656.337-1.012.337-.355 0-2.268.503-4.25 1.117-1.982.614-4.642 1.325-5.911 1.58-1.269.254-2.798.644-3.397.866-.599.222-1.935.373-2.967.337-1.574-.056-1.971.076-2.455.814-.693 1.058-1.864 6.374-1.572 7.136.114.297.03 1.2-.188 2.01-.217.806-.465 2.648-.55 4.093-.28 4.738-1.337 14.14-1.723 15.318-.908 2.775-1.559 6.429-1.783 9.999-.133 2.115-.497 5.23-.81 6.923-.313 1.692-.726 4.202-.918 5.577-.654 4.69-1.844 6.538-4.212 6.538-.403 0-1.39.792-2.193 1.76-1.577 1.899-2.867 2.6-6.461 3.514-1.269.322-2.827.893-3.461 1.268-.635.375-1.703.798-2.374.94-1.073.227-1.235.151-1.346-.632-.112-.791-.328-.887-1.953-.865-1.872.025-2.137-.137-1.412-.862.228-.228.358-.912.288-1.519-.165-1.443-1.417-1.645-2.988-.483-.642.474-1.276.753-1.41.619-.487-.487.277-2.238 1.116-2.556.473-.18 2.354-1.861 4.18-3.736 1.826-1.875 3.936-3.989 4.69-4.699.904-.851 1.563-1.963 1.937-3.269 2.141-7.483 2.444-14 1.434-30.823-.66-10.993-1.121-14.606-2.165-16.965-1.105-2.499-2.037-2.699-3.826-.822-1.632 1.712-3.725 3.453-4.902 4.077-.754.4-1.169.419-1.798.083-1.187-.635-1.01-1.312.625-2.366 1.274-.822 1.454-1.133 1.547-2.66.095-1.56-.072-1.946-1.701-3.941-1.974-2.418-2.983-2.757-4.202-1.41-.893.987-2.984 1.891-4.374 1.891-.984 0-1.795-.653-3.1-2.5-.327-.463-.082-.348.616.288 1.416 1.291 2.449 1.34 3.551.168.964-1.026 1.038-1.979.259-3.34-.828-1.448-.718-4.85.219-6.786.693-1.432 2.608-3.598 5.646-6.386 1.091-1 1.164-3.264.147-4.563-.395-.504-.817-1.523-.938-2.263-.121-.74-.409-2.298-.64-3.461-.309-1.557-.303-2.692.024-4.303.599-2.952.266-4.071-1.422-4.776-1.731-.723-1.501-1.435.554-1.715 1.034-.141 2.01-.61 2.754-1.319 1-.959 1.142-1.354 1.103-3.081-.033-1.444.202-2.413.869-3.575.768-1.339.839-1.716.44-2.358-.564-.908-.288-1.837.632-2.129.365-.116 1.483-1.16 2.484-2.32 1.726-1.999 1.815-2.213 1.705-4.091-.075-1.278-.321-2.089-.693-2.283-4.44-2.317-6.904-3.226-9.128-3.368-1.988-.127-2.588-.022-3.237.563-.664.599-1.414.717-4.504.709-4.483-.012-5.396-.483-6.835-3.524-1.227-2.594-1.028-3.565 1.181-5.774l1.653-1.653h3.042c2.171 0 3.865-.267 5.916-.931 1.581-.512 3.826-1.193 4.989-1.513 2.489-.684 5.073-1.61 6.488-2.326.556-.281 1.637-.624 2.401-.763 3.01-.545 3.424-3.072.755-4.656-1.671-.992-5.01-4.444-5.03-5.194-.006-.317-.414-1.28-.905-2.14-.812-1.421-.868-1.84-.616-4.615.49-5.391 1.307-7.796 3.387-9.975 3.814-3.995 4.286-4.712 4.286-6.517 0-1.407.194-1.846 1.183-2.679 1.192-1 3.175-1.337 3.624-.611.552.893 2.073.356 3.269-1.154 2.159-2.725 4.107-1.756 4.583 2.281.195 1.655.536 2.604 1.182 3.291 1.082 1.152 2.053 1.212 4.03.248.811-.395 1.799-.633 2.196-.529 1.916.501 1.787 3.787-.236 5.995-1 1.095-1.31 1.815-1.481 3.474-.337 3.268-1.305 4.306-4.701 5.04-2.817.609-3.44 1.868-2.191 4.428.83 1.702 1.79 1.85 4.178.646 1.022-.515 4.537-2.01 7.811-3.315 3.274-1.308 6.512-2.723 7.196-3.146 1.948-1.204 3.629-3.586 3.841-5.442.102-.895.37-2.114.595-2.707.297-.784.289-1.199-.031-1.519-.242-.242-.44-.836-.44-1.32 0-.627-.818-1.551-2.844-3.214-2.932-2.407-3.532-3.522-2.866-5.324.387-1.047 2.534-2.347 3.878-2.349.809-.0001 1.277-.357 2.024-1.54.534-.846 1.229-1.538 1.543-1.538.946 0 2.051 1.403 2.331 2.959.332 1.84.792 2.425 1.909 2.425.512 0 1.195.429 1.628 1.024 1.287 1.767 2.78.294 2.78-2.743 0-.903.407-1.781 1.37-2.956.753-.919 1.621-1.979 1.928-2.355.659-.807 1.796-.385 2.497.925.535 1 .144 3.264-.614 3.555-1.293.496-.119 3.703 1.357 3.703.914 0 1.923-1.408 1.922-2.682-.002-1.482 1.599-4.235 2.613-4.493 1.417-.36 3.72 2.151 2.808 3.062-.231.231-.42.805-.42 1.275 0 .47-.407 1.344-.904 1.942-.976 1.173-1.442 2.612-1.536 4.741-.049 1.117.085 1.367.789 1.467.715.102 1.09-.36 2.383-2.93 1.72-3.421 2.791-4.153 3.98-2.723.825.993.877 2.487.096 2.787-.317.122-.577.662-.577 1.2 0 .538-.2 1.3-.445 1.692-.677 1.084-.131 2.042 1.081 1.898 1.603-.191 2.509-2.35 2.682-6.393.183-4.27.538-5.518 1.769-6.209 1.405-.789 1.98-.181 2.998 3.173.609 2.01.785 3.345.64 4.882-.335 3.556-1.219 6.766-2.208 8.02-.517.658-1.335 1.709-1.818 2.335-.482.626-1.666 1.533-2.631 2.01-2.217 1.107-3.223 2.499-3.223 4.461 0 2.914-.757 5.63-2.121 7.617-1.524 2.219-1.66 3.043-.596 3.612 1.623.869 5.328-.039 7.717-1.892.74-.574 1.673-1.163 2.072-1.308.629-.229.7-.558.535-2.468-.105-1.212-.114-2.42-.021-2.684.306-.866 2.264-.516 3.759.672.798.634 2.163 1.342 3.033 1.574 1.524.405 3.808 1.819 4.706 2.913.253.308.327 1.039.178 1.769-.246 1.209-.319 1.25-2.576 1.437-1.757.145-2.725.473-3.972 1.346-.907.635-2.201 1.5-2.876 1.923-.675.423-2.08 1.336-3.123 2.029-2.395 1.591-4.325 2.141-7.484 2.131-5.235-.015-8.928-.987-10.54-2.772-1.01-1.118-4.04-1.144-5.04-.042-.644.712-.661 1.059-.224 4.663.26 2.142.619 4.28.798 4.751.701 1.845 4.632 3.147 6.45 2.137 2-1.112 4.455-1.946 5.112-1.737.412.131.929.574 1.149.986.339.633.087 1.083-1.635 2.913-2.486 2.644-5.115 3.969-7.886 3.974-2.509.005-5.67-1.204-7.35-2.811-1.571-1.503-3.734-6.067-4.381-9.242-.782-3.839-1.862-5.401-4.446-6.425-1.211-.48-2.374-.994-2.586-1.143-.497-.35-4.835-.876-7.307-.887-2.806-.012-6.337 1.494-8.923 3.806-1.644 1.47-2.112 2.114-1.911 2.636.289.752 1.292.721 5.066-.157 2.186-.509 7.03-.516 9.04-.013 4.14 1.038 4.615 1.223 4.615 1.795 0 .766-2.034 2.694-4.405 4.177-1.015.635-2.672 1.685-3.683 2.334-1.01.649-2.817 1.4-4.01 1.668-1.197.268-2.248.689-2.333.935-.086.246-.029 2.01.126 3.909.294 3.61-.688 13.1-2.01 19.422-.749 3.585-.763 5.498-.051 6.875.769 1.486 3.62 3.721 5.124 4.01 1.733.339 7.204-.45 9.274-1.337 3.01-1.291 10.116-1.6 26.589-1.157 8.146.219 15.242.56 15.768.758.526.198 3.121.478 5.765.624 6.708.37 11.462.926 13.268 1.552.846.293 2.836.813 4.423 1.155 2.661.574 5.03 1.49 8.461 3.276 2.467 1.283 4.417 2.389 5 2.835.73.559 1.604 1.055 6.317 3.585 3.211 1.724 4.134 2.049 5.818 2.049 1.309 0 2.166.199 2.48.577.263.317.707.577.987.577.712 0 1.705 1.531 1.705 2.629 0 2.311-3.042 5.447-5.283 5.447-.384 0-1.079.266-1.544.592-.762.534-.961.532-2.032-.022-1.408-.728-3.824-.615-4.246.199-.807 1.556-1.621 4.729-1.923 7.499-.185 1.692-.533 3.855-.773 4.807-.575 2.276-.842 11.57-.398 13.813.192.969.706 2.628 1.142 3.685.436 1.058.884 2.376.997 2.929.112.554.775 1.852 1.473 2.884 1.376 2.037 2.302 4.055 3 6.544.351 1.244.336 2.163-.066 4.23-.35 1.799-.521 6.075-.536 13.41-.021 10.75-.023 10.772-1.014 12.898-.546 1.171-1.455 2.433-2.02 2.803-.565.37-1.292 1.333-1.614 2.138-.682 1.705-1.724 2.545-5.165 4.167-4.86 2.29-7.671 2.837-9.147 1.78m-89.15-160.64c1.291-1.033 1.174-1.934-.342-2.624-1.448-.66-2.895.099-2.895 1.518 0 2.094 1.403 2.574 3.238 1.106m38.513-3.246c3.089-.494 5.945-2.314 7.132-4.545 1.34-2.52 1.697-4.509.925-5.149-.485-.403-1.075-.287-3.373.663-3.945 1.631-5.125 1.959-8.141 2.263-2.556.257-2.76.356-5 2.407-2.611 2.392-2.982 3.24-1.712 3.919 1.953 1.045 5.45 1.197 10.169.443m.356-14.585c1.658-.326 4.214-1.849 4.365-2.601.076-.378-.657-1.41-1.772-2.497-1.046-1.019-2.295-2.664-2.775-3.656-.48-.992-1.125-1.9-1.433-2.02-1.021-.392-1.93 1.174-2.565 4.419-.808 4.13-.787 4.775.201 6.03.657.836 1.027.997 1.827.798.551-.137 1.52-.352 2.152-.476" fill="#f70101"/>
 <path id="outline" d="m198.62 249.38c-.538-.538-.795-.559-1.789-.147-2.556 1.059-3.179-.907-.967-3.052.743-.72 1.769-2.023 2.281-2.896 1.056-1.803 3.138-3.581 5.2-4.442.821-.343 1.797-1.191 2.352-2.044.825-1.269.981-2.052 1.202-6.03.423-7.629.204-17.605-.45-20.518-1.231-5.483-2.436-7.094-9.449-12.626-2.722-2.147-3.762-2.529-4.148-1.524-.121.314-.606.571-1.078.571h-.859l.847.593c.869.608 1.102 1.641.517 2.283-.181.199-.793 1.597-1.36 3.106-.567 1.509-1.336 3.138-1.709 3.619-.718.926-1.107 2.193-1.435 4.684-.111.838-.418 1.781-.682 2.095-.265.314-.774 1.469-1.131 2.567-.357 1.098-.785 2.079-.95 2.181-.165.102-.855 1.947-1.533 4.1-.678 2.153-1.537 4.686-1.91 5.628-.373.943-.883 2.657-1.135 3.81-.735 3.366-1.5 5.069-2.8 6.233-1.142 1.023-1.374 1.079-3.784.908-2.954-.209-3.55.166-3.152 1.978.567 2.581-.936 3.719-5.39 4.08-1.782.145-3.594.547-4.495.999-.839.421-2.361.778-3.429.803-1.866.045-1.919.016-1.903-1.026.017-1.063.0001-1.07-1.808-.822-1.499.206-1.868.138-2.068-.382-.335-.874.419-2.141 1.873-3.149.673-.466 1.909-1.493 2.747-2.283 3.556-3.349 5.492-4.516 8.653-5.215.799-.177 1.122-.556 1.422-1.67.213-.793.691-1.777 1.061-2.187 2.114-2.342 3.936-5.28 6.25-10.08 2.673-5.544 2.961-6.235 3.366-8.096.217-.995.75-2.71 1.185-3.81.653-1.65.782-2.758.739-6.343-.034-2.841-.254-4.883-.634-5.905-.32-.859-.824-2.531-1.12-3.714-.296-1.184-1.028-3.243-1.626-4.576-.598-1.333-1.279-3.511-1.513-4.841-.555-3.152-1.52-5.068-2.877-5.712-2.38-1.13-6.04-1.629-10.144-1.385-4.489.266-11.787 1.193-13.524 1.717-6.244 1.884-9.109 2.676-11.05 3.053-1.257.245-2.68.6-3.161.79-.481.19-1.805.345-2.942.345h-2.067l-.616 2.119c-.339 1.165-.676 3.094-.748 4.286-.222 3.636-.653 6.56-.998 6.773-.18.111-.145.543.078.96.273.511.285 1.155.035 1.977-.365 1.2-.772 4.578-1.035 8.596-.074 1.124-.296 2.581-.495 3.238-.814 2.695-1.561 7.248-2.134 13-.334 3.352-.851 6.781-1.149 7.619-.299.838-.551 2.19-.56 3-.038 3.374-1.946 6.33-4.085 6.33-.417 0-1.57.857-2.562 1.905-.992 1.048-2.055 1.905-2.362 1.905-.307 0-.939.238-1.403.529-.464.291-1.776.744-2.916 1.01-1.14.263-2.615.799-3.278 1.191-.663.391-1.862.752-2.663.802-1.269.079-1.49-.033-1.708-.862-.138-.524-.407-.928-.598-.899-.191.029-.89.168-1.552.309-1.015.215-1.246.127-1.463-.557-.168-.529-.028-1.066.401-1.54.543-.6.573-.83.17-1.316-.42-.506-.574-.513-1.1-.056-1.893 1.646-3.469 1.6-3.469-.101 0-1.084 1.217-2.698 2.035-2.698.265 0 1.821-1.538 3.458-3.417 1.637-1.879 3.295-3.518 3.685-3.642.389-.124 1.041-.693 1.449-1.265.891-1.252 2.327-5.378 2.327-6.687 0-.517.186-1.422.414-2.01.228-.59.416-2.092.419-3.338.003-1.246.143-2.629.312-3.073.169-.444.149-1.653-.045-2.687-.238-1.274-.216-2.208.07-2.898.309-.746.306-1.76-.009-3.793-.237-1.526-.507-4.325-.6-6.22-.471-9.567-1.023-15.04-1.78-17.651-.443-1.527-.978-2.883-1.19-3.01-.211-.131-.742.2-1.178.735-1.196 1.465-5.587 4.858-6.622 5.118-.664.167-1.171-.031-1.867-.728-1.206-1.206-.942-2.218.792-3.046 1.326-.632 1.789-1.693 1.4-3.207-.274-1.068-3-4.321-3.627-4.321-.264 0-1.116.506-1.894 1.124-1.864 1.481-4.372 1.891-5.655.923-1.064-.802-2.941-3.303-2.941-3.917 0-.81 1.397-.399 2.476.728 1.337 1.396 2.349 1.458 2.931.18.353-.774.314-1.224-.199-2.299-.745-1.562-.818-3.822-.194-6.03.431-1.526 2.826-4.858 4.233-5.89 2.19-1.607 2.68-2.248 2.646-3.463-.019-.685-.304-1.541-.631-1.903-.328-.362-.596-1.036-.596-1.498 0-.462-.257-1.455-.571-2.207-.611-1.462-.754-6.964-.216-8.322.442-1.116.107-1.658-1.545-2.5-2.376-1.212-1.708-3.02 1.113-3.02.614 0 1.568-.355 2.12-.79.851-.669 1-1.087 1-2.737 0-1.189.306-2.58.786-3.571.608-1.256.694-1.795.381-2.381-.223-.416-.405-.862-.405-.991 0-.129 1.228-1.469 2.729-2.978 2.436-2.45 2.732-2.906 2.762-4.261.033-1.517.032-1.518-2.824-2.937-5.834-2.898-6.795-3.03-10.01-1.351-1.248.65-1.954.736-4.668.567-4.01-.25-5.368-.976-6.625-3.543-1.671-3.411-1.132-5.567 1.947-7.798 1.413-1.024 1.853-1.135 4.473-1.135 2.02 0 3.772-.278 5.753-.914 1.566-.502 3.875-1.205 5.132-1.561 1.257-.356 3.314-1.081 4.572-1.612 1.257-.531 3.055-1.157 3.996-1.392 2.619-.654 2.398-2.421-.489-3.914-1.359-.703-3.769-3.314-4.28-4.638-.216-.56-.75-1.704-1.186-2.542-.699-1.344-.759-1.884-.506-4.572.158-1.676.575-4.195.927-5.598.57-2.273.967-2.921 3.661-5.958 2.826-3.188 3.02-3.519 3.02-5.13 0-1.456.182-1.875 1.172-2.709 1.569-1.32 2.777-1.569 4.638-.954 1.428.471 1.586.454 1.966-.214 1.456-2.554 3.602-3.208 5.142-1.568.625.665.919 1.549 1.07 3.22.16 1.764.421 2.503 1.117 3.156.894.84.936.843 2.711.207 3.703-1.327 4.827-.603 4.578 2.949-.143 2.042-.327 2.484-1.564 3.769-1.194 1.24-1.401 1.711-1.401 3.179 0 2.947-1.662 4.697-4.982 5.245-.749.124-1.686.462-2.082.751-.704.515-.704.556.029 1.932.412.773.891 1.496 1.065 1.606.174.11 1.889-.48 3.81-1.313 3.945-1.709 6.51-2.75 10.291-4.177 1.704-.643 3.263-1.591 4.502-2.736 1.71-1.581 1.922-1.963 2.183-3.918.159-1.191.51-2.432.78-2.757.407-.491.386-.632-.123-.827-.338-.13-.614-.646-.614-1.147 0-.944-.528-1.576-2.675-3.197-2.432-1.838-3.04-2.691-3.04-4.271 0-.821.177-1.824.394-2.229.488-.911 3.065-2.262 4.316-2.262.686 0 1.032-.293 1.318-1.113.442-1.268 1.678-2.079 2.681-1.761 1.335.424 2.339 1.725 2.339 3.03 0 1.41.495 1.988 1.87 2.186.608.087 1.17.62 1.665 1.576.692 1.338.706 1.563.183 3.048-1.627 4.617-1.91 7.96-.771 9.099.734.734.912.753 2.743.283 2.228-.571 4.653-1.834 4.886-2.545.087-.264-.473-1.035-1.244-1.714-.771-.679-2.101-2.409-2.957-3.845-1.456-2.444-1.55-2.78-1.484-5.266.039-1.461.314-3.115.612-3.675.704-1.328 3.782-4.639 4.313-4.639.227 0 .957.545 1.622 1.21 1.086 1.086 1.185 1.368.964 2.752-.136.848-.516 1.839-.845 2.203-.39.431-.514.998-.356 1.629.416 1.657 2.133.948 2.133-.88 0-1.365 1.896-4.883 2.87-5.327 1.157-.527 3.034.654 3.889 2.447.575 1.205.586 1.426.09 1.812-.31.242-.6.936-.643 1.541-.043.606-.394 1.463-.779 1.905-.951 1.092-1.736 3.511-1.776 5.471l-.033 1.619h1.733c1.842 0 2.648-.486 2.648-1.597 0-.375.343-.897.762-1.158.812-.507 1.103-3.084.397-3.521-.456-.282-1.658 1.968-1.332 2.494.131.213.038.629-.208.925-.246.296-.335.718-.199.938.267.433-.079.593-1.991.924-.76.131-1.238.056-1.238-.195 0-.84 3.12-6.757 3.675-6.97.995-.382 2.691-.242 3.092.254.211.262.506 1.047.655 1.746.218 1.019.106 1.445-.567 2.162-.461.491-.718 1.088-.571 1.326.147.238-.036.769-.408 1.18-.51.564-.568.855-.237 1.186.665.665 1.92-.662 2.194-2.319.125-.757.33-1.633.455-1.948.125-.314.24-1.981.256-3.703.031-3.419.531-4.381 2.529-4.868 1.946-.474 3.492 2.202 4.057 7.03.315 2.691-1.1 8.87-2.361 10.308-.459.524-1.221 1.514-1.692 2.201-.471.687-1.74 1.696-2.82 2.244-2.447 1.24-2.895 1.821-2.91 3.778-.024 3.03-.849 6.01-2.19 7.911-.752 1.066-1.209 2.095-1.079 2.433.347.905 3.723.361 5.795-.934.934-.584 2.197-1.318 2.805-1.632.692-.357 1.04-.79.929-1.156-.385-1.268-.276-3.792.188-4.35.793-.955 2.418-.682 4.423.744 1.031.733 2.187 1.333 2.568 1.333.931 0 2.036.603 3.976 2.171 1.388 1.122 1.619 1.514 1.619 2.748 0 1.955-.896 2.698-3.268 2.709-1.601.008-2.292.284-4.732 1.896-1.571 1.038-3.114 2.127-3.429 2.42-2.285 2.134-8.933 3.82-11.741 2.979-.82-.246-2.092-.447-2.828-.447-1.718 0-3.669-.823-4.791-2.02-1.075-1.147-2.784-1.544-4.089-.95-.967.441-.968.445-.709 4.086.292 4.111.816 5.47 2.431 6.305 1.759.909 2.744.772 6.679-.928 1.666-.72 2.188-.751 3.262-.195.88.455 1.119.836 1.119 1.785 0 .965-.426 1.619-2.121 3.261-2.967 2.874-5.654 4.048-8.686 3.797-2.946-.245-6.229-1.691-7.649-3.37-1.383-1.635-3.38-5.989-4-8.724-.707-3.107-1.865-5.331-3.02-5.799-.549-.223-1.726-.723-2.614-1.113-.888-.389-2.078-.708-2.644-.708-.566 0-2-.201-3.188-.446-1.946-.402-2.438-.358-4.975.448-2.825.897-7.128 3.808-7.175 4.856-.029.637.42.601 2.352-.19 2.32-.951 10.17-.87 13.627.141 2.125.621 2.491.858 2.581 1.672.143 1.3-1.47 3.045-4.373 4.733-1.3.756-2.469 1.545-2.598 1.754-.405.655-3.86 2.241-5.431 2.492-2.225.356-2.42.561-1.984 2.082.752 2.621.136 10.765-1.539 20.365-.91 5.218-.908 6.583.011 7.909.934 1.347 2.961 2.816 4.376 3.171 1.194.3 5.827-.44 8.593-1.372 2.461-.829 8.096-1.331 14.841-1.322 9.772.013 26.549.561 27.62.902.629.2 2.686.475 4.572.61 1.886.135 4.286.314 5.333.397 1.048.083 3.243.256 4.878.384 1.635.128 3.521.462 4.191.741.67.279 2.725.865 4.568 1.302 3.667.87 6.326 2 10.284 4.387 3.264 1.965 4.9 2.882 9.413 5.275 2.908 1.542 3.947 1.907 5.288 1.858.918-.034 1.906.135 2.195.375.289.24 1.081.714 1.759 1.053 1.567.783 2.181 2.79 1.416 4.635-1.05 2.535-3.454 4.553-5.424 4.553-.494 0-1.212.229-1.594.509-.717.524-2.349.42-2.716-.173-.114-.185-.856-.335-1.648-.335-1.435 0-1.443.008-1.908 2.089-.257 1.149-.627 2.188-.823 2.308-.195.121-.358.938-.363 1.816-.008 1.707-.829 6.527-1.45 8.521-.208.665-.282 1.304-.166 1.42.116.116.179 2.258.14 4.759-.063 4.045.032 4.802.863 6.846.514 1.264 1.051 2.833 1.195 3.486.297 1.352.791 2.367 1.947 3.999 2.412 3.404 3.436 7.263 2.829 10.662-.453 2.537-1.187 14.313-.918 14.748.094.152.185 2.296.203 4.764.04 5.533-.846 8.458-2.936 9.692-.819.483-1.356 1.151-1.518 1.89-.342 1.557-2.208 3.158-5.544 4.757-2.661 1.275-6.505 2.418-8.174 2.43-.427.003-1.058-.277-1.404-.622m8.37-4.546c1.484-.601 1.528-.897.305-2.046-1.081-1.016-1.968-.835-2.478.506-.193.509-.534 1.038-.756 1.175-.222.137-.404.5-.404.806 0 .612 1.086.468 3.333-.442m-2.958-2.63c1.132-1.205 2.975-1.555 4.773-.904 1.314.475 1.448.452 2.111-.367.594-.733.67-1.279.474-3.38-.192-2.055-.138-2.474.302-2.329.295.097.591.549.658 1 .152 1.03 1.197 1.079 2.391.112l.883-.715-.425-6.06c-.245-3.497-.291-6.782-.109-7.761.174-.934.344-3.669.378-6.079.085-6.01.097-5.889-.514-5.383-.581.482-1.048-.301-1.765-2.963-.231-.857-.576-1.559-.768-1.559-.191 0-.857-.74-1.48-1.645-.815-1.184-1.028-1.798-.763-2.191.302-.448.483-.374 1 .406.35.524 1.285 1.569 2.079 2.322 1.074 1.021 1.442 1.677 1.442 2.572 0 1.181.803 1.679 1.331.825.293-.475-1.068-3.589-2.243-5.128-1.402-1.839-3.474-6.203-4.621-9.734-.961-2.959-1.047-3.699-.996-8.576.049-4.769.673-9.698 1.37-10.826.398-.643-.156-1.278-.712-.817-.354.294-.722-.254-1.49-2.221-.561-1.436-1.02-2.803-1.02-3.038 0-.824.682-.417.925.552.135.539.454.91.708.826.686-.228.815-1.504.2-1.97-.294-.223-.757-.951-1.029-1.617-.271-.666-.82-1.507-1.22-1.869-.4-.362-.727-.889-.727-1.17 0-.8 1.037-.602 1.684.322.321.459.669.749.773.646.201-.201-1.55-2.849-3.372-5.101-.836-1.033-.999-1.474-.667-1.806.677-.677.539-.978-.751-1.645-1.08-.558-1.135-.671-.594-1.211.541-.541.693-.532 1.645.091.577.378 1.541 1.219 2.143 1.868.931 1 1.061 1.396.872 2.623-.253 1.643.215 2.771 1.631 3.937.958.788.966.829.319 1.816-.572.873-.6 1.228-.203 2.622.483 1.697 1.751 3.435 2.271 3.113.288-.178.229-3.482-.085-4.739-.091-.364.133-.573.619-.575.662-.003.75-.228.67-1.714-.05-.941-.095-2.251-.098-2.912-.007-1.359-.929-2.439-4.306-5.05-2.364-1.825-3.01-3.378-1.21-2.927.698.175 1.027.067 1.205-.395.305-.795-.666-1.543-2.722-2.097-.843-.227-1.962-.717-2.488-1.089-2.74-1.938-16.226-4.208-21.591-3.633-1.915.205-2.614.139-3.109-.294-.351-.307-1.41-.669-2.354-.804-1.538-.221-1.755-.157-2.095.62-.262.597-.764.903-1.618.986-1.367.132-1.658-.49-.593-1.269.572-.418.503-.503-.603-.746-.988-.217-1.425-.108-2.098.525-1.091 1.025-2.739 1.044-3.278.037-.55-1.027-1.444-.959-2.51.19-.546.589-1.289.948-1.948.94l-1.066-.013.857-.715c.471-.393.857-.816.857-.94 0-.445-2.72-.212-4.059.347-1.897.793-3.282.724-3.853-.19-.613-.982-.905-.96-2.601.19-1.595 1.082-2.44 1.214-2.44.381 0-.356.36-.571.952-.571.524 0 .952-.171.952-.381 0-.647-3.348-.457-3.723.212-.313.559-2.763 1.64-3.801 1.676-1.092.038-.362-.747 1.048-1.126 3.042-.819 1.469-1.535-3.238-1.474-4.329.057-5.362.331-5.214 1.386.104.738-.054.849-1.206.849-.729 0-1.39-.194-1.469-.431-.106-.319-1.019-.307-3.505.046-4.39.623-9.833.238-11.551-.817-2.185-1.342-2.769-2.563-2.769-5.796 0-1.649-.263-3.655-.615-4.691-.598-1.762-.593-1.825.19-2.346 1.062-.705 1.093-3.236.059-4.805-.774-1.174-.506-2.113.603-2.113.725 0 .658-.77-.252-2.892-.889-2.075-.741-2.923.479-2.751.566.08.895-.103.983-.546.179-.9-1.532-1.518-3.304-1.194-1.352.247-1.367.237-.715-.498.858-.966.841-1.262-.073-1.262-.864 0-3.45 1.446-3.45 1.929 0 .181-.34.512-.755.734-.562.301-1.243.245-2.662-.22-2.572-.841-3.02-.609-2.935 1.529.057 1.462.171 1.699.734 1.521.367-.117.667-.018.667.22 0 .454-1.817 3.039-2.474 3.518-.253.185-.247.282.017.286.22.003.606-.2.857-.451.354-.354.56-.354.911-.004.351.351.163.713-.831 1.6-.706.631-1.396 1.146-1.533 1.146-.555 0-.709-.521-.35-1.19.728-1.361-1.476.051-2.324 1.489-.839 1.421-.745 2.01.195 1.233.478-.397.581-.377.581.114 0 .328-.188.712-.419.854-.558.345-2.628 4.751-2.629 5.596 0 .367.257.667.571.667.866 0 .685.903-.383 1.907-.942.885-2.438 4.733-2.01 5.163.122.122.573.002 1-.267 1.028-.642 1.383-.232.761.879-.274.489-.69 1.747-.925 2.795-.235 1.048-.558 2.205-.717 2.571-.366.844.632.92 1.313.099.707-.852 1.122-.34.889 1.097-.126.779-.032 1.386.241 1.555.607.375.67.273 1.179-1.905.244-1.042.619-2.626.834-3.52.479-1.99 2.437-5.171 2.977-4.838.245.151-.045 1.022-.766 2.3-1.193 2.114-1.492 3.592-.726 3.592.239 0 .653-.3.921-.666.786-1.075 1.144-.177.461 1.157-.344.673-.742 1.995-.884 2.937-.142.943-.577 2.56-.966 3.593-.519 1.377-.597 2.01-.294 2.377.261.314.304 1.028.118 1.931-.163.788-.257 1.734-.209 2.102.048.368-.224.778-.605.911-.38.133-1.363.946-2.185 1.807-1.449 1.518-1.501 1.538-1.716.678-.22-.878-.231-.875-1.108.312-.547.739-.788 1.444-.63 1.839.226.564.326.539.839-.217.32-.471.755-.857.966-.857.474 0 .043 2.993-.53 3.684-.435.524-.131 3.782.44 4.704.431.698.534.385 1.157-3.531.29-1.82.649-2.952.937-2.952.34 0 .417.696.283 2.572-.124 1.74.016 3.241.432 4.641.338 1.138.615 2.724.615 3.524 0 1.683.417 1.848 1.293.51.674-1.029.635-3.165-.2-10.799-.279-2.548-.302-4.225-.066-4.762 1.295-2.948 2.203-4.455 2.796-4.643 1.061-.337 3.415-3.442 3.415-4.505 0-.668.739-1.681 2.476-3.393 2.247-2.214 3.094-3.717 2.095-3.717-.21 0-.381-.217-.381-.482 0-.706 2.266-5.233 2.619-5.233.735 0 .682.571-.216 2.36-.818 1.629-.893 2.046-.497 2.784.414.774.293 1.101-1.101 2.989-.884 1.196-1.566 2.549-1.566 3.105 0 .559-.659 1.858-1.524 3-.838 1.11-1.524 2.282-1.524 2.604 0 .322-.257.799-.571 1.06-.608.505-.8 2.667-.237 2.667.66 0 1.248-1.121.999-1.905-.278-.877-.049-1.15 6.247-7.46 1.969-1.973 3.726-3.588 3.905-3.588.473 0 .398.536-.151 1.088-.262.263-.476.933-.476 1.487 0 .833-.341 1.18-1.954 1.989-2.613 1.31-3.189 1.837-3.189 2.911 0 1.157.404 1.145 1.524-.047.865-.921 1.905-1.274 1.905-.646 0 .168-.616.897-1.37 1.619-.753.722-1.876 2.041-2.495 2.932-1.277 1.839-2.061 2.132-1.684.629.39-1.554-.559-.941-1.675 1.082-1.259 2.282-1.325 2.333-2.254 1.753-1.01-.628-1.758.011-1.387 1.18.194.612.454.754 1.038.569.902-.286 1.422.333 1.459 1.739.016.606.33.062.863-1.496.843-2.463 1.79-3.489 1.79-1.94 0 .45-.149 1.107-.331 1.46-.51.989-.927 5.52-.483 5.246.206-.127.495-.781.643-1.453.148-.672.408-1.484.578-1.805.17-.321.403-1.034.518-1.583.259-1.242 1.573-2.914 1.974-2.513.164.163-.162 1.192-.725 2.286-.816 1.587-1 2.432-.932 4.184.097 2.348.202 2.233 1.307-1.434.677-2.247 1.514-2.822 1.385-.952-.29 4.222-.403 5.24-.619 5.589-.136.22-.11 1.152.057 2.072l.304 1.673.301-2.476c.165-1.362.525-2.905.799-3.429.44-.841.529-.873.762-.279.145.37.072 1.142-.162 1.714-.588 1.439-.052 4.42.825 4.589.503.097.657-.139.657-1.013 0-.627.104-1.41.23-1.74.405-1.056.912-.233.912 1.482 0 1.822.286 2.866.786 2.866.178 0 .288-1.482.245-3.294-.057-2.416.054-3.34.417-3.467.388-.135.456.474.316 2.818-.12 1.999-.013 3.369.322 4.133.275.629.607 1.464.738 1.856.185.555.481.664 1.341.492.727-.145 1.261-.031 1.565.335.565.681 1.38.72 1.639.079.106-.262.206-.09.222.381.041 1.182.726 1.075 1.218-.19.395-1.016.252-4.351-.263-6.095-.139-.471-.094-.857.101-.857.194 0 .57.844.834 1.875.264 1.031.732 1.971 1.039 2.089.974.374.997-.793.046-2.309-.986-1.571-1.636-4.926-1.088-5.615.184-.231.204-1.363.044-2.516-.16-1.152-.167-2.229-.017-2.394.426-.464 1.401.062 1.825.986.211.46 1.256 1.522 2.322 2.36 2.083 1.638 2.467 2.476 1.135 2.476-.804 0-.795.04.234 1.114.587.613 1.267 1.038 1.51.944.244-.093 1.124.163 1.956.57l1.513.74.32-.931.32-.931 1.369 1.202c2.263 1.987 5.75 3.25 6.34 2.296.26-.42-.852-1.406-1.969-1.746-.471-.144-.857-.507-.857-.807 0-.73.269-.689 1.42.216.533.419 1.197.762 1.477.762.28 0 1.138.353 1.906.785 2.01 1.128 2.445.352.544-.966-1.431-.991-2.14-2.062-1.062-1.603.262.112 1.373.591 2.47 1.066l1.993.863.864-.806c.8-.746.959-.766 2.146-.263.705.298 1.434.543 1.619.543.576 0 .371-.844-.329-1.355-1.273-.931-.097-1.037 2.478-.224 1.425.45 2.8.817 3.056.817 1.01 0 .372-.675-1.439-1.524-1.048-.491-1.905-1.108-1.905-1.371 0-.991-1.22-1.747-2.447-1.517-.944.177-1.607-.054-3.239-1.129-2.472-1.628-3.822-2.864-3.831-3.507-.013-.91 1.052-.468 2.063.857 1.134 1.486 2.502 1.799 2.502.571 0-1.01 1.193-.999 1.827.017.612.98 3.808 3.03 4.724 3.03.378 0 .687.171.687.381 0 .21.249.381.553.381.326 0-.014-.551-.829-1.342-.991-.962-1.265-1.459-.97-1.754.295-.295.998.031 2.483 1.152 2.392 1.806 3.211 1.941 3.716.613l.361-.951 2.423 1.332c2.74 1.506 2.931 1.555 2.931.76 0-.314.247-.571.55-.571.701 0 3.165 1.397 4.403 2.496.524.465 1.524 1.134 2.224 1.487 1.209.611 1.265.608 1.139-.043-.075-.389-1.078-1.153-2.319-1.767-1.203-.595-2.187-1.328-2.187-1.628 0-.829.956-.653 2.216.407.623.524 1.321.952 1.553.952.232 0 .421.163.421.362 0 .199.557.887 1.238 1.53 1.031.973 1.143 1.228.667 1.529-.496.314-.478.451.141 1.042.519.496.76.551.889.204.097-.262.401-.476.675-.476.731 0 1.05 1.133.39 1.386-.435.167-.224.682.959 2.333.835 1.165 1.517 2.357 1.517 2.648 0 .291.514.709 1.143.928.629.219 1.143.617 1.143.885 0 .268 1.638 2.094 3.639 4.058 2 1.964 3.987 4.128 4.412 4.809.425.681.946 1.238 1.158 1.238.212 0 .841.352 1.398.783.557.431 1.823 1.378 2.813 2.106 1.573 1.156 5.243 5.452 7.247 8.484 1.464 2.215 2.497 5.954 2.91 10.532.694 7.692.723 8.621.392 12.953-.516 6.756-1.074 9.787-2 10.862-1.144 1.327-3.306 2.901-4.444 3.235-1.191.35-2.334 1.327-2.064 1.764.363.587 1.148.352 2.058-.617m-.417-55.15c-.029-.786-.075-1.714-.101-2.064-.026-.349.167-.706.429-.794.333-.111.474.339.47 1.492-.008 2.174-.722 3.396-.798 1.365m2.328-5.382c0-.498-.257-1.521-.571-2.274-.702-1.68-.704-1.773-.037-1.773.294 0 .722.54.952 1.2.523 1.499.545 3.753.037 3.753-.21 0-.381-.408-.381-.906m.958-3.38c-.089-.262-.239-1.333-.335-2.381-.096-1.048-.295-2.291-.443-2.762-.168-.537-.11-.857.157-.857.234 0 .425.235.425.522 0 .287.342 1.591.759 2.898.418 1.307.665 2.529.549 2.716-.305.493-.925.417-1.112-.136m-83.4-.507c-.363-.945-.271-2.445.15-2.445.21 0 .381.686.381 1.524 0 1.624-.157 1.896-.531.921m65.17.349c-.14-.14-.254-.504-.254-.809 0-.45.108-.465.571-.08.314.261.571.625.571.809 0 .394-.527.442-.889.08m3.46-1.826c-1.16-1.399-1.33-2.111-.502-2.111.65 0 2.121 1.957 2.121 2.821 0 .899-.447.703-1.619-.71m-8.805-2.206c-1.197-1.31-2.939-2.957-3.872-3.661-1.583-1.194-1.9-1.958-.814-1.958.75 0 7.491 6.857 7.491 7.62 0 .801-.704.3-2.805-2m3.091.711c-1.408-1.688-1.764-2.52-1.08-2.52.59 0 2.764 3 2.632 3.636-.086.416-.557.078-1.553-1.116m-54.08-7.03c-2.652-1.844-3.257-2.593-2.615-3.235.248-.248.886.083 1.87.972.821.742 2.286 1.814 3.255 2.381.969.568 1.762 1.188 1.762 1.377 0 .818-1.901.152-4.272-1.496m8.843 1.316c-2.336-.861-4.321-1.936-4.481-2.428-.237-.73.771-.572 3.01.472 1.121.522 2.403.95 2.848.952.871.004 1.821.865 1.408 1.277-.37.37-1.288.279-2.79-.274m3.676-4.775c-.992-.991-1.321-1.555-1.017-1.743.56-.346 3.413 2.106 3.43 2.948.014.685-1.057.15-2.413-1.205m-3.64-.579c-.69-.509-1.538-1.203-1.884-1.541-.346-.338-.971-.852-1.39-1.142-.689-.476-.7-.551-.119-.776.711-.276 5.189 3.068 5.235 3.909.039.703-.439.586-1.843-.45m-4.604-.784c-.383-.461-.348-.614.182-.817.599-.23 1.317.362 1.332 1.099.001.5-1.026.307-1.514-.281m-35.452-8.993c-.445-.831-.207-2.471.477-3.296.71-.856.882-.516.914 1.807.033 2.427-.553 3.054-1.391 1.488m98.97-2.853c-.122-.122-1.295-.593-2.606-1.048-3.754-1.3-3.315-2.655.498-1.534 2.142.63 3.346 1.454 3.346 2.291 0 .514-.822.707-1.237.291m-78.11-4c-.865-.503-.497-1.108.675-1.108 1.089 0 1.639.715.906 1.18-.656.415-.751.411-1.581-.072m3.796-.971c-.461-.461.164-.899 1.282-.899.742 0 1.12.193 1.12.571 0 .576-1.895.835-2.402.328m-27.06-5.34c-.426-.426 3.513-5.083 4.298-5.083.718 0 .417.698-.935 2.169-.732.797-1.332 1.566-1.333 1.708-.002.353-1.131 1.456-1.489 1.456-.16 0-.403-.113-.541-.251m1.653-9.559c.003-.157.155-.522.338-.811.423-.667 1.218-.209.932.537-.218.568-1.281.797-1.27.274m-.387-2.092c0-.682 1.814-2.411 2.164-2.062.303.303-1.039 2.224-1.71 2.448-.249.083-.453-.091-.453-.386m67.53 112c2.065-.915 2.157-1.563.248-1.742-.717-.067-1.467-.282-1.666-.476-.199-.195-.628-.352-.952-.349-.679.005-3.829 2.812-3.829 3.412 0 .633 4.138.069 6.199-.845m-58.1-.495c2.353-.983 1.957-2.522-.772-3-1.176-.208-1.477-.13-1.675.432-.133.377-.664 1.142-1.18 1.702-.526.57-.817 1.213-.662 1.463.314.508 2.315.232 4.289-.592m-5.244-1.697c.591-.83.67-1.143.289-1.143-.934 0-1.951.995-1.696 1.659.328.854.468.802 1.407-.516m56.25.571c.314-.314.409-.571.21-.571-.199 0-.575.257-.836.571-.261.314-.355.571-.21.571.145 0 .521-.257.836-.571m1.823-1.551c.615-.615.797-1.306.343-1.306-.384 0-1.649 1.214-1.649 1.583 0 .513.655.374 1.306-.277m7.821-2.163c.934-.966 1.746-2.272 2.01-3.238.511-1.85.912-2.034 1.434-.66.372.978 1.942 1.829 3 1.625.746-.144 1.132-1.889 1.368-6.193.167-3.048.276-3.45.998-3.717.659-.244.781-.544.657-1.611-.133-1.135-.048-1.302.625-1.235.673.066.773-.129.736-1.447-.024-.838-.157-2.21-.296-3.048-.186-1.123-.157-1.309.112-.706.399.897 1.114 1.47 1.434 1.149.268-.268-.896-3.752-1.554-4.652-.477-.652-.572-.589-1.322.881-.444.871-.808 2-.808 2.51 0 .51-.257 1.025-.571 1.146-.314.121-.571.469-.571.774 0 1.015-4.681 9.929-5.729 10.91-.567.531-1.47 1.832-2.01 2.892-1.01 1.987-3.311 4.334-4.254 4.334-1.115 0-.965.798.25 1.326 2.033.883 2.8.705 4.487-1.04m-68.21-.129c1.232-1.037 1.497-1.68.692-1.68-.577 0-2.568 1.784-2.568 2.301 0 .623.655.407 1.876-.621m9.457.582c.923-.322 1.306-.81 1.871-2.381.596-1.657.863-1.976 1.653-1.976.641 0 .988.243 1.084.762.184.989.784 1.714 1.419 1.714.613 0 .499-3.412-.17-5.08-.506-1.261-.291-1.778.738-1.778.407 0 .755-.129.774-.286.019-.157.093-1.486.165-2.952.072-1.467.408-4.295.748-6.286.339-1.991.688-4.219.774-4.953.086-.733.271-1.976.411-2.762.232-1.305.179-1.429-.608-1.429-.79 0-.839-.118-.588-1.429.873-4.558.889-4.854.313-5.84-.515-.881-.51-1.105.041-2.172.338-.654.615-1.798.615-2.542 0-.974.167-1.352.597-1.352.447 0 .528.215.321.857-.152.471-.235 2.143-.186 3.714.05 1.571.094 3.5.098 4.286.008 1.561.577 1.943.849.571.094-.471.368-2.646.609-4.833.423-3.831.41-3.997-.345-4.572-.549-.417-.716-.853-.558-1.452.133-.504-.033-1.253-.405-1.82-.347-.53-.531-1.127-.407-1.327.199-.321-.258-3.616-.831-5.997-.113-.471-.036-.857.172-.857.456 0 1.609 3.379 1.609 4.716 0 .524.158 1.051.351 1.17.198.123.406-1.067.477-2.739.105-2.459 0-3.135-.624-4.02l-.75-1.062-.608.805c-.603.799-.616.793-1.688-.754-.594-.858-1.131-1.51-1.192-1.448-.061.061.221 1.119.628 2.352.805 2.439.912 3.265.423 3.265-.338 0-.824-.906-1.629-3.03-.274-.724-.806-1.624-1.181-2-.376-.376-.683-.854-.683-1.064 0-.21-.191-.381-.423-.381-.289 0-.328.455-.124 1.429.165.786.274 1.931.243 2.544-.031.614.119 1.327.333 1.586.271.326.211.898-.195 1.869-.438 1.047-.499 1.799-.245 2.986.187.872.357 3.438.379 5.702.022 2.264.216 5.349.432 6.857.729 5.106-.13 15.676-1.386 17.07-.403.445-.456.73-.17.907.517.32.142 2.713-.614 3.919-.298.475-.697 1.589-.888 2.476-.19.887-.686 2.556-1.101 3.709-.672 1.866-.884 2.108-1.934 2.215-.76.077-1.407.467-1.819 1.097-.615.939-.606 1 .24 1.69 1.016.823 1.396.862 2.985.308m7.523-47.6c-.333-.539.171-1.96.601-1.694.463.286.459 2.078-.005 2.078-.197 0-.465-.173-.596-.384m-13.998 44.735c-.363-.363-1.091.225-.82.663.161.26.374.254.648-.02.224-.224.302-.514.173-.643m4.068-2.78c1-1.648 1.361-2.673 1.361-3.875 0-.952.25-1.911.599-2.296.472-.522.522-.942.234-1.983-.422-1.527-.096-2.309.816-1.959.594.228.839-.191.662-1.134-.567-3.02-1.121-5.504-1.348-6.04-.202-.476-.108-.667.329-.667.337 0 .612.257.612.571 0 .314.187.571.414.571.664 0 .012-3.03-1.049-4.875-.663-1.151-.874-1.949-.711-2.69.174-.793.026-1.235-.601-1.792l-.833-.739.283 2.286c.563 4.542.575 8.503.033 10.305-.293.973-.447 1.99-.343 2.261.313.817-.827 5.574-1.896 7.912-1.421 3.106-1.709 5.205-.806 5.865.386.282.743.513.792.513.05 0 .703-1.01 1.451-2.24m74.65-17.02c.126-.329.012-.972-.253-1.429-1.488-2.559-2.033-3.302-2.425-3.304-.672-.004-.919 1.051-.302 1.287.301.116.547.49.547.831 0 .996 1.185 3.212 1.717 3.212.268 0 .591-.269.717-.598m1.308-3.154c.071-.484-.367-1.5-1.043-2.42-1.341-1.824-1.252-2.435.136-.936.516.557 1.083 1.012 1.261 1.012.532 0 1.237-.871 1.237-1.528 0-.608-3.598-4.187-4.209-4.187-.672 0-.751.786-.188 1.875.771 1.491.743 1.655-.231 1.346-.772-.245-.803-.17-.561 1.343.268 1.677 2.347 4.7 3.068 4.463.223-.073.461-.509.529-.968m-71.19-1.689c-.324-.255-.881-.888-1.238-1.406-.642-.932-.649-.933-.649-.095 0 .466.171.847.381.847.21 0 .381.257.381.571 0 .342.344.567.857.559.743-.001.778-.074.268-.476m.293-3.575c.081-.244-.188-.55-.598-.681-.41-.13-1.046-.873-1.412-1.651-1.097-2.331-2.346-3.995-2.641-3.517-.456.738.133 2.191 1.781 4.395 1.488 1.99 2.519 2.512 2.871 1.455m73.5-1.08c.18-.549-4.22-4.762-4.974-4.762-.64 0-.102 1.906.817 2.897 1.943 2.095 3.808 2.932 4.157 1.865m.756-2.675c.145-.378-.395-1.124-1.552-2.142-.976-.859-1.683-1.654-1.57-1.767.113-.113.506.067.874.398.368.332 1.14.721 1.717.864 1.78.444 1.299-.978-.776-2.292-.988-.626-2.443-1.721-3.234-2.434-1.881-1.696-2.304-1.239-.537.58.753.775 1.272 1.566 1.153 1.758-.124.201-.39.174-.63-.066-.228-.228-.734-.414-1.126-.414-1.551 0-.128 1.987 3.699 5.164 1.303 1.082 1.677 1.148 1.983.351m-74.915-1.272c0-.691-2.031-3.709-3.04-4.517-1.647-1.319-1.548.589.127 2.463.703.786 1.483 1.82 1.733 2.298.498.95 1.179.809 1.179-.244m-.193-5.393c-.132-.414-.659-.859-1.172-.987-.513-.129-1.357-.772-1.875-1.429-.864-1.096-.943-1.126-.947-.357-.002.461.226.975.507 1.143.281.168.826.819 1.211 1.448 1.061 1.732 1.787 2.236 2.188 1.52.179-.321.219-.922.087-1.336m76 .609c0-.932-.443-1.745-.951-1.745-.269 0-.893-.351-1.388-.78l-.899-.78 1.295.252c1.119.217 1.261.163 1.045-.401-.458-1.194-1.948-2.79-2.826-3.03-.477-.129-2.578-1.954-4.669-4.055-2.091-2.102-3.973-3.716-4.181-3.587-.69.426-.426 1.713.351 1.713.401 0 1.216.524 1.81 1.165.594.641 1.566 1.683 2.16 2.317 1.276 1.36 1.041 1.986-.28.745-.969-.911-1.123-.827-1.517.821-.179.748-.104 1.048.262 1.048.282 0 .901.414 1.377.92.641.682.792 1.149.583 1.807-.248.781-.209.827.329.38.527-.438.962-.218 3.198 1.612 2.506 2.052 4.302 2.719 4.302 1.598m-76.56-4.247c.204-.537.372-1.016.372-1.064 0-.048-.694-.832-1.543-1.742-.849-.91-1.911-2.36-2.361-3.221-.507-.972-.867-1.343-.947-.976-.168.77 3.179 7.981 3.704 7.981.222 0 .57-.44.774-.977m73.52-4.163c0-.288-.326-.627-.725-.753-.827-.263-6.514-6.089-6.514-6.675 0-.212-.257-.385-.571-.385-.886 0-.68.855.556 2.3.62.725 1.142 1.49 1.16 1.7.052.599 5.344 4.799 5.739 4.555.195-.12.354-.454.354-.742m-74.1-1.718c.13-.21.654-.381 1.165-.381.578 0 .93-.219.93-.578 0-.44-.376-.554-1.576-.476-1.467.095-1.605.018-2-1.119-.47-1.352-1.239-2.282-1.594-1.926-.127.127.213.988.756 1.913.542.925.986 1.967.986 2.316 0 .688.952.869 1.333.252m69.52-7.06c-.255-.307-.614-.559-.798-.559-.538 0-.386.656.315 1.357.776.776 1.203.07.483-.799m-50.704-.903c.668-.423.22-1.18-.697-1.18-.812 0-1.334 1.01-.664 1.279.672.273.786.265 1.361-.099m-20.14-.608c0-.314-.153-.571-.34-.571-.187 0-.439.257-.559.571-.134.348-.0001.571.34.571.308 0 .559-.257.559-.571m26.854.184c-.132-.213-.399-.289-.594-.168-.528.327-.43.555.239.555.327 0 .486-.174.355-.387m40.957-.381c0-.213-.514-.348-1.143-.3-.629.048-1.143.222-1.143.387 0 .165.514.3 1.143.3.629 0 1.143-.174 1.143-.387m-3.978-.578c-.942-.713-1.356-.709-1.356.012 0 .372.365.567 1.048.559 1-.012 1.016-.036.308-.571m-36.648-.75c-.232-.604-.9-.793-.9-.254 0 .403.416.825.813.825.168 0 .207-.257.086-.571m-4.709-.168c0-.197-.171-.464-.381-.594-.21-.13-.381.032-.381.358 0 .327.171.594.381.594.21 0 .381-.161.381-.358m-27.81-.784c0-.21-.257-.381-.571-.381-.341 0-.571-.35-.571-.868 0-.477-.242-1.213-.538-1.635-.374-.533-.488-1.489-.376-3.132.095-1.382.009-2.365-.207-2.365-.556 0-.895 2.405-.707 5.01.137 1.889.338 2.446 1.092 3.03 1.017.781 1.877.941 1.877.347m65.54-.106c.593.155.744-.0001.744-.769 0-.913-.061-.941-1.143-.532-1.112.42-1.43.993-.865 1.558.153.153.332.114.399-.087.067-.2.456-.277.865-.17m-62.877-1.99c0-.593-.216-.952-.571-.952-.615 0-.706.349-.34 1.302.356.927.912.714.912-.35m-16.93-.369c.7-.529.673-.56-.499-.571-.852-.008-1.238.166-1.238.559 0 .727.784.732 1.737.012m36.568-.149l.901-.708-.954-.434c-1.295-.59-1.299-.588-1.299.708 0 1.337.145 1.384 1.352.435m81.36-.544c-.311-.311-.424-.268-.424.16 0 .757.512 1.27.702.702.08-.241-.045-.629-.278-.862m-41.949.322c0-.732-.249-.852-2.43-1.179-1.497-.224-1.824-.176-1.684.249.41 1.241 4.114 2.078 4.114.93m45.525-.594c-.129-.21-.311-.381-.403-.381-.092 0-.168.171-.168.381 0 .21.182.381.403.381.222 0 .297-.171.168-.381m-106.86-1.905c0-.21-.182-.381-.403-.381-.222 0-.297.171-.168.381.129.21.311.381.403.381.092 0 .168-.171.168-.381m-12.834-1.176c-.506-.506-1.066.187-.67.828.184.298.372.298.67 0 .298-.298.298-.53 0-.828m-3.143-.074c.714-.557 1.234-1.797.754-1.797-.596 0-.662-1.295-.123-2.394.331-.674.924-1.141 1.628-1.282.609-.122 1.399-.545 1.757-.94.357-.395.989-.718 1.403-.718 1.091 0 2.176-1.443 2.176-2.893 0-.689.157-1.349.348-1.468.191-.118.47-.939.62-1.824.149-.885.509-1.97.798-2.412.334-.51.437-1.249.282-2.025l-.244-1.222-.673 1.106c-.37.608-.849 2.238-1.064 3.62-.215 1.383-.532 2.764-.705 3.069-.443.784-3.181 2.905-3.75 2.905-.739 0-2.939 2.671-3.992 4.845-.529 1.092-1.278 2.054-1.684 2.161-.687.182-.675.242.19.962 1.07.891 1.461.943 2.279.305m63.978-1.226c-.261-.314-.817-.571-1.236-.571-.634 0-.682.096-.288.571.261.314.817.571 1.236.571.634 0 .682-.096.288-.571m65.22-3.117c-.275-.11-.604-.097-.73.03-.127.127.098.217.5.2.444-.018.534-.109.23-.23m5.595-1.607c.436-.276.408-.592-.166-1.892-.667-1.511-.734-1.554-2.129-1.331-1.657.265-3.642-.413-5.949-2.033-5.642-3.96-6.185-4.289-6.185-3.747 0 .311.471.867 1.048 1.234.576.368 1.272.972 1.546 1.343.274.371 1.521 1.369 2.772 2.218 2.236 1.519 2.667 2.546.879 2.097-.501-.126-.911-.11-.911.034 0 .595 1.316 1.657 2.059 1.662.439.003 1.055.172 1.37.375.71.459 4.956.488 5.666.038m-119.84-4.849c.825-1.324.878-1.565.337-1.524-.647.049-1.595 1.727-1.595 2.823 0 .71.019.69 1.258-1.299m12.267-31c-.129-.21-.311-.381-.403-.381-.092 0-.168.171-.168.381 0 .21.182.381.403.381.222 0 .297-.171.168-.381m-15.05-4.563c.329-.615.296-.712-.177-.531-.319.122-.58.461-.58.753 0 .744.285.66.757-.223m15.624-.77c0-.21-.161-.381-.358-.381-.197 0-.464.171-.594.381-.13.21.032.381.358.381.327 0 .594-.171.594-.381m-.762-5.168c0-.119-.172-.537-.382-.929-.463-.865.165-1.414.91-.796.272.226.607.298.745.16.48-.48.247-2.329-.321-2.547-.314-.121-.571-.54-.571-.932 0-.392-.886-1.517-1.97-2.499-1.473-1.336-1.86-1.896-1.536-2.221.567-.567 3.918-.543 6.524.047 1.946.441 2.209.407 4.531-.58 1.356-.576 2.919-1.489 3.473-2.029.555-.54 1.423-1.255 1.93-1.589l.922-.608-1.127-.55c-.706-.345-1.086-.794-1.016-1.202.127-.739-.031-.765-4.112-.659-2.147.056-3.284.296-4.572.964-.943.489-2.791 1.358-4.108 1.929-2.142.93-2.496.985-3.363.52-1.31-.701-1.802-1.69-1.304-2.621.376-.703.269-.732-2.272-.597-2.64.14-2.668.131-2.668-.827 0-.813-.137-.934-.857-.754-.471.117-1.629.329-2.572.47-.943.141-2.572.73-3.619 1.31-1.048.58-4.692 1.935-8.098 3.01-5.239 1.658-6.581 1.945-8.713 1.866-2.236-.083-2.6.006-3.235.791-.885 1.093-.926 2.984-.085 3.913.472.522 1.183.697 2.832.697 1.866 0 2.238.116 2.443.762.133.419.53.759.883.756 1.274-.011 3.683-1.078 4.203-1.861.305-.459.939-.8 1.488-.8 1 0 3.522 1.359 3.522 1.9 0 .5 3.907 2.569 6.5 3.442 1.98.667 2.555.725 3.461.35 1.422-.589 1.374-1-.151-1.308-2.297-.462-2.541-.591-2.302-1.213.144-.376-.113-.86-.686-1.293-.715-.54-.816-.794-.458-1.152.357-.358.293-.67-.292-1.413-.559-.711-.689-1.278-.511-2.228.235-1.251.214-1.274-1.114-1.274-1.476 0-1.908-.363-1.549-1.299.138-.361.679-.606 1.335-.606.75 0 1.102-.192 1.102-.601 0-.33.501-1.102 1.114-1.714 1.279-1.279 2.89-1.487 3.172-.409.109.418.669.801 1.378.943.794.159 1.448.657 1.954 1.486 1.069 1.753.978 3.181-.277 4.344-1.049.973-1.332.994-4.058.31-1.224-.307-1.322.324-.174 1.127.696.488.746.669.323 1.178-.42.507-.376.716.281 1.329.429.4.848.93.931 1.178.24.719 3.86 1.149 4.232.502.433-.752.937-.655 1.219.233.155.487.576.762 1.169.762.974 0 1.221-.696.503-1.414-.233-.233-.309-.61-.168-.838.321-.52 1.735-.547 1.735-.033 0 .21.257.381.571.381.317 0 .571-.339.571-.762 0-1.105.942-.934 1.491.27.404.887.376 1.101-.202 1.524-.37.27-.811.492-.981.492-.62 0-.285 1.485.549 2.437.808.922 1.429 1.259 1.429.776m-35.14-7.724c-1.206-.73-1.651-1.595-1.021-1.985.619-.383 3.79-.781 4.199-.528.696.43.308 1.662-.765 2.426-1.273.907-1.07.899-2.413.087m34.924-4.213c-.445-.445.08-.84 3.036-2.284 4.115-2.01 7.092-2.13 7.079-.285-.014 1.996-1.544 2.662-6.21 2.702-2.057.018-3.814-.042-3.905-.133m7.835-2.134c0-.314-.247-.571-.549-.571-.636 0-1.066.544-.711.899.455.455 1.26.246 1.26-.328m-37.502 11.04c.705-.553.688-.575-.374-.476-.612.057-1.184.318-1.27.58-.216.658.75.597 1.644-.104m-6.308-2.087c0-.21-.267-.381-.594-.381-.327 0-.488.171-.358.381.129.21.397.381.594.381.197 0 .358-.171.358-.381m74.67-.616c1.476-.267 2.286-.775 2.286-1.433 0-.299-.958-.389-3.098-.292-2.57.117-3.37.005-4.698-.659-.88-.44-1.87-1.102-2.198-1.471-.84-.945-1.43-3.351-1.433-5.845-.002-1.743-.217-2.45-1.198-3.931-.658-.993-1.601-2.071-2.095-2.395-1.171-.767-1.135-1.186.148-1.712 1.028-.422 1.782-.527 5.631-.786 1.054-.071 2.335-.422 2.847-.78 1.228-.86 1.656-.823 1.409.123-.274 1.047 3.404 3.772 6.01 4.458 2.943.773 8.612-.146 11.405-1.849.644-.393 1.471-.714 1.837-.715.367-.0001.667-.2.667-.444 0-1.167 5.264-4.51 7.1-4.51.47 0 .973-.191 1.117-.424.474-.766-.747-1.126-3.455-1.017l-2.667.107-.012-1.143c-.001-.883-.203-1.17-.853-1.264-.738-.106-.814.011-.624.962.165.826-.088 1.533-1.067 2.978-1.813 2.676-4.423 3.942-8.759 4.248l-3.264.23-1.758-1.758c-1.859-1.859-2.229-3.101-1.037-3.479.396-.126.812-.579.924-1.01.169-.648.331-.709.968-.368 1.083.579 1.196.528 1.196-.543 0-.524.167-.952.371-.952.722 0 1.475-2.164 1.731-4.969.335-3.68 1.413-6.079 2.732-6.079 1.386 0 3.31-1.014 4.183-2.205.416-.568 1.236-2.259 1.82-3.757.928-2.377 1.034-3.056.834-5.333-.471-5.364-.607-5.848-1.641-5.848-.802 0-.897.124-.656.857.155.471.291 1.999.303 3.394.017 2.056-.194 2.987-1.113 4.912-1.693 3.545-3.497 5.351-5.583 5.586-1.537.173-1.845.058-3.408-1.279-2.451-2.097-4.144-4.895-4.144-6.848v-1.573l-1.892-.182c-1.041-.1-2.155-.4-2.476-.667-.725-.602-.756-2.26-.061-3.259.288-.413.644-1.309.792-1.99.249-1.144.196-1.238-.704-1.238-1.191 0-1.949 1.071-2.497 3.528-.381 1.706-.327 1.966.91 4.381.893 1.745 2.394 3.665 4.687 5.996 3.878 3.943 4.731 5.613 4.766 9.334.018 1.957-.198 2.935-1.033 4.667-.581 1.205-1.196 2.191-1.367 2.191-.171 0-.417.334-.547.743-.272.858-2.155 2.102-5.149 3.402-1.687.733-2.96.945-6.533 1.088-4.23.17-4.587.123-7.619-.989-1.75-.642-4.21-1.243-5.467-1.334-1.257-.092-3.44-.293-4.851-.447-1.638-.179-2.739-.136-3.048.118-.265.219-1.768.846-3.34 1.393-1.571.547-3.543 1.468-4.381 2.047-3.035 2.096-3.147 2.115-6.293 1.057-2.946-.991-3.8-1.692-5.676-4.664-.77-1.219-.915-1.915-.882-4.214.034-2.355.225-3.099 1.316-5.129 1.238-2.302 1.369-2.413 4.311-3.658 5.596-2.368 5.701-2.436 5.701-3.698 0-.994-.123-1.128-.952-1.03-2.697.317-2.855.286-2.978-.584-.088-.618.158-.981.888-1.313 1.894-.863 3.147-4.608 1.891-5.651-.695-.577-.639-.638-1.485 1.643-.724 1.953-2.01 3.104-3.02 2.714-.344-.132-.625-.532-.625-.888 0-1.148-.932-2.055-1.822-1.773-.665.211-.858.668-1.069 2.533-.24 2.119-.388 2.392-2.154 3.98-4.03 3.626-5.456 6.923-5.164 11.965.148 2.556.355 3.218 1.762 5.627.877 1.501 1.932 2.837 2.344 2.968.412.131 1.079.656 1.481 1.168.402.511 1.077.93 1.5.93.422 0 1.627.679 2.677 1.509 2.531 2 3.499 2.213 5.223 1.148 1.018-.629 1.484-.738 1.802-.419.681.681 1.263.505 1.731-.523.274-.601.753-.957 1.299-.964.476-.007 1.722-.434 2.77-.949 1.048-.515 2.333-.944 2.857-.953.524-.009 1.253-.243 1.62-.522.367-.279 1.105-.423 1.64-.32.551.105 1.536-.117 2.272-.513 1.283-.691 1.309-.689 2.194.142.492.463 1.24.841 1.661.841.755 0 6.728 4.128 7.671 5.301.971 1.207 2.372 4.22 2.372 5.099 0 1.153 2.304 6.473 3.262 7.531 1.876 2.073 4.197 2.5 8.929 1.643m-49.41-7.82c-.617-.617-.899-.66-1.942-.296-.671.234-1.22.681-1.22.993 0 .451.313.515 1.523.31 1.268-.214 1.569-.14 1.798.443.265.674.281.674.419-.014.079-.393-.181-1.039-.578-1.436m7.283-4.748c1.27-.487.519-.947-1.367-.836-2.416.141-3.075 1.068-.76 1.068.838 0 1.796-.104 2.127-.231m-3.24-8.112c.919-.706.919-.707.123-1.133-.99-.53-1.995-.182-1.995.691 0 1.309.569 1.443 1.872.442m5.922-2.298c.305-.494-.091-.673-2.174-.985-1.523-.228-1.81-.173-1.81.344 0 .69.316.765 1.109.262.349-.221.727-.152 1.075.196.615.615 1.478.702 1.8.182m31.962-.573c1.436-.301 3.547-1.02 4.691-1.598 1.76-.89 2.225-1.36 3.03-3.061.523-1.105 1.049-2.614 1.169-3.354.279-1.721-.322-1.761-3.485-.236-2.592 1.25-4.665 1.789-8.318 2.163-2.428.249-2.589.334-5.01 2.631-2.845 2.695-2.808 2.933.555 3.536 3.05.546 4.451.531 7.374-.08m-38.04-1.471c.419-.027 1.192.066 1.718.206 1.485.397 2.042-.131 1.468-1.39-.35-.768-.676-.988-1.258-.849-.432.103-1.471.308-2.309.454-1.744.305-2.476.775-2.476 1.591 0 .432.253.505 1.048.303.576-.147 1.391-.289 1.81-.316m18.667-1.583l2.667-.505-2.54-.043c-2.641-.044-3.746.18-3.746.76 0 .429.344.409 3.619-.212m-16.28-1.416c.549-.549-.453-1.43-1.647-1.449-1.044-.016-2.258.904-1.918 1.454.353.572 2.992.568 3.565-.005m23.637.008c1.403-.517.565-1.174-1.207-.947-.868.111-1.792.211-2.054.221-.262.011-.476.271-.476.579 0 .627 2.199.713 3.737.147m-23.642-2.898c.108-.325-.304-.473-1.302-.469-1.743.007-2.872.582-2.111 1.074.671.434 3.217-.018 3.413-.605m26.762.097c0-.818.175-.954 1.238-.964 1.504-.014.779-.53-1.257-.895-1.452-.26-3.234.609-2.43 1.185.225.161.519.593.655.96.135.367.594.667 1.02.667.571 0 .774-.249.774-.952m9.143-.183c0-.206-.471-.47-1.048-.589-.576-.118-1.694-.387-2.484-.596-.79-.21-1.623-.266-1.85-.126-.749.463.532.91 2.62.917 1.1.003 2 .177 2 .387 0 .21.171.381.381.381.21 0 .381-.168.381-.374m-33.24-1.76c1.516-.224 2.307-.914 1.048-.914-.679 0-.756-.603-.125-.993.295-.182.161-.381-.395-.587-.929-.344-6.528.397-6.528.863 0 .568.713.716 1.679.349 1.023-.389 2.131-.177 2.131.408 0 .187-.407.34-.905.34-1.494 0-3.286.452-3.286.83 0 .343 2.988.205 6.381-.296m-1.325-1.145c.127-.127.455-.14.73-.03.304.122.214.212-.23.23-.402.017-.627-.073-.5-.2m36.783.622c.117-.352-.034-.434-.484-.262-.36.138-1.026.268-1.481.289-.759.035-.749.063.126.341 1.183.376 1.619.289 1.838-.368m-4.504-.177c-1.281-.695-4.639-.926-4.844-.333-.152.439 1.147.671 4.463.798 1.33.051 1.331.05.381-.465m7.381-.899c.115-.187-1.36-.533-3.279-.769-3.309-.407-4.147-.369-3.613.164.674.674 6.532 1.188 6.892.605m2.683-1.58c.743-.047-.272-.586-1.864-.99-1.485-.377-1.688-.349-1.845.25-.251.961.035 1.108 1.798.925.859-.089 1.719-.173 1.911-.185m-37.684-1.165l1.143-.757-1.638-.003c-1.441-.002-3.886.841-3.886 1.341 0 .532 3.376.085 4.381-.581m32.644.502c-.275-.11-.604-.097-.73.03-.127.127.098.217.5.2.444-.018.534-.109.23-.23m-9.07-.425c.103-.167.038-.547-.146-.844-.2-.323-.176-.731.058-1.013.786-.947-.398-1.641-1.554-.91-.44.278-.454.458-.074.916.384.463.352.637-.173.931-.355.199-.526.556-.38.793.304.492 1.986.586 2.269.127m-20.234-2.697c.376-.381.325-.587-.253-1.014-.563-.415-.605-.572-.19-.7 1.63-.501 1.868-.632 1.868-1.03 0-.296-.458-.351-1.429-.173-1.593.293-2.493.95-1.698 1.24.592.216-.109 1.249-.847 1.249-.249 0-.785.252-1.191.56-.677.512-.569.551 1.265.453 1.102-.059 2.217-.322 2.476-.585m20.38-1.665c-.187-.57-2.574-.881-2.574-.335 0 .209.471.451 1.048.538.576.087 1.191.184 1.365.216.175.031.247-.157.161-.419m.592-2c-.04-.21.274-.75.698-1.201.424-.451.862-1.502.974-2.337.197-1.468.159-1.532-1.177-1.973-1.638-.54-2.137-1.333-2.137-3.395 0-1.613-.547-2.32-1.25-1.617-.308.308-.255.941.196 2.351.529 1.653.539 1.96.074 2.139-.942.361-.594 1.105.837 1.787.759.362 1.282.757 1.161.878-.355.355-2.122-.217-2.869-.929-.379-.361-1.188-.92-1.799-1.242-.73-.385-1.176-.97-1.304-1.71-.111-.643-.468-1.177-.833-1.247-.822-.158-1.566 1.23-1.243 2.319.284.956 5.28 5.908 6.452 6.395.983.408 2.315.277 2.221-.218m-2.61-1.359c-.138-.223-.168-.489-.067-.59.29-.29 2.178.279 2.178.657 0 .481-1.808.424-2.111-.067m18.847-5.272c.433-.609.794-1.337.801-1.619.007-.282.246-.932.529-1.444.688-1.242.05-2.773-1.088-2.61-.606.087-.859.508-1.095 1.827-.169.943-.462 2.3-.651 3.02-.575 2.177.228 2.621 1.503.831" fill="#000"/>
</svg>
