<?xml version="1.0" encoding="UTF-8" standalone="no"?>
<!DOCTYPE svg PUBLIC "-//W3C//DTD SVG 1.1//EN" "http://www.w3.org/Graphics/SVG/1.1/DTD/svg11.dtd">
<svg xmlns="http://www.w3.org/2000/svg" width="300px" height="350px">
<g>
<path id="fill" d="m 210.41,50.48 c -17.1,0.62 -32.5,8.85 -46.9,17.39 -9.13,5.54 -17,12.62 -24.07,20.49 -9.79,9.8 -16.51,22.35 -22.15,34.87 -2.36,6.09 -4.31,12.4 -5.91,18.66 -1.9,10.77 -4.66,21.59 -4.57,32.56 0,1.4 2.86,1.59 0.58,2.4 -3.89,2.2 -7.853,4.41 -11.484,6.91 -1.683,0.82 -2.019,-1.45 -1.031,-2.46 1.265,-3.03 -1.408,-6.34 -4.094,-7.5 -5.5,-2.33 -12.684,1.68 -12.969,7.81 -0.443,6.61 5.792,11.83 12.032,12.22 4.896,1.71 9.859,-1.01 14.346,-2.91 1.66,2.83 -3.01,5.04 -1.16,7.78 0.95,3.18 -2.22,6.51 -0.28,9.5 0.81,3.14 -2.36,6.61 0.41,9.25 1.33,3.06 -2.01,6.95 0.9,9.47 2.19,3.28 -1.21,8.47 2.69,10.72 2.03,2.17 1.04,5.22 -0.94,6.91 -1.24,2.78 3.07,4.05 5,4.5 3.75,0.87 7.82,0.41 11.03,-1.57 1.31,-2.68 -3.57,-5.25 -0.91,-7.68 1.78,-3.89 4.81,-8.13 3.26,-12.66 -0.76,-2.78 2.27,-4.79 0.81,-7.5 -1.47,-2.84 0.69,-5.95 -0.71,-8.92 -1.37,-3.24 -0.85,-7 -1.73,-10.33 -0.7,-2.77 -3.53,-5.97 -1.94,-8.78 1.91,-1.29 4.9,-0.18 6.44,1.22 3.82,2.24 8.73,1.99 12.82,0.97 1.98,-2.21 5.13,-1.87 6.4,-4.72 2.73,-4.83 1.74,-13.15 -4.33,-15.12 -4.86,-3.16 -11.69,0.39 -12.36,5.99 0.46,2.78 -1.77,0.57 -3.34,0.5 -3.47,-0.66 -9.29,-2.06 -8.56,-6.81 1.03,-9.21 4.73,-17.86 8.65,-26.12 0.31,-3.27 4.05,-5.1 3.97,-8.5 8.31,-15.66 20.15,-29.96 35.77,-38.61 5.71,-2.52 11.66,-4.96 17.98,-4.65 3.23,-0.81 2.2,-4.9 1.5,-7.15 -0.34,-5.05 2.91,-9.37 3.97,-14.13 5.2,-6.5 11.27,-12.44 18.41,-16.62 3.59,-4.13 10.43,-2.23 14,-6.13 0.34,-1.23 -2.82,-0.57 -3.72,-1.03 -2.6,-0.23 -5.21,-0.31 -7.81,-0.22 z"/><path id="outline" d="m 113.25,178.28 c -3.22,0.4 -2.42,-2.54 -2.33,-4.2 0.1,-3.5 0.96,-7.19 1.19,-10.24 0,-2.42 1.82,-12.97 2.86,-8.53 -0.92,2.23 -2.79,12.39 0,6.61 1.27,-8.13 4.96,-15.65 8.13,-23.16 5.11,-4.4 -1.98,6.45 -2,8.69 -2.07,3.57 -2.88,7.9 -4.27,11.7 -1.17,6.49 -3.95,13.64 -2.46,20.11 2.32,-1.05 1.67,-3.48 1.48,-5.09 0.6,-4.39 1.49,-8.99 2.57,-13.04 6.56,-19.23 15.69,-38.61 31.48,-52.1 8.9,-8.15 19.91,-14.73 32.16,-15.65 2.54,-2.72 0.38,-6.66 2.33,-9.7 0.27,-4.26 2.27,-8.22 4.78,-11.72 3.14,-4.44 7.29,-8.19 11.22,-11.9 3.42,-2.48 17.01,-9.44 7.28,-7.49 -3.61,0.31 -7.95,2.45 -11.28,1.12 -4.8,3.77 -14.17,4.89 -19.79,9.31 -3.92,1.57 -6.95,3.2 -10.36,5.92 -3.06,1.56 -6.47,3.56 -8.49,6.08 -4.2,1.7 -6.64,5.73 -10.37,8.11 -0.1,2.15 -4.32,3.37 -5.43,5.79 -5.56,5.98 -10.55,12.16 -14.47,19.39 -6.54,9.93 -10.22,21.36 -13.23,32.75 -2,6.23 -2.6,13.28 -3.68,19.89 -1.89,4.32 -0.1,12.01 -3,15.25 0.88,1.06 5.1,5.44 5.68,2.1 z m -6.74,-9.66 c 0.7,-7.29 1.9,-14.59 3.44,-21.7 0.71,-4.52 1.67,-9.34 3.46,-13.56 2.85,-11.83 9.27,-22.61 15.55,-33 3.47,-5.06 7.31,-9.74 11.78,-13.96 12.29,-14.44 29.4,-23.87 46.59,-31.33 11.18,-4.42 23.49,-6.43 35.41,-4.22 -0.8,5.2 -11.46,2.98 -14.77,7.77 -7.2,3.81 -12.93,9.94 -18.05,16.18 -0.89,4.58 -4.44,9.2 -3.81,14.25 1.47,3.86 0.8,7.78 -3.83,7.29 -5.76,-0.2 -11.59,2.79 -16.94,4.91 -14.96,8.96 -26.56,22.69 -34.58,38.01 0,3.69 -3.8,5.2 -3.95,8.62 -4.2,8.37 -7.81,17.36 -8.7,26.7 0.15,4.82 8.62,4.99 10.9,6.24 0.16,-5.16 5.33,-9.68 10.47,-8.31 3.38,1 6.98,2.74 8.03,6.38 1.35,4.46 0.86,10.18 -3.28,13.13 -2.35,-0.16 -3.55,3.23 -6.57,2.61 -3.8,1.08 -9.95,0.1 -12.14,-2.44 -1.5,-0.12 -6.26,-2.45 -4.58,2.66 0.77,2.87 2.8,5.58 2.64,8.81 -0.29,4.59 2.92,8.6 1.24,13.25 0.21,2.26 2.05,4.72 0.25,7.14 -1.38,2.61 0.93,5.44 -0.29,8.24 -1.11,3.28 -2.61,6.47 -4.27,9.26 1.13,2.86 4.64,6.58 -1.21,7.58 -1.11,0.3 -4.06,1.19 -4.49,0.8 l -0.1,0 c -3.58,0.37 -13.32,-2.3 -8.27,-6.93 1.93,-2.04 0.62,-5.1 -1.43,-6.12 -2.06,-3.37 0.98,-7.56 -2.09,-10.57 -2.07,-3.18 1.88,-6.96 -1.04,-9.81 -1.58,-3.02 1.75,-5.92 0,-9.08 -1.27,-3.51 2.11,-6.15 0.32,-9.49 -0.83,-2.5 2.63,-4.15 1.66,-6.32 -4.463,1.89 -9.215,4.41 -14.175,2.69 -5.277,-0.56 -10.459,-3.71 -11.917,-9.1 -1.19,-3.14 -0.184,-6.82 1.984,-9.23 3.877,-4.7 13.349,-4.59 15.374,1.72 2.428,2.54 -2.808,7.06 1.337,5.32 3.197,-2.86 7.387,-4.42 11.077,-6.83 -2.27,-0.99 -1,-5.53 -1.06,-7.56 z m 9.24,78.67 c 5.57,1.98 3.74,-7.23 0.1,-6.08 -2.28,1.28 -5.93,-2.69 -6.59,1.29 -3.19,3.6 1.41,5.04 4.18,5.03 0.76,-0.1 1.64,-0.1 2.34,-0.24 z m -1.71,-1.3 c -2.44,-0.55 -0.15,-4.16 2.27,-3.58 3.67,-0.1 0.49,5.08 -2.27,3.58 z m 0.87,-7.23 c 2.5,0 6.51,-1.76 4.94,-4.86 -3.09,-2.56 -7.35,-2.32 -11,-3.63 -3.98,2.29 0.81,7.16 3.68,8.31 0.6,0.71 1.66,-0.12 2.38,0.18 z m 0.67,-1.45 c -4.75,-0.29 -1.34,-3.99 0.3,-4.1 2.67,0.19 1.67,4.29 -0.3,4.1 z m 5.6,-5.69 c 1.68,-1.16 0.83,-5.54 -1.54,-6.74 -4.17,-1.72 -8.97,-2.22 -13.06,-4.3 -3.58,1.95 0,7.31 3.52,7.49 3.71,1.16 7.76,1.78 11.08,3.55 z m -1.8,-1.73 c -1,-2.87 -9.42,-1.53 -4.58,-3.89 1.47,-2.45 5.08,1.13 5.03,2.87 0.28,0.67 -0.21,0.64 -0.45,1.02 z m 2.43,-6.58 c 3.73,-4.25 -1.46,-8.54 -5.23,-8.2 -2.08,0.19 -5.54,-1.04 -8.19,-1.7 -1.53,-2.53 -5.67,-2.05 -4.14,1.37 0.16,2.96 3.93,3.85 6.27,4.88 3.82,1.25 7.74,1.83 11.29,3.65 z m -0.67,-2.73 c -2.09,-0.18 -4.92,-1.46 -7.49,-1.18 -5.08,-2.23 1.72,-0.39 2.97,-1.71 -4.93,-2.33 3.62,-1.75 4.33,1.18 0.76,0.33 0.87,1.13 0.19,1.71 z m 0.34,-6.3 c 2.32,-1.22 1.06,-7.29 -2.21,-7.7 -1.21,-1.83 -6.85,-0.53 -5.73,-2.3 0.84,-2.49 4.87,-0.3 6.57,0.74 3.83,-1.54 -3.11,-7.55 -0.1,-8.4 -0.37,-1.62 -4.21,0.1 -6.13,-0.63 -2.76,0.17 -6.18,-3.16 -8.34,-0.93 -2.04,3.91 2.99,7.46 6.53,7.2 -3.65,-3.57 3.77,-0.15 3.23,-2.62 -4.24,0.78 -2.4,-2.98 0.89,-1.18 4.06,2.25 -0.57,2.59 2.76,3.89 -0.77,2.13 -5.57,-1.95 -6.1,0.85 -0.24,3.05 -4.71,0.61 -6.34,-0.51 -3.6,1.04 -1.58,7.13 1.77,7.79 3.85,2.32 9.1,2.76 13.16,3.8 z m -0.47,-2.3 c -1.84,-0.29 -9.96,0 -8.2,-2.67 2.02,0.21 0.76,-3.34 4.41,-1.11 1.6,0.38 4.53,2.04 3.79,3.78 z m -3.17,-1.38 c 2.69,-1.06 -6.41,-1.87 0,0 z m 0.5,-15.85 c 0.96,-2.36 0.63,-4.68 -2.36,-5 -2.2,-0.58 -4.67,-1 -7.21,-0.45 -3.58,0.17 -1.16,3.97 1.2,4.08 5.08,1.58 0.3,-1.86 2.7,-2.38 4.51,0.29 3.92,1.98 2.36,2.8 1.08,0.31 2.22,1.01 3.31,0.95 z m -26.085,-2.47 c 6.43,0.35 11.765,-4.2 17.645,-5.27 5.27,0.4 1.25,-1.85 -1.76,-0.5 -4.34,0 -8.02,2.61 -11.88,4.01 -3.978,0 -8.189,0.17 -11.765,-1.84 2.047,-1.66 5.043,1.68 7.577,1.02 5.341,0.36 9.188,-4.09 14.398,-4.28 4.58,0.1 8.85,-1.68 13.28,0 3.58,0.48 8.3,4.01 1.99,1.56 -2.75,-1.82 -12.58,-0.79 -4.13,0.58 5.32,0.4 9.7,4.29 14.94,4.45 3.97,0.68 8.13,0 10.8,-3.32 2.69,-1.34 2.11,-5.56 -0.48,-0.99 -1.42,2.35 -4.86,2.01 -6.67,3.62 -3.02,0.1 -4.87,-0.97 -7.47,-0.96 -5.75,-2.94 -0.47,-1.62 2.61,-0.54 4.19,0.58 9.51,-0.15 11.28,-4.6 3.19,-2.82 -0.44,-7.35 -4.04,-6.53 -2.6,0.63 -5.49,2.34 -2.53,-1.22 2.65,-0.64 5.72,-0.39 7.42,1.67 3.57,0.75 -2.38,-3.34 -4.2,-3.18 -2.3,-1.9 -3.2,0.28 -5.37,1.13 -3.17,1.64 -1.59,6.73 1.67,6.26 1.81,-2.04 5.51,-1.23 2.67,1.67 -1.45,2.76 -4.62,2.17 -7.09,1.32 -3.78,-1.73 -6.29,-4.86 -10.78,-5.83 -3.23,-0.65 -3.5,-1.01 -3.41,1.13 -2.38,1.72 -6.02,0.8 -8.33,-0.48 -4.18,-2.61 -8.47,3.57 -12.465,4.8 -1.77,1.48 -6.03,1.79 -7.05,0.5 -0.327,0.81 -4.803,-1.14 -3.61,-4.17 2.115,-3.73 1.756,2.66 4.288,2.6 3.102,1.23 4.938,-6.11 1.766,-7.45 -1.863,-1.79 -5.587,-2.45 -7.544,-0.84 2.087,-0.17 7.618,1.72 1.5,1.37 -3.78,1.29 -3.343,6.17 -1.63,8.99 -2.647,1.12 -2.8,-4.51 -2.91,-5.65 -2.664,3.43 1.445,7.76 4.876,8.96 1.775,0.81 4.964,2.81 6.404,1.98 z m 21.325,-26.32 c 2.15,-1.79 -2.26,-1.22 0,0 z M 213.36,54.6 c 3.2,-0.81 -2.7,-0.7 0,0 z m -98.65,95.37 c -1.25,-2.46 0.99,-9.82 3.22,-10.68 0.59,2.34 -1.81,8.53 -3.22,10.68 z m 4.13,-15.41 c -0.62,-3.61 3.44,-10.69 4.89,-15.47 3.29,-3.8 3.97,-12.39 8.92,-13.4 0.13,2.68 -3.18,4.5 -3.74,7.24 -3.49,7.12 -6.66,14.38 -9.51,21.78 -0.1,-0.2 -0.91,0.61 -0.56,-0.15 z m 9.3,-1.34 c -1.49,-0.3 0.97,-4.54 2.46,-4.97 0.49,0.86 -1.52,4.99 -2.46,4.97 z m 7.01,-10.27 c -2.14,-2.88 4.66,-3.21 0,0 z m -0.97,-20.33 c -0.24,-4.29 6.13,-8.51 8.77,-12.28 11.03,-10.87 23.51,-20.4 37.28,-27.42 5.55,-2.34 10.75,-4.1 16.34,-6.35 4.76,-2.32 7.26,0 1.62,1.39 -5.73,0.83 -10.72,4.01 -15.96,5.99 -2.19,0.1 -4.39,2.44 -6.46,2.78 -3.39,1.81 -7.29,5.06 -10.74,6.57 -2.53,3.34 -8.68,6.24 -12.17,9.68 -7.3,5.54 -12.67,13.11 -18.68,19.64 z m 9.8,-6.34 c -1.78,-3.54 6.76,-8.12 9.2,-11.47 2.63,-3.06 5.87,-4.34 8.69,-6.88 9.23,-6.62 19.72,-11.78 30.32,-15.65 4.59,0.31 -2.79,2.67 -4.3,2.98 -4.44,1.59 -8.9,4.42 -12.84,5.95 -5.6,2.99 -11.17,6.48 -16.09,10.47 -2.37,1.57 -3.4,2.37 -5.36,4.51 -3.39,2.88 -7.14,7.69 -9.62,10.09 z m 10.46,-6.33 c 0.35,-4.93 8.7,-8.06 12.47,-11.53 5.58,-3.83 12.01,-6.23 17.82,-9.71 8.12,-0.8 -4.76,4.22 -6.83,5.33 -8.79,3.8 -16.14,10.01 -23.46,15.91 z m 10.24,-3.34 c -0.13,-4.23 7.64,-7.64 12.16,-9.47 7.25,-1.43 0.32,2.71 -3,2.76 -3.15,2.13 -6.46,4.02 -9.16,6.71 z"/></g>
</svg>
