<?xml version="1.0" encoding="UTF-8" standalone="no"?>
<!DOCTYPE svg PUBLIC "-//W3C//DTD SVG 1.1//EN" "http://www.w3.org/Graphics/SVG/1.1/DTD/svg11.dtd">
<svg xmlns="http://www.w3.org/2000/svg" width="300px" height="350px">
<g>
<path id="fill" d="m 87.781,84.33 c -7.267,0.64 -14.914,-0.74 -21.875,1.53 -3.119,-1.12 -5.723,3.1 -3.312,5.34 0.379,3.5 4.033,5.23 6.968,6.35 -1.493,3.65 -6.106,1.4 -9.062,1.79 -2.37,0.1 -7.001,0 -6.562,-3.45 -0.482,-2 -5.389,-0.29 -2.813,1.31 1.463,3.32 6.453,1.56 8.563,3.85 -0.102,1.93 -3.197,2.37 -4.25,3.71 -1.42,0.96 -3.828,3.51 -1.844,4.88 1.883,-0.1 1.98,-2.53 1.844,-3.69 3.566,-3.2 8.336,-6.08 13.25,-5.84 3.086,1.2 0.868,6.18 3.687,7.41 1.394,-1.47 -0.8,-3.85 -0.375,-5.76 0.04,-1.75 1.76,-3.93 2.219,-0.96 1.112,3.9 3.659,6.88 5.469,10.43 -1.582,-0.32 -2.749,-3.24 -4.313,-2.47 -0.337,1.15 2.398,3.95 -0.187,4.29 -2.2,-0.7 -6.063,-0.41 -5.876,2.53 1.519,3.57 6.155,2.49 9.25,2.12 4.784,-0.63 9.569,-3.43 14.469,-2.47 3.572,1.97 1.352,6.83 0.268,9.72 -1.176,1.59 -0.562,4.72 -2.194,5.36 -11.21,2.57 -20.981,9.62 -28.199,18.49 -3.463,5.05 -6.237,10.58 -6.298,16.83 -0.713,6.11 0.23,12.23 2.236,17.95 2.263,4.64 5.309,9.3 9.062,12.87 5.694,4.11 11.912,7.21 18.5,9.47 3.315,0.1 6.413,1.64 9.532,2.25 3.32,-1.48 7.212,1.4 10.342,-0.62 3.04,1.05 6.47,0 8.78,-2.03 3.96,-0.16 7.09,-3.43 10.6,-4.22 12.11,9.42 27.85,10.63 42.45,13.09 1.38,0.75 2.33,0.64 3.8,0.31 4.83,0.42 9.8,0.77 14.43,-0.53 2.3,0.34 4.3,-0.37 6.49,-1.01 4.76,-0.78 9.48,-1.65 13.7,-4.12 5.1,-2.35 10.1,-5.33 14.81,-8.46 4.54,-4.48 9.21,-9.04 12.75,-14.37 3.14,-5.23 5.22,-11.16 6.19,-17.16 1.36,-3.46 0.54,-7.56 0.6,-11.28 -0.31,-2.91 -2.16,-5.77 -0.29,-8.54 2.49,-5.12 6.64,-9.54 7.63,-15.25 1.53,-5.47 1.56,-11.6 0.34,-17.15 -2.09,-6.86 -6.07,-14.37 -13.68,-15.88 -5.18,-1.81 -11.29,1.62 -13.69,6.07 -1.19,2.53 1.05,6.02 3.78,4.31 1.26,-1.8 1.24,-6.02 4.56,-4.94 4.45,0.22 8.85,2.74 9.91,7.31 1.57,5.14 1,11 -0.6,16.03 -1.53,2.41 -1.62,6.46 -4.53,7.6 -2.62,-0.44 -3.04,-4.14 -4.93,-5.72 -8.88,-12.32 -24.65,-19.99 -39.87,-17.24 -11.06,2.78 -21.85,8.35 -29.35,17.05 -2.12,1.43 -2.33,5.73 -5.41,5.63 -11.68,-7 -25.55,-11.92 -39.47,-10.63 -3.05,1.45 -3.66,0 -3.25,-3.03 0.28,-7.62 1.4,-15.5 -0.94,-22.87 -2.51,-9.46 -11.8,-16.79 -21.777,-16.21 -0.511,0 -1.021,0 -1.532,0 z m -9.25,17.4 c 4.087,0.16 8.227,2.17 11.563,4.03 0.293,3.93 -4.949,4.63 -7.719,5.19 -1.578,-0.18 -2.893,-0.75 -2.719,-2.53 -0.649,-1.88 -3.857,-5.34 -1.125,-6.69 z M 196.03,131.7 c 5.03,0.28 10.05,1.95 13.77,5.47 3.36,2.79 7.32,5.79 7.98,10.41 -6.25,2.62 -13.34,1.67 -19.97,1.62 -6.65,-2.23 -14.87,0.33 -20.59,-4.5 4.62,-6.16 10.95,-11.76 18.81,-13 z m -81.65,9.91 c 10.54,0.18 21.04,2.9 30.5,7.34 2.53,1.88 -0.28,5.13 -2.01,6.61 -2.45,2.19 -4.64,4.52 -6.46,7.11 -3.55,3.3 -5.38,9.58 -10.16,10.85 -2.23,0.15 -2.94,-3.13 -4.07,-4.67 -2.79,-5.5 -5.03,-11.23 -7.07,-17 -1.15,-3.02 -3.36,-7.69 -0.73,-10.24 z m -23.849,6.75 c 4.701,3.81 2.892,11.11 5.719,16.16 2.103,7.66 6.77,14.25 11.37,20.5 1.39,3.09 -2.98,4.03 -5.18,3.84 -3.378,-0.1 -6.74,0.49 -9.878,-1.16 -6.483,-1.86 -12.712,-5.17 -16.593,-10.68 -3.512,-4.47 -1.119,-10.66 0.719,-15.38 2.597,-5.97 7.465,-11.05 13.624,-13.44 l 0.219,0.16 z m 77.439,9.87 c 6.61,0.28 12.42,4.15 19.12,4.2 6.86,0.33 13.78,0.51 20.63,0.1 4.1,-0.35 7.88,-2.38 11.9,-2.54 2.87,1.25 1.18,5.2 0,7.13 -0.17,3.79 -4.7,6.35 -4.35,10.15 0.96,0.8 2.33,0.93 0.97,2.29 -2.12,1.81 -1.77,5.25 -4.59,6.43 -2.24,1.66 -5.3,1.08 -7.72,1.72 -8.25,4.56 -17.84,5.79 -27.09,6.53 -8.38,-0.41 -17.25,-0.44 -24.7,-4.63 -2.37,-1.15 -6.76,-0.92 -7.43,-4.02 1.19,-2.73 3.81,-4.87 5.5,-7.41 3.56,-4.74 7.84,-8.98 10.78,-14.03 0.86,-3.24 3.44,-5.98 6.94,-5.91 z"/><path id="outline" d="m 76.03,101.86 c 1.872,-3.67 -2.701,-3.52 -0.35,0.2 l 0.35,-0.24 0,0 z m 17.37,1.94 c 0.726,-1.95 -3.02,-1.09 0,0 z m -2.17,2.55 c 2.113,-3.44 -2.511,1.53 0,0 z m -8.48,4.21 c 2.393,-0.89 7.267,-1.35 6.852,-4.7 -3.158,-1.24 -8.036,-3.92 -11.342,-3.57 -1.291,2.66 2.411,4.72 2.08,7.56 0.714,0.38 1.768,0.48 2.41,0.71 z m 14.68,8.52 c 5.76,-0.13 -2.881,-6.43 -0.62,-2.27 0.08,0.76 -0.303,1.89 0.62,2.27 z m 1.06,6.38 c 2.22,0.27 2.49,-6.82 -0.76,-5.24 -2.359,-0.11 -2.922,6.16 0.65,5.28 l 0.11,0 z m 11.66,0.58 c 1.33,-2.34 -1.51,-2.74 0,0 z m 77.88,3.67 c 5.1,0.24 -1.09,-2.31 -2.9,-0.88 0.64,1.29 1.74,0.89 2.9,0.88 z m -4.9,1.61 c -0.11,-3.37 -1.04,1.88 0,0 z m -84.94,1.01 c 2.41,-1.03 2.82,-6.57 -1.057,-5.34 -3.303,-1.59 -3.832,3.27 -1.863,4.61 0.687,0.35 2.455,1.24 2.92,0.73 z m 12.21,1.03 c 1.45,-2.13 -1.6,-6.74 -0.7,-0.6 l 0.62,0.6 0.1,0 z m 73.42,0.78 c 5.24,0.11 2.61,-4.06 -1.05,-1.27 -0.83,0.85 -0.2,1.7 1.05,1.27 z m -86.6,3.97 c 6.02,-0.57 -0.584,-6.97 -3.95,-4.14 -0.165,2.98 1.241,4.51 3.95,4.14 z m 78.01,5.22 c 3.2,-2.61 5.27,-6.13 7.57,-8.21 -2.85,-0.96 -6.87,0.49 -9.35,2.07 -3.62,3.29 5.41,1.34 3.36,2.66 -2.08,2.01 -6.04,-0.88 -7.42,2.28 1.3,1.64 4.16,0.67 5.84,1.2 z m 69.36,-21.54 c -2.39,-1.41 2.67,-1.37 0,0 z m -6.21,22.01 c 1.98,-0.75 3.7,-2.74 5.45,-3.45 2.27,-4.94 4.23,-10.11 3.55,-15.63 0.49,-5.93 -1.98,-11.68 -4.99,-16.59 -2.19,-2.62 -4.64,-4.96 -8.18,-5.39 -4.05,-0.91 -8.91,0.39 -11.2,3.91 -1,4.79 1.25,-1.01 3.38,-1.31 3.04,-2.05 7.27,-0.1 10.16,1.28 5.38,4.14 5.5,11.5 5.23,17.69 -0.2,3.71 -2.01,7.32 -3.58,10.67 -1.77,1.24 -3.02,6.91 -0.36,5.63 2.72,-2.67 4.56,-5.85 5.24,-9.63 0.6,-1.83 0.47,-9.72 2.65,-6.5 0.41,3.59 -1.63,7.2 -2.15,10.79 -0.97,3.09 -2.98,5.74 -6.16,6.86 -0.25,1.5 0.23,1.57 0.96,1.67 z m -140.97,0.39 c 4,0.2 2.69,-6.52 -1.16,-4.6 -3.571,-1.06 -3.47,3.28 -0.937,4.46 0.208,0.85 2.179,0.44 2.097,0.14 z m 141.9,2.08 c 3.91,-0.74 -0.72,-3.27 0,0 z m -34.68,2.66 c 4.16,-0.2 8.89,0.1 12.59,-1.63 -0.43,-3.37 -3.98,-6.7 -6.85,-9 -3.31,-2.83 -7.35,-5.66 -11.95,-5.65 -3.5,-1.29 -5.47,0.59 -8.52,1.52 -4.65,2.44 -8.85,6.19 -11.99,10.47 4.46,3.82 12.72,2.26 18.52,3.7 2.52,0.95 5.72,0.26 8.2,0.59 z m -106.06,0.73 c 4.27,-0.78 -1.083,-6.56 -4.21,-4.03 -4.371,1.55 2.645,4.41 4.21,4.03 z m 49.88,2.77 c 3.71,-1.68 -2.34,-1.23 0,0 z m -47.99,3.72 c 2.19,-1.69 0.3,-6.56 -2.83,-5.07 -3.486,-1.34 -4.027,2.57 -1.38,3.97 1.238,0.61 2.908,1.33 4.21,1.1 z m 59.44,3.11 c 2.31,0.55 7.24,-3.08 2.33,-2.53 -2.48,-1.68 -6.74,2.89 -3.01,2.76 0,-0.31 0.85,0.2 0.68,-0.23 z m -44.02,-24.69 c -3.39,-2.16 2.55,-2.21 0,0 z m 4.29,0.25 c -3.17,-0.81 2.08,-3.31 0.13,0 z m 4.02,0.63 c -3.79,-1.82 3.38,-2.73 0.25,0 z m 3.69,0.77 c -3.26,-2.02 4.48,-2.81 0.1,0 z m 3.55,0.71 c -3.51,-1.49 2.9,-2.91 0.24,-0.1 z m 3.56,1.22 c -3.81,-1.82 3.41,-2.72 0.25,0 z m 3.78,0.69 c -3.42,-1.04 2.72,-2.7 0.23,0 l -0.21,0 0,0 z m 3.46,1.16 c -3.39,-1.08 2.75,-2.68 0.25,0 l -0.23,0 0,0 z m 3.22,1.24 c -2.63,-1.52 2.85,-1.37 0,0 z m 4.12,2.24 c -3.47,-1.09 2.9,-2.68 0,0 l -0.2,0 0.19,0 z m 3.69,1.24 c -3.36,-2.3 4.28,-1.68 0,0 z m 4.41,1.46 c -3.51,-1.05 2.9,-2.65 0.22,0 z m 3.73,1.51 c -3.4,-1.28 2.55,-2.44 0,0 z m 3.67,1.26 c -2.49,-1.79 2.92,-1.57 0,0 z m 3.91,1.55 c -2.61,-1.52 2.83,-1.34 0,0 z m 12.5,3.37 c -3.38,-2.16 2.48,-2.17 0,0 z m 5.63,1.27 c -3.12,-2.86 2.66,-1.31 0,0 z m 5.28,0.68 c -3.52,-1.05 2.89,-2.68 0.23,0 z m 11.89,0.86 c -4.04,0.9 -5.15,-2.66 -0.42,-1.54 3.55,0.32 6.98,-0.63 10.45,-1.23 1.87,2.26 -3.71,0.87 -4.83,2.24 -1.49,0.84 -3.92,1.1 -5.2,0.53 z m 11,1.16 c -3.12,-2.88 2.67,-1.28 0,0 z m -30.54,-0.21 c -5.99,-0.71 2.61,-2.75 -0.1,0 z m 4.53,0.51 c -2.98,-3.13 4.6,-1.11 0,0 z m 22.72,0.39 c -2.92,-1.41 2.75,-1.81 0,0 z m -11.87,0.3 c -3.48,-0.98 2.88,-2.85 0,0.12 l -0.23,0.1 0.2,-0.19 z m -5.52,0 c -1.89,-1.61 2.54,-2.61 2.78,-4.31 2.39,0.28 -2.01,4.42 -2.78,4.31 z m 4.23,1.93 c 2.04,-2.85 4.05,1.13 4.66,-2.4 2.86,-3.59 0.34,4.2 3.07,1.57 4.75,1.11 -0.4,-4.5 4.94,-1.64 2.09,2.07 7.05,-0.79 6.93,-3.28 1.62,-3.97 -4.46,-2.25 -1.78,-5.2 -6.57,1.94 -13.54,1.05 -20.31,1.11 -10.06,-1.62 -20.36,-3.04 -29.55,-7.71 -13.72,-3.42 -25.5,-12.67 -39.74,-14.32 -4.26,0.26 -11,-3.76 -13,1.9 -1.14,2.27 -1.48,7.64 2.67,4.76 1.95,3.31 -0.64,1.31 -2.26,3.42 2.72,2.8 3.42,-1.69 5.89,1.03 2.34,-1.19 4.3,0.95 5.69,-0.86 1.11,2.09 1.35,2.82 3.69,0.64 0.76,3.16 3.59,-1.86 3.67,2.22 2.58,-0.12 4.8,1.52 7.1,2.12 2.67,-1.6 4.67,3.4 7.05,1.98 1.9,0 1.11,4.91 3.98,2.19 1.3,0.93 3.91,1.17 5.65,2.66 2.41,0.57 5.06,0.56 6.13,2.43 2.47,-0.11 3.39,1.73 6,1.56 1.42,3.17 3.57,0.72 5.81,1.77 2.36,0.13 3.04,2.82 5.59,1.01 1.57,1.85 4.35,1.6 6.72,1.16 1.87,1.63 4.36,-0.15 6.03,0.68 2.16,-0.58 4.15,0.46 5.66,1.18 l 0,0 -0.3,0 z m -97.19,1.12 c 3.85,-0.54 0.33,-6.39 -2.93,-4.52 -3.952,-2.15 -2.761,3.69 0.1,3.64 0.135,-1.1 2.41,1.83 2.83,0.88 z m 54.18,1.98 c 2.84,0.57 8.7,-5.23 2.95,-3.58 -1.63,-0.43 -5.8,2.39 -2.95,3.58 z m -52.14,4.23 c 3.51,0.93 1.39,-3.85 0.12,-4.6 -2.41,-0.11 -7.241,-1.52 -5.31,2.56 1.93,0.35 3.43,2.39 5.19,2.04 z m 50.55,0.21 c 3.36,0.15 7.1,-6.38 1.07,-3.46 -2.69,-0.45 -4.26,4.63 -1.07,3.46 z m -27.7,4.79 c 4.41,-1.9 6.4,-8.21 10.22,-11.38 1.23,-3.9 12.77,-10.05 7.12,-12.76 -9.33,-3.98 -19.35,-6.72 -29.54,-6.82 -2.37,4.5 2.44,10.36 3.13,15.16 2.65,5.32 5.06,12.71 8.02,15.72 0.2,0.26 0.93,-0.19 1.05,0.1 z m -20.53,0 c 4.28,1.28 0.6,-5.97 -2.12,-3.39 -3.63,-2.43 -5.048,2 -0.95,2.98 0.94,0.6 2.02,0.37 3.07,0.41 z m 40.95,4.29 c 2.61,0.67 5.52,-4.09 1.27,-2.98 -1.87,-0.38 -4.94,3.7 -1.27,2.98 z m -36.42,2.58 c 5.19,0.23 -1.59,-6.61 -4.53,-5.43 -4.29,-1.6 -3.12,2.46 -0.77,4.21 1.74,0.49 3.47,1.14 5.3,1.22 z M 80.9,92.33 c 4.663,-2.9 -3.448,-0.28 -0.07,0 l 0.05,0 z m 0.34,3.22 c -4.195,-0.3 -2.083,-1.92 -4.182,-5.06 -4.649,-0.11 -0.436,-2.89 2.115,-1.62 2.756,-0.11 5.8,1.27 8.187,-0.58 1.86,-0.8 7.885,1.08 3.441,1.57 -3.744,-1.58 -1.663,3.07 -4.211,3.13 -0.319,-4.1 -2.268,1.79 -2.79,1.62 -2.107,-1.05 -0.986,1 -2.56,0.94 z m 16.95,0.39 c -3.402,-2.24 4.47,-2.81 0,0 z m 4.42,1.93 c -3.111,-2.9 2.71,-1.28 0,0 z m -5.2,1.65 c -3.864,0.1 -0.101,-2.4 1.36,-1.67 1.67,0.42 -1.468,1.56 -1.36,1.67 z m 4.51,1.76 c -2.777,-1.25 3.11,-1.73 0,0 z m 3.63,3.37 c -3.4,-2.14 2.56,-2.21 0,0 z m -6.44,0 c -3.461,-1.06 2.91,-2.66 0.01,0 l -0.2,0 z m 4.31,4.34 c -3.742,-1.84 3.42,-2.72 0.26,0 z m 2.62,9.19 c -3.43,-1.55 2.95,-2.85 0.1,-0.1 l -0.25,0.1 0.19,0 z m -2.62,1.23 c -3.738,-1.84 3.42,-2.71 0.26,0 z m 2.47,4.94 c -4.51,0.82 1.45,-5.26 0,0 z m -0.98,5.02 c -3.49,-1.51 2.92,-2.88 0,-0.1 l -0.23,0.1 0.2,0 z m 0.58,3.54 c -2.91,-2.25 1.89,-1.74 0,0 z m 0.45,4.92 c -3.42,-2.13 2.54,-2.21 0,0 z m 1.31,13.23 c -3.24,-1.88 0.86,-5.22 1.59,-1.46 0.4,1.06 -1.25,1.05 -1.59,1.46 z m 1.65,5.02 c -4.98,-3.62 4.28,-2.1 0,0 z m 1.63,4.64 c -3.34,-2.18 4.26,-1.7 0,0 z m 3.55,10.03 c -3.81,-0.46 1.77,-3.86 0.96,0 l -0.48,0 -0.48,0 z m 2.7,4.25 c -3.78,-0.17 1.63,-4.12 0.95,-0.49 0.43,0.89 -0.72,0.33 -0.95,0.49 z m 4.12,1.55 c -2.41,-1.1 1.84,-1.71 0,0 z m -2.85,5 c -0.39,-3.21 3.82,-2.17 5.52,-4.55 0.2,-3.34 -3.47,-3.3 -3.46,-6.05 -3.14,-0.52 -2.37,-1.75 -2.49,-4.32 -3.94,-0.27 -0.87,-4.16 -3.42,-5.91 -2.17,-1.87 0.74,-4.28 -1.66,-6.53 0.77,-2.37 -2.79,-3.87 -1.31,-5.65 0.87,-1.82 -2.67,-5.27 -2,-8.09 0.6,-3.8 -2.24,-6.88 -1.06,-10.42 0.94,-4.1 -0.33,-8.94 0.79,-12.26 2.29,3.56 2.53,-4.38 -0.35,-1.11 -1.88,-2.28 1.65,-4.35 0.72,-7.09 -0.89,-1.87 -1.24,-4.36 -0.38,-6.96 -1.57,-3.56 -1.96,-7.02 -4.67,-9.55 -3.58,-4.42 -9.451,-7.13 -15.008,-7.52 -7.683,0.69 -15.479,0.48 -23.122,1.44 -2.598,1.8 -2.05,4.86 0,6.87 5.637,4.19 13.184,3.7 19.84,4.83 2.643,0 4.593,2.12 7.39,1.85 1.017,2.63 3.86,4.71 3.52,7.69 -2.33,2.59 -5.581,1.4 -8.492,2.45 -2.94,0.26 -5.176,3.4 -6.597,2.56 -1.403,2.02 -3.798,0.1 -6.452,1.44 -4.687,-1.64 -3.689,3.29 0.381,1.72 3.552,-0.19 6.855,-1.48 10.21,-2.54 -2.999,-3.05 3.252,1.97 5.79,-0.82 3.381,1.57 4.858,-4.22 6.34,-0.69 3.63,0.44 -2.988,-3.07 1.091,-4.69 2.469,-2.74 3.019,1.44 0.799,2.59 2.66,2.82 4.59,-1.08 4.78,2.12 1.49,-0.94 3.63,-2.47 1.66,0.84 -5.11,0.78 -8.387,1.97 -5.18,7.7 1.1,5.69 -0.91,11.43 -0.1,17.18 -0.11,11.84 3.68,23.47 8.53,34.11 2.5,3.43 4.36,6.75 7.73,9.23 0.11,0.26 0.4,0.11 0.62,0.13 z m -4.55,2.98 c 1.78,-2.1 -1.28,-5.04 -3.98,-3.8 -6.27,-0.7 0.94,4.96 3.78,3.68 z m 118.81,0.5 c 4.57,-4.63 -3.03,-2.68 -0.68,0.67 0.1,0.81 0.53,-0.66 0.68,-0.67 z m -91.37,0.73 c 2.65,-1.48 5.37,-4 6.55,-7.08 0.57,-1.63 -7.99,-0.12 -5.09,2.48 2.3,2.24 -5.31,-0.11 -3.82,3.87 0.73,0.31 1.65,0.62 2.36,0.73 z m 71.29,2.36 c 4.39,-1.55 -2.49,-1.65 0,0 z M 99.6,188.34 c 4.88,0.29 11.36,-0.22 5.45,-5.77 -3.68,-5.66 -7.605,-11.37 -9.274,-17.9 -2.593,-4.48 -1.558,-13.48 -5.526,-15.87 -7.245,2.85 -12.642,9.69 -14.58,17.21 -1.172,3.85 -1.976,8.7 1.578,11.59 4.369,6.49 12.442,8.67 19.522,10.93 0.891,-0.1 2.124,-0.18 2.83,-0.19 z m 130.19,0.38 c 3.09,-2.75 -2.36,0.2 0,0 z m -92.52,0.54 c 5.26,-1.04 -1.18,-5.54 -2.89,-1.33 -1.79,1.62 2.43,0.89 2.89,1.33 z m 65.75,2.6 c 2.26,-1.58 7.02,-1.41 6.31,-3.09 -1.23,-0.28 -9.46,3.53 -6.16,3.28 z m -106.87,0.21 c 4.19,-1.59 -3.383,-1.74 0,0 z m 37.81,0.73 c 4.86,-0.93 -1.14,-6.09 -2.61,-2.37 -0.12,1.11 1.81,1.92 2.61,2.37 z m -3.76,3.44 c 2,-1.65 3.13,-3.73 -0.82,-3.8 -3.61,0.52 1.36,3.49 0.82,3.8 z m -3.35,1.59 c 3.97,-0.42 -0.46,-4.6 -2.38,-2.47 -2.58,0.79 1.48,2.56 2.38,2.47 z m 5.37,1.5 c 5,-4.03 -10.21,-0.1 -0.97,0.16 l 1.06,-0.18 -0.1,0 z m -9.64,1.18 c 4.96,-0.15 -0.3,-4.66 -2.58,-2.9 -3.4,1.57 1.25,2.63 2.58,2.9 z m -13.74,0.37 c 3.38,-2.65 -3.69,-1.68 0.1,0 l 0.14,0 -0.21,0 z m 8.76,1.56 c 4.72,0.32 -1.18,-4.8 -3.22,-2.08 -3.11,1.47 3.25,2.36 3.22,2.08 z m 17.39,0.39 c 6.44,1.4 2.25,-4.09 -1.01,-3.46 -0.74,0.96 -6.35,1.29 -2.99,3.15 1.3,0.3 2.71,0.26 4,0.31 z M 88.93,139.81 c -4.442,1.43 0.162,-3.93 0.64,-0.75 -0.08,0.32 -0.884,0.26 -0.64,0.75 z m -3.86,1.69 c -3.348,-2.16 4.258,-1.7 -0.03,0 z m -3.48,2.32 c -3.346,-2.16 4.257,-1.7 -0.02,0 z m -2.43,1.35 c -4.712,-0.55 4.121,-3.2 -0.02,0 z m -3.35,2.88 c -3.503,-1.88 4.621,-2.86 -0.02,0 z m -2.62,2.32 c -3.571,-2.48 4.426,-2.2 -0.02,0 z m -1.93,2.32 c -3.331,-1.99 4.487,-2.84 0.04,0 z m -2.28,2.71 c -2.989,-3.14 4.595,-1.13 0,0 z m -1.11,3.39 c -3.479,-0.99 2.886,-2.85 0.03,0.12 l -0.231,0.1 0.2,-0.19 z m -1.1,3.56 c -3.753,-1.83 3.43,-2.73 0.27,0 z m 4.72,2.69 c -3.988,-3.88 5.843,-1.54 0,0 z m -5.71,0.77 c -3.722,-2.3 4.717,-2.65 0,0 z m 81.66,2.71 c -2.36,-1.77 2.64,-1.07 0,0 z m -81.89,1.09 c -3.455,-0.96 2.875,-2.85 0.03,0.12 l -0.231,0.1 0.2,-0.19 z m 79.32,2.38 c -3.37,-2.28 4.26,-1.7 0,0 z m -78.55,1.46 c -3.477,-1.05 2.903,-2.68 0.01,0 l -0.2,0 z m 76.51,1.44 c -4.71,-0.51 4.09,-3.22 0,0 z m -75.74,2.43 c -3.524,-1.49 2.906,-2.89 0.253,-0.1 l -0.233,0.1 z m 73.42,0.21 c -5.98,2.2 2.29,-4.25 0,0 z m -3.24,3.74 c -5.77,-1.1 3.86,-3.6 1.02,-0.2 -0.15,0.46 -0.71,0.1 -1.02,0.2 z m -68.18,0.77 c -3.769,-1.8 3.439,-2.7 0.25,0 z m 64.59,2.17 c -4.94,0.37 2.81,-4.35 1.95,-0.96 -0.47,0.74 -1.13,0.86 -1.95,0.96 z m -61.2,0.86 c -3.506,-1.51 2.907,-2.88 0.252,-0.1 z m 56.99,2 c -3.15,-0.18 3.87,-4.25 3.14,-0.75 -1.01,0.37 -2.04,0.85 -3.14,0.75 z m -51.96,1.46 c -3.454,-0.98 2.887,-2.85 0.03,0.12 l -0.231,0.1 0.2,-0.19 z m 48.03,2.02 c -5.9,-3 7.97,-2.41 0,0 z m -3.97,2.42 c -6.89,-0.13 6.33,-3.55 0,0 z m -4.87,2.43 c -3.85,1.13 -1.95,-2.68 0.9,-1.73 3.64,-0.93 0.78,2.15 -0.9,1.73 z M 90,203.09 c 0.781,-4.1 4.102,0.32 6.49,-0.33 1.165,-0.81 4.56,1.22 5.22,-1.3 1.03,-3.65 4.44,3.69 4.34,-2.94 2.13,-0.2 4.4,-3.3 7.11,-1.99 -1.64,1.22 -1.83,4.09 2.11,1.81 4.94,-1.34 9.5,-4.41 13.46,-7.63 7.23,-4.77 12.21,-12.01 18.24,-18.01 3.16,0.62 6.32,0.75 7.8,-2.79 -2.71,-3.19 -6.47,4.06 -7.09,1.22 2.17,-2.95 4.96,-5.9 6.7,-8.56 1.12,-2.08 2.22,-6.37 4.79,-7.26 -1.99,-2.24 -4.95,1.57 -4.79,3.68 -0.96,1.85 -5.79,10.73 -5.28,5.7 2.28,-3.65 5.8,-8.74 3.43,-10.54 5.71,-1.41 -3.69,-1.15 -5.31,-0.73 -3.49,2.56 -5.87,7.55 -9.23,10.73 -5.16,7.74 -12.34,13.76 -19.27,19.83 -3.66,2.94 -8.09,4.9 -12.22,7.15 -2.13,-1.88 -4.26,2.58 -7.388,1.65 -4.502,0.15 -9.114,0.99 -13.261,-1.26 -2.462,0.56 -5.178,-2.43 -1.491,-2.3 2.357,2.15 5.938,0.47 8.59,2.27 1.929,-2.63 -5.712,-1.78 -7.218,-4.2 -4.022,-2.15 -8.133,-4.92 -10.597,-8.3 -3.591,-0.1 -3.229,-3.37 -4.323,-5.56 -3.434,-4.03 4.522,-0.5 2.526,-5.67 1.053,-1.95 -5.97,2.58 -2.318,-1.48 3.026,1.59 5.938,-5.9 2.49,-5.39 -3.262,-1.1 2.043,-5.89 1.61,-0.48 4.064,-2.45 -1.332,-3.3 0.54,-5.83 1.552,0.1 6.504,-0.38 3.69,-3.1 -0.442,-4.38 4.215,1.43 4.128,-1.75 -0.03,-3.69 0.901,-2.93 2.512,-1.33 1.558,-1.84 3.871,-5.16 5.869,-6.93 -1.403,-2.51 0.419,-4.75 0,-7.37 -1.364,-5.48 -8.187,1.18 -11.23,2.16 -7.174,3.92 -13.584,9.7 -17.82,16.69 -4.05,6.35 -4.016,14.25 -3.783,21.46 0.129,4 2.175,6.67 3.333,8.34 0.1,1.71 2.018,1.09 1.581,3.43 3.554,-0.97 -0.617,3.99 3.398,3.54 -1.268,3.29 3.156,1.03 2.641,4.56 2.445,-0.12 2.827,2.47 5.208,3.62 2.48,-1.28 3.386,2.34 6.042,0.74 0.904,1.79 4.225,2.09 5.629,1.65 1.828,-0.52 3.057,2.48 3.151,2.8 z m 19.57,0.58 c 5.73,0.35 -1.56,-4.53 -1.46,-0.25 -0.18,0.64 1.18,0 1.46,0.25 z m -16.6,1.54 c 3.091,-0.94 -5.379,-1.07 0,0 z m 5.9,0.39 c 5.28,-0.7 -4.605,-2.34 -1.06,0 0.353,0 0.707,0 1.06,0 z m 7.5,0.3 c 4.05,-0.3 -1.54,-4.52 -3.2,-2 -2.83,1.3 2.75,2.47 3.2,2 z m 100.66,0.86 c 3.75,-1.85 -2.53,0 0,0 z m -63.62,-0.28 c 5.34,-0.38 -1.13,-3.38 -2.97,-3.39 -6.53,1.05 -1.93,3.34 1.77,3.73 0.28,-0.18 1.12,0 1.2,-0.34 z m 60.04,1.98 c 0.98,-2.17 -2.77,-0.25 0,0 z m -54.67,0.23 c 6.74,0.96 -0.57,-4.46 -3.05,-1.58 -1.95,1.16 2.2,1.92 3.05,1.58 z m 50.57,1.55 c 3.18,-1.44 -3.19,-1.36 0,0 z m -43.36,0 c 3.64,-2.86 -5.68,-0.74 0,0 z m 3.59,1.97 c 5.65,-1.68 -4.45,-2.15 0,0 z m 24.52,-91.88 c -2.6,-1.54 2.87,-1.34 0,0 z m 10.89,0.39 c -2.85,-2.26 1.87,-1.74 0,0 z m 4.93,1.16 c -2.88,-1.27 3.19,-1.74 0,0 z m 7.18,2.7 c -3.02,-3.13 4.61,-1.11 0,0 z m -0.78,3.48 c -2.54,-2.93 4.1,-0.96 0,0 z m 3.72,0.39 c -4.17,-1.6 3.59,-1.42 0,0 z m 2.34,2.32 c -3.35,-2.18 4.27,-1.71 0,0 z m 7.99,1.13 c -6.24,-2.29 3.67,-1.71 0,0 z m -3.65,0.78 c -3.96,-0.44 2.18,-4.13 0.94,0 0.27,0.1 -1.27,0 -0.94,0 z m 2.68,1.69 c -3.13,-0.83 2.08,-3.3 0.13,-0.1 z m 3.44,0.91 c -3.35,-1.63 2.45,-2.72 0,0 z m -9.3,0.42 c -4.5,0.86 1.4,-5.3 0,0 z m 7.88,1.92 c -3.52,-0.96 2.86,-2.87 0.25,0.12 l -0.23,0.1 0,-0.19 z m -4.94,1.24 c -3.79,-1.83 3.4,-2.71 0.25,0 z m 7.26,1.55 c -2.37,-0.24 1.24,-4.23 2.24,-3.7 1.78,2.05 -1.75,2.13 -2.24,3.7 z m -4.64,1.07 c -3.52,-1.04 2.88,-2.69 0.23,0 l -0.21,0 0,0 z m 6.16,2.32 c -3.37,-1.02 2.72,-2.85 0.27,0.12 l -0.25,0.1 0,-0.19 z m -3.73,0.86 c -3.68,-1.48 2.89,-3.25 0.27,0 l -0.29,0 0,0 z m 8.48,1.16 c -2.8,-1.24 3.14,-1.8 0,0 z m -2.84,1.91 c -3,-3.11 4.61,-1.1 0,0 z m 4.28,1.87 c -3.5,-0.96 2.86,-2.85 0.25,0.12 l -0.23,0.1 0,-0.19 z m -2.71,2.7 c -3.44,-0.94 2.68,-2.87 0.47,0.12 l -0.25,0.1 -0.22,-0.2 z m 3.09,0.78 c -3.5,-0.97 2.88,-2.86 0.25,0.12 l -0.22,0.1 0,-0.19 z m -6.97,2.77 c -2.59,-3.08 4.1,-0.89 0,0 z m 4.59,0.77 c -3.39,-2.79 6.73,-1.76 2.08,-0.13 -1.21,-1.11 -0.96,-0.29 -2.08,0.13 z m 0.26,3.86 c -2.86,-2.29 1.89,-1.71 0,0 z m 2.27,2.71 c -0.86,-1.06 -0.52,-7.4 0.93,-4.49 0.85,1.74 0.69,3.85 -0.93,4.49 z m -6.74,1.07 c -2.82,-1.09 2.61,-4.19 -1.01,-6.2 3.53,-0.75 3.02,5.22 1.01,6.2 z m 4.66,0.78 c -3.44,-1.53 2.88,-2.87 0,-0.1 l -0.23,0.1 0.19,0 z m 2.23,1.39 c -3.12,-0.87 2.08,-3.32 0.13,0 z m -7.51,1.38 c -2.64,-1.51 2.85,-1.37 0,0 z m 5.02,1.16 c -3.67,-1.85 3.46,-2.76 0,0 z m -2.9,1.54 c -3.09,-1.66 2.58,-2.48 0.1,0 z m -3.43,2.32 c -3.66,-1.77 1.95,-5.01 0.58,-1.02 -0.13,0.35 -0.18,1.03 -0.58,1.02 z m -1.65,3.78 c -2.67,1.2 -2.65,-5.12 0.1,-2.81 1.65,0.31 0.69,2.04 -0.1,2.81 z m 3.04,5.07 c -8.41,-1.53 4.95,-4.13 1.78,-4.73 -3.62,1.07 -3.37,-1.08 -0.39,-1.68 2.06,-0.31 5.26,-2.9 1.41,-2.74 -0.97,-3.66 4.77,-0.86 3.61,-3.83 3.58,-4.28 0.18,5.32 -1.06,7 -1,2.35 -3.03,4.8 -5.05,6.09 l -0.12,0 z m -79.45,9.73 c -2.55,-0.2 0.99,-3.02 0,0 z m 4.13,2.38 c -4.55,-1.35 3.71,-3.25 0,0 z m -9.41,1.39 c -5.47,-0.49 2.94,-3.59 1.31,-0.55 -0.25,0.62 -0.78,0.68 -1.31,0.55 z m 4.98,2.24 c -3.32,1.11 -0.32,-4.23 1.03,-1.81 -0.54,0.72 0.44,2.29 -1.03,1.81 z m 48.73,0.49 c -2.2,-2.13 3.64,-0.96 0,0 z m -32.39,0 c -4.19,0.85 -0.48,-5.43 1.36,-1.82 1.04,0.68 -0.66,2.75 -1.36,1.82 z m 27.15,0.5 c -3.64,-1.67 3.17,-1.83 0,0 z m -38.1,0.77 c -3.28,-0.94 2.61,-4.11 1.39,-0.77 -0.42,0.4 -0.76,1.01 -1.39,0.77 z m 32.19,0.39 c -3.79,-1.82 3.42,-2.72 0.25,0 z m -26.93,1.93 c -3.99,-3.87 5.83,-1.58 0,0 z m 5.35,1.16 c -3.45,-0.61 1.92,-4.42 2.09,-0.97 -1.3,-0.17 -0.82,1.17 -2.09,0.97 z m 4.83,1.16 c -3.56,-2.5 4.43,-2.17 0,0 z m 3.87,1.16 c -3.51,-1.09 3.24,-4.2 1.37,-0.77 -0.41,0.39 -0.76,1.02 -1.37,0.77 z m 4.57,1.16 c -3.36,-1.29 2.92,-4.41 1.47,-0.91 -0.49,0.33 -0.79,1.21 -1.47,0.91 z m 4.45,0.77 c -3.79,-1.83 3.42,-2.73 0.25,0 z m 7.98,1.07 c -3.57,0.85 0,-5.45 1.85,-2.1 1.09,1.14 -0.81,2.44 -1.85,2.1 z m 32.5,-41.18 c 1.76,-2.29 2.87,-7.62 -1.61,-6.08 -5.11,1.38 -10.37,3.05 -15.8,2.47 -8.36,0 -16.87,0.54 -24.9,-2.38 -6.6,-2.25 -13.28,-4.56 -15.57,4.32 -4.79,6.47 -10.17,12.45 -14.94,18.92 -4.53,3.78 6.47,4.27 8.41,6.33 7.3,3.24 15.41,2.84 23.17,3.47 9.02,-1.23 18.62,-2.1 26.55,-6.98 3.6,0.41 7.82,-0.53 9.49,-4.08 0.1,-1.16 0.63,-2.17 1.39,-2.96 0.38,-0.39 0.8,-0.73 1.02,-1.39 -5.23,-1.25 3.28,-8.25 2.79,-11.64 z m -1.28,11.4 c 1.65,-0.54 2.8,0.11 0.93,2.55 -2.58,-0.98 -1.92,2.53 -3.35,4.09 -2.49,4.39 0.69,-1.84 3.07,-0.14 -1.61,-3.01 5.75,-2.46 3.35,-0.1 -2.45,1.15 -3.98,3.43 -7.06,4.44 -7.58,5.41 -17.33,6 -26.32,7.21 -4.28,0.38 -8.92,0 -12.98,0.84 1.93,1.21 0.1,4.79 -1.93,3.01 1.54,-2.55 0.11,-3.85 -3.1,-3.56 -4.69,-1.71 2.25,3.59 -2.85,3.41 -0.92,-2.19 -0.7,-5.48 -5.65,-4.7 -5.08,-1.75 -5.78,-1.04 -7.88,1.54 -1.6,-1.07 -0.86,-5.93 -5.9,-5.49 -2,-2.33 -6.14,-3.77 -8.1,-0.49 -4.71,0.41 -9.38,9.91 -2.08,7.48 4.43,-1.52 0.53,1.61 1.53,3.21 1.56,0.73 6.04,-2.37 4.33,1.8 2.86,-0.77 5.1,3.51 6.85,1.61 1.15,0.85 2.83,3.78 4.7,1.36 1.43,2.42 4.2,2.18 6.17,2.34 1.9,3.88 3.94,-1.17 5.95,2.04 0.8,-1.35 3.85,-1.06 2.12,1.61 -3.95,-1.99 -0.38,3.23 0.62,0.87 l 0,0 c 1.03,-0.1 2.26,-5.2 3.59,-3.13 1.79,4.37 3.6,-3.49 4.68,1.76 2.69,1.27 2.35,-3.12 3.76,-0.19 1.23,-0.69 4.33,-3.77 4.33,0 5.06,-0.1 -1.42,-1.31 1.75,-1.55 0.62,-3.21 3.4,-0.16 5.25,-0.15 2.07,-1.38 -4.37,-2.9 0.16,-4.51 2.31,0.1 0.56,4.61 4.08,2.81 1.8,-0.53 1.88,-5.74 3.75,-2.53 2.59,2.72 4.31,-5.66 7.07,-2.05 1.57,-2.94 2.5,-2.45 5.25,-3.15 1.31,-2.35 1.16,-3.72 3.96,-2.65 1.7,-2.7 1.92,-3.53 4.28,-4.14 -1.54,-5.06 5,-1.35 3.57,-5.35 -3.14,-3.19 4.29,-0.76 3.29,-4.56 1.22,-0.19 2.5,-3.2 3.18,-3.91 1.92,-0.82 3.25,-5.37 3.33,-8 4.05,-1.1 -1.27,-2.05 1.98,-3.99 -1.76,-1.47 1.38,-3.91 -0.41,-6.27 1.01,-1.74 0.14,-4.3 -0.22,-6.31 -0.82,-2.11 -0.77,-5.36 -0.48,-7.08 -1.91,-2.46 -2.16,-6.23 -4.41,-8.69 -2.66,-4.46 -6.23,-8.58 -9.92,-12.24 -4.41,-4.02 -9.49,-7.04 -15.23,-8.82 -5.86,-1.82 -12.35,-2.1 -18.4,-1.33 -3.37,0.82 -7.32,1.45 -8.62,4.82 -1.61,-0.75 -5.12,-1 -4.46,2.25 -2.31,-0.1 -4.85,-0.1 -5.83,2.71 -4.86,1.31 -7.33,5.86 -10.57,9.33 -1.56,2.53 4.71,5.88 5.84,3.06 3.84,0.39 3.78,-0.26 2.95,-1.85 2.69,0.36 1.15,-2.57 3.67,-3.6 1.88,-1.96 2.03,-4.98 5.45,-5.91 1.5,-1.96 9.28,-3 4.88,0 -3.7,0.45 -7.16,3.69 -8.63,6.86 5.17,-2.97 11.6,-8.96 17.97,-7.47 2.33,-1.03 7.63,0 10.24,-0.2 0.2,2.32 6.15,0.88 2.55,3.5 -2.4,1.6 2.32,1.57 2.32,0 2.27,1.78 0.15,3.86 4.25,5.96 4.47,1.9 6.9,6.52 9.02,10.66 4.46,-2.61 5.76,2.46 0.77,1.34 -0.21,2.49 2.13,4.57 3.61,1.63 4,1.64 -3.69,2.69 -1.26,5.63 2.02,2.14 -0.69,4.68 -0.2,7.34 -0.1,5.6 -3.82,10.16 -6.07,15.31 0.65,0.1 1.1,-0.13 1.51,-0.27 z m -47.79,37.51 c -2.55,-1.57 -9.26,-1.61 -13.49,-2.67 -11.02,-1.6 -22.25,-4.39 -31.24,-11.27 -3.42,1.43 -6.57,4.06 -10.25,4.27 -2.83,2.48 -5.9,2.88 -8.95,1.98 -3.26,2.34 -7.194,-1.1 -10.31,0.82 -3.314,-0.96 -5.587,-2.15 -9.482,-2.41 -3.393,-0.82 -6.482,-2.89 -9.762,-3.87 -4.216,-3.03 -9.445,-4.67 -12.253,-9.31 -3.623,-4.73 -7.147,-9.81 -7.603,-15.96 -1.688,-5.94 -0.62,-12.43 0.275,-18.44 2.505,-5.74 5.251,-11.46 10.316,-15.44 6.471,-6.81 15.012,-11.58 24.159,-13.7 0.01,-4.08 6.304,-12.6 0.633,-14.27 -6.232,0.1 -11.789,3.43 -18.039,3.12 -2.629,0.76 -7.183,-2.56 -4.576,-4.96 2.826,-3.7 8.896,2.15 5.162,-4.2 0.763,-4.3 5.74,3.42 2.889,-0.98 -2.086,-2.43 -2.974,-5.7 -4.299,-8.47 -2.415,2.43 1.965,7.43 -0.956,8.14 -3.388,-0.9 -0.766,-7.88 -4.745,-7.6 -4.342,0.66 -8.61,2.79 -11.779,5.86 1.163,2.76 -2.927,5.81 -3.48,2.05 0.196,-2.58 3.364,-4.3 5.306,-5.83 5.881,-2.88 -5.938,-1.32 -6.92,-5.06 -3.428,-2.83 4.618,-4.45 3.674,-1.03 0.154,2.57 4.473,2.32 6.674,2.4 2.434,-0.34 6.703,1.44 7.836,-1.05 -3.02,-1.24 -6.308,-2.91 -6.78,-6.52 -2.556,-3.07 0.493,-6.89 3.93,-5.9 6.291,-2.3 13.146,-0.91 19.717,-1.51 5.381,-0.2 11.137,-0.19 15.643,3.14 3.33,1.89 6.21,4.94 8.12,8.24 2.76,5.18 3.55,11.3 3.67,17.08 -0.33,4.66 -0.89,9.59 -0.53,14.17 4.24,-1.35 10.4,-0.87 15.31,-0.15 9.06,1.33 17.76,5.03 25.72,9.31 2.98,3.43 3.94,-3.69 6.51,-4.82 6.17,-7.6 15.16,-12.35 24.26,-15.54 9.55,-3.68 20.46,-2.12 29.43,2.55 8.3,3.73 14.6,10.88 19.36,18.48 2.48,2.52 3.91,-5.23 5.48,-7.32 1.29,-6.26 2.32,-13.54 -1.74,-18.99 -2.31,-2.52 -5.5,-2.93 -8.72,-3.27 -2.71,0.69 -1.1,5.61 -4.57,5.45 -3.2,0.2 -3.65,-3.33 -2.86,-5.77 2.32,-3.73 6.46,-5.99 10.69,-6.62 4.67,0.53 9.36,2.23 12.19,6.16 2.93,3.42 4.45,8.08 5.87,12.29 0.33,5.7 0.85,11.43 -1.26,16.91 -0.99,6.5 -7.5,11.65 -8.2,17.53 2.13,4.77 1.16,10.01 1.37,15.07 -1.74,2.5 -0.85,5.62 -2.4,8.27 -1.85,6.1 -4.74,11.96 -9.31,16.48 -3.88,4.01 -7.29,9 -12.6,11.16 -5.07,3.54 -10.91,6.1 -16.49,8.52 -3.95,0.82 -8.17,1.22 -11.81,2.72 -2.8,-1.01 -4.87,0.92 -7.78,0.52 -3.45,0.76 -7.17,-0.62 -10.42,-0.14 l -0.27,0.23 z"/></g>
</svg>
