<svg xmlns="http://www.w3.org/2000/svg" version="1.1" width="300" height="350">
 <path id="fill" d="m138.34 249.49c-4.118-.883-6.59-2.658-7.961-5.717-.38-.848-.841-1.542-1.025-1.542-.666 0-2.376-4.31-2.51-6.327-.109-1.634-.298-2.14-1.152-3.091-2.336-2.599-2.431-4.103-.497-7.918.735-1.45 1.456-2.786 1.603-2.969.418-.521 1.355-4.969 1.125-5.341-.113-.183-.38-.332-.592-.331-.487.002-2.822 2.125-2.822 2.567 0 .515-1.679 1.996-2.831 2.497-.575.25-1.915.455-2.978.455-2.058 0-6.991 1.024-8.691 1.804-.563.258-1.23.469-1.482.469-.667 0-2.121 1.64-2.379 2.682-.332 1.343-1.494 1.487-3.611.449-2.089-1.025-2.699-2.114-1.88-3.363.738-1.126.438-1.56-1.6-2.323-2.207-.826-7.15-3.474-7.683-4.116-.216-.26-.565-.473-.776-.473-.462 0-2.235-1.825-2.753-2.835-.435-.848-.236-1.856.851-4.309.888-2.01 1.861-2.882 3.493-3.146 1.848-.3 2.769.089 2.769 1.168 0 .806-.152.96-1.127 1.143-1.191.223-2.12 1.211-2.12 2.254 0 .344.501 1.237 1.114 1.985 1.936 2.363 6.49 3.49 9.322 2.307 1.983-.828 3.961-2.875 4.777-4.941.414-1.049 1.106-2.639 1.537-3.535.926-1.922.959-2.361.256-3.365-.409-.583-.492-1.257-.37-2.975.087-1.221.053-2.339-.076-2.484-.129-.145-.392-.911-.585-1.702-.276-1.134-.251-1.674.117-2.556.257-.615.467-1.361.467-1.657 0-.296.668-1.662 1.485-3.035.892-1.498 1.443-2.792 1.38-3.237-.093-.658-.311-.752-1.93-.837-1.412-.074-1.985-.267-2.535-.852-.669-.712-.678-.788-.157-1.309.356-.356.797-.478 1.236-.342 3.02.937 5.716.108 5.716-1.759 0-.527-.139-1.324-.31-1.772-.269-.707-.115-1.051 1.173-2.615.815-.99 2.074-2.131 2.797-2.536 1.972-1.103 2.227-1.733 1.099-2.714-1.33-1.156-.949-1.756 1.117-1.756 2.035 0 5.413-1.54 6.68-3.046 1.129-1.341 1.866-2.954 1.631-3.567-.301-.784-2.782-2.203-3.743-2.141-2.102.136-2.629-.078-5.225-2.124-1.473-1.161-2.826-2.111-3.01-2.111-.18 0-.738-.292-1.239-.649-1.011-.72-4.187-.862-11.853-.528-4.72.205-5.941-.077-7.605-1.758-1.281-1.294-1.907-1.543-2.477-.985-.388.379-2.472-2.589-2.412-3.435.024-.331.068-1.405.099-2.387.047-1.489.243-2.032 1.182-3.267 1.019-1.341 1.389-1.561 3.897-2.329 1.544-.473 3.92-.916 5.368-1 1.429-.085 2.963-.302 3.41-.482 1.145-.463 4.823-1.474 8.443-2.321 3.573-.836 5.191-1.327 5.77-1.751.227-.166.957-.415 1.624-.554.666-.139 2.235-.612 3.485-1.051 2.58-.906 2.92-1.465 1.691-2.78-1.293-1.384-1.87-2.842-2.166-5.477-.28-2.494-.246-2.846.409-4.314.605-1.355 1.239-1.926 2.377-2.139 1.415-.265 3.27.809 5.524 3.199 1.092 1.158 2.024 1.837 2.709 1.974.575.115 1.455.648 1.957 1.185 1.067 1.142 1.937 1.239 2.779.308.938-1.036.452-1.612-2.453-2.906-3.356-1.495-4.104-2.399-5.468-6.611-.606-1.873-.686-2.625-.498-4.696.123-1.357.566-3.34.984-4.408.418-1.068.761-2.208.761-2.533 0-.325.308-1.247.685-2.048.377-.801.608-1.655.515-1.898-.093-.243-.73-.732-1.415-1.086-.685-.354-1.408-.965-1.606-1.357-.198-.392-.66-1.037-1.026-1.432-.366-.395-.841-1.376-1.055-2.18-.512-1.918-.493-8.25.029-10.08.722-2.534 2.809-4.75 3.666-3.893.229.228.387 1.768.413 4.01.065 5.621 1.171 7.81 2.666 5.277.374-.634.89-1.152 1.146-1.152.811 0 1.731 2.061 1.97 4.409.362 3.561.741 4.662 1.743 5.063.482.193 1.186.493 1.565.667.378.174.963.261 1.299.194.702-.14.702-.149.146-5.462-.246-2.352-.309-5.425-.17-8.3l.22-4.566-1.381-1.604c-.76-.882-1.505-1.685-1.657-1.784-.152-.099-.742-1.122-1.312-2.273-.977-1.975-1.035-2.295-1.028-5.666.006-2.489.159-3.917.507-4.709.559-1.273 3.18-4.34 5.553-6.497 1.261-1.147 1.673-1.358 2.111-1.084.677.424.88 1.621.379 2.226-1.376 1.658-2.438 5.935-2.216 8.927.09 1.217.227 1.478.822 1.563.536.076.923-.229 1.553-1.228 1.739-2.755 3.869-5.279 6.513-7.719 3.17-2.925 5.897-4.644 10.78-6.792.578-.254 1.522-1.049 2.098-1.765 1.355-1.686 3.72-2.919 4.733-2.467.85.379.92 1.212.26 3.084-.479 1.359-2.727 4.558-3.226 4.59-.155.001-.666.402-1.137.872-.471.469-1.659 1.31-2.642 1.869-2.034 1.157-2.433 2.097-1.245 2.929 1.037.726 1.648.66 4.756-.512 2.841-1.072 3.664-1.032 3.905.193.185.94-.872 2.704-2.061 3.439-.623.385-1.133.811-1.133.947 0 .136-.548.406-1.218.6-2.29.665-4.855.8-7.204.38l-2.304-.412-1.213.968c-.994.793-2.373 2.776-3.128 4.496-.147.334-.991 3.342-1.505 5.358-.719 2.823-1.188 13.588-.637 14.618.678 1.266.859 12.572.301 18.786-.287 3.201-.551 4.491-1.202 5.871-.928 1.969-1.128 4.829-.429 6.134.223.416.895.961 1.493 1.211.599.25 1.18.603 1.292.784.36.583 2.439.394 2.635-.239.097-.313.311-.822.477-1.132.476-.892.37-1.394-.754-3.567-1.043-2.01-1.055-2.092-1.032-6.424.021-3.886.124-4.68.908-6.982 1.06-3.112 1.95-5.122 2.946-6.656.406-.625 1.126-1.794 1.602-2.598 1.423-2.406 1.627-2.713 2.558-3.826.51-.61.893-1.46.893-1.982 0-1.592.668-2.953 1.717-3.495.928-.48 1.026-.475 1.426.072 1.055 1.443.251 4.963-2.405 10.53-1.35 2.828-2.161 5.501-2.562 8.443-.085.625-.03 3.047.123 5.382.241 3.674.381 4.39 1.041 5.317.739 1.037.819 1.066 2.521.89 1.23-.127 2.115-.454 2.948-1.089 2.133-1.627 7.875-7.359 9.867-9.851 2.896-3.622 3.72-4.608 5.31-6.363.795-.876 1.445-1.755 1.446-1.953.0001-.198.487-1 1.08-1.786.593-.785 1.432-2.084 1.864-2.888.432-.804 1.103-1.9 1.491-2.435.757-1.044 1.836-5.068 2.352-8.768.174-1.25.481-3.403.682-4.784.307-2.107.287-2.656-.12-3.41-1.026-1.901-1.601-3.279-2.635-6.321-.971-2.856-1.048-3.356-.825-5.358.162-1.453.51-2.616 1.02-3.4 1.359-2.093 3.351-1.929 3.692.303.198 1.297 1.809 6.508 2.587 8.37.381.911.646 1.125 1.399 1.125.511 0 1.151-.183 1.422-.406.524-.431 2.878-3.697 2.878-3.992 0-.096.415-1.082.921-2.191.507-1.109 1.121-2.527 1.365-3.153.244-.625 1.071-2.364 1.839-3.864.768-1.5 1.396-2.92 1.396-3.155 0-.553 1.033-1.099 2.078-1.099 1.286 0 1.597.969 1.343 4.184-.654 8.274-1.7 11.141-5.861 16.07-1.337 1.582-2.431 3-2.431 3.152 0 .151-.365.813-.812 1.471-.514.757-.812 1.65-.812 2.431 0 .679-.146 1.325-.325 1.435-.179.11-.324.448-.324.75 0 .302-.316 1.148-.703 1.879-.81 1.529-.652 2.297.532 2.594 1.856.466 6.509-3.03 10.332-7.753 1.308-1.618 2.691-2.266 3.182-1.491 1.457 2.3-2.629 9.421-7.758 13.52-.726.58-1.448 1.055-1.603 1.055-.155 0-.889.446-1.631.992-.817.601-2.115 1.148-3.294 1.389-1.201.245-2.267.698-2.784 1.185-.461.433-1.644 2.402-2.628 4.375-2.484 4.98-3.425 6.665-4.533 8.117-1.344 1.762-3.349 3.694-4.78 4.607-2.412 1.537-1.13 2.943 2.972 3.26 3.132.242 7.05-.693 9.315-2.22 1.554-1.049 4.68-4.567 4.68-5.267 0-.715 2.456-3.122 3.186-3.122.88 0 1.433 1.031 1.173 2.185-.112.495-.776 2.082-1.477 3.526-1.104 2.276-1.775 3.11-5.02 6.251-2.066 1.997-4.14 3.721-4.619 3.84-.478.119-1.317.466-1.864.772-2.229 1.246-6.863 1.652-9.56.837-.953-.288-2.365-.386-4.059-.283-2.405.147-2.721.252-4.251 1.419-.91.693-1.818 1.261-2.02 1.261-.2 0-.521.292-.712.648-.191.357-.89.93-1.554 1.275-1.968 1.021-3.459 2.435-3.222 3.054.179.467.769.543 4.22.543 2.82 0 4.92.197 7.07.662 3.36.727 4.76.636 6.161-.4.705-.521 1.17-.619 2.148-.451.686.118 1.644.245 2.129.283.485.037 1.135.322 1.445.631.535.535.529.609-.105 1.468-.368.497-.777 1.267-.91 1.71-.133.443-.625 1.579-1.095 2.524-.716 1.443-1.361 2.081-4.01 3.978-1.739 1.243-3.245 2.26-3.348 2.26-.103 0-.729.568-1.391 1.263-1.187 1.245-2.902 1.979-4.631 1.982-.455.0001-.967.123-1.137.272-.17.148-.894.436-1.609.639-1.032.292-1.568.273-2.598-.093-2.993-1.066-3.958-.467-3.511 2.181.159.942.187 2.297.062 3.01-.125.714-.147 2.192-.05 3.283.19 2.139-.69 5.614-1.837 7.257-.317.454-.673 1.452-.791 2.217-.118.766-.429 2.01-.692 2.76-.542 1.554-.645 5.941-.169 7.192.363.955 1.153 1.067 2.223.318.672-.471.804-.47 1.534.007 1.27.832.965 2.869-.62 4.154-.489.396-1.292.563-2.732.568-1.401.005-2.092.144-2.207.443-.092.239-.03 1.802.138 3.472.269 2.686.215 3.469-.472 6.783-.427 2.06-.777 4.073-.777 4.474 0 2.1 3.852 6.697 5.94 7.089.843.158 1.433.055 2.169-.38.882-.521 1.05-.536 1.321-.113.566.881.171 1.444-2.043 2.912-2.82 1.87-2.837 2.282-.236 5.7 1.076 1.414 2.169 2.69 2.429 2.836.261.146.951.704 1.535 1.239 1.339 1.229 3.755 2.41 6.225 3.045 1.734.445 2.088.442 3.733-.036 3.055-.888 4.864-3.663 3.953-6.06-.425-1.119-1.15-1.402-2.391-.933-1.19.449-1.639.228-1.201-.592.343-.641 2.147-1.288 3.599-1.292.671-.0001.995.295 1.594 1.46.711 1.383.728 1.563.319 3.328-.238 1.026-.458 2.691-.489 3.699-.081 2.668-.95 4.132-3.107 5.235-2.81 1.436-5.992 1.955-10.362 1.689-2.054-.125-5.342-.201-7.306-.168-4.948.081-7.732-.605-10.739-2.646-1.263-.857-2.449-1.559-2.636-1.559-.295 0-2.05 2.335-2.05 2.727 0 .551-2.528 2.798-3.351 2.979-1.529.336-4.457 3.473-5.89 6.312-1.805 3.576-2.451 5.679-2.434 7.923.02 2.519.726 3.965 2.527 5.173 1.391.933 1.421.938 2.733.422 1.498-.588 2.193-.3 2.193.909 0 .996-1.076 2.04-2.515 2.439-.671.186-1.293.328-1.382.314-.089-.014-1.171-.241-2.405-.505m3.115-134.09c.774-1.325 1.1-5.618.571-7.508-.674-2.406-3.01-3.497-4.063-1.895-.418.639-.502 1.476-.413 4.14.107 3.211.154 3.4 1.23 4.894 1.259 1.749 1.824 1.827 2.676.369" fill="#fc0000"/>
 <path id="outline" d="m137.74 250c-4.264-1.088-6.427-2.605-7.647-5.361-.327-.739-.875-1.597-1.217-1.907-1.092-.988-2.433-4.425-2.581-6.613-.112-1.661-.278-2.143-.91-2.64-.941-.74-2.051-3.091-2.061-4.363-.004-.513.857-2.773 1.912-5.02 1.798-3.833 2.974-7.57 2.524-8.02-.245-.245-3.125 2.814-3.138 3.331-.005.206-.775.928-1.711 1.605-1.548 1.119-1.95 1.25-4.456 1.451-3.638.292-7.134 1.014-9.722 2.01-2.02.778-2.116.864-2.372 2.158-.368 1.859-1.279 2.26-3.372 1.48-2.681-.999-3.786-2.614-2.775-4.057.39-.556.767-.65 2.365-.587 1.346.053 2.073-.073 2.488-.432.322-.279 1.17-.665 1.883-.858 1.96-.531 8.677-2.564 9.285-2.81.294-.119 1.242-1.099 2.107-2.178.865-1.079 1.916-2.092 2.335-2.251.596-.227.721-.456.572-1.05-.131-.522.011-.942.452-1.342.432-.391.643-.997.643-1.845 0-1.106.118-1.304.953-1.595 1.183-.412 1.321-.98.736-3.03-.668-2.339-.082-7.893.867-8.209.36-.12.393.098.171 1.108-.152.691-.281 2.132-.287 3.201-.001 1.855.027 1.945.793 1.951.755.006.804.114.818 1.782.031 3.793.173 5.534.437 5.371.151-.094.372-1.428.49-2.964.179-2.327.428-3.236 1.489-5.439 1.562-3.244 2.431-4.406 2.926-3.913.256.255.04 1.01-.779 2.718-.623 1.301-1.309 3.149-1.523 4.108-.365 1.632-.345 1.791.322 2.501.612.651.721 1.166.772 3.642.033 1.586-.066 3.649-.219 4.585-.341 2.08.04 2.206 1.232.405.896-1.354 2-1.722 2.361-.786.328.854-1.121 3.424-3.185 5.647-2.428 2.616-3.837 5.283-3.837 7.264 0 .797.132 1.53.294 1.63.162.1.927-.487 1.701-1.305 1.564-1.653 3.01-2.541 3.705-2.275.682.262.569.555-.763 1.978-.667.713-1.387 1.661-1.599 2.107-.79 1.659-.898 5.509-.155 5.509.123 0 .541-.693.93-1.539.742-1.614 1.845-2.998 2.391-2.998.618 0 .668.922.109 1.996-.684 1.315-1.439 6.115-1.197 7.607.192 1.18.806 1.88 1.459 1.662.296-.099.418-.969.423-3.03.005-2.02.163-3.183.526-3.862.286-.535.757-1.483 1.048-2.107 1.235-2.649 2.451-4.41 4.739-6.863 2.504-2.685 3.121-3.579 3.586-5.202.261-.909.238-.936-.655-.739-.557.122-1.017.055-1.155-.169-.153-.247-.627.012-1.408.767-1.262 1.22-4.456 3.457-4.938 3.457-.872 0-.056-1.069 1.573-2.058 2.469-1.5 3.29-2.427 3.955-4.469.727-2.229 1.245-2.372 1.373-.38l.1 1.56.568-.835c.312-.459.714-1.626.893-2.593.276-1.491.226-2.027-.325-3.535-.814-2.227-.837-3-.084-2.859.964.186 1.67 2.152 1.687 4.697.014 2.035.097 2.354.663 2.533.821.261 1.166 1.588.686 2.641-.385.845-.21 1.522.345 1.337.177-.059.62-.905.983-1.881.561-1.506.651-2.432.594-6.15-.063-4.089-.014-4.484.741-5.996 1.071-2.144 1.382-7.04.459-7.223-.334-.067-.647.129-.76.476-.852 2.629-1.776 3.809-2.744 3.501-.508-.161-.764.137-1.444 1.688-.938 2.14-1.515 2.694-2.804 2.694-.719 0-1.03.249-1.519 1.215-1.01 1.988-1.117 3.116-.496 5.083.311.988.473 1.888.36 2-.391.391-1.174-.168-1.732-1.235-.887-1.695-.727-3.696.467-5.833.69-1.234 1.031-2.285 1.031-3.17 0-.915.16-1.386.519-1.523.724-.278 1.127.511.898 1.759-.289 1.577.504 1.346 1.662-.486.846-1.338.981-1.875 1.043-4.132.039-1.427.075-2.703.081-2.837.006-.134.224-.243.485-.243.735 0 1.236 1.259 1.051 2.639-.235 1.753.246 1.835 1.267.217.937-1.484.936-1.532-.128-6.317-.166-.745-.191-1.532-.057-1.749.489-.791 1.172.003 1.598 1.855.788 3.428 1.615 3.087 1.623-.668.004-2.02-.127-2.482-1.32-4.655-.921-1.679-1.222-2.517-.986-2.752.464-.464 1.125.128 2.108 1.887 1.601 2.865 2.097 6.543 1.7 12.622-.178 2.723-.159 2.847.275 1.864.478-1.083.989-1.357 1.223-.655.073.219-.142 1.422-.478 2.674-.536 1.997-.567 2.627-.256 5.14.397 3.204.833 4.086 2.516 5.078 1.074.634 1.12.722.626 1.216-.494.494-.639.457-2-.505-1.72-1.212-1.777-1.226-1.777-.439 0 .906.897 2.517 1.962 3.522.88.831 6.395 3.334 7.344 3.334.596 0 .514-.738-.151-1.355-1.581-1.468-2.35-2.613-2.35-3.501 0-.634-.225-1.076-.669-1.314-1.213-.649-2.982-5.783-3.416-9.913-.241-2.29.314-5.992 1.096-7.316.417-.706.448-.988.141-1.294-.216-.216-.392-.655-.392-.975 0-.321-.143-.583-.318-.583-.435 0-.763 1.445-.565 2.483.208 1.088-.593 3.03-1.25 3.03-.323 0-.448-.204-.348-.567.407-1.482.614-3.319.559-4.942-.048-1.407.08-1.933.606-2.498.682-.731.899-1.715.378-1.715-.159 0-.373.219-.476.486-.549 1.431-2.045-.407-1.714-2.106.278-1.429-.395-5.867-1.116-7.357-.828-1.711-.516-2.396.815-1.789.69.315.83.277 1-.268.26-.82.031-1.524-1.555-4.778-1.035-2.122-1.226-2.768-.91-3.079.314-.309.564-.202 1.171.498.425.49.896.891 1.047.891.31 0 .114-2.342-.217-2.593-.404-.306-3.497-5.02-3.718-5.672-.219-.641-2.891-2.889-3.888-3.271-.325-.125-.599.017-.74.383-.136.354-.061.635.191.719.737.246 2.62 2.062 2.62 2.527 0 .719-.912.526-1.677-.353-1.05-1.207-4.175-2.734-4.978-2.432-1.191.448-1.437 1.016-1.02 2.35.209.666.552 1.211.764 1.211.551 0 .836 1.137.591 2.357-.372 1.85-.521 2.18-.982 2.18-.36 0-.412-.426-.256-2.098.174-1.862.12-2.163-.478-2.674-.371-.316-.95-1.086-1.287-1.71-.827-1.532-2.229-1.769-2.517-.426-.355 1.654-1.209 3.813-1.898 4.801-1.375 1.971-3.114 3.053-3.114 1.937 0-.426-.122-.417-.891.067-.49.308-1.303.895-1.807 1.304-.504.409-1.233.744-1.62.745-.387.0001-1.122.22-1.633.486-1.07.558-2.151.635-2.151.153 0-.182.328-.461.729-.62.401-.159 1.604-.625 2.673-1.036 1.965-.755 2.348-1.071 4.886-4.03.993-1.157 1.473-2.053 1.632-3.047.296-1.85-.289-1.514-.85.487-.53 1.893-1.997 3.402-4.594 4.728-1.496.763-2.504 1.05-3.751 1.068-1.254.018-1.748.16-1.868.536-.09.282-.793.826-1.563 1.211-1.411.704-2.867 2-2.246 2 .184 0 .516-.219.738-.486.449-.542 1.801-.656 2.097-.177.172.278-.827 1.489-3.961 4.801-.579.612-1.053 1.184-1.053 1.271 0 .087.592.058 1.317-.064 1.031-.174 1.456-.096 1.963.362.538.487.754.518 1.289.183.656-.41 1.265-.268 1.265.296 0 .172-.328.444-.729.605-1.36.544-3.782 3.079-4.506 4.716-.394.891-.741 2.259-.771 3.038-.046 1.184-.244 1.585-1.206 2.431-.633.557-1.521 1.669-1.973 2.471-.825 1.465-1.516 4.87-.983 4.851.567-.02 1.935-1.481 2.37-2.53.46-1.11 2.112-2.969 2.639-2.969.364 0 .402 1.199.043 1.35-.72.303-2.05 2.557-1.861 3.153.145.458-.114 1-.894 1.879-.604.679-1.361 2.036-1.682 3.02-.321.98-.854 2.466-1.186 3.301-.332.835-.603 1.669-.603 1.853 0 .596-2.569 4.328-3.649 5.3-1.382 1.244-2.204 1.651-5.02 2.488-1.292.384-2.35.821-2.35.971 0 .55 1.693 1.361 2.856 1.369.657.004 1.875-.298 2.707-.671 1.176-.528 1.698-.608 2.353-.359.662.252 1.134.172 2.216-.376 1.36-.689 3.805-2.957 3.805-3.531 0-.163.219-.297.486-.297.627 0 .63 1.098.004 1.617-.265.22-.403.53-.305.688.409.661 1.53.192 3.01-1.261 1.213-1.188 1.635-1.867 1.812-2.915.268-1.586.684-1.971 1.378-1.277 1.141 1.141-1.766 5.492-4.445 6.651-.624.27-1.791.525-2.593.568-.802.042-2.342.451-3.421.908-1.08.457-2.568.872-3.307.924-1.082.075-1.379.235-1.527.822-.172.683-.306.716-2.141.536-2.892-.284-9.07-2.971-10.336-4.493-.227-.274-.557-.498-.732-.498-.465 0-2.292-1.588-2.75-2.39-.652-1.141-.469-3.02.503-5.161 1.04-2.294 2.093-3.161 4.116-3.389 1.79-.202 2.813.351 2.681 1.45-.055.46-.319.937-.587 1.06-2.251 1.034-2.434 1.188-2.527 2.126-.279 2.81 5.499 5.63 9.25 4.516 2.037-.605 4.665-3.176 5.413-5.296.292-.827.889-2.182 1.327-3.01.929-1.757 1-2.62.269-3.227-.433-.359-.495-.864-.348-2.812.131-1.727.046-2.694-.311-3.549-.701-1.677-.098-5.29 1.258-7.541 1.496-2.484 2.196-3.952 2.02-4.238-.102-.165-.942-.3-1.867-.301-2.098-.002-3.687-1.056-3.323-2.204.302-.952 1.331-1.153 3.125-.609 1.353.41 1.603.394 2.823-.18 1.464-.689 1.911-1.492 1.381-2.481-.709-1.324-.393-2.287 1.357-4.138.935-.988 2.284-2.091 2.998-2.451 1.773-.893 1.757-.834.486-1.879-.946-.778-1.073-1.027-.775-1.514.263-.429.907-.629 2.431-.754 3.02-.248 5.609-1.762 6.966-4.071.428-.729.779-1.569.779-1.868 0-.721-1.859-1.827-3.079-1.831-2.258-.007-4.258-.962-6.635-3.168-.619-.575-1.278-1.045-1.464-1.045-.186 0-.907-.386-1.602-.858-1.413-.96-1.94-.994-12.01-.773-5.779.127-6.507-.051-7.891-1.932-.67-.91-.891-1.01-1.846-.83-.848.159-1.15.077-1.383-.375-.164-.318-.23-.768-.147-1 .083-.232-.021-.835-.23-1.341-.28-.675-.546-.876-1-.756-.668.175-.862-.375-.264-.745.232-.144.287-.775.154-1.779-.197-1.482-.14-1.639 1.19-3.269 1.196-1.467 1.72-1.824 3.654-2.488 1.459-.501 2.927-.765 4.146-.744 1.039.018 2.789-.239 3.889-.571 4.684-1.412 6.02-1.784 8.32-2.32 4.296-1 6.636-1.662 6.952-1.962.169-.161.68-.294 1.134-.296.455-.002 1.572-.35 2.483-.775.911-.424 2.113-.872 2.67-.994 1.4-.308 1.595-.809.624-1.604-1.891-1.548-3.236-6.685-2.473-9.447.46-1.667 2.196-3.382 3.422-3.382 1.096 0 3.402 1.401 4.795 2.913.535.58 1.847 1.455 2.917 1.944 1.069.489 2.222 1.2 2.562 1.581.729.817 1.663.903 1.942.177.231-.602-.012-1.105-.533-1.105-.202 0-1.307-.473-2.457-1.05-1.451-.729-2.324-1.421-2.855-2.262-.421-.667-.765-1.289-.765-1.384 0-.095-.273-.79-.607-1.546-1.502-3.399-1.511-6.436-.031-10.857.342-1.023.626-2.12.63-2.438.004-.318.39-1.333.858-2.255.468-.923.717-1.722.554-1.776-2.338-.779-5.04-4.133-5.465-6.792-.445-2.762-.176-7.986.51-9.884.556-1.539 2.445-3.84 3.141-3.826.944.019 1.121.688 1.209 4.57.106 4.67.484 6.346 1.675 7.437l.862.789-.247-.81c-.422-1.387-.261-2.386.481-2.987.954-.772 1.132-.738 1.92.368.744 1.045 1.315 3.549 1.315 5.767 0 1.14.186 1.625.897 2.336.748.748 3.142 1.616 3.479 1.261.053-.056-.08-1.779-.296-3.829-.216-2.05-.37-4.675-.342-5.834.028-1.159.092-3.442.141-5.074.085-2.82.044-3.03-.832-4.213-.507-.685-1.307-1.61-1.777-2.056-1.129-1.069-2.458-4.245-2.736-6.535-.283-2.34.364-6.284 1.241-7.562 1.461-2.129 4.083-5.02 5.638-6.221 2.244-1.73 3.33.162 1.714 2.985-.898 1.57-1.251 2.856-1.841 6.714-.2 1.307.419 3.263.973 3.078.186-.062.492-.396.681-.741 3.284-6.01 9.102-11.325 16.231-14.814 1.069-.523 2.747-1.709 3.727-2.635 2.01-1.894 3.491-2.633 4.688-2.333 1.124.282 1.356 1.489.648 3.368-1.154 3.063-3.298 5.317-7.164 7.535-1.413.81-2.208 1.755-1.899 2.255.101.164.68.391 1.287.505.82.154 1.816-.062 3.888-.845 2.329-.879 2.917-.992 3.586-.687 1.53.697.617 3.674-1.455 4.746-.543.281-.987.648-.987.817 0 .503-3.487 1.362-5.527 1.362-1.044 0-2.6-.097-3.458-.215-2.301-.316-3.131.147-4.752 2.654-1.79 2.769-2.634 5.499-3.311 10.713-.51 3.933-.477 10.275.077 14.492.308 2.345.164 15.505-.196 17.987-.194 1.337-.634 2.971-.978 3.631-1.402 2.691-1.035 6.369.69 6.917.414.131 1.128.516 1.587.856 1.027.759 1.758.52 2.411-.789.669-1.342.639-1.581-.461-3.614-2.534-4.684-1.051-14.183 3.354-21.483 1.309-2.169 3.212-5.091 3.442-5.285.703-.593 1.289-1.944 1.289-2.971 0-2.388 2.516-3.925 3.531-2.156.913 1.591-.295 6.05-3.231 11.933-1.588 3.18-2.166 7.793-1.663 13.269.296 3.227.359 3.428 1.345 4.309 1.129 1.01 1.412.998 3.847-.147 1.722-.809 8.88-7.934 12.304-12.247 1.344-1.693 2.907-3.589 3.472-4.213 1.111-1.227 4.344-6.199 5.9-9.07 1.315-2.431 2.231-6.108 2.858-11.476l.526-4.508-1.043-1.974c-1.528-2.892-2.891-7.397-2.889-9.548.003-3.42 1.18-5.695 3.14-6.073.921-.178 1.109-.079 1.7.891.366.6.666 1.528.667 2.063.0001.535.374 1.993.828 3.241.454 1.248 1.051 2.891 1.327 3.652.761 2.097 1.439 2.278 2.754.734 1.763-2.068 2.438-3.041 2.704-3.9.138-.446.578-1.466.977-2.269.399-.802 1.049-2.261 1.444-3.241.395-.98 1.398-3.089 2.228-4.687 1.194-2.296 1.704-2.966 2.435-3.198 1.916-.609 2.97 2.107 2.222 5.724-.19.921-.506 2.947-.702 4.502-.195 1.555-.651 3.518-1.012 4.361-.851 1.986-2.929 5.065-4.662 6.909-1.647 1.753-3.202 4.72-3.698 7.06-.2.942-.655 2.285-1.012 2.985-2.813 5.514 4.462 2.045 9.876-4.709 1.687-2.105 2.116-2.43 3.082-2.335 1.881.184 1.149 4.554-1.397 8.343-1.719 2.558-4.073 5.095-5.243 5.65-.624.296-1.134.659-1.134.808 0 .148-.474.465-1.053.703-.579.238-1.275.704-1.546 1.035-.295.361-1.397.792-2.751 1.075-1.716.36-2.512.719-3.316 1.498-.581.564-1.057 1.172-1.057 1.351 0 .289-1.403 3.15-3.889 7.932-1.453 2.794-4.469 6.181-6.835 7.675-.697.44-1.267.939-1.267 1.108 0 .43 1.147.999 2.995 1.486 2.548.672 7.748-.319 10.11-1.925 1.594-1.086 4.36-4.182 5.187-5.807 1.222-2.4 2.976-3.464 4.01-2.432.681.681.422 2.285-.841 5.213-.952 2.208-1.681 3.318-3.245 4.942-1.109 1.152-2.234 2.095-2.498 2.095-.265 0-.481.2-.481.445 0 .559-2.748 3.12-3.347 3.12-.245 0-1.16.399-2.033.886-1.532.855-1.747.885-6.125.844-2.495-.023-5.752-.05-7.237-.059l-2.7-.017-2.485 1.758c-1.367.967-3.433 2.396-4.592 3.175-1.159.779-2.372 1.717-2.697 2.085l-.591.668 4.48-.177c3.88-.154 4.903-.081 7.638.542 3.422.779 4.645.702 6.116-.385.89-.658.905-.658 4.43-.065 1.962.33 2.259 1.044 1.239 2.988-.442.843-1.194 2.335-1.67 3.315-1.01 2.074-1.88 3.108-3.204 3.796-1.363.709-4.05 2.762-5.37 4.105-1.159 1.177-3.669 2.3-4.464 1.995-.243-.093-1.118.139-1.945.515-1.238.564-1.82.643-3.3.447-.988-.131-2.307-.258-2.931-.282-1.235-.048-1.179-.212-.988 2.873.033.535-.011 2.722-.099 4.861-.171 4.198-.792 6.839-1.826 7.775-.358.324-.651.896-.651 1.271 0 .375-.363 1.993-.806 3.596-1.237 4.471-.98 7.04.88 8.813l.953.907-.217-1.17c-.174-.937-.105-1.213.343-1.385.86-.33 1.769.094 2.107.983.51 1.341.35 2.191-.631 3.366-.899 1.077-1.026 1.122-3.16 1.133l-2.223.011.109 3.878c.085 3.042-.037 4.54-.567 6.942-.372 1.685-.676 3.479-.676 3.986 0 2.618 4.03 7.05 6.407 7.05.33 0 .882-.214 1.228-.476.859-.65 1.355-.612 1.753.133.235.439.231.856-.013 1.377-.361.771-2.426 2.245-3.963 2.83l-.873.332.681 1.306c.374.718.808 1.385.964 1.481.155.096.811.97 1.456 1.943.646.973 1.289 1.768 1.429 1.768.14 0 1.038.644 1.994 1.431 1.879 1.546 5.495 3.091 7.379 3.153 1.699.056 3.884-.629 4.741-1.486.707-.707 1.442-2.634 1.446-3.791.0001-.292-.262-.857-.585-1.256-.568-.701-.62-.707-1.63-.185-1.151.595-1.673.458-1.673-.439 0-.8.569-1.214 2.281-1.659 2.123-.552 3.033-.091 3.677 1.86.46 1.395.464 1.749.037 3.342-.263.98-.48 2.587-.482 3.57-.007 3.297-1.491 4.934-5.656 6.241-1.947.611-2.962.711-6.825.672-2.495-.025-4.942-.204-5.438-.399-.647-.254-1.605-.255-3.403-.005-2.77.385-3.872.279-6.791-.654-2.167-.692-4.386-2.01-5.47-3.255l-.695-.797-.892 1.759c-1.371 2.706-2.707 4.128-4.418 4.704-2.664.896-6.077 5.56-7.724 10.554-1.025 3.109-.37 6.57 1.501 7.933 1.402 1.021 1.934 1.126 3.286.649 1.484-.523 2.333-.182 2.333.939 0 1.205-.31 1.733-1.41 2.395-1.538.927-3.042 1.032-5.558.39m39.3-26.795c.495-.318.911-.375 1.269-.175.777.435 2.383-.125 3.248-1.131 1.269-1.477 1.022-1.709-1.607-1.504-3.928.305-6.82.251-8.187-.154-1.29-.382-5.407-2.854-5.614-3.372-.24-.6-.702-.216-.702.582 0 .627.601 1.443 2.278 3.091 2.337 2.296 3.088 2.74 5.338 3.157 1.608.298 3.02.124 3.977-.494m-11.917-2.717c-1.212-.948-1.775-.849-.787.139.28.28.754.506 1.053.502.421-.006.361-.15-.266-.641m-42.46-2.639c1.775-2.116 2.211-3.155 2.811-6.679.14-.82.066-1.053-.334-1.053-.581 0-1.169 1.032-1.948 3.416-.377 1.153-.818 1.802-1.502 2.206-.639.378-.969.832-.969 1.335 0 .45-.399 1.099-.972 1.581-1.27 1.068-1.246 1.576.068 1.448.83-.081 1.406-.537 2.846-2.254m40.514 1.244c0-.054-.512-.658-1.138-1.341-2.038-2.226-3.363-4.802-4.201-8.17-.437-1.756-.763-3.478-.725-3.828.043-.399-.161-.683-.549-.763-.583-.12-.606.036-.414 2.742.283 3.978 1.382 7.01 3.188 8.784.77.758 1.489 1.377 1.598 1.377.109 0 .534.292.945.648.656.569 1.296.841 1.296.549m-12.315-.804c0-.14-.292-.255-.648-.255-.356 0-.648.115-.648.255 0 .14.292.255.648.255.357 0 .648-.115.648-.255m13.612-1.665c0-.538-.35-1.364-.81-1.91-.867-1.03-1.033-1.975-.45-2.559.454-.454.1-1.063-.623-1.074-.348-.005-.903-.744-1.52-2.026-.738-1.531-1.159-2.044-1.747-2.127-.743-.105-.766-.051-.551 1.296.277 1.741 1.777 4.962 3.471 7.458 1.422 2.094 2.23 2.435 2.23.941m-12.315-1.773c0-.248-.219-.535-.486-.638-.487-.187-.686.457-.27.873.363.363.756.241.756-.235m-23.334-3.762c0-.178-.227-.324-.505-.324-.278 0-.415.146-.305.324.11.178.338.324.505.324.168 0 .305-.146.305-.324m31.436-6.769c0-.158-.401-.549-.891-.87-.49-.321-1.158-.922-1.484-1.337-.656-.833-1.189-.724-1.189.244 0 .381.224.631.567.635.312.003.911.368 1.33.81.752.793 1.667 1.077 1.667.518m-48.13-11.241c.601-.458 1.183-1.246 1.294-1.751.111-.505.485-1.474.831-2.152.346-.679.629-1.405.629-1.612 0-.208.219-.559.486-.781.782-.649.62-1.413-.243-1.148-.401.123-1.167.344-1.701.491-.535.146-.79.281-.567.299.617.051.488.914-.385 2.578-1.601 3.052-2.134 4.311-1.952 4.606.269.436.396.394 1.608-.53m42.941-.788c0-.356-.146-.648-.324-.648-.178 0-.324.292-.324.648 0 .356.146.648.324.648.178 0 .324-.292.324-.648m2.768-5.329c-.327-4.172-2.339-9.813-3.195-8.958-.235.235-.23.563.015 1.074.752 1.567.733 2.317-.18 7.437-.316 1.769.029 2.655.922 2.371.423-.134.771.059 1.151.64.444.678.633.759 1.018.439.377-.313.432-.925.269-3m-40.95-3.318c-.234-.094-.513-.082-.621.026-.108.108.084.184.425.17.378-.016.454-.092.196-.196m43.37-4.596c0-.154-.261-.628-.58-1.053-.319-.425-.758-1.184-.976-1.687-.26-.601-.589-.874-.959-.798-.919.191-.593 1.886.563 2.927.963.867 1.952 1.177 1.952.611m-2.537-5.117c.408-.369.593-.994.593-2 0-1.628-.91-5.237-1.32-5.237-.571 0-.61.657-.101 1.724.495 1.038.495 1.235.005 2.673-.951 2.792-.571 4.107.823 2.845m-2.067-1.087c.052-.622-.291-2.371-.763-3.886-.472-1.515-.9-3.282-.952-3.927-.052-.645-.253-1.47-.448-1.835-.409-.765-2.306-2.02-3.056-2.02-.917 0-.902.594.028 1.143 1.207.713 2.548 2.668 2.122 3.094-.34.34-1.402.079-1.402-.345 0-.475-2.068-2.272-2.615-2.272-.301 0-.74.232-.976.517-.37.446-.244.67.933 1.647.749.622 1.362 1.374 1.363 1.671.0001.297.652 1.258 1.448 2.136 1.385 1.527 1.985 2.513 2.744 4.51.496 1.305 1.449 1.041 1.573-.436m-22.73-2.52c1.093-1.429 1.974-4.494 1.444-5.02-.479-.479-1.01.047-1.012 1-.004.964-1.345 4.068-1.908 4.416-.493.305-.452 1.24.048 1.075.223-.073.866-.736 1.429-1.471m-5.561-.359c2.038-1.172 2.578-1.777 3.211-3.6.609-1.754.64-2.269.136-2.269-.547 0-1.565.994-1.565 1.528 0 .821-2.047 3.02-3.867 4.162l-1.785 1.116 1.124-.003c.642-.002 1.82-.403 2.745-.935m32.25-2.465c0-.801-.439-1.087-.792-.515-.234.379.125 1.326.503 1.326.159 0 .289-.365.289-.81m-1.861-2.298c.482-.482-1.817-4.85-3.125-5.935-.256-.213-.987-.471-1.623-.575-1.631-.265-1.979.66-.656 1.744 1.781 1.459 3.049 2.816 3.252 3.481.389 1.272 1.501 1.935 2.152 1.284m1.363-4.895c-.607-1.129-.471-1.94.38-2.267.643-.247 2.063 1.231 2.063 2.147 0 .325.207.762.459.971 1.199.995.982-3.253-.346-6.783-.436-1.158-.895-2.198-1.02-2.31-.125-.112-.763-.299-1.418-.415-1-.178-1.222-.111-1.393.427-.262.825.273 1.657 1.645 2.556 1.063.697 1.448 1.758.786 2.167-.425.263-4.547-3.98-4.547-4.68 0-.56 1.997-2.606 2.544-2.606.161 0 .472.216.691.479.465.56 1.424.19 1.757-.678.295-.77-.658-2.07-1.519-2.07-.398 0-1.433-.377-2.298-.838-1.132-.603-1.673-.739-1.926-.486-.581.581-.895.399-.694-.401.12-.478.004-.907-.318-1.174-.279-.231-.507-.549-.507-.705 0-.583 1.21-.256 1.945.526.519.552 1.108.81 1.849.81.599 0 1.594.211 2.212.47.981.41 1.124.41 1.124 0 0-.258-.149-.47-.331-.47-.182 0-.497-.365-.7-.81-.327-.718-.568-.81-2.111-.81-2.274 0-4.274-1.227-4.301-2.639-.017-.857.945-.982 1.965-.256 2.065 1.47 4.764 1.417 8.218-.163 1-.457 1.936-.831 2.082-.831.145 0 .542-.311.882-.69 1.116-1.247 3.036-2.242 5.329-2.76 2.06-.465 2.457-.464 4.565.012 1.27.287 3.232.521 4.36.521 1.757 0 2.169-.117 2.862-.81.562-.562 1.165-.81 1.969-.81 1.247 0 1.921-.807 1.105-1.324-.7-.444-1.707-.35-2.914.271-1.517.78-5.074.745-7.585-.074-1.427-.465-2.851-.635-5.347-.636-4.132-.002-6.208.644-6.82 2.122-.413.996-.912 1.178-1.532.559-.284-.284-.685-.289-1.604-.019-2.177.64-6.162 1.134-7.351.912-1.582-.297-2.53.238-2.269 1.279.271 1.078-.579 1.37-2.01.689-1.216-.58-1.397-1.298-.559-2.223.511-.565.511-.637-.0001-1.149-.513-.513-.579-.5-1.069.199-.362.517-.626.643-.86.408-.234-.234-.214-.487.065-.823.222-.267.309-.638.194-.824-.306-.495-1.326-.413-1.788.144-.526.634-.975.326-.975-.669 0-1.024-1.668-2.08-3.287-2.081-.75-.0001-1.249-.179-1.367-.487-.239-.622-1.245-.613-4.946.049-2.576.46-3.213.709-4.556 1.78-2.551 2.034-3.411 2.517-4.877 2.737-.765.115-1.741.484-2.168.82-.427.336-.981.611-1.231.611-.25 0-1.321.337-2.38.748-1.059.412-3.092 1.01-4.518 1.326-1.426.318-3.686.912-5.02 1.322-1.337.409-3.306.931-4.375 1.158-1.069.228-2.221.553-2.559.722-.338.169-1.914.415-3.502.547-2.742.227-2.948.298-4.085 1.41-.81.792-1.22 1.5-1.268 2.19-.039.561-.233 1.215-.432 1.455-.502.605-.118 1.592.977 2.513 1.26 1.06 4.135 1.386 6.336.718 3.088-.937 5.898-.463 5.621.948-.195.99-1.074 1.336-2.117.83-.504-.244-1.062-.395-1.24-.334-.178.061-1.222.268-2.32.462-1.098.193-2.046.497-2.107.675-.151.445 4.377.585 7.1.22 1.346-.181 2.446-.176 2.858.011 1.045.476 2.874-.121 2.999-.979.21-1.44 2.659-.708 7.188 2.151.98.619 2.091 1.482 2.468 1.919.382.442.946.744 1.273.681.463-.089.199-.484-1.253-1.869-1.724-1.646-2.283-2.619-1.503-2.619.814 0 2.81 1.318 3.16 2.086.329.721.471.787.993.461.784-.49 1.602-.169 1.959.767.32.84 1.908 2.52 2.381 2.52.173 0 .235-.208.137-.462-.098-.254.016-.623.253-.82.331-.275.629-.112 1.293.706 2.149 2.647 3.109 3.235 4.247 2.598.477-.267.419-.395-.463-1.024-.555-.395-1.01-.918-1.01-1.163 0-.776.671-.897 1.401-.253 1.535 1.355 2.622 1.809 4.407 1.843 1.198.022 1.799-.096 1.803-.355.012-.822.721-.965 3.57-.717 1.741.152 3.407.127 4.132-.062 1.202-.312 1.574-.766.833-1.013-.82-.273.037-1.223 1.104-1.223 1.405 0 3.221-.535 3.534-1.04.141-.228.033-.643-.249-.955-.456-.504-.414-.595.486-1.061.542-.28 1.301-.509 1.687-.509.577 0 .674.147.545.822-.11.574.036.957.483 1.27.746.522.461 1.26-.383.992-.32-.102-.76.04-.992.32-.356.429-.144.774 1.44 2.345 1.022 1.013 2.098 2.285 2.393 2.827l.535.984.115-.972c.063-.535-.136-1.438-.442-2.01m-14.371-2.01c-.619-.392-.159-1 .755-1 .729 0 1.31.704.911 1.103-.28.28-1.149.229-1.667-.099m2.229-2.034c-1.522-.435-2.046-.888-1.62-1.401.263-.317.654-.298 1.868.091 2.947.946 3.166 1.06 2.652 1.385-.58.367-1.427.345-2.9-.076m-9.947-1.874c-.569-.135-1.492-.631-2.051-1.101-.559-.47-1.406-.947-1.883-1.059-1.725-.406-3.297-1.496-3.297-2.286 0-.468.193-.751.512-.751.714 0 .313-1.777-.709-3.138-.94-1.252-.979-1.723-.143-1.723.814 0 2.108 1.72 2.635 3.505.288.973.692 1.543 1.328 1.872.983.509 1.105.784.58 1.309-.23.23.058.452.919.71.69.207 1.519.669 1.843 1.027.786.869 2.435.877 2.66.014.145-.553.366-.614 1.671-.459 2.257.268 2.463.365 1.987.938-.22.265-.792.482-1.271.482-.479 0-1.154.214-1.5.476-.681.515-1.661.57-3.284.184m11.972-.226c-.746-.301-.438-1.082.426-1.082 1.042 0 2.165.58 1.913.989-.198.32-1.635.377-2.34.093m-41.45-1.561c.115-.3-.009-.858-.277-1.239-.676-.965-.612-1.198.331-1.198 1.623 0 1.905 2.557.316 2.869-.429.084-.525-.028-.37-.431m42.484-1.281c-.497-.367-.546-.549-.233-.866.509-.517 2.034.111 2.034.837 0 .622-.977.638-1.802.029m-53.717-2.336c-.339-.339.074-.746 1.256-1.24.612-.256 1.112-.583 1.112-.728 0-.145.371-.662.823-1.151.988-1.066 2.247-1.163 2.756-.213.314.587.188.834-.974 1.907-1.262 1.165-2.421 1.632-4.05 1.632-.394 0-.809-.093-.923-.207m54.748-.291c-.209-.544.529-.985 1.079-.645.187.115.34.42.34.677 0 .625-1.176.599-1.418-.031m-15.839-1.499c-1.028-.375-1.131-.832-.324-1.433.518-.387.479-.455-.453-.785-.926-.328-1.38-.769-2.82-2.741-.459-.628-.481-.628-1.608-.022-1 .538-1.307.566-2.465.219-.924-.277-1.323-.576-1.323-.992 0-.987.876-1.426 2.721-1.366 2.226.073 2.767-.453 2.168-2.107-.38-1.051-.344-1.23.483-2.424 1.061-1.531 1.3-1.705 1.984-1.443.449.172.419.305-.219.984-.852.907-.689 2.01.238 1.618 2.277-.965 3.409-1.237 5.161-1.238 1.912-.0001 3.02.425 3.02 1.161 0 .177-.353.231-.79.121-1.376-.345-1.329.475.095 1.659.739.614 1.343 1.384 1.343 1.712 0 .87 1.566 2.591 2.358 2.591.374 0 1.01-.307 1.406-.682.75-.704 1.422-.603 1.422.215 0 .257.135.467.301.467.166 0 .53.229.81.509.463.463.556.463 1.019 0 .638-.638 1.111-.653 1.111-.035 0 .614-2.212 2.118-3.114 2.118-.382 0-1.219-.219-1.859-.486-1.581-.66-2.592-.611-3.291.162-.323.356-.783.648-1.022.648-.667 0-.518-.905.212-1.296.741-.397.856-1.147.214-1.394-.561-.215-.993.078-1.482 1.01-.216.411-.836 1.016-1.378 1.345-.929.565-.946.611-.303.815.92.292.858.769-.15 1.153-1.026.39-2.29.368-3.463-.061m3.03-3.853c.929-.497.443-.997-.588-.605-.748.284-.987.199-1.849-.663-.813-.813-.925-1.091-.625-1.554.259-.401.704-.537 1.536-.469.948.077 1.169-.016 1.161-.486-.02-1.1-.811-1.764-1.819-1.526-2.505.594-3.105 2.719-1.282 4.542 1.149 1.149 2.278 1.397 3.466.762m3.21-2.109c0-.079-.227-.143-.505-.143-.278 0-.414.148-.302.329.185.299.807.156.807-.186m-34.14 4.178c-.504-.504-.144-1.044.837-1.254.579-.124 1.25-.384 1.491-.578.241-.194.869-.32 1.397-.28.528.04 1.352-.128 1.831-.375 1.41-.725 2.928-1.138 3.564-.972.326.085.783-.074 1.015-.354.578-.696 1.315-.64 1.315.1 0 .778-.656 1.318-1.829 1.507-1.986.319-2.909.554-3.892.993-.562.251-1.405.457-1.874.457-.469 0-1.376.219-2.02.486-1.306.546-1.532.579-1.841.27m12.567-4.118c-.251-1 .025-1.5.829-1.5.839 0 1 .385.547 1.289-.542 1.078-1.136 1.169-1.376.211m26.902 20.18c.183-.173-.423-.29-1.499-.29-.994 0-2.299-.092-2.901-.205-1.56-.292-.812.419.856.813 1.357.321 3.02.171 3.543-.318m-20.12-1.91c-1.126-1.188-2.715-1.776-2.715-1 0 .45 2.302 1.811 3.835 2.268.06.018-.444-.551-1.12-1.264m-5.457-1.599c-.118-.19-.357-.346-.531-.346-.175 0-.13.204.1.453.465.505.764.43.431-.108m49.08-10.38c.573-.362.544-.393-1.222-1.284-.766-.386-1.469-.9-1.562-1.142-.093-.242-.706-.538-1.362-.658-.656-.12-1.812-.524-2.568-.898-.756-.374-1.48-.575-1.609-.446-.405.405 1.718 2.098 4.319 3.444 2.6 1.346 3.199 1.493 4 .985m5.357-1.76c0-.335-.586-.656-1.922-1.051-1.646-.487-.768-.911 1.922-.927 2.88-.018 3-.073 6.693-3 2.34-1.856 3.192-2.922 3.192-3.993 0-.533-.131-.641-.567-.462-.312.128-1.035.367-1.606.532-.572.165-1.347.733-1.724 1.261-.376.528-.893.961-1.148.961-.255 0-.464.126-.464.279 0 .153-.632.614-1.405 1.024-1.269.673-1.549.709-2.898.369-1.799-.453-2.827-.481-2.827-.078 0 .164.445.396.989.516 1.775.39.87.965-1.64 1.042-1.309.04-2.53.223-2.712.405-.183.183-.789.332-1.347.332-1.573 0-1.544.323.11 1.216 2.671 1.441 7.354 2.444 7.354 1.574m-10.6-3.32c-.292-.292-.761-.442-1.042-.334-.881.338-.558.865.53.865.965 0 1-.039.511-.53m10.762-4.01c-.939-.735-.976-.742-1.62-.319-.432.284-.432.355 0 .638.267.176.924.318 1.458.317l.972-.002-.81-.634m-18.392-3.945c.621-.319.755-1.087.243-1.403-.178-.11-.324-.478-.324-.817 0-.45.367-.715 1.357-.982.747-.201 2.387-.956 3.646-1.679 1.259-.722 2.582-1.475 2.941-1.673 1.813-.998 2.75-1.901 2.75-2.65 0-.523.184-.788.546-.788.874 0 3.378-1.33 3.585-1.905.104-.289.625-1.085 1.157-1.768.883-1.135 1.065-1.224 2.097-1.03.621.117 1.655.493 2.296.837.642.344 1.347.625 1.569.625.221 0 .88.291 1.463.647 1.437.876 5.579.9 8.06.046 3.174-1.092 5.843-2.649 7.481-4.363 3.102-3.247 3.736-4.799.85-2.083-1.128 1.062-2.181 1.628-4.602 2.473-2.94 1.027-3.337 1.086-6.286.94-3.261-.161-6.03-1.086-6.59-2.198-1.365-2.727-1.406-3.241-.257-3.241.383 0 .761-.326.948-.818.171-.45.813-1.114 1.427-1.476.627-.37 2.201-2.137 3.591-4.03 1.362-1.856 2.903-3.733 3.425-4.173.618-.52.879-.981.749-1.321-.115-.299.372-1.687 1.136-3.244.735-1.497 1.336-2.868 1.336-3.047 0-.179.311-.543.691-.809.421-.295.615-.681.496-.991-.284-.74.092-1.479.752-1.479.316 0 .755.219.977.486.222.267.867.486 1.433.486.566 0 1.192.162 1.391.361.265.265.734.174 1.766-.343 2.435-1.219 4.249-2.738 6.63-5.554 3.621-4.282 3.668-5.743.068-2.125-2.525 2.538-4.086 3.551-6.541 4.245-2.405.68-3.546.432-4.644-1.01l-.861-1.129.519-2.329c.285-1.281.609-2.912.718-3.625.455-2.954 1.085-4.211 2.585-5.159 3.884-2.455 6.365-6.231 7.638-11.627.345-1.463.792-3.361.992-4.218.201-.857.286-1.637.19-1.734-.262-.262-.867.193-.867.653 0 .22-.656 1.741-1.458 3.38-.802 1.638-1.458 3.093-1.458 3.232 0 .139-.365.79-.81 1.445-.446.656-.81 1.36-.81 1.565 0 .76-2.408 4.062-3.476 4.766-.621.409-1.607.729-2.249.729-1.272 0-3.03-1.066-3.03-1.839 0-.274-.36-.926-.8-1.45-.44-.523-1.101-1.96-1.468-3.194-.883-2.965-1.468-3.347-1.197-.78.209 1.979 1.188 5.073 2.633 8.324 1.131 2.544 1.118 3.725-.14 12.363-.522 3.583-2.493 7.982-4.618 10.307-.668.731-1.215 1.587-1.215 1.901 0 .314-.189.764-.421.999-.231.236-.914 1.157-1.518 2.049-.604.891-1.186 1.693-1.295 1.782-.109.089-.902 1.037-1.764 2.107-3.555 4.413-10.822 12.06-12.624 13.28-4.88 3.31-7.982 2.965-9.887-1.098-.806-1.718-.849-2.073-.832-6.835.016-4.534.09-5.181.763-6.644.773-1.681 1.953-4.967 1.966-5.479.004-.161-.284-.029-.64.293-.357.323-.648.774-.648 1 0 .23-.284.9-.63 1.489-.975 1.658-2.542 6.366-2.959 8.892-.482 2.917-.02 6.647 1.11 8.974 1.26 2.594 1.338 3.261.569 4.851-1.049 2.166-2.285 3.185-3.893 3.207-.814.011-1.583-.19-1.932-.506-.64-.579-1.523-.689-1.809-.225-.102.165-.621.395-1.154.512-1.307.287-1.641 1.531-.684 2.55.378.403.688.905.688 1.116 0 .657.556.425 1.409-.588.822-.977 2.156-1.326 2.156-.564 0 .225-.292.59-.648.813-.774.483-.848 1.315-.141 1.586.309.119.695-.075.991-.496.607-.867 1.931-.971 1.574-.124-.131.312-.31.899-.398 1.304-.156.718-.113.731 1.743.523 1.046-.118 2.158-.345 2.47-.505m.972-6.32c-.223-.088-.405-.586-.405-1.105 0-.932.419-1.253.81-.621.11.178.629.324 1.153.324.524 0 .953.128.953.284 0 .658-1.728 1.428-2.512 1.118m-12.08.449c.452-.802.426-.906-.451-1.823-.889-.928-.921-1.066-.716-3.07.135-1.315.091-2.175-.117-2.303-.202-.125-.221-.42-.05-.752.155-.301.216-.728.137-.948-.079-.221.378-.709 1.016-1.085.638-.376 1.077-.818.975-.982-.101-.164-.31-.22-.463-.125-.424.262-.736-.445-.473-1.069.348-.825.452-1.76.721-6.455.213-3.726.329-4.344.886-4.751.61-.446.613-.498.078-1.09-.69-.763-.709-1.18-.077-1.705.267-.222.486-.682.486-1.022 0-.34-.219-.703-.486-.805-.537-.206-.661-1.267-.182-1.563.175-.108.256-2.078.19-4.637-.164-6.37.606-16.221 1.473-18.865 1.472-4.484 3.318-6.946 6.134-8.18 1.206-.528 1.823-.598 3.565-.402 4.401.495 6.7.266 8.097-.808 1.111-.854.609-1.175-1.046-.67-3.203.978-7.05-.002-7.05-1.795 0-1.158 1.399-2.729 3.761-4.225 2.67-1.691 5.117-4.163 5.455-5.51.355-1.415-.113-1.336-1.541.261-.865.967-2.197 1.93-3.681 2.661-1.279.63-2.421 1.3-2.537 1.488-.116.188-.823.63-1.571.981-2.597 1.221-7.87 6.374-9.272 9.06-.325.624-.899 1.412-1.274 1.752-.375.34-.683.894-.683 1.231 0 .338-.213 1.025-.473 1.528-.293.567-.402 1.348-.287 2.059.153.943.065 1.21-.498 1.511-1.628.871-4.437-2.864-5.059-6.728-.35-2.173-.331-2.44.228-3.15.607-.771.606-.777-.192-.977-.441-.111-1.068-.052-1.393.13-.557.312-.558.344-.023.55.312.12.567.448.567.728 0 .991-.785 2.662-1.25 2.662-.403 0-.4.082.023.567.272.312.594 1.356.716 2.319.287 2.265.872 3.391 2.797 5.378 1.421 1.467 1.603 1.83 1.92 3.829.237 1.5.25 3.18.04 5.234-.289 2.829.084 8.832.798 12.838.241 1.351-.413 2.244-1.642 2.244-.914 0-1.782.788-1.782 1.617 0 .329.38.875.845 1.214.764.557.857.861.972 3.187.07 1.414.117 2.79.106 3.057-.011.267-.019.986-.018 1.597.0001.611-.196 1.872-.439 2.803-.242.931-.367 2.254-.278 2.94.127.974.012 1.409-.525 1.978-.378.401-.967.729-1.309.729-1.16 0-3.935-2.204-4.761-3.782-1.895-3.619-2-7.417-.429-15.376.306-1.548.02-3.415-.506-3.302-.367.079-.742 1.519-1.12 4.31-.157 1.159-.523 3.127-.813 4.375-.774 3.332-1.037 4.973-.927 5.771.841 6.06 1.648 7.505 5.094 9.14 1.31.622 2.826 1.131 3.368 1.131.542 0 1.183.237 1.424.528.381.459.296.646-.651 1.437-1.474 1.23-1.198 1.97.691 1.85 1.321-.084 1.39-.043 1.495.883.188 1.659 1.167 1.853 1.99.395m-11.89.538c.584-.584-2.583-4.334-3.66-4.334-.339 0-1.113-.51-1.719-1.134-1.357-1.397-2-1.489-1.698-.243.323 1.319 1.364 2.694 3.01 3.97 2.378 1.848 3.489 2.323 4.07 1.741m-8.521-2.754c0-.892.151-1.905.335-2.249.236-.44.226-.831-.032-1.313-.976-1.824-1.924 1.931-1.179 4.669.371 1.364.875.727.875-1.107m50.558-5.145c0-.178-.292-.324-.648-.324-.356 0-.648.146-.648.324 0 .178.292.324.648.324.356 0 .648-.146.648-.324m-35.481-5.638c.567-1.357.835-5.264.471-6.876-.315-1.398-1.102-2.269-2.32-2.566-.794-.194-.903-.101-1.252 1.065-.21.702-.33 2.429-.265 3.838.1 2.171.266 2.795 1.09 4.1.535.846 1.162 1.539 1.394 1.539.232 0 .629-.495.881-1.1m6.637.271c0-.079-.146-.143-.324-.143-.178 0-.324.154-.324.343 0 .189.146.253.324.143.178-.11.324-.265.324-.343m-8.5-13.05c.079-.237-.069-.309-.385-.188-.282.108-.513.339-.513.513 0 .426.737.159.898-.325m-6.111-6.347c.295-.356.151-.785-.675-2.01-.578-.856-1.314-2.293-1.635-3.194l-.585-1.636.185 2.355c.151 1.917.332 2.502.975 3.145.435.435.79 1.015.79 1.291 0 .623.448.646.944.048m61.766-2.14c-.11-.178-.338-.324-.505-.324-.168 0-.305.146-.305.324 0 .178.227.324.505.324.278 0 .415-.146.305-.324m6.259-26.23c.081-.243-.041-.365-.284-.284-.234.078-.489.333-.567.567-.081.243.041.365.284.284.234-.078.489-.333.567-.567m-65.66 162.93c-.57-.57-.508-2.852.078-2.852.602 0 .707.2.982 1.864.238 1.441-.2 1.849-1.061.988m-14-30.21c0-1.58.716-5.878 1.154-6.927.794-1.9 3.22-4.741 3.763-4.405.164.101-.287.819-1 1.595-.715.776-1.399 1.82-1.519 2.321-.12.501-.405 1.282-.633 1.735-.345.686-.49 1.852-.775 6.224-.009.134-.235.243-.502.243-.299 0-.486-.303-.486-.787m15.232.519c0-.147.382-.621.849-1.053.467-.432 1.198-1.333 1.624-2 .773-1.211 1.417-1.58 1.414-.81-.002.601-2.957 4.132-3.457 4.132-.237 0-.43-.12-.43-.268m2.728-5.285c-.129-.209.271-.801.933-1.377.638-.556 1.46-1.592 1.828-2.302.692-1.337.914-3.732.345-3.732-.504 0-.387-.721.372-2.289.698-1.442.818-3.052.414-5.57-.152-.945-.078-1.26.334-1.417.291-.112.603-.129.693-.038.399.399.172 5.406-.292 6.439-.75 1.67-.783 1.943-.371 3.141.637 1.853-.645 4.94-2.885 6.945-.738.661-1.057.707-1.371.2m-17.18-6.572c-.205-.534.645-1.624 3.112-3.991 1.852-1.777 2.101-1.92 2.425-1.395.107.173-.504.821-1.358 1.44-.854.619-2.05 1.863-2.657 2.764-.607.901-1.159 1.638-1.226 1.638-.067 0-.2-.206-.297-.457m15.1-1.796c0-.169.196-.425.435-.567.534-.318 1.367-1.627 1.66-2.609.186-.623.097-.729-.614-.729-1.055 0-1.068-.637-.034-1.609.439-.412 1.119-1.525 1.512-2.473.393-.948.836-1.648.985-1.556.505.312.273 1.526-.564 2.954-.653 1.115-.753 1.523-.457 1.879.533.643.127 2.147-1 3.703-.873 1.205-1.921 1.754-1.921 1.01m-18.797-6.599c0-.694 1.622-1.961 4.213-3.29 2.01-1.032 2.78-1.252 4.457-1.277 1.994-.03 2.06-.061 4.112-1.896 1.281-1.146 2.17-1.729 2.304-1.511.298.482-1.551 2.339-3.883 3.901-1.701 1.139-2.02 1.247-2.78.933-1.174-.486-3.856.535-5.946 2.264-1.607 1.329-2.476 1.637-2.476.877m7.994.209c-.119-.119-.216-.314-.216-.433 0-.348 4.16-2.428 4.392-2.197.358.358-.127.824-1.927 1.854-1.885 1.079-1.931 1.094-2.249.776m12.952-3.252c-.1-.1.16-.783.578-1.517.418-.734.853-1.736.967-2.226.266-1.147 1.166-1.191 1.166-.058 0 1.523-2.077 4.435-2.712 3.801m-49.3-26.991c-.112-.181.024-.329.302-.329.569 0 .653.194.204.472-.166.103-.393.038-.505-.143" fill="#000"/>
</svg>
