<svg xmlns="http://www.w3.org/2000/svg" version="1.1" width="300" height="350">
 <path id="fill" d="m91.21 250.31c-.154-.249-.624-.338-1.189-.225-1.288.258-1.925-.507-1.338-1.604.799-1.493-.325-1.974-2.304-.987-1.631.814-4.24 1.425-4.747 1.111-.246-.152-.451-.623-.456-1.047-.008-.679-.158-.762-1.263-.697-1.397.082-1.469-.084-.765-1.769.31-.741.894-1.359 1.589-1.68 1.755-.811 3.55-1.963 4.545-2.917.507-.486 1.477-1.076 2.155-1.311 1.147-.397 4.601-3.931 4.601-4.708 0-.164.303-.723.674-1.244.411-.577.798-1.903.991-3.397.174-1.348.486-3.278.694-4.29.923-4.499 1.723-12.03 1.666-15.682-.018-1.174.118-2.604.302-3.178.557-1.735 1.35-7.79 1.535-11.723.096-2.038.256-4.21.356-4.827.197-1.215-.213-3.402-1.231-6.571-.355-1.104-.643-2.489-.641-3.079.004-1.268-.528-2.598-1.542-3.852-.96-1.187-2.048-4.564-2.337-7.252-.158-1.475-.426-2.306-.86-2.676-1.451-1.236-2.536-2.463-3.305-3.739-.45-.746-1.382-2.213-2.072-3.259-1.05-1.593-1.258-2.201-1.279-3.742-.014-1.012-.142-2.662-.284-3.666-.145-1.019-.12-2.35.056-3.01.693-2.608.598-2.839-1.253-3.02-1.38-.138-1.673-.282-1.673-.821 0-.392.291-.727.726-.836.399-.1 1.07-.622 1.491-1.16.75-.958.878-1.846.658-4.542-.053-.644.236-2.05.641-3.125.479-1.269.666-2.309.535-2.966-.147-.737.037-1.452.676-2.627.483-.888.797-1.828.697-2.088-.106-.276-.899-.569-1.899-.701-1.112-.148-1.789-.417-1.923-.764-.234-.609.742-1.485 1.382-1.24.754.289 3.451-1.136 4.288-2.266.759-1.025 1.927-4.044 1.927-4.981 0-.821 4.638-4.809 6.941-5.969 1.615-.814 1.852-1.702.673-2.527-.602-.421-.677-.639-.383-1.106.271-.431 1-.634 2.839-.784 2.791-.228 3.491-.445 4.565-1.411 1.501-1.351.713-2.34-3.74-4.697l-2.318-1.227-3.536.138c-1.945.076-4.674.247-6.07.38-2.428.232-2.614.197-4.629-.851-1.343-.699-2.233-1.406-2.469-1.963-.203-.479-.67-1.212-1.038-1.63-1.084-1.229-.925-3.761.334-5.317 1.178-1.455 2.066-1.775 7.822-2.81 2.3-.414 4.934-1.085 5.854-1.493.92-.407 2.501-.988 3.512-1.29 1.012-.302 2.771-.847 3.91-1.211 1.138-.364 3.599-.891 5.467-1.171 1.869-.281 3.684-.664 4.04-.852 1.08-.578.813-2.188-.654-3.951-1.866-2.241-2.29-3.254-2.54-6.068-.2-2.244-.112-2.862.833-5.854.581-1.84 1.138-3.797 1.238-4.349.1-.552.464-1.365.808-1.807.344-.442.718-1.376.83-2.075.112-.7.486-1.528.832-1.841.346-.313.629-.775.629-1.027 0-.702 1.521-1.152 2.558-.758l.885.337-.201 2.847c-.121 1.716-.545 3.843-1.066 5.354-1 2.905-1.69 7.591-1.366 9.316.123.656.584 1.607 1.025 2.114 1.062 1.221 1.657.841 2.752-1.758.464-1.102 1.418-2.725 2.12-3.608.702-.882 1.324-1.713 1.382-1.846.059-.133.903-.917 1.877-1.741.974-.824 2.299-2.289 2.944-3.254 1.01-1.508 1.363-1.785 2.524-1.971.742-.119 1.433-.434 1.535-.7.479-1.249 5.958-6.112 6.886-6.112.15 0 1.096-.376 2.102-.836 2.225-1.018 3.66-1.084 4.138-.189.19.356.346.73.346.832 0 .181-2.474 1.871-3.223 2.201-.599.264-2.734 2.949-2.993 3.764-.129.406-.537 1.148-.907 1.649-.569.77-.626 1.133-.371 2.348.376 1.791 1.023 1.945 3.516.838.992-.441 2.33-1 2.974-1.243 2.02-.762 2.373-1.25 2.166-2.98-.157-1.312-.038-1.762.827-3.113.612-.957 1.531-1.845 2.331-2.253.726-.371 1.415-.826 1.53-1.013.115-.187.42-.339.677-.339.257 0 1.233-.452 2.169-1 .936-.552 1.988-1 2.337-1 .349 0 .728-.151.841-.335.323-.522 2.946-.393 3.773.186 1.416.992.859 1.811-1.89 2.779-1.821.641-5.061 3.341-5.061 4.217 0 .718 1.958 1.849 3.178 1.836.552-.006 1.982-.238 3.178-.515 1.196-.278 3.604-.713 5.352-.967 2.912-.424 6.38-1.559 8.154-2.668.391-.244 1.99-.855 3.554-1.356 1.564-.502 3.295-1.06 3.847-1.241 1.952-.641 3.708-.904 6.127-.918 2.549-.015 3.741.35 3.741 1.145 0 .6-1.596 1.738-2.864 2.042-.541.13-1.155.37-1.365.534-.607.476-4.201 1.819-6.06 2.265-3.379.811-3.636 2.404-.585 3.627 2.474.992 2.843 1.286 2.843 2.269 0 1.915-2.716 2.311-6.666.97-3.319-1.126-6.553-1.365-9.725-.717-1.38.282-4.165.839-6.189 1.238-2.024.399-4.412.937-5.307 1.195-.895.258-2.032.469-2.526.469-.494 0-1.041.134-1.216.297-.175.164-1.748.857-3.496 1.54-1.748.684-3.652 1.453-4.232 1.71-.58.257-1.207.467-1.394.467-.639 0-4.889 2.143-7.587 3.827-.92.574-2.199 1.324-2.843 1.667-1.65.879-2.676 1.877-2.676 2.603 0 .926.835 1.082 3.3.618 2.277-.429 7.263-1.111 12.589-1.721 9.43-1.08 15.528-1.698 16.763-1.698 1.453 0 2.157-.607 3.911-3.373.422-.665.858-.92 1.575-.92.817 0 1.078.206 1.481 1.171.269.644.562 1.171.652 1.171 1.33 0 5.68-1.345 8.133-2.515 1.73-.825 3.205-1.5 3.279-1.5.5 0 3.316-2.278 4.851-3.923 1.648-1.767 4.531-5.058 5-5.713.403-.558 2.983-1.45 3.892-1.346.768.088.994.297 1.075.997.077.664-.445 1.604-2.091 3.76-1.747 2.29-2.193 3.116-2.193 4.059 0 1.523.459 1.686 3.384 1.203 2.828-.467 5.648-1.417 8.741-2.946 2.498-1.234 4.343-1.392 4.533-.388.131.692-1.99 2.834-4.01 4.05-2.095 1.26-3.01 1.551-10.693 3.393-1.226.294-3.338.535-4.693.535-1.627 0-2.702.167-3.166.492-.386.271-2.339 1.107-4.34 1.858-4.856 1.824-4.624 1.653-4.744 3.49-.165 2.536.333 2.858 4.42 2.855 2.212-.002 4.336-.232 6.158-.669 2.815-.675 5.419-.875 5.41-.416-.023 1.262-.551 1.757-2.953 2.765-3.387 1.423-5.171 1.857-9.623 2.342-4.958.54-6.585.199-9.03-1.89-.993-.848-1.805-1.806-1.805-2.129 0-.97-.868-1.434-2.253-1.204-.692.115-1.56.213-1.928.218-.368.005-1.346.654-2.174 1.441-3.681 3.5-7.983 5.56-12.739 6.098-2.985.338-5.994-1.042-5.994-2.749 0-1.998-6.01-2.521-6.293-.548-.085.583.236.876 1.692 1.541.988.452 2.766 1.556 3.951 2.452 2.755 2.085 3.624 2.451 5.81 2.451 2.373 0 2.926.613 1.634 1.811-.513.476-1.1.865-1.305.865-.204 0-.958.424-1.676.943-2.297 1.66-6.378 2.506-16.191 3.356l-2.509.217-.176 2.509c-.152 2.155-.423 3.01-1.924 6.067-1.844 3.756-2.097 5.03-1.193 6.03.516.57.513.657-.052 1.281-.333.368-.863.669-1.178.669-.705 0-2.334 2.385-2.334 3.416 0 1.016-1.87 4.718-2.907 5.755-.459.459-1.284 1.707-1.833 2.773-.549 1.066-1.509 2.691-2.133 3.611-.787 1.16-1.164 2.128-1.229 3.157-.089 1.417-.033 1.52 1.244 2.253 1.624.932 3.31.984 5.241.161 2.834-1.207 20.11-1.965 23.7-1.04.647.167 3.206.369 5.687.45 2.481.081 6.02.393 7.856.695 2.207.361 4.085.472 5.52.325 2.095-.214 11.642-.554 14.05-.499 5.474.123 11.843.812 12.545 1.356.184.143 1.012.37 1.84.505.828.135 2.258.511 3.178.836.92.325 2.389.779 3.264 1.01 1.124.294 2.085.895 3.272 2.045.924.896 1.911 1.628 2.192 1.628.282 0 1.293.372 2.247.827 1.864.888 5.296 4.4 5.738 5.872.137.455.453 1.152.702 1.548.418.665.914 3.535 1.318 7.635.439 4.451 2.433 6.751 5.04 5.809.88-.318 1.387-.311 2.441.037 1.491.492 1.89 1.296 1.161 2.337-.993 1.418-2.384 1.822-6.466 1.878-3.31.045-4.166-.061-6.132-.761-1.257-.447-2.485-.737-2.728-.643-.244.094-.545.669-.669 1.28-.124.61-.606 2.204-1.07 3.541-1.261 3.633-1.19 7.07.217 10.615.585 1.472 1.254 2.902 1.486 3.178.233.276.626 1.029.874 1.673.248.644.762 1.571 1.142 2.059.38.489 1.2 1.731 1.821 2.76.621 1.029 1.239 1.871 1.372 1.871.133 0 .509.984.834 2.187.536 1.982.552 2.589.167 6.478-.256 2.581-.347 6.075-.229 8.769.108 2.463.029 6.585-.175 9.161-.257 3.239-.268 5.767-.038 8.196.419 4.426.202 5.158-1.823 6.128-1.563.749-2.058 1.441-3.579 5-.368.862-.858 1.641-1.088 1.731-.23.09-1.209.741-2.174 1.446-1.831 1.337-3.181 1.897-5.435 2.256-.736.117-1.76.373-2.275.57-.672.256-1.144.252-1.673-.016-.405-.205-1.338-.415-2.074-.466-1.072-.074-1.358-.234-1.439-.801-.075-.527.465-1.17 2.106-2.509 4.219-3.442 5.108-4.079 7.399-5.306 2.455-1.315 3.689-2.713 3.948-4.476.808-5.501 1.092-19.453.433-21.288-.099-.276-.268-1.48-.376-2.676-.461-5.128-.89-7.25-1.867-9.24-.553-1.127-1-2.157-1-2.29 0-.133-.339-.715-.753-1.292-.736-1.028-1.191-1.796-2.161-3.652-.264-.506-.62-.92-.791-.92-.171 0-.31-.156-.31-.347 0-.191-.602-.974-1.338-1.74-.736-.766-1.338-1.521-1.338-1.677 0-.281-2.971-3.616-6.572-7.377-1.324-1.383-2.067-1.913-2.578-1.84-.809.115-.825.427-.254 5.12.179 1.472.485 4.106.679 5.854.472 4.237.835 5.389 2.22 7.05 1.015 1.215 1.14 1.557.956 2.612-.116.668-.403 1.59-.636 2.05-1.342 2.643-2.155 4.111-2.559 4.616-.589.736-.946 1.387-2.624 4.787-.762 1.544-1.527 3.033-1.7 3.309-.173.276-.475.878-.672 1.338-.196.46-.871 1.611-1.499 2.557-1.047 1.578-3.16 5.788-3.16 6.296 0 .317-1.225 3.035-2.533 5.623-.63 1.247-1.146 2.544-1.146 2.882 0 .338-.301.998-.669 1.466-.368.468-.674 1.053-.68 1.3-.033 1.373-2.063 2.623-4.26 2.623-1.56 0-2 .166-3.564 1.347-1.471 1.111-1.821 1.574-1.991 2.642-.172 1.075-.428 1.409-1.506 1.972-.714.372-1.997.782-2.849.91-.853.128-1.624.351-1.714.497-.09.145-.454.188-.81.095-.676-.177-2.436.294-4.289 1.147-.888.409-1.184.423-1.603.075-.356-.296-.407-.533-.165-.775.44-.44.452-1.449.021-1.716-.18-.111-.938-.02-1.683.204-1.68.503-2.108.153-1.516-1.241.276-.65.974-1.312 1.883-1.786.794-.414 1.753-1.029 2.13-1.366 4.61-4.125 5.27-4.618 6.674-4.971.825-.208 1.826-.378 2.223-.378 1.456 0 7.213-4.627 8.907-7.157 1.435-2.145 4.505-8.72 5.01-10.74.093-.368.303-.97.466-1.338.803-1.804 2.323-6.399 2.323-7.02 0-.388.136-.848.303-1.023.941-.986 1.338-9.129.564-11.555-1.253-3.924-4.807-10.198-8.864-15.646-.461-.619-1.106-1.886-1.433-2.817-.328-.931-.937-2.056-1.353-2.501-.801-.855-.635-.852-4.437-.086-2.331.469-7.277 1.943-9.868 2.94-4.17 1.604-3.653 1.512-13.381 2.395-8.67.787-13.14 1-13.772.661-.349-.187-1.34-.294-2.201-.238-1.468.095-1.579.169-1.786 1.187-.121.597-.37 1.274-.552 1.505-.183.231-.415 1.248-.517 2.26-.102 1.012-.488 3.195-.857 4.851-.825 3.697-1.293 5.986-1.85 9.03-.56 3.063-1.147 5.529-1.942 8.157-.355 1.174-.572 2.327-.482 2.561.09.234-.044 1.316-.298 2.404-.254 1.088-.618 3.171-.81 4.631-.192 1.459-.649 4.685-1.015 7.169-.367 2.484-.669 5.251-.673 6.15-.003.899-.148 2.178-.321 2.843-.173.665-.486 1.896-.694 2.734-.442 1.775-1.209 2.383-3.337 2.642-1.264.154-1.531.315-1.681 1.019-.098.46-.656 1.84-1.241 3.067-1.132 2.378-2.315 3.424-5.556 4.916-1.944.895-5.688 1.342-6.07.724m36.809-177.92c.726-.521 1.847-1.146 2.491-1.39 1.339-.507 2.01-1.2 2.01-2.083 0-.933-1.684-3.274-2.355-3.274-1.106 0-4.67 4.902-4.67 6.423 0 1.569.671 1.655 2.527.324" fill="#da0000"/>
 <path id="outline" d="m91.07 250c-.113-.184-.705-.334-1.314-.334-.609 0-1.301-.233-1.538-.518-.366-.441-.165-.786 1.359-2.329.984-.996 1.694-1.905 1.578-2.02-.116-.116-1.331.409-2.702 1.165-3.125 1.725-6.178 2.738-6.982 2.316-.749-.393-.749-1.159 0-1.58.555-.312.555-.339-.006-.555-.325-.125-1.047-.038-1.604.193-1.406.582-1.842.096-1.323-1.476.326-.989 1.823-2.54 2.451-2.54.254 0 3.532-2.245 4.641-3.178.542-.456 1.194-.829 1.449-.829.809 0 2.888-2.095 4.307-4.34 1.864-2.949 2.189-3.778 2.195-5.608.003-.864.239-2.622.525-3.907.286-1.285.589-2.863.675-3.506.086-.643.306-2.214.49-3.492.184-1.278.398-4.283.476-6.677.078-2.395.363-5.406.634-6.691.734-3.484 1.246-9.119 1.289-14.19.035-4.04-.04-4.675-.719-6.118-.417-.886-.841-2.413-.942-3.394-.104-1-.527-2.343-.969-3.063-1.593-2.597-2.23-4.314-2.633-7.104-.508-3.514-.676-3.926-1.846-4.531-.512-.265-1.357-1.172-1.879-2.02-.522-.845-1.615-2.539-2.43-3.764-1.474-2.216-1.482-2.247-1.793-6.29-.26-3.38-.226-4.317.202-5.574.611-1.792.209-2.41-1.345-2.069-1.988.437-2.803-1.436-.934-2.147.464-.176 1.148-.813 1.52-1.414.562-.908.642-1.433.472-3.097-.165-1.609-.062-2.365.521-3.84.477-1.205.663-2.224.544-2.965-.183-1.132.356-2.623 1.365-3.775.669-.764.311-1.208-1.17-1.448-2.105-.341-2.8-.751-2.682-1.581.084-.592.385-.788 1.442-.941 3.903-.565 5.328-2.186 6.078-6.91.098-.615.461-1.247.831-1.445.361-.193 1.488-1.15 2.503-2.126 1.015-.976 2.656-2.171 3.646-2.655 1.937-.949 2.163-1.31 1.154-1.85-.836-.448-1.188-1.582-.68-2.194.288-.346 1.075-.468 2.815-.435 1.96.037 2.674-.099 3.786-.724.754-.424 1.451-.979 1.549-1.235.236-.614-.812-1.538-3.653-3.221l-2.337-1.384-4.01.031c-2.204.017-5.171.149-6.595.294-2.402.245-2.678.206-3.84-.538-.688-.441-1.665-1.012-2.17-1.269-.505-.257-.918-.713-.918-1.014 0-.301-.376-1.056-.835-1.678-1.479-2-1.037-4.987 1-6.756.829-.719 1.95-1.03 6.985-1.935 2.189-.394 4.786-1.072 5.772-1.508.986-.436 2.314-.89 2.952-1.01.638-.12 1.242-.351 1.342-.514.101-.163.531-.296.957-.296.426 0 1.335-.234 2.02-.52.685-.286 3.01-.808 5.167-1.16 4.482-.731 4.898-.855 5.161-1.541.242-.63-.242-1.553-1.81-3.456-2.139-2.594-2.743-6.203-1.691-10.1 1.014-3.759 1.301-4.616 1.716-5.115.212-.255.296-.697.187-.981-.116-.301.289-1.211.97-2.179.843-1.2 1.113-1.88.971-2.447-.135-.539-.032-.849.329-.987.289-.111.526-.423.526-.694 0-.636 1.282-1.532 2.193-1.532.39 0 .98.299 1.311.665.868.959.493 5.193-.794 8.982-1.615 4.752-1.832 7.753-.739 10.222.928 2.097 1.556 1.891 2.659-.874 1.175-2.947 2.306-4.5 5.381-7.39 1.418-1.333 2.904-3.062 3.302-3.843.398-.78.984-1.445 1.301-1.476.318-.031.803-.091 1.078-.131.275-.041.689-.09.918-.11.23-.02.417-.227.417-.462 0-.571 3.2-3.855 4.854-4.982 2.162-1.473 6.068-2.988 7.408-2.874 2.146.184 2.333 1.734.353 2.929-2.811 1.696-3.249 2.176-5.595 6.125-1.164 1.959-.553 4.732.871 3.946.343-.189 1.6-.739 2.794-1.221 3.983-1.609 3.851-1.49 3.751-3.39-.076-1.432.074-1.926 1-3.298 1.1-1.628 3.671-3.755 4.596-3.803.275-.014 1.129-.385 1.896-.824 2.444-1.398 6.711-1.979 7.938-1.082.444.325.554.685.399 1.306-.172.685-.669 1.031-2.47 1.724-2.345.901-5.606 3.494-5.353 4.255.074.223.777.619 1.562.88 1.264.421 1.758.41 4.319-.099 1.591-.316 4.244-.77 5.897-1.01 2.874-.413 4.305-.887 8.01-2.655 4.03-1.921 8.825-3.198 12.854-3.423 2.8-.156 3.265-.101 3.965.47.547.445.729.848.585 1.294-.204.632-2.477 2.149-3.219 2.149-.205 0-1.152.356-2.104.792-.952.435-3.01 1.207-4.569 1.714-2.915.948-3.901 1.528-3.553 2.092.109.177 1.235.655 2.502 1.062 2.493.802 3.301 1.656 2.937 3.104-.376 1.499-3.471 2.105-5.676 1.111-1.724-.777-5.309-1.53-7.25-1.523-1.95.007-5.595.596-8.826 1.426-1.102.283-2.679.619-3.506.747-2.786.431-6.28 1.412-8.572 2.405-1.253.543-2.955 1.219-3.781 1.503-4.275 1.468-7.331 2.878-10.02 4.622-1.01.656-2.535 1.526-3.388 1.933-1.712.816-3.29 2.133-3.29 2.746 0 .488 2.446.283 8.347-.7 3.782-.63 10.491-1.377 21.03-2.34 5.171-.473 5.111-.453 6.195-2.074 1.263-1.89 2.125-2.577 3.245-2.586.77-.006.961.166 1.133 1.023.113.567.406 1.107.65 1.201.811.311 4.249-.788 8.549-2.734 3.774-1.707 4.518-2.188 6.677-4.317 1.337-1.317 3.182-3.341 4.1-4.496 1.821-2.291 3.515-3.372 5.288-3.372 2.615 0 2.407 1.842-.634 5.627-2.214 2.755-2.71 4.195-1.591 4.625.703.27 4.749-.398 6.953-1.147.918-.312 2.759-1.136 4.091-1.831 2.553-1.332 4.385-1.612 5.079-.777.603.727-.808 3.02-2.478 4.03-3.043 1.835-5.137 2.622-9.363 3.519-.918.195-2.12.503-2.671.684-.551.181-2.354.411-4.01.511-1.831.11-3.527.418-4.34.786-3.168 1.435-4.125 1.824-6.153 2.499-1.18.393-2.291.945-2.468 1.225-.504.799.034 2.894.857 3.334 1.381.739 5.098.573 9.531-.426 4.324-.974 5.199-.986 5.549-.073.587 1.531-1.602 2.963-6.816 4.459-3.671 1.053-10.931 1.416-12.467.623-2.877-1.486-4.141-2.648-4.412-4.056-.179-.928-.811-1.295-1.818-1.056-.459.109-1.327.28-1.928.379-.663.109-1.517.638-2.17 1.342-.592.639-1.903 1.69-2.913 2.336-1.01.646-2.137 1.434-2.504 1.749-2.077 1.786-10.494 2.582-12.385 1.172-1.29-.962-1.752-1.767-1.208-2.107.298-.186.029-.449-.877-.857-1.068-.482-1.773-.546-3.857-.35-2.708.254-3.504.668-1.969 1.024 1.41.327 5.095 2.43 6.674 3.809 1.643 1.434 4.26 2.379 5.867 2.119 1.078-.175 2.246.452 2.246 1.205 0 .341-2.18 2.02-2.623 2.02-.182 0-.803.398-1.381.884-.578.486-1.603 1-2.279 1.151-.676.147-2.055.508-3.065.802-1.01.294-3.264.658-5.01.809-1.744.151-3.547.424-4.01.606-.459.182-1.135.261-1.502.175-.367-.085-1.118-.177-1.669-.204-.997-.049-1-.039-1.193 2.121-.209 2.369-1.183 5.676-1.672 5.676-.169 0-.307.217-.307.483 0 .266-.376 1.19-.835 2.053-.903 1.699-1.059 3.123-.448 4.102.539.863.164 1.604-1.225 2.424-1.268.748-1.939 1.778-2.325 3.567-.284 1.319-2.302 4.985-3.21 5.833-.353.329-1.021 1.349-1.486 2.265-.464.916-1.361 2.474-1.993 3.461-.632.988-1.242 2.378-1.356 3.09-.206 1.291-.202 1.297 1.582 2.2.984.498 1.925.905 2.092.905.167 0 1.251-.379 2.409-.843 1.777-.711 3.033-.901 8.04-1.218 6.921-.438 13.204-.398 15.731.1.982.194 3.611.401 5.843.46 2.232.06 5.668.346 7.636.635 2.351.346 4.527.456 6.344.321 1.521-.113 3.291-.201 3.934-.194.643.006 2.22.011 3.506.011 1.285 0 4.516.0001 7.178.003 5.655.004 8.886.359 12.353 1.357 9.04 2.603 9.03 2.598 10.684 4.189.968.93 2.141 1.65 3.295 2.024 1.845.597 3.174 1.705 5.412 4.51 1.876 2.352 2.622 4.541 3.104 9.107.493 4.667 1.157 6.394 2.833 7.369.991.576 1.262.603 2.3.228.956-.346 1.422-.344 2.486.007 2.193.724 2.353 1.859.506 3.587-1.56 1.459-8.241 1.679-12.09.398-2.249-.748-3.173-.715-3.173.115 0 .259-.453 1.879-1.01 3.6-1.728 5.371-1.439 7.577 1.836 13.992 1.497 2.933 4.089 7.116 4.957 8 1.142 1.165 1.224 2.862.859 17.713-.422 17.16-.407 14.854-.12 18.458.281 3.53-.05 4.386-2.02 5.231-1.322.567-1.684 1.048-3.01 4-.965 2.148-1.249 2.496-3.221 3.957-1.822 1.349-5.211 2.712-6.758 2.718-.354.0001-1.138.181-1.741.399-.836.302-1.279.304-1.86.009-.42-.213-1.364-.429-2.099-.48-1.098-.076-1.355-.226-1.442-.846-.129-.907 1.457-2.539 5.115-5.263.735-.547 1.54-1.188 1.79-1.425.25-.237 1.219-.818 2.154-1.292.935-.474 2.128-1.178 2.652-1.565 1.129-.835 2.359-3.42 2.106-4.427-.098-.391.028-2.497.281-4.678.785-6.786-.107-20.801-1.602-25.17-.566-1.652-2.177-4.692-4.219-7.962-.728-1.166-1.324-2.331-1.324-2.588 0-.257-.202-.467-.449-.467-.247 0-1.14-.939-1.984-2.087-.844-1.148-2.235-2.763-3.091-3.589-.856-.826-1.915-2.062-2.354-2.746-.439-.684-1.58-1.861-2.535-2.616-1.7-1.344-1.742-1.357-2.01-.632-.152.41-.131 1.205.045 1.781.175.572.561 3.294.857 6.05.655 6.097 1.163 8 2.535 9.496.967 1.055 1.039 1.289.874 2.838-.169 1.58-1.706 5.02-3.204 7.167-.332.476-1.313 2.293-2.18 4.04-.867 1.744-1.766 3.397-1.998 3.673-.232.275-.621 1.027-.865 1.669-.244.643-.619 1.394-.832 1.669-1.068 1.376-2.342 4.084-6.993 14.857-2.217 5.135-3.294 6.177-6.387 6.177-2.112 0-4.818 1.773-4.818 3.156 0 1.65-2.58 3.498-4.905 3.514-.586.004-1.166.17-1.288.368-.124.2-.59.269-1.046.154-.539-.135-1.442.086-2.614.641-3.279 1.551-4.937.865-2.942-1.218.492-.513.797-1.029.68-1.147-.118-.118-1.044.123-2.058.535-2.08.844-2.854.726-2.854-.435 0-.93 1.047-2.084 2.874-3.166.714-.423 2.351-1.749 3.636-2.947 2.745-2.558 3.444-2.962 5.676-3.278 2.01-.284 3.877-1.319 6.06-3.349.891-.83 1.715-1.509 1.831-1.509.917 0 5.446-8.224 6.974-12.663.352-1.023 1.033-2.912 1.512-4.197.479-1.285.997-3.01 1.151-3.84.154-.826.446-1.933.649-2.46.203-.527.511-2.698.684-4.825l.315-3.867-1.554-3.856c-1.689-4.193-3.698-7.709-6.778-11.869-1.301-1.756-2.212-3.414-2.66-4.841-1.052-3.347-.899-3.243-3.737-2.54-5.549 1.373-9.674 2.615-12.484 3.758-2.02.822-3.622 1.242-4.982 1.308-1.102.053-2.98.249-4.173.435-2.621.409-13.26 1.188-15.358 1.126-.826-.025-2.36-.142-3.408-.26-1.886-.212-1.908-.205-2.133.734-.125.522-.349 1.105-.498 1.297-.149.192-.372 1.394-.494 2.671-.122 1.277-.443 3.224-.712 4.326-.269 1.102-.683 2.98-.919 4.173-.237 1.194-.596 2.846-.798 3.673-.203.826-.519 2.329-.704 3.339-.639 3.496-1.413 6.836-1.715 7.401-.167.312-.304 1.066-.304 1.675 0 .609-.224 2.159-.498 3.444-.426 1.998-1.533 9.689-2.523 17.528-.771 6.101-1.539 7.542-3.947 7.399-1.486-.088-1.814.223-2.415 2.283-.86 2.951-1.982 4.401-4.538 5.861-3.13 1.788-7.367 2.758-7.948 1.818m7.652-3.875c.7-.269.673-1.01-.047-1.282-.542-.208-1.428.546-1.428 1.215 0 .319.732.353 1.475.067m101.77-1.014c1.482-.324 1.817-.995 1.027-2.054-.371-.496-.872-.903-1.115-.903-.243 0-.885.811-1.426 1.803l-.985 1.803.795-.225c.437-.124 1.205-.315 1.705-.424m-104.72-1.088c-.365-.59-1.188-.42-1.188.246 0 .337.104.716.231.843.341.341 1.222-.661.958-1.089m63.64-.292c.319-.319.258-.604-.28-1.325-1.192-1.598-2.859-1.431-4.04.405-.413.644-.751 1.265-.751 1.38 0 .378 4.652-.044 5.068-.46m-70.04-.576c.576-.436.583-.501.079-.694-.561-.215-1.549.361-1.549.904 0 .441.753.333 1.47-.209m4.611-1.533c.053-.149 1.222-.845 2.6-1.545 2.374-1.208 2.559-1.386 3.569-3.43.585-1.186 1-2.218.926-2.294-.23-.23-1.156.676-1.156 1.13 0 .233-.345.51-.767.616-.958.241-2.903 1.629-4.795 3.425-1.162 1.102-1.447 1.599-1.438 2.504.001 1.052.043 1.086.489.497.263-.347.521-.754.574-.903m7.162.34c.215-1.073 1.254-2.248 3.942-4.458 1.758-1.445 2.513-2.868 2.513-4.732 0-.673.152-2.143.338-3.266.294-1.774.784-5.207 2.034-14.228.165-1.194.513-2.921.772-3.84.843-2.988 1.536-6.321 1.533-7.376-.002-.568.227-1.77.509-2.671.281-.901.957-3.667 1.501-6.146.544-2.479 1.279-5.709 1.631-7.178 1.527-6.356 1.516-6.229.647-7.59-.462-.724-.976-1.166-1.246-1.072-.253.088-.666-.011-.918-.221-.373-.309-.458-.179-.458.695 0 .773-.292 1.348-1.037 2.044-1.324 1.237-1.933 1.225-2.186-.04-.111-.555-.312-1.077-.448-1.161-.135-.084-.173-.534-.084-1 .118-.617.606-1.061 1.787-1.626.894-.428 1.539-.864 1.433-.969-.105-.105.18-.434.633-.731.453-.297.91-.966 1.014-1.487.272-1.358 1.224-1.612 2.07-.551.375.471.934.856 1.242.856.917 0 2.852-1.945 3.254-3.272.689-2.275 2.434-5.409 3.01-5.409.722 0 3.709 2.331 3.474 2.711-.322.521-1.188.313-1.789-.43-.833-1.028-1.691-.606-1.691.831 0 1.429 1.402 3.095 2.266 2.693.314-.146 2.525-.275 4.912-.286 2.387-.011 4.535-.144 4.772-.294.257-.163.76-.059 1.24.255.445.291 1.171.53 1.614.53.443 0 1.01.242 1.251.537.379.457.348.609-.21 1.021-.397.293-.984.402-1.49.276-.459-.114-1.06-.186-1.335-.159-.275.027-2.905.098-5.843.157-4.927.099-5.44.053-6.608-.598-1.194-.665-1.317-.674-2.17-.159-1.274.769-1.319 1.708-.123 2.56.684.487 1.278.645 1.938.515.64-.126 1.609.109 2.955.716 1.929.87 5.857 1.909 6.141 1.624.076-.076-.417-.37-1.095-.653-1.548-.647-1.268-1.322.422-1.02 5 .894 5.059.897 5.627.329.432-.432.924-.505 2.313-.342 1.279.15 2.46.016 4.297-.488 2.023-.555 2.632-.613 3.03-.286.377.313.784.321 1.734.033 2.108-.638 6.182-1.656 7.585-1.895.735-.125 1.861-.448 2.504-.718 1.554-.652.917-1-2.22-1.224-1.313-.092-2.692-.331-3.066-.531-.808-.432-1.391-.47-1.391-.089 0 .151.563.414 1.252.584.753.186 1.252.509 1.252.81 0 .676-2.199.499-3.811-.308-1.788-.895-3.058-1.148-2.835-.565.327.853-.42.872-2.41.062-2.442-.993-2.341-1.788.129-1.015 1.323.414.392-1.238-.953-1.691-.874-.294-1.137-.57-1.137-1.188 0-.971.828-1 3.25-.131.986.356 1.802.466 2.17.294.638-.299 3.887-.484 8.519-.485 2.685 0 2.921-.054 2.921-.659 0-.375.225-.659.523-.659.629 0 1.875.627 2.257 1.135.197.263.245.259.167-.013-.147-.512-2.699-3.202-3.464-3.649-.91-.532-.941-1.032-.08-1.278.66-.189.49-.337-1.238-1.08-2.414-1.038-2.361-.992-1.872-1.582.34-.409.632-.406 2.134.027.957.276 2.385.787 3.172 1.136.976.432 1.826.572 2.671.44 1.123-.176 1.363-.066 2.559 1.167 1.488 1.534 1.852 1.665 1.852.668 0-1.167 1.059-.602 1.554.829.248.718.848 1.825 1.333 2.461.748.981.927 1.074 1.184.615.463-.827.761-.687 2.759 1.295 1.116 1.107 2.149 1.841 2.602 1.849.413.007 1.332.51 2.043 1.118l1.292 1.106-.736.686-.737.686.78.239c.66.202 2.582 1.447 4.563 2.954 3.767 2.867 14.343 15.945 15.596 19.286.231.617.871 2.248 1.422 3.626 1.951 4.879 2.93 13.616 2.593 23.13-.351 9.893-.885 11.943-3.777 14.478l-1.193 1.046.654 1.124c.433.744.949 1.159 1.525 1.227.803.095.992-.155 2.4-3.172 1.985-4.25 2.01-4.29 2.827-4.198 1.109.124 1.485-.972 1.05-3.068-.265-1.278-.278-3.539-.044-7.913.312-5.836.297-6.157-.317-6.814-.803-.859-.801-1.01.023-2.058.367-.467.668-1.222.668-1.677 0-.664-.132-.794-.668-.654-.367.096-.687.076-.71-.045-.149-.767-.269-1.855-.448-4.059-.112-1.377-.348-3.32-.524-4.318-.364-2.062-.417-4.39-.118-5.17.111-.29.466-.528.789-.528.46 0 .631.387.798 1.801.116.99.122 2.248.013 2.795-.122.612 0 1.364.318 1.955l.517.961-.025-1c-.014-.551.007-2.053.047-3.339.083-2.661-.228-3.666-1.812-5.871-.617-.859-1.365-1.992-1.662-2.519-.297-.527-.832-1.409-1.189-1.96-.904-1.397-2.67-5.175-2.67-5.714 0-.982-3.121-6.354-4.217-7.261-.636-.525-1.101-1.121-1.033-1.323.181-.542 2.605-.548 2.813-.007.293.765 1.102.504 1.102-.355 0-.442.442-1.789.983-2.994.54-1.205 1.142-3.05 1.336-4.102.194-1.051.502-2 .683-2.115.212-.131.186-.584-.073-1.27-.337-.893-.313-1.219.149-2 .38-.644.494-1.356.368-2.295-.112-.832-.038-1.452.189-1.592.205-.126.372-.956.372-1.844 0-1.081.156-1.674.471-1.795.349-.134.406-.468.22-1.288-.574-2.534-2.026-4.126-2.026-2.22 0 .471-.156.624-.501.492-.662-.254-.632.093.169 1.961.61 1.423.628 1.685.201 2.949-.586 1.732-1.13 1.76-1.795.092-.415-1.041-.437-1.424-.109-1.948.23-.368.317-1.064.2-1.598-.117-.534-.03-1.229.199-1.597.556-.89.157-1.742-.816-1.742-.442 0-.972-.202-1.177-.449-.205-.247-.957-.713-1.672-1.035-.714-.322-1.454-.925-1.642-1.34-.204-.448-.758-.837-1.365-.958-.719-.144-1.083-.447-1.227-1.025-.16-.639-.494-.869-1.51-1.041-1.2-.203-3.31-1.63-3.31-2.24 0-.498 2.088-.255 3.293.383.668.353 1.928.9 2.8 1.214.872.314 1.586.766 1.586 1.01 0 .239.939.904 2.087 1.478 1.148.574 2.491 1.523 2.986 2.108.885 1.046.908 1.053 1.424.396.511-.651.563-.626 2.046 1 1.851 2.031 2.368 2.971 2.837 5.155.311 1.448.264 1.963-.334 3.691-.76 2.197-.875 3.825-.364 5.17.286.753.5.858 1.567.773.985-.078 1.31.047 1.602.617.782 1.532 1.196 1.793 2.506 1.583.768-.123 1.343-.057 1.483.169.126.203.83.37 1.564.37 1.837 0 1.34-.553-.757-.842-1.433-.197-1.949-.474-3.108-1.666-1.615-1.662-2.111-3.071-2.54-7.224-.17-1.641-.535-3.421-.811-3.955-.276-.534-.502-1.251-.502-1.592 0-.342-.451-.955-1-1.362-.551-.407-1-.924-1.01-1.148-.001-.752-2.481-2.807-4.43-3.685-1.997-.899-4.883-3.119-4.902-3.771-.006-.204-.725-.455-1.597-.559-.872-.103-2.713-.563-4.09-1.022-3.106-1.034-6.28-1.287-17.528-1.395-4.774-.046-13.04-.336-18.363-.645-5.325-.309-10.584-.613-11.685-.677-1.102-.063-3.399-.197-5.105-.297-1.706-.1-3.974-.354-5.04-.564-1.555-.306-2.925-.272-6.915.169-2.736.303-5.73.763-6.652 1.022-.922.259-2.804.515-4.181.568-2.46.094-2.531.074-4.04-1.163-.955-.782-1.61-1.623-1.73-2.219-.434-2.169.549-4.749 2.866-7.528.505-.606.921-1.232.924-1.391.003-.159.888-1.614 1.966-3.231 1.078-1.618 2.372-4.07 2.875-5.449.892-2.445.905-2.584.522-5.572-.216-1.686-.423-3.361-.46-3.722-.04-.394.166-.705.517-.776.359-.073.584.084.584.407 0 .289.15.525.334.525.52 0 .397-1.128-.381-3.499-.711-2.164-.722-2.177-1.962-2.177-.702 0-1.429.219-1.663.501-.234.282-.962.501-1.664.501-3.03 0-4.234.379-5.874 1.842-.88.785-2.174 1.599-2.875 1.81-.702.21-1.518.752-1.813 1.203-.296.451-.691.821-.879.821-.188 0-2.01.771-4.052 1.712-3 1.385-3.886 1.961-4.628 3.01-.505.713-.918 1.517-.918 1.787 0 .87-1.039 3.117-1.528 3.305-.261.1-.475.388-.475.638 0 .251-.696 1.162-1.547 2.025-1.809 1.835-1.709 2.376.196 1.056 1.339-.928 2.352-.949 2.352-.049 0 .266-.751 1.034-1.669 1.708-1.738 1.276-2.309 2.609-.967 2.258.412-.108.821.008.99.282.203.328-.145.908-1.181 1.968-.808.826-2.01 2.468-2.675 3.649-.998 1.777-1.152 2.295-.89 3 .456 1.237.284 2.285-.713 4.35-.484 1-.796 1.904-.693 2 .103.1.663-.368 1.246-1.039 1.982-2.282 3.491-1.358 1.74 1.066-1.111 1.538-1.877 3.234-2.106 4.661l-.188 1.169.882-.809c.485-.445.882-.984.882-1.196 0-.213.513-.975 1.14-1.695.905-1.038 1.227-1.223 1.56-.899.327.318.333.598.028 1.268-.602 1.322-.477 1.514.588.902 1.021-.586 1.772-.356 1.084.332-.618.618-.463.989.252.606 1.019-.546 1.283.312.324 1.052-.442.341-1.18.942-1.639 1.335-1.258 1.076-.231 1.183 1.345.14 1.507-.997 1.66-1.035 1.66-.414 0 .25-.524.963-1.165 1.586-1.264 1.228-1.665 2.909-.588 2.465 2.03-.836 2.045-.794.515 1.468-.73 1.079-1.067 3.376-.496 3.376.148 0 .853-.901 1.566-2 .713-1.102 1.418-2 1.566-2 .148 0 .27-.52.27-1.156 0-1.362.671-2.082 3.328-3.569 2.33-1.304 2.248-1.206 1.489-1.77-.515-.382-.569-.599-.273-1.082.499-.814 1.592-.775 1.749.064.069.367.334.788.589.935.826.476.491 1.044-1.378 2.341-1.579 1.096-1.805 1.386-1.629 2.087.112.448.069.814-.097.814-.166 0-1.107.744-2.09 1.653-.984.909-1.991 1.731-2.239 1.826-.247.095-.45.556-.45 1.024 0 .76.099.828.918.632 1.465-.35 1.965-.701 3.27-2.293 1.154-1.408 1.822-1.671 1.822-.718 0 .69-3.239 4.098-4.32 4.546-.556.23-1.223.843-1.482 1.362-.523 1.049-.347 1.514.354.933.705-.585.787-.213.273 1.232-.508 1.428-.657 3.495-.25 3.489.138-.002.59-.528 1-1.169 1.264-1.952 2.292-1.387 1.281.704-.634 1.311-1.02 3.807-.588 3.807.185 0 .444-.488.575-1.085.131-.597.519-1.281.861-1.521.343-.24.623-.659.623-.932 0-.272.274-.902.609-1.4.335-.498 1.102-1.627 1.704-2.511.769-1.128 1.047-1.86.932-2.459-.109-.568.057-1.073.495-1.511.429-.429.593-.916.471-1.402-.105-.416.039-1.067.326-1.476.462-.659.461-.752-.009-.932-1.339-.514.327-2.218 3.222-3.296 2.462-.917 3.455-.089 1.78 1.485-.62.582-1.059.723-1.799.575-.698-.14-1.133-.025-1.517.399-.631.697-.693 1.27-.156 1.448.28.093.285.309.017.809-.201.375-.284.989-.186 1.365.098.376.016.785-.184.908-.2.123-.366.704-.37 1.29-.004.586-.301 1.441-.66 1.9-.359.459-.663 1.285-.674 1.836-.012.551-.303 1.527-.648 2.17-.619 1.155-.619 1.177.069 1.916.594.638.639.873.307 1.602-.214.47-.389 1.232-.389 1.695 0 .668.128.801.621.644 1-.318 1.511.586 1.076 1.907-.308.934-.238 1.493.437 3.477.442 1.3.981 2.694 1.196 3.097.244.457.443 3.085.527 6.97.074 3.43.158 6.612.186 7.07.029.459-.124 2.487-.338 4.507-.215 2.02-.385 5.475-.378 7.679.011 3.623-.799 12.12-1.658 17.4-.183 1.123-.332 2.72-.332 3.549 0 2.01-2.036 8.63-3.149 10.235-.933 1.347-3.241 3.372-3.843 3.372-.61 0-.384.667.231.68.321.006.96.227 1.419.489 1.256.718 1.665.604 1.892-.527m7.301-34.01c-.153-.248-.078-.54.179-.7.29-.179.451-1.026.467-2.457.025-2.243.518-3.331 1.201-2.649.6.6.0001 4.389-.85 5.378-.545.634-.801.744-.997.427m1.158-7.989c0-.688.891-1.598 1.231-1.258.29.29-.464 1.885-.89 1.885-.188 0-.341-.282-.341-.627m-1.654-18.619c-.894-1.515-.801-2.916.203-3.059.56-.08.796.142 1.066 1 .984 3.132.157 4.473-1.269 2.057m92.57-5.544c-.175-.23-.589-1.152-.921-2.051l-.604-1.633.781-.589c.681-.514.732-.697.398-1.43-.3-.659-.287-.92.064-1.211 1.071-.889 2 1.562 1.123 2.966-.305.489-.304.938.003 1.964.548 1.83.006 3.103-.844 1.984m1.063-9.397c-.662-1.585-.623-2.076.209-2.659.634-.444.664-.608.31-1.682-.216-.654-.298-1.343-.182-1.53.444-.718 1.155-.29 1.481.891.354 1.283.169 2.775-.345 2.775-.164 0-.298.667-.298 1.483 0 1.901-.544 2.235-1.176.722m-1.662-6.879c-.113-.184-.047-.334.147-.334.194 0 .354.15.354.334 0 .184-.066.334-.147.334-.081 0-.24-.15-.354-.334m-.322-1.452c-.432-.316-.555-.688-.409-1.243.143-.547-.003-1.016-.473-1.517l-.68-.724.717-.668.717-.668-.736-.515c-.861-.603-.666-1.56.317-1.56.359 0 1.126.399 1.705.886.78.656 1 1.067.851 1.586-.111.385-.277 1.509-.368 2.499-.232 2.514-.463 2.784-1.64 1.924m-91.66-7.668c0-.703.672-1.153 2.838-1.898 2.478-.852 2.925-1.217 2.49-2.03-.272-.508-.093-.881.963-2 .799-.849 1.528-1.332 1.899-1.26 1.013.196.919.845-.324 2.221-.654.724-1.189 1.636-1.189 2.026 0 1.448-2.095 2.762-5.092 3.194-1.263.182-1.586.131-1.586-.252m-11.785-21.14c-.741-.741.387-5.532 1.6-6.798.46-.48.836-1.06.836-1.288 0-.614 1.672-2.052 2.386-2.052.868 0 .784.356-.55 2.337-.643.955-1.169 1.912-1.169 2.128 0 .215-.454.942-1.01 1.616-.83 1.01-.993 1.48-.918 2.651.069 1.069-.038 1.453-.425 1.533-.284.059-.622.002-.751-.127m15.458-1.959c0-.275.15-.501.334-.501.184 0 .334.225.334.501 0 .275-.15.501-.334.501-.184 0-.334-.225-.334-.501m1.823-2.754c.126-.689.437-1.466.693-1.729.742-.761.963.329.36 1.773-.682 1.633-1.353 1.605-1.052-.044m2.982-4.898c-.3-.783.144-2.197.69-2.197.691 0 .853.433.565 1.509-.293 1.096-.959 1.461-1.255.688m-15.267-1.752c-.525-.525-.134-1.076 1.12-1.577 1.629-.652 1.996-.67 1.996-.098 0 .242-.584.767-1.297 1.169-1.436.807-1.5.825-1.819.507m17.695-.334c-.122-.122-.223-1.185-.223-2.36 0-2.02.042-2.132.741-2.031.667.096.732.273.65 1.776-.139 2.538-.481 3.303-1.169 2.615m-14.747-3.117c-.113-.183-.113-.482 0-.666.324-.525 2.922-1.617 3.404-1.432.76.292.47 1.076-.482 1.305-.505.121-1.323.424-1.817.673-.574.289-.974.332-1.105.12m1.717-3.235c-.531-.531-.085-.995 1.539-1.604.964-.361 1.866-.709 2-.774.138-.064.25.097.25.359 0 .382-1.236 1.166-3.376 2.14-.112.051-.3-.003-.417-.121m-17.896 129.59c.284-.342.772-.422 1.691-.275 1.233.197 1.363.126 2.879-1.559.873-.971 1.743-2.079 1.933-2.462.19-.383.681-.745 1.09-.804.409-.059.89-.381 1.07-.716.179-.335.747-.756 1.262-.935.926-.323.94-.371 1.369-4.626.239-2.365.634-5.05.878-5.969.244-.918.702-2.871 1.017-4.34.315-1.469.92-3.873 1.343-5.342.423-1.469 1.017-4.624 1.32-7.01.302-2.387.684-4.791.847-5.342.164-.551.337-1.978.385-3.172.075-1.866-.028-2.325-.737-3.278l-.825-1.107.786-.593c.986-.744.77-1.593-.865-3.403-.994-1.1-1.086-1.328-.611-1.51.308-.118.729-.044.937.164.208.208.654.378.991.378.82 0 .36-.861-1.44-2.697-.746-.761-1.298-1.627-1.243-1.95.087-.512-1.705-2.698-2.211-2.698-.309 0-.223 1.941.191 4.313.382 2.187.062 9.109-.751 16.22-.168 1.469-.455 4.173-.638 6.01-.183 1.836-.492 4.722-.687 6.412-.195 1.69-.424 3.84-.509 4.777-.085.937-.381 2.859-.658 4.272-.277 1.413-.638 3.695-.801 5.073-.164 1.378-.545 3.235-.848 4.127-.733 2.158-2.389 4.806-3.159 5.05-.341.108-1.18.642-1.864 1.185-.684.544-1.489.988-1.79.988-.606 0-3.035 1.881-3.035 2.35 0 .359 2.118-.85 2.683-1.531m65.76.85c0-.184-.159-.334-.354-.334-.194 0-.261.15-.147.334.113.184.273.334.354.334.081 0 .147-.15.147-.334m8.246-2.287c1.254-1.276 3.971-2.36 5.372-2.144 1.244.192 2.226-.476 2.54-1.729.244-.974 3.672-8.443 6.214-13.538 2.15-4.31 2.401-4.78 3.888-7.256 1.475-2.456 1.714-3.226 1.117-3.595-1.132-.7.47-3.586 1.905-3.43.555.06.972-.134 1.222-.568.208-.363.867-1.455 1.464-2.427.989-1.61 1.407-3.09.873-3.09-.309 0-1.95 1.778-2 2.17-.025.184-.062.522-.083.751-.067.728-1.374.49-1.374-.25 0-.367.166-.668.37-.668.222 0 .273-.234.127-.584-.133-.321-.302-1.066-.376-1.654-.104-.833.025-1.155.58-1.452.587-.314.882-.258 1.662.319.521.386 1.104.701 1.295.701.637 0 .358-1.426-.5-2.551-1.697-2.225-1.825-2.836-3.15-15.06-.005-.046-.326-.083-.713-.083-.482 0-.644.155-.515.491.104.27-.027.706-.289.969-.696.696-3.333-.092-3.333-.996 0-.517.25-.631 1.388-.631 2.846 0 1.973-.721-1.196-.987-2.01-.169-2.195-.269-1.903-1.03.178-.464.589-.513 2.796-.334 2.404.195 2.528.174 1.752-.294-1.602-.966-11.02-.532-11.02.508 0 .393 1.246 2.521 3.01 5.141 2.173 3.226 3.491 6.01 4.714 9.945.892 2.87 1.015 3.687.852 5.637-.105 1.254-.306 2.466-.446 2.693-.14.227-.211.92-.157 1.542.089 1.033-.288 2.594-1.746 7.227-.845 2.686-2.142 6.383-2.475 7.06-.295.596-1.411 3.03-2.201 4.796-1.13 2.529-3.292 5.466-5.829 7.918-1.573 1.521-2.91 2.765-2.971 2.765-.061 0-.671.354-1.357.787-.686.433-2.11 1.038-3.165 1.345-2.321.675-2.526 1.382-.499 1.716.78.129 1.644.363 1.92.52.83.474 1.258.351 2.237-.645m21.02-40.34c-.496-.496-.176-1.113.576-1.113.767 0 1.374.72.959 1.136-.269.269-1.258.254-1.535-.023m-.974-1.677c-.414-.108-.584-.488-.584-1.301 0-.632-.188-1.452-.417-1.822-.344-.555-.329-.73.083-.997.877-.566 1.485-.195 1.683 1.026.105.647.305 1.36.444 1.585.276.447-.031 1.762-.397 1.7-.125-.021-.491-.107-.812-.191m-1.92-5.94c0-.542 1.421-1.034 1.984-.686.81.501.341 1.18-.816 1.18-.809 0-1.169-.152-1.169-.494m-.334-1.854c-.433-.29-.414-.402.147-.83.817-.624 1.331-.626 1.844-.008.81.976-.783 1.646-1.991.838m-.895-2.758c-.325-.525.664-1.237 1.719-1.237 1.135 0 2.515 1.09 1.878 1.483-.466.288-3.39.088-3.597-.246m-77.11 45.922c.532-1.869 1.213-6.111 1.541-9.599.207-2.204.447-4.345.532-4.758.086-.413.013-.751-.161-.751-.174 0-.488.864-.698 1.92-.21 1.056-.514 2.446-.674 3.088-.161.643-.382 1.77-.492 2.504-.11.735-.273 1.711-.363 2.17-.41 2.097-.543 6.01-.205 6.01.195 0 .429-.263.521-.584m28.09-52.835c.115-.186-.135-.332-.565-.329-.62.004-.673.068-.27.329.621.401.587.401.835 0m7.679-.334c.12-.195-.219-.334-.815-.334-.562 0-1.021.15-1.021.334 0 .184.367.334.815.334.448 0 .908-.15 1.021-.334m-34.22-.645c0-.355-.301-.741-.668-.857-.367-.117-.823-.502-1.013-.857-.451-.842-.976-.833-.755.013.206.787 1.593 2.346 2.086 2.346.192 0 .35-.29.35-.645m16.563-.523c-.974-1.096-1.045-1.123-1.154-.436-.124.788.708 1.604 1.635 1.604.429 0 .318-.269-.481-1.168m59.39-.334c0-.398-3.698-.642-4.47-.295-.394.177-.226.306.63.482 1.599.329 3.84.219 3.84-.188m-79.29-.648c0-.265-.14-.568-.311-.673-.397-.245-.796.38-.524.82.307.497.835.404.835-.147m21.548-.832c-.121-.196-.38-.356-.575-.356-.221 0-.196.192.067.509.458.552.867.429.508-.153m-20.718-6.998c-.299-1.194-.815-.433-1.05 1.549-.146 1.233-.029 2.181.426 3.452l.628 1.752.098-2.977c.054-1.637.008-3.337-.102-3.776m-3.836 5.179c0-.296-1.351-.451-1.522-.175-.103.166.197.303.667.303.47 0 .854-.058.854-.128m-1.335-2.857c0-.394-.651-.815-.89-.576-.239.239.182.89.576.89.173 0 .314-.141.314-.314m69.779-1.31c0-.315-2.483-.728-4.137-.688l-1.038.025 1.169.45c1.321.509 4.01.651 4.01.212m9.348-.005c0-.427-.982-1.174-1.224-.931-.242.242.504 1.224.931 1.224.161 0 .293-.132.293-.293m-6.677-2.712c.39-.252.298-.325-.417-.329-.505-.003-.918.145-.918.329 0 .422.682.422 1.335 0m-3.172-2.337c-.113-.184-.423-.334-.687-.334-.265 0-.481.15-.481.334 0 .184.309.334.687.334.378 0 .595-.15.481-.334m-75.82-8.997c.224-1.045.19-1.618-.126-2.123-.377-.603-.336-.769.315-1.296.411-.333.58-.605.376-.605-.462 0-.492-1.221-.037-1.502.498-.308.403-.835-.15-.835-.266 0-.894.538-1.396 1.196-.987 1.295-1.115 2.978-.423 5.586.429 1.619 1.043 1.44 1.441-.422m2.491-.227c.22-.483.323-.955.229-1.049-.307-.307-1.189.657-1.189 1.3 0 .901.495.772.961-.251m31.878-45.45c.305-1.846.249-4.52-.107-5.082-.536-.847-.761-.112-.33 1.079.5 1.383.173 3.585-.533 3.585-.489 0-.677 1.033-.263 1.447.543.543 1.041.126 1.232-1.029m-15.214-3.743c2.165-1.145 2.251-1.233 1.766-1.817-.52-.626-1.377-.262-2.569 1.09-1.321 1.499-1.077 1.72.802.726m6.471-4.114c.941.106 1.614.029 1.755-.2.127-.205.936-.372 1.799-.372 1.208 0 1.665-.154 1.986-.668.229-.367.637-.668.906-.668.404 0 1.508-1.56 1.508-2.131 0-.089-.413-.209-.918-.267-.635-.073-.904-.286-.872-.69.026-.321-.167-.584-.428-.584-.738 0-.901-.892-.316-1.728.292-.417.531-1.025.531-1.351 0-.821 1.219-.766 1.669.074.258.482.703.669 1.598.673.715.003 1.806.349 2.576.815 2.061 1.25 4.077 2.184 4.713 2.184.317 0 .817-.218 1.112-.484.43-.389.81-.415 1.93-.13 1.227.311 1.502.27 2.281-.343.666-.524 1.037-.616 1.496-.37.336.18 1.071.327 1.634.327.857 0 1.024-.13 1.024-.799 0-.934.786-1.343 1.672-.869 1.061.568 1.348.416.991-.524-.447-1.175-.467-1.147.843-1.147 1.39 0 1.55-.561.25-.881-.505-.124-1.633-.865-2.507-1.646-.892-.798-2.675-1.872-4.067-2.452-3.072-1.279-6.414-1.4-10.04-.364-1.284.367-3.087.67-4.01.673-1.999.006-2.453.251-2.788 1.504-.355 1.328-.95 1.397-1.637.19-.38-.668-.848-1.028-1.336-1.029-.929-.003-1.02-1.01-.14-1.558.336-.21 1.651-.491 2.921-.625 1.271-.134 3.663-.676 5.315-1.205 3.43-1.097 8.301-2.127 11.612-2.455 1.988-.197 2.352-.343 2.984-1.198 1.038-1.404 2.04-1.277 3.263.412.552.762 1 1.67 1 2.02 0 1.297 1.383 2.158 3.858 2.399 4.056.395 7.635-1.228 11.75-5.33 2.446-2.438 2.954-3.973.668-2.02-3.549 3.039-7.821 5.215-10.238 5.215-1.133 0-2.561-.679-3.098-1.472-.68-1.01 2.516-2.026 5.268-1.682 1.751.219 1.78.208 4.289-1.681 2.371-1.784 3.266-2.869 1.942-2.354-.321.125-3.063.432-6.093.681-8.846.729-12.987 1.202-16.193 1.851-3.419.692-11.478.719-12.742.043-1.053-.563-2.116-2.47-2.116-3.795 0-2.348 1.826-6.937 4.051-10.181 1.436-2.094 1.165-2.123-.912-.095-2.145 2.094-4.808 5.923-4.808 6.912 0 .369-.225 1.31-.501 2.091-.626 1.775-.634 3.041-.028 4.491.289.691.4 1.669.287 2.514-.165 1.234-.339 1.455-1.617 2.056-.976.459-1.54.984-1.772 1.649-.63 1.806-2.846 1.055-3.28-1.11l-.201-1-3.038.186c-2.564.157-3.871.481-8.38 2.079-5.754 2.039-11.458 3.621-14.374 3.985-1.853.232-2.423.714-1.071.907.411.059.8.381.864.716.146.764-.847 1.895-1.663 1.895-.498 0-.616-.261-.616-1.358v-1.358l-1.02.726c-.825.587-1 .927-.918 1.773.16 1.646 1.214 1.97 5.03 1.544 2.247-.251 3.616-.247 4.777.014 1.374.308 1.687.284 2.01-.154.494-.676 1.617-.663 2.307.027.402.402.491.873.337 1.786l-.209 1.24 2.108.427c1.413.286 3.112 1.018 5.156 2.22 1.94 1.141 3.457 1.805 4.173 1.826.619.018 1.501.144 1.96.279.459.135 1.143.135 1.519 0 .377-.135 1.371-.168 2.21-.074m-7.335-6.983c-.22-.22-.401-.598-.401-.839 0-.241-.174-.717-.387-1.058-.488-.782-.116-1.845.556-1.587.274.105.498.076.498-.066 0-.539-.838-1.058-1.709-1.058-1.325 0-1.964-.326-1.964-1 0-.621.63-1 1.659-1 .332 0 1.606-.469 2.831-1.043 3.531-1.652 5.607-1.082 6.614 1.817.267.768.595 1.653.73 1.967.189.441.03.623-.703.802-.522.128-1.28.488-1.684.801-.549.425-1.158.529-2.4.409-1.597-.153-1.656-.129-1.466.598.317 1.211-1.293 2.143-2.176 1.259m4.224-5.525c.549.144.718.038.718-.449 0-.477-.238-.636-.95-.636-1.169 0-2.234 1.023-1.661 1.596.29.29.482.252.78-.157.248-.34.663-.471 1.113-.354m19.08 3.722c-1.292-.74-1.659-.812-2.621-.518-1.263.386-2.86-.034-2.64-.694.075-.224.575-.498 1.112-.61 1.181-.246 2.58-.957 4.709-2.394 1.802-1.216 3.352-1.384 4.948-.538.551.292 2.241 1.174 3.756 1.96 2.828 1.467 3.5 2.326 1.82 2.326-.514 0-1.094.159-1.289.354-.195.195-1.799.392-3.565.438-1.766.046-3.315.187-3.441.314-.423.423-1.276.228-2.79-.638m-23.03-7.141c-.414-.256-.399-.336.101-.528.697-.267 1.151.067.702.516-.19.19-.508.195-.803.012m16.14 14.853c-.106-.275-.322-.501-.48-.501-.158 0-.201.225-.096.501.106.275.322.501.48.501.158 0 .201-.225.096-.501m2.988-1.252c-.449-2.283-.679-2.77-1.538-3.252-.803-.451-.941-.442-1.479.096-.518.518-.53.633-.092.91.275.174.83.319 1.232.322.609.004.768.255.956 1.508.14.935.397 1.502.68 1.502.334 0 .398-.288.241-1.085m-33.24-2.386c3.765-.023 3.374-.624-.649-.999-3.179-.296-5-.152-5.948.468-.926.608.309 1.056 2.17.788.918-.132 2.91-.248 4.427-.257m88.64-13.398c.872-.11 1.586-.364 1.586-.564 0-.251-1.01-.302-3.261-.165-2.748.167-3.479.101-4.647-.422-1.641-.735-1.951-1.243-2.247-3.683-.294-2.428.063-2.847 3.144-3.69 2.278-.624 6.493-2.522 7.641-3.44.267-.213 2.064-.394 4.243-.427 2.903-.044 4.299-.229 6.01-.8 1.826-.608 2.125-.803 1.643-1.072-.551-.309-1.391-.261-4.682.266-1.074.172-1.515.072-2.254-.51-.737-.581-.877-.901-.707-1.618.281-1.189 2.01-4.378 2.88-5.316.383-.412.617-.829.52-.926-.388-.388-1.181.271-2.2 1.828-.59.901-2.088 2.546-3.328 3.655-3.835 3.428-7.149 5.128-14.378 7.374-3.349 1.04-5.406 2.26-5.406 3.205 0 .553 1.409.634 2.342.135.545-.292.72-.131 1.311 1.205.375.848.601 1.672.502 1.832-.287.464.429 1.531 1.574 2.346 1.58 1.125 4.904 1.395 9.713.789m-53.837-10.342c.175-.459.584-.846.91-.861.326-.014 1.269-.463 2.095-.996 2.01-1.3 2.692-1.618 8.49-3.99 4.289-1.754 5.02-1.966 5.276-1.516.207.37.555.459 1.193.306 1.06-.254 3.405-1.391 3.405-1.65 0-.099-.149-.088-.331.025-.182.113-.571.07-.864-.094-.486-.272-.484-.348.021-.853.305-.305 1.032-.561 1.616-.569.584-.008 1.595-.206 2.248-.439 1.372-.491 2.026-.376 1.764.308-.22.573.396.616 1.801.127.625-.218.995-.568.968-.918-.037-.49.472-.595 3.796-.786 2.112-.121 4.364-.384 5.01-.584 1.605-.501 5.831-.45 7.848.094.918.248 2.585.839 3.704 1.314 1.19.505 2.339.784 2.768.671.686-.179.698-.231.184-.798-.302-.334-1.021-.698-1.599-.811-.578-.112-1.473-.285-1.989-.384-.65-.124-1.106-.531-1.485-1.326-.523-1.096-.516-1.176.148-1.841.859-.859 4.081-2.217 11.429-4.819.348-.123.375-.266.101-.54-.826-.826-7.896 1.131-12.927 3.578-2.473 1.203-4.545 1.951-6.344 2.292-4.831.915-12.313 1.96-14.571 2.035-1.435.048-2.732.32-3.673.772-.8.384-2.581 1.056-3.959 1.494-1.377.438-3.041 1.165-3.698 1.615-.657.451-2.489 1.415-4.072 2.142-1.592.732-2.943 1.57-3.02 1.875-.08.304-1.102.997-2.271 1.542-1.169.544-2.427 1.329-2.794 1.745-.367.415-1.316 1.035-2.108 1.377-1.507.651-1.607 1.295-.201 1.295.571 0 .92-.256 1.141-.835m4.383-.722c.419-.508.387-.518-.376-.122-1.119.582-1.204.677-.597.677.284 0 .722-.25.974-.555m2.108-1.291c.356-.27.507-.485.334-.48-.173.006-.606.231-.962.501-.356.27-.507.485-.334.48.173-.006.606-.231.962-.501m-7.14-1.01c.632-.469 1.769-1.128 2.526-1.465.757-.337 1.473-.769 1.592-.962.119-.193-.229-1.052-.773-1.911l-.99-1.561-.885.955c-1.864 2.01-3.688 5.154-3.247 5.595.331.331.573.242 1.778-.651m-14.619-1.845c.593-3.403.682-5.085.255-4.821-.753.466-1.347 2.462-1.347 4.531 0 2.437.686 2.619 1.092.29m87.43.177l1.123-.518-1.307.172c-.719.095-1.462.328-1.653.518-.531.531.525.432 1.836-.172m-64.756-4.657c-.601-3.77-.525-4.238 1.077-6.62.843-1.254 1.533-2.343 1.533-2.421 0-.077-.235-.141-.522-.141-.595 0-4.152 3.6-4.152 4.203 0 .217-.224.826-.499 1.352-.58 1.113-.64 2.388-.17 3.626.29.762.496.863 1.586.773 1.039-.086 1.234-.217 1.146-.771m15.631-6.916c0-1.035.263-1.565 1.378-2.774 1.128-1.224 1.261-1.495.733-1.495-.937 0-3.559 1.756-4.414 2.957-1.023 1.437-.71 3.297.584 3.462 1.153.147 1.719-.56 1.719-2.15m-35.06-.596c0-.184-.159-.334-.354-.334-.194 0-.261.15-.147.334.113.184.273.334.354.334.081 0 .147-.15.147-.334" fill="#000"/>
</svg>
