<svg xmlns="http://www.w3.org/2000/svg" version="1.1" width="300" height="350">
 <path id="fill" d="m207.74 249.63c-.017-.138-.055-.705-.084-1.258-.048-.916-.159-1.01-1.222-1.01-1.663 0-1.697-.861-.09-2.313.715-.646 1.728-1.976 2.25-2.955 1.471-2.757 2.45-3.907 3.978-4.671 2.147-1.074 3.837-2.883 4.468-4.783.45-1.356.515-2.391.337-5.391-.237-3.999-.915-8.544-1.485-9.963-.195-.484-.459-1.994-.589-3.356-.129-1.362-.428-3.08-.665-3.818-.237-.738-.531-1.832-.655-2.43-.314-1.522-3.68-4.785-4.936-4.785-1.428 0-2.134 1.598-1.611 3.648.218.854.453 3.894.522 6.755.15 6.159.729 13.787 1.171 15.437.562 2.096.396 3.258-.601 4.181-.506.469-1.087.853-1.291.853-1.89 0-5.173 3.537-5.173 5.575 0 .584-.264 1.37-.587 1.747-.647.754-3.01 2.075-3.706 2.075-.244 0-1 .434-1.683.965-1.24.966-3.03 1.719-4.081 1.719-.31 0-.775-.487-1.041-1.091-.416-.945-.645-1.091-1.71-1.091-.677 0-1.338-.108-1.47-.239-.132-.132.574-1.038 1.568-2.01.994-.976 2.694-2.733 3.776-3.906 1.082-1.172 2.499-2.353 3.147-2.624 1.701-.711 2.968-1.726 3.986-3.195.846-1.221.892-1.497.894-5.393.004-6.04-.093-8.274-.439-10.147-.17-.923-.38-2.735-.465-4.03-.208-3.143-.731-6.319-1.18-7.158-.201-.376-.366-.922-.366-1.212 0-.291-.454-1.155-1.01-1.921-1.016-1.403-1.772-1.824-6.542-3.645-1.107-.423-2.391-1.028-2.852-1.346-.461-.317-2.908-1.577-5.437-2.8-3.386-1.637-4.828-2.524-5.468-3.364-.478-.627-1.26-1.238-1.737-1.358-.82-.206-.856-.303-.652-1.786.133-.968.016-2.471-.304-3.926-.286-1.297-.685-3.113-.887-4.04-.202-.923-.655-1.953-1.01-2.288-.477-.456-.587-.883-.436-1.687.263-1.404-.699-2.657-2.734-3.557-1.234-.546-2.349-.68-6.106-.736-6.626-.098-8.963.143-11.382 1.172-1.148.488-2.432.89-2.852.893-.421.003-1.445.242-2.275.533-2.385.834-6.453 1.25-12.08 1.235-6.116-.015-8.405-.258-10.235-1.085-4.745-2.144-5.316-2.17-5.474-.258-.058.695.12 1.714.395 2.264.465.931.453 1.025-.172 1.36-1.036.555-3.268.044-5.37-1.228-1.043-.631-2.063-1.148-2.266-1.148-.204 0-.934-.302-1.622-.671-.689-.369-1.6-.671-2.026-.671-.425 0-1.39-.315-2.144-.699-.754-.385-2.447-1.052-3.762-1.484-1.315-.432-3.763-1.389-5.44-2.127-1.677-.738-3.942-1.636-5.03-1.996-1.092-.36-3.03-1.126-4.297-1.704-1.271-.578-2.636-1.05-3.033-1.05-.397 0-1.314-.302-2.038-.671-.724-.369-1.717-.671-2.207-.671-1.316 0-2.659 1.193-2.659 2.361 0 2.064 3.776 10 6.112 12.853.883 1.077 1.606 2.165 1.606 2.418 0 .252.475 1.454 1.056 2.67 1.203 2.518 2.396 3.657 3.53 3.372.545-.137.86.005 1.128.504.418.781 5.834 3.5 6.344 3.185.57-.353 1.445 1.436 1.425 2.913-.023 1.644.385 2.274 1.472 2.274.997 0 1.282.473.775 1.285-.33.529-.274.82.324 1.659.917 1.287.908 1.418-.094 1.418-.451 0-.912.151-1.027.336-.114.185-.58.336-1.035.336-.574 0-.925.257-1.146.839-.175.461-.447.839-.604.839-.403 0-1.279-.953-2.314-2.517-2.348-3.55-2.915-4.244-3.863-4.734-.562-.29-1.805-1.156-2.763-1.924-2.248-1.801-4.902-3.682-5.606-3.973-.304-.126-1.252-1.684-2.106-3.463-1.177-2.452-1.693-3.208-2.132-3.124-.858.164-1.017 4.915-.207 6.152.505.771.522 1.125.148 3.216-.608 3.404-.313 4.435 1.877 6.538 1.014.974 2.286 1.868 2.827 1.987 1.052.231 2.731 2.102 3.854 4.294.36.703 1.221 1.966 1.913 2.805 1.802 2.186 1.737 2.582-.235 1.418-.658-.388-1.404-.626-1.657-.529-.253.097-.642.931-.863 1.853-.221.922-.672 1.92-1 2.218-.559.506-.67.463-1.645-.648-.575-.655-1.261-1.609-1.526-2.119-.264-.511-1.283-1.679-2.265-2.596-3.795-3.546-4.896-4.997-5.141-6.776-.252-1.832-.918-3.044-2.246-4.089-.841-.661-1.368-2.134-1.272-3.555.146-2.167-.099-20.05-.316-23.05-.215-2.986-.399-3.806-1.09-4.866-2.18-3.344-3.996-6.165-5.249-8.155-.755-1.2-1.685-2.499-2.066-2.888-.381-.389-.693-.814-.693-.945 0-.131-.378-.734-.839-1.339-1.445-1.895-.963-4.333 1.31-6.622 1.61-1.621 2.336-1.749 5.274-.929 1.362.38 3.218.826 4.125.99 2.305.419 10.652.362 11.18-.076.68-.564.492-2.646-.404-4.467-.928-1.886-1.063-3.942-.343-5.202.727-1.272.619-1.596-.839-2.517-1.682-1.062-1.772-1.846-.213-1.846 1.988 0 3.236-1.475 3.717-4.394.109-.663.645-1.796 1.191-2.517 1.217-1.609 1.241-1.984.172-2.684-.461-.302-.839-.834-.839-1.182 0-.496.247-.633 1.145-.633.885 0 1.609-.387 3.188-1.707 1.823-1.523 2.043-1.84 2.043-2.946 0-1.517.653-2.499 2.394-3.598.731-.462 1.409-1.097 1.506-1.412.607-1.974 1.186-2.733 2.636-3.457 2.104-1.051 2.343-1.392 1.887-2.7-.205-.588-.304-1.137-.219-1.221.084-.084 1.139.043 2.345.283l2.192.436 3.445-1.732c2.634-1.324 4.064-1.823 6.074-2.119 2.914-.428 3.415-.889 2.28-2.097-1.069-1.138-.868-1.29.654-.496 2.394 1.248 5.679 1.083 5.679-.284 0-.299-.568-1.086-1.263-1.75-.695-.664-1.611-1.697-2.036-2.297-.479-.676-1.059-1.091-1.525-1.091-.414 0-1.56-.689-2.547-1.532-2.658-2.269-5.313-3.497-8-3.701-3.847-.292-4.577-.644-5.767-2.784-.576-1.036-1.367-2.394-1.757-3.02-.64-1.025-.67-1.287-.309-2.685.542-2.097 2.085-3.527 3.531-3.274.577.101 1.578.276 2.224.39.646.113 2.156.442 3.356.73 1.679.403 4.578.546 12.584.62 9.671.09 12.693.33 14.221 1.133 1.132.594 3.875.753 4.54.263.588-.433.605-.604.208-2.115-.906-3.454-.969-4.302-.489-6.601.554-2.654 1.347-4.318 2.834-5.949.589-.646 1.442-1.654 1.896-2.24.454-.586 1.759-1.539 2.902-2.117 3.616-1.831 4.602-2.545 7.569-5.48 1.593-1.576 3.124-2.895 3.4-2.93 1.039-.133 1.295.042 1.514 1.038.184.839 0 1.348-1.027 2.839-.688.999-1.797 2.338-2.463 2.974-.666.636-1.56 1.621-1.986 2.187-.426.567-1.408 1.314-2.181 1.662-1.831.822-4.595 3.29-4.595 4.102 0 .35-.249 1.258-.553 2.02-.429 1.072-.485 1.734-.252 2.943.289 1.494.355 1.565 1.546 1.664.97.081 1.737-.194 3.478-1.244 2.434-1.468 5.57-2.757 8.668-3.564 2.65-.69 5.234-2.577 5.234-3.822 0-1.979 1.027-4.02 2.801-5.578 2.058-1.803 6.475-4.12 9.907-5.197 1.36-.427 2.892-1.129 3.404-1.56 1.08-.908 2.681-1.063 2.681-.258 0 .649-1.627 2.83-2.111 2.83-.194 0-.592.208-.883.462-.291.254-2.15 1.283-4.13 2.288-2.985 1.514-3.772 2.08-4.608 3.314-1.214 1.792-1.308 3.094-.274 3.818.855.599 2.133.688 2.452.171.148-.24.371-.225.699.047.614.509 4.719.164 6.401-.539.657-.274 1.471-.499 1.809-.499 1.368 0 2.444-.918 4.199-3.583 1.956-2.971 2.44-3.333 5.843-4.376 4.134-1.267 5.861-1.557 6.678-1.12.41.219.686.578.614.796-.217.656-2.683 2.205-3.892 2.444-2.464.488-4.339 3.3-2.763 4.143.918.491 11.568-.752 12.555-1.465.404-.292 1.511-1.047 2.459-1.677.949-.63 1.831-1.318 1.961-1.528.414-.67 3.873-2.067 5.274-2.13 2.676-.12 2.522 1.87-.282 3.643-.822.52-1.601 1.111-1.73 1.313-.129.203-.651.633-1.158.956-.609.387-.923.876-.923 1.436 0 .724.332.997 2.265 1.859 1.246.556 2.738 1.241 3.315 1.524 1.174.573 2.122.635 7.098.459 4.087-.145 4.518.077 3.466 1.78-.805 1.303-1.477 1.696-2.733 1.598-.468-.036-1.828.087-3.02.273-3.053.477-8.06-.244-11.565-1.666-1.477-.599-2.983-1.293-3.347-1.541-.898-.614-8.06-.59-12.258.04-5.272.792-7.747 1.189-10.631 1.703-1.51.269-3.01.489-3.334.489-.324 0-.901.283-1.282.629-.941.855-3.986 1.917-6.23 2.174-3.085.353-8.743 1.861-9.645 2.57-.467.367-1.044.668-1.282.668-.842 0-5.05 4.685-6.01 6.686-.916 1.916-.928 2.02-.476 3.868.398 1.629.631 1.985 1.639 2.505 2.455 1.267 4.408 2.042 5.141 2.042.418 0 2.038.365 3.599.81 2.955.844 8.246 1.535 11.828 1.544l2.084.006 3.195-3.278c6.81-6.986 12.59-11.242 14.462-10.648.999.317.754 1.033-.961 2.81-6.787 7.03-9.355 10.533-8.222 11.217.138.084 2.592.007 5.453-.17 2.861-.177 6.41-.38 7.886-.45 4.695-.225 4.662-.209 6.866-3.286 3.862-5.391 4.763-5.822 5.05-2.412.253 3.03.854 2.894 4.492-1 2.565-2.747 3.132-3.194 4.055-3.194.59 0 1.168.095 1.285.212.117.117-.439.985-1.234 1.93-1.412 1.677-3.564 5.58-3.564 6.462 0 .762 1.56 1.506 3.246 1.549 1.886.048 8.461-.389 9.111-.606.745-.248 1.737.5 1.737 1.309 0 1.704-2.273 3.061-5.705 3.407-3.851.387-5.994.228-11.242-.836-3.502-.71-4.268-.757-5.642-.346-2.375.711-2.971 1.118-4.393 3-1.56 2.065-4.804 4.57-6.627 5.116-1.736.52-3.596.109-3.971-.879-.165-.434-.433-.871-.597-.972-.163-.101-.498-.793-.744-1.538-.762-2.31-1.083-2.44-6.229-2.536-3.624-.067-4.607.001-4.747.376-.097.253-.364.461-.592.461-.228 0-.684.297-1.012.659-.328.363-1.295.904-2.149 1.204-.854.3-1.815.683-2.136.851-.32.168-1.34.306-2.265.306-1.466 0-1.682-.088-1.682-.679 0-.732-1.143-1.334-2.535-1.334-.582 0-1.051-.377-1.651-1.328-.461-.73-1.105-1.465-1.43-1.632-.912-.469-4.493-.733-5.152-.38-.731.391-1.13 2.07-.687 2.893.182.339.414.882.515 1.208.101.326.565.737 1.031.915.527.2.848.583.848 1.012 0 .38.264.782.587.895.605.212 3.104 2.45 3.104 2.78 0 .102-.472.394-1.049.65-1.898.84-10.06.001-12.71-1.292-3.675-1.805-5.656-2.88-6.605-3.585-1.338-.993-1.909-.997-2.683-.02-.336.425-.888.878-1.226 1.01-.47.179-.566.452-.409 1.168.165.751.006 1.125-.812 1.909-.56.536-1.017 1.236-1.017 1.556 0 .859-2.848 4.04-5.595 6.25-6.289 5.059-8.978 6.975-11.02 7.851-1.323.569-5.3 3.123-5.762 3.7-.694.869-1.215 2.871-.986 3.786.249.993 1.641 2.46 2.72 2.866.369.139 2.332.121 4.363-.04 4.809-.381 9.433-.371 10.906.022 5.255 1.404 16.22 3.781 19.464 4.22 1.015.137 2.534.52 3.376.85.841.33 2.276.702 3.188.826.912.124 2.541.52 3.621.88 1.079.36 2.665.746 3.524.858.859.112 1.823.338 2.144.502.32.164 1.226.432 2.01.596.787.164 2.564.598 3.948.965 1.384.367 4.103 1.01 6.04 1.431 1.938.42 3.903.949 4.367 1.175.464.226 1.823.602 3.02.834 2.485.483 7.04 2.051 8.09 2.784 1.043.731 5.658 5.29 7.01 6.926 2.272 2.748 4.526 5.224 6.898 7.575 3.02 2.995 4.236 3.416 8.482 2.935 3.455-.391 4.42-.119 4.42 1.248 0 .985-2.367 3.677-3.233 3.677-.258 0-.709.502-1 1.115-.716 1.501-1.632 2-3.462 1.902-.843-.048-2.061-.064-2.707-.037-5.141.217-5.192.212-6.298-.575-.597-.425-1.425-.725-1.84-.666-.691.098-.776.347-1.01 2.96-.138 1.569-.554 3.759-.924 4.866-.793 2.377-2.01 7.381-2.01 8.258 0 .803 1.172 2.901 2.297 4.111.821.883 4.566 3.572 4.975 3.572.097 0 .653.205 1.235.456 2.325 1 2.96 1.222 3.549 1.222.338 0 .802.227 1.032.503.23.277.815.506 1.3.509 1.465.009 1.827.465 1.901 2.398.127 3.306.554 7.806 1.047 11.02.708 4.614 1.019 6.747 1.604 10.989.464 3.364 1.091 6.163 2.202 9.817.386 1.27.135 4.27-.414 4.95-.187.231-.585.423-.885.428-2.05.032-7.761 5.717-7.761 7.726 0 .765-.184 1.024-.843 1.19-.464.116-.955.411-1.091.655-.254.455-1.462 1.391-4.088 3.169-1.457.987-2.336 1.265-2.398.759m-57.63-167.12c.754-.887 1.676-3.061 1.557-3.669-.244-1.239-1.143-1.266-2.574-.078-1.374 1.141-2.034 2.714-1.606 3.828.267.696 2.01.642 2.624-.081" fill="#e00000"/>
 <path id="outline" d="m206.75 249.24c-.125-.326.208-.946.884-1.643 1.453-1.499 1.055-2.024-.752-.991-1.73.989-2.144 1.013-2.422.14-.162-.51.185-1.116 1.399-2.446.888-.972 1.915-2.36 2.283-3.084 1.149-2.262 2.405-3.666 4.02-4.498 1.979-1.018 4.08-3.388 4.403-4.966.329-1.607.33-4.388.005-7.07-.557-4.586-.913-6.686-1.367-8.08-.259-.796-.563-2.434-.676-3.641-.189-2.01-1.112-5.248-1.936-6.788-.392-.733-2.276-2.451-3.68-3.355-.753-.485-1.071-.54-1.375-.236-.448.448-.444 1.19.043 9.562.193 3.311.441 7.825.551 10.03.11 2.207.337 4.464.504 5.02.313 1.034.438 2.336.376 3.914-.038.968-1.429 2.607-2.213 2.607-1.965 0-4.568 2.868-4.845 5.337-.143 1.279-.358 1.623-1.505 2.42-.736.511-1.94 1.108-2.675 1.327-.736.219-1.639.734-2.01 1.143-.747.831-3.937 1.977-4.694 1.687-.828-.318-.543-1.37.544-2.01.737-.435.93-.714.674-.97-.256-.256-.779-.15-1.822.371-1.715.857-2.204.897-3.081.256-.618-.452-.554-.566 1.359-2.425 1.104-1.073 2.854-2.878 3.888-4.01 1.232-1.35 2.53-2.368 3.765-2.953 1.258-.595 2.27-1.396 3.041-2.406l1.156-1.514-.118-6.402c-.223-12.09-1.472-19.711-3.633-22.17-1.01-1.15-3.259-2.456-4.23-2.456-.284 0-3.708-1.577-7.608-3.505-5.872-2.902-7.277-3.736-8.171-4.849-.594-.739-1.353-1.344-1.687-1.344-.741 0-1.202-1.531-.702-2.332.233-.374.244-1.05.032-2.04-.174-.814-.446-2.166-.604-3-.51-2.705-1.067-4.483-1.589-5.068-.336-.377-.435-.872-.289-1.453.129-.514.055-1.082-.177-1.362-.316-.381-.274-.571.203-.92.83-.607.206-.934-1.77-.926-1.237.005-1.835-.2-2.784-.955-1.046-.832-1.294-.903-1.839-.529-.406.278-2.463.513-5.782.658-4.4.193-5.46.35-7.265 1.072-1.163.465-2.682.928-3.376 1.029-.694.101-2.09.458-3.101.794-2.379.789-6.364 1.145-12.206 1.089-6.087-.058-8.15-.399-11.226-1.854-2.68-1.268-3.427-1.526-3.638-1.255-.258.332.344 3.074.84 3.832.459.701.453.83-.067 1.349-.908.908-3.332.394-7.08-1.498-1.785-.902-3.996-1.808-4.913-2.01-.917-.204-1.895-.563-2.174-.796-.279-.234-1.485-.706-2.681-1.049-1.196-.343-3.227-1.104-4.515-1.692-3.792-1.73-6.528-2.816-7.092-2.816-.526 0-2.516-.837-4.846-2.038-.68-.351-1.658-.638-2.174-.64-.515-.0001-1.388-.301-1.94-.667-1.093-.724-2.845-.87-3.868-.323-.907.486-.845 2.467.148 4.712 2.338 5.284 3.966 8.297 5.162 9.552.734.771 1.52 1.975 1.747 2.675.649 2 1.996 4.511 2.781 5.176.421.357 1.02.539 1.45.442.486-.11.889.058 1.199.5.457.652 4.064 2.668 4.788 2.676.201.002.635.302.964.665.329.364.735.576.903.473.695-.429 1.278.656 1.278 2.378 0 1.915.457 2.588 1.56 2.3.864-.226 1.263.65.704 1.545-.336.538-.274.776.382 1.475.753.801.779 1.87.047 1.87-.186 0-1.131-.601-2.101-1.336-.969-.735-1.913-1.288-2.097-1.228-.563.181-.576 1.843-.022 2.635.908 1.297.555 2.518-.599 2.075-.283-.109-1.501-1.665-2.707-3.459-1.295-1.926-2.56-3.429-3.089-3.67-.493-.225-1.358-.783-1.922-1.242-2.298-1.868-5.904-4.475-6.189-4.475-.838 0-3.62-5.535-3.846-7.65-.051-.482-.302-.877-.558-.877-.366 0-.463.711-.458 3.344.005 2.702.126 3.523.631 4.275.573.853.59 1.134.204 3.385-.33 1.928-.333 2.717-.017 3.676.371 1.124 2.881 3.881 3.799 4.171 2.098.664 3.613 2.313 5.572 6.06.24.46.866 1.33 1.391 1.935 1.713 1.972 1.072 2.965-.902 1.396-.697-.554-1.43-.953-1.628-.888-.198.066-.445.709-.549 1.43-.181 1.266-1.146 3.484-1.515 3.484-.671 0-1.59-.981-3.102-3.307-.955-1.47-2.02-2.762-2.356-2.87-.34-.108-1.523-1.214-2.628-2.457-1.667-1.876-2.103-2.628-2.562-4.421-.429-1.678-.861-2.475-1.931-3.566l-1.378-1.406-.08-11.302c-.044-6.216-.194-12.655-.332-14.308-.263-3.136-.668-4.059-3.819-8.699-2.508-3.694-3.352-5.056-3.352-5.409 0-.213-.451-.813-1-1.334-.552-.521-1-1.112-1-1.314 0-.202-.303-.642-.674-.977-1.779-1.61-1.244-4.455 1.345-7.155 1.943-2.026 2.475-2.097 6.258-.831 2.283.764 3.298.889 8.287 1.023 3.376.091 5.876.021 6.155-.17.397-.272.403-.577.038-1.943-.238-.891-.645-1.965-.906-2.387-.779-1.261-.938-3.849-.314-5.1.745-1.494.725-1.55-.815-2.336-1.053-.537-1.335-.858-1.254-1.428.082-.58.387-.773 1.442-.914.736-.098 1.527-.296 1.758-.439.618-.382 1.328-1.894 1.601-3.406.131-.729.741-2.034 1.355-2.9l1.116-1.574-.992-.706c-.546-.389-.992-.994-.992-1.346 0-.615.194-.704 2.508-1.161.368-.073 1.459-.862 2.425-1.755 1.542-1.426 1.756-1.783 1.761-2.94.006-1.605.091-1.734 2.088-3.149 1.161-.823 1.681-1.46 1.921-2.354.398-1.478 1.029-2.089 3.104-3.01.867-.383 1.576-.742 1.576-.797 0-.055-.244-.589-.542-1.186-.47-.943-.479-1.149-.063-1.565.416-.416.64-.412 1.702.031 1.934.808 2.855.634 6.573-1.241 3.239-1.633 3.69-1.768 6.27-1.878 1.529-.065 2.78-.229 2.78-.364 0-.136-.541-.738-1.201-1.339-1.66-1.51-1.061-1.933 1.229-.868.997.464 2.386.845 3.088.847 1.27.003 2.57-.468 2.57-.933 0-.134-.827-.889-1.837-1.679-1.01-.789-1.93-1.803-2.043-2.253-.13-.519-.444-.818-.86-.818-.842 0-1.848-.534-3.174-1.686-1.847-1.603-6.362-3.664-8.03-3.664-2.695 0-4.326-.611-5.271-1.975-.472-.681-.858-1.395-.858-1.586 0-.192-.295-.615-.656-.942-1.648-1.492-1.517-4.662.273-6.616.738-.806 1.089-.92 2.831-.92 1.899 0 3.33.263 5.912 1.085.736.234 5.084.399 11.705.443 10.407.07 11.429.161 14.977 1.34 1.645.547 3.03.604 3.742.154.431-.273.421-.581-.084-2.474-.911-3.418-.797-5 .646-9.01.577-1.603 4.426-6.287 5.687-6.921 3.581-1.8 7.161-4.363 9.143-6.545 1.196-1.316 2.5-2.489 2.9-2.607 1.311-.386 1.782.064 1.782 1.7 0 1.597-1.174 3.591-3.228 5.485-.524.483-1.373 1.423-1.887 2.091-.514.667-1.521 1.513-2.238 1.878-1.853.945-3.803 2.309-4.126 2.885-.152.271-.611 1.501-1.021 2.734-.609 1.833-.687 2.502-.429 3.664.213.956.492 1.42.854 1.416.857-.008 2.963-.821 3.617-1.396 1.272-1.119 4.157-2.337 8.854-3.738 3.435-1.025 4.795-2.082 5.091-3.955.702-4.449 4.894-8.01 12.295-10.45 1.595-.525 3.311-1.309 3.814-1.741 1.07-.919 3.151-1.102 3.151-.277 0 .754-1.613 3.171-2.272 3.404-.314.111-.797.393-1.073.626-.276.233-2.044 1.205-3.93 2.159-3.522 1.783-5.15 3.259-5.608 5.084-.177.704-.049.984.659 1.448.74.485 1.44.548 4.461.403 2.187-.105 4.087-.384 4.877-.716.712-.299 1.663-.544 2.112-.544 1.331 0 2.061-.59 3.179-2.571 1.76-3.118 3.081-4.241 6.122-5.203 4.62-1.462 6.42-1.733 7.374-1.108.451.295.82.671.82.834 0 .511-1.794 1.835-3.354 2.474-.822.337-1.856.789-2.298 1-1.133.55-2.177 2.055-1.91 2.753.243.634.466.625 8.252-.315 3.842-.464 3.883-.478 6.461-2.261 4.675-3.232 5.371-3.62 7.03-3.93 3.226-.601 4.178.884 1.978 3.084-.674.674-1.338 1.226-1.475 1.226-.536 0-3.653 2.72-3.653 3.188 0 .457 1.09 1.056 5.807 3.194 1.489.675 1.926.716 5.183.488 4.864-.341 5.133-.325 5.616.335.49.67.248 1.266-1.034 2.548-.798.798-1.181.889-4.708 1.109-2.111.132-4.78.138-5.93.013-2.418-.262-6.259-1.493-9.05-2.901-1.903-.96-2.022-.976-6.02-.815-2.243.091-5.357.398-6.92.683-1.563.285-4.197.68-5.852.877-1.655.197-3.488.504-4.072.682-.584.178-1.864.411-2.843.518-.979.107-1.93.379-2.114.605-.7.858-2.62 1.551-6.098 2.199-6.543 1.22-8.892 1.955-10.757 3.367-.945.715-1.829 1.301-1.963 1.301-.442 0-3.059 3.258-3.94 4.905-.682 1.275-.822 1.899-.664 2.954.11.736.254 1.789.318 2.341.071.604.288.963.545.902.235-.056 1.147.208 2.026.586 4.144 1.782 13.06 3.543 18.899 3.732 2.104.068 2.204.033 3.509-1.237.739-.719 1.649-1.798 2.02-2.399.373-.6 1.309-1.525 2.079-2.056.771-.53 1.848-1.403 2.394-1.939 2.567-2.52 6.455-5.341 8.403-6.097 1.179-.457 2.455-.037 2.455.808 0 .258-1.016 1.577-2.257 2.93-1.242 1.353-3.235 3.566-4.431 4.918-3.41 3.855-4.259 4.7-4.738 4.711-.315.007-.29.101.084.32.327.191 2.953.173 6.856-.046 3.479-.196 6.778-.345 7.329-.331.552.014 1.938-.136 3.079-.333 2.066-.356 2.085-.371 3.929-2.821 1.019-1.354 1.853-2.604 1.853-2.778 0-.6 2.099-2.081 2.805-1.98.576.082.713.347.745 1.438.021.736-.093 1.689-.253 2.118-.16.429-.208.917-.105 1.083.361.584 3.062-1.595 5-4.04 1.865-2.345 4.209-3.344 5.158-2.2.318.384.102.781-1.117 2.054-1.544 1.611-3.543 5.255-3.543 6.457 0 .398.304.765.752.909.917.294 4.403.253 8.444-.1 3.848-.336 4.466-.241 4.709.727.498 1.983-1.643 3.769-4.844 4.04-.845.072-2.478.229-3.628.349-1.398.146-2.246.089-2.56-.171-.258-.214-.823-.3-1.256-.192-.888.223-6.32-.646-7.293-1.166-.922-.493-2.54-.417-3 .142-.22.265-.872.529-1.448.585-.795.078-1.316.466-2.16 1.608-3.378 4.573-7.791 7.115-10.521 6.06-.613-.236-1.177-.927-1.756-2.151-.469-.991-.853-1.953-.853-2.137 0-.184-.296-.602-.658-.929-.554-.501-1.381-.606-5.244-.665l-4.586-.07-1.194 1.067c-1.379 1.232-2.033 1.604-4.067 2.313-1.567.546-4.651.709-4.651.247 0-.704 1.643-1.693 3.177-1.912 2.327-.333 3.165-.835 5.261-3.151 1-1.11 2.07-2.02 2.369-2.02.298 0 .471-.188.384-.418-.087-.23 1.084-1.788 2.602-3.462 1.519-1.674 3.049-3.405 3.4-3.846.351-.441 1.078-1.31 1.614-1.93 1.149-1.328.853-1.936-.634-1.305-1.354.574-7.504 6.927-10.172 10.508-1.596 2.143-3.986 4.131-4.964 4.131-1.127 0-2.034-.615-2.034-1.379 0-.612.141-.663 1.296-.468 1.142.193 1.38.112 2.01-.687 1.044-1.328.466-1.818-2.089-1.77-2.348.044-5.546-.546-11.75-2.169-5.381-1.408-6.578-1.922-8.195-3.523-1.639-1.622-2.02-3.578-1.194-6.19.579-1.842 2.545-4.188 4.249-5.071.484-.251.959-.663 1.056-.917.097-.254.985-.998 1.974-1.654 1.707-1.133 3.35-1.784 6.542-2.592 2.064-.522 1.742-1-.672-1-2.034 0-6.123 1.165-8.304 2.367-.475.262-1.565.844-2.423 1.295-.889.467-1.56 1.055-1.56 1.367 0 .991-1.771 2.98-2.508 2.817-.368-.082-.481-.062-.251.044.568.261.529.607-.251 2.222-.368.761-.669 1.637-.669 1.947 0 .309-.615 1.334-1.366 2.278-1.609 2.02-2.374 2.153-3.817.659-1.346-1.394-2.821-2.275-3.421-2.044-.27.104-.844.541-1.275.973-.46.46-.999.702-1.304.584-.745-.286-.644-.771.319-1.528.791-.622.869-1.544.09-1.063-.199.123-.527.0001-.729-.272-.202-.273-1.044-.738-1.872-1.035-.828-.297-2.167-.781-2.977-1.076-2.308-.842-7.676-1.558-8.474-1.131-.416.222-3.388.351-7.901.341-5.904-.013-7.87-.142-10.687-.701-1.899-.377-4.321-.686-5.382-.686-1.838 0-1.957.052-2.522 1.1-.995 1.848-.446 2.77 1.24 2.078.491-.202.585-.053.585.926 0 .967.157 1.223.92 1.502 2.238.818 3.703 1.136 4.747 1.03 1.271-.129 1.788.54.687.889-1.133.36-.663 1.295.84 1.672.734.184 1.488.435 1.676.557.187.123 1.114.517 2.059.876 2.391.909 4.888 2.593 6.124 4.131.575.715 1.778 1.671 2.674 2.126.896.454 1.724.979 1.84 1.166.116.187.53.341.92.341.39 0 1.179.513 1.753 1.14.796.869 1.423 1.197 2.641 1.379 1.139.171 1.493.342 1.237.599-.593.593-.407 1.473.353 1.672.392.102.916-.017 1.164-.266.249-.249.643-.541.876-.649.337-.157.339-.237.006-.392-.23-.107-.418-.645-.418-1.195 0-.775.131-.973.585-.879.322.067.564.38.538.696-.045.557.294.712 2.221 1.016.493.078.261.15-.565.177-1.603.052-1.965.405-1.433 1.398.305.57.568.656 1.437.473.585-.123 1.207-.359 1.381-.523.416-.392 1.187-.385 1.187.011 0 1.057-2.716 2.127-5.279 2.081-1.63-.03-1.625.427.008.772 1.43.302 2.471.343 4.091.162 1.321-.147 1.329-.141 1.561 1.19.255 1.462.052 2.843-.418 2.843-.164 0-.3-.489-.303-1.087-.008-1.771-.353-2.02-2.887-2.055-2.616-.04-5.454-.989-5.492-1.836-.013-.297-.509-.941-1.101-1.431-.983-.814-1.235-.871-2.902-.652-1.346.177-2.119.105-2.944-.272-1.014-.464-1.155-.462-1.511.025-.28.383-1.169.593-3.094.733-1.486.107-3.387.428-4.224.712-.838.284-1.74.434-2.01.332-.271-.104-1.109.337-1.904 1-.781.653-1.703 1.187-2.047 1.187-.512 0-2.78 1.057-3.285 1.531-.071.067.267.273.752.457.485.185.882.565.882.845 0 .561-.174.591-1.17.202-.368-.144-1.12-.143-1.672.002-.552.145-1.643.429-2.425.632-1.448.376-2.01 1.346-.78 1.346.834 0 1.699.337 1.699.662 0 .141-.64.357-1.421.481-1.527.242-3.929 1.693-3.929 2.373 0 .228.217.595.482.815.624.518.336 1.243-.59 1.483-.889.232-4.468 3.692-4.756 4.599-.114.36-.017.885.216 1.166.345.416.335.567-.056.815-.264.167-.668.306-.898.309-.23.003-.418.13-.418.283 0 .153-.729 1.018-1.62 1.923-1.511 1.535-1.635 1.791-1.844 3.819-.179 1.74-.123 2.248.282 2.545.692.508.635 1.041-.156 1.464-1.135.608-4.02 5.309-4.02 6.551 0 1.532.457 1.662 1.101.313.606-1.271 1.729-2.072 2.089-1.49.121.196.009.61-.249.921-1.66 1.994-1.634 5.745.054 7.811.781.956 1.407.518 1.532-1.072.103-1.314.661-1.958 1.216-1.403.299.299.287.708-.051 1.731-.835 2.531.612 4.703 2.126 3.189.699-.699.684-1-.084-1.737-.971-.926-1.177-2.02-.559-2.962.419-.639.444-.855.111-.955-1.671-.502-1.605-.379-1.014-1.883.667-1.697 3.149-4.329 4.083-4.329.926 0 .857.477-.168 1.148-.467.306-1.095 1.073-1.396 1.703-.507 1.063-.507 1.191.006 1.758.515.569.514.668-.017 1.425-.526.75-.607 2.077-.171 2.789.1.163.451-.061.78-.497.795-1.054 1.181-.594.626.745-.243.588-.431 1.796-.418 2.686.022 1.433-.057 1.619-.689 1.628-.854.013-2.022 1.488-1.747 2.206.174.455.25.454.707-.004.697-.697 1.49-.32 1.717.816.366 1.829 2.422 3.092 2.92 1.793.357-.93.231-1.195-1.183-2.487-1.607-1.469-1.622-2.549-.03-2.237.777.152.99.02 1.416-.879.754-1.591 1.164-.991 1.047 1.534-.111 2.399.234 2.904.857 1.254.619-1.641 1.106-1.199 1.106 1 0 2.17.697 3.344 1.987 3.344.878 0 1.131-.508 1.105-2.221-.016-1.068.231-1.821.945-2.874.532-.785.973-1.577.98-1.761.007-.184.308-.711.667-1.17.36-.46.657-1.32.661-1.911.016-2.315 3.21-4.662 7.03-5.165 5.02-.662 5.783-.71 5.56-.35-.121.196-1.077.463-2.124.594-1.047.131-2.361.517-2.921.858-.56.341-1.512.621-2.117.622-1.379.002-4.311 2.479-3.365 2.844.309.119 1.297-.166 2.246-.646 1.683-.853 2.733-1.089 2.707-.608-.008.138-.769.605-1.692 1.038-1.114.523-2.083 1.33-2.883 2.402-.663.888-1.519 1.694-1.903 1.791-.793.201-1.419 1.425-1.729 3.381-.42 2.648-.362 2.962.637 3.446.886.43.906.485.334.907-.488.36-.526.534-.191.873.23.233.418.89.418 1.461 0 .57.161 1.197.357 1.394.253.253.204.415-.167.558-.341.131-.725-.116-1.102-.708-.767-1.205-.907-1.289-3.436-2.06-2.685-.818-6.504-1.336-11.255-1.526-1.995-.08-4.455-.374-5.466-.653-1.012-.279-2.231-.51-2.709-.512-1.426-.007-3.039-.696-2.84-1.214.111-.29-.052-.462-.44-.462-.743 0-1.51-.837-1.211-1.321.118-.191-.17-.851-.64-1.467-.958-1.256-1.045-1.564-.437-1.548.686.018 1.922 1.221 1.934 1.882.016.932.664 1.574 2.41 2.386 2.168 1.01 4.936.926 4.936-.148 0-.601-1.085-1.042-1.262-.512-.253.758-.936.384-1.836-1-1.035-1.596-.943-2.069.195-1 .8.752 1.566.956 1.566.417 0-.17-.491-.96-1.09-1.756-.6-.796-1.35-1.852-1.667-2.347-.558-.871-.679-.9-3.706-.909-3.203-.009-8.441-.754-9.578-1.362-.349-.187-1.16-.34-1.8-.34-1.054 0-1.294.194-2.53 2.045-.751 1.125-1.365 2.395-1.365 2.822 0 .428.602 1.473 1.338 2.323.736.85 1.338 1.725 1.338 1.944 0 .219.527 1.14 1.17 2.045.644.905 1.17 1.788 1.17 1.962 0 .426 2.376 4.353 2.822 4.663.195.136.543.174.773.084.23-.09.641-.254.914-.365.389-.157.494.078.485 1.087-.006.708.147 3.62.34 6.471.193 2.851.409 9.192.479 14.09.123 8.535.158 8.937.835 9.615.389.389.707 1.012.707 1.383 0 .372.389 1.264.865 1.983.476.719.951 1.947 1.056 2.73.197 1.471 1.452 3.07 5.127 6.537.841.793 1.732 1.821 1.979 2.283.627 1.171 1.675 1.121 1.673-.079-.0001-.721-.406-1.232-1.871-2.363-1.028-.794-2.085-1.527-2.349-1.628-1.024-.393-1.206-1.409-.466-2.605l.701-1.135-1.541-1.541c-2.299-2.299-2.654-3.39-2.136-6.575.369-2.273.354-2.758-.117-3.869-.763-1.797-.935-4.01-.904-11.636.015-3.679.008-8.588-.016-10.909l-.043-4.22 1.947-.172c1.655-.146 2.348-.011 4.622.901 1.471.59 3.353 1.261 4.18 1.491.828.23 2.09.725 2.806 1.1.716.375 2.597 1.135 4.18 1.689 1.583.555 4.233 1.499 5.889 2.098 1.655.599 4.714 1.696 6.797 2.437 2.083.741 4.085 1.617 4.449 1.946.407.369 1.265.623 2.232.661.864.034 1.833.17 2.155.302.722.295.767-.312.117-1.558-.425-.814-.4-.946.3-1.554.42-.365 1.084-.766 1.474-.89.835-.265.614-.846-.322-.846-1.041 0-.833-1.566.354-2.675.552-.515 1-1.272 1-1.681 0-.648-.129-.718-1-.543-1.198.24-1.263.034-.251-.789.689-.56.802-.567 1.341-.082.504.453.708.465 1.421.084.458-.245.833-.664.833-.93 0-.267.451-.999 1-1.627.552-.628 1-1.363 1-1.633 0-.719 1.231-1.828 2.029-1.828.38 0 1.17.361 1.756.803 1.241.936 3.382 1.872 4.282 1.872.345 0 .628.165.628.366 0 .438-3.182.076-4.04-.46-1.287-.804-2.48 1.044-1.662 2.573.222.416.354 1.038.294 1.383-.07.397.115.674.505.754.339.069 1.182.693 1.875 1.385 1.331 1.331 2.795 1.838 3.783 1.309.41-.219 1.177-.135 2.463.27 1.773.559 1.89.559 2.293.008.394-.539.565-.544 2.366-.075 1.761.459 1.996.456 2.535-.031.485-.439.786-.47 1.65-.169 1.158.404 1.649.261 1.649-.479 0-.607.467-.601 2.278.03 1.86.648 5.206.725 6.943.159 1.259-.41 1.438-.388 2.358.292 1.199.886 3.971 1.162 3.971.395 0-.264-.489-.607-1.087-.762-1-.26-1.537-.931-.742-.931.748 0 4.448 1.401 4.904 1.857.611.611 1.44.628 1.44.028 0-.495-3.901-2.554-4.839-2.554-.871 0-4.153-1.01-4.357-1.337-.416-.673.658-.685 2.196-.023 1.867.803 4.02 1.048 4.219.48.074-.208-.249-.474-.717-.592-.469-.118-1.955-.738-3.304-1.378-1.348-.64-2.609-1.164-2.8-1.164-.629 0-1.24-.996-.851-1.386.342-.342 3.889 1.237 7.671 3.414 1.698.978 2.225.647 1-.629-1.029-1.075-1.113-1.399-.361-1.399.294 0 1.25.775 2.126 1.722.875.947 1.746 1.626 1.935 1.509.189-.117.412-.674.494-1.237.134-.912-.05-1.183-1.686-2.481-1.01-.801-2.264-1.542-2.787-1.647-.994-.199-1.355-1.21-.431-1.21 1.579 0 9.423 6.84 10.41 9.08.313.709.69 1.289.839 1.289.474 0 .292-1.195-.465-3.049-.75-1.838-1.415-2.648-3.246-3.951-.569-.405-1.035-.952-1.035-1.216 0-.717.357-.588 1.535.553 1.374 1.331 1.666.826.639-1.103-.745-1.399-.783-1.936-.139-1.936.138 0 .587.564.996 1.254.41.69 1.253 2.01 1.874 2.94.776 1.158 1.236 2.351 1.471 3.811.337 2.094 1.38 3.977 2.223 4.02.223.001.562.31.752.665.443.827.451 3.03.012 3.03-.184 0-.334-.289-.334-.641 0-.888-.344-1.699-.721-1.699-.614 0 .214 5.692 1.387 9.531.337 1.104.716 2.654.842 3.446.434 2.724 4.362 7.349 7.856 9.252 2.098 1.142 5.01 2.529 6.688 3.187 1.012.396 2.291.927 2.843 1.179 1.576.72 4.971 1.496 6.569 1.501 1.493.005 6.963 1.813 8.469 2.8.97.635 2.184 2.836 2.184 3.958 0 .423.376 1.955.836 3.404.46 1.449.838 2.952.841 3.34.003.388.226 1.34.496 2.115.952 2.731 1.919 10.409 1.764 14.01-.121 2.825-.276 3.594-.947 4.682-1.124 1.825-3.969 4.446-5.164 4.756-.73.19-1.3.753-2.09 2.067-1.38 2.294-1.403 2.819-.115 2.561.761-.152 1.079-.034 1.465.543.486.728.503.729 1.202.101 1.118-1 .92-1.635-.462-1.473-1.302.152-1.536-.319-.614-1.241.354-.354.872-.494 1.421-.384 1.205.24 2.02-.302 3.941-2.619 1.906-2.3 2.376-2.724 3.849-3.472.93-.472 1.716-1.421 2.483-2.996.12-.247-.105-1.752-.5-3.344-1.539-6.201-1.835-7.698-2.388-12.09-.483-3.839-1.346-7.692-1.722-7.692-.465 0-1.541-2.737-2-5.094-.226-1.153-.609-2.333-.85-2.624-.242-.29-.439-.935-.439-1.432 0-.497-.226-.99-.502-1.096-.938-.36-.506-.79.795-.79 1.316 0 2.287.68 1.889 1.323-.119.192.019.349.306.349.817 0 .615-1.261-.298-1.859-.45-.295-1.692-.756-2.759-1.023-1.067-.268-2.241-.619-2.609-.782-5.386-2.377-7.496-4.045-9.102-7.192-.727-1.425-.819-1.946-.652-3.679.107-1.11.642-3.332 1.188-4.936 1.152-3.383 1.861-7.547 1.559-9.155-.145-.772-.037-1.383.347-1.97.487-.743.503-1.044.129-2.381-.288-1.03-.685-1.647-1.212-1.888-.431-.196-.784-.462-.784-.591 0-.128-.842-.792-1.871-1.475-1.95-1.295-2.209-1.914-.506-1.208.544.225 1.284.316 1.644.202.503-.16.816.066 1.351.973.973 1.65 1.428 1.503 1.31-.423-.078-1.272-.374-1.96-1.432-3.33-.733-.95-1.488-1.733-1.677-1.741-.189-.008-1.407-.524-2.707-1.147-1.3-.623-2.818-1.232-3.373-1.354-1.494-.328-3.269-2.195-2.087-2.195.293 0 3.079 1.412 6.424 3.256 1.95 1.075 2.239.269.666-1.856-.835-1.128-.826-1.627.024-1.301.753.289 3.645 4.281 4.247 5.863.313.821.892 1.617 1.341 1.841.435.217 1.325 1.314 1.979 2.438 1.313 2.26 2.043 3.229 2.265 3.01.08-.08-.095-.514-.39-.964-.529-.807-.413-1.915.201-1.915.174 0 .53.489.791 1.087.701 1.603 1.497 2.439 3.072 3.226 3.2 1.598 3.26.277.093-2.056-2.973-2.191-4.796-4.046-5.696-5.797-.418-.812-.948-1.476-1.179-1.476-.231 0-1.449-1.294-2.706-2.877-3.524-4.432-4.809-5.601-7.85-7.136-1.539-.777-3.035-1.626-3.325-1.887-.29-.261-.685-.474-.877-.474-.192 0-1.517-.381-2.944-.847-1.427-.466-2.682-.76-2.789-.654-.106.106-.001.488.215.847.356.57.319.654-.293.654-.472 0-.825-.329-1.081-1.01-.277-.733-.703-1.098-1.559-1.336-1.512-.42-2.349-.419-2.349.003 0 .184-.376.334-.836.334-.46 0-.836-.128-.836-.284 0-.156-.586-.548-1.303-.871-.952-.429-1.68-.524-2.701-.351-1.18.199-1.522.12-2.194-.511-.61-.573-1.035-.699-1.821-.542-.586.117-1.663-.011-2.511-.299-.84-.285-1.866-.409-2.361-.284-.707.178-1.06.018-1.832-.827-.667-.73-1.261-1.047-1.965-1.047-.942 0-6.608-1.28-8.922-2.02-.567-.18-2.408-.532-4.091-.783-1.683-.25-3.251-.605-3.484-.789-.512-.403-2.105-.866-3.317-.963-1.541-.123-4.764-.861-5.633-1.288-.864-.425-5.757-1.199-7.524-1.189-.552.003-3.721.098-7.04.212-7.451.255-7.105.455-7.05-4.071l.042-3.23 1.867-1.738c1.027-.956 2.725-2.157 3.773-2.67 3.427-1.676 8.465-5.218 10.731-7.543 1.087-1.115 1.548-1.356 2.592-1.356.698 0 1.27-.15 1.27-.334 0-.184-.272-.334-.605-.334-1.229 0-1.681-.729-1.45-2.341.272-1.897 1.069-2.031 1.49-.251.33 1.394.808 1.548 2.127.684 1.468-.962 2.042-3.454 1.312-5.7-.18-.556-.112-.752.26-.752.277 0 .582.125.677.279.095.153.593.219 1.107.146.514-.073 1.195.065 1.514.307.493.374.517.562.165 1.261-.228.452-.79.911-1.248 1.02-.67.159-.813.374-.727 1.091.146 1.229-1.111 2.74-4.955 5.957-1.747 1.462-3.618 3.07-4.158 3.573-1.297 1.209-3.122 2.377-9.689 6.202-3.171 1.847-4.208 3.03-4.211 4.783-.0001 1.206.988 2.607 2.333 3.302.779.403 1.58.427 4.736.142 5.338-.483 8.928-.431 11.384.163 8.375 2.026 12.202 2.898 14.82 3.375 1.655.302 3.913.758 5.02 1.014 1.104.256 3.06.706 4.347 1 1.288.294 2.943.688 3.679.877.736.188 2.241.565 3.344.837 4.435 1.093 6.136 1.538 8.695 2.274 1.471.423 4.03 1.03 5.685 1.348 1.655.318 3.612.804 4.347 1.079.736.275 2.188.694 3.227.931 3.889.885 8.474 2.643 9.492 3.639.213.209 1.403 1.282 2.644 2.386 1.241 1.104 2.935 2.909 3.764 4.01 1.616 2.152 4.732 5.585 5.502 6.06.258.16.971.936 1.584 1.723 1.83 2.351 2.558 2.593 7.531 2.499 4.666-.088 5.225.078 5.202 1.545-.019 1.248-2.432 3.849-3.604 3.886-.528.016-.861.199-.81.443.149.712-.881 2.343-1.629 2.581-.392.125-1.83.122-3.194-.006-1.78-.167-2.622-.115-2.981.182-.398.33-.887.328-2.401-.011-1.046-.234-2.236-.645-2.644-.912-1.142-.748-2.299-.454-2.23.568.094 1.383-.547 5.02-1.388 7.859-.435 1.471-.978 3.676-1.206 4.899-.519 2.785-.189 3.71 2.179 6.106 2.254 2.28 8.249 5.218 11.8 5.783 1.537.244 1.853.814 1.964 3.538.163 4.02.499 7.605 1.01 10.775.266 1.655.716 4.966 1 7.357.284 2.391 1.05 6.379 1.701 8.862.652 2.483 1.195 5.192 1.208 6.02.031 1.943-.699 3.457-1.773 3.676-2.582.527-7.138 5.178-7.411 7.566-.074.644-.329 1-.779 1.084-.368.069-1.144.613-1.725 1.209-1.426 1.463-5.05 3.855-5.848 3.855-.353 0-.732-.236-.842-.524m-11.483-6.165c0-.184-.367-.334-.816-.334-.449 0-.909.15-1.023.334-.121.195.219.334.816.334.563 0 1.023-.15 1.023-.334m2.358-2.517c1.182-.611 1.242-1 .234-1.535-.782-.412-1.24-.93-1.249-1.414-.003-.155.733-.181 1.636-.057 1.479.203 1.663.156 1.866-.482.371-1.17 3.595-4.222 5.454-5.164 1.931-.979 1.978-1.12 1.408-4.237-.183-.999-.396-2.854-.474-4.121-.083-1.344-.397-2.782-.754-3.449-.582-1.087-.583-1.161-.027-1.474.943-.531.685-1.199-.879-2.275-1.243-.855-1.88-1.61-1.88-2.229 0-.437.997-.022 1.672.696 1.354 1.441 1.534 1.121 1.471-2.623-.085-5.141-.117-5.215-2.728-6.488-3.464-1.688-3.759-.452-.447 1.871 2.158 1.514 2.876 2.247 2.456 2.506-.156.096-.942-.346-1.746-.982-1.577-1.248-2.126-1.306-2.283-.242-.072.485.181.795.887 1.088.543.225 1.341.79 1.773 1.256l.785.847-1.421-.235-1.421-.235.007 1.785c.004.982.22 4.494.481 7.805.62 7.881.295 9.56-2.415 12.457-.559.598-1.295 1.088-1.635 1.089-.722.002-5.967 4.09-6.274 4.89-.176.457-.037.51.868.329.592-.118 1.419-.537 1.837-.929.676-.635.783-.653.972-.162.116.303.12.791.008 1.084-.445 1.159.301 1.416 1.821.63m-111.95-35.15c.203-.203-.313-1.451-.743-1.795-.115-.092-.472-.581-.794-1.087-.622-.978-1.806-1.222-2.509-.518-.699.699-.45 1.096 1.485 2.37 1.951 1.285 2.205 1.387 2.561 1.031m119.63-1.3c.345-.416.313-.628-.178-1.17-.575-.635-2.168-.936-2.168-.409 0 .14.301.442.669.672.368.23.669.642.669.916 0 .642.471.638 1.01-.009m13.261-1.34c-.146-1.697-.434-2.209-.762-1.354-.121.315-.049.742.159.951.208.208.379.725.379 1.148 0 .423.08.769.177.769.097 0 .118-.681.047-1.514m-16.746-.644c.425-.425.403-.53-.169-.836-.723-.387-2.142-.468-2.468-.142-.264.264 1.118 1.437 1.71 1.452.243.006.66-.207.928-.475m-107.03-5.812c-.116-.365-.43-.748-.699-.851-.713-.274-.628 1.018.094 1.422.729.408.873.272.606-.571m2.49-1.545c0-.775-.717-2.136-1.229-2.333-.568-.218-1.781.485-1.781 1.032 0 .216.564.687 1.254 1.046 1.585.825 1.756.85 1.756.254m-4.325-2.536c.356-.19.647-.597.647-.903 0-.433-.089-.468-.401-.155-.221.221-.739.401-1.151.401-.782 0-1.259.422-.891.789.315.315 1.063.26 1.796-.132m-1.36-1.493c.545-.657-.026-1.384-1.308-1.666-1.313-.288-3.485-2.43-4.504-4.441-.517-1.021-1.24-1.891-1.791-2.157-.827-.399-.913-.596-.812-1.86.089-1.123.002-1.414-.426-1.414-.296 0-.718.414-.938.92-.394.906-.401.897-.504-.585-.144-2.075-.337-2.555-.83-2.062-.624.624-1.012.453-.826-.362.094-.414.062-1.042-.072-1.395-.231-.608-.273-.6-.804.158-.712 1.017-.704 1.232.108 2.825.368.722.669 1.569.669 1.883 0 .314.22.997.488 1.518.269.521.869 1.8 1.335 2.843.466 1.043 1.262 2.212 1.769 2.597.507.385 1.33 1.066 1.829 1.514.499.447 1.477.902 2.174 1.011.697.109 1.643.404 2.103.656 1.123.616 1.84.621 2.341.018m88.74-.097c.09-.145-.278-.92-.816-1.722-.539-.802-.997-1.699-1.018-1.993-.021-.294-.059-.685-.084-.869-.09-.667-1.933-2.174-2.652-2.169-.712.005-.709.019.092.425.608.308.931.864 1.208 2.085.606 2.667 2.624 5.288 3.27 4.244m-4.548-2.683c.074-.222-.175-.397-.564-.397-.695 0-.903.351-.467.787.31.31.868.099 1.031-.39m1.295-7.336c-.091-.322-.255-1.039-.366-1.594-.205-1.024-1.941-3.172-2.565-3.172-.188 0-.105.236.184.526.289.289.526.7.526.914 0 .582 1.797 3.909 2.113 3.91.15 0 .199-.263.109-.584m-39.1-7.363c1.516-.094 2.56-.326 2.807-.623.539-.65.355-.757-1.91-1.116-1.722-.273-1.575-.29 1.158-.133 2.421.139 3.099.084 2.991-.24-.222-.666-2.564-1.34-5.285-1.521-2.383-.159-2.475-.139-1.839.396.643.541.615.555-.71.36-.758-.112-2.883-.807-4.72-1.544-1.838-.737-3.578-1.34-3.868-1.34-.29 0-.611-.136-.714-.303-.103-.167-.471-.229-.818-.138-.347.091-.732.0001-.855-.199-.137-.221.077-.366.547-.369.425-.003.998-.15 1.274-.328.403-.259.286-.405-.602-.743-.909-.347-1.07-.554-.913-1.177.232-.925-.19-.976-.968-.116-.463.511-.505.782-.207 1.338.303.565.276.697-.141.697-.282 0-.509.113-.503.251.015.351 1.347 1.278 2.247 1.563 1.042.33.943.856-.167.888-.506.015-.732.102-.502.195.662.267.486.782-.267.782-1 0-2.659-.942-2.659-1.513 0-.271.15-.493.334-.493.511 0 .398-.869-.175-1.344-.28-.233-.619-.306-.752-.162-.133.143-.055.328.175.41.579.207.527 1.097-.064 1.097-.629 0-.908.478-.658 1.129.323.841 3.67 2.884 4.725 2.884.53 0 1.149.186 1.377.414.228.228 1.574.522 2.993.655 1.419.133 3.181.38 3.917.55.736.17 1.563.227 1.839.128.276-.1 1.588-.249 2.915-.331m-59.1-.983c0-.79-.825-.287-.952.581-.101.693-.048.738.418.351.294-.244.534-.663.534-.932m97.17-.684c.356-.485.339-.686-.099-1.17-.738-.818-1.428-.729-1.428.184 0 .679.539 1.572.95 1.572.081 0 .34-.263.576-.585m-4.083-.375c.575-.226.551-.328-.329-1.398-1.087-1.322-1.631-1.726-2.783-2.062-1.153-.337-1.222-.104-.309 1.041.437.548 1.064 1.382 1.395 1.853.621.886.967.982 2.026.566m-22.385-.742c.181-.167.113-.348-.167-.443-1.437-.485-3.279-.862-4.22-.863-.589-.0001-1.465-.181-1.947-.401-.71-.324-.931-.31-1.167.072-.484.784.316 1.329 1.969 1.341.851.006 1.841.233 2.2.504.668.505 2.696.377 3.333-.21m70.61-.002c.125-.202.018-.575-.237-.83-.593-.593-2.959-.025-2.959.711 0 .59 2.84.696 3.197.119m-65.4-1.473c-.187-.373-6.354-.476-6.354-.106 0 .306 2.01.518 4.515.475 1.216-.021 1.941-.166 1.839-.369m-31.27-.502c-.114-.184-.432-.334-.708-.334-.276 0-.409.15-.295.334.114.184.432.334.708.334.276 0 .409-.15.295-.334m87.45-.863c0-.291-.507-1.156-1.127-1.923-.62-.767-1.381-1.845-1.691-2.397l-.563-1 .22 1.17c.597 3.177.783 3.746 1.363 4.186.842.637 1.798.62 1.798-.033m2.878 0c-.112-.291-.203-.592-.203-.669 0-.077-.226-.14-.502-.14-.605 0-.647.39-.1.936.571.571 1.044.496.805-.128m-45.874-.772c.239-.386-1.4-1.464-1.826-1.201-.525.325-.377.703.427 1.091.956.461 1.171.478 1.399.11m54.29-.527c1.429-.521 1.986-1.074 1.536-1.524-.233-.233-.537-.127-.955.334-.413.456-1.032.677-1.898.677-.849 0-1.286.152-1.286.446 0 .662.4.941.986.69.286-.123 1.013-.403 1.617-.623m-58.785-.178c0-.184-.15-.334-.334-.334-.184 0-.334.15-.334.334 0 .184.15.334.334.334.184 0 .334-.15.334-.334m7.02-.254c0-.324-.301-.776-.669-1.01-.754-.471-.881-.096-.323.948.432.808.991.841.991.058m-45.815-5.108c0-1.314-.438-1.258-.936.119-.543 1.501-.511 1.647.267 1.23.438-.234.669-.7.669-1.349m-23.409-3.703c0-.382-.907-.391-1.142-.011-.098.158-.092.374.013.479.261.261 1.129-.099 1.129-.468m-12.09-2.343c-.605-.383-2.291-.376-2.291.001 0 .438.625.587 1.759.421.703-.103.855-.226.532-.431m8.41.038c0-.184-.15-.334-.334-.334-.184 0-.334.15-.334.334 0 .184.15.334.334.334.184 0 .334-.15.334-.334m-8.513-2.026c.085-1.034-.399-1.987-1.01-1.987-.781 0-.892.575-.358 1.854.559 1.339 1.263 1.407 1.368.133m-2.523.132c0-.713-1.468-3.222-2.471-4.226-.426-.426-.851-.991-.945-1.257-.094-.265-.299-.363-.456-.216-.157.147-.099.523.128.836.227.313.598.945.826 1.405.899 1.819 2.329 4.01 2.616 4.01.166 0 .303-.25.303-.556m-.334-4.293c0-.276-.15-.502-.334-.502-.184 0-.334.226-.334.502 0 .276.15.502.334.502.184 0 .334-.226.334-.502m114.64-48.624c1.768-.892 6.086-4.571 6.086-5.185 0-.145.602-.948 1.338-1.784.736-.836 1.343-1.687 1.349-1.891.016-.522 1.193-1.876 1.631-1.876.508 0 .454.753-.133 1.885l-.497.958 2.253.381c1.239.21 3.683.631 5.43.936 4.279.747 11.12.588 12.457-.289.506-.331.92-.886.92-1.233 0-.729-.103-.747-1.674-.293-.643.185-3.2.363-5.683.394-3.74.047-4.708-.045-5.641-.533-1.202-.63-1.196-.581-.501-3.671l.217-.966-2.252 1.216c-1.239.669-2.596 1.216-3.02 1.216-.988 0-1.629-.785-1.353-1.656.12-.377.074-.685-.1-.685-.45 0-3.072 2.676-3.072 3.136 0 .21-.301.57-.669.8-.368.23-.669.581-.669.782 0 .573-3.922 4.716-5.428 5.734-.748.506-1.642.92-1.986.92-.879 0-1.46-1.38-.968-2.299.435-.812.772-.876 1.67-.315.532.332.843.242 1.918-.554 1.609-1.191 2.437-2.183 2.446-2.931.006-.502-.253-.559-1.915-.427-2.841.227-7.706.556-9.615.651-.92.046-2.538-.047-3.597-.206-1.492-.224-2.141-.177-2.887.208-.879.454-1.664 2.02-1.231 2.448.097.097 2.243.163 4.77.146 2.589-.017 4.768.115 4.993.301.219.182.504 1.265.633 2.406.39 3.456 1.445 3.958 4.778 2.276m-96.1-15.789c-.101-.163-.569-.296-1.04-.296-.696 0-.784.088-.47.467.41.495 1.823.335 1.51-.171m45.48-2.847c1.629-2.915.788-4.157-1.416-2.092-1.958 1.835-2.15 3.639-.388 3.639.769 0 1.095-.28 1.804-1.547m-3.13-1.992c1.12-1.164 3.354-2.481 4.208-2.481.232 0 .838-.564 1.346-1.254 1.763-2.393 3.409-3.696 7.846-6.209.85-.482 2.25-1.033 3.11-1.226 1.623-.364 11.196-1.081 15.577-1.168 2.489-.049 6.472-.59 13.544-1.839 8.3-1.466 14.546-1.623 16.216-.409.981.713 3.041 1.574 5.855 2.447 2.384.74 7.191.831 9.687.184 2.532-.656 1.301-1.046-3.02-.955-3.371.071-3.843.004-5.187-.729-.813-.444-2.049-.988-2.746-1.209-1.415-.449-3.582-2.478-3.582-3.354 0-.768 1.123-1.909 3.43-3.481 1.972-1.344 2.451-2.202 1.23-2.202-.753 0-2.032.586-2.355 1.079-.112.171-.588.562-1.059.87-.471.308-1.92 1.284-3.22 2.171l-2.364 1.611-4.269.296c-2.348.163-4.795.381-5.439.484-.644.103-1.998-.005-3.01-.242-1.505-.352-1.859-.569-1.949-1.195-.152-1.065.728-2.274 2.204-3.03.687-.351 1.536-.955 1.886-1.342l.637-.704h-1.34c-.737 0-1.811.164-2.387.365-1.087.379-2.785 2.429-3.991 4.818-.915 1.813-1.798 2.541-3.496 2.882-7.792 1.566-11.536 1.728-13.866.6-1.047-.507-1.441-.897-1.436-1.421.001-.951 1.074-3.215 1.93-4.106.834-.867 5.216-3.807 5.674-3.807.429 0 1.233-.964.999-1.198-.098-.098-.91.19-1.803.641-.893.451-2.226 1.096-2.962 1.433-3.403 1.56-5.852 4.545-5.852 7.134 0 1.902-2.914 4.678-4.925 4.693-.777.006-3.856 1.091-6.457 2.276-1.382.63-1.99.811-4.24 1.266-.437.088-.672.328-.574.585.187.487-.687.974-2.738 1.527-2.955.797-3.917.276-4.243-2.299-.141-1.117-.034-1.757.422-2.508.337-.555.716-1.646.843-2.425.258-1.58 2.528-4.414 4.25-5.304 1.356-.701 3.615-2.791 3.615-3.345 0-.367-.246-.346-1.254.109-.69.311-1.555.819-1.923 1.129-.368.31-1.58 1.018-2.694 1.575-1.708.853-2.251 1.36-3.462 3.233-.79 1.222-1.541 2.626-1.67 3.121-.141.542-.661 1.117-1.308 1.445-.981.498-1.013.561-.369.73.604.158.689.392.594 1.629-.126 1.645.574 4.422 1.259 4.99.713.592.546 1.678-.412 2.679l-.872.911 1.123.585c1.015.528 2.551 1.017 3.482 1.108.194.019.871-.505 1.505-1.164m27.07-9.988c1.161-.366 1.305-.479.632-.497-1.729-.044-4.04.401-3.582.69.618.392 1.217.353 2.951-.194m-75.24 131.3c0-.471.377-.687.869-.499.698.268.567.777-.2.777-.368 0-.669-.125-.669-.279m90.79-8.119c-.369-.18-.92-.761-1.225-1.291-.391-.682-.741-.916-1.191-.798-.818.214-1.408-.508-1.654-2.024-.26-1.604.379-1.574 1.151.054.433.912.777 1.229 1.263 1.163.446-.061 1.082.404 1.916 1.401.686.821 1.248 1.577 1.248 1.68 0 .278-.744.186-1.507-.185m-6.502-4.947c-.509-.951-.44-2.372.115-2.372.536 0 .872.711.872 1.847 0 1.05-.549 1.343-.986.525m-1.75-3.308c-.182-1.239-.006-1.74.611-1.74.365 0 .467.321.39 1.228-.126 1.496-.806 1.843-1 .512m-.942-4.081c0-1.115.111-1.338.669-1.338.758 0 .847.58.281 1.824-.565 1.24-.95 1.044-.95-.486m-1.109-2.893c-.366-.366-.264-2.731.128-2.973.527-.326.708-.004.745 1.329.034 1.19-.439 2.079-.873 1.645m23.856-4.958c-.522-.628-.643-2.616-.174-2.851.468-.234 1.342 2.638.929 3.051-.206.206-.477.134-.755-.2m-93.48-1.847c.114-.184.506-.334.872-.334.366 0 1.124-.237 1.683-.526 1.361-.704 1.576-.392.338.49-.998.711-3.285 1-2.894.371m-5.137-2c-.434-.371-1.065-.674-1.402-.674-1.087 0-1.01-.578.108-.765.594-.1 1.343-.285 1.664-.412.499-.197.555-.086.386.76-.165.825-.075 1.023.535 1.183.972.254 1.602-.017 1.849-.796.111-.35.574-.73 1.028-.844.454-.114 1.045-.632 1.313-1.151.809-1.565 2.833-2.641 2.833-1.506 0 .866.702.941 1.528.165.445-.419.923-.643 1.062-.498.383.4-1.452 1.647-2.992 2.032-.926.231-1.456.584-1.644 1.091-.25.674-.195.728.55.542.491-.123.827-.063.827.148 0 .196-.564.444-1.254.553-.69.109-1.63.279-2.09.379-2.378.517-3.518.462-4.301-.206m97.6-.844c-.226-.273-.333-.796-.237-1.163.099-.379-.1-1.015-.462-1.476-.8-1.017-.798-1.205.013-1.205.911 0 1.691 1.26 1.691 2.73 0 1.407-.397 1.847-1 1.114m-103-1.133c0-.308.792-.705 1.406-.705.211 0 .184.198-.068.502-.454.547-1.338.681-1.338.203m49.49-.054c-.46-.155-1.529-.454-2.377-.663-1.776-.44-3.562-1.874-3.01-2.421.243-.243.75-.072 1.665.562.724.501 2.422 1.295 3.775 1.762 1.353.468 2.522.91 2.599.982.252.237-1.794.066-2.647-.222m5.148-.315c-2.104-.61-3.81-1.526-3.81-2.046 0-.518.774-.326 3.515.87 1.47.642 2.935 1.168 3.257 1.17.322.002.585.155.585.338 0 .467-1.16.359-3.547-.333m-58.32-.634c0-.322.813-.711 1.449-.694.215.006.099.232-.258.502-.737.557-1.19.631-1.19.192m10.07-.487c-.285-.344-.216-.594.292-1.054.432-.391.558-.734.358-.975-.369-.445-.394-4.877-.027-4.877.486 0 .888.84.959 2 .039.641.216 1.31.394 1.488.178.178.323.745.323 1.26 0 1.061.948 1.307 1.672.435.452-.545 1.338-.682 1.338-.208 0 .484-.736.947-2.675 1.683-2.176.826-2.155.824-2.633.248m-34.984-4.46c-.111-.702-.364-1.826-.564-2.498-.422-1.424-.14-3.38.573-3.972.601-.499.074-1.327-.845-1.327-.657 0-2.345-1.221-2.345-1.696 0-.56 1.473-.319 3.331.547 1.401.652 2.122.8 3.093.636 1.817-.307 1.579.269-.575 1.392-2.11 1.1-2.393 1.651-1.848 3.597.467 1.669.338 4.282-.221 4.465-.242.079-.478-.371-.6-1.144m7.186-.44c-.276-.178-.972-.326-1.548-.329-.575-.003-1.243-.243-1.485-.534-.391-.471-.303-.503.814-.294 1.04.195 1.391.105 2.069-.532.846-.795 1.543-.689.862.131-.546.658.253 1.257 1.312.984.734-.189.771-.153.36.348-.508.62-1.612.724-2.384.225m53.26-.675c-1.2-.489-.899-1.049.502-.933.84.07 1.254.268 1.254.601 0 .605-.742.745-1.756.333m70.31-.71c-1.408-1.058-2.113-1.959-1.531-1.959.597 0 3.371 2.117 3.371 2.572 0 .629-.333.518-1.839-.613m-120.89-.12c0-.276.15-.502.334-.502.184 0 .334.226.334.502 0 .276-.15.502-.334.502-.184 0-.334-.226-.334-.502m54.697.056c-.434-.317-.505-.528-.234-.695.529-.327 1.786.106 1.634.563-.193.578-.721.628-1.399.132m3.38-.446c-.371-.371-.253-.697.336-.923.57-.219 1.203.397.905.879-.2.324-.934.35-1.24.044m-59.842-7.169c-1.017-1.159-1.143-1.638-.432-1.638.504 0 1.862 1.683 1.862 2.309 0 .632-.487.404-1.43-.671m18.04-7.211c-.331-.331-.26-1.877.111-2.452.257-.398.326-.329.334.334.005.46.1 1.175.211 1.588.191.714-.176 1.01-.657.529m2.452-.948c0-1.211.445-1.568.8-.641.36.939.216 1.812-.299 1.812-.35 0-.502-.353-.502-1.17m10.02-2.848c-.422-.262-.397-.404.175-.976.368-.368 1.27-.877 2-1.131.927-.32 1.337-.657 1.338-1.098.0001-.53.336-.672 2.01-.853 1.104-.119 2.119-.148 2.257-.064.564.344.192.783-.669.787-1.231.007-1.825.428-1.564 1.108.152.396.037.558-.396.558-.808 0-3.509 1-4.151 1.545-.332.279-.682.321-1 .122m-16.985-.914c.118-.621 1.61-1.041 1.61-.453 0 .325-1.036 1.038-1.507 1.038-.118 0-.164-.263-.102-.585m68.72.362c-.535-.535-.132-.788 1.031-.646.69.084 1.555.174 1.923.2.669.047.669.047 0 .335-.813.349-2.647.419-2.954.111m-44.18-.738c-1.04-.42-.117-.701 1.937-.59 2.077.112 3.01.545 1.19.552-.628.003-1.444.071-1.811.152-.368.081-.96.03-1.315-.114m5.328-1.689l-1.338-.214 1.087-.182c1.337-.224 3.093.008 3.093.409 0 .323-.77.319-2.843-.012m-32.384-.918c-.296-.296.624-1.718 1.861-2.88.816-.766.918-1.018.578-1.428-.334-.403-.293-.63.218-1.194.785-.867 2.459-1.756 2.753-1.461.217.218-1.065 1.47-2.203 2.152-.559.335-.559.374-.002.807.796.619.757.753-.569 1.917-.635.558-1.247 1.305-1.36 1.662-.204.643-.845.856-1.277.424m32.886-.612c0-.276.282-.502.627-.502.345 0 1.097-.094 1.672-.209 1.506-.301 1.288.305-.287.796-1.719.536-2.01.524-2.01-.086m-7.291-.868c.159-.477 3.837-1.192 4.21-.819.419.419-.532.837-2.403 1.057-1.607.189-1.935.145-1.807-.239m-26.632-2.944c-.143-.232.0001-.691.333-1.058 1.12-1.237 1.599-.605.536.707-.445.549-.686.646-.869.35m5.163-4.112c0-.373 3.153-1.786 3.679-1.649.581.151-.017.876-1 1.216-2.507.865-2.675.892-2.675.433m-3.273-2.265c.226-.362.867-.829 1.424-1.037.557-.208 1.356-.542 1.777-.742.567-.27 1.073-.252 1.962.069.977.353 1.346.354 2 .003.549-.294.913-.321 1.146-.088.234.234-.261.573-1.556 1.069-1.619.62-2.059.668-2.989.332-.948-.343-1.25-.3-2.316.329-1.523.899-1.984.919-1.45.064m2.938-3.302c0-.155.301-.555.668-.887.52-.471.835-.53 1.419-.27.74.33.736.343-.317.887-1.18.61-1.77.7-1.77.27m.334-2.214c0-.269.301-.651.669-.848.368-.197.669-.643.669-.992 0-.724 1.308-1.735 2.976-2.301 1.399-.474 2.709-.499 2.709-.051 0 .184-.339.335-.752.336-.813.0001-3.311 1.383-2.759 1.526.184.048.754.179 1.268.293 1.229.272.905.717-.708.975-.712.114-1.68.51-2.15.88-1 .79-1.92.877-1.92.183m4.537-5.827c-.185-.3.812-1.072 1.9-1.472.322-.118.585-.44.585-.716 0-.687.907-1.113 2.952-1.384 2.103-.279 2.367.294.336.729-1.553.332-2.02.961-.96 1.297 1.015.322.489.84-.853.84-.639 0-1.702.226-2.362.502-1.413.59-1.363.584-1.598.204m30.4-.051c-.313-.507.536-1.431.942-1.025.375.375.083 1.374-.401 1.374-.179 0-.422-.157-.541-.349m2.284-2.879c-.224-.584.192-1.469.735-1.563.184-.032.38.337.436.819.118 1.019-.833 1.624-1.171.744m2.24-1.454c0-.184.226-.334.502-.334.276 0 .502.15.502.334 0 .184-.226.334-.502.334-.276 0-.502-.15-.502-.334m-27.675-.891c-.231-.093-.335-.307-.231-.475.257-.416 3.159-.39 3.159.029 0 .184-.364.334-.809.334-.445 0-1.01.063-1.254.141-.245.077-.634.065-.865-.029m2.677-1.671c-.912-.368-.337-.782 1.087-.782 1.59 0 2.02.453.752.792-.86.23-1.247.228-1.839-.011m2.675-1.668c-.777-.321-.424-.831.502-.724.506.058.909.256.896.44-.027.384-.783.538-1.397.284m49.24-.182c-3.749-.376-4.118-.494-4.241-1.353-.121-.845-1.277-1.267-1.277-.466 0 .71-5.071-1.685-6.898-3.258-1.315-1.132-1.406-1.16-1.923-.588-.298.33-.542.776-.542.991 0 .215-.188.387-.418.381-.739-.019-1.441-.786-2.241-2.451-.468-.974-1.293-1.979-2.058-2.508-1.549-1.07-1.735-1.888-.367-1.615 1.301.26 2.02-.204 1.42-.922-.71-.855-.121-1.015 1.186-.322 1.235.656 3.147 2.765 3.147 3.472 0 .681 2.613 3.02 3.374 3.02.399 0 1.308.527 2.02 1.17 1.313 1.186 2.218 1.45 2.84.828.233-.233.728.033 1.555.836 1.353 1.314 1.742 1.428 2.185.637.278-.496.375-.493 1.173.03.592.388 1.188.501 1.863.353.597-.131 1.369-.034 1.936.244.745.364 1.179.381 2.058.079l1.114-.383-1.149-.978c-2.258-1.921-2.598-2.148-3.214-2.148-.343 0-.811.226-1.04.502-.599.722-.843.645-2.39-.752-1.233-1.113-1.599-1.259-3.262-1.302-2.513-.064-4.123-.442-4.641-1.089-.815-1.02-2.787-4.12-2.685-4.221.057-.056 1.454.047 3.106.229 2.892.318 3.072.388 4.849 1.883 1.015.854 2.176 1.894 2.579 2.312.816.846 1.775.715 1.775-.242 0-.332-.414-.963-.92-1.402-.506-.439-1.215-1.139-1.575-1.555-.559-.645-.584-.802-.167-1.065.376-.238.295-.312-.348-.321-.46-.007-1.513-.326-2.341-.71-.828-.384-2.257-.892-3.177-1.13-3.281-.848-6.342-2.192-7.244-3.179-.496-.543-.769-1.07-.605-1.171.163-.101 1.68.596 3.371 1.55 2.756 1.553 3.264 1.727 4.904 1.673 1.228-.04 2.284.156 3.21.595 2.364 1.122 5.892 1.985 10.397 2.543 4.214.522 5.404.897 4.986 1.573-.214.346.377 1.731 1.13 2.648.378.46.364.576-.095.752-.537.206-1.489-.63-3-2.634-.601-.797-.988-.922-3.679-1.191-1.654-.165-3.496-.396-4.093-.512-.638-.124-1.087-.075-1.087.12 0 .568 1.028 1.217 1.955 1.233.798.014.877.125.779 1.104-.086.854.148 1.388 1.087 2.485.658.768 1.196 1.51 1.196 1.649 0 .138.263.338.585.443.697.228 3.428 2.786 3.428 3.212 0 1.046-3.517 1.428-8.528.925m.836-6.289c0-.184-.235-.334-.521-.334-.287 0-.428.15-.315.334.114.184.348.334.521.334.173 0 .315-.15.315-.334m-16.721-1.66c0-.757-1.175-1.548-1.506-1.013-.115.186-.114.638.002 1 .28.883 1.504.89 1.504.009m-15.05 7.513c-.347-.418-.303-.502.266-.502.982 0 1.767.356 1.552.704-.29.47-1.359.351-1.818-.202m-15-.799c-.285-.18-.327-.366-.114-.498.419-.259 1.404.089 1.404.497 0 .377-.695.378-1.29.0001m2.276-.559c-.399-.481-.356-.531.368-.429.451.064.782.266.736.45-.14.562-.628.553-1.104-.021m2.776-.364c-.777-.321-.424-.831.502-.724.506.058.909.256.896.44-.027.384-.783.538-1.397.284m1.254-1.789c0-.184.527-.334 1.17-.334.644 0 1.17.15 1.17.334 0 .184-.527.334-1.17.334-.644 0-1.17-.15-1.17-.334m21.13-.738c-.465-.465-.533-1.269-.106-1.269.512 0 1.016.843.756 1.263-.194.314-.34.315-.65.006m-13.43-8.939c-.19-.356-.346-.855-.346-1.11 0-.255-.351-.768-.78-1.141-.955-.83-1.204-3.449-.392-4.123.748-.621.597-1.096-.586-1.84-.585-.368-1.068-.803-1.074-.968-.012-.334 5.429-.577 7.05-.315 1.698.275 2.809 1.561 2.809 3.251 0 1.685-.512 2.243-2.606 2.841-1.649.471-2.597.271-3.091-.652-.385-.719-1.324-.88-1.329-.228-.002.23.487.825 1.087 1.323.913.757.967.873.337.713-.735-.187-1.063.324-.451.703.166.102.459.638.651 1.19.309.888.276 1-.29 1-.352 0-.795-.291-.986-.647m3.249-5.568c-.319-.319-.958.198-.72.582.141.228.328.223.568-.018.197-.197.265-.451.152-.564m-1.375-.307c.119-.311.628-.502 1.338-.502 1.36 0 1.799-.741.978-1.649-1.502-1.659-3.606-.826-3.477 1.376.077 1.3.78 1.77 1.161.775m-17.931-.206c-1.067-.426-2.01-1.285-2.01-1.828 0-.234.242-.668.537-.963.681-.681 1.469-.13 1.469 1.027 0 .587.301.916 1.17 1.28.644.269 1.17.572 1.17.673 0 .29-1.421.175-2.334-.189m24.74-.463c0-.276.226-.502.502-.502.276 0 .502.226.502.502 0 .276-.226.502-.502.502-.276 0-.502-.226-.502-.502m100.51-7.95c.034-5.091.013-5.333-.181-2.082l-.219 3.679.023-4.01c.014-2.437.154-4.01.357-4.01.405 0 .647 11.526.25 11.923-.147.147-.251-2.325-.229-5.493m-104.52 3.732c-1.238-.671-2.875-.815-3.653-.323-.62.393-1.371.089-1.157-.469.404-1.052 4.482-.57 5.789.685.769.739.286.791-.978.107m-30.28-1.322c-.121-.196-.168-.397-.103-.445.896-.678 1.856-1.205 2.198-1.205.799 0 .431.984-.559 1.496-1.173.607-1.25.614-1.535.154" fill="#000"/>
</svg>
