<svg xmlns="http://www.w3.org/2000/svg" version="1.1" width="300" height="350">
 <path id="fill" d="m104.01 250.09c-.234-.616-.517-.813-1.058-.738-1.239.172-1.135-1.095.151-1.851 1.983-1.166 4.764-3.337 5.828-4.548.579-.66 1.439-1.385 1.911-1.612.993-.477 1.472-1.342 2.136-3.856.916-3.47 2.302-13.148 2.255-15.742-.015-.812-.034-1.919-.043-2.46-.008-.541-.047-2.386-.086-4.1-.107-4.72-.09-12.615.035-15.742.144-3.605-.292-11.809-.666-12.523-.159-.304-.289-.924-.289-1.378 0-.454-.184-.943-.41-1.087-.432-.276-1.206-1.783-1.905-3.706-.229-.631-.614-1.381-.855-1.666-.241-.285-.438-.683-.438-.885 0-.202-.451-1.036-1-1.854-.552-.817-1.185-2.115-1.408-2.884-.483-1.67-1.118-1.886-2.51-.857-.868.642-1.063.681-1.337.267-.176-.266-.248-.853-.159-1.304.089-.451.26-1.317.38-1.925.12-.608.042-1.862-.173-2.788-.216-.925-.493-4.106-.617-7.07l-.225-5.386-.961-.532c-1.362-.754-1.362-1.118 0-2.241l1.201-.99-.381-1.916c-.209-1.054-.411-3.244-.448-4.868l-.067-2.952-1.722.092c-1.512.081-1.722.015-1.722-.538 0-.405.304-.707.851-.844 1.063-.267 2.752-2.076 2.768-2.964.006-.366.223-1.034.48-1.485.764-1.336.608-2.219-.492-2.788-1.251-.647-1.251-1.321 0-1.968.541-.28.984-.746.984-1.036 0-.29.316-1.037.701-1.661.649-1.051.67-1.263.283-2.878-.396-1.649-.348-3.548.203-8.08.16-1.318.087-1.587-.553-2.035-.618-.433-.67-.599-.318-1.023.231-.279.601-.506.821-.506.221 0 .682-.311 1.026-.69.499-.551.633-1.232.664-3.383.033-2.282.167-2.895.878-4.02.461-.73 1.242-1.622 1.736-1.982 1.482-1.08.891-1.732-1.576-1.735-1.686-.003-2.372-.182-3.777-.988-.944-.541-1.957-1.352-2.251-1.801-.294-.449-.742-.816-.996-.816-.254 0-.633-.406-.842-.902-.21-.496-1.05-1.604-1.868-2.461-1.425-1.494-1.493-1.655-1.615-3.823-.121-2.145-.083-2.293.731-2.826 1.032-.676 2.369-.486 4.093.58.652.403 2.169.984 3.371 1.289 2.63.669 4.558 1.803 6.411 3.773 1.754 1.864 2.83 1.886 2.982.062.087-1.037-.096-1.391-1.394-2.708-.821-.833-1.493-1.783-1.493-2.112 0-.328-.332-.889-.738-1.246-.802-.706-3.788-2.192-5.901-2.937-1.603-.566-5.495-.553-7.299.024-3.841 1.228-6.27 1.575-8.402 1.2-1.151-.202-2.609-.449-3.241-.547-.631-.098-1.47-.448-1.863-.776-1.179-.985-2.4-3.02-2.4-3.999 0-.505-.148-1.01-.328-1.121-.18-.111-.328-.707-.328-1.323 0-1.01-.147-1.187-1.458-1.784-.802-.365-1.702-.664-1.999-.664-.786 0-3.502-2.498-3.998-3.678-.328-.781-.34-1.276-.052-2.191.901-2.865 1.329-2.906 4.03-.393 1.823 1.696 2.295 1.973 3.292 1.936.698-.026 1.416.185 1.795.528.769.696 2.114.567 2.264-.219.06-.315-.533-1.422-1.319-2.46-.786-1.038-1.675-2.411-1.976-3.052-.656-1.395-1.085-1.802-3.846-3.648-1.166-.78-2.444-1.899-2.839-2.487-.963-1.431-1.263-3.861-.756-6.126.343-1.532.523-1.824 1.125-1.824.877 0 1.486.692 2.307 2.624 1.106 2.601 1.804 3.554 3.372 4.603 1.376.92 1.734 1.012 3.46.894 1.88-.129 1.971-.181 3.871-2.196 1.07-1.135 2.533-2.858 3.25-3.83 1.059-1.433 1.485-1.766 2.26-1.766 1.016 0 1.976.99 1.976 2.037 0 .319-.38 1.53-.845 2.691-.71 1.775-1.26 2.486-3.449 4.462-1.432 1.293-2.741 2.607-2.908 2.92-.168.313-.217 1.422-.109 2.463.178 1.726.354 2.065 1.985 3.827.984 1.063 1.929 1.933 2.1 1.933.171 0 1.18.59 2.242 1.312 1.062.722 2.095 1.312 2.293 1.312.199 0 .699.365 1.112.81.83.896 4.44 2.798 5.31 2.798.304 0 1.014.277 1.576.616.562.339 2.01.807 3.217 1.04 2.606.504 3.03.291 3.558-1.776.19-.746.547-2.094.792-2.995.246-.902.631-2.672.856-3.933.225-1.261.829-3.18 1.342-4.263.513-1.084.932-2.211.933-2.504 0-.973.841-1.375 1.855-.886 1.687.813 1.603 3.857-.308 11.09-.976 3.696-1.33 6.786-.948 8.273.198.771.45 1.874.559 2.451.223 1.175 1.804 3.334 2.887 3.941.391.219 1.554.404 2.584.41l1.874.012 1.315-1.886c1.818-2.608 1.952-2.753 3.711-4 .857-.61 1.558-1.361 1.558-1.671 0-.309.272-.633.605-.72.966-.253 1.442-3.489 1.184-8.05-.235-4.144.228-9.669.876-10.449.217-.261.7-.431 1.074-.377.912.131 1.155 1.594 1.161 6.985.003 2.345.119 5.281.258 6.525.344 3.066.778 3.316 3.325 1.916 1.062-.584 2.113-1.062 2.334-1.062.221 0 1.137-.369 2.035-.82.898-.451 1.837-.82 2.086-.82.45 0 2.327-.739 3.592-1.414.361-.193 1.294-.693 2.075-1.112 3.17-1.702 6.728-5.097 8.03-7.658.715-1.41.414-2.502-.976-3.542-1.863-1.394-2.685-2.491-3.213-4.284-.297-1.01-.678-2.089-.848-2.402-.412-.759-.393-3.087.031-3.88.27-.505.695-.634 2.081-.634 2.199 0 2.656.472 3.353 3.468.444 1.905.745 2.473 1.869 3.52l1.34 1.249 2.15-.223c2.545-.264 3.893-1.197 6.547-4.533 1.735-2.181 2.178-2.498 3.489-2.498 1.426 0 1.941 2.208.902 3.865-1.354 2.159-5.688 6.341-7.313 7.06-1.898.835-2.674 1.682-3.978 4.339-2.115 4.308-1.156 5.063 2.122 1.673 2.402-2.484 3.897-3.052 4.87-1.851.326.403.591.9.59 1.106-.008.937-1.696 3.863-2.825 4.898l-1.248 1.144.642 1.192c.609 1.131.613 1.237.086 2.085-.306.491-.947 1.621-1.426 2.51-1.17 2.172-3.048 3.855-6.03 5.403-3.09 1.605-4.36 1.846-7.153 1.359-2.878-.502-4.794-1.416-6.75-3.222-1.88-1.736-2.433-1.745-6.613-.109-3.619 1.416-4.124 1.866-4.457 3.972-.151.957-.189 1.88-.083 2.05.328.53 1.993-.013 3.751-1.222 2.01-1.382 2.552-1.425 3.879-.308.813.684 1.01 1.101 1.01 2.142 0 2.208-.969 3.883-4.427 7.655-1.029 1.122-4.567 2.8-5.904 2.8-.427 0-1.14.138-1.583.307-.774.294-.808.431-.838 3.362-.03 2.939-.067 3.086-.975 3.875l-.943.82-.228 5.431c-.211 5.02-.177 5.56.448 7.145.909 2.306.856 2.949-.349 4.192-1.018 1.051-1.023 1.073-.792 3.539.199 2.122.354 2.578 1.069 3.14.46.362 1.094.658 1.408.658.314 0 .761.229.993.508.348.42.327.603-.121 1.051-.299.299-.933.55-1.41.557-1.249.021-1.739.938-.961 1.797.335.37.624 1.154.642 1.741l.033 1.068 1.968-.052c7.241-.192 9.958-.183 13.385.042 3.804.25 3.877.242 4.06-.459.185-.707.193-.708.882-.081.981.893 2.746 1.121 5.344.692 1.231-.203 3.419-.413 4.862-.466 3.713-.137 7.448-.537 8.09-.866.534-.274 19.975-.399 22.902-.148 1.843.158 9.823 1.798 10.492 2.155.272.146 1.454.442 2.627.658 1.172.216 2.594.598 3.158.849 1.01.448 2.985.915 5.478 1.295.942.144 1.706.633 3.046 1.952.984.968 1.897 1.808 2.028 1.866.132.058.736 1.123 1.343 2.366.939 1.925 1.127 2.706 1.257 5.247.262 5.108.911 6.593 3.677 8.417 1.137.75.734 2.117-.717 2.434-2.092.456-5.267.192-6.25-.52-1.659-1.201-2.01-.811-2.243 2.497-.227 3.199-.765 6.125-1.343 7.295-.266.54-.268 1.293-.006 2.788.197 1.126.285 2.493.194 3.037-.342 2.066 1.488 5.636 6.197 12.09 2.544 3.486 2.667 4.371 1.94 13.978-.608 8.04-.852 24.803-.392 27 .54 2.582.295 3.307-1.465 4.338-.81.475-1.473 1.048-1.473 1.274 0 .226-.438 1.061-.972 1.855-.762 1.131-.937 1.692-.809 2.591.249 1.747-.41 2.602-2.646 3.438-1.082.404-2.667 1.208-3.523 1.785-1.751 1.183-2.284 1.1-2-.312.249-1.247-.439-1.544-1.866-.806-.937.484-1.109.49-1.546.053-.437-.437-.34-.588.873-1.353 1.416-.894 2.074-1.772 3.523-4.702.471-.953 1.213-2.01 1.649-2.355.436-.343 1.165-1.173 1.621-1.845.774-1.141.848-1.605 1.115-6.991.269-5.428 1.122-15.931 1.44-17.74.268-1.52-1.455-11.941-2.313-13.995-.246-.59-.904-1.409-1.462-1.82-.558-.411-1.185-1.056-1.393-1.433-.502-.908-9.324-9.03-10.415-9.594-.469-.24-1.207-.387-1.64-.326-.744.105-.784.225-.727 2.205.033 1.151.218 2.251.41 2.443.192.192.35.709.35 1.148 0 1.247.708 3.431 1.347 4.154.319.361.77 1.366 1 2.235.381 1.426.353 1.777-.294 3.631-.394 1.129-1.231 2.927-1.861 3.997-.63 1.069-1.359 2.406-1.62 2.97-.261.564-.637 1.126-.836 1.249-.199.123-.361.476-.361.785 0 .309-.534 1.37-1.187 2.358-1.164 1.763-1.722 2.769-3.719 6.716-.548 1.082-1.263 2.411-1.589 2.952-.326.541-.792 1.5-1.034 2.132-.77 2-3.055 6.702-3.532 7.264-.253.298-.649 1.257-.882 2.132-.49 1.845-2.253 4.768-3.072 5.093-.31.123-.982.234-1.494.246-1.177.029-4.92 2.104-5.79 3.21-.362.461-.659 1.257-.659 1.77 0 .757-.245 1.058-1.299 1.596-.714.364-1.498.663-1.742.663-.244 0-1.054.295-1.801.656-.747.361-1.63.656-1.964.656-.333 0-.789.183-1.013.407-.324.324-.47.308-.716-.082-.17-.269-.312-.752-.314-1.073-.007-.844-.781-1.016-1.922-.426-.546.282-1.223.425-1.505.317-.932-.358-.7-.716 1.865-2.879 1.037-.875 1.886-1.82 1.886-2.101 0-1.01 3.98-3.987 6.662-4.991 1.886-.706 3.853-2.512 4.565-4.194.206-.486.697-1.253 1.09-1.704.393-.451 1.349-2 2.124-3.444.775-1.443 1.784-3.214 2.243-3.936.459-.722 1.331-2.566 1.937-4.1.606-1.533 1.296-3.23 1.533-3.772 3.148-7.186 3.831-9.358 3.975-12.64.064-1.449.205-2.779.314-2.956.4-.648-.585-5.457-1.573-7.68-1.255-2.823-2.152-4.163-4.02-6-.799-.787-1.921-2.048-2.495-2.801-2.142-2.814-5.174-5.797-5.89-5.797-.296 0-.917-.298-1.38-.662-.716-.563-1.126-.629-2.75-.443-1.237.142-2.214.472-2.776.939-.576.479-1.515.788-2.8.922-1.063.111-2.444.412-3.068.67-.624.257-1.799.577-2.611.711-.812.134-2.214.574-3.116.978-1.92.86-2.56 1.025-5.68 1.468-1.281.182-2.815.626-3.408.988-.725.442-1.671.662-2.883.669-1.062.007-2.066.21-2.44.493-.454.343-1.584.491-3.936.514-1.814.018-4.106.129-5.093.246l-1.794.214-.393 2.46c-.413 2.583-.994 9.808-1.28 15.906-.093 1.984-.235 4.124-.315 4.755-.52 4.091-.871 6.625-1.139 8.199-.453 2.667-.433 14.943.027 16.739.233.907.294 2.223.156 3.329-.202 1.616-.427 2.039-1.931 3.63-1.718 1.816-3.827 4.46-4.92 6.167-.326.509-1.064 1.083-1.64 1.274-.576.191-1.755.707-2.621 1.147-.866.44-2.378.979-3.36 1.199-1.527.342-1.87.327-2.361-.102-1.022-.891-3.745-1.013-5.96-.267-2.439.822-2.275.832-2.659-.176m55.32-168.93c2.802-1.312 4.488-2.732 4.313-3.633-.099-.51-.577-.578-4.206-.601-5.781-.037-6.927.558-6.408 3.325.45 2.396 2.495 2.692 6.301.909m-66.996-.277c1.867-.78 1.587-1.538-1.16-3.142-2.344-1.369-2.352-1.371-4.509-1.08-2.13.287-2.16.305-2.091 1.254.094 1.292.984 2.108 3.094 2.837 2.156.745 3.134.772 4.667.131" fill="#ef0000"/>
 <path id="outline" d="m103.97 249.88c-.135-.352.084-.792.626-1.258.875-.752 1.498-2.117.967-2.117-.171 0-.383.278-.472.619-.195.744-2.311 1.817-3.036 1.539-1-.385-.27-1.312 2.762-3.49 1.687-1.212 3.375-2.559 3.752-2.993.377-.434 1.309-1.199 2.071-1.701 1.515-.997 1.614-1.232 2.736-6.536.707-3.341 1.722-11.828 1.62-13.541-.037-.628-.057-1.546-.043-2.039.05-1.778.034-3.516-.132-14.602-.284-18.941-.169-17.778-2.073-20.883-.495-.808-1.172-2.348-1.504-3.422-.332-1.075-1.081-2.512-1.666-3.195-.584-.683-1.241-1.932-1.459-2.777-.607-2.351-.608-2.352-1.113-2.352-.261 0-.923.378-1.472.839-1.307 1.1-1.81.776-1.492-.963.359-1.97.144-6.611-.44-9.502-.145-.718-.22-2.884-.166-4.813l.098-3.508h-1.137c-1.478 0-1.477-.605.005-2 1.277-1.204 1.392-1.926.617-3.863-.289-.721-.433-1.55-.321-1.843.112-.292.05-.717-.138-.943-.238-.287-.236-.884.007-1.969.438-1.956.105-2.413-1.357-1.861-.698.263-1.21.282-1.627.058-.965-.516-.714-1.169.659-1.718 1.429-.572 2.643-1.92 2.658-2.952.006-.38.226-.975.489-1.324.263-.348.479-1.027.479-1.509 0-.712-.183-.912-.979-1.072-.765-.153-.979-.369-.979-.988 0-.587.254-.88.979-1.133.678-.236.979-.557.979-1.042 0-.385.317-1.145.704-1.689.612-.86.654-1.124.326-2.031-.508-1.406-.457-4.771.112-7.36.615-2.794.617-2.774-.326-3.204-1.108-.505-1.026-1.198.203-1.707 1.248-.517 2.058-2.234 1.772-3.757-.373-1.988.132-3.626 1.605-5.208.954-1.024 1.542-1.414 1.916-1.271.602.231.688-.101.22-.842-.227-.36-.942-.493-2.694-.504-2.161-.013-2.536-.118-4.01-1.12-1.84-1.253-2.119-1.571-1.895-2.156.1-.261-.18-.452-.762-.519-.603-.069-1.057-.392-1.316-.936-.218-.457-1.063-1.537-1.879-2.4-1.461-1.547-1.483-1.602-1.483-3.796 0-2 .084-2.292.843-2.889 1.048-.825 2.301-.632 4.356.672.8.507 1.756.925 2.125.927 1.686.012 5.604 1.982 6.707 3.371 1.147 1.446 1.678 1.845 2.457 1.845.454 0 .911-.221 1.014-.49.289-.752-.149-2.07-.91-2.74-.377-.332-.96-.842-1.297-1.134-.336-.292-.612-.936-.612-1.432 0-.792-.289-1.048-2.366-2.099-4.359-2.206-5.81-2.611-8.589-2.4-1.366.104-2.727.319-3.02.478-.297.159-1.275.39-2.172.512-.897.123-2.114.44-2.703.706-.864.389-1.419.415-2.855.136-.981-.191-2.581-.502-3.557-.692-2.742-.533-4.704-2.918-4.784-5.813-.067-2.434-.307-2.748-2.645-3.461-2.508-.765-4.959-2.752-5.277-4.277-.316-1.516.499-4.097 1.401-4.43.662-.245 1-.029 2.597 1.65 1.665 1.753 1.985 1.947 3.456 2.093 1.257.125 1.777.359 2.322 1.042.43.54.94.833 1.316.758.924-.183.611-1.346-.984-3.654-.759-1.099-1.574-2.479-1.81-3.066-.48-1.194-1.398-2.01-4.053-3.616-.997-.602-2.205-1.61-2.686-2.24-.783-1.026-.878-1.441-.911-3.964-.046-3.593.223-4.612 1.218-4.612.993 0 1.928 1.094 2.65 3.1 1.288 3.577 3.134 5.05 6.318 5.056 2.039.0001 2.083-.018 3.54-1.549.811-.852 2.274-2.614 3.25-3.916 1.465-1.953 1.935-2.366 2.691-2.366 2.01 0 2.533 2.132 1.248 5.082-.894 2.053-2.762 4.347-3.739 4.593-.404.101-.734.289-.734.417 0 .128-.509.827-1.132 1.554-1.071 1.251-1.121 1.417-.931 3.077.158 1.376.448 2.037 1.344 3.06 1.212 1.383 4.833 3.954 7.189 5.104.777.379 1.493.898 1.591 1.153.178.464 3.68 2.389 4.346 2.389.194 0 1.037.311 1.872.692 1.908.869 5.173 1.71 5.762 1.484.478-.184 1.49-3.2 2.317-6.907.548-2.457 1.732-6.32 2.1-6.852.124-.179.407-.959.628-1.732.376-1.314.47-1.399 1.436-1.305 1.41.137 1.957 1.227 1.692 3.364-.111.897-.207 1.852-.212 2.121-.005.269-.46 2.325-1.011 4.568-1.652 6.723-1.381 11.717.776 14.315 1.11 1.337 2.034 1.795 4.25 2.105 1.157.162 1.219.114 2.876-2.259 1.506-2.158 4.652-5.03 5.513-5.03.701 0 1.083-1.115 1.517-4.423.309-2.357.356-3.709.142-4.109-.389-.727-.12-8.986.331-10.174.174-.457.601-.984.95-1.171 1.181-.632 1.464.296 1.492 4.907.023 3.719-.044 4.284-.545 4.566-.682.384-.772 1.088-.106.833.583-.224 1.521 2.676 1.407 4.35-.07 1.028.012 1.152.826 1.246.497.057 1.378-.186 1.958-.541 1.272-.778 4.474-2.104 7.579-3.138 2.308-.768 5.695-2.535 7.519-3.921 2.611-1.984 5.646-5.729 5.682-7.01.008-.263-.793-1.241-1.78-2.173-2.035-1.925-3.113-3.876-3.892-7.05-.522-2.126-.519-2.23.133-3.508.631-1.236.759-1.316 2.104-1.316 1.199 0 1.57.164 2.278 1 .465.552.933 1.396 1.041 1.876.618 2.752.911 3.559 1.546 4.259 2.311 2.545 6.19 1.648 9.242-2.137 2.384-2.955 3.246-3.697 4.3-3.697 1.119 0 2.01.977 2.01 2.206 0 2.252-4.135 6.842-8.542 9.482-1.841 1.103-2.185 1.482-3.204 3.531-.628 1.263-1.472 2.746-1.876 3.296-.404.55-.734 1.087-.734 1.194 0 .107.33.197.734.199.404.003.949.141 1.213.308.309.196.642.167.941-.081.387-.321.35-.411-.232-.552-.634-.154-.54-.341 1.087-2.165 2.939-3.296 5.461-3.961 5.911-1.561.285 1.518-.878 4.142-2.462 5.553l-1.141 1.017.64 1.189c.55 1.022.579 1.287.207 1.883-.238.381-.729 1.224-1.092 1.872-1.972 3.53-3.358 4.816-7.46 6.915-1.786.914-2.439 1.074-4.383 1.071-3.082-.004-7.354-1.542-8.388-3.02-.241-.344-.987-.949-1.659-1.345l-1.221-.721-1.87.739c-5.837 2.306-6.355 2.731-6.813 5.599l-.213 1.334.947-.231c.521-.127 1.814-.809 2.874-1.516 2.256-1.504 2.946-1.57 4.272-.404.905.795.972 1.01.894 2.786-.088 1.998-.611 3.388-1.575 4.188-.308.256-1.129 1.234-1.823 2.174-1.596 2.16-3.749 3.289-7.374 3.866-.767.122-1.474.352-1.572.51-.098.159-.187 1.571-.198 3.138-.02 2.823-.031 2.86-1.16 3.927-1.046.988-1.124 1.19-.944 2.447.108.754.028 2.856-.176 4.672-.363 3.223-.351 3.357.498 5.647.478 1.29.869 2.544.869 2.786 0 .242-.493 1.03-1.096 1.752-1.01 1.208-1.084 1.45-.943 3.049.201 2.278.939 3.522 2.362 3.981 1.886.607 1.604 2.487-.373 2.487-1.242 0-1.492.737-.624 1.841.475.604.588.987.358 1.217-.185.185-.336.544-.336.798 0 .373.423.423 2.202.256 1.211-.113 2.423-.217 2.692-.232.269-.014 4.234.092 8.81.237 10.917.344 13.406.253 23.17-.853 4.119-.467 19.898-.877 22.542-.586 4.787.527 7.539 1.022 11.556 2.081 8.145 2.146 10.451 2.747 11.777 3.071.734.179 1.646.584 2.025.898.379.315 1.423 1.16 2.319 1.877.896.718 1.637 1.514 1.646 1.769.009.255.218.696.464.979.796.917 1.555 3.864 1.702 6.609.079 1.474.292 3.232.474 3.907.321 1.192 1.672 2.808 3.279 3.921.745.516.76.592.291 1.456-.622 1.146-2.723 1.836-4.302 1.413-.592-.159-1.634-.376-2.316-.482-.895-.139-1.341-.417-1.606-.999-.815-1.789-1.475-.302-1.533 3.452-.021 1.346-.325 3.588-.676 4.982-.498 1.977-.604 3.234-.479 5.71.165 3.285.462 4.607 1.494 6.662.634 1.261 4.488 6.812 6.06 8.724.885 1.078.918 1.249.936 4.894.001 2.078-.083 5.393-.206 7.367-.29 4.626-.557 10.831-.8 18.599-.155 4.946-.095 6.577.295 8.07.748 2.854.381 4.072-1.456 4.833-.606.251-1.244.916-1.658 1.728-.37.726-.887 1.534-1.149 1.795-.352.352-.42.879-.263 2.02.198 1.436.147 1.59-.719 2.207-.512.365-1.946 1.128-3.186 1.696-1.24.568-2.614 1.315-3.053 1.661-.439.346-1 .629-1.244.629-.666 0-.537-1.121.207-1.795.734-.665.865-1.468.239-1.468-.228 0-.954.367-1.614.816-2.503 1.701-3.7.563-1.395-1.325.866-.71 2.056-2.245 2.975-3.839.843-1.461 1.865-2.918 2.272-3.238 1.74-1.368 2.031-2.367 2.409-8.247.196-3.047.518-7.01.715-8.802.573-5.205.478-14.535-.179-17.62-.936-4.394-1.287-5.201-3.22-7.411-2.512-2.871-9.459-9.215-11.571-10.565-.949-.607-1.727-1.289-1.73-1.515-.003-.28-.106-.255-.321.078-.476.736-.389 3.328.163 4.894.269.763.493 1.699.497 2.08.004.381.451 1.574.992 2.651 1.321 2.625 2 5.174 1.641 6.114-1.013 2.619-1.568 3.829-2.287 4.98-.944 1.513-3.499 6.152-5.229 9.494-.659 1.274-1.52 2.725-1.914 3.225-.394.5-.716 1.163-.716 1.473 0 .31-.339 1.062-.753 1.672-.414.61-1.214 2.209-1.778 3.553-.564 1.344-1.763 3.824-2.664 5.511-.901 1.687-1.808 3.596-2.01 4.242-.942 2.95-2.382 4.468-4.519 4.762-.907.125-1.727.353-1.823.508-.095.154-.915.684-1.821 1.177-1.679.914-2.719 2.294-2.384 3.166.275.718-.958 1.772-2.375 2.03-.683.124-1.787.499-2.452.834-.666.335-1.501.608-1.857.608-.355 0-.737.147-.848.326-.32.517-1.468.38-1.468-.175 0-.275.237-.863.527-1.305.665-1.016.214-1.052-1.786-.145-1.665.756-2.656.828-2.656.194 0-.248 1.872-2.35 4.16-4.67 3.569-3.619 4.438-4.327 6.118-4.982 2.271-.886 3.791-2.186 4.976-4.253.463-.808 1.163-1.835 1.556-2.284 1.17-1.335 4.542-7.772 6.342-12.11.924-2.225 2.09-4.926 2.59-6 2.907-6.251 3.48-14.1 1.406-19.251-.643-1.598-2.911-4.874-4.291-6.2-.561-.538-1.442-1.566-1.958-2.284-.517-.718-1.686-2.093-2.599-3.055-.913-.963-1.659-1.867-1.659-2.01 0-.143-.697-.589-1.55-.992-.852-.403-1.813-.958-2.134-1.234-.507-.435-.853-.447-2.61-.087-1.114.228-2.32.684-2.679 1.012-.429.392-1.435.677-2.937.829-1.256.128-2.459.372-2.673.544-.214.171-1.315.522-2.447.781-1.132.258-2.907.845-3.945 1.304-1.14.504-2.905.937-4.459 1.094-1.609.162-2.979.505-3.66.916-.599.361-2.026.758-3.171.881-1.146.123-2.394.409-2.773.636-.479.286-2.086.398-5.258.365-2.512-.026-4.752.091-4.976.259-.224.168-.408.84-.408 1.492 0 .652-.149 1.699-.331 2.326-.294 1.011-.566 4.554-.815 10.602-.236 5.733-.576 9.824-.84 10.1-.164.17-.302 1.051-.308 1.958-.006.906-.16 2.676-.344 3.932-.183 1.256-.41 5.159-.503 8.674-.135 5.079-.064 6.904.347 8.895.643 3.111.275 5.092-1.129 6.093-.498.355-1.42 1.417-2.048 2.359-.628.943-1.533 2.079-2.01 2.525-.478.446-1.103 1.304-1.389 1.906-.286.602-.754 1.172-1.039 1.265-.286.094-1.428.594-2.538 1.112-1.11.518-2.212.941-2.447.94-.236-.0001-1.137.252-2 .563-1.548.555-1.584.553-2.121-.126-.412-.522-1.013-.727-2.452-.837-1.149-.088-2.02-.329-2.197-.606-.237-.375-.292-.357-.296.096-.003.345-.578.809-1.515 1.224-1.815.803-1.724.797-1.981.127m9.69-2.415c0-.19-.147-.255-.326-.144-.179.111-.326.266-.326.346 0 .079.147.144.326.144.179 0 .326-.156.326-.346m6.817-2.158c.07-.05-.058-.315-.285-.588-.543-.654-2.095-.636-2.648.03-.375.451-.33.614.311 1.133.76.615 1.027.557 2.621-.574m-9.04.056c-.086-.48-.796-.397-.966.113-.094.281.064.399.439.326.322-.062.559-.26.527-.439m59.816-2.161c0-.247-.32-.495-.712-.551-.898-.128-1.737 1.165-1.037 1.598.53.328 1.749-.402 1.749-1.047m44.536.701c.378-.239.4-.395.095-.699-.304-.304-.503-.298-.895.026-.975.809-.307 1.372.799.673m-101.42-.549c.328-.297.597-.679.597-.848 0-.965 1.224-2.644 2.454-3.365 1.598-.936 1.522-.642 2.13-8.299.207-2.602.57-5.256.807-5.898.237-.642.532-3.233.656-5.759.204-4.18.163-4.755-.456-6.41-.827-2.21-1.064-3.404-.717-3.618.448-.277-.39-3.135-1.018-3.471-.395-.212-.593-.689-.593-1.433 0-1.155-.58-2.777-.993-2.777-.494 0-.587 2.054-.46 10.115.091 5.732-.006 9.488-.311 12.07-.244 2.064-.378 3.862-.3 3.996.174.296-1.381 9.09-1.89 10.687-.2.628-.795 1.855-1.323 2.727-.912 1.506-.932 1.616-.401 2.202.686.758 1.049.773 1.819.077m9.01-1.396c1.61-1.829 1.704-2.034 1.704-3.717 0-1.906.424-2.398 1.714-1.988.62.197.633.105.364-2.521-.349-3.399-.243-8.489.365-17.572.242-3.611.311-4.181.937-7.668.258-1.436.408-2.71.333-2.832-.074-.122.022-2.618.214-5.547.306-4.668.285-5.479-.172-6.572-.287-.686-.434-1.522-.328-1.858.108-.34-.126-1.233-.529-2.02-.397-.773-.812-1.835-.922-2.36-.11-.525-.394-1.019-.631-1.098-.343-.114-.355-.0001-.058.553.47.879.143 1.521-.502.986-.253-.21-.46-.584-.46-.832 0-.247-.217-.449-.482-.449-.265 0-.733-.404-1.04-.897-.942-1.514-1.457-2-1.922-1.824-.346.133-.405.73-.263 2.67.101 1.374.248 3.894.327 5.599.079 1.705.296 4.568.481 6.363.185 1.795.262 4.04.171 4.996-.102 1.07.001 2.23.293 3.033.491 1.392.504 1.552.564 6.899.096 8.594.059 11.482-.201 16.07-.153 2.692-.255 5.656-.227 6.586.051 1.698-.932 4.345-1.614 4.345-.171 0-.545.452-.83 1-.474.917-.474 1.072-.0001 1.795.285.435.629.791.764.791.135 0 1.013-.871 1.95-1.936m2.358-32.896c.0001-.673-.247-1.918-.551-2.766-.669-1.865-.333-2.378.741-1.131.657.763.788 1.265.788 3.02 0 1.652-.105 2.103-.489 2.103-.348 0-.489-.353-.488-1.224m42.594 33.378c.91-.91 1.03-1.652.311-1.927-.773-.296-1.296.052-1.783 1.187-.248.578-.511 1.162-.585 1.296-.335.613 1.341.159 2.056-.556m44.623-.246c.279-.576.435-1.163.348-1.305-.243-.393-.773-.308-.773.124 0 .21-.235.641-.521.958-.496.548-.397 1.27.174 1.27.146 0 .495-.471.773-1.047m-93.89-.804c.473-.621.779-1.211.678-1.311-.392-.392-1.895-.153-2.505.398-.603.546-.863 1.781-.46 2.184.396.396 1.469-.2 2.286-1.272m55.52-2.682c1.08-.698 2.406-1.367 2.946-1.485.54-.119 1.32-.575 1.732-1.014.457-.486 1.115-.799 1.683-.799.594 0 1.01-.207 1.134-.571.111-.314.442-.865.736-1.224.294-.359 1.499-2.708 2.678-5.221 3.426-7.301 3.498-7.449 4.176-8.647.356-.628.856-1.583 1.111-2.121.256-.538 1.289-2.554 2.296-4.479 1.01-1.925 1.834-3.907 1.837-4.405.003-.498.209-1.773.459-2.833.331-1.405.36-2.133.11-2.682-.255-.56-.234-.886.082-1.267.322-.389.334-.605.048-.891-.551-.551-.462-1.473.178-1.831.808-.452-.024-1.353-1.248-1.353-1.033 0-1.254-.637-.453-1.303.317-.263.415-.687.282-1.217-.132-.525-.044-.915.248-1.1.292-.185.315-.288.065-.291-.213-.003-.8-.162-1.305-.354-1.519-.577-.203-1.02 1.867-.627 2.274.431 2.599.411 2.599-.161 0-.267-.496-.692-1.102-.946-1.3-.543-1.722-1.097-1.219-1.6.605-.605.422-.844-.92-1.206-.944-.254-1.311-.537-1.387-1.07-.058-.406-.498-.913-1-1.153-1.087-.519-1.187-1.368-.163-1.382 1.276-.017-.078-.577-2.512-1.039-1.455-.276-2.304-.611-2.507-.99-.212-.395-.7-.572-1.581-.572-1.634 0-1.819.342-.817 1.507.445.517.808 1.025.809 1.129 0 .104.366.385.812.624.92.492 3.43 4.16 3.43 5.01 0 .308.204.885.454 1.282.997 1.586 1.377 8.399.659 11.817-.682 3.249-1.727 6.613-2.585 8.32-.406.808-.842 1.835-.97 2.284-.127.449-1.219 2.871-2.425 5.384-1.207 2.512-2.603 5.436-3.103 6.496-.5 1.06-1.194 2.232-1.541 2.605-.347.372-1.016 1.34-1.487 2.151-1.798 3.094-3.189 4.446-6.376 6.198-1.325.728-1.555 1.413-.653 1.938.805.469.753.485 2.924-.917m41.584.128c.062-.359.554-.867 1.092-1.13.538-.263 1.414-.979 1.946-1.593l.967-1.115.06-11.296c.033-6.213.165-12.25.295-13.417.184-1.658.115-2.407-.315-3.426-.459-1.089-.536-2.254-.462-7.04l.088-5.735-1.551-2.259c-.853-1.243-2.115-3.14-2.803-4.217-1.359-2.125-2.461-3.385-3.457-3.95-.553-.314-.583-.463-.23-1.142.223-.43.391-1.442.373-2.249-.018-.808.072-1.947.201-2.532.151-.686.09-1.236-.171-1.551-.239-.288-.324-.887-.209-1.465.11-.552.057-.978-.123-.978-.175 0-.318-.21-.318-.467 0-.257-.296-.561-.657-.676-.981-.311-.442-.822.64-.606.74.148 1.016.038 1.318-.526.21-.392.305-.911.213-1.153-.093-.242-.038-.855.122-1.361.16-.507.467-2.022.681-3.368.232-1.452.603-2.618.912-2.868.321-.259.397-.51.197-.653-.179-.127-.33-1.039-.337-2.026-.024-3.458-.591-7.595-1.14-8.32-.136-.179-.782-1.322-1.436-2.539-1.107-2.059-1.243-2.845-.492-2.845.377 0 2.933 2.515 3.476 3.42.812 1.353 1.58 3.532 2.072 5.879.226 1.077.534 2.097.685 2.268.401.455.322-.357-.253-2.594-.277-1.077-.583-2.29-.68-2.697-.097-.406-.306-.819-.464-.917-.492-.304-.315-1.69.243-1.904.292-.112.732-.036.979.168.589.489.566.166-.08-1.111-.559-1.106-1.997-2.481-2.613-2.501-.202-.006-.538-.217-.747-.468-.432-.52-2.535-1.351-6.553-2.589-6.502-2-8.636-2.54-10.611-2.671-1.151-.076-2.648-.371-3.327-.655-.871-.365-1.696-.454-2.804-.302-1.175.161-1.708.091-2.121-.279-.466-.417-1.015-.444-3.524-.173-1.867.201-3.593.208-4.642.017-1.223-.222-2.131-.182-3.391.151-.946.25-2.829.429-4.184.397-1.355-.032-2.76.101-3.122.295-.903.483-8.826 1.075-15.13 1.13-.808.007-6.068-.03-11.689-.083l-10.22-.096-1.155 1.189-1.155 1.189.755.611.755.611-.963.485c-.951.479-3.324.544-4.03.111-.451-.279-.477-1.707-.036-1.98.735-.454.241-.816-1.115-.816-2.295 0-2.535-.188-2.293-1.796.124-.827.073-1.473-.126-1.596-.555-.343-3.227 1.684-3.589 2.723-.187.536-.888 1.308-1.591 1.751-1.264.798-5.34 5.151-6.403 6.84-.604.958-.492 1.541.296 1.541.261 0 1.697-1.273 3.191-2.828 1.558-1.623 2.807-2.68 2.93-2.481.29.47-2.705 3.987-3.583 4.208-.463.116-.748.492-.838 1.108-.118.806-.059.89.438.624.316-.169.665-.454.775-.632.11-.179.339-.325.508-.325 1.076 0-1.184 3.478-2.369 3.646-.591.084-.73.283-.653.94.055.472-.193 1.203-.571 1.683-.367.467-.663 1.266-.657 1.776l.001.927.72-.979c1.393-1.893 2.213-2.561 2.629-2.141.293.296.142.591-.651 1.264-1.334 1.132-3.369 5.474-3.136 6.692.255 1.332.67 1.357 1.207.072.549-1.315 1.732-1.684 1.348-.421-.848 2.787-.871 3.261-.191 3.984.433.46.665 1.149.665 1.97 0 1.482 1.161 4.079 1.824 4.079.76 0 .597-2.779-.228-3.895-1-1.355-.768-5.206.505-8.315.72-1.759.846-2.383.568-2.829-.457-.732.306-1.749 2.545-3.392 1.397-1.025 1.591-1.304 1.44-2.064-.162-.809-.001-.96 1.936-1.919 1.161-.572 2.623-1.49 3.249-2.039.626-.549 1.265-.999 1.422-.999.156 0 1.132-.808 2.167-1.795 1.896-1.808 2.52-2.148 2.52-1.374 0 .652-2.998 3.428-3.955 3.662-.471.115-1.046.565-1.279 1-.233.435-.545.791-.694.791-.149 0-.271.367-.271.816 0 .475-.188.816-.449.816-.549 0-.614 1.603-.091 2.247.287.353.192.568-.432.979-.44.289-1.438 1.077-2.218 1.75-.78.673-1.52 1.225-1.643 1.226-.358.003-1.367 1.947-1.367 2.635 0 .974.614.751 2.318-.842.863-.808 1.723-1.468 1.91-1.468.187 0 .345-.257.351-.571.006-.314.189-.795.408-1.068.71-.888 3.744-2.634 4.693-2.701 1.47-.104 1.112.745-.586 1.39-1.782.676-3.873 2.193-3.873 2.81 0 .239-.654.981-1.454 1.65-.8.668-1.92 1.865-2.49 2.658-.57.793-1.127 1.3-1.238 1.126-.12-.188-.5-.205-.936-.042-1.048.392-.998 1.821.082 2.313.449.204.816.637.816.962 0 .389.166.526.487.403.813-.312.904.718.189 2.12-.371.728-.675 1.613-.675 1.967 0 .417-.256.679-.731.747-1.123.16-1.054 1.074.183 2.447.617.685 1.4 1.834 1.739 2.551.494 1.046.766 1.284 1.372 1.198.415-.059 1 .113 1.298.382.299.269.735.537.97.596.598.15 1.361-2.107.956-2.83-.221-.395-.168-.701.182-1.051.568-.568 1.204-.307 1.219.5.013.713.615 1.486 1.54 1.978.404.215.734.651.734.97 0 .318.202.855.449 1.193.425.582.478.559.992-.437.542-1.048.54-1.055-.645-2.501-1.062-1.296-1.344-1.951-2-4.648-.237-.975.346-.934 1.144.082.371.472.977.816 1.438.816 1.01 0 1.324-.31.874-.853-.454-.547-.103-1.105.696-1.105.864 0 3.25-.984 3.25-1.341 0-.501 1.183-.318 1.995.31.632.487 2.626 1.357 3.111 1.357.063 0 .114-.225.114-.5 0-.787.885-.928 2.378-.38.756.278 1.998.602 2.76.721 1.684.263 2.886 1.144 2.594 1.903-.326.85-1.694.672-2.126-.275-.315-.691-.584-.812-1.765-.793-.767.013-1.683.136-2.036.274-.391.153-1.73-.04-3.426-.495l-2.784-.746-.979.678c-.538.373-1.33 1.11-1.758 1.638-.692.853-.725 1.015-.291 1.449.735.735 2.681 1.069 6.128 1.053 1.705-.008 3.529.151 4.054.353 1.104.426 5.893.617 6.259.25.136-.136.074-.421-.139-.633-.212-.212-.386-.589-.386-.836 0-.361.437-.405 2.202-.222 2.883.299 3.487.616 2.195 1.152-.534.222-1.576.678-2.315 1.014-.739.336-2.341.704-3.56.817-1.507.141-2.408.399-2.817.807-.33.33-1 .603-1.498.606-.494.003-1.118.15-1.387.326-.435.286-.435.357 0 .643.954.627 4.324.228 3.997-.473-.284-.61.103-.818 1.468-.79 2.566.054 4.903-.395 5.502-1.057.445-.492 1.02-.612 2.928-.612 2.364 0 2.473-.043 3.632-1.431.266-.318 1.057-.477 2.406-.484 1.556-.007 2.277-.185 3.193-.786.697-.457 2.15-.934 3.535-1.16 1.759-.287 2.561-.592 3.181-1.213 1.418-1.418 1.153-1.584-3.167-1.969-1.728-.154-2.529-.115-2.529.125 0 .312.9.511 3.589.795 1.688.178.729.742-1.42.836-2.828.123-3.768-.382-3.64-1.957l.087-1.077 2.405.154c4.629.296 5.644.226 5.767-.398.188-.961-1.27-1.208-6.253-1.062-4.332.127-4.72.091-4.862-.452-.192-.734-1.848-1.038-4.286-.787-.981.101-2.051.074-2.377-.061-1.212-.502 1.228-1.116 4.495-1.132 2.776-.013 3.201.063 3.751.67.548.605.867.663 2.742.5 1.167-.102 2.638-.275 3.268-.385.729-.127 2.093.057 3.752.506 3.02.818 5.707 1.114 5.707.628 0-.202.446-.248 1.142-.117.875.164 1.142.105 1.142-.255 0-.527-1.095-1.614-2.202-2.185-1.022-.527-.98-1.661.062-1.661.755 0 2.215 1.092 5.04 3.77.649.615 1.511 1.12 1.914 1.122.404.002 1.47.407 2.369.9 1.357.745 1.685.819 1.93.434.226-.355.543-.392 1.358-.158 1.395.4 1.759 1.28.423 1.021-.595-.115-1.138-.004-1.48.303-.48.431-.687.41-1.863-.19-1.412-.72-2.328-.867-2.328-.371 0 .167-.33.353-.734.414-.701.105-.68.165.457 1.328.655.67 1.472 1.218 1.815 1.218.343 0 1.055.453 1.583 1.01 1.034 1.086 3.579 2.909 4.06 2.909.162 0 .836.367 1.497.816.661.449 1.384.816 1.606.816.222 0 .591.226.821.502.229.276 1.617 1.292 3.083 2.258 2.998 1.974 13.07 11.281 14.452 13.349 1.852 2.779 2.348 4.859 3.01 12.641.212 2.481.214 5.132.006 7.678-.175 2.139-.395 6.747-.49 10.241-.21 7.759-.334 8.603-1.519 10.327-1.049 1.527-1.105 1.764-.546 2.323.453.453.802.18.964-.75m-6.756-56.31c-.121-.195-.069-.505.115-.689.412-.412 1.044-.064 1.044.574 0 .549-.84.633-1.16.115m-86.42-5.05c-.89-.89-.507-3.732.504-3.732.53 0 .612.261.612 1.938 0 2.101-.31 2.599-1.116 1.794m85.41-.002c-.235-.614.342-1.283.841-.975.538.332.425 1.486-.145 1.486-.275 0-.588-.23-.696-.511m-53.948-.07c0-.14.477-.441 1.06-.668l1.06-.413-.897-.485c-.494-.266-.897-.72-.897-1.01 0-.433.255-.488 1.468-.322.807.111 1.835.293 2.284.406.709.178.816.097.816-.619 0-.453.184-.885.408-.96.623-.208 4.478 1.172 4.482 1.605.004.378-2.621 1.087-4.03 1.087-.404 0-.89.155-1.079.345-.19.19-1.21.552-2.268.804-2.284.546-2.412.558-2.412.228m-16.641-.374c-.449-.161-1.22-.382-1.713-.491-.522-.115-.897-.416-.897-.719 0-.401.207-.474.897-.315.494.114 2.402.299 4.242.411 3.218.197 3.984.448 2.778.911-.979.375-4.454.508-5.306.202m-17.762-1.294c-.182-.294.347-3.611.62-3.884.373-.373 1.207.304 1.01.819-.117.304-.299 1.184-.404 1.955-.179 1.307-.771 1.843-1.224 1.109m88.56-.86c-.933-.962-1.042-1.213-.639-1.468.719-.455.924-.398 1.828.506.809.809.944 1.787.276 2.01-.187.062-.846-.409-1.465-1.048m-14.702-3.052c-.709-.578-.73-.664-.215-.865.92-.358 2.261.115 2.138.753-.155.803-1.014.853-1.923.112m15.24-1.484c-.47-.616-.854-1.422-.854-1.792 0-.369-.294-.855-.653-1.079-.806-.504-.852-1.229-.078-1.229.777 0 2.362 1.515 2.362 2.257 0 .33.22.782.489 1.01.618.513.646 1.958.039 1.958-.248 0-.835-.504-1.305-1.12m-33.16-2.154c-.269-.165-1.04-.516-1.713-.78-1.215-.477-1.633-1.356-.798-1.676.511-.196 2.642.656 3.928 1.57.71.504.825.724.489.937-.556.352-1.28.333-1.906-.05m31.24-3.364c-1.445-1.216-1.633-2.02-.4-1.71.755.189.79.153.42-.439-.494-.791-.215-1.133.689-.847.387.123.677.494.677.865 0 .357-.147.559-.326.448-.587-.363-.342.594.337 1.317.528.562.578.777.245 1.051-.31.255-.737.077-1.642-.685m4.403-.422c-.744-1.497-.725-2.077.067-2.077.372 0 .678.565 1.718 3.181.096.241-.086.401-.444.392-.385-.001-.874-.555-1.342-1.496m-.647-3.957c-1.093-1.261-1.354-2.21-.67-2.438.217-.072.428-.666.47-1.32.062-.965-.104-1.34-.884-1.996-.528-.444-.96-1.105-.96-1.468 0-.363-.402-1.034-.894-1.49-.784-.727-.843-.911-.478-1.495.543-.87.319-1.172-1.06-1.431-1.392-.261-1.778-.797-.99-1.373.549-.401.504-.471-.584-.926-.648-.271-1.947-.751-2.888-1.066-2.165-.727-2.472-1.39-.644-1.39 1.418 0 6.789 2.127 7.892 3.126.343.31.624.84.624 1.178 0 .337.21.939.466 1.336.943 1.463 1.755 7.191 1.127 7.948-.23.277-.031.803.672 1.772.549.758.999 1.577.999 1.819 0 .838-1.146.427-2.199-.787m-78.39-1.184c0-.467.675-.851 1.495-.851.63 0 .588.861-.053 1.107-.856.329-1.442.224-1.442-.256m-4.242-.195c0-.618 2.059-2.287 2.822-2.287 1.223 0 .906.87-.648 1.781-1.5.879-2.174 1.036-2.174.506m-2.343-5.563c.442-1.194 2.669-2.292 2.669-1.316 0 .248-2.411 1.982-2.756 1.982-.088 0-.049-.3.087-.666m74.37-2.695c-1.049-.414-1.199-1.207-.229-1.207.93 0 2.657.94 2.422 1.319-.241.389-1.027.349-2.194-.112m-77.25-.347c0-.412 2.194-2.165 2.709-2.165.513 0 .166.705-.8 1.629-1.09 1.042-1.909 1.272-1.909.537m10.768-3c0-.671.794-1.447 1.48-1.447.858 0 1.056.596.413 1.24-.391.391-1.892.556-1.892.207m64.19-.671c-.517-.517-.175-.812.828-.715.583.056 1.06.249 1.06.429 0 .387-1.553.622-1.888.287m-9.04-.754c0-.553.331-.659 2.692-.867 1.481-.13 2.508-.3 2.284-.376-.224-.076-.408-.347-.408-.601 0-.336.438-.462 1.605-.462.883 0 1.836.089 2.119.197.708.272.317.782-.599.782-.414 0-1.103.273-1.531.608-.428.334-1.745.775-2.926.979-2.919.504-3.236.479-3.236-.259m-46.44-.24c-.47-.47-.176-1.12.651-1.434 1.227-.467 1.655.098.728.961-.79.736-1.033.819-1.38.473m43.18-1.675c0-.144.16-.421.355-.616.255-.255.246-.422-.032-.594-.434-.269-4.766-.58-7.501-.54l-1.795.026.803-.666c.596-.494 1.06-.612 1.795-.458.545.115 1.358.188 1.807.164 1.252-.068 1.944-.037 4.242.193 2.302.23 3.235.692 2.034 1.01-1.049.274-.901.876.165.672.998-.191 2.165.286 1.87.764-.231.374-3.742.42-3.742.049m-35.832-.636c.076-.399.476-.602 1.329-.672.671-.056 1.221.025 1.221.179 0 .565-.807 1.064-1.721 1.064-.717 0-.912-.135-.829-.571m4.583.181c.151-.454 1.856-.982 2.453-.761.224.083.408.376.408.651 0 .376-.37.5-1.496.5-1.015 0-1.454-.125-1.365-.39m16.891-.427c-.29-.35-.753-.428-1.669-.281-1.017.163-1.267.102-1.267-.307 0-.28.257-.58.571-.667.956-.264 6.281-.133 6.281.154 0 .328-1.483 1.098-2.655 1.379-.569.136-.996.042-1.262-.278m-50.25 94.61c0-.259-.147-.47-.326-.47-.179 0-.326.302-.326.672 0 .37.147.581.326.47.179-.111.326-.413.326-.672m1.142-7.975c-.111-.179-.422-.326-.691-.326-.269 0-.399.147-.288.326.111.179.422.326.691.326.269 0 .399-.147.288-.326m-.653-19.904c.111-.179.055-.326-.125-.326-.179 0-.417.147-.528.326-.111.179-.055.326.125.326.179 0 .417-.147.528-.326m75.17-3.443c.103-.532.048-.556-.408-.178-.624.518-.701 1.122-.119.929.224-.075.462-.413.527-.751m1.961-3.892c1.462-3.01 1.593-3.841.873-5.564-.564-1.35-.956-1.418-1.695-.29-.535.817-.526.862.315 1.55l.866.708-.699 2.284c-.385 1.256-.897 2.401-1.138 2.545-.484.288-.608 1.534-.153 1.534.157 0 .891-1.245 1.631-2.767m-78.09-1.177c.292-.472-.844-2.542-1.511-2.754-.29-.092-.694-.532-.897-.977-.426-.934-1.038-1.076-1.03-.238.006.585 2.587 4.31 2.993 4.319.124.003.324-.155.444-.349m.146-4.051c0-.269-.213-.489-.473-.489-.26 0-.616-.256-.791-.568-.175-.313-.414-.472-.532-.355-.311.311.813 1.902 1.344 1.902.249 0 .452-.22.452-.489m-2.449-2.449c-.649-.717-1.01-.641-.701.151.106.277.441.504.743.504.502 0 .498-.057-.042-.655m1.47-.964c0-.407-1.371-1.687-1.582-1.476-.144.144 1.213 1.79 1.476 1.79.058 0 .106-.141.106-.314m.653-4.837c0-.459-3.567-3.791-3.804-3.554-.127.127-.069.393.13.592.451.451.169 1.26-.439 1.26-.25 0-.455.131-.455.291 0 .372.818.687 1.781.687.412 0 .932.22 1.155.489.422.508 1.631.682 1.631.234m8.81-2.01c0-.443-.576-.734-.784-.396-.195.316.088.703.512.703.15 0 .272-.138.272-.307m61.851-3.435c.348-.263.462-.484.252-.489-.21-.006-.577-.082-.816-.17-.239-.088-.655-.014-.924.163-.435.287-.435.359 0 .644.646.424.744.414 1.488-.148m-65.28-.179c-.113-.182-.342-.247-.509-.144-.453.28-.368.476.205.476.28 0 .416-.149.304-.332m-9.622-.321c0-.179-.367-.326-.816-.326-.449 0-.816.147-.816.326 0 .179.367.326.816.326.449 0 .816-.147.816-.326m23.88.103c-.236-.094-.517-.083-.625.026-.108.108.084.186.428.171.38-.016.457-.093.197-.197m-3.085-.655c.167-.506-2.229-1.224-3.24-.971-.505.127-.775.431-.775.872 0 .621.163.67 1.944.582 1.137-.056 1.997-.257 2.072-.484m-19.98-.101c-.111-.179-.266-.326-.346-.326-.079 0-.144.147-.144.326 0 .179.156.326.346.326.19 0 .255-.147.144-.326m78.47-.87c0-.299-.093-.451-.206-.338-.113.113-.49.054-.837-.131-.786-.421-1.899.275-1.175.734.781.495 2.218.323 2.218-.265m-8.301-.609c-.807-.61-1.161-.607-1.161.001 0 .319.313.486.897.479.859-.001.871-.031.264-.489m-43.917-.792c.38-.24.279-.375-.489-.654-.532-.193-1.285-.513-1.673-.711-1.017-.518-4.211.246-3.684.882.2.241 1.196.491 2.213.556 1.017.064 2.143.142 2.502.174.359.031.868-.079 1.131-.246m46.02-.66c0-.44-1.497-.78-2.02-.459-.302.187-.191.326.389.488 1.205.335 1.628.328 1.628-.029m-55.18-1.015c-.249-.157-.714-.288-1.034-.291-.483-.004-.522.107-.231.652.293.547.465.596 1.034.291.547-.293.593-.422.231-.652m50.939.683c0-.416-1.315-.416-1.958 0-.364.235-.176.318.734.321.673.003 1.224-.142 1.224-.321m6.689 0c-.111-.179-.34-.326-.509-.326-.169 0-.307.147-.307.326 0 .179.229.326.509.326.28 0 .418-.147.307-.326m-77.17-.979c0-.179-.147-.326-.326-.326-.179 0-.326.147-.326.326 0 .179.147.326.326.326.179 0 .326-.147.326-.326m67.03-.198c.943-.362.536-.73-1.25-1.129-1.759-.394-2.801-.278-2.801.311 0 .677 2.897 1.262 4.052.818m5.737-.746c0-.381-.953-.742-1.335-.506-.575.355-.287.798.519.798.449 0 .816-.131.816-.291m-72.76-.651c0-.16-.289-.637-.642-1.06l-.642-.77-.011.843c-.006.464.087.941.207 1.06.317.317 1.088.266 1.088-.073m64.1-1.364c-.28-.453-.476-.368-.476.205 0 .28.149.416.332.304.182-.113.247-.342.144-.509m7.03-.357c0-.387-2.204-.34-2.446.052-.122.198.316.304 1.123.273.728-.029 1.323-.175 1.323-.325m-4.242-1.674c0-.232-.731-.856-1.625-1.387-.894-.531-1.628-1.066-1.631-1.191-.004-.124-.741-.22-1.638-.213-.897.007-1.627.109-1.621.226.014.289 2.852 2.067 4.068 2.549 1.32.523 2.447.531 2.447.016m-5.812-.453c-.236-.094-.517-.083-.625.026-.108.108.084.186.428.171.38-.016.457-.093.197-.197m8.096-2.042c0-.169-.147-.398-.326-.509-.179-.111-.326.027-.326.307 0 .28.147.509.326.509.179 0 .326-.138.326-.307m-75.37-5.04c0-.247-.22-.632-.489-.856-.269-.223-.489-.608-.489-.856 0-.489-.313-.559-1.115-.251-.512.196-.714 1.453-.301 1.866.118.118.433.033.7-.188.394-.327.553-.295.844.166.43.682.852.741.852.119m1.041-2.229c-.569-.569-1.079.016-.635.728.346.553.427.567.68.117.173-.31.155-.644-.045-.844m112.83-.614c0-.447-1.332-1.577-1.876-1.591-.544-.014-.514.345.1 1.222.521.745 1.776 1.01 1.776.37m-114.01-2.402c.242-.966.082-1.884-.354-2.03-.671-.223-1.751 2.429-1.292 3.172.31.502 1.428-.274 1.646-1.143m1.77.78c0-.169-.147-.307-.326-.307-.179 0-.326.229-.326.509 0 .28.147.418.326.307.179-.111.326-.34.326-.509m-3.589-3.777c0-.225.269-.6.597-.835.528-.377 1.361-2.166 1.361-2.922 0-.558-1.209-.258-1.839.457-1.203 1.365-1.866 3.936-1.189 4.614.272.272 1.069-.706 1.069-1.313m15.889-.581c.504-.433.798-.905.655-1.049-.332-.332-1.178.197-1.791 1.121-.638.961-.019.922 1.136-.072m-12.616-6.309c.734-1.475 1.978-3.05 2.595-3.286 1.018-.389 5.198-4.566 5.408-5.403.112-.446.809-1.211 1.56-1.711 2.302-1.533 3.153-2.447 2.978-3.195-.106-.452.177-1.058.842-1.806l1-1.126-.731-.551-.731-.551.875-1.04c1.1-1.307 1.093-1.485-.081-2.071-.897-.447-1-.429-1.692.307-.568.605-.648.872-.349 1.171.631.631.454 1.191-.758 2.402-.834.834-1.098 1.34-.974 1.865.143.601-.237 1.01-2.281 2.465-1.349.96-2.453 1.846-2.453 1.97 0 .289-3.492 2.648-3.919 2.648-.452 0-.402-.562.085-.961.224-.184.89-.721 1.479-1.193.985-.79 1.025-.892.502-1.275-.474-.347-.499-.501-.146-.926.645-.778 3.272-2.23 3.632-2.01.175.108.239-.001.142-.262-.103-.268.203-.712.738-1.072l.914-.614-1.142-.169c-.628-.093-1.142-.253-1.142-.357 0-.103.793-.838 1.763-1.631 1.964-1.607 2.094-1.804 2.584-3.89.332-1.416.31-1.496-.622-2.232-.895-.707-.951-.876-.764-2.293.189-1.426.142-1.562-.691-2.01-.498-.267-1.147-1.069-1.465-1.812-.314-.733-1.031-1.762-1.593-2.286-.562-.524-1.63-1.577-2.372-2.339-1.286-1.321-2.223-1.768-2.223-1.06 0 .179-.498.326-1.107.326-.709 0-1.178.186-1.305.516-.284.739-.299.727.855.674.849-.039 1.054.078 1.06.604.005.44.195.621.583.556.777-.131 1.066.762.588 1.813-.343.753-.305.924.314 1.39.661.499.678.62.279 1.953-.33 1.103-.337 1.451-.03 1.553 1 .335-.091 3.169-1.419 3.674-.442.168-.958.644-1.147 1.057-.188.413-.767 1.037-1.285 1.385-1.063.714-2.721 3.723-2.55 4.626.07.367.453.632 1.01.696.492.057.895.206.895.332 0 .294-1.658 2.769-2.02 3.01-.15.102-.179.654-.065 1.228.143.717.374 1.017.738.957.466-.076.515.313.41 3.229-.065 1.823-.015 3.483.112 3.689.327.53 1.545-.308 3.957-2.724 3.12-3.125 4.263-4.077 5.165-4.303 1.472-.37.925.423-1.565 2.264-1.879 1.39-2.536 2.1-3.02 3.264-.338.818-.946 1.664-1.35 1.881-.404.216-.735.644-.735.95 0 .306-.092 1.016-.204 1.576-.253 1.264.262 1.336.866.122m2.119-16.06c-.296-.478.564-1.645 1.212-1.645.707 0 .713.137.047 1.153-.559.853-.943 1-1.259.491m-.734-2.568c-.306-.189-.268-.507.163-1.356.795-1.566 1.547-1.744 1.258-.298-.26 1.298-.862 1.999-1.421 1.653m15.448 7.965c-.923-1.126-1.181-1.729-1.181-2.754 0-1.493-.258-1.794-1.046-1.218-.509.372-.491.521.238 2.01.433.885.792 1.914.798 2.288.014.913.269 1.115 1.409 1.115h.964l-1.181-1.442m1.499-2.474c-.142-.97-1.048-1.416-1.048-.516 0 .786.377 1.495.794 1.495.257 0 .347-.348.254-.979m-2.027-4.894c0-.179-.147-.326-.326-.326-.179 0-.326.147-.326.326 0 .179.147.326.326.326.179 0 .326-.147.326-.326m.979-1.814c0-.259-.22-.47-.489-.47-.491 0-.671.689-.281 1.079.305.305.77-.063.77-.609m-21.21-.633c0-.269-.138-.489-.307-.489-.411 0-.706.51-.445.77.367.367.752.224.752-.281m4.079-3.752c.473-.915.467-.979-.09-.979-.759 0-1.379.616-1.379 1.37 0 .928.912.684 1.468-.392m16.561-.867c.333-.205-.063-1.798-.586-2.357-.357-.382-.602-.34-1.591.271-.925.572-1.169.929-1.169 1.712v.989l1.55-.232c.852-.128 1.661-.3 1.796-.383m-4.616-2.089c.134-.259.323-.725.419-1.036.144-.467.426-.532 1.609-.37 1.049.144 1.657.05 2.266-.349.905-.593 1.247-.365 1.387.921.041.379.094.8.116.934.023.135.409.245.857.245.942 0 1.025-.471.355-2.028-1.375-3.197-1.749-4.357-1.499-4.659.151-.182.463-1.836.692-3.675.432-3.458.262-4.305-.783-3.904-.804.309-1.204 5.23-.528 6.494.28.524.245.782-.161 1.188-.986.986-1.246.006-1.386-5.217-.074-2.752-.215-5.664-.313-6.472-.146-1.194-.017-1.757.688-3.02.902-1.611 2.207-2.858 2.989-2.858.743 0-.753-1.772-2.167-2.567-.947-.532-1.276-.947-1.396-1.757-.198-1.334-.033-1.77.746-1.973.34-.089 1.024-.835 1.521-1.658.497-.823 1.095-1.569 1.328-1.659.607-.233 1.181 1.402.697 1.985-.308.371-.112.45 1.116.45.819 0 1.579.146 1.689.324.245.397-1.263 1.96-1.891 1.96-.25 0-.712.285-1.028.634-.555.613-.537.65.52 1.103.602.258 1.6 1 2.219 1.65 1.179 1.239 2.193 1.518 2.51.691.103-.269.502-.493.887-.497 2.34-.024 6.305-3.386 7.38-6.259.587-1.57.628-1.954.269-2.535-.51-.825-1.818-.776-2.348.086-.292.476-.213.696.424 1.18l.783.596-1.925 1.52c-1.39 1.098-2.124 1.472-2.639 1.347-.393-.095-.805-.026-.917.154-.111.18.018.327.287.327 1.048 0 .79.628-.589 1.436-1.413.828-1.464.834-2.445.276-.551-.314-1-.821-1-1.128-.003-.693 2.405-3.195 3.074-3.195.749 0 2.791-1.052 2.61-1.345-.177-.286-.388-.228-3.294.894-2.617 1.01-2.742.996-2.507-.283.184-1 .168-1.026-.305-.412-.494.641-.508.641-1.196.018-1.102-.997-.743-1.861.943-2.272 1.166-.284 1.493-.525 1.683-1.243.13-.49.469-1.124.755-1.41.705-.705.653-1.644-.133-2.431-.359-.359-.653-.784-.653-.944 0-.381.953-.742 1.335-.506.163.101.297-.001.297-.247 0-.237-.281-.606-.625-.82-.872-.545-1.132-.096-1.598 2.766-.213 1.303-.563 2.652-.778 2.997-.736 1.178-2.745 1.16-2.37-.022.128-.404.037-.614-.268-.614-.749 0-3.87 3.84-4.297 5.287-.352 1.193-.57 1.396-2.116 1.973-1.374.513-1.885.569-2.519.28-.437-.199-1.279-.362-1.87-.362-1.182 0-1.832-.896-1.832-2.526 0-.49-.374-1.255-.866-1.768-.502-.524-.97-1.49-1.113-2.302-.136-.769-.475-2.01-.753-2.751-.384-1.029-.426-1.615-.177-2.447.181-.602.387-1.802.459-2.667.072-.865.424-2.421.783-3.457.884-2.555 1.258-5.384.686-5.193-.233.078-.599.831-.813 1.675-.214.843-.65 1.822-.969 2.174-.373.412-.521.948-.416 1.499.09.472-.112 1.613-.449 2.536-.337.923-.613 2.054-.613 2.514 0 .46-.174 1.011-.387 1.224-.45.45-.384 3.153.099 4.055.181.337.696.753 1.146.924l.818.311-.649.912-.649.912 1.082 1.058c.595.582 1.253 1.53 1.462 2.106 1.086 2.997 1.376 3.322 3.115 3.496 1.613.161 4.38 1.239 4.397 1.713.014.419-2.262.268-3.189-.21-.485-.25-1.872-.561-3.083-.691l-2.202-.235.181.935c.134.693-.077 1.34-.816 2.496-1.141 1.786-1.191 2.097-.49 3.097.774 1.105 1.469.935 1.369-.335-.077-.986-.006-1.068 1.023-1.166 1.487-.142 2.742.202 2.552.698-.107.278.236.397 1.105.386 1.267-.017 2.032.671 1.13 1.017-.795.305-.852 1.101-.179 2.495.358.742.571 1.605.472 1.917-.099.312-.035.834.142 1.159.45.825 1.389 5.959 1.158 6.332-.29.469-.797.011-.797-.72 0-.358-.306-1.323-.68-2.144-.374-.821-.76-1.985-.858-2.587-.254-1.566-.786-1.904-2.195-1.394-1.697.614-2.752.121-3.705-1.732-.939-1.824-2.535-2.65-3.245-1.68-.226.309-.411.698-.411.864 0 .166-.367.232-.816.146-.449-.086-.816-.053-.816.073 0 .357 1.575.986 2.471.986.563 0 .903.249 1.12.82.172.451.625 1.244 1.01 1.763.383.518.626 1.14.54 1.382-.422 1.184 1.086 2.071 1.996 1.174.332-.327.601-.199 1.362.648.522.581.869 1.264.771 1.518-.25.653-1.345.867-1.775.349-.199-.24-.572-.356-.828-.258-.744.285-.538.761.328.761.507 0 .869.236 1 .653.25.788.731.83 1.504.131.317-.287.712-.437.878-.335.278.172.448.727 1.432 4.677.188.755.247 1.753.13 2.217-.347 1.383.527 1.988 1.148.795m-13.09-2.099l.705-1.14-.678-.862c-.373-.474-.693-1.246-.712-1.715-.029-.717-.1-.645-.447.452-.365 1.156-.362 2.789.009 3.997.189.618.356.509 1.123-.732m.607-9.592c.534-.338.182-1.766-.389-1.578-.432.142-.729 1.872-.32 1.864.147-.003.466-.131.709-.286m20.532-6.507c.097-.296-.095-.4-.601-.326-.41.06-.81.305-.888.544-.097.296.095.4.601.326.41-.06.81-.305.888-.544m-12.981-.062c0-.423-1.581-1.04-2-.781-.511.316.366 1.115 1.225 1.115.427 0 .776-.15.776-.334m13.174-3.271c.438-.878.439-1.017.012-1.182-.618-.237-1.766.786-1.766 1.575 0 .993 1.196.725 1.754-.394m-19.12-2.127c1.315-.267 1.842-1.097 1.248-1.966-.234-.342-.517-.989-.628-1.437-.322-1.293-3.907-4.311-5.701-4.799-3.273-.889-3.33-.892-3.33-.136 0 .693.452.844 2.147.713.963-.074 1.993.868 3.01 2.752.635 1.175 1.238 1.797 2.172 2.236 1.235.582 1.264.63.653 1.077-.973.712-3.498.456-3.871-.391-.297-.675-1.583-1.453-2.402-1.453-.274 0-.406-.282-.343-.734.082-.589-.075-.755-.795-.837-.524-.06-.897-.302-.897-.581 0-.263-.257-.569-.571-.68-.804-.284-2.039-1.447-2.039-1.921 0-.219.22-.482.489-.585.755-.29.581-1.112-.366-1.733-.813-.533-.877-.531-1.291.036-.366.501-.358.786.048 1.776.266.649.769 1.547 1.116 1.996.347.449 1.261 1.73 2.031 2.847.769 1.117 1.693 2.127 2.052 2.245.359.118 1.062.503 1.563.856 1.705 1.201 2.706 1.327 5.706.718m15.408-5.706c0-.19-.147-.255-.326-.144-.179.111-.326.266-.326.346 0 .079.147.144.326.144.179 0 .326-.156.326-.346m1.958.009c0-.44-.851-.76-1.295-.486-.191.118-.263.351-.16.518.256.413 1.454.386 1.454-.033m6.04-3.579c-.111-.179-.405-.326-.653-.326-.248 0-.542.147-.653.326-.115.186.166.326.653.326.486 0 .767-.141.653-.326m24.363-6.316c1.137-.602 2.114-1.335 2.172-1.628.085-.432-.221-.364-1.618.361-1.938 1.01-5.097 1.233-6.522.469-.714-.382-1.709-2-1.743-2.839-.007-.179-.206-.666-.442-1.081-.562-.989-.242-1.365 2.547-2.994 2.053-1.199 2.246-1.249 3.616-.933 2.274.525 7.81-.644 7.81-1.65 0-.153-.672-.202-1.493-.11-1.33.15-1.481.101-1.387-.448.104-.602-.399-.691-1.607-.285-.582.196-.505.81.101.81.28 0 .418.147.307.326-.111.179-.785.326-1.498.326-1.973 0-1.984-.724-.04-2.543 1.939-1.814 3.708-4.531 4.317-6.629.24-.827.667-1.785.95-2.129.533-.65 3.143-2.337 4.993-3.23 2.173-1.048 2.499-1.283 2.666-1.92.094-.358.131-.691.082-.739-.173-.173-2.674 1.281-3.475 2.02-1.598 1.473-4.603 1.847-6.909.858-2.375-1.018-3.426-2.115-3.686-3.847-.333-2.221-.723-3.05-1.435-3.05-.971 0-1.049.772-.301 2.988.579 1.715 1.075 2.417 3.113 4.403 2.285 2.227 2.412 2.424 2.202 3.441-.344 1.667-1.705 4.49-2.268 4.706-.278.107-.506.341-.506.52 0 .18-.844 1.199-1.876 2.265-1.353 1.398-2.622 2.298-4.549 3.228-1.47.709-2.816 1.289-2.991 1.289-.175 0-1.079.382-2.01.848-1.036.52-2.042.796-2.603.714-.554-.081-.866.002-.792.212.068.191-1.526 1.154-3.541 2.141-2.836 1.389-3.664 1.941-3.664 2.443 0 1.037.836.933 3.875-.484 4.693-2.189 5.456-2.158 8.206.333.986.893 1.834 1.624 1.884 1.624.05 0 .893.288 1.873.641 2.577.927 3.844.839 6.241-.431m-62.47-1.469c1.117-.564 2.416-1.025 2.888-1.025.907 0 6.712 1.468 7.607 1.924.935.476 2.616.675 2.826.335.365-.59-.552-1.276-2.424-1.813-1.01-.29-3.207-1.11-4.886-1.824-1.679-.714-3.478-1.419-3.997-1.568-.852-.244-.944-.195-.944.504 0 .813-1.078 1.79-1.975 1.79-.289 0-.718.361-.954.803-.421.787-.492.8-3.726.658-2.796-.123-3.553-.281-4.99-1.04-1.887-.997-2.424-.862-1.597.4.761 1.161 1.493 1.427 5.248 1.909 3.636.467 4.04.406 6.924-1.052m61.848-1.533c2.753-1.21 6.02-3.626 5.55-4.1-.151-.151-1.495-.135-2.988.036-1.493.17-3.328.225-4.078.123-.883-.121-1.792-.008-2.578.32-1.272.531-1.499 1.237-.999 3.105.161.603 1.521 1.569 2.342 1.665.061.007 1.299-.51 2.751-1.148m-65.875-.638c.65-.272 1.182-.632 1.182-.801 0-.443-4.459-2.983-5.315-3.03-1.452-.076-3.02.099-3.476.39-.378.239-.397.46-.096 1.12.478 1.048 1.696 1.844 3.618 2.361 2.035.548 2.694.542 4.088-.041m4.383-2.791c-.064-.191-.7-.669-1.414-1.06-.714-.392-2.741-1.851-4.504-3.241-1.764-1.391-3.342-2.529-3.508-2.529-.508 0-.334 1.381.256 2.033.898.993.192 1.7-1.814 1.818-.924.054-1.679.235-1.679.402 0 .318 2.312.125 4.185-.35 1.306-.331 1.897-.152 3.068.93 1.434 1.324 3.27 2.281 4.439 2.314.637.018 1.04-.114.972-.317m-16.416-4.242c0-.654-.205-.816-1.239-.984-.77-.125-1.658-.607-2.344-1.272-.737-.715-1.288-1-1.654-.86-.491.188-.465.323.245 1.267.796 1.059 4.02 2.959 4.653 2.746.187-.062.34-.466.34-.896m86.48-.636c1.226-.758 2.765-2.65 2.765-3.399 0-.847-1.211-.605-1.435.287-.11.439-.628 1.051-1.15 1.359-.522.308-1.109.91-1.303 1.338-.601 1.32-.438 1.38 1.122.415m-80.49-5.479c-.615-1.802-.647-2.185-.277-3.306.33-1 .755-1.451 2.01-2.133.874-.476 1.589-.974 1.589-1.107 0-.133.531-.821 1.181-1.53 1.783-1.943 2.408-2.798 2.408-3.289 0-.977-.978-.351-2.104 1.346-1.326 1.998-1.958 2.451-3.421 2.451-.661 0-1 .162-1 .478 0 .791-1.229 1.202-3.365 1.126-2.529-.09-4.696-1.116-6.134-2.906-1.25-1.555-1.689-1.675-1.221-.333.422 1.212 1.777 2.372 4.191 3.591 1.842.93 2.622 1.741 3.087 3.212.394 1.246 3.175 5.02 3.477 4.716.154-.154-.034-1.192-.417-2.316" fill="#000"/>
</svg>
