<svg xmlns="http://www.w3.org/2000/svg" version="1.1" width="300" height="350">
 <path id="fill" d="m204.13 249.5c-.117-.117-.055-.508.138-.869.875-1.634-.795-2.171-2.441-.786-.943.793-1.977.841-1.977.092 0-.196.255-1.165.567-2.154.505-1.601.669-1.799 1.495-1.799.768 0 1.088-.293 1.85-1.693.678-1.246 1.374-1.952 2.632-2.673 1.97-1.128 3.369-2.511 3.762-3.721.15-.463.284-2.435.296-4.38.013-1.946.275-4.827.584-6.402.654-3.338 1.36-15.421 1.073-18.364-.204-2.094-1.443-6.2-2.491-8.255-.331-.649-2.441-2.999-4.689-5.223-2.248-2.224-4.349-4.316-4.668-4.648-.941-.981-3.115-3.292-5.565-5.916-1.713-1.835-2.476-2.425-3.03-2.346-.683.097-.763.353-.98 3.138-.257 3.309-.016 7.49.449 7.777.161.099.293.521.293.936 0 .415.17.925.377 1.132.44.44-.092 3.061-1.102 5.43-.343.803-.623 1.689-.623 1.969 0 .28-.303.894-.674 1.365-.371.471-.674 1.142-.674 1.49 0 .348-.141.896-.314 1.218-.173.322-.874 1.95-1.558 3.618-.684 1.668-1.588 3.715-2.01 4.549-1.059 2.101-1.848 3.923-1.847 4.263.0001.157-.291.893-.649 1.634-.972 2.02-3.077 6.641-4.986 10.951-.369.834-.776 1.949-.904 2.478-.414 1.715-1.218 2.568-2.794 2.965-1.845.465-4.811 3.07-5.803 5.098-.599 1.223-.965 1.519-2.636 2.128-1.067.389-3.01.877-4.323 1.084-1.31.207-3.38.71-4.599 1.117-2.125.71-2.266.717-3.417.17-.66-.313-1.548-.483-1.972-.377-.424.106-1.056-.015-1.403-.27-.536-.392-.57-.579-.226-1.223.224-.418.915-.972 1.536-1.232.621-.259 1.224-.626 1.341-.814.116-.188.471-.342.788-.342.317 0 1.484-.602 2.592-1.338 1.108-.736 2.181-1.343 2.383-1.348.203-.005.637-.306.964-.667.329-.364 1.444-.831 2.495-1.045 2.126-.433 3.493-1.163 4.814-2.57 1.352-1.439 2.646-3.495 2.646-4.203 0-.347.464-1.577 1.031-2.733 1.35-2.752 4.02-9.02 4.02-9.431 0-.177.387-1.093.86-2.034 1.127-2.245 2.259-5.763 4.195-13.04.681-2.561 1.095-6.082 1.11-9.435.016-3.515-.526-5.715-2.119-8.602-.514-.932-.99-1.94-1.058-2.24-.16-.708-4.378-5.63-8.125-9.481l-2.947-3.03-4.972.603c-5.03.61-7.813 1.507-10.156 3.274-.442.333-1.033.606-1.313.606-.28 0-1.283.512-2.229 1.137-.946.625-3.994 2.068-6.774 3.207-2.78 1.138-5.318 2.219-5.639 2.401-.322.182-.754.331-.96.331-.206 0-.853.212-1.437.471-1.627.723-5.5 1.572-6.106 1.339-.862-.331-1.773.794-2.03 2.506-.13.869-.382 1.852-.56 2.184-.178.332-.55 1.903-.827 3.492-.277 1.589-.707 3.44-.954 4.114-.248.674-.641 2.135-.875 3.247-.234 1.112-.641 2.856-.905 3.875-.264 1.019-.761 3.142-1.104 4.717-.343 1.575-.712 3.092-.821 3.37-.108.278-.338 1.491-.51 2.696-.402 2.81-.596 3.729-1.355 6.402-.988 3.48-2.099 9.97-2.366 13.815-.34 4.89-1.351 6.72-3.176 5.743-1.369-.733-2.282-.312-3.623 1.67-.69 1.019-1.262 2.01-1.272 2.205-.025.476-3.01 3.262-4.673 4.364-1.361.901-5.942 2.224-6.714 1.939-.237-.087-.383-.612-.337-1.214.071-.936-.031-1.073-.868-1.169-.522-.06-1.331.142-1.798.448-2.28 1.494-.824-1.094 2.081-3.698 1.234-1.106 2.52-2.554 2.858-3.217.552-1.081.914-1.303 3.507-2.147 2.403-.782 3.089-1.172 4.06-2.306 1.811-2.115 3.187-6.951 5.59-19.635.211-1.112.531-2.394.712-2.85.181-.455.468-2.73.638-5.05.17-2.325.466-5.819.657-7.765.43-4.365.521-11.972.175-14.583l-.259-1.947-2.74-1.36c-1.507-.748-3.271-1.653-3.919-2.01-1.408-.779-2.722-.831-4.02-.16-2.42 1.252-6.272 2.307-10.543 2.889-6.156.839-7.02 1.106-8.63 2.667-2.037 1.976-2.12 3.047-.55 7.04.703 1.789 1.839 4.314 2.525 5.611.685 1.297 1.662 3.154 2.169 4.126.508.972 1.683 2.564 2.611 3.538 2.59 2.717 2.934 3.41 2.72 5.484l-.183 1.776 1.631 1.184c1.29.936 2.155 1.262 4.136 1.556 1.378.205 2.893.56 3.367.788.955.461 4.431 5.457 4.431 6.368 0 .903-.566 1.038-1.833.437-1.678-.796-1.909-.487-1.658 2.215.278 2.995-.144 3.694-1.603 2.655-.536-.382-1.373-1.508-1.861-2.504-.771-1.574-1.302-2.088-4.068-3.935-1.75-1.169-3.83-2.505-4.622-2.968-2.955-1.728-4.833-4.149-5.754-7.413-.131-.463-.481-1.221-.779-1.685-.63-.979-1.612-2.769-2.311-4.212-.269-.556-.652-1.307-.851-1.669-1.182-2.155-2.912-5.959-3.302-7.26-.25-.834-.714-1.82-1.031-2.19-.317-.371-.687-1.053-.823-1.516-.136-.463-.442-1.07-.681-1.348-.815-.95-2.182-4.832-2.182-6.196 0-.749.244-2 .543-2.784.468-1.225.859-1.587 2.829-2.623 1.258-.661 2.443-1.201 2.635-1.201.46 0 2.525-1.285 3.904-2.431.606-.503 1.467-1.074 1.913-1.268.446-.194 1.278-.637 1.848-.983.57-.347 1.516-.735 2.102-.864.586-.129 1.158-.383 1.271-.566.113-.183.565-.469 1.01-.636.484-.184.879-.676.999-1.243.109-.516.417-1.437.683-2.045.267-.609.485-1.325.485-1.593 0-.267.379-.735.842-1.038 1.027-.673 1.083-1.58.136-2.209-.699-.464-.694-.482.505-1.792 1-1.093 1.212-1.577 1.212-2.784 0-1.62-.638-2.172-1.725-1.493-.344.215-.871.39-1.172.39-.567 0-.569.102.065-3.5.116-.656.023-1.473-.217-1.922-.23-.43-.446-1.588-.481-2.574-.045-1.294-.287-2.095-.869-2.879-.522-.704-.933-1.918-1.166-3.445l-.36-2.359-1.165.06c-.641.033-1.658.164-2.261.291-1.614.34-1.424-.506.41-1.823 1.106-.794 1.788-1.673 2.571-3.313.586-1.228 1.107-2.624 1.158-3.104.183-1.728.585-3.054 1.041-3.432.591-.491.591-1.331-.0001-2.472-.568-1.095-.182-3.227.815-4.494.364-.463.662-1.032.662-1.265 0-.233.238-.515.529-.627.97-.372.429-1.685-.866-2.104-1.446-.467-1.53-1.204-.168-1.484 2.225-.457 6.908-4.546 6.908-6.03 0-.809 2.869-3.194 4.97-4.132 1.072-.478 1.432-.83 1.432-1.398 0-1.257.606-1.564 2.668-1.352 1.804.185 1.946.14 3.48-1.106 1.997-1.623 2.174-2.818.539-3.634-.584-.292-1.268-.53-1.519-.53-.251 0-1.085-.455-1.852-1.01-.768-.556-1.819-1.01-2.336-1.01-.517 0-1.034-.152-1.149-.337-.115-.185-.428-.337-.697-.337-.269 0-1.17-.32-2-.711-.998-.469-1.885-.65-2.608-.533-4.426.718-6.07.861-7.888.684-1.991-.193-2.166-.288-4.296-2.336-2.109-2.028-2.221-2.214-2.221-3.695 0-2.644 2.038-4.528 4.898-4.528 1.214 0 3.31-.455 4.706-1.022 1.144-.465 2.592-.747 5.223-1.019 1.39-.144 3.21-.433 4.04-.642.834-.209 2.047-.507 2.696-.661.649-.154 2.62-.665 4.38-1.134 7.108-1.896 7.296-2.038 6.05-4.582-.418-.855-.957-1.785-1.199-2.067-.242-.282-.541-1.501-.664-2.709-.41-4.01 1.106-8.955 3.635-11.863 1.749-2.01 3.381-4.995 3.549-6.493.12-1.063.376-1.638.84-1.886 2.094-1.121 2.252 3.732.27 8.29-.843 1.938-1.948 5.817-2.163 7.593-.206 1.705.346 3.634 1.19 4.16.446.278.843.096 1.924-.881.805-.728 2.091-1.444 3.145-1.753 1.566-.459 2.265-1.01 5.742-4.523 2.178-2.201 3.959-4.226 3.959-4.5 0-.9 1.377-2.318 2.145-2.209.84.12.903 1.14.179 2.891-.581 1.406-.126 2.226 1.316 2.37.893.089 1.194-.102 2.072-1.314.565-.78 1.028-1.628 1.028-1.885 0-.971 1.749-3.86 3.24-5.351.853-.853 2.482-1.981 3.62-2.507 4.508-2.084 6.955-2.57 6.955-1.381 0 .456-.651.951-2.274 1.731-4.084 1.961-6.657 4.632-6.422 6.667.095.821.228.9 1.452.862 2.02-.063 10.298-1.42 11.457-1.878 1.561-.616 3.795-2.427 5.095-4.13 1.229-1.61 5.04-4.324 6.579-4.686.637-.15.949-.059 1.094.318.258.673-.143 1.408-1.837 3.366-.862.996-1.326 1.839-1.261 2.292.092.647.347.727 2.597.817 2.332.094 2.618.025 4.38-1.051 1.037-.633 2.492-1.411 3.233-1.729.741-.318 1.595-.707 1.896-.864.302-.157 1.135-.392 1.853-.521.718-.13 1.482-.375 1.698-.546.351-.277 1.914-.546 6.852-1.177 1.627-.208 7.871.473 8.845.964.827.417.734 1.519-.168 2.01-.417.226-1.895.52-3.285.654-4.855.466-13.65 2.028-14.742 2.617-.474.256-.758.724-.758 1.248 0 .961.703 1.32 3.875 1.978 1.994.414 2.02.435 2.02 1.569v1.15l-2.304.1c-1.892.082-2.524-.032-3.538-.642-1.143-.688-1.608-.737-6.275-.672-2.773.039-5.199.19-5.391.335-.193.146-2.094.445-4.225.665-4.597.474-7.679.911-11.127 1.577-1.394.269-3.171.49-3.947.49-.777 0-2.065.221-2.862.492-.797.271-2.281.667-3.297.882-1.649.348-2.777.788-4.375 1.709-.278.16-.733.385-1.01.499-3.878 1.597-7.231 3.856-8.726 5.878-.995 1.346-.857 2.993.302 3.607.927.491 7.774.303 10.951-.302.927-.176 4.861-.329 8.742-.339l7.06-.019 2.633-2.575c1.448-1.416 3.124-2.848 3.725-3.181.601-.333 1.547-.9 2.103-1.26 2.654-1.718 3.737-2.129 5.695-2.159 2.626-.041 2.77.534.412 1.649-3.303 1.562-6.718 5.271-6.17 6.7.283.737 1.546.7 4.802-.142 7.57-1.957 11.864-4.152 15.816-8.08 4.369-4.348 7.605-6.335 8.757-5.38.743.617.624 1.767-.319 3.07-2.141 2.96-2.423 4.625-.857 5.057 2.506.692 7.871-.138 12.356-1.911 4.274-1.69 5.85-.471 2.92 2.259-1.507 1.404-4.986 2.68-8.706 3.194-1.853.256-3.524.523-3.713.593-.189.07-1.89-.073-3.779-.317-3.473-.45-4.318-.368-6.535.629-.625.281-2.122.931-3.326 1.443-1.205.513-2.429 1.132-2.721 1.376-.292.245-1.238.577-2.103.738-1.802.337-2.589.871-2.589 1.759 0 1.313 1.126 1.489 9.266 1.446 7.917-.042 8.542.056 7.908 1.24-.343.641-1.186 1.01-4.605 1.993-1.997.577-3.425.706-8.09.733-5.777.033-7.598-.206-10.272-1.353-1.117-.479-1.669-.978-2.111-1.909l-.598-1.26-2.237.211c-1.23.116-2.742.212-3.359.214-.858.002-1.432.316-2.444 1.338-.727.735-2.473 1.889-3.88 2.566-2.221 1.068-2.893 1.233-5.103 1.254-2.424.022-2.583-.024-3.337-.965-.435-.544-.792-1.325-.793-1.735-.003-1.155-1.057-1.478-4.468-1.372-3.034.094-3.115.118-3.115.903 0 .443.227.931.505 1.084.278.153 2.13 1.197 4.115 2.32 3.933 2.224 6.923 3.121 8.05 2.416.741-.463 1.752-.521 1.591-.092-.229.611-3.542 2.974-5.399 3.85-1.054.497-2.343.91-2.864.916-.521.007-1.327.229-1.79.493-.463.265-1.392.487-2.064.493-.672.007-1.866.239-2.654.517-1.704.601-3.536.647-5.03.127-1.616-.564-1.869-.096-1.894 3.51-.018 2.608-.193 3.576-1.095 6.07-.59 1.632-1.454 3.466-1.919 4.075-.588.77-.845 1.533-.845 2.502 0 1.194-.117 1.423-.818 1.599-1.053.264-1.615.905-2.887 3.289-.57 1.068-1.569 2.684-2.222 3.592-2.65 3.689-6.204 10.948-6.204 12.672 0 2.081.708 3.795 2.08 5.03 1.834 1.657 2.828 1.548 6.648-.723 2.557-1.52 3.414-1.556 36.424-1.529 16.894.014 19.574-.085 20.05-.741.333-.456.451-.462.865-.048.366.366 2.032.528 7.05.684 3.614.113 7.686.421 9.05.686 1.363.264 3.365.481 4.448.481 2.58 0 5.34.606 6.344 1.392.442.346 1.017.63 1.278.63 1.452 0 6.848 7.07 6.848 8.967 0 .36.212.957.47 1.326.259.369.777 2.089 1.153 3.822.793 3.656 1.992 5.534 3.634 5.69 2.154.204 2.494.388 2.486 1.346-.012 1.499-1.206 3.784-1.978 3.784-.369 0-.764.152-.879.337-.115.185-.873.337-1.685.337-.812 0-1.57-.152-1.685-.337-.115-.185-.593-.337-1.063-.337-.47 0-1.257-.278-1.749-.618-1.6-1.106-4.056-2.13-4.843-2.02-.672.095-.797.363-.994 2.131-.124 1.112-.316 2.805-.428 3.762-.111.957-.522 2.928-.913 4.38-1.126 4.182-1.145 4.691-.222 5.93.799 1.072 2.293 4.378 2.293 5.074 0 .195.273.668.606 1.05.333.383 1.262 2.212 2.064 4.065 2.33 5.382 3.163 6.961 3.94 7.47.829.543 1.491 2.688 1.132 3.668-.132.36-.252 2.172-.267 4.02-.015 1.853-.133 4.658-.263 6.234-.13 1.575-.292 3.85-.362 5.05-.069 1.205-.265 4.237-.436 6.739-.227 3.334-.193 5.562.129 8.341.241 2.086.365 4.178.275 4.649-.091.478-.872 1.454-1.766 2.208-1.481 1.249-1.614 1.488-1.752 3.161-.105 1.263-.413 2.155-1.02 2.951-.479.627-1.1 1.691-1.381 2.363-.38.91-.9 1.399-2.034 1.916-.838.382-1.706.694-1.928.694-.223 0-1.053.531-1.844 1.179-1.384 1.134-2.153 1.419-2.606.967" fill="#d00"/>
 <path id="outline" d="m204.2 249.23c-.111-.29-.031-.698.179-.907.209-.209.381-.653.381-.985 0-.854-1.096-.767-2.242.178-1.321 1.089-2.01 1.279-2.494.69-.339-.409-.266-.807.395-2.134.447-.897 1.222-1.906 1.723-2.243.501-.337 1.279-1.282 1.729-2.101.571-1.039 1.516-1.956 3.122-3.03 3-2.01 3.478-2.953 3.478-6.912 0-1.661.227-4.609.505-6.552.802-5.615 1.429-15.374 1.167-18.15-.278-2.939-.652-4.248-2.153-7.517-.996-2.169-1.837-3.139-8.895-10.258-4.287-4.324-8.02-8.303-8.301-8.841-.291-.563-.726-.934-1.026-.873-.404.082-.547.704-.643 2.793-.068 1.478-.203 3.142-.301 3.697-.181 1.031.446 4.485 1.177 6.49.681 1.865-.0001 4.86-2.193 9.637-.254.554-.864 2.066-1.355 3.36-.491 1.294-1.239 3.108-1.662 4.03-.423.924-1.22 2.663-1.772 3.864-.552 1.201-1.116 2.562-1.254 3.02-.138.462-.524 1.369-.858 2.02-.334.647-1.087 2.31-1.674 3.696-1.064 2.511-2.378 5.387-3.26 7.137-.255.507-.695 1.696-.976 2.644-.622 2.096-1.662 3.202-3.298 3.509-1.544.29-4.54 2.956-5.357 4.766-.492 1.09-.923 1.442-2.665 2.176-1.143.481-2.933.964-3.978 1.072-1.044.109-2.859.498-4.03.866-2.326.729-4.159.869-4.485.341-.114-.185-.959-.336-1.878-.336-1.233 0-1.726-.143-1.88-.546-.351-.914.728-2.207 2.356-2.825.846-.321 2.47-1.206 3.608-1.966 1.139-.76 2.234-1.383 2.434-1.383.2 0 .756-.376 1.235-.835.54-.518 1.559-.966 2.679-1.178.994-.188 2.269-.612 2.833-.942 1.335-.78 3.836-3.858 4.089-5.03.109-.504.589-1.749 1.067-2.765 2.025-4.303 3.239-7.04 4.175-9.408.547-1.386 1.281-3.125 1.629-3.864.349-.739 1.022-2.705 1.497-4.368.475-1.663 1.087-3.594 1.361-4.291.274-.697.498-1.727.498-2.29 0-.563.178-1.354.396-1.757 1.159-2.151 1.286-10.333.21-13.462-.875-2.542-2.498-5.758-3.582-7.096-1.813-2.238-4.395-5.114-7.05-7.857l-2.806-2.895-2.171.084c-1.194.046-2.454.235-2.799.42-.345.185-1.485.336-2.532.336-1.983 0-2.182.088-11.244 4.973-1.201.647-2.411 1.295-2.688 1.439-.277.144-1.411.591-2.52.994-1.109.403-2.786 1.093-3.727 1.534-4.257 1.996-9.06 3.46-11.41 3.481-1.621.014-2.167.472-2.167 1.814 0 .547-.22 1.765-.489 2.705-.269.94-.883 3.448-1.366 5.574-.483 2.125-1.088 4.62-1.345 5.544-.603 2.166-1.485 5.812-1.666 6.888-.078.462-.31 1.596-.516 2.52-.206.924-.529 2.512-.718 3.528-.189 1.016-.77 3.587-1.29 5.712-1.49 6.079-2.44 11.612-2.683 15.624-.195 3.213-.342 3.883-1.127 5.124-.999 1.579-1.306 1.674-2.872.893-1.314-.656-1.572-.478-3.111 2.14-1.336 2.274-4.698 5.726-6.343 6.515-1.575.755-5.731 1.846-6.461 1.696-.719-.148-.771-1.182-.088-1.749.275-.228.417-.549.316-.713-.296-.478-1.25-.347-2.643.363-.713.364-1.426.581-1.583.484-.705-.436-.108-1.409 2.284-3.725 1.414-1.369 2.975-3.125 3.47-3.902.812-1.277 1.181-1.509 3.81-2.396 1.601-.54 3.19-1.296 3.532-1.68 1.019-1.144 2.01-2.983 2.385-4.403 1.457-5.591 2.929-11.907 3.215-13.796.081-.538.387-1.961.678-3.162.482-1.989.727-4.148 1.827-16.13.373-4.057.308-13.368-.096-14.02-.13-.21-1.103-.776-2.162-1.257-1.059-.481-2.303-1.104-2.765-1.384-2.992-1.812-4-1.82-8.568-.07-1.663.637-4.082 1.333-5.376 1.546-8.898 1.464-8.816 1.444-10.21 2.47-2.106 1.549-2.366 2.874-1.234 6.274 1.694 5.086 5.925 12.644 8.31 14.844 1.681 1.551 2.376 3.246 1.946 4.746-.458 1.598-.501 1.514 1.44 2.795 1.245.822 2.414 1.267 3.974 1.513 3.677.579 3.99.784 6.106 3.992 2 3.03 2.244 3.749 1.486 4.378-.333.276-.778.201-1.751-.295-.718-.366-1.368-.665-1.446-.665-.078 0-.069 1.119.019 2.488.088 1.368.025 2.729-.141 3.02-.737 1.318-2.562.002-3.915-2.824-.681-1.421-3.344-3.696-4.327-3.696-.203 0-.419-.116-.481-.259-.158-.366-3.852-2.765-4.257-2.765-.526 0-2.89-2.392-3.701-3.746-.404-.674-1.034-2.094-1.399-3.155-.365-1.061-.836-2.137-1.046-2.39-.47-.567-1.418-2.245-2.152-3.813-.303-.647-1.218-2.509-2.034-4.139-.816-1.63-1.485-3.142-1.486-3.36-.002-.218-.373-1.078-.824-1.909-.451-.832-1-1.89-1.222-2.352-.221-.462-1.06-2.214-1.864-3.894-1.569-3.277-1.665-3.861-1.087-6.557.419-1.954 1.303-2.968 3.456-3.967.757-.351 2.238-1.038 3.29-1.525 1.052-.488 2.391-1.334 2.976-1.88.584-.546 1.25-.993 1.479-.993.229 0 .673-.284.987-.631.314-.347 1.434-.9 2.488-1.23 2.469-.772 4.55-2.066 4.313-2.684-.227-.592.723-3.496 1.399-4.276.28-.323.713-.588.962-.588.249 0 .452-.302.452-.672 0-.451-.224-.672-.683-.672-1.166 0-1.124-.904.1-2.128 1.064-1.064 1.591-2.376 1.591-3.962 0-.816-.847-.806-1.9.023-.457.359-1.048.57-1.313.468-.552-.212-.669-2.31-.147-2.633.454-.281.426-2.395-.043-3.272-.208-.389-.363-1.421-.343-2.293.027-1.183-.18-1.904-.814-2.838-.921-1.358-.951-2.375-.068-2.306.305.024.635-.165.733-.42.127-.33-.112-.463-.83-.463-1.149 0-1.544-.638-1.012-1.633.264-.494.258-.743-.022-.916-.247-.152-.066-.405.503-.703 1.131-.593 1.139-1.116.017-1.116-.582 0-.928.218-1.043.657-.197.755-3.03 1.841-3.913 1.501-.959-.368-.616-1.092 1.136-2.4 1.953-1.458 3.209-3.795 3.722-6.928.177-1.079.623-2.37.992-2.868.636-.86.642-.962.117-2.01-.383-.768-.487-1.517-.339-2.441.21-1.315 1.596-3.802 2.522-4.526.803-.628.175-1.425-1.212-1.539-1.032-.085-1.3-.252-1.386-.863-.059-.417.092-.815.336-.886.244-.07 1.085-.302 1.87-.516 1.755-.477 5.172-3.677 5.766-5.401.453-1.313 3.344-3.624 5.491-4.39 1.111-.396 1.26-.581 1.26-1.558v-1.109h2.316c2.109 0 2.438-.098 3.68-1.092 2.344-1.876 2.113-2.871-.91-3.935-.672-.236-1.524-.698-1.894-1.025-.37-.328-1.201-.706-1.848-.84-1.458-.303-3.02-1.083-3.02-1.506 0-.174-.238-.226-.528-.114-.293.112-.978-.13-1.538-.544-.86-.635-1.068-.675-1.404-.268-.591.717-3.601 1.26-6.988 1.26h-3.01l-1.412-1.318c-.777-.725-1.851-1.682-2.388-2.127-.807-.669-1-1.127-1.128-2.645-.135-1.626-.048-1.961.76-2.921 1.246-1.481 1.923-1.785 4.679-2.101 1.307-.15 3.308-.573 4.448-.941 1.139-.368 3.18-.772 4.536-.899 1.356-.127 3.296-.454 4.313-.728 1.016-.273 2.377-.608 3.02-.744.647-.136 1.705-.416 2.352-.622.647-.206 2.537-.709 4.2-1.118 3.616-.889 4.09-1.104 4.368-1.98.222-.7 1.319-.92 1.68-.336.257.416 1.176.445 1.176.037 0-.164-.293-.656-.65-1.092-.628-.766-.666-.771-1.118-.164-.719.968-1.641.436-2.723-1.573-.853-1.583-.963-2.132-.968-4.79-.007-3.513.834-6.482 2.53-8.931 3.749-5.414 4.374-6.503 4.531-7.888.092-.816.438-1.692.796-2.02.548-.496.746-.513 1.47-.125.754.403.837.655.837 2.531 0 2.037-.182 2.705-2.513 9.227-.601 1.682-.936 3.378-1.01 5.1-.059 1.419-.2 2.732-.315 2.917-.114.185-.053.432.136.549.565.349 1.772-.185 3.09-1.368.682-.612 2.031-1.347 2.998-1.634 1.497-.444 2.187-.972 4.648-3.547 2.62-2.742 4.051-3.675 4.051-2.641 0 .211-.447.854-.993 1.428-.546.574-1.718 1.862-2.604 2.862-.886 1-2.026 2.269-2.535 2.822-.508.552-.929 1.247-.934 1.543-.006.296-.383 1.143-.838 1.882-.532.864-.828 1.846-.83 2.749-.0001 1.184-.116 1.421-.731 1.512-1.16.171-1.081.837.129 1.087 1.053.218 1.074.252.453.717-.359.268-.93.488-1.271.488-.485 0-.607.236-.564 1.092.03.601-.055 1.351-.188 1.666-.186.44.021.685.88 1.045 1.023.429 1.315.399 3.285-.331 1.625-.602 3.318-.879 6.814-1.114 2.559-.172 5.551-.49 6.649-.706 2.289-.45 6.628.016 7.102.763.153.242.281.822.284 1.289.003.467.253 1.203.555 1.634.475.678.763.765 2.118.634 1.731-.166 5.788-1.934 7.03-3.066 2.219-2.01 8.922-10.724 8.713-11.321-.222-.633-2.329.855-4.808 3.395-2.381 2.439-2.714 2.666-3.926 2.666-1.419 0-2.625.478-2.625 1.041 0 .19.265.318.588.285 1.707-.174 1.975.67.504 1.584-.508.316-1.246.858-1.64 1.205-1.185 1.044-4.156.782-4.156-.367 0-.316.203-.873.452-1.237.248-.365.537-1 .641-1.42l.189-.758-6.03.159c-3.318.088-6.194.259-6.392.382-.198.122-2.175.348-4.393.502l-4.03.28-1.418-.976-1.418-.976.264-1.785c.385-2.609.877-4.072 1.798-5.352.45-.625 1.075-1.639 1.39-2.252.315-.614.977-1.521 1.47-2.02 2.429-2.437 3.163-3.47 2.677-3.77-.262-.162-.835-.204-1.273-.094l-.797.2.626-.951c.344-.523.777-1.41.962-1.971.436-1.324 1.935-1.931 2.751-1.115.518.518.517.645-.016 1.831-.315.701-.605 1.728-.646 2.282-.07.961-.018 1 1.103.894 1.407-.136 2.153-.741 2.688-2.179 1.425-3.831 3.145-6.311 5.481-7.903 1.819-1.24 3.115-1.572 3.385-.869.246.641.824.329 1.194-.644.18-.473.804-.879 1.802-1.173 1.919-.565 2.724-.418 2.859.521.088.616-.285.926-2.269 1.889-1.306.633-3.073 1.724-3.927 2.424-1.592 1.305-2.899 3.568-2.564 4.441.214.557.592.526 7.143-.581 6.424-1.086 6.533-1.134 9.576-4.253 4.143-4.246 7.782-6.434 8.877-5.339.459.459.45.628-.087 1.625-.329.612-1.195 1.745-1.923 2.518-1.47 1.56-1.552 1.804-.814 2.417.713.591 4 .166 5.707-.737 6.08-3.224 8.89-4.18 14.734-5.01 2.403-.342 3.565-.34 6.05.008 4.01.562 5.342 1.104 5.198 2.114-.159 1.118-1.762 1.764-4.507 1.816-1.311.025-2.671.2-3.02.388-.353.188-1.548.451-2.657.585-3.418.411-8.624 1.47-9.08 1.845-.236.196-.352.652-.258 1.014.172.659 1.169 1.043 3.959 1.526 1.725.298 2.184.682 2.184 1.825 0 1.29-.525 1.584-2.934 1.646-1.594.041-2.436-.126-3.528-.7-1.325-.696-1.805-.747-6.301-.658-2.676.053-5.02.215-5.208.362-.188.146-1.173.29-2.19.319-1.016.029-2.141.144-2.498.256-.358.112-1.341.247-2.184.3-3.423.214-6.275.556-6.91.829-1 .432-2.785.726-5.04.834-1.109.053-2.918.416-4.02.806-1.102.39-2.283.71-2.622.71-.6 0-1.486.362-5.859 2.392-1.147.533-2.263.968-2.479.968-.216 0-.983.491-1.705 1.092-3.418 2.846-4.322 3.816-4.521 4.854-.179.936-.077 1.152.804 1.688.949.577 1.297.587 5.834.162 2.654-.248 8.431-.516 12.839-.595l8.01-.143 2.657-2.599c1.461-1.429 3.147-2.871 3.746-3.203.599-.332 1.543-.901 2.097-1.264 3.042-1.993 6.971-2.955 7.831-1.918.578.697.179 1.489-.883 1.754-2.115.528-5.435 3.235-6.481 5.285-1.118 2.191-.682 2.255 4.909.714 7.578-2.088 11.25-4.01 15.16-7.955 2.634-2.654 4.168-3.904 5.935-4.835 1.797-.947 2.425-.951 3.078-.019.747 1.067.657 1.655-.497 3.248-1.609 2.222-2.209 3.662-1.726 4.146 1.223 1.223 8.303.337 13.02-1.629 1.227-.511 2.501-.807 3.192-.741.969.092 1.167.254 1.256 1.024.171 1.484-1.921 3.334-5.145 4.552-2.905 1.097-5.823 1.551-10.129 1.575-2.251.013-2.865-.1-3.456-.636-.639-.579-.857-.605-1.967-.236-1.6.532-5.237 2.141-8.568 3.791-1.439.713-2.968 1.296-3.399 1.296-.773 0-2.553 1.151-2.553 1.65 0 1.135 8.474 1.69 13.47.882 3.421-.553 4.338-.346 4.338.98 0 1.101-1.531 1.977-5.04 2.884-2.621.678-3.381.722-9.24.542-5.33-.164-6.689-.311-8.232-.895-1.951-.738-3.02-1.691-3.02-2.685 0-.899-.745-1.025-3.786-.642-3.366.425-4.363.781-4.79 1.713-.18.393-1.517 1.334-2.972 2.09-2.323 1.208-2.969 1.39-5.319 1.497-2.53.115-2.727.072-3.625-.788-.522-.5-1.042-1.404-1.155-2.01l-.206-1.097-2.851-.231c-2.854-.232-4.779.177-4.638.985.06.34.223.446 1.958 1.273.554.264 2.369 1.242 4.03 2.173 3.297 1.845 5.935 2.484 7.142 1.731.779-.486 1.834-.193 1.565.434-.219.509-3.35 2.953-3.783 2.953-.163 0-.699.316-1.19.702-1.621 1.275-5.414.211-4.25-1.192.191-.23.795-.337 1.403-.247.877.129 1.031.06.861-.383-.114-.297-.062-.629.114-.738.663-.41.27-.863-1.443-1.667-.97-.455-2.029-.982-2.352-1.172-1.992-1.166-5.75-2.972-6.64-3.192-.464-.115-1.744.026-2.843.312-1.099.286-2.548.52-3.22.52-.672 0-1.661.214-2.197.475-.648.316-1.822.442-3.496.375-3.184-.127-2.941-.06-3.199-.871-.121-.381-.594-.863-1.052-1.072-.714-.325-.82-.576-.748-1.757.108-1.754-.204-2.307-1.048-1.855-.346.185-1.201.337-1.9.337-.699 0-1.881.209-2.626.465-.745.256-2.565.735-4.04 1.066-1.478.331-3.066.786-3.528 1.01-.462.225-2.579.601-4.704.835-2.125.234-4.242.609-4.704.834-.462.225-1.974.676-3.36 1-1.386.327-2.822.712-3.192.856-.37.144-1.255.343-1.968.441-2.01.279-2.904 1.022-2.904 2.424 0 1.255.493 2.49.993 2.49.164 0 .389-.419.502-.931.311-1.415 1.584-2.852 2.287-2.582.785.301.743.602-.308 2.19-1.15 1.737-.789 2.184 1.456 1.806 2.325-.391 5.713-.319 6.257.133.553.459.908.188.908-.695 0-.861 1.369-.672 1.84.254.431.849 1.418 1.827 2.647 2.625 1.09.708 1.433.569.928-.374-.8-1.495.901-1.461 2.223.044 1.304 1.486 4.196 3.054 5.164 2.801.408-.107 1.134.009 1.614.257.786.406 2.065.657 2.846.558.161-.02.106-.262-.122-.537-.799-.963.593-.983 2.033-.03 1.12.741 1.559.85 2.596.645.686-.136 1.512-.208 1.836-.16.716.106.786-.572.086-.841-.947-.363-.17-.73 1.166-.551 1.195.16 1.37.09 1.657-.665.188-.496.882-1.103 1.679-1.471 1.542-.712 1.588-1.152.173-1.63-.539-.182-1.101-.523-1.249-.756-.148-.233-.479-.425-.736-.425-.885 0-.882-.674.005-1.011 1.409-.536 4.528 1.095 4.528 2.368 0 .319-.302.66-.672.756-.799.209-.936 1.583-.157 1.583.283 0 .571-.189.64-.42.509-1.706.396-1.642 1.865-1.055 1.095.438 1.542.468 2.3.154.676-.28 1.202-.29 1.871-.036.724.275 1.188.231 2.095-.199.929-.441 1.335-.475 2-.17 1.17.533 1.753.48 2.675-.245.99-.779 2.5-.586 2.5.319 0 .847-1 1.317-2.814 1.317-.833 0-1.608.151-1.722.336-.271.438-5.777.438-6.05 0-.265-.428-2.08-.44-2.343-.015-.109.177-.421.236-.692.132-.271-.104-.493-.022-.493.183 0 .205.437.372.972.372 1.2 0 1.38.429 1.38 3.297 0 3.154-1.589 8.08-3.221 9.976-.588.684-.811 1.345-.811 2.403 0 .903-.152 1.46-.399 1.46-.633 0-2.632 1.477-2.501 1.848.133.375-1.22 2.883-2.287 4.242-.381.485-.995 1.38-1.365 1.989-.37.609-1 1.649-1.407 2.31-.833 1.363-3.128 6.02-3.793 7.691-.719 1.811.025 4.416 1.692 5.922 1.817 1.642 2.956 1.558 6.259-.462.589-.36 1.647-.809 2.352-.997 2.025-.541 8.369-.794 16.569-.659 9.531.157 22.818.136 31.03-.048 4.739-.106 6.38-.251 6.504-.573.207-.54 1-.564 1.177-.035.088.265 1.345.42 3.808.471 5.796.118 11.619.484 13.08.823.739.171 2.298.314 3.463.319 2.793.011 4.8.546 7.274 1.937 2.553 1.436 4.866 3.747 6.14 6.135 1.15 2.155 3.115 8 3.115 9.272 0 2.257 2.049 4.672 3.965 4.672.943 0 1.311.178 1.612.78.448.897.148 2.67-.659 3.902-1.094 1.67-5.753 1.697-8.282.048-.649-.423-1.556-.888-2.02-1.032-.46-.144-1.196-.544-1.637-.888-.441-.344-.916-.626-1.056-.626-.368 0-.724.998-.837 2.352-.319 3.808-.9 7.249-1.667 9.877-.866 2.969-.868 2.994-.216 3.696.655.706 2.095 3.655 2.56 5.243.135.462.514 1.142.841 1.512.327.37.709 1.05.848 1.512.139.462.629 1.672 1.087 2.688 2.149 4.764 3.217 6.756 3.781 7.06.752.403 1.431 2.337 1.195 3.408-.096.434-.267 2.982-.381 5.662-.282 6.606-.425 9.37-.671 12.936-.307 4.448-.302 10.303.011 14.03l.276 3.279-1.898 1.838c-1.737 1.682-1.898 1.962-1.898 3.308 0 1.033-.247 1.809-.833 2.612-.458.628-1 1.52-1.212 1.982-.208.462-.49 1.067-.626 1.344-.268.547-2.896 1.962-3.713 1.999-.277.013-1.168.551-1.979 1.196-1.614 1.283-2.302 1.453-2.612.646m5.583-3.76c.482-.39.654-.79.505-1.176-.351-.915-1.309-.691-1.722.403-.552 1.462-.037 1.788 1.217.773m-108.63-.249c1.016-.424 1.14-.584.788-1.01-.23-.277-.694-.504-1.03-.504-.665 0-1.738 1.279-1.456 1.735.23.372.294.364 1.698-.223m105.4-1.01c0-.185-.254-.385-.564-.445-.344-.066-.564.107-.564.445 0 .337.22.511.564.445.31-.06.564-.26.564-.445m-108.68-1.147c.278-.176.378-.535.245-.881-.212-.551-.261-.55-.889.018-.366.331-.665.73-.665.886 0 .368.711.356 1.309-.023m6.542-1.164c.691-.289 1.434-1.017 1.97-1.932 1.312-2.239 2.065-2.774 3.994-2.835.926-.029 1.811-.187 1.968-.351.157-.164.36-1.734.451-3.49.091-1.756.425-4.402.741-5.88.317-1.478.617-3.177.669-3.775.051-.598.62-3.244 1.264-5.88.644-2.636 1.347-5.776 1.563-6.977.215-1.201.673-3.091 1.018-4.2.345-1.109.717-2.891.828-3.959.111-1.069.335-2.203.498-2.52.163-.317.45-1.333.637-2.257.628-3.093 2.713-11.95 3.24-13.765.736-2.53.647-4.883-.183-4.883-.591 0-3.2 2.228-3.069 2.621.074.222-.03.403-.23.403-.2 0-.364-.134-.364-.297 0-.163-.323-.381-.718-.485-.648-.169-.693-.329-.459-1.635.319-1.784.318-2.159-.011-3.6-.176-.769-.146-1.073.089-.928.336.207.851 2.192.678 2.608-.046.11.125.452.381.76.424.511.498.513.857.022.216-.296.679-.486 1.029-.424.793.142 1.478-1.093 1.255-2.261-.208-1.089-.869-.87-1.086.359-.092.524-.339 1.01-.548 1.079-.544.181-.899-2.106-.456-2.935.203-.379.268-1.01.145-1.394-.198-.625-.124-.68.661-.483.638.16.941.076 1.086-.302.181-.472.279-.473.989-.008.736.482.815.466 1.209-.24.232-.416.415-1.701.407-2.856-.012-1.768.078-2.1.565-2.1.34 0 .884.588 1.32 1.428.86 1.657 2.392 3.082 3.947 3.67.601.227 1.092.534 1.092.682 0 .591-1.948.201-3.63-.726-1.936-1.067-1.924-1.075-2.193 1.266-.193 1.683.059 1.858 3.254 2.257 1.559.195 2.04.134 2.542-.32.364-.33 1.154-.553 1.919-.541 3.74.055 5.04-.021 5.5-.32.431-.282.419-.33-.084-.334-.641-.006-.79-.512-.249-.847.187-.115 1.585-.258 3.108-.317 1.523-.059 3.222-.265 3.777-.457.554-.192 1.723-.445 2.596-.562.874-.117 1.681-.363 1.796-.548.238-.385-4.907-.202-5.554.198-.394.244-2.029-1.015-2.029-1.562 0-.383 1.256-.348 2.01.056.759.406 2.767.056 2.598-.452-.067-.202-.981-.38-2.034-.397-1.933-.031-2.995-.541-2.389-1.147.2-.2.823-.203 1.663-.008.739.171 1.707.315 2.152.32.784.008.79-.012.206-.657-.561-.62-.563-.68-.031-.884.314-.121 1.335.028 2.268.329.933.301 2.537.548 3.564.548 1.235 0 2.067.181 2.457.534.374.338.853.451 1.305.307 1.092-.347.637-.958-1.108-1.489-1.989-.605-2.246-1.59-.315-1.206.693.138 2.156.3 3.252.36 1.368.075 2.083.273 2.285.633.318.568 1.604.728 1.604.2 0-.178-.643-.613-1.428-.967-1.178-.531-1.321-.688-.817-.897.336-.14.941-.09 1.344.111 1.343.67 3.33 1.404 3.798 1.404.686 0 .563-1.01-.125-1.019-.746-.014-1.903-.872-1.505-1.117.164-.102 1 .028 1.868.288.863.26 1.569.42 1.569.356 0-.573-2.185-2.201-3.528-2.629-1.788-.57-1.957-.584-6.888-.583-2.877.0001-3.291-.079-4.2-.814-.879-.71-.933-.844-.419-1.044.324-.127 1.214.02 1.978.326 1.06.424 1.924.503 3.643.334 1.681-.166 2.493-.097 3.196.272.709.371 1.168.409 1.85.152.726-.274 1.207-.197 2.408.384 1.737.841 2.633.926 2.633.25 0-.424-2.575-1.148-7.06-1.985-1.229-.229-4.351-1.419-4.737-1.805-.219-.219-.171-.465.139-.723.365-.303.822-.236 2.032.3.859.38 2.656.903 3.995 1.162 1.339.26 3.19.704 4.114.988.924.284 1.982.512 2.352.508.599-.008.572-.09-.252-.765-2.258-1.849-.278-2.134 2.333-.336 1.788 1.232 1.798 1.234 2.951.684l1.156-.551.949 1.413c.987 1.47 2.442 2.241 1.946 1.032-.618-1.507-.603-1.798.095-1.798.393 0 .78.288.902.672.382 1.205 2.339 3.01 3.059 2.82.516-.135.787.122 1.26 1.192.768 1.74 1.414 1.748 1.69.02.118-.739.369-1.344.557-1.344.636 0 .723.976.182 2.059-.48.963-.484 1.158-.031 1.849.278.425.506 1 .506 1.288 0 .284.133.516.295.516.162 0 .481.449.708.997.227.548.645 1.19.929 1.425.457.379.498.206.356-1.506-.16-1.931.199-2.811.949-2.325.197.128.459 1.236.582 2.463.183 1.825.131 2.265-.286 2.425-.829.318-.584 1.169.499 1.729.554.287 1.01.479 1.01.426 0-.052-.135-.565-.3-1.14-.165-.575-.18-1.238-.034-1.475.399-.646 1.34-.125 1.352.749.006.422.239 1.069.519 1.439.343.454.443 1.057.308 1.858-.169.999-.057 1.316.711 2.02.796.726.877.746.646.158-1.023-2.594-.119-2.979 1.547-.658.603.839 1.467 1.709 1.922 1.932.454.223.93.633 1.056.91.726 1.591.954 1.823 1.804 1.835.649.009 1.104.323 1.601 1.105.684 1.078.685 1.092.03 1.092-.365 0-.852-.227-1.082-.504-.23-.277-.68-.504-.999-.504-.32 0-1.085-.482-1.702-1.071-1.308-1.25-1.815-.735-.605.615 1.504 1.677 2.166 2.321 5.132 4.993 1.641 1.478 3.626 3.368 4.41 4.2 2.588 2.743 5.188 6.557 5.188 7.611 0 .284.281.918.625 1.409 1.243 1.774 1.505 4.836 1.074 12.559-.218 3.911-.455 7.206-.527 7.323-.302.488-.895 6.495-.998 10.116-.13 4.544-.533 5.459-3.591 8.162l-1.791 1.583 1.269-.229c1.055-.19 1.491-.075 2.584.683.723.501 1.464.819 1.646.706.381-.236.898-1.801 1.214-3.678.149-.884.688-1.8 1.691-2.872 1.72-1.838 1.752-2.068 1.177-8.43-.209-2.31-.298-4.654-.198-5.208.1-.554.269-3.125.377-5.712.108-2.587.256-4.892.33-5.121.074-.229.229-3.48.345-7.224l.211-6.807-.956-1.201c-.526-.661-1.202-1.719-1.502-2.352-1.909-4.02-2.62-5.617-2.825-6.359-.128-.462-.553-1.369-.946-2.02-.392-.647-1.153-2.083-1.691-3.192-.538-1.109-1.313-2.418-1.722-2.91-1.128-1.355-1.385-4.422-.52-6.212.368-.761.904-2.521 1.191-3.911.475-2.297.473-2.67-.013-4.102-.496-1.461-.493-1.621.037-2.207.734-.811.455-2.355-.738-4.077-.894-1.291-.879-2.285.036-2.285.343 0 .515-.323.515-.967 0-.532.211-1.142.469-1.356.571-.474.366-1.407-.518-2.356-.656-.704-.591-1.369.134-1.369.21 0 .802.402 1.315.894l.933.894.301-.81c.377-1.014.121-1.748-.524-1.5-.27.103-.893-.121-1.385-.499-.492-.378-1.272-.973-1.734-1.323-.727-.55-.784-.727-.426-1.315.355-.582.308-.753-.327-1.198-.407-.285-.934-.519-1.17-.519-.236 0-.429-.246-.429-.546 0-.442.207-.499 1.092-.3.601.135 1.452.327 1.892.426 1.324.298.68-.665-.993-1.482-1.302-.636-2.03-.724-5.834-.703-4.095.023-4.375-.018-4.829-.701-.433-.652-.782-.725-3.445-.725-1.754 0-3.054-.148-3.187-.362-.128-.207-.961-.315-1.952-.252-2.263.144-2.327-.448-.103-.968 2.363-.553 3.271-.53 3.728.094.322.44 1.393.544 6.421.621 5.917.09 8.414.371 10.377 1.168.794.322 1.073.308 1.455-.074.406-.406.344-.573-.44-1.19-.502-.395-1.261-.717-1.687-.717-.426 0-.851-.123-.943-.273-.093-.15-1.41-.299-2.928-.331-1.812-.039-3.03-.233-3.536-.567-.427-.28-1.501-.509-2.386-.509-.886 0-2.098-.14-2.695-.311-.698-.2-1.159-.192-1.292.023-.114.184-.456.233-.761.11-.86-.349-21.13-.17-23.577.208-1.197.185-5.995.41-10.661.501-8.362.162-8.484.155-8.484-.519 0-.376-.214-.684-.477-.684-.868 0-1.539.401-1.539.919 0 .551.188.559-6.384-.257-1.958-.243-4.296-.3-6.05-.147-1.571.137-3.234.229-3.696.205-1.794-.094-4.895.75-6.05 1.645-1.126.874-2.772 1.517-6.04 2.361-.924.238-1.909.815-2.544 1.488-1.268 1.345-2.832 2.186-4.063 2.186-1.159 0-.712-.455.978-.994 1.5-.479 1.351-1.022-.279-1.022-1.113 0-2.076.377-3.175 1.243-.289.227-.703.285-.95.132-.865-.535 2.522-2.024 5.997-2.638 1.371-.242 1.521-.363 1.613-1.295.133-1.349-.389-1.719-2.621-1.861-2.084-.132-2.639.328-1.218 1.01 1.08.517.897.811-.853 1.369-.677.216-1.315.612-1.417.881-.229.598-1.216.65-1.216.065 0-.233.314-.619.698-.859.56-.35.618-.531.295-.921-.221-.267-.628-.485-.903-.485-.396 0-.451-.262-.264-1.257.364-1.94.765-2.232 1.735-1.263.649.649.892.635 1.804-.103.616-.499.707-.803.51-1.703-.132-.602-.491-1.183-.797-1.29-.306-.107-.972-.579-1.48-1.048-.79-.73-.924-1.118-.924-2.684 0-2.152.61-4.426 1.254-4.673.728-.279.808.053.424 1.766-.25 1.115-.253 1.718-.011 1.96.242.242.349.214.349-.089 0-.241.391-.903.868-1.47.604-.717.818-1.292.705-1.885-.114-.596.055-1.045.56-1.486l.723-.632-.84.07c-2.234.185-2.228-.503.011-1.259 2.064-.698 4.516-2.417 4.075-2.858-.232-.232-.634-.113-1.252.373-.952.749-2.499.971-2.499.358 0-.196.945-.788 2.1-1.314 2.361-1.076 4.956-2.854 4.956-3.395 0-.197-.34-.33-.756-.297-2.106.171-2.164-.466-.121-1.341 1.773-.76 2.223-1.334 1.247-1.59-1.087-.284-.852-.693.911-1.586.889-.451 1.815-1.058 2.057-1.35.56-.674.332-.668-1.139.034-.651.31-1.286.461-1.413.335-.279-.279 1.194-1.907 1.724-1.907.208 0 .554-.176.77-.392.298-.298.254-.494-.185-.821-.527-.393-.476-.524.6-1.536 1.122-1.056 1.141-1.112.42-1.218-1.01-.149-.953-.465.241-1.348.549-.406 1.169-1.058 1.379-1.451.369-.69.333-.706-1.119-.488-.896.134-1.837.072-2.334-.154-.708-.323-1.165-.217-3.069.711-2.179 1.063-2.254 1.075-2.916.475-.612-.554-.888-.576-2.771-.226-1.15.214-2.154.58-2.23.814-.076.234-1.18 1.446-2.454 2.693-1.586 1.553-2.576 2.268-3.14 2.268-.599 0-.823-.183-.823-.672 0-.773-.423-.873-.959-.227-.267.321-.267.547-.003.811.265.265-.251.664-1.856 1.438-1.82.878-2.222 1.217-2.222 1.874 0 .591-.439 1.091-1.667 1.897-.917.602-1.935 1.587-2.261 2.189-.327.602-.858 1.178-1.18 1.28-.616.195-1.947 1.708-1.947 2.211 0 .162.643.193 1.428.068 1.305-.207 1.388-.179.967.332-.254.307-.641.559-.861.559-.22 0-.78.416-1.245.924-.895.979-3.183 4.395-3.504 5.232-.263.686.448 1.049 1.06.54.381-.316.598-.323.892-.03.515.515-.538 3.584-1.64 4.776-.453.49-.797 1.283-.801 1.848-.014 1.79-.596 3.566-1.336 4.085-.52.364-.625.613-.366.872.259.259.154.583-.365 1.136-.786.837-.704 1.256.18.916.304-.117.552-.471.552-.788 0-.317.677-1.283 1.505-2.147 1.36-1.419 1.469-1.651 1.128-2.398-.48-1.054.347-2.45 1.77-2.987.535-.202.972-.485.972-.629 0-.144.227-.262.504-.262.824 0 .573.454-.71 1.286-.959.622-1.174.948-1.051 1.594.085.447-.044.978-.287 1.18-.278.23-.37.732-.247 1.346.124.622.056.979-.186.979-.694 0-2.39 4.257-2.39 6 0 .889.088 1.703.195 1.81.309.309 3.165-1.758 3.165-2.29 0-.264.244-.48.543-.48.364 0 .482.194.358.588-.613 1.948-1.353 3.682-1.767 4.142-.579.643-.642 2.1-.082 1.914.419-.14.548-.356 1.406-2.36.297-.693.769-1.26 1.049-1.26.64 0 .663.798.038 1.317-.259.215-.573.801-.698 1.301-.125.501-.427 1.137-.67 1.414-.561.638-.867 3.876-.309 3.266.206-.225.638-1.241.959-2.258.322-1.016.739-1.944.927-2.061.188-.117.665-1.463 1.058-2.991.422-1.64.95-2.925 1.287-3.135.946-.591.983-.094.16 2.175-.431 1.188-.722 2.347-.646 2.574.218.655.9.482 1.262-.321.399-.884 1.172-1.206 1.172-.489 0 .282-.315 1.047-.7 1.699-.944 1.599-1.137 3.01-.488 3.546.603.501 1.362.042 1.702-1.028.297-.936 1.166-.803 1.166.179 0 .451-.151.914-.336 1.028-.451.279-.428 1.957.033 2.419.481.481.064 1.781-.571 1.781-.271 0-.629.34-.796.756-.241.599-.308.39-.325-1.01-.033-2.771-1.235-2.139-1.424.75-.106 1.616-.079 1.671.899 1.856.762.144.985.351.912.85-.053.363-.153 2.097-.223 3.852-.103 2.575-.007 3.468.497 4.62.614 1.403 1.094 1.753 1.501 1.095.113-.183-.055-1.162-.375-2.176-.551-1.749-.551-2 .001-4.959.599-3.156 1.913-6.648 2.77-7.359.927-.769.889.093-.111 2.482-1.96 4.684-2.134 5.725-1.291 7.741.478 1.145.536 1.176 1.512.807.762-.287 1.015-.596 1.015-1.236 0-.469.149-1.371.331-2.01.258-.899.221-1.275-.168-1.704-.764-.844-.592-2.34.484-4.217.926-1.614 2.921-3.505 3.699-3.505.573 0 .415.594-.29 1.088-1 .702-3.048 3.927-3.048 4.806 0 1.172.522 1.275 1.188.235.661-1.033.947-1.327 3.485-3.582 1.342-1.191 1.888-1.495 2.172-1.207.282.286.24.488-.163.786-1.915 1.416-3.311 2.979-3.274 3.666.022.418-.186 1.289-.464 1.936-.277.647-.435 1.366-.351 1.598.084.232-.146 1.064-.512 1.848-.567 1.215-.652 2.024-.577 5.476.094 4.342.657 6.356 2.144 7.677.396.352.721.843.721 1.092 0 .249.113.467.252.486 2.281.309 2.71.238 2.902-.475.108-.404.199-1.163.202-1.687.006-1.184.664-1.049 1.306.268.405.831.395.984-.084 1.252-.614.344-.737 1.793-.182 2.137.21.13.27.597.141 1.108-.362 1.441-1.513 1.749-1.513.404 0-1.02-1.078-2.057-1.903-1.832-.643.175-.688.311-.386 1.176.188.538.666 1.245 1.063 1.57.397.325 1.01 1.156 1.363 1.845.601 1.176.606 1.292.076 1.877-.475.525-.565 1.416-.567 5.629-.003 5.959-.136 8.58-.664 13.07-.217 1.848-.38 3.814-.361 4.368.043 1.291-.747 5.221-2.16 10.752-.614 2.402-1.218 5.124-1.342 6.05-.305 2.268-1.419 5.988-2.455 8.194-1.07 2.28-3.161 4.315-4.921 4.789-3.317.894-3.788 1.33-2.6 2.405.664.601 2.691 1.545 3.361 1.566.237.007.93-.195 1.54-.45m10.526-30.09c.099-.38.401-.692.67-.692.672 0 .41 1.14-.293 1.276-.416.08-.512-.068-.377-.584m.237-3.85c-.115-.3-.022-.772.207-1.048.296-.356.35-1.175.188-2.821-.282-2.864.21-3.362.993-1 .446 1.343.489 1.896.196 2.538-.206.452-.374 1.098-.374 1.437 0 .338-.225.802-.5 1.03-.405.336-.54.311-.71-.131m100.27-5.305c-.19-1.974.101-4.347.515-4.209.536.178.525 5.01-.011 5.189-.24.08-.439-.307-.504-.98m-103.88-27.558c-.182-.694-.041-1.224.242-.911.342.379.551 1.652.272 1.652-.176 0-.407-.334-.513-.741m21.22-2.846c-.889-.106-1.534-.479-2.268-1.316-.564-.643-1.026-1.314-1.026-1.493 0-.628 1.485-.315 2.334.492.472.449 1.298.925 1.835 1.058.888.22.959.174.782-.501-.254-.972.431-1.222 1.655-.604 1.79.902 2.707.977 2.901.236.187-.715 1.663-.926 2.549-.365.525.332.227 1.04-.438 1.04-.241 0-.818.298-1.28.662-.463.364-1.277.654-1.809.645-.532-.009-1.648.053-2.48.138-.832.086-2.071.089-2.754.008m53.49-5.617c0-.703.193-1.214.504-1.333.396-.152.504.093.504 1.14 0 .961-.141 1.333-.504 1.333-.349 0-.504-.351-.504-1.14m-47.88-.876c-.451-.73.275-1.089 1.828-.905 1.778.211 2.491-.073 2.186-.871-.18-.468.141-.56 2.251-.645 2.373-.096 2.461-.129 2.466-.939.006-.926.232-.949 2.777-.285 1.997.521 1.82 1.08-.278.879-1.565-.15-1.732-.097-2.01.645-.268.705-.454.781-1.457.593-1.484-.278-2.552.07-2.552.833 0 .463-.362.653-1.559.817-2.222.305-3.41.265-3.649-.122m67.925.109c-.122-.122-.221-.423-.221-.669 0-.501.866-.613 1.152-.15.229.37-.628 1.123-.931.819m-1.498-7.904c-.629-.629-.491-1.613.228-1.613.824 0 1.452.778 1.187 1.469-.248.646-.851.707-1.415.143m-1.23-4.335c-1.198-1.052-1.288-1.655-.245-1.636.753.014 2.416 1.499 2.416 2.157 0 .822-.882.61-2.171-.522m-96.06-3.297c1.075-1.694 4.149-3.789 4.149-2.828 0 .433-3.792 3.807-4.279 3.807-.401 0-.378-.179.13-.979m7.798.296c.693-.578 2.063-.921 2.063-.517 0 .474-1.192 1.198-1.956 1.189l-.9-.011.793-.661m86.91-1.839c-.736-.601-.902-.917-.627-1.193.55-.55 2.468.515 2.468 1.371 0 .88-.619.82-1.841-.179m-84.85-.775c0-.347 1.873-1.743 2.338-1.743.705 0 .322.879-.626 1.44-1.053.622-1.712.739-1.712.304m-6.829-1.628c-.345-.345.457-1.123 1.158-1.123.789 0 .803.299.043.876-.674.512-.891.556-1.201.247m9.862-1.711c.018-.517 3.494-2.427 3.822-2.1.382.382.425.338-1.388 1.467-1.386.863-2.452 1.141-2.434.633m7.801-2.856c.076-.231.497-.472.936-.536.696-.102.741-.048.353.42-.526.634-1.488.721-1.288.116m3.309-.884l-1.144-.208 1.24-.588c.682-.323 1.832-.588 2.557-.588.724 0 1.697-.173 2.163-.385.652-.297.963-.288 1.356.038.414.343.767.321 1.865-.119 1.786-.715 2.587-.73 2.01-.038-.23.277-.553.504-.717.504-.164 0-.987.323-1.827.719-1.144.538-1.625.622-1.912.336-.523-.523-1.626-.463-2.412.132-.677.512-1.249.548-3.18.197m38.609-.332c0-.161 1.156-.703 2.569-1.204 2.538-.901 4.507-.968 5-.17.367.595-1.522 1.046-2.722.65-.925-.305-1.325-.252-2.458.326-1.425.727-2.388.888-2.388.398m9.522-.653c-.1-.384-.432-.759-.736-.832-.486-.118-.478-.167.068-.403.407-.176.72-.111.906.191.234.379.554.387 1.819.049.844-.226 1.929-.411 2.411-.411 1.327 0 .424.881-1.329 1.297-.773.183-1.755.44-2.181.571-.613.187-.814.091-.958-.461m-83.78-1.553c0-.478.33-1.585.734-2.461.773-1.675 3.544-5.456 3.999-5.456.69 0 .636.813-.107 1.623-1.422 1.55-2.196 2.872-2.893 4.941-.721 2.141-1.733 2.931-1.733 1.353m2.515-8.933c-.107-.173-.024-.633.184-1.022.44-.822.161-1.294-.42-.712-.475.475-1.607.53-1.607.078 0-.557 1.937-3.191 2.677-3.64.783-.476 1.355-.29 1.355.439 0 .26.302.634.672.832.901.482.865.651-.528 2.438-1.253 1.608-2 2.119-2.333 1.586m-4.132-5.05c.081-.243.345-.507.588-.588.252-.084.378.042.294.294-.081.243-.345.507-.588.588-.252.084-.378-.042-.294-.294m4.305-2.267c0-.754 2.881-3.088 3.812-3.088.958 0 .618.543-1.239 1.975-1.72 1.327-2.573 1.696-2.573 1.113m2.352-4.547c0-.248.533-.738 1.185-1.089 1.032-.556 1.158-.759.98-1.57-.181-.825-.07-.989.968-1.422.645-.27 1.228-.654 1.295-.854.166-.499 4.06-2.05 4.37-1.741.407.407-1.972 2.673-3.249 3.095-.896.296-1.181.577-1.181 1.163 0 .538-.299.897-.984 1.181-.541.224-1.245.696-1.564 1.049-.667.737-1.82.858-1.82.19m12.331-10.178c-.117-.117.084-.591.448-1.053.364-.462.661-1.023.661-1.247 0-.57 1.118-1.519 1.79-1.519.698 0 .732.784.058 1.344-.277.23-.504.598-.504.818 0 .996-1.859 2.252-2.453 1.657m47.41 134.18c.654-.522.349-1.735-.465-1.851-.386-.055-1.331.312-2.1.816-1.414.926-1.59 1.166-1.164 1.591.312.312 3.177-.114 3.73-.556m4.914-1.163c1.175-1.208 2.891-3.316 3.9-4.788 1.152-1.682 1.658-1.993 3.258-2.01 1.227-.009 1.489-.145 1.932-1 .282-.545.513-1.162.513-1.37 0-.585 2.394-6.097 3.083-7.099.337-.491.613-1.048.613-1.24 0-.191.658-1.756 1.462-3.476.804-1.721 1.568-3.563 1.697-4.095.129-.532.605-1.512 1.058-2.178.453-.666.823-1.398.823-1.628 0-.229.291-1.064.647-1.854 1.636-3.636 2.171-4.916 2.721-6.507.325-.94.738-1.999.919-2.352.18-.353.516-1.172.746-1.818 1.263-3.55 1.559-4.225 1.968-4.484.358-.227.316-.429-.21-1.01-.362-.398-.829-1.056-1.038-1.462-.209-.406-1.778-1.674-3.486-2.817-3.669-2.456-3.438-2.272-3.177-2.533.287-.287 3.201 1.423 4.485 2.634.672.634 1.137.86 1.282.625.434-.702-.171-1.605-1.764-2.638-1.932-1.252-3.09-2.429-2.388-2.427.26.0001.948.448 1.53.993 1.216 1.14 2.808 1.693 2.803.974-.005-.668-2.855-3.648-3.488-3.648-.297 0-.54-.126-.54-.279 0-.154-.378-.482-.84-.729-.462-.247-.84-.57-.84-.718 0-.375 1.043.033 1.848.722.37.317 1.01.657 1.422.757.639.155.702.092.426-.425-.178-.333-.967-1.112-1.752-1.731-1.364-1.074-1.888-1.51-3.351-2.784-.753-.656-3.462-1.869-4.173-1.869-.266 0-.621-.359-.788-.798-.24-.631-.486-.763-1.173-.632-1.178.225-1.262.471-.556 1.622.408.664 1.16 1.178 2.315 1.579 1.8.626 4.438 2.197 4.438 2.643 0 .144-.74-.109-1.645-.564-1.497-.752-2.723-1.057-2.723-.677 0 .082.314.681.698 1.331.478.811 1.297 1.467 2.604 2.087 1.319.626 1.72.949 1.302 1.049-.332.079-.827-.041-1.1-.268-.888-.737-.88-.091.033 2.761.644 2.01.949 3.82 1.08 6.404.173 3.422.078 4.223-.946 7.992-.176.647-.84 3.166-1.476 5.598-1.061 4.057-2.962 9.477-4.046 11.538-.243.462-.782 1.747-1.198 2.856-.416 1.109-1.361 3.069-2.101 4.356-.74 1.287-1.472 3.02-1.627 3.844-.155.827-.583 1.825-.951 2.218-.369.392-.67.949-.67 1.237 0 .571-2.443 2.963-3.73 3.651-.441.236-1.484.603-2.316.816-.832.212-1.551.603-1.596.868-.137.801 1.864 3.674 2.56 3.674.346 0 1.033-.416 1.528-.924m6.914-10.976c0-.293.239-.532.532-.532.593 0 .49.723-.133.931-.219.073-.399-.106-.399-.399m14.172-37.14c-1.987-1.571-2.334-2.035-1.507-2.02.613.011 1.607.795 3.102 2.449 1.201 1.328.331 1.095-1.595-.428m-87.89 29.95c-.811-.811-.994-.248-.323 1 .575 1.071.609 1.086.726.324.067-.439-.114-1.035-.402-1.324m-2.158-.291c-.243-.097-.532-.085-.644.027-.112.112.087.191.441.176.391-.016.471-.096.203-.203m4.414-1.251c.269-.701-.916-1.6-2.187-1.66-1.553-.072-1.434.678.23 1.452 1.674.779 1.736.786 1.957.207m-4.297-1.9c.394-.638-1.153-1.903-2.557-2.091-1.417-.19-3.74-1.27-4.616-2.145-.599-.599-.66-2.673-.096-3.238.64-.64.401-1.52-.566-2.092-.915-.541-1.466-1.313-2.867-4.02-.382-.739-1.173-1.949-1.756-2.688-.584-.739-1.632-2.705-2.329-4.368-.697-1.663-1.719-4.01-2.271-5.208-1.281-2.79-1.52-4.397-.803-5.421.299-.427.547-1.159.549-1.626.008-1.379.351-1.583 3.452-2.056 3.616-.551 3.922-.707 3.317-1.682-.435-.702-.412-.718.73-.504.673.126 1.268.078 1.386-.114.13-.21.628-.134 1.34.205 1.347.643 2.519.392 1.863-.399-.228-.275-.546-.5-.706-.5-.385 0-1.643-1.086-1.643-1.419 0-.515.726-.243 2.445.915 1.753 1.18 3.973 1.6 4.443.84.211-.342-.439-.487-1.72-.382-.461.038-1.03-.359-1.613-1.124-.826-1.082-.847-1.182-.251-1.182.358 0 .879-.349 1.159-.776.462-.705.451-.851-.122-1.596-.347-.451-.634-1.012-.638-1.247-.004-.235-.355-.586-.781-.779-1.111-.506-6 1.253-8.655 3.114-3.404 2.386-4.766 3.154-6.489 3.66-1.984.582-2.732 1.464-3.264 3.841-.479 2.142-.312 2.634 3.798 11.181.558 1.16 1.05 2.56 1.094 3.111.043.551.316 1.264.605 1.586.29.322 1.114 1.795 1.832 3.273.718 1.478 1.742 3.368 2.277 4.2.534.832 1.339 2.419 1.788 3.528 1.357 3.348 2.834 5.088 5.759 6.784.838.486 1.879 1.157 2.313 1.492.763.589.83.587 2.077-.049.709-.362 1.39-.822 1.514-1.023m91.54-35.1c-.234-.282-.494-.443-.579-.358-.233.233.24.87.647.87.223 0 .197-.193-.068-.512m.202-3.13c-.293-.567-.916-1.303-1.384-1.635-2.694-1.91-3.878-2.873-3.722-3.03.299-.299 1.699.185 2.397.828 1.882 1.733 3.185 2.211 3.185 1.168 0-.803-1.729-2.272-3.863-3.281-2.114-1-2.415-1.017-2.689-.154-.257.81-.432.824-1.796.143-1.273-.635-1.372-1.151-.22-1.151.462 0 .84-.123.84-.273 0-.33-1.863-1.743-2.297-1.743-.17 0-.481-.208-.691-.461-.211-.254-1.138-.562-2.061-.684-.923-.122-1.941-.305-2.262-.405-.357-.112-.225.126.34.613 1.149.99 1.181 1.412.084 1.136-.534-.134-.84-.069-.84.178 0 .271.524.327 1.722.185 1.724-.204 2.982.149 2.982.836 0 .229-.384.289-1.027.161l-1.027-.205 1.279 1.207c1.175 1.108 1.992 1.639 4.935 3.206.576.307 2.163 1.566 3.525 2.799 2.589 2.343 3.629 2.568 2.591.561m-76.47.935c0-.196-.151-.262-.336-.148-.185.114-.336.274-.336.356 0 .081.151.148.336.148.185 0 .336-.16.336-.356m22.33-1.301c.286-.463-.268-.69-1.132-.464-.569.149-.647.269-.31.483.593.376 1.203.368 1.442-.018m-27.03-1.011c0-.396-.655-.821-.896-.58-.241.241.183.896.58.896.174 0 .316-.142.316-.316m2.688.021c0-.162-.207-.467-.46-.677-.253-.21-.714-1.047-1.024-1.86-.584-1.53-1.432-2.208-1.744-1.396-.199.519.895 2.854 1.729 3.688.578.579 1.499.728 1.499.244m20.16-.691c0-.172-.302-.409-.672-.527-1.286-.408-.661-.807.963-.615 1.061.126 1.718.058 1.873-.191.171-.276-.458-.384-2.223-.381-1.353.002-2.823-.032-3.267-.076-1.302-.129-1.19.666.196 1.398 1.339.707 3.13.931 3.13.393m-28.31-.615c.08-.239-.359-.634-1-.903-1.343-.561-3.619-3.328-3.619-4.398 0-.409-.24-.943-.533-1.186-.385-.319-.488-.82-.37-1.805.272-2.283.439-3.02.868-3.819.541-1.011.347-2.551-.338-2.681-.371-.07-.771.435-1.279 1.615-.628 1.461-.723 2.215-.636 5.056.087 2.829.192 3.368.691 3.529.323.104.588.308.588.453 0 .7 2.093 3.25 3.241 3.949 1.366.832 2.154.894 2.389.19m35.866-.415c.213-.345-.338-.426-2.688-.399-2.03.024-2.176.139-.504.399 2.339.364 2.967.364 3.192 0m-32.882-.504c.106-.277.42-.504.698-.504.379 0 .451-.23.288-.924-.34-1.455-.921-2.772-1.222-2.772-.479 0-.722.685-.393 1.107.835 1.069.68 1.826-.487 2.382-.633.302-1.059.699-.946.882.32.518 1.845.391 2.061-.171m37.922-1.512c.124-.2-.283-.336-1.01-.336-.725 0-1.132.136-1.01.336.114.185.568.336 1.01.336.44 0 .894-.151 1.01-.336m-43.07-3.276c-.923-2.76-1.09-3.108-1.489-3.108-.27 0-.323.482-.173 1.574.242 1.763.991 3.13 1.715 3.13.409 0 .401-.238-.054-1.596m72.806.42c0-.277-.227-.504-.504-.504-.525 0-.667.397-.28.784.387.387.784.245.784-.28m12.6.168c-.114-.185-.359-.336-.544-.336-.185 0-.243.151-.128.336.114.185.359.336.544.336.185 0 .243-.151.128-.336m-13.944-2.204c0-.651-.173-.82-.84-.82-1 0-1.18 1.12-.259 1.636.768.43 1.099.184 1.099-.815m-68.94.076c.073-.378-.118-.56-.588-.56-.383 0-.697.202-.697.448 0 1.029 1.088 1.124 1.285.112m-9.1.236c.889-.238.978-.639.209-.934-.556-.213-1.469.315-1.469.851 0 .344.229.359 1.26.083m12.296-1.444c-.064-1.321-.29-1.585-.914-1.067-.382.317-.402.598-.101 1.395.481 1.274 1.083 1.079 1.015-.328m45.36.149c.198-.516-.687-1.181-1.57-1.181-.493 0-.986 1.148-.641 1.493.394.394 2.028.164 2.211-.311m22.393-.509c.277-.03.02-.267-.573-.526-1.067-.467-3.123-.33-3.123.209 0 .425 1.511.554 3.696.317m-10.668-.558c-.231-.093-.609-.093-.84 0-.231.093-.042.169.42.169.462 0 .651-.076.42-.169m-55.6-.512c-.208-.623-.931-.726-.931-.133 0 .293.239.532.532.532.293 0 .472-.18.399-.399m69.965-1.457c0-.486-1.606-1.353-1.922-1.038-.082.082.02.464.226.849.434.81 1.695.95 1.695.188m-7.728-.964c0-.319-1.01-.479-1.185-.189-.109.177.113.321.493.321.381 0 .692-.059.692-.132m54.42-2.708c.322-.388.28-.7-.2-1.512-.333-.563-.875-1.11-1.206-1.215-1.815-.576-3.126-2.434-4.053-5.742-.297-1.062-1.044-2.396-1.928-3.444-1.573-1.865-1.827-1.999-2.158-1.136-.292.76.519 3.458 1.039 3.458.458 0 .544.235 1.278 3.466.353 1.554.416 2.484.195 2.896-.39.729-.148 1.03.825 1.03.399 0 1.092.392 1.54.871 1.478 1.581 3.887 2.267 4.666 1.328m-9.556-5.427c-.281-.429-.512-1.24-.512-1.801 0-.561-.145-1.02-.323-1.02-.359 0-.246 2.851.15 3.789.198.469.352.513.724.205.405-.336.399-.504-.039-1.173m-3.872.372c0-.277-.151-.504-.336-.504-.185 0-.336.227-.336.504 0 .277.151.504.336.504.185 0 .336-.227.336-.504m-112-3.053c.367-2.027.162-2.47-.703-1.514-.394.435-.535 1.081-.465 2.133.135 2.032.746 1.708 1.168-.619m-.773-3.964c.621-1.309.714-2.559.19-2.559-.495 0-1.757 2.963-1.522 3.574.26.678.68.358 1.332-1.015m119.41-1.971c-.077-.231-.425-.475-.773-.543-.548-.106-.573-.05-.183.42.533.642 1.156.722.956.123m-5.628-.232c0-.456-.593-.756-.808-.408-.201.325.09.724.528.724.154 0 .28-.142.28-.316m2.02-3.044c0-.185-.236-.336-.524-.336-.288 0-.43.151-.316.336.114.185.35.336.524.336.174 0 .316-.151.316-.336m-.533-3.147c-.163-.425-1.819-1.389-1.819-1.059 0 .246 1.452 1.518 1.733 1.518.144 0 .183-.206.086-.458m-9.547-1.378c0-.086-.302-.318-.672-.516-.536-.287-.672-.256-.672.156 0 .292.292.516.672.516.37 0 .672-.07.672-.156m-87.43-8.922c-.054-.326.156-.874.466-1.217.31-.343 1.346-2.136 2.303-3.984.957-1.848 1.95-3.599 2.209-3.89.526-.595.623-1.318.176-1.318-.693 0-3.067 3.041-3.076 3.941-.009.858-.548 1.441-2.519 2.724-1.221.795-1.94 3.518-1.14 4.318.544.544 1.697.127 1.582-.573m7.702-13.401c.765-1.135.995-2.049.516-2.046-.139.0001-.818.521-1.509 1.156-.835.767-1.187 1.336-1.05 1.695.312.814 1.183.471 2.043-.805m2.296-4.095c.296-.572.44-1.136.322-1.255-.259-.259-1.496 1.279-1.506 1.874-.014.773.642.431 1.185-.619m4.714-8.369c.959-2.407 1.411-6.05.751-6.05-.6 0-1.617 1.722-1.619 2.74-.0001.433-.454 1.271-1.01 1.862-1.139 1.215-1.219 1.446-.502 1.446.277 0 .504-.151.504-.336 0-.441.908-.434 1.181.009.117.19-.252.507-.82.705-1.45.506-1.361 1.785.11 1.569.458-.067.898-.678 1.403-1.946m-13.97-5.564c0-.081-.236-.148-.524-.148-.288 0-.429.154-.313.341.192.31.837.161.837-.193m-9.408-3.508c0-.185-.151-.336-.336-.336-.185 0-.336.151-.336.336 0 .185.151.336.336.336.185 0 .336-.151.336-.336m-9.991-1.838c2.822-.833 1.331-1.678-2.084-1.182-2.331.339-3.045.617-3.045 1.186 0 .838 2.282.836 5.129-.005m88.78-10.286c1.107-.025 2.293-.243 2.637-.484.607-.425.607-.447.004-.768-.798-.425-4.344-.599-5.693-.28-1.757.416-7.191-1.337-7.191-2.321 0-.986 2.939-3.175 4.263-3.175.445 0 1.898-.587 3.229-1.305 1.331-.718 2.84-1.402 3.353-1.521.513-.118 1.723-.574 2.688-1.011 2.696-1.223 2.768-1.231 6.04-.667 1.851.319 3.676.44 4.601.303 3.102-.457 6.795-1.488 8.592-2.397 1.868-.946 2.476-1.702 1.09-1.355-5.01 1.255-7.307 1.667-10.05 1.804-2.76.138-3.473.06-4.788-.521-1.311-.58-1.545-.828-1.545-1.634 0-.889 1.568-3.251 2.58-3.884.769-.482.084-1.251-1.114-1.251-.794 0-1.214.182-1.354.588-.259.748-4.849 5.46-5.318 5.46-.194 0-.915.464-1.603 1.031-1.861 1.534-4.692 2.893-8.68 4.167-3.132 1-4.861 1.373-9.711 2.095-1.554.231-3.403 1.613-3.125 2.337.178.463.635.516 3.101.356 3.317-.215 4.057.047 4.057 1.437 0 1.584.884 1.984 6.552 2.963.924.16 2.512.243 3.528.186 1.016-.057 2.754-.125 3.86-.151m-61.821-1.46c0-1.362-.342-1.733-1.136-1.231-.702.444-.198 2.799.567 2.652.419-.081.569-.456.569-1.421m68.29.061c-.159-.476-.699-.423-.868.084-.062.185.14.336.448.336.308 0 .497-.189.42-.42m-56.36-.048c0-.319-1.01-.479-1.185-.189-.109.177.113.321.493.321.381 0 .692-.059.692-.132m2.517-.209c-.116-.188-.352-.254-.524-.148-.466.288-.379.49.211.49.288 0 .429-.154.313-.341m-15.285-2.647c0-.392-.981-.764-1.374-.521-.592.366-.296.821.534.821.462 0 .84-.135.84-.3m1.68-.708c0-.185-.16-.336-.356-.336-.196 0-.262.151-.148.336.114.185.274.336.356.336.081 0 .148-.151.148-.336m-1.742-3.451c.789-1.904.931-2.934.405-2.934-.419 0-1.533 2.185-1.841 3.612-.389 1.804.601 1.336 1.436-.678m-1.407-2.103c-.104-.272-.349-.494-.544-.494-.468 0-1.089 1.663-.851 2.281.142.37.353.274.886-.404.385-.489.614-1.112.51-1.383m-4.517.777c-.241-.241-.398-.261-.398-.05 0 .448.397.846.622.622.095-.095-.005-.353-.224-.571m2.272-1.208c.259-.905.199-1.142-.4-1.562-.705-.494-.705-.499-.078-2.344.346-1.017.522-1.956.391-2.087-.377-.377-1.216.968-1.228 1.97-.007.575-.271 1.052-.715 1.289-.593.318-.668.569-.475 1.599.235 1.252 1.478 2.801 1.94 2.416.142-.118.396-.694.564-1.281m6.663-.923c.672-.471 1.107-1.724.495-1.426-1.69.823-2.1 1.116-2.1 1.499 0 .6.688.569 1.605-.073m10.01-3.037c2.362-1.384 1.776-1.876-.985-.826-.95.361-1.353.881-1.055 1.362.288.466.364.447 2.04-.536m-17.664-2.572c.403-.785 1.09-2.031 1.527-2.768l.795-1.34-.737-.394c-.954-.51-1.354-.242-1.107.742.12.479.023.891-.249 1.055-.48.29-1.574 2.819-1.574 3.637 0 .926.609.504 1.344-.931m18.977.026c.662-.301.958-.301 1.259 0 .638.638 1.604.475 1.604-.27 0-.573.118-.619.858-.338.712.271.983.192 1.596-.463.438-.468 1.491-.961 2.586-1.21 1.016-.231 2.111-.556 2.432-.721.321-.165 2.06-.459 3.864-.652 4.217-.452 10.537-1.302 12.688-1.707 1.575-.296 1.948-.326 3.444-.271.323.012 1.722-.143 3.108-.344 4.442-.643 9.428-.793 11.592-.347 3.37.694 4.312.787 4.073.4-.12-.194-.783-.538-1.474-.764-1.712-.56-3.549-2.503-3.121-3.302.174-.326.514-.745.755-.933.797-.619 4.787-1.464 10.854-2.301 4.797-.661 7.257-1.237 7.113-1.665-.064-.189-.783-.363-1.598-.388-.816-.025-2-.18-2.638-.345-1.828-.475-9.636.631-11.38 1.613-.611.344-1.373.625-1.694.625-.321 0-1.81.755-3.311 1.679l-2.728 1.679-3.978.085-3.978.085-.108-.944c-.071-.621.188-1.333.756-2.078.475-.623.864-1.287.864-1.475 0-.576-1.989.444-2.594 1.33-.306.448-.755.936-.997 1.084-.242.148-.441.45-.443.672-.002.392-.888 1.054-3.398 2.54-1.1.651-3.436 1.282-5.672 1.532-1.751.196-5.273.927-6.928 1.439-.946.292-2.105.435-2.576.317-1.216-.305-1.632-1.706-.992-3.338.275-.701.411-1.363.302-1.472-.328-.328-2.537 1.703-2.381 2.188.08.248.033.626-.104.84-.137.214-.477 1.07-.757 1.902-.481 1.431-.619 1.549-2.566 2.201-1.132.379-2.449.946-2.928 1.26-.479.314-1.238.571-1.687.571-.449 0-.908.239-1.02.531-.471 1.227-.148 1.415 1.301.754m-14.777-8.678c.118-.191-.165-.336-.652-.336-.473 0-.86.151-.86.336 0 .185.293.336.652.336.359 0 .746-.151.86-.336m-10.04 36.2c-.669-.785-1.217-1.671-1.218-1.969-.0001-.298-.53-1.102-1.177-1.788-.687-.729-1.176-1.59-1.176-2.074 0-.455-.227-.914-.504-1.02-.997-.383-.547-1.13.682-1.13.652 0 2.084-.454 3.182-1.01 1.124-.567 2.529-1.01 3.215-1.01 1.306 0 3.169 1.085 3.169 1.845 0 .634 1.642 2.523 2.194 2.523.25 0 .562.175.695.389.175.283-.171.332-1.276.181-1.278-.175-1.693-.078-2.638.619-1.393 1.028-3.25 1.093-4.442.155-.925-.728-1.588-.869-1.588-.339 0 .399 1.995 2.355 2.402 2.355.157 0 .286.151.286.336 0 .185-.378.336-.84.336-1.159 0-1.055.632.175 1.061 1.017.354 1.836 1.352 1.437 1.751-.533.533-1.459.097-2.577-1.216m3.149-5.48c0-.081-.236-.148-.524-.148-.288 0-.429.154-.313.341.192.31.837.161.837-.193m-4.669-.92c-.431-.431-.869-.098-.549.419.124.2.379.269.567.152.229-.142.224-.33-.018-.571m4.795-.572c1.415 0 1.898-.594 1.017-1.251-1.285-.958-4.097.169-3.607 1.445.13.34.345.376.795.135.339-.181 1.147-.33 1.795-.33m8.106 6.72c.114-.185.51-.336.88-.336.37 0 .579.151.464.336-.114.185-.51.336-.88.336-.37 0-.579-.151-.464-.336m9.408-3.548c-1.109-.262-2.32-.409-2.691-.327-.843.188-1.672-.294-1.364-.792.127-.205.535-.374.907-.374.372 0 1.787-.674 3.144-1.499 3.315-2.01 3.714-2.079 6.291-1.048 1.191.477 2.323.867 2.514.867.192 0 .725.296 1.186.659.461.362 1.577.954 2.481 1.314 1.569.626 1.606.67.818.97-.509.194-1.282.196-2.02.004-1.808-.472-2.544-.474-2.451-.007.055.276-.348.421-1.176.422-.693.0001-2.243.066-3.444.145-1.243.081-3.053-.063-4.2-.335m4.368-1.161c0-.72-.976-.616-1.118.119-.086.449.05.586.499.499.34-.066.619-.344.619-.619m2.062-.165c-1.218-.635-1.586-.629-.737.013.359.271.888.492 1.176.491.288-.0001.091-.228-.439-.504m-29.03-4.951c.273-.819 2.229-1.619 4.921-2.01 2.563-.374 2.775-.357 3.367.259.347.361.743 1.028.879 1.482.238.792.224.8-.353.224-.33-.33-.965-.739-1.411-.909-1.143-.434-4.421-.012-5.74.739-1.287.733-1.859.807-1.662.216" fill="#000"/>
</svg>
