<svg xmlns="http://www.w3.org/2000/svg" version="1.1" width="300" height="350">
 <path id="fill" d="m147.31 249.49c-.332-.874-.547-.967-2.048-.89-.922.048-1.776-.012-1.897-.133-.449-.449.815-1.832 2.357-2.58 1.044-.506 2.04-1.435 2.897-2.699.718-1.06 1.515-2.179 1.772-2.487.719-.866 3.682-2.8 5.136-3.354.719-.274 1.98-1.112 2.802-1.863 2.093-1.911 4.656-3.885 5.978-4.603 2.876-1.562 5.429-2.511 6.762-2.513.802-.0001 2.467-.177 3.7-.391 1.994-.346 10.692-1.418 12.143-1.497.308-.017 1.233-.255 2.055-.53.822-.275 2.199-.582 3.06-.683.861-.101 2.106-.453 2.766-.782.66-.329 1.385-.604 1.61-.609.833-.02 2.962-2.118 2.739-2.699-.629-1.639-12.272-.931-16.968 1.031-.713.298-2.419.645-3.791.772-1.372.127-3.447.556-4.61.954-1.163.398-3.433.887-5.04 1.087-1.611.2-3.685.522-4.61.714-.925.193-2.533.256-3.573.141-1.485-.165-2.228-.038-3.456.588-.86.439-1.564.96-1.564 1.158 0 .198-.883.802-1.962 1.342-1.079.54-2.474 1.366-3.101 1.836-1.535 1.151-3.465 1.636-5.568 1.399-.959-.108-2.113-.024-2.563.187-2.245 1.053-5.115 1.358-5.115.543 0-.119.358-.597.795-1.062.975-1.038.736-1.773-.839-2.588-1.092-.565-1.295-.569-2.179-.047-.536.317-2.526.873-4.422 1.237-3.217.617-3.566.62-5.22.049-3.377-1.165-5.994-1.48-10.02-1.205-3.903.266-12.641-.152-23.884-1.142-3.288-.29-8.602-.61-11.808-.712-9.08-.289-9.912-.557-10.754-3.463-.559-1.93.067-3.738 1.811-5.231.85-.728 1.495-1.579 1.434-1.891-.177-.896-3.526-1.687-7.321-1.731l-3.472-.04-1.473-1.461c-.897-.89-1.567-1.96-1.712-2.737-.351-1.871.104-4.444 1-5.656l.784-1.06 6.242-.196c3.965-.125 6.986-.409 8.283-.779 1.123-.32 3.386-.906 5.03-1.301 1.644-.395 3.914-1.085 5.04-1.534 1.13-.448 3.307-1.117 4.838-1.486 3.058-.737 4.137-1.653 2.847-2.417-1.367-.81-4.054-3.42-4.902-4.76-.467-.738-1.343-1.547-1.946-1.797-1.816-.752-2.704-2.823-2.704-6.3 0-3.805-.182-3.976-3.862-3.632-1.609.151-2.861.114-2.985-.087-.118-.191.651-.93 1.71-1.642 1.33-.895 2.266-1.92 3.03-3.319 1.098-2.01 1.103-2.044.647-4.759-.49-2.917-.341-3.866 1.12-7.102.912-2.02.9-2.762-.058-3.582-.998-.854-.787-1.408.732-1.92 1.867-.629 2.638-1.897 2.648-4.357.009-2.276 1.323-5.829 2.706-7.318.592-.638.718-1.13.551-2.16-.191-1.177-.02-1.575 1.443-3.372.913-1.121 1.66-2.192 1.66-2.38 0-.188.934-.963 2.077-1.721 2.789-1.851 2.668-2.518-.712-3.957-1.407-.599-2.929-1.089-3.381-1.089-.452 0-1-.178-1.218-.396-.681-.681-5.02-.512-8.363.326-2.538.636-3.472.723-4.564.421-1.379-.381-2.519-1.227-2.519-1.87 0-.19-.776-1.132-1.726-2.095-1.665-1.689-1.718-1.812-1.517-3.507.114-.966.573-2.532 1.018-3.48.666-1.417 1.052-1.784 2.171-2.067 2.899-.733 5.192-1.145 7.527-1.352 3.3-.293 8.125-1.848 10.518-3.39 1.086-.699 2.115-1.272 2.288-1.272.25 0 5.067-2.208 8.118-3.721.308-.153.612-.796.676-1.43.14-1.396-.938-2.139-2.615-1.804-.606.121-1.888.051-2.85-.157-6.318-1.361-10.559-7.383-11.04-15.681-.114-1.952-.474-4.292-.8-5.198-.326-.907-.542-2.168-.48-2.802.096-.983.281-1.17 1.252-1.265 1.01-.098 1.302.124 2.522 1.896.76 1.104 1.382 2.113 1.382 2.243 0 .13.405.834.901 1.564.532.784 1.082 2.401 1.343 3.948.672 3.981 1.664 6.349 3.314 7.904 2.359 2.224 5.629 2.381 5.348.256-.064-.487-.148-2.707-.187-4.935-.077-4.489.15-4.045-3.312-6.451-3.443-2.393-5.093-7.931-4.325-14.525.252-2.163.19-3.218-.289-4.929-.948-3.387-.967-3.624-.354-4.414.533-.687.651-.7 1.586-.176 1.22.685 2.688 3.155 2.696 4.539.003.553.158 1.099.343 1.214.412.254.886 3.998.935 7.372.03 2.095.18 2.646.942 3.456.498.53 1.216.964 1.596.964.875 0 1.304-1.016 1.812-4.297.922-5.958.962-5.558-.729-7.391-.841-.913-1.53-1.796-1.53-1.962 0-.166-.259-.589-.575-.938-2.346-2.592-.087-12.1 2.628-11.06.435.167.565.881.569 3.124.012 6.288 2.376 8.823 4.453 4.776.888-1.73.95-2.176.845-6.02-.142-5.172.249-5.749 4.267-6.291 2.324-.314 2.65.159 1.962 2.845-.546 2.132-.052 3.679 1.176 3.679.978 0 4.269-1.653 5.995-3.01 1.138-.896 4.843-2.592 5.664-2.593.147 0 .448.338.669.751 1.025 1.915-2.92 5.809-8.01 7.909-1.45.598-2.797 1.248-2.994 1.445-.196.197-.601.357-.899.357-.298 0-1.483.774-2.634 1.72-2.321 1.908-2.708 2.716-4.483 9.363-.558 2.088-1.221 4.047-1.474 4.352-.541.652-.392 11.629.263 19.451.368 4.386.494 4.922 1.441 6.111.571.717 1.466 2.085 1.988 3.039 1 1.83 2.159 2.38 3.198 1.518.782-.649.317-2.471-1.019-3.999-.59-.675-1.073-1.564-1.073-1.975 0-.411-.258-1.141-.572-1.621-.939-1.433-1.076-4.232-.348-7.132.361-1.438.778-2.867.928-3.176.15-.309.621-1.242 1.047-2.073.426-.831.953-2.629 1.172-3.996.46-2.879.71-3.647 1.186-3.647.794 0 1.078 1.981.689 4.803-1.259 9.125-1.249 8.794-.366 12.565.976 4.166 1.878 5.424 3.889 5.424 1.554 0 2.808-.502 5.08-2.034 2.194-1.48 5.258-3.887 6.02-4.735 1.032-1.141 8.861-5.561 9.849-5.561.632 0 4.707-2.993 6.779-4.979 1.991-1.909 2.32-2.421 2.522-3.932.128-.956.608-3.293 1.066-5.194.849-3.519 1.563-4.39 1.993-2.429.394 1.8.498 1.962 1.254 1.962.523 0 .979-.524 1.547-1.775 1.383-3.048 1.836-5.344 2.083-10.555.272-5.73 1.252-9.107 3.174-10.929 1.844-1.748 2.165-1.437 1.927 1.868-.115 1.593-.349 3.17-.522 3.506-.388.756.008 5.571.511 6.208.203.257.812.467 1.355.467 1.937 0 8.088-4.874 9.03-7.158.242-.584.58-1.062.751-1.062.171 0 .628-.715 1.015-1.588.871-1.966 1.407-2.418 3.056-2.581.964-.095 1.328.027 1.419.477.164.809-1.971 5.417-3.216 6.941-2.855 3.496-5.482 6.465-5.721 6.465-.148 0-1.303.998-2.566 2.219-1.277 1.234-2.781 2.325-3.389 2.459-1.094.24-2.641 2.118-3.626 4.401-.579 1.342-.58 3.72-.002 4.298.699.699 2.211.549 2.417-.239.099-.378.882-.995 1.74-1.371.858-.376 3.046-2.058 4.863-3.738 2.626-2.428 3.485-3.02 4.191-2.884.489.093.995.507 1.126.919.35 1.104-1.569 4.625-3.263 5.987-.789.634-1.434 1.345-1.434 1.581 0 1.074-6.097 5.485-8.506 6.154-.768.213-2.657.396-4.198.405-2.617.016-2.89.097-4.134 1.216-.811.73-1.753 2.202-2.409 3.762-1.199 2.852-3.71 5.905-5.592 6.798-1.701.807-4.992 1.651-6.462 1.656-1.283.005-6.192 1.248-8.138 2.061-1.844.77-8.02 5.888-8.264 6.845-.367 1.456.419 1.812 2.02.916 3.101-1.736 5.666-2.08 13.732-1.841 6.369.188 7.536.312 7.924.842.765 1.046-.288 2.4-4.18 5.377-1.98 1.514-3.751 3.037-3.937 3.384-.186.347-.974.806-1.752 1.02-.778.214-2.336.74-3.464 1.17-1.127.43-2.472.788-2.989.797-1.286.023-4.404.87-4.853 1.319-.202.202-.48 1.875-.618 3.719-.284 3.788-.735 5.349-2.147 7.429-.664.978-.981 1.942-.983 2.981-.0001.976-.337 2.081-.922 3.03-.684 1.111-.924 2.031-.932 3.585-.006 1.149-.357 3.083-.779 4.297-.422 1.214-.682 2.654-.577 3.201.13.675.009 1.063-.375 1.211-.311.12-1.087 1.354-1.723 2.743-1.431 3.125-1.683 6.983-.539 8.251.379.42.909 1.406 1.177 2.19.564 1.649 1.869 2.067 3.376 1.079.493-.323 1.166-.588 1.495-.588.329 0 1.134-.4 1.788-.888 3.163-2.361 9.01-2.584 25.1-.957 2.055.208 4.745.448 5.978.534 3.586.25 5.717.456 9.936.96 2.676.32 4.431.357 5.418.117 1.484-.362 3.211-.025 4.299.838.288.229 1.785.411 3.326.406 1.541-.005 3.391.173 4.11.396 3.087.956 5.56 1.301 9.128 1.272 3.637-.03 3.851.013 4.896.981.928.859 1.46 1.024 3.529 1.093 2.819.094 4.231.246 5.799.624 3.845.928 5.76 1.503 6.912 2.075.719.357 1.98.96 2.802 1.34 3.071 1.419 5.712 3.435 9.393 7.172 2.083 2.115 4.064 4.426 4.4 5.135.337.709.778 1.392.981 1.518.203.125.716.908 1.139 1.738.424.831 1.32 2.06 1.993 2.732 1.821 1.821 3.925 5.852 4.507 8.637.283 1.353.434 2.671.336 2.927-.098.257.012 1.544.246 2.86.234 1.317.418 2.713.41 3.103-.008.39.245 1.231.562 1.868.649 1.305 3.383 3.961 4.077 3.961.616 0 1.737 2.445 1.591 3.47-.171 1.2-2.354 2.224-4.228 1.982-3.406-.44-5.543-1.378-7.464-3.274-2.829-2.792-3-2.927-3.776-2.914-.394.007-1.042.259-1.441.56-.803.608-2.077.737-2.077.212 0-.185.504-.513 1.121-.728.841-.293 1.121-.623 1.121-1.322 0-.512-.171-1.037-.379-1.166-.209-.129-.62-.811-.915-1.517-.295-.705-.741-1.282-.993-1.282-.251 0-1.395.815-2.541 1.811-1.146.996-2.63 2.093-3.298 2.438-1.402.724-1.528 1.523-.523 3.305 1.659 2.94 2.78 4.223 4.28 4.899 1.707.77 3.249 2.02 3.249 2.638 0 .214-.264 1.08-.586 1.924-.645 1.689-1.943 2.414-4.325 2.414-2.614 0-9.178 1.169-12.463 2.22-6.06 1.938-9.787 2.725-10.668 2.254-.432-.231-1.067-.299-1.411-.15-.344.149-2.054.397-3.801.551-1.747.154-4.269.561-5.605.903-1.336.342-3.858.842-5.605 1.11-4.259.653-6.85 1.419-9.473 2.799-2.518 1.324-2.853 1.365-4.573.548-1.552-.736-2.373-.547-4.997 1.149-1.123.726-2.229 1.321-2.457 1.321-.716 0-2.039 1.69-2.039 2.604 0 1.522-1.671 3.249-3.825 3.954-1.082.354-2.723 1.019-3.648 1.478-2.904 1.441-3.314 1.482-3.733.378m-2.01-24.801c4.26-4.217 5.1-4.879 6.886-5.429 1.119-.344 2.791-.86 3.716-1.146 2.876-.891 16.584-3.357 20.36-3.664 1.531-.124 1.725-1.255.311-1.811-1.729-.68-12.401-.172-15.967.761-1.626.425-3.571.773-4.323.773-.752 0-2.941.336-4.865.747-1.923.411-3.979.747-4.569.747-.59 0-1.604.275-2.255.611-.65.336-1.857.611-2.681.611-2.079 0-3.572 1.149-3.572 2.749 0 .668-.168 1.319-.374 1.446-.683.422-.386 1.321.553 1.679.956.364.964 1.497.001 1.497-.505 0-1.684 1.567-1.684 2.238 0 .218.42.556.934.751.514.195.934.578.934.85 0 .604.744 1.392 1.315 1.392.23 0 2.602-2.161 5.27-4.803m-8.898-2.177c.152-1.066-.817-1.565-3.555-1.833-2.765-.27-5.108.217-5.278 1.098-.312 1.62.073 1.761 4.505 1.653 4.01-.098 4.217-.143 4.328-.918" fill="#ec0000"/>
 <path id="outline" d="m147.38 250c-.121-.195-.112-.782.018-1.303.274-1.09.29-1.086-1.936-.525-1.156.291-1.798.303-2.063.037-.639-.639.041-1.93 1.298-2.462 1.373-.581 2.716-1.878 4.74-4.579 1.559-2.081 3.826-3.82 5.99-4.594.747-.267 2.833-1.735 4.636-3.261 4.806-4.068 7.509-5.2 14.11-5.907 9.977-1.07 13.843-1.645 14.73-2.193.187-.116 1.352-.373 2.588-.572 3.581-.577 8.241-3.065 7.621-4.069-.48-.777-11.753-.192-14.875.772-1.341.414-2.982.818-3.645.898-2.01.241-6.321 1.224-7.974 1.819-.856.308-2.447.647-3.536.755-1.089.107-2.901.385-4.03.616-2.464.507-3.382.541-5.612.213-1.599-.235-1.804-.163-3.35 1.18-.906.787-2.484 1.904-3.508 2.483-5.683 3.215-6.349 3.442-7.579 2.58-.554-.388-.978-.461-1.278-.221-.619.495-4.45 1.566-5.603 1.566-.519 0-1.042-.157-1.161-.35-.232-.375 1.736-2.842 2.964-3.716.409-.291 2.635-2.435 4.946-4.764 4.157-4.189 6.792-6.06 8.535-6.06.495 0 1.258-.192 1.697-.427 1.088-.582 6.081-1.807 7.366-1.807.575 0 2.187-.24 3.582-.533 1.395-.293 4.539-.796 6.985-1.116 4.705-.617 5.472-.923 4.685-1.871-.387-.467-1.441-.574-5.637-.574-2.838 0-5.875.158-6.748.351-3.95.872-6.607 1.263-8.846 1.301-1.331.023-2.594.151-2.807.285-.63.396-5.335 1.413-6.541 1.413-.612 0-1.623.264-2.248.587-.625.323-1.959.656-2.964.739-2.485.206-3.81 1.099-3.551 2.391.135.676-.065 1.309-.642 2.033-.765.96-.916 1.01-1.745.561-1.722-.93-4.725-1.436-6.03-1.017-1.866.601-2.325.886-2.325 1.447 0 .419 1.072.518 5.644.518 3.104 0 5.766.121 5.914.268.148.148-.256.759-.898 1.359-1.375 1.284-1.497 2.333-.33 2.844.994.436 1.417 2.415.517 2.415-.306 0-.808-.251-1.115-.558-.734-.734-1.222-.704-2.415.145-.544.387-2.546 1-4.45 1.37l-3.462.666-2.494-.881c-2.303-.814-3.135-.888-10.87-.967-7.567-.078-23.13-1.019-23.811-1.441-.151-.093-3.105-.255-6.565-.359-3.46-.104-7.673-.297-9.362-.429-2.901-.226-3.133-.31-4.188-1.511-.933-1.063-1.117-1.588-1.117-3.199 0-1.855.078-2 2.06-3.876 1.908-1.804 2.01-1.977 1.327-2.34-.403-.216-1.159-.392-1.68-.392-.521 0-1.633-.274-2.471-.609-1.247-.499-1.779-.533-2.936-.186-2.475.742-3.135.56-4.865-1.341-1.795-1.972-2.281-3.476-1.971-6.096.152-1.282.513-2.088 1.296-2.888l1.085-1.11 4.914-.029c4.763-.028 8.594-.451 10.126-1.12.409-.179 2-.578 3.536-.887 1.536-.309 4.299-1.07 6.142-1.692 1.843-.621 4.313-1.398 5.491-1.725 2.451-.682 2.734-1.355.931-2.219-.665-.319-2.13-1.69-3.256-3.047-1.125-1.357-2.48-2.618-3.01-2.804-1.607-.56-2.458-2.64-2.753-6.727-.295-4.078-.221-4.01-3.371-3.215-3.052.769-4.788-.474-2.307-1.651 1.607-.762 2.582-1.87 3.815-4.333.88-1.757.962-2.188.606-3.173-.753-2.083-.595-4.327.485-6.891 1.479-3.509 1.569-4.1.661-4.338-.881-.23-1.317-1.438-.695-1.926.235-.184.874-.441 1.42-.571 1.479-.353 2.621-2.415 2.333-4.213-.252-1.574.891-4.669 2.682-7.263.727-1.053.89-1.634.702-2.493-.211-.961-.03-1.355 1.268-2.764.833-.904 1.514-1.826 1.514-2.05 0-.623 1.633-2.117 2.877-2.632.612-.253 1.476-.953 1.921-1.554l.808-1.093h-1.515c-1.466 0-4.167-1.081-4.649-1.86-.13-.21-.686-.378-1.235-.373-.55.005-1.63-.096-2.4-.223-1.631-.27-8.748.524-9.05 1.01-.112.181-.875.33-1.695.33-1.185 0-1.696-.229-2.491-1.114-.55-.613-1.712-1.863-2.582-2.778-1.358-1.428-1.582-1.89-1.58-3.26.003-2.295.64-4.263 1.789-5.532.941-1.039 1.354-1.158 6.957-2.01 6.996-1.067 9.891-1.924 12.557-3.72 1.073-.722 2.185-1.314 2.471-1.314.286 0 1.88-.651 3.541-1.448 1.661-.796 3.481-1.63 4.044-1.853.645-.256 1.024-.684 1.024-1.158 0-.504.246-.752.745-.752.409 0 .745-.168.745-.372 0-.205-.391-.372-.869-.372-.478 0-.994-.126-1.148-.279-.153-.154-1.563-.299-3.133-.323-3.979-.061-6.434-1.194-8.749-4.04-2.8-3.437-3.896-6.353-4.205-11.183-.118-1.843-.532-4.415-.92-5.716-.388-1.301-.706-2.687-.706-3.08 0-.965 1.743-1.634 2.778-1.065.837.46 2.806 3.465 2.806 4.282 0 .284.21.651.466.815.87.556 2.14 3.961 2.14 5.737 0 1.516 1.382 4.81 2.54 6.06 1.222 1.314 3.934 2.587 4.876 2.288.638-.203.688-.625.608-5.216-.085-4.917-.374-6.132-1.461-6.156-.843-.019-3.956-2.615-3.956-3.299 0-.382-.253-.905-.562-1.162-1.204-.999-1.727-4.202-1.623-9.951.079-4.406-.026-5.847-.533-7.276-.983-2.773-.684-3.989.981-3.989.735 0 2.11 1.295 2.11 1.987 0 .211.305.73.678 1.153.827.938 2.041 7.972 1.709 9.906-.141.822-.014 1.83.337 2.67.62 1.484 2.317 2.843 2.865 2.295.187-.187.611-2.01.944-4.057.332-2.045.69-4.158.794-4.695.149-.772-.209-1.472-1.7-3.322-1.814-2.251-3.02-5.076-3.02-7.07 0-.458.342-1.983.761-3.388.841-2.822 2.113-4.149 3.278-3.417.485.304.66 1.241.832 4.445.242 4.503.666 5.727 1.985 5.727.695 0 1.088-.439 1.918-2.14.988-2.026 1.092-2.765.851-6.05-.337-4.59.548-5.869 4.3-6.212l2.572-.235-.288 2.01c-.422 2.954-.348 3.779.39 4.318.548.401.807.389 1.511-.073.467-.306 1.077-.556 1.355-.556.278 0 1.331-.59 2.34-1.311 1.01-.721 2.905-1.836 4.214-2.477 2.712-1.328 3.501-1.166 3.693.76.1 1.01-.195 1.49-2.057 3.352-1.721 1.721-3.142 2.648-6.818 4.445-2.554 1.249-5.27 2.865-6.03 3.591-1.516 1.438-3.071 5.061-4.15 9.669-.666 2.843-1.442 4.305-2.284 4.305-.7 0-.712-1.335-.032-3.43.285-.877.63-2.098.768-2.712.138-.614 1.103-2.826 2.145-4.916 2.47-4.953 3.404-5.687 11.03-8.676 1.491-.584 4.895-3.8 4.895-4.624 0-.943-1.28-.669-2.451.524-.597.609-1.356 1.111-1.687 1.117-.331.006-1 .316-1.489.689-1.38 1.054-5.409 2.413-6.41 2.162-.793-.199-.885-.428-.885-2.187 0-3.245-.903-4.669-2.251-3.551-.456.378-.518 1.072-.331 3.7.247 3.483-.249 5.725-1.592 7.191-.38.415-.81 1.341-.955 2.058-.145.717-.489 1.66-.765 2.097-.276.437-.478 1.115-.448 1.507.03.392-.314 1.626-.763 2.742-.76 1.887-1.156 3.751-1.898 8.916-.33 2.301-.704 3.35-1.194 3.35-.662 0-5-3.45-5.682-4.514-.551-.866-.684-1.74-.642-4.217.074-4.354-.58-4.358-.907-.005-.26 3.464.177 6.59.992 7.093.177.109.324.566.327 1.014.004.583.74 1.331 2.581 2.624 1.416.994 2.702 2.083 2.856 2.42.154.336.302 2.035.328 3.776.026 1.74.187 4.228.357 5.528.367 2.801.167 3.034-2.592 3-4.92-.06-8.199-3.376-9.145-9.249-.334-2.072-2.335-7.096-2.827-7.096-.131 0-.139 2.112-.017 4.694.159 3.366.377 4.867.772 5.305.303.336.671 1.113.818 1.728.147.614 1.176 2.238 2.287 3.608 2.67 3.293 4.171 4.01 9.285 4.416 4.257.341 5.109.733 5.462 2.514.488 2.459.501 2.426-1.107 3.03-.85.319-1.881.884-2.291 1.256-.597.54-.884.59-1.433.249-.544-.338-1.061-.266-2.486.347-.989.425-2.114.773-2.5.773-.385 0-.87.317-1.078.705-.208.388-.842.894-1.409 1.124-.567.23-1.953.939-3.079 1.576-2.351 1.329-7.591 2.542-11.01 2.548-1.242.002-3.126.261-4.185.576-2.208.656-2.955 1.691-3.294 4.566-.299 2.53.385 3.036 4.183 3.093 1.786.027 3.577-.177 4.539-.516 1.214-.428 1.935-.472 3.056-.188 1 .254 1.826.248 2.591-.019 1.298-.452 1.637-.132 1.296 1.224-.208.828-.067 1.021 1.093 1.506.732.306 1.882.557 2.554.558 1.146.002 1.773.302 4.128 1.979.76.541 1.109.594 1.729.262.427-.229.951-.308 1.164-.177.213.132.885.033 1.494-.22.934-.387 1.338-.355 2.583.207.922.416 1.476.916 1.476 1.332 0 .825.491 1.156 1.269.857.745-.286.761-1.033.034-1.637-.307-.255-.558-.61-.558-.79 0-.534 1.195-.372 1.888.256.354.321 1.289.646 2.077.723 1.135.111 1.564-.029 2.067-.676.509-.654.767-.736 1.303-.413.89.537 3.508-.597 4.352-1.886.338-.515.925-.937 1.304-.937 1.01 0 1.459-.733 1.593-2.584.065-.901.306-1.7.535-1.776.259-.085.351.204.245.761-.157.819-.019.921 1.572 1.159.959.144 1.829.176 1.933.072.355-.355-.3-.983-1.024-.983-.477 0-.723-.256-.723-.754 0-.461-.361-.891-.931-1.108-.576-.219-.931-.645-.931-1.119 0-.995-1.097-1.429-1.554-.613-.423.755-1.424.814-1.424.084 0-.292.251-.783.558-1.09.728-.728.706-.858-.186-1.092-.409-.107-.744-.399-.744-.648 0-.343.797-.388 3.257-.185 4.783.394 8.232.243 9.51-.418.612-.317 1.676-.576 2.363-.576.814 0 1.249-.179 1.249-.514 0-.282.657-.849 1.459-1.258 1.214-.619 3.658-2.307 7.165-4.945.342-.257.722-.819.845-1.249.214-.749.049-.794-3.971-1.079-7.564-.538-7.75-.528-10.523.574-.409.163-1.284.388-1.944.501-.659.113-1.871.629-2.691 1.147-.821.518-1.67.942-1.887.942-.631 0-3.434 1.512-4.581 2.471-1.226 1.025-3.258 1.17-4.133.295-.322-.322-.585-.738-.585-.926 0-.187-.57-.579-1.267-.87-1.471-.615-1.754-1.296-1.857-4.48-.065-1.989-.243-2.532-1.215-3.712-.627-.76-1.323-2-1.548-2.757-.606-2.039-1.558-12.866-1.558-17.714 0-4.34.333-5.408 1.469-4.706.398.246.535 1.764.607 6.772.052 3.55.275 7.357.498 8.46.222 1.103.405 3.03.406 4.281.002 2.34.073 2.512 2.435 5.873.624.888 1.247 1.907 1.384 2.266.137.358.59.651 1.01.651 1.211 0 1.01-2.036-.361-3.593-.614-.7-1.117-1.63-1.117-2.067 0-.437-.293-1.119-.651-1.515-.523-.577-.649-1.393-.64-4.124.012-3.628.375-5.121 2.071-8.518.586-1.175 1.239-3.218 1.45-4.54.498-3.119.687-3.561 1.52-3.561 1.659 0 1.792 2.52.547 10.395-.528 3.337-.516 3.674.23 6.925.432 1.879 1.085 3.814 1.452 4.301 1.055 1.398 3.078 1.203 5.976-.576 2.101-1.29 6.525-4.692 7.03-5.406.405-.571 5.187-3.378 8-4.698 3.485-1.633 5.289-2.849 8.163-5.503 2.064-1.906 2.107-1.989 2.852-5.454 1.4-6.521 1.544-7.01 2.121-7.231.764-.293 1.222.217 1.524 1.695.137.669.428 1.276.648 1.349.219.073.937-1.148 1.594-2.714 1.073-2.557 1.231-3.421 1.551-8.481.428-6.782 1.458-10.296 3.558-12.14.705-.619 1.431-1.125 1.614-1.125.674 0 1.542 1.22 1.293 1.816-.139.332-.365 1.745-.503 3.14-.157 1.587-.453 2.661-.79 2.869-.429.265-.445.427-.076.795.254.254.462 1.11.462 1.901 0 1.698.547 2.879 1.334 2.879 1.584 0 7.46-4.747 8.755-7.07 2.576-4.627 3.058-5.157 4.972-5.467 1.964-.319 2.588.484 1.889 2.429-.829 2.308-2.347 5.07-3.439 6.256-.572.622-1.711 2.01-2.53 3.088-1.841 2.421-7.369 7.06-8.738 7.336-1.151.23-3.116 3.132-3.885 5.737-.252.852-.862 1.855-1.357 2.228-1.119.844-.695 1.377.62.778.536-.244 1.303-.34 1.703-.213.533.169.782.025.929-.538.122-.466.955-1.124 2.114-1.67 1.052-.495 3.253-2.172 4.891-3.727 1.839-1.746 3.29-2.828 3.794-2.831.926-.004 1.977 1.278 1.972 2.406-.006 1.256-2.164 4.614-3.537 5.503-.709.459-1.291 1.095-1.294 1.414-.011 1.387-6.429 6.06-8.968 6.525-.905.167-2.782.258-4.17.203-2.434-.097-2.566-.057-3.681 1.136-.636.68-1.717 2.467-2.403 3.971-2.266 4.971-5.516 7.414-10.749 8.08-2.331.298-5.546 1.01-5.956 1.31-.205.152-1.042.396-1.861.543-2.538.455-11.666 7.617-9.707 7.617.377 0 1.221-.331 1.877-.737 2.828-1.748 8.268-2.214 16.681-1.429 4.539.423 4.767.484 4.98 1.333.258 1.026-.508 2.694-1.238 2.694-.273 0-.495.238-.495.528 0 .29-.628.914-1.396 1.385-1.433.88-3.323 2.448-4.796 3.978-1.118 1.162-6.407 3.065-9.629 3.466-4.104.51-4.271.641-4.336 3.384-.104 4.398-.484 6.145-1.781 8.191-.57.899-1.157 2.461-1.304 3.472-.147 1.011-.613 2.425-1.035 3.141-.52.883-.797 2.083-.86 3.723-.058 1.497-.405 3.129-.91 4.281-.533 1.215-.749 2.281-.623 3.071.127.793.041 1.212-.249 1.215-.581.006-2.361 3.792-2.861 6.088-.431 1.976-.268 2.881.791 4.385.381.542.827 1.631.99 2.42.343 1.661 1.4 2.061 2.88 1.091.493-.323 1.163-.587 1.489-.587.326 0 1.212-.487 1.967-1.081 2.042-1.607 4.743-2.086 11.239-1.992 5.284.076 7.49.225 11.726.79 1.638.218 4.318.481 5.956.584 3.492.218 9.844.843 11.774 1.157.743.121 2.586.291 4.095.379 1.509.087 3.498.247 4.419.356.921.108 2.513.276 3.536.373 3.625.342 8.569 1.139 9.1 1.467.295.183 2.63.356 5.189.384 3.096.035 4.7.193 4.794.474.35 1.051 1.676 2.333 2.083 2.01.764-.597 2.823-.802 3.871-.385.563.224 1.945.462 3.071.529 3.92.233 10.956 3.259 15.255 6.561 4.443 3.413 8.856 8.461 10.971 12.552.314.607 1.161 1.743 1.882 2.524 2.083 2.255 4.284 6.242 4.641 8.406.177 1.071.438 2.243.579 2.604.142.361.047.91-.211 1.221-.346.417-.366.791-.076 1.427.216.475.508 1.785.649 2.913.344 2.751 1.479 4.627 3.72 6.148 2.853 1.936 3.399 4.372 1.335 5.956-1.709 1.312-10.08-.476-10.08-2.153 0-.7-3.601-3.698-4.442-3.698-.218 0-.742.345-1.164.767-.871.871-1.958.827-2.134-.086-.082-.423.234-.69 1.019-.863.626-.137 1.137-.346 1.137-.464 0-.118-.424-1.109-.942-2.204-.605-1.278-1.171-1.988-1.582-1.984-.352.003-1.311.688-2.13 1.52-1.352 1.374-4.02 2.941-5 2.941-.57 0-.481.645.191 1.396.321.358 1.404 1.767 2.407 3.131 1.445 1.965 2.244 2.672 3.847 3.406 1.234.565 2.121 1.235 2.274 1.718.307.967-1.064 3.973-2.054 4.503-.378.202-2.414.541-4.524.752-4.046.405-8.924 1.292-9.935 1.806-.331.168-1.774.603-3.207.966-1.433.363-3.347.898-4.253 1.187-.906.29-2.581.511-3.723.492-6.556-.111-21.782 2.777-25.687 4.872-2.225 1.193-4.495 1.421-5.238.526-.683-.822-1.956-.682-3.388.375-.696.513-2.212 1.371-3.37 1.907-1.978.915-2.119 1.069-2.341 2.548-.339 2.262-1.764 3.524-5.662 5.01-1.811.693-3.557 1.483-3.881 1.757-.69.584-1.328.64-1.635.142m4.108-5.787c1.419-1.549 2.024-1.651 2.024-.341 0 1.259.692 1.017 1.771-.618 1.599-2.425 2.856-3.511 5.01-4.33 1.19-.452 2.777-1.29 3.526-1.861 1.223-.932 1.671-1.041 4.369-1.062 1.653-.013 3.493-.228 4.089-.479.596-.251 2.02-.6 3.164-.777 1.145-.177 3.505-.673 5.245-1.103 8.434-2.084 15.816-3.494 19.729-3.769 2.354-.165 4.951-.498 5.77-.739.819-.241 1.855-.477 2.302-.524.447-.047 1.034-.264 1.303-.481.506-.408 3.967-1.016 8.02-1.409 3.125-.302 4.379-.79 4.885-1.9.662-1.453.515-1.932-.786-2.565-1.795-.873-2.192-1.264-3.977-3.914-2.874-4.266-2.953-4.307-8.959-4.606-4.1-.204-4.809-.64-5.379-3.304-.153-.713-.641-1.222-1.608-1.677-.899-.422-1.431-.947-1.508-1.489-.147-1.031.452-1.068 1.678-.103.513.403 2.382 1.178 4.153 1.722 3.624 1.112 4.512 1.64 2.759 1.64-.643 0-1.268.159-1.388.354-.586.948 3.204 1.671 7.992 1.524 2.334-.072 3.529-.892 3.924-2.694.272-1.237 1.05-1.705 1.801-1.082.719.597 1.441-.39 1.699-2.322.167-1.248.37-1.573 1.045-1.669 1.024-.145 1.39-.789 1.948-3.426.819-3.874.839-4.439.217-5.994-.577-1.442-.575-1.58.036-2.255.54-.597.572-.844.189-1.458-.447-.716-.314-1.453.262-1.453.155 0 .672.695 1.15 1.545.686 1.22.923 2.374 1.129 5.491.144 2.17.286 3.737.317 3.481.063-.521 1.024-.635 1.32-.156.105.17-.051 1.217-.346 2.327-.724 2.721-.672 2.949.382 1.66.495-.606.983-1.02 1.084-.919.336.336-.635 3.49-1.5 4.873-.749 1.198-.785 1.42-.293 1.827.46.382.659.322 1.122-.34.953-1.361 1.248-.915 1.018 1.542-.18 1.931-.104 2.461.43 2.996.617.617.686.617 1.363.004.626-.566.877-.587 2.04-.166.965.349 1.438.368 1.736.07.298-.298.253-.41-.165-.41-1.195 0-2.559-2.827-2.783-5.77-.062-.819-.299-2.494-.526-3.722-.227-1.228-.474-2.917-.548-3.752-.224-2.517-2.044-6.446-4.532-9.783-1.293-1.734-2.351-3.315-2.351-3.512 0-.486-4.88-6.25-7.346-8.676-1.097-1.079-2.489-2.181-3.094-2.449-.605-.268-1.1-.594-1.1-.725 0-.131-.347-.329-.772-.44-.425-.111-.865-.558-.979-.993-.171-.656-.392-.75-1.292-.553-1.234.271-4.596-.428-5.695-1.184-.404-.278-1.091-.505-1.528-.505-.436 0-1.2-.377-1.697-.838-.497-.461-.982-.891-1.078-.957-.096-.066-.636.056-1.199.271-.732.278-1.291.268-1.958-.035-.713-.325-1.138-.315-1.804.042-1.062.568-2.697.382-2.554-.292.076-.357-.192-.423-.999-.246-.606.133-2.663-.044-4.571-.393-1.908-.349-4.277-.602-5.266-.562-.989.04-2.036-.124-2.327-.365-.408-.339-.528-.333-.528.023 0 .303-.287.377-.838.214-1.273-.375-2.797-.577-5.84-.771-1.523-.098-2.939-.347-3.146-.554-.253-.253-.185-.376.211-.376.323 0 .796-.251 1.051-.558.384-.463.344-.558-.234-.556-.383.0001-1.352.184-2.153.406-1.076.299-1.319.491-.931.737.343.217-.25.336-1.708.342-1.228.005-2.834.109-3.568.231-1.227.203-1.373.128-1.813-.935-.367-.886-.711-1.156-1.476-1.156-.548 0-1.175.177-1.391.394-.277.277-1.099.178-2.773-.336-2.959-.908-9.517-1.739-11.145-1.414-.67.134-1.735.086-2.368-.107-4.934-1.504-5.786-1.646-6.454-1.073-1.119.961-2.02 1.107-2.745.447-.528-.478-1.082-.563-2.459-.377-.978.132-2.782.334-4.01.449-2.143.2-4.478 1.123-5.866 2.317-.36.31-1.03.752-1.489.983-.581.292-.835.753-.835 1.516 0 1.026-.115 1.113-1.79 1.354-2.101.302-3.062.928-2.487 1.621.285.343-.124.956-1.564 2.343-1.072 1.033-2.081 1.797-2.242 1.698-.624-.386-.239-1.244 1.024-2.285l1.317-1.085-.945-1.881c-1.068-2.126-1.169-3.306-.374-4.356.699-.924.7-1.697.0001-1.697-.621 0-1.344 1.184-1.66 2.717-.301 1.461-.936 1.433-1.078-.048-.086-.895-.267-1.183-.651-1.035-.84.322-.638-.608.77-3.547.76-1.586 1.303-3.289 1.303-4.088 0-.822.607-2.671 1.517-4.622 1.076-2.307 1.449-3.523 1.283-4.184-.176-.703.047-1.282.91-2.355.629-.783 1.246-1.935 1.371-2.561.125-.626.374-1.228.552-1.338.178-.11.324-.525.324-.923 0-.397.168-.723.372-.723.205 0 .372-.251.372-.558 0-.693-.022-.692-1.869.047-.832.333-1.613.504-1.736.381-.123-.123.931-1.359 2.342-2.745 2.692-2.645 4.767-6.102 4.55-7.582-.195-1.329-.974-1.249-1.563.161-.764 1.828-2.321 3.458-4.148 4.343-1.473.713-2.787.697-2.787-.035 0-.179.461-.434 1.024-.567 1.767-.416 3.816-1.73 3.816-2.447 0-.875-.531-.855-1.783.067-.754.556-1.666.759-3.614.807-1.433.035-2.941.268-3.35.518-.409.25-1.373.564-2.14.699-1.83.321-1.795.956.053.956.945 0 1.524.194 1.663.558.129.337.691.558 1.417.558 2.058 0 .632.786-1.832 1.01-1.903.173-2.389.083-3.334-.616l-1.106-.818-1.27.759c-2.445 1.461-2.759 1.572-1.685.594 1.508-1.374.801-1.981-1.113-.955-.791.424-1.911.771-2.49.771-1.515 0-.876.697.899.981 1.984.317 1.34.917-1.079 1-2.633.095-4.865 2.109-2.338 2.109 1.238 0 1.867.663 1.093 1.153-.282.179-1.016.328-1.63.332-.911.006-1.41.386-2.704 2.062-.873 1.13-1.916 2.921-2.318 3.98-.674 1.775-.685 1.977-.132 2.588.554.612.539.805-.194 2.509-.971 2.256-.971 2.266-.05 2.266 1.209 0 .882 1.204-.763 2.809-1.652 1.612-3.089 3.877-3.472 5.473-.276 1.147-.164 1.22.873.572 1.01-.63 1.281-.182.648 1.068-.294.582-.65 1.958-.791 3.057-.239 1.87-1.366 4.618-3.03 7.377-.392.652-.604 1.296-.469 1.43.516.516 1.648-.25 2.348-1.59 1.627-3.113 3.383-4.596 4.089-3.453.242.392-.373 1.741-1.144 2.513-1.435 1.435-2.43 9.513-1.309 10.633.596.596 1.142-.274 1.15-1.833.006-1.213.819-2.232 1.463-1.833.225.139.286 1.165.154 2.579-.266 2.851.212 4.468 1.834 6.201l1.207 1.29.116-1.396c.212-2.565 2.304-1.143 2.304 1.566 0 .34.233.937.518 1.326.44.602.608.634 1.117.212.919-.762.716-1.665-.54-2.407-1.01-.595-1.109-.809-.884-1.848.348-1.604 1.644-2.451 1.656-1.083.014 1.596.692-.563.934-2.977.173-1.724.437-2.637.801-2.777 1.01-.386 1.261.432.563 1.8-.372.73-.549 1.552-.398 1.844.476.919.805 1.992.846 2.761.032.605.267.727 1.249.65 1.646-.129 1.698 1.105.075 1.777-.968.401-1.103.616-.917 1.464.156.709.011 1.182-.507 1.65-.693.627-.742.626-1.111-.023-.308-.541-.522-.596-1.057-.268-.369.226-.727.786-.795 1.245-.103.695.006.793.648.589 1.127-.358 1.608.065 1.117.982-.298.556-.294.875.013 1.182.313.313.758.063 1.733-.971 1.614-1.711 2.378-1.832 1.143-.181-1.515 2.024-3.655 6.299-3.437 6.866.277.722.954.249.954-.668 0-1.263 1.511-2.941 2.649-2.941.704 0 1.307-.367 1.948-1.186.807-1.031 1.01-1.121 1.535-.683.513.426.697.412 1.198-.089.541-.541.538-.754-.026-2.48-.658-2.01-.487-3.751.368-3.751.345 0 .518.44.518 1.315 0 1.811.809 2.02 3.139.796 1.044-.547 2.257-.994 2.696-.994.742 0 .799-.195.826-2.819.043-4.213 1.403-6.765 4.425-8.307 1.822-.929 2.37-.99 2.078-.228-.118.307-.496.558-.84.558-.736 0-3.389 3.043-3.389 3.886 0 1.21 1.331.557 2.234-1.095.503-.921 1.128-1.675 1.388-1.675.559 0 .64 1.342.101 1.675-.205.127-.372.562-.372.968 0 .406-.353 1.215-.784 1.799-.755 1.021-.762 1.136-.204 3.042.319 1.09.512 2.05.428 2.134-.177.177-.849-.115-1.736-.753-.803-.578-1.575.032-2.61 2.06-.521 1.021-.691 1.88-.549 2.76.161.992-.052 1.738-.949 3.327l-1.156 2.049 1.217 2.372c1.359 2.65 1.823 3.151 3 3.239.497.037 1.234.674 1.897 1.638 1.173 1.705 2.495 2.811 2.994 2.503.171-.106.312-.601.312-1.101 0-.898.849-1.271 1.285-.565.207.335 2.756 1.235 4.719 1.666.578.127 1.064.541 1.187 1.01.174.666.407.762 1.44.595.678-.11 1.827-.03 2.554.177 2.01.572 5.099-.882 3.705-1.744-.771-.476-.321-1.199 1.177-1.891.854-.394 1.683-1.089 1.848-1.549.284-.793.214-.829-1.416-.745-2.329.121-2.384-.524-.125-1.478 1.387-.586 1.867-.987 1.867-1.561 0-.575-.21-.75-.822-.683-1.24.134-1.242-.975-.004-2.36 1.177-1.317 1.943-1.223 1.943.238 0 1.248.89 1.156 1.849-.191.522-.734.983-1.023 1.382-.87.695.267 1.608-.791 1.608-1.863 0-.392-.428-1.222-.952-1.844-1.37-1.629-.641-2.245 1.322-1.115 1.697.977 2.445 1.052 2.743.278.296-.773 1.48-.698 2.927.185.67.409 1.596.744 2.056.745.461.0001.838.158.838.349 0 .739-1.485.76-3.292.048-1.17-.461-1.976-.604-2.117-.376-.278.449 2.048 1.47 3.35 1.47.518 0 .943.168.943.372 0 .46-2.228.482-2.944.029-.635-.402-1.394-.155-1.661.539-.281.732.755 2.627 1.889 3.453.558.406.857.888.704 1.134-.446.722-.933.496-2.716-1.263-1.872-1.846-2.84-2-3.02-.492-.088.757.239 1.276 1.467 2.327 1.732 1.483 1.625 2.259-.26 1.88-1.555-.312-2.727-1.217-2.088-1.612.395-.244.371-.423-.121-.916-.337-.337-.852-.612-1.144-.612-.846 0-2.02 1.404-2.02 2.414 0 .758.407 1.131 2.256 2.064 1.241.626 3.209 1.308 4.374 1.515 2.836.504 3.421.693 3.421 1.107 0 .206-.883.253-2.14.114-1.425-.158-2.02-.113-1.768.135.205.204 1.252.469 2.327.588 1.56.173 1.954.107 1.954-.324 0-.602-.087-.585 3.536-.668 2.713-.062 3.947-.729 1.675-.905-2.238-.173-6.02-1.291-5.639-1.668.215-.215.613-.205 1.046.026.384.205 2.119.498 3.855.649 2.909.254 3.116.227 2.647-.339-.64-.771-.48-.764 2.931.13 4.94 1.295 7.083.67 3.443-1-2.25-1.035-4.56-3.145-4.56-4.165 0-1.037.577-.994 1.929.143.608.512 1.37.931 1.693.931.323 0 1.498.431 2.611.957 2.333 1.104 3.607.994 2.512-.216-.365-.403-1.476-1.254-2.47-1.892-.994-.638-1.807-1.394-1.807-1.679 0-.742.45-.649 2.024.419 2.381 1.616 4.988 2.79 6.726 3.03.92.126 1.67.081 1.667-.1-.013-.733-.629-1.204-2.091-1.597-1.735-.466-2.197-.893-2.569-2.373l-.258-1.03 2.044.24 2.044.24.162-1.387c.089-.763-.139-2.584-.506-4.048-.857-3.413-.854-6.91.008-9.744.475-1.562.571-2.421.315-2.827-.588-.932-.023-2.316 1.86-4.556 1.49-1.772 2.23-2.286 4.9-3.404 5.05-2.113 13.14-3.065 17.665-2.077.858.187 2.985.547 4.725.8 2.323.337 3.906.84 5.956 1.892 1.536.788 3.059 1.433 3.386 1.434.839.0001 3.314 2.501 3.314 3.347 0 1.019-.621 1.25-1.571.584-.455-.319-1.152-.58-1.548-.58-.396 0-1.274-.423-1.951-.939-.677-.517-1.95-1.092-2.827-1.279-.877-.187-2.265-.532-3.084-.767-2.657-.762-6.478-1.155-7.245-.745-.39.209-1.558.38-2.595.38-1.428 0-1.886-.136-1.886-.558 0-.307-.263-.558-.583-.558-.418 0-.515.216-.343.759.215.677.127.731-.812.499-.579-.143-1.64-.56-2.356-.926-1.091-.557-1.576-.601-2.978-.273-2.52.591-4.101 1.452-5.76 3.14-2.072 2.107-4.291 5.309-4.291 6.191 0 .404-.273 1.31-.607 2.01-.451.95-.558 1.924-.417 3.779.198 2.596 1.499 6.957 2.342 7.854.853.907 1.66.21 1.66-1.435 0-2.078.876-1.967 1.85.235l.768 1.735-.75.699c-.844.787-.942 1.252-.34 1.624.226.139.654.838.953 1.552 1.476 3.534 7.438 9.817 9.809 10.337.583.128 1.259.472 1.502.765.243.292 1.134.715 1.98.94.846.225 1.874.7 2.283 1.056 1.035.901 4.472 1.742 9.351 2.289 3.669.411 4.354.394 6.03-.153 2.206-.721 2.305-.732 2.305-.254 0 .199-.503.623-1.117.94-.614.318-1.117.762-1.117.988 0 .398.949.332 4-.28.792-.159 1.21-.098 1.21.176 0 .23-.504.419-1.12.419-.66 0-1.383.306-1.758.745-.397.463-1.098.744-1.858.744-.671 0-1.22.168-1.22.372 0 .205.492.372 1.093.372 1.492 0 3.21.686 2.784 1.111-.187.186-1.497.457-2.911.602-2.524.258-2.567.248-2.356-.559.169-.648.004-.9-.779-1.191-.547-.203-1.204-.645-1.461-.983-.362-.477-.566-.515-.912-.169-.245.245-1.156.445-2.025.445-1.019 0-2.611.471-4.486 1.326-3.997 1.824-6.819 2.667-10.537 3.148-1.74.225-4.228.652-5.527.949-5.548 1.266-9.749 1.984-12.663 2.162-3.517.215-4.595.765-7.444 3.798-1.161 1.235-2.7 2.244-5.393 3.534-3.197 1.532-4.121 2.189-6.089 4.333-2.182 2.375-2.904 3.83-1.903 3.83.241 0 .976-.586 1.632-1.303m-25.947-32.54c-1.212-.983-.668-1.325 1.314-.826.914.23 1.926.318 2.248.194.371-.142.585-.021.585.33 0 1.135-2.862 1.343-4.147.301m85.48-1.149c-.127-.205.115-.372.536-.372.422 0 .766.168.766.372 0 .205-.241.372-.536.372-.295 0-.64-.168-.766-.372m-78.36-.723c0-.217.168-.394.372-.394.205 0 .372.074.372.164 0 .09-.168.268-.372.394-.205.127-.372.053-.372-.164m78.64-.811c-.665-.192-1.21-.596-1.21-.897 0-.637.432-.711.976-.168.209.209 1.534.488 2.944.619 1.76.164 2.335.329 1.835.524-.982.384-3.067.348-4.544-.079m5.546-1.297c-.277-.313-.444-.619-.372-.68.234-.199 4.04-.615 4.04-.441 0 .248-2.451 1.721-2.836 1.704-.181-.008-.555-.27-.831-.583m-62.958-2.522c-2.02-1.081-3.01-2.336-2.109-2.682.689-.264 5.03 2.396 5.058 3.102.032.719-1.129.554-2.95-.42m-23.273-.603c-.127-.205-.053-.372.164-.372.217 0 .394.168.394.372 0 .205-.074.372-.164.372-.09 0-.268-.168-.394-.372m87.85-1.117c.127-.205.649-.372 1.161-.372.526 0 .831.162.701.372-.127.205-.649.372-1.161.372-.526 0-.831-.162-.701-.372m-77.24-2.956c0-.422.168-.766.372-.766.205 0 .372.241.372.536 0 .295-.168.64-.372.766-.205.127-.372-.115-.372-.536m88.6-1.117c0-.193.168-.454.372-.58.205-.127.372.031.372.35 0 .319-.168.58-.372.58-.205 0-.372-.158-.372-.35m-105.84-.642c-.512-.512-.221-1.241.496-1.241.496 0 .745.248.745.744 0 .717-.728 1.01-1.241.496m30.815-1.273c-.138-.223-.078-.576.132-.786.461-.461 2.376.091 2.595.749.189.568-2.377.604-2.727.037m-33.22-.787c-.611-.611-.564-2.035.075-2.28.74-.284.967.065.967 1.486 0 1.306-.301 1.535-1.042.794m39.11.222c.124-.124.445-.137.713-.029.297.119.209.207-.225.225-.392.016-.612-.072-.489-.196m-41.993-1.287c-.134-.217-.689-.579-1.232-.803-.79-.327-.858-.439-.336-.563.405-.096.651-.506.651-1.083 0-1.135.665-2.461 1.1-2.192.175.108.231.844.125 1.634-.134.998.004 1.738.451 2.42.564.861.572.982.064.982-.319 0-.689-.178-.823-.395m58.15-.597c-.48-.48-.24-1.621.496-2.358 1.182-1.182 1.444-.876.794.931-.598 1.664-.815 1.903-1.291 1.427m-75.57-.671c-.482-1.257.879-4.936 1.65-4.459.177.109.071.827-.236 1.594-.307.767-.512 1.789-.456 2.269.117 1-.625 1.464-.958.596m75.7-3.561c0-.79 1.227-2.22 1.904-2.22.972 0 .879.436-.342 1.605-1.11 1.063-1.562 1.241-1.562.615m-77.49-2.759c-.224-.493-.295-1.348-.156-1.901.255-1.017 3.548-4.403 3.92-4.03.111.111-.263.541-.832.955-.999.728-2.129 2.46-2.129 3.263 0 .662.912.432 1.403-.354.548-.878 1.203-.979 1.203-.186 0 .307-.126.559-.279.559-.154.0001-.614.501-1.024 1.113-.998 1.489-1.615 1.66-2.106.582m77.49-.505c0-.165.567-.849 1.261-1.521 1.59-1.541 2.289-.864.757.734-.989 1.032-2.02 1.434-2.02.787m46.2-.514c-.377-.998-.216-1.42.54-1.42.321 0 .536.366.536.909 0 1.243-.678 1.565-1.076.511m-130.33-2.142c0-.807-.168-1.571-.372-1.697-.205-.127-.372-.606-.372-1.066 0-.46-.415-1.399-.922-2.087-.614-.833-.852-1.532-.711-2.094.146-.58-.031-1.052-.567-1.511-.472-.404-.778-1.11-.778-1.794.0001-1.33 1.082-3.619 1.82-3.852.524-.166.517-.071-.216 2.867-.151.605-.027.995.39 1.228.378.212.611.82.611 1.596 0 1.941.313 2.49 1.162 2.035.98-.524 1.547-.119 1.073.767-.584 1.091-.44 2.468.317 3.03.639.473.651.642.164 2.279-.665 2.236-1.599 2.412-1.599.301m127.41.443c-.304-.809-1.295-1.58-1.706-1.326-.463.286-1.749-1.023-1.749-1.78 0-1.061.598-1.14 1.054-.139.28.615.722.919 1.336.919.986 0 2.076 1.216 2.076 2.316 0 .851-.694.858-1.012.001m-105.75-4.094c.205-1.065 4.413-3.03 4.39-2.048-.009.357-3.575 2.699-4.111 2.699-.222 0-.347-.293-.279-.651m-11.983-.764c0-.48-.231-.819-.558-.819-.751 0-.703-.484.154-1.541.84-1.036 1.398-.738.781.416-.327.611-.32.93.029 1.351.346.417.352.655.026.981-.326.326-.431.232-.431-.388m7.593-.971c-.298-.775.798-2.653 2.08-3.566 1.343-.956 1.558-.286.385 1.205-.405.515-.904 1.376-1.108 1.911-.405 1.065-1.041 1.276-1.358.45m9.26-1.189c.124-.124.445-.137.713-.029.297.119.209.207-.225.225-.392.016-.612-.072-.489-.196m-3.079-.502c0-.195.732-.679 1.627-1.075.895-.396 1.742-.906 1.883-1.134.298-.482 1.701-.565 1.701-.1 0 .549-1.247 1.4-2.99 2.042-1.952.719-2.221.751-2.221.267m1.726-2.914c-.32-.517 3.831-3.894 4.48-3.645.532.204.521.312-.1.998-.64.708-3.719 2.938-4.055 2.938-.08 0-.226-.131-.325-.291m2.369-4.354c0-.302.461-.843 1.024-1.201.563-.358 1.158-.864 1.321-1.125.164-.261.666-.469 1.117-.462.786.011.791.033.124.538-.382.29-1.257 1.038-1.944 1.663-1.412 1.285-1.641 1.367-1.641.587m-31.426-.811c-.322-.84.804-2.944 2.258-4.221 2.254-1.979 2.706-1.359.68.932-.722.817-1.411 1.935-1.531 2.485-.252 1.157-1.089 1.635-1.408.804m66.42-2.362c0-.205.293-.375.651-.377.358-.003 1.07-.088 1.582-.19.821-.163.8-.121-.186.361-1.324.647-2.047.72-2.047.207m-6.887-.745c.127-.205.639-.372 1.139-.372.5 0 .909.168.909.372 0 .205-.512.372-1.139.372-.664 0-1.043-.155-.909-.372m-5.187-.333c-.149-.24-.947-.357-1.899-.278-.903.075-1.56.003-1.458-.162.101-.164-.111-.464-.472-.666-.361-.202-.533-.49-.382-.641.151-.151.858.041 1.572.425 1.02.55 1.396.602 1.752.246.545-.545 2.166-.606 2.166-.081 0 .205.576.372 1.281.372.704 0 1.384.168 1.511.372.127.205-.073.374-.443.376-.37.002-1.28.104-2.022.227-.823.136-1.449.061-1.605-.192m-16.403-.412c.127-.205.481-.372.788-.372.307 0 .455.168.328.372-.127.205-.481.372-.788.372-.307 0-.455-.168-.328-.372m8.817-.279c.089-.467.544-.683 1.609-.762l1.486-.11-1.395.762c-1.699.928-1.858.938-1.701.11m-5.19-.558c.157-.48 2.864-1.544 3.164-1.244.164.164-2.624 1.709-3.084 1.709-.128 0-.163-.209-.079-.465m-39.38-2.162c-.265-.428 2.783-3.686 3.456-3.695.706-.009.584.269-.905 2.049-1.466 1.754-2.195 2.224-2.552 1.646m2.433-5.319c0-.776 1.263-1.734 2.263-1.718.869.015.856.054-.387 1.117-1.418 1.212-1.875 1.359-1.875.601m1.117-3.579c0-.441 1.506-1.504 2.13-1.504.888 0 .481.604-.827 1.228-.717.342-1.303.466-1.303.276m1.861-3.716c0-.468 1.515-1.51 2.195-1.51.383 0 .286.27-.334.931-.876.932-1.861 1.239-1.861.579m-5.956-.715c0-.471 1.542-2.355 1.754-2.143.237.237-1.085 2.465-1.462 2.465-.161 0-.292-.145-.292-.322m7.445-2.572c0-.384.419-1.092.931-1.573.702-.659.931-.734.931-.305 0 .313-.419 1.021-.931 1.573-.802.865-.931.907-.931.305m-3.35-3.434c.307-.198.726-.361.931-.361.205 0 .121.162-.186.361-.307.198-.726.361-.931.361-.205 0-.121-.162.186-.361m1.489-.74c0-.164.251-.394.558-.512.307-.118.558-.537.558-.931 0-.636.663-1.168 1.455-1.168.153 0 .207.479.121 1.065-.122.83-.436 1.151-1.425 1.454-.698.214-1.268.255-1.268.092m10.687-.982c-.562-.562-.22-.929.76-.816.563.065 1.024.285 1.024.49 0 .445-1.407.702-1.784.326m-.264-2.385c0-.48 1.515-1.068 2.14-.83 1.025.39.457 1.214-.838 1.214-.717 0-1.303-.173-1.303-.384m5.956-1.619c0-.296.688-.687 1.623-.923.893-.225 1.835-.663 2.093-.975.569-.686 1.125-.736 1.118-.101-.006.518-3.4 2.513-4.276 2.513-.307 0-.558-.231-.558-.514m40.08 89.33c.442-.138.895-.49 1.01-.783.354-.924-.537-1.047-1.645-.228-.586.434-1.227.788-1.423.788-.913 0-2.646 1.361-2.649 2.078-.004 1.333.42 1.299 2.191-.176.944-.786 2.077-1.542 2.519-1.68m-18.95.832c1.346-.408 1.54-1.045.558-1.834-1.918-1.54-3.383-1.833-4.347-.869-.564.564-.815 2.783-.366 3.233.262.262 2.471-.02 4.155-.53m-7.312-.713c.968-.766 1.45-1.447 1.45-2.047 0-1.051-.256-1.12-1.149-.311-.594.538-.957.504-4.268-.398-1.99-.542-4.46-1.317-5.489-1.723-1.463-.577-1.933-.635-2.16-.267-.409.662-5.272.887-6.67.308-.885-.367-1.225-.365-1.674.008-.404.335-1.275.395-3.071.209-3.927-.406-19.713-.271-21.398.183-1.562.421-3.258.216-3.258-.394 0-.195.544-.497 1.21-.672.976-.256 1.186-.48 1.088-1.162-.106-.733-.007-.808.745-.566.477.153 1.118.271 1.425.26.307-.001 3.239.14 6.514.333 6.293.371 16.565.076 16.565-.477 0-.18-.345-.327-.768-.327-1.071 0-4.406-1.127-4.689-1.584-.243-.393.731-.277 3.299.393 1.215.317 1.442.266 1.906-.434.481-.725.639-.753 1.811-.329 1.797.65 4.02.61 4.02-.072 0-.873.608-.999 2.116-.437 3.175 1.182 3.02 1.064 1.793 1.361-.614.148-2.298.29-3.741.314-2.406.04-3.518.431-3.518 1.235 0 .529 8.255.326 10.153-.249.977-.297 2.02-.447 2.313-.334.295.113 1.357-.067 2.362-.401 2.098-.697 7.375-.916 10.711-.444 2.111.298 2.286.267 2.47-.436.317-1.212-1.422-2.585-3.642-2.877-1.482-.195-1.982-.122-2.372.349-.272.328-.954.596-1.516.596-.562 0-1.486.366-2.055.813-.84.661-1.495.807-3.494.779-1.531-.021-2.771.163-3.284.489-.868.552-2.726.721-2.691.245.011-.154.496-.654 1.076-1.112.957-.754 1.243-.798 3.05-.468 2.732.499 4.151.08 4.209-1.244.035-.808-.15-1.058-.899-1.21-.519-.105-1.53-.343-2.246-.528-1.459-.376-5.542-.802-7.279-.759-1.277.032-2.316-.949-3.585-3.384-.427-.819-1.146-1.732-1.599-2.028-.719-.471-.988-.47-2.136.001-.722.302-1.41.451-1.529.333-.423-.423-2.851.289-3.869 1.134-.606.504-1.79.96-2.858 1.102-1 .134-2.01.391-2.234.572-.225.181-1.663.777-3.194 1.325-1.531.548-2.903 1.189-3.048 1.425-.145.235-1.824.71-3.73 1.055-10.603 1.918-12.732 2.515-15.192 4.257-1.385.981-1.667 1.379-1.626 2.299.027.612.322 1.53.656 2.04.587.896.788.935 6.093 1.183 7.389.345 15.887.907 20.19 1.335 6.98.695 16.996 1.182 20.1.978 2.305-.152 3.467-.067 4.281.314 1.735.812 2.75.679 4.32-.565m-28.904-7.438c-.371-.6-.11-.622 1.318-.111l1.303.466-1.188.021c-.653.012-1.298-.158-1.433-.376m50.661 6.693c.138-.223.59-.316 1.01-.207.458.12 1.21-.142 1.912-.667.637-.476 1.765-1.079 2.507-1.34.761-.268 1.623-.937 1.975-1.534.346-.586.949-1.059 1.349-1.059.963 0 .92.613-.081 1.149-.744.398-.755.458-.151.796.442.247 1.191.215 2.311-.098 1.343-.376 1.94-.371 3.147.027 1.013.334 1.8.381 2.464.147 1.57-.555 1.46-1.229-.247-1.501-.839-.134-1.63-.414-1.759-.622-.328-.53 4.061 0 5.294.64.988.513 2.96.273 2.96-.36 0-.181-.419-.445-.931-.588-.713-.198-.523-.268.816-.296.96-.02 1.85.13 1.976.335.303.491 1.675.481 1.675-.012 0-.404-.262-.523-2.01-.908-.593-.131-.928-.373-.745-.538.369-.333 5.646.353 6.382.829.509.329 1.21.04 1.21-.499 0-.187-.533-.478-1.185-.647-.651-.169-1.26-.534-1.353-.812-.125-.376.057-.436.719-.233 3.537 1.082 6.572 1.242 6.908.365.181-.472.557-.543 1.85-.349 1.692.254 2.174-.188.971-.889-.585-.341-.569-.381.164-.391.449-.006.928-.193 1.066-.416.18-.291.363-.291.655 0 .479.479 1.373.539 1.373.092 0-.172-.712-.537-1.582-.812-.87-.274-1.798-.662-2.061-.861-.263-.199-1.699-.44-3.189-.536-2.062-.132-2.997-.026-3.907.445-1.445.747-1.249 1.17 1.016 2.193 1.094.494 1.493.825 1.097.91-.784.168-3.658-1.271-3.658-1.832 0-.606-8.765-.046-10.1.645-.566.293-1.581.532-2.257.532-1.17 0-4.717.674-7.929 1.506-.819.212-2.56.533-3.869.713-3.332.458-4.187 1.45-3.703 4.295.113.666-.079.745-1.838.745-1.939 0-2.669.431-2.683 1.582-.007.575 2.084.627 2.434.061m18.571-5.586c-.115-.186.22-.337.744-.337 1.141 0 1.233.212.208.48-.409.107-.838.043-.953-.143m16.494-4.689c-.757-.198-.883-.86-.164-.86.268 0 .812.246 1.21.547.75.567.365.682-1.046.314m-48.672 8.446c0-.205-.177-.372-.394-.372-.217 0-.291.168-.164.372.127.205.304.372.394.372.09 0 .164-.168.164-.372m56.02-6.701c.127-.205-.125-.372-.558-.372-.434 0-.685.168-.558.372.127.205.378.372.558.372.181 0 .432-.168.558-.372m50.53-.24c.677-.127 1.024-.424 1.024-.877 0-.933-1.778-1.283-3.66-.719-1.069.32-1.795.335-2.602.054-1.917-.668-2.14.216-.346 1.372 1.205.777 2.187.807 5.584.17m-157.39-3.136c2.263-1.111 2.611-1.833.887-1.841-2.634-.012-5.526-1.638-6.65-3.739-.475-.887.122-.952 1.501-.164 1.124.643 2.676.711 3.244.143.305-.305.734-.256 1.621.186 1.75.873 2.694.802 2.382-.18-.217-.684-.139-.748.626-.511.481.149 1.327.5 1.88.781 1.292.657 1.787.647 1.787-.038 0-.302-.473-.793-1.051-1.092-1.147-.593-2.141-1.62-1.85-1.911.101-.101 1.162.406 2.358 1.126 2.304 1.387 3.647 1.7 3.289.765-.115-.299-.522-.643-.904-.765-.82-.26-3.152-3.089-2.82-3.421.126-.126.933.468 1.793 1.32 1.755 1.738 2.356 1.949 2.024.711-.123-.461-.227-1.131-.23-1.489-.003-.375-.287-.651-.669-.651-.365 0-.952-.487-1.303-1.081-.973-1.647-.754-2.239.323-.873 1.097 1.392 1.86 1.543 2.211.438.167-.527.44-.697.863-.536.401.153.487.11.246-.123-.205-.197-.706-.418-1.114-.492-.479-.086-.808-.515-.931-1.211-.173-.989-.233-1.025-.718-.439-.402.486-.858.583-1.905.406-1.032-.174-1.691-.041-2.635.535-.692.422-1.57.768-1.949.769-.38.0001-1.524.42-2.543.932-1.019.512-2.219.931-2.667.931-.448 0-1.999.328-3.447.73-1.448.401-4.544.919-6.879 1.15-2.336.231-5.453.68-6.927.997-2.426.522-2.736.693-3.257 1.792-.777 1.638-.736 1.943.538 3.971l1.1 1.752 1.778-.202c.978-.111 2.783-.023 4.01.196 5.03.896 9.141 1.797 9.402 2.062.556.565 4.747-.029 6.586-.932m-12.638-3.954c-3.11-.715-3.536-.912-3.536-1.63 0-1.088.941-1.268 2.333-.446.682.402 2.291.821 3.637.947 2.654.248 3.708.548 3.708 1.054 0 .335-4.759.393-6.142.075m70.54 4.392c0-.47-1.012-.801-1.673-.548-.306.117-.464.363-.35.547.268.434 2.023.434 2.023.0001m-6.142-.412c-.127-.205-.388-.372-.58-.372-.193 0-.35.168-.35.372 0 .205.261.372.58.372.319 0 .477-.168.35-.372m8.917-1.833c.189-.306-3.186-1.517-4.228-1.517-.548 0-.517.565.057 1.031.919.746 3.802 1.082 4.171.486m-30.358-2.284c-.721-.446-.898-.096-.309.613.359.433.549.476.657.152.084-.251-.073-.595-.348-.765m55.13-1.848c-.87-.55-1.866-.443-1.629.175.25.653 1.308.944 1.815.5.237-.208.171-.449-.186-.675m5.747.796c.365-.591-.826-1.213-2.09-1.091l-1.234.118 1.303.643c1.504.742 1.742.781 2.02.33m53.42-1.316c.338-.407.334-.697-.017-1.259-.38-.608-.321-.96.351-2.098.867-1.469 1.052-2.991.411-3.387-.569-.352-1.913.988-1.723 1.717.088.338.011 1.569-.172 2.735-.419 2.67.054 3.613 1.149 2.292m-131.2-.966c-.129-.208-.39-.282-.58-.164-.516.319-.42.542.234.542.319 0 .475-.17.347-.378m10.237-1.576c.892-2.442 1.07-3.257.71-3.257-.197 0-.465.293-.596.651-.131.358-.621 1.117-1.09 1.685-.861 1.045-.835 2.13.051 2.13.265 0 .681-.544.924-1.21m71.48.279c0-.307-.231-.558-.513-.558-.282 0-.721.251-.976.558-.392.472-.313.558.513.558.62 0 .976-.204.976-.558m-74.45-.164c0-.193-.168-.454-.372-.58-.205-.127-.372.031-.372.35 0 .319.168.58.372.58.205 0 .372-.158.372-.35m-3.35-2.301c0-1.322-.077-1.47-.558-1.071-.307.255-.558.945-.558 1.535 0 .704.191 1.071.558 1.071.406 0 .558-.419.558-1.535m73.06-.303c.132-.505.411-.662.932-.526.806.211 1.391-.376 1-1.01-.167-.27-.385-.271-.708-.003-.403.335-1.911.657-3.469.741-.766.041-.526.769.372 1.13 1.284.516 1.665.447 1.87-.337m-67.17-2.845c1.349-.909 1.91-1.51 1.763-1.892-.118-.308-.215-.63-.215-.715 0-.086-.511-.156-1.136-.156-.922 0-1.208.206-1.517 1.092-.209.601-.787 1.358-1.284 1.684-.497.325-.903.755-.903.955 0 .732 1.361.331 3.291-.968m2.501-4.426c.708-.536.707-.547-.069-.558-.436-.007-1 .239-1.255.547-.633.762.322.771 1.325.012m5.748-5.062c0-.568-1.116-.869-1.563-.422-.218.218-.293.666-.167.996.183.476.385.517.98.198.413-.221.75-.568.75-.772m60.3-9.884c0-.307-.168-.455-.372-.328-.205.127-.372.481-.372.788 0 .307.168.455.372.328.205-.127.372-.481.372-.788m18.985-6.47c0-.205-.544-.356-1.21-.335-1.146.035-1.161.053-.279.335 1.314.421 1.489.421 1.489 0m-78.76-5.065c.963-.37.738-1.39-.249-1.125-.461.123-.963.227-1.117.23-.154.003-.279.256-.279.563 0 .584.647.715 1.645.332m-1.459-2.38c.127-.205.063-.372-.142-.372-.205 0-.476.168-.602.372-.127.205-.063.372.142.372.205 0 .476-.168.602-.372m-3.549-4.04c-.001-.478-.171-.42-.745.269-.403.483-.727 1.153-.72 1.489.001.478.171.42.745-.269.403-.483.727-1.153.72-1.489m3.059-8.429c.471-1.034.305-1.421-.48-1.12-.573.22-.828 2.052-.285 2.052.187 0 .532-.419.766-.932m1.912-6.621c-.114-.184-.368-.165-.576.043-.205.205-.249.572-.098.817.209.338.347.327.576-.043.166-.268.21-.636.098-.817m1.369-2.126c0-.409-.078-.745-.173-.745-.095 0-.352.335-.571.745-.318.594-.283.744.173.744.323 0 .571-.323.571-.744m2.42-8.562c-.127-.205-.304-.372-.394-.372-.09 0-.164.168-.164.372 0 .205.177.372.394.372.217 0 .291-.168.164-.372m-16.379-4.1c0-1.27-1.481-1.523-1.799-.307-.236.903.313 1.492 1.24 1.33.32-.056.558-.492.558-1.023m-22.454-3.997c1.391-.563 2.532-1.149 2.534-1.303.007-.4-2.13-.345-5.378.138-2.855.425-3.321.786-2.156 1.67.984.747 2.212.622 4.999-.505m42.06-.651c-.098-.548-.908-.453-1.102.129-.107.321.073.455.501.372.367-.071.638-.296.601-.501m-36.981-.14c.396-.251.37-.363-.127-.554-.687-.264-1.3-.014-1.3.53 0 .433.762.446 1.427.024m36.17-1.163c0-.205-.168-.372-.372-.372-.205 0-.372.168-.372.372 0 .205.168.372.372.372.205 0 .372-.168.372-.372m-3.758-15.401c.288-.231.745-.95 1.015-1.598.271-.648 1.292-1.818 2.269-2.601.977-.783 2.133-1.76 2.568-2.172 1.843-1.743 2.629-2.351 3.861-2.985.717-.369 1.47-.872 1.675-1.118.205-.246 1.116-.735 2.026-1.085.91-.351 2.131-.977 2.715-1.393 1.056-.752 2.361-.879 7.03-.685 1.034.043 2.219-.186 2.97-.575 1.691-.875 4.141-3.454 4.966-5.228.372-.799.9-1.711 1.174-2.027 1.154-1.328 2.062-7.628 1.409-9.776-.339-1.116-1.256.005-1.271 1.554-.007.743-.253 1.769-.545 2.281-.293.512-.546 1.433-.563 2.047-.051 1.82-2.563 5.907-4.463 7.259-1.455 1.036-3.454 1.196-3.64.292-.087-.424.158-.697.731-.814.474-.097 1.283-.263 1.796-.37 1.593-.331 4.804-5.966 3.909-6.859-.139-.139-.616.166-1.059.678-1.138 1.314-5.26 4.057-7.04 4.686-.825.291-2.02.843-2.657 1.227-.637.384-1.76.89-2.496 1.125-.751.24-1.555.831-1.831 1.348-.271.506-.605.921-.741.921-.225 0-2.812 1.962-6.385 4.843-1.463 1.18-4.867 2.601-6.083 2.54-.409-.021-1 .074-1.321.21-.366.157-1.092-.199-1.989-.974-1.136-.982-1.431-1.512-1.511-2.71-.055-.819-.305-1.992-.556-2.606-.261-.639-.44-2.605-.418-4.594.046-4.04-.447-4.396-1.581-1.151-1.01 2.878-.69 6.207.886 9.335.655 1.301 1.504 2.765 1.886 3.253.797 1.019.911 2.955.229 3.888-.256.35-.968.77-1.582.933-1.351.359-1.831 2.145-.676 2.517.372.12 1.011.358 1.421.529 1.839.769 2.779.733 3.873-.145m-13.58-3.629c-.241-.39-.903-.077-.903.428 0 .186.25.243.556.125.306-.117.462-.366.347-.553m56.956-23.365c.112-.182.817-.445 1.566-.586 2.693-.505 11.01-9.949 9.815-11.144-.273-.273-1.162.427-2.953 2.327-3.358 3.563-5.746 5.092-8.454 5.41-3.395.399-4.809-1.066-3.112-3.224.409-.521.756-1.171.769-1.446.04-.805 3.087-5.985 3.698-6.287.307-.151.977-.462 1.489-.69 2.504-1.117 3.536-1.905 7.202-5.504 1.157-1.136 3.593-4.629 3.593-5.153 0-.272.444-.843.986-1.269.831-.653.926-.907.603-1.609-.37-.806-.446-.766-2.286 1.214-1.047 1.126-1.904 2.23-1.906 2.453-.003.615-2.971 3.62-4.655 4.714-2.526 1.64-6.514 2.245-6.514.989 0-.215-.271-.663-.602-.994-.459-.459-.551-1.031-.389-2.402.117-.99.33-1.989.473-2.22.143-.231.289-.939.326-1.573.036-.634.2-1.868.364-2.742.242-1.293.201-1.552-.224-1.389-1.499.575-2.549 4.503-2.567 9.603-.013 3.592-.488 6.54-1.447 8.973-.62 1.573-3.058 5.433-3.432 5.433-.176 0-.319 1.582-.319 3.515v3.515l1.582.142c3.218.29 6.197.263 6.395-.057m-66.23-13.815c-.127-.205-.304-.372-.394-.372-.09 0-.164.168-.164.372 0 .205.177.372.394.372.217 0 .291-.168.164-.372m9.12-3.548c0-.314.251-.666.558-.784.307-.118.558-.448.558-.733 0-.599-.991-.709-1.184-.131-.268.805-2.423-.754-3.092-2.237-.716-1.587-1.308-1.66-1.308-.162 0 .972.959 2.738 1.759 3.241.261.164.474.541.474.838 0 .352.389.54 1.117.54.755 0 1.117-.185 1.117-.57m-1.56 59.11c-1.297-1.39-1.79-2.436-1.79-3.791 0-.628-.177-1.141-.393-1.141-.437 0-2.585-2.234-2.585-2.689 0-.159.682-.289 1.516-.289 1.18 0 1.49-.129 1.396-.584-.118-.573-1.316-1.386-2.661-1.807-.599-.188-.534-.36.558-1.465.681-.689 1.475-1.549 1.764-1.912.487-.61.561-.614.976-.046.414.566.614.551 2.552-.191 1.157-.443 2.2-.708 2.319-.589.396.396-.265 1.01-1.09 1.011-1.084.002-3.08 1.247-3.622 2.259-.323.603-.328 1.046-.02 1.722.508 1.114 1.518 1.01 2.132-.22.621-1.245 1.19-1.516 3.194-1.523 1.425-.005 1.995.205 3.03 1.115.702.616 1.383 1.544 1.512 2.061.134.535.645 1.095 1.186 1.301 1.375.523.888 1.287-.821 1.29-.799.0001-1.995.297-2.658.658-1.644.895-4.04.298-5.847-1.458l-1.313-1.275-1.215.635-1.215.635 1.201.317c.661.174 1.368.629 1.572 1.01.204.381.794.799 1.311.929.944.237 1.264 1.095.568 1.525-.5.309-.473 1.797.042 2.313.412.412.169 1.224-.367 1.224-.154 0-.71-.461-1.235-1.024m6.06-6c.121-.127.442-.795.715-1.485.464-1.174.438-1.297-.406-1.946-1.028-.791-2.845-.91-4.234-.277-.944.43-1.285 1.057-.576 1.057.205 0 .33.209.279.465-.09.45 1.409.554 3.257.225.472-.084.745.072.745.426 0 .377-.455.596-1.396.674-1.464.121-1.685.377-.959 1.104.416.416 2.099.257 2.574-.244m.137 4.397c-.135-.218-.152-.49-.038-.604.306-.306 1.356.172 1.356.617 0 .505-1 .495-1.318-.013m-34.2-1.418c-.297-.48 1.928-3.397 2.591-3.397 1.264 0 1.058 1.23-.416 2.476-1.549 1.311-1.854 1.44-2.175.92m49.667-8.284c0-.473 2.444-3.312 3.287-3.818.433-.26.505-.162.341.465-.139.533-.036.795.316.795.288 0 .524-.148.524-.329 0-.181.377-.435.838-.564.818-.23.82-.249.12-.784-.395-.302-.64-.626-.546-.72.33-.33 8.15-.623 8.15-.305 0 .176-.209.542-.465.814-.372.395-.372.527 0 .664.808.296.504.853-.465.853-.682 0-.931.199-.931.745 0 .414-.248.745-.558.745-.343 0-.558-.348-.558-.901 0-.697-.251-.956-1.108-1.144-1.232-.271-1.87-.023-1.87.724 0 .273-.419.601-.931.73-.512.128-.931.478-.931.778 0 .299.419.649.931.778.512.128.931.343.931.477 0 .351-3.407.251-4.237-.125-.432-.195-.966-.151-1.391.114-.875.546-1.445.55-1.445.011" fill="#000"/>
</svg>
