<svg xmlns="http://www.w3.org/2000/svg" version="1.1" width="300" height="350">
 <path id="fill" d="m149.16 249.9c-5.157-.352-6.322-.745-8.426-2.849-.994-.994-1.931-2.04-2.082-2.323-.151-.284-.379-1.645-.508-3.03-.219-2.354-.314-2.593-1.523-3.839-.709-.731-1.403-1.726-1.543-2.211-.302-1.054.301-3.02 1.235-4.02.357-.384.751-1.281.876-1.993.125-.713.428-2.091.674-3.064 1.076-4.255-.163-11.32-2.303-13.13-.421-.356-1.052-1.376-1.402-2.267-.568-1.446-.741-1.619-1.614-1.619-1.258 0-1.502-.265-.993-1.08.367-.588.252-.827-1.073-2.245-1.072-1.146-1.548-1.962-1.713-2.938-.127-.749-.499-1.541-.836-1.777-.836-.586-1.597-2.135-1.6-3.257-.0001-.513-.282-1.388-.624-1.943-.342-.555-1-2.02-1.461-3.245-.462-1.229-1.12-2.688-1.462-3.242-.989-1.601-1.146-3.942-.472-7.04.652-2.993.697-4.282.254-7.405l-.298-2.105-1.03.08c-.567.044-2.604.8-4.528 1.681-3.268 1.496-3.767 1.627-7.605 1.995-3.845.369-4.166.356-5.02-.21-1.13-.749-4.735-2.081-6.256-2.312-.623-.095-1.498-.509-1.943-.921-.445-.412-1.393-.853-2.105-.98-3.01-.537-9.09-4.467-10.54-6.805-1.697-2.747.168-5.969 3.457-5.969 1.859 0 3.328-.655 5.626-2.506 1.158-.933 3.344-2.306 4.858-3.052 2.48-1.222 3.106-1.387 6.313-1.664 2.965-.256 3.832-.222 5.182.205.892.282 2.295.598 3.118.702.823.104 2.15.604 2.949 1.111.799.507 1.802 1.026 2.228 1.154.426.128 1.413.581 2.192 1.01 1.106.606 1.905.776 3.64.776 2.189 0 2.235-.018 2.955-1.14.402-.627 1.096-1.235 1.541-1.35 2.241-.582 3.518-1.412 3.886-2.528.204-.617.267-1.29.141-1.494-.293-.473-3.332-.181-5.285.508-1.797.634-4.394.634-7.486.0001-2.545-.521-5.809-1.896-6.25-2.633-.142-.237-.686-.652-1.208-.922-.704-.364-1.316-1.262-2.374-3.482-1.955-4.103-2.461-6.313-2.509-10.95-.048-4.678-.053-4.683-3.569-4.079-1.891.325-2.657.328-3.683.015-.713-.217-1.907-.407-2.655-.42-.748-.014-2.535-.396-3.972-.85-2.233-.705-2.915-1.108-4.693-2.772-2.555-2.39-3.748-4.609-3.716-6.911.029-2.09.262-2.649 1.42-3.408 1.217-.799 1.84-.474 3.138 1.635 2.179 3.541 8.399 6.085 14.851 6.073 2.706-.005 3.239-.262 3.239-1.565 0-.491.24-1.956.534-3.256.462-2.047.478-2.647.114-4.475-.404-2.034-.394-2.128.276-2.573 1.429-.949.913-1.796-2.18-3.581-1.582-.913-3.189-1.66-3.573-1.66-.384 0-1.239-.246-1.901-.546-.983-.446-2.303-.55-7.196-.567l-5.991-.021-2.192-1.039c-2.865-1.357-5.348-3.322-6.699-5.303-.598-.876-1.21-1.593-1.361-1.593-.15 0-.277-.182-.282-.405-.005-.223-.442-.977-.972-1.677-.529-.7-.967-1.574-.972-1.943-.005-.369-.499-1.545-1.098-2.614-.868-1.551-1.308-2-2.176-2.247-1.896-.529-2.107-1.691-.569-3.128l1.01-.939 2.229.775c2.581.898 4.264 2.187 8.932 6.849 3.326 3.321 5.05 4.485 6.35 4.298 1.364-.195.947-1.137-1.763-3.986-1.474-1.549-3.238-3.714-3.921-4.81-1.437-2.307-2.515-3.905-3.456-5.121-.366-.473-.666-1.017-.666-1.208 0-.191-.563-1.771-1.251-3.511-2.331-5.897-3.283-10.235-3.283-14.965 0-1.474-.229-3.562-.508-4.64-.596-2.301-.447-3.203.626-3.777.693-.371.925-.322 2.027.426.684.465 1.436.845 1.671.845.609 0 1.675 2.528 1.683 3.993.015 2.669 1.062 9.195 1.724 10.743 1.425 3.335 3.157 5.333 5.185 5.983 1.553.498 2.73.069 3.815-1.388 1.849-2.484 3.785-5.713 4.501-7.51.426-1.069 1.241-2.818 1.811-3.886.57-1.069 1.28-2.697 1.576-3.619.296-.921.743-1.844.991-2.051.685-.569 1.562-.254 1.814.651.418 1.503.308 6.03-.175 7.184-.255.611-.685 2.061-.954 3.221-.625 2.694-2.413 6.625-3.67 8.07-1.591 1.825-2.168 3.212-2.154 5.168.025 3.338 2.542 6.786 9.455 12.955 1.298 1.158 3.613 3.307 5.145 4.777 1.532 1.47 2.915 2.672 3.074 2.672.159 0 .765.52 1.347 1.155.582.636 1.364 1.328 1.738 1.538 1.596.899 3.793 2.41 5.147 3.541.8.668 1.566 1.214 1.702 1.214.136 0 1.257.957 2.49 2.127 1.233 1.17 2.753 2.466 3.376 2.879 2.082 1.382 3.183 2.893 5.649 7.754 1.346 2.654 2.448 4.949 2.448 5.1 0 .151.801 1.914 1.78 3.919.979 2 1.78 3.829 1.781 4.054.002.676 2.861 6.581 3.75 7.746.454.595 1.622 1.671 2.594 2.389 1.724 1.274 1.816 1.301 3.675 1.091 1.446-.164 2.161-.089 2.958.309 1.26.629 2.122.67 2.474.118.142-.224.811-.818 1.486-1.321 1.486-1.108 2.43-2.559 3.615-5.559 1.319-3.337 3.784-9.02 4.075-9.392.139-.178.679-1.125 1.2-2.105 2.225-4.183 3.407-6.05 4.41-6.963.587-.534 2.147-2.188 3.466-3.676 2.425-2.733 6.321-5.799 9.115-7.172 1.562-.767 6.208-4.286 8.517-6.45.713-.668 2.446-2.064 3.851-3.103 3.438-2.541 10.815-9.903 12.335-12.309.675-1.069 1.506-2.347 1.846-2.84 1.111-1.611 1.886-3.824 1.878-5.365-.001-2.118-.915-3.862-2.886-5.56-2.825-2.434-5.176-4.958-5.734-6.153-.291-.623-.928-1.733-1.416-2.466-1.466-2.202-2.104-4.505-2.052-7.412.025-1.425.215-3.03.421-3.563.935-2.423 2.89-4.292 4.03-3.853 1.148.44 2.175 2.66 2.778 6 .678 3.76 1.622 5.838 4.311 9.49 3.272 4.443 5.134 6 7.163 6.01 1.096.002 1.458-.205 2.691-1.536 2.864-3.093 4.716-8.289 5.339-14.979.376-4.04.381-4.052 1.575-5.263 1.308-1.326 2.798-1.624 3.555-.711.23.277.601 1.477.824 2.668.375 1.994.343 2.435-.395 5.569-.441 1.872-1.365 5.153-2.054 7.291-.689 2.137-1.413 5.155-1.609 6.705-.473 3.732-1.133 5.692-3.03 9-1.773 3.093-2.682 4.366-4.624 6.477-.737.802-1.398 1.611-1.467 1.798-.182.49-5 5-5.346 5-.158 0-.906.566-1.663 1.258-1.026.938-1.376 1.502-1.376 2.217 0 1.555 1.014 2.202 3.356 2.142 4.656-.12 9.736-3.296 14.885-9.307 1.917-2.238 3.225-2.997 4.312-2.502.999.455.997 1.64-.007 3.763-.898 1.9-7.342 8.637-9.592 10.03-.802.496-1.749 1.158-2.105 1.472-.95.837-5.058 2.55-7 2.919-2.871.545-5.544.494-6.486-.124-1.229-.805-3.76-1.012-5.147-.421-.63.269-2.212 1.382-3.516 2.474-1.304 1.092-2.913 2.328-3.577 2.747-1.435.906-2.863 2.53-3.118 3.545-.101.401-.137 1.372-.081 2.157l.102 1.428 3.72 1.886c9.163 4.646 13.314 4.182 21.06-2.352 4.053-3.42 4.948-3.85 5.355-2.569.361 1.138-.529 3.577-2.092 5.732-3.531 4.868-3.336 4.704-9.09 7.638-3.68 1.877-3.754 1.899-7.03 2.054-2.764.131-3.693.042-5.591-.535-1.252-.38-2.813-1.055-3.468-1.5-1.485-1.01-2.576-1.296-3.138-.829-.277.23-.569 1.845-.812 4.489-.438 4.767-1.501 8.565-2.758 9.858-.465.478-.846.989-.846 1.134 0 .332-2.118 2.559-3.586 3.771-.611.504-2.415 1.561-4.01 2.348-3.685 1.819-5.483 1.889-10.461.411-1.202-.357-1.447-.341-1.91.122-.457.457-.474.672-.118 1.531.474 1.144 2.071 2.606 2.847 2.606.288 0 1.088.39 1.776.867l1.252.867 3.624-.379c3.65-.382 8.812-1.526 10.911-2.418 1.551-.659 6.799-.977 9.554-.579 4.204.607 6.254 1.214 7.997 2.364.946.624 2.067 1.243 2.491 1.375.424.132 1.59.856 2.591 1.609 1 .753 2.282 1.636 2.849 1.964 1.147.663 1.389 1.256 1.395 3.422.003 1.169-.168 1.644-.813 2.25-.449.422-1.209 1.541-1.687 2.485-.939 1.855-1.505 2.087-3 1.232-1.304-.745-2.755-.578-4.546.524-.903.555-2.182 1.131-2.843 1.28-1.515.34-3.859 1.416-4.922 2.259-.448.355-1.916.908-3.263 1.229-1.347.321-2.798.828-3.225 1.127-.96.672-3.083.699-6.786.085-3.084-.511-4.68-1.108-6.721-2.512-.785-.54-1.707-.913-2.112-.856-.643.091-.748.361-.979 2.531-.143 1.336-.334 3.936-.426 5.779-.146 2.928-.083 3.529.502 4.773.798 1.698.857 3.598.162 5.246-.279.662-.588 2.224-.686 3.471-.121 1.54-.425 2.701-.95 3.62-.424.744-.772 1.583-.772 1.864 0 .281-.364.828-.81 1.215-.445.387-.81.868-.81 1.069 0 .2-.712 1.46-1.582 2.799-1.739 2.675-4.076 7.34-4.441 8.864-.128.534-.417 1.263-.641 1.619-.225.356-.733 1.729-1.131 3.051-.662 2.203-.688 2.581-.317 4.534.223 1.172.96 3.297 1.639 4.723.971 2.041 1.282 3.15 1.462 5.212.258 2.958-.183 4.392-2.07 6.733-.558.692-1.015 1.508-1.015 1.812 0 .828-1.832 5.741-2.611 7-.597.966-.846 1.101-2.03 1.104-.742.002-2.079.056-2.969.121-.891.065-3.077.018-4.858-.103m31.34-108.12c1.41-1.341 3.07-8.275 3.233-13.503l.081-2.581-1.673-.454-1.673-.454-2.375 1.858c-2.375 1.858-3.62 3.335-5.807 6.892-2.957 4.809-1.384 8.653 3.755 9.18 2.558.262 3.381.089 4.459-.936m-54.49.174c2.568-1.371 3.506-4.981 2.25-8.667-.394-1.157-.9-2.323-1.125-2.59-.224-.267-.704-1.142-1.067-1.943-.924-2.043-2.513-3.456-4.109-3.654-1.918-.239-5.5.641-6.691 1.642l-1.01.847.19 3.092c.104 1.701.332 3.602.506 4.226.174.623.473 1.736.665 2.472.25.96.751 1.669 1.77 2.504 3.367 2.759 6.099 3.415 8.617 2.071m-10.345-23.9c1.12-.599.791-1.955-.849-3.498-1.622-1.526-2.609-1.67-2.515-.368.08 1.116.598 3.365.88 3.821.29.47 1.645.494 2.485.045" fill="#eef301"/>
 <path id="outline" d="m149.71 250c-1.857-.123-3.784-.389-4.282-.592-.498-.203-1.213-.368-1.588-.368-.816 0-2.808-1.291-2.811-1.822-.0001-.206-.576-.829-1.277-1.385-1.326-1.05-1.493-1.496-1.748-4.672-.144-1.786-1.022-3.604-1.874-3.879-.736-.237-1.349-2.368-1.086-3.77.115-.615.641-1.713 1.167-2.44.527-.727.957-1.658.957-2.07 0-.412.218-1.483.485-2.381 1.206-4.06.07-11.16-2.099-13.12-.8-.724-1.553-2.064-1.7-3.02-.142-.931-.457-1.142-1.015-.678-.267.222-.724.312-1.014.201-.409-.157-.485-.467-.336-1.381.173-1.068.056-1.323-1.245-2.714-1.051-1.124-1.436-1.799-1.436-2.516 0-.639-.274-1.219-.786-1.664-.956-.831-1.81-2.852-1.579-3.735.104-.398-.075-.878-.464-1.248-.348-.331-1.013-1.663-1.478-2.962-.465-1.299-1.188-2.963-1.607-3.698-1.309-2.298-1.311-5.908-.003-9.923.369-1.134.405-1.674.143-2.163-.192-.359-.361-1.506-.376-2.549l-.027-1.896-1.011.337c-.556.185-2.334.951-3.952 1.701-2.92 1.354-4.604 1.735-9.858 2.231-1.807.171-2.336.105-3.055-.376-1.226-.822-6.173-2.673-7.163-2.681-.475-.004-1.124-.349-1.525-.811-.486-.558-1.028-.804-1.776-.804-.592 0-1.715-.357-2.494-.794-.78-.437-1.924-1.073-2.543-1.414-3.671-2.02-6.432-5.117-6.432-7.215 0-1.807 1.818-4.084 3.26-4.084 2.384 0 4.179-.718 6.939-2.776 3.766-2.808 7.127-4.405 9.418-4.477.973-.03 2.565-.161 3.538-.291 1.336-.178 2.123-.102 3.216.31.796.3 2.353.657 3.459.793 1.24.152 2.474.546 3.216 1.025 2.755 1.78 5.544 2.895 7.377 2.95 1.715.052 1.85-.003 2.747-1.119.656-.817 1.527-1.386 2.863-1.874 1.332-.486 2.03-.942 2.28-1.489.668-1.467-.034-1.605-3.367-.659-1.652.469-3.599.852-4.326.852-2.338 0-7.456-1.203-9.04-2.126-3.142-1.826-4.163-2.931-5.71-6.175-1.861-3.904-2.117-5.05-2.294-10.291l-.145-4.281-1.824.26c-4.971.709-11.744-.56-15.04-2.818-2.956-2.025-4.965-5.177-5.169-8.108-.154-2.219.199-3.173 1.543-4.171 1.317-.977 2.655-.528 3.69 1.237 1.167 1.991 2.96 3.418 5.592 4.451 3.271 1.283 5.643 1.76 8.761 1.76h2.754l.147-1.19c.081-.654.339-2.224.574-3.487.357-1.919.356-2.595-.006-4.104-.413-1.72-.4-1.843.262-2.547.383-.407.696-.877.696-1.045 0-.449-4.977-3.353-5.747-3.353-.363 0-1.393-.289-2.288-.642-1.465-.577-2.118-.623-6.524-.452-4.108.159-5.155.102-6.504-.355-2.576-.873-3.742-1.479-5.675-2.948-1.644-1.248-5.098-5.144-5.098-5.749 0-.135-.354-.71-.787-1.277-.433-.567-.887-1.449-1.01-1.96-.123-.511-.665-1.76-1.204-2.778-.761-1.434-1.148-1.849-1.723-1.849-.972 0-2.029-1.081-2.029-2.074 0-1.067 1.822-2.746 2.981-2.748 1.45-.002 4.595 1.451 6.377 2.947.913.766 3.151 2.877 4.973 4.69 3.208 3.192 4.283 3.94 5.661 3.94.513 0 .126-.563-1.771-2.58-1.335-1.419-3.127-3.626-3.983-4.904-.856-1.279-1.851-2.759-2.21-3.29-.36-.531-.955-1.409-1.323-1.951-.368-.543-1.056-1.99-1.528-3.216-.472-1.226-1.069-2.736-1.326-3.355-1.526-3.68-2.295-7.488-2.563-12.684-.1-1.935-.39-4.421-.646-5.523-.53-2.287-.296-3.334.925-4.134.811-.531 1.596-.41 2.53.391.297.255 1.021.703 1.608.996 1.466.732 1.935 1.917 2.247 5.674.434 5.235.888 7.965 1.525 9.166 1.72 3.244 2.141 3.917 2.914 4.658.533.51 1.382.881 2.308 1.01 1.324.181 1.55.112 2.338-.721.48-.507 1.102-1.356 1.382-1.886.28-.531.847-1.409 1.259-1.952.413-.543 1.191-1.99 1.73-3.216.539-1.226 1.542-3.387 2.23-4.802.688-1.415 1.492-3.262 1.788-4.104.871-2.479 2.819-2.96 3.566-.881.656 1.825.561 6.127-.173 7.839-.344.803-.724 2.01-.844 2.68-.381 2.138-2.086 6.179-3.251 7.704-3.311 4.338-3.429 6.174-.662 10.271.905 1.339 2.31 3.11 3.123 3.934 1.817 1.843 5.63 5.203 6.581 5.798.386.242 1.043.937 1.46 1.545.417.608 1.059 1.263 1.428 1.457.669.351 1.455 1.031 3.886 3.364.708.679 1.661 1.452 2.118 1.717.869.504 3.186 2.09 5.922 4.054.884.635 2.642 2.091 3.906 3.235 1.264 1.145 2.881 2.51 3.593 3.033.712.524 1.787 1.708 2.389 2.631.91 1.397 4.43 8.381 5.385 10.684.147.354.931 2.036 1.743 3.737.812 1.702 1.476 3.251 1.476 3.444 0 .192.711 1.869 1.58 3.725 1.047 2.237 2.028 3.814 2.907 4.676.73.715 1.444 1.301 1.587 1.301.143 0 .599.294 1.013.654.456.396.952.566 1.255.43 1.241-.554 2.94-.492 4.173.151 1.145.597 1.304.611 1.686.151.232-.28.949-.841 1.593-1.248 1.33-.839 2.341-2.49 3.759-6.136 1.84-4.731 3.283-7.989 3.925-8.862.352-.479.641-1.017.641-1.195 0-.941 4.074-6.907 6.275-9.19 1.364-1.415 3.152-3.27 3.972-4.121 1.61-1.672 3.666-3.178 7.107-5.205 2.335-1.376 4.878-3.276 7.561-5.653.914-.81 2.81-2.32 4.212-3.357 2.913-2.153 3.757-2.908 8.376-7.488 1.837-1.822 3.574-3.765 3.86-4.318.286-.553 1.027-1.727 1.647-2.609 1.655-2.355 2.321-4.03 2.32-5.84-.002-2.347-.801-3.721-3.442-5.918-3.043-2.531-4.03-3.685-5.576-6.527-2.851-5.236-3.408-7.316-2.867-10.706.405-2.535.865-3.531 2.362-5.119 1.51-1.601 2.718-1.586 3.989.049 1.353 1.74 1.324 1.662 1.982 5.285.762 4.193 2.045 6.638 6.06 11.546 2.912 3.561 4.928 4.119 6.91 1.911 2.946-3.281 4.8-8.46 5.244-14.642.273-3.807.437-4.32 1.797-5.62 2.741-2.62 4.904-1.282 5.303 3.28.197 2.254-1.067 8.239-2.602 12.316-.457 1.214-1.049 3.663-1.316 5.442-.629 4.199-1.5 7.07-2.883 9.522-.614 1.086-1.116 2.049-1.116 2.139 0 .154-1.869 2.64-2.248 2.99-.096.088-.895 1.084-1.777 2.212-.882 1.128-1.884 2.286-2.227 2.573-.343.287-1.139 1.036-1.769 1.664-.63.628-2.122 1.908-3.316 2.843-1.782 1.396-2.171 1.867-2.171 2.625 0 2.577 4.93 1.935 10.331-1.346 1.674-1.016 4.926-4.03 6.288-5.819 1.309-1.724 3.322-3.145 4.453-3.145 2.185 0 2.588 1.916 1.044 4.962-1.136 2.24-9.966 10.796-11.143 10.796-.155 0-.475.233-.712.518-.445.536-2.932 1.763-5.242 2.586-.726.259-2.714.544-4.417.634-2.708.143-3.252.08-4.337-.501-1.442-.773-3.445-.858-4.707-.199-.775.404-2.993 2.13-4.846 3.77-.334.295-1.209.918-1.946 1.383-1.849 1.169-2.753 2.592-2.823 4.445-.032.834.002 1.56.075 1.613 1.043.759 8.152 3.865 10.06 4.397 2.502.697 2.562.699 4.961.134 2.575-.606 6.01-2.641 9.113-5.396 3.667-3.256 4.823-3.678 5.714-2.086.421.753.414 1.031-.064 2.512-.616 1.906-3.315 5.992-5.215 7.893-.795.796-2.95 2.14-5.628 3.51l-4.339 2.22-3.859.027c-4.01.028-6.345-.465-8.201-1.728-1.593-1.084-2.92-1.606-3.039-1.195-.062.212-.344 2.369-.627 4.793-.645 5.526-1.451 7.809-3.784 10.734-2.192 2.748-4.461 4.517-7.821 6.101-2.363 1.113-2.788 1.209-5.306 1.189-1.613-.013-3.333-.23-4.185-.528-2.544-.892-3.165-.554-2.025 1.1.738 1.071 1.321 1.479 2.708 1.895.643.193 1.35.567 1.569.831.819.987 8.06.144 13.184-1.536 2.346-.769 4.261-1.166 6.271-1.302 4.677-.316 10.535.709 12.811 2.243 1.797 1.211 2.772 1.72 3.295 1.72.239 0 .91.405 1.491.901.581.495 1.835 1.391 2.786 1.99 1.931 1.215 2.612 2.4 2.612 4.546 0 1.078-.255 1.678-1.276 3-.702.91-1.5 2.189-1.773 2.844-.43 1.029-.637 1.188-1.538 1.178-.572-.006-1.403-.218-1.845-.471-1.2-.686-2.13-.582-4.01.447-.931.511-2.164 1.033-2.738 1.159-1.467.322-4.512 1.705-4.512 2.049 0 .158-.398.429-.884.602-1.839.657-3.197 1.049-3.641 1.052-.253.002-1.183.359-2.068.794-1.806.889-2.868.964-6.489.463-3.145-.436-5.414-1.221-7.322-2.534-2.125-1.462-2.59-1.261-2.59 1.12 0 1.058-.135 2.133-.301 2.39-.165.257-.323 1.777-.35 3.377-.041 2.389.071 3.139.622 4.196.765 1.466.884 4.651.22 5.892-.218.407-.522 1.964-.677 3.459-.201 1.948-.468 2.958-.943 3.561-.364.463-.662 1.107-.662 1.431 0 .324-.415 1.064-.921 1.645-.507.581-1.029 1.402-1.161 1.824-.132.422-.728 1.407-1.325 2.189-1.167 1.529-3.809 6.799-4.176 8.329-.123.514-.351 1.097-.506 1.296-.596.761-1.88 4.991-1.88 6.192 0 1.616 1.127 5.267 2.103 6.813.497.787.887 2.127 1.132 3.887.463 3.326.146 4.707-1.619 7.06-.697.927-1.358 2.132-1.471 2.678-.276 1.342-1.622 5.111-2.281 6.387-.817 1.582-1.362 1.88-3.066 1.68-.877-.103-1.589-.039-1.707.153-.216.35-.39.35-5.633.003m5.085-3.179c1.165-.624.801-.997-.984-1.01-.929-.006-2.05-.218-2.492-.471-1.146-.655-4.374-.637-4.629.026-.341.889-.22 1.119.85 1.606 1.228.559 6.118.456 7.256-.153m-10.07-4.454c-.128-.486-.216-1.504-.195-2.261.022-.784-.248-2.01-.628-2.838-1.429-3.137-.026-4.425 2.293-2.106 1.065 1.065 1.249 1.43 1.073 2.132-.159.635-.027 1.044.529 1.637.424.452.82 1.373.925 2.153l.183 1.363 1.768.059c.972.032 3.142.188 4.823.346 1.68.158 3.22.231 3.422.162.202-.069.683-1.021 1.07-2.115.951-2.688 1.598-4.092 2.309-5.01 1.184-1.524.443-3.658-1.869-5.387-.678-.507-1.282-1.03-1.341-1.163-.247-.557-.697-.179-.697.585 0 .807-.048.824-2.01.755-1.105-.039-2.343.035-2.749.165-.443.142-.926.081-1.206-.151-.345-.286-.58-.294-.899-.029-.543.45-.855.152-.855-.815 0-.522.185-.75.609-.75.335 0 .692-.217.794-.482.102-.265.484-.482.848-.482.365 0 .747-.217.848-.482.102-.265.352-.482.556-.482.204 0 .56-.304.792-.675.274-.438.639-.618 1.042-.513.93.243 1.01-.205.305-1.755-.721-1.59-.862-5.249-.294-7.67.187-.796.32-2.388.296-3.538-.024-1.15-.033-2.525-.021-3.055.105-4.37.026-5.928-.347-6.841-.342-.838-.349-1.181-.035-1.684.517-.828.485-1.62-.098-2.391-.26-.343-.473-1.212-.474-1.93-.0001-.718-.223-1.728-.492-2.245-.564-1.082-.118-1.65.878-1.117.319.171 1.304.214 2.188.097 1.106-.147 1.608-.1 1.608.15 0 .593.779.413 1.212-.28.221-.354.69-.643 1.042-.643.471 0 .64-.216.64-.814 0-.448.181-.864.402-.926.221-.062 1.504-.354 2.851-.65 2.01-.443 2.512-.678 2.807-1.325.455-.999.272-.989-1.106.063-1.02.778-1.288.833-3.182.656-1.952-.182-2.105-.146-2.725.642-.598.76-.803.818-2.275.644-1.594-.189-1.621-.178-1.81.767-.185.924-.247.954-1.678.827-.817-.072-1.726-.231-2.02-.353-.883-.366-1.879-3.142-1.879-5.238 0-3.362 1.661-4.168 2.095-1.016.227 1.652.448 1.672.933.083.137-.449.017-.883-.344-1.245-.523-.523-.524-.642-.011-2.087.299-.843.544-1.732.544-1.977 0-.245.339-.949.754-1.565.415-.616.85-1.512.968-1.991.118-.479.581-1.131 1.03-1.447.449-.317 1.489-1.114 2.312-1.772.822-.658 2.403-1.582 3.512-2.054 1.786-.759 2.127-.811 2.992-.453.537.222.976.601.976.841 0 .557-1.355.904-2.452.629-.625-.157-1.166.012-2.09.652-.686.475-1.247 1.036-1.247 1.246 0 .21-.362.722-.804 1.138-.442.415-.804.922-.804 1.126 0 .204-.37.718-.823 1.143-.452.425-1.25 1.669-1.773 2.765-.798 1.673-.893 2.118-.591 2.78.262.576.264.967.005 1.451-.195.364-.355 1.251-.355 1.97 0 1.583.64 1.739 1.958.476.734-.703.842-1.024.7-2.079-.1-.745.052-1.919.378-2.914.666-2.036 3-5.432 3.737-5.432.295 0 .901-.287 1.347-.638.446-.351 1.659-.856 2.697-1.123 2.342-.603 3.078-1.403 2.947-3.199-.083-1.13-.208-1.324-.9-1.402-1.749-.196-2.235-.431-2.639-1.279-.348-.73-.661-.9-1.809-.982-.763-.055-1.593.07-1.843.277-.52.432-1.571.154-1.268-.336.269-.435-.901-.412-1.887.038-.436.199-1.236.978-1.778 1.732-.582.811-1.349 1.462-1.875 1.593-.49.122-1.351.573-1.914 1-.563.428-1.25.779-1.528.779-.72 0-.622.847.191 1.66l.695.695-.73.592c-1.357 1.099-4.277.434-5.164-1.177-.438-.794-.804-1-2.074-1.185-.932-.133-1.877-.523-2.386-.983-.753-.681-1.504-1.217-4.504-3.217-.463-.309-1.322-.562-1.908-.563-.586-.0001-1.326-.141-1.644-.311-.744-.398-1.436-2.067-1.211-2.925.096-.366-.086-1.247-.404-1.957l-.578-1.291-.362 1.038c-.199.571-.362 1.748-.362 2.616 0 1.359-.14 1.706-1.01 2.501l-1.01.923 1.088.104c1.587.152 1.652 1.084.096 1.375-1.228.23-3.02 1.716-3.02 2.502 0 .245.214.727.476 1.07.385.505.532.54.765.187.159-.241.22-.699.137-1.018-.211-.808.994-1.514 3.046-1.783 1.568-.206 1.738-.161 2.355.624.366.465.951.846 1.3.846.349 0 .985.378 1.413.839.428.462 1.25 1.077 1.827 1.367 1.243.625 2.575 2.483 2.443 3.409-.057.398-.379.696-.817.759-.941.134-2.654-1.094-2.654-1.901 0-.444-.288-.687-.979-.825-.633-.127-1.145-.517-1.448-1.103-.342-.661-.796-.966-1.674-1.123-.663-.119-1.453-.432-1.756-.697-.749-.654-1.54-.281-1.54.726 0 1.137 2.202 3.111 4.474 4.01 1.907.755 4.396 3.084 4.74 4.435.102.401.003 1.171-.22 1.71-.344.831-.329 1.056.099 1.485.289.289.737.416 1.046.298.434-.167.503-.477.351-1.572-.563-4.054-.564-4.655-.012-4.867.718-.276 1.421.353 1.421 1.27 0 1.14.6 2.462 1.047 2.307.237-.082.359-.553.299-1.154-.12-1.202.674-1.702 1.457-.919.399.399.625.425 1.102.127 1.046-.653 1.723.095 1.728 1.912.002.862.183 1.884.402 2.271.284.502.306.944.076 1.549-.453 1.191-.4 1.769.161 1.769.675 0 .601.758-.141 1.429-.773.699-1.421.356-1.175-.624.141-.561.053-.722-.376-.689-.333.026-.561-.182-.563-.515-.002-.307-.304-.769-.67-1.026-.617-.432-.786-.364-2.248.904-.869.754-2.051 1.614-2.626 1.911-.575.297-1.492.772-2.039 1.057-.977.509-1.011.5-2.053-.51-.718-.696-1.305-.992-1.82-.92-1.305.185-.837 1.02 1.089 1.944 1.017.488 1.849 1.091 1.849 1.34 0 .789-1.01.88-2.384.214-1.03-.499-1.698-.6-2.967-.45-1.062.126-1.716.067-1.861-.167-.326-.528-1.15-.441-1.15.121 0 .326.326.482 1 .482h1l-.224 1.528c-.123.84-.357 1.665-.519 1.833-.379.392-.385 1.785-.008 1.785.158 0 .37-.217.472-.482.185-.481 1.817-.699 1.809-.241-.003.133-.217.851-.477 1.596-.493 1.415-.34 3.308.267 3.308.192 0 1.481-.878 2.865-1.951 3.184-2.468 4.362-2.494 1.884-.042-.945.935-1.629 1.789-1.521 1.898.109.109.463-.043.788-.336.674-.61 1.665-.711 1.665-.17 0 .2-.284.61-.631.911-.685.594-1.366 2.088-1.081 2.372.097.097.595-.133 1.107-.511 1.134-.839 1.865-.43 1.258.704-.634 1.184-1.28 3.234-1.02 3.234.136 0 .789-1.094 1.45-2.432 1.445-2.923 2.159-3.113 2.509-.668.122.855.292 1.624.376 1.709.084.084.024.605-.134 1.157-.211.737-.162 1.196.187 1.728.516.788.378 1.457-.55 2.666-.595.775-.593.789.229 1.447.74.593.865 1.01 1.154 3.843.353 3.469.034 5.148-1.3 6.844-.858 1.091-.836 1.704.064 1.769.398.029 1.375.093 2.171.143 3.424.216 3.687.277 3.804.884.156.81-.432 1.377-.977.941-.26-.208-1.079-.242-2.184-.09-1.247.171-2.177.106-3.151-.219-1.366-.455-1.392-.45-2.261.481-1.577 1.689-1.739 2.406-.992 4.404.363.971.802 1.766.976 1.766.524 0 1.247 2.138 1.247 3.688 0 1.699.81 2.744 2.128 2.744.76 0 .819-.086.609-.884m10.384-.621c-1.338-.352-.9-2.187.995-4.168 1.221-1.277 2.283-3.01 2.285-3.722.002-.956 1.119-1.296 1.977-.601.708.573.725.674.313 1.845-.24.681-.699 1.527-1.019 1.881-.707.779-1.269 2.192-1.269 3.187 0 1.383-1.424 2.068-3.281 1.579m-9.904-15.52c0-.166.145-.392.322-.501.177-.109.322.027.322.303 0 .276-.145.501-.322.501-.177 0-.322-.136-.322-.303m-4.02-21.968c-.075-.221-.134-.764-.13-1.206.004-.442-.158-1.71-.358-2.817-.339-1.874-.313-2.104.382-3.348.723-1.294 1.676-2.179 1.999-1.856.145.145.222 2.6.204 6.548-.004.87-.228 1.92-.498 2.332-.531.81-1.377.994-1.598.347m15.946 24.645c.373-.449.349-.504-.175-.402-.333.065-.667.298-.74.519-.191.574.405.497.915-.117m3.441-14.656c.095-.488-1.451-1.746-1.762-1.435-.09.09.099.61.421 1.154.603 1.02 1.175 1.14 1.342.28m-19.23-2.21c0-.364-.145-.573-.322-.463-.177.109-.322.407-.322.662 0 .255.145.463.322.463.177 0 .322-.298.322-.662m18.959-2.393c-.019-1.566-.757-4.288-1.315-4.845-.475-.475-.534-.426-.727.603-.121.646-.049 1.474.171 1.957.291.638.293 1.032.008 1.656-.397.871-.495 2.168-.188 2.475.102.102.608-.055 1.124-.348.716-.407.935-.763.927-1.499m1.835-2.177c-.088-.218-.155.038-.148.569.007.531.079.709.16.396.082-.313.076-.747-.012-.965m1.397-4.535c0-.591-1.993-1.972-2.681-1.858-.325.054-.885-.167-1.246-.49-.65-.582-.654-.577-.423.538.128.619.503 1.406.833 1.748.577.598.626.6 1.233.051.608-.55.654-.547 1.194.084.578.674 1.09.64 1.09-.073m5.695-5.469c.351-.351-.324-.857-.9-.674-.425.135-.679.014-.816-.389-.476-1.405-1.489-3.319-1.757-3.319-.493 0-.325 1.527.189 1.724.329.126.482.641.482 1.621v1.436l1.322-.121c.727-.067 1.393-.192 1.479-.279m-7.567-1.236c-.178-.178-.49-.221-.694-.095-.262.162-.2.418.213.876.528.585.594.594.694.095.061-.304-.035-.698-.213-.876m2.528-1.653c-.16-.16-.527-.201-.815-.091-.478.183-.473.287.054 1.179l.578.978.237-.888c.131-.488.106-1.019-.054-1.179m-35.696-1.049c.225-.591.211-.976-.047-1.286-.831-1-1.485-.129-.953 1.27.409 1.076.597 1.079 1 .016m42.11-1.569c0-1.079-.509-1.266-1.11-.408-.468.669-.466.761.025 1.121.692.506 1.084.248 1.084-.713m-32.722-3.063c.872-.954 1.249-2.887.563-2.887-.177 0-.322.368-.322.819 0 1.247-1.339 2.396-2.799 2.402-.671.002-1.558.095-1.971.205-1.362.365-.022.798 1.876.607 1.431-.144 1.938-.363 2.653-1.146m-9.591-1.064c-.113-.295-.335-.536-.493-.536-.336 0-.388 1.078-.067 1.399.362.362.782-.285.56-.863m44.24.249c0-.276-.145-.412-.322-.303-.177.109-.322.335-.322.501 0 .166.145.303.322.303.177 0 .322-.226.322-.501m-44.17-3.977c.193-1.846.166-1.954-.485-1.954-.74 0-.856.505-.7 3.055.163 2.669.859 2.022 1.185-1.101m3.661 1.409c.311-.375.321-.587.041-.867-.28-.28-.482-.219-.826.251-.737 1.01-.012 1.577.786.616m2.819-1.353c-.084-1.604-.187-1.862-.78-1.947-.746-.106-2.07.948-1.45 1.155.201.067.365.492.365.944 0 .828.769 1.668 1.544 1.687.307.007.392-.483.322-1.839m29.378.241c.351 0 .92.151 1.264.335.486.26.67.223.819-.165.106-.275.037-.687-.152-.915-.189-.228-.263-.726-.163-1.107.144-.549.007-.736-.659-.903-1.723-.433-3.397 1.902-2.679 3.736l.309.787.312-.884c.198-.563.544-.884.949-.884m7.03 1.107c0-.078-.145-.142-.322-.142-.177 0-.322.153-.322.341 0 .187.145.251.322.142.177-.109.322-.263.322-.341m-.109-2.473c-.089-.221-.162-.04-.162.402 0 .442.073.623.162.402.089-.221.089-.583 0-.804m-2.143-3.94c0-.619.145-1.144.322-1.166.177-.022.454-.058.616-.08.162-.022.403-.149.535-.281.252-.252-3.149-.027-4.127.273-.31.095-.711.449-.891.786-.28.523-.197.642.563.805.49.105 1.181.316 1.535.469 1.183.509 1.447.363 1.447-.805m15.12-3.698c0-.177-.136-.322-.303-.322-.166 0-.392.145-.501.322-.109.177.027.322.303.322.276 0 .501-.145.501-.322m2.943-1.455c-.314-1.173-1.335-1.512-1.335-.443 0 .841.959 2.032 1.335 1.657.141-.141.141-.687.0001-1.214m-71.36-.156c1.487-.587 1.78-.817 1.488-1.168-.465-.56-1.089-.554-1.984.019-1.068.684-2.285.766-2.406.161-.066-.33.349-.711 1.18-1.086 1.613-.727 2.85-1.986 2.397-2.439-.221-.221-.595-.116-1.156.326-.952.749-1.309.797-2.129.285-.479-.299-.82-.21-1.839.482-1.453.987-2.813 1.145-2.652.307.058-.303 1.171-1.082 2.516-1.761 2.051-1.035 2.267-1.218 1.447-1.222-.531-.002-2.092.356-3.469.796-3.138 1-3.588 1.024-3.121.152.348-.649 2.348-1.708 3.857-2.041.442-.098 1.093-.396 1.447-.663.618-.467.603-.487-.379-.496-.562-.006-1.229.196-1.481.449-.252.252-1.167.773-2.033 1.158-.866.384-1.863.833-2.217.998-.354.165-1.077.331-1.608.37-1.573.115-1.158-.745.877-1.816 1.013-.533 1.787-1.024 1.72-1.091-.206-.206-2.888.651-3.413 1.091-.755.633-2.766 1.404-3.665 1.404-.474 0-.944-.264-1.147-.643-.224-.419-.673-.643-1.29-.643-.653 0-1.108-.248-1.471-.801-.289-.441-.657-.719-.819-.619-.162.1-.706.091-1.21-.019-.668-.147-1.072-.547-1.493-1.482-.74-1.642-.519-1.855 2.471-2.379 1.347-.236 3.279-.88 4.487-1.497 1.167-.595 3.193-1.625 4.501-2.288 2.699-1.368 4.565-1.59 5.092-.605.227.424.795.647 1.927.755 2.405.231 3.565 1.27 4.454 3.988.641 1.961.897 2.33 2.248 3.239 2.126 1.431 3.073 1.726 4.787 1.491l1.487-.204-.172.934c-.095.514-.251 1.26-.347 1.658-.21.87.203.921 1.857.229.696-.291 1.453-.952 1.84-1.608.631-1.07.92-1.252 1.8-1.138.262.034.402-.388.402-1.214 0-.873.163-1.328.523-1.467.726-.279 1.401.37 1.433 1.377.021.689.175.519.832-.924.992-2.178.965-2.151 1.714-1.683.735.459.824.337 1.119-1.533.196-1.242.167-1.371-.204-.912-.616.762-2.573 1.875-3.299 1.876-.338.0001-1.279-.422-2.09-.939-2.223-1.417-3.783-1.894-6.653-2.035-1.927-.095-2.848-.296-3.538-.771-.513-.354-1.439-.839-2.058-1.08-.619-.24-1.535-.772-2.035-1.182-.5-.41-1.287-.745-1.748-.745-.462 0-1.908-.3-3.215-.667-1.974-.554-2.631-.61-3.88-.333-.827.184-2.372.497-3.433.696-1.061.199-2.508.706-3.216 1.128-.708.421-1.721.97-2.251 1.219-.531.249-1.399.875-1.93 1.391-1.014.986-4.479 2.673-5.507 2.681-.332.003-.786.121-1.01.263-.45.285-1.683 2.563-1.683 3.107 0 .402 2.933 3.252 4.342 4.219.531.364 2.01.917 3.286 1.229 1.947.475 2.724.513 4.816.234 2.662-.356 3.315-.17 3.315.944 0 .507.123.549.825.282.454-.173 1.105-.314 1.447-.314.861 0 .808 1.12-.082 1.743-1.07.75-.532.911 1.584.474 2.269-.469 3.129-.253 2.875.721-.172.659-.1.674 2.456.521 1.653-.099 3.323-.43 4.484-.889m57.48-.498c0-.078-.226-.142-.501-.142-.276 0-.41.147-.299.327.184.297.801.154.801-.185m20.08.188c.875-.333 1.126-.973.382-.973-.244 0-.629-.224-.857-.499-.341-.411-.325-.587.087-.999.422-.422.76-.445 2.159-.145 2.182.468 2.27.458 2.27-.248 0-1.05.786-1.416 2.332-1.086.766.163 1.604.197 1.862.076 3.919-1.845 5.417-2.29 6.942-2.061l1.407.211v-1.011c0-1.268-.702-1.576-1.583-.694-.948.948-1.496.835-2.399-.494-.578-.85-.745-1.436-.623-2.186.206-1.269-.535-2.097-1.18-1.32-.618.744-1.223.584-1.767-.469-.432-.836-1.358-1.618-1.916-1.618-.102 0-.016.27.19.601.446.714.164 1.651-.497 1.651-.258 0-1.328-.593-2.377-1.317-2.155-1.487-3.872-1.778-4.817-.815-.53.54-.51.607.407 1.349.531.429 1.426.868 1.989.975 1.436.272 2.19 1.161 1.724 2.033-.197.368-.534.672-.749.675-.721.009.548.628 1.298.633 1.014.007.918.909-.125 1.17-1.164.292-3.172-.242-3.172-.844 0-.265.308-.526.685-.58.605-.086.643-.19.322-.882-.227-.489-.635-.785-1.087-.787-1.056-.004-1.206.096-1.099.725.07.41-.183.623-.917.769-1.512.302-1.582 1.023-.209 2.175 2.376 1.995.837 2.366-2.01.484-1.366-.903-2.275-1.156-2.683-.748-.451.451.288 1.192 1.897 1.904.949.42 1.725.909 1.725 1.086 0 .605-1.023.898-2.604.747-.867-.083-1.577-.082-1.577.003 0 .587 1.904 2 3.156 2.349 1.904.525 2.395.547 3.416.159m-11.717-.33c0-.177-.153-.322-.341-.322-.187 0-.251.145-.142.322.109.177.263.322.341.322.078 0 .142-.145.142-.322m-32.993-1.747c.261-.625.891-1.326 1.452-1.616.545-.282.99-.717.99-.967 0-.625.627-.96 1.034-.553.5.5.037 1.865-.939 2.77-.677.628-.761.839-.388.982.581.223 4.131-1.653 4.386-2.318.101-.264-.066-.906-.373-1.425-.773-1.308-.225-1.945 1.559-1.814 1.297.095 1.316.081 1.411-1.06.078-.932-.124-1.42-1.045-2.523-.628-.752-1.142-1.587-1.142-1.856 0-.269-.597-1.035-1.327-1.703-1.394-1.274-1.428-1.928-.101-1.928.952 0 .953-.018.112-1.666-.501-.983-.624-1.655-.483-2.64.395-2.757.186-3.139-2.306-4.211l-1.372-.59-.799.75c-1.157 1.087-1.079 2.407.168 2.842 1.049.366 1.748 1.666 1.432 2.663-.269.847-1.324.746-1.934-.185-.358-.546-.868-.816-1.671-.884-1.042-.089-1.2-.231-1.603-1.446-.36-1.085-.716-1.478-1.824-2.01-1.947-.943-4.371-4.13-4.371-5.748 0-.341-.207-.792-.46-1-.253-.21-.742-1.216-1.086-2.236-.344-1.02-1.151-2.541-1.791-3.381-.641-.839-1.165-1.65-1.165-1.8 0-.586 1.053-1.3 1.642-1.113.457.145.609.035.609-.437 0-.347-.19-.703-.421-.792-.232-.089-.608-.792-.835-1.562-.227-.77-1.34-3.32-2.473-5.667-1.133-2.347-2.06-4.373-2.061-4.502-.006-.902-10.418-10.606-13.365-12.456-1.771-1.112-4.322-3.104-4.322-3.376 0-.143-.615-.628-1.367-1.076-.752-.448-2.235-1.635-3.296-2.637-2.832-2.674-6.618-5.981-7.892-6.894-1.227-.879-5.118-4.85-5.127-5.232-.003-.133-.191-.241-.417-.241-.226 0-.659-.289-.962-.643-.303-.354-.905-.643-1.337-.643-1.49 0-2.439-.579-2.646-1.614-.108-.54-.482-1.134-.831-1.321-.485-.26-.592-.555-.452-1.255.162-.81.083-.926-.689-1.016-1.327-.153-1.083-.991.39-1.34 1.52-.36 2.969-1.74 4.2-4 .761-1.398 1.06-1.676 1.804-1.676.778 0 1.032-.277 1.992-2.171.605-1.194 1.423-3.256 1.817-4.583.394-1.327.876-2.918 1.07-3.538.433-1.377.523-2.251.232-2.251-.454 0-1.228 1.226-2.675 4.24-.823 1.713-1.631 3.198-1.796 3.3-.165.102-.389.582-.498 1.066-.553 2.453-5.144 6.509-7.368 6.509-1.328 0-4.084-1.368-4.677-2.322-1.353-2.177-2.592-4.956-2.875-6.444-.853-4.495-1.011-5.776-1.011-8.197 0-3.01-.324-4.118-1.292-4.425-.377-.12-.741-.163-.808-.095-.067.067.016 2.307.185 4.978.226 3.573.528 5.608 1.142 7.706.459 1.568 1.039 3.623 1.29 4.567.653 2.462 1.669 4.772 2.994 6.809.634.975 1.442 2.349 1.796 3.053.882 1.755 1.866 2.929 5.863 6.993 1.174 1.194 2.242 2.171 2.372 2.171.131 0 .403.501.605 1.113.311.942.268 1.337-.28 2.577l-.647 1.464-2.348-.21c-1.31-.117-2.917-.494-3.634-.853-.708-.354-2.806-2.182-4.663-4.063-1.857-1.881-4.245-3.995-5.306-4.698-1.061-.703-1.978-1.387-2.037-1.52-.059-.133-.341-.241-.626-.241-.376 0-.241.287.492 1.045.556.575 1.403 1.913 1.884 2.975 1.039 2.296 3.31 5.578 4.919 7.109 2.583 2.457 7.205 4.758 9.172 4.566.813-.079.99-.239.99-.895 0-.987.858-1.22 1.923-.522.421.276 1.352.595 2.07.71 2.481.397 3.652-1.271 2.391-3.405-.609-1.03-.375-2.032.438-1.876.304.059.885.6 1.292 1.204.407.604 1.136 1.348 1.619 1.654 1.559.987 4.551 4.099 4.766 4.958.135.54.66 1.064 1.486 1.486 2.414 1.232 6.282 4.214 9.748 7.516.747.711 1.696 1.526 2.11 1.809.68.466.723.637.444 1.769-.281 1.138-.51 1.349-2.5 2.3-2.079.993-2.186 1.098-2.09 2.054.153 1.534 1.024 1.926 2.995 1.35.884-.259 2.476-.549 3.538-.646 1.061-.097 2.067-.305 2.235-.463.536-.503 1.987-.308 2.579.345.377.417.515.932.404 1.511-.116.609.059 1.181.569 1.86 2.05 2.731 4.666 9.751 4.666 12.525 0 .418.472 1.137 1.126 1.716 1.304 1.155 1.386 1.533.442 2.038-.496.265-.893.271-1.446.019-.897-.409-1.603-.173-3.659 1.224-.796.541-1.836.984-2.311.985-.475.0001-1.258.151-1.741.335-1.832.696-7.449-1.267-9.06-3.168-1.564-1.841-2.282-5.238-2.628-12.441-.325-6.741-1.254-12.221-2.073-12.221-.159 0-.506.579-.77 1.286-.361.965-.518 3.266-.631 9.207-.139 7.331-.097 8.152.562 11.04.486 2.135 1.117 3.827 1.994 5.348 1.51 2.619 2.382 3.384 3.136 2.753.676-.566 1.47-.336 2.087.605.754 1.151 2.327 1.858 3.654 1.643.616-.1 1.831-.03 2.698.157 1.311.281 1.514.416 1.198.796-.276.333-.829.411-2.025.287-1.166-.121-1.457-.082-1 .133.985.465 3.911.412 4.402-.079.235-.235 1.117-.522 1.958-.638 2.41-.33 3.368-.977 3.787-2.554.645-2.431 1.287-3.498 2.037-3.391.883.126 1.11 1.415.295 1.674-.53.168-1.6 2.657-1.279 2.977.073.073.514-.04.979-.252.538-.245 1.131-1.01 1.632-2.102.558-1.219.968-1.717 1.413-1.717.754 0 1.01.548.787 1.703-.134.703-.012.916.676 1.178.63.24.84.545.84 1.221 0 1.224.753 2.208 1.858 2.429.504.101 1.264.465 1.689.81.664.538.713.7.343 1.146-.237.286-.63.519-.874.519-1.194 0 .263 1.921 1.835 2.42.919.292.75.939-.492 1.886-2.035 1.552-3.388 3.202-3.391 4.135-.003.992.356 1.132.98.381.23-.277.812-.707 1.293-.956.759-.393.928-.39 1.27.022.325.391.16.729-.932 1.914-1.662 1.803-1.755 2.567-.281 2.301.75-.136 1.269-.017 1.837.419.768.59.779.657.375 2.231-.525 2.049-.294 2.477.946 1.745.518-.306.943-.665.943-.798 0-.391 1.231-.934 1.421-.628.095.155-.113.611-.463 1.015-.708.816-.846 2.549-.251 3.144.604.604.857.469 1.353-.718m36.04.232c.261-1.042-.331-1.589-2.054-1.9-.633-.114-1.403-.338-1.713-.498-1.66-.857.633 1.811 2.455 2.856.965.554 1.067.518 1.312-.458m-7.298-.656c-.21-.486-.858-1.428-1.44-2.091-1.267-1.445-1.288-1.648-.272-2.664.731-.731.954-.774 3.136-.612l2.349.175 1.425-1.939c2.43-3.308 3.596-4.246 8.06-6.487 3.592-1.802 7.04-1.483 12.766 1.183 2.561 1.192 3.36 1.721 3.647 2.416.508 1.225 1.207 1.78 2.769 2.196.734.195 1.426.595 1.538.888.351.914.852-.008.625-1.148-.172-.859-.645-1.338-2.6-2.633-1.315-.871-2.507-1.583-2.65-1.583-.143 0-1.095-.649-2.116-1.442-1.048-.814-2.361-1.529-3.01-1.641-.636-.11-1.88-.398-2.765-.642-3.147-.867-9.401-.784-11.577.154-2.716 1.17-9.597 2.543-12.965 2.587-1.565.02-2.613.202-3.133.543-.855.56-1.751.4-1.751-.313 0-.847-.743-1.111-1.835-.653-1.658.696-1.851 1.447-.701 2.73l.977 1.089.59-.724c.324-.398.746-.724.938-.724.344 0 2.833 1.716 4.02 2.774.602.535.597.561-.241 1.23-1.022.815-1.076 1.581-.212 2.998.353.579.642 1.244.642 1.478 0 .234.306.7.68 1.037.374.337.806.942.96 1.345.262.685 1.227 1.291 2.132 1.338.309.016.312-.172.013-.864m-4.306-9.874c-.412-1.074.6-1.478 1.666-.665.54.412.559.52.142.799-.703.47-1.601.404-1.807-.134m-53.37 9.304c.341-.258.528-.56.417-.672-.359-.359-1.841.192-1.841.685 0 .601.62.595 1.424-.013m41.831-2.86c.954-.659 1.078-.828.482-.653-1.248.366-2.252 1.129-2.246 1.708.003.324.096.393.241.18.13-.19.815-.746 1.523-1.235m-18.792-.083c.18-.473.247-1.068.149-1.323-.291-.758-1.135.176-1.135 1.257 0 1.163.555 1.2.986.066m41.14-1.07c0-.177-.153-.322-.341-.322-.187 0-.251.145-.142.322.109.177.263.322.341.322.078 0 .142-.145.142-.322m-17.965-.975c-.418-.348-1.038-.632-1.378-.632-.519 0-.563.104-.275.643.237.443.666.64 1.378.632l1.034-.011-.759-.632m-65.01-1.257c0-.462-.527-.687-1.097-.468-.785.301-.607.771.293.771.442 0 .804-.136.804-.303m61.1-.963c0-.893-.763-1.904-1.059-1.403-.083.141-.25.715-.37 1.275-.177.826-.108 1.043.364 1.149.853.193 1.065-.001 1.065-1.021m-24.599.617c.111-.18.267-.722.345-1.206.279-1.713 1.122-3.515 2.069-4.422.528-.505.959-1.081.959-1.279 0-.392-2.161-1.449-2.963-1.449-.273 0-.688.232-.924.516-.235.284-.775.648-1.2.809-.655.249-.709.369-.355.795.297.358.721.445 1.482.302 1.247-.234 1.493.458.429 1.204-.858.601-1.695 2.683-1.428 3.554.404 1.318 1.154 1.875 1.586 1.177m-35.54-3.05c.513-.618-.001-.625-.823-.001-.524.397-.541.474-.101.482.288.006.704-.207.924-.472m63.35-.332c0-.495-.221-.882-.563-.988-.31-.096-.814-.308-1.121-.472-.776-.414-.889-.38-.889.274 0 .946.942 2 1.787 2 .626 0 .786-.165.786-.814m1.425-4.938c.097-.157-.008-.438-.233-.625-.496-.412-1.367.045-1.053.552.265.428 1.039.472 1.286.072m-30.69-2.307c0-.696.924-.841 1.931-.302.758.406 1.185-.15.63-.819-.517-.623-1.155-.582-2.848.187-1.374.623-1.397.658-.841 1.272.651.72 1.128.577 1.128-.338m23.1-2.071c.348-.442.714-.804.813-.804.099 0 .713-.362 1.364-.803 1.038-.704 1.494-.796 3.704-.747 2.319.052 2.58-.009 3.274-.758.728-.786.815-.801 2.501-.434.961.209 2 .495 2.32.635.315.14.973.174 1.462.077 1.064-.213 1.674.106 1.794.938.124.865 1.712.939 3.01.14 1.372-.848 1.321-1.219-.161-1.174-.966.029-1.206-.08-1.206-.55 0-.447.612-.792 2.567-1.447 2.202-.738 2.843-1.135 4.503-2.79 1.63-1.626 2.047-2.284 2.647-4.181.392-1.238.698-2.685.68-3.216-.018-.531.221-1.616.53-2.412.448-1.155.556-2.389.533-6.11-.016-2.565.109-5.676.278-6.914.462-3.394.57-5.95.252-5.95-.156 0-.497.509-.756 1.13-.406.972-.584 1.102-1.27.93-.49-.123-.798-.063-.798.156 0 .196.202.356.448.356.726 0 .868.916.337 2.185-.854 2.043-1.1 3.609-1.429 9.07-.343 5.701-.899 8.193-2.623 11.759-.772 1.596-1.276 2.165-2.777 3.134-1.01.651-2.269 1.196-2.799 1.21-.531.015-1.471.057-2.09.094-1.486.089-4.106-.383-5.163-.93-.736-.381-.915-.369-1.376.093-.492.492-.636.479-2.02-.192-1.353-.657-1.466-.799-1.268-1.593.12-.479.331-1.745.469-2.812.275-2.125.619-2.934 2-4.699.505-.645.918-1.373.918-1.619 0-.497 1.648-3.205 3.275-5.381 1.171-1.567 2.631-2.598 3.679-2.6.376-.0001 1.327-.361 2.113-.8 1.168-.653 1.805-.785 3.476-.724l2.046.076.563-1.888.563-1.888-.9-.757c-1.571-1.322-.656-3.035 1.353-2.531.688.173.812.067.994-.841.325-1.626 2.181-3.643 3.962-4.307.852-.317 1.838-.823 2.192-1.124.354-.301 1.367-.956 2.251-1.457.884-.501 2.968-1.972 4.631-3.269 1.774-1.384 3.331-2.359 3.769-2.359.41 0 1.258.288 1.884.639.626.352 1.824.8 2.663.996.839.196 2.12.658 2.848 1.026 1.284.649 1.387.654 3.461.142 2.027-.5 5.444-2.255 7.921-4.067.621-.454 2.133-1.911 3.361-3.238 1.228-1.327 2.475-2.535 2.771-2.684.633-.321 2.114-3.325 1.795-3.643-.12-.12-1.433 1.037-2.917 2.572-1.484 1.535-2.793 2.791-2.908 2.791-.116 0-.673.433-1.238.962-2.787 2.61-9.145 4.815-12.72 4.412-2.222-.25-2.94-1.253-2.94-4.102v-2.229l1.28-.808c.704-.444 1.375-.808 1.492-.808.116 0 1.429-1.194 2.917-2.653 2.474-2.426 5.245-5.964 5.245-6.696 0-.164-.362-.299-.804-.299-1.204 0-.994-.877.345-1.436.878-.367 1.105-.619.963-1.067-.137-.431.285-.994 1.587-2.117 2.076-1.792 2.549-2.601 3.02-5.168.193-1.043.548-2.126.79-2.405.242-.28.528-.978.636-1.552.108-.574.49-1.65.848-2.392.358-.742.652-1.508.652-1.703 0-.195.276-.895.613-1.557.372-.73.693-2.24.816-3.841.111-1.451.414-2.961.673-3.356.497-.758.648-4.144.216-4.824-.151-.237-.416-.279-.691-.109-.301.186-.58 1.57-.857 4.244-.226 2.183-.636 4.506-.912 5.164-.276.658-.502 1.503-.502 1.879 0 .376-.289 1.051-.643 1.501-.354.45-.643 1.059-.643 1.353 0 .295-.137.673-.305.841-.168.168-.687 1.029-1.154 1.913-.467.884-1.364 2.388-1.993 3.341l-1.144 1.733-2.666-.188c-3.184-.225-4.537-.842-6.593-3.01-4.02-4.243-6.788-9.216-6.944-12.488-.161-3.396-.626-4.663-1.709-4.663-.37 0-.753.506-1.129 1.489-.53 1.387-.534 1.662-.07 4.02.32 1.624.85 3.081 1.476 4.059.538.839 1.437 2.356 1.998 3.37.981 1.773 2.468 3.304 5.55 5.713 2.902 2.268 3.915 5.482 2.825 8.961-.677 2.159-4.067 7.521-5.809 9.189-.543.519-.987 1.076-.987 1.237 0 .28-3.602 3.772-7.464 7.237-1.01.906-2.305 1.889-2.879 2.186-.574.297-1.261.758-1.529 1.025-1.587 1.587-8.132 6.842-9.706 7.792-3.792 2.291-5.471 3.623-9.03 7.165-3.622 3.606-7.334 8.372-8.195 10.523-.248.619-.941 2.066-1.54 3.216-.599 1.15-1.261 2.74-1.472 3.533-.701 2.646-3.923 8.675-5.567 10.419-1.525 1.617-1.548 1.673-1.347 3.235.309 2.405.648 2.663 1.716 1.305m21.427-30.2c-.512-.374-.538-.519-.173-.958.547-.659 2.784-.702 3.03-.058.364.949-1.865 1.742-2.857 1.016m30.972-15.489c-.326-.326.11-1.101.619-1.101.267 0 .427.232.368.536-.112.575-.661.89-.986.565m-48.07 45.551c.251-.959-.616-1.056-1.611-.18l-.889.782 1.168.001c.89.008 1.207-.138 1.331-.612m18.243-3.076c.435-.524.331-.589-.456-.287-.28.107-.509.324-.509.482 0 .445.521.339.965-.195m-39.24-2.773c-1.287-1.273-1.614-1.476-1.431-.887.362 1.164 1.439 2.554 2.203 2.841 1.22.459.933-.267-.772-1.955m37.957-3.149c1.096-.767 1.749-2.883 2.719-8.816 1.153-7.05 1.176-6.84-.816-7.267-1.613-.346-1.652-.335-2.952.777-.725.62-1.43 1.128-1.568 1.128-.256 0-3.815 4.329-3.815 4.64 0 .094-.488.934-1.084 1.866-2.801 4.379-1.311 7.765 3.657 8.312 2.09.23 2.779.116 3.859-.64m-53.771-.273c1.205-.553 2.119-2.119 2.434-4.173.158-1.03.012-1.929-.597-3.672-.444-1.27-1.01-2.538-1.258-2.817-.248-.28-.69-1.087-.982-1.795-.292-.708-.986-1.757-1.542-2.332-.862-.891-1.237-1.045-2.541-1.045-1.372 0-4.04.546-5.471 1.119-1.126.451-1.31 1.783-.787 5.674.686 5.099.94 5.814 2.532 7.115 3.266 2.668 5.466 3.185 8.211 1.927m42.16-.418c-.623-.385-.775-.083-.267.53.31.374.474.412.567.131.072-.217-.063-.514-.301-.661m2.185-7.618c.112-.31.485-.969.829-1.466.344-.497.555-.974.469-1.06-.205-.205-2.164 2.269-2.164 2.733 0 .566.643.412.866-.207m31.936-4.662c1.971.065 2.612-.042 3.506-.589.804-.491 1.826-.71 3.854-.823 3.264-.183 3.967-.601 6.568-3.91 1.548-1.969 2.712-4.705 2.15-5.05-.126-.078-1.082.521-2.124 1.331-3.114 2.421-5.94 4.101-8.326 4.947-4.377 1.553-9.155.858-13.634-1.983-1.78-1.129-2.853-1.196-3.078-.194-.231 1.034.24 2.876.8 3.125.262.116 1.923.951 3.691 1.856 1.915.979 3.411 1.557 3.698 1.428.265-.119 1.568-.18 2.894-.136m-27.719-1.698c-.099-.099-.279.079-.4.397-.175.458-.138.495.18.18.22-.218.319-.478.22-.577m-69.32-.207c.368-.189.563-.666.563-1.376v-1.086l-3.618.074c-1.99.04-4.052-.038-4.583-.175-.531-.137-1.905-.478-3.055-.759-2.646-.647-5.349-1.986-6.137-3.042-1.274-1.707-1.406-1.814-1.517-1.234-.184.954 1.446 3.611 3.036 4.951 2.084 1.756 3.664 2.334 4.769 1.743.724-.387 1.102-.341 3.308.408 1.37.465 2.853.895 3.295.955 1.087.148 3.249-.104 3.94-.459m10.139-9.129c.393-.275.715-.62.715-.765 0-.41-3.097-3.558-3.5-3.558-.504 0-.452.325.284 1.769.354.694.643 1.569.643 1.944 0 1.216.676 1.438 1.858.611m82.02-9.334c.056-.039-.019-.145-.166-.236-.147-.091-.772.261-1.388.782l-1.12.947 1.286-.711c.708-.391 1.332-.743 1.388-.782" fill="#000"/>
</svg>
