<?xml version="1.0" encoding="UTF-8" standalone="no"?>
<!DOCTYPE svg PUBLIC "-//W3C//DTD SVG 1.1//EN" "http://www.w3.org/Graphics/SVG/1.1/DTD/svg11.dtd">
<svg xmlns="http://www.w3.org/2000/svg" width="300px" height="350px">
<g>
<path id="fill" d="m 150.91,54.844 c -4.92,1.636 -10.19,-0.57 -15.19,0.75 -6.1,0.911 -9.93,8.296 -16.69,7.094 -3.03,0.01 -6.32,-1.235 -9,-1.344 -2.78,3.305 -6.9,0.221 -10.277,0.229 -3.995,-0.511 -8.229,-0.866 -12.034,0.302 -3.125,-1.198 -8.316,-3.395 -10.563,0.313 -0.603,1.888 2.354,2.959 3,4.718 1.702,2.547 2.438,5.631 4.438,7.844 -10e-4,2.336 -3.491,1.279 -4.938,1.281 -4.035,-0.53 -8.218,-0.115 -12.187,0.219 -2.926,0.768 -0.372,4.821 1.906,4.25 3.454,-0.253 8.233,-1.904 10.531,1.5 -0.07,3.076 -4.95,3.153 -5.437,6 2.822,2.28 6.306,-2.484 9.375,-0.5 1.42,1.751 3.106,3.423 5.437,4.031 1.546,0.384 2.575,1.911 3.281,2.938 3.096,0.09 5.594,5.059 2.626,6.911 1.559,2.5 -1.493,4.12 -3.219,5.24 -1.728,2.06 -2.231,6.92 -5.938,6.13 -1.039,-0.26 -2.914,-1.52 -3.5,-0.72 0.984,1.63 4.842,4.11 2.531,6 -1.493,2.36 -1.194,5.47 -2.124,7.94 1.084,2.08 -0.04,5.99 -2.844,4.87 -4.279,-2.59 -9.964,-2.6 -13.563,-6.46 -4.338,-2.82 -10.206,1.79 -10.264,6.64 -1.834,8.64 -2.736,17.63 -5.142,26.04 -0.687,4.93 0.764,10.14 3.469,14.16 2.996,1.94 5.795,4.9 5.062,8.81 0.587,9.71 1.889,19.57 2.875,29.16 2.623,0.32 3.145,3.36 4.344,5.19 0.614,-1.57 1.428,-4.67 3.75,-3.38 2.286,1.03 4.798,4.02 7.344,2.28 -0.245,-2.07 -3.934,-3.87 -2.219,-5.9 2.268,-0.87 4.371,1.68 6.469,1.37 0.119,-1.06 -0.114,-2.38 -0.281,-3.06 -1.677,-0.92 -3.627,-2.28 -3.407,-4.47 -5.007,-2.81 -8.682,-8.53 -7.719,-14.47 -1.599,-4.45 -0.146,-10.89 5.157,-11.69 4.996,0.54 8.97,-5.83 14,-3.65 1.415,0.81 1.746,3.41 4.031,2.56 2.015,-0.52 -0.112,-1.95 -0.562,-2.88 -0.531,-2.85 2.97,-4.77 5.343,-5.25 -0.01,1.51 2.019,4.47 3.309,2.35 1.58,-1.28 4.22,0.66 6.16,0.97 2.83,1.4 5.89,1.35 8.8,0.28 3.39,-0.71 7.08,-0.65 10.14,0.87 1.85,0.16 0.72,-4.37 2.59,-2.15 4.78,3.38 11.04,0.85 16.31,0.84 2.54,-0.94 4.77,-3.06 7.66,-2.09 5.38,0 10.65,-3.49 16.03,-1.94 1.85,1.55 -1.79,3.34 -1.5,4.28 3.88,0.96 7.97,-3.42 11.6,-1.06 1.58,1.93 1.59,4.78 1.93,7.22 -0.1,4.96 -2.99,10.31 -0.22,14.93 0.63,2.65 0.88,5.49 3,7.35 3.71,6.1 10.89,8.43 16.38,12.43 3.85,4.2 3.91,10.38 3.47,15.79 -0.32,2.69 -3.62,3.2 -5.28,1.37 -2.9,1.07 -7.24,1.25 -9.16,4.1 0.66,1.43 4.34,1.48 3.41,3.87 -0.35,1.93 -3.4,3.02 -2.82,4.97 1.4,0.56 2.91,-1.2 4.53,-1.03 2.26,-0 4.4,-0.66 6.32,-1.5 2.63,-0.12 1.76,3.42 1.15,4.78 3.43,0.9 6.76,-4.46 10.07,-1.56 3.46,-0.36 7.08,0.31 10.09,-1.72 2.94,-0.42 1.59,3.6 1.72,5.25 0.21,1.96 1.68,-1.25 2.56,-1.36 2.76,-3.59 7.71,-3.85 11.59,-5.61 2.02,-1.67 0,-4.24 -0.1,-6.19 0.43,-2.68 3.04,-5.64 1.13,-8.31 2.23,-2.21 1.71,-5.81 2.18,-8.63 -0.71,-2.4 -3.06,-5.57 -0.34,-7.62 -2.79,-1.95 2.26,-4.34 1,-6.81 -2,-0.91 -5.11,1.93 -6.91,-0.44 -2.17,-1.44 -5.03,-5.07 -2.18,-7.28 1.52,-0.57 1.24,-1.16 -0.44,-1.31 -2.11,-0.23 -4.12,-1.6 -4.35,-3.79 -1.91,-1.5 -0.49,-3.9 1.16,-4.9 1.38,-0.73 1.26,-2.57 -0.44,-2.41 -2.32,0.12 -5.95,-0 -5.78,-3.22 0.32,-2.09 -2.59,-4.85 -0.44,-6.5 1.17,-0.23 2.22,0.14 2.88,-1.06 3.32,-1.7 7.12,2.83 10.28,0 3.03,-1.57 4.42,-5.12 7.39,-6.72 3.93,-4.5 6.49,-10.56 5.92,-16.68 0.43,-7.07 -2.72,-13.58 -6.81,-18.97 -0.96,-2.66 2.42,-4.87 1.6,-7.32 -2.34,-0.19 -4.68,-1.75 -5,-4.34 -0.41,-1.5 -1.45,-3.64 -3.19,-2.19 -3.83,1.83 -7.79,-1.19 -9.14,-4.75 -0.63,-1.02 -1.35,-3.11 -1.96,-3.5 -0.22,1.16 0,4.49 -1.84,3.25 -2.43,-2.29 -0.8,-5.84 -0.25,-8.404 -2.85,-1.043 -4.8,2.944 -6.94,3.784 -2.74,-1.49 1.98,-5.128 -0.34,-7.065 -2.15,-2.145 -0.82,-6.184 -3.56,-7.906 -1.05,-3.502 -3.79,-8.281 -7.94,-7.75 -1.9,1.55 0.83,4.976 -1.53,6.5 -2.23,1.265 -5.29,0.634 -7.22,2.781 -2.78,2.076 -3.4,5.571 -2.63,8.812 0.23,5.068 1.21,10.408 5.38,13.718 7.23,6.9 16.93,10.45 25.2,15.79 6.91,3.6 11.94,10.63 13.61,18.24 0.46,4.28 -1.13,9.88 -5.69,11.13 -6.55,0.88 -10.65,-5.64 -16.5,-7.25 -13.25,-10.29 -30.08,-13.54 -45.65,-18.96 -10.77,-3.4 -21.76,-5.57 -32.81,-7.39 -1.38,-0.65 -5.48,-1.05 -3.32,-3.03 1.25,-2.83 -3.13,-3.89 -4.66,-5.41 2.63,-2.17 3.44,-6.95 6.91,-8.31 1.45,1.49 5.28,-0.11 4,-2.15 -1.78,-0.43 -2.69,-1.89 -3.53,-3.44 1.1,-1.25 2.4,1.62 2.81,-0.31 0.7,-2.104 0.86,-4.694 2.41,-6.252 0.59,-2.554 2.9,-5.67 0.25,-7.844 -1.96,-2.706 2.23,-3.887 3.97,-4.688 1.14,-0.896 1.49,-1.846 3.09,-1.468 2.69,-0.688 3.02,-4.438 5.78,-5 2.58,-3.925 8.07,-5.713 9.88,-9.969 -3.11,-2.44 -7.44,0.244 -10.95,0.489 -2.45,0.359 -5.15,0.536 -7.49,-0.08 -0.99,-2.209 2.75,-3.342 2.63,-5.625 0.64,-2.091 4.2,-2.983 3.93,-5.344 -0.28,-0.265 -0.77,-0.775 -1.18,-0.562 z M 66.562,139.69 c 3.983,0.1 4.367,5.23 7.282,7.11 2.378,2.5 5.654,4.37 9.281,4.14 0.08,5.01 -5.78,6.92 -9.313,9.18 -2.741,1.31 -4.863,3.31 -6.874,5.35 -2.695,0.47 -3.563,-3.1 -5,-4.59 -2.445,-6.03 2.981,-11.65 2.218,-17.72 0.119,-1.47 0.806,-3.18 2.406,-3.47 z m 154.058,70.43 c 3.58,0.48 4.97,4.84 5.1,8 -0.1,3.36 0.22,6.75 0.31,10.07 -1.48,3.15 -5.73,-0.1 -8.06,1.87 -2.41,-2.14 0.92,-4.65 0.94,-6.97 -0.82,-2.95 1.24,-6.51 -1.41,-8.9 -0.95,-2.1 1.1,-4.1 3.12,-4.07 z"/><path id="outline" d="m 145.36,73.49 c -2.95,-0.982 7.52,-0.782 0.16,-0.379 l -0.22,0.132 0.1,0.247 z m -1.48,1.485 c -7.53,-0.374 6.19,-1.52 0,0 z m -6.5,4.415 c -7.84,-0.784 -1.18,-5.576 1.98,-7.775 4.58,-2.159 10.31,-1.312 15.33,-1.796 2.54,2.278 -4.61,1.978 -6.81,1.856 -2.39,-0.754 -8.33,1.199 -6.29,2.829 -5.06,-0.287 3.28,2.896 -1.49,2.656 0.36,1.118 -1.77,1.949 -2.72,2.23 z m -22.62,-3.67 c -1,-1.96 -0.3,-1.563 1.73,-2.89 -0.94,-3.819 -5.66,-0.994 -3.39,1.792 0.55,0.322 0.87,1.397 1.66,1.098 z m 0.43,7.4 c -5.32,-0.505 -7.59,-5.417 -7.56,-10.26 -4.98,-3.802 3.26,1.167 3.47,-2.951 -1.67,-5.846 4.72,-0.268 6.69,1.453 0.31,3.703 3.9,5.78 7.07,6.578 3.65,-0.42 -0.68,4.822 -1.63,1.626 -3.75,0.908 -3.19,-4.981 -6.52,-2.737 -2.86,2.375 -4.89,-0.546 -6.55,-2.225 -0.55,2.436 2.7,6.974 5.83,7.856 0.27,0.92 -0.42,0.65 -0.8,0.66 z m 18.54,5.94 c -3.73,-1.523 1.15,-2.213 0,0 z m -16.46,0 c -1.51,-2.342 -8.52,-8.374 -0.44,-3.641 0.88,0.107 1.72,4.409 0.44,3.641 z m -13.38,4.78 c -6.785,-1.045 1.52,-3.58 0,0 z m 2.93,1.16 c -3.59,-2.111 2,-1.859 0,0 z m 19.15,-30.048 c 3.05,-0.467 -1.02,-1.869 -0.47,-0.371 z m 16.65,0.371 c 7.95,-3.168 -4.94,-0.833 0,0 z m -3.53,-5.918 c -3.05,-0.323 4.17,-1.042 0,0 z m -6.62,5.815 c 5.08,-0.449 11.63,-1.523 14.7,-5.751 -1.25,-1.273 -3.65,-1.458 -6.12,-1.962 -3.3,-0.326 -15.35,4.101 -11.56,6.064 5.08,-1.377 9.78,-1.802 2.43,0.355 -4.81,1.051 -1.86,2.267 0.55,1.294 z m 2.91,1.155 c 4.71,-0.04 4.18,-2.457 -0.23,-0.901 -2.81,0.243 -2.73,1.445 0.23,0.901 z m -0.85,2.475 c 6.01,-2.776 -5.2,-1.71 -0.39,0.1 z m -43.9,10.93 c 4.29,-2.593 -4.593,-4.623 0,0 z m 0,4.23 c -0.07,-3.122 -4.303,-6.917 -8.148,-6.56 -1.744,0 -9.261,-0.365 -5.85,1.215 4.821,0.752 10.771,4.523 13.998,5.345 z m 2.55,2.08 c 3.068,-2.836 -3.009,-4.453 -1.417,-0.532 0.346,0.197 1.551,1.319 1.417,0.532 z m 45.44,2.23 c 1.76,-3.333 -3.55,-2.322 0,0 z m -32.01,1.81 c 2.1,-2.087 -5.46,-5.297 -8.064,-6.502 -8.799,-3.166 1.165,7.709 5.344,5.812 0.2,0.897 2.76,-0.285 2.72,0.69 z m 20.11,9.24 c 4.56,-1.483 -3.85,-0.934 0,0 z m -19.08,0.43 c 2.32,-1.34 -3.03,-1.816 0,-0.02 z m 16.46,1.01 c 1.16,-2.808 -7.22,-2.528 -0.56,0.15 -0.43,-0.66 0.84,0.36 0.56,-0.15 z m -11.9,0.85 c -0.1,-4.07 -5.29,-3.113 0,0 z m 17.24,0.29 c 3.27,-2.261 -4.19,-1.24 -0.25,0.13 l 0.25,-0.1 0,-0.1 z m -9.43,0 c 3.28,-3.42 -8.95,-9.165 -8.82,-4.015 3.94,3.845 3.39,2.785 2.1,-0.505 2.26,1.353 4.36,3.84 6.72,4.52 z m -11.59,1.03 c 4.97,-2.48 -4.19,-0.68 0,0 z m -5.75,0 c 7.43,-0.23 -0.14,-4.052 -3.07,-0.89 -1.859,0.62 3.47,0.93 3.07,0.89 z m 23.8,0.41 c 5.16,-2.82 -5.14,-2.14 0,0 z m -3.86,0.37 c 2.42,-0.75 -3.01,-1.93 0,0 z m 1.78,2.23 c 3.25,-1.42 -5.43,-0.93 0,0 z m 6.74,1.36 c -0.49,-1.87 3.5,-6.52 -0.95,-4.69 -3.9,1.8 -4.13,3.81 0.89,4.69 l 0.1,0 z m -1.55,12.68 c 2.54,-2.88 -5.29,-1.5 0,0 z m -42.07,0 c 6.621,-2.88 -2.964,-3.56 0,0 z M 241.77,123 c 4.71,-1.26 -1.69,-3.73 0,0 z m -1.83,0.66 c 2.5,-2.59 -3.17,-0.1 0,0 z m 1.17,4.04 c -0.37,-4.46 -0.58,2.86 0,0 z m -157.97,7.53 c 0.211,-1.31 0.03,-0.42 0,0 z M 74,143.01 c 3.21,-3.33 -6.857,-11.31 -3.38,-3.55 1.097,0.83 1.806,3.49 3.38,3.55 z m 13.22,2.97 c 2.401,-1.29 -2.205,-1.31 0,0 z m -5.17,0 c 3.492,-1.98 -1.471,-4.42 -0.19,-7.22 1.058,-4.29 -2.08,0 -0.633,2.73 0.316,1.45 -0.409,3.41 0.823,4.49 z m -4.75,0 c 1.935,-2.79 -3.457,-12.51 -2.22,-4.35 0.454,1.52 0.348,3.89 2.22,4.35 z m 2.81,0.26 c -0.02,-1.59 1.12,-12.6 -2.563,-8.93 0.01,3.05 0.225,6.39 2.043,9.02 l 0.44,-0.21 z m 6.6,4.56 c 4.825,-3.12 -1.11,-1.69 0,0 z m -19.53,14 c 3.454,-5.4 15.485,-7.69 15.49,-13.36 -5.203,0.1 -8.919,-3.61 -11.9,-7.44 -2.2,-5.33 -6.731,-5.3 -6.05,1.42 -0.328,4.98 -4.461,10.38 -2.263,15.27 1.176,1.26 2.79,5.49 4.723,4.11 z m 34.65,0.83 c 2.56,-2.04 -2.688,-1.75 0,0 z m 132.83,1.11 c 5.3,0.27 2.56,-2.53 -1.25,-1.16 -3.94,-0.21 -0.4,1.8 1.25,1.16 z m -102.52,-0.29 c -3.23,-1.99 -10.15,-5.86 -15.21,-7.13 -5.45,-0.62 -5.19,3.27 -0.46,1.55 2.78,4.5 7.69,0.86 10.64,4.7 1.75,-0.1 3.26,1.09 5.03,0.88 z m 45.12,0.48 c 8.32,0.56 -0.61,-4.54 -3.11,-1.47 -3.2,2.16 1.98,1.58 3.11,1.47 z m -82.78,0 c 2.477,-1.96 3.461,-5.7 2.87,-9.36 0.31,2.09 -5.544,8.09 -2.87,9.36 z m 22.83,0.6 c 3.21,-0.67 -2.69,-4.01 3.42,-1.46 7.69,3.38 -1.39,-3.78 -5.29,-4.23 0.4,3.35 -2.5,2.99 -6.05,0.18 -1.79,-2.07 -6.07,-3.73 -2.88,-0.18 2.05,1.79 4.14,3.51 6.7,4.08 0.77,1.4 3.17,1.07 4.1,1.61 z m -6.47,0.41 c 2.8,-1.18 -3.48,-4.27 -4.56,-3.47 0.44,1.87 2.96,3 4.56,3.47 z m -21.35,0.74 c 2.356,-0.92 2.839,-4.09 4.37,-6.12 3,-5.33 0.959,-3.23 -2.351,0.77 -2.006,-0.51 -3.384,5.18 -2.019,5.35 z m 142.92,0.33 c 4.93,-1.55 -6.36,-3.74 -6.41,-2.16 2.02,1.28 3.97,1.92 6.41,2.16 z m -9.16,0.41 c 4.91,-0.46 -5.22,-6.65 -2.18,-1.77 l 1.03,1.47 z m -31.53,0.75 c 0.27,-1.31 0,-0.44 0,0 z m -133.14,0.37 c 0.846,-1.04 -1.716,-4.82 -3.008,-6.77 -1.394,-4.49 2.672,0 3.431,2.03 7.265,6.08 0.49,-3.08 0.317,-6.66 -0.559,-4.99 3.023,-9.31 3.07,-14.24 2.569,-1.66 -1.242,-5.96 0.93,-7.11 2.578,1.51 6.248,-1.43 1.76,-0.81 -4.263,0.5 -3.632,-5.57 0.1,-1.34 1.266,-1.03 8.902,-3.69 8.654,0.41 4.55,3.88 0.889,-3.64 5.284,-1.97 1.702,-2.68 -7.008,-3.34 -9.187,-4.48 -2.532,-1.2 -4.948,-4.32 -7.931,-2.02 -5.154,3.7 -3.592,12.59 -5.715,18.27 -0.928,7.17 -4.333,14.81 -0.526,21.7 -0.199,1.29 3.123,3.46 2.821,2.99 z m 130.54,2.97 c 3.68,-0.86 -0.6,-3.91 -0.69,-1.26 -1.63,0 0.5,1.2 0.69,1.26 z m -3.48,0.37 c 3.82,-1.88 -4.47,-1.51 0,0 z m -2.44,1.83 c 2.33,-0.73 -2.23,-0.99 0,0 z m 5.36,0.38 c 4.35,-2.82 -5.17,-2.47 0,0 z m -3.81,0.37 c 5.06,-1.67 -2.59,-2.43 0,0 z m 7.24,1.81 c 1.98,-2.69 -4.81,-0.77 0,0 z m -4.35,0 c 3.04,-1.56 -3.4,-2.48 0,0 z m 5.3,3.34 c 3.7,0.1 -4.6,-4.98 -4.09,-1.49 1.37,0.57 2.53,1.7 4.09,1.49 z m 31.76,4.83 c 2.21,-1.34 -2.33,-0.87 0,0 z M 196.46,191 c 0.75,-4.07 -7.01,-4.79 -9.44,-7.78 -1.67,-3.32 8.56,6.16 8.62,-0.78 -4.25,1.6 -7.13,-2.38 -10.62,-4.13 -4.79,-2.01 3.41,5.03 -0.44,3.22 -4.49,0.22 6.17,6.58 7.74,7.67 1.19,0.79 2.74,2 4.14,1.8 z M 78.95,206.81 c 1.715,-1.36 -2.572,-1.41 0,0 z m -13.36,1.1 c 3.808,-0.44 -2.996,-6.78 -1.53,-1.52 -0.289,1.18 0.385,1.49 1.53,1.52 z m -0.64,-32.24 c -1.017,-1.09 2.594,-4.44 2,-6.29 3.124,0.36 0.09,6.44 -2,6.29 z m 6.46,33.56 c 4.353,0.25 0.523,-6.27 -2.478,-5.69 -2.167,-6.87 5.172,2.61 7.358,1.23 2.545,-3.54 -5.066,-5.32 -7.03,-7.98 0.563,-4.7 -1.029,-9.15 -0.78,-13.82 -3.011,-3.09 1.013,-6.89 3.85,-8.06 3.282,-2.09 7.051,-2.83 9.16,-4.25 1.102,-0.64 4.499,-2.65 5.894,-3.33 -0.283,-3.64 2.165,-5.77 5.158,-6.61 1.727,-2.23 5.799,-8.25 -0.608,-4.9 -7.395,2.32 5.6,-5.97 -0.914,-3.29 -3.128,0.56 -6.898,1.02 -10.234,4.3 -5.561,3.6 -10.329,8.91 -16.29,11.65 -4.217,0 -3.863,5.32 -2.648,8.22 1.181,4.9 0.481,10.26 2.032,14.95 -0.07,6.62 2.152,13.04 6.97,17.64 -0.206,0.77 0.686,-0.67 0.56,-0.1 z M 187.9,190.5 c -4.53,-1.81 0.99,-1.52 0,0 z m 10.79,10.02 c -4.26,-1.54 0,-2.17 0,0 z m 4.23,2.23 c -5.9,-2.34 -2.54,-2.63 0.84,-0.68 -0.19,0.3 -0.39,0.75 -0.84,0.68 z m 7.03,7.36 c 2.47,-1.88 -5.14,-2.91 -7.67,-4.78 -4.31,-1.27 -11.3,-7.01 -2.83,-2.61 1.52,1.54 13.05,5.52 8.07,1.5 -4.54,-0.24 -1.56,-5.13 -6.91,-6.09 -3.73,-1.33 -17.05,-10.72 -7.19,-5.04 4.74,4.29 7.32,0.88 1.85,-1.74 -2.93,-0.93 -15.59,-11.18 -10.79,-4.44 2.61,1.36 -4.04,1.4 1.69,4.34 2.82,2.34 14.89,10.18 6,5.27 -3.82,-3.63 -9.39,-5.21 -3.44,0.1 2.26,1.49 3.78,2.23 6.02,3.94 -4.1,-1.06 -7.88,-3.95 -1.79,0.9 4.42,4.12 12.16,6.63 16.99,8.69 z m -142.3,0.79 c 2.51,-1.91 -2.773,-1.08 0,0 z m 145.37,1.11 c 5.87,-1.69 -5.34,-3.02 0,0 z m 3.59,12.6 c 1.64,-3.15 -4.11,-6.44 -0.56,0 l 0.55,0 0,0 z m 1.53,4.83 c 2.8,-1.85 8.61,2.15 7.33,-3.41 -0.63,-4.62 0.98,-10.52 -2.48,-14.07 -1.82,-3.03 -6.82,-0.3 -4.65,2.58 2.43,2.61 0.18,5.64 1.12,8.5 0.37,2.18 -3.13,4.35 -1.32,6.4 z m -23.06,2.18 c 1.86,-2.84 -2.76,0.96 0,0 z m 2.17,0.79 c 3.66,-0.65 7.3,-3.64 1.19,-3.02 -0.51,0.66 -2.85,3.25 -1.19,3.02 z m 21.22,1.48 c 1.55,-1.81 7.17,-3.26 2.01,-3.51 -1.46,0.42 -4.71,2.33 -2.01,3.51 z m -18.93,3.69 c 2.84,0.59 6.47,-8.64 7.04,-3.97 -3.23,2.71 1.97,6.03 3.1,2.93 -0.1,-4.57 3.36,-4.06 3.65,-0.79 4.33,-1.99 -0.22,-5.1 0.31,-7.14 3.39,1.5 -0.74,-6.64 -1.2,-8.51 -2.81,-2.04 2.21,-2.5 -2.7,-4.75 1.25,-0.55 10.59,4.88 5.64,0 -3.16,-0.32 -9.61,-7.62 -11.24,-4.88 3.33,5.06 3.72,11.78 2.68,17.67 3.1,4.76 -2.5,1.51 -5.41,4.72 -1.87,-0.11 -3.03,3.76 -1.87,4.72 z m -2.75,0 c 3.13,-4.96 -5.42,-0.78 0,0 z m 19.95,0.77 c 3.95,-0.89 1.11,-5.24 -0.77,-0.83 -0.98,0.42 0.58,1.04 0.77,0.83 z M 125.69,110.47 c -6.51,-1.41 -6.16,-3.5 -0.62,-1.44 0.4,0.35 1.35,1.01 0.62,1.44 z m -1.67,2.57 c -8.08,-1.2 -1.58,-5 0.37,-0.77 0.47,1.28 0.15,0.17 -0.37,0.77 z m -4.44,5.9 c -4.04,-1.67 6.19,-4.47 1.76,-0.82 -0.58,0.29 -1.14,0.62 -1.76,0.82 z m -3.57,3.61 c -5.06,-0.62 0.63,-2.08 2.89,-2.21 6.4,-2.21 -0.34,3.86 -2.89,2.21 z m -2.37,2.93 c -5.32,1.18 -2.11,-3 1.44,-1.67 4.74,-0.59 1.81,2.55 -1.44,1.67 z m -24.04,3.87 c -3.744,-2.12 6.047,-7.33 3.98,-3.94 -1.982,0.32 -2.254,3.13 -3.98,3.94 z m 71.21,27.82 c -3.9,0.56 -3.18,-5.48 -0.11,-1.83 1.28,1.11 1.91,2.15 0.11,1.83 z m 74.82,5.92 c -2.67,-2.39 11.84,-2.67 2.86,-0.62 -0.42,1.29 -2.18,-0.1 -2.86,0.62 z m -20.5,1.49 c -1.29,-2.23 -4.45,-3.37 -6.4,-5.16 0.27,-2.76 9.66,3.6 6.4,5.16 z m -19.08,2.23 c -1.75,-1.55 -10.69,-6.94 -7.18,-7.43 3.47,1.01 4.17,4.38 6.87,5.78 1.07,0 1.52,1.99 0.31,1.65 z m 4.89,12.6 c -0.41,-1.74 -1.88,-3.5 -2.54,-6.59 -2.31,-4.19 -0.71,-6.73 1.67,-1.26 1.48,1.81 1.46,4.93 1.59,7.46 0.1,0.59 -0.77,-0.1 -0.72,0.39 z m 28.64,60.05 c 3.79,0.57 2.19,-4.14 3.34,-6.06 1.28,-0.3 6.18,7.58 3.92,0.58 -1.85,-3.99 2.93,-6.41 1.34,-9.64 -3.21,-4.03 -0.92,-5.36 1.3,-4.31 -4.4,-4.89 -2.03,-5.07 -0.22,-6.7 -2.38,-1.68 -4.02,-2.81 -0.33,-3.75 1.99,-3.08 -5.7,0.55 -2.87,-2.66 5.06,-1.63 5.6,-5.78 -0.1,-3.92 -4.1,0.1 -4.04,-6.25 -7.9,-5.26 -5.15,-0.5 1.11,-4 -4.2,-4.99 -2.96,-4.59 8.76,4.61 3.76,-1.75 -5.35,0.44 -10.32,-6.77 -2.9,-1.74 4.88,0.56 -1.82,-2.81 -3.71,-2.97 -2.02,-1.26 -5.81,-2.86 -4.71,-5.71 2.82,2.61 6.93,5.17 1.87,0 -3.69,-5.23 0.87,-3.25 2.68,1.08 1.8,1.97 6.74,2.7 3.23,-0.69 -3.43,-1.02 -1.99,-5.64 -3.95,-8.08 -4.14,2.31 -3.73,-3.05 -5.78,-4.91 -6.16,-3.24 -1.87,-6.42 0.98,-1.59 8.57,9.8 0.83,-9.17 -4.17,-10.02 -2.12,-2.7 -10.52,-3.89 -9.07,-7.34 2.37,1.75 4.99,2.82 7.53,3.81 4.39,2.09 7.49,6.61 11.14,9.01 2.19,-0.27 11.39,6.1 8.89,2.56 -3.91,-3.13 5.72,1.57 7.67,-0.66 3.19,2.02 8.92,-5.37 3.26,-4 0.33,-1.34 9.19,-5 4.51,-5.88 1.39,-2.74 3.61,-6.91 2.99,-11.18 -0.42,-3.9 -2.39,-7.32 -4.2,-10.74 -0.19,1.06 -1.02,7.59 -2.4,4.02 1.02,-1.83 0.51,-9.73 -1.34,-4.4 -4.26,2.74 -0.31,-1.64 -1.38,-3.78 -0.51,-2.88 -2.85,-5.65 -0.27,-8.41 -2.2,-2.52 -2.53,2.82 -2.95,3.91 -3.18,0 -2.27,-5.08 -0.62,-6.76 5.32,-4.97 -6.36,-1.63 -4,2.61 0.43,4.18 -3.7,-0.4 -4.64,-0.57 0.51,-1.52 3.18,-6.92 0.1,-6.98 0.22,1.42 0.44,6.79 -0.99,1.8 -1.5,-3.39 -5.12,-6.37 -4.96,-10.16 -2.09,0.78 -1.44,5.27 -0.77,7.38 -1.19,3.16 5.48,5.33 3.08,6.84 -3.89,-0.49 -4.26,-5.23 -5.61,-7.86 -3.13,-2.63 -3.7,-6.71 -2.46,-10.49 0.52,-3.147 -3.66,2.33 -3.3,4.31 -0.81,3.97 2.61,7.49 3.03,10.34 -3.75,0 -4.49,-5.13 -4.36,-8.15 -0.38,-3.63 0.61,-7.317 2.92,-10.17 -0.11,-4.139 -3.71,1.144 -5.09,2.189 -5.33,3.011 5.24,12.721 -1.97,9.161 -2.87,-2.98 -0.79,-8.099 1.68,-10.87 2.36,-2.579 3.71,-6.033 1.72,-9.255 -1.09,-3.053 -9.59,4.023 -4.36,3.254 4.49,3.545 -2.99,1.022 -4.92,2.429 -4.42,1.849 -4.94,7.822 -3.74,11.862 2.92,6.8 8.67,12.27 15.52,14.99 5.92,3.82 12.65,6.68 17.84,11.32 6.47,5.59 12.02,14.83 9.12,23.55 -2.12,3.25 -4.91,6.96 -9.34,5.92 -5.5,-0.97 -9.61,-5.91 -14.96,-7.37 -8.89,-7.04 -20.04,-10.37 -30.72,-13.46 -2.6,-0.8 -5.45,-1.25 -8.11,-2.62 -2.68,-1.47 -5.59,-2.02 -8.35,-2.89 -6.81,-1.67 -13.86,-3.21 -20.95,-4.04 -2.75,-0.87 -5.37,-1.74 -8.2,-2.3 -3.43,-1.4 -7.33,-1.63 -9.95,-4.98 -2.92,-2.21 -3.18,-6.52 -5.61,-8.37 3.68,2.13 4.22,-1.1 6.19,-3.52 5.18,-0.44 -0.4,-4.01 -3.1,-3.76 -1.57,-1.47 -10.01,0.9 -6.22,-1.03 6.05,-3.09 -6.83,0.23 -6.27,-1.36 0.36,-2.99 -6.04,1.24 -8,0.14 -3.73,0 -6.861,2.86 -10.308,2.57 -3.779,4.64 6.418,-2.23 8.468,-0.1 -3.357,1.65 -8.582,3.25 -3.34,3.73 -2.55,2.09 -8.662,4.36 -3.92,0 -1.219,1.7 -11.761,4.11 -5.56,4.35 6.671,-1.93 2.874,0.79 0,2.94 0.764,2.76 -8.431,8.04 -2.716,6.95 4.081,-2.39 4.652,-4.5 5.49,-6.59 -0.549,-2.21 5.21,-5.56 5.703,-3.78 -4.093,1.3 1.253,2.45 -2.553,3.74 -3.747,2.48 0.783,1.9 -4.396,4.72 -1.852,2.28 -4.216,3.8 -6.014,5.82 0.483,0 -4.171,7.06 1.157,3.79 3.389,-0.27 4.528,-5.25 8.243,-5.07 -0.407,2.63 -4.66,2.73 -4.777,6.05 -2.436,1.5 -7.153,2.45 -6.733,7.18 1.865,0.18 4.903,-2.89 6.413,-4.72 1.243,-2.43 4.036,-4.42 6.647,-4.8 -2.836,2.47 -6.411,4.78 -7.74,8.91 -2.638,3.45 1.17,4.77 2.4,1.55 -1.025,-3.11 5.942,-4.11 4.47,-5.3 0.05,-2.23 4.996,-5.22 7.966,-6.34 2.16,-3.05 6.2,-4.44 9.72,-3.3 2.81,0.27 8.69,0.84 2.84,2.4 -3.57,0.6 -5.71,-2.49 -9.27,-0.37 4.25,-1.77 9.51,4.51 2.89,2.27 -2.25,0 -7.01,0.78 -6.81,3 -2.38,0.74 -9.038,2.82 -3.18,1.49 4.45,0.82 -1.911,3.14 -3.885,3.35 -3.938,2.9 -5.542,8.05 -6.331,12.74 3.163,-1.45 2.75,-8.59 4.372,-3.08 4.448,-2.22 -2.093,8 2.188,3.7 4.116,-2.75 0.02,3.17 3.396,4.1 2.46,3.98 -0.05,2.87 -1.276,4.78 1.386,6.02 5.466,-0.1 5.686,-3.57 -0.31,-2.7 2.42,-6.46 3.15,-1.86 0.98,3.03 5.95,3.93 8.34,2.26 -1.23,-2.5 1.59,-7.38 2.21,-2.4 3.22,7.12 1.21,-2.98 5.42,2.05 2.4,2.15 6.19,0.76 9.16,0.96 1.78,-1.18 7.37,-1.34 4.09,1.36 -3.23,1.62 -7.17,0.34 -10.69,0.75 -6.78,-0.98 6.06,4.38 8.41,3.56 3.75,1.31 4.44,2.56 5.9,-0.28 2.54,1.41 5.89,2.69 8.54,1.03 -1.44,-2.86 -7.1,-0.98 -6.52,-5.05 1.37,0.36 10.74,1.86 9.97,2.74 -4.72,0.42 0.96,2.92 3.22,1.86 6.01,-1.01 12.07,-2.8 18.27,-1.94 2.46,-0.76 11.13,2.03 7.19,-0.87 -5.4,-3.39 -11.31,-2.68 -17.3,-1.81 -3.6,0.25 -6.56,2.62 -10.33,1.32 -6.39,0.4 -5.22,-5.16 0.32,-1.08 5.24,0.89 5.52,-0.35 1.49,-2.63 2.01,-0.98 10.62,4.47 9.05,-0.58 -3.96,-0.96 -1.29,-4.67 1.08,-1.36 2.55,0.21 4.81,1.64 7.77,1.87 1.24,-3.08 9.21,5.05 5.22,-0.14 -4.93,-3.39 0.44,-5.15 2.12,0 2.48,2.96 7.02,2.96 9.16,6.39 4.63,3.47 5.65,10.04 8.1,14.37 -0.63,4.01 1.36,8.25 1.73,11.36 2.52,7 9.07,12.12 14.97,16.37 4.42,-0.13 6.75,3.74 10.76,3.56 3.75,-0.86 3.97,1.81 7.56,1.11 -2.3,2.17 3.19,3.94 -2.68,2.48 -1.72,-4.27 -4.6,1.28 -1.71,4.31 0,3.88 0,7.75 0,11.63 3.46,1.75 -4.72,1.71 -6.13,4.56 -4.11,2.8 -0.49,7.52 3.47,2.48 3.99,-4.67 4.79,-2.43 1.17,1.97 -0.45,1.5 2.45,1.51 2.7,1.57 z m -24.74,0.74 c 2.64,-1.2 -0.91,-1.34 0,0 z m 21.9,2.23 c 1.79,-1.6 -1.77,-1.47 0,0 z M 135.3,99.423 c -0.71,-0.446 4.73,-5.991 3.15,-9.06 -3.38,-0.718 -3.06,-5.631 -7.38,-6.173 2.42,-1.458 7.37,0.59 10.36,-1.779 0.43,-3.784 8.22,-1.301 6.33,-4.967 3.23,-0.593 4.36,-3.369 6.93,-4.932 1.51,-1.525 6.53,-3.919 5.12,-5.898 -8.36,1.841 -17.19,-0.506 -25.28,3.176 -1.94,1.638 -7.38,9.114 -7.06,4.26 4.59,-2.42 4.39,-6.211 -1.19,-7.592 -4.5,0.05 -12.05,-5.73 -15.04,-1.013 -8.09,-2.64 -17.199,-0.771 -25.34,-2.182 -4.697,-1.723 -6.837,1.505 -0.04,1.652 3.434,2.512 -6.109,-1.006 -1.769,3.916 1.604,5.108 7.014,6.126 11.07,8.502 5.259,1.685 12.969,3.263 15.489,8.55 0.66,2.523 4.38,5.208 2.27,8.13 -4.41,-4.362 -11.39,-3.211 -16.909,-5.75 -4.942,0.152 -9.59,-8.385 -13.92,-4.58 0.02,3.829 7.715,1.604 8.41,6.23 3.057,0.239 3.976,2.559 5.995,4.082 2.408,0.692 3.944,2.475 5.284,5.148 2.86,-0.563 -0.78,-5.324 3.67,-3.25 1.45,2.28 4.14,-0.821 2.79,-1.494 1.12,0.05 7.42,2.517 6.42,-2.412 -1.42,-6.34 2.91,-0.394 2.95,2.707 3.21,0.512 6.12,3.838 10.07,2.119 2.78,2.024 4.74,0.544 1.55,-2.601 0,-3.774 4.62,5.497 4.13,-0.397 -4.39,-2.961 0.37,-5.267 1.97,-0.322 0.25,3.519 -2.34,3.989 -2.2,7.097 -1.93,3.23 6.45,6.83 1.49,1.73 m 0,0 c 0.45,-4.659 1.93,0.29 3.43,1.55 4.79,1.06 0.34,5.91 -2.8,3.75 -2.19,0.62 -3.87,5.65 -6.16,7.67 2.91,2.08 6.48,3.34 3.84,6.64 4.59,2.61 10.09,1.99 15.09,3.53 13.74,2.43 26.92,7.07 40.16,11.41 9.6,2.8 19.01,6.82 26.99,12.92 5.9,1.62 10.81,9.04 17.3,6.85 3.79,-2.62 4.95,-8.14 3.62,-12.35 -2.52,-6.94 -7.08,-13.23 -13.99,-16.3 -6.61,-4.39 -14.09,-7.48 -20.49,-12.1 -4.07,-3.31 -8.29,-6.83 -8.66,-12.47 -0.76,-2.83 -0.43,-5.863 -1,-8.237 0.5,-4.657 4.81,-8.127 9.44,-8.04 4.4,-1.8 -1.08,-6.77 3.78,-7.42 3.88,0.923 6.22,4.296 7.45,8.327 3.01,1.975 1.19,5.66 3.71,8.002 1.97,1.983 -2.23,6.298 0,6.668 1.76,-1.9 4.88,-5.266 7.32,-3.527 -0.1,1.867 -2.33,4.957 -0.55,7.527 2.27,4.08 0.29,-6.822 3.15,-1.39 2.59,5.52 4.86,9.63 11.53,6.27 3.31,2.46 1.04,6.76 6.51,7.06 3.01,1.79 -3.45,6.1 -0.19,9.06 4.16,5.42 6.58,12.23 5.91,19.1 0.61,6.07 -2.55,11.81 -6.37,16.31 -2.75,0.98 -4.33,5.37 -7.45,6.48 -3.69,3.06 -8.83,-3.27 -10.84,0.95 -4.73,-1.05 -1.43,3.08 -1.28,5.52 -0.24,5.37 6.1,1.5 7.28,4.37 -0.14,2.64 -5.45,3.57 -2.07,6.57 0.18,4.18 5.1,2.49 6.23,4.69 -5.01,1.62 -2.38,5.26 0.44,7.43 2.03,2.21 5.11,-0.9 6.86,0.27 1.97,3.31 -4.4,5.97 -0.31,7.16 -4.24,3 0.28,5.33 -0.1,9 -0.94,2.2 0.1,5.33 -2.16,7.45 1.91,2.98 -1.09,5.81 -1.26,8.95 1.41,2.3 1.82,5.85 -1.55,6.54 -2.95,0.91 -5.39,1.61 -7.92,2.82 -1.14,1.65 -4.18,3.43 -4.37,4.44 l 0,0 c -3.18,0 1.61,-8.38 -3.48,-5.57 -3.48,1.9 -5.29,0.51 -9.18,1.26 -2.89,-3.38 -7.75,3.73 -10.6,1.08 1.48,-2.65 1.35,-6.12 -2.42,-3.34 -2.84,0.44 -5.86,0.25 -8.17,1.9 -3.85,-1.23 1.36,-4.08 1.7,-6.2 0.65,-2.54 -6.04,-1.72 -2.41,-5.09 2.66,-1.81 5.75,-1.84 8.47,-3.26 4.51,3.83 5.67,-1.24 4.93,-5.01 0.28,-4.34 -0.8,-8.6 -3.97,-11.69 -5.82,-3.39 -12.57,-6.28 -16.22,-12.48 -2.76,-2.43 -1.6,-5.64 -3.44,-8.54 -1.86,-5.54 2.54,-11.63 0.29,-17.14 -0.41,-8.67 -10.19,0.99 -13.45,-2.64 3.37,-2.85 4.12,-4.53 -1.66,-3.85 -4.59,0.39 -9.42,2.98 -13.89,2 -1.91,-0.12 -4.62,3.06 -7.57,2.37 -4.92,0.49 -10.81,2.17 -15.01,-1.32 -0.99,5.18 -3.47,0.86 -6.6,1.35 -3.32,-0.26 -6.19,0.4 -9.02,1.29 -3.71,-0.1 -6.97,-2.33 -10.76,-2.72 -1.75,3.26 -4.183,-0.39 -4.27,-1.74 -1.996,0.33 -6.209,3.4 -3.96,5.26 3.306,2.64 -2.922,4.35 -3.68,1.11 -3.577,-4.64 -10.05,3.62 -14.867,2.76 -5.219,1.28 -5.889,6.55 -4.566,11.12 -0.978,6.67 3.059,11.62 7.713,14.26 -0.498,3.92 4.907,4 3.4,5.48 1.963,6.58 -4.738,-0.16 -6.7,1.57 -0.363,2.21 5.499,5.63 1.072,6.23 -3.116,1.09 -7.307,-5.8 -8.662,-1.67 -2.101,6.96 -2.105,-3.55 -6.19,-2.85 -0.778,-9.73 -2.165,-19.45 -2.864,-29.19 0.647,-5.93 -2.322,-6.54 -5.446,-9.42 -2.906,-6.06 -4.586,-11.81 -1.852,-18.29 1.506,-7.92 2.708,-16.05 4.377,-23.85 1.034,-4.35 7.339,-7.98 11.025,-4.71 3.14,3.14 7.343,3.7 11.256,5.03 3.5,3.01 5.186,0.1 3.879,-3.48 1.254,-2.52 0.599,-5.86 2.415,-8.15 3.075,-1.6 -7.472,-7.44 -0.31,-6.18 4.155,2.87 5.317,-1.89 6.436,-4.41 1.88,-2.49 5.694,-2.47 3.604,-5.9 3.416,-1.185 0.509,-6.795 -2.55,-6.13 -0.744,-3.928 -5.797,-2.601 -7.826,-6.667 -2.865,-2.85 -7.658,3.02 -10.104,-0.08 -0.98,-3.081 9.822,-5.198 3.332,-7.53 -3.67,-1.564 -8.85,2.437 -11.362,-1.586 -2.096,-4.981 5.808,-3.268 8.438,-3.815 2.842,-0.785 13.692,2.553 8.142,-2.254 -1.307,-3.738 -3.177,-7.104 -6.23,-9.7 0.847,-5.769 8.043,-3.495 11.56,-1.959 4.515,-1.6 9.532,-0.468 14.19,-0.144 4.59,1.661 5.8,1.6 8.05,-0.702 3.11,0.891 7.38,1.771 11.07,1.671 6.22,-0.587 9.23,-7.259 15.61,-7.226 4.71,-1.292 9.81,1.143 14.38,-0.797 4.35,1.924 -1.84,4.617 -2.56,6.721 0.1,2.482 -6.29,5.954 -0.35,5.148 5.07,1.273 14.26,-4.315 16.36,0.108 -2.3,4.255 -7.45,6.179 -10.24,10.155 -3.8,1.162 -3.02,5.77 -7.53,5.05 -1.09,2.784 -8.27,2.312 -4.63,6.094 2.18,2.672 -0.71,5.458 -0.78,8.027 -2.31,0.576 -1.54,9.526 -4.52,6.206 z"/></g>
</svg>
