<?xml version="1.0" encoding="UTF-8" standalone="no"?>
<!DOCTYPE svg PUBLIC "-//W3C//DTD SVG 1.1//EN" "http://www.w3.org/Graphics/SVG/1.1/DTD/svg11.dtd">
<svg xmlns="http://www.w3.org/2000/svg" width="300px" height="350px">
<g>
<path id="fill" d="m 115.25,57.469 c -3.11,0.503 -5.37,3.157 -8.5,3.562 -5.98,2.089 -8.954,8.562 -13.955,11.897 -9.037,2.753 -17.115,8.452 -26.564,10.276 -4.809,1.248 -10.593,2.161 -14.2,5.452 1.814,4.856 8.281,4.396 12.031,7 1.773,0.456 3.945,3.091 1.719,4.374 -3.01,1.64 -6.773,-0.52 -9.86,1.09 -1.978,0.38 -5.737,2.17 -4.765,4.35 3.112,0 5.977,-1.76 9.094,-1.31 2.136,-0.79 3.091,1.8 1.969,3.28 -0.576,1.79 -2.301,3.08 -3.407,4.18 3.72,1.91 7.773,-0.82 11.657,0.22 4.911,0.85 9.909,1.98 14.843,1.47 2.327,-0 4.976,3.22 2.438,4.85 -2.797,1.4 -7.789,2.67 -6.938,6.78 -0.568,0.81 -2.806,1.88 -1.437,3.4 1.157,1.39 0.693,3.44 -0.156,4.57 1.375,2.42 -0.234,5.76 1.719,7.9 -0.45,2.83 -3.541,4.58 -4.594,6.81 1.695,0.1 4.98,-2.34 5.594,0.41 0.02,2.07 -1.693,4.59 0.25,6.16 1.726,4.32 -3.461,6.86 -6.421,8.77 -3.785,2.87 -7.233,6.15 -11.497,8.44 -3.141,2.29 -7.888,4.86 -7.02,9.41 -0.647,7.96 1.522,15.89 0,23.78 -0.372,1.84 -2.126,3.35 -0.443,5.07 1.636,1.89 2.067,4.69 3.631,6.43 1.66,-0.21 4.063,-1.74 5.187,0.41 0.204,1.92 3.073,2.77 3.187,0.41 0.449,-1.59 -0.576,-3.18 -0.906,-4.41 0.62,-1.99 3.147,-2.43 4.188,-0.59 0.52,0.82 2.915,3.36 2.611,0.78 0.118,-5.54 -1.743,-10.79 -4.267,-15.6 -0.461,-2.73 -0.3,-5.54 -1.063,-8.15 0.167,-5.47 6.32,-7.08 10.625,-8.41 5.275,-3.05 10.802,-6.17 17.125,-6.03 3.475,-0.99 5.345,3.13 4.475,6 -2.456,10.32 -5.566,20.44 -7.65,30.88 -1.477,4.28 -0.366,10.64 -5.262,12.74 -3.923,1.28 -7.895,2.36 -11.188,4.97 -1.717,1.11 -3.584,2.35 -4.375,4.29 1.628,-0.21 4.857,0.25 3.687,2.59 -0.607,0.87 -2.049,2.96 -0.09,2.91 3.806,-0.73 6.875,-5.54 10.937,-3.97 1.883,2.39 -1.699,5.43 -0.562,7.93 2.169,-3.61 5.977,-7.09 10.594,-6.68 2.288,-1.09 2.812,-3.99 4.722,-5.47 2.11,-10.05 5.17,-20.05 9.5,-29.38 2.56,-3.71 2.75,-8.6 5.06,-12.43 0.78,-2.89 0.83,-6.13 2.41,-8.69 -0.1,-3.53 4.97,-3.38 5.56,-6.57 9.18,1.19 16.59,-4.99 24.51,-8.6 7.07,-3.65 14.9,-6.33 22.83,-6.58 2.57,0.96 0.33,4.29 -1.47,4.78 -7.47,2.17 -11.67,10.42 -11.28,17.75 3.19,5.18 -0.66,11.82 2.38,17.15 2.36,4.97 -0.12,10.51 -3.91,13.93 -2.95,2.59 -5.08,5.76 -7.47,8.76 -2.62,2.78 -6.82,2.31 -10.15,1.63 -3.84,0.52 -5.45,4.3 -6.99,7.26 -0.86,0.76 -2.54,3.55 -0.11,2.86 3.37,-1.01 1.54,0.38 0,1.82 -1.28,1.17 0.36,3.62 1.66,2.06 1.07,-2.58 4.58,-4.54 7.06,-2.56 0.93,1.2 -0.65,2.54 -1.15,3.24 2.5,1.46 4.78,-1.87 6.7,-3.09 1.35,-0.95 3.09,-3.33 4.54,-1.41 3.23,2.17 6.42,-1.29 8.91,-2.84 3.6,-0.99 4.26,-6.32 8.35,-6.59 2.79,-2.48 5.69,-4.91 9.15,-6.25 3.34,-2.59 3.16,-9.09 7.91,-9.72 1.88,0.86 5.47,-0.17 5.15,-2.69 -0.88,-0.31 -3,0.66 -3.97,-0.69 -2.93,-2.8 -1.3,-7.42 -1.09,-10.96 0.12,-3.46 3.97,-4.96 3.47,-8.54 -0.31,-3.62 0.45,-8.66 4.19,-10.09 3.62,-0.19 3.21,4.73 5.6,6.38 4.95,6.48 11.45,11.34 18.83,14.71 2.77,1.88 4.73,4.51 6.95,6.97 4.12,4.81 3.7,11.98 2.05,17.69 -0.57,3.97 -5,6.92 -8.71,4.88 -3.03,-1.72 -4.76,2.58 -6.6,4.31 -1.08,2.49 -0.79,5.49 -2.59,7.69 -0.61,1.99 2.64,2.83 2.78,0.56 0.56,-0.93 2.71,-3.68 3.31,-1.44 -0.1,0.81 -0,3.91 1.1,2.06 1,-2.41 4.25,-2.18 5.56,-0.18 1.27,1.78 2.39,-1.67 3.81,-2.04 1.38,-1.34 3.5,-0.52 4.94,-0.68 2.82,-1.71 7.2,-2.75 7.59,-6.57 3.99,-3.23 2.37,-9.06 3.53,-13.37 2.91,-2.09 -0.23,-6.28 2.04,-8.75 -1.27,-2.75 -0.97,-6.65 1.84,-8.19 -0.37,-2.69 -4.66,-1.53 -5.97,-3.78 -2.75,-2.16 -6.58,-5.75 -4.84,-9.62 -1.2,-3.24 -0.38,-7.31 -2.91,-9.88 -1.5,-2.31 0.55,-6.73 -3.06,-7.69 -4.05,-1.34 -1.29,-6.6 -3.78,-9.15 -0.44,-2.57 -1.28,-7.38 2.28,-7.94 2.8,0.65 5.89,1.83 8.72,0.16 3,-1.31 4.87,-4.05 7.75,-5.6 3.81,-3.21 5.23,-8.02 5.06,-12.87 0.77,-5.09 -0.57,-10.15 -3.5,-14.32 -4.69,-7.58 -11.01,-14.04 -18.28,-19.184 -3.08,-1.694 -7.12,-2.075 -9.47,-4.75 -0.13,-1.037 -0.59,-4.143 -2.1,-3.156 -0.98,1.52 -1.08,5.092 -3.74,4.062 -3.75,-1.697 -6.2,-7.432 -2.76,-10.624 1.26,-1.114 3.04,-3.385 4.35,-1.5 1.11,1.017 3.75,0.373 2.37,-1.376 -1.18,-1.313 1.09,-2.597 0.69,-4.34 -0.15,-1.87 1.06,-3.408 1.59,-4.816 -0.27,-2.479 -2.94,-0.615 -4.06,0.125 -1.84,0.788 -3.54,-1.612 -5.56,-1.437 -5.65,-1.527 -10.97,2.012 -14.91,5.687 -3.01,2.896 -5.16,6.854 -4.5,11.157 -0.53,9.03 5.09,17.562 13.19,21.302 5.88,3.04 12.71,4.23 18.22,8.23 5.31,3.44 10.24,7.84 13.88,12.87 0.65,2.57 1.43,6.82 -2.1,7.54 -8.08,1.88 -13.32,-7.1 -21.12,-6.97 -8.35,-0.75 -15.62,-5.8 -24.1,-5.63 -7.62,0.11 -14.84,-2.3 -22.46,-2.18 -9.42,-0.76 -18.72,0.93 -28.01,2.15 -4.14,0.52 -9.65,0.17 -11.18,-4.5 -1.93,-4.06 -2.87,-8.67 -1.97,-13.09 -0.25,-2.77 -1.95,-5.43 -0.88,-8.191 -1.39,-3.063 -1.15,-6.61 -2.84,-9.531 -0.54,-5.621 6.48,-8.206 6.56,-13.782 0.44,-2.512 2.13,-4.784 2.94,-7.031 -0,-2.622 3.11,-4.748 2.19,-7.344 -1.72,-1.751 -3.35,1.821 -5,2.407 -2.62,2.222 -5.95,3.085 -8.88,4.5 -2.89,0.389 -2.13,-3.582 -1.12,-5.063 0.7,-1.505 1.22,-6.169 -1.66,-5.656 z M 75.844,97.094 c 3.254,0.377 7.288,0.754 9.312,3.596 0.713,2.09 -2.26,1.83 -3.375,0.97 -3.075,-1.56 -6.658,-0.92 -9.812,-1.941 -1.571,-1.991 2.859,-2.532 3.875,-2.625 z"/><path id="outline" d="m 99.462,73.394 c 4.988,0.368 8.918,-1.373 13.048,-3.251 -0,-4.231 -8.3,4.737 -7.91,1.124 0.68,-2.842 3.81,-2.94 6.29,-4.546 3.44,-1.87 3.15,-4.294 -0.28,-2.078 -2.31,0.236 5.32,-5.717 -0.94,-2.793 -6.2,1.114 -9.07,7.459 -13.648,11.064 0.487,1.342 2.669,0.101 3.44,0.48 z M 209.95,79.94 c 6.25,-2.523 -6.02,-1.777 0,0 z m -0.59,2.75 c 8.32,-3.955 -1.44,-3.898 0,0 z m -3.14,5.5 c 3.48,-0.658 -3.49,-0.951 0,0 z m -148.694,0 c 4.318,-0.987 -3.568,-0.803 0,0 z m 149.284,1.94 c 3.63,-0.826 -3.22,-1.462 0,0 z m -91.2,0.79 c 3.82,-1.562 -3.41,-1.344 0,0 z m -46.452,7.75 c 2.103,-2.259 -3.489,-2.113 0,0 z m 51.182,1.55 c 2.14,-1.297 -4.39,-6.754 -3.29,-2.65 0.75,1.213 2.02,2.74 3.29,2.65 z m -36.168,1.7 c 2.534,-0.96 -3.357,-4.155 -5.263,-3.743 -3.498,-1.855 -10.812,1.412 -4.007,1.623 3.243,-0.08 6.323,1.24 9.27,2.12 z m -16.28,2.42 c 2.903,-5.335 -5.94,-3.11 -8.9,-2.63 -7.809,1.52 -0.939,2.89 3.99,2.32 1.454,-0.66 3.954,1.97 4.91,0.31 z m 53.648,3.06 c 1.65,-1.03 -4.9,-10.088 -4.32,-5.17 0.23,2.01 2.98,3.74 4.32,5.17 z m -34.398,-0.31 c 5.401,-1.46 1.046,-4.58 -2.725,-2.86 -3.826,-1.07 -8.17,-3.78 -12.117,-2.22 -1.747,2.32 3.299,5.14 5.451,3.35 3.111,0.29 6.639,1.8 9.391,1.73 z m 17.398,2.2 c 4.16,-4.65 -3.87,-0.81 0,0 z m 14.73,2.43 c 2.98,-0.66 -0.6,-7.73 -3.23,-5.92 -0.52,2.35 1.15,5.26 3.23,5.92 z m 118.81,1.13 c 1.21,-3.99 -3.79,-2.57 0,-0 l -0,0 z M 102.71,81.12 c -2.64,-1.532 2.84,-1.448 0,0 z M 71.318,87.8 c -2.646,-1.57 2.89,-1.422 0,0 z m -3.12,0.78 c -2.7,-1.549 2.857,-1.414 0,0 z m -4.496,0.22 c -2.771,0.274 1.211,-2.564 0,0 z m 28.11,-1.77 c 4.106,-0.307 -2.406,-3.899 -1.53,-0.61 -0.141,1.301 1.505,-0.08 1.53,0.61 z m 0.33,5.92 c -1.999,0.09 -8.528,-4.331 -5.7,-4.89 3.245,-1.445 -3.86,-1.889 -4.15,-4.47 3.465,-0.817 9.191,1.698 13.55,-0.384 5.858,-1.141 1.995,1.405 0.27,3.16 1.665,3.797 -4.866,3.613 -4.859,4.758 1.244,0.624 2.996,1.13 0.889,1.826 z m 2.66,1.55 c -4.838,0.614 1.802,-3.612 1.42,-0.04 -0.186,-0.113 -1.557,0.619 -1.42,0.04 z m -7.01,1.63 c -0.312,-1.521 -0.387,-0.333 0,0 z m 23.078,0.7 c -3.03,-1.357 2.82,-1.577 0,0 z m -2.12,8.73 c -3.03,-2.51 2.96,-3.55 0,0 z m -17.118,5.87 c -1.979,-2.65 4.857,-0.84 4.644,-4.25 1.48,-2.89 -0.202,-7.377 -3.167,-8.601 1.61,-3.05 4.177,2.401 6.788,2.721 1.563,0.14 0.673,-4.543 4.673,0 1.22,-0.47 7.45,-3.621 6.06,-0.1 -3.32,0 -4.63,2.83 -8.79,2.75 -3.47,-2.9 -3.581,0.26 -3.166,2.9 -0.732,3.45 -4.35,3.42 -7.042,4.5 z m 4.28,1.97 c 2.61,-3.02 3.257,-2.53 5.858,-3.34 0.15,-3 1.08,-4.99 4.74,-3.69 0.65,2.19 2.64,4.82 4.91,5.85 2.41,-0.33 -2.41,-8.4 2.27,-5.7 -3.13,-4.51 -0.81,-3.76 1.41,-3.49 1.85,-2.44 -5.04,-5.579 -1.78,-5.931 4.47,1.061 -3.34,-3.852 -2.44,-4.663 2.02,-0.664 6.3,4.297 7.21,1.294 -1.92,-3.779 -9.3,-0.777 -8.94,-5.82 2.68,-0.02 4.93,3.07 8.49,-0.33 0.3,-2.751 4.43,-4.119 4.62,-7.265 0.72,-2.231 1.99,-4.5 2.67,-6.266 0.99,-2.462 2.73,-6.818 3.31,-8.904 -1.61,0.757 -12.08,3.579 -8.37,5.101 1.32,-0.543 7.29,-3.969 4.68,-1.006 -6.39,2.478 3.04,1.801 -4.12,4.329 -5.96,2.52 -2.89,3.845 0.89,1.375 -0.71,2.926 -5.51,1.045 -6.3,3.886 3.85,1.083 5.04,-2.099 2.99,2.77 -3.34,0.344 -3.41,3.671 -7.53,2.201 -2.38,-1.545 3.34,-4.372 1.99,-7.453 3.46,-2.942 3.3,-8.425 -1.39,-3.62 -4.18,1.054 -3.53,6.732 -6.12,7.842 0.42,-3.872 -3.95,-5.513 -7.102,-4.682 -3.732,-0.429 -7.21,-1.05 -11.031,0.811 -6.275,4.981 -14.455,6.709 -22.137,8.695 -3.172,0.578 -6.223,2.823 -6.946,5.346 3.661,4.665 12.166,4.951 18.048,5.57 5.699,-0.351 10.993,1.738 13.99,2.474 2.325,1.796 5.477,6.226 1.72,8.156 -6.993,4.86 -15.496,-0.1 -23.019,-0.42 -3.698,-1.68 -5.979,1.23 -5.61,4.8 2.83,1.33 5.295,-4.93 7.249,-1.05 1.909,-0.62 4.787,-1.75 6.24,1.53 3.095,0.55 1.102,-2.9 4.792,0.36 2.883,-0.12 5.711,-3 6.578,0.3 2.844,-0 5.531,-0.19 8.18,0.94 z m 26.438,6.75 c 1.8,-2 0.1,-7.2 -2.12,-7.12 -2.37,-0.46 -7.05,-4.9 -4.01,-0 1,2.88 3.53,5.07 5.7,7.39 0.12,0.5 0.53,-0 0.43,-0.25 z m 121.58,0.72 c 3.09,-2.87 -1.27,-4.22 0,0 z m -159.848,1.49 c 3.235,-2.11 -2.206,-0.3 0,0 z m -1.7,3.99 c 4.907,-2.06 -1.118,-2.05 0,0 z m 155.418,0.39 c 0.69,-1.46 1.71,-4.75 2.06,-7.09 2.27,-5.45 -0.52,-6.56 -2.24,-0.36 -2.3,-0.85 -0.75,-6.92 -2.01,-9.74 -0.17,-3.16 -4.33,-7.63 -2.05,-1.22 3.85,0.72 -0.39,6.68 -1.12,2.56 0,-1.98 -2.07,-10.16 -4.2,-7.14 0.83,3.49 2.34,3.18 -1.79,2.83 -3.46,-0.51 -0.16,-5.2 -3.2,-6.601 -2.45,3.781 -6.07,-2.891 -7.69,-2.231 1.2,3.282 -2.3,6.692 -3.38,2.072 1.87,-3.009 -3.93,-5.163 -5.11,-6.94 2.03,3.984 -3.8,1.027 -3.72,-1.953 0.87,-3.882 -0.46,-9.371 3.31,-11.953 2.87,-2.692 5.27,-1.921 7.43,-1.159 -0.33,-4.62 -6.59,-1.789 -9.66,-1.055 1.3,-3.209 7.85,-2.413 1.46,-3.933 -4.69,0.934 -9.05,3.775 -12.22,7.183 -0.54,5.507 -3.36,11.038 -0.38,16.11 2.09,4.24 5.22,9.22 9.94,10.45 0.27,-5.59 3.09,4.34 5.51,0.64 1.46,4.65 3.37,0.8 5.68,2.11 2.02,3.87 5.81,1.14 7.42,5.58 2.22,1.91 2.01,-3.14 4.17,2.38 1.56,4.12 5.72,0.97 5.85,6.76 3.43,2.52 0.27,-8.24 3.01,-3.81 0.19,1.51 1,7.78 2.93,6.51 z m -1.42,3.93 c 4,-3.8 -4.48,-2.13 0,0 z m 2.64,3.1 c 0.81,-2.29 6.31,-10.24 1.94,-10 -2.78,1.99 -1.73,7.26 -3.1,9.69 0.49,0.41 0.53,1.26 1.16,0.31 z m 5.63,2.79 c 2.97,-1.09 1.86,-5.71 2.38,-8.42 1.48,-0.99 1.3,-6.85 -0.72,-3.92 -2.02,4.63 -1.9,4.24 -0.24,7.85 -0.93,1.12 -2.93,4.6 -1.42,4.49 z m -4.87,7.05 c 5.62,-1.62 2.81,-3.36 0,0 z m -14.51,6.68 c 4.54,-2.6 -3.11,-2.79 0,0 z m -47.62,1.96 c 3.79,-1.5 -3.85,-1.57 0,0 z m 45.74,1.01 c 1,-4.72 -6.94,-8.26 -1.97,-3.08 0.5,1.2 0.2,2.84 1.97,3.08 z m -42.14,5.69 c 1.21,-2.06 -2.34,0.14 0,0 z m 0,4.13 c 3.26,1.01 8.91,-3.67 2.91,-2.04 -2.29,-1.06 -5.7,-0.73 -6.9,1.36 -0.14,1.93 3.53,0.91 3.99,0.68 z m -83.328,4.52 c 0.04,-2.42 1.003,-6.92 -0.44,-8.32 -2.354,1.57 -1.333,7.77 0.61,8.32 l -0.17,0 z m 75.818,1.13 c -1.56,-5.14 -7.23,-3.3 0,0 z m -82.038,0.39 c 2.85,-3.2 -3.728,-1.99 0,0 z m 32.398,0.4 c 1.96,-1.61 -5.89,-2.48 -1.76,-0.72 0.99,-0.82 0.58,1.08 1.76,0.72 z m 69.46,0 c -0.23,-4.09 -5.06,0.65 -1.44,-0.64 0.39,0.24 1.73,1.33 1.44,0.64 z m -63.94,2.27 c 0.29,-3.33 -6.22,0.85 -0,0.1 l 0,-0 0,-0 z m -5.7,0.67 c 1.13,-2.95 -2.78,-0.45 0,0 z m -26.458,0.22 c 2.258,-1.42 -1.926,-4.89 -3.73,-5.5 -1.065,2.84 0.37,5.28 3.73,5.5 z m 92.888,2.77 c 1.37,-2.37 -3.64,-1.87 0,-0 l 0,0 z m 40.07,4.67 c -2.33,-4.16 -2.29,0.57 0,0 z m -155.038,0.83 c 5.577,-3.01 -4.976,-1.7 0,0 z m -8.297,3.93 c 8.368,-3.71 -0.68,-4.9 -0.633,-0.28 l 0.633,0.28 z m -6.133,0.63 c 3.065,-4.39 4.209,-6.16 8.017,-5.25 2.297,-1.39 4.828,-1.02 6.11,-4.59 2.361,3.97 2.156,-3.64 4.923,-3.78 -0.578,1.73 -3.403,8.16 0.845,6.79 2.283,-3.99 5.986,-12.51 3.574,-2.77 1.441,2.95 0.915,-5.93 2.891,-4.06 -0.406,3.01 1.563,4.8 2.08,0.88 -0.04,-4.81 -3.957,-7 -4.386,-11.69 -2.333,-3.81 -0.784,3.44 -1.354,3.94 -3.161,-0.1 -2.729,-5.99 -7.068,0.17 -4.885,4.79 -11.979,7.28 -16.243,12.55 -1.55,2.14 -1.867,6.86 -0.109,8.47 0.01,-0.29 1.268,-0.19 0.72,-0.66 z m -1.789,22.9 c 3.183,-0.41 0.49,-8.04 -0.833,-2.67 -0.714,0.68 -0.41,3.1 0.833,2.67 z m 5.587,3.14 c 7.055,-0.25 -0.987,-6.57 -1.375,-11.11 3.123,-3.13 3.733,4.53 5.035,6.35 4.336,1.71 4.019,-4.22 1.075,-5.91 -1.589,-2.79 -0.397,-5.79 -1.649,-8.47 -1.387,-1.84 -0.62,-7.24 -3.648,-3.58 -3.555,1.31 1.912,-5.68 -3.17,-2.77 -3.434,1.27 -0.891,5.39 -1.289,8.1 1.481,2.77 1.104,5.95 2.816,8.57 0.308,3.04 -1.135,7.53 2.205,8.82 z m -4.038,0.78 c 0.586,-2.41 -2.148,-0.19 0,0 z m 116.848,2.75 c 4.18,-0.34 -1.2,-7.59 -0.76,-3.31 0.13,1.19 -0.46,2.77 0.76,3.31 z M 66.605,214.87 c 0.795,-4.4 -2.733,-0.11 0,0 z m 102.275,6.78 c 6.86,-7.62 -3.9,-1.7 0,0 z m -5.63,5.17 c 3.14,-1.79 1.46,-5.61 -0.59,0 l 0.55,0 0,0 0,0 z M 86.682,228 c 5.819,-1.01 -3.753,-1.18 0,0 z m -6,3.15 c 6.372,-4.9 -2.695,-3.82 0,0 l 0,0 z m 135.338,0.39 c 4.87,-2.57 1.29,-7.75 -1.21,-0.97 -0.1,0.63 0.51,1.23 1.21,0.97 z m -73.72,0 c 1.29,-3.44 7.65,-7.32 0.85,-5.5 -2.58,0.1 -2.69,4.65 -0.85,5.5 z m 35.72,-63.55 c -2.96,-1.38 0.24,-1.68 0.5,0.15 l -0.39,0 -0.11,-0.15 z m 8.58,8.62 c -0.33,-4.34 -8.95,-5.63 -6.37,-8.19 2.58,-0.1 6.86,6.92 6.37,8.19 z m -12.75,2.36 c -2.28,-0.9 -7.99,-7.85 -1.96,-4.24 0.8,0.34 4.22,4.11 1.96,4.24 z m -1.66,1.92 c -2.71,0.42 -5.86,-5.74 -1.67,-3.02 0.7,0.43 4.17,3.08 1.67,3.02 z m 12.14,2.9 c 0.32,-1.83 -2.31,0.1 0,0 z m -0.98,1.46 c -1.46,-3.16 -5.66,-4.22 -6.64,-7.53 2.67,0.15 8.19,6.66 3.5,0.1 -6.57,-5.32 0.62,-3.29 1.7,0.36 1.27,1.95 4.72,3.53 3.92,6.6 -0.1,0.91 -1.63,-1.42 -2.48,0.49 z m -14.36,0 c -4.58,-2.73 0.43,-1.52 0.74,-3.73 3.91,0.38 1.76,3.64 -0,2.94 0,0.73 0.14,0.97 -0.72,0.79 z m 11.1,10.19 c -3.06,-1.99 -10.8,-14.38 -2.47,-5.71 0.62,1.35 4.75,4.74 2.47,5.71 z m -5.71,0 c -5.04,-2.68 -2.07,-3.99 -0.72,-5.1 3.23,-0.41 2.74,4.07 0.72,5.1 z m 8.86,0.64 c -1.14,-3.9 -8.61,-8.83 -7.66,-12.25 4.11,1.91 5.49,7.05 8.29,10.46 -0,0.57 0.11,1.63 -0.63,1.79 z m -11.94,4.47 c -3.85,-0.18 -1.56,-4.33 0.81,-1.31 1.05,0.21 -0.1,1.8 -0.81,1.31 z m -14.62,28.24 c -3.06,-4.87 3.77,-1.17 0,0 z m -6.77,2.94 c 3.13,-0.7 6.31,0.1 8.78,-2.22 1.88,-2.17 -1.74,-3.25 1.44,-7.09 2.41,1.42 3.35,3.39 4.17,-1.94 2.68,-0.1 3.76,-4.56 5.7,-5 2.17,4.43 0.46,-5.41 3.59,-3.98 -1.53,3.22 1.65,6.51 0.88,2.29 1.69,-1.89 -0.66,-6.19 1.98,-7.22 2.97,5.45 0.96,-2.66 2.4,-3.88 2.52,0.6 1.45,5.45 2.02,7.81 4.55,-0.19 -4.76,-13.46 1,-10 2.6,1.15 0.28,5.75 3.99,3.37 -1.01,-2.56 -1.24,-5.89 -1.03,-8.99 -1.73,-3.22 -2.73,-7.68 -5.96,-9.91 -5.48,-4.14 -0.26,-5.08 2.29,0.2 1.16,2.6 6.15,10.1 3.93,4.34 -2.98,-2.37 2.42,-6.28 1.92,-2.36 4.46,-0.1 0.1,-4.27 0.44,-6.66 -1.81,-6.4 2.92,-0.24 2.15,-3.83 -1.87,-2.95 -1.99,-5.43 -0.45,-4.92 -1.84,-3.27 -4.21,-8.4 0.61,-1.57 1.13,1.81 1.77,6.38 4.11,3.01 -3.31,-0.84 -0.21,-2.71 -3.44,-3.32 -4.15,-3.9 1.39,-4.04 -0.69,-6.41 -6.03,-2.93 1.39,1.48 -2.49,1.72 -4.63,-0.43 -2.35,3 -0.33,4.71 -2.22,1.55 -3.96,-7.23 -9.01,-4.31 -2.55,0.33 -6.15,-3.18 -3.58,1.37 3.39,2.44 9.83,6.31 9.43,10.21 -1.37,-3.82 -4.54,-3.89 -7.09,-6.26 -0.45,4.37 -5,-3.38 -7.57,-4.06 -3.61,2.27 3.47,3.02 4.63,5.49 3.72,5.04 -3.88,0.61 -5.1,-1.91 -2.76,-3.63 -4.1,2.29 -4.89,4.42 -1.13,3.96 0.25,7.83 0.85,11.66 -1.1,4.31 -0.22,9.26 1.73,13.14 2.85,0.72 6.85,3.3 1.34,3.04 -3.15,8.16 -9.8,14.33 -15.99,20.3 -6.15,2.41 4.22,2.14 1.07,3.93 -5.55,-0.48 -8.6,5.19 -2.83,4.83 z m -11.3,0.9 c 6.55,-3.09 -3.52,-0.57 0,0 z m 81.81,2.01 c 2.08,-1.43 4.53,-7.01 3.5,-7.73 -4.32,-0.4 -5.17,4.06 -4.81,7.29 0.13,-0.15 1.33,0.93 1.31,0.44 z m -75.29,0 c 5.03,-1.83 -2.79,-2.1 0,0 z m 69.29,0.39 c 2.32,-3.02 -2.73,1.1 0,0 z m -95.8,-103.57 c -2.47,-0.63 -1.91,-4.14 -1.16,-5.58 -2.43,-5.92 3.01,0 3.23,3.18 0.32,1.65 -0.4,2.15 -2.07,2.4 z m -28.708,0 c -0.684,-1.04 -0.563,-6.33 3.25,-4.59 1.835,1.9 -2.039,4.17 -3.25,4.59 z m -1.55,5.5 c -3.357,-2.09 6.963,-7.26 2.16,-2.32 -1.152,0.19 -1.026,2.24 -2.16,2.32 z m 2.66,7.33 c -2.969,-2.41 5.074,-6.29 0.579,-0.52 l -0.579,0.58 0,-0.1 z M 134,154.61 c -6.99,-2.41 4.11,-3.19 0,0 z m -45.858,1.94 c 0.496,-3.79 2.69,-10.49 6.18,-13.18 1.378,3.86 -4.739,5.96 -4.887,9.91 -0.462,1.02 -0.581,2.72 -1.293,3.27 z m 62.758,2.21 c -4.54,1.81 -6.41,-4.58 -1.29,-1.95 1.67,0 4.59,1.79 1.29,1.95 z m 72.38,6.83 c -3.42,-0.89 -11.38,-9.27 -3.08,-4.32 0.43,1.1 6.07,3.11 3.08,4.32 z m -80.61,0 c -2.7,-1.54 2.85,-1.45 0,0 z m 82.8,5.5 c -1.29,-3.2 -9.59,-4.71 -8.16,-7.47 3.15,0.11 9.8,4.68 8.16,7.47 z m -113.05,5.61 c -2.64,0.41 -2.37,-5.06 0.63,-4.26 1.82,0.39 1.19,4.78 -0.63,4.26 z m 121.12,18.59 c -2.49,0.67 -2.85,-7.42 -0.14,-1.5 0.12,0.51 0.71,1.01 0.14,1.5 z m 1.16,6.31 c -4.11,0.14 -2.81,-7.66 0.22,-0.85 0.69,0.41 0.1,0.6 -0.22,0.85 z M 92.883,235.42 c 4.088,0.84 4.084,-4.55 5.946,-6.38 4.761,1.72 3.191,-11.12 6.561,-14.38 1.76,-6.71 4.32,-13.06 7.73,-19.09 0.61,-2.89 0.17,-6.99 2.5,-8.27 -1.48,-4.1 0.97,-4.34 2.62,-6.88 -1.76,-2.64 -0.85,-6.36 3.42,-5.03 -1.32,-3.94 -4.07,-4.92 -6.02,-1.23 -3.53,0.1 -1.33,-8.18 1.6,-4.93 2.71,-0.32 3.96,-12.82 5.94,-17.17 1.69,-1.71 -0.23,-6.78 2.75,-5.81 1.17,3.06 2.32,6.42 4.36,8.95 3.38,0.7 5.69,3.25 0.1,2.48 -3.06,-4.48 -8.57,-1.25 -4.4,2.21 2.1,-1.88 4.69,5.14 5.88,0.92 0.6,-3.96 4,3.47 5.81,-0.35 1.72,0.21 8.51,-1.06 6.77,1.04 -4.32,-0.17 -8.08,1.89 -12.39,1.62 -3.51,1.85 -7.48,-5.45 -9.6,-1.66 -0.6,3.97 2.38,6.82 5.74,8.45 4.64,0.73 -8.69,-10.35 -2.46,-7.29 1.74,3.52 5.65,5.25 9.19,5.85 3.67,-0.67 -6.33,-2.19 -2.1,-4.02 5.18,2.53 11.25,2.52 16.18,-0.78 8.01,-4.92 17.38,-6.43 26.59,-6.88 3.55,3.13 5.19,-0.83 1.51,-2.53 -1.53,2.83 -4.95,-1.44 -7.14,0.74 -3.94,-0.47 -7.45,0.48 -11,2.15 -2.47,0.79 -6.27,1.15 -8.01,-0.95 0.36,-3.4 7.49,2.82 5.74,-1.79 0.78,-2.68 5.35,2.63 5.84,0.21 -3.22,-2.27 0.23,-3.98 1.99,-1.17 1.99,-0.62 4.09,-1.56 6.2,-2.26 5.83,4.85 1.19,-7.44 4.99,-1.68 3.87,-1.15 6.52,2.92 7.91,5.92 -0.17,1.76 4.91,5.54 3.11,1.45 1.12,-2.36 -5.26,-3.93 -2.91,-5.87 6.47,1.51 7.54,9.39 11.12,14.14 2.86,6.6 5.55,13.54 11.44,18.08 4.68,5.41 11.37,8 17.2,11.91 2.93,4.07 7.49,6.87 7.81,12.42 1.29,6.08 -0.22,12.87 -3.94,17.78 -4.44,3.03 1.34,-0.1 2.76,0 0.66,3.19 -5.46,2.45 -5.59,5.7 0.21,3.35 4.68,0.4 6.71,0.57 3.45,-0.27 4.3,-3.41 6.72,-5.15 -0.15,-3.52 3.34,-5.03 1.15,-8.95 3.1,-1.45 -2.48,-6.89 2.34,-6.55 -0.2,-1.81 -3.29,-6.23 1.33,-5.3 -4.93,-3.59 -0.2,-4.65 -0.11,-7.01 -3.63,-1.22 -6.56,-4.05 -7.79,-7.68 -3.07,0.82 -2.77,-3.12 -5.45,-4.41 -1.29,-1.72 4.87,-0.61 -0,-4.3 -3.32,-2.28 -3.84,-4.32 -2.47,-5.71 -3.72,-0.74 -6.22,-7.8 -1.51,-4.06 0.62,3.33 7.54,6.11 4.19,1.25 -5.51,-1.99 0,-3.23 -3.85,-7.07 -1.36,-4.28 -3.26,-5.69 -6.94,-8.85 -3.22,-3.24 2.52,-1.08 3.3,1.15 3.89,3.22 1.66,-2.59 -1.01,-3.17 -0.8,-1.84 -8.13,-5.27 -3.31,-4.77 6.1,1.9 -1.95,-4.15 -4.55,-4.67 -1.77,-3.72 7.68,1.02 1.96,-2.3 -4.13,-0 -9.77,-6.53 -2.21,-2.78 3.94,0.95 5.92,4.62 9.01,5.81 4.49,3.72 -1.72,-5.33 -1.12,-4.81 1.12,-1.62 -4.12,-0.27 -5.74,-3.31 -3.55,2.49 -6.16,-2.47 -9.82,-2.36 -5.76,-0.31 -0.18,-2.71 -4.21,-3.75 -2.94,0.67 -4.37,-3.37 -7.46,-1.76 -4.68,0.1 1.97,-2.97 3.86,-1.41 5.35,1.15 7.86,5.52 12.95,7.16 4.12,1.54 9.73,-0.29 12.37,4.48 2.91,4.73 9.18,5.2 13.76,3.64 -3.8,-2.42 -1.09,-2.6 2.01,-3.08 9.11,-4.19 0.13,-3.51 1.37,-4.13 1.96,-1.69 4.41,-4.42 3.32,-7.13 -4.55,1.06 -3.65,5.64 -5.74,8.1 -4.83,5.38 -7.16,1.98 -0.76,-0.68 -0.16,-2.39 -8.55,4.5 -12.42,0.77 -4.67,-1.87 -8.47,-4.88 -13.3,-5.79 -3.07,-2.13 -6.65,-2.41 -10.27,-2.49 -3.38,-2.18 -8.35,-3.81 -12.26,-2.07 -4.38,-1.85 -8.98,-1.67 -13.6,-1.09 -0.34,-3.48 -7.13,-0.87 -9.87,-2.1 -11.71,-1.57 -23.16,2.03 -34.82,2.01 -2.93,-1.19 -6.04,-2.14 -7.75,-5.02 -1.7,-0.6 -4.85,-3.79 -1.9,-0.12 4.41,5.58 0.1,5.17 -1.41,0.21 -5.11,-1.49 -4.56,-3.96 -3.5,-6.25 -1.31,-2.96 -5.48,-2.22 -8.01,-2.96 -5.32,2.56 -3.12,0.57 -1.76,-2.22 -1.1,0.15 -6.02,3.01 -5.83,4.53 -2.084,1.95 -2.931,4.22 -4.618,6.05 -1.773,1.51 -3.266,5.41 -6.8,4.43 1.978,-2.95 6.809,-5.4 5.303,-8.92 5.056,-2.99 -1.032,-3.48 -2.342,0.6 -4.138,1.05 -4.314,4.54 -6.851,6.38 6.01,1 -3.652,3.59 -2.68,7.76 1.435,-1.87 7.581,-4.36 2.71,1.07 -4.207,4.08 4.27,1.66 -0.71,6.66 -5.272,7.08 -0.208,4.58 3.366,0.56 1.468,-5.13 8.233,-5.82 2.404,-0.36 -2.68,2.51 -5.902,4.56 -5.996,8.94 0.845,3.87 3.282,-4.25 3.893,-0.53 -2.038,2.77 -2.016,6.02 -1.847,9.31 3.629,0.79 -0.57,6.24 3.92,7.61 -0.93,-2.56 1.797,-4.72 3.124,-0.57 2.324,0.79 0.908,-6.11 3.295,-7.71 0.853,-4.44 -4.393,-3.58 -4.333,0.21 -0.192,6.61 -2.855,3.55 -2.406,-0.68 3.01,-3.46 3.922,-8.93 7.443,-11.54 1.046,1.86 -3.85,11.21 0.401,4.33 3.464,-2.11 -0.593,4.36 0.426,6.28 0.09,2.32 5.518,-1.58 1.86,3.62 3.798,2.04 -2.27,8.13 0.178,10.45 1.91,0.94 2.71,5.57 5.97,6.06 1.96,-2.01 6,0.63 3.47,2.98 -2.62,0.25 -5.59,-4.48 -5.74,0.93 -0.85,8.52 -4.729,16.47 -6.054,24.95 -1.368,5.81 -2.023,11.75 -3.871,17.39 0.189,4.91 -5.258,8 -9.693,7.33 -3.004,4.78 2.298,5.09 4.785,2.46 1.984,-3.27 8.698,-4.86 3.175,-0.45 -4.261,2.32 -2.602,3.97 0.901,4.32 z m -13.53,0 c 5.605,-1.94 0.02,-6.77 0,0 z m 8.05,8.23 c -3.752,-1.19 4.242,-10.22 -2.482,-8.38 -3.064,0.64 -9.017,7.01 -9.918,2.57 3.079,-3.95 1.199,-3.89 -2.491,-3.97 0.386,-3.24 5.714,-5.68 8.682,-7.66 3.605,-1.99 9.356,-1.49 10.545,-6.35 2.341,-12.76 5.533,-25.36 9.141,-37.8 0.34,-2.82 1.14,-5.86 -2.128,-7.18 -4.281,0.31 -8.485,0.44 -12.068,2.75 -3.007,0.85 -5.515,3.57 -8.882,4.12 -3.75,1.07 -8.542,3.41 -7.88,8.04 1.363,3.01 -0.114,6 1.778,8.78 2.379,4.46 3.913,10.71 3.424,15.59 -2.683,1.53 -4.176,-6.2 -6.774,-1.41 2.055,2.49 0.956,8.48 -2.583,5.25 -1.948,-5.6 -5.261,1.97 -6.881,-3.46 -1.016,-2.75 -2.731,-4.29 -3.499,-6.9 2.595,-3.98 1.666,-8.98 1.911,-13.47 -1.013,-5.41 -0.419,-10.94 -0.579,-16.41 3.787,-6.19 11.308,-8.18 16.21,-13.31 2.909,-2.91 11.384,-5.49 8.563,-10.52 -2.569,-1.33 2.343,-7.59 -1.788,-6.63 -9.364,3.13 0.691,-3.48 0.735,-6.55 -2.377,-2.66 0.05,-5.56 -1.99,-8.07 3.66,-3.23 -3.003,-5.17 1.869,-7.65 -0.638,-2.59 1.011,-4.88 5.682,-6.57 5.062,-1.62 0.699,-5.64 -2.78,-4.51 -5.653,0.34 -11.724,-2.06 -16.79,-1.84 -2.039,1.38 -11.431,0.69 -7.027,-1.72 1.673,-1.01 5.01,-6.91 0.536,-5.61 -3.34,-0.7 -6.137,1.72 -9.462,1.13 -1.037,-4.31 6.513,-5.83 9.6,-6.034 5.534,1.344 8.919,-1.487 3.254,-4.026 -3.615,-2.209 -11.325,-2.661 -11.872,-7.57 5.681,-4.567 14.662,-4.902 21.583,-7.62 6.928,-2.242 12.99,-6.552 20.106,-8.346 5.002,-4.523 8.762,-11.279 15.952,-12.417 5.14,-3.419 9.93,-5.42 8.6,2.856 -2.01,3.344 -1.75,6.961 2.51,3.745 4.27,-0.837 7.55,-4.288 10.55,-6.445 4.85,1.652 -1.17,6.026 -0.47,9.257 -2.11,2.607 -2.94,5.88 -3.47,8.633 -1.2,4.37 -7.71,7.803 -5.84,12.257 1.71,2.621 1.16,6.236 2.63,8.745 -1.52,3.555 1.92,7.095 0.5,10.305 -0.38,4.06 1.31,10.54 4.22,13.77 4.18,2.44 9.52,1 14.09,0.62 10.83,-2.26 22.04,-1.89 32.94,-0.77 7.03,2.17 14.66,0.48 21.7,2.96 5.52,2.17 10.94,3.77 16.84,4.36 6.3,0.9 11.01,7.64 17.56,6.9 4.84,-0.47 3.36,-3.92 2.91,-7.18 -6.72,-8.67 -16.15,-15.54 -26.85,-18.44 -5.83,-2.38 -11.8,-5.53 -15,-11.23 -3.63,-4.901 -3.61,-11.49 -3.31,-17.229 2.35,-6.691 8.54,-11.267 15.05,-13.289 3.26,0.127 6.53,0.209 9.31,2.145 1.99,-0.49 5.18,-4.117 5.63,0.766 -2.41,1.774 -0.92,5.411 -2.86,7.507 2.86,3.986 -2.14,3.93 -3.5,1.929 -2.79,1.546 -5.4,4.281 -4.05,7.669 0.56,2.039 4.97,7.247 5.97,2.728 1.23,-4.794 3.59,-2.597 3.96,1.138 3.35,2.946 7.81,2.805 11.23,5.727 7.14,5.849 14.01,12.719 18.12,21.099 3.25,4.92 1.67,11.35 1.55,16.87 -1.15,3.86 -3.74,7.82 -7.53,9.55 -2.96,3.29 -7.11,5.87 -11.68,4.57 -5.42,-2.73 -4.88,3.33 -4.26,6.64 2.53,2.74 -0.15,6.64 2.96,8.63 5.43,1.56 1.42,5.55 4.57,9.11 1.9,2.68 1.02,6.41 2.29,9.11 -2.01,3.09 2,7.31 4.58,9.18 1.66,2.42 6.45,1.14 6.17,4.5 -3.15,1.85 -2.92,4.69 -1.79,8 -2.43,2.72 0.98,6.78 -2.27,9.02 -0.76,4.5 0.47,10.1 -3.53,13.35 -0.13,4.07 -5.66,5.01 -8.15,7 -4.01,-1.59 -5.2,1.23 -7.83,3.31 -1.7,-1.79 -4.06,-4.56 -6.26,-0.19 -3.3,1.22 0.51,-7.35 -3.99,-1.34 -1.09,3.56 -5.18,0.59 -3.2,-1.96 1.86,-2.1 0.66,-5.12 2.67,-7.54 1.95,-1.63 3.37,-5.48 6.53,-3.95 2.8,1.6 6.29,0.47 7.51,-2.53 2.21,-5.01 2.38,-10.78 0.87,-16 -1.53,-2.45 -3.11,-4.89 -5.39,-6.56 -2.2,-3.93 -7.54,-4.89 -10.96,-7.59 -5.32,-3.06 -9.43,-8.14 -13.32,-12.82 -1.04,-4.74 -4.15,-5.67 -6.1,-1.06 -2.47,5.21 0.45,7.27 -2.25,10.82 -2.5,2.15 -2.57,6.4 -2.74,9.71 -0.63,3.88 1.61,7.19 5.09,5.35 2.1,2.55 -2.45,5.39 -4.77,4.12 -4.54,-0.54 -4.73,8.56 -9.19,10.28 -3,0.88 -5.33,3.51 -8.1,5.69 -4.14,0.14 -4.64,6.03 -8.81,6.64 -2.77,2.66 -6.58,5.21 -9.84,1.92 -3.22,1.43 -8.25,8.48 -10.85,4.69 5.03,-3.65 -2.18,-4.61 -3.85,-1.43 -2.05,4.39 -6.14,0.23 -2.09,-2.6 -4.41,0.98 -2.51,-1.89 -0.51,-4.33 1.14,-3.52 3.49,-6.29 7.43,-6.76 4.85,1.59 8.74,0.49 11.33,-4.32 3.39,-4.73 10.48,-9.04 9.91,-15.35 0.1,-3.64 -2.92,-6.5 -1.99,-10.27 -0.36,-3.68 1.04,-7.8 -1.4,-10.96 0.15,-7.44 3.41,-14.99 10.77,-17.85 3.72,-0.85 5.09,-5.56 0,-3.85 -12.01,0.79 -22.15,7.62 -32.63,12.72 -3.71,1.92 -7.66,2.48 -11.75,2.17 -0.87,3.24 -5.79,2.94 -5.37,6.37 -2.37,3.2 -1.26,8.28 -3.77,10.91 -1.05,3.64 -1.87,7.59 -4.24,10.82 -3.83,9.24 -7.1,18.86 -9.01,28.71 -2.19,1.64 -3.244,6.36 -6.318,5.78 -3.37,-0.17 -6.708,2.83 -8.557,5.66 -0.1,1.22 -2.7,1.28 -0.632,1.28 z"/></g>
</svg>
