<?xml version="1.0" encoding="UTF-8" standalone="no"?>
<!DOCTYPE svg PUBLIC "-//W3C//DTD SVG 1.1//EN" "http://www.w3.org/Graphics/SVG/1.1/DTD/svg11.dtd">
<svg xmlns="http://www.w3.org/2000/svg" width="300px" height="350px">
<g>
<path id="fill" d="m 177.72,50.656 c -3.73,0.488 -6.96,2.84 -10.93,2.671 -3.4,0.234 -6.98,1.275 -8.32,4.711 -1.89,3.205 -5.35,5.357 -9.03,5.243 -7.56,2.052 -16.01,1.267 -23.13,4.219 -2.41,1.228 -1.64,4.593 0.72,5.344 0.97,3.561 6.12,3.145 7.19,6.531 -4.68,-1.578 -10.31,-2.116 -14.81,0.03 -1.37,0.97 -1.86,3.787 0.1,4.438 2.42,-2.57 7.74,-2.605 9.78,0.218 0.47,2.47 -3.05,3.024 -3.66,4.626 2.75,-0.08 5.94,1.009 8.69,-0.188 2.01,1.933 5.55,0.395 7.63,2.062 -0.13,2.482 -3.91,0.633 -5.16,2.469 -1.7,1.668 -3.45,3.598 -4.94,5.25 -1.03,2.959 -4.87,1.809 -6.97,1.625 0.24,0.934 4.07,1.834 2.22,3.534 -3.15,1.94 -7.31,1.03 -10.31,-0.69 C 112.13,95.186 108.64,86.922 103.22,79.875 99.427,75.094 94.779,69.6 96.375,63.062 96.071,59.411 94.64,54.326 90.438,53.688 c -1.866,0.04 0.818,2.235 0.75,3.187 0.987,1.971 -1.057,3.824 -3.032,2.844 -3.012,-0.483 -7.03,-3.223 -9.625,-0.719 1.914,1.657 5.878,2.356 5.063,5.781 -0.369,3.506 -5.282,3.407 -6.532,6 2.051,0.979 5.819,-1.091 6.907,1.844 0.431,2.242 -1.83,3.863 -3.781,2.75 -1.223,-0.523 -3.233,-0.922 -2.219,1.094 0.644,2.283 -1.798,3.772 -3.719,2.625 -2.158,-0.763 -4.494,-0.789 -6.688,-1.375 -1.708,-0.212 -0.842,1.942 0.5,1.906 2,1.149 4.568,4.763 1.688,6.406 -0.892,1.077 -3.657,-0 -3.719,1.563 1.518,2.072 6.133,2.242 5.813,5.344 -0.302,1.353 -3.756,2.246 -2.125,3.624 1.579,1.173 2.808,-1.832 3.812,-0.437 2.33,1.242 5.117,-2.906 7.125,-0.203 2.662,3.774 3.998,8.558 7.312,11.888 3.324,5.45 6.812,11.01 10.751,15.94 2.421,1.51 1.741,5.02 3.251,6.97 2.7,0.99 1.49,4.76 3.5,6.34 0.89,2.44 4.05,3.54 6.56,3.44 -1.49,3.07 -2.56,8.12 0.94,10.16 3.22,0.27 1.1,-3.77 2.22,-5.54 1.32,-2.16 4.45,-0.4 6.59,-0.87 2.41,0 4.58,1.05 5.84,3.13 3.47,3.13 8.19,4.25 12.57,5.08 2.32,0.55 5.64,2.76 7.5,0.38 4.58,-1.18 8.16,3.28 11.97,4.97 3.66,1.48 6.44,4.43 9.68,6.71 1.2,0.51 2.01,2.78 0.1,2.64 -1.48,-0.36 -4.07,-1.15 -4.38,1.09 0.2,2.39 4.11,2.16 4.13,4.84 -0.1,4.65 -4.92,7.38 -8.08,10.11 -6.31,3.87 -8.42,11.93 -7.7,18.86 1.22,1.73 1.19,4.07 -0.19,5.72 4.81,1.58 4.96,8.34 9.69,10.16 3.31,2.22 1.12,6.52 -0.88,8.84 -2.11,2.12 -3.07,4.91 -4.25,7.41 -1.95,2.79 -5.86,2.59 -8.84,1.93 -3.05,0.76 -2.96,5.24 -6.19,5.88 -0.69,0.62 -3.03,1.62 -2.44,2.56 1.12,-0.13 4.12,-1.23 3.75,1 -1.19,3.09 2.5,-0.18 3.91,-0.34 1.04,-0.75 3.68,-0.73 2.84,1.16 -0.93,1.49 0.68,1.4 1.44,0.37 2.71,-1.89 5.63,-3.68 9.12,-3.25 4.39,0.2 5.09,-5.45 8.72,-6.88 2.37,-1.87 4.24,-4.39 5.32,-7.21 1.94,0.37 5.33,0.42 6.03,-1.82 -0.79,-0.16 -2.66,-0.39 -2.88,-1.87 -1.04,-2.64 0.1,-6.31 3.13,-6.66 2.28,-2.3 7.7,-0.93 7.11,2.66 -1.85,4.68 -2.25,10.44 -5.84,14.07 -4.1,2.46 -10.78,3.01 -11.99,8.37 -1.16,1.79 -1.27,3.21 0.9,1.4 1.15,-0.97 2.98,0 1.97,1.47 -0.25,0.75 -1.52,3.03 0.38,2.03 0.92,-1.31 3.07,-3.49 4.43,-1.5 0.65,1.42 1.52,1.56 2.22,0.13 1.15,-1.85 3.91,-1.27 4.22,0.87 4.82,-3.83 8.24,-9.45 12.63,-13.81 2.06,-2.78 4.25,-5.77 4.22,-9.28 0.64,-1.87 4.36,-1.59 3.5,-4.16 -0.65,-1.2 2.1,-1.07 1.37,-2.75 -0.33,-1.49 -2.11,-5.03 0.88,-4.62 1.53,-0.24 2.61,-3.79 0.68,-3.85 -3.32,2.46 -8.02,0 -10.59,-2.5 -2.68,-2.48 -3.29,-6.4 -3.63,-9.87 0.44,-2.78 4.02,-1.95 5.76,-2.5 2.73,-2.07 4.89,2.1 7,3.09 4.66,1.77 10.48,2.11 14.46,-1.19 4.48,-2.39 8.79,-5.53 10.78,-10.32 1.23,-1.81 2.14,-4.1 1.41,-6.24 1.54,-3.6 -0.16,-7.93 0.1,-11.53 -2.15,-2.48 -0.73,-6.42 -3.15,-8.65 -1.27,-2.66 -2.92,-5.24 -4.47,-7.6 -0.33,-1.69 -0.31,-4.35 -2.69,-4.31 0.56,-2.8 -0.9,-6.13 1.38,-8.38 0.41,-1.9 -2.71,1.67 -3.47,2.03 -1.05,0.75 -3.37,2.82 -2.91,0.26 0.1,-3.7 3.68,-6.69 2.53,-10.54 -0.1,-3.15 -0.8,-6.28 -0.62,-9.43 -1.06,0.85 -2.32,5.62 -2.28,2.03 -0.24,-3.08 -1.35,-6.17 -1.13,-9.22 -0.16,-1.78 -2.21,-4.2 -3.66,-2 -1.97,4.27 -6.68,6.45 -8.62,10.66 -3,10.32 1.72,20.88 6.26,29.95 4.14,8.6 10.08,17.14 9.93,27.01 -0.41,3.48 -1.86,8.08 -6.13,8.1 -5.54,1.01 -8.71,-4.69 -10.27,-9.09 -2.91,-5.95 -4.51,-12.34 -6.78,-18.56 -6.66,-15.76 -20.35,-26.71 -30.7,-39.95 -1.14,-4 -4.2,-9.31 -0.4,-12.75 4.18,-3.42 4.75,-9.826 8.21,-13.809 0.32,-3.18 1.21,-6.309 1.39,-9.466 1.05,-2.294 0.67,-5.881 2.65,-7.377 3.59,-0.961 7.36,-2.212 9.46,-5.404 2.43,-1.971 5.48,-3.606 6.44,-6.753 0.97,-1.835 4.26,-2.778 3.82,-5.187 -8.17,3.837 -17.47,1.04 -26.04,3.062 3.56,-2.449 2.17,-7.947 6.13,-10 1,-0.696 2.82,-3.123 0.31,-3 -0.35,-0.05 -0.71,-0.04 -1.06,0 z M 83.875,76.969 c 2.501,-0.417 4.693,1.276 4.992,3.828 1.657,4.772 5.699,8.232 6.789,13.359 1.499,3.163 1.389,5.259 -1.125,1.688 -3.574,-4.421 -6.692,-9.377 -11.593,-12.282 -1.478,-0.889 -0.753,-2.74 -0.969,-3.843 -1.141,-1.465 0.53,-2.722 1.906,-2.75 z"/><path id="outline" d="m 173.56,250 c -2.97,-0.26 2.39,-5.69 -1.54,-3.98 -5.38,3.28 -1.14,-1.62 -0.79,-4.42 3.33,-3.58 8.17,-4.33 11.89,-6.49 2.82,-4.08 3.72,-9.84 5.32,-14.01 -0.93,-3.29 -5.08,-3.33 -6.9,-1.26 -4.06,-0.44 -3.65,8.76 0,6.85 1.69,2.57 -3.49,3.93 -5.88,3.28 -1.23,3.05 -3.71,6.04 -6.29,7.73 -1.96,0.9 -3.2,4.25 -5.43,5.77 -2.67,1.28 -5.81,-0.42 -8.5,2.01 -1.78,0 -5.39,4.79 -5.47,1.35 2.25,-3.89 -5.09,0.54 -6.6,0.93 -0.75,-1.71 2.02,-4.26 -2.63,-2.59 -3.65,-0.44 2.01,-4.03 3.21,-4.35 1.94,-1.35 2.5,-6.69 6.99,-4.85 3.15,0.46 6.5,-0.57 7.2,-4.02 1.27,-4.53 10.14,-10.43 3.54,-14.19 -4.17,-1.95 -4.6,-8.88 -9.11,-9.6 0,-1.48 2.6,-2.34 0.1,-6.21 -0.26,-6.84 1.31,-14.53 7.34,-18.61 3.33,-2.52 13.14,-9.53 6.26,-12.78 -3.68,-1.47 -1.05,-5.81 2.2,-3.98 5.7,0.91 -5.17,-5.47 -6.94,-7.47 -4.31,-1.02 -10.44,-7.85 -14.08,-5.6 -1.58,2.82 -7.44,-1.59 -10.86,-1.08 -3.97,-1.49 -8.52,-2.78 -10.89,-6.54 -2.73,-1.77 -6.19,-0.89 -9.27,-1.39 -2.94,1.75 1.3,7.12 -4,6.64 -3.19,-2.46 -2.66,-6.87 -1.15,-10.17 -2.49,-0 -5.82,-1.51 -6.42,-4.02 -2.21,-1.45 -0.34,-4.6 -3.19,-5.78 -1.674,-0.96 -0.54,-5.62 -3.868,-7.39 -3.578,-5.4 -7.416,-10.64 -10.545,-16.15 -3.508,-3.24 -4.603,-8.455 -7.325,-11.802 -2.336,-1.511 -4.617,2.727 -7.188,0.333 -2.254,2.667 -6.167,-0.03 -2.613,-2.151 5.257,-3.299 -7.702,-4.798 -4.04,-7.682 7.126,-0.234 4.579,-4.973 0.04,-7.226 -0.668,-3.89 4.543,-0.474 6.54,-1.123 3.288,1.403 5.748,1.879 4.472,-3.1 1.532,-1.88 6.279,3.077 6.319,-2.274 -1.472,-2.719 -6.647,0.498 -7.001,-2.067 1.806,-3.078 7.577,-2.51 6.565,-7.443 -0.289,-2.409 -8.821,-3.566 -3.052,-5.55 3.516,-0.581 6.676,2.008 10.265,1.809 2.724,-2.43 -4.274,-6.543 1.06,-6.148 4.119,1.665 5.46,6.664 5.617,10.563 -2.024,7.333 5.665,13.251 8.925,19.163 4.62,5.944 7.31,13.514 11.36,19.578 2.58,1.23 6.2,2.22 8.69,0.93 4.21,-1.5 -4.41,-2.79 -0.76,-4.24 2.07,0.757 5.96,1.35 6.31,-1.62 3.58,-2.203 3.9,-6.549 9.59,-6.167 2.12,-1.705 -5.12,-0.618 -6.84,-2.344 -3,1.228 -5.52,-0.198 -8.6,0.271 -2.43,-1.818 4.01,-2.535 3.11,-5.5 -2.6,-1.86 -6.94,-1.999 -9.09,0.577 -3.57,-0.989 -1.7,-6.278 1.63,-6.176 3.93,-1.276 8.12,-0.809 12.02,0.316 -0.66,-1.388 -5.72,-2.321 -6.64,-5.355 -4.67,-2.79 -1.66,-6.88 2.56,-7.129 6.77,-2.08 14.02,-1.367 20.77,-3.493 4.82,0.4 7.53,-3.673 9.67,-7.265 3.72,-3.247 8.89,-1.934 13.21,-3.681 3.52,-2.099 11.36,-2.569 5.92,2.437 -3.77,2.325 -2.54,6.346 -4.91,8.823 3.54,-0.795 8.47,-0.546 12.58,-0.57 4.23,0 8.29,-0.588 12.16,-2.375 2.01,2.92 -3.99,4.516 -4.32,7.866 -1.91,2.892 -5.46,3.953 -7.4,6.938 -2.48,2.4 -5.86,2.768 -8.54,3.858 -0.73,2.705 -1.32,4.812 -2.1,7.785 0.37,2.883 -1.14,5.737 -1.08,8.587 -3.36,3.822 -3.92,9.307 -7.56,13.287 -4.91,3.57 -1.43,8.37 -0.3,12.92 8.56,10.78 19.35,20.16 26.6,32.11 4.4,6.19 5.99,13.81 8.38,20.81 2.89,4.85 3.45,11.91 9.38,14.3 2.96,0.31 6.62,-0 7.41,-3.48 3,-6.12 -0.41,-13.26 -2.69,-19.08 -5.43,-11.25 -12.91,-22.33 -13.41,-35.23 0.33,-2.77 0.6,-6.87 1.85,-8.55 2.42,-2.99 6.06,-5.37 7.69,-8.92 2.69,-3.29 4.6,0.21 4.99,3.02 -0.65,3.01 1.06,5.4 0.92,8.28 0.42,-0.91 2.75,-5.81 2.27,0.22 0.2,2.51 0.65,5.05 0.65,7.68 1.13,3.82 -2.97,6.95 -2.52,10.73 1.92,-0.55 8.28,-7.78 6.14,-2.35 -2.31,2.26 -0.39,5.21 -1.11,7.33 2.56,0.43 2.06,2.71 2.75,5.07 2.61,2.71 3.05,5.64 5.49,8.72 1.05,2.54 0.12,5.44 2.27,7.21 -0.8,4.2 1.44,7.39 -0.33,11.7 1.29,3.55 -2.04,6.33 -3.05,9.44 -2.79,3.21 -6.43,6.05 -10.07,7.69 -3.89,3.28 -9.5,2.44 -14.05,0.97 -2.24,-0.9 -4.83,-5.73 -7.06,-2.82 -3.13,-0.27 -6.6,-0.12 -4.61,4.37 -0.1,5.89 6.19,10.98 11.67,10.11 3.52,-3.39 4.16,3.16 0.7,3.98 -3.45,-0.79 2.34,5.38 -1.74,6.31 1.28,4.41 -4.01,2.59 -3.52,5.91 -0.24,3.68 -2.66,5.69 -4.54,8.89 -4.6,4.18 -8.08,10.36 -12.95,13.79 -0.82,-3.17 -2.58,-3.24 -4.76,0.17 -2.44,-1.01 -1.68,-4.71 -5.52,-0.1 l -1.35,0.36 0.4,0.16 z m 2.72,-4.54 c 2.69,-0.44 4.58,-8.81 6.5,-4.91 -2.51,1.46 -4.17,7.06 -0.1,4 1.31,-0.88 3.17,-7.36 3.55,-3.1 -1.67,2.47 -1.58,5.24 1.63,2.92 -0.81,-5.64 2.87,-3.09 4.57,-5.91 -0.1,-4.25 7.94,-5 5.18,-9.34 -0.94,-1.72 0.82,-4.1 0.63,-6.08 -0.26,-1.75 1.19,-3.21 1.01,-4.77 -4.14,-1.08 -4.38,-2.55 0.51,-2.04 2.45,2.15 0.78,4.8 2.66,6.62 2.16,0.89 1.61,-4.69 -0.22,-5.42 -4.2,-3.93 -0.72,-1.68 2.24,-0.1 2.5,-0.94 -2.64,-4.77 -5.1,-4.22 -1.79,1.75 -8.58,-0.18 -3.25,-0.1 3.41,-0.76 -2.85,-2.03 -3.93,-2.04 -1.02,-2.51 8.86,1.9 5.79,-2.06 -3.58,0.14 -6.55,-1.3 -9.72,-2.81 -0.99,-4.28 2.35,0 4.15,0.62 6.28,2.74 -1.01,-1.86 -1.53,-4.4 -0.54,-2.06 5.08,2.61 1.69,-1.7 -1.71,-0.17 -4.34,-6.12 -0.76,-4.56 -1.61,-2.64 -4.4,-7.39 -0,-3.07 3.81,3.55 -1.65,-4.58 -0.65,-5.44 2.58,-0.22 4.86,1.67 4.22,5.35 3.7,3.25 -0.3,-2.17 1.21,-4.23 -0.88,-4.79 -0.55,-8.8 -1.84,-13.2 -4.36,-4.43 1.7,-0.93 1.75,-4.55 -3.35,-3.61 1.39,-3.31 1.65,0.4 0.87,1.87 0.57,6.3 1.86,6.5 -0.22,-3.03 -0.6,-5.46 -1.22,-8.51 -5.84,-19.98 -23,-33.2 -35.43,-48.96 1.62,-3 -2.68,-6.15 -0.44,-9.18 3.5,-3.65 2.99,-8.74 2.56,-13.296 0.24,-2.331 4.04,2.266 2.89,-2.835 -1.14,-4.536 -4.9,1.958 -7.74,0.924 -4.84,-2.187 -9.94,0.06 -12.78,-0.797 1.16,3.662 -8.27,-1.993 -11.36,0.402 -2,2.16 -6.06,6.182 0.59,3.857 1.71,-0.682 5.43,3.375 3.05,2.745 -3.2,-0.67 -4.88,2.7 -0.64,2.22 2.43,2.2 -10,1.65 -6.2,0.45 6.75,-1.38 -2.66,-2.08 -4.63,-0 0.91,2.99 -5.4,2.65 -5.8,6.12 -0.72,3.14 -0.54,4.37 2.84,1.85 1.88,-5.13 7.45,-6.94 12.54,-6.83 -1.81,2.28 -6.34,0.51 -8.4,3.38 -4.73,3.53 0.38,2.77 3.37,2.21 3.52,-2.92 8.36,-0.4 12.24,-1.95 2.77,1.5 5.25,2.09 7.98,1.09 1.59,2.87 -4.56,2.08 -6.43,2.05 -5.04,0.45 0.32,0.64 1.68,2.04 2.16,2.14 5.14,1.82 7.52,3.46 2.25,-2.61 4.17,3.82 1.77,3.65 -1.01,-4.19 -1.34,1.3 -3.37,-2.58 -3.56,-0.65 -6.79,-2.93 -11.3,-4.94 -2.78,-2.23 -6.83,-1.48 -9.93,-1.2 1.24,3.27 -1.08,-1.37 -3.55,0.65 -5.8,2.29 4.22,0.32 5.77,2.71 -0.67,2.49 -4.91,-1.06 -7.29,-0.1 -3.94,0.24 -3.9,3.89 -8.1,5.54 -3.36,5.67 0.11,2.77 2.59,0.56 1.95,1.31 -4.09,7.57 -4.64,4.98 0.17,-1.28 -1.74,-2.62 -2.15,-5.67 -0.74,-2.32 -2.72,2.67 -3.33,-3.2 -1.5,-2.26 -3.07,-4.53 -4.78,-6.51 -7.6,-7.45 -13.5,-16.395 -20.502,-24.363 -4.284,-2.577 -9.172,-4.328 -12.347,-8.366 -4.907,0.05 -0.825,5.728 2.65,5.03 1.716,3.455 -7.896,-1.903 -4.699,3.289 1.558,-0.189 7.622,-0.586 4.569,1.399 -5.425,-1.14 -1.6,7.066 1.145,3.114 2.921,-1.307 5.423,0.245 6.822,3.341 -4.052,1.561 2.956,7.066 4.31,9.916 2.474,2.02 3.812,4.6 5.11,7.03 2.95,2.44 4.186,4.4 7.462,6.48 -4.672,-1.79 -2.473,2.52 0.81,2.24 -0.74,1.75 1.71,2.8 3.3,5.23 3.06,2.22 -2.67,3.47 2.71,4.2 4.24,0.1 1.63,4.29 8.76,2.79 1.98,1.02 7.13,-6.42 5.23,-1.89 -2.7,0.88 -2.76,6.62 0.1,2.88 3.54,-1.15 -2.71,3.81 -4.67,4.03 -1.1,-0.56 1.18,-4.05 -3.79,-2.71 -7.09,-3 -6.24,2.63 -0.72,2.07 4.93,0.47 -0.64,2.6 -0.17,4.98 1.2,0.38 7.5,-3.07 11.16,-1.52 2.36,1.5 12.58,-0.79 6.63,-2.37 -3.9,2.12 -6.91,0.21 -10.61,0.68 -5.54,-1.35 4.1,-1.05 5.97,-2.07 0.81,2.1 5.68,1.14 6.18,-2.04 0.37,-3.39 3.41,-3.6 3.7,-0.35 2.01,2.24 4.79,2.82 5.29,5.96 1.81,1.22 3.35,-0.52 5.36,3.08 0.64,-2.77 4.1,1.74 6.55,0.84 3.43,2.52 -3.02,1.48 -4.61,1.37 -4.17,-1.32 -7.69,-2.39 -11.95,-2.8 -4.77,1.28 9.12,9.53 2.87,3.48 0.28,-1.91 5.62,2.61 8.35,2.02 9.15,1.66 15.95,8.19 23.15,13.46 1.1,-2.41 -2.84,-3.72 -3.77,-5.66 -2.2,-0.56 -8.01,-5.56 -2.94,-3.87 1.86,2.25 4.7,1.79 5.82,4.48 2.39,-0.35 2.77,4.02 4.71,5.14 2.12,2.1 0.99,4.96 0.29,7.52 0.59,1.12 0.83,5.75 2.42,3.34 -1.23,-1.51 -0.82,-4.84 -0.37,-6.68 3.91,-0.73 -1.36,-5.23 2.57,-5.87 1.68,1.85 0.18,4.73 -0.61,7.46 0.78,1.93 2.34,-6.33 2.13,-1.12 1.69,1.49 1.94,4.88 1.36,7.69 0.64,3.19 -0.81,5.59 -2.88,8.14 -0.25,2.23 -4.05,2.94 -3.69,5.57 -0.24,1.23 -0.8,8.06 -0.22,8.93 2.13,-1.59 2.53,5.82 -0.1,4.53 -0.26,-4.11 -3.08,-4.89 -1.65,-9.84 0.73,-2.07 -0.64,-2.22 0.14,-5.38 2.83,-1.98 3.58,-3.75 4.25,-5.5 2.29,-1.78 0.75,-3.29 1.83,-5.91 -3.91,3.29 -7.2,8.11 -9.69,12.8 -3.11,5 -2.94,11.7 0.49,16.43 4.86,2.64 5.71,9.59 11.8,10.69 2.23,1.3 6.57,-0.44 7.64,2.12 1.4,2.62 4.76,3.31 -0.1,4.16 -2.73,5.2 -2.3,13.44 -9,15.45 -3.58,0.57 -6.2,6.61 -6.15,8.24 z m -16.01,-93.03 c -4.5,-1.64 -3.05,-9.62 -0.16,-1.89 0,-0.28 1.65,2.53 0.16,1.89 z M 145.5,138.71 c -2.95,1.26 -9.49,-2.82 -6.63,-5.39 2.06,5.33 4.11,2.24 5.65,2.3 1.58,1.58 5.61,2.54 0.98,3.09 z m -26.88,-6.09 c -6.53,-1.69 0.42,-2.52 2.45,-4.4 1.19,2.56 -1.05,1.62 -2.45,4.4 z m -8.86,-7.48 c -1.76,-0.52 1.91,-1.49 0,0 z m 30.3,-7.4 c -5.36,-2 -7.39,-4.21 -0.77,-2.05 1.56,-0 2.88,1.74 0.77,2.05 z m 18.37,-7.45 c -3.53,-0.84 3.25,-4.5 1.28,-0.45 -0.19,0.67 -0.8,0.41 -1.28,0.45 z m 3.1,-3.24 c -2.02,-1.77 1.8,-3.11 1.56,-5.44 3.05,-0.26 0.68,3.52 -0.45,4.89 0,0.79 -0.64,0.54 -1.11,0.55 z m -17.22,-7.234 c -1.39,-1.242 -8.8,-0.872 -6.25,-2.525 3.71,-0.827 5.81,-0.206 8.68,0.902 -0,0.155 -1.77,1.577 -2.43,1.623 z m 2,145.224 c 4.27,-1.36 -1.54,-1.75 0,0 z m 8.21,-1.75 c 3.26,1.05 1.34,-4.19 4.34,-3.41 -0.21,4.1 2.6,0.64 2.42,-1.29 2.68,-0.84 0.31,4.61 3.41,-0.38 3.3,1.45 0.38,-6.92 4.38,-5.05 -1.71,6.87 2.65,0.71 0.51,-2.17 -2.69,-5.57 2.6,-1.49 2.55,1.2 1.76,-1.18 1.68,-5.41 0.81,-7.6 -2.5,-2.27 -4.43,-6.01 -0.51,-2.06 1.43,2.56 2.51,7.07 6.36,6.25 -2.98,-0.68 -4.64,-3.47 -4.15,-6.44 -2.55,-4.15 -8.19,-3.61 -11.11,-7.34 -5.15,-6.6 7.29,6.84 9.68,2.15 -3.36,1.02 -14.31,-9.7 -9.56,-7.67 2.93,3.23 6.18,6.97 11.01,6.46 0.98,-1.83 -7.45,-2.57 -8.75,-5.75 -2.59,-1.18 -10.22,-10.47 -6.39,-8.02 2.58,3.93 6.72,5.92 9.55,9.51 0.96,1.24 7.55,3.02 4.81,0.47 -6.85,-1.74 -9.26,-8.48 -14.86,-12.51 -2.22,-5.87 3.12,3.59 5.86,4.37 3.11,2.4 5.75,3.2 1.88,-0.28 -3.35,-2.71 -7.11,-5.83 -8.39,-10.15 0.92,2.09 8.68,9.56 7.51,6.71 -2.83,-2.54 -5.12,-5.46 -6.86,-9.11 -2.05,-4.78 -3.76,4.23 -3.73,6.57 -0.42,5.67 1.39,11.2 5.08,15.54 1.6,4.75 10.26,5.38 6.53,8.6 -1.3,4.72 -6.91,10.26 -9.48,15.35 -1.87,3.25 -5.42,-0.13 -7.08,2.23 -3.3,1.32 -0.42,5.63 1.45,2.96 4.03,-4.68 3.1,-1.87 1.5,1.4 0.37,-0.22 2.23,0.51 1.23,-0.54 z m 17.36,-15.11 c -5.25,-6.29 1.2,-4.14 0,0 l 0,0 z m 28.18,-1.3 c 2.15,-2.28 -1.99,-5.82 -1.33,-0.97 0.15,0.58 1.45,0.37 1.33,0.97 z m -23.1,-1.94 c 2.13,-3.04 -3.78,-5.18 -0.29,-0 -0,0.16 0.49,0 0.29,0 z m -2.03,-5.83 c 3.56,-1.12 -4.08,-3.28 -0.73,-0 0.16,0.18 0.51,-0 0.73,0 z m 4.07,0 c 3.79,-1.43 -8.06,-4.8 -2.18,-1.94 0.69,0.63 1,2.79 2.18,1.94 z m 25.73,-5.55 c 4.91,-2.07 -9.08,-3.7 -4.8,-1.16 1.63,0.25 3.26,0.72 4.8,1.16 z m -12.28,-14.64 c 0.48,-1.65 -1.46,-1.86 0,0 z m -26.41,-0.56 c 0.43,-2.52 -4.94,-4.88 -4.82,-8.47 -2.45,-5.56 -3.23,-0.4 -0.75,2.25 2.27,1.77 2.87,5.14 5.57,6.22 z m 49.26,-0.34 c 2.48,0.26 0.87,-3.86 -1.51,-3.65 -3.74,-2.01 -0.41,-2.8 1.72,-0.5 3.23,1.49 1.32,-2.88 5.65,-0.14 6.85,-0.1 -1,-3.57 5.37,-2.67 4.58,-1.69 -4.62,-1.38 1.98,-3.61 3.87,-1.51 1.78,-4.03 2.67,-6.18 0.41,-1.53 2.63,-5.75 0.85,-5.34 -2.17,1.18 -1.75,5.21 -4.76,4.96 0.76,-1.81 2.04,-4.58 3.76,-6.51 1.96,-1.27 1.94,-7.58 -0.69,-3.77 -3.37,6.15 -6.47,2.99 -1.38,-0.71 3.69,-2.39 1.08,-11.26 0.1,-2.61 -1.09,4.53 -3.58,2.35 -1.85,-0 -2.73,0.72 -2.42,-2.58 -2.49,-4.57 -0.36,-3.23 1.33,-7.08 -0.53,-9.85 -1.46,1.95 1.61,7.22 -0.47,8 -1.07,-3.41 -1.48,-7.28 -0.9,-10.92 -2.4,-0.61 0.58,9.76 -2.06,5.45 -0.99,-3.59 2.18,-7.73 0.26,-10.95 -2.73,1.9 0.33,5.6 -1.72,7.19 -2.72,-0.98 -2.3,-6.88 -1.85,-9.77 0.1,-5.52 -2.71,8.08 -3.73,3.53 -1.03,-4.13 4.76,-6.01 4.9,-9.62 -1.25,-0.31 -4.93,6.06 -5.5,2.83 2.16,-0.99 -1.24,-2.74 2.75,-5.66 2.43,2.12 5.04,-4.74 2.57,-4.78 -2.47,1.53 -4.26,3.67 -6.47,5.75 -1.77,-2.8 4.43,-4.18 4.74,-7.34 1.84,-5.86 -5.93,4.08 -2.47,-2.52 1.66,-2.49 1.8,-6.1 0.47,-8.79 -1.12,2.98 -4.61,3.19 -5.88,6.11 -0.6,2.73 -3.28,4.19 -2.88,7.36 -0.86,10.64 5.06,20.23 9.51,29.48 4.02,7.57 8.83,16.33 6.93,25.12 -1.29,6.37 -9.66,9.51 -14.5,5.16 -2.42,-1.15 -4.68,-10.87 -4.93,-4.67 -0.75,4.33 0.27,4.18 1.92,3.76 -0.19,4.06 2.61,5.49 4.72,5.73 1.05,2.42 7.65,3.41 2.17,3.38 -0.97,1.35 5.18,2.12 3.57,1.34 z m 11.84,-11.98 c -1.44,-2.79 5.11,-2.35 0,0 l -0,0 z m 0.42,-9.3 c -4.51,1.38 1.75,-4.34 1.24,-1.17 l -1.24,1.1 0,0.1 z M 210.59,130.4 c -3.97,0.25 3.34,-6.25 1.77,-2.28 -0.64,0.69 -0.81,2.07 -1.77,2.28 z m -1.82,66.34 c 4.1,-0.43 -8.28,-6.82 -5.37,-3.47 1.66,1.15 3.51,2.89 5.37,3.47 z m 10.82,-0.96 c 5.31,-0.76 -3.52,-1.4 0,0 z m -53.55,-0.65 c 1.2,-2.49 -5.42,-6.28 -1.67,-1.23 0.19,0.79 1.1,0.87 1.67,1.23 z m 0.85,-2.72 c -0,-3.3 -7.11,-8.24 -2.08,-1.65 0.13,-0.19 2.47,3.6 2.08,1.65 z m 31.75,-0.18 c 1.99,0.44 1.33,-5.47 -0.69,-4.15 -0.92,0.86 -0.3,6.42 0.69,4.15 z m -5.45,-1.66 c 0.73,-1.54 -2.3,-1.51 0,0 l 0,0 z m -25.66,-0.32 c 2.09,-1.32 -3.39,-8.03 -4.47,-6.95 0.21,2.55 2.57,5.61 4.47,6.95 z m -5.17,-1.23 c 0.12,-5.67 -4.31,-2.86 -0.27,0.24 0.1,0.54 0.59,-0.32 0.27,-0.24 z m 6.44,-1.7 c 1.92,-1.16 -5.45,-8.55 -3.14,-3.82 0.93,1.13 1.64,3.45 3.14,3.82 z m 32,-0.18 c 1.19,-2.37 0.46,-11.76 -0.58,-3.11 1.13,3.35 -3.67,1.99 0.58,3.11 z m -30.25,-2.02 c 0.86,-1.57 -4.2,-7.65 -3.92,-3.89 1,1.28 2.38,4 3.92,3.89 z m 0.84,-2.72 c 0.5,-4.27 -6.45,-6.58 -1.19,-0.93 0.4,0.28 0.59,1.12 1.19,0.93 z m 26.11,-0.41 c 1.7,-2.5 -1.34,-8.37 -1.55,-1.61 0.47,0.4 0.9,2.09 1.55,1.61 z m -24.97,-1.52 c 1.25,-1.69 -3.15,-1.95 0,0 z m 29.25,-0.97 c 2.63,-1.65 -2.66,-2.5 0,0 z m -30.39,-3.28 c 5.64,0.13 0,-5.73 3,-5.46 0.15,-2.17 -4.57,-0.35 -2.68,1.94 3.1,3.25 -3.12,0.41 -0.28,3.43 l 0,0 -0.1,0.1 z m 9.07,-1.34 c 2.71,-2.44 -1.79,-0.8 0,0 z m -10.11,-3.59 c 3,-2.36 -5.67,-4.63 -1.59,-1.38 0.42,0.3 1.49,1.75 1.59,1.38 z m 4.79,-2.2 c -0.1,-2.82 -4.35,-0.11 0,0 z m -2.03,-3.53 c 2.01,-2.49 -1.93,-1.7 0,0 z m 53.49,-2.83 c 1.93,0.95 3.38,-3.71 1.04,-3.51 -0.45,1 -3.53,4.38 -1.04,3.51 z m -90.53,-14.06 c -2.6,-0.77 1.05,-9.53 -3.85,-5.6 -0,2.15 0.8,5.4 3.85,5.6 z m -4.69,-2.11 c 0.76,-5.43 -3.33,0 0,-0.1 l 0,0.1 z m 8.42,-3.38 c 1.71,-1.69 -4.45,-8.63 -3.4,-3.98 -0.1,2.3 1.49,3.22 3.4,3.98 z m -23.71,-7.77 c 6.14,-0.29 -5.82,-1.21 -0.38,-0.16 l 0.38,0 0,0.16 z M 110,134.73 c 3.64,-1.04 -8.05,-3.79 -1.68,-0.16 l 1.68,0.21 0,-0.1 z m 9.55,-13.9 c 1.8,-1.44 4.18,-3.18 6.24,-4.52 -0.51,-1.54 -7.57,3.92 -6.24,4.52 z m -1.91,-2.31 c 1.86,-2.46 2.72,-7.08 4.53,-10.14 2.73,-4.78 -6.9,-0.16 -4.44,1.51 3.68,-4.02 0.1,1.52 -1.52,2.98 -3.17,6.51 3.2,-2.3 1.63,1.64 -0.67,1.51 -2.97,5.72 -0.2,4.01 z m -7.28,-7.16 c 2.44,-0.23 1.41,0.4 2.41,-2.93 2.3,-0.43 10.3,-2.72 4.55,-2.62 -3.01,-0.55 -9.6,5.61 -7,5.55 l 0,0 z m -2.27,-0.91 c 1.6,-2.67 5.21,-3.77 6.78,-6.42 -3.41,-6.219 -6.14,-12.547 -10.48,-18.279 -3.45,-5.375 -6.506,-11.153 -10.061,-16.365 -3.914,-1.264 -4.807,-6.297 -6.101,-8.535 -0.879,1.746 -4.992,3.448 -2.225,5.256 3.97,1.103 5.606,5.698 -0.21,2.21 -2.981,-1.822 -3.25,4.565 0.235,2.883 2.512,-1.173 6.583,3.187 1.969,1.848 -3.957,0.416 0.06,4.932 2.791,3.021 2.371,0.431 -1.296,5.772 1.63,5.644 3.149,-1.501 -0.268,5.679 2.559,4.978 3.42,-2.069 -0.479,8.479 2.701,5.696 1.698,-0.709 0.735,4.421 2.922,3.933 -0.12,2.986 2.15,3.68 0.98,6.69 4.55,-4.617 -1.15,4.77 4.88,-1.1 0.2,1.32 -4.65,6.64 -0.12,2.21 2.78,0.21 -3.7,4.73 1.84,1.65 -3.57,5.35 0.11,2.12 2.16,1.22 -0.91,0.58 -2.3,4.35 -2.25,3.46 z m 6.74,0 c 5.6,-3.52 -4.63,-1.52 0,0 z m 11.43,-4.22 c 1.69,-2.46 6.45,-3.27 10.5,-3.69 -0.8,-2.625 -4.44,0.79 -6.82,0.23 -0.52,0.42 -5.95,2.56 -3.68,3.46 z m 40.86,-3.24 c 1.25,-2.79 -1.63,-1.32 0,0 z m 1.75,-1.95 c 3.37,-1.853 2.27,-11.838 -1.68,-9.068 3.85,2.988 0.81,6.441 1.68,9.068 z M 96.008,96.841 C 94.99,93.975 93.556,88.663 90.788,85.968 89.534,83.663 88.249,81.035 87.5,78.767 c -1.342,-2.219 -7.437,-1.516 -4.765,1.16 -1.62,3.508 2.511,4.072 4.308,6.151 3.472,3.182 5.844,7.411 8.965,10.763 z m 49.622,-1.407 c 2.67,-0.334 -2.97,-4.262 -5.57,-2.542 -5.92,1.798 4.45,1.846 5.57,2.542 z m -72.789,-1.19 c 2.178,-1.511 -1.913,-0.523 0,0 z m 99.529,-0.397 c 2.82,-0.86 -1.61,-3.038 -1.03,-5.65 -2.95,-2.467 -0.97,4.635 0.31,5.849 -0.23,-0.05 1.39,-0.174 0.72,-0.199 z m -15.65,-0.252 c 2.5,0.26 3.67,-5.932 0.84,-4.526 -3.49,1.191 -10.03,0.972 -14.64,-1.028 3.32,-0.357 9.07,2.13 12.64,-0.234 5.04,-0.806 -2.15,-8.426 3.75,-5.211 2.2,3.414 1.06,7.409 0.49,11.089 3.52,-0.684 0.96,-3.179 2.38,-5.535 1.07,2.11 3.54,-0.108 5.86,-0.255 -2.14,-3.466 1.35,-2.467 1.39,-4.365 -3.3,-5.501 3.76,1.342 5.39,-0.988 -0.89,-2.53 -3.85,-2.631 -5.75,-3.282 -0.71,-3.115 4.51,-0.979 6.27,-1.275 -2.63,-2.837 4.11,-0.718 4.43,-2.137 -0.12,-1.411 7.66,-1.885 8.86,-6.018 -0.26,-1.653 -6.01,-0.26 -8.42,-0.721 2.32,0.396 5.79,2.947 0.83,3.374 0.18,3.597 -8.98,-1.678 -5.99,1.62 2.39,3.2 -4.71,-1.321 -5.37,-2.109 4.2,0.398 4.04,-7.231 7.63,-4.147 3.97,0.544 7.91,-1.251 11.72,-1.154 0.54,4.218 7.12,-3.54 3.53,-2.718 -6.62,0.965 -13.57,-0.324 -19.96,1.978 -0.18,2.881 -7.93,3.174 -4.83,1.227 4.11,-2.587 -3.97,-1.057 -4.01,-3.837 -3.85,-2.684 -8.97,1.766 -13.49,1.115 -7.22,1.503 -14.7,2.203 -21.87,3.986 -3.31,1.622 6.4,0.508 7.09,0.01 3.52,1.393 -1.86,1.832 -3.6,1.481 -6.1,-0.562 -1.31,6.42 2.58,5.806 6.73,2.605 15.53,-0.576 20.71,5.709 2.76,2.397 -0.21,6.284 -3.37,5.849 -6.01,-0.208 -12.25,-0.435 -18.1,-1.429 -5.42,-3.085 -2.15,4.661 2.62,2.405 3.98,1.045 8.29,1.142 11.69,3.712 4.08,-1.257 3.69,0.9 7.43,0.824 4.85,-2.907 0.11,1.475 1.27,0.781 z m -0.56,-15.921 c -4.85,0.105 -6.41,-5.905 -10.55,-5.806 -3.36,-0.22 -0.83,-2.825 1.03,-1.552 1.46,-0.229 4.06,1.196 6.23,3.61 1,2.259 9.38,-1.201 2.11,1.53 -1.72,0.377 3.95,1.576 1.18,2.218 z m -0.67,-3.859 c -2.79,-1.004 -6.88,-5.843 -5.48,-7.447 4.34,-1.918 8.2,-0.494 2.03,0.617 0.55,2.232 7.16,0.596 9.84,2.366 1.98,-1.097 2.23,1.401 3.24,2.002 -0.7,5.691 -5.56,-4.068 -5.9,1.128 -1.2,0.527 -2.48,1.228 -3.73,1.334 z m -0.92,-2.56 c 3.93,-3.358 -3.51,-0.797 0,0 z m -12.86,-0.668 c -3,-1.256 2.64,-1.199 0,0 z m 22.33,21.836 c 2.75,-4.84 -2.39,0.166 0,0 z m 8.98,-4.67 c 2.53,-0.3 -1.38,-6.251 -2.05,-2.234 -0.35,0.801 1.06,2.57 2.05,2.234 z M 69.791,87.248 c 1.04,-1.861 -1.931,0 0,0 z m 80.129,-1.442 c 8.3,0.19 -0.57,-4.558 -4.83,-3.697 -5.69,-1.041 -9.09,-1.094 -14.04,-2.736 -3.51,-0.428 -7.69,-0.982 -10.76,0.987 1.26,2.071 6.2,-0.07 8.72,1.538 2.42,-0.07 4.48,3.833 6.22,0.851 2.08,-1.386 3.8,2.589 6.35,2.251 2.79,0.163 5.7,1.125 8.34,0.806 z M 80.121,82.542 c 4.375,-3.849 -6.551,-2.328 0,0 z M 147.2,80.919 c 4.34,-1.576 -5.46,-1.165 0,0 z m -10.97,-1.911 c 1.53,-1.346 -1.9,-0.754 0,0 z m 5.48,0 c 2.57,-0.917 -3.13,-0.703 0,0 z M 83.981,76.087 c 5.766,-1.871 -4.408,-1.208 0,0 z m 94.539,-3.246 c 2.06,-1.761 -6.96,-3.782 -0.71,0 l 0.52,0 0.19,0 0,0 z M 94.128,66.368 c 2.093,-1.526 -0.494,-5.447 -2.98,-5.319 -1.307,2.023 0.788,5.267 2.98,5.319 z m 73.982,-2.921 c 3.68,-1.028 -2.33,-1.733 0,0 z m 0.52,-1.46 c 6.29,1.712 5.01,-7.898 -0.68,-2.453 -5.92,1.699 -4.29,-0.189 -0.13,-1.137 1.22,-0.403 -4.28,-0.974 1.43,-1.639 4.54,-0.946 8.09,-5.983 0.47,-2.723 -4.22,0.512 -10.56,2.186 -10.5,7.158 3.36,-0.456 6.81,-0.476 10.33,-0.414 -1.85,0.273 -5.28,2.131 -0.92,1.208 z m 1.88,-1.461 c -2.52,-0.577 2.4,-1.125 0,0 z m -85.682,0 c 0.225,-1.07 -3.048,-0.453 0,0.04 l 0,-0.04 z m 8.52,-1.551 c -0.326,-3.983 -1.283,1.261 0,0 z"/></g>
</svg>
