<?xml version="1.0" standalone="no"?>
<!DOCTYPE svg PUBLIC "-//W3C//DTD SVG 1.1//EN" "http://www.w3.org/Graphics/SVG/1.1/DTD/svg11.dtd" >
<svg xmlns="http://www.w3.org/2000/svg">
<metadata>
This is a custom SVG webfont generated by Font Squirrel.
Copyright   : Kevin King Kingthings 2003
Designer    : Kevin King April 2003
</metadata>
<defs>
<font id="KingthingsCalligraphicaLight" horiz-adv-x="806" >
<font-face units-per-em="2048" ascent="1638" descent="-410" />
<missing-glyph horiz-adv-x="372" />
<glyph unicode=" "  horiz-adv-x="372" />
<glyph unicode="&#x09;" horiz-adv-x="372" />
<glyph unicode="&#xa0;" horiz-adv-x="372" />
<glyph unicode="!" horiz-adv-x="365" d="M112 1164l2 -978l145 166l1 968zM124 85l1 -236l135 128v240z" />
<glyph unicode="&#x22;" horiz-adv-x="419" d="M26 1099q0 -64 27.5 -100t61.5 -39l105 112q-80 51 -80 128q0 83 75 128l-21 22q-107 -90 -137.5 -138.5t-30.5 -112.5zM226 1099q0 -64 27.5 -100t61.5 -39l105 112q-80 51 -80 128q0 83 75 128l-21 22q-107 -90 -137.5 -138.5t-30.5 -112.5z" />
<glyph unicode="#" horiz-adv-x="922" d="M4 244h189l-79 -309l121 30l71 279h192l-78 -304l120 30l70 274h170l52 107h-195l60 237h167l53 107h-193l77 302l-119 -36l-68 -266l-194 -1l75 298l-119 -36l-67 -262h-163l-57 -106h193l-61 -238h-160zM333 350l60 238h193l-61 -237z" />
<glyph unicode="$" horiz-adv-x="880" d="M37 393q-6 -19 -6 -41q0 -63 53 -141q71 -105 162 -160q82 -49 177 -58v-238l70 69v169q86 12 166 85q101 91 159 206q45 89 45 157q0 19 -3 37q-17 80 -98 156q-74 68 -270 150l-1 386q55 -18 98 -54q34 -29 34 -64q0 -50 -65 -113l25 -23l192 237q-46 94 -131 140 q-43 24 -100 24q-25 0 -53 -5v235l-67 -77v-174q-133 -43 -203 -146q-71 -105 -85 -216q-2 -18 -2 -35q0 -91 63 -163q64 -73 226 -141v-437q-50 19 -103 54q-121 82 -149 160q-8 21 -8 46q0 67 56 160l-14 18zM242 1042q21 145 139 145h5q19 0 38 -3v-371q-184 81 -184 204 q0 12 2 25zM492 569q208 -79 244 -184q14 -41 14 -76q0 -57 -37 -100q-59 -70 -165 -74h-9q-23 0 -46 4z" />
<glyph unicode="%" horiz-adv-x="851" d="M32 656q-1 -14 -1 -28q0 -82 57 -150q68 -80 118 -86q8 -1 15 -1q42 0 74 30q39 35 89 122q43 74 43 140q0 12 -1 24q-9 77 -63 130.5t-95 62.5q-17 4 -31 4q-22 0 -39 -9q-29 -14 -91.5 -77t-74.5 -162zM92 734q12 76 77 88q10 2 19 2q55 0 108 -61q62 -72 69 -137 q1 -11 1 -21q0 -52 -28 -90q-31 -44 -79 -44h-3q-50 2 -112 94q-53 79 -53 145q0 12 1 24zM176 -111l40 -83l469 1226l-34 87zM442 256q-1 -14 -1 -28q0 -82 57 -150q68 -80 118 -86q8 -1 15 -1q42 0 75 30q38 35 89 122q42 74 42 140q0 12 -1 24q-9 77 -63 130.5t-95 62.5 q-17 4 -31 4q-22 0 -39 -9q-29 -14 -91.5 -77t-74.5 -162zM503 334q11 76 76 88q10 2 19 2q55 0 108 -61q62 -72 69 -137q1 -11 1 -21q0 -52 -27 -90q-32 -44 -80 -44h-3q-50 2 -112 94q-53 79 -53 145q0 12 2 24z" />
<glyph unicode="&#x26;" horiz-adv-x="1168" d="M36 231q61 -202 268 -247q28 -6 56 -6q174 0 322 243q187 -168 288 -229l180 289l-26 24l-76 -102q-97 45 -251 184l352 490l-19 29l-307 1l-203 -199l29 -26q53 79 213 79q58 0 130 -10l-237 -321q-173 154 -305 318t-164 253q-15 43 -15 78q0 39 18 69q31 52 91 52 q7 0 15 -1q71 -7 129 -52t73 -166q1 -16 1 -31q0 -99 -83 -159l27 -39l180 239q27 68 27 123q0 67 -39 114q-70 83 -194 83h-7q-129 -3 -269 -143q-85 -86 -85 -200q0 -73 35 -157l96 -150q-260 -191 -260 -363q0 -34 10 -67zM181 342q-6 23 -6 46q0 114 139 239 q140 -182 325 -365q-110 -128 -214 -128q-36 0 -71 15q-138 58 -173 193z" />
<glyph unicode="'" horiz-adv-x="232" d="M36 1288q82 -52 80 -132t-75 -124l21 -22q107 90 137.5 138.5t30.5 112.5t-27.5 100t-61.5 39z" />
<glyph unicode="(" horiz-adv-x="441" d="M27.5 727.5q-45.5 -409.5 69.5 -686.5t311 -391l76 174q-147 65 -249.5 273.5t-113.5 475t43 460t204 443.5l-24 26q-271 -365 -316.5 -774.5z" />
<glyph unicode=")" horiz-adv-x="467" d="M14 1328q147 -65 249.5 -273.5t113.5 -474.5q2 -46 2 -89q0 -211 -45 -371q-54 -194 -204 -444l24 -26q271 365 316 774q13 117 13 222q0 267 -82 465q-115 277 -311 391z" />
<glyph unicode="*" horiz-adv-x="422" d="M1 1129l129 12l-80 -72l20 -103l101 125l-9 -132l82 -42l-12 176l106 -131l20 99l-84 80l108 -1l37 89l-151 -19l73 83l-19 81l-89 -108l9 155l-73 -45l4 -113l-87 115l-22 -80l71 -88h-99z" />
<glyph unicode="+" horiz-adv-x="795" d="M28 468l308 2v-394l121 172v222h185l142 130h-331l1 316l-110 -148v-171h-190z" />
<glyph unicode="," horiz-adv-x="218" d="M16 138q82 -52 80 -132t-75 -124l21 -22q107 90 137.5 138.5t30.5 112.5t-27.5 100t-61.5 39z" />
<glyph unicode="-" horiz-adv-x="775" d="M26 369l16 -13q44 60 170 62h413h3q130 0 232 157l-10 16q-52 -41 -192 -41h-32h-348q-165 -13 -252 -181z" />
<glyph unicode="." horiz-adv-x="266" d="M23 133q107 -40 107 -166l130 110q4 124 -117 181z" />
<glyph unicode="/" horiz-adv-x="507" d="M-10 -242l74 -97l414 1665l-68 103z" />
<glyph unicode="0" horiz-adv-x="809" d="M24 461q-4 -25 -4 -50q0 -147 112 -269q132 -142 230 -153q15 -2 29 -2q80 0 144 54q75 63 173 218q82 131 82 251q0 21 -2 42q-18 138 -123 233.5t-185 111.5q-31 6 -58 6q-43 0 -76 -15q-56 -25 -178 -137.5t-144 -289.5zM130 587q33 149 164 181q24 6 48 6 q107 0 215 -116q129 -138 129 -249v-5q-4 -113 -54.5 -195t-160.5 -82l-1 -1q-110 0 -242 156q-105 124 -105 244q0 31 7 61z" />
<glyph unicode="1" horiz-adv-x="410" d="M9 15l14 -19h233l159 98l-16 24q-127 0 -244 -1q129 80 140 179v608l-14 18l-250 -237l19 -45l101 86v-419q1 -10 1 -19q0 -133 -143 -273z" />
<glyph unicode="2" horiz-adv-x="655" d="M10 584q9 -95 71 -151l172 157l-13 16q-23 -14 -41 -14q-34 0 -48 50q-8 28 -8 52q0 46 27 83q41 57 113 57h2q73 -1 145 -151q31 -65 31 -125q0 -78 -54 -149l-390 -383l23 -26h525l114 201l-25 14l-45 -76l-408 2q314 305 381 445q26 57 26 109q0 76 -58 141 q-71 78 -166 78q-37 0 -77 -12q-145 -42 -225 -132q-73 -81 -73 -166q0 -10 1 -20z" />
<glyph unicode="3" horiz-adv-x="699" d="M-28 708l24 -24q67 68 176 68q22 0 45 -3l261 -1l-360 -427l30 -27q85 85 166 85q80 0 156 -82q61 -67 61 -150q0 -122 -134 -278l-242 -250l38 -25q334 323 418 444q61 88 61 198q0 41 -8 86q-31 163 -276 217l262 340l-15 21l-459 1z" />
<glyph unicode="4" horiz-adv-x="887" d="M-31 16l26 -19l454 2q26 -323 -74 -355l19 -36q153 128 192 221l2 171h126q115 94 203 287l-37 7q-61 -131 -166 -141l-130 6v600l-132 -289v-304l-319 -2q528 756 496 1138l-187 -135q144 -244 -473 -1151z" />
<glyph unicode="5" horiz-adv-x="578" d="M-12 269l19 -26q74 133 214 136.5t204 -89t41.5 -197t-147.5 -280.5l-148 -210l32 -15q275 337 320.5 430t56.5 203t-51 200.5t-133 113.5t-132 21t-146 -53l64 238h320l91 142l-8 19h-411z" />
<glyph unicode="6" horiz-adv-x="801" d="M25 368q29 -155 161 -280q98 -93 194 -93q33 0 66 11q128 44 247 200q101 130 101 262q0 25 -4 50q-23 158 -138 244q-87 65 -174 65l-58 -7q-115 -29 -277 -254q-1 18 -1 36q0 199 92 331q101 144 182 173q38 12 78 12q49 0 103 -18l108 206q-264 -84 -375 -188 t-179.5 -213.5t-111.5 -244.5q-25 -82 -25 -170q0 -59 11 -122zM160 497q98 187 224 199q9 1 17 1q116 0 202 -156q66 -118 66 -216q0 -41 -11 -79q-39 -128 -168 -129q-267 75 -330 380z" />
<glyph unicode="7" horiz-adv-x="602" d="M-70 687l35 -6q55 68 121 67l386 -2l-242 -518q-102 -208 -98.5 -318t41.5 -180.5t119 -134.5l120 138q-236 203 -130 470l317 679l-20 22l-476 2z" />
<glyph unicode="8" horiz-adv-x="691" d="M29 198q34 -108 135 -159q97 -49 174 -49h5q79 2 140 54t125 131t66 145q1 4 1 7q0 63 -48 121q-50 62 -230.5 104t-216.5 116q-11 24 -11 45q0 48 55 87q31 22 73 22q65 0 155 -53q70 -42 70 -91q0 -54 -87 -118l42 -10q128 118 133 191v8q0 68 -77 119q-63 43 -129 43 q-18 0 -37 -3q-84 -15 -146 -57.5t-96 -85t-48 -119.5q-3 -15 -3 -30q0 -59 44 -108q55 -62 220 -104t214 -88q33 -31 33 -67q0 -18 -9 -38q-24 -58 -74 -79q-39 -17 -94 -17q-13 0 -27 1q-71 5 -143.5 42.5t-109.5 115.5q-9 20 -9 40q0 60 83 124l-35 18 q-144 -125 -144 -221q0 -19 6 -37z" />
<glyph unicode="9" horiz-adv-x="822" d="M36 388q23 -158 138 -244q87 -65 174 -65l58 7q115 29 274 289v-18q0 -248 -80 -378q-82 -135 -183 -186q-74 -37 -154 -37q-30 0 -61 5l-81 -161q264 84 375 188t179.5 213.5t111.5 244.5q25 82 25 170q0 59 -11 122q-29 155 -161 280q-98 93 -194 93q-33 0 -66 -11 q-128 -44 -247 -200q-101 -130 -101 -262q0 -25 4 -50zM152 602q28 132 151 207h4q240 0 365 -394q-107 -166 -240 -188q-18 -3 -36 -3q-108 0 -183 113q-67 100 -67 201q0 32 6 64z" />
<glyph unicode=":" horiz-adv-x="287" d="M23 133q107 -40 107 -166l130 110v8q0 118 -117 173zM23 543q107 -40 107 -166l130 110v8q0 118 -117 173z" />
<glyph unicode=";" horiz-adv-x="282" d="M23 543q107 -40 107 -166l130 110v8q0 118 -117 173zM46 138q80 -51 80 -128q0 -83 -75 -128l21 -22q107 90 137.5 138.5t30.5 112.5t-27.5 100t-61.5 39z" />
<glyph unicode="&#x3c;" horiz-adv-x="466" d="M6 499q208 -111 377 -292l70 110q-155 169 -322 252l297 265l-29 47l-392 -347z" />
<glyph unicode="=" horiz-adv-x="752" d="M36 329l14 -13q37 60 144 62h352h3q110 0 197 157l-9 16q-44 -41 -163 -41h-27h-296q-141 -13 -215 -181zM36 519l14 -13q37 60 144 62h352h3q110 0 197 157l-9 16q-44 -41 -163 -41h-27h-296q-141 -13 -215 -181z" />
<glyph unicode="&#x3e;" horiz-adv-x="469" d="M7 771q155 -169 322 -252l-297 -265l29 -47l392 347l1 35q-208 111 -377 292z" />
<glyph unicode="?" horiz-adv-x="794" d="M43 802l157 83q-57 100 -57 188q0 58 25 111q51 109 169 109q25 0 54 -5q161 -29 215 -198q26 -80 26 -150q0 -80 -33 -148q-62 -127 -265 -224l-1 -381l148 119v298q269 193 291 410q2 24 2 46q0 182 -164 268q-74 39 -159 39q-127 0 -279 -86q-170 -97 -170 -279 q0 -90 41 -200zM329 83l1 -236l155 148v233z" />
<glyph unicode="@" horiz-adv-x="1274" d="M40 532q-10 -51 -10 -103q0 -89 31 -179q50 -140 187 -254q120 -100 201 -100q12 0 24 3q87 17 327 262l-46 26q-104 -129 -218 -129q-70 0 -144 49q-195 127 -220 326q-6 51 -6 99q0 136 52 243q70 144 227 214q132 58 254 58q23 0 45 -2q143 -13 249 -102.5t121 -275.5 q2 -27 2 -51q0 -146 -77 -211q-45 -38 -87 -38t-81 37q-51 50 -51 261q0 107 13 254l-271 3q-213 -168 -242 -332q-6 -38 -6 -74q0 -115 71 -198q73 -83 130 -83q17 0 33 7q69 32 182 138q60 -127 142 -135q337 172 374 365q13 61 13 118q0 121 -55 221q-79 147 -245 201 q-95 32 -186 32q-65 0 -128 -16q-149 -40 -257.5 -125t-213.5 -226t-134 -283zM441 473q-18 54 -18 110q0 104 64 212l221 2q-14 -136 -14 -228q0 -112 21 -160q-83 -35 -142 -35q-99 0 -132 99z" />
<glyph unicode="A" horiz-adv-x="1173" d="M-49 -1l260 1l150 148l-265 -1q168 121 235 341h296l95 110l197 -463q59 -130 202 -141l97 270l-30 16l-38 -91q-6 -1 -12 -1q-46 0 -93 90l-422 1016q-13 28 -13 56q0 50 42 99l-25 23q-123 -153 -136 -239q-2 -16 -2 -32q0 -72 47 -149q-57 -23 -78 -84l-147 -337h-146 l-120 -169l27 -26l39 52h136q-61 -191 -296 -489zM386 626l170 378l158 -378h-328z" />
<glyph unicode="B" horiz-adv-x="1030" d="M-44 1089l27 -12l63 76l218 -1l-85 -123q5 -241 5 -416q0 -459 -36 -459l-103 -131l16 -24l538 -1q88 68 247 243q151 129 151 262v11q-5 138 -101 202q-94 64 -243 64h-5q181 118 181 306q0 186 -261 219l-445 1zM213 169l117 181v288l266 -1q16 1 30 1q148 0 197 -91 q29 -54 29 -110q0 -47 -21 -96q-46 -105 -110 -172h-508zM327 1152q73 7 130 7q154 0 198 -49q48 -54 49 -125q0 -18 -3 -36q-15 -94 -123 -164l-249 3z" />
<glyph unicode="C" horiz-adv-x="944" d="M36 531q40 -147 207.5 -327.5t385.5 -215.5l246 264l-30 19l-106 -106q-22 -8 -46 -8q-85 0 -208 91q-158 117 -254 285q-55 95 -54 212q0 89 31 190q103 177 242 228q47 17 93 17q88 0 169 -64q72 -58 72 -102q0 -31 -36 -54l-57 -58l30 -16q207 172 212 221v6 q0 47 -75 116q-80 71 -150 81q-32 4 -62 5q-36 0 -66 -6q-58 -11 -200.5 -126t-206 -195t-120.5 -195q-33 -67 -33 -145q0 -56 16 -117z" />
<glyph unicode="D" horiz-adv-x="1128" d="M15 18l9 -23h519h7q97 0 159 58l131 127q68 68 178 208q90 114 91 282q0 38 -5 80q-26 222 -208 396q-168 160 -447 160q-24 0 -49 -1l-224 -7l-154 -220l34 -14l57 83h228q-133 -178 -139 -268l-2 -576v-6q0 -74 -185 -279zM203 156q144 151 160 297l4 552q-1 17 -1 32 q0 109 69 116q23 2 45 2q161 0 283 -101q138 -115 182 -319q19 -86 19 -162q0 -103 -35 -184q-60 -142 -184 -231z" />
<glyph unicode="E" horiz-adv-x="918" d="M-8 1032l34 -14q60 112 132 112l153 3q-109 -95 -119 -203l-1 -140l-141 -199l29 -16q77 88 113 82l-2 -355q8 -71 -147 -307l670 1l185 269l-30 23q-63 -131 -146 -130l-524 1q96 71 155 212l1 283h137l173 142l-16 24l-288 1v317l343 -2l180 145l-6 20l-711 -1z" />
<glyph unicode="F" horiz-adv-x="836" d="M-8 1032l34 -14q58 108 132 122l143 -1q-81 -75 -109 -209l1 -129l-143 -170l15 -22q64 66 126 61l-1 -385q-3 -140 -168 -287l18 -25q43 42 323 23l165 151l-330 2q80 43 143 182l3 338h147l173 127l-16 24l-298 1v323l423 1l180 136l-6 20l-781 -1z" />
<glyph unicode="G" horiz-adv-x="1036" d="M30 523q22 -165 177.5 -347.5t388.5 -187.5l165 118l1 -114l29 -12l131 163q-6 125 -6 217q0 216 33 246l83 137l-16 25l-348 1l-153 -209l26 -12q31 56 123 64l221 2q-121 -68 -121 -213q0 -11 1 -21v-196q-52 -58 -125 -58t-165 56q-186 115 -270 310q-41 94 -41 196 q0 110 48 229q91 229 312 269q248 -10 248 -159q0 -11 -2 -24l-82 -89l23 -16q192 174 197 223v7q0 48 -70 116q-73 73 -183 73l-1 -1q-110 0 -263 -126t-215 -198.5t-115 -187.5q-37 -82 -37 -188q0 -45 6 -93z" />
<glyph unicode="H" horiz-adv-x="1216" d="M0 551l15 -22q103 83 206 91l-1 -365v-7q0 -85 -175 -281l25 -4q47 34 255 34q32 0 68 -1l165 151l-330 2q120 43 153 252l3 223h407l81 66l-2 -405v-10q0 -113 -175 -308l25 -4q47 34 255 34q32 0 68 -1l165 151l-330 2q120 43 153 222l2 775l190 135l-6 20l-371 -2 l-174 -227l34 -14q32 69 102 82l173 -1q-90 -80 -107 -224l-1 -134h-483v363l3 2l180 135l-6 20l-371 -2l-174 -227l34 -14q32 69 102 82l183 -1q-99 -79 -120 -229v-150l-47 -2z" />
<glyph unicode="I" horiz-adv-x="557" d="M12 1082l34 -14q32 69 102 72l163 -1q-105 -99 -110 -249l-1 -545l1 -122q-27 -106 -166 -256l25 -4q54 39 323 33l165 151l-24 18q-49 -35 -306 -26q100 113 143 262l9 743l3 2l190 135l-6 20l-371 -2z" />
<glyph unicode="J" horiz-adv-x="1033" d="M32 262q82 -151 219 -233q77 -44 145 -44q88 0 160 74q191 136 253 396v695l188 1l166 153h-862l-187 -257l25 -14q89 111 175 111h3h438q-103 -86 -110 -195v-485v-9q0 -232 -53 -302q-27 -36 -81 -36t-136 37q-227 131 -227 264q0 87 97 175l-17 23l-109 -102 q-91 -80 -91 -199q0 -25 4 -53z" />
<glyph unicode="K" horiz-adv-x="1048" d="M-8 1086l34 -14q32 69 102 72l153 -1q-69 -69 -100 -229l-1 -568l1 -152q-27 -76 -166 -227l25 -4q54 39 323 33l177 185l-24 18q-64 -87 -288 -49q86 140 101 253l1 199q17 28 86.5 32.5t164.5 -106t191.5 -296.5t192.5 -242l168 179l-25 24q-60 -78 -89 -22 q-49 34 -148 219t-203.5 280t-190.5 91l536 523l4 20h-324l-188 -198l15 -17q73 63 128 64l165 1l-481 -462l1 458l170 136l-6 17l-331 1z" />
<glyph unicode="L" horiz-adv-x="758" d="M2 1086l34 -14q52 75 140 72l119 -1q-73 -69 -104 -229l-1 -678q-36 -115 -175 -265l23 -16q42 45 194 45h481l165 211l-24 18q-46 -67 -166 -65l-480 -1q122 128 134 242l5 735l206 145l-6 20l-371 -2z" />
<glyph unicode="M" horiz-adv-x="1406" d="M13 1101l12 -21q71 62 130 62q60 0 107 -65q-98 -88 -101 -189v-552q2 -23 2 -45q0 -174 -146 -303l13 -25q45 33 245 33q36 0 77 -1l161 157l-25 17q-38 -27 -200 -27q-43 0 -95 2q106 77 119 247l-2 630l300 -434q42 -47 42 -99q0 -42 -27 -88l19 -17l98 120 q43 47 43 97q0 65 -75 133l331 374v-771q-17 -208 -176 -369l25 -4q45 33 245 33q36 0 77 -1l161 157l-25 17q-38 -27 -200 -27q-43 0 -95 2q115 89 138 247l-2 786q-2 19 -2 33q0 34 14 34q33 0 142 -172l106 148q-47 34 -125 69q-48 21 -98 21q-31 0 -62 -8 q-83 -21 -151 -129l-334 -382q-341 514 -416 514h-5q-69 -16 -245 -204z" />
<glyph unicode="N" horiz-adv-x="1138" d="M-15 1071l32 -21q91 99 159 99q58 0 99 -72q-120 -141 -114 -189v-641q-30 -134 -160 -266l19 -18q45 33 252 33q37 0 80 -1l161 157l-24 17q-38 -27 -213 -27q-46 0 -103 2q59 71 132 137l-5 765l519 -820q1 -11 1 -21q0 -102 -121 -193l20 -21q18 10 154 10 q63 0 152 -2l151 181l-24 18q-68 -44 -179 -44q41 51 42 142l2 861l3 2l176 125l-7 20l-371 -2l-168 -207l34 -14q31 69 102 71l192 1l-105 -118l-1 -620q-505 885 -593 885h-3q-84 -11 -291 -229z" />
<glyph unicode="O" horiz-adv-x="1047" d="M44 675q-4 -39 -4 -78q0 -211 134 -385q159 -206 285 -222q19 -2 37 -2q104 0 192 78q102 92 226 316q105 191 106 364q0 31 -4 61q-22 200 -155.5 338t-235.5 161q-40 9 -75 9q-56 0 -98 -22q-70 -36 -225 -199t-183 -419zM175 883q45 207 211 269q42 16 84 16 q124 0 248 -139q166 -185 170 -432v-14q0 -237 -119 -353q-88 -86 -185 -86q-37 0 -75 13q-138 46 -259 283q-88 171 -88 327q0 59 13 116zM367 686q109 -19 115 -160l147 119v12q0 122 -120 166z" />
<glyph unicode="P" horiz-adv-x="954" d="M8 -4l14 -29q52 28 207 28q57 0 128 -4l172 170l-15 22q-48 -51 -195 -50q-53 0 -119 6q161 109 167 257v54q70 -18 131 -18q166 0 273 134q146 183 160 356l2 32q0 151 -121 255q-112 96 -235 97q-23 0 -46 -4l-346 2l-110 -122l-59 -72l24 -24l74 83h207 q-104 -73 -110 -285l-1 -605q-38 -184 -202 -283zM359 1172q32 2 61 2q245 0 325 -104q90 -117 94 -260v-8q0 -136 -122 -208q-53 -31 -114 -31q-83 0 -180 58l-60 -63z" />
<glyph unicode="Q" horiz-adv-x="1059" d="M44 675q29 256 183.5 419t224.5 199q44 22 98 22q35 0 75 -9q102 -23 235.5 -161.5t155.5 -337.5q3 -31 3 -61q0 -173 -105 -364q-60 -109 -113 -186l101 -259q49 -122 92 -172q18 -21 47 -21q39 0 99 40l11 -20q-152 -149 -213 -149q-8 0 -15 3q-55 23 -135 202 q-59 129 -102 237q-82 -72 -195 -72q-15 0 -31 1q-138 11 -291 222q-129 177 -129 387q0 39 4 80zM154 840q-7 -46 -7 -92q0 -187 123 -376q152 -236 291 -244q10 -1 20 -1q40 0 74 10l-1 1q-52 138 -93 164q-17 11 -35 11q-27 0 -58 -23l-12 15q116 118 181 118q13 0 25 -5 q62 -30 124 -185q77 108 98 347q2 28 2 55q0 213 -154 380q-130 139 -264 139q-46 0 -94 -16q-182 -66 -220 -298z" />
<glyph unicode="R" horiz-adv-x="1062" d="M2 1032l34 -14q52 110 132 122l103 -1q-108 -81 -110 -219l-1 -575l1 -122q-27 -106 -152 -230l11 -30q73 34 285 34q33 0 68 -1l165 181l-24 18q-26 -59 -231 -59q-48 0 -105 3q123 112 141 262l1 237h22q118 0 177 -20q63 -21 104.5 -89t85 -156.5t95 -203.5 t160.5 -177l179 176l-25 24q-38 -46 -67 -46q-20 0 -36 21q-47 66 -82 145l-75 172q-40 93 -105 154q-53 49 -129 49q-18 0 -38 -3q148 26 234 146q52 73 51 161q0 57 -21 119q-55 159 -224 181l-107 10l-343 -2zM318 708v435q58 4 106 4q151 0 209 -36q77 -47 88 -166 q1 -15 1 -30q0 -97 -64 -149q-72 -58 -323 -58h-17z" />
<glyph unicode="S" horiz-adv-x="887" d="M31 392q-6 -19 -6 -41q0 -63 53 -141q71 -105 162.5 -160.5t201.5 -60.5h10q104 0 201 87q101 91 159 206q45 90 45 158q0 18 -4 36q-16 80 -97 155.5t-311 167.5q-211 84 -211 216q0 12 2 24q21 145 139 145h4q123 -3 204 -71q34 -28 34 -63q0 -49 -65 -113l25 -24 l192 237q-46 94 -131 140q-44 24 -101 24q-53 0 -117 -20q-134 -42 -205 -147t-85 -216q-2 -17 -2 -34q0 -90 63 -163q75 -86 288.5 -165t249.5 -186q14 -41 14 -76q0 -57 -36 -100q-59 -69 -165 -74h-11q-101 0 -217 77q-122 81 -150 160q-8 21 -7 46q0 67 56 160l-14 18z " />
<glyph unicode="T" horiz-adv-x="1011" d="M-18 1096l34 -14q32 69 102 72l413 -1q-114 -104 -100 -280l-1 -527l1 -122q-77 -106 -216 -257l25 -4q54 39 323 33l165 152l-24 18q-49 -35 -276 -26q96 99 163 263l-1 749l292 1l191 133l-16 18h-901z" />
<glyph unicode="U" horiz-adv-x="1135" d="M3 1091l24 -14q49 72 173 72q35 0 76 -6q-220 -278 -220 -538q0 -94 29 -186q121 -271 381 -419q16 -3 33 -3q97 -1 211 107q123 118 123 132q0 1 -1 1q49 -189 166 -254l163 292l-23 12q-56 -82 -96 -82q-39 0 -62 80v865l45 1l140 134l-6 20l-371 -2l-164 -204l34 -14 q28 68 92 68l195 -1q-115 -93 -115 -292v-7v-515q-52 -96 -126 -156q-51 -41 -102 -41q-23 0 -46 8q-74 27 -170 131q-94 105 -146 236q-51 128 -51 295v7q1 171 153 348l154 140h-308l-8 -16z" />
<glyph unicode="V" horiz-adv-x="1108" d="M-82 978l32 -28q59 86 104 86q46 0 78 -89l369 -895q43 -59 98 -59q34 0 73 22q411 511 435 713q4 32 3 65q0 167 -104 333q-117 183 -235 184l-16 -1q-126 -14 -251.5 -123.5t-198.5 -188.5l-103 260q-17 49 -37 49q-21 0 -45 -53zM326 947q199 220 330 228h8 q126 0 235 -225q76 -157 76 -292q0 -64 -17 -123q-54 -183 -262 -388q-91 42 -370 800z" />
<glyph unicode="W" horiz-adv-x="1598" d="M-22 938l31 -29q63 104 116 104q43 0 79 -67l319 -834q44 -121 99 -121q43 0 93 74l173 203l-23 55l-120 -137h-1q-87 0 -334 733q110 134 183 134q66 0 103 -107l341 -865q31 -89 69 -89q37 0 80 83q360 452 382 653q4 32 3 64q-1 169 -101 333q-112 183 -223 184 q-8 0 -16 -1q-120 -14 -309 -283l22 -43q93 162 203 162h9q116 -8 207 -209q62 -137 62 -266q1 -60 -13 -119q-42 -184 -194 -313q-100 43 -332 709l-20 50l-102 261q-14 42 -37 42q-26 0 -64 -53l-272 -271l-105 282q-17 48 -38 48q-22 0 -48 -53z" />
<glyph unicode="X" horiz-adv-x="1008" d="M4 1025l19 -29q97 139 155 73l223 -403q-284 -259 -298.5 -396.5t46 -213t158.5 -61.5l174 254l-17 26q-124 -156 -220 -33t184 369l254 -486q90 -130 191 -130l136 207l-25 33q-84 -244 -418 492l419 534l-20 44l-311 -1l-134 -181l19 -25q52 84 288 62l-297 -383 l-239 469q-59 143 -165 -58z" />
<glyph unicode="Y" horiz-adv-x="885" d="M-2 1128l28 -27q33 48 63 48t56 -49l275 -375l1 -431q-7 -134 -199 -297l389 2l151 168l-31 23q-25 -61 -197 -61q-58 0 -132 7q169 164 183 302l-1 319l360 539l-16 7l-248 -2l-178 -164l17 -21q42 39 159 39q42 0 94 -5l-220 -331l-297 406q-42 84 -83 84 q-33 0 -65 -56z" />
<glyph unicode="Z" horiz-adv-x="921" d="M23 24l29 -32q75 125 203 125q74 0 166 -42q169 -77 250 -77q39 0 58 18q58 54 106.5 143t102.5 170l-30 23q-47 -101 -109 -149q-44 -34 -96 -33q-21 0 -43 5q-77 19 -395 116l638 984l-17 32l-612 -4l-204 -211l41 -17q37 66 176 66q22 0 47 -2h401z" />
<glyph unicode="[" horiz-adv-x="515" d="M73 -379l387 -1l110 122h-360v1754l249 1l120 145h-249l-256 -296z" />
<glyph unicode="\" horiz-adv-x="419" d="M-40 1326l98 103l420 -1671l-104 -97z" />
<glyph unicode="]" horiz-adv-x="570" d="M-10 -380l100 128h280v1764l-369 1l100 127h402v-1859l-178 -161h-335z" />
<glyph unicode="_" horiz-adv-x="976" d="M2 -406l21 -8q62 43 178 43h10h521q149 12 245 146l-12 10q-102 -54 -224 -54h-9h-438q-208 -8 -292 -137z" />
<glyph unicode="`" horiz-adv-x="395" d="M-6 1218q172 -187 260 -187q5 0 10 1l137 154q-14 -2 -29 -2q-115 0 -261 155z" />
<glyph unicode="a" d="M24 413q-1 -7 -1 -14q0 -103 107 -243q114 -149 176 -157q113 94 213 153q26 -93 137 -160l187 239l-23 13l-43 -47q-31 -30 -57 -30q-19 0 -36 17q-31 32 -31 103q0 17 2 36v481q3 73 54 97l-334 -1q-121 -73 -232 -226t-119 -261zM214 304q-54 87 -54 178 q0 136 121 280h311q-52 -19 -85 -118v-37v-399q-57 -43 -110 -43q-97 0 -183 139z" />
<glyph unicode="b" horiz-adv-x="729" d="M36 341q13 -114 39.5 -179t74.5 -108q48 -44 135 -62q5 -1 10 -1q88 0 291 291q114 174 114 313q0 36 -8 69q-36 162 -166 226q-27 13 -58 14q-116 0 -282 -190l2 402q-1 13 -1 25q0 151 114 249l-22 11q-124 -78 -180 -167t-63 -224v-669zM186 642q80 118 188 121h4 q106 -1 162 -187q18 -61 18 -119q0 -126 -82 -245q-50 -57 -110 -57q-34 0 -72 19q-103 51 -106 240z" />
<glyph unicode="c" horiz-adv-x="655" d="M43 347q67 -189 162 -279q79 -75 144 -75q13 0 26 3q151 118 292 306l-25 22q-84 -97 -171 -176q-7 -1 -14 -1q-97 0 -190 150q-81 130 -82 241q0 27 5 52q24 132 101 164q34 14 66 14q39 0 75 -22q65 -39 79 -150l125 115q3 18 3 35q0 72 -60 117q-64 47 -140 48 q-12 0 -25 -2q-93 -39 -206 -147q-180 -175 -180 -328q0 -45 15 -87z" />
<glyph unicode="d" horiz-adv-x="861" d="M23 456q-7 -37 -7 -72q0 -54 17 -103q28 -81 132 -199q76 -85 124 -85q18 0 32 12l210 153q45 -162 147 -162h1l130 165l59 65l-30 34l-80 -85q-8 -3 -15 -3q-57 0 -58 207q0 23 1 49v672q-1 20 -1 38q0 211 116 246l-28 17q-213 -62 -239 -292v-213h-255 q-238 -350 -256 -444zM146 522q9 117 79 224h224l82 81v-605q-81 -44 -146 -44q-89 0 -147 83q-93 131 -93 241q0 10 1 20z" />
<glyph unicode="e" horiz-adv-x="676" d="M53 347q67 -189 177 -294q65 -62 122 -63q39 0 74 30q130 95 271 282l-25 22q-84 -97 -152 -161q-32 -18 -65 -18q-86 0 -174 121q-106 144 -106 274q0 20 3 40q18 147 108 180q33 12 62 12q47 0 79 -36q42 -46 42 -93q-1 -11 -3 -21q-12 -58 -119 -139l-113 -107l19 -32 l291 254l82 72q3 26 4 49q0 99 -61 143q-64 47 -140 47q-13 0 -25 -1q-93 -39 -186 -147q-180 -175 -180 -327q0 -45 15 -87z" />
<glyph unicode="f" horiz-adv-x="595" d="M-210 -367q26 -1 50 -1q275 0 394 154q127 164 127 373v6l-7 469h92l150 149l-247 2q-3 72 -3 133q0 275 56 308q17 2 31 2q122 0 122 -119v-14l91 72q28 33 28 71q0 24 -12 50q-30 67 -181 106l-214 -254q-65 -37 -65 -305q0 -33 1 -70l-99 -8l-155 -159l19 -16 q74 43 214 43h18l2 -649q-3 -167 -74 -207q-24 -13 -59 -13q-71 0 -189 53z" />
<glyph unicode="g" horiz-adv-x="799" d="M38 -247q122 -125 216 -143q40 -8 74 -8q48 0 86 15q66 25 194 173q114 132 114 278q0 16 -1 33q-11 130 -11 339v110q4 285 76 329l-11 22l-370 -1q-124 -73 -237 -226t-126 -261q-2 -11 -2 -23q0 -101 105 -239q116 -154 179 -162q125 104 233 163q10 -115 10 -198 q0 -163 -38 -203q-44 -39 -98 -39q-43 0 -93 24q-112 56 -175 140zM164 522q12 112 144 240l329 -1q-83 -47 -83 -192v-7v-350q-79 -53 -144 -53q-85 0 -148 91q-100 144 -100 249q0 12 2 23z" />
<glyph unicode="h" horiz-adv-x="774" d="M63 1070l1 -492v-410q3 -148 119 -168l189 186l-20 20l-98 -49q-40 17 -36 150v375l139 105q196 36 189 -248l-1 -367q-1 -146 72 -168l190 184l-20 26l-58 -54q-35 5 -34 118l1 397q-3 135 -86.5 191t-171.5 41l-229 -178v396q-7 214 113 274l-16 19 q-245 -127 -243 -348z" />
<glyph unicode="i" horiz-adv-x="429" d="M17 710l20 -16l60 44q43 -16 43 -120q0 -24 -2 -52v-406q12 -147 124 -166l157 192l-21 24l-58 -61q-49 12 -49 132q0 15 1 32l-1 423q-2 157 -68 176zM46 1161q109 -19 115 -160l147 129v12q0 122 -120 166z" />
<glyph unicode="j" horiz-adv-x="384" d="M17 710l17 -20l52 34q8 5 15 5q37 0 37 -156v-7v-406q4 -76 4 -137q0 -91 -8 -146q-14 -91 -114 -201l18 -14q257 138 257 479q0 47 -5 97l1 498q-2 157 -78 176zM46 1161q109 -19 115 -160l137 129v12q0 122 -120 166z" />
<glyph unicode="k" horiz-adv-x="745" d="M34 949l4 -764q9 -136 125 -191l222 193l-26 27q-182 -186 -161 214q44 34 126 11t175.5 -235.5t166.5 -212.5l154 222l-30 27q-60 -162 -164 68.5t-223 251.5q81 44 131.5 130.5t19.5 219.5l-164 -102q51 -141 -19.5 -218.5t-178.5 -111.5l-1 589q2 255 126 317l-29 17 q-263 -173 -254 -452z" />
<glyph unicode="l" horiz-adv-x="368" d="M88 1066v-856q14 -158 124 -216l197 192l-15 29q-123 -119 -163 23v478v391q-5 197 75 273l-18 22q-208 -172 -200 -336z" />
<glyph unicode="m" horiz-adv-x="1251" d="M-43 720l24 -20l55 64q84 -25 76 -186v-414q3 -150 79 -170l189 188l-20 20l-58 -49q-40 17 -36 151v386l110 99q183 33 178 -251l-1 -370q-1 -148 72 -170l190 186l-20 26l-58 -54q-35 5 -34 119v409l100 94q197 47 193 -240l-1 -370q-1 -148 63 -170l189 186l-25 20 l-44 -41q-46 5 -41 118v350q-2 250 -249 276l-198 -177q-47 164 -244 180l-189 -180q-21 162 -152 180z" />
<glyph unicode="n" horiz-adv-x="835" d="M-33 719l24 -30l59 54q80 -5 72 -166v-414q3 -149 119 -169l149 188l-20 20l-58 -50q-40 18 -36 152v378l109 89q239 69 219 -233l-1 -370q-1 -148 72 -170l190 186l-20 26l-58 -55q-35 5 -34 119l1 401q-3 136 -86.5 192.5t-171.5 41.5l-229 -180q-21 162 -112 180z" />
<glyph unicode="o" horiz-adv-x="769" d="M34 467q-3 -26 -3 -51q0 -148 103 -272q120 -144 210 -155q13 -2 27 -2q74 0 133 54q68 63 158 221q76 133 76 254q0 22 -2 42q-16 140 -112 237t-170 113q-29 6 -54 6q-39 0 -71 -15q-51 -25 -163 -139t-132 -293zM142 607q21 138 136 161q17 3 35 3q98 0 192 -111 q111 -131 122 -248q2 -20 2 -39q0 -92 -48 -160q-57 -80 -144 -80h-4q-90 2 -201 169q-94 141 -93 262q0 22 3 43z" />
<glyph unicode="p" horiz-adv-x="859" d="M-14 679l30 -34l70 76q59 -2 65 -247l-1 -490q1 -13 1 -26q0 -142 -143 -259l14 -16q21 7 43 7q50 0 103 -41q63 -49 138 -49q15 0 31 2l142 158q-33 -11 -71 -11q-103 0 -248 79q131 124 134 208l3 66q79 -50 143 -50q48 0 88 28q91 66 198 211q104 139 104 278v11 q-5 145 -145 257q-100 80 -155 80q-22 0 -37 -13l-200 -156q-39 144 -118 165l-140 -178zM293 233l3 439l111 82h7l173 -76q90 -79 96 -250v-16q0 -158 -117 -219q-35 -18 -67 -18q-78 0 -136 112z" />
<glyph unicode="q" horiz-adv-x="773" d="M34 413q-1 -7 -1 -15q0 -103 103 -247q109 -154 168 -162q197 117 223 151l2 -487l339 288l-26 40l-163 -128l2 907v13q0 76 64 109l-16 19h-299q-176 -74 -282 -227t-114 -261zM157 478q-2 13 -2 27q0 111 90 237h338q-52 -21 -52 -123q0 -17 1 -36l-2 -375 q-65 -78 -127 -78q-61 0 -118 75q-116 151 -128 273z" />
<glyph unicode="r" horiz-adv-x="692" d="M11 663l22 -14l78 84q68 11 59 -158l-7 -410q17 -146 121 -170l150 192l-20 24l-62 -74q-41 4 -36 105l7 396v60l71 73q83 57 181 -95l128 106q-64 102 -149.5 124t-159.5 -86l-75 -84q-9 141 -108 169z" />
<glyph unicode="s" horiz-adv-x="706" d="M25 268q-5 -13 -5 -28q0 -43 41 -97q54 -72 127 -109.5t164 -41.5q7 0 14 -1q81 0 135 48q59 52 122 153q60 96 61 165q0 3 -1 7q-3 71 -59.5 118.5t-238.5 89.5t-194 132q-2 12 -2 23q0 69 71 86q25 6 51 6q58 0 121 -29q51 -24 51 -55q0 -24 -31 -54l16 -13l131 129 q-34 65 -98 97q-42 21 -89 20q-24 0 -49 -5q-74 -16 -140 -59t-103 -85t-43 -127q-1 -8 -1 -15q0 -75 58 -123q64 -54 229.5 -106t191.5 -101q19 -37 19 -70q0 -11 -2 -21q-9 -42 -46 -60q-25 -12 -68 -12q-22 0 -48 3q-78 9 -152 47q-73 40 -109 92q-14 20 -15 41 q0 35 38 75l-12 16z" />
<glyph unicode="t" horiz-adv-x="625" d="M-29 656l34 -23q43 86 124 86q17 0 36 -4l-1 -494q0 -158 159 -235l179 228l-25 33q-67 -95 -108 -95q-47 0 -60 126v458h148l140 97l-10 28h-290v20v245q-3 58 72 133l-20 20q-38 -9 -110 -97t-80 -184l2 -143l-47 -3z" />
<glyph unicode="u" horiz-adv-x="879" d="M-13 724l20 -27l58 55q35 -4 35 -111q0 -18 -1 -39l-1 -304q0 -152 83.5 -229t180.5 -82l223 188q21 -162 112 -180l188 191l-24 30l-59 -54q-73 4 -73 138q0 13 1 28v416q-3 150 -119 170l-149 -188l20 -21l58 50q38 -12 38 -102q0 -23 -2 -50v-380l-93 -80 q-42 -11 -77 -11q-158 0 -158 227v9l1 372q1 148 -112 170z" />
<glyph unicode="v" horiz-adv-x="885" d="M-25 665l25 -21q39 51 66 51q21 0 36 -31l288 -630q34 -40 77 -40q26 0 56 15q320 360 339 492q3 21 2 41q0 112 -82 233q-95 138 -186 137h-6q-93 -5 -173 -82t-107 -111l17 -35q80 91 168 93h2q86 0 167 -137q66 -112 66 -220q0 -26 -3 -50q-20 -132 -172 -207 q-79 32 -365 719q-13 21 -25 21q-13 0 -25 -24z" />
<glyph unicode="w" horiz-adv-x="1262" d="M-33 657l26 -20q40 50 68 50q22 0 37 -31l267 -580q40 -85 88 -85q35 0 75 46l110 120l-22 28l-47 -45q-5 -4 -10 -5q-62 0 -255 504q64 70 109 70q40 0 66 -53l286 -601q31 -61 65 -61q33 0 70 57q320 314 339 450q3 21 3 42q0 115 -87 234q-96 132 -184 132 q-5 -1 -11 -1q-93 -9 -276 -202l18 -37q102 110 186 110q74 0 135 -83q96 -131 96 -235q0 -38 -13 -73q-48 -129 -166 -222q-75 27 -369 706q-16 32 -34 32q-17 0 -36 -29l-213 -199l-88 196q-13 30 -28 30q-16 0 -36 -33z" />
<glyph unicode="x" horiz-adv-x="838" d="M-1 654l33 -28q78 143 106 75l134 -209q-230 -211 -242 -306.5t51.5 -147.5t146.5 -42l150 177l-14 18q-109 -116 -186.5 -15.5t122.5 279.5l230 -370q76 -89 161 -89l148 171l-21 23q-101 -161 -338 270l332 403l-21 40l-239 -1l-134 -144l16 -17q31 40 235 25 l-215 -261l-195 322q-50 144 -114 20z" />
<glyph unicode="y" horiz-adv-x="831" d="M-9 700l30 -27l74 77q38 -18 40 -154v-321q15 -215 239 -281q152 88 247 183v-115q-11 -294 -168 -326q-30 -7 -61 -7q-126 0 -252 109l-93 -108q125 -105 248 -105q109 0 217 82q228 175 242 416v637q-20 146 -104 148l-177 -214l23 -32l75 80h4q37 0 37 -153v-8v-317 q-92 -134 -203 -139h-5q-107 0 -130 243l1 368q1 146 -117 168z" />
<glyph unicode="z" horiz-adv-x="678" d="M8 12l17 -19q34 22 128 22q65 0 158 -11q78 -9 131 -8q103 0 117 32l111 270l-37 2l-39 -100q-19 -46 -181 -45q-101 0 -256 17l459 705l-15 27h-423l-140 -225l15 -18q54 90 174 90q10 0 20 -1h206q-384 -589 -445 -738z" />
<glyph unicode="{" horiz-adv-x="412" d="M23 485q114 -142 112 -262q12 -541 146 -613l105 239l-13 25q-14 -14 -26 -14q-56 0 -75 294v158q-21 139 -112 184q105 64 112 257v307v39q0 275 67 364l-16 27q-188 -207 -188 -463v-18v-252v-5q0 -143 -112 -267z" />
<glyph unicode="}" horiz-adv-x="408" d="M3 1265l13 -26q14 15 26 15q54 0 73 -300v-161q20 -142 109 -187q-103 -66 -109 -263v-312v-33q0 -286 -66 -377l16 -28q183 210 183 471v19v257v5q0 146 109 271q-111 145 -109 267q-12 552 -143 625z" />
<glyph unicode="&#xa3;" horiz-adv-x="843" d="M0 441l31 -21q12 49 108 49q21 0 46 -2h5l-157 -481l41 -13q56 85 153 85q53 0 117 -25q122 -47 224 -47q53 0 101 13l179 230l-32 9q-87 -102 -199 -102q-57 0 -120 26q-99 41 -186 41q-79 0 -149 -33l103 302h198l166 147l-30 9q-29 -39 -251 -39h-43l28 83h210 l156 147l-30 9q-29 -40 -257 -40q-26 0 -54 1q44 321 190 344q24 4 46 4q109 0 150 -99l-13 -80l24 -16l79 197q-23 99 -84 131q-59 32 -124 32q-1 0 -2 -1q-67 0 -150.5 -68t-125.5 -216l-59 -223l-100 -3l-109 -150l31 -21q12 49 102 49q19 0 42 -2l-24 -73h-2l-110 -3z " />
<glyph unicode="&#xaa;" d="M24 413q-1 -7 -1 -14q0 -104 107 -243q114 -149 176 -157q113 94 213 153q26 -93 137 -160l187 239l-23 13l-43 -47q-31 -30 -57 -30q-20 0 -36 17q-31 32 -31 103q0 17 2 36v481q3 73 54 97l-334 -1q-121 -73 -232 -226t-119 -261zM214 304q-54 87 -54 178 q0 135 121 280h311q-52 -19 -85 -118v-37v-399q-57 -43 -110 -43q-97 0 -183 139z" />
<glyph unicode="&#xad;" horiz-adv-x="905" d="M9 367l12 -20l32 4q31 49 64 76h20h16h72h16h16h16h68h32h28h16h20h16h20h52h16h68h12h48l8 12l48 24q12 18 28 24q19 22 36 32l12 12q4 7 8 8l8 12l4 12l8 4l4 12q39 25 60 56v24h-32q-40 -31 -80 -44h-17q-41 0 -71 -8h-68h-24h-20q-30 -1 -52 4q-36 -5 -63 -5 q-14 0 -25 1l-16 4h-16l-8 -4q-28 3 -48 0l-8 4h-12l-100 4q-13 -8 -28 -12q-16 -19 -32 -32q-5 -6 -12 -8q-11 -20 -28 -36l-28 -24q-12 -20 -24 -32l-8 -16l-12 -8v-12l-8 -4l-4 -8z" />
<glyph unicode="&#x2212;" horiz-adv-x="905" d="M9 367l12 -20l32 4q31 49 64 76h20h16h72h16h16h16h68h32h28h16h20h16h20h52h16h68h12h48l8 12l48 24q12 18 28 24q19 22 36 32l12 12q4 7 8 8l8 12l4 12l8 4l4 12q39 25 60 56v24h-32q-40 -31 -80 -44h-17q-41 0 -71 -8h-68h-24h-20q-30 -1 -52 4q-36 -5 -63 -5 q-14 0 -25 1l-16 4h-16l-8 -4q-28 3 -48 0l-8 4h-12l-100 4q-13 -8 -28 -12q-16 -19 -32 -32q-5 -6 -12 -8q-11 -20 -28 -36l-28 -24q-12 -20 -24 -32l-8 -16l-12 -8v-12l-8 -4l-4 -8z" />
<glyph unicode="&#xb2;" horiz-adv-x="376" d="M10 721q5 -52 40 -83l114 103l-8 9q-32 -14 -45.5 24t-0.5 61.5t49 20t74 -91.5q18 -41 18 -73q0 -37 -24 -62l-204 -215l13 -14h275l67 113l-16 5l-21 -30l-201 1q154 156 192 233q15 32 15 61q0 41 -33 76q-40 43 -93 43q-21 0 -44 -6q-82 -23 -128 -73 q-40 -44 -40 -90q0 -6 1 -12z" />
<glyph unicode="&#xb3;" horiz-adv-x="396" d="M4 762l13 -14q36 37 68 37q8 0 16 -2l169 2l-189 -237l15 -22q36 43 73 43q39 0 78 -45q38 -43 38 -92q0 -52 -42 -109l-135 -152l19 -13q187 184 234 253q42 63 42 134v13q-4 78 -167 137l146 193l-9 12l-255 1z" />
<glyph unicode="&#xb4;" horiz-adv-x="410" d="M35 1002l32 -48l259 159q98 83 33 233l-231 -155q105 -87 -93 -189z" />
<glyph unicode="&#xb8;" horiz-adv-x="234" d="M29 -119l6 -9q23 42 63 35.5t55 -33t14.5 -57t-20.5 -61.5l-60 -80l9 -9q86 106 100.5 135t18 63.5t-16 63t-42 35.5t-41.5 6.5t-45 -16.5l15 62l-20 5z" />
<glyph unicode="&#xb9;" horiz-adv-x="275" d="M14 409l9 -11h165l97 65l-10 13q-77 0 -148 -1q78 33 85 87v332l-8 10l-177 -129l12 -20l61 36v-223v-11q0 -73 -86 -148z" />
<glyph unicode="&#xba;" horiz-adv-x="769" d="M34 468q-3 -26 -3 -52q0 -148 103 -272q120 -144 210 -155q14 -2 27 -2q74 0 133 55q69 63 158 220q76 133 76 254q0 21 -2 42q-16 140 -112.5 237t-169.5 113q-29 6 -54 6q-40 0 -71 -15q-51 -25 -163 -139t-132 -292zM142 608q20 137 136 160q17 3 35 3q98 0 191 -111 q111 -131 123 -248q2 -20 2 -39q0 -92 -49 -160q-57 -80 -143 -80h-5q-89 2 -200 169q-94 142 -94 262q0 22 4 44z" />
<glyph unicode="&#xbc;" horiz-adv-x="790" d="M49 406l8 -11h130l89 54l-9 12h-136q72 43 78 98v331l-8 10l-140 -129l11 -14l56 47v-239q1 -6 1 -12q0 -72 -80 -147zM116 -111l40 -83l469 1226l-34 87zM349 7l14 1q21 16 39 21q6 2 16 2q21 0 60 -7q58 -10 78 -13q4 -35 4 -62q0 -75 -32 -85l8 -16q68 56 85 94l1 58 q18 -4 33 -4q30 0 47 15q26 22 65 107l-16 3q-27 -58 -56 -63h-11q-26 0 -64 17v263l-63 -128v-124q-63 14 -93 14q-21 0 -26 -7q203 297 203 463q0 11 -1 21l-83 -60q12 -20 12 -52q0 -132 -220 -458z" />
<glyph unicode="&#xbd;" horiz-adv-x="786" d="M49 406l8 -11h130l89 54l-9 12h-136q72 43 78 98v331l-8 10l-140 -129l11 -14l56 47v-239q1 -6 1 -12q0 -72 -80 -147zM116 -111l40 -83l469 1226l-34 87zM429 321q6 -52 41 -83l98 87l-8 8q-13 -8 -23 -8q-19 0 -28 28q-4 15 -4 29q0 25 15 45q24 32 66 32t83 -83 q18 -36 18 -69q0 -43 -31 -82l-200 -211l13 -14h265l65 111l-14 7l-26 -42l-198 1q156 169 194 246q15 31 15 59q0 42 -33 78q-40 43 -94 43q-21 0 -45 -7q-82 -23 -128 -73q-41 -44 -41 -90v-12z" />
<glyph unicode="&#xbe;" horiz-adv-x="825" d="M49 406l8 -11h130l89 54l-9 12h-136q72 43 78 98v331l-8 10l-140 -129l11 -14l56 47v-239q1 -6 1 -12q0 -72 -80 -147zM116 -111l40 -83l469 1226l-34 87zM418 360l12 -12q34 35 91 35q11 0 23 -1l134 -1l-185 -224l15 -15q44 45 86 45q41 0 79 -43q32 -35 32 -79 q0 -64 -69 -146l-124 -132l19 -13q172 170 215 234q31 46 31 104q0 22 -4 45q-16 86 -142 114l135 179l-8 11l-235 1z" />
<glyph unicode="&#xc0;" horiz-adv-x="1173" d="M-49 -1l260 1l150 148l-265 -1q168 121 235 341h296l95 110l197 -463q59 -130 202 -141l97 270l-30 16l-38 -91q-6 -1 -12 -1q-46 0 -93 90l-422 1016q-13 28 -13 56q0 50 42 99l-25 23q-123 -153 -136 -239q-2 -16 -2 -32q0 -71 47 -149q-57 -23 -78 -84l-147 -337h-146 l-120 -169l27 -26l39 52h136q-61 -191 -296 -489zM357 1781q172 -187 260 -187q5 0 10 1l137 154q-14 -2 -29 -2q-115 0 -261 155zM386 626l170 378l158 -378h-328z" />
<glyph unicode="&#xc1;" horiz-adv-x="1173" d="M-49 -1l260 1l150 148l-265 -1q168 121 235 341h296l95 110l197 -463q59 -130 202 -141l97 270l-30 16l-38 -91q-6 -1 -12 -1q-46 0 -93 90l-422 1016q-13 28 -13 56q0 50 42 99l-25 23q-123 -153 -136 -239q-2 -16 -2 -32q0 -71 47 -149q-57 -23 -78 -84l-147 -337h-146 l-120 -169l27 -26l39 52h136q-61 -191 -296 -489zM386 626l170 378l158 -378h-328zM595 1642l32 -48l259 159q59 50 59 124q0 49 -26 109l-231 -155q36 -30 36 -62q0 -60 -129 -127z" />
<glyph unicode="&#xc2;" horiz-adv-x="1173" d="M-49 -1l260 1l150 148l-265 -1q168 121 235 341h296l95 110l197 -463q59 -130 202 -141l97 270l-30 16l-38 -91q-6 -1 -12 -1q-46 0 -93 90l-422 1016q-13 28 -13 56q0 50 42 99l-25 23q-123 -153 -136 -239q-2 -16 -2 -32q0 -71 47 -149q-57 -23 -78 -84l-147 -337h-146 l-120 -169l27 -26l39 52h136q-61 -191 -296 -489zM386 626l170 378l158 -378h-328zM387 1665l271 239q76 -160 208 -178l-111 -132q-139 6 -183 153l-150 -121z" />
<glyph unicode="&#xc3;" horiz-adv-x="1173" d="M-49 -1l260 1l150 148l-265 -1q168 121 235 341h296l95 110l197 -463q59 -130 202 -141l97 270l-30 16l-38 -91q-6 -1 -12 -1q-46 0 -93 90l-422 1016q-13 28 -13 56q0 50 42 99l-25 23q-123 -153 -136 -239q-2 -16 -2 -32q0 -71 47 -149q-57 -23 -78 -84l-147 -337h-146 l-120 -169l27 -26l39 52h136q-61 -191 -296 -489zM365 1626l25 -32l53 71q32 25 68 25q52 0 114 -51q48 -40 85 -40q44 0 72 55l107 166l-22 32l-44 -67q-24 -21 -55 -21q-50 0 -118 56q-42 35 -81 35q-60 0 -110 -84zM386 626l170 378l158 -378h-328z" />
<glyph unicode="&#xc7;" horiz-adv-x="944" d="M36 532q40 -148 207.5 -328.5t385.5 -215.5l246 264l-30 19l-106 -106q-22 -8 -46 -8q-86 0 -208 91q-158 117 -254 285q-55 95 -55 212q0 89 32 190q103 177 242 228q47 17 93 17q88 0 169 -64q72 -58 72 -102q0 -30 -36 -54l-57 -58l30 -16q207 172 212 221v6 q0 47 -75 115q-80 73 -150 82q-32 5 -62 5q-34 0 -66 -6q-58 -11 -200.5 -126t-206 -195t-120.5 -194q-33 -68 -33 -146q0 -56 16 -116zM583 -140l6 -9q20 36 53 36q5 0 10 -1q40 -6 55 -32.5t14.5 -57t-20.5 -61.5l-60 -80l9 -9q86 106 100.5 135t17.5 63q1 6 1 11 q0 28 -17 53q-19 28 -41.5 35t-41.5 6.5t-45 -16.5l15 62l-20 5z" />
<glyph unicode="&#xc8;" horiz-adv-x="918" d="M-8 1032l34 -14q60 112 132 112l153 3q-109 -95 -119 -203l-1 -140l-141 -199l29 -16q72 82 108 82h5l-2 -355v-7q0 -76 -147 -300l670 1l185 269l-30 23q-63 -130 -145 -130h-1l-524 1q96 71 155 212l1 283h137l173 142l-16 24l-288 1v317l343 -2l180 145l-6 20l-711 -1 zM607 1615q172 -187 260 -187q5 0 10 1l137 154q-14 -2 -29 -2q-115 0 -261 155z" />
<glyph unicode="&#xc9;" horiz-adv-x="918" d="M-8 1032l34 -14q60 112 132 112l153 3q-109 -95 -119 -203l-1 -140l-141 -199l29 -16q72 82 108 82h5l-2 -355v-7q0 -76 -147 -300l670 1l185 269l-30 23q-63 -130 -145 -130h-1l-524 1q96 71 155 212l1 283h137l173 142l-16 24l-288 1v317l343 -2l180 145l-6 20l-711 -1 zM845 1476l32 -48l259 159q59 50 59 124q0 49 -26 109l-231 -155q36 -30 36 -62q0 -60 -129 -127z" />
<glyph unicode="&#xca;" horiz-adv-x="918" d="M-8 1032l34 -14q60 112 132 112l153 3q-109 -95 -119 -203l-1 -140l-141 -199l29 -16q72 82 108 82h5l-2 -355v-7q0 -76 -147 -300l670 1l185 269l-30 23q-63 -130 -145 -130h-1l-524 1q96 71 155 212l1 283h137l173 142l-16 24l-288 1v317l343 -2l180 145l-6 20l-711 -1 zM637 1499l271 239q76 -160 208 -178l-111 -132q-139 6 -183 153l-150 -121z" />
<glyph unicode="&#xcc;" horiz-adv-x="557" d="M12 1082l34 -14q32 69 102 72l163 -1q-105 -99 -110 -249l-1 -545l1 -122q-27 -106 -166 -256l25 -4q47 34 255 34q32 0 68 -1l165 151l-24 18q-39 -28 -210 -28q-43 0 -96 2q100 113 143 262l9 743l3 2l190 135l-6 20l-371 -2zM287 1615q172 -187 260 -187q5 0 10 1 l137 154q-14 -2 -29 -2q-115 0 -261 155z" />
<glyph unicode="&#xcd;" horiz-adv-x="557" d="M12 1082l34 -14q32 69 102 72l163 -1q-105 -99 -110 -249l-1 -545l1 -122q-27 -106 -166 -256l25 -4q47 34 255 34q32 0 68 -1l165 151l-24 18q-39 -28 -210 -28q-43 0 -96 2q100 113 143 262l9 743l3 2l190 135l-6 20l-371 -2zM525 1476l32 -48l259 159q59 50 59 124 q0 49 -26 109l-231 -155q36 -30 36 -62q0 -60 -129 -127z" />
<glyph unicode="&#xce;" horiz-adv-x="557" d="M12 1082l34 -14q32 69 102 72l163 -1q-105 -99 -110 -249l-1 -545l1 -122q-27 -106 -166 -256l25 -4q47 34 255 34q32 0 68 -1l165 151l-24 18q-39 -28 -210 -28q-43 0 -96 2q100 113 143 262l9 743l3 2l190 135l-6 20l-371 -2zM317 1499l271 239q76 -160 208 -178 l-111 -132q-139 6 -183 153l-150 -121z" />
<glyph unicode="&#xd1;" horiz-adv-x="1138" d="M-15 1071l32 -21q91 99 159 99q58 0 99 -72q-120 -141 -114 -189v-641q-30 -134 -160 -266l19 -18q45 33 252 33q38 0 80 -1l161 157l-24 17q-38 -27 -213 -27q-47 0 -103 2q59 71 132 137l-5 765l519 -820q1 -11 1 -21q0 -102 -121 -193l20 -21q18 10 154 10 q63 0 152 -2l151 181l-24 18q-68 -44 -179 -44q41 51 42 142l2 861l3 2l176 125l-7 20l-371 -2l-168 -207l34 -14q31 69 102 71l192 1l-105 -118l-1 -620q-505 885 -593 885h-3q-84 -11 -291 -229zM927 1460l25 -32l53 71q32 25 68 25q52 0 114 -51q48 -40 85 -40 q44 0 72 55l107 166l-22 32l-44 -67q-24 -21 -55 -21q-50 0 -118 56q-42 35 -81 35q-60 0 -110 -84z" />
<glyph unicode="&#xd2;" horiz-adv-x="1047" d="M44 674q-4 -39 -4 -77q0 -210 134 -385q159 -206 285 -222q19 -2 37 -2q104 0 192 78q102 91 226 316q105 191 105 364q0 30 -3 60q-22 200 -155.5 338.5t-235.5 161.5q-40 9 -75 9q-54 0 -98 -22q-70 -36 -224.5 -199t-183.5 -420zM175 883q46 207 211 269q42 16 84 16 q124 0 248 -139q166 -185 170 -432v-14q0 -236 -120 -353q-88 -86 -184 -86q-37 0 -76 12q-137 47 -258 284q-88 171 -88 327q0 59 13 116zM280 1624q172 -187 260 -187q5 0 10 1l137 154q-14 -2 -29 -2q-115 0 -261 155zM367 686q109 -19 115 -160l147 119v12 q0 122 -120 166z" />
<glyph unicode="&#xd3;" horiz-adv-x="1047" d="M44 674q-4 -39 -4 -77q0 -210 134 -385q159 -206 285 -222q19 -2 37 -2q104 0 192 78q102 91 226 316q105 191 105 364q0 30 -3 60q-22 200 -155.5 338.5t-235.5 161.5q-40 9 -75 9q-54 0 -98 -22q-70 -36 -224.5 -199t-183.5 -420zM175 883q46 207 211 269q42 16 84 16 q124 0 248 -139q166 -185 170 -432v-14q0 -236 -120 -353q-88 -86 -184 -86q-37 0 -76 12q-137 47 -258 284q-88 171 -88 327q0 59 13 116zM367 686q109 -19 115 -160l147 119v12q0 122 -120 166zM518 1485l32 -48l259 159q59 50 59 124q0 49 -26 109l-231 -155 q36 -30 36 -62q0 -60 -129 -127z" />
<glyph unicode="&#xd4;" horiz-adv-x="1047" d="M44 674q-4 -39 -4 -77q0 -210 134 -385q159 -206 285 -222q19 -2 37 -2q104 0 192 78q102 91 226 316q105 191 105 364q0 30 -3 60q-22 200 -155.5 338.5t-235.5 161.5q-40 9 -75 9q-54 0 -98 -22q-70 -36 -224.5 -199t-183.5 -420zM175 883q46 207 211 269q42 16 84 16 q124 0 248 -139q166 -185 170 -432v-14q0 -236 -120 -353q-88 -86 -184 -86q-37 0 -76 12q-137 47 -258 284q-88 171 -88 327q0 59 13 116zM311 1508l271 239q76 -160 208 -178l-111 -132q-139 6 -183 153l-150 -121zM367 686q109 -19 115 -160l147 119v12q0 122 -120 166z " />
<glyph unicode="&#xd5;" horiz-adv-x="1047" d="M44 674q-4 -39 -4 -77q0 -210 134 -385q159 -206 285 -222q19 -2 37 -2q104 0 192 78q102 91 226 316q105 191 105 364q0 30 -3 60q-22 200 -155.5 338.5t-235.5 161.5q-40 9 -75 9q-54 0 -98 -22q-70 -36 -224.5 -199t-183.5 -420zM175 883q46 207 211 269q42 16 84 16 q124 0 248 -139q166 -185 170 -432v-14q0 -236 -120 -353q-88 -86 -184 -86q-37 0 -76 12q-137 47 -258 284q-88 171 -88 327q0 59 13 116zM288 1469l25 -32l53 71q32 25 68 25q52 0 114 -51q48 -40 85 -40q44 0 72 55l107 166l-22 32l-44 -67q-24 -21 -55 -21 q-50 0 -117 56q-43 35 -82 35q-60 0 -110 -84zM367 686q109 -19 115 -160l147 119v12q0 122 -120 166z" />
<glyph unicode="&#xd7;" horiz-adv-x="679" d="M63 212l38 -26l218 240l227 -264l94 94l-228 265l230 250l-37 25l-223 -234l-195 237l-113 -104l215 -233z" />
<glyph unicode="&#xd9;" horiz-adv-x="1135" d="M3 1091l24 -14q49 72 173 72q35 0 76 -6q-220 -278 -220 -538q0 -94 29 -186q121 -271 381 -419q16 -3 33 -3q98 0 211 107q123 118 123 132q0 1 -1 1q49 -189 166 -254l163 292l-23 12q-56 -82 -96 -82q-39 0 -62 80v865l45 1l140 134l-6 20l-371 -2l-164 -204l34 -14 q28 68 92 68l195 -1q-115 -93 -115 -292v-7v-515q-51 -96 -126 -156q-51 -41 -102 -41q-23 0 -46 8q-74 27 -169.5 131.5t-146.5 235.5q-51 128 -51 295v7q1 171 153 348l154 140h-308l-8 -16zM72 1615q172 -187 260 -187q5 0 10 1l137 154q-14 -2 -29 -2q-115 0 -261 155z " />
<glyph unicode="&#xda;" horiz-adv-x="1135" d="M3 1091l24 -14q49 72 173 72q35 0 76 -6q-220 -278 -220 -538q0 -94 29 -186q121 -271 381 -419q16 -3 33 -3q98 0 211 107q123 118 123 132q0 1 -1 1q49 -189 166 -254l163 292l-23 12q-56 -82 -96 -82q-39 0 -62 80v865l45 1l140 134l-6 20l-371 -2l-164 -204l34 -14 q28 68 92 68l195 -1q-115 -93 -115 -292v-7v-515q-51 -96 -126 -156q-51 -41 -102 -41q-23 0 -46 8q-74 27 -169.5 131.5t-146.5 235.5q-51 128 -51 295v7q1 171 153 348l154 140h-308l-8 -16zM310 1476l32 -48l259 159q59 50 59 124q0 49 -26 109l-231 -155q36 -30 36 -62 q0 -60 -129 -127z" />
<glyph unicode="&#xdb;" horiz-adv-x="1135" d="M3 1091l24 -14q49 72 173 72q35 0 76 -6q-220 -278 -220 -538q0 -94 29 -186q121 -271 381 -419q16 -3 33 -3q98 0 211 107q123 118 123 132q0 1 -1 1q49 -189 166 -254l163 292l-23 12q-56 -82 -96 -82q-39 0 -62 80v865l45 1l140 134l-6 20l-371 -2l-164 -204l34 -14 q28 68 92 68l195 -1q-115 -93 -115 -292v-7v-515q-51 -96 -126 -156q-51 -41 -102 -41q-23 0 -46 8q-74 27 -169.5 131.5t-146.5 235.5q-51 128 -51 295v7q1 171 153 348l154 140h-308l-8 -16zM103 1499l271 239q76 -160 208 -178l-111 -132q-139 6 -183 153l-150 -121z" />
<glyph unicode="&#xdd;" horiz-adv-x="885" d="M-2 1128l28 -27q33 48 63 48t56 -49l275 -375l1 -431q-7 -134 -199 -297l389 2l151 168l-31 23q-25 -61 -197 -61q-58 0 -132 7q169 164 183 302l-1 319l360 539l-16 7l-248 -2l-178 -164l17 -21q42 39 159 39q42 0 94 -5l-220 -331l-297 406q-42 84 -83 84 q-33 0 -65 -56zM140 1479l32 -48l259 159q59 50 59 124q0 49 -26 109l-231 -155q36 -30 36 -62q0 -60 -129 -127z" />
<glyph unicode="&#xe0;" d="M24 413q-1 -7 -1 -14q0 -104 107 -243q114 -149 176 -157q113 94 213 153q26 -93 137 -160l187 239l-23 13l-43 -47q-31 -30 -57 -30q-20 0 -36 17q-31 32 -31 103q0 17 2 36v481q3 73 54 97l-334 -1q-121 -73 -232 -226t-119 -261zM214 304q-54 87 -54 178 q0 135 121 280h311q-52 -19 -85 -118v-37v-399q-57 -43 -110 -43q-97 0 -183 139zM439 1217q172 -187 260 -187q5 0 10 1l137 154q-14 -2 -29 -2q-115 0 -261 155z" />
<glyph unicode="&#xe1;" d="M24 413q-1 -7 -1 -14q0 -104 107 -243q114 -149 176 -157q113 94 213 153q26 -93 137 -160l187 239l-23 13l-43 -47q-31 -30 -57 -30q-20 0 -36 17q-31 32 -31 103q0 17 2 36v481q3 73 54 97l-334 -1q-121 -73 -232 -226t-119 -261zM214 304q-54 87 -54 178 q0 135 121 280h311q-52 -19 -85 -118v-37v-399q-57 -43 -110 -43q-97 0 -183 139zM677 1078l32 -48l259 159q59 50 59 124q0 49 -26 109l-231 -155q36 -30 36 -62q0 -60 -129 -127z" />
<glyph unicode="&#xe2;" d="M24 413q-1 -7 -1 -14q0 -104 107 -243q114 -149 176 -157q113 94 213 153q26 -93 137 -160l187 239l-23 13l-43 -47q-31 -30 -57 -30q-20 0 -36 17q-31 32 -31 103q0 17 2 36v481q3 73 54 97l-334 -1q-121 -73 -232 -226t-119 -261zM214 304q-54 87 -54 178 q0 135 121 280h311q-52 -19 -85 -118v-37v-399q-57 -43 -110 -43q-97 0 -183 139zM469 1101l271 239q76 -160 208 -178l-111 -132q-139 6 -183 153l-150 -121z" />
<glyph unicode="&#xe3;" d="M24 413q-1 -7 -1 -14q0 -104 107 -243q114 -149 176 -157q113 94 213 153q26 -93 137 -160l187 239l-23 13l-43 -47q-31 -30 -57 -30q-20 0 -36 17q-31 32 -31 103q0 17 2 36v481q3 73 54 97l-334 -1q-121 -73 -232 -226t-119 -261zM214 304q-54 87 -54 178 q0 135 121 280h311q-52 -19 -85 -118v-37v-399q-57 -43 -110 -43q-97 0 -183 139zM447 1062l25 -32l53 71q32 25 68 25q52 0 114 -51q48 -40 85 -40q44 0 72 55l107 166l-22 32l-44 -67q-24 -21 -55 -21q-50 0 -118 56q-42 35 -81 35q-60 0 -110 -84z" />
<glyph unicode="&#xe7;" horiz-adv-x="654" d="M33 344q67 -186 162 -275q79 -73 144 -73q13 0 26 3q151 116 292 301l-25 22q-84 -96 -171 -173q-7 -1 -15 -1q-96 0 -190 147q-81 128 -81 238q0 26 5 51q24 130 100 161q35 14 67 14q39 0 75 -21q65 -38 79 -148l125 113q3 18 3 34q0 72 -60 116q-63 46 -139 46 q-13 0 -26 -1q-93 -38 -206 -145q-180 -172 -180 -323q0 -44 15 -86zM279 -129l6 -9q20 36 53 36q5 0 10 -1q40 -6 55 -32.5t14.5 -57t-20.5 -61.5l-60 -80l9 -9q86 106 100.5 135t17.5 63q1 6 1 11q0 28 -17 52q-19 29 -41.5 36t-41.5 6.5t-45 -16.5l15 62l-20 5z" />
<glyph unicode="&#xe8;" horiz-adv-x="676" d="M53 347q67 -189 177 -295q66 -62 122 -62q39 0 74 30q130 95 271 282l-25 22q-84 -97 -152 -161q-32 -18 -65 -18q-86 0 -174 121q-106 144 -106 274q0 20 3 40q19 146 108 180q34 12 62 12q47 0 79 -36q42 -46 42 -93q0 -11 -3 -21q-11 -59 -119 -139l-113 -107l19 -32 l291 254l82 72q3 26 3 49q0 99 -60 143q-64 47 -140 47q-12 0 -25 -1q-93 -39 -186 -147q-180 -175 -180 -327q0 -45 15 -87zM159 1218q172 -187 260 -187q5 0 10 1l137 154q-14 -2 -29 -2q-115 0 -261 155z" />
<glyph unicode="&#xe9;" horiz-adv-x="676" d="M53 347q67 -189 177 -295q66 -62 122 -62q39 0 74 30q130 95 271 282l-25 22q-84 -97 -152 -161q-32 -18 -65 -18q-86 0 -174 121q-106 144 -106 274q0 20 3 40q19 146 108 180q34 12 62 12q47 0 79 -36q42 -46 42 -93q0 -11 -3 -21q-11 -59 -119 -139l-113 -107l19 -32 l291 254l82 72q3 26 3 49q0 99 -60 143q-64 47 -140 47q-12 0 -25 -1q-93 -39 -186 -147q-180 -175 -180 -327q0 -45 15 -87zM397 1079l32 -48l259 159q59 50 59 124q0 49 -26 109l-231 -155q36 -30 36 -62q0 -60 -129 -127z" />
<glyph unicode="&#xea;" horiz-adv-x="676" d="M53 347q67 -189 177 -295q66 -62 122 -62q39 0 74 30q130 95 271 282l-25 22q-84 -97 -152 -161q-32 -18 -65 -18q-86 0 -174 121q-106 144 -106 274q0 20 3 40q19 146 108 180q34 12 62 12q47 0 79 -36q42 -46 42 -93q0 -11 -3 -21q-11 -59 -119 -139l-113 -107l19 -32 l291 254l82 72q3 26 3 49q0 99 -60 143q-64 47 -140 47q-12 0 -25 -1q-93 -39 -186 -147q-180 -175 -180 -327q0 -45 15 -87zM190 1102l271 239q76 -160 208 -178l-111 -132q-139 6 -183 153l-150 -121z" />
<glyph unicode="&#xec;" horiz-adv-x="429" d="M-82 1617q172 -187 260 -187q5 0 10 1l137 154q-14 -2 -29 -2q-115 0 -261 155zM17 710l20 -16l60 44q43 -16 43 -120q0 -24 -2 -52v-406q12 -147 124 -166l157 192l-21 24l-58 -61q-49 12 -49 132q0 15 1 32l-1 423q-2 157 -68 176zM46 1161q109 -19 115 -160l147 129 v12q0 122 -120 166z" />
<glyph unicode="&#xed;" horiz-adv-x="429" d="M17 710l20 -16l60 44q43 -16 43 -120q0 -24 -2 -52v-406q12 -147 124 -166l157 192l-21 24l-58 -61q-49 12 -49 132q0 15 1 32l-1 423q-2 157 -68 176zM46 1161q109 -19 115 -160l147 129v12q0 122 -120 166zM156 1478l32 -48l259 159q59 50 59 124q0 49 -26 109 l-231 -155q36 -30 36 -62q0 -60 -129 -127z" />
<glyph unicode="&#xee;" horiz-adv-x="429" d="M-51 1501l271 239q76 -160 208 -178l-111 -132q-139 6 -183 153l-150 -121zM17 710l20 -16l60 44q43 -16 43 -120q0 -24 -2 -52v-406q12 -147 124 -166l157 192l-21 24l-58 -61q-49 12 -49 132q0 15 1 32l-1 423q-2 157 -68 176zM46 1161q109 -19 115 -160l147 129v12 q0 122 -120 166z" />
<glyph unicode="&#xf1;" horiz-adv-x="835" d="M-33 719l24 -30l59 54q73 -5 73 -138q0 -13 -1 -28v-414q3 -149 119 -169l149 188l-20 20l-58 -50q-36 16 -36 129v23v378l109 89q44 13 80 13q141 0 141 -202q0 -21 -2 -44l-1 -370q-1 -148 72 -170l190 186l-20 26l-58 -55q-34 5 -34 113v6l1 401q-3 136 -86 193 q-66 44 -135 44q-19 0 -37 -3l-229 -180q-21 162 -112 180zM154 1066l25 -32l53 71q32 25 68 25q52 0 114 -51q48 -40 85 -40q44 0 72 55l107 166l-22 32l-44 -67q-24 -21 -55 -21q-50 0 -117 56q-43 35 -82 35q-60 0 -110 -84z" />
<glyph unicode="&#xf2;" horiz-adv-x="769" d="M34 468q-3 -26 -3 -52q0 -148 103 -272q120 -144 210 -155q14 -2 27 -2q74 0 133 55q69 63 158 220q76 133 76 254q0 21 -2 42q-16 140 -112.5 237t-169.5 113q-29 6 -54 6q-40 0 -71 -15q-51 -25 -163 -139t-132 -292zM130 1223q172 -187 260 -187q5 0 10 1l137 154 q-14 -2 -29 -2q-115 0 -261 155zM142 608q20 137 136 160q17 3 35 3q98 0 191 -111q111 -131 123 -248q2 -20 2 -39q0 -92 -49 -160q-57 -80 -143 -80h-5q-89 2 -200 169q-94 142 -94 262q0 22 4 44z" />
<glyph unicode="&#xf3;" horiz-adv-x="769" d="M34 468q-3 -26 -3 -52q0 -148 103 -272q120 -144 210 -155q14 -2 27 -2q74 0 133 55q69 63 158 220q76 133 76 254q0 21 -2 42q-16 140 -112.5 237t-169.5 113q-29 6 -54 6q-40 0 -71 -15q-51 -25 -163 -139t-132 -292zM142 608q20 137 136 160q17 3 35 3q98 0 191 -111 q111 -131 123 -248q2 -20 2 -39q0 -92 -49 -160q-57 -80 -143 -80h-5q-89 2 -200 169q-94 142 -94 262q0 22 4 44zM368 1084l32 -48l259 159q59 50 59 124q0 49 -26 109l-231 -155q36 -30 36 -62q0 -60 -129 -127z" />
<glyph unicode="&#xf4;" horiz-adv-x="769" d="M34 468q-3 -26 -3 -52q0 -148 103 -272q120 -144 210 -155q14 -2 27 -2q74 0 133 55q69 63 158 220q76 133 76 254q0 21 -2 42q-16 140 -112.5 237t-169.5 113q-29 6 -54 6q-40 0 -71 -15q-51 -25 -163 -139t-132 -292zM142 608q20 137 136 160q17 3 35 3q98 0 191 -111 q111 -131 123 -248q2 -20 2 -39q0 -92 -49 -160q-57 -80 -143 -80h-5q-89 2 -200 169q-94 142 -94 262q0 22 4 44zM160 1107l271 239q76 -160 208 -178l-111 -132q-139 6 -183 153l-150 -121z" />
<glyph unicode="&#xf5;" horiz-adv-x="769" d="M34 468q-3 -26 -3 -52q0 -148 103 -272q120 -144 210 -155q14 -2 27 -2q74 0 133 55q69 63 158 220q76 133 76 254q0 21 -2 42q-16 140 -112.5 237t-169.5 113q-29 6 -54 6q-40 0 -71 -15q-51 -25 -163 -139t-132 -292zM138 1068l25 -32l53 71q32 25 68 25q52 0 114 -51 q48 -40 85 -40q44 0 72 55l107 166l-22 32l-44 -67q-24 -21 -55 -21q-50 0 -117 56q-43 35 -82 35q-60 0 -110 -84zM142 608q20 137 136 160q17 3 35 3q98 0 191 -111q111 -131 123 -248q2 -20 2 -39q0 -92 -49 -160q-57 -80 -143 -80h-5q-89 2 -200 169q-94 142 -94 262 q0 22 4 44z" />
<glyph unicode="&#xf7;" horiz-adv-x="892" d="M26 369l16 -13q44 60 170 62h413h3q130 0 232 157l-10 16q-52 -41 -192 -41h-32h-348q-165 -13 -252 -181zM300 267q82 -14 87 -120l140 112v10q0 91 -90 124zM307 700q82 -14 87 -120l140 112v10q0 91 -90 124z" />
<glyph unicode="&#xf9;" horiz-adv-x="879" d="M-13 724l20 -27l58 55q35 -4 35 -111q0 -18 -1 -39l-1 -304q0 -152 83.5 -229t180.5 -82l223 188q21 -162 112 -180l188 191l-24 30l-59 -54q-73 4 -73 138q0 13 1 28v416q-3 150 -119 170l-149 -188l20 -21l58 50q38 -12 38 -102q0 -23 -2 -50v-380l-93 -80 q-42 -11 -77 -11q-158 0 -158 227v9l1 372q1 148 -112 170zM341 1223q172 -187 260 -187q5 0 10 1l137 154q-14 -2 -29 -2q-115 0 -261 155z" />
<glyph unicode="&#xfa;" horiz-adv-x="879" d="M-13 724l20 -27l58 55q35 -4 35 -111q0 -18 -1 -39l-1 -304q0 -152 83.5 -229t180.5 -82l223 188q21 -162 112 -180l188 191l-24 30l-59 -54q-73 4 -73 138q0 13 1 28v416q-3 150 -119 170l-149 -188l20 -21l58 50q38 -12 38 -102q0 -23 -2 -50v-380l-93 -80 q-42 -11 -77 -11q-158 0 -158 227v9l1 372q1 148 -112 170zM579 1084l32 -48l259 159q59 50 59 124q0 49 -26 109l-231 -155q36 -30 36 -62q0 -60 -129 -127z" />
<glyph unicode="&#xfb;" horiz-adv-x="879" d="M-13 724l20 -27l58 55q35 -4 35 -111q0 -18 -1 -39l-1 -304q0 -152 83.5 -229t180.5 -82l223 188q21 -162 112 -180l188 191l-24 30l-59 -54q-73 4 -73 138q0 13 1 28v416q-3 150 -119 170l-149 -188l20 -21l58 50q38 -12 38 -102q0 -23 -2 -50v-380l-93 -80 q-42 -11 -77 -11q-158 0 -158 227v9l1 372q1 148 -112 170zM371 1107l271 239q76 -160 208 -178l-111 -132q-139 6 -183 153l-150 -121z" />
<glyph unicode="&#xfd;" horiz-adv-x="831" d="M-9 700l30 -27l74 77q38 -18 40 -154v-321q15 -215 239 -281q152 88 247 183v-115q-11 -294 -168 -326q-30 -7 -61 -7q-126 0 -252 109l-93 -108q125 -105 248 -105q109 0 217 82q228 175 242 416v637q-20 146 -104 148l-177 -214l23 -32l75 80h4q37 0 37 -153v-8v-317 q-92 -134 -204 -139h-4q-107 0 -130 243l1 368q1 146 -117 168zM618 1078l32 -48l259 159q59 50 59 124q0 49 -26 109l-231 -155q36 -30 36 -62q0 -60 -129 -127z" />
<glyph unicode="&#x152;" horiz-adv-x="1965" d="M44 674q-4 -39 -4 -77q0 -210 134 -385q159 -206 285 -222q19 -2 37 -2q104 0 192 78q102 91 226 316q105 191 105 364q0 30 -3 60q-22 200 -155.5 338.5t-235.5 161.5q-40 9 -75 9q-54 0 -98 -22q-70 -36 -224.5 -199t-183.5 -420zM175 883q46 207 211 269q42 16 84 16 q124 0 248 -139q166 -185 170 -432v-14q0 -236 -120 -353q-88 -86 -184 -86q-37 0 -76 12q-137 47 -258 284q-88 171 -88 327q0 59 13 116zM367 686q109 -19 115 -160l147 119v12q0 122 -120 166zM1039 1032l34 -14q60 112 132 112l153 3q-109 -95 -119 -203l-1 -140 l-141 -199l29 -16q72 82 108 82h5l-2 -355v-7q0 -76 -147 -300l670 1l185 269l-30 23q-63 -130 -145 -130h-1l-524 1q96 71 155 212l1 283h137l173 142l-16 24l-288 1v317l343 -2l180 145l-6 20l-711 -1z" />
<glyph unicode="&#x153;" horiz-adv-x="1445" d="M34 468q-3 -26 -3 -52q0 -148 103 -272q120 -144 210 -155q14 -2 27 -2q74 0 133 55q69 63 158 220q76 133 76 254q0 21 -2 42q-16 140 -112.5 237t-169.5 113q-29 6 -54 6q-40 0 -71 -15q-51 -25 -163 -139t-132 -292zM142 608q20 137 136 160q17 3 35 3q98 0 191 -111 q111 -131 123 -248q2 -20 2 -39q0 -92 -49 -160q-57 -80 -143 -80h-5q-89 2 -200 169q-94 142 -94 262q0 22 4 44zM822 347q67 -189 178 -295q65 -62 121 -62q39 0 74 30q130 95 271 282l-25 22q-84 -97 -152 -161q-32 -18 -65 -18q-86 0 -174 121q-106 144 -106 274 q0 20 3 40q19 146 109 180q33 12 61 12q47 0 79 -36q42 -46 42 -93q0 -11 -2 -21q-12 -59 -120 -139l-113 -107l19 -32l291 254l82 72q3 26 3 49q0 99 -60 143q-64 47 -140 47q-12 0 -25 -1q-93 -39 -186 -147q-180 -175 -180 -327q0 -45 15 -87z" />
<glyph unicode="&#x2c6;" horiz-adv-x="518" d="M31 1089l271 239q76 -160 208 -178l-111 -132q-139 6 -183 153l-150 -121z" />
<glyph unicode="&#x2dc;" horiz-adv-x="566" d="M31 999l25 -32l53 71q32 25 68 25q52 0 114 -51q48 -40 85 -40q44 0 72 55l107 166l-22 32l-44 -67q-24 -21 -55 -21q-50 0 -118 56q-42 35 -81 35q-60 0 -110 -84z" />
<glyph unicode="&#x2013;" horiz-adv-x="1024" d="M204 512v204h616v-204h-616z" />
<glyph unicode="&#x2014;" horiz-adv-x="2048" d="M204 512v204h1640v-204h-1640z" />
<glyph unicode="&#x2018;" horiz-adv-x="210" d="M16 1099q0 -64 27.5 -100t61.5 -39l105 112q-80 51 -80 128q0 83 75 128l-21 22q-107 -90 -137.5 -138.5t-30.5 -112.5z" />
<glyph unicode="&#x2019;" horiz-adv-x="260" d="M36 1238q82 -52 80 -132t-75 -124l21 -22q107 90 137.5 138.5t30.5 112.5t-27.5 100t-61.5 39z" />
<glyph unicode="&#x201c;" horiz-adv-x="447" d="M26 1099q0 -64 27.5 -100t61.5 -39l105 112q-80 51 -80 128q0 83 75 128l-21 22q-107 -90 -137.5 -138.5t-30.5 -112.5zM226 1099q0 -64 27.5 -100t61.5 -39l105 112q-80 51 -80 128q0 83 75 128l-21 22q-107 -90 -137.5 -138.5t-30.5 -112.5z" />
<glyph unicode="&#x201d;" horiz-adv-x="421" d="M16 1238q80 -51 80 -128q0 -83 -75 -128l21 -22q107 90 137.5 138.5t30.5 112.5t-27.5 100t-61.5 39zM216 1238q80 -51 80 -128q0 -83 -75 -128l21 -22q107 90 137.5 138.5t30.5 112.5t-27.5 100t-61.5 39z" />
<glyph unicode="&#x2022;" horiz-adv-x="421" d="M1 459l129 12l-80 -72l20 -103l101 125l-9 -132l82 -42l-12 176l106 -131l20 99l-84 80l108 -1l37 89l-151 -19l73 83l-19 81l-89 -108l9 155l-73 -45l4 -113l-87 115l-22 -80l71 -88h-99z" />
<glyph unicode="&#x2026;" horiz-adv-x="798" d="M23 133q107 -40 107 -166l130 110v8q0 118 -117 173zM289 133q107 -40 107 -166l130 110v8q0 118 -117 173zM555 133q107 -40 107 -166l130 110v8q0 118 -117 173z" />
<glyph unicode="&#x2039;" horiz-adv-x="466" d="M6 499q208 -111 377 -292l70 110q-155 169 -322 252l297 265l-29 47l-392 -347z" />
<glyph unicode="&#x203a;" horiz-adv-x="469" d="M7 771q155 -169 322 -252l-297 -265l29 -47l392 347l1 35q-208 111 -377 292z" />
<glyph unicode="&#x20ac;" horiz-adv-x="1008" d="M8 608l16 -11q26 34 66 49q0 -55 16 -114q2 -6 3 -12q-51 -47 -81 -132l16 -11q37 48 100 58q55 -108 170 -231q167 -181 385 -216l246 264l-30 19l-106 -106q-22 -8 -46 -8q-86 0 -208 91q-111 82 -191 189h219q113 17 186 204l-9 13q-78 -75 -170 -75h-7h-305 q-15 38 -23 78h308q113 17 186 204l-9 13q-78 -75 -170 -75h-7h-314q7 65 29 136q103 177 242 228q51 19 100 19q84 0 161 -55q70 -50 70 -107q0 -42 -40 -88l30 -15q157 141 162 190v6q0 47 -75 116q-80 72 -150 82q-32 4 -62 4q-34 0 -66 -6q-58 -11 -200.5 -126 t-206 -195t-120.5 -194q-9 -19 -16 -39q-64 -48 -99 -147z" />
<glyph unicode="&#x2122;" horiz-adv-x="2417" d="M-18 1096l34 -14q32 69 102 72l413 -1q-102 -93 -102 -242q0 -19 2 -38l-1 -527l1 -122q-77 -106 -216 -257l25 -4q47 34 255 34q32 0 68 -1l165 152l-24 18q-39 -28 -191 -28q-39 0 -85 2q96 99 163 263l-1 749l292 1l191 133l-16 18h-901zM1024 1101l12 -21 q71 62 130 62q60 0 107 -65q-98 -88 -101 -189v-552q2 -23 2 -45q0 -173 -146 -303l13 -25q45 33 245 33q36 0 77 -1l161 157l-25 17q-38 -27 -200 -27q-43 0 -95 2q106 77 119 247l-2 630l300 -434q42 -47 42 -99q0 -42 -27 -88l19 -17l98 120q43 47 43 97q0 65 -75 133 l331 374v-771q-17 -208 -176 -369l25 -4q45 33 245 33q36 0 77 -1l161 157l-25 17q-38 -27 -200 -27q-43 0 -95 2q115 89 138 247l-2 786q-2 19 -2 33q0 34 14 34q34 0 142 -172l106 148q-47 34 -124 68q-49 22 -99 22q-31 0 -62 -8q-83 -21 -151 -129l-334 -382 q-341 514 -416 514h-4q-70 -16 -246 -204z" />
<glyph unicode="&#xe000;" horiz-adv-x="905" d="M0 905h905v-905h-905v905z" />
<glyph unicode="&#xfb01;" horiz-adv-x="1024" d="M-210 -367q26 -1 50 -1q275 0 394 154q127 164 127 373v6l-7 469h92l150 149l-247 2q-3 72 -3 133q0 275 56 308q17 2 31 2q122 0 122 -119v-14l91 72q28 33 28 71q0 24 -12 50q-30 67 -181 106l-214 -254q-65 -37 -65 -305q0 -33 1 -70l-99 -8l-155 -159l19 -16 q74 43 214 43h18l2 -649q-3 -167 -74 -207q-24 -13 -59 -13q-71 0 -189 53zM612 710l20 -16l60 44q43 -16 43 -120q0 -24 -2 -52v-406q12 -147 124 -166l157 192l-21 24l-58 -61q-49 12 -49 132q0 15 1 32l-1 423q-2 157 -68 176zM641 1161q109 -19 115 -160l147 129v12 q0 122 -120 166z" />
<glyph unicode="&#xfb02;" horiz-adv-x="963" d="M-210 -367q26 -1 50 -1q275 0 394 154q127 164 127 373v6l-7 469h92l150 149l-247 2q-3 72 -3 133q0 275 56 308q17 2 31 2q122 0 122 -119v-14l91 72q28 33 28 71q0 24 -12 50q-30 67 -181 106l-214 -254q-65 -37 -65 -305q0 -33 1 -70l-99 -8l-155 -159l19 -16 q74 43 214 43h18l2 -649q-3 -167 -74 -207q-24 -13 -59 -13q-71 0 -189 53zM683 210q14 -158 124 -216l197 192l-15 29q-56 -54 -95 -54q-46 0 -68 77v478v391v23q0 178 75 250l-18 22q-200 -166 -200 -324v-12v-856z" />
<glyph unicode="&#xfb03;" horiz-adv-x="1619" d="M-210 -367q26 -1 50 -1q275 0 394 154q127 164 127 373v6l-7 469h92l150 149l-247 2q-3 72 -3 133q0 275 56 308q17 2 31 2q122 0 122 -119v-14l91 72q28 33 28 71q0 24 -12 50q-30 67 -181 106l-214 -254q-65 -37 -65 -305q0 -33 1 -70l-99 -8l-155 -159l19 -16 q74 43 214 43h18l2 -649q-3 -167 -74 -207q-24 -13 -59 -13q-71 0 -189 53zM385 -367q26 -1 50 -1q275 0 393 154q128 164 128 373v6l-7 469h92l150 149l-247 2q-3 72 -3 133q0 275 56 308q17 2 31 2q122 0 122 -119v-14l91 72q28 33 28 71q0 24 -12 50q-30 67 -181 106 l-214 -254q-65 -37 -65 -305q0 -33 1 -70l-99 -8l-155 -159l19 -16q74 43 214 43h18l2 -649q-3 -167 -74 -207q-24 -13 -59 -13q-71 0 -189 53zM1207 710l20 -16l60 44q43 -16 43 -120q0 -24 -2 -52v-406q12 -147 124 -166l157 192l-21 24l-58 -61q-49 12 -49 132q0 15 1 32 l-1 423q-2 157 -68 176zM1236 1161q109 -19 115 -160l147 129v12q0 122 -120 166z" />
<glyph unicode="&#xfb04;" horiz-adv-x="1558" d="M-210 -367q26 -1 50 -1q275 0 394 154q127 164 127 373v6l-7 469h92l150 149l-247 2q-3 72 -3 133q0 275 56 308q17 2 31 2q122 0 122 -119v-14l91 72q28 33 28 71q0 24 -12 50q-30 67 -181 106l-214 -254q-65 -37 -65 -305q0 -33 1 -70l-99 -8l-155 -159l19 -16 q74 43 214 43h18l2 -649q-3 -167 -74 -207q-24 -13 -59 -13q-71 0 -189 53zM385 -367q26 -1 50 -1q275 0 393 154q128 164 128 373v6l-7 469h92l150 149l-247 2q-3 72 -3 133q0 275 56 308q17 2 31 2q122 0 122 -119v-14l91 72q28 33 28 71q0 24 -12 50q-30 67 -181 106 l-214 -254q-65 -37 -65 -305q0 -33 1 -70l-99 -8l-155 -159l19 -16q74 43 214 43h18l2 -649q-3 -167 -74 -207q-24 -13 -59 -13q-71 0 -189 53zM1278 210q14 -158 124 -216l197 192l-15 29q-56 -54 -95 -54q-46 0 -68 77v478v391v23q0 178 75 250l-18 22 q-200 -166 -200 -324v-12v-856z" />
</font>
</defs>
</svg>
