<?xml version="1.0" encoding="UTF-8" standalone="no"?>
<!-- Created with Inkscape (http://www.inkscape.org/) -->
<svg
   xmlns:dc="http://purl.org/dc/elements/1.1/"
   xmlns:cc="http://creativecommons.org/ns#"
   xmlns:rdf="http://www.w3.org/1999/02/22-rdf-syntax-ns#"
   xmlns:svg="http://www.w3.org/2000/svg"
   xmlns="http://www.w3.org/2000/svg"
   xmlns:xlink="http://www.w3.org/1999/xlink"
   xmlns:sodipodi="http://sodipodi.sourceforge.net/DTD/sodipodi-0.dtd"
   xmlns:inkscape="http://www.inkscape.org/namespaces/inkscape"
   width="128"
   height="128"
   id="svg2"
   sodipodi:version="0.32"
   inkscape:version="0.45+devel"
   version="1.0"
   sodipodi:docname="arch_outline.svg"
   inkscape:output_extension="org.inkscape.output.svg.inkscape">
  <defs
     id="defs4">
    <filter
       height="1.42432"
       y="-0.21216"
       width="1.2179726"
       x="-0.1089863"
       id="filter2892"
       inkscape:collect="always">
      <feGaussianBlur
         id="feGaussianBlur2894"
         stdDeviation="0.72146876"
         inkscape:collect="always" />
    </filter>
    <radialGradient
       r="8.2519293"
       fy="222.04396"
       fx="14.207293"
       cy="222.04396"
       cx="14.207293"
       gradientTransform="scale(1.39523,0.716728)"
       gradientUnits="userSpaceOnUse"
       id="radialGradient1968"
       xlink:href="#linearGradient2057"
       inkscape:collect="always" />
    <linearGradient
       inkscape:collect="always"
       id="linearGradient2057">
      <stop
         style="stop-color:#000000;stop-opacity:1;"
         offset="0"
         id="stop2059" />
      <stop
         style="stop-color:#000000;stop-opacity:0;"
         offset="1"
         id="stop2061" />
    </linearGradient>
  </defs>
  <sodipodi:namedview
     id="base"
     pagecolor="#ffffff"
     bordercolor="#666666"
     borderopacity="1.0"
     gridtolerance="10000"
     guidetolerance="10"
     objecttolerance="10"
     inkscape:pageopacity="0.0"
     inkscape:pageshadow="2"
     inkscape:zoom="1"
     inkscape:cx="64"
     inkscape:cy="81.297297"
     inkscape:document-units="px"
     inkscape:current-layer="layer1"
     showgrid="false"
     width="744.09px"
     inkscape:window-width="1248"
     inkscape:window-height="975"
     inkscape:window-x="426"
     inkscape:window-y="24"
     showguides="true"
     inkscape:guide-bbox="true" />
  <metadata
     id="metadata7">
    <rdf:RDF>
      <cc:Work
         rdf:about="">
        <dc:format>image/svg+xml</dc:format>
        <dc:type
           rdf:resource="http://purl.org/dc/dcmitype/StillImage" />
      </cc:Work>
    </rdf:RDF>
  </metadata>
  <g
     inkscape:label="Layer 1"
     inkscape:groupmode="layer"
     id="layer1">
    <path
       style="fill:#5c2700;fill-opacity:1;fill-rule:evenodd;stroke:none;stroke-width:0.99999994000000003px;stroke-linecap:butt;stroke-linejoin:miter;stroke-opacity:1"
       d="M 84,13.65625 L 18.34375,41.53125 L 18.3125,49.1875 L 19.1875,50.15625 L 19.15625,54.5625 L 18.28125,55.03125 L 18.28125,58.8125 L 19.90625,61.3125 L 19.8125,95.5625 L 18.46875,96.96875 L 16.65625,106.875 L 36.03125,122.40625 L 59.1875,112.875 L 56.4375,104.53125 L 56.09375,73.53125 C 57.534497,64.60904 64.462273,60.629188 71.40625,56.875 C 74.096206,55.838535 76.867098,55.130717 79.59375,54.9375 L 79.9375,83.9375 L 79.03125,88.75 L 94.158446,97.273986 L 109.59375,91.09375 L 108.1875,81.96875 L 106.5,79.46875 L 106.625,41.125 L 108.1875,37.9375 L 107.84375,34 L 107.15625,33.90625 L 107.0625,29.15625 L 107.90625,28.15625 L 108.21875,20.25 L 84,13.65625 z M 83.84375,14.25 L 107.75,20.65625 L 37.59375,50.8125 L 18.875,41.875 L 83.84375,14.25 z M 84.21875,15.59375 L 21.5,42.125 L 37.78125,49.3125 L 104.03125,21 L 84.21875,15.59375 z M 84.09375,15.875 L 102.84375,21.09375 L 37.875,48.71875 L 22.375,42.21875 L 84.09375,15.875 z M 107.46875,21.125 L 107.375,28.03125 L 75.4375,41.71875 C 74.763119,40.863843 73.807214,40.374999 72.71875,40.375 C 70.546567,40.375001 68.418146,42.393615 67.53125,45.15625 L 37.8125,57.75 L 37.71875,51.40625 L 107.46875,21.125 z M 106.5625,28.875 L 106.65625,34.1875 L 76.3125,47.375 C 76.371363,47.122122 76.431643,46.886446 76.46875,46.625 C 76.706914,44.946965 76.443741,43.429336 75.8125,42.3125 L 106.5625,28.875 z M 107.25,34.625 L 107.65625,37.875 L 106.15625,41 L 106.125,79.5 L 107.90625,82.375 L 107.8125,85.15625 L 96,90.1875 L 95.40625,58.8125 C 90.309079,51.578893 83.302224,52.608764 75.28125,53.125 C 65.715277,54.848165 56.527224,60.851728 53.84375,74.1875 L 53.40625,105.5625 L 37.0625,111.6875 L 37.28125,108.40625 L 37.21875,105.5 L 37.40625,70.59375 L 37.5,67.75 L 37.90625,64.5 L 68.15625,51.375 C 68.840874,52.322621 69.789844,52.906251 70.9375,52.90625 C 73.128268,52.906252 75.3184,50.805308 76.1875,48 L 107.25,34.625 z M 72.8125,40.96875 C 73.058024,40.96875 73.303417,41.028228 73.53125,41.09375 L 72.5625,44.03125 C 72.381873,43.926491 72.203178,43.853198 72.03125,43.875 L 72.0625,41.09375 C 72.318654,41.020804 72.565538,40.96875 72.8125,40.96875 z M 71.65625,41.21875 L 71.46875,44.15625 C 71.269587,44.289319 71.006221,44.473337 70.75,44.6875 L 69.4375,42.9375 C 70.10141,42.164087 70.878477,41.544653 71.65625,41.21875 z M 74.0625,41.28125 C 74.741789,41.648677 75.287806,42.334937 75.65625,43.15625 L 73.25,44.65625 C 73.120567,44.50044 73.019386,44.354911 72.90625,44.25 L 74.0625,41.28125 z M 19.125,42.6875 L 37.0625,51.1875 L 37.03125,57.59375 L 19,49.0625 L 19.125,42.6875 z M 69.125,43.3125 L 70.4375,45.03125 C 70.259631,45.308068 70.125516,45.558563 70.03125,45.78125 L 68.125,45 C 68.383284,44.402513 68.729577,43.83152 69.125,43.3125 z M 75.84375,43.625 C 76.066376,44.286725 76.162857,45.014574 76.125,45.78125 L 73.625,45.78125 C 73.587118,45.51391 73.538414,45.23968 73.46875,44.90625 L 75.84375,43.625 z M 71.71875,44.4375 C 72.119848,44.390545 72.460552,44.691744 73,45 C 73.408951,46.226401 72.985651,47.248191 72.4375,48.34375 C 71.655444,49.088143 71.423983,48.68186 70.625,48.09375 C 70.094058,46.942665 70.434019,46.047738 70.875,44.96875 C 71.216407,44.62287 71.478091,44.465673 71.71875,44.4375 z M 68.03125,45.34375 L 69.875,46.25 C 69.811486,46.571203 69.83121,46.893821 69.90625,47.25 L 67.625,48.03125 C 67.577275,47.566594 67.589443,47.095704 67.65625,46.625 C 67.717646,46.192419 67.870679,45.770973 68.03125,45.34375 z M 67.375,45.78125 C 67.308046,46.057113 67.228185,46.338344 67.1875,46.625 C 66.953339,48.27483 67.231002,49.756526 67.84375,50.875 L 37.875,63.71875 L 37.8125,58.53125 L 67.375,45.78125 z M 76.09375,46.15625 C 76.086833,46.218669 76.102636,46.281144 76.09375,46.34375 C 75.980517,47.141551 75.679446,47.966598 75.28125,48.75 L 73.53125,47.375 C 73.659776,47.003586 73.706899,46.637783 73.6875,46.25 L 76.09375,46.15625 z M 69.9375,47.5 C 70.000123,47.744942 70.089924,47.997069 70.1875,48.3125 C 70.276697,48.436067 70.358201,48.522334 70.4375,48.625 L 68.28125,50.15625 C 68.010048,49.628573 67.793242,49.058905 67.6875,48.4375 L 69.9375,47.5 z M 73.375,47.78125 L 75.03125,49.125 L 75.09375,49.09375 C 74.7256,49.74806 74.299184,50.368672 73.8125,50.875 L 72.71875,48.71875 C 72.78776,48.658632 72.830701,48.629662 72.90625,48.5625 C 73.102645,48.272286 73.257976,48.022763 73.375,47.78125 z M 70.71875,48.96875 C 70.873272,49.139745 71.022779,49.26737 71.15625,49.34375 L 70.6875,52.28125 C 69.773549,52.113425 68.970083,51.39911 68.40625,50.4375 L 70.71875,48.96875 z M 72.40625,48.96875 L 73.59375,51.09375 C 72.911978,51.744104 72.164609,52.180023 71.4375,52.28125 L 71.53125,49.4375 C 71.772573,49.425138 72.068715,49.240086 72.40625,48.96875 z M 101.21875,49.6875 C 98.91458,50.223403 97.19805,52.935867 97.21875,55.65625 L 97.40625,78.5625 C 97.42694,81.282877 99.16458,83.19215 101.46875,82.65625 C 103.77292,82.12035 105.55195,79.407881 105.53125,76.6875 L 105.34375,53.78125 C 105.30467,50.897873 103.68433,49.854424 101.21875,49.6875 z M 19.53125,49.84375 L 37.03125,58.15625 L 37,63.625 L 19.59375,55.0625 L 19.53125,49.84375 z M 101.53125,50 C 103.61986,49.979665 105.38176,51.946909 105.03125,54.1875 L 105.15625,76.84375 C 105.17359,79.122592 103.1217,82.115561 101.46875,82.5 C 99.8158,82.88444 97.89234,80.872594 97.875,78.59375 L 97.5,55.8125 C 97.48266,53.533654 99.47205,50.415688 101.125,50.03125 C 101.26676,50.011721 101.39201,50.001356 101.53125,50 z M 80.75,53.0625 C 86.337964,52.934675 92.424555,54.036224 95.03125,59.09375 L 95.71875,90.3125 L 94.5,90.8125 L 93.84375,59.90625 C 87.313763,52.598453 80.290364,53.79157 71.625,56.09375 C 63.519077,59.649804 55.967799,66.513459 55.46875,73.46875 L 55.8125,104.65625 L 53.65625,105.46875 L 53.78125,105.3125 L 54.125,74.125 C 56.727347,61.192399 66.203751,55.168948 75.46875,53.5 C 77.069821,53.285617 78.887345,53.105108 80.75,53.0625 z M 102.09375,53.46875 C 100.43387,53.468748 99.581669,54.661448 99.03125,56.75 C 98.480831,58.838553 99.183863,59.781253 100.84375,59.78125 C 102.50363,59.781249 103.38708,58.838553 103.9375,56.75 C 104.48792,54.661447 103.75364,53.468747 102.09375,53.46875 z M 101.59375,53.6875 C 101.75052,53.68848 101.89644,53.711548 102.0625,53.78125 C 103.63146,53.781249 104.30369,55.214576 103.8125,56.84375 C 103.32724,58.453247 101.9005,59.731341 100.65625,59.65625 C 99.489217,59.585819 99.09039,58.266453 99.375,56.75 C 99.659278,55.235313 100.49637,53.680638 101.59375,53.6875 z M 81.4375,54.875 C 81.659477,65.10826 81.736941,74.671135 81.9375,84.90625 L 80.28125,84.09375 L 80.0625,54.90625 C 80.521018,54.883745 80.983167,54.866727 81.4375,54.875 z M 81.71875,54.875 C 85.306151,54.992748 88.73227,56.150145 91.65625,58.71875 C 91.774209,69.093784 91.939298,79.468433 92.03125,89.84375 L 82.21875,85.0625 C 82.026711,74.884863 81.939447,65.051381 81.71875,54.875 z M 18.90625,55.5625 L 37,64.34375 L 36.96875,67.5625 L 37.125,70.59375 L 36.9375,105.59375 L 36.71875,108.5 L 36.5625,111.34375 L 18.96875,99.375 L 18.6875,97.09375 L 20.21875,95.625 L 20.1875,61.125 L 18.84375,58.75 L 18.90625,55.5625 z M 91.90625,58.9375 C 92.31071,59.308034 92.710195,59.696253 93.09375,60.125 L 93.6875,90.65625 L 92.40625,90.03125 C 92.369891,79.703232 92.916484,69.221403 91.90625,58.9375 z M 21.5625,62.1875 C 20.440355,65.207129 20.649198,69.354741 22.03125,72.34375 C 22.110038,72.463315 22.198964,72.571008 22.28125,72.6875 C 22.367987,72.901301 22.49723,73.077232 22.65625,73.21875 C 24.202712,75.202171 26.252257,76.741068 28.34375,78.125 C 30.289195,79.382019 32.875659,80.415816 35.1875,80.28125 C 35.218385,80.200111 35.252397,80.114002 35.28125,80.03125 C 35.345081,79.948467 35.380142,79.852372 35.375,79.71875 C 36.302025,76.745661 35.98874,72.881588 34.65625,70.0625 C 33.06933,67.642034 30.732214,65.885817 28.34375,64.3125 C 26.39589,63.048816 23.882056,62.052484 21.5625,62.1875 z M 102.3125,62.21875 C 102.12865,62.211236 101.89853,62.234255 101.625,62.28125 C 100.5309,62.46923 100.25,62.808214 100.25,63.90625 L 100.28125,69.84375 C 100.28125,70.941784 100.68714,71.219235 101.78125,71.03125 C 102.87535,70.843268 102.90625,70.410538 102.90625,69.3125 L 103.03125,63.34375 C 103.03125,62.520224 102.86405,62.241293 102.3125,62.21875 z M 101.9375,62.3125 C 102.56833,62.248768 103.06358,62.781148 102.90625,63.40625 L 102.71875,69.375 C 102.88229,70.182171 102.41141,70.4706 101.71875,70.875 C 101.07253,71.252285 100.43034,70.615965 100.46875,69.8125 L 100.375,63.84375 C 100.15483,63.272459 100.60611,62.397265 101.65625,62.375 C 101.75082,62.340766 101.84738,62.321605 101.9375,62.3125 z M 22.46875,62.4375 L 28.25,70.28125 L 33.4375,69.15625 C 33.882812,69.650582 34.278358,70.154303 34.625,70.625 C 34.670045,70.733273 34.707285,70.85652 34.75,70.96875 L 28.90625,72.09375 L 35.03125,79.375 C 34.937278,79.573112 34.835461,79.762665 34.71875,79.9375 C 34.308392,79.974931 33.868457,79.944507 33.4375,79.875 L 26.96875,72.40625 L 22.90625,73.09375 C 22.689758,72.837151 22.47175,72.574887 22.28125,72.3125 C 22.179405,72.075931 22.065217,71.826737 21.96875,71.5625 C 21.978055,71.492656 21.991934,71.438802 22.03125,71.375 L 25.75,70.59375 L 21.5625,63.4375 C 21.68894,63.106826 21.818564,62.770282 22,62.46875 C 22.155485,62.452622 22.312442,62.442736 22.46875,62.4375 z M 22.65625,62.4375 C 22.698308,62.438568 22.73874,62.434377 22.78125,62.4375 C 24.644017,62.574326 26.644482,63.760169 28.15625,64.65625 C 29.848336,65.701176 31.816152,67.413632 33.34375,69.09375 L 28.28125,70.125 L 22.65625,62.4375 z M 21.46875,63.625 L 25.5625,70.5625 L 21.875,71.25 C 21.114351,69.017385 20.638183,66.018045 21.46875,63.625 z M 86.4375,64.34375 C 86.004673,64.328886 85.525447,64.368487 85,64.46875 C 82.77562,67.685136 85.405367,70.554378 88.75,70.03125 C 90.232472,67.190415 89.467287,64.447797 86.4375,64.34375 z M 86.875,64.5 C 89.008859,64.591931 90.266202,67.788803 88.46875,69.53125 C 85.936046,71.192895 82.614012,66.569604 85.28125,65 C 85.841085,64.634653 86.382571,64.478785 86.875,64.5 z M 85.75,65.84375 C 84.897306,67.614216 85.971608,69.194207 87.8125,68.90625 C 88.734938,67.130972 87.5752,65.972343 85.75,65.84375 z M 85.90625,66.125 C 87.336111,66.221845 88.427524,67.265942 87.65625,68.625 C 85.81611,68.870562 85.416042,67.505041 85.90625,66.125 z M 47.96875,69.09375 C 47.306518,69.093904 46.571137,69.214323 45.8125,69.5 C 42.777952,70.642711 40.229093,73.795921 40.1875,76.625 L 39.84375,99.46875 C 39.802156,102.29783 42.309203,103.54895 45.34375,102.40625 C 48.378296,101.26354 50.958409,98.11033 51,95.28125 L 51.3125,72.4375 C 51.343693,70.315691 49.955446,69.093287 47.96875,69.09375 z M 47.3125,69.65625 C 49.310164,69.635146 50.932015,71.122467 50.90625,72.875 L 50.46875,95.65625 C 50.437042,97.813218 47.947338,101.01957 45.34375,102 C 42.740162,102.98042 40.249539,101.71947 40.28125,99.5625 L 40.625,76.53125 C 40.656709,74.374286 43.271413,70.917922 45.875,69.9375 C 46.363173,69.753671 46.851501,69.66112 47.3125,69.65625 z M 34.8125,71.15625 C 35.717383,73.652185 36.043883,76.969775 35.125,79.15625 L 29.3125,72.21875 L 34.8125,71.15625 z M 26.8125,72.5 L 33.09375,79.8125 C 31.441854,79.456924 29.742434,78.492232 28.4375,77.71875 C 26.562189,76.556485 24.535129,74.985505 23.03125,73.25 L 26.8125,72.5 z M 46.9375,72.78125 C 45.277615,72.781251 43.487919,74.473948 42.9375,76.5625 C 42.38708,78.651054 43.277613,80.375003 44.9375,80.375 C 46.597385,80.375001 48.418331,78.651053 48.96875,76.5625 C 49.519169,74.473948 48.597387,72.781247 46.9375,72.78125 z M 102.09375,73.03125 C 100.43387,73.03125 99.394169,73.880198 98.84375,75.96875 C 98.293331,78.057306 99.152613,78.968753 100.8125,78.96875 C 102.47239,78.968752 103.26208,78.088553 103.8125,76 C 104.36292,73.911447 103.75364,73.031247 102.09375,73.03125 z M 46.75,73.09375 C 48.446881,72.94297 49.004095,74.871007 48.75,76.5625 C 48.509383,78.164266 46.290225,80.279281 45.0625,80.25 C 43.403049,80.210425 42.658888,78.275543 43.09375,76.8125 C 43.527897,75.351857 45.164871,73.052153 46.75,73.09375 z M 101.5625,73.25 C 101.73122,73.243358 101.88567,73.274139 102.0625,73.3125 C 103.91153,73.227516 103.61886,74.340581 103.5,75.96875 C 103.37231,77.717782 102.20072,78.336474 100.65625,78.65625 C 99.312265,78.934518 99.119723,77.546149 99.28125,75.96875 C 99.44009,74.417592 100.38148,73.296492 101.5625,73.25 z M 86.4375,75.9375 C 86.004673,75.922636 85.525447,75.962237 85,76.0625 C 82.77562,79.278888 85.405367,82.148128 88.75,81.625 C 90.232472,78.784166 89.467287,76.041547 86.4375,75.9375 z M 86.875,76.09375 C 89.008859,76.185682 90.266202,79.382553 88.46875,81.125 C 85.936046,82.786646 82.614012,78.163354 85.28125,76.59375 C 85.841085,76.228404 86.382571,76.072535 86.875,76.09375 z M 85.75,77.4375 C 84.897306,79.207968 85.971608,80.787957 87.8125,80.5 C 88.734938,78.724724 87.5752,77.566093 85.75,77.4375 z M 85.90625,77.71875 C 87.336111,77.815597 88.427524,78.859692 87.65625,80.21875 C 85.81611,80.464314 85.416042,79.098791 85.90625,77.71875 z M 26.53125,79.4375 C 25.755873,79.418453 25.375001,79.976651 25.375,81.1875 C 25.375,83.124865 26.092035,84.683754 28.0625,85.75 C 30.032963,86.816244 31.312499,86.31236 31.3125,84.375 C 31.312499,82.437643 30.314215,81.128745 28.34375,80.0625 C 27.604826,79.662658 26.996476,79.448928 26.53125,79.4375 z M 26.78125,80 C 27.194853,79.954205 27.708177,80.081812 28.25,80.375 C 29.694859,81.156836 30.84375,82.900866 30.84375,84.28125 C 30.843748,85.661633 29.694861,86.156834 28.25,85.375 C 26.805137,84.593167 25.65625,82.849134 25.65625,81.46875 C 25.65625,80.606009 26.091912,80.076324 26.78125,80 z M 46.21875,81.375 C 45.124646,81.562982 44.21875,82.589464 44.21875,83.6875 L 44.21875,89.65625 C 44.218751,90.754285 45.124643,91.46923 46.21875,91.28125 C 45.022078,91.445849 44.281558,90.244375 44.4375,89.6875 L 44.4375,83.71875 C 44.267861,83.042787 45.134678,81.369974 46.21875,81.6875 C 47.420118,81.200797 48.268611,82.402989 47.96875,83.125 L 48.09375,89.09375 C 48.242653,89.628348 46.885637,91.189521 46.21875,91.28125 C 47.312854,91.093271 48.218749,90.066788 48.21875,88.96875 L 48.21875,83 C 48.218752,81.90196 47.312854,81.187019 46.21875,81.375 z M 27.28125,81.5625 C 26.428557,83.332968 27.502858,84.912957 29.34375,84.625 C 30.266189,82.849724 29.10645,81.691093 27.28125,81.5625 z M 27.4375,81.84375 C 28.867362,81.940597 29.958774,82.984692 29.1875,84.34375 C 27.347361,84.589314 26.947292,83.223791 27.4375,81.84375 z M 80.28125,84.5625 L 93.6875,91.59375 L 93.8125,96.5 L 79.40625,88.46875 L 80.28125,84.71875 L 80.28125,84.5625 z M 23,84.90625 C 22.232923,84.898103 21.561114,85.192041 21.15625,86 C 21.159485,86.052052 21.153593,86.104137 21.15625,86.15625 L 21.125,86.1875 L 21.15625,86.25 C 21.290255,89.255911 20.534211,92.35447 21.84375,95.125 C 21.914457,95.232302 21.988852,95.332677 22.0625,95.4375 C 22.16679,95.716048 22.307207,95.966204 22.53125,96.125 L 22.5625,96.125 C 24.103342,98.04866 26.139794,99.55129 28.1875,100.90625 C 30.130955,102.17608 32.565046,103.2593 34.875,103.15625 L 34.90625,102.59375 C 34.956812,102.46264 34.940714,102.31055 34.90625,102.125 L 35.1875,94.78125 C 34.399887,91.312337 30.99493,88.951654 28.1875,87.09375 C 26.914412,86.380071 24.68757,84.924174 23,84.90625 z M 23.15625,85.59375 C 24.834307,85.608416 26.916431,86.836356 28.1875,87.59375 C 29.978691,88.557257 31.67348,90.194043 33.0625,91.90625 L 28.09375,92.9375 L 22.75,85.625 C 22.883674,85.609665 23.016412,85.592528 23.15625,85.59375 z M 107.90625,85.625 L 108.96875,90.75 L 94.625,96.125 L 94.53125,91.53125 L 107.90625,85.625 z M 22.5625,85.65625 L 27.96875,93.1875 L 33.28125,92.15625 C 33.715103,92.7059 34.111759,93.275476 34.46875,93.8125 L 28.90625,95 L 34.53125,101.8125 C 34.475072,102.16593 34.430091,102.51363 34.34375,102.8125 C 34.105593,102.8372 33.864956,102.83136 33.625,102.8125 L 26.6875,95.21875 L 22.75,95.90625 C 22.63996,95.782691 22.540998,95.656114 22.4375,95.53125 L 21.78125,94.21875 L 25.65625,93.5 L 21.625,86.6875 C 21.638645,86.469838 21.648218,86.248912 21.65625,86.03125 C 21.925605,85.824575 22.231819,85.716942 22.5625,85.65625 z M 21.59375,86.96875 L 25.375,93.375 L 21.6875,94.0625 C 21.042919,91.695687 21.425671,89.335563 21.59375,86.96875 z M 46.875,91.96875 C 45.215115,91.968747 43.425419,93.661448 42.875,95.75 C 42.324581,97.83855 43.215113,99.56251 44.875,99.5625 C 46.534885,99.5625 48.324581,97.838553 48.875,95.75 C 49.42542,93.661444 48.534887,91.968747 46.875,91.96875 z M 46.28125,92.21875 C 46.444507,92.191023 46.603855,92.19477 46.75,92.25 C 48.475885,92.249997 49.297072,94.317945 48.75,95.90625 C 48.249292,97.359948 46.380441,99.55962 44.84375,99.5 C 43.461701,99.44638 42.526316,97.440671 43.15625,95.8125 C 43.67449,94.473017 45.138452,92.412842 46.28125,92.21875 z M 34.5625,93.96875 C 34.631641,94.074523 34.715565,94.177068 34.78125,94.28125 C 34.727318,96.346723 34.868141,99.34553 34.5625,101.5625 L 29.125,95.03125 L 34.5625,93.96875 z M 26.625,95.3125 L 33,102.71875 C 31.360697,102.37047 29.731111,101.24131 28.375,100.4375 C 26.534549,99.30096 24.422757,97.755017 22.875,96.0625 L 26.625,95.3125 z M 18.90625,99.625 L 36.5,112.03125 L 35.96875,121.40625 L 17.40625,106.53125 L 18.90625,99.625 z M 58.625,112.34375 L 36.34375,121.59375 L 37,112.375 L 37.0625,112.40625 L 55.8125,105.15625 L 58.625,112.34375 z"
       id="path2308"
       sodipodi:nodetypes="cccccccccccccccccccccccccccccccccccccccccccccccccscccccccsccccccccccccccccccccscccccccccccccccccccccccccccccccccccccccccccsccscccccscccccccccccccccsccccccccccccccscccccccccccsccccccccccccccccccssscccssscccccccccccccccccccccccccccccccscccscccccsccsccccccsccccccccccccccccsccccccscccccccccccccccccccccccsccsccccccsccscccccccccccsssccsssccssscccsssccccccccccccccccssssccssssccccccccccccccccccccccccccccccccscccccccccccccccccccccccccccccccccccccccccssscccssscccccccccccccccccccccc" />
  </g>
</svg>
