<?xml version="1.0" encoding="UTF-8" standalone="no"?>
<!-- Created with Inkscape (http://www.inkscape.org/) -->
<svg
   xmlns:dc="http://purl.org/dc/elements/1.1/"
   xmlns:cc="http://creativecommons.org/ns#"
   xmlns:rdf="http://www.w3.org/1999/02/22-rdf-syntax-ns#"
   xmlns:svg="http://www.w3.org/2000/svg"
   xmlns="http://www.w3.org/2000/svg"
   xmlns:xlink="http://www.w3.org/1999/xlink"
   xmlns:sodipodi="http://sodipodi.sourceforge.net/DTD/sodipodi-0.dtd"
   xmlns:inkscape="http://www.inkscape.org/namespaces/inkscape"
   width="128"
   height="128"
   id="svg2"
   sodipodi:version="0.32"
   inkscape:version="0.45+devel"
   version="1.0"
   sodipodi:docname="blacksmith_outline.svg"
   inkscape:output_extension="org.inkscape.output.svg.inkscape">
  <defs
     id="defs4">
    <filter
       height="1.42432"
       y="-0.21216"
       width="1.2179726"
       x="-0.1089863"
       id="filter2892"
       inkscape:collect="always">
      <feGaussianBlur
         id="feGaussianBlur2894"
         stdDeviation="0.72146876"
         inkscape:collect="always" />
    </filter>
    <radialGradient
       r="8.2519293"
       fy="222.04396"
       fx="14.207293"
       cy="222.04396"
       cx="14.207293"
       gradientTransform="scale(1.39523,0.716728)"
       gradientUnits="userSpaceOnUse"
       id="radialGradient1968"
       xlink:href="#linearGradient2057"
       inkscape:collect="always" />
    <linearGradient
       inkscape:collect="always"
       id="linearGradient2057">
      <stop
         style="stop-color:#000000;stop-opacity:1;"
         offset="0"
         id="stop2059" />
      <stop
         style="stop-color:#000000;stop-opacity:0;"
         offset="1"
         id="stop2061" />
    </linearGradient>
  </defs>
  <sodipodi:namedview
     id="base"
     pagecolor="#ffffff"
     bordercolor="#666666"
     borderopacity="1.0"
     gridtolerance="10000"
     guidetolerance="10"
     objecttolerance="10"
     inkscape:pageopacity="0.0"
     inkscape:pageshadow="2"
     inkscape:zoom="1"
     inkscape:cx="64"
     inkscape:cy="64"
     inkscape:document-units="px"
     inkscape:current-layer="layer1"
     showgrid="false"
     width="744.09px"
     inkscape:window-width="1248"
     inkscape:window-height="975"
     inkscape:window-x="426"
     inkscape:window-y="24"
     showguides="true"
     inkscape:guide-bbox="true" />
  <metadata
     id="metadata7">
    <rdf:RDF>
      <cc:Work
         rdf:about="">
        <dc:format>image/svg+xml</dc:format>
        <dc:type
           rdf:resource="http://purl.org/dc/dcmitype/StillImage" />
      </cc:Work>
    </rdf:RDF>
  </metadata>
  <g
     inkscape:label="Layer 1"
     inkscape:groupmode="layer"
     id="layer1">
    <path
       style="fill:#5c2700;fill-opacity:1;fill-rule:evenodd;stroke:none;stroke-width:0.99999994000000003px;stroke-linecap:butt;stroke-linejoin:miter;stroke-opacity:1"
       d="M 73.71875 4.125 L 28.09375 21.53125 L 24.34375 18.90625 L 20.65625 16.34375 L 20.65625 16.25 L 17.8125 16.875 C 16.075182 17.083096 14.565951 17.05702 11.9375 18.15625 L 8.59375 18.875 L 8.40625 20.75 C 8.1587161 21.807152 7.6526866 22.739175 8.0625 24.125 L 7.53125 29.46875 L 5.21875 30.21875 L 7.28125 32.09375 C 7.0982618 34.67371 5.9945568 37.73528 6.46875 40.09375 L 4.8125 56.65625 L 4.75 56.65625 L 4.5625 62.6875 C 3.8695897 65.628191 4.3722915 67.55566 4.3125 69.96875 L 4.1875 73.84375 L 0.90625 75.15625 L 4.0625 77.625 L 3.71875 88.46875 C 9.2851995 94.744927 16.686208 99.874505 24.09375 105 L 24.09375 104.84375 C 26.138634 104.09157 26.066182 104.35465 32.03125 101.40625 C 32.037341 103.97404 32.456131 106.60623 33.25 109.40625 C 34.441242 108.892 35.675266 107.8168 36.875 106.46875 C 37.047133 108.41034 37.459048 110.3441 38.21875 112.28125 C 39.648712 112.9585 41.18331 112.7953 42.65625 112.21875 C 43.070603 113.65686 43.742124 115.10547 44.65625 116.625 C 47.227221 116.09563 49.109761 114.8762 50.5 113.25 L 55.65625 117.15625 L 57.34375 116.5625 L 57.6875 86.21875 L 58.6875 87 L 58.75 97.875 L 73.5 109.15625 L 74.59375 108.59375 L 74.40625 99.75 L 78.0625 102.78125 L 91.375 96.5625 L 91.375 97.59375 L 96.9375 99.6875 L 99.34375 99.59375 L 101.90625 98.3125 L 102.46875 98.78125 L 102.4375 98.03125 L 105.71875 96.34375 L 106.65625 96.96875 L 106.75 95.84375 L 111.125 93.6875 L 112.0625 94.5625 L 112.03125 93.125 L 115.5625 91.3125 L 116.4375 91.875 L 116.53125 90.9375 L 119.625 89.3125 L 117.8125 86.6875 L 115.0625 85.46875 L 117.375 84.375 L 120.375 86.1875 L 121.78125 85.1875 L 121.6875 58.15625 L 126.34375 55.84375 L 126.21875 54.34375 L 73.71875 4.125 z M 73.53125 4.6875 L 125.375 54.25 L 64.25 83.75 L 23.28125 45.9375 L 36.03125 42.09375 L 35.875 41.71875 L 34.875 26.21875 L 28.90625 22.0625 L 73.53125 4.6875 z M 71.78125 8.59375 L 71.375 8.84375 L 80.15625 18.4375 L 71.15625 22.40625 L 64.875 15.6875 L 64.375 15.84375 L 70.75 22.59375 L 57.65625 28.375 L 52.625 22.65625 L 52.3125 22.90625 L 57.28125 28.53125 L 44.3125 34.25 L 37.34375 26.34375 L 37.125 26.34375 L 44.125 34.34375 L 42.5625 35.03125 L 42.75 35.375 L 44.375 34.65625 L 60.875 53.5625 L 55.5 56.375 L 47.6875 48 L 47.375 48.09375 L 55.1875 56.53125 L 54.46875 56.90625 L 54.46875 57.1875 L 55.375 56.71875 L 56.875 58.34375 L 57.09375 58.09375 L 55.65625 56.5625 L 61.0625 53.75 L 69.8125 63.8125 L 58.09375 70.71875 L 37.53125 49.4375 L 48.71875 43.34375 L 48.28125 43.0625 L 37.28125 49.1875 L 35.09375 46.9375 L 34.65625 47.09375 L 36.90625 49.40625 L 35.375 50.25 L 35.71875 50.4375 L 37.15625 49.65625 L 57.8125 70.875 L 56.34375 71.75 L 56.5 71.9375 L 58 71.0625 L 61.40625 74.59375 L 61.5 74.25 L 58.28125 70.90625 L 70.0625 64.09375 L 73.125 67.59375 L 73.4375 67.25 L 70.4375 63.875 L 75.40625 61 L 83.375 69.84375 L 83.59375 69.6875 L 75.6875 60.84375 L 79.15625 58.84375 L 78.75 58.5625 L 75.40625 60.53125 L 72.1875 56.9375 L 71.875 57.09375 L 75.125 60.6875 L 70.21875 63.59375 L 61.375 53.59375 L 80.28125 43.75 L 80.03125 43.5625 L 61.21875 53.40625 L 44.59375 34.5625 L 57.5 28.8125 L 66.375 38.84375 L 66.6875 38.59375 L 57.90625 28.625 L 70.96875 22.8125 L 81.34375 33.78125 L 76.03125 36.5625 L 72.125 32.40625 L 71.71875 32.75 L 75.59375 36.78125 L 72.125 38.59375 L 72.46875 38.6875 L 75.75 36.96875 L 79.40625 40.75 L 79.625 40.40625 L 76.1875 36.75 L 81.5 33.96875 L 90.375 43.34375 L 90.53125 43.1875 L 81.78125 33.8125 L 87.28125 30.90625 L 87.03125 30.8125 L 81.625 33.625 L 71.34375 22.625 L 80.34375 18.625 L 81.65625 20.0625 L 81.8125 19.71875 L 80.6875 18.46875 L 83.34375 17.28125 L 83.3125 17.03125 L 80.5 18.28125 L 71.78125 8.59375 z M 66.8125 11.28125 L 42.3125 21.53125 L 40.65625 19.84375 L 40.15625 20.09375 L 41.8125 21.75 L 40.5625 22.28125 L 40.9375 22.78125 L 42.28125 22.21875 L 46.65625 26.59375 L 47 26.34375 L 42.75 22 L 67 11.53125 L 66.8125 11.28125 z M 20.15625 17.09375 L 23.59375 19.4375 C 23.963958 20.153191 24.196438 20.980513 24.625 21.65625 L 20.875 19.15625 L 14.21875 21.03125 L 22.75 28.96875 L 31.3125 26.125 L 27.21875 23.375 C 27.903796 23.432647 29.009738 23.737742 29.84375 23.78125 L 29.875 23.78125 L 33.875 26.5625 C 30.995533 27.615209 27.946909 28.84652 25.09375 29.8125 C 24.161331 28.852729 23.71752 28.845109 22.75 29.71875 C 22.540416 29.925272 22.352314 30.215744 22.25 30.625 C 22.235107 30.675255 22.23117 30.730852 22.21875 30.78125 L 18.375 27.125 C 18.396754 26.979219 18.418897 26.837849 18.4375 26.6875 C 18.511913 26.086103 18.213851 25.549976 17.875 24.90625 C 17.0822 24.191076 16.781743 23.667153 15.84375 23.0625 C 15.017847 23.132588 14.051055 22.539762 13.15625 22.125 C 13.126073 22.092933 13.093007 22.063034 13.0625 22.03125 L 10.28125 19.375 L 12.0625 18.96875 C 12.928931 20.167991 14.474925 19.732913 16 19.8125 C 17.201302 19.249994 17.649969 18.560091 18.1875 17.53125 L 20.15625 17.09375 z M 16.5625 17.40625 C 16.996763 17.403127 17.425113 17.456253 17.875 17.53125 C 17.465444 18.472024 16.837419 19.216335 15.78125 19.375 C 14.44023 19.854315 13.195891 19.480228 12.34375 18.84375 C 13.651979 17.909786 15.069625 17.416987 16.5625 17.40625 z M 9.125 19.375 L 12 22.125 C 11.666971 24.475161 12.103762 26.331457 13.5 28.21875 C 15.083333 28.270833 15.953523 30.17709 18.25 28.375 C 18.24864 28.29473 18.277033 28.207442 18.28125 28.125 L 22.09375 31.8125 C 22.082934 32.111091 22.072178 32.419329 22.0625 32.71875 C 22.101306 32.803121 22.146154 32.862235 22.1875 32.9375 L 22.125 50.03125 C 21.467582 49.292364 20.913059 49.069502 19.90625 48.9375 C 18.198305 49.146127 18.381969 49.542526 18.8125 51.15625 C 19.704523 51.988689 20.900963 52.373739 22.09375 52.59375 L 22.03125 70.09375 L 22.09375 70.09375 L 22.3125 77.90625 C 22.078829 77.816207 21.83617 77.737697 21.59375 77.625 C 20.93164 77.242903 20.347077 77.018907 19.84375 77 C 19.004871 76.968488 18.389379 77.531355 18 79.0625 C 18.034681 79.923899 19.132812 80.080909 19.9375 80.71875 C 20.868877 81.514584 21.431372 81.968557 22.4375 81.96875 L 22.5 84.59375 L 22.65625 89.59375 C 22.024461 89.433205 21.377559 89.28907 20.5625 89.28125 C 20.187649 89.277653 19.77775 89.303264 19.3125 89.375 C 18.622206 90.614993 18.94518 91.376842 19.46875 92.59375 C 20.313865 94.343304 21.2448 94.748541 22.78125 94.59375 L 23.03125 102.84375 C 22.944046 102.82086 22.866367 102.77603 22.78125 102.75 C 22.879898 101.041 22.557276 100.10282 20.9375 99.5625 C 20.842429 99.547675 20.743667 99.552012 20.65625 99.5625 C 20.122712 99.626514 19.725946 100.08832 19.3125 100.4375 C 15.667075 98.335728 12.671813 96.230094 10.03125 93.8125 C 10.396382 93.446311 10.211438 92.882568 10.4375 92.28125 C 10.556453 90.473127 10.380108 89.248942 9.375 87.8125 L 9.34375 87.75 C 8.3898801 86.968237 7.5398107 86.610483 6.6875 86.625 C 6.0419322 86.635996 5.393546 86.844896 4.71875 87.28125 L 4.9375 73.53125 L 5 70.0625 C 6.1319422 70.1718 6.9183058 71.301916 8.34375 69.6875 C 7.1775528 67.418263 7.7332146 66.380424 8.09375 64.75 C 7.204833 63.316665 6.5190017 63.214845 5.125 62.71875 L 5.21875 57.0625 L 5.25 57.0625 L 6.90625 40.375 C 8.9461692 40.723668 8.7940674 39.497887 9.03125 37.5 C 8.6463276 35.549851 10.164943 33.908514 9.8125 32.03125 C 9.4918321 31.47859 8.6774082 31.625362 7.90625 31.34375 L 8.59375 24.4375 C 9.7941246 24.424456 10.152923 24.400491 10.375 23.1875 C 10.636839 21.822415 9.9168024 21.515413 8.96875 20.75 L 9.125 19.375 z M 22.5 84.59375 C 22.415992 83.334672 21.696286 82.936976 20.65625 82.40625 C 19.336493 82.091123 17.972017 81.998903 16.625 81.84375 C 15.150638 81.85141 14.929847 82.864177 14.65625 84.125 C 14.131397 86.425341 14.598097 88.027075 16.34375 89.5625 C 17.994594 89.209467 18.556554 87.585771 19.28125 86.1875 C 20.761073 85.819013 21.585088 85.188202 22.5 84.59375 z M 24.03125 19.75 C 25.517008 20.592704 27.711655 21.102399 29.40625 23.40625 C 27.835346 23.546654 26.300811 22.928648 24.96875 21.625 C 24.550245 21.100809 24.313222 20.402703 24.03125 19.75 z M 20.28125 20.15625 L 20.3125 22.65625 C 19.183356 21.389916 17.800497 21.562459 16.25 21.78125 L 15.75 21.3125 L 20.28125 20.15625 z M 20.9375 20.21875 L 22.8125 21.4375 C 21.578132 21.512219 21.377214 22.11545 21.125 23.34375 C 21.150491 23.877235 21.319128 24.398755 21.53125 24.9375 C 23.161991 24.95488 24.169389 26.980812 26.75 23.9375 L 29.84375 25.90625 L 27.6875 26.59375 C 26.978597 25.955378 26.643264 26.046178 25.65625 26.28125 C 25.19619 26.695231 25.020227 27.013066 24.875 27.5 L 23.09375 28.09375 L 20.9375 26.09375 L 20.9375 20.21875 z M 8.96875 20.96875 C 9.7216747 21.546568 10.237826 22.256792 10.21875 23.15625 C 10.136786 24.170181 9.3698837 24.019419 8.625 24.1875 L 8.65625 23.9375 C 8.0486774 22.649785 8.812963 21.929312 8.96875 20.96875 z M 22.8125 21.6875 C 22.947276 21.682457 23.099748 21.681656 23.25 21.71875 C 23.27936 21.725998 23.313846 21.741035 23.34375 21.75 L 26.34375 23.6875 C 26.356042 23.71211 26.399759 23.763732 26.40625 23.78125 C 25.408852 25.482673 23.432646 25.594751 21.9375 24.75 C 21.426843 24.328818 21.514594 23.711693 21.5 23.40625 C 21.495656 22.454152 22.003842 21.71776 22.8125 21.6875 z M 17.53125 21.96875 C 18.433026 21.958267 19.387946 22.140106 20.03125 22.9375 C 20.18442 23.465854 18.614022 23.419624 18.03125 23.40625 L 16.5625 22.03125 C 16.872409 21.999882 17.183039 21.972798 17.53125 21.96875 z M 12.3125 22.40625 C 14.408425 23.564771 16.014267 25.894121 17.84375 27.71875 C 17.831914 27.940731 17.821131 28.132963 17.8125 28.34375 C 16.660978 29.235545 14.646376 28.404317 13.625 27.84375 C 12.231468 26.3599 11.847242 23.927582 12.3125 22.40625 z M 13.4375 22.46875 C 14.25096 22.849052 15.180459 23.364142 15.78125 23.53125 C 16.572371 23.879041 16.810318 24.557488 17.3125 25.25 C 17.499819 25.624036 18.001537 26.138711 17.9375 26.65625 C 17.932298 26.69829 17.942302 26.767108 17.9375 26.8125 C 15.959378 25.774793 14.816532 24.019963 13.4375 22.46875 z M 20.34375 23.0625 L 20.375 25.5625 L 18.3125 23.6875 C 19.02042 23.566485 19.862839 23.940208 20.34375 23.0625 z M 26.375 26.5 C 26.691514 26.510939 27.006355 26.617727 27.3125 26.71875 L 25.4375 27.34375 C 25.531659 27.067564 25.71792 26.820189 25.84375 26.5625 C 26.027953 26.511682 26.198068 26.493885 26.375 26.5 z M 9.5625 26.84375 C 9.1010001 26.807901 9.0345757 27.089734 8.46875 28.4375 C 8.4399775 29.282151 8.2615272 30.287332 9.28125 30.8125 C 10.108688 31.229201 11.064324 30.872284 12 30.9375 C 12.937221 30.742098 13.797514 31.676537 14.84375 30.5 C 14.422434 29.046276 13.085434 29.102943 11.875 28.34375 C 11.227351 28.070148 10.870401 27.142455 10.1875 26.96875 C 9.9114327 26.914041 9.7163333 26.8557 9.5625 26.84375 z M 34 27.0625 L 34.5625 34.5 C 32.721556 34.857426 31.883668 35.56971 31.875 37.3125 C 32.472826 38.785872 33.532675 38.923116 34.9375 39.21875 L 35.125 41.46875 L 34 41.8125 C 33.227893 41.218173 32.457809 40.54194 31.5625 40.5 C 29.716633 40.953585 29.034939 42.241671 28.0625 43.71875 L 22.75 45.28125 L 22.8125 33.6875 C 23.582007 34.256495 24.574508 33.996163 25.625 33.34375 C 26.32425 31.843885 26.167481 31.523165 25.53125 30.375 L 34 27.0625 z M 9.65625 27.125 C 9.786718 27.108706 9.9119901 27.121082 10.03125 27.1875 C 10.713488 27.36924 11.501034 28.297392 11.78125 28.4375 L 11.78125 28.46875 L 11.8125 28.46875 C 12.825396 28.889839 14.392255 29.731234 14.75 30.5 C 14.217961 31.243544 12.604388 30.824694 12.03125 30.65625 C 11.325001 30.448685 10.21783 31.038895 9.46875 30.65625 C 8.3629151 30.091366 8.5536784 29.004656 8.71875 28.65625 C 8.8690001 27.62083 9.2648461 27.173883 9.65625 27.125 z M 32.90625 28.71875 C 30.800761 28.972272 29.42616 29.964031 27.75 31.21875 C 26.713497 33.487151 26.980361 33.868278 29.53125 34.09375 C 31.557818 33.840559 32.971494 33.19273 33.84375 31.40625 C 34.059228 30.19363 33.508925 29.440478 32.90625 28.71875 z M 32.875 29.03125 C 33.224341 29.441849 33.701953 30.909416 33.5625 31.375 C 32.917156 33.078874 30.959601 33.644575 29.46875 33.59375 C 27.83333 33.645694 26.625994 33.740234 28.09375 31.6875 C 29.073167 30.390902 30.908951 29.172309 32.875 29.03125 z M 23.75 29.4375 C 24.103414 29.360299 24.38305 29.693837 24.65625 29.96875 C 23.979501 30.312211 23.399208 30.933445 22.6875 30.90625 C 22.647697 30.847181 22.593905 30.801322 22.5625 30.71875 C 22.627027 30.474367 23.048525 30.012401 23.15625 29.90625 C 23.372817 29.616018 23.573293 29.4761 23.75 29.4375 z M 7.46875 30.28125 L 7.34375 31.28125 L 6.65625 30.40625 L 7.46875 30.28125 z M 25.1875 30.46875 C 25.635112 31.257318 25.496371 32.234298 25.28125 33.0625 C 24.415925 34.0474 22.872877 33.229234 22.40625 32.4375 C 22.398959 32.425129 22.381756 32.4186 22.375 32.40625 C 22.38212 32.396261 22.368057 32.384817 22.375 32.375 C 22.732833 31.869072 22.866343 31.596658 22.875 31.40625 C 23.462281 31.013418 24.02703 30.574987 25.1875 30.46875 z M 19.4375 30.65625 C 17.934453 32.282795 18.642969 34.43359 18.875 36.5 C 18.041028 39.13375 18.940944 39.655687 20.1875 40 C 21.353143 39.119668 20.902198 37.763373 21.15625 36.40625 C 21.253461 35.24203 21.875 34.18058 21.875 33.125 C 21.528223 31.762328 20.579345 31.295919 19.4375 30.65625 z M 19.59375 31.0625 C 20.650402 31.197694 21.454798 32.537839 21.59375 33.21875 C 21.600391 34.322574 20.989583 35.439486 20.90625 36.4375 C 20.836595 37.271697 20.791112 39.213819 20.3125 39.8125 C 18.636408 39.773388 18.389297 37.622518 19.125 36.5625 C 18.559457 34.062933 18.565005 31.849711 19.59375 31.0625 z M 7.84375 31.75 C 8.44546 31.770044 9.5235268 31.896257 9.65625 32.125 C 9.6722542 33.851255 8.6069354 35.952373 8.75 37.75 C 8.6937307 39.564924 8.3344676 40.398219 6.9375 40.125 C 6.462117 36.913945 7.5717783 34.488896 7.84375 31.84375 L 7.84375 31.75 z M 12.25 33.09375 C 11.758083 33.105508 11.256887 33.170791 10.78125 33.34375 C 9.3802202 35.942372 10.682269 37.113929 13.4375 37.8125 C 14.759994 37.782096 15.758914 37.898838 17.3125 37.40625 C 17.880952 35.886593 17.576631 35.378123 16.625 34.1875 C 15.231882 33.626577 13.725751 33.058477 12.25 33.09375 z M 11.53125 33.28125 C 11.758007 33.262594 12.008011 33.274065 12.25 33.28125 C 13.701936 33.324362 15.434046 33.845188 16.53125 34.34375 C 17.303846 34.895441 17.255948 36.417442 17.15625 37.25 C 16.385532 37.420601 14.811258 37.750781 13.53125 37.5 C 10.981802 37.546949 9.8150628 35.332974 10.90625 33.40625 C 11.100981 33.348686 11.304493 33.299906 11.53125 33.28125 z M 100.78125 34.3125 L 97.5625 36.1875 L 95.875 34.40625 L 95.46875 34.5625 L 97.21875 36.40625 L 92.53125 39.15625 L 92.71875 39.4375 L 97.46875 36.65625 L 109.71875 49.5625 L 97 56.15625 L 93.84375 52.625 L 93.6875 52.84375 L 96.71875 56.28125 L 88.03125 60.8125 L 76.125 48.34375 L 75.625 48.34375 L 87.78125 60.9375 L 86.21875 61.75 L 86.46875 61.9375 L 88 61.15625 L 89.375 62.59375 L 89.59375 62.4375 L 88.25 61.03125 L 96.9375 56.53125 L 99.65625 59.625 L 99.90625 59.40625 L 97.21875 56.375 L 109.9375 49.78125 L 112.90625 52.90625 L 113.125 52.65625 L 110.25 49.625 L 113.71875 47.84375 L 113.53125 47.5625 L 110.03125 49.375 L 97.8125 36.4375 L 101.125 34.5 L 100.78125 34.3125 z M 34.59375 34.75 C 35.037984 35.9443 35.280294 37.20463 34.9375 39.0625 C 33.746845 38.866055 32.361737 37.933411 32.1875 37.3125 C 32.178393 35.208413 33.512898 35.009866 34.59375 34.75 z M 27.09375 35.75 C 24.525799 36.092419 23.284449 36.72695 23.46875 39 C 23.724138 41.250878 25.433571 40.764338 27.46875 40.625 C 28.558193 40.298459 29.076845 39.509048 29.6875 38.625 C 29.924348 36.317908 28.873691 35.869133 27.09375 35.75 z M 27.65625 36.03125 C 28.917586 36.101619 29.72848 37.185204 29.34375 38.375 C 29.475228 39.071359 28.592371 40.149361 27.40625 40.1875 C 25.811738 41.045658 23.692753 40.458171 23.78125 39 C 23.401638 36.674211 25.463351 35.925941 27.09375 36.0625 C 27.290328 36.028389 27.476059 36.021197 27.65625 36.03125 z M 14.5 38.40625 C 12.017213 38.847538 11.491424 39.607258 13.03125 41.6875 C 14.839854 42.635067 16.679353 43.464088 18.6875 43.875 L 18.71875 43.875 L 18.75 43.875 C 19.64493 43.862776 20.30134 43.373513 20.84375 42.65625 C 20.840629 41.063508 19.139578 40.949737 17.90625 40.59375 C 16.823069 39.573869 15.8977 38.663293 14.5 38.40625 z M 13.84375 38.78125 C 14.062865 38.772258 14.328271 38.793151 14.59375 38.84375 C 15.769758 38.814637 16.752965 39.987095 17.6875 40.625 C 18.271471 40.975795 20.535658 41.13396 20.5625 42.46875 C 20.463655 43.038147 19.374583 43.73095 18.75 43.625 C 16.935438 43.276334 14.750996 42.348017 13.09375 41.53125 C 11.934165 40.244681 12.309943 38.844197 13.84375 38.78125 z M 31.53125 40.75 C 32.164236 40.687516 32.893479 41.435665 33.625 41.96875 C 31.923503 42.758835 30.064108 43.662263 28.375 43.65625 C 29.086535 42.33881 30.21732 41.283908 31.53125 40.75 z M 10.15625 41.1875 C 9.7539471 41.181491 9.3047115 41.706187 8.4375 42.6875 C 6.8529677 44.979088 6.1958967 46.67003 8.4375 48.28125 C 10.283985 48.982865 11.529363 48.498766 12.375 46.75 L 12.375 46.6875 C 12.45659 45.349116 11.735043 44.144058 11.625 42.8125 C 10.913923 41.730221 10.558553 41.193509 10.15625 41.1875 z M 10.21875 41.5 C 10.58206 41.482585 10.88025 41.916936 11.25 42.8125 C 11.409301 44.032576 12.197158 45.582765 12.1875 46.8125 C 11.629703 48.073198 9.8761451 48.495374 8.65625 48.1875 C 6.2475285 46.832088 7.2581306 44.022739 8.84375 42.84375 C 9.4270095 41.986594 9.8554399 41.517415 10.21875 41.5 z M 14.4375 44.90625 C 13.855745 44.946998 13.328583 45.131242 12.8125 45.625 C 13.115067 48.636965 15.990393 48.097564 18.25 48.25 C 19.387214 48.231264 20.387253 47.968821 21.40625 47.53125 C 22.350804 44.852485 18.271814 45.127805 15.9375 45 C 15.613231 44.963479 15.313341 44.923081 15.03125 44.90625 C 14.819682 44.893626 14.631418 44.892667 14.4375 44.90625 z M 17.21875 45.25 C 18.403585 45.245358 19.208585 45.554653 20.53125 45.875 C 20.844903 46.031826 20.827008 46.869802 21.15625 47.15625 C 20.368658 47.673341 19.232448 47.886538 18.3125 48 C 16.043598 48.131627 13.144145 47.940294 13.09375 45.625 C 13.642693 45.05199 15.121125 45.410563 15.875 45.375 C 16.388062 45.294718 16.823805 45.251547 17.21875 45.25 z M 22.71875 46.40625 L 63.40625 83.9375 L 63.71875 85.03125 L 22.71875 47.46875 L 22.71875 46.40625 z M 22.71875 48.0625 L 24.875 50.0625 C 24.69127 49.966268 24.490769 49.880449 24.21875 49.875 L 22.71875 50.21875 L 22.71875 48.0625 z M 19.53125 49.1875 C 20.342008 49.126955 21.587555 49.744338 22.3125 50.40625 C 22.316762 50.413463 22.308352 50.4303 22.3125 50.4375 C 22.707396 51.122973 22.577532 51.7438 22.09375 52.34375 L 22.09375 52.46875 C 21.46701 52.191292 19.737939 51.938022 19 51.125 C 18.492592 49.749797 18.865066 49.237248 19.53125 49.1875 z M 8.40625 49.625 C 6.2030228 50.142636 5.6291976 51.228508 6.4375 53.1875 C 8.796962 55.891058 10.984918 56.938622 13.40625 54.59375 C 12.752228 52.685259 13.893238 50.899256 8.40625 49.625 z M 8.59375 50 C 10.641815 50.459204 13.253348 51.337005 12.96875 54.375 C 10.946828 57.174625 8.0600198 54.793981 6.8125 52.875 C 5.6315735 51.186774 6.9348028 50.046544 8.59375 50 z M 24.25 50.25 C 25.966645 50.465703 25.487722 51.137143 24.625 52.1875 C 24.310617 52.378538 23.407375 52.332537 22.6875 52.3125 C 22.845321 51.753388 22.9714 51.185167 22.75 50.53125 C 23.313393 50.416128 23.942064 50.236879 24.25 50.25 z M 25.8125 50.90625 L 28.46875 53.375 C 27.836358 53.364396 27.240699 53.499234 26.65625 53.78125 C 25.666309 54.66852 25.831521 55.567051 26.03125 56.59375 C 27.118489 57.046614 28.485165 55.94279 29.59375 55.6875 C 30.388437 55.935517 31.185424 56.594817 31.9375 56.53125 L 33.5 57.96875 L 33.46875 62.1875 C 32.801006 62.059203 32.053831 61.473541 31.40625 61.46875 C 30.154388 61.65312 28.98916 62.014292 27.8125 62.5 C 27.744752 62.548474 27.715292 62.608593 27.65625 62.65625 C 28.111328 62.397373 30.29684 61.995 31.4375 61.78125 C 32.331695 61.52651 32.699829 62.247473 33.5 62.4375 C 33.908523 62.854323 33.899311 63.507386 33.59375 64.28125 L 33.53125 64.125 C 32.84375 64.366301 32.15625 64.576745 31.46875 64.125 C 30.233573 64.213768 29.178717 64.820613 28.5625 64.6875 C 27.371201 64.912267 27.006943 63.596091 27.4375 62.90625 C 26.540578 63.821345 27.176152 64.541337 28.46875 65 C 29.2269 65.163773 30.136473 64.37475 31.4375 64.28125 C 32.124155 64.623224 32.782543 64.759589 33.46875 64.65625 L 33.40625 75.125 C 33.094199 75.094761 32.787572 75.070587 32.5 75.09375 C 31.299813 75.18296 30.046807 75.16653 29.53125 76.625 C 30.106446 78.489362 31.666554 78.663475 33.375 78.875 L 33.3125 87.90625 C 31.776901 88.047102 30.496071 88.476964 29.21875 89.40625 C 28.978649 90.175504 28.857707 90.231057 29.15625 90.71875 C 29.454793 91.206446 29.822672 91.612956 30.34375 91.6875 C 31.34458 91.78157 32.329101 91.791842 33.3125 91.6875 L 33.28125 93.84375 C 32.820893 95.201396 32.518275 96.558818 32.3125 97.90625 L 30.96875 97.28125 C 29.046752 97.879411 28.289041 98.858699 28.71875 100.6875 C 28.944481 101.07984 29.286709 101.44876 29.75 101.78125 C 28.594584 102.55871 26.339649 103.37434 24.03125 103.875 L 23.625 94.4375 L 26.84375 94.34375 C 27.354067 92.907418 27.811117 91.477005 27.28125 90.15625 C 26.04462 89.405935 24.784211 89.594126 23.4375 89.78125 L 23.09375 81.9375 C 24.386433 81.860016 26.018699 82.236588 27.25 82.25 C 30.207363 81.442032 31.615039 79.690045 28.09375 78.65625 C 26.260449 78.296247 24.789128 77.754754 23.03125 78.28125 C 23.00308 78.258094 22.968744 78.240039 22.9375 78.21875 L 22.59375 70.09375 L 22.6875 52.53125 C 23.46349 52.55848 24.328481 52.606622 24.8125 52.3125 L 25.8125 50.90625 z M 17.8125 52.625 C 17.403871 52.632821 16.98207 52.70303 16.5 52.6875 C 14.404612 52.691079 14.656265 54.010902 14.78125 55.75 C 15.153266 56.828755 15.611025 57.753562 17.25 58.125 L 17.28125 58.125 L 17.3125 58.125 C 19.716627 58.509853 20.843951 57.720401 21.5 55.46875 C 21.278257 53.915168 20.231256 53.787503 19.0625 52.90625 C 18.616588 52.671748 18.221129 52.617179 17.8125 52.625 z M 16.5 52.875 C 17.278775 52.769385 17.989354 53.040715 18.71875 53.25 C 19.607678 53.649941 21.063941 54.459054 21.28125 55.5 C 20.898822 57.324127 19.062404 57.849887 17.375 57.75 C 15.890455 57.413561 15.307198 56.275197 15.09375 55.65625 C 14.634804 54.022985 14.876837 53.029351 16.5 52.875 z M 28.40625 53.46875 C 28.476754 53.465586 28.550258 53.495037 28.625 53.5 L 31.625 56.25 C 30.998792 56.183894 30.138836 55.659916 29.5 55.4375 C 28.702894 55.592273 27.333984 56.805207 26.28125 56.375 C 25.723996 55.481759 26.434305 54.189639 26.875 54.03125 C 27.169552 53.925387 27.684626 53.501134 28.40625 53.46875 z M 125.53125 54.96875 L 125.71875 55.71875 L 64.375 85.28125 L 64.375 84.46875 L 125.53125 54.96875 z M 6.71875 56.875 C 6.2949249 56.940552 5.9138566 57.200428 5.5 57.3125 C 5.3180087 58.556318 5.432422 59.704309 6.375 60.71875 C 7.7370385 61.612746 8.9459453 62.082765 9.9375 61.78125 C 8.78625 62.015357 7.2819988 61.071356 6.5625 60.5 C 5.7434944 59.767256 5.3599796 58.186886 5.75 57.53125 C 6.0564812 57.185659 7.4034119 56.676642 7.90625 57.9375 C 9.1063228 58.560251 10.464399 59.70188 11.09375 60.8125 C 11.034953 60.938571 10.972772 61.05809 10.90625 61.15625 C 11.016326 61.036287 11.14701 60.913952 11.25 60.75 C 10.541146 59.230034 9.32167 58.872771 8.1875 57.59375 C 7.6091571 56.93822 7.1425751 56.809448 6.71875 56.875 z M 28.53125 57.0625 C 27.516413 57.083825 26.771473 58.494776 25.90625 58.96875 C 25.077674 59.13636 24.110784 58.393209 23.5 58.84375 C 23.264408 59.659549 22.555642 60.447513 24.21875 61.375 C 26.081091 61.013828 28.026641 60.586509 29.8125 59.84375 L 29.875 59.8125 C 31.851912 58.262988 30.188716 57.499648 28.53125 57.0625 z M 28.9375 57.34375 C 29.82293 57.443181 31.244501 58.539375 29.78125 59.53125 C 28.40683 60.342686 26.407756 60.998574 24.25 61.0625 C 23.002448 61.225553 23.310279 59.156955 23.6875 59 C 23.91211 58.834319 25.12014 59.296661 25.96875 59.125 C 26.763109 58.573527 27.70595 57.669691 28.59375 57.375 C 28.687539 57.345772 28.81101 57.329546 28.9375 57.34375 z M 121.375 58.25 L 121.375 84.46875 L 120.71875 84.84375 L 120.78125 58.53125 L 121.375 58.25 z M 34.0625 58.5 L 36.625 60.84375 L 35.8125 90.75 C 35.560973 90.406657 35.319996 90.05804 35.0625 89.71875 C 34.668963 90.475263 34.314311 91.227016 34 91.96875 C 34.007129 87.456574 34.024555 82.89088 34.03125 78.625 C 34.26551 77.537217 34.381011 76.423336 34.03125 75.21875 L 34.0625 58.5 z M 120.0625 58.875 L 120.125 85.46875 L 118.0625 83.9375 L 117.96875 59.90625 L 120.0625 58.875 z M 18 59.15625 C 15.962772 59.090522 14.842744 59.932461 13.375 60.53125 C 12.028741 64.033745 18.6613 63.805471 20.71875 63.625 C 21.253391 63.426761 21.521723 62.793532 21.84375 62.34375 C 21.65392 59.727687 19.487031 59.621692 18 59.15625 z M 17.34375 59.5 C 17.567576 59.501241 17.773498 59.532556 18 59.5625 C 20.193016 59.764994 23.158231 61.574707 20.65625 63.34375 C 17.279613 64.009127 12.796756 63.347833 13.65625 60.8125 C 14.318979 60.131762 15.776966 59.49131 17.34375 59.5 z M 117.75 60 L 117.84375 83.78125 L 117.53125 83.5625 L 117.4375 73.09375 L 114.625 71.375 L 114.8125 61.4375 L 117.75 60 z M 36.84375 61.0625 L 39.96875 63.9375 L 39.28125 90.46875 C 38.958413 91.628113 38.643851 92.799134 38.34375 93.96875 C 37.562012 93.083295 36.817239 92.114771 36.09375 91.125 L 36.84375 61.0625 z M 114.59375 61.53125 L 114.40625 71.25 L 111.78125 69.625 L 111.625 62.96875 L 114.59375 61.53125 z M 5.09375 63 C 6.2627879 63.392429 7.144228 63.907272 7.8125 64.78125 C 7.2239962 66.284418 7.5802618 68.077964 8 69.625 C 7.2403848 70.36778 6.0156148 70.055129 4.96875 69.84375 C 4.4153137 67.028919 4.4000549 64.371398 5.09375 63 z M 111.40625 63.09375 L 111.5 69.4375 L 108.9375 67.875 L 108.0625 68.25 L 108 64.75 L 111.40625 63.09375 z M 40.1875 64.125 L 43.0625 66.75 L 43.0625 66.78125 L 42.6875 88.9375 C 41.834667 88.176661 41.109088 87.343048 40.375 86.5 C 40.136361 87.399987 39.878793 88.30839 39.625 89.21875 L 40.1875 64.125 z M 12.03125 64.5 C 11.867711 64.503513 11.682939 64.530481 11.5 64.5625 C 9.8261255 65.47643 10.59975 66.673298 11.53125 67.875 C 13.41413 69.072636 14.125152 69.806205 17.0625 70.6875 C 17.969018 69.783114 17.597073 69.603579 17.53125 68.40625 C 17.640666 65.890593 17.489264 66.044162 15.15625 65.4375 C 13.901136 65.089075 13.176024 64.475408 12.03125 64.5 z M 12.09375 64.75 C 13.110756 64.728046 14.205905 65.59716 15.1875 65.78125 C 18.082856 66.060249 17.247798 67.187896 17.28125 68.53125 C 17.362315 69.180575 17.248457 69.730965 16.9375 70.21875 C 15.63771 69.782018 13.02086 68.977118 11.84375 67.71875 C 10.397799 66.886284 10.824489 65.072618 11.65625 64.8125 C 11.797975 64.768678 11.948463 64.753136 12.09375 64.75 z M 107.78125 64.84375 L 107.78125 68.375 L 105.15625 69.53125 L 105.3125 66.0625 L 107.78125 64.84375 z M 19.28125 65.375 C 17.957777 65.860392 19.14593 69.200911 18.96875 70.84375 C 19.025269 72.539201 16.609623 73.734993 19.25 75.96875 C 20.860945 76.122608 21.432672 75.446258 22.03125 74.125 C 22.269584 73.061606 21.832474 71.81968 21.8125 70.90625 C 22.031824 69.546601 21.886741 68.357832 21.46875 67.09375 C 21.093054 65.618115 20.671895 65.473483 19.28125 65.375 z M 19.375 65.65625 C 20.11807 65.626116 20.944899 65.700301 21.28125 67.09375 C 21.743606 68.214799 21.40143 69.804589 21.5625 71.03125 C 21.898173 71.872929 21.887109 73.03405 21.78125 74 C 21.56024 75.38915 20.100648 76.068366 19.4375 75.8125 C 17.263533 74.836717 18.404889 72.683432 19.1875 71.09375 L 19.25 71.03125 C 19.404397 69.214134 18.07691 66.63783 19.375 65.65625 z M 28.75 65.875 C 26.848537 65.915879 25.002221 66.13127 23.1875 66.90625 C 22.524941 67.566763 23.266037 68.239251 24 68.96875 C 25.327133 69.635469 25.747415 69.45231 26.8125 68.78125 C 26.985486 68.683723 27.055007 68.670002 27.375 68.75 C 28.529964 68.89758 29.319075 68.390311 30.25 67.8125 C 30.737815 67.352622 30.368389 66.979441 30.34375 66.5 C 30.026031 66.108297 29.532995 65.95206 28.8125 65.875 L 28.78125 65.875 L 28.75 65.875 z M 28.875 66.03125 C 29.542191 65.988262 30.708617 66.712536 29.96875 67.46875 C 29.035238 68.168239 27.774852 68.328873 26.6875 68.5625 C 26.044493 69.431455 24.912036 69.134443 24.15625 68.8125 C 23.415758 68.656421 23.01485 67.144564 23.34375 67.03125 C 24.812148 66.485663 27.323701 66.103761 28.875 66.03125 z M 105.03125 66.1875 L 104.96875 69.625 L 102.125 70.875 L 102.21875 67.5625 L 105.03125 66.1875 z M 43.28125 66.96875 L 46.78125 70.1875 L 46.28125 91.125 C 44.956866 90.61584 43.860999 89.942946 42.9375 89.15625 L 43.28125 66.96875 z M 101.84375 67.75 L 101.75 71.0625 L 101.15625 71.3125 L 99.375 69.9375 L 99.53125 68.875 L 101.84375 67.75 z M 109.03125 68.4375 L 116.625 73.1875 L 112.21875 75.125 L 112 74.6875 L 109.46875 75.4375 L 108.9375 74.0625 L 109.4375 72.75 L 106.96875 73.0625 L 106.28125 74.5 L 106.0625 74.15625 L 103.875 76.25 L 103.25 74.09375 L 103.40625 72.5625 L 102.21875 73.9375 C 101.94857 74.471571 100.83241 73.930993 100.21875 74.46875 L 101.84375 74.96875 L 103.40625 76.625 L 100 76.90625 L 100.6875 78.28125 L 102.6875 77.96875 L 103.25 79.125 L 99.75 80.65625 C 99.387655 80.226488 99.07315 79.773716 99.15625 79.15625 L 99.65625 77.84375 C 99.592976 77.522672 99.262965 77.392074 98.84375 77.375 C 97.586106 77.323777 95.420677 78.451529 96.40625 79.78125 L 97.75 80.03125 C 98.176692 80.328857 98.377151 80.750602 98.46875 81.21875 L 78.375 90.125 L 71.3125 84.78125 L 76.59375 82.5 L 76.59375 85.1875 L 78 85.53125 L 77.34375 86.65625 C 77.709232 87.384518 78.650742 87.786758 80.4375 87.21875 L 80.84375 86.21875 L 83.75 86.9375 L 83.78125 86.9375 L 89.21875 85.03125 L 89.25 85.03125 L 90.25 84.34375 L 89.75 82.40625 L 84.8125 81.3125 L 83.4375 80.96875 L 84.46875 79.09375 L 109.03125 68.4375 z M 99.15625 69.0625 L 99.1875 69.90625 L 98.5 69.375 L 99.15625 69.0625 z M 10.5625 69.3125 C 9.6218823 69.247556 9.3077889 69.676463 8.8125 70.40625 C 8.9102803 71.468902 9.6725009 72.104754 10.4375 72.78125 C 11.532727 73.616254 12.738286 74.081706 13.71875 74.78125 C 14.647906 75.087502 15.302647 74.47391 16.0625 74 C 16.172935 73.246257 16.472014 72.567972 16.03125 71.59375 C 14.242192 70.70538 12.519692 69.784829 10.5625 69.3125 z M 10.4375 69.5625 C 12.150874 69.773886 14.318296 71.204926 15.875 71.875 C 16.001028 72.447653 15.935663 73.662389 15.84375 73.8125 C 15.745411 73.973107 14.543014 74.442981 13.84375 74.5 C 12.802705 73.799415 11.454708 73.273972 10.5625 72.59375 C 9.8993975 72.074722 9.291346 70.836891 9.15625 70.5625 C 8.8064331 70.068855 10.246956 69.695881 10.4375 69.5625 z M 98.0625 69.625 L 100.5625 71.5625 L 84.875 78.28125 L 86.59375 75.15625 L 98.0625 69.625 z M 29.6875 70.09375 C 29.535485 70.0924 29.392319 70.107006 29.25 70.125 C 28.680724 70.196975 28.19099 70.463533 27.6875 71.0625 C 27.311115 71.938279 26.658423 72.4917 27.21875 73.71875 C 28.734 74.637731 30.184955 74.165231 31.75 73.71875 C 32.433689 73.57965 32.740783 73.044987 33.15625 72.53125 C 33.455861 70.657824 32.923914 70.536956 31.25 70.25 C 30.653171 70.182852 30.143545 70.097801 29.6875 70.09375 z M 29.40625 70.375 C 29.973692 70.341947 30.603646 70.478711 31.21875 70.5625 C 32.383981 70.704697 32.777917 71.288858 33 72.34375 C 32.915729 72.533445 32.291027 73.202844 31.59375 73.40625 C 30.445913 73.915149 28.666491 73.910238 27.46875 73.71875 C 27.240119 72.898089 27.808939 71.510314 28 71.25 C 28.333877 70.610924 28.838808 70.408053 29.40625 70.375 z M 47.0625 70.4375 L 50.0625 73.1875 L 49.6875 96.40625 C 49.622419 96.331927 49.56344 96.26921 49.5 96.1875 C 49.17271 97.057799 48.711517 97.681009 48.125 98.0625 C 48.172404 95.556089 48.244461 93.703284 48.40625 91.75 C 47.71664 91.617801 47.111741 91.426493 46.53125 91.21875 L 47.0625 70.4375 z M 5.71875 73.0625 C 5.2841126 73.305994 5.2587924 73.80768 5.15625 74.25 C 4.9511653 75.13464 5.0038667 76.046471 5.59375 76.8125 L 5.625 76.84375 L 5.6875 76.875 C 7.050484 77.998355 8.8151801 77.858518 10.46875 78.15625 C 13.290608 77.941648 13.514578 77.261543 12.65625 74.84375 C 10.573176 73.436935 8.1998055 73.008974 5.71875 73.0625 z M 108.78125 73.1875 L 108.5625 74.0625 L 107.625 74.625 L 106.875 74.40625 L 107.40625 73.375 L 108.78125 73.1875 z M 103.09375 73.21875 L 102.875 74.09375 L 101.9375 74.65625 L 101.1875 74.4375 L 102.3125 74.25 L 103.09375 73.21875 z M 6.03125 73.28125 C 7.8465648 73.336821 10.555114 73.678208 12.34375 74.90625 C 13.559727 76.87544 12.404127 78.037043 10.40625 77.84375 C 8.9233434 77.56948 7.0638203 77.829158 5.90625 76.90625 C 5.487004 76.361811 5.3609945 74.839807 5.46875 74.375 C 5.4359679 73.937023 5.8316852 73.435459 6.03125 73.28125 z M 50.28125 73.40625 L 52.96875 75.875 L 52.71875 98 C 51.739921 97.799964 50.778758 97.506605 49.9375 96.6875 L 50.28125 73.40625 z M 24.28125 73.46875 C 23.277799 73.443297 23.513674 73.987985 23.03125 74.6875 C 23.020523 76.092698 22.974896 76.503869 24.1875 77.28125 C 25.881115 77.113634 26.55072 76.425469 27.0625 74.9375 C 26.511469 73.794242 25.448594 73.678741 24.28125 73.46875 z M 24.8125 73.6875 C 25.636866 73.711527 26.512486 74.101979 26.8125 75 C 26.850834 76.128323 25.396632 76.920968 24.25 77.0625 C 22.807043 76.475826 23.049966 74.323013 24.03125 73.78125 C 24.269507 73.71663 24.537711 73.679491 24.8125 73.6875 z M 116.875 73.96875 L 116.875 83.90625 L 114.71875 84.9375 L 114.4375 84.34375 L 114.28125 79.34375 L 113.1875 76.625 L 111.0625 77.40625 L 110.8125 76.875 L 112.6875 76.03125 L 112.59375 75.84375 L 116.875 73.96875 z M 108.625 74.375 L 109.125 75.46875 L 108.59375 75.78125 L 107.875 74.78125 L 108.625 74.375 z M 102.9375 74.40625 L 103.65625 76.375 L 102.1875 74.8125 L 102.9375 74.40625 z M 105.9375 74.5 L 106.59375 75.5625 L 103.6875 77.21875 L 100.96875 77.875 L 100.46875 77.1875 L 103.8125 76.75 L 105.9375 74.5 z M 106.40625 74.71875 L 107.53125 74.9375 L 108.34375 75.90625 L 105.875 77.28125 L 106.125 77.84375 L 105.65625 78.03125 L 105.125 76.90625 L 106.875 75.5625 L 106.40625 74.71875 z M 4.15625 74.84375 L 4.09375 76.53125 L 2.90625 75.4375 L 4.15625 74.84375 z M 111.59375 75.1875 L 112.125 75.90625 L 106.90625 78.28125 L 106.375 77.34375 L 108.5625 76.21875 L 108.84375 76.09375 L 109.5625 75.71875 L 111.59375 75.1875 z M 86.40625 75.25 L 82.875 80.84375 L 81.3125 80.53125 L 84.25 76.28125 L 86.40625 75.25 z M 32 75.375 C 32.528737 75.37498 33.06627 75.456615 33.46875 75.5625 L 33.5 75.46875 C 34.023894 76.41576 33.740092 77.595972 33.40625 78.65625 C 31.873658 78.782076 30.035522 77.794766 29.875 76.53125 C 30.238345 75.624377 31.118772 75.375033 32 75.375 z M 53.09375 76 L 55.65625 78.34375 L 55 115.5 L 52.75 113.84375 L 52.8125 109.1875 C 54.048404 105.8114 54.329196 101.83266 54.4375 98.34375 C 53.934416 98.226242 53.413705 98.129091 52.90625 98.03125 L 53.09375 76 z M 83.90625 76.4375 L 81.53125 79.75 L 80.21875 80.3125 L 78.53125 79.96875 L 76.6875 81.8125 L 70.59375 84.4375 L 70.28125 93.03125 L 57.78125 82.75 L 57.75 80.25 L 64.03125 86.03125 L 83.90625 76.4375 z M 15.6875 76.59375 C 15.446858 76.63405 15.221526 76.725726 14.96875 76.78125 C 14.632268 76.992925 14.441212 77.265884 14.21875 77.5625 C 13.881896 78.286342 14.055755 79.052946 14.125 79.8125 C 14.266418 80.116456 14.621926 80.369161 14.96875 80.40625 C 16.586755 80.326264 16.529255 79.943739 17.09375 78.4375 L 16.4375 76.6875 C 16.184094 76.564526 15.928142 76.55345 15.6875 76.59375 z M 15.84375 76.78125 C 16.039338 76.781009 16.215961 76.816024 16.375 76.90625 C 16.541854 77.18491 16.891317 78.199645 16.875 78.375 C 16.161627 80.272903 15.427268 80.037791 14.9375 80.28125 C 14.443912 80.101013 14.167335 78.337646 14.59375 77.75 C 14.615489 77.174651 15.256985 76.781974 15.84375 76.78125 z M 104.78125 76.8125 L 111.78125 91.65625 L 111.9375 94.1875 L 110.125 92.34375 L 102.84375 77.6875 L 103.78125 77.46875 L 109.96875 90.53125 L 111.75 93.53125 L 110.1875 90.34375 L 103.84375 77.375 L 104.78125 76.8125 z M 113.09375 76.875 L 113.875 78.9375 L 112.21875 79.75 L 111.1875 77.6875 L 113.09375 76.875 z M 110.5625 76.96875 L 116.4375 88.90625 L 116.3125 91.5 L 114.25 89.96875 L 108.6875 77.8125 L 109.4375 77.4375 L 114.15625 87.84375 L 116.125 90.84375 L 114.6875 87.65625 L 109.53125 77.375 L 110.5625 76.96875 z M 20 77.1875 C 20.48545 77.195127 20.9895 77.436082 21.4375 77.875 C 21.847202 78.065462 22.148102 78.453954 22.34375 78.6875 L 22.4375 81.71875 C 21.560935 81.696099 20.838786 81.404874 20.09375 80.65625 L 20.09375 80.625 C 19.40645 80.273833 18.568495 79.570846 18.25 79 C 18.467131 77.788231 19.190917 77.174789 20 77.1875 z M 98.6875 77.65625 C 99.028478 77.650413 99.308749 77.745632 99.40625 78 L 98.78125 79.15625 L 97.84375 79.71875 L 96.625 79.5 C 96.013298 78.669342 97.664566 77.673761 98.6875 77.65625 z M 108.375 77.9375 L 108.625 78.46875 L 106.3125 79.46875 L 105.96875 78.71875 L 106.4375 78.5 L 106.5625 78.75 L 108.375 77.9375 z M 24.3125 78.5 C 24.466048 78.487841 24.624177 78.496485 24.78125 78.5 C 25.882188 78.524641 27.03961 78.863512 28.15625 79 C 31.200255 79.618558 28.972244 81.450402 27.40625 82 C 25.985164 81.99211 24.465315 81.596955 23.09375 81.6875 L 22.96875 78.875 C 23.408669 78.660553 23.851855 78.536476 24.3125 78.5 z M 56.125 78.78125 L 56.90625 79.5 L 56.78125 82.1875 C 56.505643 82.332717 56.25445 82.496048 56.0625 82.6875 L 56.125 78.78125 z M 108.75 78.78125 L 109.78125 80.96875 L 107.5625 82.125 L 106.4375 79.75 L 108.75 78.78125 z M 98.84375 79.46875 C 98.796928 80.006603 99.166131 80.555894 99.6875 81.09375 L 98.84375 81.40625 C 98.835308 80.636635 98.428201 80.155975 98.09375 79.875 L 98.84375 79.46875 z M 113.8125 79.5625 L 113.8125 83.0625 L 113.4375 82.28125 L 113.375 79.78125 L 113.8125 79.5625 z M 103.59375 79.75 L 103.90625 80.40625 L 102.71875 80.9375 L 102.40625 80.3125 C 102.37142 80.311562 102.34627 80.312402 102.3125 80.3125 L 103.59375 79.75 z M 113.125 79.90625 L 113.15625 81.6875 L 112.4375 80.25 L 113.125 79.90625 z M 6.53125 80.0625 C 5.791415 80.881147 5.6596968 81.827512 5.46875 82.84375 C 5.5329693 83.672599 5.9673752 84.427696 6.625 85.1875 C 8.2177703 86.826087 10.136454 87.142394 12.3125 87.34375 C 14.354724 86.463428 13.951064 86.015944 13.125 84.09375 L 11.90625 81.5625 C 10.166693 80.731446 8.4778518 80.025926 6.53125 80.0625 z M 6.8125 80.28125 C 8.6298115 80.10083 10.411205 81.123442 11.65625 81.8125 C 12.25832 82.452464 12.518779 83.681265 12.875 84.28125 C 13.573328 85.582682 13.371167 86.268373 12.46875 87.0625 C 10.332247 87.134357 8.5323807 86.271659 6.96875 85.03125 C 6.4514766 84.408544 5.9368774 83.305315 5.8125 82.8125 C 5.7155763 82.428462 6.2972073 81.020015 6.8125 80.28125 z M 78.65625 80.4375 L 84.40625 81.34375 L 83.4375 83.3125 L 77.25 82 L 78.65625 80.4375 z M 102.21875 80.65625 L 102.71875 81.375 C 100.46689 81.526313 98.555093 82.469907 97.28125 83.84375 L 97.03125 83.125 C 98.366459 81.874308 99.98925 80.931352 102.21875 80.65625 z M 104.09375 80.78125 L 105.28125 83.1875 L 102.53125 84.5625 C 102.03297 83.743283 101.52934 82.936066 101.09375 82.09375 L 101.5625 81.875 L 103.09375 81.625 L 102.90625 81.28125 L 104.09375 80.78125 z M 84.65625 81.5 L 89.46875 82.5 L 89.03125 82.9375 L 83.875 83.0625 L 84.65625 81.5 z M 110 81.5 L 110.8125 83.25 L 110.875 86.53125 L 111.0625 86.625 L 109.90625 87.1875 L 107.75 82.5625 L 110 81.5 z M 100.78125 82.0625 C 102.81679 85.959315 105.70511 88.946497 106.65625 94 L 106.53125 96.59375 L 104.46875 95.0625 C 101.30974 91.532352 100.60999 87.018507 98.90625 82.90625 L 99.6875 82.5625 L 104.375 92.9375 L 106.34375 95.9375 L 104.34375 92.46875 L 99.75 82.46875 L 100.78125 82.0625 z M 16.34375 82.09375 C 17.727061 82.150121 19.137726 82.390559 20.5 82.625 C 21.16498 82.469638 22.189763 83.601774 22.3125 84.5 C 21.278923 85.009993 20.488567 85.670626 19.03125 85.96875 C 18.939855 87.711583 17.634936 88.504423 16.4375 89.3125 C 14.528117 88.149669 14.438037 85.584384 15.03125 84.1875 C 14.911113 83.523548 15.586004 82.436535 16.34375 82.09375 z M 77.03125 82.3125 L 83.53125 83.59375 L 83.5625 86.625 L 80.96875 85.9375 L 81.65625 84.3125 C 81.233257 83.596534 80.142874 83.162504 79.09375 83.59375 L 78.21875 85.1875 L 77.03125 84.875 L 76.90625 82.34375 L 77.03125 82.3125 z M 96.9375 82.65625 C 96.823395 82.789703 96.716654 82.948489 96.59375 83.125 L 96.78125 83.53125 L 91.625 85.75 L 91.3125 88.09375 L 91.375 95.84375 L 78.28125 101.96875 L 78.46875 90.6875 L 96.9375 82.65625 z M 89.625 82.71875 L 89.90625 84.25 L 89.1875 84.8125 L 89.0625 83.25 L 89.625 82.71875 z M 56.78125 82.78125 L 74.71875 97.25 C 75.106417 97.866397 75.444321 98.458788 74.90625 98.84375 L 56.65625 84.375 C 56.114765 83.411611 56.392614 83.047052 56.78125 82.78125 z M 88.8125 83.125 L 88.96875 84.8125 L 83.78125 86.5625 L 83.65625 83.40625 L 88.8125 83.125 z M 98.65625 83.15625 C 99.055914 84.0751 99.398694 85.022267 99.75 85.96875 L 97.9375 86.84375 L 97.84375 86.625 L 99.3125 85.5 L 96.9375 85.75 L 96.53125 84.65625 L 95.8125 84.34375 L 96.9375 83.875 L 97.1875 84.4375 L 98.34375 83.28125 L 98.65625 83.15625 z M 29 83.59375 C 23.294009 83.963405 24.595451 84.666748 23.375 85.25 C 23.457046 87.308804 24.739816 88.052023 26.59375 88.375 C 27.832122 88.245912 29.072949 88.123582 30.3125 88 C 31.556863 87.068382 31.432299 86.13669 31.1875 84.71875 C 30.648716 83.861082 29.867554 83.781729 29 83.59375 z M 79.1875 83.75 C 80.024495 83.751911 80.784405 83.606771 81.1875 84.5 L 80.125 86.78125 C 78.782362 87.293589 78.040859 87.11231 77.78125 86.375 L 79.1875 83.75 z M 105.5625 83.75 L 107.75 88.1875 L 105.28125 89.3125 C 104.54863 87.859569 103.67644 86.467778 102.8125 85.0625 L 105.5625 83.75 z M 28.9375 83.96875 C 29.464547 84.091007 30.552139 83.982741 30.90625 85 C 31.23654 85.504898 30.917929 87.266576 30.25 87.875 C 29.176164 88.013072 27.813734 87.86046 26.65625 88.03125 C 25.041645 87.924742 23.636216 86.519126 23.84375 85.5 C 24.07491 84.155551 26.988865 83.914607 28.9375 83.96875 z M 95.71875 84.40625 L 96.28125 84.90625 L 96.65625 85.75 L 96.25 86 L 95.6875 85.21875 L 95.71875 84.40625 z M 111.34375 84.40625 L 112.0625 85.96875 L 111.40625 86.1875 L 111.34375 84.40625 z M 95.59375 84.46875 L 95.40625 85.34375 L 96.03125 86.125 L 94.21875 87.8125 L 95.90625 87.4375 L 96.0625 87.78125 L 94.0625 88.78125 L 92.21875 85.9375 L 95.59375 84.46875 z M 56.0625 84.6875 L 56.875 85.59375 L 56.75 115.90625 L 55.65625 116.3125 L 56.0625 84.6875 z M 71.1875 85.5625 L 77.8125 90.5 L 77.65625 101.53125 L 75.46875 99.75 C 75.74526 98.892341 76.020444 98.045159 75.46875 97.1875 L 70.9375 93.5625 L 71.1875 85.5625 z M 98.875 85.6875 L 96.96875 87.09375 L 94.75 87.46875 L 96.65625 86.0625 L 98.875 85.6875 z M 78.90625 85.84375 C 78.634522 85.86424 78.355469 85.983522 78.15625 86.25 L 78.125 86.34375 C 78.687161 85.923305 79.323261 86.160036 79.96875 86.65625 L 80.03125 86.3125 C 79.816408 86.046872 79.359131 85.8096 78.90625 85.84375 z M 91.8125 86.1875 L 93.53125 88.84375 L 91.59375 88.1875 L 91.8125 86.1875 z M 115.34375 86.1875 L 117.125 87 L 115.96875 87.5 L 115.34375 86.1875 z M 112.1875 86.21875 L 112.4375 86.78125 L 111.625 86.40625 L 112.1875 86.21875 z M 99.96875 86.5 C 100.52644 88.017143 101.07363 89.531957 101.71875 91 L 100.1875 91.71875 L 98.1875 87.34375 C 98.772983 87.050909 99.382008 86.775307 99.96875 86.5 z M 97.6875 86.8125 L 102.15625 96.71875 L 102.375 98.5 L 100.90625 97.21875 L 96.1875 87.40625 L 97.15625 87.25 L 97.6875 86.8125 z M 111.84375 86.96875 L 112.6875 87.34375 L 113.375 88.8125 L 111.15625 89.90625 L 110.15625 87.75 L 111.84375 86.96875 z M 6.71875 87.03125 C 7.5710336 87.070835 8.4409668 87.426526 9.09375 87.875 C 10.085102 89.497855 10.870876 92.006323 9.6875 93.5 C 7.9109358 91.837565 6.2851215 90.037465 4.71875 88 L 4.71875 87.78125 C 5.2646449 87.232395 5.9801042 86.996943 6.71875 87.03125 z M 40.6875 87.21875 C 41.433374 88.324814 42.276909 89.190925 43.15625 89.875 C 42.938382 92.245824 42.459158 94.52691 41.90625 96.78125 C 40.69449 96.230907 39.699265 95.402129 38.78125 94.4375 C 39.384415 91.977243 40.060538 89.547761 40.6875 87.21875 z M 117.78125 87.21875 L 119.125 89.15625 L 116.5625 90.46875 L 116.6875 88.96875 L 116.1875 87.96875 L 117.78125 87.21875 z M 59.875 88.125 L 72.375 97.65625 L 72.375 97.6875 L 72.6875 107.34375 L 59.75 97.375 L 59.875 88.125 z M 33.34375 88.21875 C 33.779571 89.384021 33.716857 90.345111 33.375 91.21875 C 32.380491 91.309897 31.422858 91.49233 30.40625 91.53125 C 29.270393 91.062257 29.294792 90.269664 29.5 89.5625 C 30.522867 88.822609 31.986562 88.496296 33.34375 88.21875 z M 96.34375 88.3125 L 98.40625 92.53125 L 95.6875 93.84375 L 95.46875 88.75 L 96.34375 88.3125 z M 91.59375 88.4375 L 93.6875 89.375 L 93.53125 96.21875 L 96.90625 96.96875 L 96.90625 99.125 L 91.71875 97.3125 L 91.59375 88.4375 z M 108.03125 88.71875 L 109.125 90.90625 L 106.46875 92.1875 C 106.23004 91.406234 105.91015 90.647051 105.5625 89.90625 L 108.03125 88.71875 z M 95.09375 88.9375 L 95.375 94.84375 L 93.96875 95.625 L 94.15625 89.40625 L 95.09375 88.9375 z M 113.59375 89.28125 L 114.0625 90.3125 L 115.3125 91.125 L 112 92.75 L 111.96875 91.625 L 111.375 90.34375 L 113.59375 89.28125 z M 20.4375 89.4375 C 21.182906 89.417254 22.009146 89.588114 22.65625 89.875 L 22.78125 94.21875 C 21.052602 94.144788 20.197951 93.576266 19.8125 92.53125 C 19.289247 91.683269 19.34464 90.433937 19.5625 89.5625 C 19.819734 89.496687 20.120723 89.446104 20.4375 89.4375 z M 25.03125 89.90625 C 25.793658 89.928414 26.556813 90.081784 27.0625 90.3125 C 27.301786 91.212889 26.904921 93.040447 26.5625 93.875 C 25.7019 93.961413 24.571354 93.874074 23.625 94.15625 L 23.4375 90.09375 C 23.701257 90.022478 23.975586 89.962284 24.28125 89.9375 C 24.526954 89.917578 24.777114 89.898862 25.03125 89.90625 z M 43.5 90.15625 C 44.849089 91.113741 46.314823 91.655258 47.8125 91.96875 C 47.679692 93.808168 47.731238 96.035828 47.6875 98.3125 C 46.97661 98.572238 46.093706 98.499661 44.96875 97.96875 C 44.406993 99.261903 43.913202 100.57149 43.5 101.90625 C 42.268733 101.0123 42.822858 101.21153 41.375 100.4375 C 41.459353 100.13838 41.541903 99.831424 41.625 99.53125 C 42.0803 98.710911 42.503735 97.911249 42.875 97.15625 C 42.673851 97.094693 42.472427 97.04396 42.28125 96.96875 C 42.829773 94.762865 43.275228 92.509001 43.5 90.15625 z M 35.09375 90.5625 C 36.635738 92.623332 38.375591 95.86848 41.78125 97.25 C 41.624586 97.873293 41.479435 98.504816 41.3125 99.125 C 39.353081 102.9674 36.772777 106.35086 33.4375 109.03125 C 31.301216 101.23381 33.019188 95.645823 35.09375 90.5625 z M 109.3125 91.3125 L 109.9375 92.5625 L 110.8125 93.375 L 106.78125 95.375 L 106.90625 94.0625 C 106.83551 93.585427 106.71616 93.114286 106.59375 92.65625 L 109.3125 91.3125 z M 13.53125 91.375 C 12.30941 91.377443 12.006637 91.852416 11.5 92.78125 C 11.398773 93.538089 11.696237 94.320772 12.0625 95 C 13.659821 96.634233 15.843677 97.427506 17.90625 98.3125 C 18.806951 98.475817 19.479748 97.716616 20.15625 97.1875 C 20.474137 96.63989 20.332689 95.993793 20.03125 95.5 C 19.428372 94.512415 18.231727 93.711148 17.28125 93.09375 L 17.25 93.0625 L 17.21875 93.0625 L 13.53125 91.375 z M 102 91.59375 C 102.35268 92.350408 102.7199 93.104058 103.15625 93.8125 L 101.5 94.59375 L 100.46875 92.3125 L 102 91.59375 z M 13.4375 91.6875 C 14.593261 92.355788 15.90698 92.856979 17.03125 93.375 C 18.201133 94.149716 19.883425 95.525699 19.9375 96.9375 C 19.844958 97.096918 18.778877 97.750498 18.09375 97.96875 C 16.188023 97.08801 13.680371 96.205621 12.34375 94.84375 C 12.061501 94.294646 11.732966 93.173504 11.78125 92.8125 C 11.715466 92.278721 13.202641 91.832029 13.4375 91.6875 z M 61.1875 91.9375 L 61.125 94.4375 L 62.4375 95.6875 L 62.4375 92.375 L 61.1875 91.9375 z M 35.1875 92.21875 C 32.506671 97.37223 32.228477 101.99203 33.78125 107.46875 C 36.501674 106.29436 39.528496 101.46958 41.25 97.96875 C 38.477517 97.120296 36.964577 94.560313 35.1875 92.21875 z M 62.8125 92.3125 L 62.75 96.1875 L 67.9375 99.8125 L 68.0625 95.75 L 62.8125 92.3125 z M 35.21875 92.84375 C 36.457814 94.499729 37.85156 97.157366 40.6875 98.15625 C 39.106926 101.69582 36.908829 104.7996 33.9375 107.1875 C 32.281229 101.1421 33.610332 96.784876 35.21875 92.84375 z M 31.375 93.0625 C 31.024252 93.067994 30.600962 93.151962 30.0625 93.21875 C 28.268677 93.265158 27.902037 94.111669 27.375 95.46875 C 27.557588 96.480736 28.052358 96.427345 28.96875 96.53125 C 29.871664 96.430638 30.960964 96.081483 31.59375 96.125 C 32.783321 95.577082 32.604487 94.787801 32.875 94.125 C 32.367844 93.270195 31.959579 93.053344 31.375 93.0625 z M 98.6875 93.125 L 99.84375 95.46875 L 98.71875 95.96875 L 95.75 95 L 95.71875 94.53125 L 98.6875 93.125 z M 31.1875 93.34375 C 31.478326 93.320814 31.762094 93.32897 32 93.34375 C 32.477729 94.052324 33.049942 94.801126 31.53125 95.71875 C 30.58074 95.70084 29.06891 96.207409 28.40625 96.28125 C 26.921927 95.768698 28.127534 94.436477 28.59375 93.84375 C 29.290022 93.62689 30.315022 93.412558 31.1875 93.34375 z M 103.40625 94.1875 C 103.67885 94.606229 103.96771 95.010913 104.28125 95.40625 L 105.375 96.125 L 102.4375 97.625 L 102.40625 96.5625 L 101.6875 95 L 103.40625 94.1875 z M 95.59375 95.09375 L 98.1875 96.25 L 97.375 96.625 L 94.3125 95.78125 L 95.59375 95.09375 z M 25.0625 95.6875 C 24.792478 95.702678 24.504848 95.931192 24.1875 96.65625 C 23.556224 97.238499 24.203881 99.303584 24.375 100.34375 C 24.237798 100.93539 24.338235 101.5329 24.34375 102.125 C 24.609541 102.53057 24.401037 103.13007 25.40625 103.21875 C 26.583244 103.04569 26.795778 102.9771 27.3125 102.0625 C 27.503085 101.28737 27.458891 100.47169 27.5 99.78125 C 27.601319 98.347298 27.10052 97.282383 26.375 96.125 C 25.919348 96.234514 25.512537 95.662203 25.0625 95.6875 z M 100.03125 95.84375 L 100.78125 97.375 L 101.59375 98.03125 L 99.59375 99.0625 L 97.8125 96.90625 L 100.03125 95.84375 z M 68.4375 96.0625 L 68.3125 99.625 L 70.1875 99.875 L 70.4375 97.875 L 68.4375 96.0625 z M 25.15625 96.09375 C 25.638872 96.007264 26.074142 96.235925 26.1875 96.375 C 26.610622 96.822656 27.249544 98.466216 27.21875 99.875 C 27.469789 103.07753 25.59844 103.58553 24.5625 102.21875 C 24.493959 101.83239 24.619262 101.03097 24.71875 100.28125 C 24.536841 99.13096 24.421499 97.81425 24.28125 96.65625 C 24.561906 96.30306 24.866677 96.145642 25.15625 96.09375 z M 62.75 96.6875 L 62.6875 97.0625 L 61.75 97.5625 L 68.5625 102.9375 L 67.6875 101.25 L 67.5 100.125 L 62.75 96.6875 z M 49.71875 96.9375 C 50.470401 97.700988 52.118194 98.672503 53.875 98.75 C 53.788871 102.48859 53.583896 106.38318 52.375 109.375 C 51.988223 110.33221 51.46494 111.21417 50.8125 112.03125 C 49.622289 111.55072 48.591468 111.30353 48.3125 110.78125 L 48.28125 110.875 C 48.641932 111.55027 49.029752 112.3002 50.09375 112.84375 C 49.651896 113.3001 49.160025 113.75305 48.625 114.15625 C 47.195716 113.67718 46.620496 113.01412 46.03125 112.28125 L 45.96875 112.40625 C 46.471207 113.03117 46.530283 113.98586 48.03125 114.5625 C 47.122578 115.17698 46.114164 115.71697 44.96875 116.1875 C 43.424118 113.4201 42.647429 110.45059 42.90625 107.6875 C 43.163771 104.93829 44.091418 101.50105 45.21875 98.625 C 47.42068 99.649829 48.68286 98.835713 49.71875 96.9375 z M 97.53125 97.375 L 99 99.21875 L 97.40625 99.25 L 97.53125 97.375 z M 31.03125 97.625 C 31.480449 97.73145 31.863442 97.976068 32.25 98.21875 C 32.127498 99.10252 32.049709 99.98283 32.03125 100.875 C 31.481675 101.21212 30.834385 101.49233 29.9375 101.6875 C 29.544104 101.28402 29.145161 100.69799 29.03125 100.5 C 28.523663 98.999735 29.618719 97.641259 31.03125 97.625 z M 73.375 98.46875 L 73.75 98.75 L 74.25 108.0625 L 73.5 108.34375 L 73.375 98.46875 z M 20.78125 100.03125 C 20.95436 100.03162 21.148523 100.07586 21.34375 100.15625 C 21.670268 100.60685 22.320566 101.79533 22.5625 102.6875 C 21.365395 102.27644 20.387304 101.54483 19.53125 100.625 C 19.959358 100.29245 20.336358 100.03031 20.78125 100.03125 z M 41.21875 100.90625 C 42.777819 101.7361 42.556497 101.63583 43.40625 102.25 C 42.878004 104.01558 42.477259 105.8171 42.21875 107.65625 C 42.088004 109.05205 42.203191 110.38592 42.53125 111.71875 C 41.387265 112.12844 40.010374 112.31194 38.625 112.1875 C 39.074949 108.32708 40.157728 104.64624 41.21875 100.90625 z M 40.8125 100.9375 C 39.817903 104.53704 38.822797 108.13668 38.375 111.96875 C 37.690462 110.05345 37.365583 108.06527 37.28125 106.03125 C 38.542373 104.53737 39.748613 102.72423 40.8125 100.9375 z M 52.59375 109.75 L 52.53125 113.6875 L 51.03125 112.5625 C 51.6539 111.70408 52.180551 110.76462 52.59375 109.75 z "
       id="path2308" />
  </g>
</svg>
