<?xml version="1.0" encoding="UTF-8" standalone="no"?>
<!-- Created with Inkscape (http://www.inkscape.org/) -->
<svg
   xmlns:dc="http://purl.org/dc/elements/1.1/"
   xmlns:cc="http://creativecommons.org/ns#"
   xmlns:rdf="http://www.w3.org/1999/02/22-rdf-syntax-ns#"
   xmlns:svg="http://www.w3.org/2000/svg"
   xmlns="http://www.w3.org/2000/svg"
   xmlns:xlink="http://www.w3.org/1999/xlink"
   xmlns:sodipodi="http://sodipodi.sourceforge.net/DTD/sodipodi-0.dtd"
   xmlns:inkscape="http://www.inkscape.org/namespaces/inkscape"
   width="128"
   height="128"
   id="svg2"
   sodipodi:version="0.32"
   inkscape:version="0.45+devel"
   version="1.0"
   sodipodi:docname="bridge_stone2_outline.svg"
   inkscape:output_extension="org.inkscape.output.svg.inkscape">
  <defs
     id="defs4">
    <filter
       height="1.42432"
       y="-0.21216"
       width="1.2179726"
       x="-0.1089863"
       id="filter2892"
       inkscape:collect="always">
      <feGaussianBlur
         id="feGaussianBlur2894"
         stdDeviation="0.72146876"
         inkscape:collect="always" />
    </filter>
    <radialGradient
       r="8.2519293"
       fy="222.04396"
       fx="14.207293"
       cy="222.04396"
       cx="14.207293"
       gradientTransform="scale(1.39523,0.716728)"
       gradientUnits="userSpaceOnUse"
       id="radialGradient1968"
       xlink:href="#linearGradient2057"
       inkscape:collect="always" />
    <linearGradient
       inkscape:collect="always"
       id="linearGradient2057">
      <stop
         style="stop-color:#000000;stop-opacity:1;"
         offset="0"
         id="stop2059" />
      <stop
         style="stop-color:#000000;stop-opacity:0;"
         offset="1"
         id="stop2061" />
    </linearGradient>
  </defs>
  <sodipodi:namedview
     id="base"
     pagecolor="#ffffff"
     bordercolor="#666666"
     borderopacity="1.0"
     gridtolerance="10000"
     guidetolerance="10"
     objecttolerance="10"
     inkscape:pageopacity="0.0"
     inkscape:pageshadow="2"
     inkscape:zoom="1"
     inkscape:cx="43.281656"
     inkscape:cy="77.580446"
     inkscape:document-units="px"
     inkscape:current-layer="layer1"
     showgrid="false"
     width="744.09px"
     inkscape:window-width="1248"
     inkscape:window-height="975"
     inkscape:window-x="426"
     inkscape:window-y="24"
     showguides="true"
     inkscape:guide-bbox="true" />
  <metadata
     id="metadata7">
    <rdf:RDF>
      <cc:Work
         rdf:about="">
        <dc:format>image/svg+xml</dc:format>
        <dc:type
           rdf:resource="http://purl.org/dc/dcmitype/StillImage" />
      </cc:Work>
    </rdf:RDF>
  </metadata>
  <g
     inkscape:label="Layer 1"
     inkscape:groupmode="layer"
     id="layer1">
    <path
       style="fill:#5c2700;fill-opacity:1;fill-rule:evenodd;stroke:none;stroke-width:1px;stroke-linecap:butt;stroke-linejoin:miter;stroke-opacity:1"
       d="M 35.1875,31.65625 L 17.46875,32.125 L 14.25,34.65625 L 17.78125,34.8125 C 14.32961,36.215638 11.650389,38.008736 9.375,40 L 6.46875,40.59375 L 3.21875,42.375 L 3.25,43.3125 L 10.78125,53.71875 L 14.8125,56.46875 C 20.835399,51.889338 27.53498,52.395168 33.21875,57.3125 C 36.717662,60.700461 41.144222,66.324341 40.65625,72.6875 L 45.40625,76.0625 C 53.865075,68.736808 62.901087,71.39113 70.375,78.40625 C 79.363463,87.402691 82.025784,97.772435 85.03125,108.0625 L 99.125,112.40625 L 102.625,109.0625 L 100.59375,106.5 C 106.60051,101.01534 111.90293,99.650119 119.40625,87.28125 L 122.71875,90.3125 L 126.8125,87.625 L 107.53125,63.28125 L 106.65625,62.8125 L 35.1875,31.65625 z M 35.3125,32.15625 L 34.5,33.90625 L 15.25,34.34375 L 17.5625,32.625 L 35.3125,32.15625 z M 35.46875,32.40625 L 106.625,63.71875 L 104.96875,65.34375 L 34.84375,33.875 L 35.46875,32.40625 z M 34.21875,34.375 L 104.5,65.75 L 120.15625,86.0625 L 103.96875,67.25 L 34.1875,34.9375 L 20.84375,34.875 L 34.21875,34.375 z M 17.90625,34.9375 L 33.6875,37.15625 L 101.3125,69.28125 L 119.21875,87 C 116.11807,93.583669 107.61167,100.94946 100.3125,106.28125 L 79.5625,70.90625 L 18.5,38.78125 L 9.78125,40.03125 C 11.652854,38.173681 14.197403,36.436993 17.90625,34.9375 z M 22.15625,35.15625 L 34.0625,35.375 L 103.65625,67.375 L 117.96875,84.5 L 101.59375,68.8125 L 101.53125,68.78125 L 101.46875,68.75 L 33.875,36.71875 L 22.15625,35.15625 z M 18.8125,35.3125 L 17.0625,36.6875 L 15.40625,36.4375 L 15.21875,36.625 L 16.78125,36.875 L 14.65625,38.53125 L 15.15625,38.8125 L 17.34375,36.96875 L 21.4375,37.65625 L 20.53125,38.53125 L 21.125,38.625 L 22.0625,37.75 L 23.25,37.9375 L 23.53125,37.625 L 22.375,37.46875 L 23.375,36.5 L 22.9375,36.1875 L 21.71875,37.375 L 17.59375,36.75 L 18.9375,35.625 L 18.8125,35.3125 z M 18.4375,39.71875 L 17.40625,40.78125 L 4.125,42.25 L 6.71875,41 L 18.4375,39.71875 z M 31.90625,39.875 L 31.8125,40.21875 C 31.853023,40.237945 32.550448,40.588881 32.625,40.625 L 30.65625,42.6875 L 28.9375,41.6875 L 28.75,41.8125 L 30.40625,42.9375 L 29.59375,43.8125 L 30,44.09375 L 30.8125,43.21875 L 32.90625,44.65625 L 32.90625,43.96875 L 31.09375,42.9375 L 33.09375,40.84375 C 33.791761,41.183723 37.040307,42.81398 39.1875,43.875 L 36.90625,46.28125 L 37.1875,46.53125 L 39.59375,44.0625 C 44.13767,46.30838 46.255255,47.35588 52.09375,50.25 L 51.53125,51 L 51.90625,51.34375 L 52.5625,50.46875 C 57.971954,53.150312 63.196516,55.743156 64.28125,56.28125 L 62.28125,58.4375 C 59.731468,57.611558 57.24217,56.915429 55.25,56 L 56.5625,54.46875 L 56.375,54.375 L 54.875,55.84375 C 51.557441,54.224536 48.999888,52.642298 48.6875,52.46875 L 48.34375,52.96875 C 48.826027,53.236682 51.136877,54.375505 54.46875,56 C 54.515105,56.022601 54.57764,56.039883 54.625,56.0625 L 54.0625,56.625 L 54.625,56.6875 L 55,56.25 C 56.859033,57.096788 59.352156,57.948236 61.90625,58.875 L 61.03125,59.8125 L 61.21875,60.15625 L 62.3125,59.03125 C 64.298928,59.756724 66.286774,60.513906 68,61.34375 C 68.523923,61.597525 69.022756,61.838719 69.53125,62.09375 L 68.1875,63.1875 L 68.5625,63.375 L 69.9375,62.3125 C 72.212608,63.463679 74.301778,64.616938 76.125,65.65625 L 74.5,67.03125 L 74.90625,67.40625 L 76.625,65.90625 C 78.595147,67.03889 80.064125,67.950884 81.1875,68.65625 L 80.71875,69.03125 L 80.59375,69.5625 L 81.5,68.875 C 82.453612,69.477341 83.09375,69.875 83.09375,69.875 L 83.53125,68.96875 C 83.53125,68.96875 83.025094,68.702435 82.28125,68.28125 L 85.71875,65.625 C 87.205015,66.607878 88.768503,67.580633 90.34375,68.5625 L 85.03125,73.03125 L 85.4375,73.40625 C 87.077741,71.657338 88.633727,70.011778 90.5625,68.71875 C 91.56027,69.340686 92.579089,69.973278 93.5,70.5625 L 93.84375,70.34375 C 92.979998,69.789837 91.925087,69.128377 90.90625,68.5 C 91.464796,68.145925 92.054156,67.822754 92.6875,67.53125 L 92.375,66.84375 L 90.625,68.3125 C 89.030258,67.329971 87.452509,66.386924 85.96875,65.4375 L 87,64.65625 L 86.375,64.4375 L 85.5,65.125 C 85.180558,64.918208 84.825745,64.696619 84.53125,64.5 L 84.71875,64.96875 C 84.898724,65.091561 85.096437,65.219977 85.28125,65.34375 L 81.90625,68.0625 C 80.806685,67.442662 79.121893,66.498213 77.15625,65.4375 L 78.53125,64.21875 L 78.1875,63.90625 L 76.6875,65.1875 C 74.790937,64.168199 72.750733,63.103568 70.4375,61.9375 L 75.5625,58 L 75.15625,57.625 L 70.03125,61.71875 C 69.137242,61.270229 68.233109,60.82092 67.3125,60.375 C 65.818556,59.651371 64.267823,59.105359 62.71875,58.59375 L 64.71875,56.5 C 64.811211,56.545867 66.03125,57.15625 66.03125,57.15625 L 66.28125,56.75 C 66.288032,56.722872 65.767602,56.436795 65.125,56.09375 L 66.75,54.40625 L 66.28125,54.125 L 64.6875,55.84375 C 62.455985,54.672884 57.828452,52.352456 52.96875,49.9375 L 54.03125,48.5 L 53.59375,48.28125 L 52.5,49.71875 C 48.119323,47.543882 43.905959,45.444231 40.0625,43.59375 L 41.59375,42.03125 L 41.25,41.6875 L 39.625,43.40625 C 37.068482,42.177428 34.786878,41.099918 33.4375,40.5 L 33.78125,40.125 L 33.3125,39.875 L 32.9375,40.28125 C 32.440365,40.067116 32.045611,39.905353 31.90625,39.875 z M 18.75,39.96875 L 78.9375,71.46875 L 77.84375,72.53125 L 17.90625,40.90625 L 18.75,39.96875 z M 17,41.5 L 77.34375,73.15625 L 93.59375,103.125 L 76.28125,73.875 L 16.84375,42.625 L 3.84375,42.75 L 17,41.5 z M 16.65625,42.96875 L 76.09375,74.0625 L 97.53125,110.90625 L 86.96875,106.40625 C 85.843886,98.516616 81.678273,88.390787 74.5,79.5625 C 70.871028,75.099365 66.55789,71.468707 61.5625,69.96875 C 56.656763,68.495709 51.311646,69.790778 45.34375,73.6875 L 42.21875,71.75 C 42.436476,66.064022 39.477832,60.180102 35.78125,56.1875 C 29.529333,50.033402 22.308239,49.542453 14.9375,53.75 L 10.96875,53.625 L 3.375,43.28125 L 16.65625,42.96875 z M 11.28125,45.125 L 10.625,46.375 C 10.286571,46.116747 9.9518019,45.863629 9.59375,45.625 L 9.46875,45.84375 L 10.40625,46.75 L 9.75,47.96875 L 10.03125,48.0625 C 10.248964,47.705572 10.471959,47.355841 10.6875,47 L 12.5,48.75 L 12.6875,48.5625 C 12.232339,47.783059 11.618279,47.147574 10.9375,46.59375 C 11.22299,46.10818 11.467423,45.624738 11.65625,45.1875 L 11.28125,45.125 z M 15.78125,45.46875 L 15.21875,47.25 C 14.889248,47.009105 14.545866,46.775327 14.21875,46.53125 L 14.15625,46.8125 L 15.0625,47.625 L 14.25,50.15625 L 14.4375,50.09375 C 14.733868,49.328352 15.121299,48.670293 15.46875,47.96875 L 17.90625,50.15625 L 17.625,50.71875 L 17.90625,50.84375 L 18.1875,50.40625 L 18.84375,51 L 19.125,50.71875 C 18.916458,50.457563 18.694606,50.206851 18.46875,49.96875 L 19.34375,48.625 L 18.71875,48.5 L 18.15625,49.65625 C 17.37544,48.884922 16.531184,48.208329 15.65625,47.5625 C 15.915969,46.967683 16.124302,46.309217 16.1875,45.46875 L 15.78125,45.46875 z M 24.1875,51.3125 C 28.148659,51.307483 32.053144,52.91516 35.65625,56.40625 C 41.682826,62.683656 42.569814,71.727558 41.9375,71.75 L 45.25,73.9375 C 50.317451,70.369544 55.498148,68.989709 61.46875,70.21875 C 66.2059,71.641162 70.881364,75.470192 74.4375,79.84375 C 79.167192,86.587125 84.825028,93.783734 86.71875,106.71875 L 97.5,111.1875 L 85.84375,107.3125 C 83.684518,96.994513 78.298393,85.173866 71.0625,77.75 C 63.435941,69.673644 54.235758,68.676808 45.28125,75.03125 L 41.5625,72.21875 C 41.524276,67.566358 38.461772,61.184795 33.6875,56.84375 C 27.854328,51.423507 21.29224,51.625801 14.8125,55.53125 L 11.46875,53.875 L 14.9375,54.125 C 18.001433,52.296782 21.106598,51.316402 24.1875,51.3125 z M 44.71875,58.46875 L 43.75,60.53125 C 43.531281,60.407273 43.315419,60.27826 43.09375,60.15625 L 43.28125,60.78125 C 43.368744,60.842295 43.443919,60.908195 43.53125,60.96875 L 42.96875,62.1875 L 43.3125,62.40625 C 43.553699,62.014084 43.767245,61.610916 43.9375,61.21875 C 45.20347,62.088293 46.453516,62.913914 47.6875,63.6875 C 47.505662,64.408546 47.361329,65.144139 47.21875,65.875 L 45.90625,64.90625 L 45.8125,65.15625 L 47.15625,66.1875 C 46.99015,67.078206 46.849216,67.967573 46.75,68.875 L 47,68.8125 C 47.292823,68.110297 47.522126,67.375302 47.71875,66.625 L 50.3125,68.59375 L 50.59375,68.375 L 47.78125,66.3125 C 47.964269,65.567525 48.13019,64.80783 48.25,64.03125 C 49.02368,64.509473 49.799967,64.992716 50.5625,65.4375 L 50.59375,65.15625 C 49.870917,64.562246 49.122258,63.994387 48.34375,63.4375 C 48.443861,62.711464 48.520318,61.989375 48.59375,61.25 L 48.34375,61.375 C 48.16858,61.945092 47.997326,62.518259 47.84375,63.09375 C 46.661243,62.271087 45.420774,61.497152 44.125,60.75 C 44.42179,59.991137 44.649708,59.227613 44.96875,58.46875 L 44.71875,58.46875 z M 106.84375,63.9375 L 125.4375,87.40625 L 122.96875,89.03125 L 105.375,65.28125 L 106.84375,63.9375 z M 79.125,71.96875 L 101.34375,109 L 98.96875,111.15625 L 78.09375,72.625 L 79.125,71.96875 z M 99.84375,75.40625 L 94.6875,79.71875 C 94.094122,79.017034 93.528171,78.29439 93,77.5625 L 92.59375,77.6875 C 93.140685,78.485131 93.71618,79.268252 94.3125,80.03125 L 93.25,80.9375 L 93.4375,81.21875 L 94.53125,80.28125 C 95.714845,81.779161 96.954963,83.231104 98.1875,84.6875 L 93.21875,89.25 L 93.625,89.6875 L 98.53125,85.09375 C 98.583511,85.155807 98.635346,85.219141 98.6875,85.28125 C 100.26849,87.162506 101.69073,88.784226 102.78125,90 L 102.25,90.4375 L 102.96875,90.8125 L 103.28125,90.53125 C 103.73787,91.035264 104.375,91.75 104.375,91.75 L 104.65625,91.46875 C 104.65625,91.46875 104.05599,90.754191 103.625,90.21875 L 109.59375,84.90625 C 110.532,85.824007 111.57157,86.631812 112.53125,87.5625 C 112.71749,87.741882 112.86105,87.915269 113.03125,88.09375 C 109.05974,92.877482 104.94976,96.848351 100.40625,100.46875 L 100.5625,100.8125 C 105.45137,97.420015 109.84943,93.379794 113.46875,88.5625 C 114.68435,89.925335 115.40625,91.09375 115.40625,91.09375 L 116,90.53125 C 116,90.53125 115.09471,89.422201 113.8125,88.09375 C 114.13793,87.649859 114.46937,87.207055 114.78125,86.75 L 114.34375,86.46875 C 114.02352,86.872012 113.69677,87.264025 113.375,87.65625 C 113.1868,87.466922 113.01204,87.285945 112.8125,87.09375 C 111.91279,86.249493 110.90054,85.425805 109.96875,84.5625 L 111.65625,83.0625 L 111.5,82.8125 L 109.6875,84.3125 C 109.29704,83.938064 108.92937,83.562346 108.59375,83.15625 L 108.34375,83.5 C 108.63408,83.900199 108.94482,84.276348 109.28125,84.625 L 103.1875,89.65625 C 102.18281,88.415542 100.84039,86.761505 99.28125,84.90625 C 99.201728,84.811576 99.111765,84.719427 99.03125,84.625 L 99.625,84.09375 L 99.40625,83.59375 L 98.6875,84.25 C 97.451914,82.825953 96.146925,81.417764 94.90625,79.96875 L 100.15625,75.5625 L 99.84375,75.40625 z M 89.5625,98.65625 L 89.1875,98.75 C 88.419927,100.36761 88.308325,102.24868 88.1875,104.125 C 87.837142,103.98608 87.512977,103.86667 87.25,103.71875 L 87.03125,103.96875 C 87.270951,104.10358 87.714316,104.32464 88.15625,104.5625 C 88.121139,105.08101 88.090517,105.58491 88.03125,106.09375 L 88.4375,105.84375 L 88.59375,104.8125 C 89.170917,105.14403 89.820901,105.55102 90.5625,106.125 C 90.909644,106.39368 91.269978,106.62397 91.59375,106.84375 L 91.375,108 L 91.84375,107.53125 L 91.9375,107.09375 C 92.938369,107.74444 93.6875,108.125 93.6875,108.125 L 93.96875,108 C 93.96875,108 92.864916,107.14662 92.03125,106.5 L 92.46875,104.34375 L 92.0625,104.25 L 91.6875,106.25 C 91.314877,105.96113 91.323618,105.94803 90.90625,105.625 C 90.054044,104.96542 89.322955,104.61199 88.6875,104.34375 L 89.5625,98.65625 z"
       id="path2308" />
  </g>
</svg>
