<?xml version="1.0" encoding="UTF-8" standalone="no"?>
<!-- Created with Inkscape (http://www.inkscape.org/) -->
<svg
   xmlns:dc="http://purl.org/dc/elements/1.1/"
   xmlns:cc="http://creativecommons.org/ns#"
   xmlns:rdf="http://www.w3.org/1999/02/22-rdf-syntax-ns#"
   xmlns:svg="http://www.w3.org/2000/svg"
   xmlns="http://www.w3.org/2000/svg"
   xmlns:xlink="http://www.w3.org/1999/xlink"
   xmlns:sodipodi="http://sodipodi.sourceforge.net/DTD/sodipodi-0.dtd"
   xmlns:inkscape="http://www.inkscape.org/namespaces/inkscape"
   width="128"
   height="128"
   id="svg2"
   sodipodi:version="0.32"
   inkscape:version="0.45+devel"
   version="1.0"
   sodipodi:docname="bridge_wood_outline.svg"
   inkscape:output_extension="org.inkscape.output.svg.inkscape">
  <defs
     id="defs4">
    <filter
       height="1.42432"
       y="-0.21216"
       width="1.2179726"
       x="-0.1089863"
       id="filter2892"
       inkscape:collect="always">
      <feGaussianBlur
         id="feGaussianBlur2894"
         stdDeviation="0.72146876"
         inkscape:collect="always" />
    </filter>
    <radialGradient
       r="8.2519293"
       fy="222.04396"
       fx="14.207293"
       cy="222.04396"
       cx="14.207293"
       gradientTransform="scale(1.39523,0.716728)"
       gradientUnits="userSpaceOnUse"
       id="radialGradient1968"
       xlink:href="#linearGradient2057"
       inkscape:collect="always" />
    <linearGradient
       inkscape:collect="always"
       id="linearGradient2057">
      <stop
         style="stop-color:#000000;stop-opacity:1;"
         offset="0"
         id="stop2059" />
      <stop
         style="stop-color:#000000;stop-opacity:0;"
         offset="1"
         id="stop2061" />
    </linearGradient>
  </defs>
  <sodipodi:namedview
     id="base"
     pagecolor="#ffffff"
     bordercolor="#666666"
     borderopacity="1.0"
     gridtolerance="10000"
     guidetolerance="10"
     objecttolerance="10"
     inkscape:pageopacity="0.0"
     inkscape:pageshadow="2"
     inkscape:zoom="1"
     inkscape:cx="21.611007"
     inkscape:cy="81.945223"
     inkscape:document-units="px"
     inkscape:current-layer="layer1"
     showgrid="false"
     width="744.09px"
     inkscape:window-width="1248"
     inkscape:window-height="975"
     inkscape:window-x="426"
     inkscape:window-y="24"
     showguides="true"
     inkscape:guide-bbox="true" />
  <metadata
     id="metadata7">
    <rdf:RDF>
      <cc:Work
         rdf:about="">
        <dc:format>image/svg+xml</dc:format>
        <dc:type
           rdf:resource="http://purl.org/dc/dcmitype/StillImage" />
      </cc:Work>
    </rdf:RDF>
  </metadata>
  <g
     inkscape:label="Layer 1"
     inkscape:groupmode="layer"
     id="layer1">
    <path
       style="fill:#5c2700;fill-opacity:1;fill-rule:evenodd;stroke:none;stroke-width:1px;stroke-linecap:butt;stroke-linejoin:miter;stroke-opacity:1"
       d="M 47.34375 26.5625 C 46.538942 26.611312 45.702104 27.039752 44.75 27.40625 L 44.9375 34.96875 L 39.9375 37.3125 C 39.49127 37.688967 39.553982 37.251129 39.5 37 L 39.84375 33.71875 L 38.28125 34.65625 C 36.440608 33.036268 36.102573 33.762083 34.40625 34.6875 L 34.375 34.40625 L 29.75 36.84375 L 30.1875 34.25 L 26.5625 36.25 L 26.40625 35.0625 L 22.5 36.25 L 22.59375 33.28125 C 21.580882 32.796534 21.065702 32.588774 19.9375 33.71875 L 19.84375 35.90625 C 19.493905 35.906045 19.103642 35.843779 19.28125 36.6875 C 19.457859 36.850599 19.616623 36.951116 19.78125 37.0625 L 19.75 37.5625 C 15.904113 39.725935 12.269387 42.213512 8.65625 44.75 L 8.6875 43.8125 C 7.6746326 43.327786 6.6594524 42.901274 5.53125 44.03125 L 5.40625 46.15625 C 4.7736869 46.183271 5.0212175 46.593632 5.03125 46.90625 C 5.100829 46.987282 5.1772844 47.050564 5.25 47.125 C 4.4068605 47.719718 3.5673258 48.321607 2.71875 48.90625 L 1.625 53.90625 L 7.25 51.3125 L 7.03125 53.8125 L 12.8125 50.90625 L 13.03125 50.9375 L 11.625 54.59375 L 17.875 51.46875 L 16.5625 54.21875 L 21.4375 52.6875 L 21.875 56.1875 L 25.03125 54.15625 L 23.875 56.09375 C 25.62766 55.42154 27.327016 55.069153 29.1875 53.75 L 27.21875 57.375 L 33.90625 56.625 L 32.40625 59.625 L 34.25 59.5 L 34.53125 68.15625 C 36.273383 70.321894 37.324314 69.216976 38.15625 68.84375 L 38.15625 62.75 L 42.71875 61.5 L 41.4375 64.21875 L 47.34375 63.84375 L 46.09375 67.03125 L 52.03125 66.6875 L 50.5625 70.84375 L 57.0625 71.15625 L 53.90625 74.96875 L 62.125 73.59375 L 59.5 77.875 L 67.65625 76.9375 L 65.1875 80.5625 L 73.5 80.96875 L 73.5625 82 L 73.59375 82.78125 L 73.59375 82.84375 L 73.1875 84.71875 L 73.625 84.65625 L 74.0625 98.96875 C 76.094352 100.41637 76.796218 100.26952 78.78125 99.3125 L 78.78125 89.75 C 80.295859 89.848918 81.798668 89.955873 83.3125 90.0625 L 80 95.03125 L 85 96.65625 L 82.8125 99.46875 L 90.15625 99.84375 L 88.125 104.5625 L 94.125 103.84375 L 91.21875 111.71875 L 99 111.71875 C 109.3902 104.15936 119.11007 95.826525 127.96875 86.5 L 127.96875 80.46875 L 125.75 80.46875 L 125.84375 76.71875 C 125.75639 76.627076 125.68192 76.55167 125.59375 76.46875 L 126.0625 75.03125 L 123.90625 75.4375 C 123.44546 75.292427 122.95252 75.251685 122.46875 75.3125 L 122.46875 71.40625 L 117.5625 71.84375 L 119.15625 66.6875 L 112.1875 68.1875 L 114 61.40625 L 107.21875 62.90625 L 108.09375 56.5625 L 100.1875 59.09375 L 102.5625 53.625 L 94.5 55.84375 C 94.407997 55.719169 94.310496 55.593027 94.21875 55.46875 L 93.9375 40.53125 C 90.548045 39.029904 91.061175 40.018677 88.78125 40.8125 L 88.96875 48.375 L 83.21875 50.71875 L 84.09375 46.375 L 74.59375 48.78125 L 75.625 43.375 L 69.125 46.1875 L 71.15625 41.90625 L 65.75 43.84375 L 66.40625 40.09375 L 60.75 42.15625 L 61.9375 38.71875 L 55.28125 40.5 L 55.96875 36.8125 L 50.4375 38.21875 L 48.6875 38.84375 L 48.78125 27 C 48.307018 26.644732 47.826635 26.533213 47.34375 26.5625 z M 47.53125 26.9375 C 47.881821 26.939134 48.235555 27.036828 48.625 27.28125 L 48.34375 39.96875 C 47.318823 40.507753 46.393517 40.227826 45.5625 39.3125 L 45.3125 27.65625 C 46.330564 27.225712 46.946965 26.934777 47.53125 26.9375 z M 48.09375 27.65625 C 46.832345 28.597745 46.817921 28.620975 45.5625 27.875 L 45.6875 28 C 46.382924 28.795726 46.438057 28.831747 48.15625 27.78125 L 48.09375 27.65625 z M 21.375 33.21875 C 21.603056 33.246635 21.854803 33.426724 22.1875 33.78125 L 22.125 36.375 C 21.400671 36.452534 20.948337 36.773277 20.125 36.0625 L 20.21875 34.03125 C 20.699699 33.518946 20.994906 33.172276 21.375 33.21875 z M 21.96875 34 C 21.487381 34.72221 21.064818 34.205692 20.46875 34.125 L 20.5625 34.4375 C 21.106693 34.650884 21.362056 35.022615 21.90625 34.34375 L 21.96875 34 z M 36.25 34.125 C 36.729473 34.063703 37.1875 34.376974 37.84375 35.21875 L 37.84375 46.5625 C 37.031385 46.762136 36.24031 47.313322 34.75 45.90625 L 34.625 35.3125 C 35.28125 34.629744 35.770527 34.186297 36.25 34.125 z M 39.5625 34.21875 C 39.538444 34.341165 39.189288 36.917968 39.1875 37.03125 L 38.96875 37.78125 L 38.3125 38.3125 L 38.3125 35.0625 C 38.627088 35.036781 39.219174 34.474881 39.5625 34.21875 z M 34.125 34.9375 C 34.023791 35.769052 34.396512 36.123148 33.8125 37.4375 C 32.425135 37.940499 30.940622 38.785532 29.59375 39.125 C 29.226725 39.052434 28.862536 38.966354 28.5 38.875 L 28.1875 38.21875 C 30.144864 37.08219 32.05859 35.85597 34.125 34.9375 z M 29.8125 34.96875 L 29.25 37.1875 L 26.03125 38.0625 C 25.706612 37.940033 25.382216 37.824067 25.0625 37.6875 C 26.699038 36.145645 28.536942 35.450141 29.8125 34.96875 z M 44.9375 35.1875 L 45 37.625 L 44.0625 38.25 C 42.808089 38.289046 41.219065 39.141154 40.1875 38.59375 L 39.78125 38.15625 C 39.577225 37.892779 39.762216 37.823816 39.875 37.71875 L 44.9375 35.1875 z M 37.34375 35.34375 C 36.082343 35.622331 35.821062 35.829922 34.875 35.4375 L 35 35.5625 C 35.65123 36.579196 36.741135 35.90589 37.53125 35.5625 L 37.34375 35.34375 z M 26.34375 35.375 L 25.625 36.78125 C 25.350825 37.020433 25.168633 37.368539 24.84375 37.59375 C 24.145714 37.287742 23.453014 36.962522 22.78125 36.59375 L 26.34375 35.375 z M 55.75 37.1875 C 55.252233 38.443369 55.387249 39.786378 54.15625 40.9375 C 53.095285 41.972144 51.889013 41.519307 50.6875 41.21875 C 50.313746 40.97684 49.932592 40.721859 49.5625 40.46875 L 48.75 39.15625 L 50.4375 38.40625 C 52.121319 37.883609 54.052371 37.654645 55.75 37.1875 z M 20.09375 37.28125 C 20.698293 37.583966 21.308844 37.573125 22.09375 37.375 L 22.0625 38.25 C 21.065844 38.492158 20.587979 38.394903 20.0625 37.8125 L 20.09375 37.28125 z M 22.46875 37.53125 C 22.725155 37.699198 22.988512 37.85089 23.25 38 L 22.4375 38.25 L 22.46875 37.53125 z M 28.25 37.8125 C 27.880796 38.016222 27.517939 38.244943 27.15625 38.46875 C 26.989316 38.415388 26.822032 38.369674 26.65625 38.3125 L 28.25 37.8125 z M 39.375 38.0625 L 40.3125 39.09375 L 42.59375 38.84375 C 42.43026 38.983635 42.025271 39.370436 41.75 39.625 C 40.610205 39.592014 39.458201 39.459418 38.3125 39.40625 L 38.3125 38.8125 L 39.375 38.0625 z M 19.71875 38.15625 L 19.71875 38.1875 C 20.578812 38.920462 21.394355 38.92239 22.4375 38.8125 L 22.4375 38.5625 L 23.0625 38.28125 L 23.15625 38.40625 C 18.927535 41.402927 14.476106 44.182726 10.78125 47.5 C 10.058452 47.413245 9.3333994 47.320775 8.59375 47.1875 L 8.65625 45.25 C 12.061991 42.773032 15.572033 40.199473 19.71875 38.15625 z M 34.21875 38.1875 L 34.25 38.9375 C 33.995572 38.879017 33.792577 38.75458 34.21875 38.1875 z M 45 38.3125 L 45.03125 39.375 C 44.727342 39.291183 44.513701 39.085416 44.46875 38.59375 C 44.642111 38.491457 44.822479 38.405034 45 38.3125 z M 32.375 38.34375 L 31.15625 39.375 C 30.956728 39.350987 30.760914 39.310983 30.5625 39.28125 C 31.17096 38.96733 31.738027 38.629157 32.375 38.34375 z M 24.28125 38.53125 C 24.28988 38.535325 24.303866 38.527192 24.3125 38.53125 L 24.25 38.5625 C 24.259858 38.550712 24.271367 38.542961 24.28125 38.53125 z M 33.5 38.71875 C 33.565641 39.007747 33.625227 39.283773 33.75 39.5 C 33.246561 39.504081 32.747932 39.470749 32.25 39.4375 C 32.657616 39.188911 33.06684 38.948762 33.5 38.71875 z M 25 38.84375 C 25.331134 38.980389 25.66287 39.104355 26 39.21875 C 22.459211 41.644987 19.260155 44.861343 16.1875 47.75 C 14.60179 47.772658 13.000613 47.736404 11.34375 47.5625 C 14.68085 44.278897 19.550116 41.80942 23.65625 39.28125 L 25 38.84375 z M 44.125 39 L 44.5625 39.46875 C 44.101765 39.538032 43.62491 39.574616 43.15625 39.59375 C 43.50859 39.351796 43.855304 39.138081 44.125 39 z M 61.53125 39.09375 C 60.842495 40.351301 61.124166 41.284813 59.4375 42.875 C 57.934232 43.616565 56.440767 43.124599 54.9375 43.25 L 54.75 41.6875 C 56.359919 39.9594 59.266295 39.948469 61.53125 39.09375 z M 26.875 39.5 C 26.884715 39.502755 26.896531 39.497261 26.90625 39.5 C 27.259916 39.599679 27.609852 39.700997 27.96875 39.78125 L 28.03125 40.03125 C 28.309184 40.017518 28.567706 39.984373 28.8125 39.9375 C 29.278712 40.023341 29.745923 40.095013 30.21875 40.15625 L 21.65625 47.40625 C 20.069326 47.587532 18.44852 47.704595 16.8125 47.75 C 19.836498 44.770774 22.850162 41.304824 26.875 39.5 z M 48.6875 39.6875 L 48.84375 39.96875 C 48.794281 39.933688 48.7369 39.910273 48.6875 39.875 L 48.6875 39.6875 z M 91.40625 40.09375 C 91.971422 40.013721 92.548768 40.269408 93.71875 41.09375 L 93.78125 55.3125 C 92.380164 55.179385 91.207491 56.50915 89.46875 54.125 L 89.21875 41.125 C 90.313973 40.602471 90.841078 40.173779 91.40625 40.09375 z M 43.59375 40.21875 C 44.052853 40.221036 44.512956 40.263035 44.96875 40.28125 L 45.0625 41.03125 L 38.4375 46.59375 C 38.404705 46.564129 38.376528 46.529649 38.34375 46.5 C 38.333182 46.499464 38.323012 46.500283 38.3125 46.5 L 38.3125 43.40625 C 39.242707 42.688154 40.861673 41.31996 42.28125 40.25 C 42.72201 40.241309 43.155636 40.216568 43.59375 40.21875 z M 30.96875 40.28125 C 32.05739 40.396219 33.173476 40.456585 34.28125 40.5 L 34.3125 41.40625 L 28.78125 46.34375 C 26.93617 46.648413 25.083313 46.968708 23.21875 47.21875 C 25.672069 44.817938 28.024493 42.325017 30.96875 40.28125 z M 41.03125 40.28125 C 40.031771 41.221131 38.958096 42.245804 38.3125 42.8125 L 38.3125 40.40625 C 39.222087 40.3654 40.12899 40.313221 41.03125 40.28125 z M 45.59375 40.40625 C 46.485726 41.099242 47.291519 41.089453 48.34375 40.875 L 48.28125 43.375 C 46.65274 44.559462 46.934312 44.38923 45.65625 43.40625 L 45.59375 40.40625 z M 66.1875 40.53125 L 64.65625 44.21875 L 63.34375 45.125 C 62.338815 45.478623 60.817969 45.645312 60.28125 45.0625 L 59.875 43.8125 L 60.8125 42.65625 L 66.1875 40.53125 z M 48.6875 40.96875 C 49.709033 41.688504 50.737235 42.365554 51.78125 43 C 49.150349 45.6976 45.850628 47.947307 42.46875 50.125 C 41.255498 49.102601 40.063643 48.035464 38.875 46.96875 C 40.682591 45.502837 43.386817 43.168777 45.09375 41.96875 L 45.125 43.65625 C 47.008938 45.801539 47.0145 44.614526 48.65625 43.8125 L 48.6875 40.96875 z M 89.5 41.5625 L 89.625 41.6875 C 90.983337 43.367109 91.656807 42.956747 93.375 41.90625 L 93.1875 41.65625 C 91.926093 42.597745 90.755421 42.308475 89.5 41.5625 z M 34.3125 41.625 L 34.40625 45.5625 C 34.383746 45.538287 34.366561 45.525071 34.34375 45.5 C 32.759689 45.709103 31.191337 45.961549 29.625 46.21875 C 31.160661 44.675158 32.697464 43.100122 34.3125 41.625 z M 51.65625 41.84375 C 52.016817 41.927269 52.389432 41.992419 52.75 41.96875 C 52.648351 42.085864 52.541708 42.197157 52.4375 42.3125 C 52.176641 42.157502 51.915488 42.003726 51.65625 41.84375 z M 53.96875 42.28125 L 54.71875 43.5 L 58.28125 43.71875 L 56.90625 44.6875 C 55.672245 44.094249 54.453608 43.499915 53.25 42.8125 L 53.96875 42.28125 z M 70.59375 42.375 C 69.656495 43.793037 69.510697 45.546475 67.78125 46.625 C 66.924352 47.191435 65.871963 47.025075 64.78125 46.65625 C 64.431814 46.301412 63.87435 46.013203 64.1875 45.4375 L 65.65625 44.15625 L 70.59375 42.375 z M 52.46875 43.40625 C 53.640323 44.095633 54.835383 44.716197 56.03125 45.3125 L 45.71875 52.75 C 44.774312 52.008348 43.834018 51.274947 42.90625 50.5 L 52.46875 43.40625 z M 7 43.65625 C 7.4104241 43.631383 7.8376546 43.839799 8.28125 44.3125 L 8.1875 47.1875 C 7.1778914 47.257094 6.4964105 47.0924 5.75 46.21875 L 5.8125 44.34375 C 6.1972591 43.933907 6.5895759 43.681117 7 43.65625 z M 75.25 44 C 74.620198 45.457932 75.158793 48.33223 73.53125 49.125 L 69.625 49.03125 L 68.34375 47.5 C 69.930482 45.384372 73.155076 45.099239 75.25 44 z M 59.03125 44.40625 L 60.4375 45.625 L 61.8125 45.5625 L 60.75 46.40625 C 59.719752 45.989847 58.700721 45.53244 57.6875 45.0625 C 58.126295 44.831458 58.574486 44.623815 59.03125 44.40625 z M 7.875 44.46875 C 7.3936323 45.190957 6.689818 44.611942 6.09375 44.53125 L 6.1875 44.8125 C 6.7316942 45.025883 7.2683058 45.491365 7.8125 44.8125 L 7.875 44.46875 z M 56.6875 45.625 C 57.735255 46.131899 58.780291 46.616541 59.84375 47.0625 L 49.15625 55.34375 C 48.193721 54.652652 47.225122 53.949663 46.28125 53.21875 C 49.540474 50.53629 52.788486 47.827617 56.6875 45.625 z M 63.0625 45.84375 L 64.4375 46.90625 L 67.03125 47.5 L 66 48.3125 C 64.551532 47.842178 63.110498 47.302342 61.6875 46.75 C 62.135284 46.456786 62.565303 46.164912 63.03125 45.875 L 63.0625 45.84375 z M 34.25 46.53125 C 34.306526 46.595754 34.34935 46.659629 34.40625 46.71875 L 34.46875 48.875 L 31.625 50.96875 C 31.352157 50.28594 30.968987 49.860558 30.34375 50 C 31.715814 48.893483 32.983678 47.706591 34.25 46.53125 z M 33.34375 46.6875 C 31.942507 47.877726 30.579836 49.041648 29.40625 50.125 L 25.90625 49.78125 C 26.725406 49.059581 27.523123 48.304702 28.3125 47.53125 C 29.996321 47.261953 31.667581 46.96538 33.34375 46.6875 z M 83.65625 46.6875 L 82.09375 51.125 L 79.8125 51.90625 C 78.31582 51.575983 76.834336 51.232057 75.34375 50.875 C 75.095812 50.505704 74.959398 50.080074 75.0625 49.65625 C 76.534344 47.874052 80.788706 47.672155 83.65625 46.6875 z M 34.75 47.03125 C 35.657289 47.796635 36.644958 47.926734 37.84375 47.59375 L 37.84375 50.34375 C 36.690028 50.948879 35.979166 51.175272 34.78125 50.25 L 34.75 47.03125 z M 60.65625 47.40625 C 62.119367 47.998183 63.607058 48.532722 65.09375 49.03125 L 53.5625 58.28125 C 52.328718 57.510112 51.076277 56.719467 49.875 55.875 C 53.290291 53.028375 56.628066 50.141439 60.65625 47.40625 z M 5.6875 47.53125 C 6.393478 48.080528 7.2159733 48.358283 8.15625 48.28125 L 8.125 48.78125 C 7.1283448 49.023405 6.1817287 48.707403 5.65625 48.125 L 5.6875 47.53125 z M 5.34375 47.625 L 5.3125 48.5 C 6.3111234 49.379837 7.4169015 49.389714 8.53125 49.34375 L 8.5625 48.21875 C 8.9657411 48.287002 9.3780355 48.35175 9.78125 48.40625 C 9.2893276 48.881436 8.7991475 49.373982 8.34375 49.875 L 7.875 49.9375 C 6.4037565 49.547858 5.5883154 48.418092 3.28125 48.96875 C 3.9693712 48.536699 4.6651109 48.088626 5.34375 47.625 z M 27.3125 47.6875 L 24.28125 50.40625 C 23.273986 49.817499 22.240345 49.259571 20.65625 49.59375 C 21.11505 49.19243 21.559307 48.789488 22 48.375 C 23.767436 48.184927 25.551181 47.960385 27.3125 47.6875 z M 38.3125 47.75 C 39.407458 48.734777 40.512169 49.709295 41.625 50.65625 C 39.938106 51.737365 38.247705 52.811946 36.625 53.9375 L 36.0625 53.8125 L 35.21875 52.0625 L 32.6875 51.4375 C 33.298672 50.964293 33.896847 50.478035 34.5 50 L 34.5 50.46875 C 35.834253 51.502036 36.845665 51.012146 38.3125 50.875 L 38.3125 47.75 z M 68.125 47.90625 L 69.1875 49.28125 C 68.420088 49.060225 67.668318 48.83259 66.90625 48.59375 C 67.306331 48.356494 67.703756 48.138216 68.125 47.90625 z M 10.46875 48.5 C 12.027871 48.68177 13.567289 48.740717 15.125 48.75 C 14.706401 49.133336 14.290336 49.513372 13.875 49.875 C 12.9375 49.400822 12 49.526894 11.0625 49.625 L 9.28125 50.03125 C 9.6374381 49.502161 10.035054 48.990862 10.46875 48.5 z M 20.34375 48.53125 L 18.9375 49.71875 C 17.679976 49.558796 17.138529 48.508416 15.40625 49.09375 C 15.529059 48.98197 15.658933 48.864285 15.78125 48.75 C 17.305887 48.73889 18.821875 48.661482 20.34375 48.53125 z M 88.96875 48.5625 L 89 49.6875 C 88.185683 50.829953 87.17443 52.146036 85.8125 53.21875 C 84.012601 52.830259 82.208632 52.426255 80.40625 52.03125 C 83.113985 50.825534 86.818509 49.476389 88.96875 48.5625 z M 4.40625 49.25 C 5.7473162 49.340427 7.0515241 50.28603 7.8125 50.53125 C 5.904949 51.971234 4.001301 52.420632 2.09375 53.375 C 2.4605542 52.066996 2.1577043 50.644157 3.1875 49.46875 C 3.4043191 49.376531 3.6240241 49.310812 3.84375 49.28125 C 4.0360101 49.255383 4.2146691 49.237082 4.40625 49.25 z M 65.8125 49.28125 C 67.758269 49.914992 69.71423 50.48036 71.6875 51 C 67.352268 54.230026 62.875531 57.651228 58.5 61.09375 C 57.068335 60.358205 55.667053 59.593962 54.28125 58.75 C 57.845865 55.525659 61.151641 52.23153 65.8125 49.28125 z M 15.75 49.40625 C 16.599438 49.363675 17.653098 49.596698 18.84375 50.09375 C 17.225199 51.669708 14.379645 52.854823 12.125 54.21875 L 13.875 50.40625 C 14.241863 49.785303 14.900562 49.448825 15.75 49.40625 z M 69.96875 49.5 L 73.65625 49.53125 C 73.345007 49.761003 73.032096 50.017645 72.71875 50.25 C 71.80043 50.014104 70.881352 49.755819 69.96875 49.5 z M 12.15625 49.8125 C 12.888975 49.765024 13.36831 49.898301 13.28125 50.4375 L 7.25 53.28125 C 7.3355873 52.94445 7.7956562 51.133931 8.125 50.71875 C 9.0374591 50.501585 10.935042 49.891627 12.15625 49.8125 z M 21.125 50 C 22.027394 49.920992 22.818247 50.314949 23.78125 50.90625 C 21.780646 52.329406 19.397438 52.850177 17.1875 53.75 C 17.887889 52.735411 18.172128 50.96337 19.3125 50.71875 C 20.000894 50.269391 20.583563 50.047405 21.125 50 z M 89.03125 50.21875 L 89.0625 52.5 L 86.5625 53.3125 L 89.03125 50.21875 z M 26.46875 50.28125 C 26.746842 50.29549 27.042285 50.380453 27.375 50.53125 L 27.875 50.71875 C 27.884811 51.532849 27.079695 51.576256 26.5625 51.96875 C 25.679135 54.045007 23.501443 54.34392 22.0625 55.53125 C 22.03778 54.545829 21.699181 53.408407 22.4375 52.75 C 23.002765 51.997878 23.55029 51.192537 24.34375 51.125 C 25.001078 50.725353 25.634474 50.238529 26.46875 50.28125 z M 74.28125 50.28125 C 74.394018 50.447734 74.530866 50.580721 74.65625 50.71875 C 74.395215 50.655155 74.135704 50.59608 73.875 50.53125 C 74.010528 50.447357 74.145239 50.364447 74.28125 50.28125 z M 30.4375 50.40625 C 30.836963 50.298032 31.072658 50.49266 30.8125 51.59375 L 29.875 52.46875 C 28.835933 53.874102 26.690357 54.664809 24.625 55.5 C 25.927302 53.868699 26.710319 51.874512 29.09375 51 C 29.474804 50.925532 30.038037 50.514468 30.4375 50.40625 z M 42.125 51.0625 C 43.042732 51.836125 43.942084 52.602602 44.875 53.34375 L 40.4375 56.53125 L 39.5 55.0625 L 37.9375 54.1875 L 42.125 51.0625 z M 72.71875 51.28125 C 73.684624 51.527671 74.655328 51.739726 75.625 51.96875 C 75.024529 52.141431 74.450162 52.511531 73.40625 52.875 L 73.5 56.71875 C 70.453865 59.042352 67.488619 61.411598 64.65625 63.84375 C 62.761125 63.140287 60.906521 62.343535 59.09375 61.4375 C 63.417267 57.847315 67.917007 54.353177 72.71875 51.28125 z M 31.96875 51.8125 C 32.835286 51.689796 33.695963 52.678064 34.5625 52.9375 C 34.9827 53.412761 35.946732 53.465042 35.40625 54.6875 L 34.53125 55.46875 C 32.579287 57.138866 29.994025 56.555224 27.71875 57.09375 C 28.744025 55.680224 28.893984 53.82628 30.78125 52.84375 C 31.17513 52.163996 31.57487 51.868275 31.96875 51.8125 z M 76.375 52.34375 C 76.802979 52.311547 77.266451 52.352457 77.78125 52.5 C 77.95285 52.549181 78.128285 52.614967 78.3125 52.6875 L 78.375 67.5625 C 76.970937 67.304571 75.481977 68.246069 74.125 66.71875 L 73.875 57.375 L 73.84375 56.46875 L 73.75 53.1875 C 74.650278 52.846839 75.423935 52.415312 76.375 52.34375 z M 89.09375 52.71875 L 89.125 53.9375 C 88.493675 53.796627 87.851665 53.669269 87.21875 53.53125 C 87.797109 53.214636 88.460773 52.93914 89.09375 52.71875 z M 79.0625 52.78125 C 80.852803 53.177511 82.647314 53.553996 84.4375 53.9375 C 83.215002 54.264035 80.65885 54.658732 79.0625 52.78125 z M 78.75 53 C 80.459386 54.531479 82.774402 54.628442 84.75 54.625 C 83.794034 55.363847 79.84595 58.038603 78.71875 58.90625 L 78.75 53 z M 74.4375 53.5625 L 74.375 53.6875 C 75.733338 55.19033 76.094307 55.081747 77.8125 54.03125 L 77.625 53.78125 C 76.363593 54.722745 75.692921 54.308475 74.4375 53.5625 z M 45.53125 53.84375 C 46.463705 54.573283 47.393325 55.277918 48.34375 55.96875 L 44.4375 58.96875 L 43.3125 57.3125 L 41.59375 56.9375 C 42.942263 55.930933 44.245735 54.897566 45.53125 53.84375 z M 102.21875 54.03125 C 101.14724 55.771167 101.34336 57.625706 99 59.25 L 98.9375 59.25 C 98.580208 59.487106 97.882493 59.474858 97.125 59.375 C 96.303248 58.28241 95.485193 57.204671 94.6875 56.125 C 96.723758 55.443739 100.56875 54.74322 102.21875 54.03125 z M 86.125 54.3125 C 87.091891 54.52134 88.067307 54.722025 89.03125 54.9375 C 89.062847 54.985961 89.092782 55.016928 89.125 55.0625 L 89.15625 56.1875 C 88.50522 56.106253 87.464837 56.571894 86.90625 56.53125 C 86.423461 55.992698 85.51735 55.683979 85.78125 54.71875 C 85.867059 54.579196 85.993087 54.443115 86.125 54.3125 z M 37.40625 54.96875 C 37.9375 54.936885 38.46875 54.956677 39 55.4375 C 39.720099 56.08703 39.531276 56.585074 39.59375 57.125 L 38.53125 58.65625 C 36.916812 59.090735 35.834114 59.118754 34.75 59.15625 L 34.25 59.1875 C 33.842953 59.204236 33.422651 59.229603 32.96875 59.28125 C 33.722437 58.255658 33.594015 56.622165 35.21875 56.21875 L 36.875 55 C 37.052083 54.991726 37.229167 54.979372 37.40625 54.96875 z M 84.96875 55.1875 L 86.65625 56.875 L 89.1875 56.5625 L 89.21875 58.75 C 86.567749 60.461 81.226997 64.221606 78.71875 66.125 L 78.71875 59.875 C 80.097483 58.927885 83.731157 56.026101 84.96875 55.1875 z M 89.5 55.53125 C 90.592226 56.641354 91.990128 56.481006 93.53125 56.1875 C 93.614708 56.299776 93.697487 56.418649 93.78125 56.53125 L 93.8125 61.53125 C 92.092965 61.960004 92.086966 62.755929 89.625 61.5625 L 89.5 55.53125 z M 49.09375 56.5 C 50.287043 57.349075 51.523556 58.160205 52.75 58.9375 L 49.3125 61.6875 L 47.59375 59.1875 L 45.5 59.40625 C 46.731874 58.442812 47.919578 57.47393 49.09375 56.5 z M 107.71875 57.03125 C 107.57095 59.121595 107.04233 61.082833 106.1875 62.9375 C 105.07039 63.97065 103.96086 63.149169 102.84375 63.25 L 99.59375 60.34375 C 101.936 58.859065 104.91412 57.63501 107.71875 57.03125 z M 94.21875 57.125 C 94.718452 57.795431 95.237696 58.446259 95.75 59.125 C 95.136534 58.997566 94.571197 58.876459 94.25 58.84375 L 94.21875 57.125 z M 41.46875 57.34375 C 42.029571 57.348151 42.595429 57.601736 43.15625 57.59375 C 43.433157 58.247149 44.431889 58.835095 43.65625 59.59375 L 43.25 60.3125 C 41.859424 61.781707 39.194589 61.991055 37.15625 62.8125 C 37.984508 61.313831 38.266972 59.586761 39.65625 58.3125 L 40.46875 57.71875 C 40.805243 57.437959 41.132257 57.341109 41.46875 57.34375 z M 73.53125 57.625 L 73.65625 62.875 C 72.53626 63.766397 71.441496 64.686865 70.34375 65.59375 C 68.655372 65.188326 66.996594 64.668703 65.375 64.09375 C 67.891314 61.718486 70.669586 59.628964 73.53125 57.625 z M 94.25 59.0625 L 95.90625 59.375 C 96.403203 60.032053 96.926544 60.682575 97.4375 61.34375 C 92.616176 65.846684 87.068591 70.292641 81.53125 74.5 C 80.486265 72.311414 79.543379 70.063616 78.71875 67.75 L 78.71875 66.90625 C 81.231217 64.969517 86.601615 61.220861 89.25 59.625 L 89.3125 61.90625 C 91.474572 63.121653 91.542503 62.764578 94.3125 62 L 94.25 59.0625 z M 38.21875 59.21875 L 36.625 63.15625 L 37.71875 62.84375 L 37.96875 68.46875 C 36.760419 69.318653 36.239583 69.770498 34.78125 67.96875 L 34.75 59.46875 L 38.21875 59.21875 z M 53.5 59.4375 C 54.855384 60.273553 56.222611 61.047417 57.625 61.78125 C 56.439736 62.717102 55.251783 63.665794 54.09375 64.59375 L 53.09375 62.15625 L 50.6875 61.84375 C 51.676054 61.053616 52.58922 60.247078 53.5 59.4375 z M 46.5625 59.625 C 46.816052 59.614996 47.075521 59.625232 47.3125 59.6875 C 48.688126 60.354104 48.115591 61.603024 48.4375 62.375 L 47.78125 62.90625 C 45.869511 64.382171 43.942989 63.595104 42.03125 63.9375 C 42.77632 62.793023 42.617633 61.382038 44.28125 60.5 C 44.992188 59.984521 45.801844 59.655011 46.5625 59.625 z M 97.3125 59.625 L 98.9375 59.9375 C 98.675737 60.191431 98.391926 60.43392 98.125 60.6875 C 97.854558 60.332709 97.579828 59.979631 97.3125 59.625 z M 99.34375 60.75 L 102.53125 63.59375 L 105.125 63.875 C 104.33427 64.707305 103.49129 65.520914 102.625 66.3125 C 101.25607 64.683904 99.93678 63.040778 98.65625 61.375 C 98.885444 61.168339 99.115545 60.957292 99.34375 60.75 z M 113.6875 61.71875 C 112.82353 63.953403 112.81998 66.490263 111.09375 68.4375 L 111.0625 68.4375 C 109.65183 68.776842 108.22135 68.387325 106.78125 68.09375 C 106.89667 66.720537 106.09518 65.22766 107.125 63.96875 C 109.14677 62.398091 111.50061 62.463822 113.6875 61.71875 z M 97.9375 62 C 99.221106 63.646395 100.54221 65.306742 101.9375 66.9375 C 96.677407 71.594453 90.289132 75.63266 84.375 79.9375 C 83.513889 78.427865 82.709171 76.881645 81.9375 75.3125 C 87.469819 71.012868 92.818289 66.581542 97.9375 62 z M 58.28125 62.125 C 60.069325 63.033654 61.904915 63.846464 63.78125 64.5625 C 62.515856 65.666881 61.292878 66.800647 60.09375 67.9375 L 59.78125 67.96875 L 59.15625 65.4375 L 55.0625 64.8125 C 56.117557 63.907217 57.206551 63.024958 58.28125 62.125 z M 51.125 62.34375 C 51.72511 62.319113 52.327541 62.350391 52.9375 62.375 C 53.212045 63.343333 53.74748 64.360708 53.25 65.21875 C 52.866037 67.323767 48.851026 66.180964 46.65625 66.65625 C 47.266434 65.639297 46.696144 64.204453 48.71875 63.1875 L 49.375 62.71875 C 49.928403 62.460582 50.52489 62.368387 51.125 62.34375 z M 73.65625 63.34375 L 73.71875 66.28125 C 72.737281 66.120707 71.770983 65.907455 70.8125 65.6875 C 71.734794 64.882799 72.68293 64.103696 73.65625 63.34375 z M 106.125 64.34375 L 106.125 68.28125 L 109.90625 69.1875 C 109.02162 69.947655 108.11506 70.687078 107.21875 71.4375 C 105.75435 69.939447 104.35182 68.372052 103 66.78125 C 104.03896 65.963285 105.08488 65.15129 106.125 64.34375 z M 64.59375 64.84375 C 66.165214 65.414726 67.764636 65.926291 69.40625 66.34375 C 67.682147 67.784373 65.99313 69.237436 64.34375 70.71875 L 63.5625 68.40625 L 61.9375 67.75 C 62.773552 66.723159 63.662381 65.76773 64.59375 64.84375 z M 54.40625 65.28125 C 55.960638 65.200034 57.232083 65.526506 58.5625 65.78125 C 59.217845 66.888676 59.087862 67.882672 58.9375 68.875 L 57.84375 70.21875 C 55.80194 71.396221 53.299735 70.530067 51.03125 70.6875 C 51.722243 69.316278 51.532615 67.514277 53.125 66.59375 L 54.40625 65.28125 z M 69.9375 66.46875 C 71.098002 66.750066 72.270122 67.021007 73.46875 67.21875 C 73.562512 67.410008 73.674735 67.565229 73.78125 67.71875 L 73.84375 70.75 C 72.587305 71.822194 71.35906 72.919617 70.125 74 L 68.96875 71 L 65.5 71.09375 C 66.85312 69.445001 68.350657 67.913091 69.9375 66.46875 z M 118.8125 67.09375 C 118.05756 68.701305 117.88818 70.509771 116.5 71.90625 L 113.90625 72.84375 C 112.9717 72.248152 111.44688 72.267121 111.25 71.25 C 110.56704 70.776358 110.94052 69.76588 110.78125 69.1875 C 113.19307 67.876654 116.07408 67.642509 118.8125 67.09375 z M 102.3125 67.34375 C 103.66216 68.905364 105.0805 70.470004 106.5625 71.96875 C 100.66545 76.875922 94.537417 81.600428 88.21875 86.15625 C 87.011809 84.346445 85.852112 82.490084 84.75 80.59375 C 90.654651 76.596136 96.47511 71.946722 102.3125 67.34375 z M 74.15625 68.1875 C 75.19922 69.185587 76.667234 68.988686 78.25 68.71875 C 78.291853 68.834902 78.332609 68.94681 78.375 69.0625 L 78.40625 73.96875 C 76.686714 74.397505 76.774466 74.912179 74.3125 73.71875 L 74.15625 68.1875 z M 61.625 68.4375 C 62.007813 68.402624 62.398438 68.461648 62.78125 68.65625 C 63.990401 69.467627 63.402878 70.458671 63.5625 71.375 L 63.5 71.40625 L 62.8125 72.4375 C 60.355656 74.103082 57.376608 73.912966 54.65625 74.65625 C 56.345357 72.944219 56.979023 70.510537 59.71875 69.21875 C 60.356771 68.813638 60.986979 68.495627 61.625 68.4375 z M 78.71875 69.96875 C 79.379849 71.697119 80.104023 73.368193 80.875 75 C 79.393109 76.121925 77.893919 77.227237 76.4375 78.3125 L 75.78125 75.3125 L 71.15625 74.46875 C 72.05002 73.59404 72.956675 72.728242 73.875 71.875 L 73.9375 73.96875 C 76.099572 75.184153 75.948753 75.139578 78.71875 74.375 L 78.71875 69.96875 z M 110.3125 70.09375 L 110.40625 71.59375 L 112.875 72.65625 C 112.14417 73.362387 111.39708 74.06101 110.65625 74.75 C 109.69851 73.898222 108.78177 72.998571 107.875 72.09375 C 108.68637 71.426212 109.51002 70.76662 110.3125 70.09375 z M 68.84375 71.375 C 69.048496 72.484636 69.809448 73.756029 69.28125 74.65625 L 68.40625 75.84375 C 65.630975 77.269427 62.869025 76.965848 60.09375 77.53125 C 61.46207 75.736222 61.994459 73.480012 64.1875 72.15625 L 64.21875 72.125 C 64.945346 71.149024 67.154797 71.495547 68.84375 71.375 z M 122.03125 71.84375 C 121.87827 73.062972 122.35812 74.281863 121.71875 75.5 C 121.31004 75.635329 120.89481 75.82222 120.46875 76.09375 L 118.15625 76.5625 C 116.99944 76.231047 115.30903 77.24075 114.5 75.75 C 113.777 75.031099 113.54767 74.077602 114.34375 73.125 C 116.91026 72.356068 119.46475 72.273055 122.03125 71.84375 z M 107.21875 72.625 C 108.14925 73.544364 109.10285 74.433198 110.09375 75.3125 C 104.09063 80.841655 97.74781 85.787636 91.25 90.46875 C 90.406622 89.304472 89.563055 88.136645 88.75 86.9375 C 95.076554 82.271306 101.25408 77.508327 107.21875 72.625 z M 113.375 73.5625 L 113.8125 76.4375 L 117.25 76.96875 L 117.28125 77.09375 C 116.73813 77.621707 116.18004 78.134184 115.625 78.65625 C 114.12734 77.606414 112.69074 76.503564 111.3125 75.3125 C 111.99713 74.72713 112.69264 74.153548 113.375 73.5625 z M 70.96875 74.875 C 72.166573 74.779165 74.097216 75.549881 75.4375 75.625 C 76.039514 77.007676 75.836632 78.174436 75.1875 79.34375 C 74.930686 79.543495 74.720821 79.778065 74.53125 80.03125 C 71.799146 80.874585 68.596502 80.281106 65.625 80.40625 C 67.106822 78.707895 68.075677 76.253348 70.0625 75.3125 C 70.255996 75.033622 70.569476 74.906945 70.96875 74.875 z M 125.90625 75.375 C 125.743 75.682646 125.55499 75.979815 125.375 76.28125 C 125.0701 76.021101 124.75245 75.814367 124.4375 75.65625 C 124.92399 75.575805 125.42186 75.499141 125.90625 75.375 z M 81.25 75.8125 C 82.022647 77.398886 82.860191 78.930572 83.71875 80.4375 C 83.068278 80.91638 82.41631 81.387806 81.78125 81.875 C 80.366245 79.683963 78.946256 79.749514 77.53125 78.6875 C 78.785434 77.742384 80.01205 76.769922 81.25 75.8125 z M 110.6875 75.84375 C 112.06035 77.033936 113.49787 78.161524 115 79.25 C 108.91909 84.900721 102.14735 90.214865 94.875 95.34375 C 93.821257 93.984148 92.780481 92.593791 91.75 91.1875 C 98.13326 86.243571 104.45131 81.155355 110.6875 75.84375 z M 122.8125 75.96875 C 123.5493 75.985859 124.32182 76.306708 125.28125 76.71875 L 125.15625 83.75 C 123.55858 84.729244 121.33231 83.839947 120.6875 81.75 L 120.65625 81.75 C 120.64818 81.745768 120.63307 81.754236 120.625 81.75 L 120.53125 77.0625 C 121.37463 76.238271 122.0757 75.951641 122.8125 75.96875 z M 120.03125 76.65625 L 120.09375 80.15625 L 118.6875 79.5625 L 118.1875 77.5 C 118.79859 77.119633 119.41893 76.868963 120.03125 76.65625 z M 124.9375 76.9375 C 123.62598 77.163595 122.31318 77.437427 121.09375 77.28125 L 120.75 77.375 C 121.55677 78.152073 122.43862 78.313605 123.1875 78.125 C 123.93638 77.936397 124.55587 77.49777 125.125 77.1875 L 124.9375 76.9375 z M 117.625 78.09375 L 118.21875 79.84375 L 120.09375 80.625 L 120.09375 81.4375 C 118.80876 80.739393 117.57467 79.964798 116.375 79.15625 C 116.78792 78.800752 117.2173 78.449248 117.625 78.09375 z M 77.5 79.21875 C 78.374224 79.23903 79.152102 79.884263 79.9375 80.4375 C 80.398871 80.809462 80.928608 81.113059 80.9375 81.9375 L 79.34375 83.15625 C 77.470569 84.111279 75.591997 84.0155 73.71875 84.4375 C 73.641523 82.209405 74.499439 80.373506 76.59375 79.4375 C 76.912384 79.280907 77.208592 79.21199 77.5 79.21875 z M 115.6875 79.75 C 117.06584 80.718833 118.50124 81.638388 120 82.5 C 115.25072 87.103246 110.07964 91.366628 104.78125 95.4375 L 104.8125 94.8125 C 101.13066 92.71959 100.31966 93.889979 98.125 95 L 98.125 99.4375 C 97.221135 98.311708 96.309071 97.18764 95.40625 96.03125 C 102.45076 90.609956 109.3482 85.171294 115.6875 79.75 z M 127.84375 80.75 C 127.55041 82.455188 128.07412 84.633831 126.96875 85.875 C 126.4989 86.032192 126.03898 86.02895 125.59375 85.9375 L 125.625 84.53125 C 126.34618 84.16263 126.35204 83.836656 125.65625 83.5625 L 125.71875 80.84375 C 126.42808 80.834499 127.13153 80.830223 127.84375 80.75 z M 84.0625 81.03125 C 85.173802 82.946933 86.345607 84.815572 87.5625 86.625 C 87.174039 86.903919 86.796018 87.19092 86.40625 87.46875 C 85.801673 85.071304 84.227744 83.759941 82.4375 82.125 C 82.979678 81.776344 83.521692 81.392238 84.0625 81.03125 z M 81.625 82.71875 C 83.67344 83.852999 85.965982 84.766393 85.625 88.0625 L 84.1875 89.15625 C 82.284735 89.634366 77.007018 89.572451 76.09375 89.40625 C 76.870478 87.634086 77.637922 85.843926 79.21875 84.53125 C 79.691211 83.350244 80.702772 83.112664 81.625 82.71875 z M 120.65625 83.21875 C 122.02869 84.654844 123.34675 85.065103 125.125 84.65625 L 125.09375 86.25 C 123.20973 86.937258 121.80337 87.297164 120.71875 85.40625 L 120.65625 83.21875 z M 120.125 83.25 L 120.15625 85.6875 C 121.60355 86.920041 121.69732 88.241826 125.5625 86.5625 L 125.5625 86.4375 L 126.21875 86.6875 C 118.10599 95.412156 109.21413 103.09801 99.6875 109.9375 L 98.09375 105.46875 L 96 103.1875 C 96.717358 102.63974 97.413883 102.08102 98.125 101.53125 L 98.125 103.875 C 100.03514 105.96981 101.94392 106.00845 104.53125 105.3125 L 104.625 102.125 C 105.3526 101.82968 105.2095 101.26492 104.65625 101.1875 L 104.78125 96.3125 C 110.11784 92.055685 115.28294 87.719227 120.125 83.25 z M 78.34375 84.0625 L 75.59375 89.5625 C 76.486826 89.605365 77.388822 89.662225 78.28125 89.71875 L 78.46875 99 C 76.140241 99.692711 75.466318 99.606736 74.375 98.75 L 74.03125 84.59375 L 78.34375 84.0625 z M 88.09375 87.40625 C 88.913929 88.604468 89.741939 89.776135 90.59375 90.9375 C 89.974291 91.38098 89.372542 91.843055 88.75 92.28125 C 88.817388 90.729258 87.78663 89.491022 87.09375 88.15625 C 87.43078 87.90927 87.757437 87.653661 88.09375 87.40625 z M 86.3125 88.75 C 86.96805 88.964592 87.559912 89.274716 87.75 90.1875 C 87.787081 91.068501 88.235339 91.785031 87.75 92.875 C 87.502897 93.96687 86.355845 94.833753 85.65625 95.8125 C 83.870505 96.303199 82.275012 95.31392 80.59375 94.96875 C 82.459657 92.874903 83.073829 89.999066 86.3125 88.75 z M 91.125 91.65625 C 92.155442 93.044496 93.193629 94.432826 94.25 95.78125 C 93.554398 96.268925 92.860714 96.765494 92.15625 97.25 L 91.4375 93.90625 L 89.5 92.9375 C 90.046155 92.518051 90.579626 92.077649 91.125 91.65625 z M 88.6875 93.625 C 89.380797 93.527719 89.986364 93.956816 90.5625 94.5625 C 90.657716 95.998453 92.73973 96.621626 90.53125 99 C 87.220838 99.880447 85.763072 99.191381 83.375 99.28125 C 85.150048 97.396075 86.591586 94.230618 88.6875 93.625 z M 100.625 94.53125 C 101.67837 94.439555 102.75393 94.891551 104.15625 95.1875 L 104.03125 101.28125 C 102.47423 102.43644 99.886462 102.22378 98.8125 100.34375 L 98.6875 95.4375 C 99.368451 94.833428 99.992978 94.586267 100.625 94.53125 z M 103.4375 95.84375 C 102.12598 96.069843 100.84443 96.343677 99.625 96.1875 L 99.28125 96.28125 C 100.08802 97.058321 100.96987 97.219855 101.71875 97.03125 C 102.46763 96.842645 103.08712 96.40402 103.65625 96.09375 L 103.4375 95.84375 z M 94.8125 96.46875 C 95.882704 97.825777 96.956451 99.168771 98.03125 100.5 C 97.136776 101.157 96.236031 101.82125 95.34375 102.46875 L 94.5625 99.34375 L 92.78125 98.03125 C 93.461963 97.509255 94.133556 96.990745 94.8125 96.46875 z M 92.21875 98.59375 C 92.764606 98.566636 93.514981 99.147127 94.1875 99.5 C 94.327487 100.61677 94.768722 101.80247 94.375 102.8125 C 93.232683 104.02848 90.663842 103.83679 88.78125 104.3125 C 89.335454 102.02922 90.385303 100.1147 92 98.65625 C 92.068947 98.625278 92.140771 98.597623 92.21875 98.59375 z M 98.8125 101.375 C 100.28297 102.70437 102.0622 102.77963 104.03125 102.28125 L 103.96875 104.71875 C 101.85775 105.6505 100.08644 105.87356 98.875 103.75 L 98.8125 101.375 z M 95.0625 103.46875 C 96.079334 103.87442 96.972314 104.76273 97.875 105.625 C 98.643732 107.40121 98.97373 109.3643 99.15625 111.375 L 91.625 111.34375 C 92.767691 108.71936 93.517501 105.82493 95.0625 103.46875 z "
       id="path2310" />
  </g>
</svg>
