<?xml version="1.0" encoding="UTF-8" standalone="no"?>
<!-- Created with Inkscape (http://www.inkscape.org/) -->
<svg
   xmlns:dc="http://purl.org/dc/elements/1.1/"
   xmlns:cc="http://creativecommons.org/ns#"
   xmlns:rdf="http://www.w3.org/1999/02/22-rdf-syntax-ns#"
   xmlns:svg="http://www.w3.org/2000/svg"
   xmlns="http://www.w3.org/2000/svg"
   xmlns:sodipodi="http://sodipodi.sourceforge.net/DTD/sodipodi-0.dtd"
   xmlns:inkscape="http://www.inkscape.org/namespaces/inkscape"
   width="128"
   height="128"
   id="svg2"
   sodipodi:version="0.32"
   inkscape:version="0.45+devel"
   version="1.0"
   sodipodi:docname="caravan_outline.svg"
   inkscape:output_extension="org.inkscape.output.svg.inkscape">
  <defs
     id="defs4" />
  <sodipodi:namedview
     id="base"
     pagecolor="#ffffff"
     bordercolor="#666666"
     borderopacity="1.0"
     gridtolerance="10000"
     guidetolerance="10"
     objecttolerance="10"
     inkscape:pageopacity="0.0"
     inkscape:pageshadow="2"
     inkscape:zoom="1"
     inkscape:cx="64"
     inkscape:cy="64"
     inkscape:document-units="px"
     inkscape:current-layer="layer1"
     showgrid="false"
     width="744.09px"
     inkscape:window-width="1248"
     inkscape:window-height="975"
     inkscape:window-x="426"
     inkscape:window-y="24"
     showguides="true"
     inkscape:guide-bbox="true" />
  <metadata
     id="metadata7">
    <rdf:RDF>
      <cc:Work
         rdf:about="">
        <dc:format>image/svg+xml</dc:format>
        <dc:type
           rdf:resource="http://purl.org/dc/dcmitype/StillImage" />
      </cc:Work>
    </rdf:RDF>
  </metadata>
  <g
     inkscape:label="outline"
     inkscape:groupmode="layer"
     id="layer1">
    <path
       style="opacity:1;fill:#5c2700;fill-opacity:1;stroke:none;stroke-width:1.11619961000000001;stroke-miterlimit:4;stroke-dasharray:none;stroke-opacity:1"
       d="M 86.375,8.96875 C 85.458175,8.9720619 84.515113,9.0781962 83.5625,9.28125 C 81.20205,9.9792751 79.109574,11.600546 77.40625,14.1875 C 76.15518,18.254634 71.926878,21.173962 68.78125,24.15625 C 65.85455,26.287185 62.754491,28.329186 59.65625,30.15625 C 49.873252,35.925383 39.188836,41.038786 32.5,44.0625 C 29.060669,46.441454 29.714065,46.42464 28.5,47.78125 L 31.6875,64.15625 C 31.153107,64.570245 30.619821,65.014805 30.0625,65.5 C 27.265812,67.934748 25.136695,70.914817 23.78125,74.625 L 22.96875,75.0625 L 23.03125,75.15625 L 22.78125,75.03125 L 23.375,76 C 22.162605,80.687556 22.661258,85.293695 23.9375,89.9375 C 25.412269,93.226803 27.593914,95.22305 31.5625,96.15625 L 21.1875,113.25 L 14.625,110.21875 L 11.9375,110.59375 L 9.53125,114.625 L 17.6875,118.3125 L 13.84375,124.21875 L 17.15625,126 L 19.0625,125.0625 L 22.34375,120.3125 L 30.9375,123.5625 L 32.5,123.34375 L 34.09375,119.8125 L 25.34375,115.3125 L 36.625,96.21875 C 38.787169,95.625131 40.761787,94.506183 42.40625,93.09375 C 42.441164,93.06722 42.466031,93.027893 42.5,93 L 54.6875,99.40625 L 56.46875,98.15625 C 56.227933,98.877038 56.997133,100.45743 57.28125,101.40625 C 59.089689,105.43977 61.94013,107.5214 67.875,108.09375 C 70.844363,107.79023 73.58925,106.41837 75.75,104.5625 C 77.418883,103.2944 78.93003,101.72518 80.1875,100.03125 C 83.905745,93.987751 85.207044,86.469203 82.3125,80.125 L 95.09375,71.21875 C 95.317403,72.74395 95.642205,74.251942 96.0625,75.78125 C 97.870937,79.814765 100.72138,81.896394 106.65625,82.46875 C 109.62561,82.165227 112.3705,80.793372 114.53125,78.9375 C 116.20013,77.669392 117.71128,76.100174 118.96875,74.40625 C 123.40324,67.198584 124.44473,57.86903 118.96875,50.96875 C 116.73009,48.860172 114.36486,48.062413 112.03125,48.125 C 111.44854,48.044837 110.89235,47.992248 110.375,47.9375 L 107.375,24.125 C 102.39491,17.675099 95.237646,8.9367353 86.375,8.96875 z M 86.53125,9.53125 C 94.995781,9.6469119 102.06158,18.126817 106.9375,24.1875 L 109.75,47.875 C 109.57957,47.865452 109.34952,47.839379 109.21875,47.84375 C 106.1673,47.945753 104.37547,49.438942 102.1875,51.34375 C 99.693402,53.515068 97.735327,56.114348 96.375,59.28125 C 90.301157,63.558804 81.088536,69.611836 75,73.875 C 74.415117,73.776065 73.833403,73.734353 73.25,73.75 C 72.165473,73.600801 71.05363,73.448154 70.4375,73.46875 C 67.386053,73.570753 65.59422,75.063942 63.40625,76.96875 C 62.586834,77.68212 61.860282,78.471426 61.15625,79.28125 L 58.46875,57.75 C 54.490917,51.398716 48.731143,46.973468 42.25,43.40625 C 40.562055,42.664883 38.776481,42.515833 36.96875,42.625 C 43.27921,39.622554 51.075208,35.384042 59.78125,30.25 C 62.980035,28.363644 66.165173,26.277929 69.1875,24.09375 C 70.013388,23.754601 70.594097,23.138618 71.25,22.59375 C 73.156274,21.134951 74.931152,19.618607 76.5625,18.09375 C 77.183407,18.344834 77.896029,18.806882 78.59375,19.25 L 78.5,18.9375 L 76.78125,17.90625 C 77.642573,17.092779 78.464438,16.292759 79.21875,15.46875 C 80.992565,16.140083 82.023155,17.180181 83.4375,18.03125 L 83.4375,17.8125 C 81.809242,16.480564 80.521948,15.680588 79.4375,15.21875 C 80.102428,14.480375 80.718087,13.742287 81.28125,13 C 83.88153,14.082464 87.895283,16.276508 90.125,17.6875 L 90.15625,17.625 C 87.311553,15.635598 84.469697,13.852753 81.625,12.53125 C 82.236547,11.690379 82.791318,10.839542 83.25,10 C 84.288335,9.5763574 85.426266,9.5640153 86.53125,9.53125 z M 82.71875,10.21875 C 82.332616,10.913167 81.79691,11.683736 81.1875,12.46875 C 80.682622,12.495289 80.085882,12.398216 79.53125,12.375 C 79.878948,12.446266 80.342732,12.635265 80.875,12.84375 C 80.273427,13.591701 79.610956,14.370766 78.875,15.15625 L 78.09375,15.125 C 78.320975,15.178568 78.512815,15.248286 78.71875,15.3125 C 77.915839,16.162504 77.048697,16.995463 76.15625,17.84375 L 75.875,17.90625 C 75.934838,17.910195 75.999554,17.957035 76.0625,17.96875 C 74.24464,19.69004 72.327722,21.352558 70.5625,22.78125 C 72.966798,20.44303 77.240874,17.135424 78.5,13.34375 C 79.725778,11.89538 81.248071,10.854626 82.71875,10.21875 z M 101.46875,35.6875 L 101.15625,35.78125 L 101.84375,37.625 L 100.40625,38.5625 L 99.625,36.15625 L 99.21875,36.21875 L 100.15625,38.71875 L 97.625,40.375 L 97,38.15625 L 96.65625,38.3125 L 97.28125,40.59375 L 94.1875,42.625 L 94.84375,45.71875 L 93.90625,46.1875 L 93.90625,46.46875 L 94.90625,45.9375 L 95.28125,47.71875 L 94.0625,48.46875 L 94.375,48.6875 L 95.34375,48.09375 L 95.84375,50.375 L 98.78125,48.46875 L 99.125,49.53125 L 99.46875,49.4375 L 99.125,48.25 L 100.875,47.09375 C 101.20246,47.977961 101.5329,48.881858 101.75,49.8125 L 101.96875,49.8125 C 101.82661,48.755232 101.61879,47.769242 101.3125,46.8125 L 103.03125,45.6875 L 103.71875,47.9375 L 104,47.78125 L 103.28125,45.53125 L 105.03125,44.40625 L 104.59375,41.40625 L 106.65625,40.09375 L 106.53125,39.8125 L 104.53125,41.03125 L 104.125,38.40625 L 105.15625,37.75 L 105.03125,37.46875 L 104.0625,38.0625 L 103.8125,36.3125 L 102.09375,37.4375 L 101.46875,35.6875 z M 103.5,36.84375 L 103.71875,38.28125 L 103.21875,38.59375 L 103.3125,38.90625 L 103.78125,38.625 L 104.1875,41.25 L 103.59375,41.59375 L 103.625,42 L 104.25,41.625 L 104.625,44.0625 L 103.125,45.0625 L 102.8125,44.0625 L 102.625,44.34375 L 102.90625,45.21875 L 101.15625,46.40625 C 100.93972,45.801738 100.70447,45.209412 100.375,44.625 L 100.09375,44.78125 C 100.26911,45.435082 100.48849,46.060106 100.71875,46.6875 L 99,47.875 L 98.78125,47.15625 L 98.40625,47.375 L 98.65625,48.09375 L 96.0625,49.84375 L 95.65625,47.90625 L 96.34375,47.46875 L 96.21875,47.125 L 95.5625,47.53125 L 95.1875,45.78125 L 95.90625,45.40625 L 95.90625,45.15625 L 95.15625,45.53125 L 94.59375,42.9375 L 97.40625,41.03125 L 97.96875,43.125 L 98.40625,43 L 97.75,40.78125 L 100.28125,39.03125 L 100.46875,39.53125 L 100.6875,39.4375 L 100.5,38.875 L 101.9375,37.90625 L 102.15625,38.5 L 102.40625,38.3125 L 102.1875,37.71875 L 103.5,36.84375 z M 37.5,43.375 C 38.669016,43.380666 39.772589,43.697533 40.9375,44.0625 L 40.875,45.09375 C 38.378023,48.88369 35.351525,49.254166 32.125,48.375 L 30.40625,46 C 32.221667,44.169723 34.839975,43.324013 37.5,43.375 z M 73.96875,43.90625 L 71.75,45.28125 C 71.535002,45.020974 71.310024,44.784195 71.03125,44.46875 L 70.8125,44.5 C 71.106739,44.777161 71.360413,45.079296 71.59375,45.40625 L 69.71875,46.5625 L 69,45.34375 L 68.78125,45.625 L 69.53125,46.65625 L 67.28125,48.0625 L 66.375,46.78125 L 66.1875,46.9375 L 67.09375,48.1875 L 64.8125,49.625 L 64.53125,49.25 L 64.34375,49.3125 L 64.65625,49.71875 L 62.90625,50.8125 C 63.689158,51.522414 64.000472,52.155863 64.1875,52.78125 L 63.375,53.34375 L 63.40625,53.46875 L 64.21875,52.96875 C 64.431011,53.781646 64.475682,54.594187 65.03125,55.59375 L 68,53.46875 L 68.65625,54.46875 L 68.84375,54.25 L 68.21875,53.3125 L 70.40625,51.78125 C 70.700971,52.279236 70.96875,52.75 70.96875,52.75 L 71.25,52.5625 C 71.25,52.5625 70.949902,52.109772 70.59375,51.625 L 72.3125,50.40625 L 72.875,51.0625 L 72.90625,50.875 L 72.4375,50.3125 L 74.15625,49.09375 C 74.706664,49.600819 75.3125,50 75.3125,50 L 75.28125,49.75 C 75.281252,49.75 74.854182,49.342876 74.4375,48.90625 L 75.78125,47.9375 C 75.448601,47.375532 75.034545,47.215699 74.6875,47.03125 L 75.3125,46.53125 L 75.09375,46.4375 L 74.4375,46.84375 C 74.00709,46.522074 73.734239,45.949933 73.96875,43.90625 z M 41.375,44.1875 C 41.552204,44.244058 41.724916,44.286289 41.90625,44.34375 C 45.861317,45.816093 50.355063,49.160017 54.5625,53.9375 L 53.375,54.59375 C 48.053526,52.656552 44.206125,49.737907 41.28125,44.9375 L 41.375,44.1875 z M 73.6875,44.1875 C 73.536219,45.430534 73.710669,46.342205 74.25,46.96875 L 74,47.125 L 74.0625,47.46875 L 74.46875,47.15625 C 74.754684,47.414736 75.088136,47.647506 75.53125,47.78125 L 74.25,48.6875 C 74.167976,48.598434 74.068854,48.51783 74,48.4375 L 73.6875,48.59375 C 73.774548,48.695306 73.868847,48.807143 73.96875,48.90625 L 72.25,50.125 L 72.03125,49.84375 L 71.9375,50 L 72.125,50.21875 L 70.4375,51.40625 C 70.301364,51.226847 70.166897,51.064505 70.03125,50.90625 L 69.875,51 C 70.007023,51.154027 70.150592,51.324518 70.28125,51.53125 L 68.0625,53.09375 L 67.78125,52.6875 L 67.5625,52.84375 L 67.84375,53.25 L 65.4375,54.96875 C 64.858604,54.334303 64.586377,53.59975 64.375,52.90625 L 65.53125,52.21875 C 65.556464,52.236594 65.542309,52.213998 65.53125,52.1875 C 65.517888,52.179975 65.549545,52.243723 65.3125,51.96875 L 64.28125,52.6875 C 64.069612,51.977211 63.897684,51.344238 63.4375,50.9375 L 64.875,50 L 65.6875,51.09375 L 65.84375,51 L 65.03125,49.90625 L 67.25,48.4375 L 67.59375,48.90625 L 67.78125,48.75 L 67.46875,48.28125 L 69.65625,46.84375 L 70.4375,47.90625 L 70.53125,47.9375 L 69.8125,46.71875 L 71.65625,45.53125 C 71.843436,45.799681 72.034807,46.074188 72.21875,46.34375 L 72.4375,46.25 C 72.236683,45.908069 72.040117,45.652902 71.84375,45.40625 L 73.6875,44.1875 z M 41.09375,45.25 C 41.68458,46.453658 43.001012,48.327386 43.8125,49.40625 L 45.84375,74.96875 C 44.668354,75.999305 42.749339,75.994514 42.3125,74.125 L 40.09375,46.375 C 40.46734,45.928347 40.73975,45.725131 41.09375,45.25 z M 30.09375,46.34375 L 31.8125,48.3125 C 32.445141,50.463729 32.882677,52.102644 32.15625,54.28125 L 30.3125,54.46875 L 29,47.9375 C 29.307847,47.344351 29.673833,46.819187 30.09375,46.34375 z M 39.78125,46.6875 L 41.03125,62.40625 L 36.875,65.375 C 36.567225,64.516697 35.993089,63.623664 35.21875,62.59375 C 35.800007,59.061016 35.058404,56.745789 32.4375,54.40625 C 34.047292,52.852783 33.039358,50.373268 32.53125,48.8125 C 36.084695,50.257586 38.037586,48.739478 39.78125,46.6875 z M 109.5625,48.5 C 106.03475,49.505801 102.74748,52.298814 100.375,55.5 C 95.947727,62.709723 94.89201,72.040259 100.375,78.9375 C 103.55727,81.944711 107.02191,82.352012 110.25,81.28125 C 109.13109,81.753235 107.95963,81.99859 106.625,82.09375 C 101.77374,81.690599 99.31552,79.760827 96.875,75.625 C 95.203697,71.897345 94.7178,66.385783 96.0625,60.96875 C 97.364957,57.169567 100.02777,53.869926 102.75,51.5 C 104.65116,49.84488 106.95447,48.742565 109.5625,48.5 z M 111.53125,48.9375 C 111.80876,48.923671 112.0969,48.926683 112.375,48.9375 C 114.39757,49.016169 116.45101,49.771118 118.3125,51.375 C 123.76523,57.888741 122.29529,67.272365 118.375,74.125 C 114.36996,80.174934 106.59682,83.689964 100.9375,78.15625 C 95.438547,71.639435 96.8502,62.80321 100.78125,55.9375 C 103.32955,52.070819 107.36865,49.144928 111.53125,48.9375 z M 44.15625,49.625 C 45.967344,51.783693 48.053479,53.423466 50.71875,54.34375 L 44.9375,59 L 44.15625,49.625 z M 111.03125,50.4375 C 110.59284,50.454065 110.15534,50.49705 109.6875,50.5625 C 102.00473,52.969285 99.0887,60.056747 98.625,67.5625 C 98.690367,74.547452 102.3207,80.355126 109.78125,79.3125 C 117.46632,76.908598 120.47289,69.387909 120.9375,61.875 C 120.87727,55.301264 117.60744,50.189026 111.03125,50.4375 z M 111.0625,50.84375 C 117.2867,50.473903 119.9836,56.547785 120.34375,62.21875 C 120.34162,62.290666 120.31531,62.365607 120.3125,62.4375 C 120.26087,61.966302 120.09059,61.631753 119.8125,61.625 L 119.21875,61.75 C 119.21985,61.501068 119.22386,61.176326 119.21875,61.0625 C 119.06003,59.132359 118.35716,57.385022 117.3125,55.84375 L 117.84375,55.1875 C 117.9464,54.334867 116.22425,52.348324 115.09375,52.6875 L 114.8125,53.21875 C 113.17797,51.72931 111.16897,51.429223 109.0625,51.28125 C 109.68871,50.949728 110.37371,50.918352 111.0625,50.84375 z M 109.34375,51.625 C 109.5535,51.63533 109.76969,51.662562 109.96875,51.6875 L 109.84375,53.5 L 108.75,54.25 C 108.72203,53.399698 108.67403,52.579437 108.65625,51.65625 C 108.88949,51.649175 109.12332,51.614144 109.34375,51.625 z M 108.15625,51.6875 C 108.22713,54.818424 108.35547,58.133126 108.4375,61.25 C 108.53369,61.536512 107.14241,62.138805 107.25,61.4375 L 106.3125,52.78125 C 106.88739,52.380087 107.50957,52.006153 108.15625,51.6875 z M 110.6875,51.84375 C 112.21059,52.1795 113.4383,52.868895 114.625,53.5625 L 110.5625,60.96875 C 110.25221,60.905048 110.04048,60.911858 109.84375,60.90625 L 110.6875,51.84375 z M 105.96339,53.257582 L 106.21875,56 L 102.53125,58.5 L 101.8125,57.8125 C 102.67113,56.301051 103.44155,55.208506 104.74118,54.064418 C 105.00682,53.830572 105.67939,53.473068 105.96339,53.257582 z M 115.625,53.25 C 116.50979,53.0405 117.52535,54.762579 117.125,55.28125 L 112.125,61.53125 C 111.72263,61.254559 111.33939,61.072867 110.96875,61 C 112.53929,58.468716 113.81975,55.533194 115.625,53.25 z M 109.84375,53.78125 L 109.625,57.3125 L 108.84375,57.84375 C 108.81655,56.755598 108.7865,55.621574 108.75,54.53125 L 109.84375,53.78125 z M 54.84375,54.28125 C 55.839943,55.432211 56.830647,56.627559 57.78125,57.9375 L 58.84375,66.3125 L 56.6875,66.25 C 54.396873,62.871422 53.082129,59.006234 53.53125,54.6875 L 54.84375,54.28125 z M 51.25,54.53125 C 51.78766,54.691965 52.352083,54.837948 52.9375,54.9375 C 52.445569,57.430607 52.886773,59.739248 53.78125,61.90625 C 51.198288,64.784578 48.508217,67.121369 45.8125,69.4375 L 45,59.78125 L 51.25,54.53125 z M 32.28125,54.59375 C 34.687386,56.707315 34.680024,59.712366 34.9375,62.625 L 32.125,63.5625 L 30.4375,55.09375 L 32.28125,54.59375 z M 117.0625,56.15625 C 118.02498,57.637171 118.40578,59.313015 118.5625,61.21875 C 118.60588,61.491935 118.59837,61.690754 118.59375,61.90625 L 113,63.21875 C 112.87605,62.751913 112.67363,62.297849 112.40625,61.84375 L 117.0625,56.15625 z M 106.25,56.25 L 106.59375,59.34375 L 104.78125,60.625 L 102.6875,58.625 L 106.25,56.25 z M 109.625,57.40625 L 109.4375,60.78125 L 109.53125,60.875 C 109.31362,60.890947 109.12806,60.941827 108.875,60.96875 C 108.87989,59.897108 108.86754,58.914766 108.84375,57.9375 L 109.625,57.40625 z M 101.625,58.125 L 106.625,62.84375 C 106.60233,63.619137 106.58818,64.373962 105.875,64.34375 L 100.75,60 C 101.01011,59.354722 101.297,58.731184 101.625,58.125 z M 106.625,59.5 L 106.8125,61.25 C 106.3698,61.071919 106.23305,61.539725 105.9375,61.6875 L 104.875,60.6875 L 106.625,59.5 z M 95.90625,60.4375 C 95.844933,60.604685 95.776849,60.767268 95.71875,60.9375 C 95.450352,61.812785 95.274175,62.692716 95.125,63.5625 L 78.15625,75.03125 C 77.44029,74.607514 76.695253,74.30335 75.96875,74.09375 C 81.936218,69.974576 90.128692,64.536289 95.90625,60.4375 z M 100.5625,60.5 L 102.53125,62.125 L 99.59375,64.125 C 99.812551,62.8876 100.12876,61.666647 100.5625,60.5 z M 106.8125,61.4375 L 106.875,61.875 C 107.4667,62.760354 108.17576,62.071456 108.59375,61.5625 L 108.90625,61.5625 C 108.45082,61.893478 108.01071,62.335515 107.59375,62.84375 C 106.48249,64.760093 106.40763,66.739781 107.59375,68.59375 C 107.86205,68.798243 108.12129,68.951726 108.375,69.0625 L 107.59375,69.15625 C 107.79877,68.179628 106.46508,67.95632 106.03125,67.8125 C 105.85738,68.078677 105.70194,68.305549 105.53125,68.5625 C 105.30601,68.252484 105.14032,67.91585 105,67.5625 L 105.90625,67.3125 C 106.41851,66.515787 106.00573,65.836474 105.65625,65.4375 L 104.65625,65.5 C 104.59463,65.130694 104.69753,64.806261 104.8125,64.46875 L 105.125,64.25 L 106.03125,65 C 106.57115,64.593541 107.14322,63.835982 106.9375,62.65625 L 106.125,61.90625 L 106.8125,61.4375 z M 109.875,61.46875 C 110.5411,61.384903 111.3784,61.806516 112.03125,62.1875 C 112.25115,62.50379 112.17914,62.906732 112.28125,63.25 L 109.5,63.1875 C 108.75833,63.774446 108.35051,64.523701 108.34375,65.3125 C 108.33699,66.101295 108.71309,66.882049 109.3125,67.625 L 111.5,67.5625 L 111.4375,67.59375 C 110.49957,68.599227 109.14175,68.965786 107.96875,68.28125 C 106.92049,66.777814 107.31003,64.408532 108.0625,62.84375 C 108.52651,62.204398 109.2089,61.552596 109.875,61.46875 z M 102.625,62.21875 L 104.5,63.75 C 104.40548,63.939369 104.34938,64.146592 104.3125,64.34375 L 102.40625,65.65625 L 99.34375,65.90625 C 99.394846,65.367015 99.473381,64.843196 99.5625,64.3125 L 102.625,62.21875 z M 53.90625,62.25 C 54.191472,62.900291 54.518996,63.534607 54.875,64.15625 L 46.15625,73.4375 L 45.84375,70.0625 C 48.589282,67.873479 51.315987,64.827135 53.90625,62.25 z M 119.5,62.25 C 119.87086,62.535868 120.14756,63.790492 119.28125,64.5625 L 114.84375,64.6875 C 114.72718,64.20332 114.52904,63.771381 114.21875,63.46875 L 119.5,62.25 z M 35.03125,62.75 C 36.831081,65.422968 36.815544,67.789409 34.6875,70.0625 L 33.3125,69.375 L 33.28125,69.375 L 32.1875,63.9375 L 35.03125,62.75 z M 41.09375,63.15625 L 41.78125,72.0625 L 36.15625,69.21875 C 37.011431,68.082298 37.245394,67.083641 37.0625,66.0625 L 41.09375,63.15625 z M 113.8125,63.65625 C 114.05939,63.83604 114.4985,64.681126 114.5625,65.15625 C 114.62371,65.610614 114.28011,66.496258 113.84375,67 L 109.5625,67.1875 C 109.16832,66.642193 108.99647,65.818478 109,65.40625 C 109.00371,64.973695 109.26573,64.199633 109.75,63.78125 L 113.8125,63.65625 z M 120.21875,63.78125 C 119.96156,66.415487 119.254,68.970632 118.0625,71.25 C 118.63555,69.25388 118.97434,67.193602 119.125,65.125 L 119.75,65.125 C 119.96636,64.756855 120.12457,64.270022 120.21875,63.78125 z M 95.0625,63.875 C 94.87832,65.054112 94.808353,66.233501 94.8125,67.40625 L 80.5625,77.125 C 80.434142,76.950182 80.323897,76.765624 80.1875,76.59375 C 79.596624,76.037207 79.011853,75.569688 78.40625,75.1875 L 95.0625,63.875 z M 112.78125,63.96875 C 112.06007,64.617036 111.53797,65.582451 112.84375,66.46875 L 113.3125,66.5 C 112.54015,65.558537 112.93233,64.778979 113.1875,64 L 112.78125,63.96875 z M 55.03125,64.4375 C 55.439488,65.129061 55.883209,65.812365 56.34375,66.46875 C 55.436333,68.882905 54.8039,71.66518 56.4375,75 C 55.225047,76.176595 54.661848,77.13547 54.71875,78.21875 L 46.5,74.0625 L 55.03125,64.4375 z M 31.78125,64.75 L 31.96875,65.71875 C 30.585429,66.869392 29.32168,68.210233 28.25,69.65625 C 27.566979,70.768537 26.977221,71.928859 26.46875,73.125 L 24.25,74.375 C 25.629299,70.895215 28.085547,67.867053 30.625,65.65625 C 30.995081,65.334062 31.380641,65.026932 31.78125,64.75 z M 104.25,64.84375 C 104.23606,65.065041 104.23457,65.277345 104.21875,65.5 L 103.1875,65.59375 L 104.25,64.84375 z M 118.78125,65.125 C 118.71406,67.159472 118.34887,69.207044 117.6875,71.09375 L 113.25,67.53125 L 113.84375,67.5 C 114.68537,66.765513 114.79185,66.16449 114.9375,65.1875 L 118.78125,65.125 z M 105.40625,65.84375 C 105.8016,66.201924 105.89696,66.579325 105.46875,66.9375 L 99.34375,68.46875 C 99.228057,67.814317 99.27113,66.970668 99.28125,66.3125 L 105.40625,65.84375 z M 32.09375,66.25 L 32.34375,67.625 C 31.032895,68.774557 29.989894,70.135783 29.15625,71.65625 L 27.40625,72.625 C 27.790866,71.761975 28.189933,70.908188 28.65625,70.09375 C 29.613001,68.642017 30.786962,67.3401 32.09375,66.25 z M 58.875,66.625 L 59.96875,75.34375 L 56.8125,74.875 C 55.420257,72.435229 55.650018,69.50593 56.5625,66.6875 L 58.875,66.625 z M 112.9375,67.53125 L 117.5625,71.5 C 117.33701,72.094414 117.07094,72.672026 116.78125,73.21875 L 111.84375,67.9375 C 111.96013,67.814792 112.07379,67.696178 112.1875,67.5625 L 112.9375,67.53125 z M 94.8125,67.5625 C 94.82297,68.614699 94.895072,69.668535 95.03125,70.71875 L 82.09375,79.65625 C 81.686202,78.830561 81.215472,78.026222 80.65625,77.25 L 94.8125,67.5625 z M 104.625,67.6875 C 104.75843,67.986526 104.94407,68.333502 105.1875,68.71875 L 101.875,68.4375 L 104.625,67.6875 z M 106.53125,68.1875 C 107.00173,68.172533 107.38736,68.850241 106.96875,69.1875 L 102.5625,76.46875 C 102.14638,76.024721 101.77107,75.502778 101.4375,74.96875 C 103.1118,72.983501 104.59832,70.591496 106.0625,68.46875 C 106.21321,68.270134 106.37442,68.192489 106.53125,68.1875 z M 111.5,68.25 L 116.5625,73.625 C 115.11845,75.528332 113.26406,77.122402 110.96875,78.15625 L 110.34375,69.0625 C 110.7446,68.887589 111.13159,68.591577 111.5,68.25 z M 32.5,68.375 L 32.75,69.6875 L 30.28125,71.03125 C 30.918955,70.065316 31.6657,69.173802 32.5,68.375 z M 100.71875,68.78125 L 105.09375,69.15625 C 103.84831,71.006877 102.62558,72.725757 101.21875,74.5625 C 100.30501,72.955268 99.72714,71.071754 99.4375,69.125 L 100.71875,68.78125 z M 109.8125,69.25 L 110.625,78.28125 C 110.34501,78.398931 110.07365,78.523216 109.78125,78.625 C 109.4308,78.690763 109.08077,78.721268 108.75,78.75 L 108.65625,69.34375 C 109.04209,69.317715 109.4271,69.281043 109.8125,69.25 z M 108.15625,69.40625 L 108.28125,78.78125 C 106.09535,78.86215 104.37846,78.134713 103.03125,76.90625 L 107.4375,69.46875 C 107.67356,69.447913 107.92903,69.427083 108.15625,69.40625 z M 35.90625,69.46875 L 41.84375,72.875 L 41.90625,73.625 L 35.1875,70.3125 C 35.471676,70.027915 35.688485,69.735407 35.90625,69.46875 z M 33.21875,69.8125 L 41.84375,74.15625 C 42.028286,75.139426 43.62285,76.52144 45.15625,75.8125 L 58.71875,82.65625 C 58.226523,83.514063 57.791911,84.418879 57.40625,85.375 L 57.25,85.21875 L 30.53125,71.375 L 33.21875,69.8125 z M 30.46875,71.40625 L 30.53125,71.625 L 57.375,85.40625 C 57.318015,85.548242 57.273327,85.699494 57.21875,85.84375 C 56.409402,86.393486 55.465307,86.994013 54.53125,87.59375 L 26.75,73.5625 L 30.46875,71.40625 z M 26.5625,73.6875 L 26.5625,73.71875 L 54.34375,87.71875 C 53.384137,88.334305 52.432542,88.94695 51.59375,89.5 L 23.5625,75.4375 L 26.5625,73.6875 z M 70.78125,74.125 C 67.253503,75.130801 63.96623,77.923814 61.59375,81.125 C 57.166479,88.334723 56.11076,97.665258 61.59375,104.5625 C 64.776019,107.56972 68.24066,107.97701 71.46875,106.90625 C 70.349843,107.37824 69.17838,107.62359 67.84375,107.71875 C 62.992493,107.31561 60.53427,105.38583 58.09375,101.25 C 56.422449,97.522349 55.93655,92.010783 57.28125,86.59375 C 58.583709,82.794567 61.24652,79.494926 63.96875,77.125 C 65.869909,75.46988 68.17322,74.367565 70.78125,74.125 z M 46.1875,74.3125 L 54.78125,78.875 L 54.8125,78.84375 C 54.938009,79.33399 55.170835,79.855868 55.53125,80.4375 L 45.71875,75.65625 C 46.166493,75.262804 46.122659,74.706794 46.1875,74.3125 z M 72.78125,74.5625 C 73.058757,74.548671 73.315647,74.551683 73.59375,74.5625 C 75.616323,74.641169 77.66976,75.396118 79.53125,77 C 84.983983,83.513741 83.51404,92.897365 79.59375,99.75 C 75.588713,105.79994 67.81557,109.31497 62.15625,103.78125 C 56.657299,97.264439 58.06895,88.42821 62,81.5625 C 64.548302,77.695819 68.618652,74.769928 72.78125,74.5625 z M 56.71875,75.28125 L 60.0625,75.9375 L 60.5625,79.9375 C 60.002183,80.636999 59.505505,81.380618 59.03125,82.15625 L 56.25,80.78125 C 54.008786,78.361086 56.018163,77.023187 56.71875,75.28125 z M 72.25,76.0625 C 71.811593,76.079065 71.37409,76.12205 70.90625,76.1875 C 63.223483,78.594285 60.30745,85.681747 59.84375,93.1875 C 59.909119,100.17245 63.53945,105.98013 71,104.9375 C 78.685073,102.5336 81.69164,95.012909 82.15625,87.5 C 82.096023,80.926264 78.82619,75.814026 72.25,76.0625 z M 24.21875,76.375 C 32.900033,80.834125 42.753708,85.888455 51.53125,90.15625 L 52.25,92.375 L 26.09375,79.34375 L 24.21875,76.375 z M 23.65625,76.46875 L 24.90625,78.46875 C 24.004169,83.559291 24.829228,88.790644 28.25,93.09375 C 29.462297,94.239358 30.733597,94.98488 32,95.4375 L 31.78125,95.78125 C 28.64919,94.935477 26.681525,93.054509 24.75,89.78125 C 23.217264,86.362649 22.696722,81.439323 23.65625,76.46875 z M 72.28125,76.46875 C 78.505453,76.098903 81.20235,82.172785 81.5625,87.84375 C 81.560373,87.915666 81.53406,87.990607 81.53125,88.0625 C 81.479623,87.591302 81.30934,87.256753 81.03125,87.25 L 80.4375,87.375 C 80.438603,87.126068 80.44261,86.801326 80.4375,86.6875 C 80.278783,84.757359 79.57591,83.010022 78.53125,81.46875 L 79.0625,80.8125 C 79.165153,79.959867 77.443,77.973324 76.3125,78.3125 L 76.03125,78.84375 C 74.396723,77.35431 72.38772,77.054223 70.28125,76.90625 C 70.907463,76.574728 71.59246,76.543352 72.28125,76.46875 z M 70.375,77.25 L 69.742417,77.612056 C 69.738853,77.481611 69.877567,77.41454 69.875,77.28125 C 70.044762,77.276101 70.210009,77.256297 70.375,77.25 z M 71,77.28125 C 72.055617,77.392579 72.975082,77.707871 73.8125,78.09375 L 70,80.59375 C 69.97281,79.79398 69.98023,78.876639 69.950444,78.036612 L 71,77.28125 z M 69.375,77.3125 C 69.445883,80.443424 69.57422,83.758126 69.65625,86.875 C 69.752443,87.161512 68.36116,87.763805 68.46875,87.0625 L 67.53125,78.40625 C 68.106143,78.005087 68.72832,77.631153 69.375,77.3125 z M 74,78.1875 C 74.646021,78.498565 75.24948,78.840161 75.84375,79.1875 L 74.8125,81.0625 L 70.09375,84.3125 C 70.072913,83.169522 70.037903,82.050311 70,80.9375 L 74,78.1875 z M 67.09375,78.75 L 67.15625,79.317862 L 64.78125,80.9375 C 65.469732,80.131519 66.238617,79.39884 67.09375,78.75 z M 76.84375,78.875 C 77.728543,78.6655 78.7441,80.387579 78.34375,80.90625 L 73.34375,87.15625 C 72.941383,86.879559 72.55814,86.697867 72.1875,86.625 C 73.758043,84.093716 75.0385,81.158194 76.84375,78.875 z M 25.40625,79.3125 L 26.53125,81.1875 C 26.518311,81.364773 26.510922,81.541963 26.5,81.71875 C 26.551121,87.181169 28.804937,91.909797 33.34375,93.21875 L 32.5,94.59375 C 31.219468,94.163296 29.96667,93.441055 28.8125,92.3125 C 25.582976,88.485186 24.757649,83.870164 25.40625,79.3125 z M 26.28125,79.6875 L 52.3125,92.59375 L 53.21875,95.4375 L 28.78125,83.625 L 26.28125,79.6875 z M 67.21875,79.96875 L 67.5,82.28125 L 64.28125,84.59375 L 63.03125,83.4375 C 63.322874,82.924152 63.657405,82.444282 64,81.96875 L 67.21875,79.96875 z M 74.625,81.375 L 71.78125,86.59375 C 70.911123,86.415113 70.64719,86.534869 70.09375,86.59375 C 70.097057,85.869688 70.10498,85.174446 70.09375,84.5 L 74.625,81.375 z M 78.28125,81.78125 C 78.360466,81.903135 78.428466,82.031705 78.5,82.15625 L 77.15625,83.15625 L 78.28125,81.78125 z M 27.1875,82.21875 L 27.40625,82.59375 L 27.21875,82.625 C 27.196683,82.500174 27.197089,82.355288 27.1875,82.21875 z M 67.53125,82.625 L 67.90625,85.78125 L 66.53125,86.71875 L 64.40625,84.75 L 67.53125,82.625 z M 78.75,82.625 C 79.371329,83.893493 79.653295,85.287795 79.78125,86.84375 C 79.824633,87.116935 79.81712,87.315754 79.8125,87.53125 L 74.21875,88.84375 C 74.094803,88.376913 73.89238,87.922849 73.625,87.46875 L 76.03125,84.53125 L 78.75,82.625 z M 27.75,83.15625 L 29.625,86.25 L 30.5625,86.75 C 30.090841,87.402527 29.607941,88.047429 29.09375,88.71875 C 28.18001,87.111519 27.60214,85.228004 27.3125,83.28125 L 27.75,83.15625 z M 62.84375,83.75 L 67.84375,88.46875 C 67.821083,89.244137 67.80693,89.998962 67.09375,89.96875 L 61.96875,85.625 C 62.228859,84.979722 62.51575,84.356184 62.84375,83.75 z M 28.90625,83.84375 L 53.3125,95.75 L 54.21875,98.53125 L 30.1875,85.90625 L 28.90625,83.84375 z M 67.9375,86 L 68.03125,86.875 C 67.588553,86.696919 67.4518,87.164725 67.15625,87.3125 L 66.65625,86.84375 L 67.9375,86 z M 61.78125,86.125 L 61.90625,86.21875 L 61.6875,86.40625 C 61.720472,86.313329 61.746903,86.217386 61.78125,86.125 z M 62.0625,86.34375 L 64.34375,88.21875 L 60.65625,90.71875 C 60.838724,89.330559 61.148884,87.965261 61.59375,86.65625 L 62.0625,86.34375 z M 56.875,86.84375 C 56.546604,87.969724 56.292443,89.10124 56.15625,90.21875 L 53.0625,92.125 L 52.34375,89.71875 C 53.930158,88.666801 55.321256,87.778369 56.875,86.84375 z M 30.96875,86.96875 L 32.25,87.625 L 30.4375,90.625 C 30.02138,90.180972 29.64607,89.659028 29.3125,89.125 C 29.883855,88.447534 30.435853,87.715982 30.96875,86.96875 z M 68.03125,87.0625 L 68.09375,87.5 C 68.685453,88.385354 69.39451,87.696456 69.8125,87.1875 L 70.125,87.1875 C 69.669573,87.518478 69.22946,87.960515 68.8125,88.46875 C 67.701243,90.385093 67.62638,92.364781 68.8125,94.21875 C 69.080803,94.423247 69.34004,94.576726 69.59375,94.6875 L 68.8125,94.78125 C 69.017523,93.804632 67.68383,93.58132 67.25,93.4375 C 67.076133,93.703681 66.92069,93.930549 66.75,94.1875 C 66.524763,93.877488 66.35907,93.54085 66.21875,93.1875 L 67.125,92.9375 C 67.637263,92.140791 67.22448,91.461474 66.875,91.0625 L 65.875,91.125 C 65.791403,90.623926 66.02544,90.184166 66.15625,89.71875 L 67.25,90.625 C 67.789903,90.218545 68.36197,89.460982 68.15625,88.28125 L 67.34375,87.53125 L 68.03125,87.0625 z M 71.09375,87.09375 C 71.759848,87.009906 72.5659,87.431516 73.21875,87.8125 C 73.438649,88.128793 73.39789,88.531732 73.5,88.875 L 70.71875,88.8125 C 69.977083,89.399446 69.56926,90.148701 69.5625,90.9375 C 69.555743,91.726299 69.93184,92.507049 70.53125,93.25 L 72.71875,93.1875 L 72.65625,93.21875 C 71.718323,94.224231 70.3605,94.590786 69.1875,93.90625 C 68.139243,92.402818 68.52878,90.033532 69.28125,88.46875 C 69.745263,87.829398 70.42765,87.177596 71.09375,87.09375 z M 80.71875,87.875 C 81.089613,88.160868 81.36631,89.415492 80.5,90.1875 L 76.0625,90.3125 C 75.945933,89.828324 75.74779,89.396381 75.4375,89.09375 L 80.71875,87.875 z M 32.78125,87.90625 L 35.65625,89.40625 L 33.6875,92.65625 C 32.624821,92.341466 31.69463,91.78139 30.90625,91.0625 L 32.78125,87.90625 z M 64.46875,88.34375 L 65.71875,89.375 C 65.440743,89.931968 65.47975,90.530247 65.4375,91.125 L 60.5625,91.53125 C 60.58049,91.341397 60.602327,91.157644 60.625,90.96875 L 64.46875,88.34375 z M 75.03125,89.28125 C 75.278143,89.46104 75.71725,90.306126 75.78125,90.78125 C 75.842463,91.235618 75.49886,92.121258 75.0625,92.625 L 70.78125,92.8125 C 70.387073,92.267197 70.21522,91.443478 70.21875,91.03125 C 70.222463,90.598699 70.48448,89.824633 70.96875,89.40625 L 75.03125,89.28125 z M 81.4375,89.40625 C 81.180313,92.040487 80.47275,94.595632 79.28125,96.875 C 79.854303,94.878884 80.19309,92.818602 80.34375,90.75 L 80.96875,90.75 C 81.185113,90.381859 81.34332,89.895022 81.4375,89.40625 z M 74,89.59375 C 73.278823,90.242036 72.75672,91.207451 74.0625,92.09375 L 74.53125,92.125 C 73.758903,91.183541 74.15108,90.403979 74.40625,89.625 L 74,89.59375 z M 36.21875,89.71875 L 38.125,90.71875 L 25.9375,112.25 L 17.03125,125.21875 L 14.71875,124.03125 L 18.4375,118.125 L 20.90625,114.46875 L 36.21875,89.71875 z M 56.15625,90.375 C 56.02135,91.55179 55.985906,92.703606 56.03125,93.875 L 54,95.28125 L 53.15625,92.40625 L 56.15625,90.375 z M 80,90.75 C 79.932813,92.784476 79.56762,94.832044 78.90625,96.71875 L 74.46875,93.15625 L 75.0625,93.125 C 75.904123,92.390517 76.0106,91.78949 76.15625,90.8125 L 80,90.75 z M 38.625,90.96875 L 39.125,91.21875 L 38.8125,91.75 C 34.34375,99.385417 32.328183,104.07701 25.40625,114.65625 L 21.25,121.375 L 18.84375,124.6875 L 17.75,125.09375 L 20.5625,120.875 L 25,114.53125 L 38.625,90.96875 z M 39.375,91.375 L 40,91.71875 C 39.625719,91.932837 39.242118,92.133068 38.84375,92.3125 L 39.375,91.375 z M 66.625,91.46875 C 67.020353,91.826928 67.11571,92.204325 66.6875,92.5625 L 60.5625,94.09375 C 60.446809,93.439321 60.48988,92.595668 60.5,91.9375 L 66.625,91.46875 z M 40.75,92.09375 L 41.96875,92.71875 C 40.543029,93.732137 38.999002,94.487645 37.40625,94.84375 L 38.3125,93.21875 C 39.18173,92.901487 40.004493,92.539512 40.75,92.09375 z M 74.15625,93.15625 L 78.78125,97.125 C 78.555763,97.719418 78.28969,98.297026 78,98.84375 L 73.0625,93.5625 C 73.178883,93.439796 73.29254,93.321178 73.40625,93.1875 L 74.15625,93.15625 z M 65.84375,93.3125 C 65.962605,93.578862 66.140726,93.885215 66.34375,94.21875 L 63.4375,93.96875 L 65.84375,93.3125 z M 67.75,93.8125 C 68.220477,93.797534 68.606112,94.475241 68.1875,94.8125 L 63.78125,102.09375 C 63.365129,101.64973 62.98982,101.12778 62.65625,100.59375 C 64.330549,98.608505 65.81707,96.216496 67.28125,94.09375 C 67.431966,93.895135 67.593174,93.817489 67.75,93.8125 z M 72.71875,93.875 L 77.78125,99.25 C 76.337203,101.15334 74.48281,102.7474 72.1875,103.78125 L 71.5625,94.6875 C 71.963353,94.512593 72.35034,94.216577 72.71875,93.875 z M 56.03125,94.125 C 56.084098,95.213895 56.226612,96.318507 56.40625,97.40625 L 54.9375,98.40625 L 54.0625,95.46875 L 56.03125,94.125 z M 62.28125,94.3125 L 66.375,94.6875 C 65.107451,96.574299 63.868234,98.319548 62.4375,100.1875 C 61.523759,98.580272 60.94589,96.696754 60.65625,94.75 L 62.28125,94.3125 z M 71.03125,94.875 L 71.84375,103.90625 C 71.563763,104.02394 71.2924,104.14822 71,104.25 C 70.649553,104.31577 70.29952,104.34627 69.96875,104.375 L 69.875,94.96875 C 70.260843,94.942719 70.64585,94.906043 71.03125,94.875 z M 69.375,95.03125 L 69.5,104.40625 C 67.314103,104.48716 65.59721,103.75972 64.25,102.53125 L 68.65625,95.09375 C 68.892313,95.072917 69.14778,95.052083 69.375,95.03125 z M 38.125,95.4375 C 37.705421,95.61449 37.282559,95.758356 36.84375,95.875 L 36.875,95.75 C 37.295006,95.664596 37.710758,95.574905 38.125,95.4375 z M 14.53125,110.65625 L 21.03125,113.53125 L 20.5625,114.28125 L 12.84375,110.96875 L 14.53125,110.65625 z M 12.21875,111.125 L 20.40625,114.65625 L 18,117.9375 L 10.15625,114.5 L 12.21875,111.125 z M 25.0625,115.59375 L 33.34375,119.875 L 32.90625,120.0625 L 24.53125,116.5625 L 25.0625,115.59375 z M 24.4375,116.78125 L 32.375,120.625 L 30.8125,123.15625 L 22.5625,119.6875 L 24.4375,116.78125 z M 33.5,120.25 L 32.3125,122.84375 L 31.53125,123 L 32.9375,120.46875 L 33.5,120.25 z"
       id="path2500"
       sodipodi:nodetypes="ccccscccscccccccccccccccccccccscccccccccccccccccccccsscccssccccscccccccccccccccccccccccccccccccccccccccccccccccccccccccccccccccccccccccccccccccccccccccccccccccccccccccccccccccccccccccccccccccccccccccccccccccccccccccccccccccccccccccccccccccccccccccccccccccccccccccccsccccccccccccccccccccccccccccccccccccccccccccccsccscccccccccccccccccsccsccccccccccccccccccccccccccsccccccccccccccccccccccccccccccccccccccccccccccccccccccccsccccccccccccccccccccccccccccccccscccccccccccccccccccccccccccccccccccsccscccccccccccccccccccccccccccccsccccccccccccccccccccccccccccccccccccccccccccccccccccccccccccccccccccccccccccccccccccccccccccccccccccccccccsccccccccscccccccccccccccccccccccccccccccsccscccccccccccccccccccccccccccccccccccccccccccccccccccccccccccccccccccccccccccccccccccccccccccccccccccccccccccccccccccccccccccccccccccccccccccccscccccccccccccccccccccccsccscccccccccccccccccccccccccccccccccccccccccccccccccccccccccccccccccccccccccccccccccccccccccccccccccccccccccccccccccccccccccccccc" />
  </g>
</svg>
