<?xml version="1.0" encoding="UTF-8" standalone="no"?>
<!-- Created with Inkscape (http://www.inkscape.org/) -->
<svg
   xmlns:dc="http://purl.org/dc/elements/1.1/"
   xmlns:cc="http://creativecommons.org/ns#"
   xmlns:rdf="http://www.w3.org/1999/02/22-rdf-syntax-ns#"
   xmlns:svg="http://www.w3.org/2000/svg"
   xmlns="http://www.w3.org/2000/svg"
   xmlns:xlink="http://www.w3.org/1999/xlink"
   xmlns:sodipodi="http://sodipodi.sourceforge.net/DTD/sodipodi-0.dtd"
   xmlns:inkscape="http://www.inkscape.org/namespaces/inkscape"
   width="128"
   height="128"
   id="svg2"
   sodipodi:version="0.32"
   inkscape:version="0.45+devel"
   version="1.0"
   sodipodi:docname="caravan_wreck_outline.svg"
   inkscape:output_extension="org.inkscape.output.svg.inkscape">
  <defs
     id="defs4">
    <filter
       height="1.42432"
       y="-0.21216"
       width="1.2179726"
       x="-0.1089863"
       id="filter2892"
       inkscape:collect="always">
      <feGaussianBlur
         id="feGaussianBlur2894"
         stdDeviation="0.72146876"
         inkscape:collect="always" />
    </filter>
    <radialGradient
       r="8.2519293"
       fy="222.04396"
       fx="14.207293"
       cy="222.04396"
       cx="14.207293"
       gradientTransform="scale(1.39523,0.716728)"
       gradientUnits="userSpaceOnUse"
       id="radialGradient1968"
       xlink:href="#linearGradient2057"
       inkscape:collect="always" />
    <linearGradient
       inkscape:collect="always"
       id="linearGradient2057">
      <stop
         style="stop-color:#000000;stop-opacity:1;"
         offset="0"
         id="stop2059" />
      <stop
         style="stop-color:#000000;stop-opacity:0;"
         offset="1"
         id="stop2061" />
    </linearGradient>
  </defs>
  <sodipodi:namedview
     id="base"
     pagecolor="#ffffff"
     bordercolor="#666666"
     borderopacity="1.0"
     gridtolerance="10000"
     guidetolerance="10"
     objecttolerance="10"
     inkscape:pageopacity="0.0"
     inkscape:pageshadow="2"
     inkscape:zoom="1"
     inkscape:cx="37.773428"
     inkscape:cy="45.087085"
     inkscape:document-units="px"
     inkscape:current-layer="layer1"
     showgrid="false"
     width="744.09px"
     inkscape:window-width="1248"
     inkscape:window-height="975"
     inkscape:window-x="426"
     inkscape:window-y="24"
     showguides="true"
     inkscape:guide-bbox="true" />
  <metadata
     id="metadata7">
    <rdf:RDF>
      <cc:Work
         rdf:about="">
        <dc:format>image/svg+xml</dc:format>
        <dc:type
           rdf:resource="http://purl.org/dc/dcmitype/StillImage" />
      </cc:Work>
    </rdf:RDF>
  </metadata>
  <g
     inkscape:label="Layer 1"
     inkscape:groupmode="layer"
     id="layer1">
    <path
       style="opacity:1;fill:#5c2700;fill-opacity:1;stroke:none;stroke-width:1.11619961000000001;stroke-miterlimit:4;stroke-dasharray:none;stroke-opacity:1"
       d="M 69.875 8.3125 C 65.619774 8.640559 58.462485 8.681888 55.40625 16.21875 L 55.59375 16.59375 C 54.709936 19.233312 53.738597 21.87859 51.75 24.65625 C 53.899996 23.055361 55.449348 21.738418 57.28125 20.3125 L 58.15625 22.3125 C 57.053437 24.882075 54.988693 27.796395 54.03125 30.0625 C 55.233976 28.64339 56.537716 27.273706 57.90625 25.9375 C 56.989099 30.849154 57.138806 35.688153 53.96875 40.75 C 55.663422 39.749189 57.343575 38.744748 59.6875 37.90625 C 58.876014 42.262484 57.12725 46.056345 55.15625 49.75 C 58.092146 45.436698 61.488196 43.385672 65.1875 40.9375 L 56.90625 54.3125 C 55.718153 53.080868 54.787068 51.618519 53.125 50.65625 C 52.563904 48.364585 52.257291 45.635417 53.03125 43.34375 L 45.75 42.625 C 44.028629 42.692743 43.573283 40.228433 42.71875 38.5625 C 39.873623 39.849759 38.175539 38.555251 36.21875 37.84375 C 33.460719 39.363156 30.885304 39.772494 27.84375 39.15625 L 25.125 44.125 C 23.282665 46.579534 21.100255 48.278344 20.25 52.9375 L 21.125 87.375 L 5.84375 93 L 15.8125 106.1875 L 48.9375 113.125 L 75.34375 102.84375 L 74.40625 102.375 L 96.25 101.9375 C 98.39914 99.40601 97.77945 96.99242 95.09375 95.03125 L 95.03125 95 L 94.96875 95 L 72.25 95.90625 L 72.25 95.34375 L 68.15625 95.34375 L 68.34375 89.65625 L 67.03125 88.46875 L 56.34375 92.75 C 57.826256 90.433574 58.992818 87.997088 60.8125 85.8125 L 60.9375 90.09375 L 67.0625 85.4375 L 73.96875 92.59375 L 79.46875 89.71875 L 83.6875 91.96875 L 89.1875 91.40625 L 91.53125 92.03125 L 96.84375 83 C 98.68828 85.767293 101.45478 87.27851 106.34375 87.75 C 109.31311 87.446475 112.058 86.074622 114.21875 84.21875 C 115.88763 82.95064 117.39878 81.381424 118.65625 79.6875 C 123.09074 72.479832 124.13223 63.15028 118.65625 56.25 C 116.41759 54.14142 114.05236 53.343663 111.71875 53.40625 C 111.13604 53.326085 110.57985 53.273498 110.0625 53.21875 L 109.4375 53.15625 C 109.26707 53.1467 109.03702 53.120629 108.90625 53.125 C 108.21413 53.148136 107.61309 53.251402 107.03125 53.40625 L 92.1875 20.9375 C 87.31781 12.927885 79.040529 8.509497 69.875 8.3125 z M 68.8125 9.34375 C 77.180569 9.234562 86.666324 14.569282 91.28125 21.375 L 103.875 47.5 L 103.90625 47.96875 C 99.79776 47.869987 96.98696 49.212295 93.625 51.5625 C 95.373514 48.150299 96.87913 44.616649 98.15625 40.96875 C 94.9375 40.25 91.533064 38.520364 88.0625 39.3125 C 89.676021 36.530719 89.354167 32.125 90.03125 28.875 C 86.239583 33.489583 82.447917 36.493918 78.65625 42.71875 C 81.353469 35.354341 81.386528 28.655972 82.75 21.625 C 79.052083 27.510417 74.735993 28.656501 71.65625 39.28125 C 71.848516 29.833947 70.081167 25.068378 68.84375 15.9375 C 63.528363 19.443735 58.918878 22.868649 55.3125 28.15625 C 56.666667 25.458333 59.08577 22.760417 59.375 20.0625 C 59.458146 19.5488 59.481589 19.035392 59.40625 18.53125 L 52.90625 23.15625 C 55.168191 21.276838 55.519128 19.489231 55.875 17.71875 C 56.957335 11.677394 63.394738 9.623792 68.8125 9.34375 z M 68.46875 17 C 69.892756 24.428781 71.547246 32.753297 71.375 40.21875 L 66.65625 39.3125 L 59.8125 24.15625 C 62.522874 21.681802 65.439716 19.315118 68.46875 17 z M 58.875 19.09375 C 58.965448 19.778395 58.806158 20.548765 58.53125 21.375 L 57.875 19.875 C 58.206718 19.621778 58.515179 19.357573 58.875 19.09375 z M 82.09375 23.21875 C 81.190281 29.098058 80.377239 35.513467 78.6875 41.625 L 71.53125 40.25 C 73.952555 32.61348 78.436941 28.65882 82.09375 23.21875 z M 59.25 24.65625 L 65.96875 39.4375 C 63.14972 41.912206 59.657089 43.35015 57.125 46.8125 C 59.447531 43.203302 59.393498 40.370129 60.84375 36.90625 C 59.03646 37.593758 57.095969 37.482064 55.4375 39.0625 C 58.339992 33.509032 57.727884 29.722655 58.78125 25.09375 C 58.93627 24.947228 59.093324 24.801944 59.25 24.65625 z M 89.15625 30.8125 C 88.577525 33.743824 88.82001 36.812016 87.34375 39.59375 C 90.625 39.812046 93.90625 40.697917 97.1875 41.25 C 96.73988 42.459655 96.34178 43.706685 95.9375 44.96875 L 79.4375 41.8125 C 82.678803 37.154405 85.914947 34.630339 89.15625 30.8125 z M 36.3125 38.625 C 38.095367 39.061404 39.421675 40.194285 42.0625 39.34375 C 43.031451 40.697917 43.110132 41.802083 45.34375 43.15625 L 52.09375 44.28125 C 52.296908 46.452263 51.340458 48.430007 52.8125 50.8125 C 56.03125 52.770833 57.063609 57.227899 62.46875 56.6875 C 57.404324 61.482017 57.63829 63.462334 56.1875 66.34375 C 55.392518 51.382596 47.022913 43.016109 38.5 40.875 C 36.25457 40.292845 34.198805 40.186596 32.3125 40.46875 C 29.952257 40.731242 27.818966 41.93054 25.9375 43.375 L 28.25 39.84375 C 30.999002 40.046402 33.702937 39.435957 36.3125 38.625 z M 66.6875 40.0625 L 78.46875 42.375 C 78.402033 42.605272 78.319381 42.833272 78.25 43.0625 L 66.9375 40.9375 L 58.15625 55.375 C 57.925328 55.213227 57.706505 55.057645 57.5 54.875 C 60.469694 49.81619 63.721139 44.646398 66.6875 40.0625 z M 67.0625 41.84375 L 68.6875 45.65625 L 61.65625 56.53125 L 61.96875 56.53125 L 68.78125 45.875 L 71.09375 51.3125 L 59.71875 69.6875 C 58.722521 68.718501 57.851274 67.688016 57.125 66.65625 C 58.046442 62.122035 60.648305 59.982962 62.90625 56.5625 C 60.999724 56.656933 59.667961 56.289136 58.625 55.6875 L 67.0625 41.84375 z M 67.71875 41.96875 L 95.25 47.03125 C 94.897742 48.026329 94.50127 49.034652 94.03125 50.03125 L 69.1875 45.59375 L 67.71875 41.96875 z M 35.15625 42.125 C 36.146476 42.109216 37.183392 42.153188 38.25 42.21875 C 44.814653 43.867909 51.409299 49.153175 54.0625 58.90625 L 46.125 71.75 L 51.90625 76.75 L 47.25 83.6875 L 49.375 84.4375 L 50.96875 82.34375 L 53.84375 79.28125 L 52.0625 86.90625 L 54.125 87.21875 L 54.625 86.4375 L 54.40625 93.8125 L 43.125 91.5 L 51.4375 86.6875 L 51.34375 86.53125 L 51.3125 86.53125 L 49.40625 85.125 L 41.9375 87.0625 L 42.53125 83.90625 L 41.375 82.78125 L 39.375 83.125 L 39.40625 82.65625 L 37.21875 81.625 L 22.40625 86.8125 C 23.98148 83.806753 25.618684 80.821745 29.59375 79.125 C 26.975617 77.812533 22.980292 76.419511 23.125 74.125 C 27.571546 71.977171 27.374711 70.654616 31.03125 68.59375 C 26.829912 64.928944 24.469788 63.930436 23.34375 61.53125 C 23.427969 60.280782 25.006776 59.573578 26.4375 58.25 C 25.588951 54.954534 24.597008 51.571371 25.34375 49.1875 C 28.634833 48.901748 29.227164 47.734294 34.53125 47.0625 C 31.683725 46.544467 28.835579 45.611406 26.21875 44.59375 C 28.613921 42.99901 31.999804 42.332387 35.15625 42.125 z M 79 42.46875 L 95.6875 45.78125 C 95.628687 45.960234 95.560581 46.133038 95.5 46.3125 L 78.5625 43.125 C 78.704253 42.903632 78.858247 42.681086 79 42.46875 z M 25.78125 44.96875 C 27.414698 45.669156 28.421808 46.443486 31.71875 46.90625 C 27.634063 47.635417 27.105513 48.364583 24.8125 49.09375 C 24.121108 52.048509 25.15716 55.013991 26.0625 57.96875 C 24.472961 58.739899 23.511885 60.118513 22.5625 61.53125 C 24.705257 65.545384 27.788423 66.242361 30.40625 68.59375 C 26.689702 70.460122 25.078895 72.321129 22.4375 74.1875 C 23.989638 77.447671 26.169761 77.881911 28.15625 79.1875 C 24.990952 81.02582 23.81262 83.715888 22.125 86.1875 L 21.75 52.78125 C 22.435819 49.105033 23.839628 46.616786 25.78125 44.96875 z M 69.25 45.75 L 93.90625 50.3125 C 93.567166 51.00823 93.187011 51.687944 92.75 52.375 C 93.831729 51.714228 94.920348 51.177658 96 50.71875 L 99.71875 51.40625 L 96.0625 56.625 L 71.375 51.0625 L 69.25 45.75 z M 103.46875 48.09375 L 85.40625 74.59375 L 85.375 74.71875 L 84.5 74.15625 L 102.625 48.40625 C 102.90752 48.308359 103.18623 48.197504 103.46875 48.09375 z M 104.40625 48.34375 L 105.90625 52.21875 C 105.45749 52.980943 105.02186 53.762552 104.5625 54.53125 C 103.65827 55.117338 102.79041 55.828063 101.875 56.625 C 99.3809 58.796316 97.42283 61.395598 96.0625 64.5625 C 95.185522 66.471128 94.820742 68.299542 94.6875 70.09375 C 92.715336 73.139686 90.731497 76.199706 88.84375 79.15625 L 84.375 81.125 L 86.0625 74.90625 L 104.40625 48.34375 z M 101.5625 48.75 L 99.9375 51.0625 L 96.625 50.46875 C 98.27174 49.809878 99.91241 49.295173 101.5625 48.75 z M 71.46875 51.28125 L 95.875 56.9375 L 94.125 59.4375 L 73.09375 55.3125 L 71.46875 51.28125 z M 71.15625 51.5 L 72.96875 55.75 L 62.28125 71.78125 C 61.421383 71.218289 60.632693 70.562556 59.90625 69.875 L 71.15625 51.5 z M 106.0625 52.59375 L 106.4375 53.5625 C 105.94299 53.737117 105.48011 53.960265 105.03125 54.21875 C 105.37439 53.673953 105.71907 53.129281 106.0625 52.59375 z M 109.25 53.78125 C 105.72225 54.787049 102.43498 57.580064 100.0625 60.78125 C 95.635221 67.990971 94.579507 77.321509 100.0625 84.21875 C 103.24477 87.225959 106.70941 87.633262 109.9375 86.5625 C 108.81859 87.034483 107.64713 87.27984 106.3125 87.375 C 101.46124 86.971847 99.00302 85.042077 96.5625 80.90625 C 94.891191 77.178593 94.4053 71.667033 95.75 66.25 C 97.05246 62.450815 99.71527 59.151176 102.4375 56.78125 C 104.33866 55.126128 106.64197 54.023815 109.25 53.78125 z M 111.21875 54.21875 C 111.49626 54.204919 111.7844 54.207933 112.0625 54.21875 C 114.08507 54.297417 116.13851 55.052368 118 56.65625 C 123.45273 63.169989 121.98279 72.553615 118.0625 79.40625 C 114.05746 85.456182 106.28432 88.971214 100.625 83.4375 C 95.126041 76.920683 96.5377 68.08446 100.46875 61.21875 C 103.01705 57.352067 107.05615 54.426178 111.21875 54.21875 z M 110.71875 55.71875 C 110.28034 55.735313 109.84284 55.7783 109.375 55.84375 C 101.69223 58.250533 98.7762 65.337997 98.3125 72.84375 C 98.37787 79.8287 102.0082 85.636376 109.46875 84.59375 C 117.15382 82.189846 120.16039 74.669159 120.625 67.15625 C 120.56477 60.582512 117.29494 55.470276 110.71875 55.71875 z M 73.65625 56.0625 L 77.65625 56.875 L 61.9375 82.40625 C 60.65617 82.549205 59.483596 82.495268 58.65625 81.84375 C 59.296208 77.825672 62.946884 75.919493 65.78125 73.4375 C 64.721469 73.124203 63.756832 72.665435 62.84375 72.125 L 73.65625 56.0625 z M 110.75 56.125 C 116.9742 55.755151 119.6711 61.829035 120.03125 67.5 C 120.02912 67.571914 120.00281 67.646857 120 67.71875 C 119.94837 67.24755 119.77809 66.913003 119.5 66.90625 L 118.90625 67.03125 C 118.90735 66.782316 118.91136 66.457576 118.90625 66.34375 C 118.74753 64.413607 118.04466 62.666272 117 61.125 L 117.53125 60.46875 C 117.6339 59.616115 115.91175 57.629574 114.78125 57.96875 L 114.5 58.5 C 112.86547 57.010558 110.85647 56.710473 108.75 56.5625 C 109.37621 56.230976 110.06121 56.199602 110.75 56.125 z M 77.90625 56.90625 L 83.625 58.0625 L 68.40625 85.4375 L 67.125 84.03125 L 61.375 89 L 61.53125 85 C 62.628841 83.838362 63.965393 82.766272 65.6875 81.84375 C 64.581117 81.944405 63.38375 82.195202 62.25 82.34375 L 77.90625 56.90625 z M 109.15625 56.90625 C 109.4604 56.921453 109.81847 56.992019 110.375 57.125 C 111.89809 57.460748 113.1258 58.150145 114.3125 58.84375 L 110.25 66.25 C 109.70144 65.881303 108.99226 66.072659 108.5625 66.25 C 108.48871 65.279005 108.46352 64.364451 108.4375 63.5 L 109.96875 60.9375 L 108.40625 56.9375 C 108.64104 56.930065 108.87546 56.892215 109.15625 56.90625 z M 107.84375 56.96875 C 107.8947 59.219598 107.95946 61.544724 108.03125 63.84375 L 108.03125 64.1875 L 108.0625 64.15625 C 108.08699 64.948862 108.10463 65.757195 108.125 66.53125 C 108.22119 66.81776 106.82991 67.420055 106.9375 66.71875 L 106 58.0625 C 106.57489 57.661335 107.19707 57.287403 107.84375 56.96875 z M 83.78125 58.09375 L 89.5 59.25 L 72.59375 90 L 68.59375 85.625 L 83.78125 58.09375 z M 105.5625 58.40625 L 105.84375 60.78125 L 103.34375 64.8125 L 101.5 63.09375 C 102.53413 61.273366 103.88905 59.675996 105.5625 58.40625 z M 108.375 58.5 L 109.28125 60.84375 L 108.40625 62.28125 C 108.38744 60.963911 108.38599 59.729026 108.375 58.5 z M 115.3125 58.53125 C 116.19729 58.321748 117.21285 60.043829 116.8125 60.5625 L 111.8125 66.8125 C 111.41013 66.535807 111.02689 66.354117 110.65625 66.28125 C 112.22679 63.749964 113.50725 60.814444 115.3125 58.53125 z M 89.6875 59.28125 L 93.65625 60.09375 L 83.96875 73.9375 L 81.8125 82.46875 L 83.40625 82.5625 L 83.4375 82.46875 L 87.125 80.71875 L 83.15625 86.65625 L 83.75 86.8125 L 81.96875 90.375 L 79.53125 89.25 L 74.15625 91.71875 L 72.75 90.1875 L 89.6875 59.28125 z M 54.3125 60 C 54.412153 60.425018 54.508867 60.840124 54.59375 61.28125 L 48.3125 71.625 L 54.125 76.53125 L 53.21875 76.59375 L 47.15625 71.46875 L 54.3125 60 z M 105.875 61.1875 L 106.40625 65.59375 L 105.59375 66.9375 L 103.5 64.96875 L 105.875 61.1875 z M 116.75 61.4375 C 117.71248 62.918419 118.09328 64.594265 118.25 66.5 C 118.29338 66.773183 118.28587 66.972004 118.28125 67.1875 L 112.6875 68.5 C 112.56355 68.033161 112.36113 67.579099 112.09375 67.125 L 116.75 61.4375 z M 54.71875 62.09375 C 54.95648 63.508979 55.142103 64.985177 55.21875 66.5625 L 50.96875 73.125 L 49.0625 71.4375 L 54.71875 62.09375 z M 101.3125 63.40625 L 106.3125 68.125 C 106.28983 68.900385 106.27568 69.655212 105.5625 69.625 L 100.4375 65.28125 C 100.69761 64.63597 100.9845 64.012434 101.3125 63.40625 z M 100.25 65.78125 L 101.875 67.125 L 99.375 71.15625 L 99.03125 71.1875 C 99.10188 68.971097 99.7128 67.865207 100.25 65.78125 z M 106.5 66.75 L 106.5625 67.15625 C 107.1542 68.041602 107.86326 67.352706 108.28125 66.84375 L 108.59375 66.84375 C 108.13832 67.174726 107.69821 67.616765 107.28125 68.125 C 106.16999 70.041341 106.09513 72.021031 107.28125 73.875 C 107.54955 74.079491 107.80879 74.232976 108.0625 74.34375 L 107.28125 74.4375 C 107.48627 73.460876 106.15258 73.23757 105.71875 73.09375 C 105.54488 73.359925 105.38944 73.586799 105.21875 73.84375 C 104.99351 73.533732 104.82782 73.1971 104.6875 72.84375 L 105.59375 72.59375 C 106.10601 71.797035 105.69323 71.117724 105.34375 70.71875 L 104.34375 70.78125 C 104.31863 70.630686 104.35576 70.483324 104.375 70.34375 L 104.84375 69.5625 L 105.71875 70.28125 C 106.25865 69.874789 106.83072 69.117232 106.625 67.9375 L 106.09375 67.46875 L 106.5 66.75 z M 109.5625 66.75 C 110.2286 66.666151 111.0659 67.087766 111.71875 67.46875 C 111.93865 67.785038 111.86664 68.187982 111.96875 68.53125 L 109.1875 68.46875 C 108.44583 69.055694 108.03801 69.804951 108.03125 70.59375 C 108.02449 71.382543 108.40059 72.163299 109 72.90625 L 111.1875 72.84375 L 111.125 72.875 C 110.18707 73.880475 108.82925 74.247036 107.65625 73.5625 C 106.60799 72.059062 106.99753 69.689782 107.75 68.125 C 108.21401 67.485646 108.8964 66.833846 109.5625 66.75 z M 56.21875 67.03125 C 59.026905 69.387934 61.025789 73.350424 64.90625 73.5625 C 61.307824 76.153132 58.560588 79.311225 56.375 82.84375 C 58.857598 83.244812 61.349094 83.570404 64.0625 82.125 C 58.659924 85.762592 58.25232 89.49402 55.90625 92.875 L 56.21875 67.03125 z M 55.1875 67.15625 L 54.90625 76.625 L 51.21875 73.34375 L 55.1875 67.15625 z M 102.0625 67.28125 L 104.1875 69.03125 C 104.10709 69.188105 104.06777 69.335746 104.03125 69.5 L 103.21875 70.84375 L 99.65625 71.125 L 102.0625 67.28125 z M 119.1875 67.53125 C 119.55836 67.817116 119.83506 69.071742 118.96875 69.84375 L 114.53125 69.96875 C 114.41468 69.484568 114.21654 69.052631 113.90625 68.75 L 119.1875 67.53125 z M 113.5 68.9375 C 113.74689 69.117288 114.186 69.962376 114.25 70.4375 C 114.31121 70.891862 113.96761 71.777508 113.53125 72.28125 L 109.25 72.46875 C 108.85582 71.923441 108.68397 71.099728 108.6875 70.6875 C 108.69121 70.254943 108.95323 69.480883 109.4375 69.0625 L 113.5 68.9375 z M 119.90625 69.0625 C 119.64906 71.696735 118.9415 74.251882 117.75 76.53125 C 118.32305 74.535128 118.66184 72.474852 118.8125 70.40625 L 119.4375 70.40625 C 119.65386 70.038103 119.81207 69.551272 119.90625 69.0625 z M 112.46875 69.25 C 111.74757 69.898284 111.22547 70.863701 112.53125 71.75 L 113 71.78125 C 112.22765 70.839785 112.61983 70.060229 112.875 69.28125 L 112.46875 69.25 z M 118.46875 70.40625 C 118.40156 72.44072 118.03637 74.488294 117.375 76.375 L 112.9375 72.8125 L 113.53125 72.78125 C 114.37287 72.046761 114.47935 71.44574 114.625 70.46875 L 118.46875 70.40625 z M 94.65625 70.65625 C 94.560788 72.627668 94.713182 74.553741 94.78125 76.5 C 94.859354 77.032626 94.959966 77.563679 95.0625 78.09375 L 90.75 85 L 86.78125 86.0625 L 91.3125 78.09375 L 89.40625 78.9375 C 91.150637 76.230246 92.898068 73.453134 94.65625 70.65625 z M 105.125 71.03125 C 105.34188 71.421564 105.68248 72.144996 105.3125 72.4375 L 99.28125 73.90625 L 99.15625 71.53125 L 105.125 71.03125 z M 112.625 72.8125 L 117.25 76.78125 C 117.02451 77.375662 116.75844 77.953276 116.46875 78.5 L 111.53125 73.21875 C 111.64763 73.09604 111.76129 72.977428 111.875 72.84375 L 112.625 72.8125 z M 103.96875 73.03125 L 104.6875 74 L 102.25 74.34375 L 102.9375 73.21875 L 103.96875 73.03125 z M 106.21875 73.46875 C 106.68923 73.453781 107.07486 74.131491 106.65625 74.46875 L 102.25 81.75 C 101.83388 81.305969 101.45857 80.784028 101.125 80.25 C 102.7993 78.264749 104.28582 75.872746 105.75 73.75 C 105.90071 73.551382 106.06192 73.473739 106.21875 73.46875 z M 111.1875 73.53125 L 116.25 78.90625 C 114.80595 80.80958 112.95156 82.403652 110.65625 83.4375 L 110.03125 74.34375 C 110.4321 74.168837 110.81909 73.872827 111.1875 73.53125 z M 101.46875 73.75 L 99.65625 76.71875 C 99.44022 75.962964 99.24268 75.197203 99.125 74.40625 L 101.46875 73.75 z M 84.34375 74.53125 L 85.34375 74.84375 L 83.46875 81.90625 L 82.40625 81.84375 L 84.34375 74.53125 z M 109.5 74.53125 L 110.3125 83.5625 C 110.03251 83.680179 109.76115 83.804466 109.46875 83.90625 C 109.1183 83.972011 108.76827 84.002518 108.4375 84.03125 L 108.34375 74.625 C 108.72959 74.598963 109.1146 74.562293 109.5 74.53125 z M 104.5625 74.625 L 100.9375 79.6875 L 100 78 L 102 74.78125 L 104.5625 74.625 z M 107.84375 74.6875 L 107.96875 84.0625 C 105.78285 84.143398 104.06596 83.415963 102.71875 82.1875 L 107.125 74.75 C 107.36106 74.729161 107.61653 74.708333 107.84375 74.6875 z M 52.875 77.0625 L 54.28125 77.0625 L 48.96875 83.71875 L 48.3125 83.28125 L 50.09375 81.1875 L 52.875 77.0625 z M 54.90625 77.1875 L 54.875 78.65625 C 54.299308 80.472176 54.133819 82.638462 53.71875 84.65625 L 52.78125 86.03125 C 52.77157 86.026714 52.759593 86.035672 52.75 86.03125 L 54.375 78.625 L 53.53125 78.96875 L 54.90625 77.1875 z M 95.125 78.34375 C 95.306328 79.247178 95.499795 80.152092 95.75 81.0625 C 95.926516 81.456198 96.14548 81.799332 96.34375 82.15625 L 91.75 89.9375 L 91.03125 85.03125 L 95.125 78.34375 z M 89.84375 79.4375 L 85.5 86.5625 L 84 86.25 L 88.3125 80.21875 L 89.84375 79.4375 z M 36.90625 82.28125 L 38 82.65625 L 23.9375 87.53125 L 24.21875 87.625 L 22.625 87.3125 L 36.25 82.625 L 36.90625 82.28125 z M 38.875 82.84375 C 38.887998 83.020885 38.90385 83.144875 38.9375 83.21875 L 36.65625 83.625 L 38.875 82.84375 z M 41.40625 83.25 L 42.0625 84.09375 L 35.625 84.875 L 35.9375 84.25 L 41.40625 83.25 z M 35.53125 84.03125 L 34.5625 85.53125 L 41.75 84.53125 L 41.65625 84.90625 L 32.15625 89.28125 L 24.9375 87.78125 L 35.53125 84.03125 z M 54.6875 84.15625 L 54.65625 85.78125 L 53.71875 86.90625 L 53.15625 86.3125 L 54.6875 84.15625 z M 41.53125 85.34375 L 40.65625 88.71875 L 42.46875 88.34375 L 38.28125 90.53125 L 32.75 89.375 L 41.53125 85.34375 z M 49.25 85.71875 L 50.3125 86.5 L 43.25 87.3125 L 49.25 85.71875 z M 89.75 86.25 L 88.90625 90.875 L 83.8125 91.21875 L 82.25 90.5 L 84 86.875 L 85.125 87.1875 L 85.09375 87.25 L 89.75 86.25 z M 90.34375 86.25 L 91.46875 91.5625 L 89.4375 91 L 90.34375 86.25 z M 50.46875 86.71875 L 42.59375 91.40625 L 38.53125 90.5625 L 43.625 88.125 L 50.46875 86.71875 z M 22.03125 87.5 L 55.125 94.5625 L 51.09375 96.03125 L 19.78125 88.375 L 22.03125 87.5 z M 115.375 88.3125 L 114.53125 90.3125 L 113.78125 90.1875 L 111 96.6875 L 113.21875 95.5625 L 113.9375 97.625 C 113.82074 97.576487 113.71096 97.516422 113.59375 97.46875 C 112.25604 96.952421 111.09871 97.03194 109.875 97.625 C 109.54954 98.057347 109.34497 98.37877 109.25 98.6875 C 109.19374 98.870379 109.163 99.04977 109.1875 99.25 C 109.18905 99.262661 109.18563 99.26842 109.1875 99.28125 L 109.15625 99.5625 L 105.5625 96.96875 L 103.28125 97.96875 L 102.21875 97.875 L 102.09375 97.8125 C 100.99731 98.387241 100.12902 99.054608 99.40625 99.78125 C 96.35166 101.79071 95.394777 104.76897 95.25 107.625 C 95.229133 115.64446 102.8953 118.3327 109.75 118.375 C 113.56809 118.14968 117.2575 116.627 119.375 113.375 L 119.3125 113.3125 C 119.74408 112.86596 120.17971 112.41488 120.53125 111.875 L 121.3125 111.25 L 120.0625 110.28125 L 120.0625 107.40625 L 119.84375 107.34375 C 119.91602 108.3425 119.61866 109.4154 118.875 110.5625 L 118.84375 110.53125 C 118.70641 110.74217 118.53686 110.93007 118.375 111.125 L 116.5625 108.0625 L 115.25 105.5625 L 112.65625 104.03125 L 114.15625 108.1875 L 114.96875 109.125 L 113.8125 109.59375 L 116.5625 112.71875 C 115.01466 113.72686 113.10749 114.3143 111.28125 114.5 L 110.78125 105.96875 L 110.46875 105.84375 L 110.125 106.875 L 108.875 110.5625 L 108.4375 109.8125 L 108.375 114.4375 C 106.65705 114.21188 105.01366 113.68016 103.59375 112.84375 L 107.375 107.96875 L 107.4375 107.3125 L 105 108.59375 L 105.5625 106.96875 L 104.53125 109.03125 L 107.09375 107.6875 L 103.25 112.65625 C 102.53117 112.195 101.901 111.63302 101.34375 111 C 102.5309 110.14662 104.60595 107.90425 105.5625 106.90625 L 105.8125 106.1875 C 104.26566 107.92319 102.73988 109.15715 101.15625 110.8125 C 100.10238 109.53564 99.408606 107.92972 99.28125 105.96875 C 99.325143 105.10286 99.549455 104.14623 99.96875 103.21875 L 105.8125 105.8125 L 107.15625 105.71875 L 108.28125 105 L 107.5 104 L 101.6875 100.75 C 102.25339 100.16501 102.91519 99.650226 103.6875 99.21875 C 105.45719 98.821015 107.32225 99.379735 109.15625 99.625 L 108.96875 101.65625 C 109.81622 102.74 110.13723 104.22005 115.59375 103.34375 L 116.1875 100 C 116.26837 99.79831 116.30975 99.61292 116.34375 99.375 C 116.32754 99.347388 116.3294 99.30801 116.3125 99.28125 C 115.77001 98.421937 114.88421 98.006644 113.96875 97.625 L 116.21875 92.0625 L 115.375 88.3125 z M 19.46875 88.5 L 50.46875 96.28125 L 44.5625 98.4375 L 13.3125 90.90625 L 19.46875 88.5 z M 66.75 89.0625 L 67.5625 89.96875 L 55.84375 94.28125 L 54.78125 93.8125 L 66.75 89.0625 z M 115.21875 89.65625 L 115.78125 91.90625 L 114.15625 96.78125 L 113.34375 95.0625 L 111.8125 95.84375 L 114.03125 91.0625 L 114.65625 91.125 L 115.21875 89.65625 z M 12.96875 91.03125 L 44.1875 98.5625 L 39.25 100.375 L 7.03125 93.375 L 12.96875 91.03125 z M 67.28125 91.125 L 67.15625 95.875 L 43.0625 104.65625 L 40.0625 100.8125 L 67.28125 91.125 z M 7.96875 94.4375 L 39.3125 101.25 L 42.0625 104.625 L 10.59375 97.84375 L 7.96875 94.4375 z M 120.375 95 L 116.4375 97.59375 L 117.34375 98.71875 L 117 99.84375 L 123 98.625 L 121.28125 97.5 L 122.09375 96.4375 L 120.375 95 z M 120.3125 95.5 L 121.4375 96.5625 L 120.71875 97.53125 L 122.09375 98.4375 L 117.6875 99.28125 L 117.96875 98.71875 L 117.15625 97.59375 L 120.3125 95.5 z M 94.71875 95.75 C 97.227041 96.574927 96.976672 99.37887 96 101.375 L 73.15625 101.71875 L 72.25 101.25 L 72.25 96.375 L 94.71875 95.75 z M 67.15625 96.28125 L 67.15625 96.34375 L 71.5625 96.28125 L 71.59375 99.875 L 46.4375 108.9375 L 43.25 104.875 L 67.15625 96.28125 z M 94.6875 96.375 L 94.40625 96.5625 C 93.421066 97.974977 92.653084 99.40002 94.21875 100.8125 L 94.6875 100.625 C 93.746248 99.055543 94.256598 97.71582 94.6875 96.375 z M 105.5625 97.25 L 108.25 99.09375 C 106.55241 98.763677 104.80627 98.38303 103.4375 98.875 L 103.4375 98.90625 C 100.26131 100.58743 99.102326 103.11493 98.96875 105.75 C 98.951077 112.54238 105.13166 114.99542 110.9375 115.03125 C 114.12742 114.843 117.1954 113.55276 119 110.875 L 119.75 109.59375 L 119.875 110.53125 L 120.59375 111 L 120.3125 111.65625 L 120.21875 111.5625 C 118.31061 114.49295 114.27744 116.13189 110.6875 116.34375 C 104.26393 116.51297 97.58677 113.29777 97.125 106.1875 C 97.264718 103.43127 99.006769 99.981482 102.4375 98.125 L 103.53125 98.25 L 105.5625 97.25 z M 111.8125 97.625 C 112.46081 97.650559 113.1281 97.74259 113.59375 97.84375 C 118.72693 100.55144 112.78834 102.34726 110.15625 100.34375 C 109.86804 100.14336 109.72278 99.95761 109.625 99.75 L 109.65625 98.75 L 109.625 98.75 C 109.73908 98.454398 109.93134 98.17758 110.09375 97.90625 C 110.53967 97.667245 111.16419 97.599441 111.8125 97.625 z M 111.5625 98.0625 C 111.22479 98.107311 110.99228 98.269335 110.78125 98.46875 C 110.52802 98.708041 110.31656 99.02241 110.09375 99.40625 C 110.52374 100.14618 111.29656 100.37712 112.0625 100.65625 C 113.42672 101.03833 114.03248 100.79281 114.84375 99.78125 C 114.63191 98.817339 113.74935 98.60055 112.90625 98.25 C 112.34597 98.08182 111.90021 98.017689 111.5625 98.0625 z M 10.875 98.1875 L 42.34375 104.96875 L 45.40625 108.78125 L 13.71875 101.875 L 10.875 98.1875 z M 112.21875 98.34375 C 113.13142 98.279798 114.11583 98.677231 114.6875 99.75 C 114.3227 100.42792 112.82075 100.75508 112.28125 100.3125 C 111.81824 100.19389 110.60354 99.51594 110.375 99.34375 C 110.47324 99.188049 110.60569 99.06069 110.75 98.9375 C 111.12881 98.61413 111.67115 98.382121 112.21875 98.34375 z M 71.59375 100.1875 L 71.625 101.71875 L 74.03125 102.75 L 49.21875 112.46875 L 46.6875 109.25 L 71.59375 100.1875 z M 109.59375 100.375 C 109.61004 100.40982 109.60769 100.43254 109.625 100.46875 C 111.09271 101.99006 114.05843 102.28524 115.53125 100.96875 L 115.09375 102.6875 C 113.29747 103.20962 109.75717 103.47262 109.5 101.5625 L 109.59375 100.375 z M 98.46875 100.875 C 97.360886 102.41841 96.840339 104.15535 96.75 105.9375 C 96.729128 113.95696 104.05155 116.8327 110.90625 116.875 C 113.24495 116.73699 115.52704 116.08581 117.4375 114.875 C 115.32302 116.66909 112.29841 117.68045 109.53125 117.84375 C 103.10768 118.01297 96.274262 115.23527 95.8125 108.125 C 95.927341 105.85942 96.406132 102.89328 98.46875 100.875 z M 101.28125 101.1875 L 107.40625 104.59375 L 107.125 105.5 L 105.875 105.28125 L 100.21875 102.71875 C 100.5009 102.18789 100.8704 101.67534 101.28125 101.1875 z M 14 102.21875 L 45.71875 109.15625 L 47.9375 111.875 L 16.46875 105.4375 L 14 102.21875 z M 113.03125 104.46875 L 115.0625 105.875 L 116.375 108.25 L 118.125 111.40625 C 117.73066 111.83188 117.27347 112.22112 116.78125 112.5625 L 114.28125 109.65625 L 115.25 109.28125 L 114.53125 108.09375 L 113.03125 104.46875 z M 110.5 106.6875 L 110.71875 114.5625 C 110.05909 114.57724 109.37424 114.57041 108.71875 114.5 L 108.59375 110.78125 L 109.09375 111.1875 L 110.5 106.6875 z "
       id="path2500" />
  </g>
</svg>
