<?xml version="1.0" encoding="UTF-8" standalone="no"?>
<!-- Created with Inkscape (http://www.inkscape.org/) -->
<svg
   xmlns:dc="http://purl.org/dc/elements/1.1/"
   xmlns:cc="http://creativecommons.org/ns#"
   xmlns:rdf="http://www.w3.org/1999/02/22-rdf-syntax-ns#"
   xmlns:svg="http://www.w3.org/2000/svg"
   xmlns="http://www.w3.org/2000/svg"
   xmlns:xlink="http://www.w3.org/1999/xlink"
   xmlns:sodipodi="http://sodipodi.sourceforge.net/DTD/sodipodi-0.dtd"
   xmlns:inkscape="http://www.inkscape.org/namespaces/inkscape"
   width="128"
   height="128"
   id="svg2"
   sodipodi:version="0.32"
   inkscape:version="0.45+devel"
   version="1.0"
   sodipodi:docname="cathedral_outline.svg"
   inkscape:output_extension="org.inkscape.output.svg.inkscape">
  <defs
     id="defs4">
    <filter
       height="1.42432"
       y="-0.21216"
       width="1.2179726"
       x="-0.1089863"
       id="filter2892"
       inkscape:collect="always">
      <feGaussianBlur
         id="feGaussianBlur2894"
         stdDeviation="0.72146876"
         inkscape:collect="always" />
    </filter>
    <radialGradient
       r="8.2519293"
       fy="222.04396"
       fx="14.207293"
       cy="222.04396"
       cx="14.207293"
       gradientTransform="scale(1.39523,0.716728)"
       gradientUnits="userSpaceOnUse"
       id="radialGradient1968"
       xlink:href="#linearGradient2057"
       inkscape:collect="always" />
    <linearGradient
       inkscape:collect="always"
       id="linearGradient2057">
      <stop
         style="stop-color:#000000;stop-opacity:1;"
         offset="0"
         id="stop2059" />
      <stop
         style="stop-color:#000000;stop-opacity:0;"
         offset="1"
         id="stop2061" />
    </linearGradient>
  </defs>
  <sodipodi:namedview
     id="base"
     pagecolor="#ffffff"
     bordercolor="#666666"
     borderopacity="1.0"
     gridtolerance="10000"
     guidetolerance="10"
     objecttolerance="10"
     inkscape:pageopacity="0.0"
     inkscape:pageshadow="2"
     inkscape:zoom="1"
     inkscape:cx="34.994318"
     inkscape:cy="30.150261"
     inkscape:document-units="px"
     inkscape:current-layer="layer1"
     showgrid="false"
     width="744.09px"
     inkscape:window-width="1248"
     inkscape:window-height="975"
     inkscape:window-x="426"
     inkscape:window-y="24"
     showguides="true"
     inkscape:guide-bbox="true" />
  <metadata
     id="metadata7">
    <rdf:RDF>
      <cc:Work
         rdf:about="">
        <dc:format>image/svg+xml</dc:format>
        <dc:type
           rdf:resource="http://purl.org/dc/dcmitype/StillImage" />
      </cc:Work>
    </rdf:RDF>
  </metadata>
  <g
     inkscape:label="Layer 1"
     inkscape:groupmode="layer"
     id="layer1">
    <path
       style="fill:#5c2700;fill-opacity:1;fill-rule:evenodd;stroke:none;stroke-width:1px;stroke-linecap:butt;stroke-linejoin:miter;stroke-opacity:1"
       d="M 52.375 0.6875 L 52.0625 0.75 L 51.75 3.9375 L 40.65625 28.9375 L 27.8125 21.03125 L 8.96875 45.21875 L 8.90625 55.8125 L 6.59375 57.28125 L 6.375 92.6875 L 30.53125 110.21875 L 41.90625 103.3125 L 41.9375 118.5625 L 54.28125 127.375 L 67.9375 121.46875 L 68.15625 120.71875 L 109.59375 104.6875 L 109.8125 105.34375 L 124.03125 99.25 L 124.03125 44.875 L 110.6875 13.875 L 110.3125 10.625 L 110 10.6875 L 109.6875 13.875 C 105.67458 22.919454 101.43712 32.423628 97.84375 41.875 L 97.875 64.0625 L 97.03125 63.53125 L 97.1875 38.90625 L 83.8125 17.4375 L 72.46875 21.6875 L 62.78125 26.46875 L 52.71875 3.75 L 52.375 0.6875 z M 52.375 3.9375 L 52.4375 3.9375 L 65.125 34.40625 L 56.3125 39.03125 L 55 36.0625 L 54.625 32.8125 L 54.3125 32.875 L 54 36.0625 L 51.875 41 L 52.375 3.9375 z M 52.125 3.96875 L 51.3125 41.21875 L 40.1875 31.78125 L 52.125 3.96875 z M 49.90625 10.4375 L 47.28125 17.3125 L 47.65625 17.5 L 50.21875 10.5625 L 49.90625 10.4375 z M 53.65625 10.75 L 53.28125 10.78125 L 58.5 24.65625 L 56.4375 25.25 L 55.65625 22.34375 L 55.375 22.40625 L 56.15625 25.3125 L 53.65625 26.03125 L 53.53125 16.8125 L 53.21875 16.875 L 53.4375 26.09375 L 53.0625 26.21875 L 53.09375 26.625 L 53.46875 26.53125 L 53.53125 29.53125 L 53.71875 29.53125 L 53.6875 26.46875 L 56.28125 25.6875 L 58.75 34.75 L 56.28125 35.65625 L 56.40625 36 L 58.8125 35.03125 L 59.09375 36.03125 L 59.375 35.90625 L 59.09375 34.9375 L 60.8125 34.25 L 60.8125 34 L 59.03125 34.65625 L 56.5625 25.625 L 58.625 25 L 61.9375 33.78125 L 62.1875 33.8125 L 58.90625 24.9375 L 60.125 24.5625 L 59.78125 24.28125 L 58.78125 24.5625 L 53.65625 10.75 z M 110.34375 14.375 L 123.34375 45.03125 L 109.9375 51.625 L 110.34375 14.375 z M 109.96875 14.59375 L 109.28125 51.65625 L 98.46875 41.78125 L 109.96875 14.59375 z M 50.125 16.78125 L 49.625 21.0625 L 46.25 19.75 L 46 19.8125 L 49.59375 21.40625 L 49.1875 24.78125 L 49.625 24.78125 L 49.9375 21.5625 L 50.75 21.9375 L 50.625 21.4375 L 49.96875 21.1875 L 50.375 16.78125 L 50.125 16.78125 z M 83.5625 17.78125 L 63.4375 27.84375 L 62.65625 27.1875 L 72.40625 22.21875 L 83.5625 17.78125 z M 83.6875 18.34375 L 96.3125 39.375 L 76.4375 50.25 L 66.96875 44.34375 L 66.03125 34.03125 L 63.65625 28.59375 L 83.6875 18.34375 z M 111.84375 18.46875 L 111.71875 18.59375 L 117.03125 34.96875 L 117.21875 34.96875 L 111.84375 18.46875 z M 108.875 18.96875 L 108.03125 41.6875 L 106 39.96875 C 106.26101 39.044254 106.51141 38.109465 106.78125 37.1875 L 106.65625 37.1875 C 106.38204 38.096167 106.09823 38.956222 105.8125 39.8125 L 102.875 37.28125 L 106.90625 27.375 L 106.65625 27.3125 L 102.65625 37.09375 L 101.8125 36.375 L 101.6875 36.75 L 102.53125 37.4375 L 101.53125 39.875 L 101.78125 40 L 102.75 37.625 L 105.71875 40.0625 C 105.31819 41.264037 104.93222 42.459967 104.59375 43.75 L 104.90625 43.9375 C 105.22641 42.691658 105.55826 41.456863 105.90625 40.21875 L 108 41.96875 L 107.875 45.53125 L 108.25 45.59375 L 108.375 42.25 L 108.8125 42.625 L 108.875 42.4375 L 108.375 42 L 109.125 18.96875 L 108.875 18.96875 z M 27.875 21.46875 L 40.25 29.875 L 39.3125 31.375 L 39.8125 41.15625 L 32.1875 43.78125 L 32.15625 43.8125 L 32.125 43.8125 L 18.25 50.75 L 9.90625 45.25 L 27.875 21.46875 z M 81.125 21.5625 L 80.8125 21.625 L 86.09375 29.65625 L 80.90625 32.3125 L 81.15625 32.5625 L 86.28125 29.96875 L 89.84375 35.375 L 79.15625 40.40625 L 73.78125 30.65625 C 76.044415 29.732774 78.304491 28.778795 80.5625 27.84375 L 80.5625 27.71875 C 78.227375 28.574346 75.860036 29.363242 73.53125 30.21875 L 73.375 29.90625 L 72.9375 30.03125 L 73.125 30.34375 C 71.08225 31.10485 69.080113 31.942956 67.15625 32.96875 L 67.28125 33.21875 C 69.324715 32.441041 71.349588 31.636733 73.375 30.8125 L 78.84375 40.5625 L 71.4375 44.03125 L 71.8125 44.15625 L 78.96875 40.78125 L 80.375 43.28125 L 80.625 43.09375 L 79.28125 40.65625 L 90 35.625 L 90.875 36.9375 L 91.0625 36.75 L 90.25 35.5 L 91.125 35.09375 L 91 34.84375 L 90.09375 35.28125 L 86.53125 29.84375 L 88.46875 28.875 L 88.28125 28.5625 L 86.34375 29.53125 L 81.125 21.5625 z M 45.84375 23.6875 L 43.40625 29.75 L 42.21875 28.8125 L 42.03125 28.875 L 43.34375 29.96875 L 42.71875 31.5 L 42.84375 31.6875 L 43.5 30.09375 L 48.40625 34.1875 L 47.625 37.3125 L 47.8125 37.5 L 48.59375 34.34375 L 49.96875 35.5 L 50.21875 35.125 L 48.6875 33.9375 L 49.5 30.6875 L 49.25 30.75 L 48.5 33.78125 L 43.5625 29.875 L 46.09375 23.6875 L 45.84375 23.6875 z M 111.125 24 C 111.24244 28.833504 111.05839 33.72928 111.1875 38.5625 L 111.6875 38.6875 C 111.55644 33.854325 111.6199 28.833461 111.5 24 L 111.125 24 z M 28.34375 25.21875 C 27.529279 26.383114 26.698136 27.545795 25.875 28.71875 L 25.09375 28.21875 L 24.84375 28.28125 L 25.78125 28.875 C 22.032295 34.215301 18.188192 39.590576 14.1875 44.53125 L 14.5 44.78125 C 18.889665 39.783385 22.333055 34.478403 26 29.0625 L 34.59375 34.65625 L 30.71875 39.6875 L 31.09375 39.75 L 34.875 34.84375 L 37.15625 36.34375 L 37.40625 36.09375 L 35.0625 34.59375 L 37.28125 31.75 L 37.09375 31.4375 L 34.78125 34.40625 L 26.125 28.875 C 26.894334 27.739834 27.666987 26.612903 28.46875 25.46875 L 28.34375 25.21875 z M 40.375 32.75 L 51.1875 42.4375 L 48.84375 47.6875 L 43.6875 40.21875 L 40.78125 40.84375 L 40.375 32.75 z M 65.625 35.3125 L 66.0625 43.78125 L 60.84375 40.53125 L 58.25 43.375 L 56.5625 39.5625 L 65.625 35.3125 z M 27.875 35.90625 C 27.009055 36.962239 26.124034 38.003356 25.21875 39.03125 L 23.8125 37.96875 L 23.4375 38.03125 L 25.03125 39.21875 C 22.920318 41.611894 20.77601 43.987134 18.90625 46.5625 L 19.09375 46.625 C 20.957196 44.249027 23.086635 41.794569 25.21875 39.375 L 29.4375 42.53125 L 29.5625 42.34375 L 25.40625 39.1875 C 26.29968 38.174196 27.2063 37.134635 28.0625 36.15625 L 27.875 35.90625 z M 54.34375 36.0625 L 53.5 73.75 L 42.6875 63.90625 L 54.34375 36.0625 z M 54.71875 36.28125 L 67.5625 67.15625 L 54.5 73.28125 L 54.71875 36.28125 z M 117.1875 38.90625 L 116.9375 39.15625 L 119.25 43.5625 L 111.5625 47.34375 L 111.6875 42.5 L 111.375 42.5 L 111.28125 47.46875 L 110.96875 47.625 L 110.84375 47.9375 L 111.28125 47.71875 L 111.25 49 L 111.5 49.0625 L 111.53125 47.59375 L 119.40625 43.875 L 120.1875 45.34375 L 120.4375 45.03125 L 119.75 43.71875 L 120.59375 43.3125 L 120.40625 43 L 119.5625 43.40625 L 117.1875 38.90625 z M 96.65625 40.28125 L 96.5 63.1875 L 90.375 59.09375 C 91.114801 58.787285 91.874969 58.528983 92.625 58.25 L 92.625 58.21875 L 92.6875 58.21875 L 92.71875 49.625 L 89.6875 46.9375 L 87.28125 51.625 L 86.90625 57.03125 L 76.96875 50.6875 L 96.65625 40.28125 z M 42.8125 40.6875 L 17.125 53.15625 L 7.90625 57.0625 L 32.4375 44.0625 L 33.96875 43.5625 C 32.837662 44.118193 31.753957 44.680096 30.6875 45.25 L 30.0625 45.375 L 29.9375 45.5625 L 30.1875 45.53125 C 26.523801 47.506465 23.094172 49.521033 19.15625 51.40625 L 19.53125 51.71875 C 23.766226 49.715988 27.295658 47.533301 31.1875 45.375 L 33.8125 45 L 34.25 44.625 L 31.78125 45.0625 C 32.622658 44.601016 33.451716 44.145241 34.34375 43.6875 L 34.125 43.53125 L 42.8125 40.6875 z M 43.5 40.90625 L 48.53125 48.40625 L 41.9375 63.21875 L 41.8125 70.46875 L 31.59375 75.46875 L 17.84375 53.5 L 43.5 40.90625 z M 60.78125 41.15625 L 86.65625 57.3125 L 68.25 80 L 68.25 67 L 58.65625 44.40625 L 60.78125 41.15625 z M 98.40625 42.8125 L 108.9375 52.25 L 109.0625 71.59375 L 98.6875 64.625 L 98.40625 42.8125 z M 51.78125 43.9375 L 49.96875 48.34375 L 49.71875 48.25 L 49.53125 48.4375 L 49.875 48.59375 L 46.0625 57.78125 L 45.78125 57.5625 L 45.59375 57.75 L 45.96875 58.03125 L 44.40625 61.8125 L 44.78125 62.125 L 46.3125 58.28125 L 47.96875 59.5 L 47.28125 61.3125 L 47.71875 61.6875 L 48.40625 59.8125 L 51.0625 61.78125 L 50.3125 67.6875 L 50.75 67.8125 L 51.4375 62.03125 L 52.65625 62.9375 L 52.59375 62.625 L 51.46875 61.78125 L 52.5 52.9375 L 52.1875 53.0625 L 51.09375 61.5 L 48.5 59.5625 L 49.59375 56.5625 L 49.15625 56.3125 L 48.0625 59.25 L 46.4375 58.03125 L 50.1875 48.75 L 51.40625 49.3125 L 51.59375 49 L 50.28125 48.46875 L 52.03125 44.125 L 51.78125 43.9375 z M 41.59375 44.03125 L 41.34375 44.15625 L 43.28125 47.15625 L 33.34375 51.78125 L 32.1875 49.53125 L 31.8125 49.84375 L 32.9375 51.96875 L 29.28125 53.65625 L 29.59375 53.84375 L 33.09375 52.21875 L 36.03125 57.6875 C 34.57833 58.353053 33.087753 58.952507 31.5 59.375 L 30.875 59.75 C 32.677362 59.239357 34.408155 58.587434 36.125 57.875 L 39.0625 63.34375 L 39.3125 63.28125 L 36.4375 57.75 C 39.294217 56.547197 42.080163 55.156098 44.84375 53.8125 L 44.65625 53.5 C 41.760699 54.700841 39.12004 56.265804 36.34375 57.5625 L 33.46875 52.03125 L 43.4375 47.375 L 45.46875 50.53125 L 45.78125 50.21875 L 43.75 47.21875 L 45.34375 46.46875 L 45.15625 46.28125 L 43.59375 47 L 41.59375 44.03125 z M 57 44.5 L 56.8125 44.75 C 58.104822 51.676286 61.293593 57.972422 63.9375 64.46875 L 57.90625 66.875 L 56.4375 58.65625 L 56.125 58.59375 L 57.625 67 L 56.4375 67.46875 L 56.4375 67.71875 L 57.65625 67.21875 L 58 69.09375 L 58.3125 69.09375 L 57.96875 67.125 L 64.03125 64.71875 C 64.238664 65.231626 64.45731 65.733954 64.65625 66.25 L 64.84375 66.1875 C 64.646921 65.676741 64.447506 65.16678 64.25 64.65625 L 65.3125 64.21875 L 65.3125 63.90625 L 64.125 64.375 C 61.583779 57.808816 59.032628 51.245049 57 44.5 z M 61 45.0625 L 60.8125 45.375 C 61.742603 45.933062 68.237458 50.041058 72.5625 52.78125 L 70.03125 56.21875 C 69.434872 55.874689 68.456505 55.302225 68.25 55.1875 L 68 55.375 C 68.19478 55.483211 69.248198 56.078086 69.875 56.4375 L 68.21875 58.71875 L 68.46875 58.90625 L 70.09375 56.59375 C 72.061865 57.723302 73.677633 58.625094 75.625 59.75 L 70.25 65.9375 L 70.625 66 L 75.84375 59.90625 C 76.660073 60.377844 78.3125 61.3125 78.3125 61.3125 L 78.375 61.0625 C 78.375 61.0625 76.768326 60.135386 76 59.6875 L 78.625 56.625 L 78.5 56.4375 L 75.78125 59.5625 C 73.875434 58.451656 72.213845 57.478074 70.25 56.34375 L 72.6875 52.84375 C 74.293762 53.861455 76.75 55.4375 76.75 55.4375 L 76.9375 55.25 C 76.9375 55.25 74.455297 53.659277 72.84375 52.625 L 73.65625 51.46875 L 73.59375 51.34375 L 72.71875 52.5625 C 68.375153 49.774926 61.869937 45.584463 61 45.0625 z M 9.71875 45.53125 L 17.28125 51.25 L 9.84375 55.28125 L 9.71875 45.53125 z M 123.46875 45.59375 L 123.34375 98.75 L 110.1875 104.3125 L 109.6875 52.5625 L 123.46875 45.59375 z M 89.96875 47.53125 L 92.21875 50.0625 L 92.34375 57.75 C 91.982428 57.881415 90.695891 58.326269 89.78125 58.6875 L 87.53125 57.21875 L 87.90625 51.875 L 89.96875 47.53125 z M 17.3125 53.75 L 30.46875 75.5625 L 30.46875 108.96875 L 22.5 103.15625 L 22.59375 88.84375 L 17.34375 76.125 L 10.78125 81.6875 L 10.3125 94.75 L 6.84375 92.59375 L 7.09375 57.875 L 17.3125 53.75 z M 22.5625 53.8125 L 22.3125 53.875 L 30.5 67.34375 C 30.230433 67.42556 29.955786 67.518351 29.6875 67.59375 L 29.625 67.875 C 29.971388 67.780443 30.312126 67.66474 30.65625 67.5625 L 32.8125 71.125 L 33.0625 71.0625 L 30.875 67.5 C 33.460334 66.719845 35.991629 65.760319 38.53125 64.84375 L 38.40625 64.59375 C 35.907953 65.445307 33.307527 66.457738 30.75 67.25 L 22.5625 53.8125 z M 116.96875 56.21875 L 114.03125 62.8125 L 114 75.09375 C 116.21227 74.103893 118.41265 73.114164 120.625 72.125 L 120.625 59.9375 L 116.96875 56.21875 z M 117.15625 57.21875 L 120.09375 60.40625 L 120.09375 71.71875 C 118.53104 72.398547 116.23944 73.35794 114.6875 74.0625 L 114.5 63.21875 L 117.15625 57.21875 z M 87.03125 57.5625 L 109.0625 72.78125 L 109.34375 103.65625 L 96.84375 108.875 L 96.84375 88.84375 L 88.375 80.5 L 81.40625 93.3125 L 81.34375 114.875 L 68.25 120.0625 L 68.25 81.125 L 87.03125 57.5625 z M 16.71875 62.21875 C 14.75285 62.448057 14.029209 65.082529 13.84375 67.15625 C 13.84375 70.820752 15.760158 74.768227 18.1875 75.90625 C 20.614842 77.044276 22.5625 74.883253 22.5625 71.21875 C 22.562499 67.554248 20.614842 63.606772 18.1875 62.46875 C 17.800262 62.322323 17.450264 62.234543 17.125 62.21875 C 16.982697 62.211841 16.84981 62.203463 16.71875 62.21875 z M 17.34375 62.96875 C 17.3856 62.966312 17.426058 62.969233 17.46875 62.96875 L 17.59375 66.28125 C 17.006521 66.716421 16.695456 67.257835 16.625 67.90625 L 14.40625 66.6875 C 14.585378 64.815998 15.626106 63.068811 17.34375 62.96875 z M 17.875 63.03125 C 17.973736 63.045184 18.084885 63.038355 18.1875 63.0625 C 19.483973 63.67033 20.786228 65.705264 21.5 67.90625 L 19.40625 67.96875 C 19.376591 67.315054 19.132181 66.728592 18.1875 66.1875 L 17.875 63.03125 z M 42.53125 64.375 L 53.1875 74.9375 L 53.6875 126.15625 L 42.4375 118.15625 L 42.53125 64.375 z M 88.09375 64.96875 C 85.307993 65.512314 83.125 68.979704 83.125 72.625 C 83.124998 76.270295 85.307992 78.856062 88.09375 78.3125 C 90.87951 77.768939 93.0625 74.301546 93.0625 70.65625 C 92.981972 67.195357 91.403865 65.222342 88.09375 64.96875 z M 88.03125 65.46875 C 88.247022 65.459196 88.426614 65.446665 88.625 65.46875 C 88.606878 66.53806 88.392167 67.900196 88.40625 68.9375 C 88.330321 68.918953 88.26906 68.89239 88.1875 68.875 C 87.407609 69.059991 87.021303 69.305199 86.75 69.65625 L 84.9375 68.03125 C 85.769908 66.688171 86.889036 65.691621 88.03125 65.46875 z M 89.1875 65.59375 C 90.730894 66.013553 91.654448 67.422472 92.15625 69 L 90.15625 70.125 C 89.992748 69.607869 89.563297 69.299365 88.875 69.0625 C 88.884972 68.038043 89.158568 66.642441 89.1875 65.59375 z M 17.9375 66.59375 C 18.837986 67.579257 18.89063 68.861076 19 70.125 C 19.115888 70.854465 18.735267 71.460514 18.5 72.0625 C 17.882364 71.37651 17.507114 70.299602 17.15625 69.40625 C 16.901752 68.38083 17.176335 67.504462 17.9375 66.59375 z M 14.375 67.15625 L 16.625 68.4375 C 16.635922 68.803701 16.671629 69.207448 16.75 69.625 C 16.791737 69.847362 16.83007 70.039102 16.875 70.25 L 15.375 71.75 C 14.782509 70.329429 14.375 68.740367 14.375 67.34375 C 14.374562 67.281922 14.37363 67.218085 14.375 67.15625 z M 67.34375 67.9375 L 67.8125 121 L 54.4375 126.5 L 54.03125 74.3125 L 67.34375 67.9375 z M 21.625 68.28125 C 21.890083 69.20205 22.0625 70.154913 22.0625 71.03125 C 22.062499 71.976417 21.866789 72.811228 21.5625 73.53125 L 19.40625 71.15625 C 19.418219 70.845057 19.407878 70.491178 19.4375 70.0625 C 19.33694 69.43946 19.417719 68.889689 19.4375 68.375 L 21.625 68.28125 z M 84.625 68.59375 L 86.4375 70.125 C 86.293319 70.445966 86.170982 70.867114 85.96875 71.34375 C 85.830641 72.018721 85.776631 72.649991 85.90625 73.21875 L 83.9375 74.40625 C 83.740914 73.785369 83.59375 73.13254 83.59375 72.4375 C 83.593746 71.118877 84.009941 69.765857 84.625 68.59375 z M 88.1875 69.375 C 89.667544 69.567977 89.674667 70.565484 89.65625 71.84375 C 89.407234 73.242194 88.738887 73.908477 87.5625 74.46875 C 86.527945 73.762953 86.270985 72.58799 86.5 71.46875 C 86.689545 70.312894 87.319805 69.890194 88.1875 69.375 z M 92.28125 69.46875 C 92.400807 69.928127 92.5101 70.389731 92.5625 70.84375 C 92.562499 71.814004 92.332746 72.793445 91.96875 73.71875 L 89.90625 72.625 C 89.979692 72.423112 90.040879 72.224302 90.125 72 C 90.20758 71.481533 90.270072 71.05103 90.25 70.6875 L 92.28125 69.46875 z M 17.03125 70.8125 C 17.225926 71.489434 17.490576 72.030475 18.09375 72.3125 L 17.71875 75.15625 C 16.952507 74.585708 16.241221 73.572359 15.65625 72.34375 L 17.03125 70.8125 z M 41.8125 71.53125 L 41.90625 102.15625 L 31.09375 109.28125 L 31.46875 76.0625 L 41.8125 71.53125 z M 19.34375 71.59375 L 21.34375 74.0625 C 20.651633 75.293952 19.545308 75.931156 18.4375 75.5625 L 18.6875 72.40625 C 19.081953 72.167805 19.264483 71.886669 19.34375 71.59375 z M 89.71875 73.0625 L 91.78125 74.25 C 91.089207 75.734205 90.005747 76.968798 88.875 77.53125 L 88.03125 74.84375 C 89.017336 74.583534 89.365935 73.969188 89.71875 73.0625 z M 86.09375 73.6875 C 86.316932 74.153795 86.679182 74.597859 87.3125 74.96875 C 87.448123 74.957398 87.568 74.926061 87.6875 74.90625 L 88.21875 77.78125 C 88.179274 77.790791 88.133227 77.804797 88.09375 77.8125 C 86.559447 78.111878 85.033754 76.904531 84.21875 75.125 L 86.09375 73.6875 z M 60.96875 76.84375 L 58.03125 83.46875 L 58 95.75 C 60.212268 94.760145 62.412644 93.739165 64.625 92.75 L 64.625 80.5625 L 60.96875 76.84375 z M 38.34375 76.90625 L 35.9375 81.59375 L 35.875 90.28125 C 37.680188 89.604923 39.471185 88.883005 41.28125 88.21875 L 41.28125 88.1875 L 41.34375 88.1875 L 41.375 79.59375 L 38.34375 76.90625 z M 17.125 77 L 22.03125 88.96875 L 21.9375 102.75 L 21.375 102.34375 L 21.375 89.3125 L 16.9375 77.71875 L 11.96875 82.3125 L 11.625 95.5625 L 10.78125 95.03125 L 11.28125 82.25 L 17.125 77 z M 47.84375 77.21875 L 44.40625 81.15625 L 44.28125 92.59375 L 50.875 95.53125 L 50.90625 84 L 47.84375 77.21875 z M 38.625 77.5 L 40.9375 80.09375 L 41.0625 87.90625 C 40.5164 88.104872 37.871955 89.122884 36.1875 89.78125 L 36.5 81.90625 L 38.625 77.5 z M 47.875 77.75 L 50.375 84.125 L 50.40625 94.75 L 44.59375 92.25 L 44.84375 81.28125 L 47.875 77.75 z M 61.15625 77.90625 L 64.0625 80.84375 L 64.0625 92.3125 C 62.499788 92.992289 60.083191 94.295439 58.53125 95 L 58.5 83.6875 L 61.15625 77.90625 z M 16.40625 78.71875 L 16.03125 98.75 L 12.1875 96.03125 L 12.53125 82.53125 L 16.40625 78.71875 z M 16.78125 78.90625 L 20.71875 89.53125 L 20.65625 102.03125 L 16.6875 99.21875 L 16.78125 78.90625 z M 88.4375 81.28125 L 96.375 89.03125 L 96.28125 109.09375 L 95.8125 109.3125 L 95.8125 88.84375 L 88.65625 82.3125 L 82.625 94.03125 L 82.5625 114.40625 L 81.8125 114.6875 L 81.90625 93.46875 L 88.4375 81.28125 z M 88.8125 83.03125 L 95.21875 89.25 L 95.15625 109.5625 L 88.96875 111.9375 L 88.8125 83.03125 z M 88.53125 83.59375 L 88.59375 112.09375 L 83.0625 114.21875 L 83.28125 94.34375 L 88.53125 83.59375 z "
       id="path2308" />
    <path
       style="fill:#000000;fill-opacity:1;fill-rule:evenodd;stroke:none;stroke-width:1px;stroke-linecap:butt;stroke-linejoin:miter;stroke-opacity:1"
       d="M 13.3125,83.65625 L 13.03125,83.59375 L 15.625,86.96875 L 15.71875,86.625 L 13.3125,83.65625 z"
       id="path2624"
       sodipodi:nodetypes="ccccc" />
    <path
       style="fill:#000000;fill-opacity:1;fill-rule:evenodd;stroke:none;stroke-width:1px;stroke-linecap:butt;stroke-linejoin:miter;stroke-opacity:1"
       d="M 13.0625,86.59375 L 12.90625,86.78125 L 15.125,90.71875 L 15.59375,90.65625 L 13.0625,86.59375 z"
       id="path2626"
       sodipodi:nodetypes="ccccc" />
    <path
       style="fill:#000000;fill-opacity:1;fill-rule:evenodd;stroke:none;stroke-width:1px;stroke-linecap:butt;stroke-linejoin:miter;stroke-opacity:1"
       d="M 12.78125,89.9375 L 12.5625,90.03125 L 15.53125,94.4375 L 15.75,94.25 L 12.78125,89.9375 z"
       id="path2628"
       sodipodi:nodetypes="ccccc" />
    <path
       style="fill:#000000;fill-opacity:1;fill-rule:evenodd;stroke:none;stroke-width:1px;stroke-linecap:butt;stroke-linejoin:miter;stroke-opacity:1"
       d="M 12.875,94.21875 L 12.71875,94.4375 L 15.1875,97.3125 L 15.34375,97.21875 L 12.875,94.21875 z"
       id="path2630"
       sodipodi:nodetypes="ccccc" />
    <path
       style="fill:#000000;fill-opacity:1;fill-rule:evenodd;stroke:none;stroke-width:1px;stroke-linecap:butt;stroke-linejoin:miter;stroke-opacity:1"
       d="M 14.3125,81.28125 L 14.21875,81.3125 L 15.59375,83.5625 L 15.78125,83.40625 L 14.3125,81.28125 z"
       id="path2632"
       sodipodi:nodetypes="ccccc" />
    <path
       style="fill:#000000;fill-opacity:1;fill-rule:evenodd;stroke:none;stroke-width:1px;stroke-linecap:butt;stroke-linejoin:miter;stroke-opacity:1"
       d="M 17,83.875 L 17.0625,84.0625 L 18.46875,83.25 L 18.03125,83.125 L 17,83.875 z"
       id="path2634"
       sodipodi:nodetypes="ccccc" />
    <path
       style="fill:#000000;fill-opacity:1;fill-rule:evenodd;stroke:none;stroke-width:1px;stroke-linecap:butt;stroke-linejoin:miter;stroke-opacity:1"
       d="M 18.96875,86.1875 L 17.125,86.96875 L 17.125,87.25 L 19.125,86.40625 L 18.96875,86.1875 z"
       id="path2636"
       sodipodi:nodetypes="ccccc" />
    <path
       style="fill:#000000;fill-opacity:1;fill-rule:evenodd;stroke:none;stroke-width:1px;stroke-linecap:butt;stroke-linejoin:miter;stroke-opacity:1"
       d="M 20.125,89.96875 L 17.1875,90.65625 L 17.34375,91 L 20.1875,90.3125 L 20.125,89.96875 z"
       id="path2638"
       sodipodi:nodetypes="ccccc" />
    <path
       style="fill:#000000;fill-opacity:1;fill-rule:evenodd;stroke:none;stroke-width:1px;stroke-linecap:butt;stroke-linejoin:miter;stroke-opacity:1"
       d="M 19.9375,93.3125 L 17.0625,94.21875 L 17.21875,94.46875 L 20.15625,93.5625 L 19.9375,93.3125 z"
       id="path2640"
       sodipodi:nodetypes="ccccc" />
    <path
       style="fill:#000000;fill-opacity:1;fill-rule:evenodd;stroke:none;stroke-width:1px;stroke-linecap:butt;stroke-linejoin:miter;stroke-opacity:1"
       d="M 20.21875,97.21875 L 17.09375,98.4375 L 17.09375,98.6875 L 20.28125,97.5 L 20.21875,97.21875 z"
       id="path2642"
       sodipodi:nodetypes="ccccc" />
    <path
       style="fill:#000000;fill-opacity:1;fill-rule:evenodd;stroke:none;stroke-width:1px;stroke-linecap:butt;stroke-linejoin:miter;stroke-opacity:1"
       d="M 94.75,89.8125 L 89.875,94.625 L 90.15625,94.78125 L 94.84375,90.09375 L 94.75,89.8125 z"
       id="path2644"
       sodipodi:nodetypes="ccccc" />
    <path
       style="fill:#000000;fill-opacity:1;fill-rule:evenodd;stroke:none;stroke-width:1px;stroke-linecap:butt;stroke-linejoin:miter;stroke-opacity:1"
       d="M 94.5,93.75 L 89.71875,98.53125 L 90.0625,98.78125 L 94.65625,93.9375 L 94.5,93.75 z"
       id="path2646"
       sodipodi:nodetypes="ccccc" />
    <path
       style="fill:#000000;fill-opacity:1;fill-rule:evenodd;stroke:none;stroke-width:1px;stroke-linecap:butt;stroke-linejoin:miter;stroke-opacity:1"
       d="M 94.78125,100.84375 L 89.75,106.6875 L 90.03125,106.96875 L 94.84375,101.125 L 94.78125,100.84375 z"
       id="path2648"
       sodipodi:nodetypes="ccccc" />
    <path
       style="fill:#000000;fill-opacity:1;fill-rule:evenodd;stroke:none;stroke-width:1px;stroke-linecap:butt;stroke-linejoin:miter;stroke-opacity:1"
       d="M 94.3125,106.75 C 92.74586,107.66442 91.82245,109.22982 90.6875,110.625 L 91,110.8125 C 91.931085,109.47512 93.287926,107.81258 94.53125,106.78125 L 94.3125,106.75 z"
       id="path2650"
       sodipodi:nodetypes="ccccc" />
    <path
       style="fill:#000000;fill-opacity:1;fill-rule:evenodd;stroke:none;stroke-width:1px;stroke-linecap:butt;stroke-linejoin:miter;stroke-opacity:1"
       d="M 91.84375,86.5625 L 89.4375,89.21875 L 89.71875,89.40625 L 92,86.6875 L 91.84375,86.5625 z"
       id="path2652"
       sodipodi:nodetypes="ccccc" />
    <path
       style="fill:#000000;fill-opacity:1;fill-rule:evenodd;stroke:none;stroke-width:1px;stroke-linecap:butt;stroke-linejoin:miter;stroke-opacity:1"
       d="M 86.40625,88.9375 L 86.125,88.96875 L 88.1875,89.84375 L 88.28125,89.71875 L 86.40625,88.9375 z"
       id="path2654"
       sodipodi:nodetypes="ccccc" />
    <path
       style="fill:#000000;fill-opacity:1;fill-rule:evenodd;stroke:none;stroke-width:1px;stroke-linecap:butt;stroke-linejoin:miter;stroke-opacity:1"
       d="M 84.46875,93.125 L 84.40625,93.4375 L 88.0625,94.65625 L 88.25,94.34375 L 84.46875,93.125 z"
       id="path2656"
       sodipodi:nodetypes="ccccc" />
    <path
       style="fill:#000000;fill-opacity:1;fill-rule:evenodd;stroke:none;stroke-width:1px;stroke-linecap:butt;stroke-linejoin:miter;stroke-opacity:1"
       d="M 83.96875,97.40625 L 83.90625,97.71875 L 88.09375,98.8125 L 88.21875,98.46875 L 83.96875,97.40625 z"
       id="path2658"
       sodipodi:nodetypes="ccccc" />
    <path
       style="fill:#000000;fill-opacity:1;fill-rule:evenodd;stroke:none;stroke-width:1px;stroke-linecap:butt;stroke-linejoin:miter;stroke-opacity:1"
       d="M 83.9375,106.5625 L 83.6875,106.71875 L 87.46875,107.71875 L 87.71875,107.375 L 83.9375,106.5625 z"
       id="path2660"
       sodipodi:nodetypes="ccccc" />
    <path
       style="fill:#000000;fill-opacity:1;fill-rule:evenodd;stroke:none;stroke-width:1px;stroke-linecap:butt;stroke-linejoin:miter;stroke-opacity:1"
       d="M 83.65625,110.625 L 83.78125,110.71875 L 87.5,112.03125 L 87.46875,111.71875 L 83.65625,110.625 z"
       id="path2662"
       sodipodi:nodetypes="ccccc" />
    <path
       id="path2744"
       d="M 84.0625,102.5625 L 83.875,102.71875 L 87.65625,103.71875 L 87.78125,103.4375 L 84.0625,102.5625 z"
       style="fill:#000000;fill-opacity:1;fill-rule:evenodd;stroke:none;stroke-width:1px;stroke-linecap:butt;stroke-linejoin:miter;stroke-opacity:1"
       sodipodi:nodetypes="ccccc" />
    <path
       id="path2746"
       d="M 94.65625,96.96875 L 89.5,103 L 89.65625,103.09375 L 94.71875,97.1875 L 94.65625,96.96875 z"
       style="fill:#000000;fill-opacity:1;fill-rule:evenodd;stroke:none;stroke-width:1px;stroke-linecap:butt;stroke-linejoin:miter;stroke-opacity:1"
       sodipodi:nodetypes="ccccc" />
  </g>
</svg>
