<?xml version="1.0" encoding="UTF-8" standalone="no"?>
<!-- Created with Inkscape (http://www.inkscape.org/) -->
<svg
   xmlns:dc="http://purl.org/dc/elements/1.1/"
   xmlns:cc="http://creativecommons.org/ns#"
   xmlns:rdf="http://www.w3.org/1999/02/22-rdf-syntax-ns#"
   xmlns:svg="http://www.w3.org/2000/svg"
   xmlns="http://www.w3.org/2000/svg"
   xmlns:xlink="http://www.w3.org/1999/xlink"
   xmlns:sodipodi="http://sodipodi.sourceforge.net/DTD/sodipodi-0.dtd"
   xmlns:inkscape="http://www.inkscape.org/namespaces/inkscape"
   width="128"
   height="128"
   id="svg2"
   sodipodi:version="0.32"
   inkscape:version="0.45+devel"
   version="1.0"
   sodipodi:docname="cave_entrance_outline.svg"
   inkscape:output_extension="org.inkscape.output.svg.inkscape">
  <defs
     id="defs4">
    <filter
       height="1.42432"
       y="-0.21216"
       width="1.2179726"
       x="-0.1089863"
       id="filter2892"
       inkscape:collect="always">
      <feGaussianBlur
         id="feGaussianBlur2894"
         stdDeviation="0.72146876"
         inkscape:collect="always" />
    </filter>
    <radialGradient
       r="8.2519293"
       fy="222.04396"
       fx="14.207293"
       cy="222.04396"
       cx="14.207293"
       gradientTransform="scale(1.39523,0.716728)"
       gradientUnits="userSpaceOnUse"
       id="radialGradient1968"
       xlink:href="#linearGradient2057"
       inkscape:collect="always" />
    <linearGradient
       inkscape:collect="always"
       id="linearGradient2057">
      <stop
         style="stop-color:#000000;stop-opacity:1;"
         offset="0"
         id="stop2059" />
      <stop
         style="stop-color:#000000;stop-opacity:0;"
         offset="1"
         id="stop2061" />
    </linearGradient>
  </defs>
  <sodipodi:namedview
     id="base"
     pagecolor="#ffffff"
     bordercolor="#666666"
     borderopacity="1.0"
     gridtolerance="10000"
     guidetolerance="10"
     objecttolerance="10"
     inkscape:pageopacity="0.0"
     inkscape:pageshadow="2"
     inkscape:zoom="1"
     inkscape:cx="64"
     inkscape:cy="64"
     inkscape:document-units="px"
     inkscape:current-layer="layer1"
     showgrid="false"
     width="744.09px"
     inkscape:window-width="1248"
     inkscape:window-height="975"
     inkscape:window-x="426"
     inkscape:window-y="24" />
  <metadata
     id="metadata7">
    <rdf:RDF>
      <cc:Work
         rdf:about="">
        <dc:format>image/svg+xml</dc:format>
        <dc:type
           rdf:resource="http://purl.org/dc/dcmitype/StillImage" />
      </cc:Work>
    </rdf:RDF>
  </metadata>
  <g
     inkscape:label="Layer 1"
     inkscape:groupmode="layer"
     id="layer1">
    <path
       style="fill:#5c2700;fill-opacity:1;fill-rule:evenodd;stroke:none;stroke-width:1px;stroke-linecap:butt;stroke-linejoin:miter;stroke-opacity:1"
       d="M 59.375,34.53125 C 55.398135,34.684389 52.797272,37.469148 50.03125,39.84375 C 47.265228,42.218352 44.3021,44.189105 40.875,45.15625 C 37.390507,46.324614 34.657807,48.644265 32.125,51.21875 C 28.493325,52.74111 24.189238,55.163419 20.0625,56.4375 C 18.004054,57.1628 16.389885,58.577796 14.84375,60.0625 C 13.342408,61.710191 12.21875,63.72281 12.21875,65.78125 L 12.34375,65.90625 C 12.34375,64.217513 14.199932,62.279685 15.59375,60.75 C 16.969812,59.239801 18.725637,57.395983 20.25,56.8125 C 23.660245,56.004668 26.785639,55.01307 29.875,53.40625 C 27.861487,55.853033 27.309718,58.272374 25.4375,60.84375 C 22.237081,65.084665 19.038372,69.269104 16.53125,73.96875 C 15.677212,75.432815 13.42301,78.742644 11.0625,81.78125 C 9.3299774,84.084087 7.7379402,87.041051 5.375,88.6875 L 5.46875,88.875 C 8.1118604,87.376663 9.9888153,84.763459 11.84375,82.40625 C 14.230022,79.334481 16.371917,75.840107 17.28125,74.28125 C 19.276753,69.510308 22.863684,65.375886 25.875,61.09375 C 30.287162,55.033916 33.978119,48.855114 41.09375,46.28125 C 44.731154,45.224897 47.576914,42.484228 50.375,40.0625 C 53.599282,37.240155 57.351827,35.071031 61.40625,37.59375 C 63.542135,38.132374 65.326092,38.039072 66.34375,40.125 C 67.908779,41.845833 69.275332,43.711787 70.5,45.65625 C 70.615035,45.838893 67.41741,49.509932 65.75,54.5625 C 63.984286,59.912947 63.724575,66.648572 63.84375,66.84375 C 63.914022,66.958836 64.206844,63.152736 64.8125,60.03125 C 64.890712,59.628152 66.563597,62.659563 66.65625,62.25 C 66.723923,61.950867 65.111544,59.266316 65.1875,58.96875 C 65.519566,57.667823 65.893923,56.351332 66.375,55.15625 C 68.278152,50.428462 71.113855,46.501325 71.21875,46.6875 C 73.277412,50.34136 75.592434,55.455492 77.3125,59.28125 L 77.34375,59.28125 L 77.34375,59.3125 C 83.810298,70.258823 86.894412,81.385441 86.8125,94.0625 C 87.09421,98.457622 88.87408,104.54089 90.90625,108.40625 L 91.5,107.9375 C 89.983188,106.10316 88.334406,101.61466 88.28125,98.5 C 88.276403,98.216041 90.003754,98.784704 93.09375,99.5 C 93.426831,99.577108 92.637116,103.76702 92.96875,103.84375 C 93.800059,104.0361 93.758027,99.58568 94.5,99.75 C 96.39685,100.17011 97.80109,100.4399 97.78125,100.25 C 97.704042,99.510808 91.797171,98.905702 88.25,97.125 C 87.248631,96.622309 87.838857,94.24653 87.8125,94.0625 C 88.160966,81.360979 83.676308,70.066881 77.8125,59.09375 C 74.984142,52.144898 71.965828,45.414513 67.1875,39.625 C 68.810674,40.204932 70.387835,40.892313 72,41.5 C 76.664409,41.750914 81.047534,42.897217 85.375,44.53125 C 85.574646,44.553167 86.673177,47.765287 89.5,50.625 C 94.000224,55.177583 100.96817,60.199914 101.28125,60.25 C 101.55898,60.294429 93.905044,54.80496 89.9375,50.28125 C 87.731233,47.765708 86.81621,44.813058 86.96875,44.84375 C 94.491562,46.357422 102.44186,50.526849 108.96875,54.5 C 108.73612,55.896115 108.09275,58.166829 107.4375,60.59375 C 106.76058,63.100949 106.06751,65.747406 105.90625,67.84375 C 106.38315,72.545976 105.00828,77.075643 103.8125,81.5625 L 104.03125,81.625 C 105.14886,77.154533 107.45127,72.78598 106.90625,67.9375 C 107.05606,65.989902 107.7329,63.368988 108.40625,60.875 C 108.99741,58.685436 109.7664,57.446331 110.0625,55.9375 C 111.35589,57.190096 111.8379,58.075194 112.5,59.71875 C 113.14106,61.381222 113.80203,63.12892 115.25,64.6875 C 116.2782,65.414477 117.28489,66.195479 118.25,67.03125 C 118.58139,67.318231 117.33887,71.761642 117.65625,72.0625 C 117.91148,72.304455 118.84955,67.24876 119.09375,67.5 C 119.90438,68.333977 121.53999,70.369536 122.1875,71.3125 L 122.40625,71.15625 C 120.69017,68.370538 118.64002,66.029682 115.96875,64.03125 C 114.72299,62.712794 114.0574,61.035399 113.40625,59.375 C 112.76466,57.711165 112.10221,55.96816 110.65625,54.46875 C 103.38613,48.670538 94.657509,46.086972 85.75,44.09375 C 81.208301,42.047026 76.310582,41.116594 71.4375,40.25 C 68.760632,39.269132 66.349334,37.852088 64,36.25 L 59.375,34.53125 z M 54.03125,46.90625 C 52.602612,48.310929 51.876648,50.525229 50.1875,51.21875 C 49.975138,51.712477 47.521715,54.588741 46.90625,54 C 45.980366,53.11432 46.768475,48.515888 46.15625,49 C 46.559201,50.619359 45.493951,55.156731 44.875,56.09375 C 44.152754,55.567081 43.600945,55.363783 42.40625,55.375 C 41.131434,56.728549 39.51187,57.889704 37.6875,58.6875 C 35.512851,59.682524 34.590285,61.693614 33.8125,63.84375 C 31.581254,70.325528 26.196573,74.990612 23,81.25 C 22.938859,81.369725 21.956574,81.368375 20.78125,81.34375 C 20.550385,81.338911 20.241474,78.943682 20,78.9375 C 19.672754,78.929126 20.198729,81.320347 19.875,81.3125 C 18.50306,81.279241 16.501489,81.267584 16.4375,81.40625 C 16.42148,81.737204 22.668811,81.978604 22.65625,82.3125 C 22.583536,84.245499 22.398414,87.093362 22.40625,89.03125 C 22.462935,90.26167 22.632364,91.448507 23.03125,92.4375 C 21.883294,91.843314 20.553476,91.396169 19.71875,91.125 C 18.863258,89.692735 17.613448,88.593846 16.1875,88.25 C 12.840844,88.037707 11.045077,90.464901 10.96875,93.34375 C 11.869113,95.724213 14.965005,95.873077 17.15625,96.65625 C 18.83959,97.31639 20.799906,97.091013 22.625,97.03125 C 23.82199,96.814988 24.432274,95.983717 25.15625,95.09375 C 25.201688,94.906479 25.090943,94.27563 25.0625,94.09375 C 27.273665,93.499752 29.674548,94.119736 31.9375,94.5625 C 33.930039,95.182176 35.891945,96.292408 37.96875,97.34375 L 47.5625,98.75 L 48.8125,100.875 L 47.375,103.75 L 49.125,101.1875 L 53.46875,107.53125 C 53.516608,107.42563 52.495676,105.46714 51.65625,103.8125 C 51.53,103.56364 53.882225,104.00923 53.75,103.75 C 53.640652,103.53562 51.447315,103.20362 51.3125,103 C 50.097964,101.16564 48.8176,98.548923 48.875,98.03125 C 49.584238,91.634841 50.340051,85.969421 50,79.96875 C 50.890571,73.460398 49.350601,67.182606 47.5,61 C 47.300087,59.640893 47.178195,59.966503 46.5625,58.71875 C 46.510561,57.809896 47.415379,55.402146 48.1875,54.8125 C 48.612091,54.504971 48.618736,53.744975 49.03125,53.375 C 54.476115,54.326569 60.249459,52.755397 65,49.90625 L 64.40625,49.71875 C 60.320894,52.716484 54.416411,53.340294 50.25,52.96875 C 50.520601,52.632591 50.772439,52.268411 50.96875,51.84375 L 51,51.84375 C 51.020378,51.799211 51.043215,51.764499 51.0625,51.71875 C 51.666635,50.889573 52.187925,49.956136 52.6875,49.21875 L 54.03125,46.90625 z M 43.40625,55.65625 L 44.09375,56.34375 C 41.940422,58.246253 39.874275,60.192346 37.40625,61.9375 C 36.401848,63.258949 35.964063,64.769271 35.4375,66.25 C 31.591611,71.12486 28.299515,77.384204 24.75,83 C 25.186439,86.437235 24.561162,89.60904 26.1875,93.34375 L 25,93.59375 L 23.072416,89.18606 L 23.375,82.40625 L 34.5625,64.375 C 35.59485,62.640195 35.867853,60.688434 37.9375,59.25 L 43.40625,55.65625 z M 15.09375,89.125 C 16.931278,89.179739 17.964183,90.441468 19,91.8125 C 20.983845,92.934953 26.280963,94.081691 22.46875,96.03125 C 20.76481,96.045242 18.670323,96.272658 17.5625,95.71875 L 17.53125,95.71875 L 17.5,95.71875 C 15.485216,95.091162 12.44398,95.282068 11.3125,93.5 C 11.261519,91.631327 13.244155,89.633701 15.09375,89.125 z M 55.03125,90.6875 C 54.739715,90.684 54.434321,90.691461 54.125,90.71875 C 50.058429,93.864374 50.339927,97.554893 52.3125,101.875 C 54.541621,103.16099 57.327699,103.3937 59.875,103.5625 L 59.90625,103.5625 L 59.96875,103.5625 C 62.618139,102.94388 64.258217,103.37499 66,104 C 67.741783,104.62501 68.820621,105.16941 71.5625,105.21875 C 76.85501,104.39776 80.112778,102.55285 78.09375,97.1875 C 76.565091,95.064282 75.408905,94.027493 73.96875,93.5625 C 72.528595,93.097507 68.759291,95.48699 66.28125,95.5 C 61.892713,94.066917 59.404273,90.740006 55.03125,90.6875 z M 55.25,91.65625 C 59.48277,91.53733 61.980606,94.743086 66.21875,95.96875 C 67.379237,96.005963 70.701877,94.224223 71.875,94.25 C 69.431196,95.948865 69.989421,97.756528 61.75,100.09375 L 61.875,100.21875 C 66.215054,99.737405 70.866479,96.117768 73.65625,94.5 C 74.83023,94.879051 75.798987,95.722472 77.28125,97.78125 C 79.951216,101.77384 76.788565,104.24151 72.90625,104.65625 C 70.796724,104.66161 68.287701,103.78196 66.34375,103.0625 C 64.57527,102.42792 62.644516,101.97829 59.875,102.59375 C 57.484505,102.50607 55.09105,101.75949 52.65625,101.625 C 50.132138,98.061135 51.44492,94.580311 54.375,91.71875 C 54.673559,91.679758 54.967815,91.664178 55.25,91.65625 z"
       id="path2308"
       sodipodi:nodetypes="csccccccsccccccccccccccssssssssccccccsssssscccccsssscsccccscccssscccccccccccscccccsssscsccccccccccccccccsssscccccccccccccccccccccccccccccccccccccccsccsccccccccccccccc" />
  </g>
</svg>
