<?xml version="1.0" encoding="UTF-8" standalone="no"?>
<!-- Created with Inkscape (http://www.inkscape.org/) -->
<svg
   xmlns:dc="http://purl.org/dc/elements/1.1/"
   xmlns:cc="http://creativecommons.org/ns#"
   xmlns:rdf="http://www.w3.org/1999/02/22-rdf-syntax-ns#"
   xmlns:svg="http://www.w3.org/2000/svg"
   xmlns="http://www.w3.org/2000/svg"
   xmlns:xlink="http://www.w3.org/1999/xlink"
   xmlns:sodipodi="http://sodipodi.sourceforge.net/DTD/sodipodi-0.dtd"
   xmlns:inkscape="http://www.inkscape.org/namespaces/inkscape"
   width="128"
   height="128"
   id="svg2"
   sodipodi:version="0.32"
   inkscape:version="0.45+devel"
   version="1.0"
   sodipodi:docname="circus_outline.svg"
   inkscape:output_extension="org.inkscape.output.svg.inkscape">
  <defs
     id="defs4">
    <filter
       height="1.42432"
       y="-0.21216"
       width="1.2179726"
       x="-0.1089863"
       id="filter2892"
       inkscape:collect="always">
      <feGaussianBlur
         id="feGaussianBlur2894"
         stdDeviation="0.72146876"
         inkscape:collect="always" />
    </filter>
    <radialGradient
       r="8.2519293"
       fy="222.04396"
       fx="14.207293"
       cy="222.04396"
       cx="14.207293"
       gradientTransform="scale(1.39523,0.716728)"
       gradientUnits="userSpaceOnUse"
       id="radialGradient1968"
       xlink:href="#linearGradient2057"
       inkscape:collect="always" />
    <linearGradient
       inkscape:collect="always"
       id="linearGradient2057">
      <stop
         style="stop-color:#000000;stop-opacity:1;"
         offset="0"
         id="stop2059" />
      <stop
         style="stop-color:#000000;stop-opacity:0;"
         offset="1"
         id="stop2061" />
    </linearGradient>
  </defs>
  <sodipodi:namedview
     id="base"
     pagecolor="#ffffff"
     bordercolor="#666666"
     borderopacity="1.0"
     gridtolerance="10000"
     guidetolerance="10"
     objecttolerance="10"
     inkscape:pageopacity="0.0"
     inkscape:pageshadow="2"
     inkscape:zoom="1"
     inkscape:cx="65.360795"
     inkscape:cy="90.880749"
     inkscape:document-units="px"
     inkscape:current-layer="layer1"
     showgrid="false"
     width="744.09px"
     inkscape:window-width="1248"
     inkscape:window-height="975"
     inkscape:window-x="426"
     inkscape:window-y="24"
     showguides="true"
     inkscape:guide-bbox="true" />
  <metadata
     id="metadata7">
    <rdf:RDF>
      <cc:Work
         rdf:about="">
        <dc:format>image/svg+xml</dc:format>
        <dc:type
           rdf:resource="http://purl.org/dc/dcmitype/StillImage" />
      </cc:Work>
    </rdf:RDF>
  </metadata>
  <g
     inkscape:label="Layer 1"
     inkscape:groupmode="layer"
     id="layer1">
    <path
       style="opacity:1;fill:#5c2700;fill-opacity:1;stroke:none;stroke-width:2.37469864000000008;stroke-miterlimit:4;stroke-dasharray:none;stroke-opacity:1"
       d="M 64.072303,8.9571068 C 62.991054,15.565155 63.649695,22.173202 63.625,28.78125 C 60.696128,28.968992 57.772621,28.151644 54.84375,27.84375 C 47.457252,31.583354 38.904577,33.740289 29.875,35.25 C 26.734742,41.303213 19.603072,44.92687 14.03125,49.5 C 14.298047,50.818411 13.129949,52.822919 12.21875,54.625 C 11.469646,56.27344 10.848982,57.942951 10.96875,59.875 C 9.9939833,62.215731 8.3246085,64.004859 6.8125,65.40625 C 6.9533931,72.177163 7.1356955,79.24578 5.15625,85.78125 C 12.787038,92.625594 14.633354,104.85938 15.46875,111.40625 C 23.716704,112.07515 33.443006,118.65744 42.65625,123.1875 C 49.336458,120.76007 62.620193,121.67516 78.8125,124.0625 C 88.817864,116.94001 94.781568,102.81421 98.21875,90.15625 C 98.73213,99.055822 98.85549,104.76788 99.6875,114.09375 C 102.1748,116.98662 103.74425,115.56885 105.28125,114.34375 C 104.28686,105.58836 103.43182,95.98597 102.65625,87.0625 C 105.67265,89.168618 113.05028,91.732707 123.71875,92.375 C 122.72079,84.297721 121.83518,76.097998 123.4375,67.90625 C 122.20044,65.624625 121.25053,62.991271 121.09375,60.34375 C 119.77809,58.831427 119.0268,55.749017 118.0625,53.53125 C 118.15698,52.135273 116.94164,50.553503 116.09375,49.34375 C 114.0387,46.637236 110.16149,43.569068 105.75,39.46875 C 105.66741,39.343464 105.58337,39.218624 105.5,39.09375 C 95.306546,35.632262 89.768472,32.356989 82.1875,29 C 73.35068,29.594185 71.615866,29.785696 64.875,28.84375 L 65.375,19.03125 C 83.18461,15.624708 89.95838,20.212376 94.603238,13.291053 C 85.524633,15.618909 75.242384,11.92854 65.53125,11.09375 L 64.71875,9.3106602 L 64.072303,8.9571068 z M 64.78125,12.03125 C 74.14058,11.863971 83.658749,15.588386 93.406696,14.274968 C 88.826367,19.373941 74.049271,16.340789 64.370558,18.301777 C 64.088174,16.361183 63.14454,14.611542 64.78125,12.03125 z M 55.25,28.375 C 58.054102,28.691509 60.540861,28.995992 63.6875,29.3125 L 63.71875,31.125 C 63.701141,31.132017 63.433885,31.238992 63.40625,31.25 C 60.95054,31.495816 57.627202,29.9796 55.25,28.375 z M 54.8125,28.5625 C 57.125313,30.450767 60.732334,31.415387 63.002602,31.90625 C 58.233008,32.371563 53.702156,33.934317 48.958027,34.618718 C 42.433596,36.030643 36.820083,36.395955 31.09375,35.4375 C 40.356952,33.722002 48.082515,31.08402 54.8125,28.5625 z M 64.8125,29.375 C 70.322267,29.811571 75.532153,29.976849 81.875,29.46875 C 77.388463,30.791317 70.617839,31.393988 66.0625,31.53125 L 65.34375,31.5625 C 65.2915,31.564054 65.239762,31.56094 65.1875,31.5625 C 65.021053,31.449714 64.890212,31.341167 64.84375,31.28125 L 64.75,31.3125 L 64.8125,29.375 z M 82.65625,29.40625 C 89.663169,32.680173 96.089714,36.444183 105.0625,39.28125 C 98.835665,40.390016 92.136677,38.537393 86,37.375 C 79.183064,36.108663 72.460444,34.456278 65.975951,32.00092 C 70.962594,31.918476 77.676908,31.119943 82.65625,29.40625 z M 63.78125,32.5625 C 63.767052,32.693538 63.813333,32.721384 63.78125,32.875 C 60.939206,41.817488 52.989665,51.938996 46.421415,60.426777 C 40.615114,68.138817 33.523883,76.70521 24.84375,82.03125 C 21.084228,77.107042 18.345371,70.972062 13.266085,66.927697 C 36.141326,60.220957 49.735942,46.662993 63.78125,32.5625 z M 63.450825,32.105393 C 49.829952,46.078836 35.616598,60.386763 13.0625,66.34375 C 13.956856,61.09375 14.662939,55.225032 14.974112,49.975032 C 23.65247,47.291792 32.541227,44.965143 41.009803,41.691942 C 51.128916,37.771731 60.409787,33.318951 63.450825,32.105393 z M 65.580425,32.262563 C 71.808234,35.763316 78.710475,36.411605 85.635723,37.81342 C 92.272994,38.837198 101.3005,41.234624 105.40625,39.71875 C 108.6243,44.669006 111.95559,50.321135 116.50846,54.715246 C 116.7109,54.910626 116.03362,55.544587 116.24464,55.732995 C 107.97548,54.832695 98.855612,50.245186 91.131282,47.046415 C 82.583646,42.975398 72.627998,38.840967 65.580425,32.262563 z M 62.496163,32.153648 C 57.964425,33.944305 47.556386,38.698234 41.107995,41.196383 C 32.929398,44.290632 24.030827,46.738801 15.6875,49.375 C 20.603507,45.049062 26.549227,40.51532 30.3125,35.875 C 36.236191,37.426979 42.646871,36.228302 48.90625,34.96875 C 51.943655,34.543809 59.9757,32.583596 62.496163,32.153648 z M 64.244639,32.582265 C 65.577245,42.569398 54.532447,72.462757 46.629442,91.364277 C 39.997814,88.377532 32.90014,83.936395 25.53217,82.422335 C 33.856827,76.779779 40.67933,68.606614 46.9375,60.84375 C 52.966365,51.935129 61.36396,43.24592 64.244639,32.582265 z M 65.746478,33.014403 C 67.372574,36.962199 70.456823,39.773533 73.5,42.65625 C 78.18611,47.027905 84.30644,52.023618 90.375,56.65625 C 97.862216,62.095146 105.66989,67.995891 113.84283,72.40625 L 99.0625,85.3125 L 98.109835,85.962468 C 92.217044,78.005585 86.672879,69.3598 81.058058,61.202665 C 75.237961,52.208904 67.903715,40.468603 65.746478,33.014403 z M 65.308058,33.118876 C 68.630144,43.441887 74.827679,52.432614 80.65625,61.46875 C 86.09682,69.820918 91.669881,78.089804 97.65625,86.0625 C 90.09375,87.474617 82.177697,90.527773 74.615197,93.046415 C 73.831535,90.479488 73.153316,87.566415 72.62592,84.9375 C 69.470793,68.58683 66.976282,49.682914 65.308058,33.118876 z M 65.978711,32.922493 C 72.915801,39.879907 82.467646,43.827655 91.34375,47.6875 C 99.413673,50.535043 107.34821,55.166071 116,56.03125 C 113.93704,60.846404 114.47716,66.62088 114,71.858915 C 105.81922,67.431305 98.204097,61.963883 90.791973,56.37408 C 84.740697,51.754642 78.037802,46.536713 73.392005,42.202665 C 71.177924,40.137157 67.368262,34.587058 65.978711,32.922493 z M 64.96875,33.591306 C 66.598798,49.342005 69.303538,69.562718 72.1875,85.125 C 72.71401,87.791216 73.237992,90.461848 74.03125,93.0625 C 65.03125,91.932018 56.03125,91.92581 47.03125,91.6875 C 54.487196,73.844794 63.400434,51.304032 64.96875,33.591306 z M 106.4375,40.5625 C 110.45332,44.255653 114.20205,47.497192 116.03125,49.90625 C 117.26666,51.12996 117.18535,53.001007 116.96875,54.375 C 112.28044,50.39217 109.529,45.390696 106.4375,40.5625 z M 14.4375,50.90625 C 14.396003,55.998719 13.500022,61.095029 12.53125,66.1875 C 9.7250039,61.893401 12.566797,54.746048 14.4375,50.90625 z M 117.90625,54.21875 C 118.68016,56.472453 119.44494,58.640049 120.6875,60.6875 C 120.47446,62.563282 120.9496,64.299071 121.65625,66 C 120.61249,64.411695 119.86781,62.366011 119,60.59375 C 118.52766,58.671275 118.63586,56.666973 117.46875,54.84375 C 117.66095,54.641839 117.81003,54.438605 117.90625,54.21875 z M 114.5,72.40625 C 114.69477,67.041404 114.38441,59.429517 117.03125,54.84375 C 119.09695,60.728101 118.98116,67.378677 114.5,72.40625 z M 119.03125,62 C 120.13996,63.593135 121.11755,67.169984 122.4375,68.09375 C 121.28554,75.035334 121.93164,82.476382 122.875,90 C 119.21806,84.791942 115.97583,79.039441 114.75,73 C 117.89239,70.506926 118.99732,65.809464 119.03125,62 z M 10.28125,62.28125 L 12.21875,66.46875 C 12.935231,73.155723 9.1435474,79.443914 6.03125,85.15625 C 7.1495383,79.47674 9.027459,70.532911 7.40625,65.4375 C 8.4043885,64.442996 9.5592712,63.629531 10.28125,62.28125 z M 13.125,67.90625 C 17.5209,72.272713 21.421633,77.089861 24.40625,82.75 C 18.415536,79.246945 14.815895,74.627026 13.125,67.90625 z M 12.84375,68.6875 C 13.795633,75.291525 19.097827,79.640586 24.1875,82.90625 C 23.777308,91.874357 19.001941,102.10156 15.84375,110.84375 C 15.18875,102.81101 12.319241,92.786088 6.34375,85.8125 C 9.5682294,80.996755 11.854316,74.415767 12.84375,68.6875 z M 113.84375,73.15625 C 112.58737,79.903231 107.68522,84.959139 100.15625,85.125 C 104.45347,81.496843 109.79626,76.095345 113.84375,73.15625 z M 114.34375,73.90625 C 115.96542,80.082438 119.08305,85.580856 121.84375,90.21875 C 117.0951,88.08728 114.80024,85.854408 114.15625,80.4375 L 113.75,80.40625 C 112.12356,85.514037 107.57977,85.834996 103.03125,85.5 C 109.65275,83.584931 112.60793,78.839525 114.34375,73.90625 z M 113.9375,81.0625 C 114.33543,87.751919 117.55894,88.751605 122.78125,91.03125 C 123.0026,91.1481 123.05865,91.871277 123.21875,91.96875 C 116.59078,92.0536 107.79374,89.691105 102.46875,86.625 C 102.21667,86.479852 102.73365,85.774705 102.46875,85.65625 C 107.96607,86.676509 111.64941,85.835202 113.9375,81.0625 z M 25.09375,83.1875 C 32.641332,84.036452 39.221341,88.545863 45.90625,91.875 C 37.10719,95.145425 29.959216,89.915366 25.09375,83.1875 z M 24.75,83.28125 C 29.460054,90.259824 38.278008,96.505162 46.1875,92.15625 C 46.412209,101.85409 43.921834,113.10933 42.3125,122.5625 C 34.525645,117.94617 25.358337,113.38609 16.34375,110.8125 C 19.316783,102.30417 23.862965,92.245902 24.75,83.28125 z M 100,85.625 C 100.80281,85.550039 101.48453,85.838844 102,86.0625 C 102,86.0625 104.66604,113.12669 104.625,113.625 C 104.39147,116.46033 100.16575,114.71751 100.25,113.875 L 98.4375,86.25 C 98.988552,85.840211 99.518313,85.669976 100,85.625 z M 98.09375,86.84375 C 93.384477,94.708755 85.319305,97.130383 75.625,93.4375 C 82.953719,90.602894 90.612374,87.559725 98.09375,86.84375 z M 98.21875,87.8125 C 96.227205,100.98656 89.059959,113.94555 79.1875,123.40625 C 80.063039,117.10866 81.696536,108.56976 79.625,102.46875 C 86.518375,99.545258 93.429277,93.531295 98.21875,87.8125 z M 53.3125,92.125 C 60.36459,92.129996 67.641276,92.632753 74.5,93.5 C 74.490771,93.854869 74.064566,94.548786 74.0625,94.90625 C 64.797873,100.62319 54.842349,99.485926 46.90625,92.28125 C 48.026042,92.231769 49.173373,92.178953 50.3125,92.15625 C 51.309236,92.136385 52.305059,92.124286 53.3125,92.125 z M 46.6875,92.40625 C 52.322483,99.452361 67.652262,102.03969 74.0625,95.21875 C 73.60195,103.30817 76.239075,114.1898 77.71875,123.21875 C 66.292935,122.28505 54.382967,120.76159 42.90625,122.3125 C 44.449453,113.26357 46.723159,101.93457 46.6875,92.40625 z M 75.0625,93.78125 C 80.301058,96.081257 86.247417,96.146339 91.4375,94.03125 C 88.041052,97.334013 84.051195,100.17524 79.15625,102.3125 C 81.540825,109.22262 79.74514,116.40384 78.75,123.40625 C 76.60969,113.78821 73.508025,103.50696 75.0625,93.78125 z"
       id="path2308"
       sodipodi:nodetypes="ccccccccccccccccccccccccccccccccccccccccccccccccsccccccccccccccccccccccscccccccccccccccccccccccccccccccccsccccccccccccccccccccccccccccccccccccccccccccccccccccsccccccccccccsccccccccccccccsccccccccccc" />
  </g>
</svg>
