<?xml version="1.0" encoding="UTF-8" standalone="no"?>
<!-- Created with Inkscape (http://www.inkscape.org/) -->
<svg
   xmlns:dc="http://purl.org/dc/elements/1.1/"
   xmlns:cc="http://creativecommons.org/ns#"
   xmlns:rdf="http://www.w3.org/1999/02/22-rdf-syntax-ns#"
   xmlns:svg="http://www.w3.org/2000/svg"
   xmlns="http://www.w3.org/2000/svg"
   xmlns:xlink="http://www.w3.org/1999/xlink"
   xmlns:sodipodi="http://sodipodi.sourceforge.net/DTD/sodipodi-0.dtd"
   xmlns:inkscape="http://www.inkscape.org/namespaces/inkscape"
   width="128"
   height="128"
   id="svg2"
   sodipodi:version="0.32"
   inkscape:version="0.45+devel"
   version="1.0"
   sodipodi:docname="docks_outline.svg"
   inkscape:output_extension="org.inkscape.output.svg.inkscape">
  <defs
     id="defs4">
    <filter
       height="1.42432"
       y="-0.21216"
       width="1.2179726"
       x="-0.1089863"
       id="filter2892"
       inkscape:collect="always">
      <feGaussianBlur
         id="feGaussianBlur2894"
         stdDeviation="0.72146876"
         inkscape:collect="always" />
    </filter>
    <radialGradient
       r="8.2519293"
       fy="222.04396"
       fx="14.207293"
       cy="222.04396"
       cx="14.207293"
       gradientTransform="scale(1.39523,0.716728)"
       gradientUnits="userSpaceOnUse"
       id="radialGradient1968"
       xlink:href="#linearGradient2057"
       inkscape:collect="always" />
    <linearGradient
       inkscape:collect="always"
       id="linearGradient2057">
      <stop
         style="stop-color:#000000;stop-opacity:1;"
         offset="0"
         id="stop2059" />
      <stop
         style="stop-color:#000000;stop-opacity:0;"
         offset="1"
         id="stop2061" />
    </linearGradient>
  </defs>
  <sodipodi:namedview
     id="base"
     pagecolor="#ffffff"
     bordercolor="#666666"
     borderopacity="1.0"
     gridtolerance="10000"
     guidetolerance="10"
     objecttolerance="10"
     inkscape:pageopacity="0.0"
     inkscape:pageshadow="2"
     inkscape:zoom="1"
     inkscape:cx="64"
     inkscape:cy="64"
     inkscape:document-units="px"
     inkscape:current-layer="layer1"
     showgrid="false"
     width="744.09px"
     inkscape:window-width="1248"
     inkscape:window-height="975"
     inkscape:window-x="426"
     inkscape:window-y="24"
     showguides="true"
     inkscape:guide-bbox="true" />
  <metadata
     id="metadata7">
    <rdf:RDF>
      <cc:Work
         rdf:about="">
        <dc:format>image/svg+xml</dc:format>
        <dc:type
           rdf:resource="http://purl.org/dc/dcmitype/StillImage" />
      </cc:Work>
    </rdf:RDF>
  </metadata>
  <g
     inkscape:label="Layer 1"
     inkscape:groupmode="layer"
     id="layer1">
    <path
       style="fill:#5c2700;fill-opacity:1;fill-rule:evenodd;stroke:none;stroke-width:1px;stroke-linecap:butt;stroke-linejoin:miter;stroke-opacity:1"
       d="M 74.65625 10.15625 L 55.53125 17.5 L 55.65625 25.6875 L 55.8125 25.78125 L 46.28125 29.4375 L 46.40625 37.625 L 55.15625 44.03125 L 75.1875 35.90625 L 75.1875 35.375 L 75.90625 35.90625 L 95.9375 27.78125 L 96 19.53125 L 86.15625 13.96875 L 83.3125 15.0625 L 74.65625 10.15625 z M 74.5625 10.46875 L 75.78125 11.1875 L 57.90625 18.59375 L 56.375 17.625 L 74.5625 10.46875 z M 75.84375 11.21875 L 77.5 12.1875 L 59.65625 19.75 L 58.09375 18.71875 L 75.84375 11.21875 z M 77.59375 12.21875 L 79.4375 13.3125 L 61.59375 20.96875 L 59.84375 19.84375 L 77.59375 12.21875 z M 79.5625 13.375 L 81.5625 14.53125 L 63.09375 21.9375 L 61.71875 21.0625 L 79.5625 13.375 z M 86.0625 14.28125 L 87.28125 15 L 84.5 16.15625 L 84.5 15.71875 L 84.5 15.6875 L 84.4375 15.6875 L 83.65625 15.25 L 86.0625 14.28125 z M 81.71875 14.625 L 83.5625 15.71875 L 64.5625 22.875 L 63.1875 22 L 81.71875 14.625 z M 87.34375 15.03125 L 89 16 L 84.46875 17.9375 L 84.5 16.25 L 87.34375 15.03125 z M 84 16 L 84 17.96875 L 83.09375 18.3125 L 82.40625 17.34375 L 82.34375 17.25 L 82.25 17.21875 L 82.0625 17.09375 L 82 17.15625 L 81.90625 17.1875 L 80 17.84375 L 80.125 18.28125 L 75.1875 21.28125 L 68.46875 23.875 L 68.5 22.15625 L 65.53125 23.3125 L 65.53125 25 L 64.84375 25.25 L 64.875 23.25 L 84 16 z M 89.09375 16.03125 L 90.9375 17.125 L 84.46875 19.90625 L 84.46875 18.03125 L 89.09375 16.03125 z M 91.0625 17.1875 L 93.0625 18.34375 L 84.46875 21.78125 L 84.46875 20.03125 L 91.0625 17.1875 z M 81.59375 17.53125 L 82.0625 17.53125 L 65.8125 27.625 L 65.5625 27.71875 L 65.59375 27.46875 L 81.59375 17.53125 z M 81.3125 17.5625 L 80.1875 18.21875 L 80.3125 17.9375 L 81.3125 17.5625 z M 82.3125 17.65625 L 83.15625 19.15625 L 66.46875 29.875 L 65.4375 28.3125 L 65.5 28.25 L 82.3125 17.65625 z M 56.03125 17.84375 L 57.71875 18.9375 L 57.75 19.53125 L 56.4375 18.5625 L 56.46875 20.15625 L 56 19.9375 L 56.03125 17.84375 z M 84 18.0625 L 84 20.53125 L 82.96875 20.9375 L 82.96875 19.65625 L 83.71875 19.15625 L 83.15625 18.375 L 84 18.0625 z M 93.21875 18.4375 L 95.0625 19.53125 L 84.4375 23.53125 L 84.4375 21.90625 L 93.21875 18.4375 z M 57.9375 19.0625 L 59.34375 20 L 59.34375 20.6875 L 57.90625 19.625 L 57.9375 19.0625 z M 56.78125 19.28125 L 58.75 20.65625 L 56.84375 21.65625 L 56.78125 19.28125 z M 95.53125 19.625 L 95.5 21.78125 L 94.59375 22.125 L 93.90625 21.15625 L 93.84375 21.0625 L 93.75 21.03125 L 93.5625 20.90625 L 93.5 20.96875 L 93.40625 21 L 91.5 21.65625 L 91.625 22.09375 L 86.6875 25.09375 L 79.96875 27.6875 L 80 25.96875 L 77.03125 27.125 L 77.03125 28.8125 L 76.34375 29.0625 L 76.375 27.25 L 84.15625 24.125 L 84.34375 23.84375 L 95.53125 19.625 z M 82.59375 19.875 L 82.78125 23.40625 L 81 24.34375 L 80.96875 20.96875 L 80.96875 20.9375 L 82.59375 19.875 z M 56 20.09375 L 56.5 20.28125 L 56.53125 21.90625 L 55.96875 21.625 L 56 20.09375 z M 59.5 20.09375 L 61.375 21.3125 L 61.46875 22.21875 L 59.40625 20.71875 L 59.5 20.09375 z M 84 20.625 L 84 21.84375 L 82.96875 22.21875 L 82.96875 21 L 84 20.625 z M 58.84375 20.71875 L 61 22.25 L 56.90625 24.4375 L 56.84375 21.71875 L 58.84375 20.71875 z M 80.71875 21.125 L 80.90625 24.375 L 80.6875 24.5 L 80.625 21.1875 L 80.71875 21.125 z M 80.40625 21.3125 L 80.4375 21.84375 L 78.40625 22.625 L 80.40625 21.3125 z M 93.09375 21.34375 L 93.5625 21.34375 L 77.3125 31.4375 L 77.0625 31.53125 L 77.09375 31.28125 L 93.09375 21.34375 z M 92.8125 21.375 L 91.6875 22.03125 L 91.8125 21.75 L 92.8125 21.375 z M 61.53125 21.40625 L 62.90625 22.3125 L 62.875 23.28125 L 61.53125 22.28125 L 61.53125 21.40625 z M 93.8125 21.46875 L 94.65625 22.96875 L 77.96875 33.6875 L 76.9375 32.125 L 77 32.0625 L 93.8125 21.46875 z M 74.71875 21.5625 L 68.40625 25.375 L 68.4375 24.03125 L 74.71875 21.5625 z M 55.96875 21.71875 L 56.53125 22.03125 L 56.59375 24.3125 L 56.625 25.21875 L 57.4375 25.78125 L 57.375 26.5625 L 55.90625 25.5625 L 55.9375 24 L 56.59375 24.3125 L 55.9375 23.9375 L 55.96875 21.71875 z M 95.5 21.875 L 95.5 24.34375 L 94.46875 24.75 L 94.46875 23.46875 L 95.21875 22.96875 L 94.65625 22.1875 L 95.5 21.875 z M 80.4375 21.9375 L 80.5 23.1875 L 73.09375 26.0625 L 78.0625 22.8125 L 80.4375 21.9375 z M 84 21.96875 L 84.03125 23.875 L 64.71875 31.5625 L 64.75 29.4375 L 65.5625 29.125 L 65.90625 29.6875 L 65.875 30.8125 L 68.5 29.8125 L 68.5625 29 L 72.59375 26.375 L 80.5 23.3125 L 80.5625 24.6875 L 82.96875 23.65625 L 82.96875 22.34375 L 84 21.96875 z M 61.09375 22.3125 L 61.5 22.59375 L 63.21875 23.8125 L 58.84375 26.5 L 56.9375 25.09375 L 56.9375 24.65625 L 61.09375 22.3125 z M 63.03125 22.375 L 64.21875 23.15625 L 64.21875 25.15625 L 63.625 24.71875 L 63.625 23.8125 L 63 23.34375 L 63.03125 22.375 z M 68.21875 22.40625 L 68.21875 22.6875 L 65.96875 23.625 L 65.75 23.4375 L 65.875 23.90625 L 65.84375 26.96875 L 65.78125 27 L 65.71875 23.4375 L 65.75 23.4375 L 65.75 23.40625 L 68.21875 22.40625 z M 68.21875 22.75 L 68.0625 25.59375 L 66 26.84375 L 66.03125 23.78125 L 68.21875 22.75 z M 94.09375 23.6875 L 94.28125 27.21875 L 92.5 28.15625 L 92.46875 24.78125 L 92.46875 24.75 L 94.09375 23.6875 z M 63.21875 23.9375 L 63.3125 27.09375 L 63.28125 27.09375 L 61.3125 28.28125 L 60.84375 27.96875 L 58.96875 26.5625 L 63.21875 23.9375 z M 95.5 24.4375 L 95.5 25.65625 L 94.46875 26.03125 L 94.46875 24.8125 L 95.5 24.4375 z M 63.625 24.875 L 64.21875 25.34375 L 64.25 27.75 L 63.65625 27.15625 L 63.625 24.875 z M 92.21875 24.9375 L 92.40625 28.1875 L 92.1875 28.3125 L 92.125 25 L 92.21875 24.9375 z M 91.90625 25.125 L 91.9375 25.65625 L 89.90625 26.4375 L 91.90625 25.125 z M 65.53125 25.15625 L 65.5 27.15625 L 65.1875 27.34375 L 65.1875 27.5 L 64.78125 27.65625 L 64.84375 25.4375 L 65.53125 25.15625 z M 86.21875 25.375 L 79.90625 29.1875 L 79.9375 27.84375 L 86.21875 25.375 z M 91.9375 25.75 L 92 27 L 84.59375 29.875 L 89.5625 26.625 L 91.9375 25.75 z M 95.5 25.78125 L 95.5 27.5 L 76.21875 35.28125 L 76.25 33.25 L 77.0625 32.9375 L 77.40625 33.5 L 77.375 34.625 L 80 33.625 L 80.0625 32.8125 L 84.09375 30.1875 L 92 27.125 L 92.0625 28.5 L 94.46875 27.46875 L 94.46875 26.15625 L 95.5 25.78125 z M 57.53125 25.875 L 58.71875 26.71875 L 58.65625 27.46875 L 57.5 26.65625 L 57.53125 25.875 z M 56.125 26.03125 L 57.34375 26.9375 L 48.65625 30.53125 L 47.125 29.5625 L 56.125 26.03125 z M 79.71875 26.21875 L 79.71875 26.5 L 77.46875 27.4375 L 77.25 27.25 L 77.375 27.71875 L 77.34375 30.78125 L 77.28125 30.8125 L 77.21875 27.25 L 77.25 27.25 L 77.25 27.21875 L 79.71875 26.21875 z M 79.71875 26.5625 L 79.5625 29.40625 L 77.5 30.65625 L 77.53125 27.59375 L 79.71875 26.5625 z M 58.84375 26.8125 L 60.65625 28.125 L 60.71875 28.90625 L 58.78125 27.5625 L 58.84375 26.8125 z M 57.46875 27.03125 L 58.90625 28.0625 L 50.40625 31.6875 L 48.84375 30.65625 L 57.46875 27.03125 z M 63.3125 27.1875 L 63.40625 29.8125 L 61.4375 28.375 L 63.3125 27.1875 z M 63.65625 27.40625 L 64.25 27.96875 L 64.25 29.375 L 63.6875 29.125 L 64.25 29.53125 L 64.34375 31.53125 L 62.625 30.21875 L 62.625 29.53125 L 63.6875 30.3125 L 63.6875 29.125 L 63.65625 27.40625 z M 75.71875 27.5 L 75.71875 28.96875 L 75.25 28.625 L 75.25 27.6875 L 75.71875 27.5 z M 65.15625 27.625 L 65.125 28.03125 L 64.96875 28.09375 L 65.5 29 L 64.75 29.3125 L 64.78125 27.75 L 65.15625 27.625 z M 74.75 27.71875 L 74.75 29.90625 L 73.84375 30.25 L 73.15625 29.28125 L 73.09375 29.1875 L 73 29.15625 L 72.8125 29.03125 L 72.75 29.09375 L 72.65625 29.125 L 70.75 29.78125 L 70.875 30.21875 L 65.9375 33.21875 L 59.21875 35.8125 L 59.25 34.09375 L 56.28125 35.25 L 56.28125 36.9375 L 55.59375 37.1875 L 55.5625 35 L 64.09375 31.78125 L 64.28125 32.0625 L 74.75 27.71875 z M 59.03125 28.15625 L 60.65625 29.34375 L 52.34375 32.90625 L 50.59375 31.78125 L 59.03125 28.15625 z M 60.84375 28.28125 L 62.25 29.28125 L 62.40625 30.0625 L 60.875 29 L 60.84375 28.28125 z M 75.25 28.78125 L 75.71875 29.15625 L 75.75 31.5625 L 75.21875 31.03125 L 75.25 28.78125 z M 77.03125 28.96875 L 77 30.96875 L 76.6875 31.15625 L 76.6875 31.3125 L 76.28125 31.46875 L 76.34375 29.25 L 77.03125 28.96875 z M 68.28125 29.1875 L 68.25 29.59375 L 66.34375 30.4375 L 68.28125 29.1875 z M 60.75 29.40625 L 62.21875 30.5 L 53.84375 33.875 L 52.46875 33 L 60.75 29.40625 z M 72.34375 29.46875 L 72.8125 29.46875 L 56.5625 39.5625 L 56.3125 39.65625 L 56.34375 39.40625 L 72.34375 29.46875 z M 72.0625 29.5 L 70.9375 30.15625 L 71.0625 29.875 L 72.0625 29.5 z M 73.0625 29.59375 L 73.90625 31.09375 L 57.21875 41.8125 L 56.1875 40.25 L 56.25 40.1875 L 73.0625 29.59375 z M 46.78125 29.78125 L 48.46875 30.875 L 48.5 31.46875 L 47.1875 30.5 L 47.21875 32.09375 L 46.75 31.875 L 46.78125 29.78125 z M 74.75 30 L 74.75 32.46875 L 73.71875 32.875 L 73.71875 31.59375 L 74.46875 31.09375 L 73.90625 30.3125 L 74.75 30 z M 62.34375 30.59375 L 63.78125 31.625 L 55.3125 34.8125 L 53.9375 33.9375 L 62.34375 30.59375 z M 48.6875 31 L 50.09375 31.9375 L 50.09375 32.625 L 48.65625 31.5625 L 48.6875 31 z M 47.53125 31.21875 L 49.5 32.59375 L 47.59375 33.59375 L 47.53125 31.21875 z M 75.21875 31.28125 L 75.75 31.78125 L 75.75 33.1875 L 75.21875 32.96875 L 75.75 33.34375 L 75.75 35.15625 L 75.1875 34.78125 L 75.21875 32.96875 L 75.21875 32.9375 L 75.21875 31.28125 z M 76.65625 31.4375 L 76.625 31.84375 L 76.46875 31.90625 L 77 32.8125 L 76.25 33.125 L 76.28125 31.5625 L 76.65625 31.4375 z M 73.34375 31.8125 L 73.53125 35.34375 L 71.75 36.28125 L 71.71875 32.90625 L 71.71875 32.875 L 73.34375 31.8125 z M 46.75 32.03125 L 47.25 32.21875 L 47.28125 33.84375 L 46.71875 33.5625 L 46.75 32.03125 z M 50.25 32.03125 L 52.125 33.25 L 52.21875 34.15625 L 50.15625 32.65625 L 50.25 32.03125 z M 74.75 32.5625 L 74.75 33.78125 L 73.71875 34.15625 L 73.71875 32.9375 L 74.75 32.5625 z M 49.59375 32.65625 L 51.75 34.1875 L 47.65625 36.375 L 47.59375 33.65625 L 49.59375 32.65625 z M 79.78125 33 L 79.75 33.40625 L 77.84375 34.25 L 79.78125 33 z M 71.46875 33.0625 L 71.65625 36.3125 L 71.4375 36.4375 L 71.375 33.125 L 71.46875 33.0625 z M 71.15625 33.25 L 71.1875 33.78125 L 69.15625 34.5625 L 71.15625 33.25 z M 52.28125 33.34375 L 53.65625 34.25 L 53.625 35.21875 L 52.28125 34.21875 L 52.28125 33.34375 z M 65.46875 33.5 L 59.15625 37.3125 L 59.1875 35.96875 L 65.46875 33.5 z M 46.71875 33.65625 L 47.28125 33.96875 L 47.34375 36.25 L 47.375 37.15625 L 48.1875 37.71875 L 48.125 38.5 L 46.65625 37.5 L 46.6875 35.9375 L 47.34375 36.25 L 46.6875 35.875 L 46.71875 33.65625 z M 71.1875 33.875 L 71.25 35.125 L 63.84375 38 L 68.8125 34.75 L 71.1875 33.875 z M 74.75 33.90625 L 74.75 35.625 L 55.46875 43.40625 L 55.5 41.375 L 56.3125 41.0625 L 56.65625 41.625 L 56.625 42.75 L 59.25 41.75 L 59.3125 40.9375 L 63.34375 38.3125 L 71.25 35.25 L 71.3125 36.625 L 73.71875 35.59375 L 73.71875 34.28125 L 74.75 33.90625 z M 51.84375 34.25 L 52.25 34.53125 L 53.96875 35.75 L 49.59375 38.4375 L 47.6875 37.03125 L 47.6875 36.59375 L 51.84375 34.25 z M 91.59375 34.25 C 91.593751 34.250001 87.887723 34.855471 83.75 35.71875 C 79.612276 36.582028 74.963015 36.876999 72.40625 38.28125 C 68.727744 40.366998 68.267472 44.326119 60.8125 44.84375 C 60.285293 44.755436 59.786392 44.759974 59.21875 44.84375 C 57.796291 45.053684 57.18926 45.439953 56.09375 46.21875 L 56.09375 46.6875 L 55.4375 46.21875 L 53.90625 46.28125 L 48.625 42.84375 L 48.90625 42.3125 L 43.3125 39.3125 L 10.15625 52.8125 L 10.28125 55.09375 L 16.25 58.40625 L 16.78125 59 L 19.46875 62.90625 C 13.879551 66.4612 11.458842 69.063692 9.9375 70.96875 C 8.4105161 72.880873 7.0922663 73.740477 5.03125 74.625 L 5.34375 74.625 C 7.6310251 73.643373 8.799129 73.262195 10.28125 71.40625 C 11.73849 69.581465 14.257618 66.579667 19.625 63.125 L 19.75 63.3125 L 21 63.4375 L 25.78125 66.4375 L 26.15625 67.3125 L 27.5 68.28125 L 27.40625 82.6875 C 28.50176 83.466299 29.67129 84.290065 31.09375 84.5 C 32.51621 84.709935 33.70944 84.30443 35.5625 82.71875 L 35.3125 74.8125 L 37.90625 76.46875 L 38.8125 76.5 C 40.690348 78.171629 42.33439 80.116137 44.3125 81.6875 L 45.15625 81.625 L 47.375 83.09375 L 47.1875 97.59375 C 47.907509 98.832728 49.733472 99.319986 51.09375 99.8125 C 52.516209 100.02243 53.55319 99.429427 55.40625 97.84375 L 55.28125 89.78125 L 57.75 91.84375 L 58.6875 91.59375 L 65.625 98.09375 L 66.53125 98.125 L 73.40625 103.15625 L 73.65625 104.09375 L 75.59375 105.625 L 75.40625 122 C 76.553389 122.99399 77.868263 123.51938 79.28125 123.96875 C 80.703709 124.17868 82.08444 123.61693 83.9375 122.03125 L 83.46875 108.8125 L 106.9375 98.84375 L 106.96875 108.65625 C 109.5908 111.56676 112.78122 111.30783 115.75 109.0625 L 115.375 95.28125 L 120.0625 93.28125 L 119.96875 90.53125 L 115.625 87.34375 L 115.78125 81.5 C 110.9482 78.355586 109.28756 80.402373 106.875 81.21875 L 104.59375 79.15625 L 103.21875 79.25 L 95.59375 74.09375 L 95.8125 73.625 L 88.53125 69.34375 L 88.46875 68.28125 L 84.65625 66.1875 L 84.65625 59.75 C 83.164749 58.28509 82.251473 58.267013 80.28125 58.15625 C 78.858791 58.366184 78.00176 58.877453 76.90625 59.65625 L 76.90625 59.6875 L 75.46875 58.5 L 74.1875 58.65625 L 67.34375 53.6875 L 65.4375 54.46875 L 63.59375 53.1875 L 63.5625 46.3125 C 62.867601 45.71787 62.284232 45.331305 61.75 45.09375 C 67.684339 45.12033 67.189865 41.936259 72.65625 38.8125 C 74.953324 37.550881 79.924879 36.700488 84.03125 35.84375 C 88.137621 34.987012 91.65625 34.4375 91.65625 34.4375 L 91.59375 34.25 z M 53.78125 34.3125 L 54.96875 35.09375 L 54.96875 37.09375 L 54.375 36.65625 L 54.375 35.75 L 53.75 35.28125 L 53.78125 34.3125 z M 58.96875 34.34375 L 58.96875 34.625 L 56.71875 35.5625 L 56.5 35.375 L 56.625 35.84375 L 56.59375 38.90625 L 56.53125 38.9375 L 56.46875 35.375 L 56.5 35.375 L 56.5 35.34375 L 58.96875 34.34375 z M 58.96875 34.6875 L 58.8125 37.53125 L 56.75 38.78125 L 56.78125 35.71875 L 58.96875 34.6875 z M 53.96875 35.875 L 54.0625 39.03125 L 54.03125 39.03125 L 52.0625 40.21875 L 51.59375 39.90625 L 49.71875 38.5 L 53.96875 35.875 z M 54.375 36.8125 L 54.96875 37.28125 L 55 39.6875 L 54.40625 39.09375 L 54.375 36.8125 z M 56.28125 37.09375 L 56.25 39.09375 L 55.9375 39.28125 L 55.9375 39.4375 L 55.53125 39.59375 L 55.59375 37.375 L 56.28125 37.09375 z M 48.28125 37.8125 L 49.46875 38.65625 L 49.40625 39.40625 L 48.25 38.59375 L 48.28125 37.8125 z M 49.59375 38.75 L 51.40625 40.0625 L 51.46875 40.84375 L 49.53125 39.5 L 49.59375 38.75 z M 54.0625 39.125 L 54.15625 41.75 L 52.1875 40.3125 L 54.0625 39.125 z M 54.40625 39.34375 L 55 39.90625 L 55 41.3125 L 54.4375 41.0625 L 55 41.46875 L 55 43.28125 L 53.375 42.15625 L 53.375 41.46875 L 54.4375 42.25 L 54.4375 41.0625 L 54.40625 39.34375 z M 55.90625 39.5625 L 55.875 39.96875 L 55.71875 40.03125 L 56.25 40.9375 L 55.5 41.25 L 55.53125 39.6875 L 55.90625 39.5625 z M 43.1875 39.90625 L 48.0625 42.40625 L 16.625 55.59375 L 11.125 53 L 43.1875 39.90625 z M 51.59375 40.21875 L 53 41.21875 L 53.15625 42 L 51.625 40.9375 L 51.59375 40.21875 z M 59.03125 41.125 L 59 41.53125 L 57.09375 42.375 L 59.03125 41.125 z M 47.90625 43.09375 L 53.1875 46.40625 L 32.21875 55.40625 C 31.857605 55.386614 31.484769 55.411041 31.09375 55.46875 C 29.671291 55.678684 28.501759 55.814953 27.40625 56.59375 L 27.40625 57.5 L 20.53125 60.4375 L 17.15625 55.90625 L 47.90625 43.09375 z M 59.78125 44.96875 C 60.75528 44.946863 61.87529 45.350748 63.28125 46.5 L 63.21875 53.53125 C 63.202158 53.554703 63.173612 53.570686 63.15625 53.59375 L 63.15625 53.625 C 61.909991 55.254179 58.75118 55.882613 56.46875 54.09375 L 56.34375 46.5 C 57.350871 45.791254 58.336561 45.153258 59.375 45 C 59.50873 44.980263 59.642103 44.971877 59.78125 44.96875 z M 54.78125 46.71875 L 56.125 47.5625 L 56.1875 51.53125 L 35.40625 60.28125 L 35.4375 57 C 34.632843 56.311449 33.976949 55.892641 33.375 55.65625 L 54.78125 46.71875 z M 62.5625 46.9375 C 60.69384 48.412668 59.330678 48.337955 57.375 47.0625 L 57.125 47.3125 C 59.310057 49.480869 60.941491 49.485475 62.75 47.1875 L 62.5625 46.9375 z M 56.1875 52.21875 L 56.21875 54.25 C 58.950955 56.590314 61.896096 56.091837 63.5625 53.875 L 65.0625 54.90625 L 32 69.34375 L 26.46875 64.75 L 27.34375 64.375 L 27.34375 65.34375 C 30.252172 67.57507 32.726544 67.33764 35.34375 64.90625 L 35.375 60.96875 L 56.1875 52.21875 z M 10.65625 53.1875 L 16.53125 56.03125 L 16.34375 57.9375 L 10.875 54.78125 L 10.65625 53.1875 z M 67.25 54.5 L 73.6875 58.9375 L 37.9375 74.625 L 31.90625 70.21875 L 67.25 54.5 z M 31.65625 55.71875 C 32.63028 55.696863 33.75029 56.100748 35.15625 57.25 L 35.09375 64.28125 C 33.948867 66.295527 30.088378 67.56874 27.65625 65.09375 L 27.78125 56.9375 C 28.78837 56.228754 30.211561 55.903258 31.25 55.75 C 31.38373 55.730263 31.517103 55.721877 31.65625 55.71875 z M 16.9375 56.5625 L 19.84375 60.9375 L 19.78125 62.71875 L 16.84375 58.34375 L 16.9375 56.5625 z M 28.6875 57.9375 L 28.4375 58.1875 C 30.650318 60.093341 32.555605 60.37939 34.5625 58.375 L 34.25 58.125 C 32.334023 59.22019 30.56622 59.185107 28.6875 57.9375 z M 27.40625 58.15625 L 27.34375 63.65625 L 26.65625 63.96875 L 20.65625 60.96875 L 27.40625 58.15625 z M 80.78125 58.46875 C 81.75528 58.446863 82.875289 58.850748 84.28125 60 L 84.21875 67.03125 C 83.444424 68.937043 80.666596 69.851857 77.46875 67.59375 L 77.34375 60 C 78.350871 59.291254 79.336561 58.653258 80.375 58.5 C 80.50873 58.480263 80.642103 58.471877 80.78125 58.46875 z M 75.0625 58.875 L 76.9375 60.34375 L 77.09375 64.90625 L 55.59375 74 L 55.59375 71.3125 C 54.220683 69.963912 53.324991 69.252385 51.65625 69.0625 L 75.0625 58.875 z M 83.5 60.875 C 81.590885 61.894375 80.130947 62.040841 78.1875 61.125 L 78.0625 61.375 C 80.134869 63.198442 81.89897 62.911298 83.6875 61.125 L 83.5 60.875 z M 20.25 61.40625 L 26.25 64.21875 L 26.15625 66.125 L 21.0625 62.96875 L 20.15625 62.84375 L 20.25 61.40625 z M 26.5625 65.59375 L 31.90625 69.59375 L 31.6875 69.96875 L 31.40625 70.5625 L 26.46875 67.0625 L 26.5625 65.59375 z M 77.125 65.6875 L 77.21875 67.875 C 79.965857 70.228078 82.994872 69.779044 84.65625 67.53125 L 84.65625 66.78125 L 88.34375 68.59375 L 52.875 83.3125 L 46.0625 78.875 L 47.625 78.21875 L 47.65625 79.75 C 50.403357 82.103078 53.932372 81.466544 55.59375 79.21875 L 55.59375 74.8125 L 77.125 65.6875 z M 27.875 68.5625 L 31.28125 71.03125 L 31.1875 72.125 L 35 74.59375 L 35.15625 82.40625 C 33.548825 83.720546 32.320114 84.501684 31.25 84.34375 C 30.210483 84.190332 28.914496 83.303425 27.90625 82.59375 L 27.875 68.5625 z M 87.90625 69.375 L 95.1875 73.96875 L 58.15625 88.625 L 52.84375 84.15625 L 87.90625 69.375 z M 51.1875 69.4375 C 52.25734 69.279607 53.674438 70.186569 55.28125 71.5 L 55.21875 78.53125 C 54.099801 80.701131 50.566578 81.937938 48.15625 79.59375 L 48.09375 71.25 C 49.100871 70.541254 50.149061 69.590758 51.1875 69.4375 z M 48.53125 70.4375 C 48.174747 70.709985 47.798968 70.983998 47.46875 71.21875 L 47.59375 77.40625 L 44.9375 78.53125 L 39.3125 74.4375 L 48.53125 70.4375 z M 31.78125 70.875 L 37.90625 75.125 L 37.90625 76.0625 L 35.3125 74.375 L 35.28125 74.375 L 31.625 72 L 31.78125 70.875 z M 48.8125 71.8125 L 48.6875 71.9375 C 50.457586 74.59222 52.410758 74.785132 54.5625 72 L 54.0625 71.875 C 52.539876 73.582279 50.628994 72.997182 48.8125 71.8125 z M 95.15625 74.53125 L 102.65625 79.8125 L 65.90625 94.71875 L 59.4375 88.875 L 95.15625 74.53125 z M 39.21875 75.09375 L 44.71875 79.3125 L 44.5625 81.28125 L 39.15625 76.09375 L 38.375 76.0625 L 38.53125 75.15625 L 39.21875 75.09375 z M 45.625 79.21875 L 52.3125 83.6875 L 51.8125 85.5625 L 45.4375 81.21875 C 45.358779 81.106133 45.020692 81.112617 45.03125 81 L 45.1875 79.53125 L 45.625 79.21875 z M 26.28125 79.5 C 24.832489 80.610328 24.290963 81.991897 24.96875 83.875 C 25.788264 85.371847 27.640541 86.463857 29.59375 86.84375 C 31.607101 87.23534 33.59333 86.616278 35.21875 85.6875 C 37.517808 84.3738 39.055994 82.19495 36.4375 80 L 36.28125 80 C 38.248933 82.063293 37.002113 84.516871 35.125 85.53125 C 33.81333 86.240064 31.542747 87.061355 29.78125 86.71875 C 28.077292 86.387337 25.852816 84.851047 25.25 83.75 C 24.560402 82.115135 25.299984 80.43587 26.28125 79.5 z M 104.25 79.75 L 106.84375 82.15625 L 106.90625 86.625 L 83.90625 95.6875 L 84.03125 92.625 C 82.539749 91.16009 80.938973 90.767013 78.96875 90.65625 C 77.63728 91.224339 76.181052 91.418157 75.0625 92.625 L 75.1875 99.125 L 73 100 L 66.90625 94.875 L 104.25 79.75 z M 111.21875 80.28125 C 112.60798 80.339343 113.9913 80.849287 115.21875 81.75 L 115.15625 89.03125 C 114.15463 90.970898 110.25963 92.022661 107.25 89.34375 L 107.21875 81.5625 C 108.43256 80.606197 109.82952 80.223157 111.21875 80.28125 z M 113.5625 82.125 C 112.03988 83.83228 110.37899 84.184683 108.5625 83 L 108.5625 83.125 C 110.78793 86.019853 112.13233 84.857327 113.84375 82.53125 L 113.5625 82.125 z M 47.625 83.25 L 51.9375 86.125 L 52.03125 87.0625 L 55.09375 89.625 L 55.15625 97.34375 C 53.54944 98.657178 52.19484 99.595392 51.125 99.4375 C 50.073928 99.282378 48.707841 98.407085 47.6875 97.6875 L 47.625 83.25 z M 52.625 84.84375 L 57.84375 89.03125 L 57.8125 91.15625 L 52.5625 86.71875 L 52.625 84.84375 z M 106.9375 87.21875 L 106.96875 89.625 C 109.69922 92.158592 112.66277 91.60042 115.5625 89.5 L 115.59375 87.96875 L 119.09375 90.625 L 81.3125 105.875 L 73.4375 100.5 L 75.1875 99.8125 L 75.21875 101 C 77.940597 103.52465 80.864051 102.99121 83.71875 100.875 L 83.875 96.4375 L 106.9375 87.21875 z M 58.46875 89.28125 L 59 89.28125 L 65.625 95.1875 L 65.71875 97.5625 L 58.84375 91.09375 L 58.40625 91.03125 L 58.46875 89.28125 z M 79.21875 91.09375 C 80.288591 90.935854 81.768188 91.811569 83.375 93.125 L 83.21875 100.5 C 82.020454 102.19381 77.916834 102.88323 75.59375 101.0625 L 75.5625 92.9375 C 76.569618 92.228758 78.180311 91.247008 79.21875 91.09375 z M 119.65625 91.09375 L 119.59375 92.8125 L 81.28125 109.28125 L 81.53125 106.375 L 119.65625 91.09375 z M 81.8125 93.5 C 80.207355 95.338416 78.407587 94.963528 76.46875 93.65625 L 76.375 93.71875 C 78.044359 96.318597 79.892943 96.535646 82 93.8125 L 81.8125 93.5 z M 46.0625 93.53125 C 44.412515 94.713342 43.885488 96.320436 44 98.28125 C 45.122336 101.50942 48.63156 101.81722 51.625 101.90625 L 51.625 101.6875 C 48.876567 101.71958 45.5356 100.78462 44.1875 98.3125 C 43.99721 96.741088 44.931405 94.796612 46.03125 93.78125 L 46.0625 93.53125 z M 66.5 95.34375 L 72.875 100.40625 L 73.15625 102.65625 L 66.40625 97.65625 L 66.5 95.34375 z M 114.8125 95.5 L 115.09375 108.40625 C 112.59524 111.08265 109.81257 111.07891 107.53125 108.40625 L 107.40625 98.65625 L 114.8125 95.5 z M 58.9375 97.4375 L 58.84375 97.59375 C 60.082427 99.850421 59.647768 102.4538 58.78125 103.59375 C 57.914731 104.7337 55.729464 105.53854 53.96875 105.71875 C 50.977245 105.87574 46.718373 104.94789 44.59375 102.75 L 44.5 102.6875 C 46.442535 105.6369 50.807539 106.0954 54.0625 105.9375 C 56.024021 105.73673 57.927053 104.95262 59.03125 103.5 C 60.135447 102.04738 60.301515 99.922521 58.9375 97.4375 z M 73.5 101.25 L 80.90625 106.125 L 80.75 109.40625 L 73.9375 103.875 L 73.5 101.25 z M 115.875 102.0625 L 116.03125 102.15625 C 117.33433 102.75278 117.63487 103.8548 117.53125 105.21875 L 117.84375 105.4375 C 117.82644 103.31309 117.66874 102.65473 115.875 102.0625 z M 104.90625 104.8125 C 103.71199 107.68359 104.06382 109.94957 105.3125 111.4375 C 106.56118 112.92543 108.57479 113.63228 110.625 113.71875 C 112.67521 113.80522 114.78957 113.29476 116.25 112.1875 C 117.71043 111.08024 118.4511 109.26839 117.65625 107.15625 L 117.625 107.15625 C 118.28907 108.92085 117.26642 111.24347 116.0625 112.15625 C 114.85858 113.06903 112.72424 113.578 110.875 113.5 C 109.02576 113.422 106.62271 112.43888 105.625 111.25 C 104.62729 110.06112 103.99317 107.52087 105.09375 104.875 L 104.90625 104.8125 z M 75.96875 105.90625 L 80.96875 109.875 L 83.09375 108.96875 L 83.34375 121.5 C 81.73694 122.81343 80.31984 123.75164 79.25 123.59375 C 78.211116 123.44043 76.882589 122.39663 75.875 121.6875 L 75.96875 105.90625 z M 73.75 116.40625 C 72.150852 117.75231 70.955478 119.68252 71.40625 121.6875 C 71.857022 123.69248 73.924669 125.49377 78.28125 126.625 L 78.4375 126.625 C 74.255017 125.53897 71.991196 123.3023 71.65625 121.8125 C 71.321305 120.3227 72.360523 117.82088 73.78125 116.625 L 73.75 116.40625 z M 84.46875 117.1875 L 84.4375 117.4375 C 86.290919 117.64634 87.255134 118.73228 87.5625 119.9375 C 87.869866 121.14272 87.49009 122.45086 86.4375 123.15625 L 86.46875 123.21875 C 87.900444 122.2593 88.308853 121.45366 87.90625 119.875 C 87.50365 118.29634 86.679159 117.43656 84.46875 117.1875 z "
       id="path2308" />
  </g>
</svg>
