<?xml version="1.0" encoding="UTF-8" standalone="no"?>
<!-- Created with Inkscape (http://www.inkscape.org/) -->
<svg
   xmlns:dc="http://purl.org/dc/elements/1.1/"
   xmlns:cc="http://creativecommons.org/ns#"
   xmlns:rdf="http://www.w3.org/1999/02/22-rdf-syntax-ns#"
   xmlns:svg="http://www.w3.org/2000/svg"
   xmlns="http://www.w3.org/2000/svg"
   xmlns:xlink="http://www.w3.org/1999/xlink"
   xmlns:sodipodi="http://sodipodi.sourceforge.net/DTD/sodipodi-0.dtd"
   xmlns:inkscape="http://www.inkscape.org/namespaces/inkscape"
   width="128"
   height="128"
   id="svg2"
   sodipodi:version="0.32"
   inkscape:version="0.45+devel"
   version="1.0"
   sodipodi:docname="fortress_outline.svg"
   inkscape:output_extension="org.inkscape.output.svg.inkscape">
  <defs
     id="defs4">
    <filter
       height="1.42432"
       y="-0.21216"
       width="1.2179726"
       x="-0.1089863"
       id="filter2892"
       inkscape:collect="always">
      <feGaussianBlur
         id="feGaussianBlur2894"
         stdDeviation="0.72146876"
         inkscape:collect="always" />
    </filter>
    <radialGradient
       r="8.2519293"
       fy="222.04396"
       fx="14.207293"
       cy="222.04396"
       cx="14.207293"
       gradientTransform="scale(1.39523,0.716728)"
       gradientUnits="userSpaceOnUse"
       id="radialGradient1968"
       xlink:href="#linearGradient2057"
       inkscape:collect="always" />
    <linearGradient
       inkscape:collect="always"
       id="linearGradient2057">
      <stop
         style="stop-color:#000000;stop-opacity:1;"
         offset="0"
         id="stop2059" />
      <stop
         style="stop-color:#000000;stop-opacity:0;"
         offset="1"
         id="stop2061" />
    </linearGradient>
  </defs>
  <sodipodi:namedview
     id="base"
     pagecolor="#ffffff"
     bordercolor="#666666"
     borderopacity="1.0"
     gridtolerance="10000"
     guidetolerance="10"
     objecttolerance="10"
     inkscape:pageopacity="0.0"
     inkscape:pageshadow="2"
     inkscape:zoom="1"
     inkscape:cx="64"
     inkscape:cy="64"
     inkscape:document-units="px"
     inkscape:current-layer="layer1"
     showgrid="false"
     width="744.09px"
     inkscape:window-width="1248"
     inkscape:window-height="975"
     inkscape:window-x="426"
     inkscape:window-y="24"
     showguides="true"
     inkscape:guide-bbox="true" />
  <metadata
     id="metadata7">
    <rdf:RDF>
      <cc:Work
         rdf:about="">
        <dc:format>image/svg+xml</dc:format>
        <dc:type
           rdf:resource="http://purl.org/dc/dcmitype/StillImage" />
      </cc:Work>
    </rdf:RDF>
  </metadata>
  <g
     inkscape:label="Layer 1"
     inkscape:groupmode="layer"
     id="layer1">
    <path
       style="fill:#5c2700;fill-opacity:1;fill-rule:evenodd;stroke:none;stroke-width:1px;stroke-linecap:butt;stroke-linejoin:miter;stroke-opacity:1"
       d="M 65.875 11.5 L 62.9375 12.78125 L 63.1875 14.4375 L 62.03125 15 L 61.9375 14.03125 L 60.5 13.53125 L 57.46875 14.8125 L 57.6875 16.5 L 56.53125 16.96875 L 56.53125 16.59375 L 55.125 15.46875 L 51.125 16.9375 L 51.15625 28.1875 L 50.25 28.59375 L 50.3125 31.03125 L 50 31.125 L 47.1875 29.875 L 42.09375 31.625 L 42.34375 34.15625 L 39.125 33.40625 L 34.15625 34.90625 L 34.25 37.34375 L 34.1875 37.375 L 30.84375 36.0625 L 26.0625 38.125 L 26.15625 40.53125 L 26.03125 40.5625 L 22.46875 39.90625 L 22.1875 40.125 L 19.0625 41.59375 L 19.0625 41.5 L 16.90625 39.96875 L 13.96875 41.25 L 14.21875 42.90625 L 13.0625 43.46875 L 12.96875 42.5 L 11.53125 42 L 8.5 43.28125 L 8.71875 44.96875 L 7.5625 45.4375 L 7.5625 45.0625 L 6.15625 43.9375 L 2.15625 45.40625 L 2.28125 80.84375 L 14.75 90.125 L 17.46875 88.90625 L 17.53125 88.78125 L 46.28125 109.21875 L 46.3125 114.0625 L 58.78125 123.34375 L 74.03125 116.4375 L 73.96875 113.0625 L 83.90625 109.09375 L 85.375 109.59375 L 85.875 109.5 L 100.1875 103.71875 L 100.1875 102.65625 L 108.28125 99.4375 L 110.03125 100.71875 L 125.28125 93.8125 L 124.71875 57.4375 L 121.3125 56.15625 L 119.59375 57 L 118.75 56.59375 L 118.875 54.6875 L 116 52.875 L 114.625 53.6875 L 114.65625 54.21875 L 114.375 53.96875 L 114.34375 52.09375 L 112.1875 50.5625 L 109.25 51.84375 L 109.5 53.5 L 108.34375 54.0625 L 108.25 53.09375 L 106.8125 52.59375 L 106.4375 52.75 L 102.6875 50.25 L 102.59375 50.15625 L 100.9375 51.375 L 100.8125 46.625 L 96.90625 44.125 L 94.78125 45.5625 L 94.625 42.5 L 90.34375 39.15625 L 88.34375 40.15625 L 88.21875 37.78125 L 83.53125 34.90625 L 81.90625 35.59375 L 81.4375 35.34375 L 81.28125 31.875 L 78.59375 30.21875 L 78.40625 18.375 L 75 17.09375 L 73.28125 17.9375 L 72.4375 17.53125 L 72.5625 15.625 L 69.6875 13.8125 L 68.3125 14.625 L 68.34375 15.15625 L 68.0625 14.90625 L 68.03125 13.03125 L 65.875 11.5 z M 65.875 11.6875 L 67.8125 13.125 L 66.6875 13.8125 L 65.625 12.8125 L 64.375 13.5 L 63.21875 12.90625 L 65.875 11.6875 z M 65.5625 13.03125 L 65.6875 22.34375 L 64.21875 22.875 L 63.03125 22.09375 L 61.21875 23.0625 L 61.28125 23.5 L 60.71875 23.25 L 60.6875 21.0625 L 57.875 19.71875 L 56.0625 20.34375 L 55.9375 18.625 L 54.125 17.5 L 56.21875 16.71875 L 56.28125 19.03125 L 59.71875 17.5 L 59.40625 15.59375 L 61.71875 14.4375 L 61.9375 16.5625 L 64.65625 15.4375 L 64.375 13.6875 L 65.5625 13.03125 z M 63.21875 13.0625 L 64.21875 13.625 L 64.4375 15.1875 L 63.4375 14.4375 L 63.21875 13.0625 z M 65.78125 13.09375 L 66.4375 13.90625 L 66.5 15.75 L 68.6875 17.25 L 68.625 15.125 L 70.65625 16.4375 L 70.59375 18.34375 L 72.5 19.5 L 72.15625 19.625 L 72.21875 21.28125 L 69.65625 20.59375 L 67.0625 21.625 L 67 23.0625 L 65.90625 22.28125 L 65.78125 13.09375 z M 67.875 13.25 L 67.9375 14.8125 L 66.75 15.5 L 66.65625 14 L 67.875 13.25 z M 60.5 13.6875 L 61.78125 14.125 L 59.0625 15.46875 L 57.875 14.875 L 60.5 13.6875 z M 69.75 14 L 72.25 15.625 L 70.8125 16.25 L 68.4375 14.75 L 69.75 14 z M 63.28125 14.625 L 64.34375 15.3125 L 62.125 16.25 L 62.03125 15.1875 L 63.28125 14.625 z M 67.9375 15.0625 L 68.40625 15.40625 L 68.46875 16.875 L 66.875 15.6875 L 67.9375 15.0625 z M 57.78125 15.09375 L 59.15625 15.78125 L 59.4375 17.125 L 57.9375 16.46875 L 57.78125 15.09375 z M 55.125 15.6875 L 56.1875 16.53125 L 53.6875 17.4375 L 55.375 18.5625 L 53.71875 18.9375 L 51.34375 17.15625 L 55.125 15.6875 z M 72.375 15.75 L 72.25 17.53125 L 70.8125 18.25 L 70.875 16.4375 L 72.375 15.75 z M 57.90625 16.65625 L 59.4375 17.3125 L 56.59375 18.5625 L 56.5625 17.28125 L 57.90625 16.65625 z M 75.0625 17.25 L 78.25 18.5625 L 75.125 20.15625 L 72.65625 19.6875 L 74.59375 18.9375 L 73.09375 18.34375 L 75.0625 17.25 z M 51.4375 17.5625 L 53.40625 19.15625 L 53.3125 21.1875 L 55.9375 22.8125 L 56.09375 20.8125 L 58.4375 22.1875 L 58.1875 24.1875 L 61.4375 25.6875 L 61.5 23.375 L 63.78125 24.625 L 63.5625 44.25 L 61.4375 42.90625 L 57.65625 43.8125 L 57.65625 27.78125 L 57.6875 27.71875 L 57.65625 27.71875 L 54 26.9375 L 51.40625 28.09375 L 51.4375 17.5625 z M 72.375 17.71875 L 73.03125 18.09375 L 72.4375 18.375 L 72.46875 19.25 L 71.03125 18.375 L 72.375 17.71875 z M 72.71875 18.46875 L 74.125 18.9375 L 72.75 19.40625 L 72.71875 18.46875 z M 55.75 18.8125 L 55.8125 20.25 L 53.59375 21 L 53.75 19.21875 L 55.75 18.8125 z M 77.9375 19.125 L 78.15625 29.9375 L 77.53125 29.5625 L 72.34375 30.6875 L 72.34375 49.8125 L 64.03125 44.5625 L 64.09375 24.46875 L 66.71875 23.65625 L 66.78125 25.59375 L 70.21875 24.09375 L 70 22.625 L 72.25 21.71875 L 72.375 23.78125 L 75.21875 22.40625 L 75.25 20.5 L 77.9375 19.125 z M 72.375 19.78125 L 75 20.375 L 75 22 L 72.4375 21.3125 C 72.412811 20.857067 72.34642 20.262655 72.375 19.78125 z M 57.875 19.96875 L 60.5 21.15625 L 58.65625 21.96875 L 56.125 20.5 L 57.875 19.96875 z M 55.8125 20.4375 L 55.75 22.4375 L 53.625 21.1875 L 55.8125 20.4375 z M 69.6875 20.78125 C 69.727861 20.793025 71.40556 21.22682 72.125 21.4375 L 69.8125 22.4375 L 67.625 21.59375 L 69.6875 20.78125 z M 60.4375 21.4375 L 60.5 23.25 L 58.4375 23.96875 L 58.625 22.21875 L 58.65625 22.3125 L 60.4375 21.4375 z M 72.5 21.5 L 75 22.21875 L 72.59375 23.40625 L 72.5 21.5 z M 67.25 21.75 L 69.75 22.625 L 69.8125 23.9375 C 69.275251 23.780559 67.47569 23.166427 67.25 23.09375 L 67.25 21.75 z M 63.03125 22.3125 L 64.25 23.09375 L 65.84375 22.4375 L 66.8125 23.25 L 63.84375 24.40625 L 61.46875 23.125 L 63.03125 22.3125 z M 67.0625 23.25 C 67.804391 23.41643 68.97579 23.898184 69.75 24.125 L 67.09375 25.15625 L 67.0625 23.25 z M 60.59375 23.5 L 61.25 23.875 L 61.1875 25.28125 L 58.71875 24.15625 L 60.59375 23.5 z M 54.03125 27.21875 L 57.21875 27.90625 L 53.21875 29.5625 C 53.077739 29.506803 51.6239 28.915233 50.71875 28.59375 L 54.03125 27.21875 z M 57.40625 28.15625 L 57.34375 43.875 L 49.9375 45.65625 L 30.28125 56.28125 L 30.5625 67.5 L 29.78125 67.03125 L 29.4375 46.84375 L 26.03125 45.5625 L 24.3125 46.40625 L 23.46875 46 L 23.59375 44.09375 L 21.6875 42.875 L 25.90625 41.0625 L 26 44.40625 L 29.75 42.84375 L 29.5625 39.71875 L 34.0625 37.78125 L 34.3125 41.125 L 38.96875 39.03125 L 38.65625 36 L 42.34375 34.40625 L 42.53125 37.96875 L 46.59375 36.03125 L 46.21875 32.6875 L 50.09375 31.4375 L 50.28125 31.53125 L 50.40625 34.40625 L 53.71875 33.15625 L 53.4375 29.78125 L 57.40625 28.15625 z M 50.46875 28.75 C 51.244739 29.014468 52.76836 29.654569 53.0625 29.78125 L 53.34375 32.65625 L 50.65625 31.25 L 50.46875 28.75 z M 77.4375 29.875 L 80.9375 31.96875 L 76.4375 33.59375 L 72.65625 30.8125 L 77.4375 29.875 z M 47.15625 30.125 L 49.8125 31.21875 L 46 32.46875 L 42.625 31.625 L 47.15625 30.125 z M 72.71875 31.28125 L 76.28125 33.875 L 76.125 37.5625 L 80.15625 40.78125 L 80 37 L 83.5625 39.5 L 83.625 43.1875 L 86.625 45.59375 L 86.4375 41.90625 L 90.5 44.9375 L 90.5 48.28125 L 93.46875 50.46875 L 93.5625 47.40625 L 96.90625 49.96875 L 96.71875 53.46875 L 99.78125 55.125 L 97.4375 56 L 97.65625 69.90625 L 96.625 69.34375 L 94.25 70.25 L 94.09375 63.625 L 72.6875 50.03125 L 72.71875 31.28125 z M 50.625 31.5 L 53.3125 32.90625 L 50.71875 34.03125 L 50.625 31.5 z M 42.40625 32 L 45.875 32.8125 L 46.1875 35.65625 L 42.6875 34.15625 L 42.40625 32 z M 80.875 32.28125 L 81.125 35.21875 L 76.4375 37.03125 L 76.53125 33.9375 L 80.875 32.28125 z M 39.09375 33.59375 L 41.9375 34.34375 L 38.5 35.875 L 34.71875 34.90625 L 39.09375 33.59375 z M 42.71875 34.375 L 46.21875 35.8125 L 42.9375 37.5 L 42.71875 34.375 z M 83.5 35.1875 L 87.59375 37.71875 L 83.71875 39.28125 L 80.15625 36.71875 L 83.5 35.1875 z M 34.53125 35.21875 L 38.4375 36.1875 L 38.6875 38.78125 L 38.5625 38.84375 L 34.46875 37.84375 L 34.53125 35.21875 z M 81.28125 35.5625 L 81.5625 35.75 L 79.84375 36.46875 L 79.78125 40 L 76.5625 37.46875 L 81.28125 35.5625 z M 30.84375 36.34375 L 33.71875 37.5625 L 29.34375 39.4375 L 29.3125 39.4375 L 26.59375 38.15625 L 30.84375 36.34375 z M 34.25 37.40625 L 34.3125 37.4375 L 34.25 37.46875 L 34.25 37.40625 z M 87.96875 37.875 L 88.09375 40.40625 L 86.25 41.34375 L 86.25 41.71875 L 83.9375 42.90625 L 83.9375 39.5 L 87.96875 37.875 z M 34.3125 38.03125 L 38.375 39.03125 L 34.53125 40.6875 L 34.3125 38.03125 z M 26.4375 38.375 L 29.15625 39.75 L 29.1875 39.71875 L 29.375 42.40625 L 26.53125 40.71875 L 26.4375 38.375 z M 90.40625 39.5 L 94.125 42.5 L 90.65625 44.6875 L 90.625 44.75 L 86.5 41.53125 L 90.40625 39.5 z M 16.90625 40.15625 L 18.84375 41.59375 L 17.71875 42.28125 L 16.65625 41.28125 L 15.40625 41.96875 L 14.25 41.375 L 16.90625 40.15625 z M 22.5625 40.1875 L 25.53125 40.8125 L 21.4375 42.71875 L 20.71875 42.28125 L 19.34375 43.09375 L 19.375 43.625 L 19.09375 43.375 L 19.0625 41.90625 L 22.5625 40.1875 z M 26.3125 40.96875 L 29.3125 42.65625 L 26.40625 43.9375 L 26.3125 40.96875 z M 16.59375 41.5 L 16.75 50.78125 L 15.25 51.34375 L 14.0625 50.5625 L 12.25 51.53125 L 12.3125 51.96875 L 11.75 51.71875 L 11.71875 49.53125 L 8.90625 48.1875 L 7.09375 48.8125 L 6.96875 47.09375 L 5.15625 45.96875 L 7.25 45.1875 L 7.3125 47.5 L 10.75 45.96875 L 10.4375 44.0625 L 12.75 42.90625 L 12.96875 45.03125 L 15.6875 43.90625 L 15.40625 42.15625 L 16.59375 41.5 z M 14.25 41.53125 L 15.25 42.09375 L 15.46875 43.65625 L 14.46875 42.90625 L 14.25 41.53125 z M 16.875 41.5625 L 17.46875 42.375 L 17.53125 44.21875 L 19.71875 45.71875 L 19.65625 43.59375 L 21.6875 44.90625 L 21.625 46.8125 L 23.53125 47.96875 L 23.1875 48.09375 L 23.25 49.75 L 20.6875 49.0625 L 18.09375 50.09375 L 18.03125 51.53125 L 17.25 50.75 L 16.9375 50.78125 L 16.875 41.5625 z M 18.90625 41.71875 L 18.96875 43.28125 L 17.78125 43.96875 L 17.6875 42.46875 L 18.90625 41.71875 z M 11.53125 42.15625 L 12.8125 42.59375 L 10.09375 43.9375 L 8.90625 43.34375 L 11.53125 42.15625 z M 86.25 42.15625 L 86.3125 44.90625 L 84.0625 43.125 L 86.25 42.15625 z M 20.78125 42.46875 L 23.28125 44.09375 L 21.84375 44.71875 L 19.46875 43.21875 L 20.78125 42.46875 z M 94.3125 42.71875 L 94.5 45.71875 L 93.1875 46.71875 L 93.34375 47.15625 L 90.75 48.15625 L 90.625 45 L 94.3125 42.71875 z M 14.3125 43.09375 L 15.375 43.78125 L 13.15625 44.71875 L 13.0625 43.65625 L 14.3125 43.09375 z M 61.375 43.21875 L 92.625 63.09375 L 71.4375 62.46875 L 50.21875 45.78125 L 61.375 43.21875 z M 18.96875 43.53125 L 19.4375 43.875 L 19.5 45.34375 L 17.90625 44.15625 L 18.96875 43.53125 z M 8.8125 43.5625 L 10.1875 44.25 L 10.46875 45.59375 L 8.96875 44.9375 L 8.8125 43.5625 z M 6.15625 44.15625 L 7.21875 45 L 4.71875 45.90625 L 6.40625 47.03125 L 4.75 47.40625 L 2.375 45.625 L 6.15625 44.15625 z M 61.5625 44.1875 L 55.78125 45.78125 C 55.671158 45.694476 55.426821 45.664405 55.3125 45.625 C 55.401924 45.691036 55.576791 45.807647 55.625 45.84375 L 53.15625 46.59375 L 53.25 46.75 L 55.78125 46 C 57.24968 47.114069 58.647497 48.319095 60.0625 49.5 L 58.5 50.21875 L 58.65625 50.28125 L 60.3125 49.71875 C 61.352834 50.589533 62.33237 51.406363 63.4375 52.34375 C 67.149431 55.492263 70.6875 58.5625 70.6875 58.5625 L 70.90625 58.3125 C 70.90625 58.3125 67.24394 55.461657 63.53125 52.3125 C 62.483152 51.423489 61.649711 50.465657 60.65625 49.625 L 62.75 48.90625 L 64.84375 50.25 L 64.875 50.09375 L 63.125 48.78125 L 66.0625 47.75 L 72.0625 51.9375 L 69.5625 52.5625 L 68.46875 52 L 68.5 52.09375 L 69.21875 52.65625 L 67.9375 53 L 68 53.28125 L 69.53125 52.71875 L 73.875 56.1875 L 73.40625 56.53125 L 73.46875 56.5625 L 74.21875 56.46875 L 74.875 56.96875 L 75 56.9375 L 74.625 56.40625 L 77.78125 56 L 84.3125 60.28125 L 70.15625 59.46875 L 70.15625 59.5625 L 84.6875 60.53125 L 86.53125 61.75 L 86.5625 61.71875 L 85.28125 60.5625 L 87.53125 60.5625 L 87.4375 60.40625 L 84.75 60.21875 L 77.96875 56 L 79.84375 55.625 L 79.78125 55.46875 L 77.84375 55.71875 L 76.875 55.3125 L 76.8125 55.375 L 77.65625 55.84375 L 74.3125 56.28125 L 69.6875 52.75 L 72.28125 51.96875 L 73.71875 53.09375 L 73.78125 53.03125 L 72.65625 52.03125 L 73.71875 51.53125 L 73.40625 51.5 L 72.3125 51.8125 L 66.25 47.71875 L 67.40625 47.34375 L 67 47.15625 L 65.9375 47.53125 L 64.84375 47.03125 L 64.71875 47.0625 L 65.59375 47.65625 L 62.8125 48.5625 L 60.8125 47.09375 L 60.71875 47.1875 L 62.4375 48.6875 L 60.25 49.53125 C 58.861392 48.330451 57.372264 47.051023 55.9375 45.90625 L 61.5625 44.25 L 61.5625 44.1875 z M 23.40625 44.21875 L 23.28125 46 L 21.84375 46.71875 L 21.90625 44.90625 L 23.40625 44.21875 z M 96.9375 44.34375 L 100.28125 46.65625 L 96.90625 49.4375 L 93.40625 46.90625 L 96.9375 44.34375 z M 8.9375 45.125 L 10.46875 45.78125 L 7.625 47.03125 L 7.59375 45.75 L 8.9375 45.125 z M 26.09375 45.71875 L 29.28125 47.03125 L 26.15625 48.625 L 23.6875 48.15625 L 25.625 47.40625 L 24.125 46.8125 L 26.09375 45.71875 z M 49.90625 45.875 L 71.21875 62.71875 L 63.125 75.9375 L 63.09375 74.71875 L 60.9375 73.1875 L 58 74.46875 L 58.1875 75.65625 L 30.84375 56.34375 L 49.90625 45.875 z M 2.46875 46.03125 L 4.4375 47.625 L 4.34375 49.65625 L 6.96875 51.28125 L 7.125 49.28125 L 9.46875 50.65625 L 9.21875 52.65625 L 12.46875 54.15625 L 12.53125 51.84375 L 14.8125 53.09375 L 14.40625 89.3125 L 2.71875 80.25 L 2.46875 46.03125 z M 23.40625 46.1875 L 24.0625 46.5625 L 23.46875 46.84375 L 23.5 47.71875 L 22.0625 46.84375 L 23.40625 46.1875 z M 23.75 46.9375 L 25.15625 47.40625 L 23.78125 47.875 L 23.75 46.9375 z M 100.5625 47.0625 L 100.71875 51.53125 L 99.625 52.46875 L 96.96875 53.25 L 97.21875 49.84375 L 100.5625 47.0625 z M 6.78125 47.28125 L 6.84375 48.71875 L 4.625 49.46875 L 4.78125 47.6875 L 6.78125 47.28125 z M 93.3125 47.4375 L 93.15625 49.78125 L 91.09375 48.3125 C 91.864263 48.106668 92.582714 47.762358 93.3125 47.4375 z M 28.96875 47.59375 L 29.46875 66.84375 L 28.6875 66.375 L 27.0625 67.0625 L 26.59375 66.8125 L 26.4375 63.34375 L 22.6875 61.03125 L 17.5 62.15625 L 17.5 88.375 L 15.03125 89.5 L 15.125 52.9375 L 17.75 52.125 L 17.8125 54.0625 L 21.25 52.5625 L 21.03125 51.09375 L 23.28125 50.1875 L 23.40625 52.25 L 26.25 50.875 L 26.28125 48.96875 L 28.96875 47.59375 z M 23.40625 48.25 L 26.03125 48.84375 L 26.03125 50.46875 L 23.46875 49.78125 C 23.444059 49.325819 23.377668 48.731405 23.40625 48.25 z M 8.90625 48.4375 L 11.53125 49.625 L 9.6875 50.4375 L 7.15625 48.96875 L 8.90625 48.4375 z M 47.34375 48.5625 L 45.8125 49.4375 C 45.508052 49.192709 45.005324 48.964167 44.90625 48.875 L 44.75 48.875 C 45.041615 48.937454 45.262534 49.257481 45.53125 49.46875 L 32.9375 56.4375 L 32.9375 56.53125 L 45.75 49.59375 C 46.319383 50.035872 46.988195 50.595571 47.5625 51.03125 C 44.553208 52.814806 41.45142 54.824961 38.3125 56.375 C 38.326491 56.376557 38.33125 56.378125 38.34375 56.40625 C 41.510589 54.810084 44.558623 52.987672 47.59375 51.15625 C 49.370234 52.506297 51.307143 53.788366 53.09375 55.125 L 50.75 57.09375 L 50.90625 57.15625 L 53.15625 55.375 C 53.416136 55.569655 54.34375 56.25 54.34375 56.25 L 54.40625 56.21875 C 54.40625 56.21875 53.642595 55.367336 53.40625 55.1875 L 54.53125 54.0625 L 54.4375 54 L 53.15625 55 C 51.399117 53.651955 49.482426 52.214474 47.71875 50.875 C 49.353972 49.882578 50.6875 49.03125 50.6875 49.03125 L 50.65625 48.9375 C 50.65625 48.9375 48.719996 50.100728 47.59375 50.78125 C 47.027056 50.349161 46.467807 49.907434 45.90625 49.46875 L 47.375 48.65625 L 47.34375 48.5625 z M 6.84375 48.90625 L 6.78125 50.90625 L 4.65625 49.65625 L 6.84375 48.90625 z M 20.71875 49.25 C 20.759112 49.261777 22.436806 49.69557 23.15625 49.90625 L 20.84375 50.90625 L 18.65625 50.0625 L 20.71875 49.25 z M 11.46875 49.90625 L 11.53125 51.71875 L 9.46875 52.4375 L 9.65625 50.6875 L 9.6875 50.78125 L 11.46875 49.90625 z M 23.53125 49.96875 L 26.03125 50.6875 L 23.625 51.875 L 23.53125 49.96875 z M 18.28125 50.21875 L 20.78125 51.09375 L 20.84375 52.40625 C 20.306494 52.249311 18.506943 51.635177 18.28125 51.5625 L 18.28125 50.21875 z M 102.59375 50.5625 L 106.09375 52.90625 L 103.78125 53.875 L 104 55.5625 L 103.53125 55.75 L 99.90625 52.59375 L 102.59375 50.5625 z M 112.1875 50.75 L 114.125 52.1875 L 113 52.875 L 111.9375 51.875 L 110.6875 52.5625 L 109.53125 51.96875 L 112.1875 50.75 z M 14.0625 50.78125 L 15.28125 51.5625 L 17.0625 50.84375 L 18 51.71875 L 14.875 52.875 L 12.5 51.59375 L 14.0625 50.78125 z M 18.09375 51.71875 C 18.835634 51.885182 20.007037 52.366934 20.78125 52.59375 L 18.125 53.625 L 18.09375 51.71875 z M 11.625 51.96875 L 12.28125 52.34375 L 12.21875 53.75 L 9.75 52.625 L 11.625 51.96875 z M 111.875 52.09375 L 112 61.46875 L 110.53125 61.9375 L 109.34375 61.15625 L 107.53125 62.125 L 107.59375 62.5625 L 107.03125 62.3125 L 107 60.125 L 104.1875 58.78125 L 102.375 59.40625 L 102.25 57.6875 L 100.4375 56.5625 L 102.53125 55.78125 L 102.59375 58.09375 L 106.03125 56.5625 L 105.71875 54.65625 L 108.03125 53.5 L 108.25 55.625 L 110.96875 54.5 L 110.6875 52.75 L 111.875 52.09375 z M 109.53125 52.125 L 110.53125 52.6875 L 110.75 54.25 L 109.75 53.5 L 109.53125 52.125 z M 112.0625 52.1875 L 112.75 52.96875 L 112.8125 54.8125 L 115 56.3125 L 114.9375 54.1875 L 116.96875 55.5 L 116.90625 57.40625 L 118.8125 58.5625 L 118.46875 58.6875 L 118.53125 60.34375 L 115.96875 59.65625 L 113.375 60.6875 L 113.3125 62.125 L 112.375 61.34375 L 112.09375 61.375 L 112.0625 52.1875 z M 114.1875 52.3125 L 114.25 53.875 L 113.0625 54.5625 L 112.96875 53.0625 L 114.1875 52.3125 z M 106.875 52.78125 L 108 53.21875 L 105.46875 54.5 L 104.1875 53.90625 L 106.875 52.78125 z M 99.65625 52.84375 L 99.71875 54.90625 L 97.28125 53.46875 L 99.65625 52.84375 z M 99.96875 52.90625 L 103.34375 55.84375 L 102.84375 56.03125 L 102.84375 55.65625 L 101.4375 54.53125 L 99.875 55.09375 L 99.96875 52.90625 z M 116.0625 53.0625 L 118.5625 54.6875 L 117.125 55.3125 L 114.75 53.8125 L 116.0625 53.0625 z M 109.59375 53.6875 L 110.65625 54.375 L 108.4375 55.3125 L 108.34375 54.25 L 109.59375 53.6875 z M 114.25 54.125 L 114.71875 54.46875 L 114.78125 55.9375 L 113.1875 54.75 L 114.25 54.125 z M 104.09375 54.15625 L 105.46875 54.84375 L 105.75 56.1875 L 104.25 55.53125 L 104.09375 54.15625 z M 101.4375 54.75 L 102.5 55.59375 L 100 56.5 L 101.6875 57.625 L 100.03125 58 L 97.65625 56.21875 L 101.4375 54.75 z M 118.6875 54.8125 L 118.5625 56.59375 L 117.125 57.3125 L 117.1875 55.5 L 118.6875 54.8125 z M 104.21875 55.71875 L 105.75 56.375 L 102.90625 57.625 L 102.875 56.34375 L 104.21875 55.71875 z M 121.375 56.3125 L 124.5625 57.625 L 121.4375 59.21875 L 118.96875 58.75 L 120.90625 58 L 119.40625 57.40625 L 121.375 56.3125 z M 47.125 56.375 C 47.125 56.375 46.256944 56.965278 45.5625 57.4375 L 44.65625 56.71875 L 44.53125 56.8125 L 45.40625 57.53125 C 44.303326 58.327901 43.078834 59.34366 41.90625 60.03125 L 41.9375 60.09375 C 43.196415 59.43822 44.463713 58.500772 45.625 57.6875 L 52.15625 63 L 50.40625 64.5625 L 50.46875 64.65625 L 52.1875 63.15625 L 53.03125 63.84375 L 53.21875 63.625 L 52.40625 62.96875 L 57.25 58.5625 L 57.1875 58.5 L 52.1875 62.78125 L 45.8125 57.65625 C 46.452966 57.214168 47.25 56.40625 47.25 56.40625 L 47.125 56.375 z M 30.59375 56.5 L 58.25 76.0625 L 58.25 76.125 L 57.09375 76.6875 L 57 75.71875 L 55.5625 75.21875 L 52.53125 76.5 L 52.75 78.1875 L 51.59375 78.65625 L 51.59375 78.28125 L 50.1875 77.15625 L 46.1875 78.625 L 46.1875 82.875 L 46.09375 82.84375 L 45.96875 78.09375 L 42.0625 75.59375 L 39.9375 77.03125 L 39.78125 73.96875 L 35.5 70.625 L 33.5 71.625 L 33.375 69.25 L 31.4375 68.0625 L 31.0625 67.8125 L 30.90625 67.71875 L 30.59375 56.5 z M 97.75 56.625 L 99.71875 58.21875 L 99.625 60.25 L 102.25 61.875 L 102.40625 59.875 L 104.75 61.25 L 104.5 63.25 L 107.75 64.75 L 107.8125 62.4375 L 110.09375 63.6875 L 109.9375 100.03125 L 108.59375 99.15625 L 108.5 69.8125 L 108.53125 69.75 L 108.5 69.75 L 104.84375 68.96875 L 101.09375 70.625 L 101.15625 73.0625 L 100.0625 72.625 L 100.0625 71.21875 L 97.875 70.03125 L 97.75 56.625 z M 118.6875 56.78125 L 119.34375 57.15625 L 118.75 57.4375 L 118.78125 58.3125 L 117.34375 57.4375 L 118.6875 56.78125 z M 119.03125 57.53125 L 120.4375 58 L 119.0625 58.46875 L 119.03125 57.53125 z M 102.0625 57.875 L 102.125 59.3125 L 99.90625 60.0625 L 100.0625 58.28125 L 102.0625 57.875 z M 8.28125 58.09375 C 7.2186287 58.37743 6.87852 59.071006 6.4375 60 L 6.0625 62.65625 L 10.5625 65.84375 C 10.390528 64.233869 10.432833 62.613886 10.34375 61 C 10.345226 59.227446 9.239258 58.746907 8.28125 58.09375 z M 124.25 58.1875 L 124.96875 93.40625 L 110.3125 100.09375 L 110.40625 63.53125 L 113.03125 62.71875 L 113.09375 64.65625 L 116.53125 63.15625 L 116.3125 61.6875 L 118.5625 60.78125 L 118.6875 62.84375 L 121.53125 61.46875 L 121.5625 59.5625 L 124.25 58.1875 z M 8.34375 58.53125 C 9.1890737 58.919818 9.961259 60.063525 9.96875 61.125 C 9.9735577 61.806346 10.231611 64.006705 10.25 65 L 6.5625 62.5 C 6.6546352 61.808436 6.843068 60.660871 6.96875 60.125 C 6.7580202 59.480423 7.604003 58.741733 8.34375 58.53125 z M 118.6875 58.84375 L 121.3125 59.4375 L 121.3125 61.0625 L 118.75 60.375 C 118.72531 59.91957 118.65892 59.325155 118.6875 58.84375 z M 104.1875 59.03125 L 106.8125 60.21875 L 104.96875 61.03125 L 102.4375 59.5625 L 104.1875 59.03125 z M 102.125 59.5 L 102.0625 61.5 L 99.9375 60.25 L 102.125 59.5 z M 116 59.84375 C 116.04036 59.855528 117.71806 60.28932 118.4375 60.5 L 116.125 61.5 L 113.9375 60.65625 L 116 59.84375 z M 106.75 60.5 L 106.8125 62.3125 L 104.75 63.03125 L 104.9375 61.28125 L 104.96875 61.375 L 106.75 60.5 z M 118.8125 60.5625 L 121.3125 61.28125 L 118.90625 62.46875 L 118.8125 60.5625 z M 113.5625 60.8125 L 116.0625 61.6875 L 116.125 63 C 115.58775 62.843062 113.78819 62.228927 113.5625 62.15625 L 113.5625 60.8125 z M 63.8125 60.875 L 59.03125 65.21875 L 56.3125 62.8125 L 56.21875 62.875 L 58.875 65.25 L 53.46875 70.09375 L 53.59375 70.15625 L 59.125 65.46875 L 60.96875 67.125 L 61.0625 66.96875 L 59.15625 65.25 L 63.90625 60.9375 L 63.8125 60.875 z M 22.59375 61.34375 L 26.09375 63.4375 L 21.59375 65.0625 L 17.8125 62.28125 L 22.59375 61.34375 z M 109.34375 61.375 L 110.5625 62.15625 L 112.15625 61.5 L 113.125 62.3125 L 110.15625 63.46875 L 107.78125 62.1875 L 109.34375 61.375 z M 113.375 62.3125 C 114.11689 62.478933 115.28829 62.960684 116.0625 63.1875 L 113.40625 64.21875 L 113.375 62.3125 z M 106.90625 62.5625 L 107.5625 62.9375 L 107.5 64.34375 L 105.03125 63.21875 L 106.90625 62.5625 z M 17.875 62.75 L 21.4375 65.34375 L 21.28125 69.03125 L 25.3125 72.25 L 25.15625 68.46875 L 28.71875 70.96875 L 28.78125 74.65625 L 31.78125 77.0625 L 31.59375 73.375 L 35.65625 76.40625 L 35.65625 79.75 L 38.625 81.9375 L 38.71875 78.875 L 42.0625 81.4375 L 41.875 84.9375 L 45.25 87 L 45.125 84.375 L 46.21875 85.4375 L 46.28125 108.71875 L 17.8125 88.46875 L 17.875 62.75 z M 71.4375 62.8125 L 93.3125 63.5625 L 65.90625 76.21875 L 64.75 75.5 L 63.375 76.3125 L 63.40625 76.84375 L 63.125 76.59375 L 63.125 76.375 L 71.4375 62.8125 z M 83.625 63.71875 L 83.5625 63.875 L 84.21875 64.84375 L 79.96875 66.75 L 78.5625 65.125 L 78.46875 65.15625 L 79.6875 66.875 L 75.21875 68.90625 L 72.03125 64.03125 L 71.90625 64.09375 L 74.9375 69 L 71.125 70.71875 L 70.0625 68.625 L 69.9375 68.6875 L 70.84375 70.84375 L 66.9375 72.625 L 66.96875 72.71875 L 70.875 71 L 71.625 72.375 L 71.71875 72.375 L 71.1875 70.84375 L 75.03125 69.15625 L 75.4375 69.5625 L 75.53125 69.40625 L 75.34375 69.03125 L 79.78125 67 L 80.5625 68.0625 L 80.71875 68.09375 L 79.96875 66.9375 L 84.40625 64.875 L 85.8125 66.59375 L 85.96875 66.5625 L 84.71875 64.90625 L 86.1875 64.03125 L 86.125 63.96875 L 84.5 64.6875 L 83.625 63.71875 z M 26.03125 63.75 L 26.28125 66.6875 L 21.59375 68.5 L 21.6875 65.40625 L 26.03125 63.75 z M 93.71875 63.75 L 93.90625 70.40625 L 92.34375 71 L 91.90625 71.1875 L 91.5 71.34375 L 91.71875 73.8125 L 89.65625 74.71875 L 86.96875 73.0625 L 80.4375 75.78125 L 80.3125 78.6875 L 76.90625 80.15625 L 77 82.5625 L 76.875 82.59375 L 73.5 81.96875 L 73.46875 80.0625 L 70.0625 78.78125 L 68.34375 79.625 L 67.5 79.21875 L 67.625 77.3125 L 66.09375 76.34375 L 93.71875 63.75 z M 66.09375 64.25 L 58.9375 72.125 L 59.03125 72.125 L 66.125 64.25 L 66.09375 64.25 z M 28.65625 66.65625 L 32.75 69.1875 L 28.875 70.75 L 25.3125 68.1875 L 28.65625 66.65625 z M 26.4375 67.03125 L 26.71875 67.21875 L 25 67.9375 L 24.9375 71.46875 L 21.71875 68.9375 L 26.4375 67.03125 z M 104.875 69.25 L 108.0625 69.9375 L 104.0625 71.59375 C 103.92149 71.538052 102.46765 70.946483 101.5625 70.625 L 104.875 69.25 z M 33.125 69.34375 L 33.25 71.875 L 31.40625 72.8125 L 31.40625 73.1875 L 29.09375 74.375 L 29.09375 70.96875 L 33.125 69.34375 z M 96.5625 69.65625 L 99.84375 71.5 L 94.9375 73.59375 L 95.03125 75.21875 L 92.03125 73.8125 L 91.84375 71.6875 L 96.5625 69.65625 z M 117.40625 69.875 C 116.13791 70.917216 115.67137 72.255125 115.3125 73.78125 L 115.34375 77.90625 L 120.84375 75.71875 C 120.70877 74.608555 120.52038 73.520943 120.25 72.4375 C 119.57617 71.36407 118.89424 70.297107 117.40625 69.875 z M 108.25 70.1875 L 108.34375 99.03125 L 100.25 102.25 L 100.1875 102.375 L 100.0625 73.625 L 100.09375 73.6875 L 101.125 73.34375 L 101.25 76.4375 L 104.5625 75.1875 L 104.28125 71.8125 L 108.25 70.1875 z M 117.59375 70.21875 C 118.52989 70.628502 119.43487 71.666996 119.6875 72.375 C 119.92826 73.049734 120.42275 74.649173 120.53125 75.46875 L 115.75 77.375 C 115.71359 76.490389 115.72874 74.42408 115.8125 73.625 C 115.91071 72.688041 116.70553 71.15499 117.59375 70.21875 z M 101.3125 70.78125 C 102.08849 71.045717 103.61211 71.685819 103.90625 71.8125 L 104.1875 74.6875 L 101.5 73.28125 L 101.3125 70.78125 z M 35.5625 70.96875 L 39.28125 73.96875 L 35.8125 76.15625 L 35.78125 76.21875 L 31.65625 73 L 35.5625 70.96875 z M 99.875 71.71875 L 99.875 72.8125 L 99.9375 103.46875 L 97.8125 104.34375 L 97.71875 89.9375 C 96.345281 88.588666 94.862341 88.011015 92.96875 87.84375 C 90.946125 88.981429 89.969932 91.24822 89.0625 93.4375 L 88.9375 107.9375 L 85.78125 109.21875 L 85.40625 78.21875 L 90.40625 76 L 90.65625 77.9375 L 95.21875 75.65625 L 95.21875 73.8125 L 99.875 71.71875 z M 100.0625 72.90625 L 100.90625 73.25 L 100.0625 73.4375 L 100.0625 72.90625 z M 60.9375 73.375 L 62.875 74.8125 L 61.75 75.5 L 60.6875 74.5 L 59.4375 75.1875 L 58.28125 74.59375 L 60.9375 73.375 z M 87.03125 73.40625 L 90.46875 75.625 L 85.15625 77.96875 L 80.875 75.84375 L 87.03125 73.40625 z M 101.5 73.5625 L 104.15625 74.9375 L 101.5625 76.0625 L 101.5 73.5625 z M 31.40625 73.625 L 31.46875 76.375 L 29.21875 74.59375 L 31.40625 73.625 z M 92.03125 74.03125 L 95.03125 75.46875 L 90.90625 77.40625 L 90.84375 75.75 L 90.8125 75.40625 L 90 75 L 92.03125 74.03125 z M 39.46875 74.1875 L 39.65625 77.1875 L 38.34375 78.1875 L 38.5 78.625 L 35.90625 79.625 L 35.78125 76.46875 L 39.46875 74.1875 z M 60.625 74.71875 L 60.59375 74.78125 L 60.59375 84.09375 L 59.28125 84.5625 L 58.09375 83.78125 L 56.28125 84.75 L 56.34375 85.1875 L 55.78125 84.9375 L 55.75 82.75 L 52.9375 81.40625 L 51.125 82.03125 L 51 80.3125 L 49.1875 79.1875 L 51.28125 78.40625 L 51.34375 80.71875 L 54.78125 79.1875 L 54.46875 77.28125 L 56.78125 76.125 L 57 78.25 L 59.71875 77.125 L 59.4375 75.375 L 60.625 74.71875 z M 58.28125 74.75 L 59.28125 75.3125 L 59.5 76.875 L 58.5 76.125 L 58.28125 74.75 z M 60.78125 74.8125 L 61.5 75.59375 L 61.5625 77.4375 L 63.75 78.9375 L 63.6875 76.8125 L 65.71875 78.125 L 65.65625 80.03125 L 67.5625 81.1875 L 67.21875 81.3125 L 67.28125 82.96875 L 64.71875 82.28125 L 62.125 83.3125 L 62.0625 84.75 L 61.09375 83.9375 L 60.78125 84.03125 L 60.78125 74.8125 z M 62.9375 74.9375 L 63 76.5 L 61.8125 77.1875 L 61.71875 75.6875 L 62.9375 74.9375 z M 55.5625 75.375 L 56.84375 75.8125 L 54.125 77.15625 L 52.9375 76.5625 L 55.5625 75.375 z M 64.8125 75.6875 L 67.3125 77.3125 L 65.875 77.9375 L 63.5 76.4375 L 64.8125 75.6875 z M 42.09375 75.8125 L 45.4375 78.125 L 42.0625 80.90625 L 38.5625 78.375 L 42.09375 75.8125 z M 80.5625 76.125 L 85.09375 78.28125 L 85.375 109.28125 L 84.1875 109 L 84.34375 108.9375 C 84.304374 108.92786 84.0625 108.875 84.0625 108.875 C 84.0625 108.875 84.003565 108.85927 83.96875 108.84375 L 83.65625 80.375 L 83.71875 80.34375 L 83.65625 80.3125 L 83.65625 80.15625 L 80.875 78.65625 C 80.838784 78.604801 80.798639 78.566427 80.75 78.5 L 80.6875 78.53125 L 80.5625 76.125 z M 58.34375 76.3125 L 59.40625 77 L 57.1875 77.9375 L 57.09375 76.875 L 58.34375 76.3125 z M 63 76.75 L 63.46875 77.09375 L 63.53125 78.5625 L 61.9375 77.375 L 63 76.75 z M 52.84375 76.78125 L 54.21875 77.46875 L 54.5 78.8125 L 53 78.15625 L 52.84375 76.78125 z M 50.1875 77.375 L 51.25 78.21875 L 48.75 79.125 L 50.4375 80.25 L 48.78125 80.625 L 46.40625 78.84375 L 50.1875 77.375 z M 67.4375 77.4375 L 67.3125 79.21875 L 65.875 79.9375 L 65.9375 78.125 L 67.4375 77.4375 z M 52.96875 78.34375 L 54.5 79 L 51.65625 80.25 L 51.625 78.96875 L 52.96875 78.34375 z M 45.71875 78.53125 L 45.875 83.03125 L 44.78125 83.9375 L 42.0625 84.53125 L 42.375 81.3125 L 45.71875 78.53125 z M 80.53125 78.875 L 83 80.28125 L 80.1875 81.46875 L 80.15625 81.46875 L 77.4375 80.1875 L 80.53125 78.875 z M 38.46875 78.90625 L 38.3125 81.25 L 36.25 79.78125 C 37.020517 79.57542 37.738964 79.231108 38.46875 78.90625 z M 70.125 78.9375 L 73.3125 80.25 L 70.1875 81.84375 L 67.71875 81.375 L 69.65625 80.625 L 68.15625 80.03125 L 70.125 78.9375 z M 46.5 79.25 L 48.46875 80.84375 L 48.375 82.875 L 51 84.5 L 51.15625 82.5 L 53.5 83.875 L 53.25 85.875 L 56.5 87.375 L 56.5625 85.0625 L 58.84375 86.3125 L 58.4375 122.53125 L 46.75 113.46875 L 46.5 79.25 z M 67.4375 79.40625 L 68.09375 79.78125 L 67.5 80.0625 L 67.53125 80.9375 L 66.09375 80.0625 L 67.4375 79.40625 z M 67.78125 80.15625 L 69.1875 80.625 L 67.8125 81.09375 L 67.78125 80.15625 z M 77.28125 80.40625 L 80 81.78125 L 80.03125 81.75 L 80.21875 84.4375 L 77.375 82.75 L 77.28125 80.40625 z M 50.8125 80.5 L 50.875 81.9375 L 48.65625 82.6875 L 48.8125 80.90625 L 50.8125 80.5 z M 83.375 80.5 L 83.40625 80.5 L 83.6875 108.78125 L 73.96875 112.625 L 73.53125 84.46875 L 76.75 83.09375 L 76.84375 86.4375 L 80.59375 84.875 L 80.40625 81.75 L 83.375 80.5 z M 73.125 80.65625 L 73.71875 116.03125 L 59.0625 122.71875 L 59.15625 86.15625 L 61.78125 85.34375 L 61.84375 87.28125 L 65.28125 85.78125 L 65.0625 84.3125 L 67.3125 83.40625 L 67.4375 85.46875 L 70.28125 84.09375 L 70.3125 82.1875 L 73.125 80.65625 z M 67.4375 81.46875 L 70.0625 82.0625 L 70.0625 83.6875 L 67.5 83 C 67.475309 82.544568 67.408918 81.950155 67.4375 81.46875 z M 52.9375 81.65625 L 55.5625 82.84375 L 53.71875 83.65625 L 51.1875 82.1875 L 52.9375 81.65625 z M 50.875 82.125 L 50.8125 84.125 L 48.6875 82.875 L 50.875 82.125 z M 73.5 82.25 L 76.375 82.84375 L 73.53125 84.09375 L 73.5 82.25 z M 64.75 82.46875 C 64.790362 82.480526 66.468056 82.91432 67.1875 83.125 L 64.875 84.125 L 62.6875 83.28125 L 64.75 82.46875 z M 77.15625 83 L 80.15625 84.6875 L 77.25 85.96875 L 77.15625 83 z M 55.5 83.125 L 55.5625 84.9375 L 53.5 85.65625 L 53.6875 83.90625 L 53.71875 84 L 55.5 83.125 z M 46.21875 83.15625 L 46.21875 85 L 45.0625 84.0625 L 46.21875 83.15625 z M 67.5625 83.1875 L 70.0625 83.90625 L 67.65625 85.09375 L 67.5625 83.1875 z M 62.3125 83.4375 L 64.8125 84.3125 L 64.875 85.625 C 64.337744 85.46806 62.538193 84.853927 62.3125 84.78125 L 62.3125 83.4375 z M 58.09375 84 L 59.3125 84.78125 L 60.875 84.125 L 61.875 84.9375 L 58.90625 86.09375 L 56.53125 84.8125 L 58.09375 84 z M 44.8125 84.3125 L 44.875 86.375 L 42.4375 84.9375 L 44.8125 84.3125 z M 62.125 84.9375 C 62.866884 85.103931 64.038287 85.585684 64.8125 85.8125 L 62.15625 86.84375 L 62.125 84.9375 z M 55.65625 85.1875 L 56.3125 85.5625 L 56.25 86.96875 L 53.78125 85.84375 L 55.65625 85.1875 z M 93.125 88.1875 C 94.708223 88.243146 96.506674 89.287505 97.4375 90.125 L 97.4375 104.46875 L 89.59375 107.6875 L 89.28125 93.625 C 90.147041 91.540669 91.598406 89.131758 93.125 88.1875 z M 94.125 88.6875 L 94.25 89.9375 L 92.875 90.3125 L 92.84375 88.90625 L 91.75 89.6875 L 91.75 90.375 L 91.4375 90.53125 L 91.46875 91.625 L 91.9375 91.625 L 91.875 93.3125 L 91.34375 93.5 L 91.28125 91.875 L 90.125 92.84375 L 90.03125 93.96875 L 89.65625 94.1875 L 89.625 95.40625 L 90.03125 95.34375 L 90.03125 96.59375 L 89.5625 96.75 L 89.625 98 L 90.21875 98 L 90.0625 99.4375 L 89.6875 99.5625 L 89.6875 100.875 L 90.09375 100.8125 L 90.09375 102.03125 L 89.71875 102.15625 L 89.78125 103.53125 L 90.09375 103.4375 L 90.09375 104.625 L 89.78125 104.71875 L 89.78125 106.1875 L 90.09375 106.03125 L 90.125 106.96875 L 91.375 106.53125 L 91.375 105.5 L 91.96875 105.25 L 92.0625 106.4375 L 93.28125 106.03125 L 93.25 104.71875 L 94.09375 104.375 L 94.125 105.625 L 95.34375 105.125 C 95.34375 105.125 95.406683 104.2568 95.40625 103.84375 L 95.75 103.6875 L 95.8125 104.96875 L 97 104.40625 C 97 104.40625 97.031059 103.59004 97.03125 103.1875 L 97.25 102.96875 L 97.28125 101.6875 L 97.03125 101.78125 C 97.031229 101.54002 97.031218 101.29446 97.03125 101 L 97.25 100.875 L 97.25 99.625 L 97.03125 99.625 C 97.031471 99.196012 97.031809 98.878084 97.03125 98.3125 L 97.34375 98.21875 L 97.28125 97.125 L 97 97.03125 C 96.93784 96.604517 97.03118 95.949957 97.03125 95.46875 L 97.28125 95.375 L 97.25 94.28125 L 97 94.3125 C 96.939804 94.025177 97.03125 93.312373 97.03125 92.96875 C 97.030726 92.920633 97.030947 92.88189 97.03125 92.84375 L 97.25 92.71875 L 97.28125 91.46875 L 97 91.5 L 96.84375 90.59375 L 95.84375 90.40625 L 95.6875 89.625 L 95.25 89.53125 L 95.0625 88.78125 L 94.125 88.6875 z M 94.96875 88.96875 L 95.0625 89.96875 L 95.4375 89.9375 L 95.53125 90.5 L 95 90.71875 C 95.02353 91.322754 94.992875 91.708295 95 92.3125 L 95.9375 92.0625 C 95.991354 91.669298 95.951742 90.957295 95.96875 90.5625 L 96.59375 90.6875 C 96.634465 91.040216 96.645518 91.395857 96.65625 91.75 L 97.0625 91.6875 C 97.080921 92.005443 97.197604 92.40933 97.09375 92.59375 C 97.007908 92.746185 96.873957 92.755021 96.75 92.84375 C 96.754319 93.240527 96.781225 94.004367 96.78125 94.46875 L 97 94.46875 L 97.0625 95.1875 L 96.78125 95.40625 C 96.779518 96.077126 96.750276 96.516037 96.75 97.21875 L 97.125 97.1875 L 97.15625 98.0625 L 96.78125 98.34375 C 96.782392 99.253672 96.781236 99.128841 96.78125 99.9375 L 97 99.84375 L 97.03125 100.78125 L 96.71875 100.9375 C 96.718531 101.45476 96.750358 101.78233 96.75 102.15625 L 97.125 102.09375 L 97.125 102.8125 L 96.78125 102.96875 C 96.780956 103.20414 96.781176 104.02781 96.78125 104.3125 L 96.03125 104.65625 C 96.031196 104.39002 95.999813 103.60846 96 103.46875 L 95.1875 103.71875 C 95.188128 103.95123 95.156403 104.76643 95.15625 105.0625 L 94.375 105.34375 C 94.374821 105.06627 94.40562 104.25906 94.40625 104.125 L 93 104.6875 L 93 105.90625 L 92.34375 106.1875 L 92.3125 104.90625 L 91.125 105.4375 L 91.15625 106.40625 L 90.375 106.6875 L 90.375 105.71875 L 89.96875 105.8125 L 89.9375 104.875 L 90.4375 104.71875 L 90.40625 103.03125 L 90.0625 103.15625 L 89.96875 102.34375 L 90.4375 102.125 L 90.4375 100.46875 L 89.90625 100.625 L 89.84375 99.75 L 90.34375 99.5625 L 90.375 97.75 L 89.8125 97.84375 L 89.875 96.9375 L 90.25 96.84375 L 90.28125 95.09375 L 89.90625 95.21875 L 89.90625 94.375 L 90.375 94.15625 L 90.375 92.84375 L 91.03125 92.4375 L 90.96875 93.71875 L 92.09375 93.46875 L 92.15625 91.28125 L 91.6875 91.4375 L 91.78125 90.90625 L 92.0625 90.8125 L 92.0625 89.6875 L 92.59375 89.3125 L 92.59375 90.625 L 94.46875 90.21875 C 94.469017 90.01041 94.375 89.208309 94.375 89 L 94.96875 88.96875 z M 95.65625 90.75 C 95.721046 91.136376 95.687683 91.542841 95.6875 91.9375 L 95.3125 92.0625 C 95.312034 91.656107 95.292855 91.24993 95.28125 90.84375 L 95.65625 90.75 z M 94.3125 90.9375 L 92.78125 91.21875 L 92.75 93.09375 L 94.34375 92.5625 C 94.386187 91.978154 94.328744 91.52229 94.3125 90.9375 z M 94 91.15625 C 94.036026 91.614014 94.023528 92.072878 94.03125 92.53125 L 93.125 92.84375 L 93.09375 91.40625 L 94 91.15625 z M 52.3125 91.3125 C 51.249879 91.596179 50.90977 92.289756 50.46875 93.21875 L 50.09375 95.875 L 54.59375 99.0625 C 54.421778 97.452622 54.464083 95.832636 54.375 94.21875 C 54.376476 92.446195 53.270508 91.965657 52.3125 91.3125 z M 52.375 91.75 C 53.220324 92.138567 53.992509 93.282275 54 94.34375 C 54.004808 95.025095 54.262861 97.225455 54.28125 98.21875 L 50.59375 95.71875 C 50.685885 95.027185 50.874318 93.879621 51 93.34375 C 50.78927 92.699172 51.635253 91.960483 52.375 91.75 z M 66.15625 92.5 C 64.887907 93.542214 64.421368 94.880125 64.0625 96.40625 L 64.09375 100.53125 L 69.59375 98.34375 C 69.458771 97.233553 69.270378 96.145943 69 95.0625 C 68.326165 93.989068 67.644241 92.922107 66.15625 92.5 z M 66.34375 92.84375 C 67.279885 93.2535 68.184873 94.291996 68.4375 95 C 68.678255 95.674732 69.172744 97.274173 69.28125 98.09375 L 64.5 100 C 64.463587 99.115387 64.478742 97.04908 64.5625 96.25 C 64.66071 95.313039 65.455531 93.77999 66.34375 92.84375 z M 96.0625 93.09375 L 95.0625 93.4375 C 95.070433 93.989367 95.055722 94.366536 95.0625 94.96875 L 96 94.6875 C 95.995433 94.128541 96.067803 93.58081 96.0625 93.09375 z M 95.71875 93.34375 C 95.718994 93.718761 95.717481 94.125204 95.71875 94.53125 L 95.34375 94.65625 C 95.336856 94.248383 95.318957 93.846847 95.3125 93.46875 L 95.71875 93.34375 z M 94.375 93.59375 L 92.875 94.15625 L 92.875 95.71875 L 94.40625 95.25 C 94.399723 94.645708 94.382943 94.159081 94.375 93.59375 z M 94.0625 93.9375 C 94.062662 94.320782 94.060714 94.712159 94.0625 95.125 L 93.15625 95.4375 L 93.125 94.25 L 94.0625 93.9375 z M 92.125 94.46875 L 91.0625 94.78125 L 91.0625 96.375 L 92.0625 96 L 92.125 94.46875 z M 91.8125 94.75 L 91.84375 95.9375 L 91.34375 96.09375 L 91.34375 94.90625 L 91.8125 94.75 z M 96.03125 95.71875 L 95.09375 96.03125 C 95.09539 96.635412 95.093848 97.208333 95.09375 97.8125 L 96.03125 97.5 C 96.032291 96.781248 96.031644 96.437498 96.03125 95.71875 z M 95.75 95.96875 C 95.750806 96.43171 95.749822 96.884646 95.75 97.375 L 95.375 97.5 C 95.373482 97.031127 95.356305 96.562424 95.34375 96.09375 L 95.75 95.96875 z M 94.375 96.25 L 92.875 96.8125 L 92.875 98.625 L 94.34375 98.0625 C 94.344221 97.40625 94.375 96.906247 94.375 96.25 z M 94.09375 96.5625 C 94.092909 97.041667 94.093455 97.520834 94.09375 98 L 93.1875 98.34375 L 93.15625 96.875 L 94.09375 96.5625 z M 92.15625 97.09375 L 91.09375 97.46875 L 91.0625 99.25 L 92.15625 98.875 L 92.15625 97.09375 z M 91.84375 97.3125 L 91.875 98.78125 L 91.375 98.9375 L 91.375 97.5 L 91.84375 97.3125 z M 96.03125 98.5625 L 95.125 98.875 C 95.129221 99.77716 95.122129 99.732892 95.125 100.5 L 96.03125 100.1875 C 96.031354 99.406347 96.032175 99.464916 96.03125 98.5625 z M 95.75 98.78125 C 95.750248 99.247801 95.75016 99.594752 95.75 100.0625 L 95.40625 100.1875 C 95.399407 99.77997 95.380433 99.43496 95.375 98.90625 L 95.75 98.78125 z M 94.375 99.09375 L 92.9375 99.625 L 92.9375 101.21875 L 94.375 100.78125 C 94.375919 100.03713 94.376615 99.978808 94.375 99.09375 z M 94.09375 99.375 C 94.094279 99.834705 94.094342 100.20533 94.09375 100.65625 L 93.21875 100.9375 L 93.1875 99.6875 L 94.09375 99.375 z M 92.1875 99.9375 L 91.125 100.3125 L 91.0625 101.875 L 92.21875 101.5 L 92.1875 99.9375 z M 91.875 100.1875 L 91.90625 101.40625 L 91.375 101.59375 L 91.375 100.34375 L 91.875 100.1875 z M 95.96875 101.25 L 95.1875 101.5 C 95.189265 102.01797 95.186409 102.41119 95.1875 102.78125 L 96 102.53125 C 96.000373 102.18133 95.968474 101.76688 95.96875 101.25 z M 95.75 101.46875 C 95.750051 101.77643 95.750101 102.07738 95.75 102.3125 L 95.40625 102.46875 C 95.406457 102.19998 95.406681 101.91595 95.40625 101.59375 L 95.75 101.46875 z M 94.375 101.78125 L 93 102.25 L 93 103.71875 L 94.375 103.125 C 94.376334 102.7837 94.373805 102.29479 94.375 101.78125 z M 94.09375 102.0625 C 94.093881 102.40865 94.094123 102.75004 94.09375 103 L 93.25 103.34375 L 93.21875 102.34375 L 94.09375 102.0625 z M 92.25 102.5 L 91.0625 102.875 L 91.125 104.375 L 92.25 104 L 92.25 102.5 z M 91.90625 102.8125 L 91.9375 103.875 L 91.375 104.09375 L 91.375 103 L 91.90625 102.8125 z "
       id="path3156" />
  </g>
</svg>
