<?xml version="1.0" encoding="UTF-8" standalone="no"?>
<!-- Created with Inkscape (http://www.inkscape.org/) -->
<svg
   xmlns:dc="http://purl.org/dc/elements/1.1/"
   xmlns:cc="http://creativecommons.org/ns#"
   xmlns:rdf="http://www.w3.org/1999/02/22-rdf-syntax-ns#"
   xmlns:svg="http://www.w3.org/2000/svg"
   xmlns="http://www.w3.org/2000/svg"
   xmlns:xlink="http://www.w3.org/1999/xlink"
   xmlns:sodipodi="http://sodipodi.sourceforge.net/DTD/sodipodi-0.dtd"
   xmlns:inkscape="http://www.inkscape.org/namespaces/inkscape"
   width="128"
   height="128"
   id="svg2"
   sodipodi:version="0.32"
   inkscape:version="0.45+devel"
   version="1.0"
   sodipodi:docname="fountain_outline.svg"
   inkscape:output_extension="org.inkscape.output.svg.inkscape">
  <defs
     id="defs4">
    <filter
       height="1.42432"
       y="-0.21216"
       width="1.2179726"
       x="-0.1089863"
       id="filter2892"
       inkscape:collect="always">
      <feGaussianBlur
         id="feGaussianBlur2894"
         stdDeviation="0.72146876"
         inkscape:collect="always" />
    </filter>
    <radialGradient
       r="8.2519293"
       fy="222.04396"
       fx="14.207293"
       cy="222.04396"
       cx="14.207293"
       gradientTransform="scale(1.39523,0.716728)"
       gradientUnits="userSpaceOnUse"
       id="radialGradient1968"
       xlink:href="#linearGradient2057"
       inkscape:collect="always" />
    <linearGradient
       inkscape:collect="always"
       id="linearGradient2057">
      <stop
         style="stop-color:#000000;stop-opacity:1;"
         offset="0"
         id="stop2059" />
      <stop
         style="stop-color:#000000;stop-opacity:0;"
         offset="1"
         id="stop2061" />
    </linearGradient>
  </defs>
  <sodipodi:namedview
     id="base"
     pagecolor="#ffffff"
     bordercolor="#666666"
     borderopacity="1.0"
     gridtolerance="10000"
     guidetolerance="10"
     objecttolerance="10"
     inkscape:pageopacity="0.0"
     inkscape:pageshadow="2"
     inkscape:zoom="1"
     inkscape:cx="64"
     inkscape:cy="64"
     inkscape:document-units="px"
     inkscape:current-layer="layer1"
     showgrid="false"
     width="744.09px"
     inkscape:window-width="1248"
     inkscape:window-height="975"
     inkscape:window-x="426"
     inkscape:window-y="24"
     showguides="true"
     inkscape:guide-bbox="true" />
  <metadata
     id="metadata7">
    <rdf:RDF>
      <cc:Work
         rdf:about="">
        <dc:format>image/svg+xml</dc:format>
        <dc:type
           rdf:resource="http://purl.org/dc/dcmitype/StillImage" />
      </cc:Work>
    </rdf:RDF>
  </metadata>
  <g
     inkscape:label="Layer 1"
     inkscape:groupmode="layer"
     id="layer1">
    <path
       style="fill:#5c2700;fill-opacity:1;stroke:none;stroke-width:0.89986025999999986;stroke-miterlimit:4;stroke-opacity:1"
       d="M 63.46875 33.875 C 62.937795 33.949943 62.378564 34.198553 61.78125 34.625 C 60.280585 37.102217 60.449028 40.056336 60.8125 42.90625 C 59.028613 43.779426 57.538747 45.104483 56.625 47.03125 C 53.21875 49.020833 51.616196 48.485243 46.40625 53 C 39.171242 55.195729 32.567523 59.125868 29.25 65.0625 C 26.157931 67.631492 24.023671 70.615016 22.96875 73.875 L 22.96875 73.59375 C 20.977158 79.567597 21.586228 84.604452 23.75 88.375 C 25.913772 92.145548 29.431695 95.546547 33.8125 98.40625 C 38.019906 101.15276 43.017967 103.40606 48.375 105 L 48.375 105.03125 L 48.4375 105 C 54.219505 106.71443 60.412492 107.67832 66.46875 107.65625 C 78.098783 107.61419 91.093542 104.50563 100.78125 99.15625 C 109.33486 94.4882 117.73276 87.276159 114.5625 76.125 C 113.71029 73.188094 111.33866 70.671182 108.40625 68.90625 C 105.93109 60.776483 98.0654 55.628559 89.9375 53.4375 C 87.132129 50.21103 82.870273 48.380524 78.71875 46.96875 C 77.908199 45.068653 76.488926 43.786399 74.78125 42.9375 C 74.863314 40.959163 74.645202 38.908 73.59375 36.84375 C 72.000912 35.208812 70.775044 34.976207 69.25 35.78125 C 68.049527 36.716969 67.755778 38.00361 67.6875 39.5625 C 67.645533 37.829051 67.416664 36.316681 66.125 34.90625 C 65.171848 34.105247 64.353675 33.750095 63.46875 33.875 z M 63.9375 34.03125 C 64.609778 34.057911 65.315801 34.35643 66.09375 34.96875 C 67.42696 36.791912 67.684068 39.070646 67.53125 41.25 C 67.477808 42.012134 68.025638 42.360269 67.25 43.46875 C 67.44296 43.331819 67.577773 43.182376 67.65625 43 C 67.697924 43.265486 67.838124 43.501817 68.03125 43.75 C 68.002086 43.635646 68.055284 43.547079 68.0625 43.34375 C 67.317988 42.000925 67.73668 36.771284 69.3125 35.84375 C 69.701474 35.65914 70.077315 35.54111 70.4375 35.5 C 70.572569 35.484584 70.712587 35.464363 70.84375 35.46875 C 71.761891 35.499462 72.581514 36.02106 73.375 36.875 C 75.351988 40.413567 74.457741 44.001489 74.0625 47.15625 C 73.963504 47.757127 73.856389 48.921857 73.625 49.71875 C 73.600713 49.996895 73.520635 50.354582 73.40625 50.59375 C 72.736975 51.243943 71.573161 50.482618 72.0625 49.84375 C 72.183293 48.29076 72.930783 45.989319 72.875 44.375 C 72.757841 41.947086 73.123435 39.088565 70.4375 37.40625 C 69.419273 37.803194 69.774176 38.543337 69.15625 40.5625 C 69.217549 41.070365 68.937263 43.681369 68.5625 43.71875 C 68.518096 43.783279 68.520929 43.770498 68.5 43.84375 C 68.8181 43.74991 68.810701 43.590143 68.9375 43.25 C 69.030576 43.284174 69.115851 43.325838 69.21875 43.375 C 68.523773 44.747604 66.769162 44.039206 66.625 43.25 C 66.689993 43.208665 66.751023 43.184489 66.8125 43.15625 C 66.862359 43.208795 66.90991 43.266366 66.96875 43.3125 C 66.969511 43.22917 66.96875 43.145744 66.96875 43.0625 C 66.605311 42.625183 66.161418 40.207087 66.21875 39.75 C 65.600825 37.537739 65.955727 36.902631 64.9375 36.1875 C 62.251566 37.030485 62.617159 39.983697 62.5 42.375 C 62.444218 43.971888 63.191707 46.534263 63.3125 48.125 C 63.551568 48.63836 62.256934 49.022482 61.75 48.34375 C 61.632748 48.186761 61.864802 47.941114 61.78125 47.65625 C 61.521412 46.770358 61.417201 45.449475 61.3125 44.78125 C 60.91726 41.50298 60.054262 37.639527 62.03125 34.71875 C 62.635811 34.257048 63.265222 34.004589 63.9375 34.03125 z M 65.03125 36.53125 C 65.874276 37.810456 65.983173 39.906839 66.25 41.5 C 65.100936 41.598039 63.981194 41.817577 62.90625 42.125 C 62.45529 39.813525 62.934601 37.024999 65.03125 36.53125 z M 70.34375 37.75 C 71.881523 38.592676 72.549633 40.396475 72.625 42.15625 C 71.546646 41.85253 70.415725 41.637049 69.28125 41.53125 C 69.473318 40.156172 69.645913 38.590833 70.34375 37.75 z M 65.59375 42.28125 C 65.298766 42.464838 65.002915 42.67942 64.71875 42.96875 C 64.715591 43.024602 64.719272 43.07183 64.71875 43.125 L 64.6875 43.34375 C 64.118092 43.427565 63.558345 43.529833 63 43.65625 C 62.976218 43.382357 62.974324 43.11955 62.96875 42.84375 C 63.765304 42.610241 64.634721 42.433882 65.59375 42.28125 z M 69.15625 42.28125 C 69.776168 42.46475 70.324321 42.785021 70.71875 43.28125 C 70.357257 44.183424 69.444015 44.950795 68.5625 45.21875 C 66.982422 45.437378 65.748907 44.456367 65.21875 43.125 C 65.573006 42.827382 65.993524 42.613278 66.4375 42.4375 C 66.477376 42.569499 66.504525 42.6986 66.5625 42.8125 L 66 43 C 66.241282 44.646749 67.070789 44.625405 68.5625 44.53125 C 69.458276 44.457458 69.307553 43.943854 69.8125 43.40625 C 69.52807 43.013391 69.317094 42.802758 69.09375 42.65625 C 69.117445 42.542314 69.135226 42.403248 69.15625 42.28125 z M 70.59375 42.28125 C 71.294653 42.398588 71.96556 42.595979 72.625 42.8125 C 72.611112 43.136318 72.583534 43.445081 72.53125 43.75 C 72.118218 43.645492 71.701086 43.545627 71.28125 43.46875 C 71.277001 42.866016 71.010652 42.509532 70.59375 42.28125 z M 60.90625 43.625 C 60.940064 43.873537 60.966209 44.129219 61 44.375 C 59.423277 45.198537 58.547278 46.532726 58.1875 48.4375 C 58.910336 53.006832 63.57762 53.699549 67.53125 53.84375 C 71.331677 53.86268 74.919696 53.055233 76.3125 49.65625 C 76.439781 49.278625 76.53902 48.883661 76.65625 48.5 C 76.56157 46.681632 75.782755 45.424489 74.65625 44.625 C 74.690774 44.320134 74.725529 44.027148 74.75 43.71875 C 76.528554 44.759164 77.914832 46.34531 78.53125 48.65625 C 77.324441 54.06614 72.283076 55.116314 67.46875 55.71875 C 56.522114 54.908171 53.372187 47.139518 60.90625 43.625 z M 64.65625 43.8125 L 64.53125 45.0625 C 64.084079 45.128039 63.648428 45.238775 63.21875 45.34375 C 63.167944 44.97224 63.109402 44.622442 63.0625 44.21875 C 63.603654 44.064049 64.132626 43.915312 64.65625 43.8125 z M 71.25 44 C 71.645168 44.109896 72.041481 44.232164 72.4375 44.375 C 72.442445 44.738406 72.436256 45.08578 72.40625 45.4375 C 72.042802 45.324248 71.666558 45.229344 71.28125 45.15625 L 71.25 44 z M 70.8125 44.03125 L 70.84375 48.4375 C 68.741205 49.744078 66.772063 49.710528 64.78125 48.3125 L 65.28125 44.59375 C 66.033617 45.256005 67.290183 45.917796 68.5625 45.84375 C 69.615324 45.891174 70.539694 44.866757 70.8125 44.03125 z M 61.09375 45 C 61.145632 45.32477 61.184325 45.663808 61.21875 46 C 60.306123 46.433925 59.534748 47.014495 59.03125 47.8125 C 59.280755 46.457576 60.017599 45.623424 61.09375 45 z M 74.5625 45.375 C 75.515935 46.041578 76.227405 47.022507 76.3125 48.5 C 76.280761 48.663262 76.231386 48.81609 76.1875 48.96875 C 75.795012 47.822445 75.179529 47.025307 74.40625 46.4375 C 74.456981 46.084938 74.515138 45.733396 74.5625 45.375 z M 71.28125 45.78125 C 71.641582 45.84011 71.997595 45.911013 72.34375 46 C 72.246047 46.817894 72.078605 47.577744 72.03125 48.21875 C 71.996458 48.527928 71.947917 48.85609 71.90625 49.1875 C 71.503659 49.359757 71.403475 49.408849 71.09375 50.1875 C 70.887831 50.533352 70.759568 50.872391 71.0625 51.125 C 71.905934 51.702871 72.646785 52.019351 73.71875 51.84375 C 74.466329 51.156583 75.350621 50.88066 74.78125 49.9375 C 74.426804 49.856998 74.227725 49.641051 73.96875 49.625 C 74.121241 48.955544 74.158163 48.138287 74.28125 47.40625 C 74.306543 47.223527 74.317271 47.028258 74.34375 46.84375 C 75.168122 47.362774 75.82505 48.077982 76.15625 49.09375 C 75.064227 52.576472 70.84417 53.256265 67.53125 53.375 C 64.054026 53.350221 60.415732 52.450305 59.1875 49.0625 L 59.21875 49.0625 C 59.241618 47.95113 60.107597 47.185683 61.3125 46.65625 C 61.345963 46.924031 61.382382 47.164388 61.4375 47.40625 C 61.118806 47.266586 60.864381 47.489626 60.4375 47.5 C 59.692886 48.311965 60.528049 48.741085 61.125 49.5625 C 62.14108 49.946585 62.933959 49.805946 63.875 49.40625 C 64.221895 49.218526 64.164721 48.848489 64.03125 48.46875 C 63.883225 47.653182 63.788224 47.585632 63.4375 47.34375 C 63.396835 47.060919 63.372534 46.764782 63.34375 46.5 C 63.334497 46.371856 63.296535 46.201086 63.28125 46.0625 C 63.672951 45.970833 64.067314 45.873374 64.46875 45.8125 L 64.21875 48.625 C 66.710263 50.554412 68.830941 50.323396 71.34375 48.90625 L 71.28125 45.78125 z M 61.03125 47.5625 C 61.187838 47.55931 61.351016 47.59232 61.5 47.65625 C 61.489163 48.700008 62.167217 48.804352 63.25 48.75 C 63.503515 48.350798 63.518864 48.107751 63.46875 47.625 C 63.588992 47.72354 63.712676 47.801895 63.8125 47.875 C 63.763726 48.032299 64.113453 48.779299 63.78125 49.21875 C 62.806995 49.978929 61.673749 49.665981 61.125 49.28125 C 59.968389 48.118425 60.423687 47.574877 61.03125 47.5625 z M 79 47.625 C 85.003125 49.314543 90.359863 52.626392 91.46875 59.21875 C 91.232821 69.885063 76.828195 73.987609 67.46875 74.53125 C 58.138604 74.219355 44.106679 69.401493 44.21875 59.21875 C 44.631757 53.175996 50.283354 50.284657 56.3125 47.78125 C 56.084892 48.112669 56.037594 48.593282 55.96875 48.9375 C 51.002958 49.808253 47.798909 53.850919 46.3125 58.9375 C 47.632099 68.797245 59.498465 70.937279 67.6875 71.3125 C 75.926109 71.072978 87.686507 68.700428 89.0625 58.9375 C 88.619452 53.4803 84.088855 50.480735 79.4375 48.5625 C 79.391174 47.963472 79.160769 47.969504 79 47.625 z M 56.125 49.15625 C 56.132532 49.567936 56.182654 49.954172 56.21875 50.34375 C 50.944259 52.354019 47.595534 55.551143 47.09375 59.46875 C 47.059879 59.291534 47.026033 59.120073 47 58.9375 C 47.47767 53.871046 51.728364 50.883865 56.125 49.15625 z M 79.5625 49.21875 C 83.79612 50.83501 87.229127 53.641322 88.40625 58.03125 C 87.240111 54.098541 83.488354 52.234743 79.59375 50.625 C 79.638357 50.160826 79.629046 49.696818 79.5625 49.21875 z M 79.125 49.28125 C 79.488948 51.906264 78.331312 53.469314 76.09375 55.53125 C 70.958122 59.52967 64.281518 59.175196 59.3125 55.46875 C 57.909022 53.77562 56.302369 52.254882 56.40625 50.0625 C 57.896949 54.338 63.286623 55.820142 67.46875 56.0625 C 71.931806 55.893499 77.954087 54.149485 79.125 49.28125 z M 71.875 49.4375 C 71.845135 49.858772 71.868022 50.292763 72.09375 50.71875 C 73.213851 51.124549 73.673448 50.652712 73.90625 49.875 C 74.631174 49.855599 75.349727 50.514492 73.78125 51.5625 C 73.167264 51.831135 71.960964 51.906557 71.15625 50.96875 C 70.917495 50.472291 71.42296 49.820086 71.40625 49.65625 C 71.537052 49.595776 71.721627 49.521163 71.875 49.4375 z M 56.28125 50.90625 C 56.553197 52.844824 57.277718 54.540436 59.0625 56.125 C 59.693745 56.562948 60.335042 56.94987 61 57.28125 L 60.375 60.15625 C 64.226234 64.611286 71.759897 64.307789 75.625 60.0625 L 75.25 56.9375 C 75.271146 56.853259 76.18688 56.305706 76.53125 56.09375 C 78.1934 54.489244 79.269894 52.806949 79.5625 51.03125 C 83.650829 52.631429 87.646408 55.261412 88.53125 59.6875 C 86.797646 68.553801 75.279871 70.456127 67.6875 70.8125 C 60.370579 70.561103 49.596922 68.472621 47.3125 60.40625 C 47.467543 56.539779 50.829879 52.985606 56.28125 50.90625 z M 45.75 53.90625 C 45.106824 54.786205 44.591518 55.757648 44.1875 56.8125 C 36.649712 59.4931 32.435251 64.170932 31.8125 72.0625 C 34.035766 88.659964 54.064132 92.268987 67.84375 92.90625 C 81.697755 92.492618 101.56796 88.501402 103.875 72.0625 C 103.96138 64.343361 97.895844 59.601901 91.5 56.40625 C 91.198104 55.603784 90.806712 54.842561 90.34375 54.15625 C 99.604925 56.529527 106.73253 63.278104 108.84375 72.65625 C 109.2962 78.750102 104.20419 85.949881 96.90625 90.03125 C 89.608307 94.112615 79.113765 96.03125 67.9375 96.03125 C 56.761236 96.031249 46.917833 92.909272 39.59375 88.875 C 31.993729 84.688737 27.073901 79.180196 27.75 72.5625 C 28.17295 61.976878 37.073496 57.051198 45.75 53.90625 z M 55.84375 55.3125 C 51.50851 56.920144 52.316532 59.015053 55.78125 60.96875 L 55.84375 60.65625 C 52.80543 59.327527 52.876539 57.028451 55.84375 55.625 L 55.84375 55.3125 z M 91.6875 56.9375 L 91.875 57.28125 C 97.811043 59.793944 101.93569 63.884656 103 69.9375 C 101.51194 64.784187 98.228544 62.58614 92.6875 60 C 92.467092 58.944896 92.058752 57.944232 91.6875 56.9375 z M 74.875 57.0625 L 75.125 59.90625 C 71.054763 63.750201 64.225342 63.740854 60.8125 60.0625 L 61.46875 57.5625 C 64.499776 59.238067 70.537161 59.578052 74.875 57.0625 z M 43.9375 57.5 C 43.850848 57.814597 43.726441 58.295071 43.6875 58.4375 C 43.326622 59.258545 43.212494 60.243083 43.09375 61.15625 C 36.532245 63.665577 33.346917 66.616321 32.65625 73.3125 C 32.571953 72.903597 32.466112 72.488668 32.40625 72.0625 C 32.390945 64.737647 37.830305 60.471455 43.90625 57.53125 C 43.916316 57.501405 43.928873 57.525219 43.9375 57.5 z M 79.28125 58.28125 L 78.96875 58.40625 C 82.666829 61.266075 76.789304 62.51321 74.46875 62.75 L 74.59375 63.0625 C 78.401892 63.077847 83.351073 60.714988 79.28125 58.28125 z M 92.125 59.375 C 93.455371 64.283383 90.983993 67.85876 84.4375 72.53125 C 74.021276 79.293719 61.375611 79.341628 51.0625 72.53125 C 46.797793 69.568534 42.02896 65.564496 43.625 60.125 C 45.626806 70.715691 58.038809 74.253688 67.46875 74.8125 C 77.204669 74.447728 90.392731 70.498475 92.125 59.375 z M 92.8125 60.8125 C 99.278458 63.603991 102.24323 65.621611 103.1875 72.625 C 100.64435 88.34592 81.066977 91.575422 67.84375 92.1875 C 55.269167 91.788213 37.01814 88.483928 33 74.8125 C 32.921757 67.405553 36.947773 64.412986 43.09375 61.625 C 42.954463 66.457283 46.495146 69.660643 50.53125 72.90625 C 52.670626 74.466067 54.916399 75.6629 57.21875 76.53125 L 56.625 79.75 C 62.593536 86.164117 72.819779 84.397784 78.53125 80.0625 L 77.90625 76.375 C 80.281404 75.535881 82.613739 74.453649 84.84375 73.125 C 88.677617 69.922072 93.51106 66.505534 92.8125 60.8125 z M 55.46875 64.15625 L 55.46875 64.40625 C 60.07463 68.629591 65.551232 69.479517 71.28125 67.1875 L 71.28125 66.8125 C 65.904951 69.055184 59.840453 67.867348 55.46875 64.15625 z M 28.8125 65.875 C 28.111554 67.298003 27.61384 68.823991 27.3125 70.46875 L 25.375 70.25 C 26.327807 68.706548 27.473766 67.22953 28.8125 65.875 z M 94.40625 67.34375 L 93.71875 67.71875 C 97.032268 68.616839 97.215236 71.728683 97.125 74.71875 L 97.25 75.03125 C 97.613161 71.33314 97.990909 68.642005 94.40625 67.34375 z M 44.875 67.5 L 44.625 67.625 C 43.533483 69.230543 43.767376 70.087279 45.15625 71.53125 L 45.40625 71.34375 C 44.146853 70.281318 44.671468 68.957331 44.875 67.5 z M 40.0625 68.96875 L 39.8125 69.03125 C 38.053342 72.712174 38.639236 76.145801 40.90625 80.6875 L 41.21875 80.6875 C 39.254502 76.264613 38.490474 72.25811 40.0625 68.96875 z M 108.53125 69.46875 L 108.65625 69.5 C 108.65999 69.509277 108.65253 69.521972 108.65625 69.53125 C 109.9215 70.062356 111.15109 71.302522 112.21875 72.71875 L 109.625 73.21875 C 109.46569 71.974354 109.14252 70.743707 108.65625 69.53125 C 108.61441 69.513688 108.57313 69.484741 108.53125 69.46875 z M 25.1875 70.53125 L 27.25 70.84375 C 27.160484 71.400726 27.069088 71.978459 27.03125 72.5625 C 27.03125 72.90211 27.067999 73.226792 27.09375 73.5625 C 27.017856 74.888653 26.956407 76.225913 27 77.5 C 27.036125 78.446286 27.196165 79.373253 27.4375 80.28125 L 23 82.46875 C 22.078376 78.25217 23.01742 74.172955 25.1875 70.53125 z M 112.53125 73.09375 C 113.22938 74.067929 113.83022 75.105514 114.3125 76.03125 C 114.79451 80.957993 113.57181 84.845068 111.34375 88.15625 L 106.65625 85.90625 C 108.54913 83.258874 109.625 80.362578 109.625 77.3125 C 109.77253 76.064114 109.80519 74.852824 109.6875 73.65625 L 112.53125 73.09375 z M 109.03125 73.9375 C 109.11625 75.00035 109.11599 76.102281 108.90625 77.3125 C 108.90625 83.423124 104.48544 89.01238 97.1875 93.09375 C 89.889556 97.17512 79.863765 99.78125 68.6875 99.78125 C 57.511284 99.781252 47.488369 97.332378 40.25 93.25 C 33.011632 89.167618 27.702168 83.489355 27.46875 77.375 L 27.5 76.125 C 28.87447 81.131433 33.119184 85.561276 39.15625 88.9375 C 46.586485 93.092853 56.436579 96.40625 67.71875 96.40625 C 79.000921 96.40625 89.819764 94.467853 97.25 90.3125 C 104.14219 86.458049 108.41009 79.823984 109.03125 73.9375 z M 84.09375 74.40625 L 83.71875 74.53125 C 86.308052 78.526824 83.174701 80.929207 79.5625 82.53125 L 79.875 82.59375 C 84.618534 80.88554 86.555323 78.942753 84.09375 74.40625 z M 77.78125 76.40625 L 77.59375 76.8125 L 78.15625 79.78125 C 72.525248 84.081776 61.963308 84.594323 57.09375 79.5625 L 57.65625 76.6875 C 64.183439 79.022423 71.175628 78.713525 77.78125 76.40625 z M 114.6875 78.0625 C 115.87558 82.413227 114.54319 86.375909 111.875 89.84375 L 111.59375 88.59375 C 113.57432 85.548674 114.74194 82.044926 114.6875 78.0625 z M 22.21875 78.15625 C 22.156141 79.62534 22.288598 81.135421 22.625 82.65625 L 22.53125 82.6875 L 22.46875 84.0625 C 22.079119 82.121605 21.99132 80.039104 22.21875 78.15625 z M 27.53125 80.59375 C 28.721128 84.668371 31.853584 88.331823 36.1875 91.40625 L 32.65625 95.625 C 29.67393 93.326213 27.030153 90.586539 24.875 87.3125 C 23.982276 85.75082 23.388164 84.199475 23.03125 82.65625 L 27.53125 80.59375 z M 22.71875 83 C 23.062961 84.429134 23.572673 85.86496 24.28125 87.3125 C 26.558439 90.841818 29.392444 93.756163 32.59375 96.15625 L 32.5625 97.15625 C 28.966472 94.576966 26.010793 91.596075 24.09375 88.46875 C 23.437083 87.397511 22.929091 86.070704 22.59375 84.65625 L 22.71875 83 z M 53.21875 83.875 L 53.21875 84.1875 C 60.134073 90.341206 69.951801 89.368963 75.625 87.78125 L 75.625 87.53125 C 70.199415 89.049665 59.714847 89.655652 53.21875 83.875 z M 106.46875 86.21875 L 111.1875 88.4375 C 108.7567 91.929278 105.17644 94.76429 101.21875 97.46875 C 100.95452 97.618786 100.67717 97.759376 100.40625 97.90625 L 95.625 94.65625 C 96.263842 94.340366 96.8967 94.024895 97.5 93.6875 C 101.28644 91.569937 104.36235 89.051244 106.46875 86.21875 z M 111.40625 88.875 L 111.6875 90.09375 C 108.96877 93.520487 104.94903 96.444406 100.71875 98.71875 L 100.5625 98.21875 C 100.63506 98.178029 100.70907 98.134735 100.78125 98.09375 C 105.09561 95.684241 108.87624 92.630336 111.40625 88.875 z M 36.59375 91.65625 C 37.612113 92.35949 38.681801 93.049795 39.8125 93.6875 C 42.740606 95.338926 46.114104 96.725131 49.8125 97.8125 L 48.3125 103.28125 C 42.733022 101.65751 37.43706 99.245002 32.90625 95.8125 L 36.59375 91.65625 z M 95.3125 94.8125 L 100 98.125 C 95.451538 100.53505 90.032185 102.49587 84.375 103.875 L 82.25 99.09375 C 87.080257 98.131202 91.499044 96.659997 95.3125 94.8125 z M 32.90625 96.375 C 37.454021 99.713451 42.730444 102.03625 48.28125 103.625 L 48.34375 104.625 C 43.128275 103.07873 38.25476 100.90503 34.1875 98.25 C 33.786274 97.988087 33.388128 97.708992 33 97.4375 L 32.90625 96.375 z M 50.21875 97.9375 C 54.891024 99.273447 60.077433 100.11883 65.59375 100.34375 L 66.09375 106.09375 C 60.349441 105.83074 54.365667 105.00053 48.65625 103.375 L 50.21875 97.9375 z M 100.21875 98.375 L 100.5 98.84375 C 100.47963 98.85458 100.45788 98.8642 100.4375 98.875 C 95.675568 101.50445 90.095984 103.59491 84.28125 105.03125 L 84.3125 104.4375 C 90.051119 103.03885 95.516107 100.96802 100.21875 98.375 z M 81.84375 99.1875 L 83.96875 103.96875 C 78.272223 105.32704 72.364048 106.10526 66.90625 106.125 C 66.802816 106.12117 66.697357 106.09794 66.59375 106.09375 L 65.84375 100.34375 C 66.753499 100.37775 67.66757 100.40625 68.59375 100.40625 C 73.235025 100.40625 77.687474 99.987499 81.84375 99.1875 z M 48.625 103.71875 C 54.365009 105.32742 60.367147 106.16237 66.125 106.53125 L 66.125 107.28125 C 60.262004 107.25787 54.246656 106.35696 48.625 104.71875 L 48.625 103.71875 z M 83.96875 104.5 L 83.9375 105.09375 C 78.187396 106.48693 72.22386 107.26077 66.5625 107.28125 C 66.541589 107.28133 66.520916 107.2812 66.5 107.28125 L 66.59375 106.5625 C 66.728796 106.57059 66.865255 106.58616 67 106.59375 C 72.566906 106.57362 78.381672 105.83454 83.96875 104.5 z "
       id="path2309" />
  </g>
</svg>
