<?xml version="1.0" encoding="UTF-8" standalone="no"?>
<!-- Created with Inkscape (http://www.inkscape.org/) -->
<svg
   xmlns:dc="http://purl.org/dc/elements/1.1/"
   xmlns:cc="http://creativecommons.org/ns#"
   xmlns:rdf="http://www.w3.org/1999/02/22-rdf-syntax-ns#"
   xmlns:svg="http://www.w3.org/2000/svg"
   xmlns="http://www.w3.org/2000/svg"
   xmlns:xlink="http://www.w3.org/1999/xlink"
   xmlns:sodipodi="http://sodipodi.sourceforge.net/DTD/sodipodi-0.dtd"
   xmlns:inkscape="http://www.inkscape.org/namespaces/inkscape"
   width="128"
   height="128"
   id="svg2"
   sodipodi:version="0.32"
   inkscape:version="0.45+devel"
   version="1.0"
   sodipodi:docname="gallows.svg"
   inkscape:output_extension="org.inkscape.output.svg.inkscape">
  <defs
     id="defs4">
    <linearGradient
       id="linearGradient2320">
      <stop
         id="stop2322"
         offset="0"
         style="stop-color:#6a3c1d;stop-opacity:1;" />
      <stop
         id="stop2324"
         offset="1"
         style="stop-color:#8f5127;stop-opacity:1;" />
    </linearGradient>
    <linearGradient
       inkscape:collect="always"
       xlink:href="#linearGradient2320"
       id="linearGradient2369"
       x1="54.741905"
       y1="78.903625"
       x2="69.559639"
       y2="62.457481"
       gradientUnits="userSpaceOnUse"
       gradientTransform="translate(-5,5)" />
    <linearGradient
       id="linearGradient3193">
      <stop
         id="stop3195"
         offset="0"
         style="stop-color:#c2a05c;stop-opacity:1;" />
      <stop
         id="stop3197"
         offset="1"
         style="stop-color:#d6be91;stop-opacity:1;" />
    </linearGradient>
    <filter
       inkscape:collect="always"
       id="filter3478">
      <feGaussianBlur
         inkscape:collect="always"
         stdDeviation="1.9355675"
         id="feGaussianBlur3480" />
    </filter>
    <linearGradient
       inkscape:collect="always"
       xlink:href="#linearGradient3193"
       id="linearGradient3482"
       gradientUnits="userSpaceOnUse"
       x1="75.886063"
       y1="61.064838"
       x2="81.481018"
       y2="49.755974"
       gradientTransform="translate(-5,5)" />
    <linearGradient
       inkscape:collect="always"
       xlink:href="#linearGradient3193"
       id="linearGradient3484"
       gradientUnits="userSpaceOnUse"
       x1="79.877235"
       y1="45.932518"
       x2="80.547714"
       y2="46.245411"
       gradientTransform="translate(-5,5)" />
    <linearGradient
       inkscape:collect="always"
       xlink:href="#linearGradient3193"
       id="linearGradient3486"
       gradientUnits="userSpaceOnUse"
       x1="77.677078"
       y1="40.351177"
       x2="78.562424"
       y2="40.351177"
       gradientTransform="translate(-5,5)" />
    <linearGradient
       inkscape:collect="always"
       xlink:href="#linearGradient2320"
       id="linearGradient3488"
       gradientUnits="userSpaceOnUse"
       x1="68.838516"
       y1="21.531757"
       x2="75.632767"
       y2="17.12669"
       gradientTransform="translate(-5,5)" />
    <linearGradient
       inkscape:collect="always"
       xlink:href="#linearGradient2320"
       id="linearGradient3490"
       gradientUnits="userSpaceOnUse"
       x1="78.096626"
       y1="31.68581"
       x2="84.666885"
       y2="26.982094"
       gradientTransform="translate(-5,5)" />
    <linearGradient
       inkscape:collect="always"
       xlink:href="#linearGradient2320"
       id="linearGradient3492"
       gradientUnits="userSpaceOnUse"
       x1="68.763855"
       y1="23.995607"
       x2="69.510475"
       y2="22.651688"
       gradientTransform="translate(-5,5)" />
    <linearGradient
       inkscape:collect="always"
       xlink:href="#linearGradient2320"
       id="linearGradient3494"
       gradientUnits="userSpaceOnUse"
       x1="60.401688"
       y1="31.984461"
       x2="66.523987"
       y2="25.264866"
       gradientTransform="translate(-5,5)" />
    <linearGradient
       inkscape:collect="always"
       xlink:href="#linearGradient2320"
       id="linearGradient3496"
       gradientUnits="userSpaceOnUse"
       x1="60.774998"
       y1="28.027365"
       x2="59.505741"
       y2="26.982096"
       gradientTransform="translate(-5,5)" />
    <linearGradient
       inkscape:collect="always"
       xlink:href="#linearGradient2320"
       id="linearGradient3498"
       gradientUnits="userSpaceOnUse"
       x1="56.444595"
       y1="40.047974"
       x2="64.881416"
       y2="39.152027"
       gradientTransform="translate(-5,5)" />
    <linearGradient
       inkscape:collect="always"
       xlink:href="#linearGradient2320"
       id="linearGradient3500"
       gradientUnits="userSpaceOnUse"
       x1="55.875"
       y1="39.125"
       x2="57.125"
       y2="39.125"
       gradientTransform="translate(-5,5)" />
    <linearGradient
       inkscape:collect="always"
       xlink:href="#linearGradient2320"
       id="linearGradient3502"
       gradientUnits="userSpaceOnUse"
       gradientTransform="translate(-3.625,25.3125)"
       x1="78.46875"
       y1="86.953125"
       x2="78.28125"
       y2="86.171875" />
    <linearGradient
       inkscape:collect="always"
       xlink:href="#linearGradient2320"
       id="linearGradient3504"
       gradientUnits="userSpaceOnUse"
       gradientTransform="translate(-3.96875,21.90625)"
       x1="78.46875"
       y1="86.953125"
       x2="78.28125"
       y2="86.171875" />
    <linearGradient
       inkscape:collect="always"
       xlink:href="#linearGradient2320"
       id="linearGradient3506"
       gradientUnits="userSpaceOnUse"
       gradientTransform="translate(-4.15625,18.78125)"
       x1="78.46875"
       y1="86.953125"
       x2="78.28125"
       y2="86.171875" />
    <linearGradient
       inkscape:collect="always"
       xlink:href="#linearGradient2320"
       id="linearGradient3508"
       gradientUnits="userSpaceOnUse"
       gradientTransform="translate(-4.53125,15.09375)"
       x1="78.46875"
       y1="86.953125"
       x2="78.28125"
       y2="86.171875" />
    <linearGradient
       inkscape:collect="always"
       xlink:href="#linearGradient2320"
       id="linearGradient3510"
       gradientUnits="userSpaceOnUse"
       gradientTransform="translate(-4.59375,11.5625)"
       x1="78.46875"
       y1="86.953125"
       x2="78.28125"
       y2="86.171875" />
    <linearGradient
       inkscape:collect="always"
       xlink:href="#linearGradient2320"
       id="linearGradient3512"
       gradientUnits="userSpaceOnUse"
       gradientTransform="translate(-4.78125,8.28125)"
       x1="78.46875"
       y1="86.953125"
       x2="78.28125"
       y2="86.171875" />
    <linearGradient
       inkscape:collect="always"
       xlink:href="#linearGradient2320"
       id="linearGradient3514"
       gradientUnits="userSpaceOnUse"
       x1="78.46875"
       y1="86.953125"
       x2="78.28125"
       y2="86.171875"
       gradientTransform="translate(-5,5)" />
    <linearGradient
       inkscape:collect="always"
       xlink:href="#linearGradient2320"
       id="linearGradient3516"
       gradientUnits="userSpaceOnUse"
       x1="83.875"
       y1="95.28125"
       x2="84.875"
       y2="95.15625"
       gradientTransform="translate(-5,5)" />
    <linearGradient
       inkscape:collect="always"
       xlink:href="#linearGradient2320"
       id="linearGradient3518"
       gradientUnits="userSpaceOnUse"
       x1="74.8125"
       y1="97.71875"
       x2="75.75"
       y2="97.71875"
       gradientTransform="translate(-5,5)" />
    <linearGradient
       inkscape:collect="always"
       xlink:href="#linearGradient2320"
       id="linearGradient3520"
       gradientUnits="userSpaceOnUse"
       x1="93.625"
       y1="92.71875"
       x2="96.125"
       y2="92.34375"
       gradientTransform="translate(-5,5)" />
    <linearGradient
       inkscape:collect="always"
       xlink:href="#linearGradient2320"
       id="linearGradient3522"
       gradientUnits="userSpaceOnUse"
       x1="63.9375"
       y1="101.625"
       x2="65.75"
       y2="101.625"
       gradientTransform="translate(-5,5)" />
    <linearGradient
       inkscape:collect="always"
       xlink:href="#linearGradient2320"
       id="linearGradient3524"
       gradientUnits="userSpaceOnUse"
       x1="44.4375"
       y1="83.4375"
       x2="46.1875"
       y2="83.4375"
       gradientTransform="translate(-5,5)" />
    <linearGradient
       inkscape:collect="always"
       xlink:href="#linearGradient2320"
       id="linearGradient3526"
       gradientUnits="userSpaceOnUse"
       x1="74.875"
       y1="68"
       x2="59.4375"
       y2="77.5"
       gradientTransform="translate(-5,5)" />
  </defs>
  <sodipodi:namedview
     id="base"
     pagecolor="#ffffff"
     bordercolor="#666666"
     borderopacity="1.0"
     gridtolerance="10000"
     guidetolerance="10"
     objecttolerance="10"
     inkscape:pageopacity="0.0"
     inkscape:pageshadow="2"
     inkscape:zoom="1"
     inkscape:cx="184.52509"
     inkscape:cy="64"
     inkscape:document-units="px"
     inkscape:current-layer="layer2"
     showgrid="false"
     width="744.09px"
     inkscape:window-width="1248"
     inkscape:window-height="975"
     inkscape:window-x="426"
     inkscape:window-y="24"
     showguides="true"
     inkscape:guide-bbox="true" />
  <metadata
     id="metadata7">
    <rdf:RDF>
      <cc:Work
         rdf:about="">
        <dc:format>image/svg+xml</dc:format>
        <dc:type
           rdf:resource="http://purl.org/dc/dcmitype/StillImage" />
      </cc:Work>
    </rdf:RDF>
  </metadata>
  <g
     inkscape:groupmode="layer"
     id="layer2"
     inkscape:label="colors">
    <path
       style="fill:#000000;fill-opacity:0.62745098;fill-rule:evenodd;stroke:none;stroke-width:1px;stroke-linecap:butt;stroke-linejoin:miter;stroke-opacity:1;filter:url(#filter3478)"
       d="M 59.345946,114.83784 L 53.291892,103.24865 L 35.821622,83.356757 L 40.664865,94.427027 L 39.8,95.291892 L 37.205405,93.216216 L 29.594595,78.167568 L 43.951351,71.075676 L 31.843243,48.762162 L 51.054462,43.074878 L 49.670678,47.572175 C 49.670678,47.572175 44.47027,51.702703 44.643243,52.567568 C 44.816216,53.432432 49.832432,66.232432 49.832432,66.232432 L 59.518919,62.427027 L 79.064865,77.648649 L 69.032432,83.52973 L 91.691892,106.53514 L 90.481081,109.12973 L 76.47027,95.637838 L 66.956757,98.405405 L 80.448649,110.34054 L 79.410811,111.55135 L 66.437838,99.616216 L 62.113514,101.51892 L 72.318919,114.49189 L 70.935135,115.7027 L 60.902703,102.9027 L 55.194595,102.9027 L 61.248649,114.83784 L 59.345946,114.83784 z"
       id="path3404"
       sodipodi:nodetypes="cccccccccccscccccccccccccccccc" />
    <path
       style="fill:url(#linearGradient2369);fill-rule:evenodd;stroke:none;stroke-width:1px;stroke-linecap:butt;stroke-linejoin:miter;stroke-opacity:1"
       d="M 67.735135,62.513513 L 38.07027,75.918919 L 36.772973,77.562162 L 38.650344,79.998622 L 39.713514,80.32973 L 43,83.356757 L 44.47027,83.27027 L 46.286487,85 L 45.421622,85.518919 L 46.545946,86.297297 L 50.351351,88.459459 L 51.821622,91.140541 L 53.378378,91.4 L 55.886487,94.340541 L 55.627027,97.281081 L 59.778378,98.145946 L 70.935135,93.302703 L 74.913514,91.572973 L 78.2,90.016216 L 79.879067,89.58813 L 88.837838,86.037838 L 93.421622,84.135135 L 93.162162,82.751351 L 89.443243,78.427027 L 84.85946,76.178378 L 85.464865,74.967568 L 81.486487,73.67027 L 81.918919,72.459459 L 78.632432,70.037838 L 77.594595,70.037838 L 75.518919,67.616216 L 73.443243,67.010811 L 70.243243,64.935135 L 70.762162,63.378378 L 67.735135,62.513513 z"
       id="path2367"
       sodipodi:nodetypes="ccccccccccccccccccccccccccccccccccc" />
    <path
       style="fill:#000000;fill-opacity:0.15686275;fill-rule:evenodd;stroke:none;stroke-width:1px;stroke-linecap:butt;stroke-linejoin:miter;stroke-opacity:1"
       d="M 61.125,76 L 64.3125,74.25 L 67.1875,73.75 L 70.3125,74.25 L 72,75.875 L 72.125,77.9375 L 71.75,78.3125 L 70.1875,76 L 68.4375,75.0625 L 66.4375,74.9375 L 63.9375,75.25 L 61.125,76 z"
       id="path2371" />
    <path
       style="fill:#000000;fill-opacity:0.15686275;fill-rule:evenodd;stroke:none;stroke-width:1px;stroke-linecap:butt;stroke-linejoin:miter;stroke-opacity:1"
       d="M 38.0625,75.9375 L 39.6875,79.0625 L 43.375,82.125 L 44.6875,81.625 L 47,84.625 L 46.9375,85.375 L 51.0625,87.75 L 52.375,90.3125 L 52.4375,90.5 L 53.875,90.3125 L 57,93.625 L 56.3125,96.375 L 59.375,96.125 L 59.9375,97.75 L 56.375,97.375 L 55.625,97.1875 L 55.75,94.6875 L 53.4375,91.25 L 51.875,91.3125 L 50.25,88.4375 L 46.25,86.0625 L 45.625,85.8125 L 46.1875,85.0625 L 44.5625,83 L 43,83.25 L 39.625,80.5 L 38.5625,80.0625 L 36.75,77.8125 L 38.0625,75.9375 z"
       id="path2950" />
    <path
       style="fill:url(#linearGradient3526);fill-opacity:1;fill-rule:evenodd;stroke:none;stroke-width:1px;stroke-linecap:butt;stroke-linejoin:miter;stroke-opacity:1"
       d="M 60.875,76 L 59.125,78.1875 L 58.25,80.375 L 58.25,81.25 L 58.6875,82.375 L 60.1875,83.4375 L 62.125,84 L 64.5,83.9375 L 67.0625,83.25 L 70.1875,81.1875 L 71.875,78.4375 L 70.625,76.4375 L 68.125,75 L 65.25,75 L 62.5,75.625 L 60.875,76 z"
       id="path2952" />
    <path
       style="fill:url(#linearGradient3524);fill-rule:evenodd;stroke:none;stroke-width:1px;stroke-linecap:butt;stroke-linejoin:miter;stroke-opacity:1"
       d="M 40.25,81 L 39.6875,91.3125 L 39.4375,94.6875 L 39.875,95.625 L 40.5,95.875 L 41.25,95.375 L 41.5,89.5625 L 41.9375,82.375 L 40.25,81 z"
       id="path2956" />
    <path
       id="path2958"
       d="M 59.5,98.1875 L 59.1875,111.4375 L 58.9375,114.8125 L 59.375,115.75 L 60,116 L 60.75,115.5 L 61,109.6875 L 61.375,97.25 L 59.5,98.1875 z"
       style="fill:url(#linearGradient3522);fill-rule:evenodd;stroke:none;stroke-width:1px;stroke-linecap:butt;stroke-linejoin:miter;stroke-opacity:1"
       sodipodi:nodetypes="ccccccccc" />
    <path
       style="fill:url(#linearGradient3520);fill-rule:evenodd;stroke:none;stroke-width:1px;stroke-linecap:butt;stroke-linejoin:miter;stroke-opacity:1"
       d="M 88.625,86.125 L 89.6875,105.3125 L 89.8125,108.6875 L 90.25,109.625 L 90.875,109.875 L 91.625,109.375 L 91.375,103.4375 L 90.1875,85.5625 L 88.625,86.125 z"
       id="path2960"
       sodipodi:nodetypes="ccccccccc" />
    <path
       style="fill:url(#linearGradient3518);fill-rule:evenodd;stroke:none;stroke-width:1px;stroke-linecap:butt;stroke-linejoin:miter;stroke-opacity:1"
       d="M 70.625,89.5625 L 69.9375,89.25 L 69.25,90 L 69.25,91.9375 L 70,104.1875 L 70.75,114.5 L 70.75,115.375 L 70.9375,115.875 L 71.4375,116.1875 L 72,115.9375 L 72.25,115.25 L 71.625,106.1875 L 70.6875,91.875 L 70.625,89.5625 z"
       id="path2968"
       sodipodi:nodetypes="cccccccccccccc" />
    <path
       sodipodi:nodetypes="cccccccccccccc"
       id="path2970"
       d="M 78.875,87.0625 L 78.1875,86.75 L 77.5,87.5 L 77.8125,89.5625 L 79.0625,101.75 L 79.9375,111.125 L 79.9375,112 L 80.125,112.5 L 80.625,112.8125 L 81.4375,112.5625 L 81.4375,111.875 L 80.5625,103.5625 L 79.0625,89.375 L 78.875,87.0625 z"
       style="fill:url(#linearGradient3516);fill-rule:evenodd;stroke:none;stroke-width:1px;stroke-linecap:butt;stroke-linejoin:miter;stroke-opacity:1" />
    <path
       sodipodi:nodetypes="cccccccccccccc"
       id="path2982"
       d="M 70.625,89.5625 L 69.9375,89.25 L 69.25,90 L 69.25,91.9375 L 70,104.1875 L 70.75,114.5 L 70.75,115.375 L 70.9375,115.875 L 71.4375,116.1875 L 72,115.9375 L 72.25,115.25 L 71.625,106.1875 L 70.6875,91.875 L 70.625,89.5625 z"
       style="fill:#ffffff;fill-opacity:0.1254902;fill-rule:evenodd;stroke:none;stroke-width:1px;stroke-linecap:butt;stroke-linejoin:miter;stroke-opacity:1" />
    <path
       style="fill:#ffffff;fill-opacity:0.1254902;fill-rule:evenodd;stroke:none;stroke-width:1px;stroke-linecap:butt;stroke-linejoin:miter;stroke-opacity:1"
       d="M 78.875,87.0625 L 78.1875,86.75 L 77.5,87.5 L 77.8125,89.5625 L 79.0625,101.75 L 79.9375,111.125 L 79.9375,112 L 80.125,112.5 L 80.625,112.8125 L 81.4375,112.5625 L 81.4375,111.875 L 80.5625,103.5625 L 79.0625,89.375 L 78.875,87.0625 z"
       id="path2984"
       sodipodi:nodetypes="cccccccccccccc" />
    <path
       style="fill:url(#linearGradient3514);fill-rule:evenodd;stroke:none;stroke-width:1px;stroke-linecap:butt;stroke-linejoin:miter;stroke-opacity:1"
       d="M 70.84375,91.90625 L 78.34375,89.09375 L 78.53125,89.5 L 78.46875,90.0625 L 70.84375,93.25 L 70.84375,91.90625 z"
       id="path2986" />
    <path
       id="path2990"
       d="M 71.0625,95.1875 L 78.71875,92.34375 L 78.90625,92.78125 L 78.78125,93.65625 L 71.0625,96.53125 L 71.0625,95.1875 z"
       style="fill:url(#linearGradient3512);fill-rule:evenodd;stroke:none;stroke-width:1px;stroke-linecap:butt;stroke-linejoin:miter;stroke-opacity:1"
       sodipodi:nodetypes="cccccc" />
    <path
       style="fill:url(#linearGradient3510);fill-rule:evenodd;stroke:none;stroke-width:1px;stroke-linecap:butt;stroke-linejoin:miter;stroke-opacity:1"
       d="M 71.25,98.46875 L 78.8125,95.65625 L 79.03125,96.1875 L 78.90625,96.96875 L 71.25,99.8125 L 71.25,98.46875 z"
       id="path2994"
       sodipodi:nodetypes="cccccc" />
    <path
       id="path2998"
       d="M 71.3125,102 L 79.15625,99.1875 C 79.339293,99.27529 79.42094,99.464477 79.4375,99.71875 L 79.25,100.53125 L 71.3125,103.34375 L 71.3125,102 z"
       style="fill:url(#linearGradient3508);fill-rule:evenodd;stroke:none;stroke-width:1px;stroke-linecap:butt;stroke-linejoin:miter;stroke-opacity:1"
       sodipodi:nodetypes="cccccc" />
    <path
       style="fill:url(#linearGradient3506);fill-rule:evenodd;stroke:none;stroke-width:1px;stroke-linecap:butt;stroke-linejoin:miter;stroke-opacity:1"
       d="M 71.6875,105.6875 L 79.5,102.8125 L 79.90625,103.40625 C 79.895567,103.76028 79.897278,104.12051 79.5625,104.3125 L 71.6875,107.03125 L 71.6875,105.6875 z"
       id="path3002"
       sodipodi:nodetypes="cccccc" />
    <path
       id="path3006"
       d="M 71.875,108.8125 L 79.90625,106 L 80.0625,106.46875 L 79.96875,107.25 L 71.875,110.15625 L 71.875,108.8125 z"
       style="fill:url(#linearGradient3504);fill-rule:evenodd;stroke:none;stroke-width:1px;stroke-linecap:butt;stroke-linejoin:miter;stroke-opacity:1"
       sodipodi:nodetypes="cccccc" />
    <path
       style="fill:url(#linearGradient3502);fill-rule:evenodd;stroke:none;stroke-width:1px;stroke-linecap:butt;stroke-linejoin:miter;stroke-opacity:1"
       d="M 72.21875,112.21875 L 80.125,109.4375 L 80.375,110 L 80.28125,110.71875 L 72.21875,113.5625 L 72.21875,112.21875 z"
       id="path3010"
       sodipodi:nodetypes="cccccc" />
    <path
       id="path3014"
       d="M 70.84375,91.90625 L 78.34375,89.09375 L 78.53125,89.5 L 78.46875,90.0625 L 70.84375,93.25 L 70.84375,91.90625 z"
       style="fill:#ffffff;fill-opacity:0.1254902;fill-rule:evenodd;stroke:none;stroke-width:1px;stroke-linecap:butt;stroke-linejoin:miter;stroke-opacity:1" />
    <path
       sodipodi:nodetypes="cccccc"
       style="fill:#ffffff;fill-opacity:0.1254902;fill-rule:evenodd;stroke:none;stroke-width:1px;stroke-linecap:butt;stroke-linejoin:miter;stroke-opacity:1"
       d="M 71.0625,95.1875 L 78.71875,92.34375 L 78.90625,92.78125 L 78.78125,93.65625 L 71.0625,96.53125 L 71.0625,95.1875 z"
       id="path3016" />
    <path
       sodipodi:nodetypes="cccccc"
       id="path3018"
       d="M 71.25,98.46875 L 78.8125,95.65625 L 79.03125,96.1875 L 78.90625,96.96875 L 71.25,99.8125 L 71.25,98.46875 z"
       style="fill:#ffffff;fill-opacity:0.1254902;fill-rule:evenodd;stroke:none;stroke-width:1px;stroke-linecap:butt;stroke-linejoin:miter;stroke-opacity:1" />
    <path
       sodipodi:nodetypes="cccccc"
       style="fill:#ffffff;fill-opacity:0.1254902;fill-rule:evenodd;stroke:none;stroke-width:1px;stroke-linecap:butt;stroke-linejoin:miter;stroke-opacity:1"
       d="M 71.3125,102 L 79.15625,99.1875 C 79.339293,99.27529 79.42094,99.464477 79.4375,99.71875 L 79.25,100.53125 L 71.3125,103.34375 L 71.3125,102 z"
       id="path3020" />
    <path
       sodipodi:nodetypes="cccccc"
       id="path3022"
       d="M 71.6875,105.6875 L 79.5,102.8125 L 79.90625,103.40625 C 79.895567,103.76028 79.897278,104.12051 79.5625,104.3125 L 71.6875,107.03125 L 71.6875,105.6875 z"
       style="fill:#ffffff;fill-opacity:0.1254902;fill-rule:evenodd;stroke:none;stroke-width:1px;stroke-linecap:butt;stroke-linejoin:miter;stroke-opacity:1" />
    <path
       sodipodi:nodetypes="cccccc"
       style="fill:#ffffff;fill-opacity:0.1254902;fill-rule:evenodd;stroke:none;stroke-width:1px;stroke-linecap:butt;stroke-linejoin:miter;stroke-opacity:1"
       d="M 71.875,108.8125 L 79.90625,106 L 80.0625,106.46875 L 79.96875,107.25 L 71.875,110.15625 L 71.875,108.8125 z"
       id="path3024" />
    <path
       sodipodi:nodetypes="cccccc"
       id="path3026"
       d="M 72.21875,112.21875 L 80.125,109.4375 L 80.375,110 L 80.28125,110.71875 L 72.21875,113.5625 L 72.21875,112.21875 z"
       style="fill:#ffffff;fill-opacity:0.1254902;fill-rule:evenodd;stroke:none;stroke-width:1px;stroke-linecap:butt;stroke-linejoin:miter;stroke-opacity:1" />
    <path
       style="fill:url(#linearGradient3500);fill-rule:evenodd;stroke:none;stroke-width:1px;stroke-linecap:butt;stroke-linejoin:miter;stroke-opacity:1"
       d="M 52,71.75 L 52.125,17.75 L 50.875,16.5 L 50.875,71 L 52,71.75 z"
       id="path3028" />
    <path
       style="fill:url(#linearGradient3498);fill-rule:evenodd;stroke:none;stroke-width:1px;stroke-linecap:butt;stroke-linejoin:miter;stroke-opacity:1"
       d="M 52.041892,72.075676 L 52.415203,18.02027 L 58.014865,23.022635 L 58.089527,42.957432 L 58.089527,69.4625 L 52.041892,72.075676 z"
       id="path3032" />
    <path
       style="fill:url(#linearGradient3496);fill-opacity:1;fill-rule:evenodd;stroke:none;stroke-width:1px;stroke-linecap:butt;stroke-linejoin:miter;stroke-opacity:1"
       d="M 52.340541,37.731081 L 60.926689,25.859797 L 59.433446,24.665203 L 52.265878,35.117905 L 52.340541,37.731081 z"
       id="path3036" />
    <path
       style="fill:url(#linearGradient3494);fill-rule:evenodd;stroke:none;stroke-width:1px;stroke-linecap:butt;stroke-linejoin:miter;stroke-opacity:1"
       d="M 52.788514,37.581757 L 60.852027,25.785135 L 65.182432,29.891554 L 58.014865,37.35777 L 52.788514,37.581757 z"
       id="path3040" />
    <path
       style="fill:url(#linearGradient3492);fill-rule:evenodd;stroke:none;stroke-width:1px;stroke-linecap:butt;stroke-linejoin:miter;stroke-opacity:1"
       d="M 50.772635,14.063176 L 72.723311,34.445946 L 72.797973,37.35777 L 50.772635,16.377703 L 50.772635,14.063176 z"
       id="path3044"
       sodipodi:nodetypes="ccccc" />
    <path
       style="fill:url(#linearGradient3490);fill-rule:evenodd;stroke:none;stroke-width:1px;stroke-linecap:butt;stroke-linejoin:miter;stroke-opacity:1"
       d="M 72.648649,34.371284 C 72.947297,34.371284 80.040203,31.534122 80.040203,31.534122 L 79.816216,34.669932 L 72.947297,37.35777 L 72.648649,36.984459 L 72.648649,34.371284 z"
       id="path3048" />
    <path
       style="fill:url(#linearGradient3488);fill-opacity:1;fill-rule:evenodd;stroke:none;stroke-width:1px;stroke-linecap:butt;stroke-linejoin:miter;stroke-opacity:1"
       d="M 50.921959,13.988513 L 72.499324,34.371284 L 79.965541,31.459459 L 72.499324,25.113176 L 56.745608,12.345946 L 50.921959,13.988513 z"
       id="path3052" />
    <path
       id="path3056"
       d="M 52,71.75 L 52.125,17.75 L 50.875,16.5 L 50.875,71 L 52,71.75 z"
       style="fill:#100000;fill-opacity:0;fill-rule:evenodd;stroke:none;stroke-width:1px;stroke-linecap:butt;stroke-linejoin:miter;stroke-opacity:1" />
    <path
       id="path3058"
       d="M 52.340541,37.731081 L 60.926689,25.859797 L 59.433446,24.665203 L 52.265878,35.117905 L 52.340541,37.731081 z"
       style="fill:#100000;fill-opacity:0;fill-rule:evenodd;stroke:none;stroke-width:1px;stroke-linecap:butt;stroke-linejoin:miter;stroke-opacity:1" />
    <path
       id="path3060"
       d="M 50.921959,13.988513 L 72.499324,34.371284 L 79.965541,31.459459 L 72.499324,25.113176 L 56.745608,12.345946 L 50.921959,13.988513 z"
       style="fill:#100000;fill-opacity:0;fill-rule:evenodd;stroke:none;stroke-width:1px;stroke-linecap:butt;stroke-linejoin:miter;stroke-opacity:1" />
    <path
       id="path3062"
       d="M 52,71.75 L 52.125,17.75 L 50.875,16.5 L 50.875,71 L 52,71.75 z"
       style="fill:#000000;fill-opacity:0.15686275;fill-rule:evenodd;stroke:none;stroke-width:1px;stroke-linecap:butt;stroke-linejoin:miter;stroke-opacity:1" />
    <path
       id="path3064"
       d="M 52.340541,37.731081 L 60.926689,25.859797 L 59.433446,24.665203 L 52.265878,35.117905 L 52.340541,37.731081 z"
       style="fill:#000000;fill-opacity:0.15686275;fill-rule:evenodd;stroke:none;stroke-width:1px;stroke-linecap:butt;stroke-linejoin:miter;stroke-opacity:1" />
    <path
       sodipodi:nodetypes="ccccc"
       id="path3066"
       d="M 50.772635,14.063176 L 72.723311,34.445946 L 72.797973,37.35777 L 50.772635,16.377703 L 50.772635,14.063176 z"
       style="fill:#000000;fill-opacity:0.15686275;fill-rule:evenodd;stroke:none;stroke-width:1px;stroke-linecap:butt;stroke-linejoin:miter;stroke-opacity:1" />
    <path
       style="fill:url(#linearGradient3486);fill-rule:evenodd;stroke:none;stroke-width:1px;stroke-linecap:butt;stroke-linejoin:miter;stroke-opacity:1"
       d="M 72.304306,37.056922 L 72.677081,42.415569 L 72.583888,45.956936 L 72.537291,50.89621 L 72.490694,53.692026 L 72.910066,53.412445 L 73.422632,53.505638 L 73.469229,53.132863 L 73.376035,47.541231 L 73.422632,40.411901 L 73.562423,37.010325 L 73.00326,37.383101 L 72.304306,37.056922 z"
       id="path3263" />
    <path
       style="fill:url(#linearGradient3484);fill-rule:evenodd;stroke:none;stroke-width:1px;stroke-linecap:butt;stroke-linejoin:miter;stroke-opacity:1"
       d="M 73.715054,53.61446 L 74.117346,52.67578 L 74.787832,51.021914 L 75.413618,50.127933 L 76.620493,48.652864 L 77.380377,49.189253 L 76.709891,49.81504 L 75.905308,50.977215 L 75.190123,51.960595 L 74.251443,53.837955 L 73.715054,53.61446 z"
       id="path3267" />
    <path
       style="fill:url(#linearGradient3482);fill-rule:evenodd;stroke:none;stroke-width:1px;stroke-linecap:butt;stroke-linejoin:miter;stroke-opacity:1"
       d="M 72.8125,53.40625 L 71.84375,54.09375 L 71.25,55.5 L 70.4375,57.5 L 69.96875,59.875 L 69.5,61.40625 L 69.25,63.09375 L 69.1875,65.71875 L 69.28125,66.21875 L 69.8125,66.84375 L 70.9375,67.28125 L 71.625,67.5625 L 72.5625,67.875 L 73.5,67.90625 L 74.65625,67.875 L 75.875,67.75 L 76.5625,67.25 L 77.057755,66.526898 L 77.375,64.6875 L 76.9375,61.84375 L 76.125,58.40625 L 75.25,55.34375 L 74.5625,54.25 L 73.65625,53.46875 L 72.8125,53.40625 z M 72.96875,54.15625 L 73.90625,54.5 L 74.375,55.09375 L 74.84375,55.9375 L 75.40625,58.1875 L 75.5,59.90625 L 76.34375,62.46875 L 76.875,64.84375 L 76.625,66.125 L 75.9375,67.03125 L 75.25,67.4375 L 74.75,67.28125 L 73.34375,67.0625 L 72.375,66.9375 L 71.15625,66.5 L 70.3125,66.09375 L 69.8125,65.71875 L 69.8125,64.75 L 69.90625,63.21875 L 70.1875,62.15625 L 70.84375,59.46875 L 71.0625,58.125 L 71.46875,56.4375 L 72.03125,54.875 L 72.96875,54.15625 z"
       id="path3271"
       sodipodi:nodetypes="cccccccccccccccccccccccccccccccccccccccccccccccccc" />
  </g>
  <g
     inkscape:label="outline"
     inkscape:groupmode="layer"
     id="layer1">
    <path
       style="fill:#000000;fill-opacity:1;fill-rule:evenodd;stroke:none;stroke-width:1px;stroke-linecap:butt;stroke-linejoin:miter;stroke-opacity:1"
       d="M 56.71875,12.1875 L 50.375,14.09375 L 50.5,14.21875 L 50.59375,16.375 L 50.75,16.5 L 50.53125,16.375 L 50.6875,70.03125 L 37.78125,75.71875 L 36.59375,77.78125 L 38.53125,80.0625 L 40.09375,80.84375 L 40.1875,80.9375 L 39.375,93.46875 C 39.022668,95.284698 39.902939,96.96993 41.375,95.4375 L 42.09375,82.65625 L 43.0625,83.53125 L 43.4375,83.46875 L 44.5,83.28125 L 45.9375,84.84375 L 45.375,85.8125 L 50.03125,88.46875 L 51.78125,91.4375 L 53.40625,91.46875 L 55.59375,94.5 L 55.4375,97.3125 L 59.34375,98.34375 L 58.875,113.15625 C 57.660066,115.06341 60.712035,117.85043 61.1875,114.9375 L 61.6875,97.375 L 69.21875,94.28125 L 70.625,115.46875 C 71.072507,116.78239 72.503671,116.49766 72.40625,114.96875 L 72.34375,113.71875 L 79.8125,111.0625 L 79.96875,112.3125 C 80.71542,113.54296 82.08315,112.81626 81.71875,111.78125 L 79.375,90.09375 L 88.46875,86.3125 L 89.6875,109.03125 C 90.463311,110.66009 91.858289,110.15645 91.96875,108.34375 L 90.46875,85.5 L 93.6875,84.15625 L 93.53125,82.6875 L 89.5625,78.25 L 85.03125,75.96875 L 85.53125,74.96875 L 81.71875,73.4375 L 81.90625,72.53125 L 79,70 L 77.6875,70.0625 L 75.96875,67.8125 C 77.334658,67.2962 77.6087,65.947771 77.34375,63.78125 C 77.170942,62.524965 76.901054,61.02593 76.5625,59.5625 C 76.223946,58.09907 75.828426,56.664072 75.40625,55.5625 C 75.141228,54.775051 74.798498,54.260026 74.3125,53.875 C 75.160715,52.180058 76.129171,50.563622 77.4375,49.15625 L 76.59375,48.53125 C 75.079455,49.877277 74.302706,51.63128 73.59375,53.4375 C 73.585157,53.4336 73.571164,53.441367 73.5625,53.4375 C 73.527333,48.020833 73.289697,42.604167 73.6875,37.1875 L 80.125,34.78125 L 80.15625,31.5 L 80.5625,31.34375 L 76,27.6875 L 76.15625,27.59375 L 75.46875,27.25 L 56.71875,12.1875 z M 56.625,12.59375 L 74.8125,27.40625 L 68.34375,30.1875 L 51.5,14.34375 L 56.625,12.59375 z M 51.25,14.90625 L 68,30.625 L 67.65625,32 L 51.15625,16.21875 L 51.25,14.90625 z M 50.90625,16.75 L 51.53125,17.28125 L 52,17.71875 L 51.875,71.5625 L 50.96875,70.40625 L 50.90625,16.75 z M 52.46875,18.15625 L 57.71875,23.15625 L 57.71875,26.84375 L 52.40625,34.375 L 52.46875,18.15625 z M 58.28125,23.6875 L 59.28125,24.625 L 58.28125,26.03125 L 58.28125,23.6875 z M 59.5,24.875 L 60.375,25.6875 L 52.375,37.6875 L 52.40625,35.1875 L 58.125,26.84375 L 58.28125,26.8125 L 58.28125,26.65625 L 59.5,24.875 z M 60.84375,26.15625 L 64.6875,29.78125 L 58.125,36.90625 L 57.71875,36.90625 L 57.71875,36.9375 L 53.1875,37.25 L 60.84375,26.15625 z M 75.5,28 L 76.9375,29.15625 L 69.84375,31.46875 L 75.5,28 z M 74,28.40625 L 69.40625,31.1875 L 68.71875,30.5625 L 74,28.40625 z M 77.6875,29.78125 L 79.5,31.25 L 72.5,34.09375 L 70.03125,31.78125 L 70.03125,31.6875 L 77.6875,29.78125 z M 65.09375,30.1875 L 67.53125,32.5 L 67.4375,32.84375 L 67.8125,33.15625 L 68.0625,33.03125 L 69.5625,34.46875 L 69.5625,34.8125 L 70.15625,35.03125 L 72.1875,36.9375 C 72.727153,42.549597 72.431683,47.99467 72.4375,53.5 C 70.982557,54.674453 70.508563,57.465907 69.875,59.28125 C 69.553701,60.486635 69.260731,61.635611 69.125,62.875 L 67.84375,62.46875 L 58.28125,66.6875 L 58.28125,37.1875 L 65.09375,30.1875 z M 68.3125,30.90625 L 69.40625,31.9375 L 68.34375,32.46875 L 68.3125,30.90625 z M 79.71875,31.6875 L 79.46875,34.53125 L 72.96875,36.9375 L 72.8125,34.5625 L 79.71875,31.6875 z M 69.65625,32.25 L 69.59375,33.875 L 68.5,32.8125 L 69.65625,32.25 z M 70.125,32.59375 L 72.40625,34.75 L 72.34375,36.5 L 70.3125,34.5625 L 70.125,32.59375 z M 73.34375,53.34375 C 73.205639,53.289798 73.093197,53.236248 72.9375,53.1875 C 72.821778,53.243062 72.699368,53.302258 72.59375,53.375 C 72.654442,48.015094 72.913395,42.523014 72.65625,37.375 L 72.75,37.46875 L 72.75,37.53125 L 72.78125,37.53125 L 73,37.71875 L 73.397748,37.393306 C 72.92754,42.710121 73.277477,48.026935 73.34375,53.34375 z M 57.71875,37.4375 L 57.96875,66.8125 L 57.96875,67.34375 L 58,69.28125 L 52.25,71.84375 L 52.375,38 L 57.71875,37.4375 z M 76.6875,48.75 L 77.1875,49.15625 C 75.865594,50.505171 74.924289,52.079486 74.125,53.71875 C 74.06955,53.681804 73.99677,53.659297 73.9375,53.625 C 74.554691,51.923572 75.151405,50.221704 76.6875,48.75 z M 72.84375,53.59375 C 72.908062,53.583607 72.972569,53.6033 73.03125,53.625 C 73.870531,53.571624 74.684524,54.846901 75.125,55.59375 C 75.519042,56.621909 75.855785,58.159883 76.1875,59.59375 C 76.519212,61.027617 76.957267,62.78061 77.125,64 C 77.627703,66.704279 76.287997,67.809121 73.6875,67.8125 C 72.151455,67.689617 70.097895,67.039327 69.5,66.375 C 68.916681,64.379011 69.531859,61.523708 70.125,59.59375 C 70.346482,57.336948 71.87907,53.745901 72.84375,53.59375 z M 73.21875,54 C 71.44706,54.452991 71.040941,57.433259 70.84375,58.78125 C 70.218213,60.332085 69.690968,64.011628 69.6875,65.65625 C 70.424344,67.236105 73.738447,66.929776 75.28125,67.5625 C 78.432458,65.85266 76.082645,62.204179 75.78125,60.0625 C 75.434757,58.321108 75.360961,54.827464 73.21875,54 z M 73.1875,54.28125 C 75.31942,55.161842 75.283345,58.311488 75.5,60.34375 C 75.809505,62.209958 78.296989,65.681703 75.25,67.375 C 74.919625,67.287429 74.463054,67.203756 73.96875,67.09375 C 73.959402,67.09167 73.946883,67.095841 73.9375,67.09375 L 70.46875,64.75 L 70.75,63.40625 L 70.1875,63.21875 C 70.434865,61.643915 70.801854,59.877695 71.09375,59.03125 C 71.399478,57.527243 71.576342,54.477353 73.1875,54.28125 z M 67.78125,62.8125 L 69.09375,63.15625 C 69.040395,63.757235 69.059034,64.39611 69.09375,65.0625 L 39.84375,78.90625 L 38.6875,76.21875 L 50.6875,70.6875 L 50.6875,71.03125 L 52.0625,72.28125 L 58.25,69.4375 L 58.28125,67.1875 L 67.78125,62.8125 z M 70.15625,63.4375 L 70.4375,63.5 L 70.0625,64.59375 L 70,64.625 C 70.044135,64.255162 70.088315,63.88273 70.15625,63.4375 z M 70.0625,65.125 L 72.71875,66.78125 C 71.546821,66.479744 70.382958,66.088389 69.90625,65.53125 C 69.911734,65.446148 69.928348,65.288109 69.9375,65.1875 L 70.0625,65.125 z M 69.125,65.5625 C 69.146792,65.810714 69.151011,66.051686 69.1875,66.3125 C 70.134916,67.365183 71.935335,67.887311 73.625,68.03125 L 43.5,81.8125 L 41.09375,79.6875 L 40.46875,79.09375 L 69.125,65.5625 z M 75.15625,68 L 77.125,70.09375 L 69.40625,73.90625 C 68.127133,73.566322 66.62247,73.635371 65.21875,73.875 C 61.970899,74.636287 59.419876,76.475835 58.3125,79.4375 L 47.28125,84.90625 L 45.3125,81.71875 L 75.15625,68 z M 78.46875,70.3125 L 81.5625,72.625 L 81.15625,73.375 L 72.4375,77.4375 C 72.445274,77.404109 72.461298,77.377386 72.46875,77.34375 C 72.201897,75.631508 71.261563,74.661246 70.03125,74.15625 L 77.34375,70.46875 L 78.46875,70.3125 z M 81.1875,74 L 85.15625,75.0625 L 84.4375,76.09375 L 52.8125,90.40625 L 51.53125,87.96875 L 60.34375,83.8125 C 61.742872,84.405789 63.546163,84.379277 65.21875,84.09375 C 68.598454,83.305053 71.21156,81.377153 72.25,78.21875 L 81.1875,74 z M 67,74.25 C 71.079276,74.270107 72.318264,75.982897 71.71875,78 C 69.951683,73.893491 65.628272,74.430786 61.90625,75.65625 C 62.710857,75.183281 63.745552,74.75915 65.21875,74.34375 C 65.858465,74.284682 66.460472,74.247341 67,74.25 z M 66.5625,75.03125 C 68.59778,75.071693 70.410272,75.976484 71.59375,78.375 C 71.384815,78.887702 71.046165,79.416523 70.625,79.9375 L 66.5625,75.03125 z M 65.96875,75.0625 L 70.28125,80.34375 C 69.447317,81.257706 68.319266,82.120779 66.96875,82.84375 L 62.28125,75.875 C 63.538619,75.438926 64.773649,75.127186 65.96875,75.0625 z M 61.59375,76.125 L 66.40625,83.125 C 66.076722,83.283835 65.757457,83.455008 65.40625,83.59375 C 64.379681,83.755421 63.354001,83.884245 62.375,83.84375 C 62.25185,83.635762 59.617191,79.218372 59.28125,78.65625 C 59.712753,77.792199 60.141516,77.041115 60.84375,76.40625 C 61.090905,76.305394 61.344645,76.219396 61.59375,76.125 z M 37.9375,76.21875 L 39.4375,79.25 L 39.53125,79.3125 L 39.53125,80.21875 C 39.267822,80.16463 39.001327,80.11424 38.75,79.90625 L 37.125,77.6875 L 37.9375,76.21875 z M 85,76.5625 L 88.8125,78.28125 L 56.75,93.09375 L 54.59375,90.3125 L 85,76.5625 z M 89.375,78.84375 L 92.4375,82.28125 L 79.125,87.78125 L 79.03125,86.96875 C 78.643885,86.778859 78.310785,86.649566 78,86.78125 C 77.828419,86.80814 77.643848,86.964995 77.4375,87.46875 L 77.53125,88.4375 L 70.8125,91.1875 L 70.65625,89.25 C 69.827834,89.097506 69.53306,89.113215 68.9375,90.125 L 69.0625,91.90625 L 59.90625,95.6875 L 56.5625,96.28125 L 57.46875,93.4375 C 59.727605,92.401298 88.860066,79.075604 89.375,78.84375 z M 58.96875,79.25 C 59.453178,80.056793 61.421628,83.39073 61.65625,83.78125 C 60.795422,83.645979 59.983565,83.332391 59.25,82.65625 C 58.408306,82.197708 58.604736,82.029831 58.3125,80.90625 C 58.326247,80.54216 58.753075,79.598343 58.96875,79.25 z M 39.8125,79.4375 L 40.53125,79.8125 L 43.125,82.0625 L 43,82.84375 C 41.991711,81.985538 41.228403,81.36048 40.1875,80.5 C 40.091585,80.42071 40.005096,80.384501 39.90625,80.34375 L 39.8125,79.4375 z M 58.0625,80.15625 C 58.02189,80.303258 58.002698,80.4417 57.96875,80.59375 C 58.175495,81.945578 58.778521,82.864473 59.625,83.4375 L 51,87.46875 L 47.34375,85.5625 L 58.0625,80.15625 z M 40.53125,81.21875 L 41.71875,82.3125 L 41.03125,95.0625 C 40.335853,96.578858 39.550139,94.95303 39.71875,93.78125 L 40.53125,81.21875 z M 44.84375,81.96875 L 46.59375,84.59375 L 46.625,85.28125 L 46.25,85.9375 C 46.152574,85.864485 46.050876,85.796421 45.96875,85.71875 C 45.809036,85.5677 46.566502,84.993084 46.40625,84.84375 C 45.766268,84.247373 45.399592,83.606436 44.78125,83.03125 L 44.75,82 L 44.84375,81.96875 z M 44.34375,82.0625 L 44.28125,82.84375 C 43.950095,82.883216 43.523578,83.033424 43.28125,83 L 43.4375,82.21875 L 44.34375,82.0625 z M 93.09375,82.84375 L 93.1875,83.9375 L 79.3125,89.53125 L 79.1875,88.4375 L 93.09375,82.84375 z M 90.125,85.625 L 91.59375,108.375 C 91.576071,109.65318 90.438419,109.9818 90.0625,108.90625 L 88.90625,86.125 L 90.125,85.625 z M 46.71875,85.6875 L 50.4375,87.84375 L 50.34375,88.15625 C 49.102884,87.344792 47.736034,86.7538 46.46875,86.09375 L 46.71875,85.6875 z M 78.25,86.96875 C 78.47548,87.020774 78.642421,87.258766 78.65625,87.40625 L 81.375,111.8125 C 81.431114,112.69746 80.725443,112.88888 80.21875,111.9375 L 80.09375,110.96875 L 80.375,110.875 C 80.598683,110.26697 80.429182,109.77418 80.25,109.28125 L 79.9375,109.40625 L 79.71875,107.40625 L 80.125,107.25 C 80.156023,106.78474 80.448116,106.30902 79.9375,105.84375 L 79.59375,105.96875 L 79.40625,104.4375 L 79.75,104.3125 C 80.182382,103.63919 80.075336,103.12543 79.625,102.6875 L 79.28125,102.8125 L 79.03125,100.6875 L 79.25,100.625 C 79.678885,99.94493 79.53952,99.3367 79.25,99.0625 L 78.90625,99.1875 L 78.6875,97.1875 L 79.03125,97.0625 C 79.28352,96.412288 79.072677,95.98775 79,95.5 L 78.53125,95.65625 L 78.34375,93.90625 L 78.78125,93.75 C 79.050163,93.104338 79.00982,92.5529 78.75,92.1875 L 78.21875,92.375 L 78,90.375 L 78.5,90.15625 C 78.654145,89.763088 78.81594,89.339317 78.375,89 L 77.875,89.1875 L 77.71875,87.6875 C 77.765863,87.364991 77.864815,87.034197 78,87 C 78.08041,86.971299 78.17484,86.951408 78.25,86.96875 z M 50.6875,88 L 50.84375,88.09375 L 52.1875,90.28125 L 52.125,91.03125 C 52.118706,91.027278 52.098484,91.03604 52.09375,91.03125 C 51.406664,90.335898 51.277832,89.117388 50.59375,88.375 L 50.6875,88 z M 77.59375,89.0625 L 77.625,89.28125 L 70.84375,91.84375 L 70.84375,91.78125 L 77.59375,89.0625 z M 78.21875,89.1875 C 78.323363,89.381488 78.573703,89.694489 78.34375,90 L 70.90625,93 L 70.875,92.125 L 78.21875,89.1875 z M 69.71875,89.59375 C 69.917521,89.569151 70.162608,89.657617 70.40625,89.8125 L 72.09375,114.96875 C 72.144407,116.78447 70.699253,115.89714 70.96875,115.34375 L 69.3125,90.09375 C 69.438906,89.779677 69.519978,89.618348 69.71875,89.59375 z M 77.75,90.46875 L 77.9375,92.46875 L 71.0625,94.90625 L 71,93.34375 L 77.75,90.46875 z M 52.375,90.5625 L 52.40625,90.625 L 53.4375,90.59375 L 53.4375,91.03125 C 53.242968,90.956918 52.657376,91.09038 52.3125,91.09375 L 52.375,90.5625 z M 53.875,90.5625 L 53.96875,90.5625 L 56.625,93.65625 L 56.21875,96.75 L 56.0625,97.09375 C 56.032213,97.071598 55.992963,97.05826 55.96875,97.03125 C 55.457185,96.460698 56.234418,95.01989 55.96875,94.34375 C 55.441494,92.999258 54.677434,92.27561 53.75,91.3125 L 53.875,90.5625 z M 69.09375,92.46875 L 69.15625,93.625 L 59.875,97.375 C 59.784504,96.999548 59.687526,96.60682 59.625,96.28125 L 69.09375,92.46875 z M 78.625,92.46875 C 79.011207,92.762508 78.870854,93.47427 78.625,93.59375 L 71.15625,96.25 L 71.0625,95.25 L 78.625,92.46875 z M 78.09375,94 L 78.28125,95.75 L 71.28125,98.21875 L 71.15625,96.59375 L 78.09375,94 z M 78.8125,95.71875 C 78.827835,96.050388 79.232551,96.29904 78.875,96.84375 L 71.375,99.53125 L 71.3125,98.53125 L 78.8125,95.71875 z M 59.3125,96.375 C 59.338248,96.726538 59.403575,97.06701 59.5,97.40625 C 58.867915,97.045758 57.378792,97.39165 56.5,97.25 L 56.65625,96.6875 L 59.3125,96.375 z M 78.40625,97.28125 L 78.65625,99.28125 L 71.53125,101.78125 L 71.40625,99.8125 L 78.40625,97.28125 z M 61.125,97.625 L 60.71875,114.8125 C 59.963529,117.04651 58.805273,114.54787 59.375,112.8125 L 59.75,98.1875 L 61.125,97.625 z M 79.15625,99.25 C 79.629227,99.41858 79.374116,100.05668 79.15625,100.4375 L 71.625,103.03125 L 71.53125,102.03125 L 79.15625,99.25 z M 78.78125,100.78125 L 79,102.90625 L 71.78125,105.40625 L 71.65625,103.375 L 78.78125,100.78125 z M 79.4375,102.96875 C 79.783969,103.21471 79.985578,103.70587 79.625,104.1875 L 71.875,106.78125 L 71.84375,105.71875 L 79.4375,102.96875 z M 79.15625,104.5 L 79.34375,106.0625 L 72,108.625 L 71.90625,107.09375 L 79.15625,104.5 z M 79.84375,106.0625 C 80.078494,106.38908 80.111232,106.73955 79.875,107.125 L 72.09375,109.9375 L 72.03125,108.9375 L 79.84375,106.0625 z M 79.46875,107.46875 L 79.6875,109.46875 L 72.25,112.0625 L 72.125,110.28125 L 79.46875,107.46875 z M 80.09375,109.59375 C 80.303753,109.87361 80.419092,110.20053 80.21875,110.65625 L 72.34375,113.34375 L 72.28125,112.40625 L 80.09375,109.59375 z"
       id="path2308"
       sodipodi:nodetypes="ccccccccccccccccccccccccccccccccccccccccccccccccccccscccccccccccccccccccccccccccccccccccccccccccccccccccccccccccccccccccccccccccccccccccccccccccccccccccccccccccccccccccccccccccccccsccccccccccccccsccccccccccccccccccccccccccccccccccccccccccccccccccccccccccccccccccccccccccccccccccccccccccccccccccccccccccccccccccccscccccccccccccccccssccccccccccccccccccccccccccccccccccccccccccccccccccccccccscccccsccccccccccccccccccccccccccccccccccsscccccccccccccccccccccccccccccccccccccccccccccccccccccccccccccccccccccccc" />
  </g>
</svg>
