<?xml version="1.0" encoding="UTF-8" standalone="no"?>
<!-- Created with Inkscape (http://www.inkscape.org/) -->
<svg
   xmlns:dc="http://purl.org/dc/elements/1.1/"
   xmlns:cc="http://creativecommons.org/ns#"
   xmlns:rdf="http://www.w3.org/1999/02/22-rdf-syntax-ns#"
   xmlns:svg="http://www.w3.org/2000/svg"
   xmlns="http://www.w3.org/2000/svg"
   xmlns:xlink="http://www.w3.org/1999/xlink"
   xmlns:sodipodi="http://sodipodi.sourceforge.net/DTD/sodipodi-0.dtd"
   xmlns:inkscape="http://www.inkscape.org/namespaces/inkscape"
   width="128"
   height="128"
   id="svg2"
   sodipodi:version="0.32"
   inkscape:version="0.45+devel"
   version="1.0"
   sodipodi:docname="gallows_outline.svg"
   inkscape:output_extension="org.inkscape.output.svg.inkscape">
  <defs
     id="defs4">
    <filter
       height="1.42432"
       y="-0.21216"
       width="1.2179726"
       x="-0.1089863"
       id="filter2892"
       inkscape:collect="always">
      <feGaussianBlur
         id="feGaussianBlur2894"
         stdDeviation="0.72146876"
         inkscape:collect="always" />
    </filter>
    <radialGradient
       r="8.2519293"
       fy="222.04396"
       fx="14.207293"
       cy="222.04396"
       cx="14.207293"
       gradientTransform="scale(1.39523,0.716728)"
       gradientUnits="userSpaceOnUse"
       id="radialGradient1968"
       xlink:href="#linearGradient2057"
       inkscape:collect="always" />
    <linearGradient
       inkscape:collect="always"
       id="linearGradient2057">
      <stop
         style="stop-color:#000000;stop-opacity:1;"
         offset="0"
         id="stop2059" />
      <stop
         style="stop-color:#000000;stop-opacity:0;"
         offset="1"
         id="stop2061" />
    </linearGradient>
  </defs>
  <sodipodi:namedview
     id="base"
     pagecolor="#ffffff"
     bordercolor="#666666"
     borderopacity="1.0"
     gridtolerance="10000"
     guidetolerance="10"
     objecttolerance="10"
     inkscape:pageopacity="0.0"
     inkscape:pageshadow="2"
     inkscape:zoom="1"
     inkscape:cx="64"
     inkscape:cy="64"
     inkscape:document-units="px"
     inkscape:current-layer="layer1"
     showgrid="false"
     width="744.09px"
     inkscape:window-width="1248"
     inkscape:window-height="975"
     inkscape:window-x="426"
     inkscape:window-y="24"
     showguides="true"
     inkscape:guide-bbox="true" />
  <metadata
     id="metadata7">
    <rdf:RDF>
      <cc:Work
         rdf:about="">
        <dc:format>image/svg+xml</dc:format>
        <dc:type
           rdf:resource="http://purl.org/dc/dcmitype/StillImage" />
      </cc:Work>
    </rdf:RDF>
  </metadata>
  <g
     inkscape:label="Layer 1"
     inkscape:groupmode="layer"
     id="layer1">
    <path
       style="fill:#5c2700;fill-opacity:1;fill-rule:evenodd;stroke:none;stroke-width:1px;stroke-linecap:butt;stroke-linejoin:miter;stroke-opacity:1"
       d="M 52.71875,9.1875 L 46.375,11.09375 L 46.5,11.21875 L 46.59375,13.375 L 46.75,13.5 L 46.53125,13.375 L 46.6875,67.03125 L 33.78125,72.71875 L 32.59375,74.78125 L 34.53125,77.0625 L 36.09375,77.84375 L 36.1875,77.9375 L 35.375,90.46875 C 35.022668,92.284698 35.902939,93.96993 37.375,92.4375 L 38.09375,79.65625 L 39.0625,80.53125 L 39.4375,80.46875 L 40.5,80.28125 L 41.9375,81.84375 L 41.375,82.8125 L 46.03125,85.46875 L 47.78125,88.4375 L 49.40625,88.46875 L 51.59375,91.5 L 51.4375,94.3125 L 55.34375,95.34375 L 54.875,110.15625 C 53.660066,112.06341 56.712035,114.85043 57.1875,111.9375 L 57.6875,94.375 L 65.21875,91.28125 L 66.625,112.46875 C 67.072507,113.78239 68.503671,113.49766 68.40625,111.96875 L 68.34375,110.71875 L 75.8125,108.0625 L 75.96875,109.3125 C 76.71542,110.54296 78.08315,109.81626 77.71875,108.78125 L 75.375,87.09375 L 84.46875,83.3125 L 85.6875,106.03125 C 86.463311,107.66009 87.858289,107.15645 87.96875,105.34375 L 86.46875,82.5 L 89.6875,81.15625 L 89.53125,79.6875 L 85.5625,75.25 L 81.03125,72.96875 L 81.53125,71.96875 L 77.71875,70.4375 L 77.90625,69.53125 L 75,67 L 73.6875,67.0625 L 71.96875,64.8125 C 73.334658,64.2962 73.6087,62.947771 73.34375,60.78125 C 73.170942,59.524965 72.901054,58.02593 72.5625,56.5625 C 72.223946,55.09907 71.828426,53.664072 71.40625,52.5625 C 71.141228,51.775051 70.798498,51.260026 70.3125,50.875 C 71.160715,49.180058 72.129171,47.563622 73.4375,46.15625 L 72.59375,45.53125 C 71.079455,46.877277 70.302706,48.63128 69.59375,50.4375 C 69.585157,50.4336 69.571164,50.441367 69.5625,50.4375 C 69.527333,45.020833 69.289697,39.604167 69.6875,34.1875 L 76.125,31.78125 L 76.15625,28.5 L 76.5625,28.34375 L 72,24.6875 L 72.15625,24.59375 L 71.46875,24.25 L 52.71875,9.1875 z M 52.625,9.59375 L 70.8125,24.40625 L 64.34375,27.1875 L 47.5,11.34375 L 52.625,9.59375 z M 47.25,11.90625 L 64,27.625 L 63.65625,29 L 47.15625,13.21875 L 47.25,11.90625 z M 46.90625,13.75 L 47.53125,14.28125 L 48,14.71875 L 47.875,68.5625 L 46.96875,67.40625 L 46.90625,13.75 z M 48.46875,15.15625 L 53.71875,20.15625 L 53.71875,23.84375 L 48.40625,31.375 L 48.46875,15.15625 z M 54.28125,20.6875 L 55.28125,21.625 L 54.28125,23.03125 L 54.28125,20.6875 z M 55.5,21.875 L 56.375,22.6875 L 48.375,34.6875 L 48.40625,32.1875 L 54.125,23.84375 L 54.28125,23.8125 L 54.28125,23.65625 L 55.5,21.875 z M 56.84375,23.15625 L 60.6875,26.78125 L 54.125,33.90625 L 53.71875,33.90625 L 53.71875,33.9375 L 49.1875,34.25 L 56.84375,23.15625 z M 71.5,25 L 72.9375,26.15625 L 65.84375,28.46875 L 71.5,25 z M 70,25.40625 L 65.40625,28.1875 L 64.71875,27.5625 L 70,25.40625 z M 73.6875,26.78125 L 75.5,28.25 L 68.5,31.09375 L 66.03125,28.78125 L 66.03125,28.6875 L 73.6875,26.78125 z M 61.09375,27.1875 L 63.53125,29.5 L 63.4375,29.84375 L 63.8125,30.15625 L 64.0625,30.03125 L 65.5625,31.46875 L 65.5625,31.8125 L 66.15625,32.03125 L 68.1875,33.9375 C 68.727153,39.549597 68.431683,44.99467 68.4375,50.5 C 66.982557,51.674453 66.508563,54.465907 65.875,56.28125 C 65.553701,57.486635 65.260731,58.635611 65.125,59.875 L 63.84375,59.46875 L 54.28125,63.6875 L 54.28125,34.1875 L 61.09375,27.1875 z M 64.3125,27.90625 L 65.40625,28.9375 L 64.34375,29.46875 L 64.3125,27.90625 z M 75.71875,28.6875 L 75.46875,31.53125 L 68.96875,33.9375 L 68.8125,31.5625 L 75.71875,28.6875 z M 65.65625,29.25 L 65.59375,30.875 L 64.5,29.8125 L 65.65625,29.25 z M 66.125,29.59375 L 68.40625,31.75 L 68.34375,33.5 L 66.3125,31.5625 L 66.125,29.59375 z M 69.34375,50.34375 C 69.205639,50.289798 69.093197,50.236248 68.9375,50.1875 C 68.821778,50.243062 68.699368,50.302258 68.59375,50.375 C 68.654442,45.015094 68.913395,39.523014 68.65625,34.375 L 68.75,34.46875 L 68.75,34.53125 L 68.78125,34.53125 L 69,34.71875 L 69.397748,34.393306 C 68.92754,39.710121 69.277477,45.026935 69.34375,50.34375 z M 53.71875,34.4375 L 53.96875,63.8125 L 53.96875,64.34375 L 54,66.28125 L 48.25,68.84375 L 48.375,35 L 53.71875,34.4375 z M 72.6875,45.75 L 73.1875,46.15625 C 71.865594,47.505171 70.924289,49.079486 70.125,50.71875 C 70.06955,50.681804 69.99677,50.659297 69.9375,50.625 C 70.554691,48.923572 71.151405,47.221704 72.6875,45.75 z M 68.84375,50.59375 C 68.908062,50.583607 68.972569,50.6033 69.03125,50.625 C 69.870531,50.571624 70.684524,51.846901 71.125,52.59375 C 71.519042,53.621909 71.855785,55.159883 72.1875,56.59375 C 72.519212,58.027617 72.957267,59.78061 73.125,61 C 73.627703,63.704279 72.287997,64.809121 69.6875,64.8125 C 68.151455,64.689617 66.097895,64.039327 65.5,63.375 C 64.916681,61.379011 65.531859,58.523708 66.125,56.59375 C 66.346482,54.336948 67.87907,50.745901 68.84375,50.59375 z M 69.21875,51 C 67.44706,51.452991 67.040941,54.433259 66.84375,55.78125 C 66.218213,57.332085 65.690968,61.011628 65.6875,62.65625 C 66.424344,64.236105 69.738447,63.929776 71.28125,64.5625 C 74.432458,62.85266 72.082645,59.204179 71.78125,57.0625 C 71.434757,55.321108 71.360961,51.827464 69.21875,51 z M 69.1875,51.28125 C 71.31942,52.161842 71.283345,55.311488 71.5,57.34375 C 71.809505,59.209958 74.296989,62.681703 71.25,64.375 C 70.919625,64.287429 70.463054,64.203756 69.96875,64.09375 C 69.959402,64.09167 69.946883,64.095841 69.9375,64.09375 L 66.46875,61.75 L 66.75,60.40625 L 66.1875,60.21875 C 66.434865,58.643915 66.801854,56.877695 67.09375,56.03125 C 67.399478,54.527243 67.576342,51.477353 69.1875,51.28125 z M 63.78125,59.8125 L 65.09375,60.15625 C 65.040395,60.757235 65.059034,61.39611 65.09375,62.0625 L 35.84375,75.90625 L 34.6875,73.21875 L 46.6875,67.6875 L 46.6875,68.03125 L 48.0625,69.28125 L 54.25,66.4375 L 54.28125,64.1875 L 63.78125,59.8125 z M 66.15625,60.4375 L 66.4375,60.5 L 66.0625,61.59375 L 66,61.625 C 66.044135,61.255162 66.088315,60.88273 66.15625,60.4375 z M 66.0625,62.125 L 68.71875,63.78125 C 67.546821,63.479744 66.382958,63.088389 65.90625,62.53125 C 65.911734,62.446148 65.928348,62.288109 65.9375,62.1875 L 66.0625,62.125 z M 65.125,62.5625 C 65.146792,62.810714 65.151011,63.051686 65.1875,63.3125 C 66.134916,64.365183 67.935335,64.887311 69.625,65.03125 L 39.5,78.8125 L 37.09375,76.6875 L 36.46875,76.09375 L 65.125,62.5625 z M 71.15625,65 L 73.125,67.09375 L 65.40625,70.90625 C 64.127133,70.566322 62.62247,70.635371 61.21875,70.875 C 57.970899,71.636287 55.419876,73.475835 54.3125,76.4375 L 43.28125,81.90625 L 41.3125,78.71875 L 71.15625,65 z M 74.46875,67.3125 L 77.5625,69.625 L 77.15625,70.375 L 68.4375,74.4375 C 68.445274,74.404109 68.461298,74.377386 68.46875,74.34375 C 68.201897,72.631508 67.261563,71.661246 66.03125,71.15625 L 73.34375,67.46875 L 74.46875,67.3125 z M 77.1875,71 L 81.15625,72.0625 L 80.4375,73.09375 L 48.8125,87.40625 L 47.53125,84.96875 L 56.34375,80.8125 C 57.742872,81.405789 59.546163,81.379277 61.21875,81.09375 C 64.598454,80.305053 67.21156,78.377153 68.25,75.21875 L 77.1875,71 z M 63,71.25 C 67.079276,71.270107 68.318264,72.982897 67.71875,75 C 65.951683,70.893491 61.628272,71.430786 57.90625,72.65625 C 58.710857,72.183281 59.745552,71.75915 61.21875,71.34375 C 61.858465,71.284682 62.460472,71.247341 63,71.25 z M 62.5625,72.03125 C 64.59778,72.071693 66.410272,72.976484 67.59375,75.375 C 67.384815,75.887702 67.046165,76.416523 66.625,76.9375 L 62.5625,72.03125 z M 61.96875,72.0625 L 66.28125,77.34375 C 65.447317,78.257706 64.319266,79.120779 62.96875,79.84375 L 58.28125,72.875 C 59.538619,72.438926 60.773649,72.127186 61.96875,72.0625 z M 57.59375,73.125 L 62.40625,80.125 C 62.076722,80.283835 61.757457,80.455008 61.40625,80.59375 C 60.379681,80.755421 59.354001,80.884245 58.375,80.84375 C 58.25185,80.635762 55.617191,76.218372 55.28125,75.65625 C 55.712753,74.792199 56.141516,74.041115 56.84375,73.40625 C 57.090905,73.305394 57.344645,73.219396 57.59375,73.125 z M 33.9375,73.21875 L 35.4375,76.25 L 35.53125,76.3125 L 35.53125,77.21875 C 35.267822,77.16463 35.001327,77.11424 34.75,76.90625 L 33.125,74.6875 L 33.9375,73.21875 z M 81,73.5625 L 84.8125,75.28125 L 52.75,90.09375 L 50.59375,87.3125 L 81,73.5625 z M 85.375,75.84375 L 88.4375,79.28125 L 75.125,84.78125 L 75.03125,83.96875 C 74.643885,83.778859 74.310785,83.649566 74,83.78125 C 73.828419,83.80814 73.643848,83.964995 73.4375,84.46875 L 73.53125,85.4375 L 66.8125,88.1875 L 66.65625,86.25 C 65.827834,86.097506 65.53306,86.113215 64.9375,87.125 L 65.0625,88.90625 L 55.90625,92.6875 L 52.5625,93.28125 L 53.46875,90.4375 C 55.727605,89.401298 84.860066,76.075604 85.375,75.84375 z M 54.96875,76.25 C 55.453178,77.056793 57.421628,80.39073 57.65625,80.78125 C 56.795422,80.645979 55.983565,80.332391 55.25,79.65625 C 54.408306,79.197708 54.604736,79.029831 54.3125,77.90625 C 54.326247,77.54216 54.753075,76.598343 54.96875,76.25 z M 35.8125,76.4375 L 36.53125,76.8125 L 39.125,79.0625 L 39,79.84375 C 37.991711,78.985538 37.228403,78.36048 36.1875,77.5 C 36.091585,77.42071 36.005096,77.384501 35.90625,77.34375 L 35.8125,76.4375 z M 54.0625,77.15625 C 54.02189,77.303258 54.002698,77.4417 53.96875,77.59375 C 54.175495,78.945578 54.778521,79.864473 55.625,80.4375 L 47,84.46875 L 43.34375,82.5625 L 54.0625,77.15625 z M 36.53125,78.21875 L 37.71875,79.3125 L 37.03125,92.0625 C 36.335853,93.578858 35.550139,91.95303 35.71875,90.78125 L 36.53125,78.21875 z M 40.84375,78.96875 L 42.59375,81.59375 L 42.625,82.28125 L 42.25,82.9375 C 42.152574,82.864485 42.050876,82.796421 41.96875,82.71875 C 41.809036,82.5677 42.566502,81.993084 42.40625,81.84375 C 41.766268,81.247373 41.399592,80.606436 40.78125,80.03125 L 40.75,79 L 40.84375,78.96875 z M 40.34375,79.0625 L 40.28125,79.84375 C 39.950095,79.883216 39.523578,80.033424 39.28125,80 L 39.4375,79.21875 L 40.34375,79.0625 z M 89.09375,79.84375 L 89.1875,80.9375 L 75.3125,86.53125 L 75.1875,85.4375 L 89.09375,79.84375 z M 86.125,82.625 L 87.59375,105.375 C 87.576071,106.65318 86.438419,106.9818 86.0625,105.90625 L 84.90625,83.125 L 86.125,82.625 z M 42.71875,82.6875 L 46.4375,84.84375 L 46.34375,85.15625 C 45.102884,84.344792 43.736034,83.7538 42.46875,83.09375 L 42.71875,82.6875 z M 74.25,83.96875 C 74.47548,84.020774 74.642421,84.258766 74.65625,84.40625 L 77.375,108.8125 C 77.431114,109.69746 76.725443,109.88888 76.21875,108.9375 L 76.09375,107.96875 L 76.375,107.875 C 76.598683,107.26697 76.429182,106.77418 76.25,106.28125 L 75.9375,106.40625 L 75.71875,104.40625 L 76.125,104.25 C 76.156023,103.78474 76.448116,103.30902 75.9375,102.84375 L 75.59375,102.96875 L 75.40625,101.4375 L 75.75,101.3125 C 76.182382,100.63919 76.075336,100.12543 75.625,99.6875 L 75.28125,99.8125 L 75.03125,97.6875 L 75.25,97.625 C 75.678885,96.94493 75.53952,96.3367 75.25,96.0625 L 74.90625,96.1875 L 74.6875,94.1875 L 75.03125,94.0625 C 75.28352,93.412288 75.072677,92.98775 75,92.5 L 74.53125,92.65625 L 74.34375,90.90625 L 74.78125,90.75 C 75.050163,90.104338 75.00982,89.5529 74.75,89.1875 L 74.21875,89.375 L 74,87.375 L 74.5,87.15625 C 74.654145,86.763088 74.81594,86.339317 74.375,86 L 73.875,86.1875 L 73.71875,84.6875 C 73.765863,84.364991 73.864815,84.034197 74,84 C 74.08041,83.971299 74.17484,83.951408 74.25,83.96875 z M 46.6875,85 L 46.84375,85.09375 L 48.1875,87.28125 L 48.125,88.03125 C 48.118706,88.027278 48.098484,88.03604 48.09375,88.03125 C 47.406664,87.335898 47.277832,86.117388 46.59375,85.375 L 46.6875,85 z M 73.59375,86.0625 L 73.625,86.28125 L 66.84375,88.84375 L 66.84375,88.78125 L 73.59375,86.0625 z M 74.21875,86.1875 C 74.323363,86.381488 74.573703,86.694489 74.34375,87 L 66.90625,90 L 66.875,89.125 L 74.21875,86.1875 z M 65.71875,86.59375 C 65.917521,86.569151 66.162608,86.657617 66.40625,86.8125 L 68.09375,111.96875 C 68.144407,113.78447 66.699253,112.89714 66.96875,112.34375 L 65.3125,87.09375 C 65.438906,86.779677 65.519978,86.618348 65.71875,86.59375 z M 73.75,87.46875 L 73.9375,89.46875 L 67.0625,91.90625 L 67,90.34375 L 73.75,87.46875 z M 48.375,87.5625 L 48.40625,87.625 L 49.4375,87.59375 L 49.4375,88.03125 C 49.242968,87.956918 48.657376,88.09038 48.3125,88.09375 L 48.375,87.5625 z M 49.875,87.5625 L 49.96875,87.5625 L 52.625,90.65625 L 52.21875,93.75 L 52.0625,94.09375 C 52.032213,94.071598 51.992963,94.05826 51.96875,94.03125 C 51.457185,93.460698 52.234418,92.01989 51.96875,91.34375 C 51.441494,89.999258 50.677434,89.27561 49.75,88.3125 L 49.875,87.5625 z M 65.09375,89.46875 L 65.15625,90.625 L 55.875,94.375 C 55.784504,93.999548 55.687526,93.60682 55.625,93.28125 L 65.09375,89.46875 z M 74.625,89.46875 C 75.011207,89.762508 74.870854,90.47427 74.625,90.59375 L 67.15625,93.25 L 67.0625,92.25 L 74.625,89.46875 z M 74.09375,91 L 74.28125,92.75 L 67.28125,95.21875 L 67.15625,93.59375 L 74.09375,91 z M 74.8125,92.71875 C 74.827835,93.050388 75.232551,93.29904 74.875,93.84375 L 67.375,96.53125 L 67.3125,95.53125 L 74.8125,92.71875 z M 55.3125,93.375 C 55.338248,93.726538 55.403575,94.06701 55.5,94.40625 C 54.867915,94.045758 53.378792,94.39165 52.5,94.25 L 52.65625,93.6875 L 55.3125,93.375 z M 74.40625,94.28125 L 74.65625,96.28125 L 67.53125,98.78125 L 67.40625,96.8125 L 74.40625,94.28125 z M 57.125,94.625 L 56.71875,111.8125 C 55.963529,114.04651 54.805273,111.54787 55.375,109.8125 L 55.75,95.1875 L 57.125,94.625 z M 75.15625,96.25 C 75.629227,96.41858 75.374116,97.05668 75.15625,97.4375 L 67.625,100.03125 L 67.53125,99.03125 L 75.15625,96.25 z M 74.78125,97.78125 L 75,99.90625 L 67.78125,102.40625 L 67.65625,100.375 L 74.78125,97.78125 z M 75.4375,99.96875 C 75.783969,100.21471 75.985578,100.70587 75.625,101.1875 L 67.875,103.78125 L 67.84375,102.71875 L 75.4375,99.96875 z M 75.15625,101.5 L 75.34375,103.0625 L 68,105.625 L 67.90625,104.09375 L 75.15625,101.5 z M 75.84375,103.0625 C 76.078494,103.38908 76.111232,103.73955 75.875,104.125 L 68.09375,106.9375 L 68.03125,105.9375 L 75.84375,103.0625 z M 75.46875,104.46875 L 75.6875,106.46875 L 68.25,109.0625 L 68.125,107.28125 L 75.46875,104.46875 z M 76.09375,106.59375 C 76.303753,106.87361 76.419092,107.20053 76.21875,107.65625 L 68.34375,110.34375 L 68.28125,109.40625 L 76.09375,106.59375 z"
       id="path2308"
       sodipodi:nodetypes="ccccccccccccccccccccccccccccccccccccccccccccccccccccscccccccccccccccccccccccccccccccccccccccccccccccccccccccccccccccccccccccccccccccccccccccccccccccccccccccccccccccccccccccccccccccsccccccccccccccsccccccccccccccccccccccccccccccccccccccccccccccccccccccccccccccccccccccccccccccccccccccccccccccccccccccccccccccccccccscccccccccccccccccssccccccccccccccccccccccccccccccccccccccccccccccccccccccccscccccsccccccccccccccccccccccccccccccccccsscccccccccccccccccccccccccccccccccccccccccccccccccccccccccccccccccccccccc" />
  </g>
</svg>
