<?xml version="1.0" encoding="UTF-8" standalone="no"?>
<!-- Created with Inkscape (http://www.inkscape.org/) -->
<svg
   xmlns:dc="http://purl.org/dc/elements/1.1/"
   xmlns:cc="http://creativecommons.org/ns#"
   xmlns:rdf="http://www.w3.org/1999/02/22-rdf-syntax-ns#"
   xmlns:svg="http://www.w3.org/2000/svg"
   xmlns="http://www.w3.org/2000/svg"
   xmlns:xlink="http://www.w3.org/1999/xlink"
   xmlns:sodipodi="http://sodipodi.sourceforge.net/DTD/sodipodi-0.dtd"
   xmlns:inkscape="http://www.inkscape.org/namespaces/inkscape"
   width="128"
   height="128"
   id="svg2"
   sodipodi:version="0.32"
   inkscape:version="0.45+devel"
   version="1.0"
   sodipodi:docname="gate_outline.svg"
   inkscape:output_extension="org.inkscape.output.svg.inkscape">
  <defs
     id="defs4">
    <filter
       height="1.42432"
       y="-0.21216"
       width="1.2179726"
       x="-0.1089863"
       id="filter2892"
       inkscape:collect="always">
      <feGaussianBlur
         id="feGaussianBlur2894"
         stdDeviation="0.72146876"
         inkscape:collect="always" />
    </filter>
    <radialGradient
       r="8.2519293"
       fy="222.04396"
       fx="14.207293"
       cy="222.04396"
       cx="14.207293"
       gradientTransform="scale(1.39523,0.716728)"
       gradientUnits="userSpaceOnUse"
       id="radialGradient1968"
       xlink:href="#linearGradient2057"
       inkscape:collect="always" />
    <linearGradient
       inkscape:collect="always"
       id="linearGradient2057">
      <stop
         style="stop-color:#000000;stop-opacity:1;"
         offset="0"
         id="stop2059" />
      <stop
         style="stop-color:#000000;stop-opacity:0;"
         offset="1"
         id="stop2061" />
    </linearGradient>
  </defs>
  <sodipodi:namedview
     id="base"
     pagecolor="#ffffff"
     bordercolor="#666666"
     borderopacity="1.0"
     gridtolerance="10000"
     guidetolerance="10"
     objecttolerance="10"
     inkscape:pageopacity="0.0"
     inkscape:pageshadow="2"
     inkscape:zoom="1"
     inkscape:cx="64.517427"
     inkscape:cy="64"
     inkscape:document-units="px"
     inkscape:current-layer="layer1"
     showgrid="false"
     width="744.09px"
     inkscape:window-width="1248"
     inkscape:window-height="975"
     inkscape:window-x="426"
     inkscape:window-y="24" />
  <metadata
     id="metadata7">
    <rdf:RDF>
      <cc:Work
         rdf:about="">
        <dc:format>image/svg+xml</dc:format>
        <dc:type
           rdf:resource="http://purl.org/dc/dcmitype/StillImage" />
      </cc:Work>
    </rdf:RDF>
  </metadata>
  <g
     inkscape:label="Layer 1"
     inkscape:groupmode="layer"
     id="layer1">
    <path
       style="fill:#5c2700;fill-opacity:1;fill-rule:evenodd;stroke:none;stroke-width:0.99999994000000003px;stroke-linecap:butt;stroke-linejoin:miter;stroke-opacity:1"
       d="M 108.78125 24.03125 C 107.82894 24.037692 106.88777 24.086105 105.9375 24.125 L 106.0625 26.75 C 105.58814 27.03324 104.964 26.99648 104.4375 27.15625 L 104.40625 26.625 L 102.5 24.84375 C 101.04447 25.598386 99.48949 25.895232 97.59375 28 L 97.78125 30.46875 C 96.976428 33.339927 97.222353 36.549647 97.40625 39.5 C 97.837513 40.415445 98.636423 41.036661 99.4375 41.625 L 99.15625 50.78125 L 95.84375 51.71875 L 95.96875 54.59375 L 94.625 54.34375 L 92.03125 52.875 L 86.0625 55.25 L 86.34375 57.3125 L 85.21875 57.59375 L 82.75 56.21875 L 77.15625 57.6875 L 77.59375 60.46875 L 76.28125 60.46875 L 76 60.4375 L 73.625 58.96875 L 68.71875 60.5625 L 69.03125 62.6875 L 67.3125 62.96875 L 64.8125 61.59375 L 60.28125 62.78125 L 60.59375 65.21875 L 58.25 65.875 L 55.6875 64.5625 L 50.96875 65.9375 L 51.03125 68.03125 L 48.28125 68.65625 L 48.28125 68.625 L 48.09375 68.6875 L 45.65625 67.25 L 40.28125 68.53125 L 40.375 70.6875 L 38.03125 71.4375 L 37.65625 71.09375 L 35.28125 69.8125 L 33.125 70.40625 L 33.09375 69.90625 C 33.77559 69.357731 34.342582 68.715707 34.6875 67.96875 C 34.75964 64.683754 34.582856 62.132504 34.53125 59.21875 C 34.504635 58.186245 34.155241 57.131958 33.53125 56.1875 C 32.734455 55.108801 31.985288 54.84129 31.25 54.28125 L 29.21875 55 L 29.21875 55.71875 C 28.577754 55.374861 28.054732 55.420054 27.46875 55.40625 L 27.34375 54.84375 L 26.1875 52.6875 C 25.242549 52.539476 24.296057 52.493558 23.34375 52.5 C 22.391444 52.506442 21.450271 52.554855 20.5 52.59375 L 20.625 55.21875 C 20.150641 55.50199 19.526501 55.46523 19 55.625 L 18.96875 55.09375 L 17.0625 53.3125 C 15.606974 54.067136 14.051986 54.363982 12.15625 56.46875 L 12.34375 58.9375 C 11.538926 61.808677 11.784853 65.018397 11.96875 67.96875 C 12.400011 68.884195 13.198923 69.505411 14 70.09375 L 12.625 110.59375 C 18.769459 117.39731 30.313389 116.20595 35.1875 110.9375 L 35.125 109.53125 L 56.46875 101.90625 L 56.4375 98.71875 L 58.75 97.96875 L 58.75 99.90625 C 59.24148 100.44261 59.953261 100.26631 60.34375 99.28125 L 60.3125 97.5 L 64.75 96.03125 L 64.78125 97.78125 C 65.470149 98.372789 65.682963 98.368288 66.34375 97.03125 L 66.34375 95.53125 L 70.3125 94.25 L 70.3125 95.6875 C 70.856979 96.242471 72.053241 96.084348 72.125 94.8125 L 72.125 93.6875 L 74.8125 92.8125 C 74.810337 93.082053 74.814663 94.159908 74.8125 94.34375 C 75.226017 94.738257 75.800394 94.874718 76.5625 93.53125 L 76.5625 92.21875 L 80.21875 91.0625 L 80.21875 92.625 C 81.946758 93.191857 81.828444 92.190788 81.90625 91.96875 L 81.90625 90.625 L 84.75 91.90625 L 102.65625 85.40625 C 108.86603 88.196417 116.79708 86.606361 120.625 82.46875 L 118.53125 41.4375 C 119.21309 40.888981 119.78008 40.246957 120.125 39.5 C 120.19714 36.215004 120.02036 33.663754 119.96875 30.75 C 119.94214 29.717495 119.59274 28.663208 118.96875 27.71875 C 118.17195 26.640051 117.42279 26.37254 116.6875 25.8125 L 114.65625 26.53125 L 114.65625 27.25 C 114.01525 26.906111 113.49223 26.951304 112.90625 26.9375 L 112.78125 26.375 L 111.625 24.21875 C 110.68005 24.070726 109.73356 24.024808 108.78125 24.03125 z M 107.96875 24.46875 C 108.32784 24.458078 108.6774 24.471691 109.09375 24.46875 C 109.92644 24.462868 110.67569 24.505228 111.46875 24.6875 L 112.15625 25.9375 C 110.67885 25.647135 109.41148 25.224462 107.5 25.71875 L 106.84375 24.59375 C 107.24106 24.514381 107.60966 24.479422 107.96875 24.46875 z M 106.25 24.65625 L 107.09375 25.90625 L 107.375 27.78125 L 106.40625 26.5625 L 106.25 24.65625 z M 102.375 25.34375 L 103.5625 26.46875 C 102.13423 26.865266 101.14223 27.24437 100.15625 28.65625 L 98.5 27.75 C 99.532722 26.459988 100.71379 26.003785 102.375 25.34375 z M 109.375 26.03125 C 110.44404 26.051528 111.39093 26.309626 112.40625 26.5 L 112.53125 28.25 C 113.40785 28.545644 114.54734 29.509805 115.03125 29.46875 L 114.84375 26.84375 C 115.65079 27.407252 116.32749 28.172303 116.65625 28.78125 C 117.01025 29.436953 117.11069 30.098898 116.875 30.84375 L 116.8125 32.1875 C 114.61322 29.587458 111.38244 28.898399 108.125 29.28125 C 105.75593 29.67379 103.23886 30.434898 101.53125 32.21875 L 100.4375 31.53125 L 100.375 31.28125 L 100.28125 29.28125 C 101.15855 27.83811 102.51937 27.318128 104.0625 26.875 L 104.28125 28.90625 C 104.99768 28.929439 105.79813 28.949724 107.6875 28.34375 L 107.46875 26.25 C 108.08963 26.046921 108.73479 26.061108 109.375 26.03125 z M 116.625 26.5 C 117.36588 27.041092 118.04392 27.220096 118.59375 27.875 C 119.13356 28.517968 119.48807 29.433381 119.5 30.53125 L 117.375 30.46875 C 117.53995 29.734781 117.28991 29.309015 116.9375 28.65625 C 116.5861 28.00536 116.21949 27.312144 115.4375 26.75 L 116.625 26.5 z M 106.1875 27.0625 L 107 28.21875 C 106.26592 28.511516 105.64434 28.783584 104.71875 28.6875 L 104.6875 27.46875 C 105.3221 27.491325 105.64684 27.391441 106.1875 27.0625 z M 113.1875 27.3125 C 113.68201 27.301216 114.16174 27.437606 114.65625 27.75 L 114.6875 28.96875 C 114.17569 28.624098 113.49217 28.158285 112.875 28 L 112.90625 27.34375 C 112.9987 27.334906 113.09505 27.31461 113.1875 27.3125 z M 98.03125 28.1875 L 99.90625 29.09375 L 99.96875 31.03125 C 99.402373 30.915378 98.872293 30.865034 98.15625 30.375 L 98.03125 28.1875 z M 109.40625 29.6875 C 112.25919 29.639455 114.81025 30.2554 116.65625 32.625 C 116.67447 32.923357 116.55212 33.026444 116.375 33.21875 L 115.59375 31.6875 C 113.56144 32.67139 111.47531 33.55321 109 33.5625 L 108.71875 36.4375 C 107.61136 36.430761 106.86757 36.530376 105.65625 36.0625 L 105.40625 33.71875 C 103.87029 33.438706 102.64612 33.035798 101.90625 32.5625 C 103.57224 30.881472 105.91391 30.135956 108.1875 29.75 C 108.60645 29.719522 108.99869 29.694364 109.40625 29.6875 z M 119.59375 30.84375 L 119.5625 33.09375 L 117.125 32.6875 L 117.21875 30.9375 L 119.59375 30.84375 z M 98.1875 31.03125 L 99.96875 31.4375 L 100.09375 31.6875 L 98.25 32.15625 L 97.96875 33.4375 C 97.86909 32.766038 97.961529 31.705035 98.1875 31.03125 z M 100.53125 32.0625 C 101.23848 32.921655 102.41863 33.461854 104.53125 33.90625 L 103.03125 34.65625 C 101.50856 34.152233 99.98715 34.675864 98.8125 32.65625 L 100.53125 32.0625 z M 115.4375 32.15625 L 116.125 34.0625 C 113.9339 34.684635 112.28773 35.445359 109.96875 35.375 L 109.53125 33.9375 C 111.4254 33.762486 113.31835 33.270967 115.4375 32.15625 z M 117.1875 33.1875 L 119.625 33.4375 C 119.40819 34.903122 118.24742 35.849565 117.125 36.65625 L 116.84375 34.28125 L 116.59375 33.71875 C 116.93174 33.572088 117.06538 33.502966 117.1875 33.1875 z M 98.40625 33.375 C 99.471612 34.815277 101.30591 34.727531 102.90625 35.3125 L 102.84375 37.96875 C 104.21316 38.405709 105.34982 38.699097 109.84375 38.8125 L 109.9375 36.09375 C 112.39795 36.15183 114.2711 35.200213 116.46875 34.59375 L 116.875 37.4375 C 118.12928 36.623945 119.0419 36.051704 119.6875 34.6875 C 119.82764 36.39554 119.70155 37.357877 119.5625 39.125 C 117.29104 42.799273 112.75158 43.729746 108.8125 43.78125 C 104.96236 43.582779 100.48341 42.869343 98.09375 39.4375 C 97.923134 37.296919 97.283948 35.107218 97.71875 33.53125 L 98.15625 34.59375 L 98.40625 33.375 z M 109.125 34.125 L 109.59375 35.71875 L 109.40625 38.0625 L 109.0625 36.375 L 109.125 34.125 z M 105.15625 34.1875 L 105.21875 36.03125 L 103.34375 37.15625 L 103.4375 35.34375 L 105.15625 34.1875 z M 105.5625 36.40625 C 106.84248 36.89304 107.66254 36.833223 108.78125 36.84375 L 109.03125 38.25 C 107.11174 38.3333 105.37798 38.209693 103.625 37.5 L 105.5625 36.40625 z M 100.0625 41.90625 C 102.76909 43.465528 105.61858 44.0805 108.6875 44.21875 C 111.94658 44.238807 115.10876 43.864859 117.875 42.03125 C 118.73276 48.933591 119.73706 75.25325 120.15625 82.21875 C 113.31017 87.374214 107.46419 86.868072 103.40625 85.0625 L 103.34375 56.625 L 103.34375 51.625 L 100.78125 50.3125 L 99.625 50.625 C 99.750451 47.358695 99.905961 43.463411 100.0625 41.90625 z M 100.4375 50.71875 L 102.75 51.6875 L 98.5625 53.0625 L 96.625 52.09375 L 100.4375 50.71875 z M 102.90625 52 L 102.90625 56.34375 L 33.53125 78.125 L 33.28125 73.34375 L 37.3125 71.90625 L 37.59375 74.15625 L 43.75 72.65625 L 43.46875 70.375 L 48.0625 69.3125 L 48.1875 71.375 L 54.28125 69.6875 L 54.03125 67.59375 L 58 66.34375 L 58.1875 68.46875 L 63.5625 66.9375 L 63.5 64.71875 L 67.15625 63.5625 L 67.375 65.40625 L 72.1875 64.65625 L 71.96875 62.15625 L 75.875 61.09375 L 76.25 63.03125 L 80.5625 62.25 L 80.5 59.5625 L 84.96875 58.3125 L 85.5625 60.21875 L 89.625 59.21875 L 89.65625 56.8125 L 93.625 55.15625 L 94.03125 58.0625 L 99.09375 56.625 L 99.15625 53.5 L 102.90625 52 z M 96.53125 52.5625 L 98.5 53.5 L 98.59375 55.6875 L 96.46875 54.59375 L 96.53125 52.5625 z M 113.5625 52.8125 C 112.19653 55.332248 111.24681 56.626244 111.5 61.65625 L 116.90625 60.34375 C 116.43198 58.786722 116.20532 57.664766 115.78125 56.09375 C 115.26751 54.512406 114.63772 54.056953 113.5625 52.8125 z M 22.53125 52.9375 C 22.890337 52.926828 23.239903 52.940441 23.65625 52.9375 C 24.488943 52.931618 25.23819 52.973978 26.03125 53.15625 L 26.71875 54.40625 C 25.24135 54.115885 23.973984 53.693212 22.0625 54.1875 L 21.40625 53.0625 C 21.803556 52.983131 22.172163 52.948172 22.53125 52.9375 z M 20.8125 53.125 L 21.65625 54.375 L 21.9375 56.25 L 20.96875 55.03125 L 20.8125 53.125 z M 113.625 53.5 C 114.40816 54.251374 114.95792 55.171507 115.3125 56.28125 C 115.68058 57.433231 115.93462 58.715383 116.28125 59.96875 L 112 61.09375 C 112.10979 58.265328 112.25169 55.551571 113.625 53.5 z M 91.3125 53.53125 L 93.96875 54.75 L 89.125 56.46875 L 87.09375 55.40625 L 91.3125 53.53125 z M 16.9375 53.8125 L 18.125 54.9375 C 16.696725 55.334016 15.70473 55.71312 14.71875 57.125 L 13.0625 56.21875 C 14.095223 54.928738 15.276285 54.472535 16.9375 53.8125 z M 23.9375 54.5 C 25.006536 54.520278 25.953427 54.778376 26.96875 54.96875 L 27.09375 56.71875 C 27.970345 57.014394 29.109839 57.978555 29.59375 57.9375 L 29.40625 55.3125 C 30.213288 55.876002 30.889993 56.641053 31.21875 57.25 C 31.572746 57.905703 31.673191 58.567648 31.4375 59.3125 L 31.375 60.65625 C 29.175725 58.056208 25.944936 57.367149 22.6875 57.75 C 20.318427 58.14254 17.801362 58.903648 16.09375 60.6875 L 15 60 L 14.9375 59.75 L 14.84375 57.75 C 15.72105 56.30686 17.081866 55.786878 18.625 55.34375 L 18.84375 57.375 C 19.560184 57.398189 20.360626 57.418474 22.25 56.8125 L 22.03125 54.71875 C 22.652131 54.515671 23.297285 54.529858 23.9375 54.5 z M 94.5 54.875 L 96.46875 55.25 L 98.5 56.1875 L 94.375 57.375 L 94.5 54.875 z M 31.1875 54.96875 C 31.928377 55.509842 32.606417 55.688846 33.15625 56.34375 C 33.696062 56.986718 34.050569 57.902131 34.0625 59 L 31.9375 58.9375 C 32.102445 58.203531 31.852413 57.777765 31.5 57.125 C 31.148599 56.47411 30.781986 55.780894 30 55.21875 L 31.1875 54.96875 z M 20.75 55.53125 L 21.5625 56.6875 C 20.828417 56.980266 20.206843 57.252334 19.28125 57.15625 L 19.25 55.9375 C 19.884605 55.960075 20.209336 55.860191 20.75 55.53125 z M 27.75 55.78125 C 28.244509 55.769966 28.724241 55.906356 29.21875 56.21875 L 29.25 57.4375 C 28.738192 57.092848 28.054668 56.627035 27.4375 56.46875 L 27.46875 55.8125 C 27.561198 55.803656 27.657552 55.78336 27.75 55.78125 z M 87.03125 55.90625 L 88.6875 56.6875 L 88.9375 58.40625 L 87 57.375 L 87.03125 55.90625 z M 12.59375 56.65625 L 14.46875 57.5625 L 14.53125 59.5 C 13.964871 59.384128 13.434793 59.333784 12.71875 58.84375 L 12.59375 56.65625 z M 102.90625 56.71875 L 102.875 84.84375 L 87.34375 90.40625 L 87.375 70.625 C 84.762597 69.991853 81.370129 69.524086 78.4375 69.53125 C 69.639614 69.552741 60.054008 72.775914 53.4375 80.96875 L 53.53125 102.46875 L 35.09375 109.0625 L 33.53125 78.53125 L 102.90625 56.71875 z M 82.34375 56.9375 L 84.34375 57.875 L 80.25 58.9375 L 78.46875 58.03125 L 82.34375 56.9375 z M 86.875 57.84375 L 88.96875 58.875 L 86.15625 59.46875 L 85.53125 58 L 86.875 57.84375 z M 23.96875 58.15625 C 26.82169 58.108205 29.372745 58.72415 31.21875 61.09375 C 31.236969 61.392107 31.114617 61.495194 30.9375 61.6875 L 30.15625 60.15625 C 28.123936 61.14014 26.037815 62.02196 23.5625 62.03125 L 23.28125 64.90625 C 22.173861 64.899511 21.43007 64.999126 20.21875 64.53125 L 19.96875 62.1875 C 18.432789 61.907456 17.208619 61.504548 16.46875 61.03125 C 18.134741 59.350222 20.476413 58.604706 22.75 58.21875 C 23.168946 58.188272 23.561187 58.163114 23.96875 58.15625 z M 77.875 58.25 L 79.8125 59.15625 L 80.1875 61.71875 L 77.9375 60.5625 L 77.875 58.25 z M 34.15625 59.3125 L 34.125 61.5625 L 31.6875 61.15625 L 31.78125 59.40625 L 34.15625 59.3125 z M 12.75 59.5 L 14.53125 59.90625 L 14.65625 60.15625 L 12.8125 60.625 L 12.53125 61.90625 C 12.431588 61.234788 12.524029 60.173785 12.75 59.5 z M 73.25 59.71875 L 75.15625 60.6875 L 71.84375 61.78125 L 69.71875 60.6875 L 73.25 59.71875 z M 15.09375 60.53125 C 15.800982 61.390405 16.981133 61.930604 19.09375 62.375 L 17.59375 63.125 C 16.071061 62.620983 14.549647 63.144614 13.375 61.125 L 15.09375 60.53125 z M 30 60.625 L 30.6875 62.53125 C 28.496402 63.153385 26.850233 63.914109 24.53125 63.84375 L 24.09375 62.40625 C 25.987896 62.231236 27.880846 61.739717 30 60.625 z M 77.53125 60.90625 L 79.71875 61.9375 L 76.875 62.53125 L 76.4375 61 L 77.53125 60.90625 z M 69.375 61.03125 L 71.34375 61.96875 L 71.65625 64.0625 L 69.53125 63.0625 L 69.375 61.03125 z M 31.75 61.65625 L 34.1875 61.90625 C 33.970693 63.371872 32.809916 64.318315 31.6875 65.125 L 31.40625 62.75 L 31.15625 62.1875 C 31.494238 62.040838 31.627884 61.971716 31.75 61.65625 z M 12.96875 61.84375 C 14.034108 63.284027 15.868414 63.196281 17.46875 63.78125 L 17.40625 66.4375 C 18.77566 66.874459 19.912316 67.167847 24.40625 67.28125 L 24.5 64.5625 C 26.960453 64.62058 28.833599 63.668963 31.03125 63.0625 L 31.4375 65.90625 C 32.69178 65.092695 33.604402 64.520454 34.25 63.15625 C 34.390139 64.86429 34.264045 65.826627 34.125 67.59375 C 31.85354 71.268023 27.314082 72.198496 23.375 72.25 C 19.524855 72.051529 15.045914 71.338093 12.65625 67.90625 C 12.485632 65.765669 11.846448 63.575968 12.28125 62 L 12.71875 63.0625 L 12.96875 61.84375 z M 64.53125 62.1875 L 66.6875 63.15625 L 62.96875 64.125 L 61.21875 63.25 L 64.53125 62.1875 z M 23.6875 62.59375 L 24.15625 64.1875 L 23.96875 66.53125 L 23.625 64.84375 L 23.6875 62.59375 z M 19.71875 62.65625 L 19.78125 64.5 L 17.90625 65.625 L 18 63.8125 L 19.71875 62.65625 z M 67.53125 63.21875 L 68.875 63.28125 L 71.03125 64.3125 L 68 64.84375 L 67.53125 63.21875 z M 60.875 63.59375 L 62.96875 64.59375 L 63.1875 66.34375 L 60.9375 65.15625 L 60.875 63.59375 z M 20.125 64.875 C 21.404984 65.36179 22.225044 65.301973 23.34375 65.3125 L 23.59375 66.71875 C 21.674236 66.80205 19.940476 66.678443 18.1875 65.96875 L 20.125 64.875 z M 55.375 64.96875 L 57.59375 66.15625 L 53.75 67.28125 L 51.59375 66.15625 L 55.375 64.96875 z M 60.71875 65.625 L 62.9375 66.65625 L 58.625 67.8125 L 58.34375 66.09375 L 60.71875 65.625 z M 51.46875 66.625 L 53.59375 67.65625 L 53.65625 69.28125 L 51.65625 68.21875 L 51.46875 66.625 z M 45.4375 67.9375 L 47.53125 68.8125 L 43.09375 69.84375 L 41.25 68.90625 L 45.4375 67.9375 z M 50.9375 68.4375 L 53.1875 69.5 L 48.65625 70.625 L 48.34375 68.875 L 50.9375 68.4375 z M 40.875 69.25 L 42.90625 70.21875 L 43 71.90625 L 41.0625 70.875 L 40.875 69.25 z M 78.875 69.78125 C 81.822831 69.785083 84.623411 70.174061 87.125 70.875 L 87 90.53125 L 85.25 91.15625 L 85.28125 72.4375 C 82.699447 71.948573 79.841149 71.627614 77.3125 71.6875 C 69.726554 71.867158 62.413091 74.7273 55.65625 81.65625 L 55.625 101.71875 L 53.78125 102.375 L 53.65625 81.1875 C 59.976634 73.122628 70.031506 69.76975 78.875 69.78125 z M 14.625 70.375 C 17.33159 71.934278 20.18108 72.54925 23.25 72.6875 C 26.509078 72.707557 29.671264 72.333609 32.4375 70.5 C 33.295256 77.402341 34.299561 103.722 34.71875 110.6875 C 24.450549 118.42001 16.361951 113.52097 13.3125 110.40625 C 13.599344 103.51423 13.957673 77.013372 14.625 70.375 z M 34.6875 70.53125 L 37.0625 71.4375 L 33.21875 72.625 L 33.15625 71.21875 L 34.6875 70.53125 z M 40.65625 71.0625 L 43.0625 72.28125 L 38.1875 73.4375 L 37.9375 71.625 L 40.65625 71.0625 z M 77.03125 72.5 C 77.952375 72.486568 78.567645 72.516646 79.5 72.59375 L 79.5 73.75 L 76.59375 74.59375 L 76.59375 72.53125 C 76.741087 72.526733 76.88368 72.502152 77.03125 72.5 z M 76.25 72.53125 L 76.1875 93.4375 C 75.694287 94.366263 75.421101 94.306793 75.15625 94.09375 L 75.1875 72.59375 C 75.542638 72.564182 75.893439 72.546707 76.25 72.53125 z M 74.90625 72.625 C 74.902763 73.466704 74.909737 74.160689 74.90625 75.09375 L 71.875 76 L 71.84375 73.09375 C 72.855161 72.875802 73.882069 72.721285 74.90625 72.625 z M 79.84375 72.625 C 79.938516 72.634217 80.057798 72.646034 80.15625 72.65625 L 80.15625 73.5625 L 79.84375 73.65625 L 79.84375 72.625 z M 80.4375 72.6875 C 80.773956 72.724365 81.109866 72.796481 81.46875 72.84375 L 81.5625 92.03125 C 81.261494 92.865315 80.700924 92.318727 80.40625 92.28125 L 80.4375 72.6875 z M 81.84375 72.875 C 81.995851 72.896361 82.128927 72.914429 82.28125 72.9375 L 81.84375 73.0625 L 81.84375 72.875 z M 82.8125 73.09375 C 83.054792 73.386485 83.34102 73.655185 82.78125 74.0625 L 81.84375 74.34375 L 81.84375 73.375 L 82.8125 73.09375 z M 71.59375 73.125 L 71.90625 94.8125 C 71.729098 96.024523 71.077557 95.317357 70.6875 95.34375 L 70.4375 73.4375 C 70.82658 73.330396 71.202619 73.213256 71.59375 73.125 z M 83.25 73.125 C 83.626224 73.192953 84.035188 73.234717 84.375 73.3125 L 84.65625 91.1875 L 82.53125 90.3125 L 83.3125 90.0625 C 84.11984 89.743015 84.059675 88.532851 83.15625 88.40625 L 81.90625 88.8125 L 81.90625 86.4375 L 83.34375 85.9375 C 83.718768 85.919982 84.050846 84.390554 83.1875 84.3125 L 81.875 84.75 L 81.875 82.4375 L 83.0625 82.0625 C 84.09749 81.274039 83.50924 80.260917 82.96875 80.25 L 81.875 80.59375 L 81.875 78.21875 L 83.1875 77.8125 C 83.676669 77.031416 83.508299 76.310054 82.9375 76.15625 L 81.84375 76.46875 L 81.84375 74.65625 L 83.0625 74.3125 C 83.379703 73.886829 83.397954 73.498502 83.25 73.125 z M 70.15625 73.53125 L 70.1875 76.46875 L 66.21875 77.65625 L 66.21875 75 C 67.515114 74.393065 68.834192 73.911315 70.15625 73.53125 z M 80.15625 73.875 L 80.15625 74.84375 L 76.59375 75.90625 L 76.59375 74.875 L 80.15625 73.875 z M 80.15625 75.15625 L 80.1875 77 L 79.875 77.09375 L 79.84375 75.25 L 80.15625 75.15625 z M 65.84375 75.1875 L 65.96875 96.84375 C 65.730203 97.44231 65.386264 97.546265 65.03125 97.5625 L 64.8125 75.6875 C 65.149381 75.50654 65.504972 75.3523 65.84375 75.1875 z M 79.5 75.34375 L 79.46875 77.21875 L 76.59375 78.0625 L 76.59375 76.21875 L 79.5 75.34375 z M 74.90625 75.375 C 74.904837 75.756205 74.876413 75.984072 74.875 76.375 L 71.90625 77.28125 L 71.875 76.25 L 74.90625 75.375 z M 64.53125 75.84375 L 64.5625 78.125 L 60.0625 79.4375 L 60.0625 78.84375 C 61.53269 77.670553 63.019778 76.677346 64.53125 75.84375 z M 82.84375 76.4375 C 83.322133 76.906824 83.535509 77.327206 82.84375 77.5625 L 81.875 77.84375 L 81.84375 76.71875 L 82.84375 76.4375 z M 70.1875 76.71875 L 70.1875 77.78125 L 66.25 78.96875 L 66.25 77.875 L 70.1875 76.71875 z M 74.875 76.71875 C 74.872352 77.456775 74.877648 77.83792 74.875 78.59375 L 71.9375 79.5 L 71.90625 77.59375 L 74.875 76.71875 z M 80.1875 77.25 L 80.1875 78.375 L 76.59375 79.46875 L 76.59375 78.34375 L 80.1875 77.25 z M 70.1875 78.09375 L 70.1875 80.03125 L 66.25 81.21875 L 66.25 79.28125 L 70.1875 78.09375 z M 64.5625 78.375 L 64.5625 79.4375 L 60.09375 80.78125 L 60.0625 79.65625 L 64.5625 78.375 z M 80.1875 78.75 L 80.1875 81.1875 L 79.90625 81.28125 L 79.875 78.8125 L 80.1875 78.75 z M 74.875 78.84375 C 74.873367 79.310506 74.876633 79.532643 74.875 80 L 71.9375 80.875 L 71.9375 79.75 L 74.875 78.84375 z M 79.46875 78.9375 L 79.4375 81.4375 L 76.59375 82.40625 L 76.59375 79.8125 L 79.46875 78.9375 z M 59.65625 79.1875 L 60 99.15625 C 59.750306 99.439057 59.551471 100.02554 59.125 99.8125 L 58.875 79.8125 C 59.129736 79.591111 59.400163 79.398118 59.65625 79.1875 z M 64.5625 79.75 L 64.59375 81.6875 L 60.125 83.03125 L 60.09375 81.0625 L 64.5625 79.75 z M 58.59375 80.09375 L 58.59375 81.21875 L 56.84375 81.75 C 57.408623 81.184874 57.959283 80.634452 58.53125 80.125 L 58.59375 80.09375 z M 70.21875 80.28125 L 70.21875 81.40625 L 66.25 82.59375 L 66.25 81.46875 L 70.21875 80.28125 z M 74.875 80.34375 C 74.871248 81.416028 74.878752 81.966049 74.875 83 L 72 83.96875 L 71.9375 81.21875 L 74.875 80.34375 z M 83.0625 80.5625 C 83.185205 81.008278 83.537438 81.476744 83 81.8125 L 81.875 82.1875 L 81.875 80.9375 L 83.0625 80.5625 z M 28.71875 81.09375 C 27.352779 83.613499 26.371811 84.907494 26.625 89.9375 L 32.03125 88.625 C 31.556981 87.067969 31.361574 85.946016 30.9375 84.375 C 30.423765 82.79366 29.793967 82.338203 28.71875 81.09375 z M 58.59375 81.5 L 58.625 83.5 L 56.34375 84.1875 L 56.34375 82.25 C 56.374902 82.217792 56.406325 82.188284 56.4375 82.15625 L 58.59375 81.5 z M 80.1875 81.53125 L 80.1875 82.6875 L 76.5625 83.84375 L 76.59375 82.71875 L 80.1875 81.53125 z M 70.21875 81.75 L 70.21875 84.5625 L 66.28125 85.875 L 66.25 82.9375 L 70.21875 81.75 z M 28.78125 81.78125 C 29.56441 82.532621 30.114166 83.452757 30.46875 84.5625 C 30.83683 85.714478 31.090869 86.996633 31.4375 88.25 L 27.15625 89.375 C 27.266031 86.546575 27.407936 83.832821 28.78125 81.78125 z M 64.59375 81.9375 L 64.625 83.09375 L 60.125 84.46875 L 60.125 83.3125 L 64.59375 81.9375 z M 80.1875 82.96875 L 80.21875 85.3125 L 79.90625 85.4375 L 79.90625 83.03125 L 80.1875 82.96875 z M 79.4375 83.1875 L 79.4375 85.59375 L 76.5625 86.53125 L 76.5625 84.125 L 79.4375 83.1875 z M 74.875 83.3125 C 74.873499 83.723041 74.845251 83.977004 74.84375 84.375 L 72 85.28125 L 72 84.28125 L 74.875 83.3125 z M 64.625 83.4375 L 64.65625 86.4375 L 60.1875 87.9375 L 60.15625 84.8125 L 64.625 83.4375 z M 58.625 83.75 L 58.625 84.90625 L 56.375 85.59375 L 56.34375 84.4375 L 58.625 83.75 z M 74.84375 84.625 C 74.840219 85.553327 74.847281 86.299292 74.84375 87.125 L 72.03125 88.0625 L 72 85.5625 L 74.84375 84.625 z M 83.15625 84.625 C 83.386089 84.821464 83.614908 85.554492 83.25 85.71875 L 81.90625 86.1875 L 81.875 85.0625 L 83.15625 84.625 z M 70.25 84.875 L 70.25 85.84375 L 66.28125 87.09375 L 66.28125 86.1875 L 70.25 84.875 z M 58.625 85.25 L 58.65625 88.4375 L 56.375 89.21875 L 56.375 85.96875 L 58.625 85.25 z M 80.21875 85.59375 L 80.21875 86.71875 L 76.5625 87.96875 L 76.5625 86.84375 L 80.21875 85.59375 z M 70.25 86.09375 L 70.25 88.625 L 66.3125 89.96875 L 66.28125 87.34375 L 70.25 86.09375 z M 64.65625 86.71875 L 64.65625 87.59375 L 60.1875 89.03125 L 60.1875 88.25 L 64.65625 86.71875 z M 80.21875 87 L 80.21875 89.34375 L 79.9375 89.25 L 79.9375 87.09375 L 80.21875 87 z M 79.40625 87.28125 L 79.40625 89.5 L 79.5625 89.5625 L 76.5625 90.5 L 76.5625 88.25 L 79.40625 87.28125 z M 74.84375 87.4375 C 74.842205 87.791879 74.845295 88.203109 74.84375 88.53125 L 72.0625 89.46875 L 72.03125 88.375 L 74.84375 87.4375 z M 64.65625 87.84375 L 64.6875 90.5 L 60.25 92 L 60.21875 89.28125 L 64.65625 87.84375 z M 82.90625 88.6875 C 84.115207 88.994448 83.403986 89.592557 83.09375 89.875 L 82.15625 90.15625 L 81.90625 90.0625 L 81.90625 89 L 82.90625 88.6875 z M 58.65625 88.75 L 58.65625 89.5 L 56.40625 90.21875 L 56.375 89.5 L 58.65625 88.75 z M 74.84375 88.8125 C 74.840572 89.472556 74.815678 90.539342 74.8125 91.0625 L 72.09375 91.9375 L 72.0625 89.78125 L 74.84375 88.8125 z M 70.25 88.96875 L 70.28125 90.0625 L 66.3125 91.40625 L 66.3125 90.28125 L 70.25 88.96875 z M 80.21875 89.5625 L 80.21875 90.78125 L 76.5625 91.9375 L 76.5625 90.71875 L 80.21875 89.5625 z M 58.65625 89.75 L 58.6875 92.53125 L 56.40625 93.28125 L 56.40625 90.46875 L 58.65625 89.75 z M 70.28125 90.34375 L 70.28125 92.5 L 66.3125 93.78125 L 66.3125 91.71875 L 70.28125 90.34375 z M 64.6875 90.84375 L 64.71875 91.9375 L 60.25 93.4375 L 60.25 92.34375 L 64.6875 90.84375 z M 74.8125 91.28125 C 74.810779 91.556542 74.814221 92.272453 74.8125 92.5 L 72.09375 93.375 L 72.09375 92.1875 L 74.8125 91.28125 z M 64.71875 92.25 L 64.75 94.28125 L 60.28125 95.71875 L 60.28125 93.75 L 64.71875 92.25 z M 70.28125 92.75 L 70.3125 93.9375 L 66.34375 95.21875 L 66.3125 94.03125 L 70.28125 92.75 z M 58.6875 92.875 L 58.6875 93.9375 L 56.4375 94.71875 L 56.40625 93.625 L 58.6875 92.875 z M 58.71875 94.28125 L 58.71875 96.1875 L 56.4375 96.9375 L 56.4375 95.0625 L 58.71875 94.28125 z M 64.75 94.53125 L 64.75 95.71875 L 60.3125 97.15625 L 60.3125 95.96875 L 64.75 94.53125 z M 58.71875 96.5 L 58.71875 97.625 L 56.4375 98.375 L 56.4375 97.21875 L 58.71875 96.5 z "
       id="path2312" />
  </g>
</svg>
