<?xml version="1.0" encoding="UTF-8" standalone="no"?>
<!-- Created with Inkscape (http://www.inkscape.org/) -->
<svg
   xmlns:dc="http://purl.org/dc/elements/1.1/"
   xmlns:cc="http://creativecommons.org/ns#"
   xmlns:rdf="http://www.w3.org/1999/02/22-rdf-syntax-ns#"
   xmlns:svg="http://www.w3.org/2000/svg"
   xmlns="http://www.w3.org/2000/svg"
   xmlns:xlink="http://www.w3.org/1999/xlink"
   xmlns:sodipodi="http://sodipodi.sourceforge.net/DTD/sodipodi-0.dtd"
   xmlns:inkscape="http://www.inkscape.org/namespaces/inkscape"
   width="128"
   height="128"
   id="svg2"
   sodipodi:version="0.32"
   inkscape:version="0.45+devel"
   version="1.0"
   sodipodi:docname="inn_outline.svg"
   inkscape:output_extension="org.inkscape.output.svg.inkscape">
  <defs
     id="defs4">
    <filter
       height="1.42432"
       y="-0.21216"
       width="1.2179726"
       x="-0.1089863"
       id="filter2892"
       inkscape:collect="always">
      <feGaussianBlur
         id="feGaussianBlur2894"
         stdDeviation="0.72146876"
         inkscape:collect="always" />
    </filter>
    <radialGradient
       r="8.2519293"
       fy="222.04396"
       fx="14.207293"
       cy="222.04396"
       cx="14.207293"
       gradientTransform="scale(1.39523,0.716728)"
       gradientUnits="userSpaceOnUse"
       id="radialGradient1968"
       xlink:href="#linearGradient2057"
       inkscape:collect="always" />
    <linearGradient
       inkscape:collect="always"
       id="linearGradient2057">
      <stop
         style="stop-color:#000000;stop-opacity:1;"
         offset="0"
         id="stop2059" />
      <stop
         style="stop-color:#000000;stop-opacity:0;"
         offset="1"
         id="stop2061" />
    </linearGradient>
  </defs>
  <sodipodi:namedview
     id="base"
     pagecolor="#ffffff"
     bordercolor="#666666"
     borderopacity="1.0"
     gridtolerance="10000"
     guidetolerance="10"
     objecttolerance="10"
     inkscape:pageopacity="0.0"
     inkscape:pageshadow="2"
     inkscape:zoom="1"
     inkscape:cx="64"
     inkscape:cy="64"
     inkscape:document-units="px"
     inkscape:current-layer="layer1"
     showgrid="false"
     width="744.09px"
     inkscape:window-width="1240"
     inkscape:window-height="967"
     inkscape:window-x="434"
     inkscape:window-y="32"
     showguides="true"
     inkscape:guide-bbox="true" />
  <metadata
     id="metadata7">
    <rdf:RDF>
      <cc:Work
         rdf:about="">
        <dc:format>image/svg+xml</dc:format>
        <dc:type
           rdf:resource="http://purl.org/dc/dcmitype/StillImage" />
      </cc:Work>
    </rdf:RDF>
  </metadata>
  <g
     inkscape:label="Layer 1"
     inkscape:groupmode="layer"
     id="layer1">
    <path
       style="fill:#5c2700;fill-opacity:1;fill-rule:evenodd;stroke:none;stroke-width:0.99999994000000003px;stroke-linecap:butt;stroke-linejoin:miter;stroke-opacity:1"
       d="M 75.66723,9.0668919 L 42.38598,11.785642 L 6.5734797,33.129392 L 6.8859797,33.348142 L 6.7609797,54.754392 L 12.13598,58.379392 L 12.13598,60.535642 L 10.01098,61.410642 L 6.8859797,85.566892 L 7.3547297,85.879392 C 7.2110585,86.005758 7.0560575,86.126081 6.9172297,86.254392 C 3.0758294,90.485796 0.99846897,96.440286 3.0109797,101.97314 C 3.5733859,103.30163 4.6646665,104.13302 5.7922297,104.94189 C 5.8248519,105.1809 5.8492037,105.42286 5.8859797,105.66064 C 6.5212264,106.39275 6.0181224,107.0651 7.9484797,106.75439 C 9.6423651,108.19029 11.401196,109.60197 13.51098,110.94189 C 13.78236,111.46341 13.736062,111.85035 14.85473,111.75439 C 16.610182,112.75184 18.632943,113.7035 21.10473,114.53564 C 24.591179,116.9905 28.321397,114.92006 31.10473,112.34814 C 31.3074,112.13769 31.503404,111.91502 31.69848,111.69189 L 32.94848,116.66064 L 43.19848,121.22314 L 52.91723,117.34814 L 57.16723,120.28564 L 83.76098,110.94189 L 83.76098,110.34814 L 102.97973,103.16064 L 102.88598,104.12939 L 125.41723,96.316892 L 123.16723,72.160642 L 123.26098,71.941892 L 120.04223,70.348142 L 119.88598,65.441892 L 124.22973,63.879392 L 124.22973,55.191892 L 124.47973,43.316892 L 125.04223,43.285642 L 75.66723,9.0668919 z M 75.22973,9.5043919 L 122.69848,42.598142 L 89.66723,44.316892 L 43.82348,12.410642 L 75.22973,9.5043919 z M 72.41723,10.785642 L 72.07348,10.879392 C 72.305804,11.042019 72.758893,11.427952 73.13598,11.723142 L 56.69848,13.535642 C 56.129295,13.103377 55.548538,12.687492 54.97973,12.254392 L 54.60473,12.316892 C 55.16962,12.738517 55.727477,13.17497 56.29223,13.598142 L 50.54223,14.223142 L 50.38598,14.504392 L 56.60473,13.816892 C 59.308711,15.844302 61.994218,17.892785 64.69848,19.941892 C 63.318245,20.207148 61.950183,20.465599 60.57348,20.598142 L 60.69848,20.910642 C 62.185551,20.76447 63.651553,20.517805 65.10473,20.223142 C 74.045649,26.999264 83.001621,33.85157 92.07348,40.348142 L 92.22973,40.035642 C 83.261355,33.444411 74.339968,26.833735 65.44848,20.160642 C 68.14185,19.599156 70.789286,18.876656 73.47973,18.254392 L 79.19848,22.504392 L 72.29223,23.660642 L 72.35473,24.035642 L 79.57348,22.785642 L 87.85473,28.941892 L 84.22973,29.410642 L 84.10473,29.723142 L 88.16723,29.191892 L 94.32348,33.785642 L 94.35473,33.473142 L 88.57348,29.129392 L 99.47973,27.723142 L 99.29223,27.504392 L 88.26098,28.910642 L 79.97973,22.723142 L 86.97973,21.473142 C 88.329209,22.461418 89.693815,23.439536 91.10473,24.379392 L 89.22973,24.910642 L 89.16723,25.066892 L 91.26098,24.473142 C 92.000574,24.965512 92.753902,25.462733 93.51098,25.973142 L 93.69848,25.879392 C 92.987003,25.37154 92.268238,24.87238 91.54223,24.379392 L 93.72973,23.754392 L 93.72973,23.629392 L 91.41723,24.285642 C 90.027912,23.343451 88.623188,22.422524 87.26098,21.441892 L 88.51098,21.223142 L 88.32348,20.941892 L 86.91723,21.191892 C 85.648296,20.265696 84.412706,19.291082 83.26098,18.223142 L 83.13598,18.379392 C 84.281792,19.418685 85.444324,20.337691 86.63598,21.223142 L 79.60473,22.410642 L 73.88598,18.160642 C 74.798884,17.953683 75.711828,17.766213 76.63598,17.598142 L 76.69848,17.316892 C 75.671009,17.498933 74.639311,17.710794 73.60473,17.941892 L 73.10473,17.566892 L 72.72973,17.691892 L 73.19848,18.035642 C 70.516448,18.644994 67.805072,19.342819 65.10473,19.879392 C 62.405851,17.852997 59.701741,15.828159 57.01098,13.785642 L 73.47973,11.973142 C 74.492646,12.778229 75.606343,13.700672 76.79223,14.691892 L 72.10473,15.598142 L 72.01098,15.879392 L 77.07348,14.910642 C 78.540265,16.140055 79.94848,17.348142 79.94848,17.348142 L 80.26098,17.191892 C 80.260981,17.191892 78.88648,16.022474 77.47973,14.848142 L 79.44848,14.473142 L 79.35473,14.191892 L 77.19848,14.598142 C 76.031775,13.627174 74.917793,12.758429 73.88598,11.941892 L 75.82348,11.723142 L 75.54223,11.441892 L 73.54223,11.660642 C 73.143098,11.349517 72.671665,10.963747 72.41723,10.785642 z M 42.97973,12.504392 L 88.66723,44.816892 L 56.79223,65.566892 L 10.01098,34.598142 L 7.7609797,33.098142 L 42.63598,12.535642 L 42.97973,12.504392 z M 41.35473,15.535642 L 36.29223,18.504392 L 35.82348,18.129392 L 35.63598,18.160642 L 36.13598,18.566892 L 14.82348,30.973142 C 14.720807,30.898191 14.6135,30.82956 14.51098,30.754392 L 14.47973,30.879392 C 14.55228,30.932002 14.62592,30.983064 14.69848,31.035642 L 11.88598,32.691892 L 12.01098,33.129392 L 15.07348,31.316892 C 17.029284,32.732258 18.982345,34.143576 20.94848,35.535642 L 19.07348,36.785642 L 19.29223,36.910642 L 21.22973,35.723142 C 24.612809,38.115793 28.012081,40.462719 31.44848,42.785642 L 31.35473,42.848142 L 31.57348,43.160642 L 31.79223,43.004392 C 32.665734,43.593899 33.539102,44.200676 34.41723,44.785642 L 34.51098,44.379392 C 33.709855,43.836461 32.909105,43.292795 32.10473,42.754392 L 40.10473,36.816892 C 43.882557,39.561114 47.695295,42.257942 51.51098,44.941892 L 48.04223,47.223142 L 42.47973,43.285642 L 42.10473,43.473142 L 47.72973,47.410642 L 42.63598,50.785642 L 43.04223,51.066892 L 48.07348,47.660642 L 55.22973,52.660642 C 53.569708,53.836579 51.915077,55.001095 50.26098,56.129392 L 50.26098,56.285642 C 51.912479,55.053162 53.628158,53.90464 55.35473,52.754392 L 61.63598,57.129392 L 61.88598,56.941892 L 55.63598,52.566892 C 58.614518,50.584098 61.595911,48.582953 64.29223,46.254392 C 66.128979,47.7375 67.940499,49.205915 69.66723,50.504392 L 64.01098,54.035642 L 64.10473,54.379392 L 69.94848,50.691892 C 70.127942,50.825486 70.302163,50.968902 70.47973,51.098142 L 70.54223,50.629392 C 70.463517,50.575392 70.370985,50.528009 70.29223,50.473142 L 75.32348,47.285642 C 76.16852,47.940682 77.025444,48.592136 77.91723,49.191892 L 77.97973,48.816892 C 77.177209,48.256801 76.43142,47.657973 75.66723,47.066892 L 79.66723,44.535642 L 79.51098,44.316892 L 75.41723,46.879392 C 73.143453,45.1067 70.964246,43.241754 68.63598,41.473142 L 68.44848,41.754392 C 70.722062,43.47438 72.840287,45.35075 75.07348,47.098142 L 70.04223,50.254392 C 68.237233,48.97626 66.410108,47.505082 64.57348,46.004392 C 64.917404,45.701775 65.271569,45.413596 65.60473,45.098142 L 65.38598,44.879392 C 65.029213,45.183826 64.654859,45.484849 64.29223,45.785642 C 62.191005,44.070158 60.08531,42.351858 57.91723,40.941892 L 60.60473,39.129392 L 60.44848,39.035642 L 57.72973,40.848142 C 57.182585,40.496916 56.625955,40.154727 56.07348,39.848142 L 55.91723,40.066892 C 56.414589,40.366078 56.913163,40.699691 57.41723,41.035642 L 51.82348,44.723142 C 47.886956,41.91358 44.038524,39.345443 40.29223,36.691892 L 42.94848,34.723142 L 42.60473,34.535642 L 39.97973,36.473142 C 37.901146,34.995475 35.855107,33.47511 33.85473,31.879392 L 37.97973,29.129392 L 37.97973,28.973142 L 33.66723,31.723142 C 32.756171,30.992823 31.841152,30.277394 30.94848,29.504392 L 30.60473,29.598142 C 31.54521,30.362515 32.492272,31.103117 33.44848,31.848142 L 27.47973,35.660642 L 27.60473,36.035642 L 33.63598,32.004392 C 35.654977,33.573425 37.723451,35.091765 39.79223,36.598142 L 31.76098,42.535642 C 28.309168,40.228116 24.849162,37.935035 21.41723,35.598142 L 26.54223,32.410642 L 26.16723,32.066892 L 21.13598,35.410642 C 19.140765,34.049285 17.152988,32.673733 15.19848,31.254392 L 36.38598,18.785642 L 40.82348,22.316892 L 32.26098,27.410642 L 32.57348,27.566892 L 41.07348,22.504392 L 45.72973,26.254392 L 42.19848,28.816892 L 39.72973,26.910642 L 39.47973,27.191892 L 41.88598,29.035642 L 37.66723,32.129392 L 37.63598,32.410642 L 42.13598,29.223142 L 49.01098,34.473142 L 49.32348,34.379392 L 42.44848,29.035642 L 46.01098,26.504392 L 54.19848,33.066892 L 50.97973,35.379392 L 50.94848,35.535642 L 54.32348,33.191892 L 57.63598,35.848142 L 57.94848,35.629392 L 54.60473,33.004392 L 59.47973,29.629392 C 60.793236,30.650408 62.096712,31.671147 63.38598,32.723142 L 55.69848,38.473142 L 55.76098,38.660642 L 63.54223,32.879392 C 65.791071,34.71723 68.034023,36.578964 70.26098,38.441892 L 70.44848,38.098142 C 68.218953,36.281105 66.053816,34.44791 63.85473,32.660642 L 64.41723,32.223142 L 64.22973,32.098142 L 63.66723,32.504392 C 62.385759,31.464932 61.08507,30.451363 59.76098,29.441892 L 62.10473,27.816892 L 61.82348,27.598142 L 59.51098,29.254392 C 59.136718,28.970563 58.765728,28.6913 58.38598,28.410642 L 58.16723,28.598142 C 58.534077,28.877108 58.896636,29.159691 59.26098,29.441892 L 54.47973,32.879392 L 46.22973,26.348142 L 48.51098,24.754392 L 48.16723,24.473142 L 45.91723,26.098142 L 41.26098,22.410642 L 47.97973,18.410642 L 47.66723,18.254392 L 41.01098,22.223142 L 36.54223,18.691892 L 41.41723,15.816892 L 41.35473,15.535642 z M 31.22973,23.973142 L 23.26098,28.973142 L 23.35473,29.035642 L 31.38598,24.316892 L 31.22973,23.973142 z M 54.60473,24.129392 L 50.22973,27.223142 L 50.38598,27.441892 L 54.69848,24.285642 L 54.60473,24.129392 z M 97.88598,31.285642 L 97.66723,31.473142 C 99.865076,33.111059 101.97172,34.880459 104.10473,36.598142 C 101.15216,36.810009 98.057375,37.24419 94.51098,37.441892 L 95.35473,37.598142 C 98.806325,37.719872 101.69507,37.31076 104.66723,37.035642 C 106.26116,38.310618 107.86013,39.563472 109.54223,40.723142 L 109.63598,40.441892 C 108.08281,39.339649 106.58974,38.178742 105.10473,37.004392 C 107.08329,36.831776 109.10252,36.709052 111.38598,36.879392 L 111.29223,36.785642 C 109.04191,36.411257 106.85038,36.422472 104.57348,36.566892 C 102.35535,34.802195 100.16051,33.00709 97.88598,31.285642 z M 7.5109797,33.754392 L 8.3859797,34.316892 L 8.1984797,46.848142 L 7.2297297,46.191892 L 7.5109797,33.754392 z M 8.9172297,34.691892 L 9.6672297,35.191892 L 9.2609797,45.910642 L 8.6047297,46.504392 L 8.9172297,34.691892 z M 9.9797297,35.410642 L 12.04223,36.754392 L 12.16723,44.879392 L 9.6984797,45.160642 L 9.9797297,35.410642 z M 12.60473,37.160642 L 55.72973,65.816892 L 55.35473,77.566892 L 45.60473,70.910642 L 45.60473,60.535642 L 39.94848,57.035642 L 39.88598,67.004392 L 36.19848,64.504392 L 35.01098,65.129392 L 34.88598,66.785642 L 27.82348,61.191892 L 27.69848,58.629392 L 20.85473,54.035642 L 20.85473,43.629392 L 15.19848,40.129392 L 15.13598,50.129392 L 15.63598,50.410642 L 15.72973,41.129392 L 20.35473,44.129392 L 20.35473,53.691892 L 15.13598,50.129392 L 12.82348,48.566892 L 12.60473,37.160642 z M 57.60473,41.160642 C 59.722582,42.587471 61.881016,44.28736 64.01098,46.004392 C 61.288984,48.246965 58.414466,50.378509 55.51098,52.441892 L 48.38598,47.441892 L 51.79223,45.129392 C 52.072726,45.326808 52.355764,45.52549 52.63598,45.723142 L 53.10473,45.629392 C 52.76967,45.386396 52.438741,45.149801 52.10473,44.910642 L 57.60473,41.160642 z M 123.85473,43.348142 L 123.54223,55.441892 L 122.82348,55.035642 L 122.94848,43.410642 L 123.85473,43.348142 z M 122.29223,43.441892 L 122.19848,54.348142 L 121.47973,53.723142 L 121.85473,43.473142 L 122.29223,43.441892 z M 121.29223,43.504392 L 121.10473,53.473142 L 119.82348,53.035642 L 119.79223,53.066892 L 119.76098,43.598142 L 121.29223,43.504392 z M 119.19848,43.629392 L 119.26098,56.348142 L 104.94848,61.410642 L 104.94848,50.348142 L 97.16723,53.691892 L 97.07348,64.191892 L 72.07348,73.066892 L 72.07348,61.973142 L 64.29223,65.316892 L 64.19848,75.848142 L 59.35473,77.566892 L 59.44848,64.535642 L 89.60473,45.348142 L 119.19848,43.629392 z M 22.19848,43.816892 L 22.16723,51.504392 L 29.51098,56.566892 L 29.44848,48.816892 L 22.19848,43.816892 z M 22.44848,44.410642 L 29.19848,48.910642 L 29.13598,55.848142 L 22.47973,51.316892 L 22.44848,44.410642 z M 116.76098,45.098142 L 106.79223,48.848142 L 106.72973,57.160642 L 116.82348,53.348142 L 116.76098,45.098142 z M 12.04223,45.316892 L 12.01098,45.973142 L 9.7922297,46.441892 L 9.9172297,45.660642 L 12.04223,45.316892 z M 116.38598,45.535642 L 116.32348,53.035642 L 107.16723,56.535642 L 107.10473,49.191892 L 116.38598,45.535642 z M 23.22973,45.785642 L 23.19848,51.035642 L 25.19848,52.441892 L 25.19848,52.473142 L 25.60473,52.785642 L 28.35473,54.691892 L 28.35473,49.254392 L 26.16723,47.754392 L 26.07348,47.691892 L 26.07348,47.723142 L 23.22973,45.785642 z M 91.10473,45.848142 C 89.246076,45.848143 87.307439,47.48572 86.79223,49.504392 C 86.277024,51.523064 87.371078,53.160642 89.22973,53.160642 C 91.088385,53.160641 93.027021,51.523064 93.54223,49.504392 C 94.057437,47.48572 92.963383,45.848142 91.10473,45.848142 z M 23.41723,46.160642 L 25.04223,47.254392 L 25.10473,49.004392 L 23.44848,47.723142 L 23.41723,46.160642 z M 90.97973,46.223142 C 92.461229,46.223141 93.585367,47.866064 93.16723,49.504392 C 93.078638,49.851518 92.903371,50.177964 92.69848,50.504392 C 93.544562,46.981387 91.703327,45.754213 88.85473,47.098142 C 89.539524,46.579644 90.308162,46.223142 90.97973,46.223142 z M 9.3547297,46.629392 L 26.88598,58.629392 L 26.10473,58.973142 L 8.6984797,47.191892 L 9.3547297,46.629392 z M 12.07348,46.629392 L 12.10473,48.066892 L 10.32348,46.879392 L 12.07348,46.629392 z M 90.66723,46.785642 C 92.281367,46.795643 93.168557,48.155734 92.19848,51.191892 C 91.401812,52.067998 90.292505,52.723142 89.35473,52.723142 C 87.873232,52.723143 86.686593,51.14272 87.10473,49.504392 C 87.307268,48.710827 87.871911,47.921909 88.57348,47.316892 C 89.32957,46.9553 90.055558,46.781853 90.66723,46.785642 z M 115.26098,46.941892 L 112.22973,48.098142 L 112.10473,48.129392 L 112.10473,48.160642 L 108.19848,49.660642 L 108.13598,55.348142 L 110.88598,54.348142 L 110.88598,54.379392 L 111.47973,54.160642 L 115.22973,52.785642 L 115.26098,46.941892 z M 7.4172297,47.066892 L 25.32348,59.285642 L 18.44848,61.973142 L 7.4172297,54.410642 L 7.4172297,47.066892 z M 114.88598,47.285642 L 114.91723,49.035642 L 112.38598,50.191892 L 112.32348,48.316892 L 114.88598,47.285642 z M 25.29223,47.410642 L 26.07348,47.910642 L 26.16723,52.816892 L 25.38598,52.285642 L 25.29223,47.410642 z M 26.22973,48.035642 L 28.10473,49.254392 L 28.10473,50.941892 L 26.26098,49.848142 L 26.22973,48.035642 z M 23.44848,48.066892 L 25.10473,49.254392 L 25.13598,50.254392 L 23.44848,49.035642 L 23.44848,48.066892 z M 112.10473,48.379392 L 112.22973,53.535642 L 111.16723,53.910642 L 111.04223,48.816892 L 112.10473,48.379392 z M 110.69848,48.941892 L 110.76098,50.785642 L 108.47973,51.504392 L 108.44848,49.848142 L 110.69848,48.941892 z M 23.44848,49.223142 L 25.13598,50.473142 L 25.19848,52.129392 L 23.44848,50.879392 L 23.44848,49.223142 z M 114.91723,49.316892 L 114.91723,50.191892 L 112.41723,51.191892 L 112.38598,50.410642 L 114.91723,49.316892 z M 26.26098,50.035642 L 28.10473,51.191892 L 28.10473,52.004392 L 26.29223,50.816892 L 26.26098,50.035642 z M 114.91723,50.566892 L 114.94848,52.566892 L 112.51098,53.441892 L 112.44848,51.410642 L 114.91723,50.566892 z M 26.32348,51.035642 L 28.10473,52.348142 L 28.13598,54.254392 L 26.35473,52.973142 L 26.32348,51.035642 z M 110.76098,51.035642 L 110.82348,52.066892 L 108.47973,52.910642 L 108.47973,51.848142 L 110.76098,51.035642 z M 104.26098,51.504392 L 104.26098,61.660642 L 97.76098,63.973142 L 97.88598,54.129392 L 104.26098,51.504392 z M 110.82348,52.285642 L 110.88598,54.004392 L 108.51098,54.848142 L 108.47973,53.098142 L 110.82348,52.285642 z M 119.79223,53.379392 L 121.10473,53.723142 L 122.04223,54.723142 L 119.79223,54.098142 L 119.79223,53.379392 z M 119.82348,54.566892 L 121.91723,55.223142 L 121.91723,55.379392 L 119.82348,56.129392 L 119.82348,54.566892 z M 122.38598,55.629392 L 122.97973,55.660642 L 59.35473,78.910642 L 59.35473,78.129392 L 104.82348,61.910642 L 104.94848,61.910642 L 104.94848,61.848142 L 122.38598,55.629392 z M 123.47973,56.285642 L 123.76098,63.254392 L 57.13598,87.254392 L 56.94848,80.660642 L 123.47973,56.285642 z M 83.88598,56.723142 L 73.91723,60.473142 L 73.85473,68.785642 L 83.94848,64.973142 L 83.88598,56.723142 z M 83.51098,57.160642 L 83.44848,64.660642 L 74.29223,68.160642 L 74.22973,60.816892 L 83.51098,57.160642 z M 40.47973,58.035642 L 45.10473,61.035642 L 45.10473,70.566892 L 40.38598,67.316892 L 40.47973,58.035642 z M 82.38598,58.566892 L 79.35473,59.723142 L 79.22973,59.754392 L 79.22973,59.785642 L 75.32348,61.285642 L 75.26098,66.973142 L 78.01098,65.973142 L 78.01098,66.004392 L 78.60473,65.785642 L 82.35473,64.410642 L 82.38598,58.566892 z M 12.88598,58.879392 L 17.85473,62.223142 L 15.54223,63.129392 L 12.94848,61.316892 L 12.88598,58.879392 z M 82.01098,58.910642 L 82.04223,60.660642 L 79.51098,61.816892 L 79.44848,59.941892 L 82.01098,58.910642 z M 27.22973,59.035642 L 27.76098,66.441892 L 26.69848,66.723142 L 26.51098,59.254392 L 27.22973,59.035642 z M 25.66723,59.535642 L 26.04223,59.816892 L 16.66723,63.379392 L 28.69848,71.066892 L 31.47973,80.566892 L 31.54223,80.754392 L 38.54223,104.44189 L 38.60473,106.62939 L 27.91723,70.973142 L 16.04223,63.379392 L 25.66723,59.535642 z M 79.22973,60.004392 L 79.35473,65.160642 L 78.29223,65.535642 L 78.16723,60.441892 L 79.22973,60.004392 z M 26.04223,60.066892 L 26.32348,66.816892 L 24.10473,67.691892 L 17.69848,63.441892 L 26.04223,60.066892 z M 77.82348,60.566892 L 77.88598,62.410642 L 75.60473,63.129392 L 75.57348,61.473142 L 77.82348,60.566892 z M 46.94848,60.723142 L 46.88598,68.410642 L 54.22973,73.473142 L 54.19848,65.723142 L 46.94848,60.723142 z M 82.04223,60.941892 L 82.04223,61.816892 L 79.54223,62.816892 L 79.51098,62.035642 L 82.04223,60.941892 z M 12.13598,61.316892 L 12.13598,61.660642 L 15.38598,63.910642 L 15.35473,64.504392 L 14.72973,64.816892 L 10.76098,62.035642 L 12.13598,61.316892 z M 47.16723,61.316892 L 53.91723,65.816892 L 53.88598,72.754392 L 47.22973,68.223142 L 47.16723,61.316892 z M 27.85473,61.410642 L 34.88598,67.223142 L 34.85473,73.504392 L 26.69848,67.473142 L 28.10473,66.660642 L 27.85473,61.410642 z M 82.04223,62.191892 L 82.07348,64.191892 L 79.63598,65.066892 L 79.57348,63.035642 L 82.04223,62.191892 z M 10.63598,62.441892 L 14.51098,65.191892 L 13.76098,68.785642 L 10.19848,66.191892 L 10.63598,62.441892 z M 77.88598,62.660642 L 77.94848,63.691892 L 75.60473,64.535642 L 75.60473,63.473142 L 77.88598,62.660642 z M 47.97973,62.691892 L 47.91723,67.941892 L 49.91723,69.348142 L 49.91723,69.379392 L 50.35473,69.691892 L 53.07348,71.598142 L 53.10473,66.160642 L 50.88598,64.660642 L 50.82348,64.629392 L 47.97973,62.691892 z M 48.13598,63.066892 L 49.79223,64.129392 L 49.82348,65.910642 L 48.16723,64.629392 L 48.13598,63.066892 z M 71.38598,63.129392 L 71.38598,73.316892 L 64.88598,75.598142 L 65.01098,65.754392 L 71.38598,63.129392 z M 16.01098,63.879392 L 27.69848,71.129392 L 42.22973,120.19189 L 33.35473,116.28564 L 25.10473,82.816892 L 24.97973,82.285642 L 24.13598,78.848142 L 15.79223,72.816892 L 16.01098,63.879392 z M 77.94848,63.910642 L 78.01098,65.629392 L 75.63598,66.473142 L 75.60473,64.723142 L 77.94848,63.910642 z M 50.04223,64.316892 L 50.82348,64.816892 L 50.88598,69.723142 L 50.13598,69.191892 L 50.04223,64.316892 z M 15.35473,64.785642 L 15.32348,65.316892 L 14.94848,64.973142 L 15.35473,64.785642 z M 36.19848,64.879392 L 55.35473,78.098142 L 55.32348,78.754392 L 35.51098,65.441892 L 36.19848,64.879392 z M 50.97973,64.941892 L 52.82348,66.160642 L 52.85473,67.816892 L 51.01098,66.754392 L 50.97973,64.941892 z M 48.16723,64.973142 L 49.82348,66.160642 L 49.88598,67.160642 L 48.16723,65.941892 L 48.16723,64.973142 z M 58.60473,65.098142 L 58.69848,79.129392 L 57.41723,79.629392 L 57.69848,65.660642 L 58.60473,65.098142 z M 14.76098,65.379392 L 15.32348,65.848142 L 15.22973,69.848142 L 14.01098,68.973142 C 14.283668,67.842264 14.363056,66.496535 14.76098,65.379392 z M 119.29223,65.660642 L 119.32348,71.254392 L 66.88598,90.691892 L 61.13598,86.910642 C 59.451567,86.474537 59.356033,88.696938 60.44848,89.535642 L 63.91723,91.816892 L 59.41723,93.473142 L 59.38598,87.191892 L 119.29223,65.660642 z M 57.13598,66.035642 L 56.79223,79.754392 L 56.01098,79.223142 L 56.47973,66.316892 L 56.57348,66.379392 L 57.13598,66.035642 z M 48.16723,66.129392 L 49.88598,67.379392 L 49.91723,69.035642 L 48.19848,67.785642 L 48.16723,66.129392 z M 35.35473,66.160642 L 56.51098,80.629392 L 56.32348,87.285642 L 38.88598,75.566892 L 38.79223,76.379392 L 44.38598,92.754392 L 40.91723,94.035642 L 35.19848,76.504392 L 35.35473,66.160642 z M 10.13598,66.691892 L 15.19848,70.348142 L 15.13598,73.035642 L 17.72973,74.941892 L 17.41723,76.754392 L 9.6047297,71.035642 L 10.13598,66.691892 z M 51.01098,66.941892 L 52.85473,68.098142 L 52.85473,68.910642 L 51.04223,67.723142 L 51.01098,66.941892 z M 26.35473,67.473142 L 26.47973,67.598142 L 34.82348,73.941892 L 34.82348,76.254392 L 31.01098,77.879392 L 28.91723,70.910642 L 24.63598,68.066892 L 26.35473,67.473142 z M 51.07348,67.941892 L 52.85473,69.254392 L 52.88598,71.160642 L 51.10473,69.879392 L 51.07348,67.941892 z M 120.04223,70.785642 L 122.32348,72.160642 L 122.32348,72.191892 L 102.19848,79.660642 L 99.94848,79.223142 L 120.07348,71.785642 L 120.04223,70.785642 z M 9.5734797,71.504392 L 12.35473,73.566892 L 11.54223,77.879392 L 9.0109797,76.066892 L 9.5734797,71.504392 z M 122.38598,72.910642 L 122.69848,76.098142 L 115.26098,78.973142 L 115.16723,75.598142 L 122.38598,72.910642 z M 12.76098,73.848142 L 22.66723,81.035642 L 21.79223,85.254392 L 11.97973,78.191892 L 12.76098,73.848142 z M 18.04223,75.160642 L 23.66723,79.348142 L 24.26098,81.754392 L 17.66723,76.910642 L 18.04223,75.160642 z M 114.69848,75.754392 L 114.76098,79.160642 L 103.01098,83.691892 L 102.91723,80.098142 L 114.69848,75.754392 z M 122.72973,76.441892 L 123.19848,80.879392 L 110.57348,85.816892 L 110.60473,81.129392 L 122.72973,76.441892 z M 8.9797297,76.535642 L 16.04223,81.660642 L 15.79223,83.379392 C 15.107795,83.083449 14.432864,82.931537 13.76098,82.910642 C 13.054738,82.888679 12.345767,83.010199 11.66723,83.223142 L 8.4484797,80.941892 L 8.9797297,76.535642 z M 34.82348,76.566892 L 34.82348,76.629392 L 35.16723,77.629392 L 31.41723,79.254392 L 31.07348,78.129392 L 34.82348,76.566892 z M 39.26098,76.660642 L 56.47973,88.223142 L 58.82348,87.379392 L 58.66723,93.285642 L 56.41723,91.691892 L 57.47973,91.316892 C 59.212055,90.785052 58.781062,87.679368 57.57348,87.910642 L 53.26098,89.504392 L 40.66723,80.723142 L 39.26098,76.660642 z M 35.22973,77.910642 L 35.51098,78.785642 L 31.76098,80.441892 L 31.47973,79.473142 L 35.22973,77.910642 z M 35.60473,79.066892 L 35.97973,80.129392 L 32.16723,81.785642 L 31.82348,80.629392 L 35.60473,79.066892 z M 99.51098,79.379392 L 101.60473,79.910642 L 90.51098,84.035642 L 88.47973,83.441892 L 99.51098,79.379392 z M 102.38598,80.316892 L 102.57348,83.879392 L 98.63598,85.410642 C 96.974086,85.314341 95.232968,85.815278 93.60473,86.629392 C 92.833172,87.110136 92.10753,87.643676 91.41723,88.191892 L 91.26098,88.254392 L 90.88598,84.566892 L 102.38598,80.316892 z M 36.04223,80.379392 L 36.35473,81.348142 L 32.54223,83.004392 L 32.22973,81.973142 L 36.04223,80.379392 z M 123.22973,81.285642 L 123.66723,85.660642 L 116.26098,88.504392 L 116.26098,84.004392 L 123.22973,81.285642 z M 110.10473,81.316892 L 110.07348,86.004392 L 103.63598,88.566892 C 103.34464,88.094564 103.03998,87.653679 102.69848,87.285642 C 101.6718,86.224088 100.5087,85.671591 99.29223,85.473142 L 110.10473,81.316892 z M 23.13598,81.379392 L 24.41723,82.316892 L 25.66723,87.410642 C 24.493752,86.639104 23.324709,86.018151 22.16723,85.504392 L 22.32348,85.473142 L 23.13598,81.379392 z M 8.3859797,81.441892 L 10.82348,83.160642 L 10.76098,83.566892 C 9.744061,84.022379 8.8066934,84.683564 7.9172297,85.410642 L 8.3859797,81.441892 z M 36.44848,81.598142 L 36.79223,82.629392 L 32.94848,84.316892 L 32.60473,83.191892 L 36.44848,81.598142 z M 41.04223,81.816892 L 49.94848,88.035642 L 48.57348,88.535642 L 41.72973,83.723142 L 41.04223,81.816892 z M 16.51098,81.973142 L 20.41723,84.816892 C 19.995719,84.664465 19.579589,84.50753 19.16723,84.379392 C 19.093715,83.588124 17.786744,83.61916 17.07348,83.254392 C 16.878854,83.453227 16.513107,83.534578 16.32348,83.629392 C 16.302954,83.618199 16.281519,83.60906 16.26098,83.598142 L 16.51098,81.973142 z M 36.85473,82.910642 L 37.16723,83.848142 L 33.29223,85.535642 L 32.97973,84.504392 L 36.85473,82.910642 z M 12.91723,83.441892 C 13.090176,83.430132 13.270732,83.438806 13.44848,83.441892 C 14.077629,83.734679 14.714374,84.012694 15.35473,84.285642 C 14.577306,84.794397 13.841743,85.316473 13.16723,85.848142 C 12.162799,85.333047 11.161005,84.828088 10.19848,84.285642 C 11.046858,83.806869 11.94385,83.50808 12.91723,83.441892 z M 14.26098,83.504392 C 14.803773,83.578597 15.358035,83.705141 15.94848,83.910642 C 15.837566,83.97992 15.744887,84.059625 15.63598,84.129392 C 15.170958,83.928612 14.7204,83.71447 14.26098,83.504392 z M 88.01098,83.629392 L 89.88598,84.254392 L 76.07348,89.410642 L 74.57348,88.598142 L 88.01098,83.629392 z M 17.35473,83.754392 C 17.876549,83.779036 18.39805,84.181714 18.63598,84.410642 C 10.223752,89.253848 6.8041812,97.137802 7.9172297,106.19189 C 7.4543238,106.41776 6.1742801,106.42898 6.2922297,105.37939 C 5.7750034,101.83008 5.9893423,97.828807 7.3547297,94.379392 C 8.7364397,90.888741 11.675471,86.967711 16.85473,83.879392 C 17.023545,83.787297 17.18079,83.746177 17.35473,83.754392 z M 37.26098,84.098142 L 37.54223,85.004392 L 33.63598,86.691892 L 33.35473,85.754392 L 37.26098,84.098142 z M 115.82348,84.160642 L 115.82348,88.691892 L 105.82348,92.535642 L 105.60473,88.160642 L 115.82348,84.160642 z M 10.04223,84.348142 L 10.01098,84.504392 C 10.977025,85.032007 11.959549,85.53852 12.94848,86.035642 C 12.223914,86.618813 11.586707,87.212029 10.97973,87.816892 C 9.9438788,87.259814 8.921142,86.687395 7.8859797,86.129392 C 8.5808727,85.405425 9.286858,84.796749 10.04223,84.348142 z M 19.01098,84.629392 C 21.37542,85.525211 23.649122,86.581581 25.35473,87.660642 C 24.954393,87.89295 24.583982,88.136103 24.19848,88.379392 C 22.339817,87.071525 20.252943,86.082007 18.10473,85.160642 C 18.401351,84.982191 18.698489,84.801347 19.01098,84.629392 z M 42.04223,84.660642 L 47.97973,88.848142 L 47.01098,91.785642 L 46.01098,92.160642 L 44.16723,90.816892 L 42.04223,84.660642 z M 90.47973,84.723142 L 90.69848,88.441892 L 76.57348,93.910642 L 76.32348,89.941892 L 90.47973,84.723142 z M 37.63598,85.254392 L 38.01098,86.379392 L 34.04223,88.004392 L 33.69848,86.879392 L 37.63598,85.254392 z M 17.82348,85.316892 C 19.938678,86.217774 22.032441,87.188871 23.94848,88.535642 C 23.101827,89.079537 22.276133,89.636503 21.51098,90.223142 C 19.57005,89.095472 17.490221,88.074725 15.41723,87.035642 C 16.160227,86.433621 16.941806,85.861982 17.82348,85.316892 z M 123.69848,85.973142 L 124.19848,90.848142 L 111.76098,95.473142 L 111.69848,90.660642 L 123.69848,85.973142 z M 7.6984797,86.348142 C 8.7318641,86.898197 9.7616708,87.45165 10.79223,88.004392 C 10.214217,88.593869 9.6705515,89.181176 9.1984797,89.785642 C 8.1782769,89.232671 7.1523613,88.689528 6.1359797,88.129392 C 6.5703438,87.566408 7.0294383,87.044441 7.5109797,86.535642 C 7.5703261,86.469357 7.6388518,86.412614 7.6984797,86.348142 z M 97.85473,86.379392 C 99.266835,86.382627 100.62147,86.908547 101.94848,87.973142 C 102.10991,88.147114 102.26306,88.359908 102.41723,88.566892 L 101.04223,88.504392 C 100.21878,87.532205 99.178763,86.790552 97.85473,86.379392 z M 96.63598,86.535642 C 96.944512,86.603622 97.230012,86.685926 97.51098,86.785642 L 97.38598,104.59814 L 94.60473,105.59814 L 94.60473,87.254392 C 95.299124,86.907277 95.966733,86.670441 96.63598,86.535642 z M 38.07348,86.629392 L 38.41723,87.629392 L 34.41723,89.285642 L 34.10473,88.191892 L 38.07348,86.629392 z M 98.16723,87.066892 C 99.269075,87.593435 100.14231,88.388118 100.82348,89.348142 L 100.69848,103.41064 L 97.97973,104.37939 L 98.16723,87.066892 z M 15.22973,87.191892 C 17.294059,88.214858 19.363275,89.2266 21.32348,90.379392 C 20.51896,91.005469 19.77284,91.659673 19.07348,92.316892 C 17.163261,91.186468 15.210674,90.128228 13.26098,89.066892 C 13.851179,88.423562 14.515638,87.784131 15.22973,87.191892 z M 60.63598,87.410642 C 60.803183,87.391357 60.959586,87.426794 61.07348,87.473142 L 77.72973,98.441892 C 78.303797,99.265269 77.955273,99.719609 77.72973,100.22314 L 60.66723,89.098142 C 59.632717,87.904209 60.134372,87.468498 60.63598,87.410642 z M 94.01098,87.566892 L 94.04223,105.81689 L 90.94848,106.91064 L 90.94848,89.973142 C 91.893857,89.116056 92.912034,88.29975 94.01098,87.566892 z M 25.82348,87.879392 L 25.91723,87.941892 L 26.13598,89.285642 L 26.13598,89.316892 C 17.652186,94.408161 14.402006,102.87961 15.29223,111.34814 C 14.947044,111.20816 14.201468,111.12184 13.94848,110.87939 C 13.396294,107.21539 13.004454,102.79227 14.41723,99.223142 C 15.844644,95.617033 20.31282,91.031259 25.82348,87.879392 z M 38.47973,87.879392 L 38.85473,88.973142 L 34.82348,90.629392 L 34.47973,89.473142 L 38.47973,87.879392 z M 50.16723,88.191892 L 52.47973,89.785642 L 51.10473,90.285642 L 48.82348,88.691892 L 50.16723,88.191892 z M 105.29223,88.254392 L 105.44848,92.691892 L 105.22973,92.785642 C 104.8936,91.213411 104.42447,89.906546 103.82348,88.848142 L 105.29223,88.254392 z M 5.9797297,88.348142 C 6.9998252,88.905644 8.0210138,89.452844 9.0422297,90.004392 C 8.4460551,90.789362 7.9388205,91.579621 7.5109797,92.379392 L 4.5109797,90.629392 C 4.9441289,89.835479 5.4365734,89.071685 5.9797297,88.348142 z M 57.72973,88.410642 C 58.478304,88.449222 58.646454,89.574846 57.47973,90.660642 L 38.22973,97.441892 C 37.126793,96.806475 37.541634,95.796059 38.07348,95.535642 L 57.38598,88.473142 C 57.514931,88.431459 57.622791,88.405131 57.72973,88.410642 z M 101.13598,88.660642 L 102.57348,88.785642 C 103.23847,89.748239 103.80245,91.052049 104.22973,92.691892 L 103.04223,92.473142 C 102.6171,91.034181 101.99565,89.725202 101.13598,88.660642 z M 74.10473,88.754392 L 75.51098,89.598142 L 68.94848,92.066892 L 67.57348,91.160642 L 74.10473,88.754392 z M 90.66723,88.785642 C 88.354706,90.783293 86.534444,93.161824 85.19848,95.785642 L 83.79223,96.348142 C 83.778019,94.754121 83.723481,93.110098 83.51098,91.535642 L 90.66723,88.785642 z M 48.26098,89.066892 L 50.35473,90.566892 L 47.51098,91.598142 L 48.26098,89.066892 z M 38.94848,89.223142 L 39.22973,90.129392 L 35.19848,91.879392 L 34.88598,90.816892 L 38.94848,89.223142 z M 13.10473,89.254392 C 15.045597,90.314701 16.963673,91.405498 18.85473,92.535642 C 18.261012,93.105414 17.703933,93.673957 17.19848,94.254392 C 15.359082,93.174354 13.502049,92.147703 11.63598,91.129392 C 12.076109,90.48098 12.563105,89.860742 13.10473,89.254392 z M 26.29223,89.973142 L 26.32348,90.066892 L 26.35473,90.191892 C 26.302891,90.139826 26.250986,90.086852 26.19848,90.035642 C 26.229146,90.013539 26.261452,89.995216 26.29223,89.973142 z M 101.26098,90.035642 C 103.29178,93.55215 103.30612,98.832693 103.13598,102.53564 L 101.26098,103.22314 L 101.26098,90.035642 z M 75.88598,90.129392 L 76.19848,94.066892 L 73.51098,95.098142 L 69.54223,92.473142 L 75.88598,90.129392 z M 25.94848,90.223142 C 26.130903,90.391424 26.302368,90.575641 26.47973,90.754392 L 27.26098,93.879392 C 27.126146,93.935799 26.988557,94.003354 26.85473,94.066892 L 26.85473,94.004392 C 25.97452,93.19721 24.987381,92.456684 23.94848,91.754392 C 24.579872,91.230707 25.256343,90.729064 25.94848,90.223142 z M 39.29223,90.379392 L 39.66723,91.504392 L 35.60473,93.191892 L 35.26098,92.066892 L 39.29223,90.379392 z M 90.29223,90.566892 L 90.29223,107.16064 L 86.57348,108.50439 L 86.60473,95.160642 C 87.62001,93.503895 88.857239,91.964697 90.29223,90.566892 z M 111.32348,90.816892 L 111.38598,95.598142 L 105.76098,97.816892 C 105.71378,96.085618 105.58314,94.537763 105.32348,93.191892 L 111.32348,90.816892 z M 4.3859797,90.879392 L 7.3547297,92.629392 C 7.1178148,93.091731 6.9134344,93.571544 6.7297297,94.035642 C 6.5727194,94.432301 6.4472039,94.824296 6.3234797,95.223142 C 5.3228339,94.609182 4.3256734,93.972597 3.3234797,93.348142 C 3.595191,92.501881 3.9685127,91.674934 4.3859797,90.879392 z M 11.47973,91.348142 C 13.326915,92.356896 15.172714,93.391988 17.01098,94.473142 C 16.33661,95.266308 15.751048,96.060539 15.26098,96.848142 L 10.07348,93.879392 C 10.461999,93.005396 10.945588,92.161417 11.47973,91.348142 z M 44.38598,91.379392 L 45.63598,92.285642 L 44.82348,92.598142 L 44.38598,91.379392 z M 124.26098,91.441892 L 124.69848,95.816892 L 117.82348,98.223142 L 117.63598,93.879392 L 124.26098,91.441892 z M 83.26098,91.660642 L 83.41723,96.504392 L 78.41723,98.473142 C 78.255973,98.228852 78.041052,98.030036 77.79223,97.910642 L 73.79223,95.285642 C 76.966126,94.065429 80.145286,92.820161 83.26098,91.660642 z M 39.76098,91.754392 L 40.07348,92.754392 L 35.97973,94.535642 L 35.63598,93.316892 L 35.66723,93.348142 L 39.76098,91.754392 z M 23.72973,91.941892 C 23.735832,91.936749 23.754872,91.947033 23.76098,91.941892 C 24.668514,92.566237 25.555332,93.221049 26.38598,93.941892 L 26.54223,94.191892 C 25.753369,94.599855 25.014827,95.128821 24.29223,95.754392 L 24.22973,95.566892 C 23.378479,94.990229 22.50673,94.452347 21.63598,93.910642 C 22.29204,93.245705 22.980056,92.573722 23.72973,91.941892 z M 55.60473,91.973142 L 59.01098,94.348142 L 61.79223,93.316892 L 63.10473,94.223142 L 58.91723,95.785642 L 54.19848,92.473142 L 55.60473,91.973142 z M 64.69848,92.348142 L 76.41723,100.06689 L 76.26098,107.41064 L 64.35473,99.691892 L 64.69848,92.348142 z M 64.07348,92.473142 L 64.04223,93.879392 L 63.54223,94.066892 L 62.32348,93.129392 L 64.07348,92.473142 z M 103.10473,92.660642 L 104.32348,92.973142 C 104.65645,94.344198 104.86354,95.960201 104.94848,97.816892 L 103.88598,97.660642 C 103.77743,95.972525 103.55357,94.248418 103.10473,92.660642 z M 53.44848,92.723142 L 58.51098,96.316892 L 58.16723,100.97314 L 53.44848,97.566892 L 53.22973,92.816892 L 53.44848,92.723142 z M 40.16723,93.004392 L 40.41723,93.785642 L 36.29223,95.535642 L 36.04223,94.629392 L 36.07348,94.660642 L 40.16723,93.004392 z M 52.51098,93.066892 L 53.13598,101.22314 L 39.29223,105.97314 L 38.97973,97.816892 L 52.51098,93.066892 z M 3.2297297,93.598142 C 4.2304241,94.213439 5.2266517,94.832977 6.2297297,95.441892 C 5.9415214,96.419435 5.7533351,97.426983 5.6359797,98.410642 C 4.667223,97.787764 3.696139,97.165322 2.7297297,96.535642 C 2.7827924,95.538302 2.9422246,94.556263 3.2297297,93.598142 z M 40.47973,94.004392 L 40.54223,94.160642 L 37.32348,95.348142 C 37.10213,95.711423 37.010074,96.126218 37.01098,96.535642 L 36.63598,96.691892 L 36.32348,95.629392 L 36.41723,95.691892 L 40.47973,94.004392 z M 117.19848,94.035642 L 117.29223,98.410642 L 106.76098,102.12939 L 106.60473,97.910642 L 117.19848,94.035642 z M 9.9797297,94.098142 L 15.13598,97.066892 C 14.740282,97.7253 14.387589,98.368745 14.13598,99.004392 C 14.047059,99.229036 13.995326,99.466502 13.91723,99.691892 C 12.294479,98.778606 10.671838,97.826283 9.0422297,96.848142 C 9.2878891,95.901011 9.5979893,94.988076 9.9797297,94.098142 z M 21.41723,94.098142 C 22.278903,94.639725 23.138988,95.181327 23.97973,95.754392 L 24.07348,95.941892 C 23.831075,96.160752 23.585652,96.389604 23.35473,96.629392 C 23.069703,96.943356 22.806883,97.266081 22.54223,97.598142 C 21.664692,97.003176 20.779904,96.43586 19.88598,95.879392 C 20.369708,95.271615 20.859163,94.675548 21.41723,94.098142 z M 27.41723,94.410642 L 27.44848,94.598142 C 27.310841,94.657443 27.174813,94.723691 27.04223,94.785642 L 26.97973,94.566892 C 27.123428,94.506006 27.273626,94.463042 27.41723,94.410642 z M 64.01098,94.504392 L 63.94848,97.129392 L 63.88598,94.566892 L 64.01098,94.504392 z M 26.76098,94.629392 L 26.88598,94.848142 C 26.025725,95.267573 25.246014,95.818216 24.54223,96.441892 L 24.41723,96.129392 C 25.153879,95.505915 25.95584,94.994024 26.76098,94.629392 z M 63.47973,94.691892 L 63.54223,98.941892 L 58.79223,100.78564 L 59.04223,96.348142 L 63.47973,94.691892 z M 27.51098,94.785642 L 31.10473,109.25439 C 29.581854,111.5759 26.855707,113.56536 21.94848,114.37939 C 21.885882,114.33244 21.822089,114.27453 21.76098,114.22314 C 16.846724,106.46742 23.173065,95.701385 27.51098,94.785642 z M 48.16723,95.129392 C 47.49194,95.226016 46.787898,95.775934 46.29223,97.066892 L 50.29223,97.504392 C 50.801461,96.655674 49.713686,95.171187 48.44848,95.129392 C 48.35359,95.126257 48.2637,95.115589 48.16723,95.129392 z M 38.85473,95.598142 L 38.54223,95.660642 C 38.752657,96.308569 38.659296,96.652708 38.54223,96.973142 L 38.91723,96.910642 C 39.665109,96.345023 39.016444,96.012162 38.85473,95.598142 z M 19.72973,96.098142 C 20.606291,96.646108 21.482786,97.20015 22.35473,97.785642 C 22.365288,97.794646 22.375252,97.8073 22.38598,97.816892 C 21.824777,98.54115 21.305243,99.304241 20.85473,100.09814 L 18.10473,98.504392 C 18.579202,97.671679 19.12845,96.87263 19.72973,96.098142 z M 69.54223,96.129392 C 69.439399,96.127821 69.343184,96.144399 69.22973,96.160642 C 68.970408,96.197769 68.673179,96.293192 68.35473,96.441892 C 68.799508,97.207267 69.767745,98.314423 71.47973,98.129392 C 71.470732,98.066406 71.084698,96.15296 69.54223,96.129392 z M 85.04223,96.129392 C 84.244221,97.759072 83.664583,99.473283 83.22973,101.25439 L 77.44848,103.47314 L 77.32348,100.66064 L 77.79223,100.97314 C 78.81818,100.3894 78.897461,99.360255 78.51098,98.629392 L 83.54223,96.723142 L 85.04223,96.129392 z M 86.04223,96.160642 L 86.01098,108.69189 L 83.41723,109.62939 C 82.89822,104.75741 83.863302,100.15485 86.04223,96.160642 z M 24.26098,96.285642 L 24.41723,96.535642 C 23.898527,97.007953 23.442567,97.538794 23.01098,98.098142 L 22.82348,97.879392 C 23.090089,97.523202 23.37889,97.183066 23.66723,96.848142 C 23.860246,96.647715 24.056566,96.4663 24.26098,96.285642 z M 68.04223,96.504392 L 67.41723,100.44189 C 67.730721,101.48568 68.624905,101.83531 70.10473,101.87939 L 71.47973,98.629392 C 69.841137,98.91175 68.530512,97.701005 68.04223,96.504392 z M 2.7297297,96.754392 C 3.7017971,97.367248 4.6674212,97.988446 5.6359797,98.598142 C 5.522242,99.634739 5.4794949,100.65933 5.5109797,101.69189 C 4.7072434,101.16549 3.9077758,100.63279 3.1047297,100.09814 C 2.7923656,98.982433 2.6920124,97.855694 2.7297297,96.754392 z M 37.04223,96.785642 C 37.087165,97.210608 37.200912,97.627453 37.44848,97.941892 L 37.07348,98.098142 L 36.69848,96.910642 L 37.04223,96.785642 z M 9.0109797,97.098142 C 10.604786,98.043001 12.208857,98.968938 13.82348,99.879392 C 13.487197,100.89002 13.251129,101.89181 13.10473,102.91064 C 11.548477,102.04553 10.009554,101.1358 8.4797297,100.19189 C 8.5912179,99.133199 8.7640316,98.099332 9.0109797,97.098142 z M 46.16723,97.504392 L 40.91723,101.25439 L 40.97973,103.50439 L 41.97973,103.50439 L 41.79223,101.94189 L 43.97973,102.00439 L 44.10473,103.31689 L 45.10473,103.25439 L 44.97973,101.75439 L 49.54223,99.316892 L 49.66723,100.94189 L 50.54223,100.81689 L 50.41723,97.941892 L 46.16723,97.504392 z M 103.88598,97.785642 L 104.94848,98.004392 C 105.0071,99.455183 105.01809,101.0268 104.88598,102.78564 L 103.91723,103.12939 C 103.98339,101.57569 104.00274,99.708422 103.88598,97.785642 z M 38.41723,98.035642 L 38.44848,99.129392 L 37.47973,99.535642 L 37.10473,98.285642 L 37.60473,98.098142 C 37.662448,98.155507 37.727174,98.206278 37.79223,98.254392 L 38.41723,98.035642 z M 106.22973,98.035642 L 106.26098,102.28564 L 105.66723,102.50439 C 105.78125,100.90017 105.78834,99.456772 105.76098,98.098142 L 106.22973,98.035642 z M 53.66723,98.066892 L 58.13598,101.25439 L 57.76098,106.37939 L 52.60473,102.59814 L 52.76098,101.84814 L 53.63598,101.53564 L 53.51098,98.754392 L 53.66723,98.066892 z M 22.66723,98.098142 C 22.730297,98.164464 22.803038,98.236469 22.85473,98.285642 C 21.797576,99.71027 21.050904,101.37791 20.54223,103.09814 L 20.16723,102.94189 C 20.745955,101.22207 21.597336,99.570117 22.66723,98.098142 z M 77.51098,98.410642 L 77.13598,98.473142 C 76.388101,99.038761 77.036766,99.371622 77.19848,99.785642 L 77.51098,99.723142 C 77.300553,99.075215 77.393914,98.731076 77.51098,98.410642 z M 17.94848,98.754392 L 20.72973,100.34814 C 20.30909,101.11636 19.904257,101.90828 19.60473,102.72314 L 19.57348,102.72314 C 18.650016,102.26273 17.719235,101.78055 16.79223,101.28564 C 17.111022,100.41207 17.503898,99.564028 17.94848,98.754392 z M 71.66723,98.816892 L 71.10473,99.754392 C 72.113561,99.159517 72.256446,100.14933 72.38598,100.22314 C 71.990324,101.03003 71.533803,100.76026 70.91723,100.87939 L 70.41723,101.75439 C 71.815217,102.28821 72.449415,101.65549 73.29223,100.66064 C 73.663521,99.13905 72.98709,98.919209 71.66723,98.816892 z M 63.88598,99.066892 L 63.85473,99.941892 L 67.79223,102.62939 L 58.51098,106.28564 L 58.79223,101.03564 L 63.88598,99.066892 z M 38.44848,99.348142 L 38.47973,100.37939 L 37.82348,100.66064 L 37.54223,99.691892 L 38.44848,99.348142 z M 3.1672297,100.28564 C 3.9617295,100.80811 4.7542543,101.3308 5.5422297,101.84814 C 5.5678236,102.54955 5.5922571,103.24665 5.6672297,103.94189 C 4.8680833,103.42207 4.22857,102.85416 3.7609797,101.84814 C 3.5169206,101.32836 3.3234711,100.8079 3.1672297,100.28564 z M 8.4484797,100.34814 C 9.9832227,101.29346 11.52544,102.21965 13.07348,103.09814 C 12.934396,104.13946 12.903385,105.18446 12.91723,106.22314 C 11.366516,105.35355 9.8163735,104.43554 8.2922297,103.47314 C 8.2813331,102.40076 8.3470415,101.37226 8.4484797,100.34814 z M 38.47973,100.62939 L 38.51098,101.97314 L 38.26098,102.06689 L 37.88598,100.84814 L 38.47973,100.62939 z M 16.72973,101.47314 C 17.65431,101.9752 18.574846,102.48825 19.51098,102.97314 C 19.19018,103.89063 18.96753,104.83232 18.82348,105.78564 C 17.855417,105.35567 16.897839,104.89433 15.94848,104.41064 C 16.127111,103.38316 16.397375,102.41591 16.72973,101.47314 z M 77.04223,101.69189 L 77.07348,103.62939 L 76.97973,103.66064 L 77.04223,101.69189 z M 83.07348,101.81689 C 82.746719,103.29524 82.532379,104.81021 82.44848,106.34814 L 76.82348,108.44189 L 76.94848,104.19189 L 83.07348,101.81689 z M 52.35473,102.00439 L 52.29223,102.34814 L 51.97973,102.12939 L 52.35473,102.00439 z M 38.51098,102.16064 L 38.51098,102.97314 L 38.29223,102.25439 L 38.51098,102.16064 z M 51.79223,102.22314 L 57.76098,106.56689 L 57.41723,110.94189 L 49.04223,104.91064 L 48.51098,103.41064 L 51.79223,102.22314 z M 68.04223,102.78564 L 72.10473,105.53564 L 64.69848,108.37939 L 64.72973,104.09814 L 64.60473,104.09814 L 68.04223,102.78564 z M 20.07348,103.16064 L 20.47973,103.28564 C 20.219865,104.20317 20.021705,105.11122 19.91723,106.03564 L 19.44848,105.94189 C 19.56034,104.99459 19.780835,104.07462 20.07348,103.16064 z M 48.10473,103.56689 L 52.57348,116.62939 L 46.79223,112.09814 L 44.44848,104.91064 L 48.10473,103.56689 z M 8.2922297,103.62939 C 9.8227036,104.6084 11.366426,105.55046 12.91723,106.44189 C 12.935141,107.25349 12.987485,108.07569 13.07348,108.87939 C 11.515657,108.02369 9.9743385,107.12711 8.4484797,106.19189 C 8.3749801,105.32687 8.3046936,104.46785 8.2922297,103.62939 z M 64.41723,104.16064 L 64.38598,108.50439 L 58.26098,110.87939 L 58.47973,106.47314 L 64.41723,104.16064 z M 15.91723,104.62939 C 16.862151,105.12389 17.802161,105.61819 18.76098,106.06689 L 18.79223,106.06689 C 18.65851,107.08611 18.631798,108.09764 18.72973,109.12939 C 17.701009,108.68401 16.67416,108.22933 15.66723,107.72314 C 15.678612,106.64692 15.757113,105.61791 15.91723,104.62939 z M 44.07348,105.03564 L 44.19848,105.37939 L 39.79223,107.25439 L 39.63598,106.66064 L 44.07348,105.03564 z M 49.29223,105.56689 L 51.29223,107.03564 L 50.69848,109.66064 L 49.29223,105.56689 z M 44.26098,105.62939 L 44.60473,106.62939 L 40.19848,108.50439 L 39.85473,107.41064 L 44.26098,105.62939 z M 72.60473,105.87939 L 76.54223,108.56689 L 72.01098,110.25439 L 71.91723,106.16064 L 72.60473,105.87939 z M 19.44848,106.12939 L 19.88598,106.19189 C 19.784507,107.17088 19.781373,108.1423 19.85473,109.06689 L 19.47973,109.12939 C 19.351287,108.12641 19.344319,107.12403 19.44848,106.12939 z M 8.4484797,106.31689 C 9.9790984,107.23739 11.51559,108.12739 13.07348,109.00439 C 13.108467,109.3203 13.155352,109.62779 13.19848,109.94189 C 11.535571,108.84009 9.9929804,107.65881 8.4797297,106.44189 L 8.4484797,106.31689 z M 71.54223,106.31689 L 71.51098,110.44189 L 58.01098,115.47314 L 58.22973,111.50439 L 71.54223,106.31689 z M 82.44848,106.75439 C 82.397959,107.99393 82.40646,109.24874 82.51098,110.50439 L 78.22973,112.03564 L 78.13598,108.31689 L 82.44848,106.75439 z M 39.22973,106.81689 L 43.32348,120.66064 L 42.72973,120.41064 L 38.69848,107.00439 L 39.22973,106.81689 z M 44.69848,106.87939 L 44.94848,107.66064 L 40.47973,109.53564 L 40.22973,108.62939 L 40.26098,108.66064 L 44.69848,106.87939 z M 51.66723,107.31689 L 57.38598,111.44189 L 57.10473,115.37939 L 51.22973,111.25439 L 50.91723,110.31689 L 51.66723,107.31689 z M 45.01098,107.91064 L 45.04223,107.91064 L 45.29223,108.78564 L 40.82348,110.69189 L 40.54223,109.72314 L 45.01098,107.91064 z M 15.66723,107.97314 C 16.687365,108.50228 17.713453,109.00971 18.76098,109.47314 C 18.870959,110.3792 19.073911,111.2977 19.38598,112.19189 C 18.188795,111.57729 16.984766,110.97659 15.79223,110.34814 C 15.71459,109.53752 15.667702,108.73597 15.66723,107.97314 z M 77.76098,108.47314 L 77.85473,112.16064 L 65.29223,116.66064 L 65.26098,113.03564 L 77.76098,108.47314 z M 45.38598,109.06689 L 45.76098,110.16064 L 41.26098,112.06689 L 40.88598,110.87939 L 45.38598,109.06689 z M 19.85473,109.28564 C 19.96622,110.46074 20.268874,111.53965 20.66723,112.50439 L 20.44848,112.53564 C 20.358402,112.36386 20.281278,112.19543 20.19848,112.00439 C 19.859714,111.13037 19.640717,110.23735 19.51098,109.34814 L 19.85473,109.28564 z M 31.22973,109.78564 L 31.47973,110.72314 C 27.84618,113.75239 25.435293,114.87016 23.35473,115.03564 C 23.199311,114.99523 23.036711,114.93892 22.88598,114.87939 C 27.365806,114.0361 29.751543,112.06234 31.22973,109.78564 z M 45.85473,110.44189 L 46.16723,111.44189 L 41.63598,113.34814 L 41.29223,112.25439 L 45.85473,110.44189 z M 15.79223,110.50439 C 17.051428,111.20299 18.315391,111.89794 19.57348,112.59814 C 19.773595,112.9944 19.995721,113.36059 20.26098,113.69189 C 18.712919,113.06723 17.280755,112.3335 15.91723,111.56689 C 15.866154,111.20253 15.82825,110.85918 15.79223,110.50439 z M 31.38598,111.03564 C 31.113682,111.375 30.833568,111.70187 30.54223,112.00439 L 30.38598,111.91064 C 30.707629,111.64025 31.052796,111.34851 31.38598,111.03564 z M 46.26098,111.69189 L 46.44848,112.28564 L 41.88598,114.19189 L 41.66723,113.47314 L 41.72973,113.50439 L 46.26098,111.69189 z M 51.41723,111.75439 L 55.32348,114.50439 L 55.07348,114.41064 L 54.60473,117.62939 L 53.10473,116.59814 L 51.41723,111.75439 z M 30.26098,112.00439 L 30.41723,112.12939 C 30.12462,112.42615 29.829527,112.70694 29.51098,112.97314 L 29.26098,112.78564 C 29.591013,112.54728 29.919065,112.28737 30.26098,112.00439 z M 46.69848,112.69189 L 52.41723,117.12939 L 43.79223,120.47314 L 42.01098,114.56689 L 46.69848,112.69189 z M 20.72973,112.72314 C 20.894723,113.09498 21.087125,113.42611 21.29223,113.75439 C 21.035802,113.46746 20.79364,113.1416 20.57348,112.75439 L 20.72973,112.72314 z M 29.13598,112.87939 L 29.35473,113.06689 C 28.962484,113.3852 28.553741,113.68421 28.13598,113.94189 L 27.79223,113.72314 C 28.228864,113.47704 28.679383,113.20273 29.13598,112.87939 z M 65.07348,113.12939 L 64.88598,116.81689 L 57.79223,119.34814 L 57.97973,115.72314 L 65.07348,113.12939 z M 27.66723,113.78564 L 27.97973,114.03564 C 27.568068,114.2799 27.152361,114.52168 26.72973,114.69189 L 26.29223,114.44189 C 26.736242,114.2627 27.204608,114.04029 27.66723,113.78564 z M 26.16723,114.50439 L 26.47973,114.75439 C 26.060477,114.90707 25.645825,115.00306 25.22973,115.06689 L 24.91723,114.87939 C 25.323297,114.77274 25.748065,114.66795 26.16723,114.50439 z M 55.63598,114.72314 L 57.07348,115.75439 L 56.82348,119.16064 L 55.13598,118.00439 L 55.63598,114.72314 z M 24.76098,114.91064 L 24.79223,114.91064 L 25.01098,115.12939 C 24.61829,115.17353 24.232596,115.17905 23.85473,115.12939 C 24.156741,115.0806 24.453257,114.98675 24.76098,114.91064 z"
       id="path2309" />
  </g>
</svg>
