<?xml version="1.0" encoding="UTF-8" standalone="no"?>
<!-- Created with Inkscape (http://www.inkscape.org/) -->
<svg
   xmlns:dc="http://purl.org/dc/elements/1.1/"
   xmlns:cc="http://creativecommons.org/ns#"
   xmlns:rdf="http://www.w3.org/1999/02/22-rdf-syntax-ns#"
   xmlns:svg="http://www.w3.org/2000/svg"
   xmlns="http://www.w3.org/2000/svg"
   xmlns:sodipodi="http://sodipodi.sourceforge.net/DTD/sodipodi-0.dtd"
   xmlns:inkscape="http://www.inkscape.org/namespaces/inkscape"
   width="128"
   height="128"
   id="svg2"
   sodipodi:version="0.32"
   inkscape:version="0.45+devel"
   version="1.0"
   sodipodi:docname="jailhouse_outline.svg"
   inkscape:output_extension="org.inkscape.output.svg.inkscape">
  <defs
     id="defs4" />
  <sodipodi:namedview
     id="base"
     pagecolor="#ffffff"
     bordercolor="#666666"
     borderopacity="1.0"
     gridtolerance="10000"
     guidetolerance="10"
     objecttolerance="10"
     inkscape:pageopacity="0.0"
     inkscape:pageshadow="2"
     inkscape:zoom="1"
     inkscape:cx="64"
     inkscape:cy="64"
     inkscape:document-units="px"
     inkscape:current-layer="layer1"
     showgrid="false"
     width="128px"
     inkscape:window-width="687"
     inkscape:window-height="697"
     inkscape:window-x="728"
     inkscape:window-y="142" />
  <metadata
     id="metadata7">
    <rdf:RDF>
      <cc:Work
         rdf:about="">
        <dc:format>image/svg+xml</dc:format>
        <dc:type
           rdf:resource="http://purl.org/dc/dcmitype/StillImage" />
      </cc:Work>
    </rdf:RDF>
  </metadata>
  <g
     inkscape:label="outline"
     inkscape:groupmode="layer"
     id="layer1"
     style="display:inline">
    <path
       style="fill:#5c2700;fill-opacity:1;fill-rule:evenodd;stroke:none;stroke-width:1.00000011999999994px;stroke-linecap:butt;stroke-linejoin:miter;stroke-opacity:1"
       d="M 62.09375,24.34375 L 46.4375,29.84375 L 46.21875,30.6875 L 43.1875,31.90625 L 42.375,31.25 L 19.09375,39.40625 L 19.21875,66.78125 L 20.136374,67.356694 L 20.125266,69.358345 L 19.923838,69.421002 L 19.905512,72.249308 L 20.19853,72.688971 L 20.172873,75.409063 L 19.884035,75.563879 L 19.866284,78.303515 L 20.17378,78.635248 L 20.167447,81.153286 L 19.847095,81.264973 L 19.84375,81.78125 L 57.03125,107.96875 L 75.75,101.28125 L 75.625,99.5625 L 77.5,98.84375 L 77.759147,98.523309 L 79.640319,97.836462 L 80.084076,97.878263 L 82.4375,96.90625 L 82.71877,96.562537 L 83.997374,96.055628 L 84.405488,96.154255 L 86.28125,95.4375 L 87.78125,97 L 100.96875,92.0625 L 101.03125,65.28125 L 100.53125,64.625 L 100.53125,63.03125 L 100.6875,62.71875 L 100.6875,59.875 L 100.5,59.625 L 100.45042,57.127849 L 100.6875,56.71875 L 100.6875,53.9375 L 100.49319,53.71318 L 100.5,52.0625 L 101.0625,51.53125 L 101.0625,49.71875 L 96.09375,46.34375 L 95.40625,46.53125 L 93.90625,45.25 L 93.78125,44.78125 L 64.28125,24.71875 L 63.15625,25.09375 L 62.09375,24.34375 z M 62,24.875 L 62.03125,24.875 L 63.03125,25.46875 L 64.28125,25.375 L 93.25,45 L 93.125,45.875 L 94.53125,45.96875 L 94.5625,47.4375 L 95.875,46.78125 L 100.15625,49.6875 L 57.21875,64.5 L 20.40625,39.65625 L 42.375,31.875 L 43.90625,34.1875 L 44.03125,31.96875 L 45.40625,32.15625 L 45.5625,31.25 L 47.46875,31.59375 L 46.8125,30.28125 L 61.09375,25.21875 L 63,27.28125 L 62.28125,28.9375 L 61,29.90625 L 58.09375,29.84375 L 58.15625,29.9375 L 60.65625,30.34375 L 60.40625,31.65625 L 60.59375,31.71875 L 60.96875,30.40625 L 61.3125,30.46875 L 62.3125,29.59375 L 63.875,31.1875 L 62.8125,32.875 L 62.90625,32.90625 L 63.90625,31.625 L 65.21875,31.84375 L 64.90625,34.90625 L 65.03125,34.90625 L 65.46875,31.96875 L 67.09375,31.78125 L 67.15625,31.75 L 65.53125,31.625 L 65.53125,31.59375 L 64.28125,31.125 L 62.59375,29.40625 L 63.375,27.5625 L 64.625,28.25 L 64.75,28.21875 L 63.53125,27.1875 L 63.5625,27.125 L 62,24.875 z M 19.84375,40.1875 L 56.96875,65.34375 L 56.90625,88.625 L 52.125,91.6875 L 50.3125,93.875 L 45.375,93.8125 L 42.9375,94.9375 L 41.78125,96.375 L 27.28125,86.34375 L 26.4375,82.21875 L 26.96875,79.53125 L 24.46875,76.28125 L 23.75,70.125 L 20.03125,66.65625 L 19.84375,40.1875 z M 100.40625,50.15625 L 100.40625,51.46875 L 97.40625,53.4375 L 96.4375,57.46875 L 93.28125,59.78125 L 93.3125,62.59375 L 93.28125,62.5625 L 91.96875,64.125 L 89.6875,64.0625 L 89.75,64.25 L 91.90625,64.46875 L 92.6875,65.5625 L 92.6875,65.40625 L 92.25,64.375 L 93.6875,62.90625 L 98.28125,63.8125 L 100.34375,65.25 L 100.21875,91.8125 L 88.3125,95.9375 L 88.3125,89.90625 L 90.78125,88.84375 L 91,84.5 C 90.751814,84.051846 90.379192,83.940539 89.875,83.9375 L 89.875,81.0625 L 88.3125,81.53125 L 88.3125,72.96875 L 88.34375,72.96875 L 88.5625,71.9375 L 90.21875,71.9375 L 90.1875,71.96875 L 91.90625,73.3125 L 90.59375,71.65625 L 91.1875,71 L 91.0625,71.03125 L 90.25,71.5625 L 88.71875,71.3125 L 88.71875,71.28125 L 87.1875,70 L 87.125,70.125 L 88.34375,71.375 L 87.46875,72.46875 L 74.75,77.5625 L 74.75,99.625 L 73.40625,99.25 L 69.5625,99.4375 L 68.40625,96.53125 L 64.625,94.375 L 62.8125,91.125 L 57.65625,88.625 L 57.59375,65.875 L 58.8125,66.9375 L 58.625,68.3125 L 59.25,67.0625 L 60.96875,67.5 L 63.6875,66 L 64.125,65.9375 L 67.03125,66.53125 L 68.65625,68.65625 L 68.875,68.625 L 67.09375,66.40625 L 67.0625,66.40625 L 67.03125,66.375 L 65.125,65.75 L 67.40625,65.34375 L 68.90625,63.53125 L 68.8125,63.46875 L 67.21875,64.96875 L 63.5625,65.5625 L 61.0625,67.0625 L 59.1875,66.5625 L 58.1875,65.15625 L 100.40625,50.15625 z M 100.21875,52 L 100.21875,54.125 L 98.25,54.75 L 98.25,57.5625 L 100.21875,56.90625 L 100.25,60.09375 L 97.90625,60.875 L 97.90625,63.4375 L 97.5625,63.375 L 97.5625,61.09375 L 93.65625,62.375 L 93.625,62.21875 L 94.65625,61.875 L 94.65625,59.125 L 94.4375,59.1875 L 95.25,58.625 L 97.90625,57.71875 L 97.90625,54.96875 L 97.375,55.15625 L 97.4375,54.9375 L 100.0625,54.03125 L 100.0625,52.09375 L 100.21875,52 z M 99.90625,52.21875 L 99.9375,53.9375 L 97.46875,54.78125 L 97.8125,53.65625 L 99.90625,52.21875 z M 29.75,53.25 L 29.875,67.53125 L 40.5625,74.15625 L 41.3125,75.90625 L 40.125,77.375 L 41,78.59375 L 41.15625,78.71875 L 40.5625,77.40625 L 41.5625,76.125 L 43.03125,76.53125 L 43.71875,80.5 L 45.40625,81.125 L 45.375,80.90625 L 43.90625,80.53125 L 43.46875,76.84375 L 45.46875,77.625 L 46.125,79 L 46.25,78.96875 L 45.9375,77.5625 L 46.875,76.875 L 46.78125,76.90625 L 45.5,77.25 L 43.25,76.0625 L 43.25,76.125 L 41.90625,76 L 41.4375,74.375 L 41.375,61.96875 L 43.34375,60.5625 L 44.09375,61.03125 L 45.28125,63.5 L 45.46875,63.625 L 44.65625,61.21875 L 45.78125,60.84375 L 45.78125,60.75 L 44.53125,60.90625 L 44.5,60.78125 L 43.34375,60.1875 L 40.90625,60.96875 L 29.75,53.25 z M 100.4375,54.25 L 100.46875,56.6875 L 98.40625,57.40625 L 98.40625,54.875 L 100.4375,54.25 z M 30.5,54.5 L 31.875,55.46875 L 31.875,65.9375 L 30.5625,66.5625 L 30.5,54.5 z M 97.75,55.15625 L 97.78125,57.625 L 95.625,58.375 L 96.625,57.6875 L 97.3125,55.3125 L 97.75,55.15625 z M 32.3125,55.78125 L 32.75,56.09375 L 32.75,66.125 L 32.3125,65.84375 L 32.3125,55.78125 z M 33.0625,56.34375 L 34.65625,57.46875 L 34.6875,67.71875 C 34.019768,68.946699 33.035382,68.058795 33.0625,67.375 L 33.0625,56.34375 z M 100.0625,57.25 L 94.96875,58.90625 L 95,61.71875 L 100.0625,60 L 100.0625,57.25 z M 99.875,57.4375 L 99.90625,59.90625 L 95.125,61.53125 L 95.125,59.03125 L 99.875,57.4375 z M 34.96875,57.6875 L 37,59.15625 L 37,69 L 34.96875,67.65625 L 34.96875,57.6875 z M 94.46875,59.3125 L 94.5,61.78125 L 93.625,62.0625 L 93.40625,59.90625 L 94.09375,59.4375 L 94.46875,59.3125 z M 37.3125,59.375 L 38.90625,60.5 L 38.9375,70.375 C 38.269767,71.602956 37.285382,70.715045 37.3125,70.03125 L 37.3125,59.375 z M 100.53125,60.15625 L 100.5,62.65625 L 98.15625,63.46875 L 98.0625,63.46875 L 98.03125,60.96875 L 100.53125,60.15625 z M 39.21875,60.71875 L 40.6875,61.78125 L 40.6875,71.5 L 39.21875,70.46875 L 39.21875,60.71875 z M 97.40625,61.25 L 97.4375,63.34375 L 93.6875,62.6875 L 93.65625,62.5 L 97.40625,61.25 z M 100.25,62.875 L 100.25,64.84375 L 100.0625,64.6875 L 100.0625,63.125 L 98.65625,63.59375 L 98.59375,63.5625 L 98.5625,63.53125 L 98.5,63.53125 L 98.40625,63.53125 L 100.25,62.875 z M 99.90625,63.3125 L 99.9375,64.59375 L 98.75,63.6875 L 99.90625,63.3125 z M 32.125,66.34375 L 32.75,66.78125 L 32.75,67.4375 C 32.662139,67.800422 33.811136,69.379043 34.78125,68.1875 L 37,69.6875 L 37,70.09375 C 36.915721,70.44187 37.964247,71.901827 38.90625,70.96875 L 40.6875,72.21875 L 40.6875,73.65625 L 30.625,66.96875 L 32.125,66.34375 z M 20.28125,67.28125 L 20.40625,67.40625 L 20.40625,69.625 L 23.5625,71.78125 L 23.59375,71.90625 L 23.5625,71.875 L 23.5625,74.71875 L 24.03125,75.03125 L 24.0625,75.3125 L 20.375,72.71875 L 20.375,75.53125 L 25.4375,79.03125 L 25.4375,78.0625 L 25.65625,78.375 L 25.65625,79.125 L 26.59375,79.75 L 26.5625,79.9375 L 23.21875,77.59375 L 23.21875,80.40625 L 26.3125,82.5625 L 26.34375,82.71875 L 25.6875,82.25 L 25.6875,85.0625 L 26.90625,85.90625 L 26.9375,86.09375 L 20.34375,81.46875 L 20.34375,78.4375 L 23.03125,80.3125 L 23.03125,77.5625 L 20.3125,75.65625 L 20.3125,72.46875 L 23.375,74.59375 L 23.375,71.84375 L 20.28125,69.6875 L 20.28125,67.28125 z M 20.5625,67.5625 L 23.375,70.40625 L 23.5625,71.65625 L 20.5625,69.59375 L 20.5625,67.5625 z M 20.038182,69.711167 L 23.21875,71.875 L 23.25,74.34375 L 20.025238,72.211167 L 20.038182,69.711167 z M 23.71875,72.84375 L 24,74.875 L 23.71875,74.6875 L 23.71875,72.84375 z M 20.53125,72.96875 L 24.09375,75.46875 L 24.21875,76.40625 L 25.3125,77.90625 L 25.3125,78.78125 L 20.53125,75.5 L 20.53125,72.96875 z M 87.53125,73.0625 L 87.53125,82.09375 C 87.190826,81.840591 86.785434,82.011008 86.5625,82.15625 L 86.59375,73.4375 L 87.53125,73.0625 z M 86.09375,73.65625 L 86.0625,82.15625 L 84.5625,82.75 L 84.5625,85.71875 L 86.03125,85.25 L 86.03125,85.375 C 85.620956,85.577319 85.166745,85.797283 84.75,86.03125 L 86.03125,88.5625 L 86,95.12343 L 84.424556,95.71718 L 84.4375,91.90625 L 85.90625,91.34375 L 85.90625,88.375 L 85.59375,88.03125 L 84.40625,88.4375 L 84.375,82.03125 L 85.90625,81.4375 L 85.90625,78.46875 L 85.59375,78.125 L 84.34375,78.5625 L 84.3125,74.375 L 86.09375,73.65625 z M 83.9375,74.53125 L 83.9375,78.6875 L 82.3125,79.25 L 82.28125,75.21875 L 83.9375,74.53125 z M 81.90625,75.375 L 81.90625,79.40625 L 79.90625,80.09375 L 79.875,76.21875 L 81.90625,75.375 z M 20.047335,75.62657 L 22.84375,77.5625 L 22.875,80.0625 L 20.034391,78.148667 L 20.047335,75.62657 z M 79.5,76.375 L 79.53125,80.21875 L 77.34375,80.96875 L 77.3125,77.28125 L 79.5,76.375 z M 76.9375,77.4375 L 76.96875,81.09375 L 75.625,81.5625 L 75.625,77.96875 L 76.9375,77.4375 z M 23.375,77.84375 L 26.53125,80.09375 L 26.25,82.09375 L 26.3125,82.4375 L 23.375,80.40625 L 23.375,77.84375 z M 85.46875,78.40625 L 85.46875,78.625 L 75.625,82.0625 L 75.625,81.875 L 85.46875,78.40625 z M 25.8125,78.59375 L 26.59375,79.65625 L 25.8125,79.125 L 25.8125,78.59375 z M 20.40625,78.65625 L 20.40625,81.46875 L 25.46875,84.9375 L 25.46875,82.1875 L 20.40625,78.65625 z M 20.5625,78.90625 L 25.3125,82.21875 L 25.34375,84.71875 L 20.5625,81.4375 L 20.5625,78.90625 z M 85.375,79.0625 L 85.4375,80.96875 L 75.625,84.78125 L 75.625,82.75 L 85.375,79.0625 z M 89.75,81.25 L 89.737056,83.9375 L 89.03125,84.03125 L 88.8125,83.59375 C 88.960557,83.358132 89.074209,83.070197 89.25,82.75 C 89.18644,82.457989 89.048612,82.185129 88.5625,82.375 C 88.498905,82.530999 88.417465,82.6494 88.34375,82.75 L 88.3125,82.6875 L 88.3125,81.75 L 89.75,81.25 z M 83.96875,82.1875 L 83.96875,88.59375 L 82.375,89.125 L 82.34375,82.8125 L 83.96875,82.1875 z M 86.0625,82.3125 L 86.0625,82.5 C 85.712189,82.815212 85.469191,83.241869 85.5,83.6875 C 85.368561,83.650287 85.261407,83.623352 85.09375,83.59375 C 84.782064,83.972415 84.981049,84.215086 85.1875,84.59375 C 85.514065,84.765855 85.763578,84.780875 86,84.75 L 86.03125,84.8125 L 86.03125,85.0625 L 84.6875,85.53125 L 84.6875,82.875 L 86.0625,82.3125 z M 86.90625,82.46875 C 87.346122,82.418957 87.809257,82.678999 88.0625,82.90625 L 88.125,82.96875 C 88.07511,83.009905 88.023186,83.058521 87.96875,83.09375 L 87.90625,83 C 87.683928,82.884392 87.463833,82.823687 87.28125,82.8125 C 86.744496,82.779612 86.404027,83.17001 86.15625,83.84375 C 86.071246,83.84081 85.98767,83.829287 85.90625,83.8125 C 86.087173,82.868304 86.477982,82.517232 86.90625,82.46875 z M 25.8125,82.5 L 26.375,82.90625 L 26.875,85.71875 L 25.84375,85.03125 L 25.8125,82.5 z M 88.6875,82.5625 C 88.82726,82.5901 88.977265,82.568088 89,82.875 C 88.839,83.33356 88.627968,83.733135 88.09375,83.90625 C 87.909043,83.799173 87.509638,83.943829 87.65625,83.5 C 88.138839,83.276404 88.456075,82.950606 88.6875,82.5625 z M 81.9375,82.96875 L 81.9375,89.28125 L 80,89.96875 L 79.9375,83.75 L 81.9375,82.96875 z M 86.96875,83.15625 C 87.162676,83.146502 87.38188,83.266362 87.59375,83.34375 C 87.489205,83.404127 87.400744,83.446165 87.28125,83.53125 C 87.306915,83.775125 87.394193,83.88827 87.53125,83.96875 L 87.5,84.6875 C 87.312127,84.774775 87.113258,84.872605 86.9375,84.96875 L 86.71875,84.53125 C 86.81623,84.495956 86.887859,84.469163 87,84.4375 C 87.163579,84.187393 87.257524,83.932103 86.78125,83.71875 C 86.648432,83.773373 86.545854,83.792136 86.4375,83.8125 C 86.557738,83.322835 86.763605,83.166564 86.96875,83.15625 z M 88.65625,83.78125 L 89.15625,84.5 C 88.980998,84.908378 88.891013,84.797059 88.78125,84.8125 L 88.375,84 C 88.486364,83.936157 88.582189,83.860275 88.65625,83.78125 z M 85.34375,83.8125 C 85.84159,83.999684 86.311039,84.013475 86.75,83.90625 C 86.828346,84.025237 86.984082,84.143546 86.78125,84.375 C 86.34146,84.58184 85.873067,84.696896 85.375,84.4375 C 85.321784,84.230736 84.924551,84.019263 85.34375,83.8125 z M 79.53125,83.90625 L 79.5625,90.09375 L 77.4375,90.84375 L 77.375,84.75 L 79.53125,83.90625 z M 89.78125,84.25 C 90.311565,84.194953 90.527117,84.362904 90.5,84.65625 L 85.78125,86.28125 L 85.40625,86.03125 L 86.34375,85.46875 L 86.5,85.78125 C 86.865239,85.825864 87.156401,85.741454 87.3125,85.4375 L 87.15625,85.21875 C 87.461683,84.893053 87.938939,84.833987 88.375,84.65625 L 88.59375,85.03125 C 88.973196,85.163095 89.204179,84.9487 89.375,84.59375 L 89.21875,84.34375 L 89.78125,84.25 z M 86.5625,84.59375 L 87,85.34375 C 86.91156,85.517862 86.84437,85.668052 86.6875,85.5 L 86.28125,84.6875 C 86.36809,84.660946 86.470612,84.627915 86.5625,84.59375 z M 76.96875,84.90625 L 77,91 L 75.625,91.46875 L 75.625,85.40625 L 76.96875,84.90625 z M 90.5625,85.09375 L 90.40625,88.5625 L 88.09375,89.46875 L 86.4375,86.5 L 90.5625,85.09375 z M 85.3125,86.375 L 85.90625,86.5625 L 87.78125,89.75 C 87.462583,89.915146 86.963069,89.682891 86.78125,89.4375 L 85.3125,86.375 z M 88.78125,86.40625 C 88.587077,86.400946 88.381672,86.541781 88.1875,87.03125 C 88.312033,87.316678 88.462921,87.627115 88.9375,87.5625 L 89.0625,88.46875 L 89.78125,88.1875 L 89.125,87.34375 C 89.702907,87.272449 89.491198,86.958916 89.375,86.65625 C 89.180828,86.577078 88.975421,86.411552 88.78125,86.40625 z M 85.46875,88.3125 L 85.46875,88.53125 L 75.625,91.96875 L 75.625,91.78125 L 85.46875,88.3125 z M 57,88.9375 L 57.21875,89.0625 L 57.21875,89.34375 L 56.8125,89.0625 L 57,88.9375 z M 85.375,88.96875 L 85.4375,90.875 L 75.625,94.6875 L 75.625,92.65625 L 85.375,88.96875 z M 57.4375,89 L 57.875,89.1875 L 57.4375,89.3125 L 57.4375,89 z M 56.6875,89.125 L 57.307138,89.512944 L 57.307138,92.035041 L 55.4375,90.75 L 55.4375,89.96875 L 56.6875,89.125 z M 58.0625,89.28125 L 59.375,89.90625 L 59.40625,91.3125 L 57.4375,92 L 57.4375,89.477903 L 58.0625,89.28125 z M 86.5625,89.59375 C 86.856957,89.803981 87.13332,90.05437 87.5,90.125 L 87.5,96.125 L 86.53125,95.03125 L 86.5625,89.59375 z M 59.53125,89.96875 L 59.78125,90.09375 L 59.78125,91.21875 L 61.1875,90.75 L 61.5,90.90625 L 57.625,92.1875 L 57.625,95 L 62.6875,93.28125 L 62.6875,91.5625 L 63.03125,92.1875 L 63.03125,93.125 L 63.46875,92.96875 L 63.59375,93.15625 L 59.84375,94.375 L 59.84375,97.1875 L 64.90625,95.46875 L 64.90625,94.8125 L 65.15625,94.96875 L 65.15625,95.28125 L 65.5,95.15625 L 65.75,95.3125 L 63.03125,96.21875 L 63.03125,99.03125 L 68.09375,97.3125 L 68.09375,96.78125 L 68.375,97.40625 L 65.34375,98.40625 L 65.34375,101.21875 L 69.40625,99.84375 L 69.4375,99.875 L 69.5625,99.875 L 68.34375,100.25 L 68.34375,103.0625 L 73.40625,101.34375 L 73.40625,99.53125 L 73.5,99.53125 L 73.5,101.3125 L 74.75,100.875 L 74.75,100.9375 L 57.5,107.03125 L 57.5,104.03125 L 59.6875,103.28125 L 59.6875,100.53125 L 57.46875,101.25 L 57.46875,98.03125 L 59.5,97.34375 L 59.5,94.59375 L 57.46875,95.28125 L 57.4375,92.125 L 59.53125,91.40625 L 59.53125,89.96875 z M 55.28125,90.09375 L 55.28125,90.78125 L 57.21875,92.125 L 57.21875,95.25 L 55.125,93.78125 L 55.125,96.59375 L 57.25,98.0625 L 57.25,101.1875 L 54.90625,99.53125 L 54.9375,102.34375 L 57.25,103.9375 L 57.25,104.21875 L 52.28125,100.71875 L 52.28125,103.53125 L 57.25,106.96875 L 57.25,107.03125 L 42.125,96.625 L 42.1875,96.53125 L 46.90625,99.8125 L 46.90625,97.0625 L 43.78125,94.875 L 44.46875,94.5 L 44.46875,95.15625 L 49.53125,98.625 L 49.53125,95.875 L 46.84375,94 L 47.09375,94 L 51.9375,97.3125 L 51.9375,94.5625 L 50.75,93.71875 L 50.84375,93.625 L 55,96.5 L 55,93.75 L 52.46875,91.96875 L 52.5,91.9375 L 52.5625,91.90625 L 57.0625,95.03125 L 57.0625,92.28125 L 54.59375,90.53125 L 54.78125,90.40625 L 55.125,90.65625 L 55.125,90.1875 L 55.28125,90.09375 z M 59.9375,90.15625 L 61.03125,90.6875 L 59.9375,91.03125 L 59.9375,90.15625 z M 55,90.28125 L 55,90.4375 L 54.875,90.34375 L 55,90.28125 z M 54.5,90.59375 L 56.90625,92.3125 L 56.9375,94.8125 L 52.625,91.84375 L 54.5,90.59375 z M 61.71875,91 L 62.53125,91.375 L 62.5625,93.1875 L 57.78125,94.8125 L 57.78125,92.28125 L 61.71875,91 z M 52.40625,92.03125 L 54.84375,93.75 L 54.875,96.25 L 50.90625,93.53125 L 52.40625,92.03125 z M 84,92.09375 L 84,95.71875 L 82.4375,96.3125 L 82.40625,92.6875 L 84,92.09375 z M 63.1875,92.46875 L 63.40625,92.875 L 63.1875,92.9375 L 63.1875,92.46875 z M 81.96875,92.875 L 81.990847,96.765165 L 80.040403,97.483915 L 80.03125,93.625 L 81.96875,92.875 z M 63.65625,93.28125 L 64.3125,94.4375 L 64.78125,94.71875 L 64.78125,95.375 L 60,97 L 60,94.46875 L 63.65625,93.28125 z M 50.65625,93.8125 L 51.78125,94.59375 L 51.8125,97.09375 L 47.28125,94 L 50.46875,94 L 50.65625,93.8125 z M 79.5625,93.8125 L 79.59375,97.40625 L 77.5,98.1875 L 77.46875,94.59375 L 79.5625,93.8125 z M 45.375,94 L 46.625,94 L 49.375,95.90625 L 49.40625,98.40625 L 44.625,95.125 L 44.625,94.40625 L 45.375,94 z M 55.28125,94.03125 L 57.329235,95.441291 L 57.262944,97.9375 L 55.28125,96.59375 L 55.28125,94.03125 z M 52.0625,94.625 L 52.09375,97.4375 L 57.15625,100.9375 L 57.15625,98.1875 L 52.0625,94.625 z M 59.34375,94.78125 L 59.375,97.25 L 57.380362,97.928347 L 57.402459,95.450444 L 59.34375,94.78125 z M 77,94.78125 L 77.119638,98.573874 L 75.647097,99.083027 L 75.625,95.3125 L 77,94.78125 z M 52.21875,94.875 L 57,98.1875 L 57.03125,100.6875 L 52.25,97.40625 L 52.21875,94.875 z M 43.65625,94.9375 L 46.71875,97.09375 L 46.75,99.5625 L 42.21875,96.46875 L 43.15625,95.21875 L 43.65625,94.9375 z M 65.90625,95.4375 L 67.96875,96.71875 L 67.96875,97.21875 L 63.1875,98.875 L 63.1875,96.34375 L 65.90625,95.4375 z M 49.71875,95.9375 L 49.71875,98.75 L 54.78125,102.25 L 54.78125,99.5 L 49.71875,95.9375 z M 49.875,96.1875 L 54.625,99.5 L 54.65625,102 L 49.875,98.71875 L 49.875,96.1875 z M 62.6875,96.4375 L 57.625,98.09375 L 57.625,100.90625 L 62.6875,99.1875 L 62.6875,96.4375 z M 62.53125,96.625 L 62.5625,99.09375 L 57.78125,100.75 L 57.78125,98.21875 L 62.53125,96.625 z M 47.09375,97.09375 L 47.09375,99.9375 L 52.15625,103.40625 L 52.15625,100.65625 L 47.09375,97.09375 z M 47.25,97.34375 L 52,100.6875 L 52.03125,103.1875 L 47.25,99.90625 L 47.25,97.34375 z M 68.40625,97.5 L 69.34375,99.6875 L 65.5,101.03125 L 65.46875,98.5 L 68.40625,97.5 z M 65.09375,98.65625 L 60.03125,100.3125 L 60.03125,103.125 L 65.09375,101.40625 L 65.09375,98.65625 z M 64.9375,98.8125 L 64.96875,101.28125 L 60.1875,102.9375 L 60.15625,100.40625 L 64.9375,98.8125 z M 73.25,99.5 L 73.28125,101.25 L 68.5,102.875 L 68.5,100.34375 L 70.125,99.8125 L 73.25,99.5 z M 73.65625,99.59375 L 74.75,99.90625 L 74.75,100.75 L 73.65625,101.125 L 73.65625,99.59375 z M 55.0625,99.78125 L 57.338388,101.37879 L 57.338388,103.8125 L 55.0625,102.3125 L 55.0625,99.78125 z M 68.09375,100.5 L 63.03125,102.15625 L 63.03125,104.96875 L 68.09375,103.25 L 68.09375,100.5 z M 59.53125,100.6875 L 59.5625,103.15625 L 57.5,103.8971 L 57.46875,101.375 L 59.53125,100.6875 z M 67.9375,100.6875 L 67.96875,103.15625 L 63.1875,104.78125 L 63.1875,102.25 L 67.9375,100.6875 z M 52.4375,100.96875 L 57.275888,104.32544 L 57.329235,106.82544 L 52.4375,103.5 L 52.4375,100.96875 z M 62.6875,102.375 L 57.625,104.03125 L 57.625,106.84375 L 62.6875,105.125 L 62.6875,102.375 z M 62.53125,102.5625 L 62.5625,105.03125 L 57.78125,106.65625 L 57.78125,104.125 L 62.53125,102.5625 z"
       id="path2601"
       sodipodi:nodetypes="ccccccccccccccccccccccccccccccccccccccccccccccccccccccccccccccccccccccccccccccccccccccccccccccccccccccccccccccccccccccccccccccccccccccccccccccccccccccccccccccccccccccccccccccccccccccccccccccccccccccccccccccccccccccccccccccccccccccccccccccccccccccccccccccccccccccccccccccccccccccccccccccccccccccccccccccccccccccccccccccccccccccccccccccccccccccccccccccccccccccccccccccccccccccccccccccccccccccccccccccccccccccccccccccccccccccccccccccccccccccccccccccccccccccccccccccccccccccccccccccccccccccccccccccccccccccccccccccccccccccccscccccccccccccccccccccccccccccccccccccccccccccccccccccccccccccccccccccccccccccccccccccccccccccccccccccccccccccccccccccccccccccccccccccccccccccccccccccccccccccccccccccccccccccccccccccccccccccccccccccccccccccccccccccccccccccccccccccccccccccccccccccccccccccccccccccccccccccccccccccccccccccccccccccccccccccccccccccccccccccccccccccccccccccccccccccccccccccccccccccccccccccccccccccccccccccccccccccccccccccccccccccc" />
  </g>
</svg>
