<?xml version="1.0" encoding="UTF-8" standalone="no"?>
<!-- Created with Inkscape (http://www.inkscape.org/) -->
<svg
   xmlns:dc="http://purl.org/dc/elements/1.1/"
   xmlns:cc="http://creativecommons.org/ns#"
   xmlns:rdf="http://www.w3.org/1999/02/22-rdf-syntax-ns#"
   xmlns:svg="http://www.w3.org/2000/svg"
   xmlns="http://www.w3.org/2000/svg"
   xmlns:xlink="http://www.w3.org/1999/xlink"
   xmlns:sodipodi="http://sodipodi.sourceforge.net/DTD/sodipodi-0.dtd"
   xmlns:inkscape="http://www.inkscape.org/namespaces/inkscape"
   width="128"
   height="128"
   id="svg2"
   sodipodi:version="0.32"
   inkscape:version="0.45+devel"
   version="1.0"
   sodipodi:docname="magic_stones_outline.svg"
   inkscape:output_extension="org.inkscape.output.svg.inkscape">
  <defs
     id="defs4">
    <filter
       height="1.42432"
       y="-0.21216"
       width="1.2179726"
       x="-0.1089863"
       id="filter2892"
       inkscape:collect="always">
      <feGaussianBlur
         id="feGaussianBlur2894"
         stdDeviation="0.72146876"
         inkscape:collect="always" />
    </filter>
    <radialGradient
       r="8.2519293"
       fy="222.04396"
       fx="14.207293"
       cy="222.04396"
       cx="14.207293"
       gradientTransform="scale(1.39523,0.716728)"
       gradientUnits="userSpaceOnUse"
       id="radialGradient1968"
       xlink:href="#linearGradient2057"
       inkscape:collect="always" />
    <linearGradient
       inkscape:collect="always"
       id="linearGradient2057">
      <stop
         style="stop-color:#000000;stop-opacity:1;"
         offset="0"
         id="stop2059" />
      <stop
         style="stop-color:#000000;stop-opacity:0;"
         offset="1"
         id="stop2061" />
    </linearGradient>
  </defs>
  <sodipodi:namedview
     id="base"
     pagecolor="#ffffff"
     bordercolor="#666666"
     borderopacity="1.0"
     gridtolerance="10000"
     guidetolerance="10"
     objecttolerance="10"
     inkscape:pageopacity="0.0"
     inkscape:pageshadow="2"
     inkscape:zoom="1"
     inkscape:cx="74.013866"
     inkscape:cy="38.674928"
     inkscape:document-units="px"
     inkscape:current-layer="layer1"
     showgrid="false"
     width="744.09px"
     inkscape:window-width="1248"
     inkscape:window-height="975"
     inkscape:window-x="426"
     inkscape:window-y="24" />
  <metadata
     id="metadata7">
    <rdf:RDF>
      <cc:Work
         rdf:about="">
        <dc:format>image/svg+xml</dc:format>
        <dc:type
           rdf:resource="http://purl.org/dc/dcmitype/StillImage" />
      </cc:Work>
    </rdf:RDF>
  </metadata>
  <g
     inkscape:label="Layer 1"
     inkscape:groupmode="layer"
     id="layer1">
    <path
       style="opacity:1;fill:#5c2700;fill-opacity:1;stroke:none;stroke-width:0.89514470000000002;stroke-miterlimit:4;stroke-dasharray:none;stroke-opacity:1"
       d="M 84.75 5.21875 C 83.504851 5.3402412 82.50937 6.5454043 82.1875 8.40625 L 82.1875 8.4375 C 82.061089 9.2525095 81.673018 9.7515623 81.15625 10.3125 C 80.639482 10.873438 79.991491 11.444047 79.4375 12.28125 L 79.40625 12.34375 L 79.375 12.4375 C 79.043569 13.569016 78.955552 15.790342 78.90625 18.09375 C 78.857499 20.371422 78.874535 22.614938 78.875 23.625 C 78.875005 23.636413 78.875 23.676414 78.875 23.6875 C 78.427772 26.784635 78.15285 29.929606 78.5625 33.09375 C 76.568362 33.066293 75.063101 33.974783 73.75 35.34375 C 73.453244 36.341019 74.058511 36.739551 74.625 37.40625 C 75.235366 38.510376 76.237654 38.870075 77.40625 39.25 C 78.446324 39.186014 79.490405 39.235847 80.53125 39.25 C 80.777701 39.508028 81.050594 39.760165 81.375 40 L 81.375 40.03125 C 84.150196 41.933797 87.448979 41.519135 90.34375 40.40625 C 90.629511 41.219984 91.115805 41.66125 91.9375 42.0625 C 93.584338 42.236574 94.986575 41.798809 96.3125 40.875 C 98.10605 39.028435 97.601114 37.295301 95.96875 35.6875 L 95.9375 35.65625 L 95.90625 35.65625 C 95.327686 35.274163 94.696644 34.937377 94.03125 34.75 C 94.020555 34.143006 93.948813 33.354061 93.8125 32.78125 C 92.779436 30.648607 91.887685 28.425172 91 26.21875 C 90.823323 21.196173 90.450293 12.678936 87.75 8 C 87.738568 7.963045 87.730589 7.9424991 87.71875 7.90625 L 87.6875 7.90625 C 87.400288 7.0343825 87.026159 6.3308671 86.53125 5.875 C 86.012537 5.3972065 85.372575 5.1580044 84.75 5.21875 z M 84.84375 6.21875 C 85.1607 6.1878247 85.493088 6.3020006 85.84375 6.625 C 86.194412 6.9479994 86.562597 7.4733957 86.8125 8.28125 L 86.8125 8.34375 L 86.84375 8.40625 C 89.340063 12.650072 89.824342 21.355499 90 26.375 L 88.96875 28.4375 L 88.5625 31.375 L 87 32.84375 L 87.0625 32.96875 L 88.96875 32.1875 L 89.34375 32.84375 L 89.53125 32.78125 L 89.375 32 L 89.46875 28.6875 L 90.3125 27.25 C 91.093071 29.173497 91.890461 31.121264 92.84375 33 C 92.999912 33.65622 92.984661 34.082398 92.9375 34.625 C 92.010212 34.675832 91.09597 35.195348 90.4375 36.3125 C 90.21705 37.325384 90.196743 38.370162 90.1875 39.40625 C 87.425755 40.511392 84.448068 40.887206 81.96875 39.1875 C 81.047722 38.50658 80.587818 37.847502 80.28125 37.03125 C 79.974682 36.214998 79.832572 35.238224 79.6875 34.0625 L 79.6875 34.03125 C 79.060798 30.634009 79.374291 27.23365 79.875 23.78125 L 79.875 23.75 L 79.875 23.6875 C 79.875 22.680975 79.857388 20.407854 79.90625 18.125 C 79.954551 15.868366 80.115319 13.602335 80.34375 12.78125 C 80.800137 12.117725 81.356313 11.596942 81.90625 11 C 82.081761 10.809487 82.245687 10.596742 82.40625 10.375 L 83.4375 11.9375 L 83.375 13.8125 L 82.53125 15.1875 L 82.53125 15.21875 L 83.65625 14.125 L 83.90625 12.5625 L 85.625 12.9375 L 85.65625 12.875 L 84 12 L 84.03125 11.875 L 82.90625 9.5 C 83.028093 9.2136565 83.134138 8.9065391 83.1875 8.5625 C 83.463845 6.9648559 84.20985 6.2806006 84.84375 6.21875 z M 32.75 10.53125 C 28.198605 10.482574 27.288338 15.8657 26.8125 19.65625 C 26.26106 23.243014 28.194485 26.976756 27.65625 30.5625 C 26.226417 33.143016 25.273111 36.048111 25.3125 38.90625 L 25.3125 39 C 26.182804 41.852641 27.347215 44.473304 29.15625 46.84375 C 32.780393 48.014088 35.976475 46.522542 39.15625 44.8125 L 39.1875 44.8125 L 39.1875 44.78125 C 39.765506 44.224523 40.137241 43.605884 40.40625 42.9375 C 41.1925 43.009373 42.140466 43.206749 43.125 42.75 L 43.125 42.78125 C 44.180986 42.486971 45.32783 42.37441 45.90625 41.125 C 45.392943 40.03863 44.67929 39.091967 43.9375 38.15625 C 42.914499 37.587289 41.996127 37.764283 40.96875 38.0625 C 40.966132 37.895359 40.970734 37.728674 40.96875 37.5625 C 40.968729 37.55394 40.968761 37.539758 40.96875 37.53125 C 40.970335 37.519777 40.967203 37.511451 40.96875 37.5 C 41.365874 34.559774 40.178781 32.86289 39 30.375 C 37.614015 27.157944 38.5 22.793268 38.5 19.09375 C 37.508236 15.597309 36.427486 11.752863 32.75 10.53125 z M 32.625 11.09375 C 35.91377 11.933021 36.547429 16.375799 37.5 19.1875 C 37.493536 21.508214 37.252873 23.981123 37.5 26.40625 L 37.65625 32.28125 L 38.59375 34.8125 L 36.46875 40.65625 L 36.5625 40.65625 L 38.375 36.65625 L 38.15625 37.78125 L 37.84375 41.28125 L 35.75 45.25 L 35.9375 45.25 L 38.4375 41.59375 L 38.625 37.90625 L 39.15625 34.90625 L 39.15625 34.875 L 39.15625 34.84375 L 38.0625 32.1875 L 38.1875 29.5 C 38.273847 29.74911 38.331832 30.004731 38.4375 30.25 C 39.672007 32.532164 40.161876 34.837321 40 37.40625 C 40.276142 39.772878 39.983627 42.13722 38.875 44.21875 C 36.054022 46.164797 33.006996 47.209996 29.5625 46.78125 C 28.657608 45.334148 29.039229 44.658954 28.875 43.65625 L 30.125 41.53125 L 29.90625 41.28125 L 28.46875 43.625 L 28.4375 45.25 C 27.170472 43.196879 27.182235 41.107576 26.3125 38.8125 C 26.288505 36.445434 26.580656 33.898859 27.5 31.75 L 27.375 34.53125 L 28.71875 36.25 L 28.84375 36.125 L 27.6875 34.59375 L 28.03125 30.6875 C 28.038809 30.624647 28.055578 30.562898 28.0625 30.5 L 28.0625 30.34375 L 29.59375 28.75 L 29.625 28.4375 L 28.125 29.75 C 28.362373 26.47225 27.841779 23.140914 27.8125 19.84375 L 27.8125 19.78125 L 27.8125 19.75 C 28.254939 17.325428 28.81339 13.383552 30.90625 11.78125 L 30.5625 13.40625 L 30.8125 13.5625 L 31.5625 11.40625 C 31.888939 11.25259 32.233326 11.137061 32.625 11.09375 z M 78.28125 34.09375 C 78.425885 34.094251 78.571798 34.116795 78.71875 34.125 C 78.722462 34.145647 78.714974 34.166851 78.71875 34.1875 L 78.6875 34.1875 C 78.83264 35.363779 78.979142 36.404214 79.34375 37.375 C 79.468959 37.708374 79.620939 38.032952 79.8125 38.34375 C 79.033273 38.504761 78.213824 38.847984 77.46875 38.875 C 76.291879 38.680576 76.135827 37.780289 75.40625 36.8125 C 75.031451 36.631799 74.416287 35.963567 74.15625 35.65625 C 75.249847 34.555505 76.692142 34.088245 78.28125 34.09375 z M 93.1875 35.15625 C 93.83546 35.16708 94.542351 35.959119 95.28125 36.4375 C 96.829766 37.621373 97.029522 39.131627 95.90625 40.625 C 94.927043 41.439152 93.346824 41.012341 92.125 41.09375 C 91.501842 40.918726 91.019975 40.569971 90.75 40.0625 C 90.738926 39.203855 91.260615 37.59727 91.375 36.75 C 91.928587 35.858 92.542627 35.145471 93.1875 35.15625 z M 115.84375 36.71875 C 113.87534 37.001558 113.05317 38.427848 112.3125 40.125 C 110.94946 42.954793 109.43357 45.706141 108.25 48.625 C 108.14449 51.80892 108.63956 54.985511 108.9375 58.15625 C 108.71976 59.386971 107.7168 60.614285 107 61.71875 C 103.04788 48.834851 86.074471 39.156251 65.8125 39.15625 C 50.761764 39.156251 37.599496 44.50009 30.1875 52.53125 C 29.721101 51.161959 29.06711 49.888947 28.1875 48.8125 L 28.1875 48.71875 L 28.0625 48.65625 C 27.242008 47.69843 26.229833 46.90444 24.9375 46.40625 L 24.875 46.375 L 24.8125 46.375 C 19.855456 46.034755 19.049523 51.741259 18.71875 55.59375 C 17.982377 60.272867 15.550973 64.416422 13.84375 68.78125 C 13.428938 73.696232 13.461915 78.616691 13.8125 83.53125 L 13.84375 83.59375 L 13.875 83.65625 C 14.194875 84.512467 14.57974 85.190515 15.03125 85.75 L 12.125 84.84375 C 10.401888 85.330777 9.8158566 86.498756 9.25 88.0625 C 9.2334465 89.431639 10.173588 90.061736 11.1875 90.78125 C 13.804823 91.108347 16.045135 90.121711 18.21875 88.78125 C 18.08051 88.278218 17.782176 87.828953 17.46875 87.40625 C 18.162659 87.638479 18.922745 87.783583 19.8125 87.84375 C 23.151072 87.63994 26.192716 86.528917 29.09375 84.9375 L 29.15625 84.90625 L 29.1875 84.84375 C 29.75334 84.200623 30.156481 83.481363 30.4375 82.71875 C 37.86629 90.565551 50.832507 95.799672 65.625 95.84375 C 65.555245 96.419742 65.501292 97.022756 65.46875 97.65625 C 64.302774 97.777128 63.467274 98.775409 62.625 99.375 C 61.229064 100.17628 60.690205 100.63401 60.375 102.09375 C 60.754759 104.08526 62.202693 105.08759 64.09375 105.1875 C 65.904979 105.20816 67.905025 104.02666 69.09375 103 C 71.244263 103.63391 73.576135 103.50981 75.71875 104.34375 C 77.73789 105.33922 79.909551 105.14936 82.0625 104.6875 C 83.958852 104.01563 85.521965 102.54711 86.1875 100.28125 C 87.54764 100.11848 88.816789 99.774735 89.8125 98.875 C 89.97309 97.830778 89.820865 96.691278 89.75 95.625 C 89.595069 95.080177 88.995534 95.051802 88.53125 94.875 C 87.253539 94.872553 86.080373 94.798842 84.84375 94.53125 C 84.63536 94.007889 84.416614 93.482409 84.1875 92.96875 C 96.137378 89.035113 104.93474 81.402685 107.25 72.28125 C 107.86407 73.522936 108.8345 74.566772 110.3125 75.28125 C 113.42957 76.463538 116.3888 77.04928 119.65625 76.3125 C 119.88294 76.17927 120.10965 76.058681 120.3125 75.90625 C 121.05395 76.699955 121.68109 77.072382 122.75 76.90625 C 124.25876 76.490994 126.06373 77.063133 127.125 75.15625 C 126.27257 74.155382 125.35707 73.186049 126.125 71.375 C 125.14338 70.740834 124.15654 70.760858 123.15625 70.875 C 123.55141 68.710489 123.33723 66.344771 122.8125 64.34375 C 122.12513 62.06424 120.67643 60.110028 120.09375 57.78125 C 119.63582 54.149146 120.89017 50.143697 121.0625 46.34375 C 121.42801 43.797026 121.45783 41.758573 120.46875 39.375 L 120.4375 39.3125 L 120.40625 39.28125 C 118.91812 37.623615 117.35886 36.648885 115.84375 36.71875 z M 116 36.9375 C 116.09908 36.932931 116.20959 36.976926 116.3125 37 L 114.375 40.71875 L 114.59375 44 L 114.78125 44.09375 L 114.96875 40.84375 L 116.90625 37.21875 C 117.72618 37.719002 118.63273 38.810118 119.625 39.90625 C 120.78604 41.963336 120.18419 44.086129 120.0625 46.3125 C 119.69849 50.125724 119.27534 53.88834 119.53125 57.71875 C 120.03245 59.666796 120.76792 61.540946 121.4375 63.4375 L 120.25 67.0625 L 117.6875 71.34375 L 116.09375 71.71875 L 116.125 71.75 L 117.59375 71.625 L 120.78125 67.25 L 120.78125 67.21875 L 120.8125 67.15625 L 121.75 64.34375 C 121.78146 64.437271 121.81287 64.531297 121.84375 64.625 C 122.94881 68.571945 122.86374 73.457192 119.46875 75.9375 C 117.25981 76.771125 114.77311 76.060756 112.46875 75.34375 L 115.5625 75.40625 L 120.65625 73.5625 L 121.6875 71.03125 L 121.65625 71.03125 L 120.5 73.09375 L 115.34375 75 L 110.5625 74.75 C 106.51048 72.961075 107.11434 66.251797 107.625 62.53125 C 108.24223 61.605775 108.69217 60.63741 109.03125 59.625 C 110.12031 58.716479 111.08863 57.88626 111.84375 56.0625 L 111.6875 56.09375 C 111.66597 57.127176 110.33341 57.641327 109.40625 58.3125 C 109.21064 55.177932 108.80094 51.856675 108.875 48.71875 C 109.93843 45.798761 111.94734 43.43144 113.25 40.53125 L 113.25 40.5 L 113.25 40.46875 C 113.70779 38.926955 114.60756 37.442005 116 36.9375 z M 43.0625 38.34375 C 43.325946 38.319527 43.560867 38.32915 43.75 38.375 C 44.292085 39.006138 44.733547 40.513963 45.125 41.21875 C 44.694573 41.604514 43.459749 42.119672 42.6875 42.40625 C 42.029448 42.706454 41.377414 42.183718 40.6875 42 C 40.916864 41.033447 40.972339 40.003264 40.96875 38.96875 C 41.534314 38.681282 42.37345 38.407107 43.0625 38.34375 z M 65.5625 39.5625 C 85.560891 39.562501 102.89235 49.895361 106.53125 62.84375 L 106.59375 62.84375 C 106.27091 65.757344 105.98633 68.950955 106.90625 71.5 C 105.0234 80.752152 96.05763 88.493667 83.9375 92.4375 C 83.933525 92.428797 83.941477 92.414951 83.9375 92.40625 C 83.422604 87.480415 83.731012 82.532262 83.40625 77.59375 C 83.358764 76.023868 83.151887 74.484528 82.84375 72.96875 L 104.90625 70.15625 L 79.8125 62.5625 C 79.759433 62.338833 79.137832 60.374466 79.0625 60.15625 L 83.25 43.78125 L 63 57.0625 L 37.40625 49.125 L 50.46875 65.15625 L 31 78 C 30.986442 77.40582 30.973253 76.817211 30.9375 76.21875 C 30.749288 73.068335 30.451368 69.890311 31.0625 67.125 C 31.527409 62.633709 31.151593 58.117311 30.53125 53.65625 L 30.53125 53.625 C 30.479866 53.436541 30.431936 53.248948 30.375 53.0625 C 37.688949 45.03021 50.807909 39.5625 65.5625 39.5625 z M 82.96875 44.15625 L 78.71875 59.8125 C 78.486132 59.516068 78.226911 59.237079 77.875 59 C 76.277177 59.017279 74.602215 59.683166 73.53125 60.3125 L 63.21875 57.0625 L 82.96875 44.15625 z M 24.71875 46.625 C 25.616285 46.98155 26.344144 47.60973 26.96875 48.34375 L 28.25 53.75 L 27.8125 57.875 L 26.53125 63.46875 L 26.8125 63.5625 L 28.25 58.8125 L 29.46875 62.46875 L 28.0625 66.03125 L 30.0625 62.71875 L 28.59375 57.09375 L 28.875 53.8125 L 28.4375 50.65625 C 28.910125 51.681208 29.269996 52.777328 29.5625 53.84375 C 30.526678 58.199836 30.703862 62.650511 30.625 67.09375 C 30.0342 70.22758 29.89683 73.225329 30.125 76.375 C 30.307778 79.43445 30.154646 82.162405 28.46875 84.125 C 27.381439 84.796909 26.254969 85.453634 25.09375 86 L 23.53125 84.84375 L 23 83.59375 L 22.5625 80.65625 L 22.5 80.53125 L 22.25 83.65625 L 22.34375 83.875 L 19.84375 84.09375 L 19.84375 84.28125 L 22.59375 84.40625 L 23.03125 85.28125 L 24.3125 86.3125 C 22.838425 86.941421 21.329992 87.413191 19.78125 87.5625 C 17.124812 87.680525 15.956509 85.417657 14.8125 83.28125 C 14.180193 78.943092 14.164408 73.23198 14.28125 68.75 C 14.859355 67.043265 15.683911 65.463016 16.53125 63.90625 C 16.101063 65.091821 15.730158 66.2188 16.125 68 L 16.40625 67.96875 C 16.066652 65.701316 16.962198 63.846724 17.5625 61.96875 C 18.564216 60.034504 19.44756 58.047649 19.71875 55.71875 L 19.71875 55.6875 L 19.71875 55.65625 C 19.901779 52.365495 20.656644 46.678517 24.71875 46.625 z M 37.84375 49.40625 L 62.75 57.1875 L 50.90625 65.3125 L 37.84375 49.40625 z M 63.09375 57.21875 L 73.15625 60.53125 C 71.629114 61.733422 70.592767 63.564281 69.71875 65.75 C 68.536026 68.445559 68.634535 71.407065 68.78125 74.25 L 58.75 75.1875 L 51.0625 65.28125 L 63.09375 57.21875 z M 77.09375 59.75 C 78.143439 60.563066 78.502305 61.685937 78.84375 62.90625 C 79.041041 64.18057 79.756777 65.81105 80.59375 67.03125 C 82.0515 70.462489 82.455832 74.003719 82.65625 77.75 C 82.993868 82.713334 83.009992 87.917295 83.46875 92.875 C 85.309374 94.804892 85.172243 98.024013 85.21875 100 C 84.636061 101.97259 83.375019 103.70551 81.75 104.28125 C 80.10434 104.8643 78.07526 104.256 76.1875 103.5 C 76.071658 103.42982 75.961617 103.37269 75.84375 103.3125 L 78.28125 103.3125 L 81.9375 101.53125 L 82 101.3125 L 83.90625 100.1875 L 83.8125 100.03125 L 82.125 100.75 L 82.8125 98.0625 L 82.59375 97.9375 L 81.625 101.25 L 78.125 102.75 L 78.03125 102.75 L 78.28125 100.59375 L 78.21875 100.5 L 77.34375 102.75 L 73.90625 102.6875 C 71.966991 102.33258 69.920013 102.52796 68.09375 101.5625 C 67.422168 101.08259 66.4999 100.31167 66.09375 98.96875 C 66.049789 94.352634 67.598882 91.492267 68.65625 88.625 L 68.6875 88.53125 L 68.6875 88.46875 C 68.742054 83.802637 69.358066 81.330027 69.4375 76.5625 C 69.360013 75.726619 69.316992 74.911258 69.3125 74.09375 L 69.40625 74 L 69.3125 74 C 69.307381 71.329529 69.709844 68.73372 70.625 66.15625 C 70.792622 65.018463 71.129424 64.087415 71.59375 63.3125 C 71.331056 64.592753 71.188392 65.989195 71.3125 67.65625 L 71.53125 67.59375 C 71.358229 65.413503 72.505491 63.542268 73.15625 61.5625 C 74.211703 60.758301 75.549148 60.211511 77.09375 59.75 z M 79.84375 62.875 L 103.96875 70.125 L 82.875 72.59375 C 82.356631 70.986193 81.607468 68.379537 80.90625 66.46875 C 80.185073 65.38489 80.042514 64.126901 79.84375 62.875 z M 50.78125 65.25 L 58.625 75.5 L 31.03125 78.03125 L 50.78125 65.25 z M 123.90625 71.5625 C 124.4906 71.541488 124.94702 71.812949 125.28125 72.28125 C 125.38711 73.036843 124.78683 73.546406 125.90625 74.625 C 126.0666 76.155234 123.77945 76.141681 122.5 76.59375 C 121.74808 76.77773 121.41348 75.928187 120.875 75.40625 C 121.91143 74.429153 122.58824 73.186321 122.96875 71.8125 C 122.97142 71.802865 122.96611 71.790897 122.96875 71.78125 C 123.29777 71.629822 123.63016 71.572428 123.90625 71.5625 z M 68.78125 74.46875 C 68.81611 75.131605 68.854907 75.800282 68.875 76.46875 C 68.812549 80.217074 68.112981 82.86193 67.8125 86.09375 L 59.03125 75.34375 L 68.78125 74.46875 z M 58.84375 75.75 L 67.78125 86.375 C 67.7336 86.996816 67.697101 87.639714 67.6875 88.34375 C 66.946298 90.349641 66.099228 92.482441 65.6875 95.25 C 51.11282 95.219847 38.028891 89.9194 30.625 82.0625 C 30.947739 80.889155 31.046357 79.613989 31.03125 78.3125 L 58.84375 75.75 z M 12 85.40625 C 12.981953 85.52345 14.604719 86.296779 15.46875 86.75 C 16.404437 87.140736 16.738919 88.359799 17.28125 89.1875 C 16.040778 89.823787 14.166816 89.597073 12.75 90.125 C 11.863143 90.455456 13.153207 88.445479 13.25 88.28125 C 13.399617 88.02739 11.660406 90.117765 11.375 90.125 C 10.669548 89.826146 10.092513 88.815661 9.75 88.25 C 10.324935 87.06821 10.840402 85.940634 12 85.40625 z M 85.125 95.21875 C 86.199598 95.552034 87.547301 95.173017 88.75 95.3125 C 89.204878 95.853523 89.098522 97.953349 89.125 98.71875 C 88.411246 99.444648 87.174845 99.297645 86.15625 99.4375 C 86.003483 97.993038 85.628207 96.583117 85.125 95.21875 z M 65.4375 98.6875 C 65.437042 98.793906 65.436315 98.891663 65.4375 99 C 65.684208 100.41007 66.605245 101.36038 67.53125 102.375 C 67.816452 102.53295 68.111625 102.63474 68.40625 102.75 C 67.04365 103.55894 65.706038 104.41217 64.125 104.5 C 62.61013 104.50483 61.72794 103.51705 61.125 102.28125 C 61.082434 101.53915 61.769436 100.46184 63 99.75 C 63.732545 99.098925 64.537827 98.857143 65.4375 98.6875 z "
       id="path2310" />
  </g>
</svg>
