<?xml version="1.0" encoding="UTF-8" standalone="no"?>
<!-- Created with Inkscape (http://www.inkscape.org/) -->
<svg
   xmlns:dc="http://purl.org/dc/elements/1.1/"
   xmlns:cc="http://creativecommons.org/ns#"
   xmlns:rdf="http://www.w3.org/1999/02/22-rdf-syntax-ns#"
   xmlns:svg="http://www.w3.org/2000/svg"
   xmlns="http://www.w3.org/2000/svg"
   xmlns:xlink="http://www.w3.org/1999/xlink"
   xmlns:sodipodi="http://sodipodi.sourceforge.net/DTD/sodipodi-0.dtd"
   xmlns:inkscape="http://www.inkscape.org/namespaces/inkscape"
   width="128"
   height="128"
   id="svg2"
   sodipodi:version="0.32"
   inkscape:version="0.45+devel"
   version="1.0"
   sodipodi:docname="maze_outline.svg"
   inkscape:output_extension="org.inkscape.output.svg.inkscape">
  <defs
     id="defs4">
    <filter
       height="1.42432"
       y="-0.21216"
       width="1.2179726"
       x="-0.1089863"
       id="filter2892"
       inkscape:collect="always">
      <feGaussianBlur
         id="feGaussianBlur2894"
         stdDeviation="0.72146876"
         inkscape:collect="always" />
    </filter>
    <radialGradient
       r="8.2519293"
       fy="222.04396"
       fx="14.207293"
       cy="222.04396"
       cx="14.207293"
       gradientTransform="scale(1.39523,0.716728)"
       gradientUnits="userSpaceOnUse"
       id="radialGradient1968"
       xlink:href="#linearGradient2057"
       inkscape:collect="always" />
    <linearGradient
       inkscape:collect="always"
       id="linearGradient2057">
      <stop
         style="stop-color:#000000;stop-opacity:1;"
         offset="0"
         id="stop2059" />
      <stop
         style="stop-color:#000000;stop-opacity:0;"
         offset="1"
         id="stop2061" />
    </linearGradient>
  </defs>
  <sodipodi:namedview
     id="base"
     pagecolor="#ffffff"
     bordercolor="#666666"
     borderopacity="1.0"
     gridtolerance="10000"
     guidetolerance="10"
     objecttolerance="10"
     inkscape:pageopacity="0.0"
     inkscape:pageshadow="2"
     inkscape:zoom="1"
     inkscape:cx="64"
     inkscape:cy="64"
     inkscape:document-units="px"
     inkscape:current-layer="layer1"
     showgrid="false"
     width="744.09px"
     inkscape:window-width="948"
     inkscape:window-height="938"
     inkscape:window-x="619"
     inkscape:window-y="61"
     showguides="true"
     inkscape:guide-bbox="true" />
  <metadata
     id="metadata7">
    <rdf:RDF>
      <cc:Work
         rdf:about="">
        <dc:format>image/svg+xml</dc:format>
        <dc:type
           rdf:resource="http://purl.org/dc/dcmitype/StillImage" />
      </cc:Work>
    </rdf:RDF>
  </metadata>
  <g
     inkscape:label="Layer 1"
     inkscape:groupmode="layer"
     id="layer1">
    <path
       style="fill:#5c2700;fill-opacity:1;fill-rule:evenodd;stroke:none;stroke-width:1px;stroke-linecap:butt;stroke-linejoin:miter;stroke-opacity:1"
       d="M 69.824926,36.529501 L 4.9992446,58.723149 L 4.9992446,61.93617 L 0.93367261,63.767364 L 0.89371728,64.554188 L 60.334613,104.77646 L 91.542571,93.114378 L 91.542571,92.430123 L 91.45332,92.400373 L 91.542571,92.370623 L 87.585794,90.109608 L 87.585794,85.91483 L 89.103055,87.045337 L 93.833336,85.319826 L 95.886103,86.866836 L 93.446583,88.086594 L 93.565584,88.175845 L 93.535834,88.800599 L 97.105861,91.418616 L 127.24281,80.351543 L 127.2397,79.77297 L 124.29754,77.555024 L 124.29754,73.330496 L 69.824926,36.529501 z M 69.735676,37.005504 L 123.49429,73.122245 L 98.117367,81.987804 L 93.892836,78.774782 L 89.251806,80.500294 L 87.734545,79.429287 L 107.31018,72.170238 L 89.90631,59.764406 L 91.780572,58.90165 L 110.96945,72.646241 L 96.213355,78.031027 L 99.009873,80.381293 L 120.78702,72.913993 L 91.631821,52.92186 L 75.417963,59.199152 L 73.513951,58.098395 L 90.025311,51.880603 L 69.438174,37.719509 L 54.176322,43.282796 L 66.641655,51.999604 L 77.589728,48.161829 L 70.152178,43.491047 L 63.547634,46.376817 L 62.119625,45.067808 L 70.33068,41.944037 L 80.356496,48.637832 L 66.433404,53.606115 L 62.80388,51.136848 L 52.093808,55.391127 L 50.695549,54.34987 L 61.40562,50.006341 L 52.718562,43.8778 L 33.708186,50.571595 L 38.438467,54.766372 L 49.535291,50.631095 L 51.379804,51.910353 L 28.531651,60.151158 L 26.80614,58.990901 L 36.653456,55.361376 L 31.952924,51.136848 L 8.0932652,59.109901 L 19.785093,66.48795 L 33.083432,61.489917 L 34.749443,62.501424 L 21.570105,67.707709 L 36.355954,77.436023 L 55.872083,70.206725 L 48.464284,63.631931 L 39.271473,66.963954 L 37.486461,65.982197 L 56.586088,59.109901 L 57.716596,60.061908 L 49.535291,63.215429 L 57.240593,69.730722 L 75.120461,62.977427 L 83.450517,67.88621 L 90.888066,64.94094 L 92.137575,65.714445 L 84.729775,68.659715 L 90.947567,72.616491 L 72.859446,80.024291 L 64.707892,74.104001 L 66.225152,73.538747 L 72.889197,78.804532 L 88.627051,72.616491 L 74.793209,64.256686 L 70.33068,66.011947 L 80.445747,71.961987 L 78.660735,72.854493 L 68.575418,66.577201 L 49.684042,73.717249 L 61.822123,82.850559 L 54.235823,86.00408 L 52.748313,85.111574 L 59.501608,82.612558 L 48.018031,74.282502 L 37.516211,78.269029 L 60.275113,93.858133 L 74.317206,89.038601 L 66.046651,83.118311 L 67.891163,82.434057 L 75.685715,88.503097 L 84.610775,85.349576 L 78.868986,80.857296 L 80.207745,80.381293 L 86.663538,85.736329 L 60.275113,95.256392 L 6.0107513,58.633898 L 69.735676,37.005504 z M 69.229922,38.225262 L 69.229922,41.884537 L 61.554371,44.948807 L 61.554371,46.585068 L 60.275113,47.031321 L 54.890327,43.372047 L 69.229922,38.225262 z M 69.646425,38.314513 L 89.251806,51.791353 L 84.015771,53.725116 L 81.070501,51.702102 L 81.070501,48.816333 L 70.479431,41.378783 L 69.646425,41.706036 L 69.646425,38.314513 z M 69.854676,44.205052 L 69.854676,49.589838 L 66.076401,51.017848 L 63.607135,49.292336 L 63.607135,46.674319 L 69.854676,44.205052 z M 70.271179,44.234802 L 76.578221,48.013078 L 71.044684,50.036091 L 70.271179,49.560088 L 70.271179,44.234802 z M 52.39131,44.502554 L 52.39131,49.976591 L 50.189796,50.750096 L 49.654292,50.363343 L 38.735969,54.40937 L 34.36269,50.631095 L 52.39131,44.502554 z M 52.807813,44.621555 L 60.483364,50.006341 L 55.693582,51.969854 L 52.807813,49.91709 L 52.807813,44.621555 z M 61.970874,45.454561 L 63.190632,46.585068 L 63.190632,49.024584 L 61.970874,48.191579 L 61.970874,45.454561 z M 61.554371,46.971821 L 61.554371,47.894077 L 60.661865,47.299073 L 61.554371,46.971821 z M 80.653998,48.965084 L 80.653998,54.40937 L 66.879657,59.407403 C 66.754684,59.336616 66.63132,59.251529 66.492904,59.199152 L 66.492904,53.992867 L 80.653998,48.965084 z M 70.062928,50.095591 L 70.36043,50.274093 L 66.909407,51.553351 L 66.552404,51.3451 L 70.062928,50.095591 z M 52.540061,50.422844 L 55.098578,52.207855 L 52.004558,53.487114 L 51.915307,52.059104 L 50.636049,51.077348 L 52.540061,50.422844 z M 31.655422,51.523601 L 31.655422,56.848886 L 26.270636,58.9314 L 26.300387,59.050401 L 14.668059,62.947677 L 8.8667703,59.288403 L 31.655422,51.523601 z M 32.071925,51.553351 L 36.028701,55.153125 L 32.071925,56.670385 L 32.071925,51.553351 z M 62.595628,51.612851 L 62.595628,57.205889 L 57.389344,59.258652 L 56.82409,58.752899 L 52.30206,60.35941 L 52.30206,55.510127 L 62.595628,51.612851 z M 63.012131,51.821103 L 66.076401,53.963117 L 66.076401,59.020651 L 66.046651,59.080151 C 65.85786,59.032892 65.68178,58.990201 65.481397,58.96115 L 63.012131,57.265389 L 63.012131,51.821103 z M 81.070501,52.148355 L 83.599268,53.903617 L 81.070501,54.825873 L 81.070501,52.148355 z M 51.588055,52.178105 L 51.588055,53.665615 L 49.951794,54.320119 L 49.951794,58.425647 L 35.76095,63.542681 L 35.76095,62.501424 L 33.053682,61.043664 L 26.657389,63.48318 L 26.657389,59.228902 L 28.3234,60.508161 L 51.588055,52.178105 z M 91.42357,53.368113 L 91.42357,58.693399 L 89.103055,59.704905 L 89.311306,59.853656 L 77.797979,64.256686 L 75.536964,62.917927 L 75.536964,59.466904 L 91.42357,53.368113 z M 91.840073,53.576365 L 119.80526,72.765242 L 114.47998,74.580004 L 91.869823,58.485147 L 91.840073,53.576365 z M 50.398047,54.617621 L 51.885557,55.718379 L 51.885557,60.508161 L 51.231053,60.746162 L 50.398047,60.329659 L 50.398047,54.617621 z M 80.802749,54.706872 L 80.772999,54.915123 L 72.740446,57.979394 L 72.651195,63.631931 L 57.448844,69.254719 L 55.158079,67.350706 L 58.34135,66.160698 L 58.34135,60.210659 L 57.627345,59.466904 L 62.655129,57.562891 L 64.529391,58.8719 C 64.281596,58.854824 64.02757,58.828885 63.785636,58.812399 C 62.030794,58.795903 60.539617,58.542651 59.739609,60.329659 C 59.741263,60.33957 59.737855,60.349617 59.739609,60.35941 L 59.769359,63.929433 C 62.566198,65.960164 64.840134,65.183164 67.831663,64.107935 L 67.712662,60.41891 C 67.7306,60.387711 67.755337,60.361888 67.772163,60.329659 C 67.634614,60.03206 67.430668,59.831968 67.206909,59.645405 L 80.802749,54.706872 z M 73.067698,58.157895 L 75.120461,59.496654 L 75.120461,62.709675 L 73.067698,63.48318 L 73.067698,58.157895 z M 49.951794,58.752899 L 49.951794,60.537911 L 50.81455,60.894913 L 36.891457,65.863196 L 36.921207,71.961987 L 39.063222,73.300746 L 47.988281,70.236475 L 48.345283,70.147225 L 50.308796,71.932237 L 36.445204,77.049271 L 27.877147,71.515734 L 35.7907,68.421713 L 35.76095,63.840183 L 49.951794,58.752899 z M 5.4157474,58.990901 L 60.096612,95.613394 L 60.096612,101.11719 L 5.4157474,64.375686 L 5.4157474,58.990901 z M 63.755886,58.990901 C 64.392941,58.963237 64.957398,59.027357 65.481397,59.169402 C 65.554152,59.189123 65.648722,59.205585 65.719399,59.228902 C 66.359501,59.440086 66.905762,59.791078 67.38541,60.329659 C 66.687994,61.580161 65.106832,61.605795 63.755886,61.698169 C 62.19948,61.762364 60.552207,61.699198 60.126362,60.329659 C 60.693883,58.902576 62.415158,59.077666 63.755886,58.990901 z M 26.240886,59.347903 L 26.240886,63.631931 L 19.725593,66.130948 L 15.054812,63.185678 L 26.240886,59.347903 z M 62.655129,59.437154 C 61.817603,59.506444 61.185104,59.845833 60.989117,60.38916 C 61.559536,61.27886 62.522353,61.231828 63.547634,61.311416 C 64.762798,61.472628 65.76293,61.011844 66.106152,60.38916 C 65.553693,59.509565 64.555813,59.545992 63.547634,59.466904 C 63.234038,59.432212 62.934303,59.414057 62.655129,59.437154 z M 63.874887,59.645405 C 63.984425,59.641817 64.091719,59.638411 64.202139,59.645405 C 64.864654,59.687371 65.511347,59.986415 65.8384,60.38916 C 65.315046,61.149577 64.295155,61.016408 63.547634,61.073414 C 62.662953,61.245087 61.468842,60.916866 61.40562,60.38916 C 61.47998,59.426668 62.791297,59.739066 63.547634,59.675155 C 63.653568,59.652762 63.765349,59.648993 63.874887,59.645405 z M 89.638558,60.091658 L 106.23917,72.080988 L 101.38989,73.9255 L 92.88133,67.88621 L 92.91108,65.863196 L 90.888066,64.613688 L 89.638558,65.089691 L 89.638558,60.091658 z M 89.222055,60.210659 L 89.222055,65.268192 L 83.391017,67.529207 L 78.154982,64.435187 L 89.222055,60.210659 z M 57.895097,60.38916 L 57.895097,65.982197 L 54.920077,67.112705 L 50.189796,63.215429 L 57.895097,60.38916 z M 67.44491,60.805663 L 67.534161,63.899683 C 65.203907,64.980854 62.033073,65.544359 60.037111,63.691432 L 60.037111,61.103165 C 60.742336,62.146439 62.437528,61.97764 63.755886,62.055171 C 65.288723,62.076765 66.663977,61.732862 67.44491,60.805663 z M 4.9992446,62.144422 L 4.9992446,64.524437 L 60.185862,101.65269 L 87.585794,91.95412 L 87.585794,90.645111 L 90.560814,92.400373 L 60.275113,103.64595 L 1.3994707,63.929433 L 4.9992446,62.144422 z M 35.344447,62.679925 L 35.344447,68.183712 L 27.549895,71.337233 L 22.075859,67.796959 L 35.344447,62.679925 z M 1.1317189,64.018684 L 60.215612,103.9732 L 60.185862,104.38971 L 1.1019687,64.494687 L 1.1317189,64.018684 z M 47.988281,64.226935 L 47.988281,69.790222 L 39.479724,72.854493 L 39.479724,67.142455 L 47.988281,64.226935 z M 48.404784,64.256686 L 55.098578,70.147225 L 50.8443,71.723985 L 48.464284,69.611721 L 48.404784,64.256686 z M 74.94196,64.762439 L 87.764296,72.46774 L 82.111758,74.728755 L 80.9515,74.044501 L 80.9515,72.140488 L 74.94196,68.481214 L 74.94196,64.762439 z M 74.525458,64.821939 L 74.525458,68.243212 L 70.985184,66.130948 L 74.525458,64.821939 z M 92.464827,66.011947 L 92.464827,71.545484 L 91.007067,72.170238 L 85.324779,68.808466 L 92.464827,66.011947 z M 37.33771,66.130948 L 39.063222,67.112705 L 39.063222,72.824743 L 37.33771,71.813236 L 37.33771,66.130948 z M 68.337416,67.142455 L 68.337416,72.646241 L 66.463154,73.330496 L 66.254903,73.181745 L 64.023638,73.985 L 63.934387,74.282502 L 55.42583,77.525274 L 50.338547,73.866 L 68.337416,67.142455 z M 68.753919,67.172205 L 78.422733,73.122245 L 78.422733,76.186515 L 75.685715,77.287272 L 68.753919,72.675992 L 68.753919,67.172205 z M 92.88133,68.421713 L 100.79489,74.133751 L 91.840073,77.555024 L 91.840073,72.735492 L 91.42357,72.40824 L 92.88133,71.842986 L 92.88133,68.421713 z M 80.534998,72.348739 L 80.534998,75.353509 L 78.868986,76.008014 L 78.868986,73.211495 L 80.534998,72.348739 z M 91.42357,72.854493 L 91.42357,77.703775 L 87.228792,79.340036 L 87.169292,80.232542 L 82.825763,81.928303 L 80.148245,79.786289 L 78.184732,80.797796 L 78.214482,80.827546 L 78.214482,83.802566 L 73.246199,85.855329 L 73.246199,80.351543 L 91.42357,72.854493 z M 111.32646,72.943743 L 111.32646,75.680762 L 99.009873,79.93504 L 97.01661,78.179778 L 111.32646,72.943743 z M 68.545668,73.032994 L 75.209712,77.525274 L 72.978447,78.358279 L 66.879657,73.657748 L 68.545668,73.032994 z M 111.74296,73.211495 L 114.00397,74.758505 L 111.74296,75.532011 L 111.74296,73.211495 z M 123.88104,73.479247 L 123.97029,79.042534 L 98.385119,87.878343 L 98.385119,82.315056 L 123.88104,73.479247 z M 64.35089,74.223002 L 72.829696,80.530044 L 72.829696,85.795829 L 67.920914,82.077054 L 67.593661,82.196055 L 64.35089,79.845789 L 64.35089,74.223002 z M 80.9515,74.342003 L 81.784506,74.847756 L 80.9515,75.175008 L 80.9515,74.342003 z M 63.934387,74.758505 L 63.964137,79.93504 L 67.236659,82.344806 L 65.481397,82.99931 L 65.392147,88.94935 L 67.861413,90.823612 L 60.394114,93.41188 L 57.121592,91.180615 L 62.684879,88.88985 L 62.684879,82.93981 L 55.812583,77.822776 L 63.934387,74.758505 z M 48.018031,74.788256 L 58.698352,82.463807 L 53.730069,84.42732 L 48.018031,80.262292 L 48.018031,74.788256 z M 47.601528,74.907256 L 47.601528,80.411043 L 43.555501,81.958053 L 38.289716,78.38803 L 47.601528,74.907256 z M 124.29754,77.941777 L 126.49906,79.726789 L 97.04636,90.347609 L 94.041587,88.146095 L 96.213355,87.104838 L 98.147118,88.562597 L 124.29754,79.280536 L 124.29754,77.941777 z M 93.565584,79.429287 L 93.565584,84.873573 L 89.370806,86.450333 L 89.370806,80.946547 L 93.565584,79.429287 z M 93.982087,79.459037 L 97.968616,82.463807 L 97.968616,87.848593 L 93.982087,84.814072 L 93.982087,79.459037 z M 126.85606,79.87554 L 126.94531,80.143291 L 97.105861,91.002114 L 93.803586,88.741099 L 93.773836,88.324596 L 97.04636,90.645111 L 126.85606,79.87554 z M 87.585794,79.90529 L 88.954304,81.095298 L 88.954304,86.271832 L 87.585794,85.409076 L 87.585794,79.90529 z M 47.958531,80.738295 L 53.313566,84.576071 L 52.123558,85.052074 L 52.064058,87.729592 L 43.942254,82.225805 L 47.958531,80.738295 z M 87.169292,80.768045 L 87.169292,85.557827 L 83.182765,82.255555 L 87.169292,80.768045 z M 78.630985,81.154798 L 83.807519,85.260325 L 78.987987,86.926336 L 78.630985,86.539584 L 78.630985,81.154798 z M 62.268376,83.058811 L 62.298126,88.592348 L 56.764589,90.942613 L 54.265573,89.246852 L 54.265573,86.390833 L 62.268376,83.058811 z M 65.80865,83.267062 L 73.305699,88.9196 L 68.277916,90.674861 L 65.8384,88.800599 L 65.80865,83.267062 z M 78.214482,84.278569 L 78.214482,86.747835 L 78.571484,87.075087 L 75.774966,88.056844 L 73.4247,86.271832 L 78.214482,84.278569 z M 52.480561,85.290076 L 53.84907,86.271832 L 53.84907,88.94935 L 52.480561,88.027094 L 52.480561,85.290076 z M 87.169292,86.063581 L 87.169292,91.537617 L 60.513114,101.14694 L 60.513114,95.553894 L 87.169292,86.063581 z M 91.215319,92.489623 L 91.215319,93.025127 L 60.513114,104.30046 L 60.513114,103.9732 L 91.215319,92.489623 z"
       id="path2309"
       sodipodi:nodetypes="cccccccccccccccccccccccccccccccccccccccccccccccccccccccccccccccccccccccccccccccccccccccccccccccccccccccccccccccccccccccccccccccccccccccccccccccccccccccccccccccccccccccccccccccccccccccccccccccccccccccccccccccccccccccccccccccccccccccccccccccccccccccccccccscccccccccccccccccccccccccccssccccccccccccccccsccccccccccccccccccccccccccccccccccccccccccccccccccccccccccccccccccccccccccccccccccccccccccccccccccccccccccccccccccccccccccccccccccccccccccccccccccccccccccccccccccccccccccccccccccccccccccccccccccccccccccccccccccccccccccccccccccccccccccccccccccccccc" />
  </g>
</svg>
