<?xml version="1.0" encoding="UTF-8" standalone="no"?>
<!-- Created with Inkscape (http://www.inkscape.org/) -->
<svg
   xmlns:dc="http://purl.org/dc/elements/1.1/"
   xmlns:cc="http://creativecommons.org/ns#"
   xmlns:rdf="http://www.w3.org/1999/02/22-rdf-syntax-ns#"
   xmlns:svg="http://www.w3.org/2000/svg"
   xmlns="http://www.w3.org/2000/svg"
   xmlns:xlink="http://www.w3.org/1999/xlink"
   xmlns:sodipodi="http://sodipodi.sourceforge.net/DTD/sodipodi-0.dtd"
   xmlns:inkscape="http://www.inkscape.org/namespaces/inkscape"
   width="128"
   height="128"
   id="svg2"
   sodipodi:version="0.32"
   inkscape:version="0.45+devel"
   version="1.0"
   sodipodi:docname="mine_outline.svg"
   inkscape:output_extension="org.inkscape.output.svg.inkscape">
  <defs
     id="defs4">
    <filter
       height="1.42432"
       y="-0.21216"
       width="1.2179726"
       x="-0.1089863"
       id="filter2892"
       inkscape:collect="always">
      <feGaussianBlur
         id="feGaussianBlur2894"
         stdDeviation="0.72146876"
         inkscape:collect="always" />
    </filter>
    <radialGradient
       r="8.2519293"
       fy="222.04396"
       fx="14.207293"
       cy="222.04396"
       cx="14.207293"
       gradientTransform="scale(1.39523,0.716728)"
       gradientUnits="userSpaceOnUse"
       id="radialGradient1968"
       xlink:href="#linearGradient2057"
       inkscape:collect="always" />
    <linearGradient
       inkscape:collect="always"
       id="linearGradient2057">
      <stop
         style="stop-color:#000000;stop-opacity:1;"
         offset="0"
         id="stop2059" />
      <stop
         style="stop-color:#000000;stop-opacity:0;"
         offset="1"
         id="stop2061" />
    </linearGradient>
  </defs>
  <sodipodi:namedview
     id="base"
     pagecolor="#ffffff"
     bordercolor="#666666"
     borderopacity="1.0"
     gridtolerance="10000"
     guidetolerance="10"
     objecttolerance="10"
     inkscape:pageopacity="0.0"
     inkscape:pageshadow="2"
     inkscape:zoom="1"
     inkscape:cx="64"
     inkscape:cy="46.702703"
     inkscape:document-units="px"
     inkscape:current-layer="layer1"
     showgrid="false"
     width="744.09px"
     inkscape:window-width="1248"
     inkscape:window-height="975"
     inkscape:window-x="426"
     inkscape:window-y="24" />
  <metadata
     id="metadata7">
    <rdf:RDF>
      <cc:Work
         rdf:about="">
        <dc:format>image/svg+xml</dc:format>
        <dc:type
           rdf:resource="http://purl.org/dc/dcmitype/StillImage" />
      </cc:Work>
    </rdf:RDF>
  </metadata>
  <g
     inkscape:label="Layer 1"
     inkscape:groupmode="layer"
     id="layer1">
    <path
       style="fill:#5c2700;fill-opacity:1;fill-rule:evenodd;stroke:none;stroke-width:1px;stroke-linecap:butt;stroke-linejoin:miter;stroke-opacity:1"
       d="M 48.03125,23.46875 C 42.668276,25.286828 38.04804,28.755302 33.1875,31.65625 C 28.289569,34.288451 24.617301,38.220619 20.21875,40.15625 C 12.949095,42.588799 7.6324223,48.778872 2.15625,53.8125 L 2.75,53.9375 C 8.0857208,48.623165 13.53764,44.053392 20.53125,41.09375 C 25.583713,39.114064 29.798548,35.611462 34.0625,32.34375 C 37.905543,29.427257 41.608175,26.635326 45.78125,25.5 C 42.558555,28.863821 40.773746,32.916568 37.5625,36.5 C 31.77902,40.698846 29.451498,46.763296 27.28125,53.375 C 26.343952,56.740884 25.778253,60.22108 25.1875,63.71875 C 22.359845,65.402677 20.533674,67.824185 17.875,69.75 C 12.964829,71.164438 9.9114173,75.023852 7.1875,79.125 L 7.40625,79.28125 C 9.942642,75.053928 13.304882,72.668063 18.1875,71.1875 C 20.376645,69.484092 22.557312,67.73996 24.78125,66.0625 C 24.425077,68.077612 24.033083,70.085452 23.53125,72.09375 C 21.800534,75.929279 20.489327,79.940058 19.09375,83.90625 C 17.430482,88.60397 15.667337,93.290615 14.28125,95.46875 L 14.5,95.875 C 16.02509,93.478432 18.489768,89.175549 20.15625,84.46875 C 21.822732,79.761951 23.311987,74.782276 24.4375,72.53125 C 25.805733,66.260508 26.728729,60.902073 28.125,54.625 C 29.78289,48.671433 32.680916,42.195597 38.90625,37.53125 L 38.9375,37.5 L 38.96875,37.46875 C 42.981159,33.025167 44.190635,28.922267 48.5625,25.46875 C 54.234056,27.454831 57.147996,29.860297 62.875,32.71875 C 67.160772,35.442551 71.903675,36.727361 75.40625,40.59375 C 78.108437,45.095132 82.912864,47.821751 86.65625,51.40625 C 89.046573,55.128007 92.077535,58.323777 95.4375,61.125 C 98.577376,63.733147 101.42385,66.223005 102.875,69.375 C 101.34574,65.961813 99.220888,62.941316 96.09375,60.34375 C 92.868919,57.665035 89.461153,54.920753 87.125,51.21875 L 87.09375,51.1875 L 87.0625,51.15625 C 83.662546,48.199644 80.400773,45.318824 77.9375,41.625 C 80.762331,39.938592 81.905848,38.992592 82.96875,38 C 83.907697,37.123163 84.980794,36.114328 87.03125,34.5625 C 87.212526,37.866851 89.830476,39.827802 92.09375,41.8125 C 94.125753,44.292606 96.070581,46.792215 97.125,49.84375 L 97.25,49.65625 C 96.668669,46.749593 94.641865,43.501653 92.90625,41.1875 C 90.647017,39.537341 89.376547,37.452126 88.65625,34.90625 C 90.743088,36.311668 93.543039,37.251126 96.5,38.15625 C 100.13687,39.269495 103.91762,40.388652 106.625,42.28125 C 108.04824,46.157695 111.75892,51.541835 114.28125,54.65625 L 114.65625,54.5 C 112.14283,51.396587 109.20325,45.107172 107.9375,41.5 C 104.88198,39.134068 100.46188,38.319418 96.78125,37.1875 L 87.28125,32.34375 C 84.454125,34.394919 83.37219,36.260408 82.3125,37.25 C 81.311227,38.185039 80.173317,39.493103 77.59375,41.09375 C 77.302177,40.63237 77.015322,40.176721 76.75,39.6875 L 76.75,39.65625 L 76.71875,39.59375 C 73.299368,35.539221 67.825126,34.576122 63.46875,31.875 L 63.4375,31.875 L 63.40625,31.84375 C 58.840675,29.052083 53.923218,26.260417 48.03125,23.46875 z M 61.03125,43.15625 L 61.09375,43.21875 C 64.644515,44.407768 66.039627,47.398387 67.4375,49.9375 C 68.666748,52.170321 69.562487,54.724398 71.0625,57.15625 L 70.03125,57.03125 L 42.78125,63.125 C 38.764739,63.492399 36.532391,61.456284 36.09375,57.8125 L 35.90625,57.71875 C 36.022123,62.14532 38.48663,64.082926 42.625,64.125 L 42.71875,69.21875 L 42.90625,90.6875 C 41.771521,92.857168 39.250843,93.907572 37.21875,95.21875 C 35.344564,96.587822 33.3795,97.883539 32.75,100.09375 L 33.03125,100.0625 C 33.535639,98.29156 35.674786,97.035205 37.5625,95.65625 C 39.394613,94.317911 42.549535,93.44836 43.46875,91.03125 L 44.28125,91.5 L 51.15625,90.0625 L 56.65625,88.5625 L 57.1875,88.4375 L 57.96875,88.28125 C 58.072356,88.410181 58.147331,88.558576 58.25,88.6875 L 56.4375,89.0625 L 58.59375,91.5625 L 60.1875,91.1875 C 60.453568,91.548677 60.716458,91.922676 60.96875,92.28125 L 59.3125,92.75 L 61.09375,95 L 62.53125,94.59375 C 62.659419,94.802645 62.785246,95.011694 62.90625,95.21875 L 61.0625,95.6875 L 62.53125,97.8125 L 64.0625,97.40625 C 64.085591,97.45637 64.102483,97.512545 64.125,97.5625 C 64.195688,97.719327 64.245953,97.899746 64.3125,98.0625 L 63,98.34375 L 63.40625,101.125 L 65.125,100.78125 C 65.223425,101.37422 65.271044,101.94775 65.21875,102.4375 C 65.079481,103.74181 63.303395,106.77376 61.96875,108.09375 L 61.375,106.90625 L 57.59375,107.03125 L 58.375,108.90625 C 57.659662,109.07185 56.939707,109.24154 56.21875,109.40625 L 55.5,107.96875 L 52.0625,108.125 L 52.875,110.15625 C 51.993545,110.35234 51.084881,110.55542 50.1875,110.75 L 49.375,109.1875 L 45.9375,109.3125 L 46.84375,111.46875 C 45.506336,111.7482 44.826738,111.84924 43.4375,112.125 L 43.4375,112.9375 C 50.897767,111.41699 56.935633,109.93056 63.53125,108.34375 C 62.973982,109.21061 62.466234,109.92545 62.0625,110.34375 C 55.912933,111.82689 50.304435,113.19682 43.96875,114.28125 L 43.9375,114.78125 C 45.399788,114.48935 46.417176,114.27025 47.875,113.96875 L 50.3125,119.875 L 45.96875,120.65625 L 45.90625,121.25 L 69.28125,117.09375 C 68.707453,117.60544 68.071874,118.10407 67.40625,118.625 L 45.96875,122.46875 L 45.875,123.03125 L 51.21875,122.09375 L 51.9375,123.8125 L 56.40625,122.875 L 55.59375,121.3125 L 57.09375,121.0625 L 57.59375,122.3125 L 62.0625,121.375 L 61.53125,120.28125 L 63,120.03125 L 63.59375,121.5 L 68.09375,120.59375 L 67.4375,119.25 L 72.03125,118.4375 L 72.53125,119.6875 L 77.03125,118.75 L 76.5,117.65625 L 83.21875,116.46875 L 83.59375,117.5 L 88.15625,116.84375 L 87.625,115.71875 L 90.03125,115.28125 L 90.53125,116.4375 L 95.03125,115.5 L 94.53125,114.5 L 96.21875,114.1875 L 96.78125,115.5625 L 101.28125,114.625 L 100.6875,113.40625 L 102.125,113.15625 L 102.53125,114.1875 L 106.40625,113.375 L 107.03125,113.25 L 106.59375,112.375 L 108.09375,112.125 L 108.65625,113.4375 L 113.15625,112.5 L 112.5625,111.3125 L 114,111.0625 L 114.53125,112.3125 L 118.5625,111.34375 L 118.125,110.34375 L 118.9375,110.0625 L 118.53125,109.5 L 115.40625,110.0625 C 115.9773,109.69359 116.49248,109.24375 116.9375,108.75 L 118.1875,108.53125 L 118,107.96875 L 117.46875,108.0625 C 118.5322,106.58611 119.15075,104.75374 119.28125,102.84375 C 119.25492,100.87286 118.57359,99.483263 117.4375,98.625 C 118.03735,95.567341 117.7703,92.266919 118.1875,89.15625 L 109.78125,83.84375 C 109.13551,82.367204 108.51322,81.184089 107.5,80.375 C 105.84457,79.115527 103.71148,78.518757 101.8125,78.3125 C 98.194176,79.583762 94.283765,80.761356 92.375,84.0625 L 81.59375,87.84375 L 81.9375,87.96875 C 82.24295,89.698291 82.726994,93.4811 82.90625,95.84375 C 82.239548,97.09832 81.819349,98.499539 81.71875,99.96875 C 81.737164,101.34649 82.071964,102.4463 82.65625,103.28125 C 82.341218,103.35176 82.057205,103.43056 81.75,103.5 L 81.4375,102.8125 L 78.09375,103.125 L 78.5,104.21875 C 78.334027,104.25701 78.167001,104.30524 78,104.34375 C 77.792109,102.29969 77.09681,100.32712 76,98.40625 L 77.78125,98.03125 L 76.09375,95.6875 L 74.40625,96.03125 C 74.146367,95.683146 73.855471,95.321586 73.5625,94.96875 L 75.15625,94.53125 L 73.8125,92.3125 L 71.6875,92.875 C 71.482978,92.663563 71.275308,92.462392 71.0625,92.25 L 72.40625,91.875 L 70.28125,89.5625 L 68.71875,90.03125 C 68.476728,89.811454 68.216344,89.595122 67.96875,89.375 L 69.28125,89.0625 L 67.3125,86.6875 L 65.375,87.125 C 65.268483,87.035255 65.169454,86.933443 65.0625,86.84375 L 66.46875,86.5625 L 66.34375,86.4375 L 73.53125,84.15625 L 73.375,63.84375 L 72.84375,57.34375 C 71.099971,54.829112 69.736957,52.05615 68.3125,49.46875 C 66.853042,46.817773 64.831407,44.42878 61.03125,43.15625 z M 69.71875,57.40625 L 71.3125,57.53125 C 71.345177,57.581729 71.372998,57.637159 71.40625,57.6875 L 44.21875,64 L 43.8125,63.5625 L 69.71875,57.40625 z M 72.5625,58.0625 L 72.65625,63.3125 L 44.5,69.90625 L 44.34375,64.71875 L 72.5625,58.0625 z M 43.25,63.9375 L 43.71875,64.34375 L 43.75,69.28125 L 43.3125,68.84375 L 43.25,63.9375 z M 72.6875,64.15625 L 72.96875,83.90625 L 70.0625,84.84375 L 68.53125,85.3125 L 68.3125,65.125 L 72.6875,64.15625 z M 67.875,65.21875 L 68.09375,85.03125 L 67.0625,83.21875 L 67.125,65.375 L 67.875,65.21875 z M 66.625,65.5 L 66.625,82.78125 L 52.96875,75.15625 L 53,68.46875 L 66.625,65.5 z M 64.875,66.65625 L 64.75,71.09375 L 61.625,70.65625 L 61.71875,68.34375 L 61.46875,68.21875 L 61.34375,70.59375 L 58.25,70.15625 L 58.25,68.1875 L 57.96875,68.09375 L 57.96875,70.125 L 57.28125,70.03125 L 57.28125,70.15625 L 58,70.28125 L 58,72.84375 L 56.34375,72.15625 L 56.25,72.5 L 58,73.1875 L 58.03125,75.46875 C 56.996379,75.126315 55.976451,74.751779 54.96875,74.34375 L 55.09375,69.125 L 54.9375,69 L 54.71875,74.25 C 54.342296,74.093061 53.99262,73.928496 53.625,73.75 L 53.375,73.9375 C 53.812742,74.161955 54.261432,74.342291 54.71875,74.53125 L 54.6875,75.125 L 54.9375,75.3125 L 54.96875,74.625 C 55.966274,75.023465 56.995286,75.391279 58.03125,75.71875 L 58.03125,76.25 L 58.28125,76.25 L 58.28125,75.8125 C 59.192529,76.099969 60.111016,76.361863 61,76.6875 L 60.9375,77.78125 L 61.3125,77.875 L 61.34375,76.8125 C 61.754294,76.968902 62.165113,77.132931 62.5625,77.3125 L 62.5625,77.125 C 62.170025,76.945267 61.776129,76.783252 61.375,76.625 L 61.46875,74.5625 L 63.15625,75.21875 C 63.15625,76.449992 63.15625,79.5625 63.15625,79.5625 L 63.5,79.6875 C 63.500001,79.687499 63.42678,76.676821 63.40625,75.34375 L 65.75,76.25 L 65.78125,76 L 63.40625,75.03125 C 63.404419,74.900462 63.40625,74.506027 63.40625,74.46875 L 63.15625,74.46875 C 63.15625,74.500584 63.15625,74.838242 63.15625,74.9375 L 61.46875,74.25 L 61.625,70.875 L 64.75,71.40625 L 64.71875,72.03125 L 64.96875,72.28125 L 65,71.46875 L 65.8125,71.59375 L 65.84375,71.25 L 65,71.125 L 65.15625,66.71875 L 64.875,66.65625 z M 52.4375,68.59375 L 52.375,74.625 L 51.03125,72.625 L 51,68.90625 L 52.4375,68.59375 z M 50.5,69.03125 L 50.695083,89.877221 L 45.03125,91.03125 L 44.625,70.3125 L 50.5,69.03125 z M 43.4375,69.59375 L 44.25,70.40625 L 44.28125,90.84375 L 43.3125,90.40625 L 43.4375,69.59375 z M 58.25,70.3125 L 61.3125,70.84375 L 61.15625,74.125 L 58.28125,72.9375 L 58.25,70.3125 z M 58.28125,73.28125 L 61.125,74.40625 L 61,76.46875 C 60.10821,76.130339 59.188343,75.831069 58.28125,75.53125 L 58.28125,73.28125 z M 51.03125,73.34375 L 52.375,75.4375 L 66.625,83.21875 L 66.625,83.28125 L 67.9375,85.53125 L 66.0625,86.15625 L 64.4375,84.5625 L 62.8125,84.96875 C 62.642617,84.829533 62.482469,84.701377 62.3125,84.5625 L 63.65625,84.28125 L 61.375,82.46875 L 60.09375,82.75 C 59.931954,82.618256 59.785942,82.474978 59.625,82.34375 L 60.9375,82.0625 L 58.875,80.09375 L 57.40625,80.53125 C 57.306316,80.4484 57.192953,80.363804 57.09375,80.28125 L 58.1875,79.9375 L 56.28125,78.4375 L 55.1875,78.65625 C 54.926086,78.430894 54.658903,78.222371 54.40625,78 L 54.9375,77.84375 L 53.8125,76.53125 L 53.0625,76.78125 C 52.871466,76.604698 52.683411,76.424177 52.5,76.25 L 52.5625,76.21875 L 52.90625,76.09375 L 52.125,75.4375 L 51.71875,75.5 C 51.489142,75.271484 51.244642,75.036203 51.03125,74.8125 L 51.03125,73.34375 z M 51.0625,75.21875 C 57.092628,81.526502 69.06667,89.463926 74.09375,96.25 C 76.020788,98.851321 77.189506,101.66657 77.4375,104.46875 C 76.970428,104.57679 76.493488,104.70485 76.03125,104.8125 C 75.935664,101.73054 74.846614,98.830227 72.75,96 C 67.545704,88.974701 57.016595,81.959912 51.125,75.78125 C 51.115031,75.770795 51.103692,75.76045 51.09375,75.75 L 51.0625,75.71875 L 51.0625,75.21875 z M 52.0625,75.75 L 52.46875,75.9375 L 52.25,76.03125 C 52.162976,75.94754 52.085096,75.864373 52,75.78125 L 52.0625,75.75 z M 51.0625,76.1875 C 51.161702,76.29076 51.273575,76.396336 51.375,76.5 L 51.0625,76.6875 L 51.0625,76.1875 z M 51.5,76.625 C 51.673893,76.801498 51.851357,76.978633 52.03125,77.15625 L 51.375,77.375 C 51.279252,77.178122 51.170638,76.970699 51.09375,76.78125 L 51.5,76.625 z M 53.71875,76.78125 L 54.59375,77.6875 L 54.1875,77.78125 C 53.876734,77.505793 53.545041,77.239119 53.25,76.96875 L 53.71875,76.78125 z M 52.25,77.375 C 52.485,77.604611 52.724837,77.831146 52.96875,78.0625 L 51.90625,78.3125 C 51.780467,78.098882 51.639725,77.894477 51.53125,77.6875 L 52.25,77.375 z M 51.0625,77.65625 C 52.47274,80.777656 55.710476,84.109904 58.40625,87.40625 C 61.238452,90.869423 64.198939,94.554932 65.625,97.71875 C 66.338032,99.300659 66.7707,100.79174 66.625,102.15625 C 66.535294,102.99639 65.276639,105.52822 64,107.625 C 63.629754,107.71253 63.245202,107.78774 62.875,107.875 C 64.203873,106.35512 65.53843,103.83358 65.6875,102.4375 C 65.859079,100.83062 65.446415,99.152457 64.6875,97.46875 C 63.16967,94.101335 60.267257,90.616429 57.4375,87.15625 C 54.902691,84.056728 52.403333,80.991978 51.0625,78.21875 L 51.0625,77.65625 z M 53.21875,78.28125 C 53.451513,78.500071 53.697826,78.71724 53.9375,78.9375 L 52.46875,79.25 C 52.319548,79.025652 52.196705,78.812544 52.0625,78.59375 L 53.21875,78.28125 z M 56.1875,78.71875 L 57.6875,79.84375 L 56.84375,80.0625 C 56.357398,79.656393 55.901934,79.272997 55.4375,78.875 L 56.1875,78.71875 z M 51.15625,78.84375 C 51.257622,79.054995 51.389251,79.259099 51.5,79.46875 L 51.15625,79.53125 L 52.03125,81.84375 L 52.78125,81.59375 C 52.845497,81.689678 52.871681,81.810254 52.9375,81.90625 L 52.09375,82.15625 L 53.25,83.8125 L 54.21875,83.59375 C 54.32542,83.733871 54.422027,83.89032 54.53125,84.03125 L 53.21875,84.3125 L 54.875,86.09375 L 56,85.875 C 56.157507,86.068893 56.308112,86.272123 56.46875,86.46875 L 54.78125,86.875 L 56.375,88.3125 L 51.15625,89.778109 L 51.0625,78.875 L 51.15625,78.84375 z M 102.15625,79.0625 C 104.11675,79.618414 106.07977,80.196598 107.125,81.03125 C 108.28228,81.955374 109.26032,83.101149 110.125,85.1875 C 110.44856,85.663144 110.82823,86.037915 111.25,86.40625 L 113.9375,88.4375 L 94.125,94.28125 L 94,94.1875 L 94.15625,94.1875 C 94.946141,93.279523 95.392819,91.896103 95.8125,90.46875 C 96.232181,89.041397 96.349976,87.254701 96.71875,86.375 C 96.498018,84.602252 97.676962,83.546036 98.5,82.0625 C 99.127071,81.083148 100.11252,80.244279 101.75,79.28125 C 102.856,80.556969 102.9016,81.060593 102.65625,82.53125 C 102.71154,83.408144 103.14483,84.218701 103.5,85 L 103.8125,85 C 103.50794,84.256542 103.31991,83.416157 103.09375,82.65625 C 103.47745,81.154548 103.01374,80.028193 102.15625,79.0625 z M 54.15625,79.15625 C 54.626915,79.586071 55.101877,80.034019 55.59375,80.46875 L 53.71875,80.96875 C 53.337536,80.467871 52.986157,79.983363 52.65625,79.5 L 54.15625,79.15625 z M 101.0625,79.28125 C 100.10707,79.866803 98.396779,80.665138 97.65625,81.5 C 96.850028,82.759147 96.475247,84.26222 96.03125,86.3125 C 95.557905,87.575482 95.234122,88.88868 94.875,90.1875 C 94.491016,91.493447 94.326852,93.3043 93.84375,94.0625 L 86.59375,88.625 C 88.776514,87.922533 90.513314,86.503979 92.46875,85.375 C 94.120662,81.765288 97.497567,80.085148 101.0625,79.28125 z M 51.65625,79.75 C 51.937848,80.262743 52.230869,80.77205 52.5625,81.28125 L 52.1875,81.40625 L 51.46875,79.78125 L 51.65625,79.75 z M 58.75,80.375 L 60.34375,81.90625 L 59.34375,82.125 C 58.780735,81.665412 58.202966,81.20197 57.65625,80.75 L 58.75,80.375 z M 55.8125,80.65625 C 55.913436,80.745116 55.992101,80.848449 56.09375,80.9375 L 54.125,81.53125 C 54.051609,81.437437 53.97837,81.343437 53.90625,81.25 L 55.8125,80.65625 z M 56.375,81.1875 C 56.859937,81.610572 57.378003,82.041937 57.875,82.46875 L 55.3125,83 C 54.990582,82.608674 54.651468,82.232067 54.34375,81.84375 L 56.375,81.1875 z M 53.1875,82.21875 C 53.443262,82.582771 53.724129,82.945209 54,83.3125 L 53.40625,83.4375 L 52.59375,82.40625 L 53.1875,82.21875 z M 58.15625,82.6875 C 58.313039,82.821897 58.467429,82.959028 58.625,83.09375 L 55.90625,83.6875 C 55.791105,83.549466 55.676851,83.419354 55.5625,83.28125 L 58.15625,82.6875 z M 61.34375,82.8125 L 62.90625,84.0625 L 61.9375,84.25 C 61.427767,83.834219 60.943402,83.442978 60.4375,83.03125 L 61.34375,82.8125 z M 58.9375,83.375 C 59.406365,83.775377 59.871612,84.159661 60.34375,84.5625 L 57.15625,85.21875 C 56.810368,84.808285 56.472836,84.415288 56.125,84 L 58.9375,83.375 z M 54.75,84.28125 C 55.061737,84.679618 55.358386,85.092504 55.6875,85.5 L 54.96875,85.65625 L 53.9375,84.46875 L 54.75,84.28125 z M 110.1875,84.78125 L 117.15625,88.875 L 93.8125,96.125 L 83.125,88.09375 L 91.9375,84.875 C 91.911106,84.930267 91.869338,84.975461 91.84375,85.03125 C 90.373689,85.936531 88.950263,86.697392 87.5,87.5 L 85.15625,88.375 L 94.03125,94.875 L 115.09375,88.59375 L 114.3125,88.15625 C 113.09496,87.081378 111.48015,86.510412 110.40625,85.28125 C 110.33273,85.103856 110.25862,84.952077 110.1875,84.78125 z M 64.3125,84.8125 L 65.65625,86.40625 L 64.71875,86.59375 C 64.15243,86.120891 63.604123,85.626452 63.03125,85.15625 L 64.3125,84.8125 z M 60.71875,84.875 C 60.900546,85.030272 61.06829,85.188176 61.25,85.34375 L 57.9375,86.125 C 57.782149,85.939269 57.626705,85.750253 57.46875,85.5625 L 60.71875,84.875 z M 61.46875,85.53125 C 62.005821,85.991669 62.530973,86.443718 63.0625,86.90625 L 59.1875,87.625 C 59.064797,87.475877 58.934937,87.337213 58.8125,87.1875 C 58.592845,86.91891 58.353973,86.618436 58.125,86.34375 L 61.46875,85.53125 z M 56.65625,86.6875 C 56.865022,86.942754 57.068114,87.176881 57.28125,87.4375 C 57.409511,87.594336 57.529085,87.749305 57.65625,87.90625 L 56.78125,88.09375 L 55.40625,87 L 56.65625,86.6875 z M 63.375,87.1875 C 63.480499,87.279687 63.582409,87.3765 63.6875,87.46875 L 59.75,88.3125 C 59.660587,88.204381 59.558241,88.108399 59.46875,88 L 63.375,87.1875 z M 66.9375,87.25 L 68.5625,89 L 67.71875,89.15625 C 67.092225,88.60285 66.46476,88.05341 65.8125,87.5 L 66.9375,87.25 z M 64.125,87.84375 C 64.733935,88.381988 65.318807,88.929205 65.90625,89.46875 L 61.375,90.3125 C 60.938628,89.776075 60.510916,89.229467 60.0625,88.6875 L 64.125,87.84375 z M 82.34375,88.28125 L 93.375,96.59375 L 93.375,96.625 L 93.4375,103.28125 C 92.745677,104.17575 92.237973,105.23081 91.90625,106.34375 C 88.892483,105.08422 86.397036,102.90878 84.6875,100.28125 C 83.264712,95.970533 82.910363,92.218166 82.34375,88.28125 z M 58.53125,89.03125 C 58.960135,89.574542 59.374869,90.11544 59.78125,90.65625 L 58.71875,91.03125 L 57.125,89.3125 L 58.53125,89.03125 z M 117.53125,89.375 C 117.02619,92.308114 117.31645,95.360475 116.875,98.25 C 115.93545,97.7449 114.77996,97.51851 113.4375,97.59375 C 110.06236,98.617625 108.13998,101.63991 107.6875,104.96875 C 106.16027,105.26313 104.80697,105.45121 103.3125,105.625 L 103.125,105.28125 C 102.85096,101.95024 100.58505,100.41034 97.3125,100.59375 C 95.967418,101.00179 94.852622,101.75353 93.96875,102.6875 L 94.0625,96.625 L 117.53125,89.375 z M 66.25,89.78125 C 66.50993,90.022214 66.777306,90.258963 67.03125,90.5 L 62.5625,91.8125 C 62.30569,91.482039 62.047934,91.144289 61.78125,90.8125 L 66.25,89.78125 z M 70.03125,90.125 L 71.5625,91.6875 L 70.71875,91.90625 C 70.220091,91.417124 69.690962,90.93 69.15625,90.4375 L 70.03125,90.125 z M 67.40625,90.875 C 67.927608,91.376377 68.449339,91.874108 68.9375,92.375 L 63.96875,93.6875 C 63.612614,93.178106 63.234775,92.667103 62.84375,92.15625 L 67.40625,90.875 z M 61.21875,92.625 C 61.578413,93.144628 61.926312,93.644902 62.25,94.15625 L 61.15625,94.4375 L 60.03125,92.96875 L 61.21875,92.625 z M 69.28125,92.75 C 69.474761,92.952284 69.688057,93.141672 69.875,93.34375 L 64.6875,94.71875 C 64.559739,94.519183 64.415993,94.324542 64.28125,94.125 L 69.28125,92.75 z M 73.59375,92.875 L 74.4375,94.1875 L 73.21875,94.53125 C 72.85037,94.103475 72.471843,93.683103 72.0625,93.25 L 73.59375,92.875 z M 70.25,93.75 C 70.63425,94.175531 70.993506,94.575914 71.34375,95 L 65.6875,96.5 C 65.447556,96.036427 65.191465,95.555987 64.90625,95.09375 L 70.25,93.75 z M 71.6875,95.4375 C 71.900295,95.704462 72.115333,95.983844 72.3125,96.25 C 72.352752,96.304337 72.398,96.351727 72.4375,96.40625 L 66.25,97.6875 C 66.195752,97.562746 66.14932,97.435787 66.09375,97.3125 C 66.036831,97.186222 65.967071,97.063593 65.90625,96.9375 L 71.6875,95.4375 z M 63.09375,95.5625 C 63.367201,96.044337 63.614962,96.530433 63.84375,97 L 62.875,97.25 L 61.78125,95.90625 L 63.09375,95.5625 z M 76.03125,96.1875 L 76.875,97.65625 L 75.6875,97.90625 C 75.387662,97.414015 75.067917,96.924851 74.71875,96.4375 L 76.03125,96.1875 z M 83.09375,96.625 C 83.379591,97.889774 83.70973,99.185942 84.15625,100.53125 C 85.127066,102.19525 86.347206,103.47501 87.75,104.53125 C 87.688046,104.56302 87.627219,104.5968 87.5625,104.625 C 84.356379,105.10165 82.610362,102.62554 82.21875,99.84375 C 82.275007,98.702536 82.608002,97.621599 83.09375,96.625 z M 72.71875,96.84375 C 73.056175,97.337993 73.379628,97.83707 73.65625,98.34375 L 67.03125,99.78125 C 66.872563,99.227865 66.663008,98.672232 66.4375,98.125 L 72.71875,96.84375 z M 113.875,98.0625 C 116.7308,97.971481 118.47356,100.50695 118.84375,103.125 C 118.68445,106.42802 116.40757,109.0808 113.4375,110.375 C 110.23138,110.85165 108.48536,108.37554 108.09375,105.59375 C 108.25535,102.31558 110.36411,99.41321 113.3125,98.125 C 113.51294,98.094907 113.68461,98.068568 113.875,98.0625 z M 64.5,98.5 C 64.70798,99.058136 64.902373,99.62393 65.03125,100.1875 L 63.6875,100.46875 L 63.46875,98.71875 L 64.5,98.5 z M 73.90625,98.875 C 74.891895,100.84286 75.449501,102.87994 75.53125,104.90625 C 73.912751,105.28399 72.369569,105.65886 70.78125,106.03125 L 70.3125,105.0625 L 66.53125,105.1875 L 67.25,106.84375 C 66.425954,107.03796 65.565389,107.24442 64.75,107.4375 C 66.029813,105.54742 67.242199,103.38855 67.34375,102.4375 C 67.416284,101.7582 67.326142,101.04455 67.15625,100.3125 L 73.90625,98.875 z M 114.0625,98.875 C 112.71231,98.953136 111.57791,99.972619 110.34375,101.34375 C 109.05363,104.24702 108.56775,106.13025 110.28125,108.59375 C 113.00542,110.61098 114.68286,109.39001 116.65625,107.21875 C 117.94351,104.42915 118.49595,102.41086 116.78125,99.90625 C 115.75451,99.144958 114.87261,98.828118 114.0625,98.875 z M 113.96875,99.4375 C 114.69026,99.401274 115.45399,99.607716 116.25,100.09375 C 118.09585,102.22451 117.46115,104.73502 116.25,107 C 114.75557,108.94483 112.86893,109.65171 110.75,108.34375 C 108.91081,106.20765 109.53261,103.70309 110.75,101.4375 C 111.6811,100.21623 112.76623,99.497876 113.96875,99.4375 z M 73.9375,100.21875 L 67.84375,101.625 L 67.5625,104.15625 L 75,103.03125 L 73.9375,100.21875 z M 73.78125,100.71875 L 74.375,102.59375 L 68.0625,103.5625 L 68.21875,101.96875 L 73.78125,100.71875 z M 97.75,101.0625 C 100.6058,100.97148 102.34856,103.50695 102.71875,106.125 C 102.56397,109.3342 100.40883,111.91813 97.5625,113.25 L 96.5625,113.4375 C 94.855809,113.44707 93.643241,112.54736 92.875,111.25 C 92.721352,110.99053 92.58585,110.72508 92.46875,110.4375 C 92.234549,109.86234 92.05874,109.23299 91.96875,108.59375 C 92.13035,105.31558 94.23911,102.41321 97.1875,101.125 C 97.387938,101.09491 97.559613,101.06857 97.75,101.0625 z M 97.9375,101.875 C 96.587313,101.95314 95.452914,102.97262 94.21875,104.34375 C 92.928628,107.24702 92.442745,109.13025 94.15625,111.59375 C 96.880422,113.61098 98.55786,112.39001 100.53125,110.21875 C 101.81851,107.42915 102.37095,105.41086 100.65625,102.90625 C 99.629513,102.14496 98.747612,101.82812 97.9375,101.875 z M 113.6875,102.0625 C 113.09026,102.12598 112.60213,102.55939 112.03125,103.125 C 111.28768,104.24957 111.50413,105.04407 112.03125,106.125 C 113.25021,106.85397 113.99195,106.30819 114.90625,105.40625 C 115.64982,104.28168 115.43337,103.48718 114.90625,102.40625 C 114.44839,102.13436 114.04584,102.02441 113.6875,102.0625 z M 113.53125,102.3125 C 113.95278,102.3238 114.35977,102.5556 114.5625,102.625 C 115.06523,103.31464 114.65723,104.47095 114.4375,105.1875 C 114.0756,105.91487 112.99871,105.87483 112.5625,105.9375 C 112.06114,105.2463 112.21646,103.93521 112.4375,103.21875 C 112.67918,102.4897 113.10972,102.3012 113.53125,102.3125 z M 97.84375,102.4375 C 98.565261,102.40127 99.328986,102.60772 100.125,103.09375 C 101.97085,105.22451 101.33615,107.73502 100.125,110 C 98.630569,111.94483 96.743926,112.65171 94.625,111.34375 C 92.785809,109.20765 93.407608,106.70309 94.625,104.4375 C 95.556094,103.21623 96.641231,102.49788 97.84375,102.4375 z M 80.75,103.3125 L 80.9375,103.6875 C 80.211881,103.85272 79.46901,103.99061 78.75,104.15625 L 78.53125,103.625 L 80.75,103.3125 z M 82.9375,103.625 C 83.496226,104.26796 84.216054,104.71344 85.09375,104.96875 C 82.714996,105.44928 80.346751,105.96338 78,106.5 C 78.040035,105.93125 78.066947,105.36868 78.03125,104.8125 C 79.662108,104.41897 81.22823,104.02989 82.9375,103.625 z M 77.46875,104.9375 C 77.498074,105.50953 77.488446,106.08997 77.4375,106.65625 C 76.93685,106.77154 76.437139,106.88302 75.9375,107 C 76.006263,106.42032 76.061247,105.84761 76.0625,105.28125 C 76.522934,105.16959 77.003221,105.05001 77.46875,104.9375 z M 88.3125,104.9375 C 88.659376,105.1759 89.009941,105.4088 89.375,105.625 L 91.65625,110.21875 C 91.857619,111.09924 92.212919,111.8363 92.71875,112.40625 L 89.875,112.90625 L 86.46875,105.21875 C 86.819125,105.24204 87.183775,105.24122 87.5625,105.21875 C 87.828099,105.13949 88.067436,105.03494 88.3125,104.9375 z M 97.5625,105.0625 C 96.965261,105.12598 96.477132,105.55939 95.90625,106.125 C 95.162673,107.24957 95.379126,108.04407 95.90625,109.125 C 97.125209,109.85397 97.866949,109.30819 98.78125,108.40625 C 99.524823,107.28168 99.308375,106.48718 98.78125,105.40625 C 98.323393,105.13436 97.920843,105.02441 97.5625,105.0625 z M 97.40625,105.3125 C 97.827783,105.3238 98.234767,105.5556 98.4375,105.625 C 98.940232,106.31464 98.532228,107.47095 98.3125,108.1875 C 97.950599,108.91487 96.873703,108.87483 96.4375,108.9375 C 95.936134,108.2463 96.091451,106.93521 96.3125,106.21875 C 96.554183,105.4897 96.984717,105.3012 97.40625,105.3125 z M 85.9375,105.34375 L 89.125,113.03125 L 86.5625,113.5 L 82.96875,106.03125 C 83.95695,105.79674 84.947322,105.57824 85.9375,105.34375 z M 75.5625,105.40625 C 75.563941,105.95646 75.536592,106.51868 75.46875,107.0625 C 75.466272,107.08237 75.471343,107.10512 75.46875,107.125 C 71.163609,108.13765 66.876849,109.18278 62.59375,110.21875 C 63.062788,109.74317 63.640282,109.00888 64.25,108.15625 C 67.939718,107.26628 71.695402,106.34502 75.5625,105.40625 z M 70.0625,105.5625 L 70.3125,106.125 C 69.529717,106.30864 68.74403,106.505 67.96875,106.6875 L 67.59375,105.78125 L 70.0625,105.5625 z M 107.59375,105.71875 C 107.61621,107.39963 108.12305,108.6573 108.96875,109.53125 L 107.90625,109.71875 L 106.34375,105.9375 C 106.7551,105.86548 107.15093,105.80133 107.59375,105.71875 z M 105.625,106.0625 L 107.1875,109.84375 L 105.5,110.15625 L 103.65625,106.34375 C 104.32669,106.26576 104.98701,106.16665 105.625,106.0625 z M 90.25,106.09375 C 90.752319,106.35999 91.252832,106.61162 91.78125,106.84375 C 91.645399,107.39779 91.552445,107.95843 91.5,108.53125 L 90.25,106.09375 z M 82.15625,106.21875 L 85.78125,113.625 L 82.9375,114.125 L 79.84375,106.78125 C 80.615057,106.59848 81.384713,106.40184 82.15625,106.21875 z M 103.0625,106.5625 L 104.84375,110.28125 L 101.71875,110.8125 L 101.625,110.59375 C 102.37402,109.39926 102.8681,108.01915 103.0625,106.5625 z M 79.53125,106.84375 L 82.34375,114.25 C 79.852463,114.72699 77.366277,115.0922 75.4375,115.4375 L 74.90625,114.40625 C 77.494761,111.86553 77.571994,110.40853 77.96875,107.21875 C 78.489723,107.09564 79.010462,106.96711 79.53125,106.84375 z M 77.375,107.34375 C 77.061398,109.96388 76.939984,111.5173 74.71875,114 L 73.9375,112.4375 C 74.92279,110.86138 75.531913,109.29691 75.8125,107.71875 C 76.333411,107.59599 76.853961,107.4668 77.375,107.34375 z M 61.21875,107.5625 L 61.53125,108.1875 C 60.727931,108.37602 59.900598,108.56252 59.09375,108.75 L 58.65625,107.71875 L 61.21875,107.5625 z M 75.34375,107.84375 C 75.07875,109.17924 74.539096,110.53288 73.6875,111.9375 L 72.0625,108.59375 C 73.155067,108.33848 74.250995,108.1011 75.34375,107.84375 z M 52.71875,108.40625 L 54.96875,108.4375 L 55.53125,109.5625 C 54.818028,109.72465 54.127546,109.90129 53.40625,110.0625 L 52.71875,108.40625 z M 71.53125,108.71875 L 73.3125,112.5 C 72.756839,113.33908 72.107066,114.19726 71.3125,115.0625 L 69.03125,109.3125 C 69.865407,109.11937 70.697178,108.91334 71.53125,108.71875 z M 68.3125,109.46875 L 70.84375,115.5625 C 70.573611,115.84154 70.296506,116.12442 70,116.40625 L 66.34375,117.0625 L 63.21875,110.65625 C 64.919434,110.27111 66.61324,109.86125 68.3125,109.46875 z M 49.03125,109.59375 L 49.65625,110.875 C 48.959093,111.02533 48.271494,111.19439 47.5625,111.34375 L 46.875,109.71875 L 49.03125,109.59375 z M 109.53125,110.03125 C 110.03444,110.38989 110.61835,110.65905 111.28125,110.8125 L 99.5625,112.90625 C 100.09813,112.5254 100.55275,112.05786 100.96875,111.5625 L 109.53125,110.03125 z M 67.375,110.375 L 64.59375,111.09375 L 66.875,116.5 L 69.59375,115.9375 L 67.375,110.375 z M 117.40625,110.46875 L 117.6875,111.125 L 114.96875,111.6875 L 114.6875,110.96875 L 117.40625,110.46875 z M 62.71875,110.75 L 65.75,117.15625 L 62.75,117.6875 L 60.15625,111.34375 C 61.012392,111.15261 61.863228,110.94332 62.71875,110.75 z M 66.9375,111.125 L 68.84375,115.5625 L 67.3125,116.0625 L 65.28125,111.46875 L 66.9375,111.125 z M 112,111.4375 L 112.3125,111.96875 L 109.1875,112.71875 L 108.875,111.96875 L 112,111.4375 z M 59.46875,111.5 L 62.0625,117.8125 L 60.46875,118.09375 L 57.4375,111.9375 C 58.113601,111.78869 58.793146,111.65031 59.46875,111.5 z M 79.3125,111.9375 L 76.53125,112.65625 L 77.6875,114.8125 L 80.40625,114.25 L 79.3125,111.9375 z M 56.78125,112.09375 L 59.8125,118.21875 L 56.96875,118.71875 L 54.4375,112.59375 C 55.218292,112.42487 56.001259,112.2648 56.78125,112.09375 z M 105.96875,112.5 L 106.09375,112.78125 L 102.8125,113.46875 L 102.65625,113.0625 L 105.96875,112.5 z M 78.875,112.6875 L 79.65625,113.875 L 78.125,114.375 L 77.21875,113.03125 L 78.875,112.6875 z M 53.84375,112.71875 L 56.21875,118.84375 L 54.46875,119.15625 L 51.4375,113.21875 C 52.239411,113.04862 53.042835,112.89135 53.84375,112.71875 z M 73.5625,113.03125 L 74.28125,114.5 C 73.860725,114.93781 73.371863,115.39873 72.8125,115.90625 L 71.75,116.09375 L 71.5,115.53125 C 72.298526,114.68712 72.99506,113.8575 73.5625,113.03125 z M 92.6875,113.0625 L 94.40625,113.9375 L 68.46875,118.375 L 70.40625,116.8125 L 92.6875,113.0625 z M 50.90625,113.34375 L 53.84375,119.25 L 51.09375,119.75 L 48.59375,113.8125 C 49.363285,113.65249 50.137767,113.5062 50.90625,113.34375 z M 100.125,113.5 L 100.4375,114.15625 L 97.0625,114.9375 L 96.71875,114.125 L 100.125,113.5 z M 93.84375,114.625 L 94.09375,115.125 L 91.15625,115.8125 L 90.84375,115.125 L 93.84375,114.625 z M 74.4375,114.875 L 74.78125,115.5625 L 73.375,115.8125 C 73.77402,115.47497 74.111452,115.17676 74.4375,114.875 z M 86.84375,115.84375 L 87.125,116.40625 L 84.09375,116.90625 L 83.875,116.375 L 86.84375,115.84375 z M 71.03125,116.03125 L 71.09375,116.21875 L 70.78125,116.28125 C 70.868309,116.19612 70.946671,116.11612 71.03125,116.03125 z M 75.8125,117.78125 L 76.09375,118.375 L 72.96875,119.15625 L 72.65625,118.34375 L 75.8125,117.78125 z M 66.8125,119.375 L 67.15625,120.09375 L 64.03125,120.78125 L 63.6875,119.90625 L 66.8125,119.375 z M 60.90625,120.40625 L 61.15625,120.90625 L 58.1875,121.6875 L 57.875,120.9375 L 60.90625,120.40625 z M 54.9375,121.4375 L 55.40625,122.40625 L 52.53125,123.1875 L 52,121.96875 L 54.9375,121.4375 z"
       id="path2496"
       sodipodi:nodetypes="ccccccccccccccccccccscccccccccccsccccsccccccsccccccsccccccccccscccccccccccsccccccccccccccccccsccccscccccccccccccccccccccccccccccccccccccccccccccccccccccccccccccccccccccccccccccccccccccccccccccccccccccccccccccccccscccccccccccccccccccccccccccccccccccccccccccccccccccccccccccccccccccccccccccccccccccccccccccccccccccccccccccccccccccccccccccccccccccccccccccccccccccccccsccssccccccccccccccccccccccccccccsssccsssccccccccccccccccccccccccccccccccsccccccsccccccccccccccccccccccccccccccccccccccccccccccccccccccccccccccccccccccccccccccccccccccccccccscccscccccccccccccccccccccccccccccccccccccccccccccccccccccccccccccccccccccccccccccsccscccccccccccccccccccccccccccccccccccccccccsccccccccccccccccccccccccccccssccccccccccccccccccccccccccccccccccccccccccccccccccccccccccccccccccccsccccccccccccccccccccccccccccccccccccccccccccccccccccccccccccccccccccccccccccccccccccccccccccccccccccccccccccccccccccccccccccccccccccccccccccccccccccccccccccccccccccccccccccccccccccccccccccccccc" />
    <path
       style="fill:none;fill-rule:evenodd;stroke:#000000;stroke-width:1px;stroke-linecap:butt;stroke-linejoin:miter;stroke-opacity:1"
       d="M 74.422989,83.452273 C nan,nan nan,nan 79.019183,85.573593"
       id="path2372"
       sodipodi:nodetypes="cs" />
  </g>
</svg>
