<?xml version="1.0" encoding="UTF-8" standalone="no"?>
<!-- Created with Inkscape (http://www.inkscape.org/) -->
<svg
   xmlns:dc="http://purl.org/dc/elements/1.1/"
   xmlns:cc="http://creativecommons.org/ns#"
   xmlns:rdf="http://www.w3.org/1999/02/22-rdf-syntax-ns#"
   xmlns:svg="http://www.w3.org/2000/svg"
   xmlns="http://www.w3.org/2000/svg"
   xmlns:xlink="http://www.w3.org/1999/xlink"
   xmlns:sodipodi="http://sodipodi.sourceforge.net/DTD/sodipodi-0.dtd"
   xmlns:inkscape="http://www.inkscape.org/namespaces/inkscape"
   width="128"
   height="128"
   id="svg2"
   sodipodi:version="0.32"
   inkscape:version="0.45+devel"
   version="1.0"
   sodipodi:docname="monastery_outline.svg"
   inkscape:output_extension="org.inkscape.output.svg.inkscape">
  <defs
     id="defs4">
    <filter
       height="1.42432"
       y="-0.21216"
       width="1.2179726"
       x="-0.1089863"
       id="filter2892"
       inkscape:collect="always">
      <feGaussianBlur
         id="feGaussianBlur2894"
         stdDeviation="0.72146876"
         inkscape:collect="always" />
    </filter>
    <radialGradient
       r="8.2519293"
       fy="222.04396"
       fx="14.207293"
       cy="222.04396"
       cx="14.207293"
       gradientTransform="scale(1.39523,0.716728)"
       gradientUnits="userSpaceOnUse"
       id="radialGradient1968"
       xlink:href="#linearGradient2057"
       inkscape:collect="always" />
    <linearGradient
       inkscape:collect="always"
       id="linearGradient2057">
      <stop
         style="stop-color:#000000;stop-opacity:1;"
         offset="0"
         id="stop2059" />
      <stop
         style="stop-color:#000000;stop-opacity:0;"
         offset="1"
         id="stop2061" />
    </linearGradient>
  </defs>
  <sodipodi:namedview
     id="base"
     pagecolor="#ffffff"
     bordercolor="#666666"
     borderopacity="1.0"
     gridtolerance="10000"
     guidetolerance="10"
     objecttolerance="10"
     inkscape:pageopacity="0.0"
     inkscape:pageshadow="2"
     inkscape:zoom="1"
     inkscape:cx="59.708409"
     inkscape:cy="85.9214"
     inkscape:document-units="px"
     inkscape:current-layer="layer1"
     showgrid="false"
     width="744.09px"
     inkscape:window-width="1248"
     inkscape:window-height="975"
     inkscape:window-x="426"
     inkscape:window-y="24"
     showguides="true"
     inkscape:guide-bbox="true" />
  <metadata
     id="metadata7">
    <rdf:RDF>
      <cc:Work
         rdf:about="">
        <dc:format>image/svg+xml</dc:format>
        <dc:type
           rdf:resource="http://purl.org/dc/dcmitype/StillImage" />
      </cc:Work>
    </rdf:RDF>
  </metadata>
  <g
     inkscape:label="Layer 1"
     inkscape:groupmode="layer"
     id="layer1">
    <path
       style="opacity:1;fill:#5c2700;fill-opacity:1;stroke:none;stroke-width:0.92315269000000000;stroke-miterlimit:4;stroke-dasharray:none;stroke-opacity:1"
       d="M 51.65625 21.78125 C 38.130094 21.78125 26.819287 31.80585 24.15625 45.09375 C 22.8849 45.739239 21.64749 46.421746 20.46875 47.125 C 10.578068 53.29998 2.0028556 62.301725 2.3125 74.6875 C 1.5964298 77.936946 2.28125 84.930341 2.28125 87.625 C 2.2812499 97.94624 9.2734709 107.22699 20.46875 113.90625 C 31.66403 120.58552 47.08809 124.71875 64.09375 124.71875 C 70.523141 124.71875 76.73387 124.12708 82.5625 123.03125 L 81.71875 108.28125 C 81.477791 104.04324 84.908233 94.327664 86.65625 93.0625 L 96.15625 99.65625 C 96.718745 100.87266 97.091248 102.10989 97.4375 103.34375 C 98.922791 108.63654 98.415698 114.30148 98.25 117.96875 L 100.96875 118.875 C 102.79908 118.00393 106.90732 115.23751 108.5625 114.25 C 119.75778 107.57074 125.90625 97.946243 125.90625 87.625 C 125.90625 85.348685 126.44762 76.570822 125.90625 73.59375 C 125.09501 61.222434 116.98051 54.054513 107.6875 47.125 C 99.235569 42.082451 88.375064 38.541113 76.25 37.09375 C 71.496325 27.996027 62.280264 21.78125 51.65625 21.78125 z M 51.65625 22.78125 C 62.085198 22.78125 71.46209 29.063016 76.125 38.15625 C 77.28853 40.279089 78.302118 43.603118 78.84375 46.28125 C 78.472126 46.601596 78.079742 46.914405 77.6875 47.21875 L 77.1875 46.125 C 76.12412 46.099096 75.062116 46.050229 74 46 C 74.408903 45.383675 74.453608 44.897945 74.4375 44.125 L 73.65625 41 C 72.080176 40.364603 71.448087 39.024778 70.6875 37.625 L 70.625 37.6875 C 71.290906 38.754385 71.438275 40.381953 73.3125 41.375 C 73.637696 42.242819 73.952448 43.46775 73.96875 44.25 C 73.981329 44.85361 73.545418 45.378199 73.03125 45.9375 C 72.968826 45.935379 72.906188 45.939394 72.84375 45.9375 C 71.462771 45.966793 70.014789 46.238512 68.46875 47.15625 C 67.658896 47.316375 66.875435 47.514003 66.125 47.78125 C 65.411545 47.529653 64.661194 47.434324 63.9375 47.3125 C 63.519338 45.073703 63.267207 42.020707 64.53125 40.375 C 65.198143 39.08227 66.190365 38.139624 66.71875 36.78125 C 67.339511 35.478236 68.201906 34.302714 67.4375 32.78125 L 63.5 29.25 C 62.856502 28.134663 62.208223 27.215015 61.0625 26.5625 C 59.811545 26.014074 58.287217 26.426375 56.875 26.125 L 56.78125 26.375 C 58.184799 26.674525 59.81314 26.538324 60.9375 27.03125 C 62.06186 27.524177 62.661434 28.600433 63.1875 29.59375 L 67 33 C 67.571251 34.190401 66.946023 35.523236 66.40625 36.65625 C 65.865144 37.792063 64.957818 38.956434 64.21875 40.1875 C 62.768982 42.374258 62.98796 44.785232 63.40625 47.21875 C 63.077948 47.151113 62.773414 47.053931 62.46875 46.9375 C 61.263474 46.476887 59.902016 45.75615 59.03125 44.59375 C 58.588834 43.281287 58.575834 41.606823 58.03125 40.15625 C 57.474362 38.672905 56.74344 37.216081 54.625 36.0625 L 54.65625 36.125 C 56.589515 37.177746 57.190948 39.052367 57.6875 40.375 C 57.96258 41.107715 58.029221 41.911496 58.125 42.75 C 57.263736 42.201624 56.364766 41.988811 55.46875 42.09375 C 54.377533 42.22155 53.318978 42.730824 52.25 43.375 C 50.112044 44.663352 48.211568 47.225975 45.78125 48.125 L 45.8125 48.34375 C 48.470973 47.360326 50.625004 44.942797 52.65625 43.71875 C 53.671875 43.106724 54.770615 42.631313 55.625 42.53125 C 56.364158 42.444683 57.4035 42.88396 58.21875 43.46875 C 58.286136 43.911178 58.380604 44.349792 58.53125 44.78125 C 59.370571 46.169991 60.832106 46.815946 62.21875 47.53125 C 63.308901 47.947864 64.223462 47.927372 65.1875 48.1875 C 63.468649 48.9017 61.81234 49.831357 60.125 50.78125 C 58.564501 51.478721 56.841107 51.520293 55.78125 51.3125 C 54.721393 51.104706 53.634367 50.945433 52.65625 50.375 L 52.5 50.4375 C 53.48973 51.014706 54.526353 51.597718 55.78125 51.84375 C 57.036147 52.089782 58.506113 51.984218 60.21875 51.21875 C 62.735025 49.314726 65.810998 48.567576 68.78125 47.6875 C 71.287467 46.238615 74.075472 46.719286 76.875 46.8125 L 76.90625 47.8125 C 70.034015 52.793857 60.415166 55.447346 51.25 55.40625 C 44.036155 55.373904 36.589032 53.636384 30.625 50.75 C 30.465129 47.005866 29.41859 42.194179 30.34375 39.25 C 33.484301 38.599915 36.114444 35.967325 38.46875 33.625 C 39.701105 32.742027 40.930018 32.371291 42.125 32.1875 C 43.747972 32.611279 45.015035 33.350033 45.46875 33.84375 C 45.958107 34.376254 45.945649 35.396361 46.84375 36.03125 C 48.814167 37.332455 49.328145 39.876181 50.28125 42.3125 C 49.400872 40.007881 49.427262 37.12412 47.0625 35.5625 C 46.363552 35.068395 46.488093 34.135897 45.875 33.46875 C 45.392385 32.943585 44.66249 32.427633 43.4375 32.03125 C 43.871248 31.995828 44.2971 31.974 44.71875 31.9375 C 46.644931 31.770762 48.728862 31.464839 50.8125 31.03125 C 53.03711 31.344403 54.839201 32.969977 56.3125 34.5 L 56.46875 34.40625 C 54.968834 32.880343 53.513886 30.930981 50.8125 30.625 C 48.781743 30.986558 46.71245 31.039151 44.65625 31.15625 C 42.588411 31.335251 40.400443 31.816023 38.09375 33.46875 C 36.025952 35.569295 33.568796 37.11651 30.96875 38.4375 C 31.604214 36.955843 31.52807 36.235276 31.46875 34.78125 C 31.73352 33.559039 32.724783 32.564731 33.46875 31.59375 C 34.263114 31.003911 35.61889 30.971962 36.46875 30.09375 C 37.462574 29.103442 38.529608 28.340135 39.8125 28.53125 L 39.8125 28.375 C 38.185087 27.947922 37.550353 28.89185 36.28125 29.90625 C 35.580416 30.630466 34.176666 30.553878 33.28125 31.21875 C 32.385834 31.883622 31.530738 32.806552 31.03125 34.46875 C 31.180262 36.019431 30.682091 37.419156 30.15625 38.84375 C 30.101607 38.870219 30.054753 38.911212 30 38.9375 C 29.30314 41.066057 29.196833 43.261398 29.25 45.46875 C 27.989211 44.664905 26.864527 43.780718 26.65625 42.3125 L 26.5 42.3125 C 26.76013 44.146241 27.913702 45.367622 29.25 46.3125 C 29.304502 47.597224 29.397326 48.879687 29.46875 50.15625 C 27.579385 49.160544 25.860667 48.061679 24.375 46.84375 C 26.38249 33.269667 38.13157 22.78125 51.65625 22.78125 z M 76.59375 37.78125 C 88.421289 39.332458 98.891933 43.069385 107.15625 48 C 118.15842 54.564057 125.21875 63.564494 125.21875 73.4375 C 125.21875 77.895223 123.74617 82.332229 121.1875 86.40625 C 119.06946 90.163409 115.64955 93.674896 112.03125 96.5625 L 111.5625 95.75 C 121.00287 88.262573 126.0936 78.853351 123.9375 68.8125 C 121.24374 56.267774 107.46987 44.793232 76.6875 37.96875 C 76.657345 37.906097 76.62431 37.843658 76.59375 37.78125 z M 76.90625 38.46875 C 107.03282 45.284464 120.91649 57.270542 123.46875 69.15625 C 124.60774 74.460501 123.46466 79.781563 120.6875 84.75 C 119.01722 75.607412 112.9435 67.698194 104.40625 61.6875 C 98.025659 57.195212 90.26243 53.778195 81.90625 51.65625 L 85.25 49.3125 L 85.40625 49.3125 C 85.428021 49.284376 85.447456 49.247747 85.46875 49.21875 L 91.03125 48.03125 L 94.28125 50.1875 L 95.25 55.0625 L 94.5625 50 L 97.875 49.03125 L 97.6875 48.90625 L 94.15625 49.71875 L 91.21875 47.5625 L 85.5625 49.0625 C 86.116709 48.246427 86.549077 47.170498 87.0625 46.25 C 88.898748 45.666616 89.323493 45.045486 90.40625 44.4375 L 94.28125 45.5 L 94.375 45.3125 L 90.46875 44.15625 C 89.235078 44.456844 88.073308 45.402188 87 46.125 C 86.85833 46.304905 86.726339 46.493506 86.59375 46.6875 L 84.9375 43.78125 L 84.75 43.71875 L 86.3125 47.09375 C 85.851309 47.817196 85.430084 48.599967 84.96875 49.3125 L 81.1875 51.46875 C 80.574184 51.319149 79.962927 51.166635 79.34375 51.03125 C 80.298851 49.306729 80.713493 47.546177 79.1875 45.65625 C 78.728979 43.126789 77.943577 40.725387 76.90625 38.46875 z M 23.9375 46.34375 L 23.8125 47.21875 C 23.138526 48.143526 22.499052 49.134315 24.28125 51.59375 C 24.751078 51.872992 25.218147 52.157065 25.6875 52.4375 C 25.703159 54.984364 26.180781 57.273073 26.1875 60.09375 C 18.375976 65.687332 11.459171 73.627049 7.375 84.15625 C 5.4149358 80.251142 4.4027513 75.907075 5.0625 71.40625 C 6.1467992 64.009129 11.976241 54.68121 23.9375 46.34375 z M 22.90625 46.6875 C 10.974446 55.037085 5.5975209 63.424492 4.46875 71.125 C 3.3132034 79.008173 6.6350903 86.079828 11.6875 91.53125 C 18.970845 99.389794 31.013824 103.85495 43.21875 106.4375 C 43.955642 106.59343 44.696639 106.73452 45.4375 106.875 C 45.896552 106.96205 46.419773 108.27116 46.8125 109.03125 L 46.78125 110.28125 C 46.347521 109.51161 45.878457 107.829 45.46875 107.75 C 36.004111 105.92497 27.497598 102.76311 20.71875 98.71875 C 11.726993 93.432037 3.1790224 85.937602 3.375 75.5625 C 3.3257909 74.875288 3.2784241 74.142544 3.25 73.4375 C 3.2500001 63.564492 10.15408 54.220308 21.15625 47.65625 C 21.718585 47.320752 22.318133 47.008496 22.90625 46.6875 z M 78.59375 47.25 C 80.569659 48.196742 79.919043 49.721816 78.375 50.65625 C 68.819153 57.096562 58.3794 59.288676 48.84375 58.65625 C 39.34424 58.026221 30.76006 54.588623 25.21875 51 C 23.424891 49.625562 23.388744 47.331127 25 48.1875 C 31.57254 53.17861 41.28143 55.862112 51.125 55.90625 C 61.20995 55.95147 71.437495 53.226376 78.59375 47.25 z M 79.125 51.375 C 87.987751 53.316947 96.140978 57.592193 103.90625 62.25 C 112.30426 68.162664 118.86822 76.305136 120.46875 85.15625 C 118.19733 89.079228 115.34552 92.375995 111.28125 95.625 C 111.11044 95.761541 111.73599 97.58378 111.5625 97.71875 C 111.46807 97.792218 111.21732 97.332248 111.03125 97.09375 C 111.02638 97.087507 111.03603 97.068441 111.03125 97.0625 C 110.95855 96.972202 110.88177 96.939784 110.84375 96.96875 C 110.6516 97.11514 110.53903 98.136814 110.34375 98.28125 C 110.15901 98.417888 109.34374 97.240147 109.15625 97.375 C 107.54717 98.532356 105.45292 99.829673 103.65625 100.84375 C 102.50319 97.968919 100.83923 95.753951 98.9375 94.03125 C 95.656374 89.730446 90.148099 87.22794 84.625 86.0625 L 84.5 85.875 C 83.264955 86.862793 82.118781 87.913163 81.03125 89.03125 L 72.53125 82.96875 C 74.440163 82.410893 76.517539 81.738914 78.875 80.90625 L 78.6875 79.21875 C 78.716897 79.204589 78.751921 79.201699 78.78125 79.1875 L 75.8125 76.125 C 76.941568 75.478932 78.052366 74.76376 79.15625 74 C 81.732938 71.986528 79.960064 68.212431 78.53125 68.625 C 78.268754 68.830469 77.988697 69.020982 77.71875 69.21875 C 76.974365 63.814101 76.994398 58.154645 77.75 52.25 C 78.209966 51.959708 78.669127 51.685598 79.125 51.375 z M 76.75 52.875 L 76.71875 69.9375 C 76.051684 70.388449 75.360958 70.811403 74.65625 71.21875 L 74.46875 56.96875 C 73.908981 55.686774 73.156504 55.556462 71.9375 55.75 C 71.112985 56.219733 70.61308 57.294003 70.625 58.6875 L 70.625 73.25 C 69.556092 73.710042 68.461828 74.122941 67.34375 74.5 L 67.34375 64.28125 C 66.559782 61.76894 64.589051 61.450637 62.25 61.375 C 59.407043 61.861096 58.014098 63.59126 57.5625 66.3125 L 57.40625 76.71875 C 56.04602 76.886836 54.67871 76.995794 53.3125 77.0625 L 53.3125 62.46875 C 53.35373 61.164936 52.3569 60.288112 51.3125 60.21875 C 49.808035 60.318674 49.425808 61.103181 49.0625 62.4375 L 49.125 77.125 C 48.25553 77.102261 47.39038 77.06332 46.53125 77 L 46.4375 62.75 C 46.454047 61.337255 45.806891 60.792424 44.75 60.0625 C 43.198879 59.879978 42.752551 60.623555 42.25 61.875 L 42.3125 76.53125 C 41.30258 76.374238 40.28926 76.18279 39.3125 75.96875 L 39.375 61.1875 C 39.388194 59.722388 38.86281 59.217909 37.6875 58.59375 C 36.69924 58.445467 35.64007 59.154196 35.375 60.40625 L 35.09375 74.8125 C 34.26367 74.542189 33.44294 74.252572 32.65625 73.9375 L 32.75 59.4375 C 32.692691 57.8637 31.978793 57.336289 30.78125 56.53125 C 29.77812 56.411865 28.77923 57.072105 28.5625 58.09375 L 28.5625 71.96875 C 27.9201 71.601604 27.30936 71.216105 26.71875 70.8125 C 27.104854 64.91745 26.700323 58.93471 26.6875 53.03125 C 32.32386 56.195195 40.10903 58.772733 48.71875 59.34375 C 57.71453 59.940371 67.58767 58.336274 76.75 52.875 z M 72.75 55.875 C 72.90739 55.935857 74.101496 56.884424 74.28125 57.1875 L 74.34375 71.65625 C 73.668044 72.019146 71.609804 72.799869 70.90625 73.125 L 71.09375 58.5625 C 70.993127 57.221072 71.48119 56.340524 72.75 55.875 z M 30.65625 56.78125 C 31.541404 57.143052 32.328281 58.605192 32.5 59.5 L 32.34375 73.6875 C 31.62213 73.372866 29.42578 72.696965 28.75 72.34375 L 29 58.03125 C 29.12302 57.573591 30.19407 56.726245 30.65625 56.78125 z M 37.65625 58.78125 C 38.12685 58.851861 39.15108 59.960421 39.0625 61.03125 L 39 76.03125 C 38.24643 75.848472 36.00857 75.279264 35.28125 75.0625 L 35.71875 60.46875 C 35.851014 59.580625 37.098038 59.018803 37.65625 58.78125 z M 44.0625 60.1875 C 45.427037 60.349398 46.159553 61.705555 46.125 62.53125 L 46.09375 76.84375 C 45.34775 76.774625 43.29615 76.75567 42.5625 76.65625 L 42.5 61.9375 C 42.382433 61.143863 43.633551 60.290636 44.0625 60.1875 z M 51.25 60.625 C 52.031792 60.628098 52.793025 61.253873 53 62.5 L 53 77.1875 C 52.271114 77.216209 50.22926 77.153107 49.5 77.15625 L 49.40625 62.4375 C 49.665857 61.241481 50.468208 60.621902 51.25 60.625 z M 26.125 60.875 C 26.016903 63.949227 26.270024 66.903048 25.71875 70.125 C 25.35353 69.847488 24.99647 69.542668 24.65625 69.25 C 23.629319 69.196455 22.445786 72.78056 24.46875 74.34375 C 30.349641 78.657632 39.4649 82.052213 49.59375 82.46875 L 49.21875 84.375 C 49.260415 84.37756 49.30215 84.372509 49.34375 84.375 L 49.3125 85.8125 C 54.444271 85.599914 58.201972 85.666151 62.53125 85.125 C 62.856207 86.283641 64.961177 92.724177 66.5625 97.65625 C 68.138003 102.5088 69.836752 107.89827 69.9375 108.21875 C 64.643054 108.50868 58.172224 107.78242 50.78125 107.0625 C 50.469972 107.03218 49.501968 108.87396 49.1875 108.84375 C 48.721593 108.79901 48.650987 107.82762 48.1875 107.75 C 47.772664 107.68052 47.602554 108.60539 47.1875 108.53125 C 46.645066 108.43436 46.10425 106.32362 45.5625 106.21875 C 44.934699 106.09722 44.312647 105.97603 43.6875 105.84375 C 40.179924 105.10155 36.673125 104.20404 33.28125 103.125 L 39.34375 101.375 L 36.375 97.1875 L 25.125 100 C 23.823478 99.406398 22.556121 98.797285 21.34375 98.125 L 34.21875 94.4375 L 31.28125 90.25 L 18.3125 93.46875 L 19.9375 97.3125 C 19.557909 97.084348 19.180678 96.861984 18.8125 96.625 L 18.0625 93.3125 C 17.052297 93.376037 15.979009 93.280354 15.21875 93.96875 C 14.214983 93.134788 13.266647 92.272096 12.40625 91.34375 C 10.713125 89.516911 9.2016904 87.452117 7.96875 85.25 C 11.905691 74.625399 18.482913 66.533255 26.125 60.875 z M 63.09375 61.8125 C 64.680014 61.894597 66.110459 62.939755 66.78125 64.40625 L 66.84375 74.6875 C 64.27886 75.488455 60.67375 76.333267 57.96875 76.71875 L 58.125 66.25 C 58.243973 63.85881 60.273128 62.394913 62.40625 61.84375 C 62.637464 61.814885 62.867141 61.800772 63.09375 61.8125 z M 99.96875 62.9375 C 98.552202 62.975143 97.994008 63.626234 97.5 64.09375 C 97.436398 64.12219 97.378035 64.162161 97.3125 64.1875 L 97.28125 65.84375 L 102.25 69.5 L 102.25 69.1875 L 103.09375 68.84375 L 102.90625 66.15625 C 102.76025 65.479962 102.75717 64.627628 102.40625 64.15625 C 101.88447 63.748204 101.49205 63.345552 99.96875 62.9375 z M 100.03125 63.125 C 100.74648 63.501154 101.51202 63.629602 102.125 64.3125 C 102.43344 64.851801 102.65517 65.545515 102.71875 66.1875 L 102.75 68.625 L 102.28125 68.875 L 102.34375 65.90625 C 102.31961 64.321705 101.26119 64.196941 100.34375 63.625 C 99.466905 63.319681 98.882 63.48231 98.34375 63.71875 C 98.826458 63.398732 99.378254 63.141157 100.03125 63.125 z M 99.40625 63.6875 C 99.649346 63.692501 99.889912 63.761014 100.1875 63.875 C 101.69897 64.480877 102.2255 65.298697 102.125 66.25 L 101.84375 68.65625 L 97.59375 65.8125 L 97.59375 64.40625 C 98.154224 64.083622 98.676957 63.672497 99.40625 63.6875 z M 96.5 66.09375 L 85.21875 70.75 L 89.84375 75.0625 L 101.625 69.625 L 96.5 66.09375 z M 96.5625 66.46875 L 100.75 69.53125 L 89.875 74.5 L 85.90625 70.9375 C 89.468822 69.473148 93.016738 67.973294 96.5625 66.46875 z M 106 68.78125 C 104.58345 68.818894 104.02526 69.469984 103.53125 69.9375 C 103.46765 69.965937 103.40929 70.005911 103.34375 70.03125 L 103.3125 71.6875 L 108.28125 75.34375 L 108.28125 75.03125 L 109.125 74.6875 L 108.9375 72 C 108.7915 71.323709 108.78842 70.471378 108.4375 70 C 107.91572 69.591951 107.5233 69.189302 106 68.78125 z M 106.0625 68.96875 C 106.77773 69.344905 107.54327 69.473352 108.15625 70.15625 C 108.46469 70.695548 108.68642 71.389265 108.75 72.03125 L 108.78125 74.46875 L 108.3125 74.71875 L 108.375 71.75 C 108.35086 70.165452 107.29244 70.040691 106.375 69.46875 C 105.49815 69.163432 104.91325 69.32606 104.375 69.5625 C 104.85771 69.242483 105.4095 68.984907 106.0625 68.96875 z M 105.4375 69.53125 C 105.6806 69.536252 105.92116 69.604764 106.21875 69.71875 C 107.73022 70.324628 108.25675 71.142447 108.15625 72.09375 L 107.875 74.5 L 103.625 71.65625 L 103.625 70.25 C 104.18548 69.927369 104.70821 69.516247 105.4375 69.53125 z M 78.875 69.71875 C 80.084012 69.587906 80.5906 71.598858 78.375 73.28125 C 77.312482 74.043025 76.235975 74.752662 75.15625 75.40625 L 74.46875 74.71875 L 73.15625 75.34375 L 72.3125 74.59375 L 71.375 74.96875 L 70.75 74.375 L 70.6875 74.40625 L 70.6875 74.28125 L 69.59375 74.65625 L 69.5 74.5625 C 72.821254 73.37593 75.915867 71.81927 78.625 69.78125 C 78.711252 69.752825 78.794399 69.727473 78.875 69.71875 z M 25 70.84375 C 31.20271 75.614005 40.32095 77.563492 50.09375 77.59375 C 51.976224 77.599578 53.875946 77.526309 55.78125 77.375 L 55.75 77.625 L 54.53125 77.78125 L 54.53125 77.875 L 54.46875 77.8125 L 54.28125 78.84375 L 52.09375 78.8125 L 51.96875 79.75 L 50.1875 79.625 L 49.71875 81.90625 C 39.768121 81.518311 30.876127 78.031235 25.21875 73.625 C 24.090417 73.307958 23.460628 71.165595 25 70.84375 z M 102.53125 71.9375 L 91.25 76.59375 L 95.875 80.90625 L 107.65625 75.46875 L 102.53125 71.9375 z M 102.59375 72.3125 L 106.78125 75.375 L 95.90625 80.34375 L 91.9375 76.78125 C 95.500074 75.316895 99.047988 73.817044 102.59375 72.3125 z M 113.25 74.59375 C 111.83345 74.631392 111.27526 75.282484 110.78125 75.75 C 110.71765 75.778435 110.65929 75.818411 110.59375 75.84375 L 110.5625 77.5 L 115.53125 81.15625 L 115.53125 80.84375 L 116.375 80.5 L 116.1875 77.8125 C 116.0415 77.136207 116.03842 76.283878 115.6875 75.8125 C 115.16572 75.404449 114.7733 75.001802 113.25 74.59375 z M 70.28125 74.65625 L 72.59375 76.625 C 67.654585 78.644157 60.87346 80.985696 54.40625 80.40625 L 54.8125 78.09375 L 54.6875 78 L 55.6875 77.90625 L 55.53125 78.8125 C 55.562356 78.811416 55.593966 78.813541 55.625 78.8125 L 55.6875 80.03125 C 60.063821 79.902286 64.986621 79.633887 70.40625 77.125 L 70.53125 75.90625 C 70.587888 75.886089 70.630375 75.864204 70.6875 75.84375 L 69.78125 74.84375 L 70.28125 74.65625 z M 68.96875 74.75 L 69.65625 75.71875 C 65.39121 77.266692 60.511097 78.525625 56.0625 78.34375 L 56.25 77.34375 C 60.596975 76.966948 64.945231 76.127289 68.96875 74.75 z M 113.3125 74.78125 C 114.02773 75.157403 114.79327 75.285852 115.40625 75.96875 C 115.71469 76.508046 115.93642 77.201765 116 77.84375 L 116.03125 80.28125 L 115.5625 80.53125 L 115.625 77.5625 C 115.60086 75.97795 114.54244 75.853191 113.625 75.28125 C 112.74815 74.97593 112.16325 75.13856 111.625 75.375 C 112.10771 75.054981 112.6595 74.797407 113.3125 74.78125 z M 72.40625 75.03125 L 75.3125 77.9375 C 67.56441 81.393487 59.006899 83.008405 51.78125 82.53125 L 52.5 79.15625 L 54.21875 79.0625 L 53.875 80.9375 C 53.905772 80.941115 53.937978 80.934021 53.96875 80.9375 L 53.96875 82.03125 C 61.190323 82.061225 65.842264 81.193287 73.125 78.0625 L 73.125 76.8125 C 73.166583 76.794645 73.208588 76.76782 73.25 76.75 L 71.5625 75.15625 L 72.40625 75.03125 z M 74.34375 75.15625 L 78.1875 79.125 C 69.235958 83.623453 57.827615 84.607662 49.59375 84.0625 L 50.59375 80 L 51.9375 79.96875 L 51.46875 82.9375 C 51.479055 82.937717 51.489691 82.937289 51.5 82.9375 L 51.53125 83.59375 C 59.798758 83.770178 63.323009 83.49676 76.125 79.375 L 76.125 78.15625 C 76.146207 78.147051 76.166308 78.134226 76.1875 78.125 L 73.34375 75.53125 L 74.34375 75.15625 z M 112.6875 75.34375 C 112.9306 75.34875 113.17116 75.417264 113.46875 75.53125 C 114.98022 76.137126 115.50675 76.954947 115.40625 77.90625 L 115.125 80.3125 L 110.875 77.46875 L 110.875 76.0625 C 111.43548 75.739867 111.95821 75.328747 112.6875 75.34375 z M 125.71875 76.03125 C 126.01358 78.886736 125.15625 85.5703 125.15625 87.625 C 125.15625 97.498002 119.22092 107.18595 108.21875 113.75 C 107.13905 114.39417 102.34596 117.59248 101.1875 118.1875 C 100.55109 115.67213 100.85888 108.26631 100.0625 103.53125 C 97.991702 98.216956 94.339209 95.176453 90.78125 93.5 C 90.683868 93.445569 90.569178 93.397707 90.46875 93.34375 C 89.273717 92.685781 87.93409 92.399705 86.625 92.0625 C 84.701494 93.769066 81.315651 99.836683 81 107.59375 C 80.729782 114.23435 81.323842 117.79292 81.875 122.59375 C 76.783298 123.42001 69.815714 124.03125 64.28125 124.03125 C 47.438864 124.03125 32.00217 119.5953 21 113.03125 C 15.287811 109.62328 10.650666 105.54195 7.5 101.03125 L 8.5 98.90625 C 9.0654351 98.950773 9.8227321 98.48874 10.34375 98.46875 C 11.093484 97.798822 10.97953 96.834504 11.34375 95.875 L 12.15625 95.21875 L 12.34375 95.09375 L 11.0625 95.53125 C 10.705482 96.442226 10.376031 97.365122 10.03125 98.28125 C 9.7593059 98.308513 9.2505062 98.258569 8.84375 98.21875 L 9 97.875 L 9.375 94.375 L 9.6875 92.71875 L 9.625 92.65625 L 8.875 94.09375 L 8.75 97.5 L 7.84375 98.5625 L 7 95.1875 L 6.8125 92.9375 L 6.625 92.6875 L 6.625 95.1875 L 7.34375 99.15625 L 6.71875 99.875 C 4.2862997 96.020317 2.9375 91.873345 2.9375 87.5625 C 2.9375 85.666033 2.6095003 80.890464 2.6875 77.84375 C 4.6684098 85.986435 11.267509 94.229154 20.46875 99.71875 C 27.337374 103.81667 35.828381 106.58805 45.25 108.5 C 45.957158 108.64351 46.340804 109.87118 46.71875 110.78125 L 45.40625 113.78125 L 41.65625 115.625 L 40.78125 118.03125 L 40.96875 118.09375 L 41.90625 115.65625 L 43.96875 114.90625 L 45.21875 119.53125 L 45.34375 119.46875 L 44.625 114.65625 L 45.71875 114.25 L 46.8125 111 C 46.833152 111.04637 46.854298 111.11301 46.875 111.15625 C 47.032878 111.06262 47.797065 110.21652 47.96875 110.03125 C 48.099785 110.14451 48.837435 111.92615 49.09375 112.15625 C 49.296687 111.88645 50.202472 109.5763 50.8125 109.65625 C 55.093277 110.2173 59.534977 110.53125 64.09375 110.53125 C 67.907806 110.53125 73.126964 110.17747 76.75 109.78125 C 76.743285 109.58923 76.7534 109.40849 76.75 109.21875 C 76.912372 100.6659 78.369696 92.559297 86.1875 88.5625 C 86.802357 88.650513 87.588114 88.820869 88.46875 89.0625 L 88.875 90.9375 L 87.3125 91.6875 L 87.25 91.75 L 89.125 91.28125 L 89.25 90.5 L 90 92.03125 L 94.09375 93.96875 L 96.15625 96.78125 L 96.40625 96.71875 L 94.75 93.96875 L 96.75 93.8125 L 94.34375 93.53125 L 90.53125 91.84375 L 89.5 89.375 C 94.138993 90.888898 100.80698 94.66125 103.3125 103.25 C 106.16059 102.04384 105.56371 101.44093 108.03125 99.96875 C 108.63428 99.608974 109.2366 99.251346 109.8125 98.875 C 109.94384 98.789168 110.19429 99.1465 110.4375 99.4375 L 110.46875 99.6875 L 110.3125 101.15625 L 111.5625 103.75 L 111.5625 103.96875 L 111.5 104 L 111.59375 104.09375 L 111.78125 108.0625 L 111.96875 104.625 L 113.96875 107.1875 L 114.125 107.125 L 112.03125 103.84375 L 112.03125 103.6875 L 110.5625 101.03125 L 110.71875 99.71875 C 110.77105 99.752085 110.83992 99.773748 110.875 99.75 C 111.09191 99.603178 111.03718 98.52415 111.25 98.375 C 111.38958 98.277181 111.87468 99.27963 112.21875 99.8125 L 112.5 100.96875 L 112.65625 100.96875 L 114.0625 104.34375 L 114.1875 104.25 L 113.28125 101 L 115.6875 101.0625 L 117.5625 103.25 L 117.65625 103.1875 L 116.21875 101.25 L 117.96875 101.71875 L 117.90625 101.59375 L 116.03125 101 L 115.90625 100.84375 L 112.8125 100.875 L 112.53125 100.125 C 112.72311 99.986174 112.06164 97.296977 112.25 97.15625 C 120.00911 91.359302 124.80165 83.953136 125.71875 76.03125 z M 111.78125 108.0625 L 111.75 108.375 L 111.78125 108.34375 L 111.78125 108.0625 z M 70 76.0625 L 70.125 76.84375 C 64.821375 78.67073 60.69278 79.811471 56.1875 79.625 L 56.125 78.78125 C 59.400435 78.686791 62.547355 78.663285 70 76.0625 z M 72.65625 77 L 72.71875 77.78125 C 66.704695 80.636583 60.461467 81.984598 54.25 81.59375 L 54.3125 80.96875 C 60.878918 81.605112 67.402007 79.235803 72.65625 77 z M 109.78125 77.75 L 98.5 82.40625 L 103.125 86.71875 L 114.90625 81.28125 L 109.78125 77.75 z M 109.84375 78.125 L 114.03125 81.1875 L 103.15625 86.15625 L 99.1875 82.59375 C 102.75008 81.129393 106.29799 79.629544 109.84375 78.125 z M 75.9375 78.21875 L 76 79.15625 C 68.889542 81.639835 61.161422 83.912137 51.78125 83.4375 L 51.75 82.9375 C 59.435267 83.059666 68.186813 81.545323 75.9375 78.21875 z M 78.3125 79.40625 L 78.46875 80.53125 C 69.506405 84.441904 59.483786 85.351936 49.6875 85.46875 L 49.46875 84.375 C 61.621408 85.083468 71.009875 82.848926 78.3125 79.40625 z M 72.375 83.03125 L 80.8125 89.25 C 79.347183 90.78307 78.009834 92.447123 76.84375 94.25 C 75.604518 96.919636 75.042587 102.78975 74.9375 107.65625 C 73.543897 107.9154 71.893009 108.11453 70.0625 108.21875 C 69.974069 107.92213 68.359211 102.48511 66.78125 97.625 C 65.171089 92.665712 63.043249 86.037724 62.78125 85.09375 C 65.555394 84.733829 68.599654 84.127226 72.375 83.03125 z M 27.34375 83.9375 L 14.375 87.15625 L 16.46875 92.0625 L 30.28125 88.125 L 27.34375 83.9375 z M 27.1875 84.3125 L 29.53125 87.9375 L 16.78125 91.5 L 14.9375 87.4375 C 19.021838 86.42916 23.098062 85.363186 27.1875 84.3125 z M 84.5625 86.34375 L 85.53125 88.03125 C 82.428181 90.650228 76.389349 94.648592 76.125 108.1875 L 75.375 107.25 C 75.329076 101.61139 76.031621 97.713913 77.71875 94.75 C 79.690186 91.96728 80.777807 89.239799 84.5625 86.34375 z M 84.875 86.46875 C 88.574638 86.972049 93.59241 89.150215 96.84375 92.34375 C 94.409227 90.683814 91.778614 89.645132 89.40625 88.9375 L 89.96875 88.0625 L 89.84375 88 L 88.875 88.5 L 87.59375 87.40625 L 87.40625 87.53125 L 88.15625 88.59375 C 87.338545 88.377985 86.548684 88.187635 85.84375 88.03125 L 84.875 86.46875 z M 14.03125 87.125 L 12.25 87.4375 L 12.125 87.78125 L 12.75 91.21875 L 13.625 92.375 L 16.21875 92.1875 L 14.03125 87.125 z M 13.9375 87.5 L 15.71875 92 L 14.09375 91.71875 L 14.09375 89.625 L 12.875 87.625 L 13.9375 87.5 z M 12.78125 87.625 L 13.75 89.875 L 13.59375 91.53125 L 12.96875 91.25 L 12.46875 87.65625 L 12.78125 87.625 z M 31.125 90.625 L 33.46875 94.21875 L 20.78125 97.8125 C 20.749013 97.794054 20.719663 97.768506 20.6875 97.75 L 18.875 93.71875 C 22.959337 92.710407 27.035562 91.675686 31.125 90.625 z M 86.84375 92.9375 C 88.406909 93.288914 90.363742 93.914079 92.25 94.90625 C 94.070677 96.235574 95.169774 97.705336 95.9375 99.21875 L 86.84375 92.9375 z M 16.9375 93.84375 C 17.148366 93.853917 17.361417 93.914699 17.59375 94 L 18.15625 96.1875 C 17.293488 95.608167 16.476737 94.975878 15.6875 94.34375 C 16.049979 94.015967 16.474997 93.82145 16.9375 93.84375 z M 111.46875 96.15625 L 111.8125 96.8125 C 111.81164 96.827018 111.81211 96.826552 111.8125 96.84375 C 111.824 97.355399 112.38575 99.026798 112.21875 99.15625 C 112.21246 99.161127 112.19559 99.155921 112.1875 99.15625 L 111.875 98.03125 C 112.0091 97.928251 111.57602 96.716954 111.46875 96.15625 z M 94.40625 96.25 C 96.987234 98.116031 99.084489 100.79958 99.34375 104.5 L 100.3125 118.15625 L 98.75 117.90625 C 98.927592 114.272 99.289764 108.56305 97.78125 103.1875 C 97.110761 100.79824 96.434904 98.421952 94.40625 96.25 z M 110.84375 97.46875 L 111.03125 97.84375 L 111.03125 97.875 C 110.82833 98.088771 110.93925 99.178744 110.71875 99.34375 C 110.70293 99.355589 110.67628 99.343253 110.65625 99.34375 L 110.5 98.6875 C 110.52522 98.694682 110.54686 98.698898 110.5625 98.6875 C 110.74151 98.557024 110.66723 97.60074 110.84375 97.46875 z M 111.125 97.5625 C 111.32293 97.701334 111.55094 97.920402 111.71875 98 L 111.96875 98.96875 C 111.73964 98.693698 111.42801 98.193464 111.21875 97.96875 L 111.125 97.5625 z M 36.25 97.59375 L 38.5625 101.1875 L 32.5 102.875 C 30.163149 102.10727 27.887882 101.2423 25.71875 100.28125 C 29.230503 99.407462 32.732125 98.497587 36.25 97.59375 z M 109.40625 97.6875 C 109.66087 97.86064 110.10473 98.420053 110.375 98.625 L 110.4375 99.25 C 110.14453 99.005348 109.73701 98.438627 109.5 98.34375 L 109.40625 97.6875 z M 109.1875 97.71875 L 109.25 98.4375 C 108.70411 98.837108 108.16756 99.239904 107.625 99.625 C 105.6576 100.79879 105.84951 100.97305 104.15625 102.15625 C 104.03219 101.77304 103.8594 101.42477 103.71875 101.0625 C 105.65479 99.904208 107.56765 98.860263 109.1875 97.71875 z M 50.5625 108.0625 C 60.328681 109.4493 69.775342 109.19736 75.3125 108.09375 L 76.09375 108.65625 C 76.092858 108.75293 76.094057 108.83986 76.09375 108.9375 C 72.957499 109.23532 67.370428 109.5 64.09375 109.5 C 59.430325 109.5 54.925238 109.57568 50.53125 108.96875 C 50.208726 108.9242 49.482288 111.12395 49.25 111.5625 C 49.207778 111.55623 49.162688 111.52882 49.125 111.5 L 49.1875 109.5 C 49.605744 109.27662 50.186797 108.00916 50.5625 108.0625 z M 48.125 108.46875 C 48.501253 108.53066 48.613697 109.29648 48.9375 109.5 L 49 111.375 C 48.668759 110.88768 48.506614 109.63052 48.09375 109.5625 C 48.083528 109.56791 48.073002 109.58712 48.0625 109.59375 C 48.066881 109.23724 48.111638 108.83264 48.125 108.46875 z M 48.03125 108.5 C 47.980163 108.9119 47.89009 109.38155 47.875 109.75 C 47.598902 110.02981 47.270578 110.50023 47.03125 110.625 C 46.983766 110.59128 46.923899 110.53663 46.875 110.46875 L 46.9375 109.28125 C 46.946226 109.29642 46.960256 109.32956 46.96875 109.34375 C 47.202756 109.00105 47.666219 108.52656 48.03125 108.5 z M 49.1875 112.03125 L 50.9375 113.8125 L 50.1875 120.46875 L 50.4375 120.46875 L 50.96875 116.96875 C 52.141733 117.89484 53.982897 118.40438 55.1875 119.1875 L 55.3125 121.625 L 55.375 121.625 L 55.4375 119 L 51.03125 116.5625 L 51.5 113.4375 L 49.1875 112.03125 z "
       id="path2308" />
  </g>
</svg>
