<?xml version="1.0" encoding="UTF-8" standalone="no"?>
<!-- Created with Inkscape (http://www.inkscape.org/) -->
<svg
   xmlns:dc="http://purl.org/dc/elements/1.1/"
   xmlns:cc="http://creativecommons.org/ns#"
   xmlns:rdf="http://www.w3.org/1999/02/22-rdf-syntax-ns#"
   xmlns:svg="http://www.w3.org/2000/svg"
   xmlns="http://www.w3.org/2000/svg"
   xmlns:xlink="http://www.w3.org/1999/xlink"
   xmlns:sodipodi="http://sodipodi.sourceforge.net/DTD/sodipodi-0.dtd"
   xmlns:inkscape="http://www.inkscape.org/namespaces/inkscape"
   width="128"
   height="128"
   id="svg2"
   sodipodi:version="0.32"
   inkscape:version="0.45+devel"
   version="1.0"
   sodipodi:docname="pond_outline.svg"
   inkscape:output_extension="org.inkscape.output.svg.inkscape">
  <defs
     id="defs4">
    <filter
       height="1.42432"
       y="-0.21216"
       width="1.2179726"
       x="-0.1089863"
       id="filter2892"
       inkscape:collect="always">
      <feGaussianBlur
         id="feGaussianBlur2894"
         stdDeviation="0.72146876"
         inkscape:collect="always" />
    </filter>
    <radialGradient
       r="8.2519293"
       fy="222.04396"
       fx="14.207293"
       cy="222.04396"
       cx="14.207293"
       gradientTransform="scale(1.39523,0.716728)"
       gradientUnits="userSpaceOnUse"
       id="radialGradient1968"
       xlink:href="#linearGradient2057"
       inkscape:collect="always" />
    <linearGradient
       inkscape:collect="always"
       id="linearGradient2057">
      <stop
         style="stop-color:#000000;stop-opacity:1;"
         offset="0"
         id="stop2059" />
      <stop
         style="stop-color:#000000;stop-opacity:0;"
         offset="1"
         id="stop2061" />
    </linearGradient>
  </defs>
  <sodipodi:namedview
     id="base"
     pagecolor="#ffffff"
     bordercolor="#666666"
     borderopacity="1.0"
     gridtolerance="10000"
     guidetolerance="10"
     objecttolerance="10"
     inkscape:pageopacity="0.0"
     inkscape:pageshadow="2"
     inkscape:zoom="1"
     inkscape:cx="64"
     inkscape:cy="64"
     inkscape:document-units="px"
     inkscape:current-layer="layer1"
     showgrid="false"
     width="744.09px"
     inkscape:window-width="1248"
     inkscape:window-height="975"
     inkscape:window-x="426"
     inkscape:window-y="24" />
  <metadata
     id="metadata7">
    <rdf:RDF>
      <cc:Work
         rdf:about="">
        <dc:format>image/svg+xml</dc:format>
        <dc:type
           rdf:resource="http://purl.org/dc/dcmitype/StillImage" />
      </cc:Work>
    </rdf:RDF>
  </metadata>
  <g
     inkscape:label="Layer 1"
     inkscape:groupmode="layer"
     id="layer1">
    <path
       style="fill:#5c2700;fill-opacity:1;fill-rule:evenodd;stroke:none;stroke-width:1px;stroke-linecap:butt;stroke-linejoin:miter;stroke-opacity:1"
       d="M 41.03125 27.5 C 35.588631 27.423744 28.726388 28.87941 19.3125 33.625 C 18.494502 34.040485 17.69668 34.50392 16.90625 35 C 11.580643 36.360791 7.2378254 40.203587 5.53125 45.09375 L 5.46875 45.15625 C 5.3940567 45.6419 5.1435407 46.543211 5 47.15625 C 4.9505651 47.695297 4.9334744 48.232822 4.9375 48.75 C 3.6060296 57.840509 9.1348171 63.358322 16.03125 68.21875 C 23.315258 73.109166 32.494292 77.143861 39.375 81.8125 C 43.55076 87.123769 46.997205 92.961551 51.03125 98.375 C 54.949513 103.28709 60.449562 107.60418 74.09375 111.9375 C 80.522514 113.2933 86.699738 113.54468 92.40625 112.875 L 92.65625 112.90625 L 92.65625 112.84375 C 109.03417 110.84036 121.48555 101.26081 124.90625 88.5625 C 125.58833 86.708906 126.09766 84.790024 126.375 82.8125 C 126.16165 81.627187 125.56729 80.567535 124.8125 79.59375 L 124.71875 79.34375 L 124.65625 79.375 C 123.72463 78.228266 122.56732 77.249083 121.46875 76.375 L 121.46875 75.8125 L 121.4375 75.875 C 121.45372 74.447656 121.21977 72.967082 120.71875 71.40625 C 118.33925 65.456718 111.63436 60.649144 103.6875 55.96875 C 98.829297 53.107458 93.484769 50.309272 88.28125 47.84375 C 88.229741 47.819344 88.176475 47.805595 88.125 47.78125 L 88.5 47.03125 L 88.25 45.25 L 77.1875 40.09375 L 75.3125 40.5625 L 74.71875 41.75 L 74 41.78125 C 70.146374 40.336227 66.251684 38.96966 62.5 37.28125 C 56.574894 32.985001 50.776202 28.503373 43.28125 27.625 C 42.557671 27.557377 41.808767 27.510894 41.03125 27.5 z M 40.28125 28.15625 C 41.319496 28.144297 42.366771 28.174744 43.40625 28.25 L 43.96875 29.90625 C 42.764421 29.711753 41.524204 29.574628 40.21875 29.5625 C 39.625615 29.556989 39.023414 29.558199 38.40625 29.59375 C 37.074771 29.869883 35.340956 30.261545 33.5 30.6875 L 33.5 30.5625 L 31.0625 29.5 C 34.075773 28.625212 37.166511 28.19211 40.28125 28.15625 z M 43.96875 28.3125 C 48.621372 28.750981 52.474396 31.052067 56.1875 33.625 L 55.28125 34.53125 C 51.880591 32.331487 48.375225 30.684567 44.375 29.96875 L 43.96875 28.3125 z M 30.40625 29.71875 L 32.8125 30.84375 C 29.718599 31.580932 26.28848 32.537951 23.0625 33.90625 L 21.03125 33.375 C 24.483225 31.71632 27.595998 30.530741 30.40625 29.71875 z M 42 30 C 42.6693 30.024075 43.329096 30.088823 43.96875 30.1875 L 43.84375 32.6875 C 41.417671 32.663342 39.020539 33.213976 36.59375 33.53125 C 35.646732 33.655061 34.71918 33.737412 33.78125 33.8125 L 33.5625 31.15625 C 35.385681 30.759992 37.078291 30.457956 38.46875 30.25 C 39.6969 30.045299 40.870062 29.959356 42 30 z M 44.40625 30.28125 C 48.390128 31.003003 51.832932 33.059429 55.21875 35.40625 L 55.1875 36.71875 C 52.003296 35.122013 48.700562 33.363914 45.15625 32.75 C 44.9202 32.725305 44.672632 32.730652 44.4375 32.71875 L 44.40625 30.28125 z M 33 31.28125 L 33.125 33.875 C 31.885532 33.990446 30.652365 34.136497 29.4375 34.5625 C 27.504431 35.240347 25.651123 36.390439 23.8125 37.375 L 23.78125 34.15625 C 26.804969 32.872933 30.059754 31.94494 33 31.28125 z M 42.34375 33.03125 C 43.000937 33.009713 43.663719 33.047555 44.34375 33.125 C 44.562959 33.099056 44.755265 33.095323 44.96875 33.125 C 48.90771 34.449899 53.167685 35.798792 56.65625 38.125 C 59.074394 40.011304 60.605976 42.547 62.65625 43.59375 C 64.516876 43.924611 66.26093 44.492235 67.96875 45.15625 L 67.5625 46.5 L 65.4375 46.78125 L 64.1875 48.71875 L 62.625 48.90625 L 61.375 50.59375 L 59.28125 51.0625 L 58 52.8125 L 55.71875 52.71875 L 54.21875 55.3125 L 52.3125 55.28125 L 50.8125 57.59375 L 50.875 59.96875 L 60.6875 66.125 L 63.3125 65.5625 L 64.15625 63.75 L 67 63.03125 L 67.65625 61.375 L 70.5625 60.5 L 70.96875 59.0625 L 73.71875 58.25 C 73.727066 57.681946 73.788088 57.159264 74.15625 56.90625 L 76.6875 56.1875 L 77.40625 54.65625 L 79.53125 54.1875 L 80.09375 52.8125 L 82.15625 52.4375 L 82.59375 51.09375 L 83.8125 50.875 C 84.064996 50.96063 84.313982 51.059201 84.5625 51.15625 C 88.920598 53.938712 93.881912 55.400413 98.53125 57.5625 C 106.30048 62.131389 113.59758 66.188477 118.15625 74.5 C 118.6134 80.090093 113.93913 84.632702 109.5 87.96875 C 92.138212 98.479422 79.281935 101.92141 64.75 91.8125 C 58.205421 85.921577 51.059577 75.060012 47.3125 70 C 44.067331 67.919343 40.479828 66.491788 37 64.875 C 28.969092 60.361015 17.490693 56.00759 13.5625 46.875 C 14.83577 41.967413 18.32137 40.500003 22.4375 38.84375 C 25.02037 37.584573 27.325712 35.943614 29.5625 35.15625 C 31.064046 34.627694 32.470161 34.455047 33.8125 34.34375 C 34.7675 34.264568 35.6893 34.21424 36.59375 34.125 C 38.483815 33.571155 40.372191 33.095861 42.34375 33.03125 z M 20.28125 33.71875 L 22.46875 34.15625 C 19.39023 35.522499 16.634759 37.232586 14.8125 39.4375 L 13.25 38.875 C 15.195966 36.641417 17.712555 35.111596 20.28125 33.71875 z M 56.65625 33.96875 C 58.47591 35.2427 60.274421 36.541586 62.125 37.71875 C 63.385289 38.278126 64.677255 38.794952 65.96875 39.3125 L 64.5 40.6875 C 61.227569 39.395639 58.646797 36.84646 55.75 34.875 L 56.65625 33.96875 z M 23.125 34.4375 L 23.40625 37.5625 C 22.998912 37.774822 22.594846 38.002643 22.1875 38.1875 C 19.213504 39.086704 16.96349 40.395007 15.03125 42.8125 L 15.09375 40.21875 C 16.92254 37.788429 19.852 35.901121 23.125 34.4375 z M 16.4375 35.28125 C 12.889771 37.345237 11.035027 40.434047 10 44.1875 L 5.96875 44.78125 C 7.5754548 40.251427 11.841461 36.773079 16.4375 35.28125 z M 55.6875 35.71875 C 58.471243 37.756097 61.187238 39.825734 64.375 41.15625 L 64.375 43.65625 C 63.894435 43.482727 63.419692 43.282533 62.9375 43.0625 C 61.104275 42.126563 59.350168 39.748517 56.875 37.8125 C 56.48966 37.511097 56.082172 37.23504 55.65625 36.96875 L 55.6875 35.71875 z M 12.9375 39.25 L 14.59375 39.6875 C 13.172491 41.510961 12.386058 43.664576 12.59375 46.1875 C 13.201237 47.898211 14.06353 49.440833 15.09375 50.875 L 13.375 51.625 C 12.112221 50.014895 11.10293 48.234141 10.46875 46.25 C 10.208073 43.58651 11.283867 41.235681 12.9375 39.25 z M 66.5 39.53125 C 68.643576 40.380993 70.807103 41.187355 72.96875 42 L 72.5 43.21875 C 72.095655 43.206599 71.764736 43.25959 71.46875 43.3125 C 69.314335 42.539135 67.158924 41.754639 65.03125 40.90625 L 66.5 39.53125 z M 77.4375 40.71875 L 87.1875 45.28125 L 86.46875 46.90625 L 84.96875 46.71875 L 75.375 42.03125 L 75.625 40.78125 L 77.4375 40.71875 z M 14.65625 40.875 L 14.53125 43.53125 C 13.960942 44.480612 13.579528 45.426162 13.3125 46.28125 C 13.248151 46.114065 13.184285 45.951585 13.125 45.78125 C 13.150216 43.952513 13.721489 42.323395 14.65625 40.875 z M 64.96875 41.40625 C 66.824714 42.175342 68.69265 42.931482 70.5625 43.65625 C 70.141514 44.031694 70.152473 44.578638 69.8125 45 L 68.78125 45.0625 C 67.485583 44.63579 66.181831 44.226481 64.875 43.8125 L 64.9375 43.78125 L 64.96875 41.40625 z M 73.34375 42.1875 L 75.09375 42.25 L 84.59375 46.96875 L 83.625 48.6875 L 82.03125 48.65625 L 73 43.65625 L 73.34375 42.1875 z M 70.90625 43.8125 L 72.65625 43.84375 L 81.71875 48.84375 L 81.34375 50.6875 L 79.53125 50.28125 L 79.53125 50.25 L 70.28125 45.4375 L 70.90625 43.8125 z M 9.96875 44.5 C 9.9102978 45.021206 9.8677612 45.561457 9.90625 46.125 L 9.875 49.75 C 9.6979265 51.886721 10.587379 53.948614 12.34375 56 L 8.03125 56.9375 C 6.371212 54.217719 5.3287979 51.063078 5.34375 47.28125 C 5.4329148 46.530416 5.6160401 45.79889 5.84375 45.09375 L 9.96875 44.5 z M 68.375 45.4375 L 70 45.625 L 79.21875 50.53125 L 78.84375 52.25 L 76.9375 52.03125 L 68 46.90625 L 68.375 45.4375 z M 87.65625 45.625 L 87.875 46.8125 L 87.28125 48.53125 L 85.0625 48.71875 L 85 47.375 L 86.75 47.40625 L 87.65625 45.625 z M 43.375 46.6875 C 42.309301 46.623275 41.176487 47.092973 39.84375 48.0625 L 40.15625 48.3125 C 42.467977 46.842541 44.340335 47.029125 46.375 48.71875 L 46.59375 48.46875 C 45.453529 47.33915 44.440699 46.751725 43.375 46.6875 z M 65.75 46.96875 L 67.53125 47.21875 L 76.65625 52.1875 L 75.8125 54.1875 L 73.5 54.28125 L 64.75 49.09375 L 65.75 46.96875 z M 10.46875 47.59375 C 11.122198 49.162305 11.990044 50.598647 13 51.9375 L 12.96875 55.875 C 11.233794 53.730914 10.385165 51.481545 10.53125 49.71875 L 10.46875 47.59375 z M 84.59375 47.65625 L 84.65625 49.03125 L 84.40625 50.34375 L 82.4375 50.53125 L 82.15625 49.3125 L 83.875 49.0625 L 84.59375 47.65625 z M 36.21875 47.78125 C 35.775851 47.860771 35.295783 48.409333 35.125 49.1875 L 33.59375 50.125 L 33.5 50.5 L 35.15625 50.90625 L 35.28125 52.75 C 37.682692 52.951925 39.856917 53.835498 42.6875 52.75 C 44.186281 51.508089 44.88657 50.106481 44.71875 48.53125 L 42.90625 50 C 41.381472 50.300148 39.905205 50.778626 38.0625 50.125 L 37.125 49.21875 C 37.06738 48.09125 36.661649 47.701729 36.21875 47.78125 z M 88.28125 48.375 C 91.799759 50.037831 95.341607 51.859469 98.78125 53.75 L 97.84375 54.4375 C 94.35769 52.642295 90.731952 50.935861 87.15625 49.40625 L 88.28125 48.375 z M 87.03125 48.9375 L 86.71875 49.21875 C 86.604917 49.170345 86.488534 49.136166 86.375 49.09375 L 87.03125 48.9375 z M 36.125 49.0625 C 37.096889 49.514331 37.14296 50.706118 37.03125 50.6875 C 37.666667 51.637761 38.302083 51.359604 38.9375 51.5625 C 40.750262 51.896292 42.101529 51.422467 43.25 50.59375 L 42.3125 52.125 C 40.383018 52.254043 38.297938 52.668897 36.21875 51.75 L 36.09375 50.09375 L 34.96875 50.09375 C 35.234897 50.120352 36.394476 49.792022 36.125 49.0625 z M 63 49.125 L 64.5 49.25 L 73.09375 54.5625 L 72.4375 56.125 L 70.25 56.40625 L 61.9375 50.9375 L 63 49.125 z M 85.1875 49.375 C 85.645313 49.565026 86.095935 49.742824 86.5625 49.9375 L 86.5625 51.65625 C 86.021271 51.359297 85.482328 51.094807 84.9375 50.875 C 84.823284 50.82892 84.707456 50.792946 84.59375 50.75 L 85.03125 49.40625 L 85.1875 49.375 z M 81.84375 49.5 L 82.0625 50.8125 L 81.8125 52.03125 L 80 52.1875 L 79.71875 50.9375 L 81.5625 50.96875 L 81.84375 49.5 z M 87.0625 50.125 C 90.652397 51.632581 94.311629 53.289595 97.78125 55.0625 L 97.84375 56.90625 C 94.065144 55.566414 90.474038 53.976447 87.03125 51.9375 L 87.0625 50.125 z M 5.09375 50.65625 C 5.435308 53.140915 6.3755387 55.36463 7.71875 57.375 L 7.4375 59.09375 C 6.0251343 56.616765 5.1863146 53.819632 5.09375 50.65625 z M 15.21875 51.0625 C 17.426659 54.067902 20.44331 56.520435 23.75 58.625 L 22.40625 59.28125 C 19.359415 57.888243 16.138698 54.687877 13.65625 51.9375 L 15.21875 51.0625 z M 61.53125 51.15625 L 69.96875 56.625 L 69.21875 58.15625 L 67.25 58.40625 L 67.21875 58.34375 L 58.6875 53.0625 L 59.5625 51.5625 L 61.53125 51.15625 z M 79.34375 51.1875 L 79.625 52.46875 C 79.632041 53.219386 79.528288 53.654367 79.25 53.875 C 78.83973 54.200271 78.096526 54.108844 77.34375 54.03125 L 77.1875 52.625 L 79.21875 52.59375 L 79.34375 51.1875 z M 13.46875 52.5625 C 15.8758 55.534128 19.047265 57.975725 22.46875 60.09375 L 22.34375 63.0625 C 19.65957 61.4477 17.066396 59.682924 14.625 57.65625 C 14.149098 57.225397 13.738932 56.764339 13.34375 56.3125 L 13.46875 52.5625 z M 76.84375 52.875 L 76.96875 54.28125 C 76.524735 54.478021 76.745644 55.389459 76.3125 55.75 L 74.0625 56.25 L 73.9375 54.84375 L 75.90625 54.5 L 76.84375 52.875 z M 56.0625 53.1875 L 58.28125 53.34375 L 66.71875 58.75 L 65.6875 60.4375 L 63.6875 60.75 L 54.875 55.5625 L 56.0625 53.1875 z M 99.21875 53.96875 C 103.44209 56.254813 107.5155 58.797749 111.375 61.65625 L 110.5625 62.34375 C 108.00024 60.314997 105.02766 58.384713 101.8125 56.5625 C 100.66281 55.910905 99.480429 55.279701 98.28125 54.65625 L 99.21875 53.96875 z M 36 54.65625 L 35.78125 55 C 37.922788 57.398323 40.271285 57.350406 42.71875 55.21875 L 42.4375 55.15625 C 40.044509 56.282168 37.937439 56.50628 36 54.65625 z M 73.34375 55.21875 L 73.625 56.5625 L 73.34375 57.875 L 71.03125 58.34375 L 70.84375 56.90625 L 72.71875 56.46875 L 73.34375 55.21875 z M 98.3125 55.34375 C 99.421898 55.918085 100.5027 56.493099 101.5625 57.09375 C 104.84661 58.955046 107.83087 60.972069 110.375 63.0625 L 110.375 64.75 C 106.50164 62.240577 102.7831 59.479288 98.71875 57.28125 C 98.646713 57.24539 98.572342 57.222553 98.5 57.1875 L 98.3125 55.34375 z M 52.59375 55.71875 L 54.53125 55.8125 L 63.125 61.125 L 62.375 62.9375 L 60.84375 62.625 L 51.9375 57.5 L 52.59375 55.71875 z M 47.5 56.4375 C 45.662619 59.513267 41.447631 59.146313 38.375 58.65625 L 38.21875 58.875 C 41.731148 60.39816 46.116393 60.227542 47.71875 56.46875 L 47.5 56.4375 z M 12.78125 56.5 C 13.209453 56.964009 13.674128 57.410223 14.1875 57.875 C 16.607983 59.990457 19.21372 61.840138 21.90625 63.53125 L 17.5625 66.0625 C 17.45653 66.001581 17.356034 65.935947 17.25 65.875 C 13.725968 63.522951 10.421251 60.726982 8.1875 57.1875 L 12.78125 56.5 z M 70.375 57.21875 L 70.65625 58.625 L 70.125 60.125 L 67.5 60.78125 L 67.3125 59.28125 L 69.59375 58.5 L 70.375 57.21875 z M 8.03125 57.8125 C 10.31971 61.048559 13.592169 63.744711 16.9375 66.09375 C 17.05621 66.173451 17.192815 66.233225 17.3125 66.3125 L 17.03125 68.28125 C 13.19999 66.12754 10.115168 63.07647 7.65625 59.46875 L 8.03125 57.8125 z M 51.40625 57.9375 L 60.28125 63.15625 L 60.4375 65.34375 L 51.34375 59.8125 L 51.40625 57.9375 z M 24.15625 58.875 C 27.5708 61.005598 31.235835 62.768647 34.65625 64.4375 L 33.21875 65.0625 C 30.025957 63.297193 26.425468 61.531319 22.96875 59.46875 L 24.15625 58.875 z M 66.96875 59.53125 L 67.15625 60.96875 L 66.5 62.53125 L 64 63.125 L 63.90625 61.5625 L 66.125 60.90625 L 66.96875 59.53125 z M 22.875 60.34375 C 26.247575 62.395997 29.820122 64.128533 33.125 65.78125 L 33.09375 68.875 C 29.633387 67.100967 26.179754 65.321402 22.84375 63.34375 L 22.875 60.34375 z M 111.6875 61.875 C 115.72377 65.003568 118.85396 68.337581 120.21875 71.75 C 120.44877 72.355154 120.60007 72.944635 120.71875 73.53125 L 118.78125 73.84375 C 118.66542 73.001976 118.4673 72.140181 118.15625 71.25 C 116.84471 68.209044 114.28213 65.341662 110.96875 62.65625 L 110.96875 62.59375 L 111.6875 61.875 z M 63.28125 62 L 63.46875 63.5 L 63.09375 65.1875 L 60.9375 65.25 L 60.84375 63.5 L 62.90625 63.28125 L 63.28125 62 z M 110.96875 63.5625 C 113.97354 66.123096 116.27949 68.783765 117.4375 71.46875 C 117.75348 72.244166 117.94136 73.009442 118.0625 73.75 C 116.32666 70.336094 113.95813 67.492625 110.9375 65.1875 L 110.96875 63.5625 z M 22.4375 63.875 C 25.751473 65.921029 29.208941 67.743717 32.6875 69.53125 L 29.75 73.09375 C 25.829898 70.796581 21.883276 68.536675 17.90625 66.25 L 22.4375 63.875 z M 96.0625 63.90625 L 96 64.125 C 101.70177 65.263395 105.88176 67.549148 106.25 73.75 L 106.375 73.9375 C 106.99796 66.539522 101.79723 65.401567 96.0625 63.90625 z M 85.3125 64.03125 C 82.250097 64.060897 79.462172 65.169719 78.65625 68.25 C 79.23843 71.444864 82.433176 72.294587 85.3125 72.4375 C 87.500966 72.461912 89.469745 71.983979 91.28125 70.8125 L 86 67.78125 L 92 68.25 C 91.417824 65.055129 88.191824 64.174163 85.3125 64.03125 z M 85.5 64.3125 C 87.985301 64.402761 90.61586 65.694737 91.53125 68.15625 L 84.53125 67.375 L 90.28125 70.6875 C 88.95792 71.630383 86.962895 71.693786 85.3125 71.8125 C 82.700268 71.698959 79.801467 70.86548 79.09375 68.15625 C 79.614715 65.309724 83.035451 64.558976 85.5 64.3125 z M 35.03125 64.625 C 35.573991 64.890185 36.130964 65.176649 36.65625 65.4375 C 39.888293 67.072796 43.264913 68.449233 46.375 70.3125 L 44.8125 71.0625 C 41.958972 68.945632 38.393836 67.679719 35.15625 66.15625 C 34.697513 65.883925 34.171743 65.615343 33.6875 65.34375 L 33.6875 65.28125 L 35.03125 64.625 z M 33.65625 66.0625 C 34.026606 66.248366 34.419526 66.441114 34.78125 66.625 C 38.154755 68.291159 41.657823 69.565147 44.53125 71.71875 L 44.25 75 C 40.769395 72.823071 37.118614 70.934976 33.46875 69.0625 L 33.5 69.03125 L 33.65625 66.0625 z M 17.65625 66.5625 C 21.385923 69.001575 25.543909 71.239807 29.625 73.46875 L 29.5625 75.625 C 25.434139 73.309663 21.248143 70.989339 17.5 68.59375 L 17.65625 66.5625 z M 75.5 67.34375 L 75.1875 67.375 C 72.614036 70.084608 73.299581 73.244722 76.78125 73.96875 L 76.96875 73.75 C 74.288865 73.192706 73.413186 69.540961 75.5 67.34375 z M 32.96875 69.65625 C 36.698552 71.57079 40.421139 73.465543 44.03125 75.5625 L 40.625 79.6875 C 40.602417 79.646643 40.585036 79.603379 40.5625 79.5625 C 37.007126 77.397864 33.488786 75.269547 29.9375 73.1875 L 32.96875 69.65625 z M 96.0625 70.09375 C 93.665325 70.122716 92.121877 70.922649 91.28125 73.0625 C 92.307831 76.605799 96.489226 76.287034 99.375 75.21875 C 101.66577 73.608236 100.72558 71.843632 98.71875 70.59375 L 95.78125 73.03125 L 96.0625 70.09375 z M 95.8125 70.40625 L 95.5625 73.75 L 98.71875 70.9375 C 100.57083 71.972538 100.85025 73.958488 98.90625 74.71875 C 96.484453 75.861021 92.419389 75.900875 91.875 72.71875 C 92.308149 70.978813 94.204174 70.634643 95.8125 70.40625 z M 46.71875 70.5 C 46.750891 70.519769 46.780421 70.542616 46.8125 70.5625 C 49.154925 73.728799 51.333905 76.951333 53.625 80.09375 L 52.125 80.75 C 50.893966 78.919553 49.725198 77.076015 48.5625 75.25 C 47.7035 73.692748 46.57712 72.474341 45.28125 71.4375 L 46.71875 70.5 z M 45 72.09375 C 46.152507 73.019666 47.188028 74.114612 48.0625 75.4375 C 49.237767 77.434444 50.465454 79.374518 51.75 81.28125 L 51.625 84.1875 C 49.767015 81.402628 48.408174 78.610819 46.03125 76.15625 C 45.560989 75.842386 45.101945 75.520844 44.625 75.21875 L 45 72.09375 z M 29.75 73.53125 C 33.509965 75.585468 37.191007 77.640457 40.375 79.8125 C 40.418273 79.887372 40.45687 79.956758 40.5 80.03125 L 40.0625 82.25 C 39.939002 82.07179 39.810998 81.89696 39.6875 81.71875 C 36.769983 79.728492 33.400484 77.772241 29.96875 75.84375 L 29.75 73.53125 z M 120.8125 74.28125 C 120.88308 74.820592 120.89912 75.36567 120.9375 75.90625 C 120.78773 80.649767 117.3181 84.690568 113.53125 87.9375 L 112.5 86.78125 C 116.48042 83.537283 119.27818 79.415392 118.84375 74.4375 L 120.8125 74.28125 z M 44.375 75.75 C 44.760616 75.975971 45.149096 76.206194 45.53125 76.4375 C 47.868969 79.110694 49.55833 82.322306 51.46875 85.3125 C 51.488434 85.34506 51.51152 85.373748 51.53125 85.40625 L 47.4375 90.3125 C 45.010228 87.051252 42.827732 83.592929 40.84375 80.03125 L 40.875 79.875 L 44.375 75.75 z M 121.46875 76.65625 C 122.54872 77.398944 123.57894 78.351268 124.375 79.4375 L 121.5 80.15625 L 121.46875 76.65625 z M 98.875 78.6875 C 94.763164 81.249654 90.627051 81.454023 86.375 79.3125 L 86.125 79.40625 C 90.844108 82.869121 94.938462 81.183872 99.375 78.84375 L 98.875 78.6875 z M 121.03125 78.8125 L 120.84375 82.03125 C 120.38198 85.256688 118.1789 88.696249 113.875 92.21875 L 113.8125 88.875 C 117.29228 86.105216 120.05929 82.74483 121.03125 78.8125 z M 124.625 79.8125 C 125.30474 80.819553 125.79688 81.893363 125.96875 82.90625 C 125.11637 87.856561 123.09069 92.367764 120.15625 96.28125 L 114 92.9375 C 118.58271 89.257922 120.98144 85.622118 121.5 82 L 121.5 80.34375 L 124.625 79.8125 z M 40.71875 80.40625 C 42.973569 84.288047 45.063278 87.666949 47.15625 90.625 L 47.21875 92.5625 C 44.87757 89.184134 42.528679 85.815866 40.1875 82.4375 L 40.71875 80.40625 z M 53.9375 80.5 C 56.624609 84.162198 59.449893 87.70547 62.8125 90.875 L 61.15625 91.9375 C 57.841823 88.717821 55.01097 84.969721 52.40625 81.125 L 53.9375 80.5 z M 52.125 81.8125 C 54.732559 85.627258 57.593703 89.225183 60.875 92.5 L 60.84375 96.125 C 57.412887 92.906775 54.47537 89.044964 52.0625 84.875 C 52.059137 84.870218 52.034609 84.879783 52.03125 84.875 L 52.03125 84.84375 L 52.125 81.8125 z M 51.5625 85.4375 C 54.1792 89.74133 57.194274 93.538983 60.65625 96.65625 L 57.59375 101.0625 C 53.752586 97.966424 50.437905 94.341063 47.5 90.40625 L 51.5625 85.4375 z M 112.09375 87.09375 L 113.15625 88.25 C 112.46891 88.827071 111.77751 89.382809 111.09375 89.90625 C 108.31952 91.785399 105.47212 93.530989 102.59375 95.03125 L 101.0625 93.53125 C 104.13591 92.063469 107.1462 90.375413 110.0625 88.5625 C 110.76154 88.095424 111.44246 87.605387 112.09375 87.09375 z M 113.40625 89.1875 L 113.59375 92.46875 C 112.97028 92.968263 112.3037 93.466672 111.59375 93.96875 C 108.57053 96.106777 105.69129 97.875111 102.9375 99.34375 L 102.875 95.53125 C 105.96097 93.945075 108.99502 92.161194 111.90625 90.28125 C 112.41982 89.925348 112.91595 89.565625 113.40625 89.1875 z M 124.25 90.25 C 123.30378 92.70057 122.02089 94.99306 120.5 97.125 L 120.375 96.65625 C 121.92422 94.655724 123.25008 92.516036 124.25 90.25 z M 47.3125 90.84375 C 50.402389 95.178232 53.557524 98.62717 57.46875 101.59375 L 57.59375 104.15625 C 54.868769 102.3278 52.903491 100.46328 51.3125 98.46875 C 50.016721 96.598916 48.702029 94.744834 47.40625 92.875 L 47.40625 92.84375 L 47.3125 90.84375 z M 63.0625 91.09375 C 63.409914 91.416975 63.765814 91.747336 64.125 92.0625 C 68.266678 95.353421 72.55292 97.233068 76.90625 98.03125 L 75.03125 99.78125 C 71.396924 98.862422 67.782314 97.200337 64.21875 94.65625 C 63.297553 93.92564 62.41508 93.150799 61.5625 92.34375 L 63.0625 91.09375 z M 61.375 93 C 62.066189 93.674132 62.771412 94.35546 63.5 95 C 67.148227 97.891676 70.913347 99.694019 74.71875 100.65625 L 74.625 104.09375 C 69.561914 102.70616 65.134865 100.03357 61.3125 96.5625 L 61.375 93 z M 113.75 93.125 L 119.96875 96.5 C 117.12672 100.22222 113.45527 103.40969 109.15625 105.84375 L 103.375 99.875 C 106.10019 98.400814 108.933 96.633937 111.90625 94.53125 C 112.56273 94.066988 113.16371 93.588351 113.75 93.125 z M 100.5625 93.78125 L 102.15625 95.25 C 98.37741 97.185442 94.53967 98.719804 90.65625 99.65625 L 89.84375 97.5625 C 93.456416 96.742748 97.049511 95.425225 100.5625 93.78125 z M 102.375 95.78125 L 102.375 99.65625 C 98.289163 101.78493 94.4866 103.22574 90.96875 104.09375 L 90.9375 103.96875 L 90.78125 100.3125 C 94.711267 99.299323 98.583759 97.696514 102.375 95.78125 z M 120.15625 96.96875 L 120.21875 97.5 C 117.3812 101.3588 113.68861 104.65381 109.3125 107.1875 L 109.21875 106.15625 C 113.56497 103.71869 117.27843 100.59679 120.15625 96.96875 z M 61.09375 97 C 65.013718 100.43318 69.468818 102.99849 74.5625 104.5 L 73.5625 109.46875 C 67.430918 107.66306 62.241596 104.77797 57.75 101.1875 L 61.09375 97 z M 89.21875 97.71875 L 90 99.8125 C 85.229566 100.87814 80.410457 101.01193 75.625 99.90625 L 77.6875 98.125 C 81.508259 98.713904 85.38006 98.526041 89.21875 97.71875 z M 102.78125 100.1875 L 108.90625 105.96875 C 104.0648 108.66459 98.460876 110.42253 92.375 111.0625 L 91.125 104.8125 C 94.737501 103.89335 98.619788 102.38679 102.78125 100.1875 z M 90.15625 100.46875 L 90.25 104.25 C 87.702002 104.82919 85.293604 105.1205 83.03125 105.15625 C 80.234277 105.18879 77.591285 104.85979 75.09375 104.21875 L 75.1875 103.875 L 75.125 100.75 C 80.103248 101.92864 85.152718 101.68019 90.15625 100.46875 z M 57.75 101.78125 C 61.878663 104.86153 66.870721 107.43224 73.46875 109.875 L 73.46875 109.90625 L 73.53125 111.3125 C 66.336572 108.97191 61.402233 106.67957 57.8125 104.3125 L 57.75 101.78125 z M 75 104.65625 C 77.457987 105.34535 80.064918 105.80246 82.8125 105.96875 C 85.209727 105.93087 87.75403 105.63388 90.4375 105 L 92.09375 111.09375 C 86.804881 111.61786 81.16702 111.31553 75.375 109.96875 C 74.819154 109.82823 74.26 109.68855 73.71875 109.53125 L 75 104.65625 z M 109 106.28125 L 108.9375 107.375 C 104.15697 110.0765 98.618822 111.8858 92.625 112.625 L 92.4375 111.5 C 98.511712 110.79205 104.1386 108.96927 109 106.28125 z M 73.65625 109.96875 C 74.09781 110.13129 74.512454 110.27571 74.96875 110.4375 L 75 110.4375 L 75.03125 110.46875 C 80.944191 111.84364 86.726489 112.13169 92.15625 111.53125 L 92.28125 112.6875 C 86.623551 113.34395 80.580084 113.03657 74.375 111.59375 C 74.180066 111.53177 74.004228 111.46815 73.8125 111.40625 L 73.65625 109.96875 z "
       id="path2308" />
  </g>
</svg>
