<?xml version="1.0" encoding="UTF-8" standalone="no"?>
<!-- Created with Inkscape (http://www.inkscape.org/) -->
<svg
   xmlns:dc="http://purl.org/dc/elements/1.1/"
   xmlns:cc="http://creativecommons.org/ns#"
   xmlns:rdf="http://www.w3.org/1999/02/22-rdf-syntax-ns#"
   xmlns:svg="http://www.w3.org/2000/svg"
   xmlns="http://www.w3.org/2000/svg"
   xmlns:xlink="http://www.w3.org/1999/xlink"
   xmlns:sodipodi="http://sodipodi.sourceforge.net/DTD/sodipodi-0.dtd"
   xmlns:inkscape="http://www.inkscape.org/namespaces/inkscape"
   width="128"
   height="128"
   id="svg2"
   sodipodi:version="0.32"
   inkscape:version="0.45+devel"
   version="1.0"
   sodipodi:docname="pond.svg"
   inkscape:output_extension="org.inkscape.output.svg.inkscape">
  <defs
     id="defs4">
    <linearGradient
       id="linearGradient2954">
      <stop
         style="stop-color:#00a100;stop-opacity:1;"
         offset="0"
         id="stop2956" />
      <stop
         style="stop-color:#00f500;stop-opacity:1;"
         offset="1"
         id="stop2958" />
    </linearGradient>
    <linearGradient
       id="linearGradient2888">
      <stop
         style="stop-color:#007dff;stop-opacity:1;"
         offset="0"
         id="stop2890" />
      <stop
         style="stop-color:#58abff;stop-opacity:1;"
         offset="1"
         id="stop2892" />
    </linearGradient>
    <linearGradient
       inkscape:collect="always"
       xlink:href="#linearGradient2888"
       id="linearGradient2894"
       x1="24.462074"
       y1="50.577541"
       x2="117.29564"
       y2="76.385025"
       gradientUnits="userSpaceOnUse"
       gradientTransform="translate(0.8648649,0.172973)" />
    <linearGradient
       inkscape:collect="always"
       xlink:href="#linearGradient2954"
       id="linearGradient2960"
       x1="81.091766"
       y1="69.719109"
       x2="89.286568"
       y2="65.193626"
       gradientUnits="userSpaceOnUse"
       gradientTransform="translate(0.8648649,0.172973)" />
    <linearGradient
       inkscape:collect="always"
       xlink:href="#linearGradient2954"
       id="linearGradient2964"
       x1="91.549306"
       y1="73.082648"
       x2="100.60027"
       y2="73.082648"
       gradientUnits="userSpaceOnUse"
       gradientTransform="translate(0.8648649,0.172973)" />
    <linearGradient
       id="linearGradient2320">
      <stop
         id="stop2322"
         offset="0"
         style="stop-color:#6a3c1d;stop-opacity:1;" />
      <stop
         id="stop2324"
         offset="1"
         style="stop-color:#8f5127;stop-opacity:1;" />
    </linearGradient>
    <linearGradient
       id="linearGradient2338">
      <stop
         id="stop2340"
         offset="0"
         style="stop-color:#b1b1b1;stop-opacity:1;" />
      <stop
         id="stop2342"
         offset="1"
         style="stop-color:#e4e4e4;stop-opacity:1;" />
    </linearGradient>
    <linearGradient
       inkscape:collect="always"
       xlink:href="#linearGradient2320"
       id="linearGradient3029"
       x1="59.848648"
       y1="50.335136"
       x2="87.783784"
       y2="53.189189"
       gradientUnits="userSpaceOnUse"
       gradientTransform="translate(0.8648649,0.172973)" />
    <linearGradient
       inkscape:collect="always"
       xlink:href="#linearGradient2320"
       id="linearGradient3035"
       x1="74.162163"
       y1="60.454056"
       x2="72.475677"
       y2="56.302704"
       gradientUnits="userSpaceOnUse"
       gradientTransform="translate(0.8648649,0.172973)" />
    <linearGradient
       inkscape:collect="always"
       xlink:href="#linearGradient2338"
       id="linearGradient3039"
       x1="13.318919"
       y1="87.178375"
       x2="65.4972"
       y2="39.783783"
       gradientUnits="userSpaceOnUse"
       gradientTransform="translate(0.8648649,0.172973)" />
    <linearGradient
       inkscape:collect="always"
       xlink:href="#linearGradient2338"
       id="linearGradient3045"
       x1="45.75"
       y1="79.6875"
       x2="46.125"
       y2="65.9375"
       gradientUnits="userSpaceOnUse"
       gradientTransform="translate(0.8648649,0.172973)" />
    <linearGradient
       inkscape:collect="always"
       xlink:href="#linearGradient2338"
       id="linearGradient3051"
       x1="21.875"
       y1="96.5"
       x2="60"
       y2="30.125"
       gradientUnits="userSpaceOnUse"
       gradientTransform="translate(0.8648649,0.172973)" />
    <linearGradient
       inkscape:collect="always"
       xlink:href="#linearGradient2338"
       id="linearGradient3060"
       x1="52.244427"
       y1="46.718147"
       x2="56.503155"
       y2="6.2362823"
       gradientUnits="userSpaceOnUse"
       gradientTransform="translate(0.8648649,0.172973)" />
    <filter
       inkscape:collect="always"
       id="filter3178"
       x="-0.10495092"
       width="1.2099018"
       y="-0.15080326"
       height="1.3016065">
      <feGaussianBlur
         inkscape:collect="always"
         stdDeviation="1.144094"
         id="feGaussianBlur3180" />
    </filter>
    <filter
       inkscape:collect="always"
       id="filter3244"
       x="-0.17471145"
       width="1.3494229"
       y="-0.12435168"
       height="1.2487034">
      <feGaussianBlur
         inkscape:collect="always"
         stdDeviation="1.6400978"
         id="feGaussianBlur3246" />
    </filter>
  </defs>
  <sodipodi:namedview
     id="base"
     pagecolor="#ffffff"
     bordercolor="#666666"
     borderopacity="1.0"
     gridtolerance="10000"
     guidetolerance="10"
     objecttolerance="10"
     inkscape:pageopacity="0.0"
     inkscape:pageshadow="2"
     inkscape:zoom="1"
     inkscape:cx="208.06408"
     inkscape:cy="64"
     inkscape:document-units="px"
     inkscape:current-layer="layer2"
     showgrid="false"
     width="744.09px"
     inkscape:window-width="1248"
     inkscape:window-height="975"
     inkscape:window-x="426"
     inkscape:window-y="24" />
  <metadata
     id="metadata7">
    <rdf:RDF>
      <cc:Work
         rdf:about="">
        <dc:format>image/svg+xml</dc:format>
        <dc:type
           rdf:resource="http://purl.org/dc/dcmitype/StillImage" />
      </cc:Work>
    </rdf:RDF>
  </metadata>
  <g
     inkscape:groupmode="layer"
     id="layer2"
     inkscape:label="colors">
    <path
       style="fill:#000000;fill-opacity:0.42922375;fill-rule:evenodd;stroke:none;stroke-width:1px;stroke-linecap:butt;stroke-linejoin:miter;stroke-opacity:1;filter:url(#filter3244)"
       d="M 14.183784,36.151351 C 14.183784,36.151351 5.8810811,40.302703 5.0162162,40.821622 C 4.1513514,41.340541 1.5567568,49.124324 1.5567568,51.027027 C 1.5567568,52.92973 6.227027,63.135135 7.2648649,63.654054 C 8.3027027,64.172973 14.702703,67.805405 18.335135,67.805405 C 21.967568,67.805405 31.135135,41.686486 14.183784,36.151351 z"
       id="path3182" />
    <path
       style="fill:url(#linearGradient2894);fill-opacity:1;fill-rule:evenodd;stroke:none;stroke-width:1px;stroke-linecap:butt;stroke-linejoin:miter;stroke-opacity:1"
       d="M 38.047215,33.871684 L 31.931697,34.360925 L 28.140076,35.95096 L 23.736903,38.641788 L 18.966799,40.476443 L 16.03135,43.044961 L 14.074384,47.081203 L 15.664419,49.772031 L 20.434523,55.642928 L 28.629317,60.902274 L 37.191043,64.938516 L 47.587423,69.83093 L 50.155941,73.744862 C 50.155941,73.744862 58.350735,84.508174 59.084597,85.731277 C 59.81846,86.954381 64.588564,91.479864 64.588564,91.479864 L 73.272599,96.983831 L 81.834325,98.329245 L 88.072153,98.084624 L 97.612361,95.149175 L 108.86491,89.767519 L 114.85812,85.486657 L 119.13898,78.637276 L 119.3836,74.967965 L 116.32584,69.70862 L 112.16729,65.916999 C 108.88895,63.173379 104.96682,60.751658 101.03705,58.333756 L 94.676913,55.520618 L 86.726739,51.851307 L 85.259015,50.995134 L 70.704082,45.491168 L 67.157081,44.512685 L 65.689357,44.023444 L 63.732391,43.534202 L 59.81846,39.987202 L 56.271459,37.296374 L 49.422079,34.238615 L 45.997389,33.137822 L 42.93963,33.137822 L 38.047215,33.871684 z"
       id="path2309"
       sodipodi:nodetypes="cccccccccccccsccccccccccccccccccccccccc" />
    <path
       style="fill:#000000;fill-opacity:0.78995439;fill-rule:evenodd;stroke:none;stroke-width:1px;stroke-linecap:butt;stroke-linejoin:miter;stroke-opacity:1;filter:url(#filter3178)"
       d="M 60.615388,65.417246 L 49.30168,59.937169 L 51.246223,55.164198 L 54.958534,53.396431 L 56.019194,51.982217 C 56.019194,51.982217 61.145718,52.512547 61.852825,50.568004 C 62.559932,48.62346 64.681252,48.269907 64.681252,48.269907 L 69.100669,47.209246 L 75.464631,53.042877 L 60.615388,65.417246 z"
       id="path3064" />
    <path
       style="fill:url(#linearGradient2960);fill-opacity:1;fill-rule:evenodd;stroke:none;stroke-width:1px;stroke-linecap:butt;stroke-linejoin:miter;stroke-opacity:1"
       d="M 92.597637,68.363206 L 91.129912,65.794688 L 88.867171,64.693895 L 86.054032,64.204654 L 82.445877,65.060826 L 80.305445,66.712016 L 79.755049,68.546671 L 81.039307,70.809413 L 84.219377,72.154827 L 86.543274,72.277137 L 89.784498,71.787896 L 91.680309,70.931723 L 86.115187,67.751654 L 92.597637,68.363206 z"
       id="path2896"
       sodipodi:nodetypes="cccccccccccccc" />
    <path
       style="fill:url(#linearGradient2964);fill-rule:evenodd;stroke:none;stroke-width:1px;stroke-linecap:butt;stroke-linejoin:miter;stroke-opacity:1"
       d="M 96.511568,70.503637 L 94.432292,70.809413 L 93.148033,71.665586 L 92.414171,73.25562 L 93.148033,74.601034 L 94.126516,75.273741 L 96.144637,76.068759 L 97.551206,75.762983 L 99.875104,75.273741 L 101.03705,74.478724 L 101.46513,73.194465 L 100.85358,72.154827 L 99.630483,70.992879 L 98.407379,72.032517 L 96.572723,73.683707 L 96.695034,72.154827 L 96.817344,70.442482 L 96.511568,70.503637 z"
       id="path2962" />
    <path
       style="fill:#ff00ff;fill-rule:evenodd;stroke:none;stroke-width:1px;stroke-linecap:butt;stroke-linejoin:miter;stroke-opacity:1"
       d="M 38.918919,50.767568 L 37.535135,49.210811 L 37.189189,48.518919 L 35.027027,50.421622 L 36.583784,50.594595 L 36.67027,52.237838 L 40.043243,53.016216 L 43.502703,52.67027 L 45.405406,49.383784 L 43.156757,50.594595 L 38.918919,50.767568 z"
       id="path3025" />
    <path
       style="fill:url(#linearGradient3029);fill-rule:evenodd;stroke:none;stroke-width:1px;stroke-linecap:butt;stroke-linejoin:miter;stroke-opacity:1"
       d="M 51.891892,60.108108 L 51.978379,57.859459 L 53.362162,55.610811 L 55.610811,55.783784 L 56.648649,53.362162 L 59.502703,53.189189 L 60.194595,51.632432 L 62.616216,51.027027 L 63.654054,49.210811 L 65.383784,49.210811 L 66.421622,47.135135 L 68.583784,47.048649 L 69.016216,45.578378 L 70.918919,45.405405 L 71.610811,43.935135 L 73.686487,43.762162 L 74.032433,42.378378 L 76.108108,42.205405 L 76.194595,40.908108 L 78.183784,40.648649 L 88.648649,45.232432 L 87.524324,47.221622 L 85.626227,47.238714 L 84.497298,49.037838 L 82.767568,49.210811 L 82.248649,50.940541 L 80.345946,50.767568 L 79.913514,52.410811 L 77.924325,52.497297 L 76.540541,54.832432 L 74.291892,54.659459 L 73.427027,56.562162 L 71.178379,56.994595 L 70.4,58.551351 L 68.237838,59.156757 L 66.767568,60.972973 L 64.432433,61.318919 L 63.481081,63.394595 L 61.837838,63.394595 L 61.491892,65.989189 L 51.891892,60.108108 z"
       id="path3027"
       sodipodi:nodetypes="ccccccccccccccccccccccccccccccccccccccccc" />
    <path
       style="fill:#000000;fill-opacity:0.15686275;fill-rule:evenodd;stroke:none;stroke-width:1px;stroke-linecap:butt;stroke-linejoin:miter;stroke-opacity:1"
       d="M 52.237838,57.772973 L 61.837838,63.394595 L 61.751352,65.989189 L 51.891892,60.194595 L 52.237838,57.772973 z"
       id="path3031" />
    <path
       style="fill:url(#linearGradient3035);fill-opacity:1;fill-rule:evenodd;stroke:none;stroke-width:1px;stroke-linecap:butt;stroke-linejoin:miter;stroke-opacity:1"
       d="M 61.145946,63.048649 L 63.481081,63.394595 L 64.432433,61.318919 L 66.854054,60.972973 L 68.151352,59.07027 L 70.313514,58.637838 L 71.264865,56.994595 L 73.513514,56.475676 L 74.464865,54.745946 L 76.627027,54.659459 L 77.837838,52.67027 L 79.913514,52.67027 L 80.172973,50.681081 L 82.421622,51.027027 L 82.681081,49.297297 L 84.67027,49.210811 L 85.482095,47.183108 L 87.264865,47.394595 L 88.648649,45.318919 L 88.821622,45.751351 L 88.908108,47.048649 L 88.302703,49.037838 L 85.794595,49.210811 L 85.362162,50.854054 L 83.113514,50.940541 L 82.854054,52.497297 L 80.864865,52.67027 L 80.345946,54.486486 L 78.443243,54.486486 L 77.232433,56.475676 L 74.810811,56.821622 L 74.378379,58.291892 L 71.956757,58.983784 L 71.178379,60.540541 L 68.410811,61.405405 L 67.718919,62.875676 L 64.605406,63.654054 L 64,65.643243 L 61.491892,65.989189 L 61.145946,63.048649 z"
       id="path3033"
       sodipodi:nodetypes="cccccccccccccccccccccccccccccccccccccccc" />
    <path
       style="fill:url(#linearGradient3039);fill-opacity:1;fill-rule:evenodd;stroke:none;stroke-width:1px;stroke-linecap:butt;stroke-linejoin:miter;stroke-opacity:1"
       d="M 18.355247,35.217098 C 17.190503,35.546986 16.466644,35.289028 14.685936,36.440201 L 11.261246,38.519478 L 8.2034866,41.699547 L 6.3688312,45.491168 L 6.0019001,49.160479 L 5.634969,52.095928 L 6.1242105,55.398308 L 8.4481074,60.413032 L 13.095901,65.550068 L 17.866005,68.607827 L 24.960006,73.25562 L 32.298628,76.924931 L 36.090249,79.248828 L 40.615733,82.184277 L 44.285044,87.443622 L 48.565906,93.681451 L 52.724459,99.430038 L 57.249942,103.83321 L 64.710874,107.99176 L 75.107255,111.90569 L 82.445877,113.1288 L 87.949843,113.25111 L 93.453809,113.02132 L 97.856982,112.27262 L 106.05177,109.70411 L 110.08801,107.62483 L 116.20353,103.34397 L 121.34057,97.840003 L 122.68598,95.638417 L 124.64295,91.846795 L 125.62143,89.155967 L 127.08915,83.040449 L 125.49912,79.493449 L 124.27602,78.148035 L 122.05959,76.659325 L 122.19674,79.86038 L 122.19674,83.16276 L 119.87284,87.199002 L 118.89436,89.155967 L 112.77884,94.415313 L 111.43343,95.516106 L 97.734672,102.97704 L 86.237498,105.66786 L 83.302049,105.79017 L 75.596496,104.68938 L 70.581771,102.85473 L 64.833184,99.430038 L 61.897736,97.106141 L 55.904528,90.256761 L 52.602148,85.242036 L 47.098182,76.924931 L 45.141216,75.334897 L 29.974731,67.262413 L 18.232936,60.535343 L 13.340522,56.25448 L 11.016625,52.218238 L 11.383556,47.448134 L 11.138935,45.368858 L 11.750487,41.821857 L 13.829763,39.25334 L 16.765212,36.07327 L 18.355247,35.217098 z"
       id="path3037"
       sodipodi:nodetypes="ccccccccccccccccccccccccccccccccccccccccccccccccccccccccccccccc" />
    <path
       sodipodi:nodetypes="ccccccccccccccccccccccccccccccccc"
       id="path3041"
       d="M 6.0019001,49.160479 L 5.634969,52.095928 L 6.1242105,55.398308 L 8.4481074,60.413032 L 13.095901,65.550068 L 17.866005,68.607827 L 24.960006,73.25562 L 32.298628,76.924931 L 36.090249,79.248828 L 40.615733,82.184277 L 44.285044,87.443622 L 48.565906,93.681451 L 52.724459,99.430038 L 57.249942,103.83321 L 64.710874,107.99176 L 75.107255,111.90569 L 82.445877,113.1288 L 87.949843,113.25111 L 93.453809,113.02132 L 93.410348,111.5392 L 85.718579,111.72191 L 81.139887,111.23882 L 74.299199,109.87857 L 66.084474,106.48716 L 60.076427,102.88949 L 55.41125,98.835871 C 52.79402,96.762603 50.523131,93.823487 48.36431,90.604198 L 44.503587,85.31412 L 41.59527,79.918681 L 25.996353,70.981332 L 18.492395,66.243451 C 14.08249,64.046398 11.462319,60.730761 8.8544627,57.407427 C 7.5953281,55.043795 6.3584864,52.652297 6.0019001,49.160479 z"
       style="fill:#000000;fill-opacity:0.15686275;fill-rule:evenodd;stroke:none;stroke-width:1px;stroke-linecap:butt;stroke-linejoin:miter;stroke-opacity:1" />
    <path
       style="fill:url(#linearGradient3045);fill-rule:evenodd;stroke:none;stroke-width:1px;stroke-linecap:butt;stroke-linejoin:miter;stroke-opacity:1"
       d="M 10.739865,45.422973 L 11.114865,47.797973 L 10.864865,49.922973 L 11.489865,53.547973 L 14.114865,56.922973 L 19.614865,61.172973 L 23.489865,63.672973 L 34.114865,69.672973 L 44.114865,74.922973 L 46.739865,76.422973 L 51.614865,83.922973 L 60.864865,96.172973 L 65.364865,99.672973 L 72.489865,103.42297 L 75.239865,104.42297 L 83.989865,105.79797 L 88.864865,105.04797 L 93.739865,104.42297 L 99.489865,102.04797 L 107.86486,97.797973 L 113.98986,93.297973 L 118.11486,90.172973 L 121.48986,84.047973 L 122.36486,82.297973 L 122.11486,76.672973 L 121.11486,80.547973 L 115.23986,88.047973 L 110.48986,91.422973 L 102.73986,95.922973 L 91.239865,100.42297 L 81.739865,101.42297 L 73.864865,99.922973 C 73.864865,99.922973 69.239865,97.547973 67.989865,97.172973 C 66.739865,96.797973 61.614865,92.047973 61.614865,92.047973 L 54.864865,84.422973 L 50.239865,76.797973 L 47.989865,73.672973 L 45.489865,71.672973 L 39.364865,68.172973 L 32.114865,64.797973 L 23.614865,59.922973 L 20.864865,58.297973 L 14.489865,52.672973 L 11.489865,47.797973 L 10.739865,45.422973 z"
       id="path3043"
       sodipodi:nodetypes="ccccccccccccccccccccccccccccccccscccccccccccc" />
    <path
       sodipodi:nodetypes="ccccccccccccccccccccscccccccccccc"
       id="path3047"
       d="M 10.739865,45.422973 L 11.114865,47.797973 L 10.864865,49.922973 L 11.489865,53.547973 L 14.114865,56.922973 L 19.614865,61.172973 L 23.489865,63.672973 L 34.114865,69.672973 L 44.114865,74.922973 L 46.739865,76.422973 L 51.614865,83.922973 L 60.864865,96.172973 L 65.364865,99.672973 L 72.489865,103.42297 L 75.239865,104.42297 L 83.989865,105.79797 L 91.364865,105.04797 L 91.239865,100.42297 L 81.739865,101.42297 L 73.864865,99.922973 C 73.864865,99.922973 69.239865,97.547973 67.989865,97.172973 C 66.739865,96.797973 61.614865,92.047973 61.614865,92.047973 L 54.864865,84.422973 L 50.239865,76.797973 L 47.989865,73.672973 L 45.489865,71.672973 L 39.364865,68.172973 L 32.114865,64.797973 L 23.614865,59.922973 L 20.864865,58.297973 L 14.489865,52.672973 L 11.489865,47.797973 L 10.739865,45.422973 z"
       style="fill:#000000;fill-opacity:0.15686275;fill-rule:evenodd;stroke:none;stroke-width:1px;stroke-linecap:butt;stroke-linejoin:miter;stroke-opacity:1" />
    <path
       style="fill:url(#linearGradient3051);fill-rule:evenodd;stroke:none;stroke-width:1px;stroke-linecap:butt;stroke-linejoin:miter;stroke-opacity:1"
       d="M 21.364865,33.172973 L 15.739865,36.672973 L 12.239865,40.672973 L 11.239865,43.672973 L 10.864865,45.922973 L 12.864865,50.172973 L 16.364865,54.422973 L 21.489865,58.922973 L 25.614865,60.922973 L 34.114865,65.672973 L 41.989865,69.422973 L 45.864865,71.547973 L 48.739865,74.922973 L 53.364865,81.922973 L 57.614865,87.922973 L 62.114865,92.547973 L 65.364865,95.422973 L 69.739865,98.172973 L 75.864865,100.42297 L 80.489865,101.17297 L 87.239865,100.92297 L 91.239865,100.17297 L 98.239865,98.047973 L 103.36486,95.797973 L 112.11486,90.672973 L 116.86486,86.297973 L 121.23986,81.172973 L 122.11486,76.922973 L 121.48986,71.297973 C 122.07648,70.515807 114.0212,62.13119 113.61486,62.172973 C 113.11748,62.224117 106.48986,57.547973 106.48986,57.547973 L 98.239865,52.672973 L 90.239865,48.547973 L 89.364865,47.922973 L 88.489865,48.922973 L 85.989865,49.172973 L 88.864865,50.172973 L 96.364865,53.797973 L 102.86486,57.172973 L 107.98986,60.172973 L 114.48986,65.297973 L 117.73986,69.297973 L 118.98986,72.922973 L 119.36486,77.797973 L 116.98986,82.797973 L 110.98986,88.172973 L 101.36486,93.547973 L 91.989865,97.047973 L 83.739865,98.547973 L 76.489865,97.672973 L 68.239865,94.047973 L 63.739865,90.922973 L 58.739865,85.172973 L 52.739865,76.547973 L 47.864865,70.297973 L 39.739865,66.297973 L 31.864865,61.922973 L 23.989865,58.047973 L 17.614865,52.297973 L 14.489865,48.297973 L 13.614865,45.797973 L 14.489865,42.047973 L 16.739865,38.797973 L 22.864865,34.547973 L 28.239865,32.922973 L 36.489865,30.422973 L 40.989865,30.172973 L 45.364865,30.047973 L 54.114865,33.547973 L 58.739865,36.922973 L 62.614865,39.547973 L 65.114865,41.047973 L 71.614865,43.797973 L 73.489865,43.797973 L 74.364865,41.922973 L 69.864865,40.172973 L 66.114865,38.547973 L 63.239865,37.672973 L 58.489865,34.547973 L 54.239865,31.547973 L 47.614865,28.672973 L 42.489865,28.047973 L 38.864865,27.922973 L 33.864865,28.797973 L 29.989865,29.797973 L 21.364865,33.172973 z"
       id="path3049"
       sodipodi:nodetypes="cccccccccccccccccccccccccccccscccccccccccccccccccccccccccccccccccccccccccccccccccccccc" />
    <path
       style="fill:url(#linearGradient3060);fill-rule:evenodd;stroke:none;stroke-width:1px;stroke-linecap:butt;stroke-linejoin:miter;stroke-opacity:1"
       d="M 40.989865,29.922973 L 37.114865,30.422973 L 34.239865,31.047973 L 29.989865,32.047973 L 23.864865,34.422973 L 18.739865,37.172973 L 14.989865,40.422973 L 14.239865,42.547973 L 13.864865,45.547973 L 14.239865,47.047973 L 14.989865,44.422973 L 17.739865,41.047973 L 23.114865,38.797973 L 25.739865,37.297973 L 30.114865,35.172973 L 33.864865,34.047973 L 36.489865,34.047973 L 39.916642,33.47475 L 43.489865,33.047973 L 45.114865,33.172973 L 47.864865,33.422973 L 50.114865,34.297973 L 53.864865,35.922973 L 56.489865,37.297973 L 58.864865,39.297973 L 60.953253,41.063138 L 63.114865,43.172973 L 64.489865,43.672973 L 65.989865,44.172973 L 68.489865,45.047973 L 69.239865,45.297973 L 70.739865,45.422973 L 72.114865,43.672973 L 65.239865,41.047973 L 61.114865,38.797973 C 61.114865,38.797973 56.614865,35.047973 55.364865,34.672973 C 54.114865,34.297973 49.489865,31.422973 49.489865,31.422973 L 45.114865,30.297973 L 40.989865,29.922973 z M 85.864865,49.235473 L 85.114865,51.047973 L 88.864865,53.047973 L 93.114865,54.922973 L 98.989865,57.297973 L 103.98986,60.360473 L 107.23986,62.485473 L 111.48986,65.172973 L 115.36486,68.922973 L 118.23986,72.797973 L 119.23986,75.172973 L 118.11486,69.797973 L 113.73986,64.797973 L 108.73986,60.922973 L 100.61486,55.797973 L 94.739865,53.297973 L 85.864865,49.235473 z"
       id="path3053"
       sodipodi:nodetypes="cccccccccccccccccccccccccccccccccccscccccccccccccccccccc" />
    <path
       sodipodi:nodetypes="ccccccccccccccccscccccccccccccccc"
       id="path3062"
       d="M 45.114865,33.172973 L 47.864865,33.422973 L 50.114865,34.297973 L 53.864865,35.922973 L 56.489865,37.297973 L 58.864865,39.297973 L 60.953253,41.063138 L 63.114865,43.172973 L 64.489865,43.672973 L 65.989865,44.172973 L 68.489865,45.047973 L 69.239865,45.297973 L 70.739865,45.422973 L 72.114865,43.672973 L 65.239865,41.047973 L 61.114865,38.797973 C 61.114865,38.797973 56.614865,35.047973 55.364865,34.672973 C 54.114865,34.297973 49.489865,31.422973 49.489865,31.422973 L 45.114865,30.297973 L 45.114865,33.172973 z M 85.864865,49.235473 L 85.114865,51.047973 L 88.864865,53.047973 L 93.114865,54.922973 L 98.989865,57.297973 L 103.98986,60.360473 L 107.23986,62.485473 L 111.48986,65.172973 L 111.61854,63.206983 L 108.73986,60.922973 L 100.61486,55.797973 L 94.739865,53.297973 L 85.864865,49.235473 z"
       style="fill:#000000;fill-opacity:0.15686275;fill-rule:evenodd;stroke:none;stroke-width:1px;stroke-linecap:butt;stroke-linejoin:miter;stroke-opacity:1" />
  </g>
  <g
     inkscape:label="outline"
     inkscape:groupmode="layer"
     id="layer1">
    <path
       style="fill:#000000;fill-opacity:1;fill-rule:evenodd;stroke:none;stroke-width:1px;stroke-linecap:butt;stroke-linejoin:miter;stroke-opacity:1"
       d="M 41.896115,27.672973 C 36.453496,27.596717 29.591253,29.052383 20.177365,33.797973 C 19.359367,34.213458 18.561545,34.676893 17.771115,35.172973 C 12.445508,36.533764 8.1026903,40.37656 6.3961149,45.266723 L 6.3336149,45.329223 C 6.2589216,45.814873 6.0084056,46.716184 5.8648649,47.329223 C 5.81543,47.86827 5.7983393,48.405795 5.8023649,48.922973 C 4.4708945,58.013482 9.9996821,63.531295 16.896115,68.391723 C 24.180123,73.282139 33.359157,77.316834 40.239865,81.985473 C 44.415625,87.296742 47.86207,93.134524 51.896115,98.547973 C 55.814378,103.46006 61.314427,107.77715 74.958615,112.11047 C 81.387379,113.46627 87.564603,113.71765 93.271115,113.04797 L 93.521115,113.07922 L 93.521115,113.01672 C 109.89903,111.01333 122.35041,101.43378 125.77111,88.735473 C 126.45319,86.881879 126.96252,84.962997 127.23986,82.985473 C 127.02651,81.80016 126.43215,80.740508 125.67736,79.766723 L 125.58361,79.516723 L 125.52111,79.547973 C 124.58949,78.401239 123.43218,77.422056 122.33361,76.547973 L 122.33361,75.985473 L 122.30236,76.047973 C 122.31858,74.620629 122.08463,73.140055 121.58361,71.579223 C 119.20411,65.629691 112.49922,60.822117 104.55236,56.141723 C 99.694164,53.280431 94.349634,50.482245 89.146115,48.016723 C 89.094606,47.992317 89.04134,47.978568 88.989865,47.954223 L 89.364865,47.204223 L 89.114865,45.422973 L 78.052365,40.266723 L 76.177365,40.735473 L 75.583615,41.922973 L 74.864865,41.954223 C 71.011239,40.5092 67.116549,39.142633 63.364865,37.454223 C 57.439759,33.157974 51.641067,28.676346 44.146115,27.797973 C 43.422536,27.73035 42.673632,27.683867 41.896115,27.672973 z M 41.146115,28.329223 C 42.184361,28.31727 43.231636,28.347717 44.271115,28.422973 L 44.833615,30.079223 C 43.629286,29.884726 42.389069,29.747601 41.083615,29.735473 C 40.49048,29.729962 39.888279,29.731172 39.271115,29.766723 C 37.939636,30.042856 36.205821,30.434518 34.364865,30.860473 L 34.364865,30.735473 L 31.927365,29.672973 C 34.940638,28.798185 38.031376,28.365083 41.146115,28.329223 z M 44.833615,28.485473 C 49.486237,28.923954 53.339261,31.22504 57.052365,33.797973 L 56.146115,34.704223 C 52.745456,32.50446 49.24009,30.85754 45.239865,30.141723 L 44.833615,28.485473 z M 31.271115,29.891723 L 33.677365,31.016723 C 30.583464,31.753905 27.153345,32.710924 23.927365,34.079223 L 21.896115,33.547973 C 25.34809,31.889293 28.460863,30.703714 31.271115,29.891723 z M 42.864865,30.172973 C 43.534165,30.197048 44.193961,30.261796 44.833615,30.360473 L 44.708615,32.860473 C 42.282536,32.836315 39.885404,33.386949 37.458615,33.704223 C 36.511597,33.828034 35.584045,33.910385 34.646115,33.985473 L 34.427365,31.329223 C 36.250546,30.932965 37.943156,30.630929 39.333615,30.422973 C 40.561765,30.218272 41.734927,30.132329 42.864865,30.172973 z M 45.271115,30.454223 C 49.254993,31.175976 52.697797,33.232402 56.083615,35.579223 L 56.052365,36.891723 C 52.868161,35.294986 49.565427,33.536887 46.021115,32.922973 C 45.785065,32.898278 45.537497,32.903625 45.302365,32.891723 L 45.271115,30.454223 z M 33.864865,31.454223 L 33.989865,34.047973 C 32.750397,34.163419 31.51723,34.30947 30.302365,34.735473 C 28.369296,35.41332 26.515988,36.563412 24.677365,37.547973 L 24.646115,34.329223 C 27.669834,33.045906 30.924619,32.117913 33.864865,31.454223 z M 43.208615,33.204223 C 43.865802,33.182686 44.528584,33.220528 45.208615,33.297973 C 45.427824,33.272029 45.62013,33.268296 45.833615,33.297973 C 49.772575,34.622872 54.03255,35.971765 57.521115,38.297973 C 59.939259,40.184277 61.470841,42.719973 63.521115,43.766723 C 65.381741,44.097584 67.125795,44.665208 68.833615,45.329223 L 68.427365,46.672973 L 66.302365,46.954223 L 65.052365,48.891723 L 63.489865,49.079223 L 62.239865,50.766723 L 60.146115,51.235473 L 58.864865,52.985473 L 56.583615,52.891723 L 55.083615,55.485473 L 53.177365,55.454223 L 51.677365,57.766723 L 51.739865,60.141723 L 61.552365,66.297973 L 64.177365,65.735473 L 65.021115,63.922973 L 67.864865,63.204223 L 68.521115,61.547973 L 71.427365,60.672973 L 71.833615,59.235473 L 74.583615,58.422973 C 74.591931,57.854919 74.652953,57.332237 75.021115,57.079223 L 77.552365,56.360473 L 78.271115,54.829223 L 80.396115,54.360473 L 80.958615,52.985473 L 83.021115,52.610473 L 83.458615,51.266723 L 84.677365,51.047973 C 84.929861,51.133603 85.178847,51.232174 85.427365,51.329223 C 89.785463,54.111685 94.746777,55.573386 99.396115,57.735473 C 107.16534,62.304362 114.46244,66.36145 119.02111,74.672973 C 119.47826,80.263066 114.80399,84.805675 110.36486,88.141723 C 93.003077,98.652395 80.1468,102.09438 65.614865,91.985473 C 59.070286,86.09455 51.924442,75.232985 48.177365,70.172973 C 44.932196,68.092316 41.344693,66.664761 37.864865,65.047973 C 29.833957,60.533988 18.355558,56.180563 14.427365,47.047973 C 15.700635,42.140386 19.186235,40.672976 23.302365,39.016723 C 25.885235,37.757546 28.190577,36.116587 30.427365,35.329223 C 31.928911,34.800667 33.335026,34.62802 34.677365,34.516723 C 35.632365,34.437541 36.554165,34.387213 37.458615,34.297973 C 39.34868,33.744128 41.237056,33.268834 43.208615,33.204223 z M 21.146115,33.891723 L 23.333615,34.329223 C 20.255095,35.695472 17.499624,37.405559 15.677365,39.610473 L 14.114865,39.047973 C 16.060831,36.81439 18.57742,35.284569 21.146115,33.891723 z M 57.521115,34.141723 C 59.340775,35.415673 61.139286,36.714559 62.989865,37.891723 C 64.250154,38.451099 65.54212,38.967925 66.833615,39.485473 L 65.364865,40.860473 C 62.092434,39.568612 59.511662,37.019433 56.614865,35.047973 L 57.521115,34.141723 z M 23.989865,34.610473 L 24.271115,37.735473 C 23.863777,37.947795 23.459711,38.175616 23.052365,38.360473 C 20.078369,39.259677 17.828355,40.56798 15.896115,42.985473 L 15.958615,40.391723 C 17.787405,37.961402 20.716865,36.074094 23.989865,34.610473 z M 17.302365,35.454223 C 13.754636,37.51821 11.899892,40.60702 10.864865,44.360473 L 6.8336149,44.954223 C 8.4403197,40.4244 12.706326,36.946052 17.302365,35.454223 z M 56.552365,35.891723 C 59.336108,37.92907 62.052103,39.998707 65.239865,41.329223 L 65.239865,43.829223 C 64.7593,43.6557 64.284557,43.455506 63.802365,43.235473 C 61.96914,42.299536 60.215033,39.92149 57.739865,37.985473 C 57.354525,37.68407 56.947037,37.408013 56.521115,37.141723 L 56.552365,35.891723 z M 13.802365,39.422973 L 15.458615,39.860473 C 14.037356,41.683934 13.250923,43.837549 13.458615,46.360473 C 14.066102,48.071184 14.928395,49.613806 15.958615,51.047973 L 14.239865,51.797973 C 12.977086,50.187868 11.967795,48.407114 11.333615,46.422973 C 11.072938,43.759483 12.148732,41.408654 13.802365,39.422973 z M 67.364865,39.704223 C 69.508441,40.553966 71.671968,41.360328 73.833615,42.172973 L 73.364865,43.391723 C 72.96052,43.379572 72.629601,43.432563 72.333615,43.485473 C 70.1792,42.712108 68.023789,41.927612 65.896115,41.079223 L 67.364865,39.704223 z M 78.302365,40.891723 L 88.052365,45.454223 L 87.333615,47.079223 L 85.833615,46.891723 L 76.239865,42.204223 L 76.489865,40.954223 L 78.302365,40.891723 z M 15.521115,41.047973 L 15.396115,43.704223 C 14.825807,44.653585 14.444393,45.599135 14.177365,46.454223 C 14.113016,46.287038 14.04915,46.124558 13.989865,45.954223 C 14.015081,44.125486 14.586354,42.496368 15.521115,41.047973 z M 65.833615,41.579223 C 67.689579,42.348315 69.557515,43.104455 71.427365,43.829223 C 71.006379,44.204667 71.017338,44.751611 70.677365,45.172973 L 69.646115,45.235473 C 68.350448,44.808763 67.046696,44.399454 65.739865,43.985473 L 65.802365,43.954223 L 65.833615,41.579223 z M 74.208615,42.360473 L 75.958615,42.422973 L 85.458615,47.141723 L 84.489865,48.860473 L 82.896115,48.829223 L 73.864865,43.829223 L 74.208615,42.360473 z M 71.771115,43.985473 L 73.521115,44.016723 L 82.583615,49.016723 L 82.208615,50.860473 L 80.396115,50.454223 L 80.396115,50.422973 L 71.146115,45.610473 L 71.771115,43.985473 z M 10.833615,44.672973 C 10.775163,45.194179 10.732626,45.73443 10.771115,46.297973 L 10.739865,49.922973 C 10.562791,52.059694 11.452244,54.121587 13.208615,56.172973 L 8.8961149,57.110473 C 7.2360769,54.390692 6.1936628,51.236051 6.2086149,47.454223 C 6.2977797,46.703389 6.480905,45.971863 6.7086149,45.266723 L 10.833615,44.672973 z M 69.239865,45.610473 L 70.864865,45.797973 L 80.083615,50.704223 L 79.708615,52.422973 L 77.802365,52.204223 L 68.864865,47.079223 L 69.239865,45.610473 z M 88.521115,45.797973 L 88.739865,46.985473 L 88.146115,48.704223 L 85.927365,48.891723 L 85.864865,47.547973 L 87.614865,47.579223 L 88.521115,45.797973 z M 44.239865,46.860473 C 43.174166,46.796248 42.041352,47.265946 40.708615,48.235473 L 41.021115,48.485473 C 43.332842,47.015514 45.2052,47.202098 47.239865,48.891723 L 47.458615,48.641723 C 46.318394,47.512123 45.305564,46.924698 44.239865,46.860473 z M 66.614865,47.141723 L 68.396115,47.391723 L 77.521115,52.360473 L 76.677365,54.360473 L 74.364865,54.454223 L 65.614865,49.266723 L 66.614865,47.141723 z M 11.333615,47.766723 C 11.987063,49.335278 12.854909,50.77162 13.864865,52.110473 L 13.833615,56.047973 C 12.098659,53.903887 11.25003,51.654518 11.396115,49.891723 L 11.333615,47.766723 z M 85.458615,47.829223 L 85.521115,49.204223 L 85.271115,50.516723 L 83.302365,50.704223 L 83.021115,49.485473 L 84.739865,49.235473 L 85.458615,47.829223 z M 37.083615,47.954223 C 36.640716,48.033744 36.160648,48.582306 35.989865,49.360473 L 34.458615,50.297973 L 34.364865,50.672973 L 36.021115,51.079223 L 36.146115,52.922973 C 38.547557,53.124898 40.721782,54.008471 43.552365,52.922973 C 45.051146,51.681062 45.751435,50.279454 45.583615,48.704223 L 43.771115,50.172973 C 42.246337,50.473121 40.77007,50.951599 38.927365,50.297973 L 37.989865,49.391723 C 37.932245,48.264223 37.526514,47.874702 37.083615,47.954223 z M 89.146115,48.547973 C 92.664624,50.210804 96.206472,52.032442 99.646115,53.922973 L 98.708615,54.610473 C 95.222555,52.815268 91.596817,51.108834 88.021115,49.579223 L 89.146115,48.547973 z M 87.896115,49.110473 L 87.583615,49.391723 C 87.469782,49.343318 87.353399,49.309139 87.239865,49.266723 L 87.896115,49.110473 z M 36.989865,49.235473 C 37.961754,49.687304 38.007825,50.879091 37.896115,50.860473 C 38.531532,51.810734 39.166948,51.532577 39.802365,51.735473 C 41.615127,52.069265 42.966394,51.59544 44.114865,50.766723 L 43.177365,52.297973 C 41.247883,52.427016 39.162803,52.84187 37.083615,51.922973 L 36.958615,50.266723 L 35.833615,50.266723 C 36.099762,50.293325 37.259341,49.964995 36.989865,49.235473 z M 63.864865,49.297973 L 65.364865,49.422973 L 73.958615,54.735473 L 73.302365,56.297973 L 71.114865,56.579223 L 62.802365,51.110473 L 63.864865,49.297973 z M 86.052365,49.547973 C 86.510178,49.737999 86.9608,49.915797 87.427365,50.110473 L 87.427365,51.829223 C 86.886136,51.53227 86.347193,51.26778 85.802365,51.047973 C 85.688149,51.001893 85.572321,50.965919 85.458615,50.922973 L 85.896115,49.579223 L 86.052365,49.547973 z M 82.708615,49.672973 L 82.927365,50.985473 L 82.677365,52.204223 L 80.864865,52.360473 L 80.583615,51.110473 L 82.427365,51.141723 L 82.708615,49.672973 z M 87.927365,50.297973 C 91.517262,51.805554 95.176494,53.462568 98.646115,55.235473 L 98.708615,57.079223 C 94.930009,55.739387 91.338903,54.14942 87.896115,52.110473 L 87.927365,50.297973 z M 5.9586149,50.829223 C 6.3001729,53.313888 7.2404036,55.537603 8.5836149,57.547973 L 8.3023649,59.266723 C 6.8899992,56.789738 6.0511795,53.992605 5.9586149,50.829223 z M 16.083615,51.235473 C 18.291524,54.240875 21.308175,56.693408 24.614865,58.797973 L 23.271115,59.454223 C 20.22428,58.061216 17.003563,54.86085 14.521115,52.110473 L 16.083615,51.235473 z M 62.396115,51.329223 L 70.833615,56.797973 L 70.083615,58.329223 L 68.114865,58.579223 L 68.083615,58.516723 L 59.552365,53.235473 L 60.427365,51.735473 L 62.396115,51.329223 z M 80.208615,51.360473 L 80.489865,52.641723 C 80.496906,53.392359 80.393153,53.82734 80.114865,54.047973 C 79.704595,54.373244 78.961391,54.281817 78.208615,54.204223 L 78.052365,52.797973 L 80.083615,52.766723 L 80.208615,51.360473 z M 14.333615,52.735473 C 16.740665,55.707101 19.91213,58.148698 23.333615,60.266723 L 23.208615,63.235473 C 20.524435,61.620673 17.931261,59.855897 15.489865,57.829223 C 15.013963,57.39837 14.603797,56.937312 14.208615,56.485473 L 14.333615,52.735473 z M 77.708615,53.047973 L 77.833615,54.454223 C 77.3896,54.650994 77.610509,55.562432 77.177365,55.922973 L 74.927365,56.422973 L 74.802365,55.016723 L 76.771115,54.672973 L 77.708615,53.047973 z M 56.927365,53.360473 L 59.146115,53.516723 L 67.583615,58.922973 L 66.552365,60.610473 L 64.552365,60.922973 L 55.739865,55.735473 L 56.927365,53.360473 z M 100.08361,54.141723 C 104.30695,56.427786 108.38036,58.970722 112.23986,61.829223 L 111.42736,62.516723 C 108.8651,60.48797 105.89252,58.557686 102.67736,56.735473 C 101.52767,56.083878 100.34529,55.452674 99.146115,54.829223 L 100.08361,54.141723 z M 36.864865,54.829223 L 36.646115,55.172973 C 38.787653,57.571296 41.13615,57.523379 43.583615,55.391723 L 43.302365,55.329223 C 40.909374,56.455141 38.802304,56.679253 36.864865,54.829223 z M 74.208615,55.391723 L 74.489865,56.735473 L 74.208615,58.047973 L 71.896115,58.516723 L 71.708615,57.079223 L 73.583615,56.641723 L 74.208615,55.391723 z M 99.177365,55.516723 C 100.28676,56.091058 101.36756,56.666072 102.42736,57.266723 C 105.71147,59.128019 108.69573,61.145042 111.23986,63.235473 L 111.23986,64.922973 C 107.3665,62.41355 103.64796,59.652261 99.583615,57.454223 C 99.511578,57.418363 99.437207,57.395526 99.364865,57.360473 L 99.177365,55.516723 z M 53.458615,55.891723 L 55.396115,55.985473 L 63.989865,61.297973 L 63.239865,63.110473 L 61.708615,62.797973 L 52.802365,57.672973 L 53.458615,55.891723 z M 48.364865,56.610473 C 46.527484,59.68624 42.312496,59.319286 39.239865,58.829223 L 39.083615,59.047973 C 42.596013,60.571133 46.981258,60.400515 48.583615,56.641723 L 48.364865,56.610473 z M 13.646115,56.672973 C 14.074318,57.136982 14.538993,57.583196 15.052365,58.047973 C 17.472848,60.16343 20.078585,62.013111 22.771115,63.704223 L 18.427365,66.235473 C 18.321395,66.174554 18.220899,66.10892 18.114865,66.047973 C 14.590833,63.695924 11.286116,60.899955 9.0523649,57.360473 L 13.646115,56.672973 z M 71.239865,57.391723 L 71.521115,58.797973 L 70.989865,60.297973 L 68.364865,60.954223 L 68.177365,59.454223 L 70.458615,58.672973 L 71.239865,57.391723 z M 8.8961149,57.985473 C 11.184575,61.221532 14.457034,63.917684 17.802365,66.266723 C 17.921075,66.346424 18.05768,66.406198 18.177365,66.485473 L 17.896115,68.454223 C 14.064855,66.300513 10.980033,63.249443 8.5211149,59.641723 L 8.8961149,57.985473 z M 52.271115,58.110473 L 61.146115,63.329223 L 61.302365,65.516723 L 52.208615,59.985473 L 52.271115,58.110473 z M 25.021115,59.047973 C 28.435665,61.178571 32.1007,62.94162 35.521115,64.610473 L 34.083615,65.235473 C 30.890822,63.470166 27.290333,61.704292 23.833615,59.641723 L 25.021115,59.047973 z M 67.833615,59.704223 L 68.021115,61.141723 L 67.364865,62.704223 L 64.864865,63.297973 L 64.771115,61.735473 L 66.989865,61.079223 L 67.833615,59.704223 z M 23.739865,60.516723 C 27.11244,62.56897 30.684987,64.301506 33.989865,65.954223 L 33.958615,69.047973 C 30.498252,67.27394 27.044619,65.494375 23.708615,63.516723 L 23.739865,60.516723 z M 112.55236,62.047973 C 116.58863,65.176541 119.71882,68.510554 121.08361,71.922973 C 121.31363,72.528127 121.46493,73.117608 121.58361,73.704223 L 119.64611,74.016723 C 119.53028,73.174949 119.33216,72.313154 119.02111,71.422973 C 117.70957,68.382017 115.14699,65.514635 111.83361,62.829223 L 111.83361,62.766723 L 112.55236,62.047973 z M 64.146115,62.172973 L 64.333615,63.672973 L 63.958615,65.360473 L 61.802365,65.422973 L 61.708615,63.672973 L 63.771115,63.454223 L 64.146115,62.172973 z M 111.83361,63.735473 C 114.8384,66.296069 117.14435,68.956738 118.30236,71.641723 C 118.61834,72.417139 118.80622,73.182415 118.92736,73.922973 C 117.19152,70.509067 114.82299,67.665598 111.80236,65.360473 L 111.83361,63.735473 z M 23.302365,64.047973 C 26.616338,66.094002 30.073806,67.91669 33.552365,69.704223 L 30.614865,73.266723 C 26.694763,70.969554 22.748141,68.709648 18.771115,66.422973 L 23.302365,64.047973 z M 96.927365,64.079223 L 96.864865,64.297973 C 102.56663,65.436368 106.74662,67.722121 107.11486,73.922973 L 107.23986,74.110473 C 107.86282,66.712495 102.66209,65.57454 96.927365,64.079223 z M 86.177365,64.204223 C 83.114962,64.23387 80.327037,65.342692 79.521115,68.422973 C 80.103295,71.617837 83.298041,72.46756 86.177365,72.610473 C 88.365831,72.634885 90.33461,72.156952 92.146115,70.985473 L 86.864865,67.954223 L 92.864865,68.422973 C 92.282689,65.228102 89.056689,64.347136 86.177365,64.204223 z M 86.364865,64.485473 C 88.850166,64.575734 91.480725,65.86771 92.396115,68.329223 L 85.396115,67.547973 L 91.146115,70.860473 C 89.822785,71.803356 87.82776,71.866759 86.177365,71.985473 C 83.565133,71.871932 80.666332,71.038453 79.958615,68.329223 C 80.47958,65.482697 83.900316,64.731949 86.364865,64.485473 z M 35.896115,64.797973 C 36.438856,65.063158 36.995829,65.349622 37.521115,65.610473 C 40.753158,67.245769 44.129778,68.622206 47.239865,70.485473 L 45.677365,71.235473 C 42.823837,69.118605 39.258701,67.852692 36.021115,66.329223 C 35.562378,66.056898 35.036608,65.788316 34.552365,65.516723 L 34.552365,65.454223 L 35.896115,64.797973 z M 34.521115,66.235473 C 34.891471,66.421339 35.284391,66.614087 35.646115,66.797973 C 39.01962,68.464132 42.522688,69.73812 45.396115,71.891723 L 45.114865,75.172973 C 41.63426,72.996044 37.983479,71.107949 34.333615,69.235473 L 34.364865,69.204223 L 34.521115,66.235473 z M 18.521115,66.735473 C 22.250788,69.174548 26.408774,71.41278 30.489865,73.641723 L 30.427365,75.797973 C 26.299004,73.482636 22.113008,71.162312 18.364865,68.766723 L 18.521115,66.735473 z M 76.364865,67.516723 L 76.052365,67.547973 C 73.478901,70.257581 74.164446,73.417695 77.646115,74.141723 L 77.833615,73.922973 C 75.15373,73.365679 74.278051,69.713934 76.364865,67.516723 z M 33.833615,69.829223 C 37.563417,71.743763 41.286004,73.638516 44.896115,75.735473 L 41.489865,79.860473 C 41.467282,79.819616 41.449901,79.776352 41.427365,79.735473 C 37.871991,77.570837 34.353651,75.44252 30.802365,73.360473 L 33.833615,69.829223 z M 96.927365,70.266723 C 94.53019,70.295689 92.986742,71.095622 92.146115,73.235473 C 93.172696,76.778772 97.354091,76.460007 100.23986,75.391723 C 102.53063,73.781209 101.59044,72.016605 99.583615,70.766723 L 96.646115,73.204223 L 96.927365,70.266723 z M 96.677365,70.579223 L 96.427365,73.922973 L 99.583615,71.110473 C 101.43569,72.145511 101.71511,74.131461 99.771114,74.891723 C 97.349318,76.033994 93.284254,76.073848 92.739865,72.891723 C 93.173014,71.151786 95.069039,70.807616 96.677365,70.579223 z M 47.583615,70.672973 C 47.615756,70.692742 47.645286,70.715589 47.677365,70.735473 C 50.01979,73.901772 52.19877,77.124306 54.489865,80.266723 L 52.989865,80.922973 C 51.758831,79.092526 50.590063,77.248988 49.427365,75.422973 C 48.568365,73.865721 47.441985,72.647314 46.146115,71.610473 L 47.583615,70.672973 z M 45.864865,72.266723 C 47.017372,73.192639 48.052893,74.287585 48.927365,75.610473 C 50.102632,77.607417 51.330319,79.547491 52.614865,81.454223 L 52.489865,84.360473 C 50.63188,81.575601 49.273039,78.783792 46.896115,76.329223 C 46.425854,76.015359 45.96681,75.693817 45.489865,75.391723 L 45.864865,72.266723 z M 30.614865,73.704223 C 34.37483,75.758441 38.055872,77.81343 41.239865,79.985473 C 41.283138,80.060345 41.321735,80.129731 41.364865,80.204223 L 40.927365,82.422973 C 40.803867,82.244763 40.675863,82.069933 40.552365,81.891723 C 37.634848,79.901465 34.265349,77.945214 30.833615,76.016723 L 30.614865,73.704223 z M 121.67736,74.454223 C 121.74794,74.993565 121.76398,75.538643 121.80236,76.079223 C 121.65259,80.82274 118.18296,84.863541 114.39611,88.110473 L 113.36486,86.954223 C 117.34528,83.710256 120.14304,79.588365 119.70861,74.610473 L 121.67736,74.454223 z M 45.239865,75.922973 C 45.625481,76.148944 46.013961,76.379167 46.396115,76.610473 C 48.733834,79.283667 50.423195,82.495279 52.333615,85.485473 C 52.353299,85.518033 52.376385,85.546721 52.396115,85.579223 L 48.302365,90.485473 C 45.875093,87.224225 43.692597,83.765902 41.708615,80.204223 L 41.739865,80.047973 L 45.239865,75.922973 z M 122.33361,76.829223 C 123.41358,77.571917 124.4438,78.524241 125.23986,79.610473 L 122.36486,80.329223 L 122.33361,76.829223 z M 99.739864,78.860473 C 95.628029,81.422627 91.491916,81.626996 87.239865,79.485473 L 86.989865,79.579223 C 91.708973,83.042094 95.803327,81.356845 100.23986,79.016723 L 99.739864,78.860473 z M 121.89611,78.985473 L 121.70861,82.204223 C 121.24684,85.429661 119.04376,88.869222 114.73986,92.391723 L 114.67736,89.047973 C 118.15714,86.278189 120.92415,82.917803 121.89611,78.985473 z M 125.48986,79.985473 C 126.1696,80.992526 126.66174,82.066336 126.83361,83.079223 C 125.98123,88.029534 123.95555,92.540737 121.02111,96.454223 L 114.86486,93.110473 C 119.44757,89.430895 121.8463,85.795091 122.36486,82.172973 L 122.36486,80.516723 L 125.48986,79.985473 z M 41.583615,80.579223 C 43.838434,84.46102 45.928143,87.839922 48.021115,90.797973 L 48.083615,92.735473 C 45.742435,89.357107 43.393544,85.988839 41.052365,82.610473 L 41.583615,80.579223 z M 54.802365,80.672973 C 57.489474,84.335171 60.314758,87.878443 63.677365,91.047973 L 62.021115,92.110473 C 58.706688,88.890794 55.875835,85.142694 53.271115,81.297973 L 54.802365,80.672973 z M 52.989865,81.985473 C 55.597424,85.800231 58.458568,89.398156 61.739865,92.672973 L 61.708615,96.297973 C 58.277752,93.079748 55.340235,89.217937 52.927365,85.047973 C 52.924002,85.043191 52.899474,85.052756 52.896115,85.047973 L 52.896115,85.016723 L 52.989865,81.985473 z M 52.427365,85.610473 C 55.044065,89.914303 58.059139,93.711956 61.521115,96.829223 L 58.458615,101.23547 C 54.617451,98.139397 51.30277,94.514036 48.364865,90.579223 L 52.427365,85.610473 z M 112.95861,87.266723 L 114.02111,88.422973 C 113.33377,89.000044 112.64237,89.555782 111.95861,90.079223 C 109.18438,91.958372 106.33698,93.703962 103.45861,95.204223 L 101.92736,93.704223 C 105.00077,92.236442 108.01106,90.548386 110.92736,88.735473 C 111.6264,88.268397 112.30732,87.77836 112.95861,87.266723 z M 114.27111,89.360473 L 114.45861,92.641723 C 113.83514,93.141236 113.16856,93.639645 112.45861,94.141723 C 109.43539,96.27975 106.55615,98.048084 103.80236,99.516723 L 103.73986,95.704223 C 106.82583,94.118048 109.85988,92.334167 112.77111,90.454223 C 113.28468,90.098321 113.78081,89.738598 114.27111,89.360473 z M 125.11486,90.422973 C 124.16864,92.873543 122.88575,95.166033 121.36486,97.297973 L 121.23986,96.829223 C 122.78908,94.828697 124.11494,92.689009 125.11486,90.422973 z M 48.177365,91.016723 C 51.267254,95.351205 54.422389,98.800143 58.333615,101.76672 L 58.458615,104.32922 C 55.733634,102.50077 53.768356,100.63625 52.177365,98.641723 C 50.881586,96.771889 49.566894,94.917807 48.271115,93.047973 L 48.271115,93.016723 L 48.177365,91.016723 z M 63.927365,91.266723 C 64.274779,91.589948 64.630679,91.920309 64.989865,92.235473 C 69.131543,95.526394 73.417785,97.406041 77.771115,98.204223 L 75.896115,99.954223 C 72.261789,99.035395 68.647179,97.37331 65.083615,94.829223 C 64.162418,94.098613 63.279945,93.323772 62.427365,92.516723 L 63.927365,91.266723 z M 62.239865,93.172973 C 62.931054,93.847105 63.636277,94.528433 64.364865,95.172973 C 68.013092,98.064649 71.778212,99.866992 75.583615,100.82922 L 75.489865,104.26672 C 70.426779,102.87913 65.99973,100.20654 62.177365,96.735473 L 62.239865,93.172973 z M 114.61486,93.297973 L 120.83361,96.672973 C 117.99158,100.39519 114.32013,103.58266 110.02111,106.01672 L 104.23986,100.04797 C 106.96505,98.573787 109.79786,96.80691 112.77111,94.704223 C 113.42759,94.239961 114.02857,93.761324 114.61486,93.297973 z M 101.42736,93.954223 L 103.02111,95.422973 C 99.242275,97.358415 95.404535,98.892777 91.521115,99.829223 L 90.708615,97.735473 C 94.321281,96.915721 97.914376,95.598198 101.42736,93.954223 z M 103.23986,95.954223 L 103.23986,99.829223 C 99.154028,101.9579 95.351465,103.39871 91.833615,104.26672 L 91.802365,104.14172 L 91.646115,100.48547 C 95.576132,99.472296 99.448624,97.869487 103.23986,95.954223 z M 121.02111,97.141723 L 121.08361,97.672973 C 118.24606,101.53177 114.55347,104.82678 110.17736,107.36047 L 110.08361,106.32922 C 114.42983,103.89166 118.14329,100.76976 121.02111,97.141723 z M 61.958615,97.172973 C 65.878583,100.60615 70.333683,103.17146 75.427365,104.67297 L 74.427365,109.64172 C 68.295783,107.83603 63.106461,104.95094 58.614865,101.36047 L 61.958615,97.172973 z M 90.083615,97.891723 L 90.864865,99.985473 C 86.094431,101.05111 81.275322,101.1849 76.489865,100.07922 L 78.552365,98.297973 C 82.373124,98.886877 86.244925,98.699014 90.083615,97.891723 z M 103.64611,100.36047 L 109.77111,106.14172 C 104.92966,108.83756 99.325741,110.5955 93.239865,111.23547 L 91.989865,104.98547 C 95.602366,104.06632 99.484653,102.55976 103.64611,100.36047 z M 91.021115,100.64172 L 91.114865,104.42297 C 88.566867,105.00216 86.158469,105.29347 83.896115,105.32922 C 81.099142,105.36176 78.45615,105.03276 75.958615,104.39172 L 76.052365,104.04797 L 75.989865,100.92297 C 80.968113,102.10161 86.017583,101.85316 91.021115,100.64172 z M 58.614865,101.95422 C 62.743528,105.0345 67.735586,107.60521 74.333615,110.04797 L 74.333615,110.07922 L 74.396115,111.48547 C 67.201437,109.14488 62.267098,106.85254 58.677365,104.48547 L 58.614865,101.95422 z M 75.864865,104.82922 C 78.322852,105.51832 80.929783,105.97543 83.677365,106.14172 C 86.074592,106.10384 88.618895,105.80685 91.302365,105.17297 L 92.958615,111.26672 C 87.669746,111.79083 82.031885,111.4885 76.239865,110.14172 C 75.684019,110.0012 75.124865,109.86152 74.583615,109.70422 L 75.864865,104.82922 z M 109.86486,106.45422 L 109.80236,107.54797 C 105.02183,110.24947 99.483687,112.05877 93.489865,112.79797 L 93.302365,111.67297 C 99.376577,110.96502 105.00346,109.14224 109.86486,106.45422 z M 74.521115,110.14172 C 74.962675,110.30426 75.377319,110.44868 75.833615,110.61047 L 75.864865,110.61047 L 75.896115,110.64172 C 81.809056,112.01661 87.591354,112.30466 93.021115,111.70422 L 93.146115,112.86047 C 87.488416,113.51692 81.444949,113.20954 75.239865,111.76672 C 75.044931,111.70474 74.869093,111.64112 74.677365,111.57922 L 74.521115,110.14172 z"
       id="path2308" />
  </g>
</svg>
