<?xml version="1.0" encoding="UTF-8" standalone="no"?>
<!-- Created with Inkscape (http://www.inkscape.org/) -->
<svg
   xmlns:dc="http://purl.org/dc/elements/1.1/"
   xmlns:cc="http://creativecommons.org/ns#"
   xmlns:rdf="http://www.w3.org/1999/02/22-rdf-syntax-ns#"
   xmlns:svg="http://www.w3.org/2000/svg"
   xmlns="http://www.w3.org/2000/svg"
   xmlns:xlink="http://www.w3.org/1999/xlink"
   xmlns:sodipodi="http://sodipodi.sourceforge.net/DTD/sodipodi-0.dtd"
   xmlns:inkscape="http://www.inkscape.org/namespaces/inkscape"
   width="128"
   height="128"
   id="svg2"
   sodipodi:version="0.32"
   inkscape:version="0.45+devel"
   version="1.0"
   sodipodi:docname="ruins_outline.svg"
   inkscape:output_extension="org.inkscape.output.svg.inkscape">
  <defs
     id="defs4">
    <filter
       height="1.42432"
       y="-0.21216"
       width="1.2179726"
       x="-0.1089863"
       id="filter2892"
       inkscape:collect="always">
      <feGaussianBlur
         id="feGaussianBlur2894"
         stdDeviation="0.72146876"
         inkscape:collect="always" />
    </filter>
    <radialGradient
       r="8.2519293"
       fy="222.04396"
       fx="14.207293"
       cy="222.04396"
       cx="14.207293"
       gradientTransform="scale(1.39523,0.716728)"
       gradientUnits="userSpaceOnUse"
       id="radialGradient1968"
       xlink:href="#linearGradient2057"
       inkscape:collect="always" />
    <linearGradient
       inkscape:collect="always"
       id="linearGradient2057">
      <stop
         style="stop-color:#000000;stop-opacity:1;"
         offset="0"
         id="stop2059" />
      <stop
         style="stop-color:#000000;stop-opacity:0;"
         offset="1"
         id="stop2061" />
    </linearGradient>
  </defs>
  <sodipodi:namedview
     id="base"
     pagecolor="#ffffff"
     bordercolor="#666666"
     borderopacity="1.0"
     gridtolerance="10000"
     guidetolerance="10"
     objecttolerance="10"
     inkscape:pageopacity="0.0"
     inkscape:pageshadow="2"
     inkscape:zoom="1"
     inkscape:cx="64"
     inkscape:cy="64"
     inkscape:document-units="px"
     inkscape:current-layer="layer1"
     showgrid="false"
     width="744.09px"
     inkscape:window-width="1248"
     inkscape:window-height="975"
     inkscape:window-x="426"
     inkscape:window-y="24"
     showguides="true"
     inkscape:guide-bbox="true" />
  <metadata
     id="metadata7">
    <rdf:RDF>
      <cc:Work
         rdf:about="">
        <dc:format>image/svg+xml</dc:format>
        <dc:type
           rdf:resource="http://purl.org/dc/dcmitype/StillImage" />
      </cc:Work>
    </rdf:RDF>
  </metadata>
  <g
     inkscape:label="Layer 1"
     inkscape:groupmode="layer"
     id="layer1">
    <path
       style="fill:#5c2700;fill-opacity:1;fill-rule:evenodd;stroke:none;stroke-width:0.99999994000000003px;stroke-linecap:butt;stroke-linejoin:miter;stroke-opacity:1"
       d="M 100.5,21.09375 L 98.75,21.46875 L 98.71875,22.4375 L 98.09375,22.46875 L 96.84375,21.875 L 94.84375,22.3125 L 94.65625,25.34375 L 67,39.40625 L 63.59375,39.40625 L 57.90625,33.6875 L 49.1875,30.875 L 40.625,24.65625 L 31.4375,24.78125 L 28.78125,25.71875 L 61.3125,50.21875 L 58.0625,56.5625 L 59.84375,57.78125 L 68.90625,54.90625 L 82.75,67.78125 L 85.125,66.875 L 83.65625,57.46875 L 81.40625,50.71875 L 95.65625,46.03125 C 99.091975,48.597291 103.51718,49.329724 107.5625,48.75 L 120.1875,64.40625 L 122.6875,63 L 122.25,53.9375 L 115.15625,45.625 C 115.55958,45.300229 115.93979,44.962834 116.28125,44.59375 L 115.96875,39.03125 C 115.97143,37.636714 116.12207,34.875828 116.28125,33.15625 L 113.375,28.9375 C 111.38969,28.168285 110.1536,26.78935 108.375,25.6875 C 108.18234,25.55461 107.95736,25.449864 107.71875,25.34375 C 106.47298,24.857949 105.0376,24.497523 103.71875,24.09375 L 100.5,21.09375 z M 100.3125,21.59375 C 100.46992,21.711682 101.70344,22.924153 103.09375,24 L 102.125,24.4375 L 99.1875,21.875 L 100.3125,21.59375 z M 99.03125,22.1875 L 101.46875,24.40625 L 98.6875,23 L 99.0625,22.53125 L 99.03125,22.1875 z M 96.84375,22.3125 L 101.46875,25.125 L 100.1875,25.59375 L 95.40625,22.5625 L 96.84375,22.3125 z M 95.03125,22.59375 L 99.96875,26.21875 L 100.28125,30.1875 L 97.40625,32.53125 L 96.90625,37.28125 L 98.1875,40.34375 L 96.78125,42.59375 L 97,42.65625 L 98.375,40.96875 L 100.84375,42.34375 L 100.8125,45.5 L 100.9375,45.375 L 101.34375,42.75 L 102.9375,42.75 L 103,42.6875 L 101.4375,42.1875 L 98.71875,40.40625 L 97.46875,37.3125 L 97.84375,33.59375 L 99.65625,36.875 L 103.375,37.6875 L 103.4375,37.5625 L 99.9375,36.78125 L 98.1875,32.78125 L 97.90625,32.90625 L 100.78125,30.59375 L 109.3125,34.65625 L 107.28125,35.53125 L 107.125,48.21875 C 103.44692,48.985668 99.735901,47.796098 96.4375,45.78125 L 96.84375,26.25 L 94.9375,25.1875 C 94.962352,24.309253 95.007268,23.473245 95.03125,22.59375 z M 68.3125,23.5 L 61.66098,30.221284 L 61.59375,33.53125 C 63.113574,34.48451 65.280431,35.534107 66.870835,36.066794 C 67.031572,36.12063 67.222068,35.529262 67.494632,35.580825 C 67.814104,35.641262 67.997777,35.996547 68.110811,36.02652 C 68.154982,35.840332 68.148533,34.840489 68.449612,34.867299 C 68.632597,34.883593 68.864091,35.776846 68.915086,35.70393 C 70.335645,33.672676 72.179033,30.934197 73.71875,28.8125 L 73.625,25.440034 L 68.3125,23.5 z M 68.46875,23.875 L 72.96875,25.5 L 67.71875,32.125 L 66.375,31.625 L 66.4375,31.59375 L 65.8125,28.90625 L 68.90625,26.8125 L 70.59375,26.75 L 70.59375,26.6875 L 68.97348,26.483277 L 68.125,24.46875 L 68.110473,24.53598 L 68.6875,26.59375 L 65.46875,28.5625 L 65.8125,31.40625 L 62.15625,30.03125 L 67.80777,24.449493 L 68.46875,23.875 z M 103.5,24.125 C 104.42968,24.852776 105.85859,25.255926 107.0625,25.59375 L 105.8125,26.28125 L 102.46875,24.65625 C 102.76174,24.315035 103.27524,24.17892 103.5,24.125 z M 39.90625,25 L 37.75,25.75 L 29.5,25.75 L 31.46875,25.15625 L 39.90625,25 z M 102.46875,25.0625 L 105.3125,26.40625 L 110.71875,29.9375 L 113.40625,34.25 L 114.34375,37.9375 L 113.5,37.34375 L 111.4375,33.09375 L 102.875,28.96875 L 102.4375,25.34375 L 102.625,25.28125 L 102.46875,25.0625 z M 40.53125,25.125 L 49,31.125 L 46.84375,32.09375 L 38.09375,26.0625 L 40.53125,25.125 z M 101.84375,25.5625 L 102.25,29 L 100.625,29.75 L 100.40625,26.0625 L 101.84375,25.5625 z M 95.09375,25.625 L 96.34375,26.375 L 67.15625,41.75 L 65.21875,40.6875 L 95.09375,25.625 z M 73.3125,25.8125 L 73.3125,28.8125 C 71.754223,30.941189 70.271404,33.186965 68.78125,35.375 C 68.894884,34.474873 68.755979,33.426444 68.90625,32.625 L 70.6875,32 L 71.3125,28.84375 L 71.1875,28.78125 L 70.46875,31.625 L 68.625,32.4375 C 68.371865,32.855881 68.274309,33.376007 68.25,33.90625 L 68.125,32.3125 L 73.3125,25.8125 z M 107.78125,25.8125 C 107.94778,25.880255 108.09815,25.975916 108.25,26.0625 C 109.31805,27.215715 111.43636,28.13021 112.84375,29.125 L 111.03125,29.65625 L 106.15625,26.5 L 107.78125,25.8125 z M 37.40625,26.3125 L 46.40625,32.3125 L 46.03125,35.28125 L 45.25,36.25 L 46.40625,35.6875 L 49.75,38.125 L 49.875,38 L 46.53125,35.375 L 47.15625,32.625 L 54.9375,35.40625 L 60.84375,41.0625 L 64.5625,41.28125 L 61.46875,49.78125 L 30.78125,26.375 L 37.40625,26.3125 z M 96.5,26.71875 L 95.78125,45.6875 L 81.3125,50.375 L 80.28125,47.3125 L 71.875,41.125 L 68.8125,42.21875 L 68.90625,54.46875 L 60.71875,57.15625 L 63.78125,52.09375 L 65.6875,51.9375 L 67.5625,53.5625 L 67.03125,54.46875 L 67.09375,54.46875 L 68.03125,53.53125 L 66.0625,51.71875 L 67.96875,49.0625 L 67.21875,47.75 L 67.03125,47.75 L 67.5,48.90625 L 65.5625,51.40625 L 64.15625,51.46875 L 65.65625,49 L 67.375,42.15625 L 96.5,26.71875 z M 113.25,29.375 L 115.4375,33.0625 L 113.6875,33.6875 L 111.4375,30.09375 L 113.25,29.375 z M 102.5,29.5 L 110.6875,33.3125 L 109.09375,33.875 L 100.9375,30.1875 L 102.5,29.5 z M 62.0625,30.625 L 65.40625,31.78125 L 64.59375,32.40625 L 64.59375,32.4375 L 63.21875,32.8125 L 63.09375,32.875 L 64.75,32.8125 L 65.375,34.4375 L 66.96875,35.46875 L 61.9375,33.28125 L 62.0625,30.625 z M 49.34375,31.34375 L 57.03125,34 L 54.8125,34.875 L 47.3125,32.3125 L 49.34375,31.34375 z M 65.875,31.9375 L 67.8125,32.59375 L 68.0625,35.5 L 65.75,34.125 L 65.09375,32.5 L 65.09375,32.375 L 65.875,31.9375 z M 111.0625,33.46875 L 112.71875,37.46875 L 110.8125,38.15625 L 109.90625,35.03125 L 110.0625,34.96875 L 109.78125,34.71875 L 109.28125,34.15625 L 111.0625,33.46875 z M 115.625,33.65625 L 115.375,38.65625 L 114.53125,38.0625 L 113.90625,34.375 L 115.625,33.65625 z M 57.71875,34.3125 L 63.125,39.4375 L 60.9375,40.5 L 55.5,35.3125 L 57.71875,34.3125 z M 109.28125,35.25 L 112.46875,43.3125 L 110.21875,44.0625 L 107.59375,35.84375 L 109.28125,35.25 z M 16.71875,36.0625 L 11.877534,38.672973 L 11.742736,42.24527 L 27.202027,49.072297 L 33.702027,45.43277 L 33.34375,41.71875 L 16.71875,36.0625 z M 16.875,36.40625 L 32.71875,41.75 L 28.4375,44.1875 L 26.96875,43.34375 L 27.53125,40.59375 L 24.625,39.9375 L 24.144257,40.19223 C 23.746286,39.84601 21.880282,39.185369 21,38.875 L 20.75,38.8125 C 22.001175,39.669215 22.383993,39.57882 23.6875,40.21875 L 20.78125,41.0625 L 20.71875,41.125 L 24.4375,40.25 L 27.045439,40.875 L 26.28125,43.65625 L 27.8125,44.53125 L 26.84375,45.09375 L 14.46875,39.5625 L 15.65625,39.34375 L 15.65625,39.25 L 17.5625,39.0625 L 17.5,38.875 L 15.71875,38.6875 L 15.84375,37.5 L 15.59375,37.375 L 15.5,38.75 L 13.46875,39.125 L 12.59375,38.71875 L 16.875,36.40625 z M 107.90625,37.1875 L 109.71875,44.3125 L 116.03125,51.96875 L 119.1875,55.4375 L 119.59375,63 L 107.78125,48.0625 L 107.90625,37.1875 z M 113,37.75 L 114.5,38.6875 L 111.4375,38.21875 L 113,37.75 z M 111.15625,38.53125 L 115.5625,39.5625 C 115.64732,41.317435 115.75175,43.334391 115.8125,44.34375 C 115.43902,44.625003 115.08183,44.877418 114.71875,45.125 L 112.875,42.96875 L 111.15625,38.53125 z M 12.125,39 L 13.21875,39.46875 L 13.84375,41.125 L 13.84375,41.0625 L 13.90625,39.78125 L 26.65625,45.46875 L 26.8125,48.53125 L 12.096284,42.06723 L 12.125,39 z M 66.25,39.78125 L 64.84375,40.5 L 64.71875,40.84375 L 61.625,40.75 L 63.65625,39.84375 L 66.25,39.78125 z M 65.09375,40.9375 L 66.8125,41.96875 L 65.3125,48.71875 L 63.6875,51.46875 L 61.75,50.375 L 65.09375,40.9375 z M 71.8125,41.53125 L 79.59375,47.34375 L 77.375,48.125 L 69.34375,42.375 L 71.8125,41.53125 z M 33.1875,41.9375 L 33.5625,45.15625 L 27.34375,48.625 L 27.15625,45.25 L 28.0625,44.75 L 28.65625,45.875 L 28,46.875 L 27.9375,47 L 29.09375,46.1875 L 29.84375,46.3125 L 29.78125,46.1875 L 29.125,45.75 L 28.65625,44.4375 L 33.1875,41.9375 z M 69.1875,42.90625 L 77.28125,48.46875 L 80.59375,58.4375 C 79.895382,58.468765 79.067192,58.491386 78.40625,58.4375 L 78,55.78125 L 77.90625,55.75 L 77.53125,52.75 L 77.40625,52.71875 L 77.53125,55.59375 L 74.96875,54.59375 L 74.8125,54.65625 L 77.46875,56.09375 C 77.613224,56.77157 77.709238,57.576391 77.875,58.28125 L 76.875,59.65625 L 76.9375,59.875 L 78.1875,58.84375 C 78.889017,59.289685 79.92393,59.127319 80.78125,59.125 L 82.21875,66.71875 L 69.53125,54.625 L 69.1875,42.90625 z M 112.78125,43.4375 L 121.46875,53.9375 L 119.3125,54.71875 L 116.375,51.59375 L 110.59375,44.5 L 112.78125,43.4375 z M 79.90625,47.84375 L 83.375,57.625 L 81,58.4375 L 77.75,48.5 L 79.90625,47.84375 z M 40.84375,48.3125 C 39.891443,48.318942 38.950271,48.367355 38,48.40625 L 38.125,51.03125 C 37.65064,51.31449 37.026501,51.27773 36.5,51.4375 L 36.46875,50.90625 L 34.5625,49.125 C 33.106973,49.879636 31.551986,50.176482 29.65625,52.28125 L 29.84375,54.75 C 29.038925,57.621177 29.284853,60.830897 29.46875,63.78125 C 29.90001,64.696695 30.698923,65.317911 31.5,65.90625 L 31,81.71875 L 20.96875,76.8125 L 18.21875,77.75 C 17.532218,78.236722 16.777279,78.463166 16.15625,78.875 L 9.84375,74.1875 L 5.75,73.53125 L 3.25,74.59375 L 31.53125,104.3125 L 34.4375,103.3125 L 35.25,100.84375 L 36.03125,100.15625 C 36.495549,99.738325 38.421614,99.08083 39.53125,98.90625 L 40.09375,101.625 L 44.96875,108.625 L 46.65625,109.78125 C 46.780877,109.91723 46.899639,110.05631 47.03125,110.1875 C 49.277773,109.44123 51.271193,108.28089 52.6875,106.75 L 52.625,105.34375 L 119.9375,80.5 L 117.65625,79.0625 L 105.90625,77.71875 L 91.96875,72.78125 L 77.75,80.4375 L 71,78.4375 L 51.96875,82.59375 L 51.5,83.125 L 50.59375,65.71875 C 51.275589,65.170235 51.655082,64.621957 52,63.875 L 52.03125,62.84375 L 51.53125,59.34375 L 49.21875,56.53125 L 49,56.3125 L 47.8125,55.15625 L 46.875,53.25 L 44.875,52.96875 L 44.46875,51.84375 L 44.5,51.84375 L 43.46875,49.625 C 42.921045,49.273843 41.621798,48.62572 40.84375,48.3125 z M 41.03125,48.71875 L 43,49.75 L 43.59375,51.21875 L 41.78125,49.9375 L 41.03125,48.71875 z M 40.03125,48.75 C 40.260666,48.743181 40.508458,48.747643 40.75,48.75 L 41.28125,49.78125 C 40.754775,49.781088 40.197117,49.835895 39.5625,50 L 38.90625,48.875 C 39.303555,48.795631 39.672163,48.760672 40.03125,48.75 z M 38.3125,48.9375 L 39.15625,50.1875 L 39.4375,52.0625 L 38.46875,50.84375 L 38.3125,48.9375 z M 34.4375,49.625 L 35.625,50.75 C 34.196724,51.146516 33.20473,51.52562 32.21875,52.9375 L 30.5625,52.03125 C 31.595222,50.741238 32.776285,50.285035 34.4375,49.625 z M 41.4375,50.3125 C 41.565817,50.314933 41.687372,50.334991 41.8125,50.34375 L 43.875,51.8125 L 43.90625,51.84375 L 42.5625,52.46875 L 41.21875,51.28125 L 41.28125,51.40625 L 42.34375,53.03125 L 44.21875,52.375 L 44.6875,53.84375 C 43.265451,53.456323 41.726233,53.381651 40.1875,53.5625 C 37.818426,53.95504 35.301362,54.716148 33.59375,56.5 L 32.5,55.8125 L 32.4375,55.5625 L 32.34375,53.5625 C 33.221049,52.11936 34.581866,51.599378 36.125,51.15625 L 36.34375,53.1875 C 37.060183,53.210689 37.860626,53.230974 39.75,52.625 L 39.53125,50.53125 C 40.15213,50.328171 40.797285,50.342358 41.4375,50.3125 z M 61.65625,50.625 L 63.4375,51.71875 L 60,57.375 L 58.46875,56.34375 L 61.65625,50.625 z M 38.25,51.34375 L 39.0625,52.5 C 38.328416,52.792766 37.706843,53.064834 36.78125,52.96875 L 36.75,51.75 C 37.384604,51.772575 37.709336,51.672691 38.25,51.34375 z M 30.09375,52.46875 L 31.96875,53.375 L 32.03125,55.3125 C 31.46487,55.196628 30.934793,55.146284 30.21875,54.65625 L 30.09375,52.46875 z M 45.03125,53.4375 L 46.625,53.5625 L 47.3125,55.09375 L 44.78125,54.75 L 45.3125,54.25 L 45.03125,53.4375 z M 41.46875,53.96875 C 42.606869,53.949583 43.703135,54.050621 44.71875,54.3125 L 44.21875,55 L 47.375,55.5625 C 47.857449,55.930641 48.302504,56.371941 48.71875,56.90625 C 48.736968,57.204607 48.614617,57.307694 48.4375,57.5 L 47.65625,55.96875 C 45.623935,56.95264 43.537815,57.83446 41.0625,57.84375 L 40.78125,60.71875 C 39.67386,60.712011 38.93007,60.811626 37.71875,60.34375 L 37.46875,58 C 35.932788,57.719956 34.708619,57.317048 33.96875,56.84375 C 35.63474,55.162722 37.976413,54.417206 40.25,54.03125 C 40.668945,54.000772 41.061187,53.975614 41.46875,53.96875 z M 121.75,54.03125 L 122.34375,62.75 L 120.1875,63.9375 L 119.40625,55.03125 L 121.75,54.03125 z M 30.25,55.3125 L 32.03125,55.71875 L 32.15625,55.96875 L 30.3125,56.4375 L 30.03125,57.71875 C 29.931587,57.047288 30.024029,55.986285 30.25,55.3125 z M 32.59375,56.34375 C 33.300981,57.202905 34.481133,57.743104 36.59375,58.1875 L 35.09375,58.9375 C 33.57106,58.433483 32.049647,58.957114 30.875,56.9375 L 32.59375,56.34375 z M 47.5,56.4375 L 48.1875,58.34375 C 45.996401,58.965885 44.350233,59.726609 42.03125,59.65625 L 41.59375,58.21875 C 43.487895,58.043736 45.380846,57.552217 47.5,56.4375 z M 49.25,57.46875 L 50.96875,59.34375 C 50.483214,59.965172 49.827046,60.477856 49.1875,60.9375 L 48.90625,58.5625 L 48.65625,58 C 48.994237,57.853338 49.127884,57.784216 49.25,57.46875 z M 30.46875,57.65625 C 31.534107,59.096527 33.368414,59.008781 34.96875,59.59375 L 34.90625,61.75 L 33.96875,63 L 32.59375,63.21875 L 32.71875,63.4375 L 34.09375,63.5625 L 35.09375,65.5625 L 35.28125,65.46875 L 34.4375,63.21875 L 35.34375,62.375 C 36.481083,62.714665 37.809906,62.950227 41.25,63.0625 L 42.3125,64.78125 L 43.96875,64.40625 L 47.75,65.90625 L 47.71875,65.78125 L 44.65625,64.09375 L 46.65625,62.65625 L 48.1875,63.6875 L 48.21875,63.59375 L 47.03125,62.375 L 46.40625,61.125 L 46.15625,61.09375 L 46.71875,62.34375 C 45.91492,62.778666 44.990184,63.314807 44.1875,63.84375 L 44.0625,63.78125 L 42.65625,64.21875 L 41.90625,62.71875 L 41.90625,62.6875 L 42,60.375 C 44.460452,60.43308 46.333599,59.481463 48.53125,58.875 L 48.9375,61.71875 C 49.863632,61.118038 50.603867,60.659794 51.1875,59.90625 L 51.65625,63.125 C 51.652655,63.213469 51.633709,63.295571 51.625,63.40625 C 49.353539,67.080523 44.814082,68.010996 40.875,68.0625 C 37.024854,67.864033 32.545914,67.150593 30.15625,63.71875 C 29.985631,61.578169 29.346448,59.388468 29.78125,57.8125 L 30.21875,58.875 L 30.46875,57.65625 z M 83.1875,58 L 84.78125,66.6875 L 82.84375,67.375 L 81.15625,58.90625 L 83.1875,58 z M 41.1875,58.40625 L 41.65625,60 L 41.46875,62.34375 L 41.125,60.65625 L 41.1875,58.40625 z M 37.21875,58.46875 L 37.28125,60.3125 L 35.40625,61.4375 L 35.5,59.625 L 37.21875,58.46875 z M 37.625,60.6875 C 38.904983,61.17429 39.725044,61.114473 40.84375,61.125 L 41.09375,62.53125 C 39.174235,62.61455 37.440476,62.490943 35.6875,61.78125 L 37.625,60.6875 z M 32.125,66.1875 C 34.831589,67.746782 37.68108,68.36175 40.75,68.5 C 44.009077,68.520061 47.171264,68.146109 49.9375,66.3125 C 50.795255,73.214845 51.799561,99.534495 52.21875,106.5 C 50.514911,107.78309 48.882796,108.69375 47.3125,109.34375 L 47.84375,106.625 L 47.71875,106.53125 L 48.28125,103.4375 L 50.8125,100.34375 L 50.625,100.21875 L 48.4375,102.53125 L 46.96875,97.75 L 46.9375,97.875 L 48,102.90625 L 48.09375,102.875 L 47.84375,103.15625 L 47.28125,106.125 L 42.75,102.1875 L 40.53125,95.8125 L 40.625,95.875 L 46.625,91.28125 C 46.867548,90.286194 46.05507,88.528038 46.125,87.28125 C 47.491896,85.499494 48.538157,83.542 49.59375,81.5625 L 47.875,76 L 47.78125,75.9375 L 49.34375,81.625 C 48.451055,83.279584 47.049012,84.657838 46.09375,86.28125 L 46.125,83.53125 L 43.5625,82.25 L 44.1875,78.6875 L 44.15625,78.65625 L 43.1875,82.03125 L 40.46875,81.5625 L 40.5625,81.71875 L 43.0625,82.5 L 43,82.65625 L 45.90625,83.6875 C 45.824281,84.706062 45.678101,85.957724 45.6875,87.0625 C 45.206352,88.327005 45.883176,89.668064 46.25,90.90625 L 40.0625,95.34375 L 35.5,95.03125 L 35.84375,91.15625 L 37.96875,88.875 L 41.125,87.75 L 41,87.53125 L 37.75,88.6875 L 36.15625,90.25 L 36.40625,87.375 L 38.09375,87.0625 L 38.09375,87.03125 L 36.15625,87.09375 L 35.5,91 L 34.59375,94.625 L 31.46875,92.625 L 33.59375,90.3125 L 32.40625,88.09375 L 32.21875,88.125 L 33.25,90.1875 L 31.03125,92.09375 C 31.277887,81.948985 31.692547,70.489425 32.125,66.1875 z M 91.90625,73.09375 L 93.375,74.28125 L 79.5,82.15625 L 78,80.84375 L 91.90625,73.09375 z M 92.3125,73.125 L 105.84375,78.03125 L 106.53125,79 L 93.78125,74.09375 L 92.3125,73.125 z M 6.03125,73.875 L 9.40625,74.34375 L 7.34375,75.34375 L 3.90625,74.59375 L 6.03125,73.875 z M 93.8125,74.375 L 106.4375,79.3125 L 103.5,81.09375 L 103.1875,81.65625 L 99.21875,81 L 99.25,81.09375 L 102.78125,82.3125 L 101.21875,85.09375 L 96.9375,87.65625 L 97.09375,87.78125 L 101.4375,85.4375 L 103.84375,81.46875 L 106.90625,79.5 L 107.25,79.625 L 112.40625,80 C 112.6883,79.912963 113.06171,80.573551 113.34375,80.59375 L 113.9375,80.25 L 115.1875,81.21875 L 115.4375,80.21875 L 119.03125,80.46875 L 52.59375,104.875 L 51.65625,86.28125 L 51.71875,86.3125 L 53.90625,84.46875 L 72.34375,80.21875 L 79.25,82.65625 L 79.75,85.375 L 77.90625,88.5 L 78,88.53125 L 80.34375,85.625 L 82.59375,86.21875 L 82.65625,86.1875 L 80.28125,85.3125 L 79.78125,82.5 L 93.8125,74.375 z M 9.84375,74.5625 L 15.84375,79.125 C 15.399785,79.451967 15.002192,79.813805 14.6875,80.3125 L 7.75,75.5625 L 9.84375,74.5625 z M 4,74.8125 L 7.125,75.6875 L 14.46875,80.75 L 14.90625,84.4375 L 17.25,85.46875 L 17.3125,85.375 L 15.40625,84.21875 L 14.9375,80.5 C 15.749442,79.41643 17.243492,78.72304 18.3125,78.03125 C 22.494921,80.450037 26.561508,82.414469 30.90625,84.5 L 30.625,93.375 L 34.6875,99.34375 L 32.78125,101 L 30.59375,98.8125 L 30.15625,98.8125 L 30.34375,98.65625 L 29.28125,95.8125 L 29.3125,96 L 29.84375,98.78125 L 27.75,98.75 L 27.59375,98.78125 L 30.3125,99.25 L 32.375,101.59375 L 31.8125,103.4375 L 4,74.8125 z M 20.8125,77.1875 L 31,82.375 L 30.9375,83.96875 C 26.662369,82.196359 23.160911,79.90185 19.03125,77.9375 L 20.8125,77.1875 z M 106.125,78 L 117.53125,79.3125 L 119.0625,80.0625 L 115.125,79.78125 L 115.03125,80.78125 L 113.9375,79.6875 L 113.4375,80.34375 L 112.5625,79.59375 L 107.0625,79.21875 L 106.125,78 z M 70.9375,78.75 L 71.96875,79.875 L 53.71875,84.09375 L 51.96875,83.0625 L 70.9375,78.75 z M 71.46875,78.84375 L 77.625,80.78125 L 78.75,81.8125 L 72.5625,79.96875 L 71.46875,78.84375 z M 51.8125,83.28125 L 53.375,84.21875 L 51.625,85.75 L 51.53125,83.78125 L 51.8125,83.28125 z M 31.0625,92.71875 L 34.375,95.0625 L 37.1875,98.34375 L 35,99.15625 C 33.721363,97.225983 31.80737,94.64835 30.75,93.03125 L 31.0625,92.71875 z M 34.875,95.1875 L 38.84375,95.6875 L 39.40625,98.34375 C 38.515386,98.299933 37.966551,98.73437 37.1875,99.1875 L 38.03125,98.4375 L 34.875,95.1875 z M 39.5625,95.75 L 39.90625,95.78125 L 42.125,102.15625 L 40.5625,101.53125 L 39.5625,95.75 z M 99.375,98.9375 C 98.958786,99.191008 99.0142,100.42159 98.53125,100.65625 C 98.054805,100.88776 97.598107,100.8318 97.1875,101.28125 C 96.858507,101.64137 95.985239,101.27103 95.65625,101.59375 L 84.993276,112.34241 L 85.28125,119.5625 L 91.625,122.28125 L 92.65625,121.3125 L 93.3125,122.3125 L 94.34375,121.96875 L 94.96875,123.71875 L 98.220095,124.81922 C 101.58765,119.48486 105.65825,114.32495 109.1875,108.90625 L 108.84375,102.3125 L 101.53125,99.53125 L 100.8125,100.09375 L 99.375,98.9375 z M 36.84375,99.03125 L 35,100.6875 L 32.96875,101.375 L 35.21875,99.5 L 36.84375,99.03125 z M 99.59375,99.53125 L 100.53125,100.3125 L 100.09375,101.625 L 100.15625,101.65625 L 98.90625,102.71875 L 99.0625,102.75 L 100.71875,102 L 102.5625,103.1875 L 102.625,103.125 L 100.5625,101.53125 L 101.28125,100.0625 L 101.15625,100.09375 C 101.22153,99.956762 101.29061,99.860252 101.40625,99.90625 L 108.1875,102.3125 L 97.21875,116.1875 L 93.34375,114.84375 L 95.875,113.90625 L 96.71875,110.625 L 100.3125,109.4375 L 102.1875,107.4375 L 102.0625,107.25 L 100.15625,109.03125 L 97.15625,109.84375 L 98.25,108.40625 L 96.28125,110.09375 L 96.375,110.125 L 95.53125,113.4375 L 92.5625,114.3125 L 90.75,111.5 L 91.71875,109 L 91.53125,108.875 L 90.625,110.6875 L 88.9375,110.28125 L 87.9375,111.5 L 88.125,111.71875 L 88.875,110.90625 L 90.3125,111.34375 L 90.1875,111.5625 L 91.8125,114.3125 L 85.78125,112.1875 L 95.75,102.21875 L 96.875,101.90625 L 96.375,103.71875 L 96.5625,103.65625 L 97.46875,101.71875 L 98.875,100.71875 L 99.59375,99.53125 z M 34.84375,101.15625 L 34.21875,103.03125 L 32.0625,103.78125 L 32.84375,101.90625 L 34.84375,101.15625 z M 40.84375,102.03125 L 42.5,102.75 L 47.34375,107 L 46.9375,109.75 L 45.34375,108.625 L 40.84375,102.03125 z M 108.46875,102.8125 L 108.9375,108.9375 C 105.70898,114.26485 101.68238,118.74914 98.1875,123.875 L 97.71875,116.71875 L 97.65625,116.6875 L 108.46875,102.8125 z M 85.46875,112.5625 L 92.1875,114.90625 L 92.21875,114.96875 L 91.59375,116.625 L 90.1875,116.6875 L 88.4375,114.28125 L 88.3125,114.5 L 89.5,116.75 L 88.21875,118.25 L 88.28125,118.3125 L 89.84375,117.1875 L 91.625,117.125 L 93.6875,118.59375 L 92.5,120.90625 L 91.84375,121.6875 L 86,119.1875 L 85.46875,112.5625 z M 92.65625,115.09375 L 97.25,116.6875 L 97.71875,124.28125 C 96.906512,123.93468 95.564912,123.34657 94.90625,123 L 94.53125,121.1875 L 93.4375,121.84375 L 93.21875,121.34375 L 93.28125,121.375 L 94.28125,118.84375 L 95.96875,118.09375 L 95.9375,117.96875 L 93.96875,118.21875 L 91.875,116.9375 L 92.65625,115.09375 z"
       id="path2312"
       sodipodi:nodetypes="cccccccccccccccccccccccccccccccccccccccccccccccccccccccccccccccccccccccccccccccccccccccsscssccccccccccccccccccccccccccccccccccccccccccccccccccccccccccccccccccccccccccccccccccccccccccccccccccccccccccccccccccccccccccccccccccccccccccccccccccccccccccccccccccccccccccccccccccccccccccccccccccccccccccccccccccccccccccccccccccccccccccccccccccccccccccccccccccccccccccccccccccccccccccccccccccccccccccccccccccccccccccccccccccccccccccccccccccccccccccccccccccccccccccccccccccccccccccccccccccccccccccccccccccccccccccccccccccccccccccccccccccccccccccccccccccccccccccccccccccccccccccccccccccccccccccccccccccccccccccccccccccccccccccccccccccccccccccccccccccccccccccccccccccccccccccccccccccccccccccccccccccccccccccccccccccccccccccccccccccccccccccccccccccccccccccccccccccccccccccccccccccccccccccccccccccccccsscccccccccccccccccccccccccccccccccccccccccccccccccccccccccccccccccccccccccccccccccccccccccccccccccccccccccccccccccc" />
  </g>
</svg>
