<?xml version="1.0" encoding="UTF-8" standalone="no"?>
<!-- Created with Inkscape (http://www.inkscape.org/) -->
<svg
   xmlns:dc="http://purl.org/dc/elements/1.1/"
   xmlns:cc="http://creativecommons.org/ns#"
   xmlns:rdf="http://www.w3.org/1999/02/22-rdf-syntax-ns#"
   xmlns:svg="http://www.w3.org/2000/svg"
   xmlns="http://www.w3.org/2000/svg"
   xmlns:xlink="http://www.w3.org/1999/xlink"
   xmlns:sodipodi="http://sodipodi.sourceforge.net/DTD/sodipodi-0.dtd"
   xmlns:inkscape="http://www.inkscape.org/namespaces/inkscape"
   width="128"
   height="128"
   id="svg2"
   sodipodi:version="0.32"
   inkscape:version="0.45+devel"
   version="1.0"
   sodipodi:docname="sign_left_outline.svg"
   inkscape:output_extension="org.inkscape.output.svg.inkscape">
  <defs
     id="defs4">
    <filter
       height="1.42432"
       y="-0.21216"
       width="1.2179726"
       x="-0.1089863"
       id="filter2892"
       inkscape:collect="always">
      <feGaussianBlur
         id="feGaussianBlur2894"
         stdDeviation="0.72146876"
         inkscape:collect="always" />
    </filter>
    <radialGradient
       r="8.2519293"
       fy="222.04396"
       fx="14.207293"
       cy="222.04396"
       cx="14.207293"
       gradientTransform="scale(1.39523,0.716728)"
       gradientUnits="userSpaceOnUse"
       id="radialGradient1968"
       xlink:href="#linearGradient2057"
       inkscape:collect="always" />
    <linearGradient
       inkscape:collect="always"
       id="linearGradient2057">
      <stop
         style="stop-color:#000000;stop-opacity:1;"
         offset="0"
         id="stop2059" />
      <stop
         style="stop-color:#000000;stop-opacity:0;"
         offset="1"
         id="stop2061" />
    </linearGradient>
  </defs>
  <sodipodi:namedview
     id="base"
     pagecolor="#ffffff"
     bordercolor="#666666"
     borderopacity="1.0"
     gridtolerance="10000"
     guidetolerance="10"
     objecttolerance="10"
     inkscape:pageopacity="0.0"
     inkscape:pageshadow="2"
     inkscape:zoom="1"
     inkscape:cx="64"
     inkscape:cy="99.758751"
     inkscape:document-units="px"
     inkscape:current-layer="layer1"
     showgrid="false"
     width="744.09px"
     inkscape:window-width="1248"
     inkscape:window-height="975"
     inkscape:window-x="426"
     inkscape:window-y="24" />
  <metadata
     id="metadata7">
    <rdf:RDF>
      <cc:Work
         rdf:about="">
        <dc:format>image/svg+xml</dc:format>
        <dc:type
           rdf:resource="http://purl.org/dc/dcmitype/StillImage" />
      </cc:Work>
    </rdf:RDF>
  </metadata>
  <g
     inkscape:label="Layer 1"
     inkscape:groupmode="layer"
     id="layer1">
    <path
       style="fill:#5c2700;fill-opacity:1;fill-rule:evenodd;stroke:none;stroke-width:1px;stroke-linecap:butt;stroke-linejoin:miter;stroke-opacity:1"
       d="M 59.890625,16.71875 C 58.652895,16.727269 57.574111,17.697272 56.484375,18.59375 L 55.265625,28.25 L 56.359375,33.25 L 46.390625,34.78125 L 44.953125,45.71875 L 45.828125,46.78125 L 46.359375,53.75 L 49.734375,57.0625 L 56.203125,54.03125 L 56.046875,72.75 C 54.566252,78.833249 54.372613,84.916751 55.890625,91 L 55.859375,95.46875 C 54.549516,95.661644 53.331474,96.633296 52.203125,97.3125 C 51.170979,98.925086 50.173658,100.66573 48.984375,102.21875 C 47.026277,104.26887 46.254888,107.13781 49.078125,108.5 L 49.109375,108.5 L 49.171875,108.5 C 51.703116,108.52337 54.397939,107.012 56.078125,105.75 C 57.37643,106.49529 58.707634,107.05684 60.203125,106.71875 C 62.321508,108.4547 64.886764,109.19142 67.609375,109.5 C 70.016166,109.45317 71.722277,107.51065 74.046875,107.25 C 75.898468,107.69146 76.636409,106.94599 76.921875,105.125 C 75.248572,101.48839 72.251799,99.82379 68.796875,98.6875 L 68.921875,98.6875 C 69.428982,95.196403 65.548723,93.772843 62.609375,93.90625 L 62.515625,64.625 C 62.914803,59.822653 62.488758,55.428688 64.078125,50.03125 L 76.484375,44.28125 L 83.046875,35 L 72.234375,30.53125 C 69.191473,31.007333 65.944244,31.754335 62.890625,32.3125 L 62.328125,17.96875 C 61.431586,17.050453 60.633263,16.713639 59.890625,16.71875 z M 59.171875,17.90625 C 59.823778,17.900568 60.54404,18.341178 61.328125,19.0625 L 61.390625,32.375 C 60.455233,32.544855 60.453049,32.544788 59.484375,32.71875 C 58.73109,32.854031 58.108586,32.960397 57.359375,33.09375 L 56.640625,29.125 L 57.484375,19.46875 C 57.93643,18.363905 58.519972,17.911932 59.171875,17.90625 z M 61.109375,19.4375 C 60.04889,19.854852 58.949364,20.662611 58.046875,19.5 L 57.859375,19.875 C 58.911959,22.26883 59.788644,20.741257 60.859375,20.0625 L 61.109375,19.4375 z M 71.484375,31.53125 L 73.265625,31.96875 L 50.359375,37.3125 L 47.703125,35.21875 C 55.595691,33.924241 63.619628,32.983719 71.484375,31.53125 z M 74.859375,32.59375 L 82.109375,35.21875 L 75.953125,43.4375 L 61.484375,50.375 L 61.453125,50.375 L 61.453125,50.40625 L 50.515625,56.0625 L 50.640625,47.75 L 49.328125,46.78125 L 50.796875,38.21875 L 74.859375,32.59375 z M 47.140625,35.8125 L 49.796875,38.125 L 48.734375,46.6875 L 49.765625,47.5625 L 49.765625,55.78125 L 46.921875,53.4375 L 46.421875,46.78125 L 45.546875,45.71875 L 47.140625,35.8125 z M 70.203125,37.125 L 67.953125,37.15625 L 63.359375,40.1875 L 61.546875,38.375 L 58.640625,41.15625 L 56.828125,39.65625 L 56.234375,42.75 C 55.098699,42.512641 54.344474,41.478118 53.578125,40.6875 L 53.234375,40.75 C 54.049941,42.302909 55.058775,43.115226 56.640625,43.5 L 57.515625,41.09375 L 58.578125,41.59375 L 61.546875,38.78125 L 63.109375,40.8125 C 65.613993,39.400131 67.318251,37.772078 70.328125,38.125 L 73.359375,38.5 L 73.484375,38.46875 L 70.359375,37.125 L 70.265625,37.125 L 70.203125,37.125 z M 68.796875,42.25 L 67.703125,44.34375 L 66.359375,43.78125 L 66.078125,43.9375 L 68.140625,45.65625 L 69.265625,43.5 L 70.203125,43.09375 L 70.234375,42.78125 L 68.796875,42.25 z M 62.109375,44.84375 L 59.390625,47.6875 L 57.734375,46.09375 L 55.765625,49.40625 L 54.671875,47.375 L 54.296875,47.46875 L 55.765625,51.21875 L 58.109375,47.40625 L 59.328125,47.96875 L 61.984375,46 L 62.796875,46.875 L 63.015625,46.78125 L 62.109375,44.84375 z M 63.078125,50.5 C 61.346725,56.055218 62.03902,60.000119 61.515625,64.75 L 61.640625,98.625 C 59.382774,99.794508 58.504849,102.31782 59.609375,105.9375 C 58.525505,106.40887 57.780083,105.74102 56.765625,104.53125 L 56.890625,91.375 C 55.281948,85.166407 55.663316,78.958591 57.046875,72.75 L 57.203125,53.5625 L 63.078125,50.5 z M 62.609375,94.28125 C 65.142788,94.164214 67.801632,96.168978 68.296875,98.53125 C 67.630721,98.323909 66.956189,98.120371 66.265625,97.9375 C 64.885971,97.801984 63.661522,97.915235 62.640625,98.21875 L 62.609375,94.28125 z M 55.859375,96.1875 L 55.765625,104.78125 L 55.734375,104.71875 C 54.218045,105.90796 51.433111,108.08427 49.234375,108.09375 C 47.287235,107.10338 48.454124,104.34363 49.609375,103.03125 L 49.640625,103 L 49.671875,102.96875 C 51.088352,101.4609 51.324078,99.622386 52.265625,98 C 53.168201,97.422605 54.818219,96.661802 55.859375,96.1875 z M 66.171875,98.9375 C 69.823589,99.578677 74.981968,101.46551 76.359375,105.09375 C 76.17215,106.2664 75.356412,106.30287 74.296875,106.25 C 71.887927,106.2943 70.052775,107.96966 67.828125,108.6875 C 65.792239,108.80018 63.904312,108.10536 62.140625,107.1875 L 62.671875,105.4375 L 62.671875,105.40625 L 66.359375,102.25 L 66.203125,102.15625 L 62.421875,104.78125 L 61.546875,102.5 L 61.421875,102.59375 L 62.109375,105.25 L 61.328125,106.71875 C 60.999066,106.53285 60.682049,106.34888 60.359375,106.15625 C 58.617611,101.36648 61.885476,98.94758 66.171875,98.9375 z"
       id="path2316" />
  </g>
</svg>
