<?xml version="1.0" encoding="UTF-8" standalone="no"?>
<!-- Created with Inkscape (http://www.inkscape.org/) -->
<svg
   xmlns:dc="http://purl.org/dc/elements/1.1/"
   xmlns:cc="http://creativecommons.org/ns#"
   xmlns:rdf="http://www.w3.org/1999/02/22-rdf-syntax-ns#"
   xmlns:svg="http://www.w3.org/2000/svg"
   xmlns="http://www.w3.org/2000/svg"
   xmlns:xlink="http://www.w3.org/1999/xlink"
   xmlns:sodipodi="http://sodipodi.sourceforge.net/DTD/sodipodi-0.dtd"
   xmlns:inkscape="http://www.inkscape.org/namespaces/inkscape"
   width="128"
   height="128"
   id="svg2"
   sodipodi:version="0.32"
   inkscape:version="0.45+devel"
   version="1.0"
   sodipodi:docname="sign_crossroad_outline.svg"
   inkscape:output_extension="org.inkscape.output.svg.inkscape">
  <defs
     id="defs4">
    <filter
       height="1.42432"
       y="-0.21216"
       width="1.2179726"
       x="-0.1089863"
       id="filter2892"
       inkscape:collect="always">
      <feGaussianBlur
         id="feGaussianBlur2894"
         stdDeviation="0.72146876"
         inkscape:collect="always" />
    </filter>
    <radialGradient
       r="8.2519293"
       fy="222.04396"
       fx="14.207293"
       cy="222.04396"
       cx="14.207293"
       gradientTransform="scale(1.39523,0.716728)"
       gradientUnits="userSpaceOnUse"
       id="radialGradient1968"
       xlink:href="#linearGradient2057"
       inkscape:collect="always" />
    <linearGradient
       inkscape:collect="always"
       id="linearGradient2057">
      <stop
         style="stop-color:#000000;stop-opacity:1;"
         offset="0"
         id="stop2059" />
      <stop
         style="stop-color:#000000;stop-opacity:0;"
         offset="1"
         id="stop2061" />
    </linearGradient>
  </defs>
  <sodipodi:namedview
     id="base"
     pagecolor="#ffffff"
     bordercolor="#666666"
     borderopacity="1.0"
     gridtolerance="10000"
     guidetolerance="10"
     objecttolerance="10"
     inkscape:pageopacity="0.0"
     inkscape:pageshadow="2"
     inkscape:zoom="1"
     inkscape:cx="64"
     inkscape:cy="81.297297"
     inkscape:document-units="px"
     inkscape:current-layer="layer1"
     showgrid="false"
     width="744.09px"
     inkscape:window-width="1248"
     inkscape:window-height="975"
     inkscape:window-x="426"
     inkscape:window-y="24" />
  <metadata
     id="metadata7">
    <rdf:RDF>
      <cc:Work
         rdf:about="">
        <dc:format>image/svg+xml</dc:format>
        <dc:type
           rdf:resource="http://purl.org/dc/dcmitype/StillImage" />
      </cc:Work>
    </rdf:RDF>
  </metadata>
  <g
     inkscape:label="Layer 1"
     inkscape:groupmode="layer"
     id="layer1">
    <path
       style="fill:#5c2700;fill-opacity:1;fill-rule:evenodd;stroke:none;stroke-width:1px;stroke-linecap:butt;stroke-linejoin:miter;stroke-opacity:1"
       d="M 59.875,16.71875 C 58.63727,16.727269 57.589736,17.697272 56.5,18.59375 L 55.25,28.25 C 55.586478,29.596556 55.854016,30.948312 56.0625,32.3125 L 38.1875,28.9375 L 29.1875,33 L 33.65625,40.21875 L 41.6875,41.71875 L 38.1875,43.5 L 32.75,50.9375 L 43.4375,54.4375 L 56.5,48.34375 C 56.427899,51.00936 56.848017,53.817386 56.75,56.4375 L 56.0625,72.75 C 54.581877,78.833249 54.356988,84.916751 55.875,91 L 56.0625,94.6875 C 56.074143,90.915888 52.012368,92.106239 50.875,92.8125 C 49.842854,94.425085 48.783033,98.902403 47.59375,101.78125 C 45.635653,103.83137 46.239263,107.13781 49.0625,108.5 C 51.717006,108.46041 53.914658,107.16355 56.0625,105.75 C 57.360805,106.49529 58.692009,107.05684 60.1875,106.71875 C 62.305883,108.4547 59.777389,107.59767 62.5,107.90625 C 64.906793,107.85942 66.612902,105.9169 68.9375,105.65625 C 70.789095,106.09771 71.527034,105.35224 71.8125,103.53125 C 70.139199,99.894638 72.267424,99.82379 68.8125,98.6875 C 68.130854,95.541809 64.935153,96.160587 62.1875,96.375 C 64.055176,87.410141 63.364981,74.728464 62.5,64.625 C 62.835384,60.590129 62.613657,56.826928 63.46875,52.53125 C 63.415339,50.770096 63.487766,48.850515 63.5625,46.875 L 82,52.1875 L 90.8125,45.90625 L 83.5,37.875 L 78.375,36.65625 L 84.71875,33.84375 L 91.5625,25.15625 L 78.15625,21.90625 C 72.761301,25.225159 68.884636,28.623793 62.96875,30.90625 L 62.3125,17.96875 C 61.415961,17.050453 60.617638,16.713639 59.875,16.71875 z M 59.1875,17.90625 C 59.839403,17.900568 60.528415,18.341178 61.3125,19.0625 L 61.375,32.375 C 61.390978,32.446602 61.393474,32.521262 61.40625,32.59375 L 61.34375,32.5625 C 59.843198,34.261778 60.001536,37.866762 60.5625,46.03125 L 62.25,46.53125 C 62.246727,48.818052 62.655906,51.245975 62.65625,53.4375 C 62.575351,56.545066 61.785762,61.116371 61.5,64.75 C 63.201984,76.318386 62.731345,87.524669 61.625,98.625 C 59.367149,99.794508 58.520474,102.31782 59.625,105.9375 C 58.54113,106.40887 57.764458,105.74102 56.75,104.53125 L 56.875,91.375 C 55.266323,85.166407 55.678941,78.958591 57.0625,72.75 L 57.1875,54.78125 C 57.139305,52.472644 57.227085,50.220033 57.3125,47.96875 L 59.03125,47.15625 C 60.274328,42.070979 59.75357,34.09781 58.0625,33.46875 L 57.28125,33.875 C 57.141343,32.324358 56.930919,30.7464 56.625,29.125 L 57.5,19.46875 C 57.952055,18.363905 58.535597,17.911932 59.1875,17.90625 z M 61.125,19.4375 C 60.064515,19.854852 58.964989,20.662611 58.0625,19.5 L 57.875,19.875 C 58.927584,22.26883 59.804269,20.741257 60.875,20.0625 L 61.125,19.4375 z M 58.53125,22.34375 L 58.25,22.40625 L 57.40625,28.5 L 57.71875,31.875 L 57.90625,31.875 L 57.9375,28.84375 L 58.53125,22.34375 z M 78.25,22.375 L 87.40625,24.4375 L 78.4375,22.875 C 73.03431,27.283425 68.668035,29.73215 63.25,32.21875 L 63.65625,32.96875 C 68.928256,30.524099 73.727234,27.15826 78.34375,23.65625 L 88.875,24.75 L 90.78125,25.1875 L 84.40625,33.46875 L 77.53125,36.4375 L 63.25,33.03125 C 63.183179,32.643506 63.11163,32.257071 63.03125,31.875 C 69.036326,29.688227 72.881663,25.871965 78.25,22.375 z M 82.375,26.96875 L 81.34375,29.78125 L 78.34375,28.96875 L 77.625,31.3125 C 77.0312,29.922854 75.833427,28.981677 74.9375,28.21875 C 73.740063,29.341353 73.80401,31.4135 73.625,33 L 73.71875,33.09375 C 73.807483,31.906247 74.9223,30.742493 75.21875,29.59375 L 78.0625,32.40625 L 79.0625,30.03125 L 81.5625,30.28125 L 82.8125,28.21875 L 83.8125,28.5625 L 83.96875,28.46875 L 82.375,26.96875 z M 38.53125,29.5 L 56.21875,33.34375 C 56.261606,33.673595 56.276521,34.012852 56.3125,34.34375 L 55.78125,34.625 L 55.875,34.1875 C 50.082479,32.281681 44.074309,31.513771 38.1875,30.125 L 38,30.25 C 41.005729,31.213389 44.117678,31.906629 47.1875,32.65625 C 51.439375,33.700032 55.444954,34.682509 55.59375,34.71875 L 42.4375,41.375 L 34.28125,39.78125 L 30.09375,33.3125 L 38.53125,29.5 z M 61.40625,33.28125 L 82.78125,38.1875 L 90.3125,45.75 L 81.90625,51.75 L 61.125,45.59375 C 61.072917,41.59375 59.838836,38.444248 61.40625,33.28125 z M 39.28125,33.8125 C 38.233323,34.687434 37.659188,36.029017 37.03125,37.21875 L 35.125,35 L 34.84375,35 L 37,38.46875 L 39.40625,35 L 40.65625,37.71875 C 41.335918,36.671945 42.012297,36.139445 42.90625,35.28125 C 44.039589,35.697304 45.060471,36.874089 46.09375,37.53125 L 46.25,37.46875 C 45.066676,36.61131 44.28982,35.064866 42.9375,34.5 C 42.048393,34.820491 41.496542,35.615917 40.90625,36.3125 C 40.70338,34.77945 40.124121,34.431908 39.28125,33.8125 z M 61.5,34.1875 L 61.1875,34.3125 L 81.75,39.1875 L 89.8125,45.84375 L 89.875,45.84375 L 82.4375,38.53125 L 61.5,34.1875 z M 57.8125,34.71875 C 57.98686,34.848377 58.143428,35.029663 58.28125,35.21875 L 39.03125,44.375 L 34.375,49.8125 L 38.5625,43.875 L 57.8125,34.71875 z M 58.375,35.375 C 60.083251,38.052943 58.818771,45.308068 58.375,46.78125 L 43.5,53.875 L 33.96875,50.6875 L 39.5,44.9375 L 58.03125,35.875 L 58.375,35.375 z M 67.46875,38.28125 L 66.03125,40.6875 L 65.25,40.1875 L 64.96875,40.09375 L 66.21875,43.3125 L 67.375,39.8125 L 69.75,43.71875 L 72.625,42.25 C 72.40238,43.355244 72.664516,44.287855 73.0625,45.3125 C 73.227672,45.500671 73.496479,45.65625 73.78125,45.65625 C 75.886545,45.39445 77.625134,44.03757 79.65625,43.4375 L 79.6875,43.1875 C 77.760188,43.803888 75.804135,44.316215 73.8125,44.65625 L 73.8125,40.1875 L 69.90625,42.9375 L 67.46875,38.28125 z M 52.625,43.0625 L 50.0625,44.625 L 48.875,44.15625 L 48.15625,46.15625 C 47.327532,45.423248 46.149392,45.277409 45.3125,45.09375 C 44.67371,45.922612 44.863633,47.004981 44.90625,48 C 44.178951,46.983416 43.194321,46.425895 42.25,45.9375 C 41.02765,46.834865 40.89028,48.584055 40.59375,50 L 40.65625,50.09375 C 40.810596,48.99953 42.084579,48.04013 42.5,47.03125 L 45.53125,49.71875 C 45.6065,48.502054 45.832426,47.288367 45.9375,46.0625 L 48.71875,47.5625 L 49.53125,45.28125 L 50.0625,45.375 L 52.6875,43.15625 L 52.625,43.0625 z M 58.96875,47.8125 L 58.75,48.625 L 58.5625,49.4375 L 58.0625,72.8125 C 57.835943,78.756393 56.786615,84.641114 57.6875,90.6875 L 57.15625,102.6875 L 57.8125,100.15625 L 58.15625,90.9375 C 56.38308,84.672924 58.076976,78.744958 58.375,72.6875 L 58.96875,47.8125 z M 52.28125,92.75 C 52.628106,92.740983 53.003927,92.81848 53.375,92.9375 L 51.28125,96.75 L 50.3125,99.9375 L 47.65625,104.0625 L 47.78125,104.125 L 49.78125,101.75 L 49.1875,103.71875 L 50.0625,105.8125 L 50.1875,105.5625 L 49.65625,103.65625 L 51.53125,96.875 L 54.53125,93.46875 C 55.60698,94.168074 56.353866,95.262952 55.875,96.1875 L 55.78125,102.0625 L 54.5,100.21875 L 54.3125,100.375 L 55.75,104 L 55.75,104.71875 C 54.23367,105.90796 51.448736,108.08427 49.25,108.09375 C 47.30286,107.10338 46.875999,103.37488 48.03125,102.0625 C 49.396638,98.95393 50.429685,96.397909 51.1875,93.125 C 51.482363,92.870171 51.859776,92.760957 52.28125,92.75 z M 64.21875,96.5625 C 66.157985,96.516499 67.941068,96.759546 68.3125,98.53125 C 67.646346,98.323909 66.940564,98.120371 66.25,97.9375 C 64.870346,97.801984 63.645897,97.915235 62.625,98.21875 L 62.28125,96.65625 C 62.914603,96.626992 63.572338,96.577834 64.21875,96.5625 z M 64.78125,98.875 C 65.224695,98.856925 65.684709,98.88325 66.1875,98.9375 C 67.279676,99.129267 68.01634,99.302871 68.59375,99.53125 C 67.040433,100.11058 66.028749,100.99967 65.4375,102.15625 L 65.75,102.375 C 66.752201,100.56792 68.250621,100.50445 69.6875,100.21875 C 70.251768,100.83399 70.605317,101.80183 71.25,103.5 C 71.062777,104.67265 70.247037,104.70912 69.1875,104.65625 C 66.778554,104.70055 64.91215,106.37591 62.6875,107.09375 C 61.59758,107.08247 60.794083,106.62138 60.25,105.9375 C 60.639086,104.73009 60.601897,103.38149 62.25,102.59375 L 62.03125,102.40625 C 60.64408,102.51303 60.238322,103.83998 59.71875,105.03125 C 58.827087,102.65892 60.322607,99.056734 64.78125,98.875 z"
       id="path2316"
       sodipodi:nodetypes="ccccccccccccccccccccccccccccccccccccccccccccccccccccccccccccccccccccccccccccccccccccccccccccccccccccccccccccccccccccccccccccccccccccccccccccccccccccccccccccccccccccccccccccccccccccccccccccccccccccccccccccccccccccccccccccccccccccccccccccccc" />
  </g>
</svg>
