<?xml version="1.0" encoding="UTF-8" standalone="no"?>
<!-- Created with Inkscape (http://www.inkscape.org/) -->
<svg
   xmlns:dc="http://purl.org/dc/elements/1.1/"
   xmlns:cc="http://creativecommons.org/ns#"
   xmlns:rdf="http://www.w3.org/1999/02/22-rdf-syntax-ns#"
   xmlns:svg="http://www.w3.org/2000/svg"
   xmlns="http://www.w3.org/2000/svg"
   xmlns:xlink="http://www.w3.org/1999/xlink"
   xmlns:sodipodi="http://sodipodi.sourceforge.net/DTD/sodipodi-0.dtd"
   xmlns:inkscape="http://www.inkscape.org/namespaces/inkscape"
   width="128"
   height="128"
   id="svg2"
   sodipodi:version="0.32"
   inkscape:version="0.45+devel"
   version="1.0"
   sodipodi:docname="sign_left.svg"
   inkscape:output_extension="org.inkscape.output.svg.inkscape">
  <defs
     id="defs4">
    <linearGradient
       id="linearGradient2320">
      <stop
         id="stop2322"
         offset="0"
         style="stop-color:#6a3c1d;stop-opacity:1;" />
      <stop
         id="stop2324"
         offset="1"
         style="stop-color:#8f5127;stop-opacity:1;" />
    </linearGradient>
    <linearGradient
       id="linearGradient2338">
      <stop
         id="stop2340"
         offset="0"
         style="stop-color:#b1b1b1;stop-opacity:1;" />
      <stop
         id="stop2342"
         offset="1"
         style="stop-color:#e4e4e4;stop-opacity:1;" />
    </linearGradient>
    <linearGradient
       inkscape:collect="always"
       xlink:href="#linearGradient2320"
       id="linearGradient2370"
       x1="57.118938"
       y1="61.830097"
       x2="61.52211"
       y2="61.830097"
       gradientUnits="userSpaceOnUse" />
    <linearGradient
       inkscape:collect="always"
       xlink:href="#linearGradient2320"
       id="linearGradient2374"
       x1="52.838078"
       y1="53.207214"
       x2="74.487015"
       y2="35.227589"
       gradientUnits="userSpaceOnUse" />
    <linearGradient
       inkscape:collect="always"
       xlink:href="#linearGradient2320"
       id="linearGradient2378"
       x1="51.37035"
       y1="37.979572"
       x2="68.860733"
       y2="32.292141"
       gradientUnits="userSpaceOnUse" />
    <linearGradient
       inkscape:collect="always"
       xlink:href="#linearGradient2320"
       id="linearGradient2382"
       x1="45.132523"
       y1="42.810833"
       x2="49.291077"
       y2="49.660213"
       gradientUnits="userSpaceOnUse" />
    <linearGradient
       inkscape:collect="always"
       xlink:href="#linearGradient2338"
       id="linearGradient2973"
       x1="51.859592"
       y1="105.67836"
       x2="54.428112"
       y2="98.523201"
       gradientUnits="userSpaceOnUse" />
    <linearGradient
       inkscape:collect="always"
       xlink:href="#linearGradient2338"
       id="linearGradient2975"
       x1="64.212936"
       y1="97.544724"
       x2="65.619507"
       y2="95.587753"
       gradientUnits="userSpaceOnUse" />
    <linearGradient
       inkscape:collect="always"
       xlink:href="#linearGradient2338"
       id="linearGradient2977"
       x1="65.619507"
       y1="107.51301"
       x2="70.450768"
       y2="100.66363"
       gradientUnits="userSpaceOnUse" />
    <filter
       inkscape:collect="always"
       id="filter3010"
       x="-0.11784631"
       width="1.2356926"
       y="-0.080986712"
       height="1.1619734">
      <feGaussianBlur
         inkscape:collect="always"
         stdDeviation="1.8576336"
         id="feGaussianBlur3012" />
    </filter>
  </defs>
  <sodipodi:namedview
     id="base"
     pagecolor="#ffffff"
     bordercolor="#666666"
     borderopacity="1.0"
     gridtolerance="10000"
     guidetolerance="10"
     objecttolerance="10"
     inkscape:pageopacity="0.0"
     inkscape:pageshadow="2"
     inkscape:zoom="1"
     inkscape:cx="64"
     inkscape:cy="64"
     inkscape:document-units="px"
     inkscape:current-layer="layer2"
     showgrid="false"
     width="744.09px"
     inkscape:window-width="1248"
     inkscape:window-height="975"
     inkscape:window-x="426"
     inkscape:window-y="24" />
  <metadata
     id="metadata7">
    <rdf:RDF>
      <cc:Work
         rdf:about="">
        <dc:format>image/svg+xml</dc:format>
        <dc:type
           rdf:resource="http://purl.org/dc/dcmitype/StillImage" />
      </cc:Work>
    </rdf:RDF>
  </metadata>
  <g
     inkscape:groupmode="layer"
     id="layer2"
     inkscape:label="colors">
    <path
       style="fill:#000000;fill-rule:evenodd;stroke:none;stroke-width:1px;stroke-linecap:butt;stroke-linejoin:miter;stroke-opacity:1;fill-opacity:0.62745099999999998;filter:url(#filter3010)"
       d="M 48.846288,53.178111 C 45.769921,54.239709 47.580391,56.853208 46.904157,58.66054 C 45.409777,60.307891 51.184148,63.285822 46.185492,63.087896 C 43.5588,63.790777 37.395452,62.746158 38.554555,65.486164 C 38.831293,67.133989 37.359887,69.231959 38.979451,70.581192 C 40.542443,72.412978 39.184723,74.962457 42.961681,76.095766 C 45.09149,77.402147 47.860021,75.031323 50.451495,74.745096 C 51.034065,78.838111 52.375058,82.948913 52.709508,87.029966 C 52.179498,89.874445 52.309279,92.845694 53.481102,95.737243 C 55.266157,98.729409 54.871557,101.83925 55.657557,104.88406 C 56.347018,107.0682 61.598217,106.38727 64.129597,107.82644 C 68.153245,109.14478 70.427177,106.65404 74.053708,106.95017 C 78.152285,106.83026 74.98187,104.20081 72.74812,103.51372 C 69.658454,102.69305 67.141666,101.90778 65.822316,99.956641 C 63.298169,98.979825 59.729089,99.623361 60.491251,97.26632 C 59.327674,91.230974 57.535584,85.187002 57.011034,79.156156 C 56.952382,77.063059 56.825993,74.90261 57.134924,72.874468 C 60.45105,71.52984 64.457619,70.732872 67.953136,69.515024 C 70.608808,68.236816 73.646724,65.391404 74.097092,63.868803 C 70.728902,63.093339 67.207133,62.529128 64.069295,61.396867 C 60.813597,61.401151 57.624228,62.037626 54.380965,62.262592 C 52.934906,61.506709 53.442458,59.144516 52.821142,57.755334 C 52.006733,56.358138 53.248201,54.248476 50.827333,53.383598 C 50.192154,53.223271 49.503552,53.126434 48.846288,53.178111 z M 40.600582,64.727848 C 42.418897,65.453834 43.137668,66.113563 40.600582,64.727848 z M 54.645325,100.06855 C 50.880622,100.62238 49.687311,102.73173 48.299931,104.6402 C 45.708601,106.07481 48.826031,108.6131 51.839609,107.24952 C 54.925355,106.50005 56.401268,105.12781 55.185082,103.03991 C 55.005162,102.04946 54.825243,101.059 54.645325,100.06855 z M 64.013364,101.75054 C 65.081271,101.98481 60.359893,102.12563 63.573826,101.8181 L 64.013364,101.75054 z M 58.966888,104.59126 C 59.536599,105.68708 59.056116,106.04795 58.966888,104.59126 z"
       id="path2981" />
    <path
       style="fill:url(#linearGradient2370);fill-rule:evenodd;stroke:none;stroke-width:1px;stroke-linecap:butt;stroke-linejoin:miter;stroke-opacity:1"
       d="M 56.996629,18.776847 L 55.528904,29.050917 L 56.874318,33.087159 L 56.507387,55.103024 L 56.752008,72.838027 L 55.651215,78.464303 L 55.406594,86.292166 L 56.385077,91.429202 L 56.262767,105.00565 L 58.708974,106.47338 L 60.421319,106.35107 L 59.442836,104.14948 L 60.054388,100.8471 L 62.622905,99.012444 L 62.011354,66.477888 L 62.378285,58.894645 L 63.479078,50.088299 L 62.133664,31.741745 L 61.889043,18.532226 L 60.176698,17.186812 L 58.831284,17.186812 L 56.996629,18.776847 z"
       id="path2368" />
    <path
       style="fill:url(#linearGradient2374);fill-rule:evenodd;stroke:none;stroke-width:1px;stroke-linecap:butt;stroke-linejoin:miter;stroke-opacity:1"
       d="M 49.780317,56.448438 L 50.391869,47.886713 L 49.046455,46.663609 L 50.147248,37.979573 L 74.3647,32.108676 L 82.681805,35.288745 L 76.199356,43.972781 L 49.780317,56.448438 z"
       id="path2372" />
    <path
       style="fill:url(#linearGradient2378);fill-rule:evenodd;stroke:none;stroke-width:1px;stroke-linecap:butt;stroke-linejoin:miter;stroke-opacity:1"
       d="M 50.269559,37.979573 L 46.722558,35.044125 L 72.407734,30.763262 L 74.853942,32.353297 L 50.269559,37.979573 z"
       id="path2376" />
    <path
       style="fill:url(#linearGradient2382);fill-rule:evenodd;stroke:none;stroke-width:1px;stroke-linecap:butt;stroke-linejoin:miter;stroke-opacity:1"
       d="M 50.147248,38.101884 L 46.722558,34.799504 L 45.132524,45.685126 L 46.111007,46.663609 L 46.600248,53.390679 L 50.024938,56.693059 L 50.391869,47.886713 L 49.168766,46.78592 L 50.147248,38.101884 z"
       id="path2380" />
    <path
       id="path2384"
       d="M 50.147248,38.101884 L 46.722558,34.799504 L 45.132524,45.685126 L 46.111007,46.663609 L 46.600248,53.390679 L 50.024938,56.693059 L 50.391869,47.886713 L 49.168766,46.78592 L 50.147248,38.101884 z"
       style="fill:#000000;fill-rule:evenodd;stroke:none;stroke-width:1px;stroke-linecap:butt;stroke-linejoin:miter;stroke-opacity:1;fill-opacity:0.15686275" />
    <path
       id="path2963"
       d="M 50.269559,37.979573 L 46.722558,35.044125 L 72.407734,30.763262 L 74.853942,32.353297 L 50.269559,37.979573 z"
       style="fill:#ffffff;fill-rule:evenodd;stroke:none;stroke-width:1px;stroke-linecap:butt;stroke-linejoin:miter;stroke-opacity:1;fill-opacity:0.1254902" />
    <path
       style="fill:#ffffff;fill-rule:evenodd;stroke:none;stroke-width:1px;stroke-linecap:butt;stroke-linejoin:miter;stroke-opacity:1;fill-opacity:0.1254902"
       d="M 58.708974,17.309122 L 57.24125,18.409915 L 58.097422,20.244571 L 59.075905,20.856123 L 61.032871,19.755329 L 62.133664,18.654536 L 61.399802,17.798364 L 58.708974,17.309122 z"
       id="path2965" />
    <path
       style="fill:url(#linearGradient2977);fill-rule:evenodd;stroke:none;stroke-width:1px;stroke-linecap:butt;stroke-linejoin:miter;stroke-opacity:1"
       d="M 60.176698,106.47338 L 59.565146,103.66024 L 59.932077,100.72479 L 62.622905,99.012444 L 65.802975,98.523203 L 68.738424,98.890134 L 71.918493,100.35786 L 73.875459,101.45865 L 75.343183,103.171 L 76.566287,104.51641 L 76.443976,106.22876 L 75.098562,107.08493 L 72.040803,106.96262 L 68.738424,109.1642 L 64.579871,108.79727 L 60.176698,106.47338 z"
       id="path2967" />
    <path
       style="fill:url(#linearGradient2975);fill-rule:evenodd;stroke:none;stroke-width:1px;stroke-linecap:butt;stroke-linejoin:miter;stroke-opacity:1"
       d="M 62.255974,98.278582 L 62.133664,93.997719 L 64.457561,94.12003 L 67.39301,95.343133 L 68.249182,96.810858 L 69.105355,99.134755 L 65.191423,98.400892 L 62.378285,99.134755 L 62.255974,98.278582 z"
       id="path2969" />
    <path
       style="fill:url(#linearGradient2973);fill-rule:evenodd;stroke:none;stroke-width:1px;stroke-linecap:butt;stroke-linejoin:miter;stroke-opacity:1"
       d="M 56.140456,95.587754 L 52.348835,97.422409 L 51.125731,99.501686 L 49.168766,102.80407 L 47.578731,105.86182 L 48.067972,107.45186 L 49.168766,108.18572 L 51.492662,107.9411 L 56.140456,105.00565 L 56.140456,95.587754 z"
       id="path2971" />
    <path
       id="path2979"
       d="M 56.140456,95.587754 L 52.348835,97.422409 L 51.125731,99.501686 L 49.168766,102.80407 L 47.578731,105.86182 L 48.067972,107.45186 L 49.168766,108.18572 L 51.492662,107.9411 L 56.140456,105.00565 L 56.140456,95.587754 z"
       style="fill:#000000;fill-rule:evenodd;stroke:none;stroke-width:1px;stroke-linecap:butt;stroke-linejoin:miter;stroke-opacity:1;fill-opacity:0.15686275" />
  </g>
  <g
     inkscape:label="outline"
     inkscape:groupmode="layer"
     id="layer1">
    <path
       style="fill:#000000;fill-opacity:1;fill-rule:evenodd;stroke:none;stroke-width:1px;stroke-linecap:butt;stroke-linejoin:miter;stroke-opacity:1"
       d="M 59.890625,16.71875 C 58.652895,16.727269 57.574111,17.697272 56.484375,18.59375 L 55.265625,28.25 L 56.359375,33.25 L 46.390625,34.78125 L 44.953125,45.71875 L 45.828125,46.78125 L 46.359375,53.75 L 49.734375,57.0625 L 56.203125,54.03125 L 56.046875,72.75 C 54.566252,78.833249 54.372613,84.916751 55.890625,91 L 55.859375,95.46875 C 54.549516,95.661644 53.331474,96.633296 52.203125,97.3125 C 51.170979,98.925086 50.173658,100.66573 48.984375,102.21875 C 47.026277,104.26887 46.254888,107.13781 49.078125,108.5 L 49.109375,108.5 L 49.171875,108.5 C 51.703116,108.52337 54.397939,107.012 56.078125,105.75 C 57.37643,106.49529 58.707634,107.05684 60.203125,106.71875 C 62.321508,108.4547 64.886764,109.19142 67.609375,109.5 C 70.016166,109.45317 71.722277,107.51065 74.046875,107.25 C 75.898468,107.69146 76.636409,106.94599 76.921875,105.125 C 75.248572,101.48839 72.251799,99.82379 68.796875,98.6875 L 68.921875,98.6875 C 69.428982,95.196403 65.548723,93.772843 62.609375,93.90625 L 62.515625,64.625 C 62.914803,59.822653 62.488758,55.428688 64.078125,50.03125 L 76.484375,44.28125 L 83.046875,35 L 72.234375,30.53125 C 69.191473,31.007333 65.944244,31.754335 62.890625,32.3125 L 62.328125,17.96875 C 61.431586,17.050453 60.633263,16.713639 59.890625,16.71875 z M 59.171875,17.90625 C 59.823778,17.900568 60.54404,18.341178 61.328125,19.0625 L 61.390625,32.375 C 60.455233,32.544855 60.453049,32.544788 59.484375,32.71875 C 58.73109,32.854031 58.108586,32.960397 57.359375,33.09375 L 56.640625,29.125 L 57.484375,19.46875 C 57.93643,18.363905 58.519972,17.911932 59.171875,17.90625 z M 61.109375,19.4375 C 60.04889,19.854852 58.949364,20.662611 58.046875,19.5 L 57.859375,19.875 C 58.911959,22.26883 59.788644,20.741257 60.859375,20.0625 L 61.109375,19.4375 z M 71.484375,31.53125 L 73.265625,31.96875 L 50.359375,37.3125 L 47.703125,35.21875 C 55.595691,33.924241 63.619628,32.983719 71.484375,31.53125 z M 74.859375,32.59375 L 82.109375,35.21875 L 75.953125,43.4375 L 61.484375,50.375 L 61.453125,50.375 L 61.453125,50.40625 L 50.515625,56.0625 L 50.640625,47.75 L 49.328125,46.78125 L 50.796875,38.21875 L 74.859375,32.59375 z M 47.140625,35.8125 L 49.796875,38.125 L 48.734375,46.6875 L 49.765625,47.5625 L 49.765625,55.78125 L 46.921875,53.4375 L 46.421875,46.78125 L 45.546875,45.71875 L 47.140625,35.8125 z M 70.203125,37.125 L 67.953125,37.15625 L 63.359375,40.1875 L 61.546875,38.375 L 58.640625,41.15625 L 56.828125,39.65625 L 56.234375,42.75 C 55.098699,42.512641 54.344474,41.478118 53.578125,40.6875 L 53.234375,40.75 C 54.049941,42.302909 55.058775,43.115226 56.640625,43.5 L 57.515625,41.09375 L 58.578125,41.59375 L 61.546875,38.78125 L 63.109375,40.8125 C 65.613993,39.400131 67.318251,37.772078 70.328125,38.125 L 73.359375,38.5 L 73.484375,38.46875 L 70.359375,37.125 L 70.265625,37.125 L 70.203125,37.125 z M 68.796875,42.25 L 67.703125,44.34375 L 66.359375,43.78125 L 66.078125,43.9375 L 68.140625,45.65625 L 69.265625,43.5 L 70.203125,43.09375 L 70.234375,42.78125 L 68.796875,42.25 z M 62.109375,44.84375 L 59.390625,47.6875 L 57.734375,46.09375 L 55.765625,49.40625 L 54.671875,47.375 L 54.296875,47.46875 L 55.765625,51.21875 L 58.109375,47.40625 L 59.328125,47.96875 L 61.984375,46 L 62.796875,46.875 L 63.015625,46.78125 L 62.109375,44.84375 z M 63.078125,50.5 C 61.346725,56.055218 62.03902,60.000119 61.515625,64.75 L 61.640625,98.625 C 59.382774,99.794508 58.504849,102.31782 59.609375,105.9375 C 58.525505,106.40887 57.780083,105.74102 56.765625,104.53125 L 56.890625,91.375 C 55.281948,85.166407 55.663316,78.958591 57.046875,72.75 L 57.203125,53.5625 L 63.078125,50.5 z M 62.609375,94.28125 C 65.142788,94.164214 67.801632,96.168978 68.296875,98.53125 C 67.630721,98.323909 66.956189,98.120371 66.265625,97.9375 C 64.885971,97.801984 63.661522,97.915235 62.640625,98.21875 L 62.609375,94.28125 z M 55.859375,96.1875 L 55.765625,104.78125 L 55.734375,104.71875 C 54.218045,105.90796 51.433111,108.08427 49.234375,108.09375 C 47.287235,107.10338 48.454124,104.34363 49.609375,103.03125 L 49.640625,103 L 49.671875,102.96875 C 51.088352,101.4609 51.324078,99.622386 52.265625,98 C 53.168201,97.422605 54.818219,96.661802 55.859375,96.1875 z M 66.171875,98.9375 C 69.823589,99.578677 74.981968,101.46551 76.359375,105.09375 C 76.17215,106.2664 75.356412,106.30287 74.296875,106.25 C 71.887927,106.2943 70.052775,107.96966 67.828125,108.6875 C 65.792239,108.80018 63.904312,108.10536 62.140625,107.1875 L 62.671875,105.4375 L 62.671875,105.40625 L 66.359375,102.25 L 66.203125,102.15625 L 62.421875,104.78125 L 61.546875,102.5 L 61.421875,102.59375 L 62.109375,105.25 L 61.328125,106.71875 C 60.999066,106.53285 60.682049,106.34888 60.359375,106.15625 C 58.617611,101.36648 61.885476,98.94758 66.171875,98.9375 z"
       id="path2316" />
  </g>
</svg>
