<?xml version="1.0" encoding="UTF-8" standalone="no"?>
<!-- Created with Inkscape (http://www.inkscape.org/) -->
<svg
   xmlns:dc="http://purl.org/dc/elements/1.1/"
   xmlns:cc="http://creativecommons.org/ns#"
   xmlns:rdf="http://www.w3.org/1999/02/22-rdf-syntax-ns#"
   xmlns:svg="http://www.w3.org/2000/svg"
   xmlns="http://www.w3.org/2000/svg"
   xmlns:xlink="http://www.w3.org/1999/xlink"
   xmlns:sodipodi="http://sodipodi.sourceforge.net/DTD/sodipodi-0.dtd"
   xmlns:inkscape="http://www.inkscape.org/namespaces/inkscape"
   width="128"
   height="128"
   id="svg2"
   sodipodi:version="0.32"
   inkscape:version="0.45+devel"
   version="1.0"
   sodipodi:docname="sign_post_outline.svg"
   inkscape:output_extension="org.inkscape.output.svg.inkscape">
  <defs
     id="defs4">
    <filter
       height="1.42432"
       y="-0.21216"
       width="1.2179726"
       x="-0.1089863"
       id="filter2892"
       inkscape:collect="always">
      <feGaussianBlur
         id="feGaussianBlur2894"
         stdDeviation="0.72146876"
         inkscape:collect="always" />
    </filter>
    <radialGradient
       r="8.2519293"
       fy="222.04396"
       fx="14.207293"
       cy="222.04396"
       cx="14.207293"
       gradientTransform="scale(1.39523,0.716728)"
       gradientUnits="userSpaceOnUse"
       id="radialGradient1968"
       xlink:href="#linearGradient2057"
       inkscape:collect="always" />
    <linearGradient
       inkscape:collect="always"
       id="linearGradient2057">
      <stop
         style="stop-color:#000000;stop-opacity:1;"
         offset="0"
         id="stop2059" />
      <stop
         style="stop-color:#000000;stop-opacity:0;"
         offset="1"
         id="stop2061" />
    </linearGradient>
  </defs>
  <sodipodi:namedview
     id="base"
     pagecolor="#ffffff"
     bordercolor="#666666"
     borderopacity="1.0"
     gridtolerance="10000"
     guidetolerance="10"
     objecttolerance="10"
     inkscape:pageopacity="0.0"
     inkscape:pageshadow="2"
     inkscape:zoom="1"
     inkscape:cx="64"
     inkscape:cy="64"
     inkscape:document-units="px"
     inkscape:current-layer="layer1"
     showgrid="false"
     width="744.09px"
     inkscape:window-width="1248"
     inkscape:window-height="975"
     inkscape:window-x="426"
     inkscape:window-y="24"
     showguides="true"
     inkscape:guide-bbox="true" />
  <metadata
     id="metadata7">
    <rdf:RDF>
      <cc:Work
         rdf:about="">
        <dc:format>image/svg+xml</dc:format>
        <dc:type
           rdf:resource="http://purl.org/dc/dcmitype/StillImage" />
      </cc:Work>
    </rdf:RDF>
  </metadata>
  <g
     inkscape:label="Layer 1"
     inkscape:groupmode="layer"
     id="layer1">
    <path
       style="fill:#5c2700;fill-opacity:1;fill-rule:evenodd;stroke:none;stroke-width:1px;stroke-linecap:butt;stroke-linejoin:miter;stroke-opacity:1"
       d="M 59.46875 16.25 C 57.842695 16.333737 56.185951 17.104022 56.5 18.59375 L 55.25 28.25 L 55.75 30.40625 L 35.59375 33.40625 C 36.071886 35.425206 36.965847 37.360997 36.6875 39.53125 L 38.5 41.03125 L 41.5 40.96875 L 41.6875 47.40625 L 37 49 C 36.951165 52.208416 37.422998 53.916418 37.375 57.125 C 37.751158 58.2018 38.297466 58.419188 39.28125 58.65625 L 39.78125 58.53125 L 40.25 64 L 42.15625 64.90625 L 50.21875 64.65625 L 56.125 62.875 L 56.0625 72.75 C 54.581877 78.833249 54.356988 84.916751 55.875 91 L 55.875 95.46875 C 54.565141 95.661644 53.315849 96.633296 52.1875 97.3125 C 51.155354 98.925086 50.814283 100.66573 49.625 102.21875 C 47.666902 104.26887 45.114263 107.38781 47.9375 108.75 C 50.592006 108.71041 53.914658 107.16355 56.0625 105.75 C 57.360805 106.49529 58.692009 107.05684 60.1875 106.71875 C 62.305883 108.4547 64.902389 109.19142 67.625 109.5 C 70.031791 109.45317 71.737902 107.51065 74.0625 107.25 C 75.914093 107.69146 75.714534 106.63349 76 104.8125 C 74.326697 101.17589 72.267424 99.82379 68.8125 98.6875 C 69.150838 95.070288 65.794367 94.097869 62.625 93.90625 L 62.15625 65.09375 C 62.261546 63.826989 62.669906 62.112745 62.71875 60.875 L 80.1875 55.59375 L 85.1875 56.9375 L 85.9375 52.375 L 84.6875 49.34375 L 83.40625 48.4375 L 85.40625 47.6875 L 86 39.21875 L 84.5625 38.125 L 85.6875 37.8125 L 84.03125 29.03125 L 83.84375 29.03125 L 83.8125 29.03125 L 76.6875 28.875 L 75.71875 28.46875 L 74.375 28.40625 L 73.5625 28 L 70.59375 28.21875 L 62.75 29.375 L 62.3125 17.96875 C 62.690173 16.769076 61.094805 16.166263 59.46875 16.25 z M 59.78125 16.84375 C 61.119092 16.881637 62.236338 17.559194 61.3125 19.0625 L 61.96875 29.59375 L 56.84375 30.25 L 56.1875 29.03125 L 57.5 19.46875 C 55.98468 17.803292 58.061167 16.795038 59.78125 16.84375 z M 61.125 19.4375 C 60.064515 19.854852 58.964989 20.662611 58.0625 19.5 L 57.875 19.875 C 59.100557 22.009371 59.804269 20.741257 60.875 20.0625 L 61.125 19.4375 z M 73.375 28.5 L 73.625 28.71875 C 73.167125 28.800603 64.713391 30.302161 56.03125 31.875 L 37.1875 34.46875 C 37.979999 36.28115 38.361199 38.25737 38.46875 40.34375 L 37.25 39.375 C 37.638656 36.798844 36.63442 35.61558 36.28125 33.78125 L 70.59375 28.6875 L 73.375 28.5 z M 73.875 28.5625 L 75.6875 28.8125 L 76.5625 29.125 L 81.53125 29.1875 L 76.75 29.5 L 74.09375 28.625 C 74.09375 28.625 73.908202 28.655901 73.90625 28.65625 L 73.875 28.5625 z M 74.03125 29.25 L 76.1875 30.125 L 72.03125 31.5625 L 74.53125 32.21875 L 63.96875 35.21875 L 62.75 35.1875 L 62.625 35.625 L 58.125 36.90625 C 57.993783 36.373649 57.789701 35.881494 57.4375 35.625 L 55.21875 37.71875 L 54.84375 37.84375 L 52.6875 35.65625 L 52.03125 38.625 L 49.53125 39.34375 L 47.34375 37.15625 L 47.21875 37.09375 L 48.90625 39.53125 L 45.59375 40.46875 L 45.59375 40.5 L 39.09375 40.4375 C 38.972744 38.550086 38.748892 36.714096 37.96875 35.15625 C 44.024718 34.373173 50.461748 33.558819 56.46875 32.46875 C 65.292558 30.870247 73.848717 29.284162 74.03125 29.25 z M 83.78125 29.65625 L 84.53125 37.09375 L 79.84375 38.875 L 79.84375 39 L 62.28125 43.28125 C 62.206071 43.199095 62.135739 43.111565 62.0625 43.03125 C 61.676816 43.133738 61.384004 43.325458 61.15625 43.5625 L 55.75 44.90625 L 55.46875 44.15625 C 55.024104 44.466321 54.576979 44.890803 54.125 45.28125 L 52.71875 45.625 C 52.553853 45.546309 52.375 45.46875 52.375 45.46875 L 52.25 45.53125 C 52.26472 45.624077 52.292986 45.672044 52.3125 45.75 L 48.9375 46.5625 L 49.0625 46.875 L 52.375 46.03125 C 52.823593 47.107324 53.966024 46.103546 54.96875 45.40625 L 55.25 45.3125 L 55.5625 46.28125 L 57.3125 45.40625 L 60.75 46.9375 C 61.007675 45.986204 61.428407 44.789926 61.84375 43.90625 L 63.0625 45.4375 L 64.375 43.65625 L 64.1875 43.34375 L 63.125 44.125 C 62.90681 43.930954 62.700813 43.714081 62.5 43.5 L 79.84375 39.15625 L 79.84375 39.3125 L 85.625 39.5625 L 84.46875 47.125 L 78.53125 50 L 47.15625 56.375 L 47.125 56.3125 L 40.09375 57.84375 L 39.96875 49.8125 L 49.03125 47.15625 L 48.9375 46.5625 L 48.90625 46.46875 L 43.875 47 L 43.65625 41.21875 L 46.1875 40.5 L 46 40.5 L 49 39.625 L 50.15625 41.3125 L 52.28125 39.375 L 52.375 38.6875 L 54.21875 38.15625 L 55.46875 39.4375 C 55.82219 38.718309 56.193469 38.073613 56.59375 37.46875 L 57.5 37.21875 L 58.03125 38.25 L 62.75 38.875 L 63.53125 35.5625 L 67.8125 36.34375 L 67.34375 38 C 68.521868 38.597807 69.670829 38.032679 70.8125 37.59375 L 70.6875 37.46875 C 70.128537 37.715426 68.795232 37.332839 68.21875 37.53125 L 69.09375 35.40625 L 64.375 35.25 L 75.0625 32.1875 L 72.46875 31.59375 L 76.71875 30.15625 L 83.78125 29.65625 z M 75 33.46875 L 73.4375 34.71875 L 70.84375 33.84375 L 70.59375 33.96875 L 73.8125 36.1875 L 75.125 33.53125 L 75 33.46875 z M 76.75 33.65625 L 76.5 34.03125 C 76.308483 35.05369 77.1707 35.779637 77.8125 36.46875 L 78.0625 36.15625 L 76.75 33.65625 z M 62.59375 35.75 L 62.03125 37.75 L 58.375 38.21875 C 58.298208 37.8652 58.248824 37.438954 58.15625 37.03125 L 62.59375 35.75 z M 52.65625 36.53125 L 54.125 38.03125 L 52.40625 38.53125 L 52.65625 36.53125 z M 57.1875 36.625 L 57.4375 37.09375 L 56.71875 37.28125 C 56.871837 37.058114 57.019114 36.840427 57.1875 36.625 z M 55.03125 37.90625 L 54.96875 37.96875 L 54.9375 37.9375 L 55.03125 37.90625 z M 83.96875 38.3125 L 85.09375 39.1875 L 81.1875 39 L 83.96875 38.3125 z M 51.96875 38.78125 L 51.90625 39.125 L 50.25 40.0625 L 49.65625 39.46875 L 51.96875 38.78125 z M 42.9375 40.9375 L 42.90625 47.375 L 42.25 47.28125 L 42 40.96875 L 42.9375 40.9375 z M 73.4375 41.5625 L 72.375 42.46875 L 70.3125 42.1875 L 68.8125 43.65625 L 68.9375 43.71875 L 70.5 42.84375 L 72.65625 43.53125 L 73.65625 42.3125 L 75.15625 42.53125 L 75.15625 42.09375 L 73.4375 41.5625 z M 60.875 43.90625 C 60.549466 44.416175 60.385725 45.064638 60.15625 45.6875 L 57.3125 44.8125 L 60.875 43.90625 z M 56.40625 45.03125 L 55.9375 45.4375 L 55.84375 45.1875 L 56.40625 45.03125 z M 53.53125 45.75 C 53.449168 45.812227 53.363015 45.881786 53.28125 45.9375 C 53.280227 45.927955 53.169478 45.870388 53.125 45.84375 L 53.53125 45.75 z M 72.4375 46.8125 L 70.34375 48.625 L 67.25 47.59375 L 66.0625 49.125 L 64.46875 48.03125 L 62.90625 50.5625 L 60.375 50.125 L 60.375 50.3125 L 63.21875 51.90625 L 64.78125 48.875 L 66.28125 50.5 L 67.625 48.78125 L 70.5625 49.75 L 72.875 47 L 72.4375 46.8125 z M 48.3125 47 L 39.09375 49.3125 L 39.25 57.84375 C 38.745859 57.748271 38.26291 57.197123 37.875 57 C 37.875 56.294232 37.798519 49.635609 37.8125 49 L 42.90625 47.4375 L 42.90625 47.75 L 48.3125 47 z M 82.9375 48.59375 L 83.75 49.40625 L 79.96875 49.71875 L 82.9375 48.59375 z M 78.59375 50.15625 L 78.65625 50.34375 L 83.9375 50.34375 L 85.65625 52.71875 L 84.8125 56.375 L 79.78125 55.21875 L 50.0625 63.96875 L 43.03125 63.96875 L 42.0625 59.34375 L 47.34375 56.71875 L 47.28125 56.625 L 65.71875 52.8125 L 64.75 56.5 L 58.03125 56.25 L 57.21875 57.09375 L 56.28125 56.5 L 53.3125 58.96875 L 51.1875 58.90625 L 51.0625 59.09375 L 53.46875 60.15625 L 55.90625 57.25 L 57.0625 58.1875 L 58.125 56.8125 L 65.375 57.0625 L 66.1875 53.5625 L 69.40625 54.90625 L 75.0625 52.09375 L 75 51.84375 L 69.34375 53.84375 L 65.96875 52.75 L 78.59375 50.15625 z M 53.78125 50.34375 L 50.09375 52.4375 L 47.75 51.40625 L 47.75 51.65625 L 50.15625 53.5625 L 53.375 51.0625 L 54.59375 53.46875 L 56.09375 51.40625 L 57.40625 52.5625 L 58.53125 51.03125 L 58.28125 50.84375 L 57.09375 51.75 L 55.875 50.78125 L 54.8125 51.875 L 53.78125 50.34375 z M 46.21875 56.90625 L 41.40625 58.90625 L 40.1875 58.5 L 46.21875 56.90625 z M 40.6875 58.90625 L 41.4375 59.53125 L 42.03125 64.125 L 40.78125 63.8125 L 40.6875 58.90625 z M 61.71875 61.1875 C 61.68089 62.350855 61.635657 63.518895 61.5 64.75 L 61.625 98.625 C 59.367149 99.794508 58.520474 102.31782 59.625 105.9375 C 58.54113 106.40887 57.764458 105.74102 56.75 104.53125 L 56.875 91.375 C 55.266323 85.166407 55.335191 79.083591 56.71875 72.875 L 57.125 62.5625 L 61.71875 61.1875 z M 62.625 94.28125 C 63.707936 94.231222 64.800016 94.568678 65.75 95.15625 L 64.375 96.8125 L 64.75 97.0625 L 66.53125 95.75 C 67.413605 96.505672 68.090992 97.474673 68.3125 98.53125 C 67.646346 98.323909 66.940564 98.120371 66.25 97.9375 C 64.870346 97.801984 63.645897 97.915235 62.625 98.21875 L 62.625 94.28125 z M 55.875 96.1875 L 55.75 104.71875 C 55.03102 105.28262 53.730989 106.04724 52.34375 106.71875 C 52.600665 105.14776 52.701519 103.3425 53.90625 101.71875 L 53.78125 101.65625 C 52.144375 103.36409 51.239186 105.20565 51.28125 107.21875 C 50.080615 107.722 48.888365 108.08992 48 108.09375 C 46.05286 107.10338 48.469749 104.34363 49.625 103.03125 C 51.250884 101.87287 51.526318 99.747915 52.25 98 C 53.152576 97.422605 54.833844 96.661802 55.875 96.1875 z M 66.1875 98.9375 C 66.734247 99.033499 67.285322 99.142034 67.84375 99.28125 L 68.6875 103.21875 L 66.4375 105.125 L 66.65625 107.34375 L 66.78125 107.28125 L 66.875 105.40625 L 68.8125 103.625 L 70.78125 105.53125 L 72.34375 105.75 L 72.28125 105.5625 L 71.0625 105 L 69.25 103.25 L 69.1875 99.6875 C 71.876743 100.56524 74.369908 102.07123 75.375 104.71875 C 75.187775 105.8914 75.372037 106.30287 74.3125 106.25 C 71.903552 106.2943 70.03715 107.96966 67.8125 108.6875 C 63.401698 108.1958 61.561271 106.78653 60.375 106.15625 C 58.633236 101.36648 61.901101 98.94758 66.1875 98.9375 z "
       id="path2316" />
  </g>
</svg>
