<?xml version="1.0" encoding="UTF-8" standalone="no"?>
<!-- Created with Inkscape (http://www.inkscape.org/) -->
<svg
   xmlns:dc="http://purl.org/dc/elements/1.1/"
   xmlns:cc="http://creativecommons.org/ns#"
   xmlns:rdf="http://www.w3.org/1999/02/22-rdf-syntax-ns#"
   xmlns:svg="http://www.w3.org/2000/svg"
   xmlns="http://www.w3.org/2000/svg"
   xmlns:xlink="http://www.w3.org/1999/xlink"
   xmlns:sodipodi="http://sodipodi.sourceforge.net/DTD/sodipodi-0.dtd"
   xmlns:inkscape="http://www.inkscape.org/namespaces/inkscape"
   width="128"
   height="128"
   id="svg2"
   sodipodi:version="0.32"
   inkscape:version="0.45+devel"
   version="1.0"
   sodipodi:docname="sign_crossroad.svg"
   inkscape:output_extension="org.inkscape.output.svg.inkscape">
  <defs
     id="defs4">
    <linearGradient
       id="linearGradient2320">
      <stop
         id="stop2322"
         offset="0"
         style="stop-color:#6a3c1d;stop-opacity:1;" />
      <stop
         id="stop2324"
         offset="1"
         style="stop-color:#8f5127;stop-opacity:1;" />
    </linearGradient>
    <linearGradient
       id="linearGradient2338">
      <stop
         id="stop2340"
         offset="0"
         style="stop-color:#b1b1b1;stop-opacity:1;" />
      <stop
         id="stop2342"
         offset="1"
         style="stop-color:#e4e4e4;stop-opacity:1;" />
    </linearGradient>
    <linearGradient
       inkscape:collect="always"
       xlink:href="#linearGradient2320"
       id="linearGradient2370"
       x1="43.90942"
       y1="52.90144"
       x2="59.320526"
       y2="36.02261"
       gradientUnits="userSpaceOnUse" />
    <linearGradient
       inkscape:collect="always"
       xlink:href="#linearGradient2320"
       id="linearGradient2374"
       x1="63.968319"
       y1="47.091694"
       x2="80.724846"
       y2="28.622831"
       gradientUnits="userSpaceOnUse" />
    <linearGradient
       inkscape:collect="always"
       xlink:href="#linearGradient2320"
       id="linearGradient2378"
       x1="39.383938"
       y1="39.691917"
       x2="56.996628"
       y2="34.432575"
       gradientUnits="userSpaceOnUse" />
    <linearGradient
       inkscape:collect="always"
       xlink:href="#linearGradient2320"
       id="linearGradient2382"
       x1="66.292213"
       y1="47.336315"
       x2="90.876599"
       y2="42.443902"
       gradientUnits="userSpaceOnUse" />
    <linearGradient
       inkscape:collect="always"
       xlink:href="#linearGradient2320"
       id="linearGradient2386"
       x1="57.36356"
       y1="61.76894"
       x2="61.644424"
       y2="61.76894"
       gradientUnits="userSpaceOnUse" />
    <linearGradient
       inkscape:collect="always"
       xlink:href="#linearGradient2338"
       id="linearGradient2985"
       x1="64.212936"
       y1="97.850494"
       x2="67.026085"
       y2="96.443924"
       gradientUnits="userSpaceOnUse" />
    <linearGradient
       inkscape:collect="always"
       xlink:href="#linearGradient2338"
       id="linearGradient2987"
       x1="51.614971"
       y1="106.77914"
       x2="55.895832"
       y2="94.915039"
       gradientUnits="userSpaceOnUse" />
    <linearGradient
       inkscape:collect="always"
       xlink:href="#linearGradient2338"
       id="linearGradient2989"
       x1="64.335251"
       y1="104.14948"
       x2="66.269753"
       y2="100.35786"
       gradientUnits="userSpaceOnUse" />
    <filter
       inkscape:collect="always"
       id="filter3030"
       x="-0.086805272"
       width="1.1736105"
       y="-0.10737338"
       height="1.2147468">
      <feGaussianBlur
         inkscape:collect="always"
         stdDeviation="2.2404995"
         id="feGaussianBlur3032" />
    </filter>
  </defs>
  <sodipodi:namedview
     id="base"
     pagecolor="#ffffff"
     bordercolor="#666666"
     borderopacity="1.0"
     gridtolerance="10000"
     guidetolerance="10"
     objecttolerance="10"
     inkscape:pageopacity="0.0"
     inkscape:pageshadow="2"
     inkscape:zoom="1"
     inkscape:cx="100.5"
     inkscape:cy="64"
     inkscape:document-units="px"
     inkscape:current-layer="layer2"
     showgrid="false"
     width="744.09px"
     inkscape:window-width="1248"
     inkscape:window-height="975"
     inkscape:window-x="426"
     inkscape:window-y="24" />
  <metadata
     id="metadata7">
    <rdf:RDF>
      <cc:Work
         rdf:about="">
        <dc:format>image/svg+xml</dc:format>
        <dc:type
           rdf:resource="http://purl.org/dc/dcmitype/StillImage" />
      </cc:Work>
    </rdf:RDF>
  </metadata>
  <g
     inkscape:groupmode="layer"
     id="layer2"
     inkscape:label="colors">
    <path
       style="fill:#000000;fill-opacity:0.62745098;fill-rule:evenodd;stroke:none;stroke-width:1px;stroke-linecap:butt;stroke-linejoin:miter;stroke-opacity:1;filter:url(#filter3030)"
       d="M 45.1875,57.1875 C 41.32673,57.840571 43.600348,60.41815 43.155995,62.120609 C 42.979114,63.344989 44.706993,66.051098 44.710202,66.252605 C 42.767872,64.708473 38.342798,65.318965 35.368597,64.697525 C 32.024609,64.366682 28.680801,64.034119 25.335057,63.716892 C 22.960789,64.541287 18.837139,65.103023 17.612856,66.098575 C 19.820561,67.377481 20.725899,69.845228 24.265381,69.945143 C 26.450042,70.341114 33.390874,70.414266 28.417627,71.326907 C 25.906455,72.33391 24.927757,74.177391 22.935341,75.486981 C 26.870623,75.904422 31.232033,77.83526 34.875105,77.214907 C 38.982161,76.083361 43.089219,74.951813 47.196276,73.820267 C 45.491456,75.395227 47.645766,77.878099 47.460867,79.80156 C 47.962144,82.365566 48.470628,84.929919 48.864006,87.49327 C 47.449828,90.790553 48.869772,94.341897 50.457646,97.722165 C 50.935281,98.758657 51.467367,100.39557 49.072383,98.895481 C 44.50102,97.584733 44.794328,100.74227 44.055235,102.26625 C 43.214003,103.84711 40.937789,105.91958 44.833205,107.15652 C 48.517147,107.91688 50.783079,104.43706 53.846143,106.22385 C 56.532639,105.98182 59.530432,107.63077 61.915693,106.08925 C 64.860982,105.96424 69.093044,105.36249 65.729843,103.28856 C 63.702861,101.7995 61.331122,100.15964 57.422262,100.81306 C 55.95165,99.73372 57.02636,97.212589 56.499477,95.569244 C 56.036873,90.927671 53.975595,86.292141 53.062039,81.654088 C 53.28573,78.914785 52.73793,76.0217 52.410987,73.352808 C 56.547983,73.896421 60.832103,74.649064 65.031909,75.26107 C 68.883605,75.959017 72.806823,76.804688 75.374797,74.851224 C 77.09233,73.911374 82.168806,73.176379 77.877162,71.870041 C 74.470164,70.141534 71.501772,67.887014 66.62403,67.922336 C 66.135828,67.443624 71.140561,66.900226 72.687289,66.231663 C 74.094059,64.72197 77.265678,62.846503 77.574321,61.564401 C 74.178324,61.07159 70.095837,60.562185 66.062023,60.057825 C 61.688094,60.197161 58.956893,63.054146 54.536484,63.738888 C 52.756324,64.253782 49.551331,64.962865 50.034276,65.63468 C 49.442302,63.081898 48.428819,60.479945 48.094288,57.956042 C 47.496281,57.313693 46.173057,57.425162 45.1875,57.1875 z M 45.946528,66.46611 C 46.571368,66.759837 45.424096,66.466802 45.946528,66.46611 z M 47.594162,68.613936 C 48.226118,69.932693 48.085444,72.825274 47.990013,73.124823 C 47.982562,71.627091 48.022958,70.123335 47.594162,68.613936 z M 56.863566,101.10625 C 56.128652,102.48727 62.382437,101.56308 58.549508,102.03256 C 56.479718,101.75633 55.13233,103.76537 54.896752,103.50587 C 54.837428,102.43101 57.605346,102.26869 56.863566,101.10625 z M 54.898442,103.94138 C 55.605352,105.31933 54.680224,105.65337 54.898442,103.94138 z"
       id="path2993" />
    <path
       style="fill:url(#linearGradient2386);fill-rule:evenodd;stroke:none;stroke-width:1px;stroke-linecap:butt;stroke-linejoin:miter;stroke-opacity:1"
       d="M 61.766733,18.042984 L 62.989837,49.354437 L 63.112147,52.779127 L 62.133664,61.830094 L 62.133664,64.520922 L 62.622905,72.348785 L 62.989837,84.824442 L 62.255974,94.731581 L 62.011354,98.523203 L 59.932077,100.35786 L 59.320526,103.53793 L 60.054388,106.35107 L 57.48587,106.22876 L 56.140456,104.76103 L 56.507387,92.040754 L 55.406594,83.234407 L 55.773525,75.773475 L 56.874318,72.104164 L 56.996629,48.131333 L 58.831284,46.663609 L 59.442836,40.792712 L 59.320526,37.979573 L 58.097422,34.065642 L 56.996629,34.187952 L 56.018146,28.317055 L 56.752008,18.654536 L 59.198215,17.186812 L 61.766733,18.042984 z"
       id="path2384" />
    <path
       style="fill:url(#linearGradient2370);fill-rule:evenodd;stroke:none;stroke-width:1px;stroke-linecap:butt;stroke-linejoin:miter;stroke-opacity:1"
       d="M 33.268419,50.45523 L 38.283143,43.972781 L 58.097422,34.187952 L 59.320526,36.267228 L 59.320526,41.281953 L 58.708974,47.03054 L 43.542489,54.246852 L 33.268419,50.45523 z"
       id="path2368" />
    <path
       style="fill:url(#linearGradient2374);fill-rule:evenodd;stroke:none;stroke-width:1px;stroke-linecap:butt;stroke-linejoin:miter;stroke-opacity:1"
       d="M 63.112147,31.130193 L 70.94001,27.338572 L 78.278632,22.201537 L 91.12122,25.259296 L 84.761081,33.821021 L 77.66708,36.634159 L 62.622905,33.33178 L 62.500595,31.252504 L 63.112147,31.130193 z"
       id="path2372"
       sodipodi:nodetypes="ccccccccc" />
    <path
       style="fill:url(#linearGradient2378);fill-rule:evenodd;stroke:none;stroke-width:1px;stroke-linecap:butt;stroke-linejoin:miter;stroke-opacity:1"
       d="M 56.629698,32.597917 L 38.283143,29.050917 L 29.599108,32.964849 L 34.124591,40.05885 L 42.441696,41.771195 L 56.996629,34.677194 L 56.629698,32.597917 z"
       id="path2376" />
    <path
       style="fill:url(#linearGradient2382);fill-rule:evenodd;stroke:none;stroke-width:1px;stroke-linecap:butt;stroke-linejoin:miter;stroke-opacity:1"
       d="M 61.644423,32.964849 L 60.543629,34.799504 L 60.299009,38.101884 L 60.78825,45.807437 L 81.947943,51.922955 L 90.876599,45.929747 L 83.171046,37.734953 L 61.644423,32.964849 z"
       id="path2380" />
    <path
       style="fill:#ffffff;fill-rule:evenodd;stroke:none;stroke-width:1px;stroke-linecap:butt;stroke-linejoin:miter;stroke-opacity:1;fill-opacity:0.1254902"
       d="M 36.815419,29.784779 L 56.018146,34.554883 L 56.629698,34.187952 L 56.140456,32.353297 L 38.038523,29.050917 L 36.815419,29.784779 z"
       id="path2388" />
    <path
       style="fill:#ffffff;fill-rule:evenodd;stroke:none;stroke-width:1px;stroke-linecap:butt;stroke-linejoin:miter;stroke-opacity:1;fill-opacity:0.1254902"
       d="M 38.283143,43.60585 L 39.017006,44.951264 L 58.708974,35.288745 L 57.730491,33.821021 L 38.283143,43.60585 z"
       id="path2390" />
    <path
       style="fill:#ffffff;fill-rule:evenodd;stroke:none;stroke-width:1px;stroke-linecap:butt;stroke-linejoin:miter;stroke-opacity:1;fill-opacity:0.1254902"
       d="M 62.989837,32.842538 L 73.263907,27.338572 L 78.523253,23.546951 L 89.041944,24.647744 L 78.156321,22.079226 L 71.796183,26.72702 L 62.745216,31.497124 L 62.989837,32.842538 z"
       id="path2392" />
    <path
       style="fill:#ffffff;fill-rule:evenodd;stroke:none;stroke-width:1px;stroke-linecap:butt;stroke-linejoin:miter;stroke-opacity:1;fill-opacity:0.1254902"
       d="M 61.399802,33.209469 L 83.293357,37.979573 L 90.754289,45.929747 L 90.265047,46.174368 L 82.192563,39.080367 L 60.91056,34.065642 L 61.399802,33.209469 z"
       id="path2394" />
    <path
       style="fill:#ffffff;fill-rule:evenodd;stroke:none;stroke-width:1px;stroke-linecap:butt;stroke-linejoin:miter;stroke-opacity:1;fill-opacity:0.1254902"
       d="M 59.442836,17.309122 L 57.24125,18.532226 L 59.198215,20.856123 L 62.133664,19.021467 L 61.032871,17.676053 L 59.442836,17.309122 z"
       id="path2396" />
    <path
       style="fill:#000000;fill-rule:evenodd;stroke:none;stroke-width:1px;stroke-linecap:butt;stroke-linejoin:miter;stroke-opacity:1;fill-opacity:0.15686275"
       d="M 33.513039,50.577541 L 39.139316,44.706643 L 38.405454,43.60585 L 33.513039,50.577541 z"
       id="path2975" />
    <path
       style="fill:#000000;fill-rule:evenodd;stroke:none;stroke-width:1px;stroke-linecap:butt;stroke-linejoin:miter;stroke-opacity:1;fill-opacity:0.15686275"
       d="M 56.629697,34.677194 L 36.570798,29.662469 L 29.721418,33.209469 L 33.63535,39.936539 L 42.808627,41.771195 L 56.629697,34.677194 z"
       id="path2977"
       sodipodi:nodetypes="cccccc" />
    <path
       style="fill:url(#linearGradient2989);fill-rule:evenodd;stroke:none;stroke-width:1px;stroke-linecap:butt;stroke-linejoin:miter;stroke-opacity:1"
       d="M 64.21294,98.523203 L 61.032871,99.623996 L 59.565146,102.0702 L 59.687457,105.73951 L 61.277491,107.20724 L 63.112147,107.57417 L 66.536837,105.98413 L 70.573079,105.25027 C 70.573079,105.25027 72.040803,103.78255 71.551562,104.02717 C 71.06232,104.27179 70.573079,100.35786 70.573079,100.35786 L 67.51532,98.645513 L 64.21294,98.523203 z"
       id="path2979" />
    <path
       style="fill:url(#linearGradient2987);fill-rule:evenodd;stroke:none;stroke-width:1px;stroke-linecap:butt;stroke-linejoin:miter;stroke-opacity:1"
       d="M 56.140456,105.25027 L 53.449628,106.96262 L 51.003421,107.9411 L 48.924145,108.30803 L 46.722558,105.37258 L 47.2118,103.29331 L 48.801835,99.990927 L 50.63649,94.24234 L 50.881111,92.896926 L 54.06118,92.529995 L 56.507387,94.486961 L 56.385077,96.810858 L 56.385077,102.55944 L 56.140456,105.25027 z"
       id="path2981" />
    <path
       style="fill:url(#linearGradient2985);fill-rule:evenodd;stroke:none;stroke-width:1px;stroke-linecap:butt;stroke-linejoin:miter;stroke-opacity:1"
       d="M 62.378285,98.523203 L 62.011354,96.566237 L 64.824492,96.443927 L 67.026078,96.566237 L 68.616113,98.156272 L 68.738424,99.257065 L 64.579871,98.400892 L 62.378285,98.523203 z"
       id="path2983" />
    <path
       id="path2991"
       d="M 56.140456,105.25027 L 53.449628,106.96262 L 51.003421,107.9411 L 48.924145,108.30803 L 46.722558,105.37258 L 47.2118,103.29331 L 48.801835,99.990927 L 50.63649,94.24234 L 50.881111,92.896926 L 54.06118,92.529995 L 56.507387,94.486961 L 56.385077,96.810858 L 56.385077,102.55944 L 56.140456,105.25027 z"
       style="fill:#000000;fill-rule:evenodd;stroke:none;stroke-width:1px;stroke-linecap:butt;stroke-linejoin:miter;stroke-opacity:1;fill-opacity:0.15686275" />
  </g>
  <g
     inkscape:label="outline"
     inkscape:groupmode="layer"
     id="layer1">
    <path
       style="fill:#000000;fill-opacity:1;fill-rule:evenodd;stroke:none;stroke-width:1px;stroke-linecap:butt;stroke-linejoin:miter;stroke-opacity:1"
       d="M 59.875,16.71875 C 58.63727,16.727269 57.589736,17.697272 56.5,18.59375 L 55.25,28.25 C 55.586478,29.596556 55.854016,30.948312 56.0625,32.3125 L 38.1875,28.9375 L 29.1875,33 L 33.65625,40.21875 L 41.6875,41.71875 L 38.1875,43.5 L 32.75,50.9375 L 43.4375,54.4375 L 56.5,48.34375 C 56.427899,51.00936 56.848017,53.817386 56.75,56.4375 L 56.0625,72.75 C 54.581877,78.833249 54.356988,84.916751 55.875,91 L 56.0625,94.6875 C 56.074143,90.915888 52.012368,92.106239 50.875,92.8125 C 49.842854,94.425085 48.783033,98.902403 47.59375,101.78125 C 45.635653,103.83137 46.239263,107.13781 49.0625,108.5 C 51.717006,108.46041 53.914658,107.16355 56.0625,105.75 C 57.360805,106.49529 58.692009,107.05684 60.1875,106.71875 C 62.305883,108.4547 59.777389,107.59767 62.5,107.90625 C 64.906793,107.85942 66.612902,105.9169 68.9375,105.65625 C 70.789095,106.09771 71.527034,105.35224 71.8125,103.53125 C 70.139199,99.894638 72.267424,99.82379 68.8125,98.6875 C 68.130854,95.541809 64.935153,96.160587 62.1875,96.375 C 64.055176,87.410141 63.364981,74.728464 62.5,64.625 C 62.835384,60.590129 62.613657,56.826928 63.46875,52.53125 C 63.415339,50.770096 63.487766,48.850515 63.5625,46.875 L 82,52.1875 L 90.8125,45.90625 L 83.5,37.875 L 78.375,36.65625 L 84.71875,33.84375 L 91.5625,25.15625 L 78.15625,21.90625 C 72.761301,25.225159 68.884636,28.623793 62.96875,30.90625 L 62.3125,17.96875 C 61.415961,17.050453 60.617638,16.713639 59.875,16.71875 z M 59.1875,17.90625 C 59.839403,17.900568 60.528415,18.341178 61.3125,19.0625 L 61.375,32.375 C 61.390978,32.446602 61.393474,32.521262 61.40625,32.59375 L 61.34375,32.5625 C 59.843198,34.261778 60.001536,37.866762 60.5625,46.03125 L 62.25,46.53125 C 62.246727,48.818052 62.655906,51.245975 62.65625,53.4375 C 62.575351,56.545066 61.785762,61.116371 61.5,64.75 C 63.201984,76.318386 62.731345,87.524669 61.625,98.625 C 59.367149,99.794508 58.520474,102.31782 59.625,105.9375 C 58.54113,106.40887 57.764458,105.74102 56.75,104.53125 L 56.875,91.375 C 55.266323,85.166407 55.678941,78.958591 57.0625,72.75 L 57.1875,54.78125 C 57.139305,52.472644 57.227085,50.220033 57.3125,47.96875 L 59.03125,47.15625 C 60.274328,42.070979 59.75357,34.09781 58.0625,33.46875 L 57.28125,33.875 C 57.141343,32.324358 56.930919,30.7464 56.625,29.125 L 57.5,19.46875 C 57.952055,18.363905 58.535597,17.911932 59.1875,17.90625 z M 61.125,19.4375 C 60.064515,19.854852 58.964989,20.662611 58.0625,19.5 L 57.875,19.875 C 58.927584,22.26883 59.804269,20.741257 60.875,20.0625 L 61.125,19.4375 z M 58.53125,22.34375 L 58.25,22.40625 L 57.40625,28.5 L 57.71875,31.875 L 57.90625,31.875 L 57.9375,28.84375 L 58.53125,22.34375 z M 78.25,22.375 L 87.40625,24.4375 L 78.4375,22.875 C 73.03431,27.283425 68.668035,29.73215 63.25,32.21875 L 63.65625,32.96875 C 68.928256,30.524099 73.727234,27.15826 78.34375,23.65625 L 88.875,24.75 L 90.78125,25.1875 L 84.40625,33.46875 L 77.53125,36.4375 L 63.25,33.03125 C 63.183179,32.643506 63.11163,32.257071 63.03125,31.875 C 69.036326,29.688227 72.881663,25.871965 78.25,22.375 z M 82.375,26.96875 L 81.34375,29.78125 L 78.34375,28.96875 L 77.625,31.3125 C 77.0312,29.922854 75.833427,28.981677 74.9375,28.21875 C 73.740063,29.341353 73.80401,31.4135 73.625,33 L 73.71875,33.09375 C 73.807483,31.906247 74.9223,30.742493 75.21875,29.59375 L 78.0625,32.40625 L 79.0625,30.03125 L 81.5625,30.28125 L 82.8125,28.21875 L 83.8125,28.5625 L 83.96875,28.46875 L 82.375,26.96875 z M 38.53125,29.5 L 56.21875,33.34375 C 56.261606,33.673595 56.276521,34.012852 56.3125,34.34375 L 55.78125,34.625 L 55.875,34.1875 C 50.082479,32.281681 44.074309,31.513771 38.1875,30.125 L 38,30.25 C 41.005729,31.213389 44.117678,31.906629 47.1875,32.65625 C 51.439375,33.700032 55.444954,34.682509 55.59375,34.71875 L 42.4375,41.375 L 34.28125,39.78125 L 30.09375,33.3125 L 38.53125,29.5 z M 61.40625,33.28125 L 82.78125,38.1875 L 90.3125,45.75 L 81.90625,51.75 L 61.125,45.59375 C 61.072917,41.59375 59.838836,38.444248 61.40625,33.28125 z M 39.28125,33.8125 C 38.233323,34.687434 37.659188,36.029017 37.03125,37.21875 L 35.125,35 L 34.84375,35 L 37,38.46875 L 39.40625,35 L 40.65625,37.71875 C 41.335918,36.671945 42.012297,36.139445 42.90625,35.28125 C 44.039589,35.697304 45.060471,36.874089 46.09375,37.53125 L 46.25,37.46875 C 45.066676,36.61131 44.28982,35.064866 42.9375,34.5 C 42.048393,34.820491 41.496542,35.615917 40.90625,36.3125 C 40.70338,34.77945 40.124121,34.431908 39.28125,33.8125 z M 61.5,34.1875 L 61.1875,34.3125 L 81.75,39.1875 L 89.8125,45.84375 L 89.875,45.84375 L 82.4375,38.53125 L 61.5,34.1875 z M 57.8125,34.71875 C 57.98686,34.848377 58.143428,35.029663 58.28125,35.21875 L 39.03125,44.375 L 34.375,49.8125 L 38.5625,43.875 L 57.8125,34.71875 z M 58.375,35.375 C 60.083251,38.052943 58.818771,45.308068 58.375,46.78125 L 43.5,53.875 L 33.96875,50.6875 L 39.5,44.9375 L 58.03125,35.875 L 58.375,35.375 z M 67.46875,38.28125 L 66.03125,40.6875 L 65.25,40.1875 L 64.96875,40.09375 L 66.21875,43.3125 L 67.375,39.8125 L 69.75,43.71875 L 72.625,42.25 C 72.40238,43.355244 72.664516,44.287855 73.0625,45.3125 C 73.227672,45.500671 73.496479,45.65625 73.78125,45.65625 C 75.886545,45.39445 77.625134,44.03757 79.65625,43.4375 L 79.6875,43.1875 C 77.760188,43.803888 75.804135,44.316215 73.8125,44.65625 L 73.8125,40.1875 L 69.90625,42.9375 L 67.46875,38.28125 z M 52.625,43.0625 L 50.0625,44.625 L 48.875,44.15625 L 48.15625,46.15625 C 47.327532,45.423248 46.149392,45.277409 45.3125,45.09375 C 44.67371,45.922612 44.863633,47.004981 44.90625,48 C 44.178951,46.983416 43.194321,46.425895 42.25,45.9375 C 41.02765,46.834865 40.89028,48.584055 40.59375,50 L 40.65625,50.09375 C 40.810596,48.99953 42.084579,48.04013 42.5,47.03125 L 45.53125,49.71875 C 45.6065,48.502054 45.832426,47.288367 45.9375,46.0625 L 48.71875,47.5625 L 49.53125,45.28125 L 50.0625,45.375 L 52.6875,43.15625 L 52.625,43.0625 z M 58.96875,47.8125 L 58.75,48.625 L 58.5625,49.4375 L 58.0625,72.8125 C 57.835943,78.756393 56.786615,84.641114 57.6875,90.6875 L 57.15625,102.6875 L 57.8125,100.15625 L 58.15625,90.9375 C 56.38308,84.672924 58.076976,78.744958 58.375,72.6875 L 58.96875,47.8125 z M 52.28125,92.75 C 52.628106,92.740983 53.003927,92.81848 53.375,92.9375 L 51.28125,96.75 L 50.3125,99.9375 L 47.65625,104.0625 L 47.78125,104.125 L 49.78125,101.75 L 49.1875,103.71875 L 50.0625,105.8125 L 50.1875,105.5625 L 49.65625,103.65625 L 51.53125,96.875 L 54.53125,93.46875 C 55.60698,94.168074 56.353866,95.262952 55.875,96.1875 L 55.78125,102.0625 L 54.5,100.21875 L 54.3125,100.375 L 55.75,104 L 55.75,104.71875 C 54.23367,105.90796 51.448736,108.08427 49.25,108.09375 C 47.30286,107.10338 46.875999,103.37488 48.03125,102.0625 C 49.396638,98.95393 50.429685,96.397909 51.1875,93.125 C 51.482363,92.870171 51.859776,92.760957 52.28125,92.75 z M 64.21875,96.5625 C 66.157985,96.516499 67.941068,96.759546 68.3125,98.53125 C 67.646346,98.323909 66.940564,98.120371 66.25,97.9375 C 64.870346,97.801984 63.645897,97.915235 62.625,98.21875 L 62.28125,96.65625 C 62.914603,96.626992 63.572338,96.577834 64.21875,96.5625 z M 64.78125,98.875 C 65.224695,98.856925 65.684709,98.88325 66.1875,98.9375 C 67.279676,99.129267 68.01634,99.302871 68.59375,99.53125 C 67.040433,100.11058 66.028749,100.99967 65.4375,102.15625 L 65.75,102.375 C 66.752201,100.56792 68.250621,100.50445 69.6875,100.21875 C 70.251768,100.83399 70.605317,101.80183 71.25,103.5 C 71.062777,104.67265 70.247037,104.70912 69.1875,104.65625 C 66.778554,104.70055 64.91215,106.37591 62.6875,107.09375 C 61.59758,107.08247 60.794083,106.62138 60.25,105.9375 C 60.639086,104.73009 60.601897,103.38149 62.25,102.59375 L 62.03125,102.40625 C 60.64408,102.51303 60.238322,103.83998 59.71875,105.03125 C 58.827087,102.65892 60.322607,99.056734 64.78125,98.875 z"
       id="path2316"
       sodipodi:nodetypes="ccccccccccccccccccccccccccccccccccccccccccccccccccccccccccccccccccccccccccccccccccccccccccccccccccccccccccccccccccccccccccccccccccccccccccccccccccccccccccccccccccccccccccccccccccccccccccccccccccccccccccccccccccccccccccccccccccccccccccccccc" />
  </g>
</svg>
