<?xml version="1.0" encoding="UTF-8" standalone="no"?>
<!-- Created with Inkscape (http://www.inkscape.org/) -->
<svg
   xmlns:dc="http://purl.org/dc/elements/1.1/"
   xmlns:cc="http://creativecommons.org/ns#"
   xmlns:rdf="http://www.w3.org/1999/02/22-rdf-syntax-ns#"
   xmlns:svg="http://www.w3.org/2000/svg"
   xmlns="http://www.w3.org/2000/svg"
   xmlns:xlink="http://www.w3.org/1999/xlink"
   xmlns:sodipodi="http://sodipodi.sourceforge.net/DTD/sodipodi-0.dtd"
   xmlns:inkscape="http://www.inkscape.org/namespaces/inkscape"
   width="128"
   height="128"
   id="svg2"
   sodipodi:version="0.32"
   inkscape:version="0.45+devel"
   version="1.0"
   sodipodi:docname="tavern_outline.svg"
   inkscape:output_extension="org.inkscape.output.svg.inkscape">
  <defs
     id="defs4">
    <filter
       height="1.42432"
       y="-0.21216"
       width="1.2179726"
       x="-0.1089863"
       id="filter2892"
       inkscape:collect="always">
      <feGaussianBlur
         id="feGaussianBlur2894"
         stdDeviation="0.72146876"
         inkscape:collect="always" />
    </filter>
    <radialGradient
       r="8.2519293"
       fy="222.04396"
       fx="14.207293"
       cy="222.04396"
       cx="14.207293"
       gradientTransform="scale(1.39523,0.716728)"
       gradientUnits="userSpaceOnUse"
       id="radialGradient1968"
       xlink:href="#linearGradient2057"
       inkscape:collect="always" />
    <linearGradient
       inkscape:collect="always"
       id="linearGradient2057">
      <stop
         style="stop-color:#000000;stop-opacity:1;"
         offset="0"
         id="stop2059" />
      <stop
         style="stop-color:#000000;stop-opacity:0;"
         offset="1"
         id="stop2061" />
    </linearGradient>
  </defs>
  <sodipodi:namedview
     id="base"
     pagecolor="#ffffff"
     bordercolor="#666666"
     borderopacity="1.0"
     gridtolerance="10000"
     guidetolerance="10"
     objecttolerance="10"
     inkscape:pageopacity="0.0"
     inkscape:pageshadow="2"
     inkscape:zoom="1"
     inkscape:cx="64"
     inkscape:cy="64"
     inkscape:document-units="px"
     inkscape:current-layer="layer1"
     showgrid="false"
     width="744.09px"
     inkscape:window-width="1248"
     inkscape:window-height="975"
     inkscape:window-x="426"
     inkscape:window-y="24"
     showguides="true"
     inkscape:guide-bbox="true" />
  <metadata
     id="metadata7">
    <rdf:RDF>
      <cc:Work
         rdf:about="">
        <dc:format>image/svg+xml</dc:format>
        <dc:type
           rdf:resource="http://purl.org/dc/dcmitype/StillImage" />
      </cc:Work>
    </rdf:RDF>
  </metadata>
  <g
     inkscape:label="Layer 1"
     inkscape:groupmode="layer"
     id="layer1">
    <path
       style="fill:#5c2700;fill-opacity:1;fill-rule:evenodd;stroke:none;stroke-width:1px;stroke-linecap:butt;stroke-linejoin:miter;stroke-opacity:1"
       d="M 72.53125 18.9375 L 45.78125 26.5 L 45.90625 35.65625 L 5.78125 52 L 5.78125 69.625 L 5.65625 71.46875 L 23.3125 84.8125 L 23.34375 85 C 23.634307 85.314839 23.910999 85.62638 24.21875 85.9375 C 24.207759 86.001811 24.197841 85.998488 24.1875 86.03125 C 23.49748 86.266115 22.911846 86.658447 22.25 87.09375 C 20.23938 88.829257 18.937131 91.06418 19.25 93.78125 C 19.254689 93.822047 19.213307 93.86521 19.21875 93.90625 L 19.3125 94.4375 C 19.603057 94.752337 19.910999 95.063876 20.21875 95.375 C 20.168096 95.671401 20.118205 95.5253 20.09375 95.84375 C 20.6639 96.395511 21.391596 97.2981 22.34375 97.53125 C 22.349162 97.483461 22.337789 97.39192 22.34375 97.34375 C 23.429355 98.280831 24.60181 99.20372 25.875 100.0625 C 25.859726 100.19396 25.854156 100.3332 25.84375 100.46875 C 26.552707 101.33993 27.155848 101.58879 28.09375 101.6875 C 28.102042 101.61419 28.115392 101.54296 28.125 101.46875 C 28.955648 101.94953 29.813574 102.4062 30.71875 102.84375 C 30.878846 102.94759 31.546823 103.15831 31.84375 103.28125 L 32.8125 103.0625 C 32.850974 102.9787 32.681734 102.81417 32.625 102.71875 C 32.67457 102.70189 33.045122 102.95532 33.09375 102.9375 C 33.33019 102.85084 33.567345 102.76393 33.78125 102.65625 C 33.832721 102.63033 33.63733 102.40206 33.6875 102.375 C 33.744685 102.34416 34.038235 102.50101 34.09375 102.46875 C 34.404562 102.47689 34.480193 102.25701 34.65625 102.09375 C 34.70048 102.05559 34.611093 101.85053 34.65625 101.8125 C 34.7056 101.77091 34.887778 101.91675 34.9375 101.875 C 35.094403 101.7432 35.261984 101.60895 35.40625 101.46875 C 35.468206 101.41494 35.254869 101.11926 35.3125 101.0625 C 35.366644 101.00915 35.698291 101.18 35.75 101.125 C 35.899244 100.96614 36.00609 100.81434 36.15625 100.65625 C 36.190615 100.61605 35.935097 100.35309 35.96875 100.3125 C 36.000677 100.27395 36.312459 100.44517 36.34375 100.40625 C 36.476067 100.24157 36.631062 100.07754 36.75 99.90625 C 36.788779 99.850391 36.525288 99.58783 36.5625 99.53125 C 36.597339 99.478281 36.935334 99.61609 36.96875 99.5625 C 37.079109 99.385421 37.156816 99.21501 37.25 99.03125 C 37.274746 98.982421 37.07031 98.79928 37.09375 98.75 C 37.118773 98.697371 37.382781 98.7719 37.40625 98.71875 C 37.488887 98.531681 37.562847 98.34996 37.625 98.15625 C 37.641439 98.105021 37.391346 97.92667 37.40625 97.875 C 37.420439 97.825821 37.705991 97.92459 37.71875 97.875 C 37.726819 97.843621 37.742691 97.81286 37.75 97.78125 C 38.062131 97.942621 38.364223 98.09373 38.6875 98.25 C 38.847595 98.353841 39.484323 98.56456 39.78125 98.6875 L 40.78125 98.46875 C 40.819722 98.384951 40.650484 98.22042 40.59375 98.125 C 40.643323 98.108141 40.982622 98.36157 41.03125 98.34375 C 41.267689 98.257091 41.504845 98.17018 41.71875 98.0625 C 41.77022 98.036581 41.60608 97.80831 41.65625 97.78125 C 41.713433 97.750411 42.006985 97.90726 42.0625 97.875 C 42.34206 97.851891 42.448943 97.66326 42.625 97.5 C 42.669233 97.461841 42.548593 97.25678 42.59375 97.21875 C 42.643098 97.177161 42.856528 97.323 42.90625 97.28125 C 43.063156 97.149451 43.230734 97.0152 43.375 96.875 C 43.436955 96.821191 43.192369 96.52551 43.25 96.46875 C 43.304146 96.415401 43.635791 96.58625 43.6875 96.53125 C 43.836743 96.372391 43.97484 96.22059 44.125 96.0625 C 44.159363 96.022301 43.903847 95.75934 43.9375 95.71875 C 43.96943 95.680201 44.281209 95.85142 44.3125 95.8125 C 44.444816 95.647821 44.568562 95.48379 44.6875 95.3125 C 44.726277 95.256641 44.462788 94.99408 44.5 94.9375 C 44.534838 94.884527 44.904084 95.02234 44.9375 94.96875 C 45.047858 94.791667 45.125566 94.62126 45.21875 94.4375 C 45.243495 94.388667 45.00781 94.20553 45.03125 94.15625 C 45.056272 94.103617 45.351531 94.17815 45.375 94.125 C 45.457636 93.937927 45.531597 93.75621 45.59375 93.5625 C 45.610188 93.511267 45.328846 93.33292 45.34375 93.28125 C 45.357938 93.232067 45.643491 93.33084 45.65625 93.28125 C 45.716502 93.046967 45.78612 92.80614 45.8125 92.5625 C 45.820573 92.487777 45.526573 92.20059 45.53125 92.125 C 45.536167 92.045487 45.811474 92.17421 45.8125 92.09375 C 45.816665 91.764407 45.816275 91.40802 45.75 91.0625 C 45.737853 90.999217 45.426284 90.81396 45.40625 90.75 C 45.376937 90.656377 45.652001 90.68841 45.625 90.59375 C 45.505352 90.174347 45.362129 89.75625 45.125 89.3125 C 44.797184 88.934497 44.559488 88.82576 43.53125 87.78125 C 43.659428 87.735106 43.805056 87.66886 43.9375 87.625 C 43.394585 86.839119 42.598535 86.31481 41.75 85.75 C 41.732223 85.764557 41.705754 85.767489 41.6875 85.78125 C 41.567853 85.361845 41.393379 84.9125 41.15625 84.46875 C 40.828435 84.090749 40.621988 83.98201 39.59375 82.9375 C 39.72193 82.891359 39.836306 82.85636 39.96875 82.8125 C 39.425837 82.026614 38.629785 81.47106 37.78125 80.90625 C 37.700453 80.972425 37.613529 81.05935 37.53125 81.125 C 37.415321 81.025632 37.271447 80.935235 37.15625 80.84375 L 39.78125 79.78125 L 39.78125 79.9375 L 41.25 81.375 L 55.65625 75.59375 L 55.65625 74.4375 L 54.6875 73.71875 L 67.84375 68.40625 L 76.84375 75.40625 L 75.3125 76.4375 L 75.3125 77.90625 L 86.71875 86.5625 L 89.1875 84.96875 L 89.1875 85.03125 L 92.125 87.3125 L 92.125 87.96875 L 92.6875 87.75 L 102.90625 95.6875 L 125.84375 86.40625 L 125.65625 84.90625 L 125.59375 66.84375 L 95.5 43.34375 L 95.5 33.53125 L 72.53125 18.9375 z M 72.25 19.5625 L 72.125 24 L 48.09375 26.59375 L 72.25 19.5625 z M 72.6875 19.75 L 91.96875 31.90625 L 72.71875 24.15625 L 72.6875 19.75 z M 70.5625 20.375 L 68.9375 20.875 L 68.84375 20.78125 L 68.78125 20.90625 L 64.78125 22.15625 L 64.375 21.96875 L 64.28125 22.25 L 64.34375 22.28125 L 60.125 23.59375 L 59.71875 23.34375 L 59.53125 23.5 L 59.84375 23.6875 L 58.875 23.96875 L 59.09375 24.125 L 60.09375 23.8125 L 61.375 24.53125 L 61.6875 24.46875 L 60.375 23.71875 L 64.65625 22.40625 L 67.625 23.65625 L 67.25 23.8125 L 67.25 23.875 L 67.71875 23.71875 L 68.40625 24 L 68.59375 23.9375 L 67.9375 23.625 L 70.78125 22.65625 L 71.21875 22.96875 L 71.375 22.90625 L 71 22.59375 L 71.59375 22.375 L 71.5 22.25 L 70.875 22.46875 L 69.15625 21.03125 L 70.875 20.5 L 70.5625 20.375 z M 68.75 21.15625 L 70.65625 22.5625 L 67.84375 23.59375 L 65.0625 22.28125 L 68.75 21.15625 z M 75.5 22.59375 L 75.34375 22.78125 C 75.67018 22.984627 75.988227 23.19944 76.3125 23.40625 L 73.59375 24.0625 L 73.5625 24.1875 L 76.53125 23.5625 C 77.34448 24.083678 78.164788 24.589266 78.96875 25.125 L 77.90625 25.375 L 78 25.5 L 79.125 25.25 C 80.35427 26.070619 81.587828 26.892017 82.8125 27.71875 L 82.875 27.625 C 81.714798 26.763571 80.58589 25.976455 79.4375 25.1875 L 80.375 24.96875 L 80.4375 24.8125 L 79.28125 25.0625 C 78.511907 24.536201 77.719065 23.991244 76.90625 23.46875 L 77.71875 23.3125 L 77.5625 23.125 L 76.6875 23.34375 C 76.294128 23.092244 75.910478 22.848515 75.5 22.59375 z M 72.03125 24.34375 L 54.625 32.21875 L 47.09375 27.125 L 72.03125 24.34375 z M 56.40625 24.5 L 53.40625 25.3125 L 53.59375 25.53125 L 56.4375 24.65625 L 56.40625 24.5 z M 72.875 24.5 L 94.28125 33.375 L 86.1875 36.4375 L 86.21875 36.34375 L 84.71875 35.3125 L 72.875 24.5 z M 72.625 24.71875 L 82.53125 33.84375 L 72.84375 27.28125 L 72.0625 26.625 L 72.625 24.71875 z M 72.125 24.75 L 71.6875 26.46875 L 54.09375 34.1875 L 54.09375 34.15625 L 52.96875 34 L 61.8125 30.09375 L 61.8125 30.0625 L 66.90625 28.3125 L 66.8125 28.125 L 57.5625 31.3125 L 57.625 31.5 L 60.34375 30.5625 L 52.71875 33.96875 L 51.625 33.8125 L 51.46875 34 L 52.375 34.125 L 51.46875 34.53125 L 51.6875 34.5625 L 52.625 34.15625 L 53.84375 34.3125 L 20.78125 48.84375 L 7.90625 51.59375 L 25.625 44.375 L 25.59375 44.53125 L 26.1875 44.625 L 19.90625 47.25 L 19.125 47.25 L 18.78125 47.40625 L 19.5 47.40625 L 18.1875 47.96875 L 18.46875 48.1875 L 20.25 47.4375 L 22.71875 47.46875 L 22.8125 47.28125 L 20.65625 47.25 L 26.625 44.71875 L 28.40625 45.03125 L 28.4375 44.78125 L 26.96875 44.5625 L 38.1875 39.8125 L 38.15625 39.65625 L 26.5 44.5 L 25.65625 44.375 L 41.6875 37.875 L 51.625 33.8125 L 55.15625 32.375 L 57.5625 31.3125 L 72.125 24.75 z M 41.6875 37.875 L 41.59375 38.0625 L 42.25 38.46875 L 41.34375 38.875 L 41.375 39.09375 L 42.5 38.59375 L 42.75 38.75 L 43.03125 38.5625 L 42.8125 38.46875 L 48.6875 35.875 L 48.59375 35.59375 L 42.5625 38.3125 L 41.6875 37.875 z M 58.90625 26.125 L 58.71875 26.34375 L 59.65625 27.1875 L 52.96875 28.09375 L 51.46875 27 L 51.1875 27.15625 L 52.53125 28.125 L 51.25 28.3125 L 51.25 28.46875 L 52.71875 28.28125 L 55.25 30.125 L 55.40625 29.875 L 53.125 28.21875 L 59.78125 27.3125 L 60.5625 28 L 60.75 27.84375 L 60.125 27.25 L 65.9375 26.46875 L 65.9375 26.34375 L 60 27.15625 L 58.90625 26.125 z M 46.09375 26.84375 L 52.125 31.28125 L 52.09375 33.125 L 51.03125 33.5625 L 46.21875 30.03125 L 46.09375 26.84375 z M 71.53125 26.96875 L 67.65625 48.46875 L 25.0625 65.6875 L 21.3125 49.1875 L 71.53125 26.96875 z M 71.90625 27.125 L 110.71875 59.78125 L 103.0625 75.65625 L 85.875 62.375 L 68.28125 48.78125 L 71.90625 27.125 z M 79.34375 28.5 L 79.09375 28.6875 L 85.75 33.375 L 84.21875 34.0625 L 84.3125 34.3125 L 85.9375 33.53125 L 88 34.96875 L 88.28125 34.9375 L 86.15625 33.40625 L 89.09375 32 L 88.96875 31.9375 L 85.96875 33.28125 L 79.34375 28.5 z M 74.5 28.6875 L 84.75 35.90625 L 85.71875 36.78125 L 95.1875 44.0625 L 123.625 65.84375 L 111.03125 59.5 L 74.5 28.6875 z M 95.1875 44.0625 L 87.71875 39.5625 L 87.5625 39.65625 L 95.3125 44.25 L 95.1875 44.0625 z M 73.5625 29.84375 L 73.40625 30.9375 C 73.033083 30.602896 72.652903 30.274189 72.28125 29.9375 L 72.09375 30.09375 C 72.508064 30.469415 72.927175 30.845477 73.34375 31.21875 L 71.34375 44.34375 L 71 44.09375 L 70.875 44.25 L 71.3125 44.5625 L 71.0625 46.09375 L 71.25 46.28125 L 71.5 44.6875 L 75.90625 47.84375 L 75.53125 50.5625 L 75.8125 50.65625 L 76.15625 48.03125 L 77.65625 49.09375 L 77.8125 48.96875 L 76.1875 47.8125 L 77.46875 38.4375 L 79.375 40 L 79.5 39.71875 L 77.5 38.09375 L 77.5625 37.65625 L 77.375 37.5625 L 77.3125 37.9375 L 73.59375 34.875 L 73.46875 35.15625 L 77.28125 38.28125 L 75.9375 47.625 L 71.53125 44.46875 L 73.59375 31.4375 C 77.027121 34.507267 80.527032 37.507035 84.03125 40.5 L 81.96875 48.5 L 82.21875 48.625 L 84.25 40.6875 C 86.391926 42.516909 88.531395 44.341704 90.65625 46.1875 L 90.6875 45.9375 C 88.57394 44.090242 86.43978 42.261067 84.3125 40.4375 L 84.8125 38.4375 L 84.53125 38.5 L 84.09375 40.25 C 80.582371 37.240158 77.075745 34.244274 73.625 31.15625 L 73.8125 30 L 73.5625 29.84375 z M 46.21875 30.21875 L 48.8125 32.125 L 48.78125 34.4375 L 48.21875 34.71875 L 46.34375 33.375 L 46.21875 30.21875 z M 66.34375 30.34375 C 66.341251 30.358394 66.358976 30.407033 66.375 30.46875 C 66.405067 30.400243 66.349938 30.307487 66.34375 30.34375 z M 66.375 30.46875 C 66.359967 30.503004 66.31412 30.519917 66.25 30.53125 C 66.527549 33.026438 66.254663 35.558147 66.375 38.0625 L 62.8125 39.59375 C 62.281786 37.569967 61.749713 35.546514 61.1875 33.53125 L 61 33.6875 C 61.543693 35.6986 62.052884 37.703304 62.5625 39.71875 L 53.03125 43.8125 L 50.5625 38.59375 L 55.78125 36.34375 L 56.96875 39.3125 L 57.125 39.125 L 55.96875 36.28125 L 58.78125 35.0625 L 58.59375 34.875 L 55.875 36.0625 L 55.59375 35.375 L 55.40625 35.4375 L 55.6875 36.125 L 50.4375 38.375 L 50.28125 38.03125 L 50.1875 38.25 L 50.28125 38.4375 L 32.09375 46.28125 L 31.96875 45.90625 L 31.6875 46 L 31.8125 46.375 L 25 49.3125 C 24.917719 49.042004 24.831888 48.770618 24.75 48.5 C 24.513985 48.264381 24.791667 48.354167 24.46875 48.4375 C 24.564445 48.773274 24.68278 49.102551 24.78125 49.4375 L 23.65625 49.90625 L 23.6875 50.15625 L 24.84375 49.65625 C 25.58671 52.168082 26.381007 54.664259 27.1875 57.15625 L 27.46875 57.15625 C 26.63835 54.633061 25.836703 52.103337 25.0625 49.5625 L 31.875 46.625 L 33.65625 52.1875 L 32.90625 52.53125 L 32.875 52.78125 L 33.75 52.40625 L 35.4375 57.6875 L 31.75 59.21875 L 29.4375 51.6875 L 29.21875 51.65625 L 31.46875 59.34375 L 29.5 60.15625 L 29.625 60.40625 L 31.53125 59.59375 L 32.125 61.65625 L 32.46875 61.5 L 31.84375 59.46875 L 35.5 57.9375 L 35.9375 59.28125 L 36.21875 59.28125 L 35.75 57.84375 L 44.1875 54.3125 L 44 54.15625 L 35.6875 57.59375 L 34 52.28125 L 38.21875 50.4375 L 38.875 52.3125 L 39.0625 52.21875 L 38.4375 50.34375 L 40.6875 49.375 L 40.6875 49.09375 L 38.375 50.125 L 37.40625 47.28125 L 37.09375 47.34375 L 38.125 50.21875 L 33.9375 52.09375 L 32.15625 46.5 L 50.375 38.65625 L 52.90625 43.875 L 46.71875 46.53125 L 46.0625 45.125 L 45.90625 45.21875 L 46.53125 46.625 L 44.625 47.4375 L 44.6875 47.65625 L 46.625 46.8125 L 50.0625 54.375 L 50.40625 54.3125 L 46.8125 46.71875 L 52.96875 44.03125 L 55.78125 49.875 L 55.28125 50.09375 L 55.4375 50.21875 L 55.84375 50.03125 L 56.21875 50.78125 L 56.34375 50.75 L 55.96875 49.96875 L 62.09375 47.1875 L 62.65625 48.65625 L 62.875 48.5625 L 62.34375 47.09375 L 62.875 46.84375 L 62.84375 46.625 L 62.25 46.90625 L 61.34375 44.4375 L 61.0625 44.40625 L 62.03125 47 L 55.90625 49.8125 L 53.125 43.96875 L 62.59375 39.875 C 62.769812 40.5704 62.943227 41.273308 63.125 41.96875 L 63.40625 41.84375 C 63.223764 41.144499 63.026954 40.449072 62.84375 39.75 L 66.40625 38.21875 C 66.430852 38.667041 66.443299 39.116461 66.5 39.5625 L 66.6875 39.625 C 66.618653 39.139559 66.561086 38.650411 66.53125 38.15625 L 67.5625 37.71875 L 67.59375 37.53125 L 66.53125 38 C 66.398048 35.516213 66.649684 32.945226 66.375 30.5 C 66.369641 30.482031 66.378815 30.483445 66.375 30.46875 z M 52.28125 31.375 L 53.75 32.46875 L 52.25 33.0625 L 52.28125 31.375 z M 48.9375 32.21875 L 50.875 33.625 L 48.9375 34.4375 L 48.9375 32.21875 z M 46.34375 33.59375 L 48 34.8125 L 46.40625 35.46875 L 46.34375 33.59375 z M 94.75 33.84375 L 94.75 36.5625 L 90.125 38.375 L 90.15625 35.59375 L 94.75 33.84375 z M 89.96875 35.65625 L 89.9375 38.46875 L 89.4375 38.6875 L 86.96875 36.78125 L 89.96875 35.65625 z M 94.75 36.84375 L 94.75 40.15625 L 92.5 41.03125 L 89.6875 38.875 L 94.75 36.84375 z M 94.75 40.375 L 94.75 42.75 L 92.71875 41.1875 L 94.75 40.375 z M 94.75 44.25 L 94.59375 44.375 L 109.65625 57.25 L 108.9375 57.125 L 108.875 57.3125 L 110.03125 57.59375 L 113 60.125 L 117.65625 61.84375 L 117.5625 61.5 L 113.1875 59.96875 L 110.53125 57.6875 L 112.59375 58.1875 L 112.625 57.84375 L 110.125 57.34375 L 94.75 44.25 z M 41.8125 44.75 L 41.65625 44.9375 L 44.09375 51.21875 L 44.40625 51.25 L 41.8125 44.75 z M 88.34375 46.5 C 87.987557 47.440198 87.615417 48.375859 87.25 49.3125 L 84.75 47.125 L 84.6875 47.375 L 87.15625 49.5625 C 86.265797 51.839891 85.356851 54.109101 84.4375 56.375 L 82.6875 54.90625 L 82.65625 55.0625 L 84.375 56.53125 C 84.197414 56.968798 84.021615 57.406333 83.84375 57.84375 L 84.09375 57.96875 C 84.259475 57.542226 84.425379 57.112996 84.59375 56.6875 L 90.1875 61.40625 C 89.86363 62.064598 89.532912 62.727966 89.25 63.4375 L 89.5 63.5 C 89.759695 62.84939 90.049907 62.19755 90.34375 61.5625 L 98.78125 68.65625 L 98.15625 69.78125 L 98.28125 69.96875 L 98.9375 68.8125 L 100.28125 69.9375 L 100.53125 69.84375 L 99.03125 68.59375 L 102.21875 62.90625 L 103.25 63.8125 L 103.4375 63.625 L 102.375 62.65625 L 104.0625 59.65625 L 106.4375 61.875 L 106.625 61.75 L 104.15625 59.46875 L 105.09375 57.78125 L 104.96875 57.59375 L 104 59.3125 L 98.40625 54.125 L 99.625 51.6875 L 99.40625 51.59375 L 98.21875 53.96875 L 97.53125 53.3125 L 97.40625 53.46875 L 98.125 54.15625 L 96.46875 57.4375 L 93.53125 54.84375 C 93.827671 54.135132 94.106529 53.42143 94.34375 52.6875 L 94.21875 52.625 C 94.012303 53.389373 93.751512 54.113777 93.46875 54.8125 L 87.46875 49.5 C 87.853202 48.515113 88.230337 47.524269 88.59375 46.53125 L 88.34375 46.5 z M 67.59375 49.0625 L 67.71875 58.84375 L 66.6875 59.25 L 66.71875 49.4375 L 67.59375 49.0625 z M 68.28125 49.3125 L 69.21875 50.03125 L 69.15625 59.75 L 68.375 59.09375 L 68.28125 49.3125 z M 20.875 49.375 L 24.59375 65.90625 L 7.125 52.34375 L 20.875 49.375 z M 66.28125 49.59375 L 66.3125 52.15625 L 63.46875 53.28125 L 63.46875 50.71875 L 66.28125 49.59375 z M 87.375 49.75 L 93.34375 55.0625 C 92.991275 55.903583 92.601562 56.704645 92.1875 57.5 L 88.78125 54.5625 L 88.5 54.625 L 92.09375 57.75 C 91.485928 58.905646 90.846983 60.049529 90.25 61.25 L 84.65625 56.5625 C 85.55757 54.288134 86.482521 52.027698 87.375 49.75 z M 69.71875 50.40625 L 74.8125 54.40625 L 74.84375 56.6875 L 69.6875 52.6875 L 69.71875 50.40625 z M 17.21875 50.75 L 16.25 51.75 L 15.59375 51.21875 L 15.4375 51.4375 L 16.0625 51.96875 L 13.125 55.03125 L 11.21875 53.53125 L 12.375 52.3125 L 12.125 52.1875 L 11.125 53.4375 L 10 52.5625 L 9.875 52.65625 L 11 53.5625 L 10.65625 54 L 10.71875 54.0625 L 11.125 53.65625 L 13.03125 55.15625 L 12.75 55.4375 L 13 55.65625 L 13.28125 55.34375 L 16.0625 57.5625 L 16.28125 57.5 L 13.375 55.21875 L 16.21875 52.09375 L 18.53125 53.96875 L 18.28125 54.25 L 18.40625 54.25 L 18.59375 54.03125 L 21.09375 56.09375 L 21.25 55.875 L 18.78125 53.84375 L 20.875 51.6875 L 20.6875 51.625 L 18.71875 53.78125 L 16.40625 51.90625 L 17.34375 50.875 L 17.21875 50.75 z M 63.28125 50.8125 L 63.28125 53.375 L 57.5 55.65625 L 57.5 53.15625 L 63.28125 50.8125 z M 66.3125 52.375 L 66.34375 55.03125 L 60.5625 57.34375 L 60.5625 54.71875 L 66.3125 52.375 z M 6.5 52.53125 L 7.15625 53.03125 L 7 63.15625 L 6.40625 62.71875 L 6.5 52.53125 z M 69.6875 52.84375 L 71.5625 54.3125 L 71.53125 57.03125 L 69.625 55.53125 L 69.6875 52.84375 z M 57.3125 53.21875 L 57.3125 55.75 L 57.0625 55.84375 L 57 53.34375 L 57.3125 53.21875 z M 7.59375 53.375 L 7.90625 53.625 L 8.03125 62.9375 L 7.34375 63.28125 L 7.59375 53.375 z M 56.5 53.5625 L 56.6875 57.71875 L 51.15625 59.65625 L 51.0625 55.75 L 51.46875 55.59375 L 51.46875 59.15625 L 55.9375 57.59375 L 55.9375 53.78125 L 56.5 53.5625 z M 55.625 53.90625 L 55.71875 57.375 L 51.6875 58.8125 L 51.75 55.46875 L 55.625 53.90625 z M 8.34375 53.9375 L 11 55.96875 L 10.96875 59.125 L 8.3125 60.375 L 8.34375 53.9375 z M 98.3125 54.3125 L 103.90625 59.5 L 102.21875 62.53125 L 96.625 57.59375 L 98.3125 54.3125 z M 71.71875 54.4375 L 74.84375 56.875 L 74.875 58.96875 L 76.96875 60.59375 L 76.96875 61.3125 L 71.71875 57.1875 L 71.71875 54.4375 z M 60.375 54.78125 L 60.375 57.40625 L 60.375 57.4375 L 53.5625 60.15625 L 53.5625 59.375 L 57.125 58.03125 L 57.0625 56.125 L 60.375 54.78125 z M 75.3125 54.78125 L 75.78125 55.15625 L 75.78125 58.625 L 77 59.53125 L 77 60.1875 L 75.25 58.875 L 75.3125 54.78125 z M 93.40625 55.09375 L 96.34375 57.71875 L 95.78125 58.84375 L 95.96875 58.90625 L 96.5 57.84375 L 102.0625 62.78125 L 98.875 68.46875 L 90.4375 61.40625 C 91.005438 60.189418 91.56525 58.985873 92.15625 57.78125 L 95.5625 60.75 L 95.78125 60.59375 L 92.28125 57.5625 C 92.67724 56.750822 93.051733 55.922697 93.40625 55.09375 z M 66.34375 55.25 L 66.375 58 L 63.75 59.03125 L 63.75 56.28125 L 66.34375 55.25 z M 76.0625 55.34375 L 79.40625 57.96875 L 79.3125 61 L 75.96875 58.625 L 76.0625 55.34375 z M 69.625 55.65625 L 73.71875 58.875 L 73.71875 61.65625 L 69.53125 58.4375 L 69.625 55.65625 z M 50.4375 56.03125 L 50.5 58.5 L 48.53125 59.28125 L 48.53125 56.8125 L 50.4375 56.03125 z M 63.5625 56.375 L 63.5625 59.125 L 57.78125 61.40625 L 57.78125 58.6875 L 63.5625 56.375 z M 11.625 56.46875 L 14.125 58.375 L 14.1875 60.875 L 11.625 59 L 11.625 56.46875 z M 17.9375 56.84375 L 17.6875 57 L 19.6875 58.59375 L 18.53125 59.96875 L 18.6875 60.15625 L 19.84375 58.71875 L 22.5625 60.875 L 22.71875 60.71875 L 20 58.53125 L 21.15625 57.125 L 21.0625 56.96875 L 19.84375 58.40625 L 17.9375 56.84375 z M 48.34375 56.875 L 48.34375 59.375 L 38 63.5 L 38 61.0625 L 48.34375 56.875 z M 66.375 58.21875 L 66.375 58.59375 L 60.90625 60.71875 L 60.90625 60.40625 L 66.375 58.21875 z M 79.71875 58.21875 L 80.125 58.53125 L 80.125 62.59375 L 77.15625 60.34375 L 77.15625 59.65625 L 79.625 61.46875 L 79.71875 58.21875 z M 69.53125 58.5625 L 71.125 59.78125 L 71.09375 60.4375 L 69.5625 59.21875 L 69.53125 58.5625 z M 50.5 58.75 L 50.53125 60.53125 L 53.375 59.4375 L 53.375 60.21875 L 43.375 64.21875 L 43.375 61.625 L 50.5 58.75 z M 57.625 58.75 L 57.59375 61.5 L 48.78125 65.03125 L 48.78125 62.3125 L 57.625 58.75 z M 14.8125 58.875 L 15.3125 59.25 L 15.3125 62.84375 L 19.15625 65.71875 L 19.25 62.28125 L 19.625 62.5625 L 19.6875 66.53125 L 14.875 62.84375 L 14.8125 58.875 z M 66.375 58.90625 L 66.375 59.375 L 50.09375 65.8125 L 50.15625 72.75 C 50.010416 72.650294 49.867802 72.541029 49.75 72.375 L 49.5625 65.5 L 66.375 58.90625 z M 73.84375 59 L 79.34375 63.34375 L 79.3125 66 L 73.84375 61.78125 L 73.84375 59 z M 80.75 59 L 85.875 63 L 85.875 65.21875 L 80.75 61.28125 L 80.75 59 z M 11.625 59.15625 L 13.75 60.71875 L 13.75 63.40625 L 11.625 61.84375 L 11.625 59.15625 z M 67.71875 59.3125 L 67.8125 65.875 L 50.78125 72.8125 L 50.65625 66.0625 L 67.71875 59.3125 z M 15.59375 59.46875 L 18.96875 62.0625 L 18.875 65.25 L 15.53125 62.875 L 15.59375 59.46875 z M 69.53125 59.5 L 80.4375 68.21875 L 79.875 68.4375 L 69.53125 60.03125 L 69.53125 59.5 z M 68.375 59.625 L 79.375 68.65625 L 79.1875 74.59375 L 68.4375 66.125 L 68.375 59.625 z M 10.96875 59.65625 L 10.96875 60.34375 L 8.28125 61.71875 L 8.28125 60.875 L 10.96875 59.65625 z M 71.28125 59.90625 L 76.5625 64.03125 L 76.53125 64.71875 L 71.28125 60.5625 L 71.28125 59.90625 z M 111.125 60.21875 L 124.25 66.75 L 103.59375 75.375 L 111.125 60.21875 z M 60.71875 60.5 L 60.71875 60.78125 L 54.03125 63.375 L 54.03125 63.1875 L 60.71875 60.5 z M 77.15625 60.71875 L 80.75 63.46875 L 80.75 61.53125 L 82.46875 62.875 L 82.46875 65.625 L 77.15625 61.46875 L 77.15625 60.71875 z M 10.9375 60.8125 L 10.90625 65.03125 L 8.28125 63.0625 L 8.28125 62.09375 L 10.9375 60.8125 z M 13.9375 60.84375 L 14.1875 61.03125 L 14.25 63.1875 L 20.125 67.6875 L 20.15625 65.4375 L 20.875 66 L 20.84375 68.5625 L 13.9375 63.5 L 13.9375 60.84375 z M 37.84375 61.125 L 37.8125 63.59375 L 36.6875 64.03125 L 36.625 61.625 L 37.84375 61.125 z M 111.6875 61.59375 L 111.40625 61.625 C 111.73505 62.642205 112.0983 63.65266 112.46875 64.65625 L 111.03125 65.34375 L 111.21875 65.46875 L 112.53125 64.875 C 113.05297 66.279893 113.61537 67.665689 114.15625 69.0625 C 111.70708 70.243795 109.25771 71.423331 106.75 72.34375 L 106.8125 72.40625 C 109.33673 71.517706 111.75217 70.337907 114.1875 69.1875 C 114.23642 69.31394 114.295 69.43603 114.34375 69.5625 L 114.53125 69.4375 C 114.48816 69.324069 114.44934 69.207327 114.40625 69.09375 C 115.74918 68.460333 117.10273 67.845269 118.46875 67.28125 L 119 68.28125 L 119.15625 68.1875 L 118.6875 67.1875 C 119.08068 67.027316 119.47794 66.867328 119.875 66.71875 L 119.75 66.53125 C 119.36945 66.678448 119.00333 66.841699 118.625 67 L 117.65625 64.90625 L 117.3125 65.03125 L 118.375 67.09375 C 117.02975 67.664872 115.67554 68.296086 114.34375 68.9375 C 113.82184 67.560983 113.31476 66.172538 112.8125 64.78125 L 115.34375 63.65625 L 115.15625 63.34375 L 112.71875 64.53125 C 112.3672 63.552579 112.01345 62.574524 111.6875 61.59375 z M 43.1875 61.6875 L 43.1875 64.28125 L 33.90625 68 L 33.90625 67.625 L 36.75 66.53125 L 36.6875 64.3125 L 43.1875 61.6875 z M 36 61.875 L 36.1875 66.28125 L 30.65625 68.40625 L 30.6875 64.03125 L 31.03125 63.875 L 31.0625 67.53125 L 35.5 65.96875 L 35.5 62.0625 L 36 61.875 z M 11.625 62 L 13.75 63.5625 L 13.78125 63.59375 L 16.375 65.5 L 16.375 68 L 11.625 64.53125 L 11.625 62 z M 35.21875 62.1875 L 35.3125 65.78125 L 31.25 67.21875 L 31.34375 63.78125 L 35.21875 62.1875 z M 48.59375 62.40625 L 48.59375 65.09375 L 38 69.3125 L 38 66.65625 L 48.59375 62.40625 z M 20.1875 62.96875 L 23.1875 65.28125 L 23.1875 67.46875 L 20.15625 65.21875 L 20.1875 62.96875 z M 82.625 63 L 88.625 67.65625 L 88.59375 70.46875 L 82.625 65.75 L 82.625 63 z M 86 63.125 L 91.8125 67.65625 L 91.78125 69.78125 L 86 65.3125 L 86 63.125 z M 7.90625 63.1875 L 13.53125 67.46875 L 20.625 72.875 L 23.1875 74.84375 L 23.1875 75.375 L 7.46875 63.5 L 7.90625 63.1875 z M 53.84375 63.25 L 53.84375 63.4375 L 48.90625 65.34375 L 49.03125 67.46875 L 43.78125 69.6875 L 43.78125 67.3125 L 53.84375 63.25 z M 79.4375 63.40625 L 85.53125 68.21875 L 85.5 70.78125 L 79.4375 66.09375 L 79.4375 63.40625 z M 6.40625 63.46875 L 24.5625 77.09375 L 24.5625 79.53125 C 23.964993 80.364098 23.546544 81.28517 23.34375 82.28125 L 6.40625 69.84375 L 6.40625 63.46875 z M 76.71875 64.125 L 81.90625 68.15625 L 81.875 70.875 L 80.96875 70.15625 L 81 68.21875 L 76.6875 64.84375 L 76.71875 64.125 z M 30 64.28125 L 30.03125 66.6875 L 29.40625 66.9375 L 29.40625 64.53125 L 30 64.28125 z M 29.21875 64.59375 L 29.21875 67 L 26.46875 68.125 L 26.4375 65.75 L 29.21875 64.59375 z M 11.625 64.6875 L 13.53125 66.09375 L 13.53125 67 L 11.625 65.5625 L 11.625 64.6875 z M 16.5625 65.625 L 23.1875 70.5 L 23.1875 72.9375 L 16.5625 68.09375 L 16.5625 65.625 z M 23.8125 65.75 L 24.53125 66.28125 L 24.5625 76.40625 L 23.75 75.8125 L 23.8125 65.75 z M 26 65.90625 L 26.0625 76.03125 L 25.375 76.3125 L 25.28125 66.21875 L 26 65.90625 z M 21.03125 66.09375 L 23.1875 67.6875 L 23.1875 70.28125 L 21.03125 68.6875 L 21.03125 66.09375 z M 13.71875 66.21875 L 16.375 68.15625 L 16.40625 68.1875 L 20.625 71.28125 L 20.625 72.34375 L 13.71875 67.15625 L 13.71875 66.21875 z M 68.1875 66.53125 L 92.125 85.40625 L 92.125 86.625 L 89.34375 84.5 L 89.3125 83.59375 L 77.90625 74.71875 L 77.1875 75.1875 L 68.21875 68.3125 L 68.1875 66.53125 z M 67.90625 66.5625 L 67.8125 68.09375 L 54.375 73.5 L 53.625 72.9375 L 39.8125 78.53125 L 39.78125 79.375 L 36.8125 80.5625 C 36.517819 80.343053 36.118645 80.056951 35.71875 79.78125 L 67.90625 66.5625 z M 37.84375 66.71875 L 37.8125 69.40625 L 29.71875 72.625 L 29.71875 70 L 37.84375 66.71875 z M 30.0625 66.96875 L 30.09375 69.09375 L 33.71875 67.6875 L 33.71875 68.09375 L 26.5 70.96875 L 26.46875 68.4375 L 30.0625 66.96875 z M 109 66.96875 L 108.75 67.09375 L 109.8125 69.5625 L 109.96875 69.375 L 109 66.96875 z M 43.59375 67.375 L 43.59375 69.78125 L 42.34375 70.3125 L 42.28125 69.375 L 40.625 68.625 L 33.90625 71.40625 L 33.90625 71.28125 L 43.59375 67.375 z M 125.0625 67.40625 L 124.78125 77.65625 L 124.03125 77.96875 L 123.9375 67.6875 L 125.0625 67.40625 z M 91.90625 67.75 L 92 67.8125 L 92.0625 70 L 91.90625 69.875 L 91.90625 67.75 z M 88.78125 67.78125 L 92.0625 70.34375 L 92.125 72.6875 L 95.125 74.96875 L 95.09375 75.59375 L 91.84375 73.03125 L 88.78125 70.59375 L 88.78125 67.78125 z M 123.59375 67.84375 L 123.75 77.71875 L 122.6875 77.25 L 122.6875 68.21875 L 123.59375 67.84375 z M 49.09375 68.09375 L 49.375 72.375 L 42.625 75.125 L 42.375 70.9375 L 49.09375 68.09375 z M 92.5625 68.21875 L 93 68.5625 L 93 72.21875 L 96.84375 75.09375 L 96.9375 71.59375 L 97.46875 72 L 97.5625 76.375 L 92.625 72.46875 L 92.5625 68.21875 z M 82.0625 68.28125 L 88.21875 73.03125 L 88.21875 74.4375 L 87.71875 74.625 L 87.71875 75.40625 L 82.0625 71 L 82.0625 68.28125 z M 85.625 68.28125 L 91.84375 73.21875 L 91.84375 75.65625 L 85.625 70.875 L 85.625 68.28125 z M 122.25 68.375 L 122.34375 74.65625 L 121.125 73.875 L 121.15625 68.84375 L 122.25 68.375 z M 80.5625 68.4375 L 80.46875 73.90625 L 79.65625 74.34375 L 79.875 68.75 L 80.5625 68.4375 z M 93.3125 68.78125 L 96.65625 71.375 L 96.5625 74.625 L 93.21875 72.25 L 93.3125 68.78125 z M 40.59375 69.0625 L 41.53125 69.5625 L 26.5625 75.8125 L 26.5625 74.90625 L 40.59375 69.0625 z M 120.53125 69.09375 L 120.53125 71.25 L 117.9375 72.34375 L 115.84375 73.1875 L 115.875 70.96875 L 120.53125 69.09375 z M 29.53125 70.0625 L 29.53125 72.71875 L 26.53125 73.90625 L 26.5 71.28125 L 29.53125 70.0625 z M 41.71875 70.09375 L 42.03125 76.40625 L 35 79.28125 C 34.715534 79.084309 34.550539 78.975369 34.1875 78.71875 L 34 78.375 C 33.598346 77.752864 33.18238 77.17224 32.21875 76.90625 C 32.162823 76.95206 32.058453 76.98499 31.96875 77 C 31.851245 77.005276 31.554554 76.93754 31.5 77.09375 C 31.386657 77.037727 31.293861 76.96908 31.1875 76.90625 L 30.59375 76.5625 C 30.062993 76.424944 29.591394 76.361713 29.1875 76.375 C 27.975817 76.414858 27.234637 77.060447 26.28125 77.6875 C 25.966961 77.958785 25.683747 78.236914 25.40625 78.53125 L 25.375 76.9375 L 41.71875 70.09375 z M 6.15625 70.34375 L 23.25 83.09375 C 23.224382 83.448724 23.215414 83.81287 23.25 84.1875 L 6.03125 71.3125 L 6.15625 70.34375 z M 80.9375 70.40625 L 87.71875 75.6875 L 87.71875 75.9375 L 80.9375 70.96875 L 80.9375 70.40625 z M 115.4375 71.15625 L 115.40625 75.40625 L 109.96875 77.59375 L 109.875 73.40625 L 110.34375 73.21875 L 110.34375 76.90625 L 114.8125 75.34375 L 114.8125 71.40625 L 115.4375 71.15625 z M 33.71875 71.34375 L 33.71875 71.46875 L 26.53125 74.4375 L 26.53125 74.25 L 33.71875 71.34375 z M 20.8125 71.40625 L 23.1875 73.15625 L 23.1875 74.28125 L 20.8125 72.5 L 20.8125 71.40625 z M 120.53125 71.46875 L 120.5 74.15625 L 118.125 75.125 L 118.125 72.46875 L 120.53125 71.46875 z M 80.90625 71.53125 L 87.71875 76.78125 L 87.75 79.4375 L 80.84375 73.90625 L 80.90625 71.53125 z M 114.5 71.53125 L 114.59375 75.15625 L 110.53125 76.5625 L 110.625 73.09375 L 114.5 71.53125 z M 98 72.4375 L 99.59375 73.6875 L 99.5625 75.78125 L 98 74.5625 L 98 72.4375 z M 117.9375 72.5625 L 117.9375 75.1875 L 108.53125 79.03125 L 108.53125 76.5 L 109.34375 76.15625 L 109.40625 78.53125 L 115.8125 75.84375 L 115.84375 73.4375 L 117.9375 72.5625 z M 49.5 72.65625 L 49.90625 73.15625 L 49.4375 73.375 L 42.65625 76.125 L 42.625 75.59375 L 49.5 72.65625 z M 53.5625 73.15625 L 55.1875 74.40625 L 41.625 80 L 40.375 78.53125 L 53.5625 73.15625 z M 88.375 73.15625 L 94.75 78.09375 L 94.78125 78.53125 L 89.21875 74.0625 L 88.375 74.375 L 88.375 73.15625 z M 91.96875 73.3125 L 98.78125 78.71875 L 96.8125 79.5 L 91.96875 75.75 L 91.96875 73.3125 z M 109.25 73.65625 L 109.3125 75.8125 L 104.9375 77.625 L 104.90625 75.4375 L 109.25 73.65625 z M 99.6875 73.75 L 101.28125 75 L 101.28125 77.125 L 99.6875 75.90625 L 99.6875 73.75 z M 121.125 74.21875 L 122.375 75.03125 L 122.375 75.9375 L 121.125 75 L 121.125 74.21875 z M 80.625 74.28125 L 87.75 79.90625 L 87.75 81.34375 L 79.59375 74.90625 L 80.625 74.28125 z M 120.5 74.34375 L 120.5 77.15625 L 113.59375 79.9375 L 113.625 77.25 L 120.5 74.34375 z M 55.375 74.65625 L 55.375 75.375 L 41.625 80.90625 L 41.625 80.3125 L 55.375 74.65625 z M 89.40625 74.65625 L 95.875 79.875 L 94.96875 80.25 L 88.40625 75.0625 L 89.40625 74.65625 z M 98 74.96875 L 101.3125 77.5625 L 101.3125 77.6875 L 99 78.625 L 95.25 75.6875 L 95.28125 75.09375 L 98 77.1875 L 98 74.96875 z M 77.90625 75.09375 L 88.625 83.4375 L 86.75 84.75 L 75.9375 76.40625 L 77.90625 75.09375 z M 121.125 75.34375 L 122.375 76.25 L 122.40625 77.25 L 121.125 77.78125 L 121.125 75.34375 z M 101.84375 75.40625 L 102.65625 76.0625 L 102.65625 78.3125 C 102.54872 78.005465 102.2779 77.762965 101.84375 77.65625 L 101.84375 75.40625 z M 104.21875 75.71875 L 104.4375 86.09375 L 103.375 86.53125 L 103.34375 76.0625 L 104.21875 75.71875 z M 88.34375 75.875 L 94.34375 80.5 L 91.3125 81.71875 C 90.37369 82.441429 90.17019 83.529513 91.71875 83.90625 L 92.125 83.71875 L 92.125 84.78125 L 88.4375 81.875 L 88.34375 75.875 z M 108.34375 76.5625 L 108.34375 79.125 L 104.96875 80.5 L 104.9375 78 L 108.34375 76.5625 z M 75.59375 76.625 L 86.375 84.84375 L 86.4375 85.875 L 75.6875 77.71875 L 75.59375 76.625 z M 30.375 77.03125 C 30.625481 77.156435 30.911654 77.31141 31.15625 77.4375 C 30.960111 77.527306 30.752484 77.62252 30.5625 77.71875 C 30.21759 77.51642 29.871592 77.29403 29.53125 77.09375 C 29.808659 77.065745 30.092082 77.04241 30.375 77.03125 z M 29.34375 77.09375 C 29.723934 77.31083 30.097036 77.52991 30.46875 77.75 C 30.084914 77.947936 29.700357 78.18052 29.34375 78.40625 C 28.832323 78.08561 28.357337 77.75685 27.84375 77.4375 C 28.312 77.271486 28.809964 77.15796 29.34375 77.09375 z M 32.40625 77.28125 C 32.987372 77.549248 33.995205 78.13471 33.5625 78.40625 C 28.16163 80.530134 27.273244 83.62111 25.90625 87.625 C 25.36131 87.312937 24.689353 87.04453 24.4375 86.25 C 25.464564 82.669015 26.646267 79.12024 32.40625 77.28125 z M 113.4375 77.3125 L 113.4375 80.03125 L 105.03125 83.4375 L 104.96875 80.875 L 113.4375 77.3125 z M 120.5 77.3125 L 120.5 78.03125 L 118.46875 78.84375 L 118.46875 78.15625 L 120.5 77.3125 z M 27.71875 77.5 C 28.228902 77.82361 28.741092 78.14375 29.25 78.46875 C 28.83542 78.736076 28.43619 79.004533 28.0625 79.3125 C 27.529129 78.964183 26.9766 78.62816 26.4375 78.28125 C 26.789024 77.926098 27.2305 77.68672 27.71875 77.5 z M 122.5625 77.5625 L 123.65625 78.125 L 105.0625 85.84375 L 105.03125 84.6875 L 122.5625 77.5625 z M 101.5 78.09375 C 102.07059 77.988112 103.04097 78.639331 101.78125 79.21875 L 91.78125 83.46875 C 90.72877 83.135417 91.39293 82.552083 91.375 82.21875 C 91.58807 82.249556 92.11697 82.278553 92.0625 83.125 C 92.35686 82.729968 92.76926 82.421976 92 81.875 L 101.5 78.09375 z M 124.78125 78.09375 L 124.875 84.4375 L 103.40625 93.125 L 103.375 87.1875 L 124.78125 78.09375 z M 94.90625 78.21875 L 96.65625 79.5625 L 96.28125 79.71875 L 94.9375 78.65625 L 94.90625 78.21875 z M 118.28125 78.25 L 118.28125 78.9375 L 108.6875 82.8125 L 108.71875 82.25 L 118.28125 78.25 z M 26.34375 78.34375 C 26.878798 78.694595 27.438127 79.053683 27.96875 79.40625 C 27.611089 79.707745 27.284563 80.03292 26.96875 80.375 L 25.46875 79.34375 C 25.756026 79.005093 26.031685 78.65488 26.34375 78.34375 z M 40 78.75 L 41.34375 80.15625 L 41.28125 81.09375 L 39.96875 79.78125 L 40 78.75 z M 33.65625 78.8125 C 34.973359 79.542182 36.296005 80.29897 37.28125 81.3125 C 37.051776 81.419087 36.819242 81.54221 36.59375 81.65625 C 35.242543 80.648898 34.047509 79.852817 32.875 79.125 C 33.131999 79.025825 33.378612 78.89989 33.65625 78.8125 z M 102.65625 78.875 L 102.65625 86.34375 L 101.78125 85.65625 L 101.8125 79.6875 L 101.875 79.65625 C 102.32168 79.482948 102.55994 79.184969 102.65625 78.875 z M 32.71875 79.15625 C 34.028355 79.990167 35.287761 80.83588 36.46875 81.71875 C 36.077247 81.920114 35.717655 82.14771 35.34375 82.375 C 34.118859 81.48638 32.794419 80.63623 31.46875 79.78125 C 31.869552 79.561058 32.252785 79.341427 32.71875 79.15625 z M 25.40625 79.40625 L 26.875 80.4375 C 26.603168 80.737754 26.362702 81.07352 26.125 81.40625 L 24.65625 80.375 C 24.873489 80.038941 25.146906 79.71724 25.40625 79.40625 z M 31.34375 79.84375 C 32.648707 80.701999 33.94351 81.56705 35.1875 82.46875 C 34.765487 82.732219 34.327007 83.00959 33.9375 83.3125 C 32.695341 82.424814 31.401686 81.55919 30.09375 80.6875 C 30.470512 80.390726 30.887853 80.10217 31.34375 79.84375 z M 101.3125 79.875 L 101.3125 80.46875 L 100.78125 80.0625 L 101.3125 79.875 z M 100.59375 80.125 L 101.3125 80.6875 L 101.34375 83 L 100.4375 82.3125 L 100.4375 80.1875 L 100.59375 80.125 z M 100 80.375 L 100.0625 84.53125 L 92.75 87.40625 L 92.6875 83.5 L 100 80.375 z M 24.625 80.46875 L 26.0625 81.46875 C 25.822577 81.811674 25.608085 82.1839 25.40625 82.5625 C 24.951385 82.231587 24.513803 81.8927 24.0625 81.5625 C 24.214398 81.186634 24.406782 80.816 24.625 80.46875 z M 30 80.78125 C 31.287334 81.64826 32.575597 82.5222 33.8125 83.40625 C 33.438359 83.704856 33.084144 84.03356 32.75 84.375 L 28.9375 81.75 C 29.246813 81.405126 29.613852 81.0944 30 80.78125 z M 98.84375 81.4375 L 98.21875 82.84375 L 97.4375 81.53125 L 97.96875 83.125 L 98.21875 83.75 L 98 84.84375 L 98.375 84.96875 L 98.40625 83.9375 L 99.0625 83.5 L 99.9375 82.03125 L 98.71875 83.0625 L 98.84375 81.4375 z M 38.0625 81.46875 C 38.561414 81.568265 39.132268 82.17448 39.21875 82.5 C 35.907694 83.776576 32.395858 86.108457 31.8125 91.5625 C 31.576983 91.897547 30.851313 91.92673 30.3125 91 C 30.25544 89.947107 30.407365 88.99286 30.71875 88.09375 C 30.728832 88.100575 30.739912 88.11816 30.75 88.125 L 30.78125 88 C 32.005583 84.614268 35.425146 82.34879 38.0625 81.46875 z M 24 81.65625 C 24.451635 81.986608 24.890986 82.32582 25.34375 82.65625 C 25.149344 83.029749 24.999327 83.40319 24.84375 83.8125 C 24.457437 83.53412 24.073677 83.27688 23.6875 83 C 23.737048 82.533738 23.836126 82.08309 24 81.65625 z M 28.90625 81.84375 L 32.65625 84.46875 C 32.384161 84.753655 32.145504 85.05755 31.90625 85.375 L 28.15625 82.8125 C 28.375475 82.480986 28.631721 82.15729 28.90625 81.84375 z M 108.53125 82.34375 L 108.53125 82.875 L 105.03125 84.28125 L 105.03125 83.8125 L 108.53125 82.34375 z M 100.4375 82.53125 L 101.34375 83.21875 L 101.34375 83.8125 L 100.4375 83.09375 L 100.4375 82.53125 z M 28.09375 82.90625 L 31.84375 85.5 C 31.593282 85.841728 31.301038 86.14906 31.09375 86.53125 C 29.859345 85.698658 28.656825 84.84748 27.46875 84 C 27.647702 83.619325 27.856144 83.27465 28.09375 82.90625 z M 23.6875 83.09375 C 24.063523 83.363778 24.43696 83.6342 24.8125 83.90625 C 24.674826 84.27842 24.510477 84.6911 24.40625 85.09375 C 24.240754 84.969528 24.07187 84.84183 23.90625 84.71875 C 23.83333 84.511544 23.79277 84.28505 23.6875 84.09375 C 23.649966 83.760496 23.661713 83.40815 23.6875 83.09375 z M 39.125 83.09375 C 39.48944 83.481696 39.880418 83.88834 40.21875 84.3125 C 40.111367 84.304114 40.010248 84.31422 39.90625 84.3125 C 39.478548 83.936438 39.092625 83.58799 38.6875 83.25 C 38.84264 83.198206 38.962178 83.14139 39.125 83.09375 z M 38.5 83.3125 C 38.903636 83.642684 39.334283 83.97542 39.71875 84.3125 C 39.167395 84.324398 38.646874 84.41714 38.1875 84.59375 C 37.877456 84.331056 37.543293 84.10158 37.21875 83.84375 C 37.609632 83.651 38.044684 83.47205 38.5 83.3125 z M 96 83.34375 C 95.76377 83.342682 95.54935 83.534358 95.4375 84.03125 L 95.5625 84.46875 C 96.0229 83.268298 97.13696 84.708773 96 85.09375 L 96.3125 85.40625 C 97.59151 85.073411 96.7087 83.346955 96 83.34375 z M 100.4375 83.59375 L 101.34375 84.34375 L 101.34375 85.3125 L 100.4375 84.59375 L 100.4375 83.59375 z M 88.84375 83.71875 L 89.0625 84.59375 L 86.71875 86.21875 L 86.78125 85.125 L 88.84375 83.71875 z M 94.78125 83.75 C 93.51486 83.788832 92.82176 84.524652 93.21875 85.0625 L 93.28125 85.0625 C 94.42461 84.978512 94.82657 84.216887 94.84375 83.8125 L 94.78125 83.75 z M 94.9375 83.75 C 95.12982 84.582424 94.06499 85.277854 93.1875 85.25 L 94.5625 86.5 C 95.22729 86.286748 95.97704 86.107483 95.8125 85.5625 L 94.9375 83.75 z M 37.09375 83.9375 C 37.40996 84.183189 37.722713 84.405 38.03125 84.65625 C 37.577705 84.849064 37.214758 85.15548 36.84375 85.46875 C 36.509333 85.210695 36.185371 84.94357 35.84375 84.6875 C 36.219826 84.41159 36.634068 84.17376 37.09375 83.9375 z M 27.4375 84.15625 C 28.634051 85.013715 29.827608 85.85259 31.0625 86.6875 C 30.87295 87.049273 30.677734 87.41211 30.53125 87.8125 C 30.528532 87.819903 30.533944 87.83632 30.53125 87.84375 C 29.331955 87.024636 28.146842 86.15099 26.96875 85.3125 C 27.095189 84.919096 27.259712 84.54791 27.4375 84.15625 z M 39.96875 84.65625 C 40.015527 84.65367 40.233893 84.87653 40.28125 84.875 C 40.364965 86.844341 39.762895 88.29215 38.78125 89.4375 C 38.617644 89.628377 38.464663 89.82421 38.28125 90 C 38.097837 90.175777 37.887523 90.33885 37.6875 90.5 C 36.757704 91.249087 35.687791 91.86097 34.5625 92.4375 C 34.440167 92.298387 34.325687 92.12064 34.28125 91.9375 C 34.271663 91.897987 33.91328 91.6664 33.90625 91.625 C 33.898671 91.580497 34.286313 91.73409 34.28125 91.6875 C 34.185771 91.286837 34.275243 90.92671 34.3125 90.5625 C 34.324847 90.511847 34.080569 90.30089 34.09375 90.25 C 34.106928 90.199067 34.392557 90.33132 34.40625 90.28125 C 34.513783 89.887917 34.66038 89.50107 34.8125 89.125 C 34.827418 89.088097 34.547141 88.91167 34.5625 88.875 C 34.576827 88.840757 34.891549 88.94029 34.90625 88.90625 C 35.042577 88.590346 35.176532 88.295665 35.34375 88 C 35.365235 87.961986 35.196763 87.75637 35.21875 87.71875 C 35.239461 87.683299 35.447582 87.78507 35.46875 87.75 C 35.64877 87.451481 35.841486 87.16917 36.0625 86.90625 C 36.097049 86.865127 35.902034 86.66517 35.9375 86.625 C 35.978843 86.578158 36.269899 86.70178 36.3125 86.65625 C 36.560842 86.390709 36.833873 86.15313 37.125 85.9375 C 37.172258 85.902496 36.920358 85.65854 36.96875 85.625 C 37.018448 85.590557 37.386607 85.78285 37.4375 85.75 C 37.748082 85.549477 38.050243 85.35455 38.40625 85.21875 C 38.468279 85.195099 38.280323 84.89651 38.34375 84.875 C 38.412147 84.851789 38.742456 85.11439 38.8125 85.09375 C 39.187535 84.98313 39.608941 84.90632 40.03125 84.875 C 40.070701 84.872068 39.928874 84.65842 39.96875 84.65625 z M 35.6875 84.78125 C 36.030198 85.035026 36.379533 85.30815 36.71875 85.5625 C 36.398575 85.848747 36.076303 86.15461 35.8125 86.5 L 34.6875 85.6875 C 34.988366 85.365668 35.308335 85.07047 35.6875 84.78125 z M 40.65625 84.875 C 40.746428 84.876996 40.845359 84.86931 40.9375 84.875 C 41.086091 85.16896 41.200402 85.47255 41.28125 85.75 L 40.625 85.28125 C 40.630679 85.148297 40.652784 85.01259 40.65625 84.875 z M 24.03125 84.90625 C 24.151994 84.995595 24.255413 85.127594 24.375 85.21875 C 24.190369 85.148243 24.10928 85.02482 24.03125 84.90625 z M 100.09375 84.90625 L 102.65625 86.90625 L 102.65625 93.09375 L 94.84375 86.9375 L 100.09375 84.90625 z M 125.34375 85.0625 L 125.53125 86.15625 L 103.0625 95 L 93.28125 87.53125 L 94.3125 87.125 L 102.96875 93.9375 L 125.34375 85.0625 z M 26.9375 85.46875 C 28.114504 86.308234 29.299215 87.120182 30.5 87.9375 C 30.356856 88.346229 30.250225 88.7987 30.15625 89.25 C 28.95496 88.436468 27.758417 87.58214 26.59375 86.71875 C 26.678468 86.299667 26.804379 85.90004 26.9375 85.46875 z M 40.625 85.5 L 41.34375 85.9375 C 41.441375 86.34127 41.430524 86.72179 41.40625 87.09375 L 40.5625 86.5 C 40.602895 86.182085 40.606206 85.84759 40.625 85.5 z M 34.625 85.8125 L 35.75 86.625 C 35.511996 86.946987 35.321277 87.24789 35.125 87.59375 L 33.875 86.75 C 34.089366 86.428393 34.352198 86.11408 34.625 85.8125 z M 41.65625 85.8125 C 41.602608 85.851709 41.552659 85.895484 41.5 85.9375 C 41.488571 85.927703 41.480147 85.915936 41.46875 85.90625 C 41.446763 85.83603 41.598138 85.844954 41.65625 85.8125 z M 42 86.3125 C 42.498917 86.412019 43.069768 87.01823 43.15625 87.34375 C 42.70888 87.51623 42.257557 87.714942 41.8125 87.9375 C 41.82617 87.86379 41.866857 87.793952 41.875 87.71875 C 41.883074 87.644029 41.557823 87.38809 41.5625 87.3125 C 41.567418 87.232986 41.873974 87.33046 41.875 87.25 C 41.878634 86.962455 41.887673 86.675218 41.84375 86.375 C 41.896297 86.355538 41.949456 86.329366 42 86.3125 z M 24.40625 86.71875 C 24.740044 87.061347 25.121357 87.42615 25.5625 87.71875 C 25.487555 87.757354 25.414115 87.799209 25.34375 87.84375 C 24.832323 87.52311 24.326087 87.19435 23.8125 86.875 C 24.003319 86.807345 24.20537 86.765837 24.40625 86.71875 z M 40.53125 86.71875 L 41.40625 87.34375 C 41.367255 87.648799 41.291235 87.932605 41.1875 88.21875 C 40.904824 88.007971 40.627467 87.77403 40.34375 87.5625 C 40.412915 87.293874 40.487727 87.00933 40.53125 86.71875 z M 26.5625 86.84375 C 27.725129 87.708565 28.925168 88.56131 30.125 89.375 C 30.069158 89.661847 30.003391 89.94524 29.96875 90.25 C 28.661892 89.388717 27.48426 88.447783 26.4375 87.4375 C 26.467838 87.240849 26.523283 87.0459 26.5625 86.84375 z M 33.8125 86.875 L 35.0625 87.71875 C 34.864959 88.075832 34.659666 88.42605 34.5 88.78125 C 34.058786 88.501821 33.650794 88.219905 33.21875 87.9375 C 33.388444 87.567252 33.583307 87.23102 33.8125 86.875 z M 23.71875 86.90625 C 24.228901 87.229859 24.741092 87.55 25.25 87.875 C 24.835419 88.142325 24.40494 88.442033 24.03125 88.75 C 23.497881 88.401683 22.94535 88.06566 22.40625 87.71875 C 22.757774 87.363598 23.2305 87.09297 23.71875 86.90625 z M 22.34375 87.78125 C 22.8788 88.132095 23.406877 88.491183 23.9375 88.84375 C 23.579841 89.145247 23.253313 89.43917 22.9375 89.78125 L 21.46875 88.78125 C 21.756026 88.442593 22.031685 88.09238 22.34375 87.78125 z M 40.28125 87.78125 L 41.15625 88.34375 C 41.058262 88.591191 40.916287 88.82746 40.78125 89.0625 L 40 88.59375 C 40.11783 88.335451 40.199777 88.059708 40.28125 87.78125 z M 25.75 87.84375 C 25.941741 87.952064 26.129515 88.041292 26.34375 88.09375 C 26.349162 88.045956 26.369039 87.98567 26.375 87.9375 C 26.729186 88.243224 27.099321 88.543024 27.46875 88.84375 C 23.896399 90.892127 23.07321 93.613256 21.90625 97.03125 C 21.361309 96.719191 20.689353 96.45078 20.4375 95.65625 C 21.281944 92.711997 22.239944 89.80668 25.75 87.84375 z M 33.15625 88.0625 C 33.586793 88.343595 33.998161 88.6316 34.4375 88.90625 C 34.252011 89.327157 34.110321 89.7181 33.96875 90.09375 C 33.533854 89.813867 33.086454 89.53459 32.65625 89.25 C 32.778612 88.842817 32.978154 88.465755 33.15625 88.0625 z M 42.4375 88.15625 C 42.841135 88.486439 43.271783 88.81917 43.65625 89.15625 C 43.104894 89.168147 42.584374 89.26089 42.125 89.4375 C 41.933566 89.275307 41.733131 89.12011 41.53125 88.96875 C 41.562337 88.882517 41.597031 88.80592 41.625 88.71875 C 41.635023 88.687507 41.570147 88.631301 41.5 88.5625 C 41.574331 88.529143 41.642097 88.469829 41.71875 88.4375 C 41.9554 88.337687 42.184187 88.245015 42.4375 88.15625 z M 39.9375 88.6875 L 40.71875 89.1875 C 40.591171 89.398177 40.429943 89.61048 40.28125 89.8125 L 39.625 89.3125 C 39.754728 89.114737 39.836392 88.89612 39.9375 88.6875 z M 21.40625 88.84375 L 22.875 89.875 C 22.603168 90.175257 22.362702 90.47977 22.125 90.8125 L 20.65625 89.8125 C 20.873489 89.476437 21.146906 89.15474 21.40625 88.84375 z M 27.75 89.0625 C 28.428484 89.604907 29.121372 90.14792 29.875 90.65625 C 29.86868 90.710647 29.87849 90.76002 29.875 90.8125 C 29.076863 90.266507 28.263125 89.71998 27.4375 89.1875 C 27.533839 89.134567 27.646702 89.1079 27.75 89.0625 z M 41.5 89.09375 C 41.671083 89.227317 41.837783 89.3679 42 89.5 C 41.642539 89.651967 41.332684 89.86114 41.03125 90.09375 C 41.125163 89.934187 41.19842 89.75709 41.28125 89.59375 C 41.305997 89.544917 41.07031 89.36178 41.09375 89.3125 C 41.118773 89.259867 41.414031 89.3344 41.4375 89.28125 C 41.465045 89.218887 41.475414 89.15712 41.5 89.09375 z M 27.3125 89.28125 C 28.16215 89.840057 29.012345 90.39638 29.84375 90.96875 C 29.842349 90.990477 29.845472 91.00881 29.84375 91.03125 C 30.248445 91.528547 30.613998 91.82086 31.03125 92 C 30.656506 92.238447 30.285979 92.479 29.9375 92.75 C 28.695345 91.862317 27.401686 90.96544 26.09375 90.09375 C 26.470514 89.796977 26.856603 89.53967 27.3125 89.28125 z M 32.625 89.40625 C 33.045395 89.683657 33.480864 89.94572 33.90625 90.21875 C 33.856788 90.351287 33.79476 90.50261 33.75 90.625 C 33.712013 90.925647 33.718086 91.22543 33.71875 91.5 C 33.269957 91.236127 32.814966 90.96267 32.375 90.6875 C 32.453619 90.271717 32.50218 89.83286 32.625 89.40625 z M 39.5 89.46875 L 40.1875 89.9375 C 40.022436 90.154957 39.835492 90.35348 39.65625 90.5625 L 38.96875 90.0625 C 39.153444 89.862887 39.353092 89.67797 39.5 89.46875 z M 43.90625 89.5 C 43.953026 89.497417 44.171393 89.68903 44.21875 89.6875 C 44.302463 91.656837 43.700395 93.1359 42.71875 94.28125 C 42.555146 94.472127 42.402163 94.66796 42.21875 94.84375 C 42.035335 95.019527 41.825023 95.15135 41.625 95.3125 C 40.695206 96.061591 39.625291 96.67347 38.5 97.25 C 38.377666 97.110891 38.294437 96.93314 38.25 96.75 C 38.241234 96.713871 37.936163 96.5338 37.875 96.46875 C 37.932225 96.465831 38.223307 96.57318 38.21875 96.53125 C 38.123269 96.130591 38.212743 95.77046 38.25 95.40625 C 38.262345 95.355601 38.018069 95.113394 38.03125 95.0625 C 38.044427 95.011567 38.330057 95.14382 38.34375 95.09375 C 38.451285 94.700417 38.59788 94.31357 38.75 93.9375 C 38.764916 93.900597 38.484641 93.75542 38.5 93.71875 C 38.514325 93.684507 38.829049 93.75279 38.84375 93.71875 C 38.980075 93.402847 39.114032 93.10817 39.28125 92.8125 C 39.302737 92.774487 39.134263 92.60012 39.15625 92.5625 C 39.176959 92.527047 39.385082 92.62882 39.40625 92.59375 C 39.586272 92.295227 39.778986 92.01292 40 91.75 C 40.025911 91.719157 39.944516 91.60636 39.90625 91.53125 C 39.925658 91.508817 39.949449 91.49122 39.96875 91.46875 C 40.070047 91.481617 40.218049 91.53415 40.25 91.5 C 40.49834 91.234457 40.771373 90.99688 41.0625 90.78125 C 41.109757 90.746247 40.857858 90.50229 40.90625 90.46875 C 40.955947 90.434307 41.324107 90.59535 41.375 90.5625 C 41.68558 90.361977 41.987743 90.1983 42.34375 90.0625 C 42.405781 90.038847 42.217823 89.70901 42.28125 89.6875 C 42.34965 89.664287 42.679956 89.95814 42.75 89.9375 C 43.125037 89.826877 43.546441 89.71882 43.96875 89.6875 C 44.008199 89.684567 43.866374 89.50217 43.90625 89.5 z M 44.625 89.71875 C 44.715176 89.720747 44.782859 89.71306 44.875 89.71875 C 45.023593 90.012707 45.137902 90.3163 45.21875 90.59375 L 44.59375 90.09375 C 44.599431 89.960797 44.621534 89.85634 44.625 89.71875 z M 20.59375 89.90625 L 22.0625 90.90625 C 21.822576 91.249177 21.576835 91.59015 21.375 91.96875 C 20.920137 91.637837 20.482553 91.29895 20.03125 90.96875 C 20.183148 90.592887 20.375532 90.2535 20.59375 89.90625 z M 40.5625 90.09375 C 40.594901 90.044487 40.899364 90.18189 40.96875 90.15625 C 40.910922 90.202117 40.837867 90.23344 40.78125 90.28125 C 40.709472 90.225857 40.631753 90.18106 40.5625 90.125 C 40.557461 90.120917 40.567558 90.09782 40.5625 90.09375 z M 26 90.1875 C 27.287334 91.054507 28.544347 91.9597 29.78125 92.84375 C 29.407113 93.142357 29.084144 93.43981 28.75 93.78125 L 24.9375 91.1875 C 25.246813 90.842627 25.613852 90.50065 26 90.1875 z M 38.84375 90.1875 L 39.53125 90.6875 C 39.367271 90.875667 39.22941 91.06733 39.0625 91.25 C 39.049331 91.262037 39.044511 91.30053 39.03125 91.3125 L 38.25 90.6875 C 38.453745 90.518607 38.673077 90.36166 38.84375 90.1875 z M 44.5625 90.3125 L 45.28125 90.78125 C 45.378873 91.185017 45.399274 91.56554 45.375 91.9375 L 44.5 91.3125 C 44.540393 90.994587 44.543706 90.66009 44.5625 90.3125 z M 32.34375 90.8125 C 32.795763 91.093317 33.257213 91.389 33.71875 91.65625 C 33.729663 91.910557 33.765128 92.15065 33.84375 92.375 C 33.269569 92.121547 32.744159 91.83633 32.21875 91.5625 C 32.253232 91.318907 32.298175 91.06491 32.34375 90.8125 z M 38.125 90.8125 L 38.9375 91.40625 C 38.727107 91.588987 38.518256 91.74705 38.28125 91.90625 L 37.53125 91.25 C 37.743095 91.106657 37.940651 90.95841 38.125 90.8125 z M 40 90.90625 C 40.007765 90.896867 40.060376 90.89837 40.09375 90.90625 C 40.073775 90.927277 40.050903 90.94743 40.03125 90.96875 C 40.020413 90.949227 39.993566 90.91401 40 90.90625 z M 20 91.0625 C 20.451635 91.392857 20.890986 91.73207 21.34375 92.0625 C 21.149343 92.435997 20.999327 92.84069 20.84375 93.25 C 20.457437 92.971617 20.073677 92.68313 19.6875 92.40625 C 19.737048 91.939987 19.836126 91.48934 20 91.0625 z M 24.875 91.28125 L 28.65625 93.875 C 28.384163 94.159907 28.114254 94.49505 27.875 94.8125 L 24.125 92.21875 C 24.344227 91.887237 24.600471 91.59479 24.875 91.28125 z M 37.3125 91.375 L 38.125 92 C 37.854014 92.172387 37.559243 92.29929 37.25 92.4375 L 36.5 91.90625 C 36.808213 91.736477 37.047634 91.54623 37.3125 91.375 z M 44.46875 91.5625 L 45.34375 92.15625 C 45.304757 92.461297 45.228735 92.7451 45.125 93.03125 C 44.842323 92.820467 44.564967 92.61778 44.28125 92.40625 C 44.350414 92.137627 44.425227 91.85308 44.46875 91.5625 z M 39.3125 91.625 C 39.339571 91.598327 39.437059 91.62292 39.53125 91.65625 C 39.479521 91.733357 39.454744 91.82787 39.40625 91.90625 C 39.362721 91.798837 39.276057 91.66089 39.3125 91.625 z M 36.34375 92 L 37.125 92.5 C 36.843402 92.618777 36.534793 92.72472 36.21875 92.8125 L 35.625 92.375 C 35.872907 92.253947 36.119454 92.12082 36.34375 92 z M 32.15625 92.03125 C 32.571573 92.271637 32.976694 92.51749 33.40625 92.75 C 30.7142 94.164867 28.259089 96.53249 27.78125 101 C 27.545734 101.33505 26.851313 101.36423 26.3125 100.4375 C 26.25544 99.384611 26.407365 98.43036 26.71875 97.53125 C 26.728832 97.538081 26.739912 97.52441 26.75 97.53125 L 26.75 97.4375 C 27.595749 95.098691 29.504779 93.30601 31.46875 92.125 C 31.660207 92.171897 31.870049 92.22646 32.09375 92.25 C 32.102041 92.176687 32.146642 92.10546 32.15625 92.03125 z M 39.1875 92.21875 C 39.145589 92.291367 39.104402 92.36366 39.0625 92.4375 L 39 92.40625 C 39.069316 92.347607 39.120426 92.27869 39.1875 92.21875 z M 24.09375 92.3125 L 27.8125 94.90625 C 27.562032 95.247981 27.301038 95.58656 27.09375 95.96875 C 25.859347 95.136161 24.625575 94.28498 23.4375 93.4375 C 23.616452 93.056827 23.856144 92.6809 24.09375 92.3125 z M 38.65625 92.375 C 38.671433 92.362197 38.71459 92.39566 38.75 92.40625 L 39 92.5625 C 38.802458 92.919587 38.628416 93.2698 38.46875 93.625 C 38.233518 93.476017 38.013368 93.30785 37.78125 93.15625 C 37.755902 93.082087 37.680385 92.95819 37.71875 92.9375 C 37.775935 92.906657 38.069485 93.06351 38.125 93.03125 C 38.498312 93.320637 38.511443 92.85076 38.6875 92.6875 C 38.73173 92.649337 38.611093 92.41303 38.65625 92.375 z M 35.53125 92.4375 L 36.0625 92.875 C 35.975032 92.897367 35.871424 92.91758 35.78125 92.9375 C 35.406813 92.882687 35.152687 92.82545 34.9375 92.71875 C 35.151597 92.622487 35.332644 92.53319 35.53125 92.4375 z M 19.65625 92.53125 C 20.032272 92.801277 20.40571 93.0717 20.78125 93.34375 C 20.643575 93.715917 20.510477 94.09735 20.40625 94.5 C 20.240753 94.375777 20.07187 94.27933 19.90625 94.15625 C 19.833329 93.949047 19.76152 93.6913 19.65625 93.5 C 19.618716 93.166747 19.630463 92.84565 19.65625 92.53125 z M 44.21875 92.625 L 45.09375 93.1875 C 44.995761 93.434937 44.853787 93.67121 44.71875 93.90625 L 43.9375 93.40625 C 44.055328 93.147947 44.137277 92.90346 44.21875 92.625 z M 33.875 93 C 34.157992 93.147987 34.456681 93.29571 34.75 93.4375 C 34.880026 93.521837 35.300757 93.63255 35.625 93.75 C 35.100041 93.767557 34.62876 93.8616 34.1875 94.03125 C 33.877456 93.768557 33.543293 93.53908 33.21875 93.28125 C 33.419944 93.182037 33.652092 93.09321 33.875 93 z M 37.6875 93.25 C 37.928563 93.405337 38.164642 93.56771 38.40625 93.71875 C 38.220764 94.139657 38.047821 94.56185 37.90625 94.9375 C 37.758812 94.842617 37.613849 94.75011 37.46875 94.65625 C 37.381159 94.413087 37.292507 94.16123 37.15625 93.90625 C 37.077398 93.815327 36.935356 93.71822 36.84375 93.625 C 36.851709 93.607657 36.81969 93.58383 36.8125 93.5625 C 36.833632 93.510417 36.852942 93.45824 36.875 93.40625 C 36.978912 93.459957 37.069436 93.50891 37.09375 93.5 C 37.298805 93.424847 37.49804 93.33828 37.6875 93.25 z M 33.0625 93.375 C 33.378709 93.620687 33.722713 93.8425 34.03125 94.09375 C 33.577705 94.286567 33.214758 94.56173 32.84375 94.875 C 32.509333 94.616947 32.154121 94.38107 31.8125 94.125 C 32.188578 93.849087 32.602818 93.61126 33.0625 93.375 z M 43.875 93.53125 L 44.65625 94.03125 C 44.52867 94.241927 44.367443 94.45423 44.21875 94.65625 L 43.5625 94.15625 C 43.69223 93.958487 43.773892 93.73987 43.875 93.53125 z M 23.40625 93.5625 C 24.602801 94.419967 25.827608 95.25884 27.0625 96.09375 C 26.872952 96.455531 26.677734 96.84961 26.53125 97.25 C 26.528532 97.257411 26.502694 97.24257 26.5 97.25 C 25.300707 96.430891 24.115592 95.588494 22.9375 94.75 C 23.063939 94.356597 23.228462 93.95416 23.40625 93.5625 z M 35.96875 94.09375 C 36.015527 94.091167 36.233893 94.28278 36.28125 94.28125 C 36.364964 96.250591 35.762895 97.72965 34.78125 98.875 C 34.617643 99.065881 34.464663 99.26171 34.28125 99.4375 C 34.097837 99.613281 33.887523 99.77635 33.6875 99.9375 C 32.757703 100.68659 31.687791 101.26722 30.5625 101.84375 C 30.440167 101.70464 30.325687 101.52689 30.28125 101.34375 C 30.271667 101.30424 29.88203 101.07265 29.875 101.03125 C 29.86742 100.98675 30.255063 101.17159 30.25 101.125 C 30.154522 100.72434 30.275243 100.36421 30.3125 100 C 30.324848 99.949351 30.049319 99.70714 30.0625 99.65625 C 30.07568 99.605321 30.392557 99.76882 30.40625 99.71875 C 30.513787 99.325421 30.62913 98.90732 30.78125 98.53125 C 30.79617 98.494351 30.547141 98.34917 30.5625 98.3125 C 30.576829 98.278261 30.891549 98.37779 30.90625 98.34375 C 31.042579 98.027851 31.176532 97.70192 31.34375 97.40625 C 31.365238 97.368241 31.165513 97.19387 31.1875 97.15625 C 31.208213 97.120801 31.447582 97.22257 31.46875 97.1875 C 31.648771 96.888981 31.841486 96.60667 32.0625 96.34375 C 32.097049 96.302631 31.870784 96.10267 31.90625 96.0625 C 31.947594 96.015661 32.269899 96.13928 32.3125 96.09375 C 32.560841 95.828211 32.833873 95.59063 33.125 95.375 C 33.172258 95.340001 32.920358 95.096044 32.96875 95.0625 C 33.018448 95.028057 33.355357 95.1891 33.40625 95.15625 C 33.716832 94.955727 34.018993 94.79205 34.375 94.65625 C 34.437029 94.632597 34.280323 94.30276 34.34375 94.28125 C 34.412151 94.258037 34.742456 94.55189 34.8125 94.53125 C 35.187535 94.420627 35.577691 94.34382 36 94.3125 C 36.03945 94.309567 35.928874 94.09592 35.96875 94.09375 z M 31.6875 94.21875 C 32.0302 94.472527 32.348283 94.7144 32.6875 94.96875 C 32.367324 95.255001 32.076303 95.59211 31.8125 95.9375 L 30.65625 95.125 C 30.957118 94.803167 31.308335 94.50797 31.6875 94.21875 z M 43.4375 94.28125 L 44.125 94.78125 C 43.959934 94.998707 43.772992 95.19723 43.59375 95.40625 L 42.90625 94.90625 C 43.090947 94.706637 43.290592 94.49047 43.4375 94.28125 z M 36.65625 94.3125 C 36.678793 94.312997 36.698284 94.31285 36.71875 94.3125 C 36.813734 94.374547 36.905661 94.43948 37 94.5 C 37.113503 94.732917 37.217727 94.969496 37.28125 95.1875 L 36.625 94.6875 C 36.630678 94.554547 36.652784 94.45009 36.65625 94.3125 z M 20 94.34375 C 20.126989 94.437717 20.248565 94.52965 20.375 94.625 C 20.373012 94.632967 20.376968 94.64827 20.375 94.65625 C 20.190371 94.585747 20.07803 94.46232 20 94.34375 z M 37.53125 94.84375 C 37.633614 94.908817 37.739814 94.96454 37.84375 95.03125 C 37.79429 95.163791 37.76351 95.31511 37.71875 95.4375 C 37.713349 95.480231 37.723594 95.51987 37.71875 95.5625 C 37.621718 95.482301 37.482774 95.38852 37.46875 95.34375 C 37.439434 95.250131 37.683251 95.28216 37.65625 95.1875 C 37.623206 95.071671 37.569371 94.95994 37.53125 94.84375 z M 22.90625 94.875 C 24.083256 95.714491 25.299215 96.55768 26.5 97.375 C 26.356856 97.783741 26.218975 98.20495 26.125 98.65625 C 24.923709 97.842721 23.727167 97.01964 22.5625 96.15625 C 22.647217 95.737171 22.773129 95.306294 22.90625 94.875 z M 36.625 94.90625 L 37.34375 95.375 C 37.408833 95.644181 37.409426 95.90338 37.40625 96.15625 C 37.124028 95.990671 36.839741 95.82597 36.5625 95.65625 C 36.590105 95.411981 36.610918 95.166694 36.625 94.90625 z M 42.78125 95.03125 L 43.46875 95.5 C 43.30477 95.688171 43.16691 95.91108 43 96.09375 C 42.986833 96.105791 42.982011 96.11303 42.96875 96.125 L 42.1875 95.53125 C 42.391248 95.362361 42.610577 95.205414 42.78125 95.03125 z M 30.59375 95.25 L 31.75 96.03125 C 31.511998 96.353241 31.290027 96.68539 31.09375 97.03125 L 29.875 96.1875 C 30.08937 95.865901 30.320948 95.55158 30.59375 95.25 z M 42.0625 95.65625 L 42.875 96.21875 C 42.66461 96.401491 42.455756 96.5908 42.21875 96.75 L 41.46875 96.09375 C 41.680598 95.950411 41.878151 95.80216 42.0625 95.65625 z M 36.53125 95.8125 C 36.817808 95.987261 37.113908 96.14645 37.40625 96.3125 C 37.403242 96.385581 37.41097 96.45892 37.40625 96.53125 L 36.53125 95.90625 C 36.535002 95.876711 36.527605 95.84233 36.53125 95.8125 z M 36.5 96.15625 L 37.375 96.75 C 37.365999 96.820401 37.356578 96.89777 37.34375 96.96875 C 37.026944 96.825741 36.709709 96.68455 36.40625 96.53125 C 36.434912 96.404641 36.480543 96.28616 36.5 96.15625 z M 41.25 96.21875 L 42.09375 96.8125 C 41.822766 96.984891 41.496743 97.14304 41.1875 97.28125 L 40.4375 96.75 C 40.745712 96.580231 40.985134 96.38998 41.25 96.21875 z M 22.5625 96.28125 C 23.725129 97.146071 24.893918 97.99881 26.09375 98.8125 C 26.037908 99.099351 26.003391 99.35149 25.96875 99.65625 C 24.661891 98.794971 23.48426 97.88529 22.4375 96.875 C 22.467837 96.678351 22.523283 96.4834 22.5625 96.28125 z M 29.8125 96.28125 L 31.03125 97.15625 C 30.833711 97.513341 30.659666 97.86355 30.5 98.21875 C 30.058788 97.939321 29.619544 97.65741 29.1875 97.375 C 29.357198 97.004751 29.583307 96.63727 29.8125 96.28125 z M 37.625 96.6875 C 37.645611 96.687241 37.660963 96.71488 37.6875 96.71875 C 37.696441 96.793111 37.703597 96.8659 37.71875 96.9375 C 37.646841 96.846911 37.560161 96.75655 37.5625 96.71875 C 37.563728 96.698871 37.595553 96.68787 37.625 96.6875 z M 40.28125 96.84375 L 41.0625 97.34375 C 40.7809 97.462531 40.472293 97.56847 40.15625 97.65625 L 39.5625 97.21875 C 39.810406 97.097701 40.056954 96.96457 40.28125 96.84375 z M 36.3125 97 C 36.599054 97.163501 36.893317 97.34188 37.1875 97.5 C 37.171131 97.551501 37.174355 97.60631 37.15625 97.65625 C 36.873574 97.445471 36.596217 97.21153 36.3125 97 z M 36.28125 97.21875 L 37.125 97.78125 C 37.027012 98.028691 36.916287 98.26496 36.78125 98.5 L 35.96875 98 C 36.08658 97.741701 36.199777 97.49721 36.28125 97.21875 z M 39.46875 97.25 L 40 97.6875 C 39.912535 97.709871 39.808924 97.73008 39.71875 97.75 C 39.344311 97.695191 39.090187 97.63795 38.875 97.53125 C 39.0891 97.434991 39.270144 97.34569 39.46875 97.25 z M 29.125 97.5 C 29.555545 97.781101 29.998161 98.03785 30.4375 98.3125 C 30.252013 98.733411 30.110321 99.1556 29.96875 99.53125 C 29.533856 99.251371 29.086454 98.97209 28.65625 98.6875 C 28.778616 98.280321 28.946904 97.90326 29.125 97.5 z M 35.90625 98.125 L 36.6875 98.625 C 36.559921 98.835681 36.429943 99.04798 36.28125 99.25 L 35.59375 98.75 C 35.723477 98.552241 35.805142 98.33362 35.90625 98.125 z M 28.625 98.8125 C 29.045399 99.089911 29.480864 99.38322 29.90625 99.65625 C 29.856792 99.788791 29.79476 99.90886 29.75 100.03125 C 29.712014 100.3319 29.686836 100.63168 29.6875 100.90625 C 29.23871 100.64238 28.814966 100.40017 28.375 100.125 C 28.453621 99.709221 28.50218 99.23911 28.625 98.8125 z M 35.46875 98.875 L 36.15625 99.375 C 35.991185 99.592461 35.804242 99.79098 35.625 100 L 34.96875 99.5 C 35.153444 99.300391 35.321842 99.08422 35.46875 98.875 z M 34.84375 99.625 L 35.53125 100.09375 C 35.367271 100.28192 35.22941 100.50483 35.0625 100.6875 C 35.04933 100.69954 35.044511 100.70678 35.03125 100.71875 L 34.25 100.125 C 34.453745 99.956111 34.673077 99.79916 34.84375 99.625 z M 28.34375 100.25 C 28.795765 100.53082 29.225963 100.79525 29.6875 101.0625 C 29.698415 101.31681 29.765128 101.58815 29.84375 101.8125 C 29.269571 101.55905 28.712909 101.27383 28.1875 101 C 28.221983 100.75641 28.298175 100.50241 28.34375 100.25 z M 34.125 100.25 L 34.9375 100.8125 C 34.727111 100.99524 34.518256 101.18455 34.28125 101.34375 L 33.53125 100.6875 C 33.743095 100.54416 33.940651 100.39591 34.125 100.25 z M 33.3125 100.8125 L 34.125 101.40625 C 33.854014 101.57864 33.527993 101.73679 33.21875 101.875 L 32.46875 101.34375 C 32.776963 101.17398 33.047634 100.98373 33.3125 100.8125 z M 32.34375 101.4375 L 33.09375 101.9375 C 32.812151 102.05628 32.503543 102.16222 32.1875 102.25 L 31.625 101.8125 C 31.872909 101.69145 32.119454 101.55832 32.34375 101.4375 z M 31.5 101.84375 L 32.03125 102.28125 C 31.943786 102.30362 31.871424 102.32383 31.78125 102.34375 C 31.406814 102.28894 31.121437 102.26295 30.90625 102.15625 C 31.120351 102.05999 31.301394 101.93944 31.5 101.84375 z "
       id="path2745" />
  </g>
</svg>
