<?xml version="1.0" encoding="UTF-8" standalone="no"?>
<!-- Created with Inkscape (http://www.inkscape.org/) -->
<svg
   xmlns:dc="http://purl.org/dc/elements/1.1/"
   xmlns:cc="http://creativecommons.org/ns#"
   xmlns:rdf="http://www.w3.org/1999/02/22-rdf-syntax-ns#"
   xmlns:svg="http://www.w3.org/2000/svg"
   xmlns="http://www.w3.org/2000/svg"
   xmlns:xlink="http://www.w3.org/1999/xlink"
   xmlns:sodipodi="http://sodipodi.sourceforge.net/DTD/sodipodi-0.dtd"
   xmlns:inkscape="http://www.inkscape.org/namespaces/inkscape"
   width="128"
   height="128"
   id="svg2"
   sodipodi:version="0.32"
   inkscape:version="0.45+devel"
   version="1.0"
   sodipodi:docname="tent_outline.svg"
   inkscape:output_extension="org.inkscape.output.svg.inkscape">
  <defs
     id="defs4">
    <filter
       height="1.42432"
       y="-0.21216"
       width="1.2179726"
       x="-0.1089863"
       id="filter2892"
       inkscape:collect="always">
      <feGaussianBlur
         id="feGaussianBlur2894"
         stdDeviation="0.72146876"
         inkscape:collect="always" />
    </filter>
    <radialGradient
       r="8.2519293"
       fy="222.04396"
       fx="14.207293"
       cy="222.04396"
       cx="14.207293"
       gradientTransform="scale(1.39523,0.716728)"
       gradientUnits="userSpaceOnUse"
       id="radialGradient1968"
       xlink:href="#linearGradient2057"
       inkscape:collect="always" />
    <linearGradient
       inkscape:collect="always"
       id="linearGradient2057">
      <stop
         style="stop-color:#000000;stop-opacity:1;"
         offset="0"
         id="stop2059" />
      <stop
         style="stop-color:#000000;stop-opacity:0;"
         offset="1"
         id="stop2061" />
    </linearGradient>
  </defs>
  <sodipodi:namedview
     id="base"
     pagecolor="#ffffff"
     bordercolor="#666666"
     borderopacity="1.0"
     gridtolerance="10000"
     guidetolerance="10"
     objecttolerance="10"
     inkscape:pageopacity="0.0"
     inkscape:pageshadow="2"
     inkscape:zoom="1"
     inkscape:cx="25.219696"
     inkscape:cy="72.771115"
     inkscape:document-units="px"
     inkscape:current-layer="layer1"
     showgrid="false"
     width="744.09px"
     inkscape:window-width="1248"
     inkscape:window-height="975"
     inkscape:window-x="426"
     inkscape:window-y="24"
     showguides="true"
     inkscape:guide-bbox="true" />
  <metadata
     id="metadata7">
    <rdf:RDF>
      <cc:Work
         rdf:about="">
        <dc:format>image/svg+xml</dc:format>
        <dc:type
           rdf:resource="http://purl.org/dc/dcmitype/StillImage" />
      </cc:Work>
    </rdf:RDF>
  </metadata>
  <g
     inkscape:label="Layer 1"
     inkscape:groupmode="layer"
     id="layer1">
    <path
       style="fill:#5c2700;fill-opacity:1;fill-rule:evenodd;stroke:none;stroke-width:1px;stroke-linecap:butt;stroke-linejoin:miter;stroke-opacity:1"
       d="M 63.25,9.9375 C 63.424106,12.694497 63.711464,15.596093 63.1875,18.28125 C 53.135003,31.012911 43.07725,35.800009 30.490541,40.09375 C 24.243173,54.23874 19.446338,69.992466 11.84375,84 L 11.28125,81.03125 C 10.064657,80.322626 8.6745963,80.766908 8.40625,81.375 L 10.65625,88.96875 C 11.302083,88.794128 11.947917,89.390866 12.59375,88.4375 L 12.1875,85.78125 C 13.933414,86.123526 19.075448,84.830598 21.829223,83.610811 C 35.073154,84.863404 42.562355,94.453577 50.15625,104.4375 C 49.595456,107.26701 49.002321,110.09304 48.34375,112.90625 L 48.1875,110.6875 C 46.804196,110.47101 45.592628,111.28493 44.3125,111.6875 L 47,118.0625 C 47.520833,118.10447 48.041667,118.3023 48.5625,117.6875 L 48.53125,115.78125 C 50.96875,114.125 51.367234,111.68451 55.84375,110.8125 C 62.016702,107.21475 66.506886,99.725704 74.6875,100.8125 C 76.148373,91.956293 77.063141,83.032419 77.625,74.09375 L 77.6875,96.28125 C 78.09869,97.156385 78.623104,97.259464 80.0625,96.46875 L 80.03125,61.5625 C 84.652354,74.055741 89.672027,85.527654 96.4375,92.5625 C 100.24596,89.025644 103.66902,88.084803 110.21875,87.127534 L 119.71875,86.25 L 120,86.34375 C 119.95538,86.611336 119.82681,87.486404 119.78851,87.761655 C 119.8807,88.881056 120.95452,88.037191 121.5625,88.125 L 122.46875,81.15625 C 121.40944,80.468348 120.4425,80.517537 119.49747,81.3125 L 119.78125,82 C 120.06455,82.768132 120.19987,83.456417 120.21875,84.09375 C 120.18844,84.091351 120.15553,84.095801 120.125,84.09375 C 117.89214,83.943711 113.32714,78.18612 107.5625,68.90625 C 103.24346,61.953489 99.365073,53.936389 96.59375,47.21875 C 96.534333,46.580163 96.477528,45.926561 96.4375,45.28125 C 84.290474,37.052881 71.596143,30.421716 64.53125,17.59375 L 64.28125,15.34375 C 68.625362,16.256821 71.754349,18.512997 78.21875,17.09375 C 82.354842,15.82085 80.559776,19.033586 81.71875,20.3125 C 85.390558,22.044466 93.409824,18.872906 99.15625,17.9375 L 99.0625,17.5625 C 93.979167,17.052083 83.181465,18.541696 83.8125,16.03125 C 84.245789,14.327527 85.180472,12.322967 82.21875,12.65625 C 76.089216,13.163892 69.973284,12.737144 63.84375,11.03125 L 63.71875,9.96875 L 63.25,9.9375 z M 63.875,11.5 C 69.401871,13.205411 75.233178,13.896511 81.4375,13.34375 C 85.036257,12.527539 83.868374,14.249799 83.15625,16.15625 C 82.289823,19.424713 92.688349,17.539328 97.5625,17.9375 C 92.51374,18.579759 87.455013,20.681129 82.40625,19.875 C 81.281179,18.614654 81.550792,15.678374 78.3125,16.53125 C 73.108322,17.806234 68.977026,15.847896 64.25,14.96875 L 63.875,11.5 z M 64.34375,18.5 C 71.134511,32.541946 83.882501,36.941117 94.9375,44.90625 C 82.971251,51.830507 70.874087,57.561969 57.875,61.71875 C 60.52569,45.975077 62.039647,32.671689 63.8125,18.65625 C 64.017032,18.703115 64.206987,18.656442 64.34375,18.5 z M 63.1875,19 C 61.668338,33.67802 60.170746,45.615286 56.875,61.71875 C 52.975368,59.023174 47.273003,56.133162 42.40625,52.5 C 37.57138,48.89064 33.611312,44.20848 31.09375,40.59375 C 43.829386,37.472707 53.480927,32.206252 63.1875,19 z M 30.3125,40.96875 C 30.341549,41.010732 30.376829,41.05165 30.40625,41.09375 C 28.514156,54.952688 27.605253,68.70434 21.65625,82.84375 C 19.375812,84.349781 16.434275,85.832726 12.125,85.53125 L 11.9375,84.46875 L 11.96875,84.4375 C 23.109371,63.517578 24.363622,55.216382 30.3125,40.96875 z M 31.28125,42.3125 C 33.920467,45.771021 37.710427,49.516903 42.125,52.8125 L 56.34375,62.15625 C 48.614976,62.901629 47.83016,59.894813 47.875,56.9375 C 38.829653,57.77116 39.3486,52.978765 37.6875,49.46875 C 32.248466,50.352488 31.609082,46.61898 31.28125,42.3125 z M 30.75,42.78125 C 30.841066,47.391102 32.225388,51.425521 37.4375,49.65625 C 37.975148,55.972148 41.485871,58.215195 47.5625,57.25 C 48.039546,64.291724 51.738852,62.86317 56.805236,62.351014 C 55.153626,75.611969 52.858258,89.494976 50.4375,102.875 C 43.44151,93.374409 34.787728,84.550643 22,83.25 C 28.744601,69.370567 29.592011,56.3097 30.75,42.78125 z M 95.4375,46.0625 L 91,61.8125 C 86.60632,62.944666 82.660098,58.520533 78.75,55.375 C 78.689444,55.218592 78.623869,55.062371 78.5625,54.90625 C 86.724783,56.6352 91.168417,52.231506 95.4375,46.0625 z M 94.46875,46.3125 C 90.580877,50.26671 89.438685,56.633219 78.34375,54.28125 C 83.555529,51.601494 89.110587,48.956889 94.46875,46.3125 z M 95.71875,46.65625 C 95.782175,46.791396 95.842803,46.92726 95.90625,47.0625 C 97.537299,61.316367 103.43523,73.769742 109.375,86.5 C 104.89568,87.445778 100.69146,88.453929 96.84375,91.0625 C 94.822189,81.677446 88.773778,72.500517 91.5,62.90625 C 91.561302,62.690524 91.468241,62.391689 91.4375,62.125 C 92.105659,56.860332 94.287219,51.811865 95.71875,46.65625 z M 96.78125,48.90625 C 102.83639,61.800633 109.20253,74.958713 119.96875,85.21875 C 117.06478,86.260133 114.13753,87.082905 110.40625,86.4375 C 104.09022,74.335664 98.391481,62.323554 96.78125,48.90625 z M 76.34375,55.03125 C 74.676372,57.515367 73.422432,59.542587 70.75,61.28125 C 68.083466,62.743595 62.672758,63.738033 58.65625,62.0625 C 64.682544,60.025041 70.555585,57.639386 76.34375,55.03125 z M 76.6875,55.40625 C 74.87187,63.040514 72.892738,67.912052 64.3125,72.84375 C 62.308079,69.633635 59.820584,66.543581 58.0625,63.1875 C 58.110126,62.863102 58.168058,62.54341 58.21875,62.21875 C 58.334382,62.180048 58.446979,62.132724 58.5625,62.09375 C 62.727424,63.909303 67.046892,63.991476 69.9375,62.40625 C 72.556093,60.970198 74.635569,58.116692 76.6875,55.40625 z M 79.21875,56.5 C 82.568452,59.768441 85.836931,62.869819 90.90625,62.9375 C 89.264597,73.07887 94.008684,81.565921 96.09375,90.625 C 86.138089,80.905786 83.658813,68.36357 79.21875,56.5 z M 77.4375,56.75 C 77.936386,71.002117 76.49315,85.256355 73.9375,98.96875 C 72.278337,89.45792 72.314168,80.95485 65.1875,73.5 C 72.317136,70.159668 75.098287,63.667474 77.4375,56.75 z M 78.3125,56.84375 C 78.752391,58.073471 79.210731,59.284605 79.65625,60.5 L 79.4375,96.1875 C 78.904813,96.846653 78.854339,96.717208 78.21875,96.09375 L 78.0625,65.8125 C 78.179901,62.825183 78.258744,59.834268 78.3125,56.84375 z M 57.21875,62.5625 C 56.118436,78.299848 55.913475,94.013872 55.25,109.78125 C 53.787019,107.60557 52.293335,105.38302 50.6875,103.1875 C 53.24136,89.673846 54.929305,76.138653 57.0625,62.625 C 57.115783,62.607651 57.165491,62.579908 57.21875,62.5625 z M 58.03125,63.5625 C 59.826456,66.928991 62.159887,69.924773 64.21875,73.15625 C 63.880974,73.637465 64.071962,74.184776 64.65625,74.78125 C 72.59875,81.028743 71.651193,90.883 73.84375,99.625 C 67.009087,100.63452 61.453906,105.41615 55.9375,109.59375 C 56.948178,94.391432 55.800723,79.125679 58.03125,63.5625 z M 11.146453,81.733277 L 11.3125,84.53125 C 10.908229,84.710396 10.430065,84.670344 10.09375,84.875 L 9.014527,81.80777 C 9.6627665,81.616533 10.178033,81.070699 11.146453,81.733277 z M 120.06757,81.791047 C 120.51548,80.560523 121.69854,81.311116 122.14645,81.519595 L 121.5,84.4375 C 121.18893,84.228249 120.80872,84.169387 120.40625,84.125 L 120.06757,81.791047 z M 11.375,84.875 L 11.5,85.46875 C 11.251104,85.44216 11.007918,85.413533 10.75,85.375 L 11.375,84.875 z M 121.40625,85.03125 L 121.15625,86.53125 L 120.40625,85.46875 L 121.40625,85.03125 z M 10.25,85.46875 L 11.1875,86 L 11.5625,85.90625 L 11.949493,88.040709 C 11.689077,88.849158 11.039471,88.361291 10.779054,88.44223 L 10.25,85.46875 z M 120.28125,86.4375 L 121.125,86.71875 L 120.96875,87.78125 C 120.44626,88.054564 120.28356,87.788196 120.21875,87.375 L 120.28125,86.4375 z M 50.375,104.75 C 51.841827,106.72271 53.319652,108.67616 54.84375,110.53125 C 51.44382,111.88168 50.729883,113.69414 48.5625,115.25 L 48.4375,114.09375 C 49.159592,110.98114 49.77037,107.86261 50.375,104.75 z M 47.555236,111.27432 L 47.78125,113.90625 L 46.09375,114.6875 L 44.96875,112.0625 C 45.239921,111.74236 46.721903,110.64117 47.555236,111.27432 z M 47.46875,114.71875 L 46.78125,116.25 L 46.125,114.75 L 47.46875,114.71875 z M 47.925507,115.04578 L 48,115.53125 L 47.089358,116.04544 L 47.925507,115.04578 z M 48.09375,116.03125 L 48.21875,116.96875 L 47.40625,117.65625 L 46.8125,116.3125 L 48.09375,116.03125 z"
       id="path2308"
       sodipodi:nodetypes="cccccccccccccccccccccccccccccccccssccccccccccccccccccccccccccccsccccccccccccccccccccccccccccccccccscccccccccccccccscccccccccccccccccccccccccccccccccccccccccccccccccccccccccccccccccccccccccccccc" />
  </g>
</svg>
