<?xml version="1.0" encoding="UTF-8" standalone="no"?>
<!-- Created with Inkscape (http://www.inkscape.org/) -->
<svg
   xmlns:dc="http://purl.org/dc/elements/1.1/"
   xmlns:cc="http://creativecommons.org/ns#"
   xmlns:rdf="http://www.w3.org/1999/02/22-rdf-syntax-ns#"
   xmlns:svg="http://www.w3.org/2000/svg"
   xmlns="http://www.w3.org/2000/svg"
   xmlns:sodipodi="http://sodipodi.sourceforge.net/DTD/sodipodi-0.dtd"
   xmlns:inkscape="http://www.inkscape.org/namespaces/inkscape"
   width="128"
   height="128"
   id="svg2"
   sodipodi:version="0.32"
   inkscape:version="0.45+devel"
   version="1.0"
   sodipodi:docname="totem_outline.svg"
   inkscape:output_extension="org.inkscape.output.svg.inkscape">
  <defs
     id="defs4" />
  <sodipodi:namedview
     id="base"
     pagecolor="#ffffff"
     bordercolor="#666666"
     borderopacity="1.0"
     gridtolerance="10000"
     guidetolerance="10"
     objecttolerance="10"
     inkscape:pageopacity="0.0"
     inkscape:pageshadow="2"
     inkscape:zoom="1"
     inkscape:cx="64"
     inkscape:cy="61.553793"
     inkscape:document-units="px"
     inkscape:current-layer="layer1"
     showgrid="false"
     width="744.09px"
     inkscape:window-width="1248"
     inkscape:window-height="975"
     inkscape:window-x="20"
     inkscape:window-y="24" />
  <metadata
     id="metadata7">
    <rdf:RDF>
      <cc:Work
         rdf:about="">
        <dc:format>image/svg+xml</dc:format>
        <dc:type
           rdf:resource="http://purl.org/dc/dcmitype/StillImage" />
      </cc:Work>
    </rdf:RDF>
  </metadata>
  <g
     inkscape:label="outline"
     inkscape:groupmode="layer"
     id="layer1">
    <path
       style="fill:#5c2700;fill-opacity:1;fill-rule:evenodd;stroke:none;stroke-width:1px;stroke-linecap:butt;stroke-linejoin:miter;stroke-opacity:1"
       d="M 62.09375,8.40625 C 59.394432,13.275938 58.382611,18.581896 58.1875,24 C 56.687764,25.083676 55.501724,26.60833 54.8125,28.65625 C 54.249574,30.75902 53.846775,32.920657 53.59375,35.125 L 29.5,42.46875 C 29.303262,43.904776 27.177796,44.100905 29.9375,47.4375 L 33.71875,47.9375 C 33.360143,48.953381 32.44927,49.785173 34.09375,51.46875 C 35.020444,52.172847 36.32493,51.932467 37.71875,51.46875 C 37.370078,52.650426 36.618293,53.781714 38.0625,55.1875 C 39.59375,55.812211 41.125,55.493162 42.65625,54.46875 C 42.338873,55.234441 41.432011,55.882236 43.34375,57.09375 C 44.630345,57.920917 46.174221,56.947123 47.6875,56.1875 C 47.508523,57.443182 48.464569,57.790845 49.4375,58.125 C 52.172497,57.985877 54.539353,57.045544 56.96875,55.90625 C 57.755246,57.6053 58.664952,59.308716 59.75,61.03125 C 57.279324,62.298331 55.737372,64.106833 54.90625,66.1875 L 54.90625,73.8125 L 56.46875,76.375 L 56.3125,79 L 54.75,81.53125 C 54.672377,82.565356 54.608533,83.60319 54.5625,84.65625 C 54.555565,84.814877 54.256287,84.934736 54.25,85.09375 C 53.941634,92.892617 54.264643,101.24365 54.40625,109.3125 C 54.409035,109.47114 54.841219,109.5915 54.84375,109.75 C 54.855468,110.4838 54.8697,111.20755 54.875,111.9375 C 52.522331,112.99202 50.913693,115.53628 48.96875,117.40625 C 54.579117,122.44433 68.332358,126.98809 81.84375,116.3125 C 80.644372,113.93848 78.483744,112.65006 75.96875,111.59375 C 75.986009,110.58477 76.009079,109.58398 76.03125,108.5625 C 76.035417,108.37042 76.433206,108.34858 76.4375,108.15625 C 76.46181,107.06736 76.410821,105.74645 76.4375,104.65625 C 76.44077,104.52269 76.12172,104.44598 76.125,104.3125 C 76.217471,100.54954 76.332543,96.807756 76.375,93.34375 C 76.378064,93.093763 76.872645,92.750239 76.875,92.5 C 76.891437,90.753955 76.733777,88.574273 76.71875,86.8125 C 76.71724,86.635672 76.376892,86.395767 76.375,86.21875 C 76.352939,84.154109 76.303345,82.658408 76.21875,80.5625 L 74.6875,78.4375 L 74.40625,75.5 L 76.1875,73.0625 L 76.34375,66.90625 C 75.559081,64.330321 73.608899,62.546331 71.59375,60.875 C 72.922608,58.741214 73.902449,56.611299 74.65625,54.5 C 76.698867,55.423412 79.106578,56.064385 81.6875,56.3125 C 82.888744,56.427981 83.847414,57.405726 84.78125,58.4375 L 88.3125,60.15625 C 88.318304,60.188213 88.33876,60.217927 88.34375,60.25 L 88.34375,60.15625 L 88.75,60.375 C 87.802405,57.530969 88.102435,54.407232 87.34375,51.46875 C 86.376558,50.329451 85.305484,49.376655 84.1875,48.5625 C 85.713255,48.284417 86.197253,48.128561 86.8125,47.53125 C 86.882329,46.539416 87.544012,45.646224 86.3125,44.4375 C 87.108902,45.037878 88.266758,44.553894 89.53125,43.75 C 90.524905,42.099337 89.695674,41.056303 89.375,39.84375 C 90.21831,39.65493 91.073075,39.500474 91.6875,38.625 C 92.084438,37.353946 91.780586,36.223049 91,35.1875 C 92.21875,35.073811 93.4375,34.855458 94.65625,33.8125 C 94.852857,32.681675 95.960602,31.537075 93.78125,30.40625 C 95.34768,29.314808 97.107406,28.464987 98.375,27 C 99.539282,25.479167 99.347752,23.958333 98.15625,22.4375 C 90.637172,24.198956 83.55081,27.282208 76.4375,30.21875 C 76.415552,29.644873 76.388462,29.068588 76.375,28.5 C 75.884834,27.694333 75.361444,26.985737 74.8125,26.375 C 76.044045,22.21088 78.129843,22.34672 73.15625,9.78125 C 70.641123,14.107528 69.391623,18.092313 69.59375,23.03125 C 68.439168,22.626865 67.188431,22.310136 65.8125,22.03125 C 65.28104,21.972055 64.750049,22.018012 64.21875,22.03125 C 64.603497,18.834269 64.622418,15.202156 62.09375,8.40625 z M 62.0625,10.09375 C 64.236318,16.148527 63.818742,23.660203 63.21875,29.5625 L 63.46875,29.53125 C 63.889458,26.832211 63.862842,24.771734 64.15625,22.5625 C 64.690489,22.509779 65.223312,22.494533 65.75,22.5 C 69.770513,22.824446 74.02364,24.92166 75.71875,28.84375 C 75.65838,29.506789 75.608266,30.169215 75.59375,30.8125 C 75.09006,30.325096 74.826737,30.440341 73.90625,30.53125 C 72.001517,30.866699 72.001929,32.054739 71.875,33.75 C 71.827684,36.05283 72.229046,37.542655 73.875,39.1875 C 75.030278,39.795028 75.146423,39.356211 76.0625,38.78125 C 76.169426,40.128719 76.248667,41.515426 76.25,42.9375 C 74.007395,41.738442 71.22728,42.736432 69.25,44.03125 C 68.623857,44.014732 68.053823,44.259988 67.46875,44.4375 C 65.341919,45.846487 64.107564,47.863257 63.6875,50.3125 C 64.158481,54.004927 68.519955,52.980866 71.1875,52.34375 C 72.027259,53.053967 73.001461,53.697732 74.125,54.25 C 73.316053,56.38336 72.239666,58.675313 70.75,61.1875 C 72.778807,62.300741 74.326696,63.843004 75.34375,65.78125 C 74.675484,66.862845 74.041203,67.443963 73.34375,66.40625 C 72.762311,63.964973 70.930601,62.531378 68.90625,61.25 C 70.656677,62.536978 71.758152,64.682916 72.40625,66.875 C 71.126725,67.489837 69.726925,67.891989 68.375,68.09375 C 68.263149,66.959324 67.544403,66.005156 67.03125,65.03125 L 67,65.09375 C 67.289128,66.125 67.703009,67.15625 67.4375,68.1875 C 66.456369,68.434216 65.414177,68.505403 64.40625,67.96875 L 63.875,64.84375 L 63.8125,64.875 L 63.34375,67.84375 C 60.692451,68.119261 58.169938,66.959048 55.53125,66.28125 C 56.558595,63.551165 58.182174,61.812432 60.59375,61.15625 C 59.369734,59.336436 58.346554,57.493323 57.5,55.65625 C 58.51412,55.171721 59.707151,54.559262 60.78125,54.0625 C 62.09696,52.546587 61.543342,52.251967 60,51.40625 C 61.338848,50.299728 60.534831,48.950074 59.53125,48.21875 C 61.014147,47.097337 60.757262,45.943844 60.25,44.5 C 62.320325,43.110338 61.65489,41.398015 60.9375,39.375 C 62.585456,37.032995 62.570886,35.273669 61.65625,32.78125 L 61.625,32.84375 L 61.5625,32.6875 L 54.46875,34.84375 C 54.664762,32.928913 54.964073,30.990604 55.34375,29 C 55.828953,27.228068 56.871147,25.866128 58.1875,24.84375 C 58.165149,25.923539 58.155701,27.008084 58.1875,28.09375 L 58.25,28 C 58.17454,21.75047 59.739792,15.238133 62.0625,10.09375 z M 73.0625,11.125 C 75.116772,16.439496 75.808921,20.518939 74.40625,25.9375 C 73.160342,24.687155 71.736086,23.843999 70.125,23.21875 C 69.720383,18.609211 70.984403,15.478968 73.0625,11.125 z M 61.90625,12.375 C 60.626786,17.073843 59.546984,18.549987 59.84375,23.90625 L 59.9375,23.90625 C 59.743137,19.037495 60.838658,18.811847 61.71875,14.84375 C 62.542426,19.514075 62.727342,21.853539 62.5,26.40625 L 62.53125,26.34375 C 63.044353,20.928487 63.587911,21.57547 61.90625,12.375 z M 97.46875,23.375 C 99.565058,25.945091 95.808219,28.157432 93.71875,29.40625 L 76.90625,35.3125 L 76.65625,35.625 C 76.58975,34.06011 76.533832,32.498873 76.46875,30.96875 C 83.2212,28.171641 90.051486,24.605146 97.46875,23.375 z M 93.28125,30.5625 C 94.529219,31.558153 95.263604,32.599472 93.875,33.375 C 93.190512,34.348548 91.321312,34.382026 90.21875,34.9375 L 77.40625,38.65625 L 77.5,38.875 L 90.65625,35.59375 C 91.105762,36.297742 91.422593,37.030865 90.84375,37.90625 C 90.375809,38.902254 89.61355,39.050534 88.71875,39.40625 L 79.3125,42.03125 L 79.28125,42.21875 L 88.96875,40 C 89.241223,41.117621 89.399867,42.223097 88.75,43.15625 C 87.769158,43.779994 86.854521,44.419295 85.3125,44.09375 L 81.0625,45.25 L 81,45.40625 L 85.78125,44.71875 C 86.215888,45.265969 86.609079,45.858016 86.0625,46.90625 C 85.408005,47.383214 85.178986,48.014896 83.6875,48.1875 C 83.03318,47.744021 82.364425,47.345609 81.6875,47 C 80.181917,45.680309 78.626029,44.260393 76.71875,43.1875 C 76.83255,40.712134 76.786817,38.281711 76.6875,35.875 L 93.28125,30.5625 z M 74.34375,30.875 C 74.875521,30.767252 75.144062,31.103814 75.59375,31.34375 C 75.590652,31.86385 75.606911,32.363226 75.625,32.875 C 74.49486,31.690095 74.52903,32.057374 73.375,32.96875 C 72.575637,34.18469 72.701548,34.80794 73.28125,36.03125 C 74.417262,37.206642 74.629863,36.952527 75.78125,36.03125 C 75.80354,35.997344 75.823298,35.97064 75.84375,35.9375 C 75.913699,36.787138 75.961271,37.642877 76.03125,38.5 C 75.299372,39.108819 74.780566,38.986492 73.96875,38.875 C 72.57944,37.49699 72.49657,35.550407 72.4375,33.6875 C 72.384306,32.242052 72.885774,31.650638 74.09375,30.96875 C 74.187853,30.931731 74.263927,30.891174 74.34375,30.875 z M 67.84375,31.03125 C 65.11967,31.522542 64.978797,33.707957 64.75,36.09375 C 64.834327,38.661722 65.085766,40.204748 67.6875,40.90625 C 70.403039,40.405812 70.461117,38.282372 70.6875,35.90625 C 70.600793,33.36952 70.413639,31.730732 67.84375,31.03125 z M 67.78125,31.40625 C 69.76587,32.003236 70.034508,34.068466 70.21875,35.90625 C 70.162492,37.926722 69.639931,39.633549 67.78125,40.4375 C 65.759696,39.847492 65.497858,37.768866 65.3125,35.90625 C 65.367197,33.873838 65.911027,32.199364 67.78125,31.40625 z M 74.46875,32.78125 C 74.686909,32.777858 74.821812,33.043134 75.25,33.15625 C 75.848049,34.093103 75.610226,34.809847 75.25,35.75 C 74.535,36.438964 74.596678,35.931341 73.90625,35.75 C 73.308204,34.813145 73.546024,34.096403 73.90625,33.15625 C 74.17726,32.897251 74.337855,32.783285 74.46875,32.78125 z M 61.59375,32.9375 C 62.125882,35.144701 62.333631,37.369916 60.65625,39.375 C 61.084699,40.944248 62.171743,42.372285 60.03125,44.5 C 60.024099,45.722978 60.923357,46.864599 59.40625,48.1875 C 59.764411,49.183813 61.339849,49.39368 59.8125,51.4375 C 61.587875,52.265726 61.545382,52.612959 60.6875,53.9375 C 57.029212,56.15808 53.280857,56.213467 49.625,57.1875 C 48.730509,57.064157 48.251319,56.534322 48.09375,55.78125 L 53.9375,52.75 L 53.71875,52.59375 L 47.4375,55.15625 L 47.5,55.28125 C 46.274775,55.742521 44.876301,56.529521 43.71875,56.125 C 43.11462,55.535914 43.147533,54.860137 43.25,54.21875 L 53.71875,50.3125 L 53.8125,50.15625 L 42.9375,53.46875 L 42.9375,53.5 C 41.582236,54.026105 40.108736,54.842151 38.78125,54.28125 C 37.874528,53.381387 38.18966,52.348628 38.4375,51.375 L 56.5625,45.25 L 56.5625,44.96875 L 38.1875,50.53125 L 38.1875,50.5625 C 37.082467,50.807064 36.008686,51.268331 35.09375,50.65625 C 33.911902,50.07449 34.336043,48.871323 34.59375,47.84375 L 57.625,40.71875 L 57.5625,40.46875 L 34.3125,47.03125 L 30.84375,46.5625 C 28.28955,45.27347 29.393391,43.813726 30.21875,42.75 C 40.785194,40.063594 51.244868,37.361472 61.59375,32.9375 z M 67.75,34.03125 C 67.519742,33.99915 67.295765,34.231813 66.71875,34.6875 C 65.919385,35.903439 65.889048,36.96419 66.46875,38.1875 C 67.60476,39.362891 67.817363,38.858777 68.96875,37.9375 C 69.768115,36.721559 69.360953,36.192061 68.78125,34.96875 C 68.21618,34.376298 67.980258,34.06335 67.75,34.03125 z M 67.59375,34.90625 C 68.832053,34.842312 68.810637,36.437722 68.34375,37.65625 C 67.628745,38.345213 67.690428,37.837591 67,37.65625 C 66.401954,36.719394 66.639774,35.971403 67,35.03125 C 67.231468,34.948547 67.41685,34.915384 67.59375,34.90625 z M 73.625,42.875 C 76.369089,42.616105 78.162809,44.333972 79.90625,46.21875 C 78.793622,45.78008 77.674959,45.433956 76.59375,45.1875 C 75.792522,44.70822 73.388773,45.034317 72.0625,45.0625 C 77.793529,44.987148 82.571981,48.204805 86.59375,52.125 C 87.255648,54.046422 87.519795,56.310597 87.84375,58.375 C 86.746659,55.93308 83.932504,54.400597 81.90625,53.375 C 79.529945,52.172223 76.71831,51.403326 75.40625,49.40625 C 73.511078,47.354661 71.33856,47.105592 69.1875,48.71875 L 69.40625,48.8125 C 71.154342,47.984577 73.472836,48.502397 74.90625,49.75 C 76.447334,52.095672 79.598473,52.644408 81.90625,53.8125 C 83.889497,54.816328 86.88551,56.73461 87.96875,59.0625 C 87.99906,59.239746 88.030118,59.421047 88.0625,59.59375 C 87.892949,59.525536 87.003118,59.20989 86.8125,59.0625 C 86.407783,58.749562 85.752126,58.70776 85.28125,58.1875 C 84.3395,57.146982 83.443121,55.472262 81.78125,55.3125 C 77.84233,55.349431 74.503351,54.049095 71.0625,52.09375 C 68.567436,52.917837 66.02448,52.783151 64.6875,50.3125 C 64.88275,48.131488 66.201679,46.192603 67.8125,44.875 C 69.181968,43.738169 70.414952,44.560568 71.84375,45.03125 C 71.864906,45.03088 71.760121,44.906528 71.78125,44.90625 C 71.043619,44.389515 70.346939,44.116868 69.59375,44.0625 C 71.181923,43.341469 72.508019,42.970131 73.625,42.875 z M 75.6875,66.53125 C 75.737052,66.645123 75.797619,66.758785 75.84375,66.875 L 75.96875,72.59375 L 75.84375,72.78125 C 67.489033,75.279834 61.484683,74.14797 55.40625,73.15625 L 55.5,66.625 C 57.756122,67.76284 60.83446,68.85191 63.96875,68.71875 C 65.425608,69.448957 66.919541,69.129814 68.25,68.90625 C 70.520403,69.128532 72.50212,68.471258 73,67.375 C 74.056743,68.072142 74.963306,67.251367 75.6875,66.53125 z M 75.25,73.59375 L 73.96875,75.5 C 69.632715,76.788146 64.201058,77.528759 57.03125,76.03125 L 55.46875,73.71875 C 61.731816,74.660795 68.103374,75.302385 75.25,73.59375 z M 74,75.96875 L 74.125,78.59375 C 69.731613,79.977668 64.147966,80.589986 56.8125,78.9375 L 57,76.28125 C 63.847567,78.496867 69.144732,77.865676 74,75.96875 z M 74.3125,78.875 L 75.59375,80.6875 C 75.603513,80.795808 75.615191,80.89293 75.625,81 C 69.120532,84.096259 61.9999,83.472808 55.34375,81.6875 C 55.346983,81.656383 55.340478,81.624873 55.34375,81.59375 L 56.6875,79.375 C 63.850337,82.093826 69.704022,80.639209 74.3125,78.875 z M 75.65625,81.34375 C 75.815926,83.06561 75.956436,84.679553 76.03125,86.40625 C 74.8615,86.267281 73.934995,86.446012 72.96875,86.71875 C 72.314534,87.398644 72.092134,88.618621 72.09375,89.65625 C 71.862917,90.444845 72.155808,91.127629 73.15625,92.25 L 76.0625,93.15625 C 76.045703,96.861485 75.916189,100.57602 75.8125,104.28125 L 73.03125,105.96875 L 72.9375,107.25 L 72.71875,107.4375 L 75.71875,108.59375 C 75.696585,109.61751 75.668407,110.63249 75.65625,111.65625 C 72.477045,114.05344 68.553673,115.44696 65.40625,115.40625 C 62.28625,115.3659 58.527253,113.9493 55.34375,112.25 L 55.3125,112.25 C 55.312596,111.43487 55.293036,110.62594 55.28125,109.8125 C 57.623632,110.95953 58.964651,113.97691 70.625,107.46875 L 70.46875,106.40625 C 66.289096,105.07377 62.117156,106.57584 57.9375,102 C 57.999059,100.45651 57.920681,98.959914 57.875,97.625 C 57.816435,95.913618 58.318587,94.260943 61.03125,92.28125 C 63.396735,92.428323 65.055246,91.603307 68.625,93.40625 C 69.974622,92.724939 70.646843,91.801135 71.09375,90.4375 C 71.105573,89.969877 70.957685,89.518875 70.6875,89.09375 C 70.594043,88.20153 70.473966,87.399995 69.09375,86.96875 C 64.545236,86.965184 59.69521,86.06488 55.09375,84.71875 C 55.154186,83.815099 55.22186,82.907967 55.3125,82 C 61.92746,84.433563 68.82186,85.280393 75.65625,81.34375 z M 55.0625,84.96875 C 59.344831,86.178653 63.610228,87.0684 68.65625,87.3125 C 69.564739,87.04495 70.038491,87.828763 70.4375,88.75 C 70.09416,88.330439 69.633283,87.939305 69.0625,87.5625 C 64.301298,87.366536 59.605551,86.748982 55.03125,85.34375 C 55.035275,85.218916 55.052099,85.093564 55.0625,84.96875 z M 54.8125,85.5 C 58.681357,87.930348 64.205035,87.664518 68.875,88.09375 C 69.966628,88.834207 70.732177,89.875171 70.71875,90.40625 C 70.705928,90.913389 69.595022,92.045935 68.53125,92.75 C 65.655836,91.339195 63.079327,91.539944 60.71875,91.8125 C 58.234829,93.212142 57.762574,94.88227 57.375,97.625 C 57.44274,99.604509 57.648531,101.43978 57.40625,103.15625 C 58.545906,105.1107 61.006581,105.9547 63.15625,106.625 C 64.714248,107.01615 67.881377,107.0038 69.375,107.375 C 65.886941,110.09929 60.106821,112.27959 55.28125,109.46875 C 55.004475,109.2622 54.858899,109.16323 54.8125,108.96875 C 54.667433,101.26698 54.164918,93.471259 54.59375,85.6875 C 54.598121,85.608157 54.699815,85.557751 54.8125,85.5 z M 74.75,86.6875 C 75.193569,86.683642 75.62593,86.734248 76.0625,86.71875 C 76.064483,86.772685 76.060687,86.820754 76.0625,86.875 L 73.3125,87.625 C 72.929561,88.148078 72.626112,88.586751 72.40625,88.96875 C 72.549893,88.232737 72.786856,87.427081 73.25,87.15625 C 73.775154,86.791043 74.273975,86.691641 74.75,86.6875 z M 76.125,87.0625 C 76.228135,87.109295 76.434124,87.066128 76.4375,87.1875 C 76.478881,88.675089 76.52105,90.408366 76.46875,92.09375 C 76.464755,92.222379 76.170826,92.416973 76.09375,92.5625 L 73.375,91.6875 C 71.950628,90.354898 72.515351,89.531239 73.4375,88.0625 L 76.125,87.0625 z M 57.90625,102.65625 C 61.56928,106.25755 65.944326,105.56706 70,106.8125 L 70.09375,107.28125 C 67.885932,106.59542 65.395734,106.66452 63.15625,106.15625 C 61.258683,105.67984 59.288236,104.58626 57.875,103.09375 C 57.888274,102.94724 57.896208,102.80232 57.90625,102.65625 z M 75.8125,104.5625 C 75.811921,104.5833 75.813078,104.6042 75.8125,104.625 L 73.375,106.84375 L 73.25,106.15625 L 75.8125,104.5625 z M 75.875,105 C 75.975537,105.08495 76.159616,105.15732 76.15625,105.28125 C 76.133828,106.10684 76.019217,106.89316 76,107.71875 C 75.997969,107.80603 75.916884,107.92779 75.84375,108.0625 L 73.65625,107.34375 L 75.875,105 z M 75.9375,112.03125 C 78.284854,112.73219 80.019676,114.19965 81.1875,116.375 C 73.642709,123.07748 59.050959,125.00158 49.4375,117.5 C 51.3186,115.74828 52.960862,113.17225 55.1875,112.6875 C 58.472577,114.43382 62.113818,115.67576 65.4375,115.71875 C 68.853275,115.76293 72.553751,114.62855 75.9375,112.03125 z"
       id="path2327"
       sodipodi:nodetypes="cccccccccccccccccccccssssccccsssssssscccccccsccccccccccccccccccccccccccccccccccccccccccccccccccccccccccccccccccccccccccccccccccccccccccccccccccccccccccccccccccccccccccccccccccccccccccccccccccccccccccccccccccccccccccccccccccccccccccccsccccsccsscccccccccccccccccccccccccccccccccccccccccccccccsccccccsccccccccccccccccsccccccccscccccccccssccccccccccccccccsscccccccsc" />
  </g>
</svg>
