<?xml version="1.0" encoding="UTF-8" standalone="no"?>
<!-- Created with Inkscape (http://www.inkscape.org/) -->
<svg
   xmlns:dc="http://purl.org/dc/elements/1.1/"
   xmlns:cc="http://creativecommons.org/ns#"
   xmlns:rdf="http://www.w3.org/1999/02/22-rdf-syntax-ns#"
   xmlns:svg="http://www.w3.org/2000/svg"
   xmlns="http://www.w3.org/2000/svg"
   xmlns:xlink="http://www.w3.org/1999/xlink"
   xmlns:sodipodi="http://sodipodi.sourceforge.net/DTD/sodipodi-0.dtd"
   xmlns:inkscape="http://www.inkscape.org/namespaces/inkscape"
   width="128"
   height="128"
   id="svg2"
   sodipodi:version="0.32"
   inkscape:version="0.45+devel"
   version="1.0"
   sodipodi:docname="tower_square_outline.svg"
   inkscape:output_extension="org.inkscape.output.svg.inkscape">
  <defs
     id="defs4">
    <filter
       height="1.42432"
       y="-0.21216"
       width="1.2179726"
       x="-0.1089863"
       id="filter2892"
       inkscape:collect="always">
      <feGaussianBlur
         id="feGaussianBlur2894"
         stdDeviation="0.72146876"
         inkscape:collect="always" />
    </filter>
    <radialGradient
       r="8.2519293"
       fy="222.04396"
       fx="14.207293"
       cy="222.04396"
       cx="14.207293"
       gradientTransform="scale(1.39523,0.716728)"
       gradientUnits="userSpaceOnUse"
       id="radialGradient1968"
       xlink:href="#linearGradient2057"
       inkscape:collect="always" />
    <linearGradient
       inkscape:collect="always"
       id="linearGradient2057">
      <stop
         style="stop-color:#000000;stop-opacity:1;"
         offset="0"
         id="stop2059" />
      <stop
         style="stop-color:#000000;stop-opacity:0;"
         offset="1"
         id="stop2061" />
    </linearGradient>
  </defs>
  <sodipodi:namedview
     id="base"
     pagecolor="#ffffff"
     bordercolor="#666666"
     borderopacity="1.0"
     gridtolerance="10000"
     guidetolerance="10"
     objecttolerance="10"
     inkscape:pageopacity="0.0"
     inkscape:pageshadow="2"
     inkscape:zoom="1"
     inkscape:cx="64"
     inkscape:cy="68.396218"
     inkscape:document-units="px"
     inkscape:current-layer="layer1"
     showgrid="false"
     width="744.09px"
     inkscape:window-width="1248"
     inkscape:window-height="975"
     inkscape:window-x="426"
     inkscape:window-y="24"
     showguides="true"
     inkscape:guide-bbox="true" />
  <metadata
     id="metadata7">
    <rdf:RDF>
      <cc:Work
         rdf:about="">
        <dc:format>image/svg+xml</dc:format>
        <dc:type
           rdf:resource="http://purl.org/dc/dcmitype/StillImage" />
      </cc:Work>
    </rdf:RDF>
  </metadata>
  <g
     inkscape:label="Layer 1"
     inkscape:groupmode="layer"
     id="layer1">
    <path
       style="fill:#5c2700;fill-opacity:1;fill-rule:evenodd;stroke:none;stroke-width:1px;stroke-linecap:butt;stroke-linejoin:miter;stroke-opacity:1"
       d="M 72.375,4.15625 L 58.75,8.90625 L 58.90625,13.9375 L 54.21875,10.03125 L 36.65625,17 L 36.5,22.21875 L 32.6875,23.40625 L 29.53125,19.625 L 15.375,24.34375 L 15.40625,42.625 L 18.40625,45.09375 L 15.9375,100.15625 L 19.875,102.875 L 16.90625,113.21875 L 25.0625,119.15625 L 33.75,112.46875 L 51.5625,124.75 L 107.8125,102.53125 L 107.15625,87.6875 L 113.90625,84.96875 L 106.25,66.9375 L 105.21875,43.875 L 107.75,42.71875 L 107.03125,27.34375 L 95.875,19.5 L 91.28125,21.625 L 90.21875,16.03125 L 83.75,11.53125 L 81.46875,12.75 L 80.875,9.9375 L 72.375,4.15625 z M 72.46875,4.65625 L 79.53125,9.84375 L 73.21875,12.90625 L 70.15625,10.6875 L 65.71875,12.46875 L 59.9375,9.15625 L 72.46875,4.65625 z M 59.53125,9.375 L 65.78125,13.375 L 65.75,17.4375 L 59.53125,13.875 L 59.53125,9.375 z M 80.15625,10.15625 L 80.75,13.25 L 76.21875,15.5 L 76.40625,17.09375 L 73.3125,18.53125 L 73.375,13.96875 L 80.15625,10.15625 z M 54.1875,10.75 L 59.34375,15.21875 L 44.375,20.71875 L 37.9375,17.34375 L 54.1875,10.75 z M 69.5625,11.96875 C 69.704184,15.194493 70.204825,18.614806 70.21875,21.84375 C 60.317752,26.879168 49.61409,31.191621 39.5,35.78125 L 35.28125,32 L 35,31.78125 L 34.71875,31.9375 L 31.125,33.75 L 31.28125,29.75 L 29.21875,27.09375 L 33.875,25.09375 L 33.625,30.4375 L 44.4375,26.46875 L 44.6875,21.6875 L 59.84375,15.71875 L 60.25,21.34375 L 66.75,18.1875 L 66.6875,13.125 L 69.5625,11.96875 z M 70.59375,12.25 L 72.34375,13.53125 L 72.6875,19.34375 L 76.65625,21.78125 L 76.96875,16.25 L 82.8125,20.09375 L 82.71875,25.40625 L 87.40625,28.15625 L 85.125,29.28125 L 85.59375,34.5 L 70.6875,22.0625 C 70.671025,18.93722 70.670412,15.374435 70.59375,12.25 z M 83.59375,12.25 L 88.96875,16.40625 L 83.0625,19.5 L 77.46875,15.5625 L 83.59375,12.25 z M 60.53125,15.28125 L 66.1875,18.34375 L 61.09375,20.3125 L 60.53125,15.28125 z M 89.875,16.875 L 90.6875,21.53125 L 83.375,25.09375 L 83.375,20.46875 L 89.875,16.875 z M 37.375,17.8125 L 43.71875,21.5 L 43.78125,25.84375 L 37.0625,21.71875 L 37.375,17.8125 z M 76.15625,18.125 L 76.21875,20.8125 L 73.84375,19.375 L 76.15625,18.125 z M 95.9375,20.125 C 99.118676,22.484859 102.37063,25.279126 105.4375,27.5625 C 101.02997,30.255548 96.193623,32.196809 91.4375,34.1875 L 86.46875,29.375 L 94.1875,25.875 L 90.40625,23.125 L 95.9375,20.125 z M 29.46875,20.3125 L 32.71875,24.9375 L 27.90625,26.84375 L 30.125,29.46875 L 23.8125,32.125 L 16.28125,24.5625 L 29.46875,20.3125 z M 70.1875,22.5 L 86.0625,35.75 L 82.8125,36.96875 L 77.375,32.65625 L 65.625,37.8125 L 66.125,42.90625 L 61.21875,44.90625 L 58.21875,41.78125 L 50.96875,45.78125 L 47.84375,42.125 L 43.65625,44.46875 L 42.9375,43.46875 L 42.59375,38.71875 L 40.3125,36.53125 C 50.123769,31.595349 60.607267,27.89818 70.1875,22.5 z M 88.875,22.90625 L 92.28125,25.71875 L 88.59375,27.34375 L 88.875,22.90625 z M 37.28125,23.03125 L 43.09375,26.3125 L 34.28125,29.6875 L 34.53125,25.15625 L 33.84375,24.21875 L 37.28125,23.03125 z M 88.0625,23.5625 L 88.03125,27.34375 L 84.4375,25.21875 L 88.0625,23.5625 z M 16.3125,25.21875 L 23.125,32.84375 L 23.03125,32.84375 L 22.65625,38.4375 L 27.6875,44.09375 L 27.46875,36.84375 L 34.125,43.3125 L 34.09375,48.71875 L 41.28125,53.90625 L 41.5625,46.9375 L 49.28125,54.1875 C 48.880612,58.971875 48.789521,63.833754 48.6875,68.65625 L 15.96875,42.34375 L 16.3125,25.21875 z M 106.0625,28.3125 L 106.90625,42.5 L 49.6875,68.4375 C 49.771594,63.651334 49.414213,58.612136 49.78125,53.84375 L 62.875,48.03125 L 63.875,53.25 L 74,48.875 L 73.65625,44.125 L 83.53125,39.375 L 84.28125,44.5 L 93.25,40.5625 L 92.4375,34.875 C 97.048758,32.841085 101.79273,31.020949 106.0625,28.3125 z M 86.03125,30.21875 L 91.65625,35.125 L 92.34375,39.21875 L 86.75,35.53125 L 86.03125,30.21875 z M 30.8125,30.28125 L 30.65625,34.03125 L 26.65625,36.03125 L 26.46875,36.375 L 26.46875,36.53125 L 23.71875,37.8125 L 24.03125,33.125 L 30.8125,30.28125 z M 34.84375,32.96875 L 41.03125,38.5 L 34.65625,42.4375 L 28.34375,36.3125 L 34.84375,32.96875 z M 77.25,33.125 L 83.5625,38.5 L 73,43.96875 L 66.4375,38.125 L 77.25,33.125 z M 86.90625,36.21875 L 92.375,40.09375 L 85.0625,43.0625 L 84.40625,38.6875 L 83.6875,37.65625 L 86.90625,36.21875 z M 26.59375,37.0625 L 26.625,41.375 L 23.6875,38.875 L 26.59375,37.0625 z M 66.25,38.875 L 72.6875,44.5625 L 73.625,48.15625 L 66.75,43.09375 L 66.25,38.875 z M 41.6875,39.3125 L 42.25,43.5 L 35.09375,47.3125 L 35.125,43.34375 L 41.6875,39.3125 z M 58.1875,42.46875 L 62.71875,47.28125 L 49.71875,53.21875 L 42.03125,46 L 47.71875,42.75 L 50.5,46.375 L 58.1875,42.46875 z M 66.1875,43.28125 L 72.75,48.3125 L 64.625,51.8125 L 63.78125,47.5625 L 63.78125,47.53125 L 63.75,47.375 L 63.65625,47.40625 L 63.3125,47.0625 L 61.96875,45.6875 L 66.1875,43.28125 z M 42.53125,44.03125 L 43,44.59375 L 40.71875,45.96875 L 40.4375,52.5 L 35.28125,48.34375 L 42.53125,44.03125 z M 104.84375,44.0625 L 106.125,87 L 106.78125,101.84375 L 96.34375,105.96875 L 93.71875,86.53125 L 82,81.65625 L 70.625,93.65625 L 70.375,116.1875 L 52.65625,123.1875 L 52.8125,68.0625 L 104.84375,44.0625 z M 19.375,45.875 L 48.6875,69.96875 L 52.25,68.1875 L 51.40625,123.28125 L 34.0625,111.4375 L 36.25,89.375 L 36.28125,89.34375 L 36.25,89.3125 L 36.21875,89.3125 L 28.34375,85.375 L 22.78125,92.625 L 22.75,92.65625 L 22.71875,92.75 L 20.15625,101.84375 L 16.5,100 L 19.375,45.875 z M 93.462626,56.540133 L 90.181376,61.821383 L 90.025126,73.633883 L 88.650126,74.477633 L 88.650126,78.696383 L 101.40013,72.071383 L 101.40013,67.415133 L 99.556376,68.415133 L 98.775126,58.383883 L 93.462626,56.540133 z M 93.868876,57.727633 L 98.431376,58.852633 L 99.118876,68.727633 L 91.025126,72.915133 L 90.525126,61.946383 L 93.868876,57.727633 z M 34.40625,67.09375 C 32.610261,67.206641 31.308888,68.528731 29.71875,69.15625 L 29.90625,76.6875 L 27.1875,74.96875 L 26.84375,79.46875 L 41.78125,87.875 L 41.71875,82.28125 C 41.71875,82.28125 40.576805,81.758544 39.0625,81.0625 L 39.75,74.3125 C 38.748731,71.663022 37.092726,69.259731 35.21875,67.125 C 34.940219,67.086224 34.66282,67.077623 34.40625,67.09375 z M 100.96263,68.415133 L 101.27513,71.727633 L 89.118876,78.008883 L 89.306376,74.727633 L 100.96263,68.415133 z M 34.3125,67.5625 C 34.483073,67.559535 34.641927,67.58225 34.8125,67.65625 C 37.181537,69.463696 37.425883,72.383573 38.71875,74.40625 L 38.625,81.0625 L 30.375,76.71875 L 30.71875,69.84375 C 31.91276,69.275127 33.11849,67.583257 34.3125,67.5625 z M 106.1875,67.84375 L 113.28125,84.65625 L 107.125,86.59375 L 106.1875,67.84375 z M 62.1875,71.65625 L 58.90625,76.9375 L 58.625,89 L 57.375,89.71875 L 57.375,93.9375 L 70.125,87.3125 L 70.125,82.65625 L 68.28125,83.65625 L 67.5,73.5 L 62.1875,71.65625 z M 62.59375,72.84375 L 67.15625,73.96875 L 67.3125,84.1875 L 59.65625,88.40625 L 59.15625,77.0625 L 62.59375,72.84375 z M 27.65625,75.71875 C 31.794321,78.039101 36.77582,81.012739 41.3125,82.375 L 41.40625,87.03125 L 27.375,79.4375 C 27.206441,78.761134 27.637196,75.827477 27.65625,75.71875 z M 82.0625,81.8125 L 93.375,86.96875 L 95.8125,106.21875 L 94.15625,106.8125 L 91.59375,87.875 L 82.625,84.40625 L 73.5,93.78125 L 73.59375,114.90625 L 71.375,115.8125 L 71.0625,93.96875 L 82.0625,81.8125 z M 69.90625,83.21875 L 69.8125,87.0625 L 57.84375,93.4375 L 57.84375,89.96875 L 69.90625,83.21875 z M 82.875,85.59375 L 91.34375,88.1875 L 93.1875,107.1875 L 90.4375,108.28125 L 92.3125,105.375 L 92.15625,105.21875 L 89.3125,108.71875 L 85.125,110.375 L 85.0625,109.65625 C 87.36302,105.77602 89.097003,101.42603 91.28125,97.5 L 91,97.34375 C 88.925271,100.97743 87.005524,104.70597 84.9375,108.34375 L 84.375,102.125 L 90.6875,88.84375 L 90.5,88.71875 L 84.25,100.78125 L 83.65625,93.90625 L 86.46875,87.75 L 86.25,87.6875 L 83.5625,92.96875 L 82.9375,86.125 L 82.6875,86.1875 L 83,91.5625 L 78.21875,90.25 L 78.15625,90.5625 L 83.03125,92.3125 L 83.28125,96.65625 L 75.375,93.71875 L 75.1875,93.84375 L 83.34375,97.625 L 83.6875,103.90625 L 75.15625,100.46875 L 74.84375,100.625 L 83.75,104.65625 L 84.09375,110.78125 L 83.96875,110.84375 L 74.65625,107.71875 L 74.53125,108.0625 L 82.9375,111.21875 L 74.25,114.65625 L 73.96875,93.9375 L 82.875,85.59375 z M 28.5625,86 L 34.65625,89.71875 L 29.1875,96.125 L 23.6875,92.75 L 28.5625,86 z M 35.0625,90.75 L 33.34375,111.90625 L 25.28125,117.6875 L 29.96875,96.6875 L 35.0625,90.75 z M 23.53125,93.53125 L 28.84375,97.0625 L 24.5,117.53125 L 17.375,113.03125 L 23.53125,93.53125 z"
       id="path2313"
       sodipodi:nodetypes="cccccccccccccccccccccccccccccccccccccccccccccccccccccccccccccccccccccccccccccccccccccccccccccccccccccccccccccccccccccccccccccccccccccccccccccccccccccccccccccccccccccccccccccccccccccccccccccccccccccccccccccccccccccccccccccccccccccccccccccccccccccccccccccccccccccccccccccccccccccccccccccccccccccccccccccccccccccccccccccccccccccccccccccccccccccccccccccccccccccccccccccccccccccccccccccccccccccccccccccccccccccccc" />
  </g>
</svg>
