<?xml version="1.0" encoding="UTF-8" standalone="no"?>
<!-- Created with Inkscape (http://www.inkscape.org/) -->
<svg
   xmlns:dc="http://purl.org/dc/elements/1.1/"
   xmlns:cc="http://creativecommons.org/ns#"
   xmlns:rdf="http://www.w3.org/1999/02/22-rdf-syntax-ns#"
   xmlns:svg="http://www.w3.org/2000/svg"
   xmlns="http://www.w3.org/2000/svg"
   xmlns:xlink="http://www.w3.org/1999/xlink"
   xmlns:sodipodi="http://sodipodi.sourceforge.net/DTD/sodipodi-0.dtd"
   xmlns:inkscape="http://www.inkscape.org/namespaces/inkscape"
   width="128"
   height="128"
   id="svg2"
   sodipodi:version="0.32"
   inkscape:version="0.45+devel"
   version="1.0"
   sodipodi:docname="tower_round_outline.svg"
   inkscape:output_extension="org.inkscape.output.svg.inkscape">
  <defs
     id="defs4">
    <filter
       height="1.42432"
       y="-0.21216"
       width="1.2179726"
       x="-0.1089863"
       id="filter2892"
       inkscape:collect="always">
      <feGaussianBlur
         id="feGaussianBlur2894"
         stdDeviation="0.72146876"
         inkscape:collect="always" />
    </filter>
    <radialGradient
       r="8.2519293"
       fy="222.04396"
       fx="14.207293"
       cy="222.04396"
       cx="14.207293"
       gradientTransform="scale(1.39523,0.716728)"
       gradientUnits="userSpaceOnUse"
       id="radialGradient1968"
       xlink:href="#linearGradient2057"
       inkscape:collect="always" />
    <linearGradient
       inkscape:collect="always"
       id="linearGradient2057">
      <stop
         style="stop-color:#000000;stop-opacity:1;"
         offset="0"
         id="stop2059" />
      <stop
         style="stop-color:#000000;stop-opacity:0;"
         offset="1"
         id="stop2061" />
    </linearGradient>
  </defs>
  <sodipodi:namedview
     id="base"
     pagecolor="#ffffff"
     bordercolor="#666666"
     borderopacity="1.0"
     gridtolerance="10000"
     guidetolerance="10"
     objecttolerance="10"
     inkscape:pageopacity="0.0"
     inkscape:pageshadow="2"
     inkscape:zoom="1"
     inkscape:cx="64"
     inkscape:cy="104.78427"
     inkscape:document-units="px"
     inkscape:current-layer="layer1"
     showgrid="false"
     width="744.09px"
     inkscape:window-width="1248"
     inkscape:window-height="975"
     inkscape:window-x="426"
     inkscape:window-y="24" />
  <metadata
     id="metadata7">
    <rdf:RDF>
      <cc:Work
         rdf:about="">
        <dc:format>image/svg+xml</dc:format>
        <dc:type
           rdf:resource="http://purl.org/dc/dcmitype/StillImage" />
      </cc:Work>
    </rdf:RDF>
  </metadata>
  <g
     inkscape:label="Layer 1"
     inkscape:groupmode="layer"
     id="layer1">
    <path
       style="fill:#5c2700;fill-opacity:1;fill-rule:evenodd;stroke:none;stroke-width:0.99999994000000003px;stroke-linecap:butt;stroke-linejoin:miter;stroke-opacity:1"
       d="M 65.625 6.71875 C 63.126101 6.735653 60.618556 6.866688 58.125 6.96875 L 58.5 13.8125 C 57.255259 14.555737 55.600316 14.455757 54.21875 14.875 L 54.15625 13.46875 L 49.125 8.8125 C 45.305627 10.792704 41.255754 11.539486 36.28125 17.0625 L 36.75 23.59375 C 34.638101 31.127859 35.298696 39.539381 35.78125 47.28125 C 36.912901 49.683424 39.022934 51.331169 41.125 52.875 L 37.46875 106.9375 C 44.328524 116.51228 55.125096 119.08372 66.21875 120.59375 C 66.923004 120.4652 66.421813 119.89556 66.6875 119.34375 C 67.654547 119.17095 68.65786 118.96857 69.65625 118.78125 L 70.0625 119.8125 L 70.4375 119.71875 L 70.65625 118.59375 C 71.888 118.35818 73.128542 118.10217 74.375 117.84375 L 74.84375 119.09375 L 75.21875 119.0625 L 75.375 117.65625 C 76.429195 117.4323 77.458528 117.17857 78.5 116.9375 L 78.875 118.21875 L 79.3125 118.1875 L 79.5 116.71875 C 80.531943 116.47252 81.565011 116.23276 82.5625 115.96875 C 82.578389 116.0943 83.125 117.09375 83.125 117.09375 L 83.375 117.03125 C 83.375 117.03125 83.550922 115.87327 83.53125 115.71875 C 84.506759 115.45089 85.454836 115.16108 86.375 114.875 C 86.392137 115.00191 86.527661 115.51714 86.6875 115.75 C 90.340046 114.48707 94.025222 110.83631 96.6875 107.84375 L 91.21875 52.375 C 93.007936 50.935654 94.43867 49.241304 95.34375 47.28125 C 95.533052 38.66126 95.072917 31.989583 94.9375 24.34375 C 94.867662 21.634412 93.949881 18.822053 92.3125 16.34375 C 90.221671 13.513189 88.304431 12.813322 86.375 11.34375 L 81.03125 13.21875 L 80.96875 16.5 C 79.468213 15.713859 78.519008 13.941318 76.125 14.71875 L 76.09375 12.84375 L 73.09375 7.1875 C 70.614154 6.799076 68.123899 6.701847 65.625 6.71875 z M 66.40625 7.21875 C 68.59128 7.203312 70.762721 7.396711 72.84375 7.875 L 75.09375 12.25 C 71.216979 11.488066 66.734578 10.359215 61.71875 11.65625 L 59.9375 7.875 C 62.022599 7.458461 64.22122 7.234188 66.40625 7.21875 z M 58.9375 7.8125 L 61.21875 11.59375 L 61.9375 16.5625 L 59.21875 13.6875 L 58.9375 7.8125 z M 48.9375 9.46875 L 52.46875 13.375 C 48.720886 14.415478 45.618508 15.513906 43.03125 19.21875 L 37.875 16.6875 C 40.584916 13.302446 44.578391 11.200716 48.9375 9.46875 z M 65.96875 11.96875 C 66.372985 11.952631 66.764732 11.961323 67.15625 11.96875 C 69.96145 12.021962 72.491994 12.6567 75.15625 13.15625 L 75.5625 17.375 C 77.862729 18.15078 80.185497 18.866452 82 20.9375 L 81.53125 14.0625 C 83.648957 15.54116 85.449826 17.527093 86.3125 19.125 C 87.241407 20.84559 87.430965 22.607972 86.8125 24.5625 L 86.65625 28.46875 C 80.885252 21.646107 72.453921 19.495382 63.90625 20.5 C 57.689689 21.530048 51.074607 23.506584 46.59375 28.1875 L 43.71875 26.40625 L 43.53125 25.75 L 43.34375 20.46875 C 45.645829 16.68188 49.169489 15.319039 53.21875 14.15625 L 53.8125 19.46875 C 55.692458 19.529597 57.760938 19.590104 62.71875 18 L 62.125 12.53125 C 63.477206 12.193115 64.756046 12.017108 65.96875 11.96875 z M 86.21875 11.96875 C 88.162849 13.388602 90.369712 14.750251 91.8125 16.46875 C 93.228995 18.155932 94.281191 20.869137 94.3125 23.75 L 87.84375 24.15625 C 88.276571 22.230278 87.924747 20.556635 87 18.84375 C 86.077905 17.135779 84.083218 15.131345 82.03125 13.65625 L 86.21875 11.96875 z M 58.78125 14 L 61.4375 17.4375 C 59.511232 18.20573 56.897552 19.470877 54.46875 19.21875 L 54.1875 15.40625 C 55.852738 15.465486 57.362521 14.863158 58.78125 14 z M 76.6875 15.3125 C 78.813787 15.189584 80.216774 16.768464 80.96875 17.5625 L 80.9375 18.96875 C 79.594492 18.064366 77.80698 17.509098 76.1875 17.09375 L 76.15625 15.375 C 76.339771 15.340626 76.513457 15.322561 76.6875 15.3125 z M 37.4375 17.625 L 42.34375 20 L 42.5 25.03125 C 41.013795 24.727196 39.597682 24.598373 37.71875 23.3125 L 37.4375 17.625 z M 66.125 20.75 C 71.933562 20.619809 83.493818 22.779057 86.625 29.625 C 86.672812 30.40791 86.121014 30.682882 85.65625 31.1875 L 83.5 26.8125 C 80.650816 28.457356 77.619412 29.531048 74.5 30.28125 C 74.487183 30.275284 73.077376 29.644355 72.5 29.375 L 75 27.46875 C 75.64495 27.848434 77.03125 28.65625 77.03125 28.65625 L 77.21875 28.09375 C 77.21875 28.09375 76.445987 27.753879 75.34375 27.21875 L 76.375 26.40625 L 76.1875 26.0625 L 74.9375 27 C 74.169609 26.619882 73.305585 26.184682 72.375 25.65625 C 72.686158 25.477067 73.006705 25.292913 73.3125 25.125 L 73 24.8125 C 72.635518 24.995156 72.26694 25.18048 71.90625 25.375 C 70.997444 24.792498 70.148588 24.158195 69.28125 23.59375 L 70.6875 22.8125 L 69.78125 22.875 L 68.90625 23.34375 C 68.14066 22.879636 67.332678 22.494119 66.40625 22.3125 L 66.09375 22.5 C 66.847806 22.861321 67.577008 23.257784 68.3125 23.65625 L 64.5625 25.625 C 63.376009 25.05794 62.375588 24.573225 61.9375 24.34375 L 61.84375 24.59375 C 62.204902 24.782925 63.358688 25.344545 64.21875 25.78125 L 59.46875 28.28125 C 57.755692 27.583749 56.290886 26.991895 55.8125 26.8125 L 55.625 27.1875 C 55.913315 27.295618 57.72823 28.098619 58.875 28.59375 L 55.375 30.4375 L 53.1875 29.375 L 52.9375 29.65625 L 54.96875 30.65625 L 54 31.15625 L 54.71875 31.53125 L 55.6875 31 L 60.03125 33.125 C 59.607988 33.405571 59.167618 33.704215 58.75 33.96875 L 58.6875 34.34375 C 59.251265 34.015411 59.822948 33.674453 60.40625 33.3125 L 64.03125 35.09375 L 63.1875 35.71875 L 63.65625 36.125 L 64.625 35.375 L 65.59375 35.84375 L 65.8125 35.5 L 65.4375 39.28125 C 62.531654 39.263573 60.584812 39.477731 57.40625 38.25 L 56.78125 32.09375 C 52.750814 31.358901 49.035202 29.898206 47.09375 28.65625 C 51.465392 24.245152 58.065248 21.950268 64.03125 20.9375 C 64.585046 20.83199 65.295205 20.768599 66.125 20.75 z M 68.75 23.875 C 69.725187 24.411547 70.690641 24.978947 71.65625 25.53125 C 70.566533 26.12826 69.493351 26.765483 68.4375 27.4375 C 67.283401 26.894434 66.124353 26.365782 65.09375 25.875 L 68.75 23.875 z M 37.5 24.3125 L 42.5 26.09375 L 42.78125 26.75 L 38.0625 28.40625 L 37.25 31.34375 C 36.98848 29.581807 36.907042 26.080545 37.5 24.3125 z M 94.4375 24.34375 L 94.46875 30.5 L 87.53125 29.4375 L 87.75 24.8125 L 94.4375 24.34375 z M 72.15625 25.8125 C 73.421906 26.540982 73.737361 26.728527 74.625 27.25 L 72.0625 29.15625 C 71.034058 28.676162 70.611725 28.461402 69.03125 27.71875 C 70.090116 27.042204 71.134589 26.406943 72.15625 25.8125 z M 64.75 26.0625 C 66.044771 26.718546 66.517111 26.956359 68.03125 27.71875 C 66.743962 28.549367 65.488838 29.391685 64.25 30.25 C 63.775774 30.050243 63.494096 29.963494 62.9375 29.71875 C 61.960728 29.289248 61.075629 28.941474 60.15625 28.5625 L 64.75 26.0625 z M 44.21875 27.28125 C 46.074563 29.53571 49.331388 31.333883 54.875 32.5 L 50.78125 35.4375 C 46.78564 34.114939 42.113583 34.424566 39.03125 29.125 L 44.21875 27.28125 z M 83.3125 27.53125 L 85.46875 32.96875 C 79.719208 34.601264 74.272625 36.903376 68.1875 36.71875 L 66.90625 32.0625 C 71.876586 31.603254 77.751734 30.456322 83.3125 27.53125 z M 68.59375 28 C 69.932757 28.673833 70.70525 29.069467 71.5625 29.5 L 69.15625 31.28125 C 68.542688 31.368147 67.929048 31.426007 67.3125 31.5 C 66.873232 31.337976 66.027433 30.998185 64.75 30.46875 C 66.026742 29.62521 67.321347 28.819255 68.59375 28 z M 59.5625 28.875 C 60.782227 29.404204 61.330912 29.639745 62.71875 30.25 C 63.090646 30.413529 63.364329 30.521458 63.6875 30.65625 C 62.588911 31.419076 61.499526 32.131921 60.4375 32.84375 L 56.09375 30.78125 L 59.5625 28.875 z M 72 29.71875 C 72.389424 29.914288 73.439627 30.438341 73.5625 30.5 C 72.446203 30.744458 71.321954 30.947633 70.1875 31.125 L 72 29.71875 z M 38.25 29.96875 C 41.045552 33.748106 46.01939 34.777514 50.21875 36.3125 L 50.375 42.625 C 53.968396 43.771603 55.957699 44.639926 67.75 44.9375 L 68.3125 37.75 C 74.768853 37.902398 80.389505 35.372639 86.15625 33.78125 L 86.875 40.78125 C 90.166294 38.64644 93.14967 36.798488 94.84375 33.21875 C 95.211477 37.70073 94.739859 42.300483 94.375 46.9375 C 88.414578 56.578982 75.992592 58.396101 65.65625 58.53125 C 55.553283 58.01046 43.051844 56.099075 36.78125 47.09375 C 36.33354 41.476754 35.452809 35.791667 36.59375 31.65625 L 37.4375 33.6875 L 38.25 29.96875 z M 87.5625 30.1875 L 94.625 31.3125 C 94.056089 35.158368 90.414027 37.695717 87.46875 39.8125 L 86.78125 33.5625 L 86.125 32.09375 C 87.011895 31.708902 87.242062 31.015298 87.5625 30.1875 z M 64.1875 30.84375 C 65.171525 31.242637 65.791725 31.497015 66.28125 31.65625 C 66.239951 31.660809 66.197557 31.651732 66.15625 31.65625 L 65.96875 33.625 L 64.4375 34.78125 L 60.8125 33.03125 C 61.913124 32.340615 63.048626 31.594525 64.1875 30.84375 z M 66.625 32.59375 L 67.71875 37.34375 L 67.21875 43.53125 L 66.125 39.5 L 66.625 32.59375 z M 56.1875 32.8125 L 56.6875 38.34375 L 51.21875 41.625 L 51.21875 36.34375 L 56.1875 32.8125 z M 65.90625 34.40625 L 65.8125 35.40625 L 65.0625 35.0625 L 65.90625 34.40625 z M 57.15625 38.90625 C 60.514991 40.183605 62.658209 40.253627 65.59375 40.28125 L 66.28125 44 C 61.244354 44.218592 55.849893 44.081019 51.25 42.21875 L 57.15625 38.90625 z M 90.28125 53.0625 C 92.532045 71.174592 94.556275 89.409664 95.65625 107.6875 C 95.273393 108.1552 94.859603 108.58923 94.4375 109.03125 L 93.90625 106.78125 C 93.306971 107.32867 92.69303 107.78463 92.09375 108.21875 L 91.15625 106 L 88.40625 107.53125 L 85.5 97.53125 C 83.04849 95.237809 80.503433 93.901344 77.875 92.84375 L 77.8125 88.5 L 74.875 88.4375 L 74.3125 85.3125 L 68.75 86.6875 L 69.75 89.8125 L 67.15625 91.09375 L 69.1875 93.78125 C 67.105253 95.772137 65.355055 98.06073 63.75 100.5 C 62.97879 104.68015 62.640372 108.91076 62.40625 113.15625 L 58.75 112.25 L 58.53125 115.25 C 57.395852 115.00138 56.244753 114.686 55.09375 114.34375 L 54.6875 117.84375 C 47.327854 115.49275 40.917194 110.987 38.46875 106.8125 C 39.221443 88.72749 40.342651 70.888156 42.09375 53.46875 C 49.195973 57.560364 57.509502 58.605974 65.5625 58.96875 C 74.114476 59.021384 83.022509 57.87398 90.28125 53.0625 z M 83.65625 66.0625 C 81.927176 67.7836 81.211581 70.435884 80.84375 72.875 L 81.8125 81.78125 L 79.5625 82.84375 L 80.34375 86.5625 C 81.895588 86.417591 83.257341 85.821014 84.53125 85.0625 L 85.3125 87.625 C 85.261935 88.188812 90.015702 86.610966 92.1875 84.4375 L 91.34375 81.46875 L 93.125 79.84375 L 92.0625 75.25 L 90.0625 76.5 L 88.9375 67.34375 C 87.31596 66.289798 85.546848 66.060954 83.65625 66.0625 z M 52.09375 66.90625 C 50.366115 67.939595 49.472229 66.332732 46.84375 70.21875 L 46.5 78.40625 C 45.765044 78.096518 45.025669 77.768329 44.3125 77.40625 L 43.875 81.9375 C 44.795062 82.658495 44.593991 83.103938 46.875 83.84375 L 46.625 86.71875 C 48.831967 87.782616 51.355943 88.529473 54.3125 88.84375 L 54.25 85.75 C 55.718071 86.079022 57.207855 86.31681 58.75 86.3125 L 59.15625 82.4375 C 58.363393 82.338606 57.578713 82.207971 56.8125 82.0625 L 56.6875 72.09375 C 55.93835 69.692018 54.156294 68.195315 52.09375 66.90625 z M 85.65625 67.03125 C 86.840835 67.045226 86.95745 67.481024 88.03125 68.03125 L 89.46875 76.65625 C 88.667955 77.47394 87.85269 78.272336 86.5625 78.4375 L 85.65625 67.03125 z M 50.78125 67.9375 C 51.411205 71.822917 51.105201 75.708333 50.9375 79.59375 C 49.564055 79.746113 48.552608 78.993479 47.5 78.34375 L 47.84375 70.46875 C 48.727842 69.43485 49.432427 68.041937 50.78125 67.9375 z M 82.9375 68.34375 L 85.65625 79 C 84.706073 80.342863 83.505237 80.432433 82.40625 81.03125 L 81.84375 72.875 L 81.84375 72.84375 C 81.83249 70.922019 81.964322 69.959949 82.9375 68.34375 z M 52.96875 68.5 C 54.421619 69.378361 54.981198 70.447789 55.6875 72.21875 L 55.8125 81.375 C 54.27933 81.358007 53.120325 80.592683 51.90625 79.9375 C 52.067741 76.04793 52.019356 72.074409 52.96875 68.5 z M 91.875 75.71875 L 92.5625 79.625 C 92.059364 80.364296 91.562338 81.059778 90.78125 81.28125 C 90.050667 81.488402 89.234544 81.63256 88.40625 81.90625 L 87.40625 79.34375 C 88.404552 78.684839 89.300268 77.908857 90.03125 76.90625 L 91.875 75.71875 z M 44.78125 78 C 46.328675 78.749101 48.524791 80.246641 50.3125 80.5 C 50.407893 80.5362 50.497941 80.590049 50.59375 80.625 L 50.125 83.96875 C 48.367391 83.41017 45.979018 83.145491 44.34375 81.96875 L 44.78125 78 z M 86.9375 79.65625 L 87.8125 82.03125 C 85.688419 83.442444 83.186764 85.695715 80.65625 86.15625 L 79.90625 83.125 C 82.034227 81.986961 84.262876 81.539638 86.40625 79.96875 C 86.589208 79.867634 86.759493 79.763731 86.9375 79.65625 z M 51.15625 80.84375 C 51.606956 80.995598 52.072113 81.123447 52.53125 81.25 C 54.472225 82.129171 56.743651 82.55816 58.59375 82.84375 L 58.25 85.625 C 55.949773 85.524663 52.893556 84.725672 50.59375 84.09375 L 51.15625 80.84375 z M 90.90625 81.875 L 91.25 83.875 C 90.608989 85.309853 88.220377 86.93056 85.59375 87.25 L 84.90625 84.8125 C 86.037131 84.101129 87.115825 83.297021 88.21875 82.53125 L 88.28125 82.5 L 88.28125 82.53125 C 89.048585 82.240435 89.964368 82.142064 90.90625 81.875 z M 47.3125 83.96875 C 48.065585 84.195823 49.004649 84.453009 50.3125 84.75 C 51.469755 85.044293 52.619728 85.349905 53.78125 85.625 L 53.9375 88.375 C 51.946407 88.061564 48.929835 87.315923 47.0625 86.46875 L 47.3125 83.96875 z M 73.84375 85.9375 L 74.5 88.6875 L 74.5 88.875 L 74.5625 88.875 L 75.28125 91.875 C 74.425041 91.574264 73.559311 91.276836 72.6875 90.96875 C 72.236698 91.260295 71.797855 91.58791 71.375 91.90625 L 69.5 87.09375 L 73.84375 85.9375 z M 74.96875 88.90625 L 77.28125 88.96875 L 77.40625 92.65625 C 76.786341 92.41522 76.160018 92.191172 75.53125 91.96875 L 74.96875 88.90625 z M 69.9375 90.3125 L 70.625 92.46875 C 70.223583 92.796983 69.846737 93.149395 69.46875 93.5 L 67.75 91.25 L 69.9375 90.3125 z M 72.90625 91.5625 C 72.937816 91.556689 72.968595 91.567025 73 91.5625 C 79.288371 93.094256 81.5643 95.716024 85.1875 97.96875 C 86.724504 102.95055 88.326784 108.11151 89.0625 113.40625 C 88.518697 113.75221 87.976486 114.08709 87.40625 114.40625 L 83.4375 99.15625 C 80.911078 96.05635 77.307741 94.7443 73.65625 93.46875 C 70.285475 95.368896 68.297928 97.93739 66.9375 101.5 L 65.5 119.46875 C 64.698974 119.49598 63.902256 119.48195 63.09375 119.4375 C 62.896405 113.14486 63.033977 106.97964 64.125 100.75 C 66.384004 97.01841 69.669725 93.786832 72.84375 91.59375 C 72.866096 91.588975 72.883946 91.566606 72.90625 91.5625 z M 73.78125 94.59375 C 74.670157 94.964211 75.566837 95.185382 76.4375 95.40625 L 76.6875 98.0625 C 75.778793 98.14491 74.873929 98.26093 73.96875 98.375 L 73.6875 94.71875 L 73.59375 94.71875 C 73.656309 94.675498 73.718528 94.637436 73.78125 94.59375 z M 72.71875 95.34375 L 72.96875 98.46875 C 71.728158 98.61695 70.423844 98.78745 69.90625 98.84375 L 69.875 97.8125 C 70.713731 96.79421 71.691547 96.05972 72.71875 95.34375 z M 77.46875 95.6875 C 77.777631 95.774294 78.077376 95.862333 78.375 95.96875 C 79.246788 96.28046 80.071467 96.70649 80.84375 97.40625 C 79.812322 97.64236 78.811752 97.866 77.6875 97.9375 L 77.46875 95.6875 z M 81.40625 98 C 81.781823 98.42798 82.148763 98.91556 82.5 99.53125 L 83.03125 101.53125 L 81.8125 101.65625 C 81.790269 101.46057 81.771061 101.18631 81.75 101 C 81.642422 100.04835 81.531194 99.22299 81.46875 98.59375 C 81.437464 98.27848 81.421882 98.20474 81.40625 98 z M 80.46875 98.59375 C 80.473006 98.63764 80.464148 98.64112 80.46875 98.6875 C 80.531984 99.3247 80.642131 100.17078 80.75 101.125 C 80.771215 101.31267 80.790128 101.58487 80.8125 101.78125 L 78.09375 102.09375 L 77.78125 98.9375 C 78.920008 98.7979 80.140162 98.63479 80.46875 98.59375 z M 76.78125 99.03125 L 77.09375 102.21875 L 74.25 102.5625 L 74.03125 99.375 C 74.949171 99.2701 75.865324 99.15177 76.78125 99.03125 z M 68.9375 99.21875 L 69.0625 103.15625 L 67.75 103.3125 L 67.90625 101.75 C 68.179797 100.75182 68.54214 99.93413 68.9375 99.21875 z M 73.03125 99.5 L 73.25 102.65625 L 70.0625 103.03125 L 69.9375 99.84375 C 70.482533 99.78629 71.802673 99.64573 73.03125 99.5 z M 83.28125 102.5 L 84.15625 105.90625 L 82.375 106.28125 C 82.222477 105.00023 82.069455 103.80821 81.9375 102.65625 L 83.28125 102.5 z M 80.9375 102.78125 C 81.072414 103.95251 81.218942 105.16506 81.375 106.46875 L 78.5625 107.03125 L 78.1875 103.09375 L 80.9375 102.78125 z M 77.1875 103.21875 L 77.5625 107.21875 L 74.65625 107.78125 L 74.34375 103.5625 L 77.1875 103.21875 z M 73.34375 103.6875 L 73.65625 107.96875 L 70.28125 108.625 L 70.125 104.0625 L 73.34375 103.6875 z M 69.125 104.1875 L 69.28125 108.84375 L 67.21875 109.25 L 67.6875 104.34375 L 69.125 104.1875 z M 90.5 106.8125 L 91.25 108.8125 C 90.552471 109.28103 89.853779 109.70837 89.15625 110.15625 L 88.5 107.84375 L 88.53125 107.875 L 90.5 106.8125 z M 84.40625 106.90625 L 85.5 111 L 83 111.5 C 82.826835 110.0933 82.652703 108.68625 82.46875 107.28125 L 84.40625 106.90625 z M 93.59375 107.40625 L 94.125 109.375 C 92.875377 110.63586 91.465367 111.80227 89.9375 112.84375 L 89.28125 110.53125 C 90.755484 109.664 92.230079 108.82632 93.59375 107.40625 z M 81.5 107.46875 C 81.655107 108.87744 81.850019 110.2819 82.03125 111.6875 L 79.0625 112.28125 L 78.65625 108.03125 L 81.5 107.46875 z M 77.65625 108.21875 L 78.0625 112.46875 L 75.03125 113.0625 L 74.71875 108.78125 L 77.65625 108.21875 z M 73.71875 108.96875 L 74.03125 113.28125 L 70.46875 114 L 70.3125 109.625 L 73.71875 108.96875 z M 69.3125 109.84375 L 69.5 114.1875 L 66.6875 114.75 L 67.25 110.40625 L 69.3125 109.84375 z M 85.75 111.96875 L 86.25 113.84375 C 85.334061 114.13093 84.383195 114.41725 83.40625 114.6875 C 83.347202 114.22208 83.224922 113.2947 83.125 112.5 L 85.75 111.96875 z M 82.15625 112.6875 C 82.258749 113.5062 82.380036 114.5134 82.4375 114.96875 C 81.455008 115.23063 80.42595 115.47333 79.40625 115.71875 L 79.15625 113.28125 L 82.15625 112.6875 z M 59.1875 112.875 L 62.375 113.65625 C 62.337238 114.36528 62.283961 115.07224 62.25 115.78125 C 61.179279 115.72547 60.098611 115.56687 59 115.34375 L 59.1875 112.875 z M 78.15625 113.5 L 78.40625 115.9375 C 77.378196 116.17757 76.355473 116.40128 75.3125 116.625 L 75.125 114.09375 L 78.15625 113.5 z M 74.125 114.3125 L 74.3125 116.84375 C 73.074193 117.10286 71.850848 117.35747 70.625 117.59375 L 70.53125 115.03125 L 74.125 114.3125 z M 55.46875 114.875 C 57.72627 115.63802 59.992479 116.05591 62.25 116.375 C 62.203439 117.36219 62.141504 118.358 62.09375 119.34375 C 59.792003 119.13855 57.477236 118.67385 55.25 118 L 55.46875 114.875 z M 69.53125 115.21875 L 69.625 117.78125 C 68.55254 117.98385 67.4738 118.18999 66.4375 118.375 C 66.403738 118.38103 66.375141 118.39594 66.34375 118.40625 L 66.5 115.875 L 69.53125 115.21875 z "
       id="path2312" />
  </g>
</svg>
