<?xml version="1.0" encoding="UTF-8" standalone="no"?>
<!-- Created with Inkscape (http://www.inkscape.org/) -->
<svg
   xmlns:dc="http://purl.org/dc/elements/1.1/"
   xmlns:cc="http://creativecommons.org/ns#"
   xmlns:rdf="http://www.w3.org/1999/02/22-rdf-syntax-ns#"
   xmlns:svg="http://www.w3.org/2000/svg"
   xmlns="http://www.w3.org/2000/svg"
   xmlns:xlink="http://www.w3.org/1999/xlink"
   xmlns:sodipodi="http://sodipodi.sourceforge.net/DTD/sodipodi-0.dtd"
   xmlns:inkscape="http://www.inkscape.org/namespaces/inkscape"
   width="128"
   height="128"
   id="svg2"
   sodipodi:version="0.32"
   inkscape:version="0.45+devel"
   version="1.0"
   sodipodi:docname="townhall_outline.svg"
   inkscape:output_extension="org.inkscape.output.svg.inkscape">
  <defs
     id="defs4">
    <filter
       height="1.42432"
       y="-0.21216"
       width="1.2179726"
       x="-0.1089863"
       id="filter2892"
       inkscape:collect="always">
      <feGaussianBlur
         id="feGaussianBlur2894"
         stdDeviation="0.72146876"
         inkscape:collect="always" />
    </filter>
    <radialGradient
       r="8.2519293"
       fy="222.04396"
       fx="14.207293"
       cy="222.04396"
       cx="14.207293"
       gradientTransform="scale(1.39523,0.716728)"
       gradientUnits="userSpaceOnUse"
       id="radialGradient1968"
       xlink:href="#linearGradient2057"
       inkscape:collect="always" />
    <linearGradient
       inkscape:collect="always"
       id="linearGradient2057">
      <stop
         style="stop-color:#000000;stop-opacity:1;"
         offset="0"
         id="stop2059" />
      <stop
         style="stop-color:#000000;stop-opacity:0;"
         offset="1"
         id="stop2061" />
    </linearGradient>
  </defs>
  <sodipodi:namedview
     id="base"
     pagecolor="#ffffff"
     bordercolor="#666666"
     borderopacity="1.0"
     gridtolerance="10000"
     guidetolerance="10"
     objecttolerance="10"
     inkscape:pageopacity="0.0"
     inkscape:pageshadow="2"
     inkscape:zoom="1"
     inkscape:cx="64.640625"
     inkscape:cy="101.67339"
     inkscape:document-units="px"
     inkscape:current-layer="layer1"
     showgrid="false"
     width="744.09px"
     inkscape:window-width="1240"
     inkscape:window-height="975"
     inkscape:window-x="434"
     inkscape:window-y="24"
     showguides="true"
     inkscape:guide-bbox="true" />
  <metadata
     id="metadata7">
    <rdf:RDF>
      <cc:Work
         rdf:about="">
        <dc:format>image/svg+xml</dc:format>
        <dc:type
           rdf:resource="http://purl.org/dc/dcmitype/StillImage" />
      </cc:Work>
    </rdf:RDF>
  </metadata>
  <g
     inkscape:label="Layer 1"
     inkscape:groupmode="layer"
     id="layer1">
    <path
       style="fill:#5c2700;fill-opacity:1;fill-rule:evenodd;stroke:none;stroke-width:1px;stroke-linecap:butt;stroke-linejoin:miter;stroke-opacity:1"
       d="M 48.4375 13.125 L 29.40625 24.21875 L 28.9375 44.125 L 12.59375 54.53125 L 12.625 79.6875 L 4.4375 82.5 L 4.5 88.625 L 60.15625 125.9375 L 124.8125 103.15625 L 124.84375 96.90625 L 114.53125 89.6875 C 114.47475 89.336199 114.29634 88.9959 114.0625 88.78125 L 109.28125 85.09375 L 109.28125 79.71875 L 109.28125 79.6875 L 109.25 61.9375 L 91 49 L 90.21875 33.09375 L 71.0625 20.125 L 71.0625 19.90625 C 74.600191 20.858587 78.083333 20.7435 81.625 20.375 C 80.628937 19.697548 79.320134 19.527755 78.03125 18.3125 C 80.369979 18.198941 82.016908 16.477631 83.46875 15.625 C 79.334878 16.216713 75.255686 17.405116 71.0625 15.625 L 71.0625 14.5 C 70.8125 13.999999 70.791667 14.125001 70.375 14.625 L 70.34375 19.65625 L 60.6875 13.125 L 48.4375 13.125 z M 49.46875 13.5 L 60.46875 13.59375 L 64 15.96875 L 53.53125 16.0625 L 49.46875 13.5 z M 48.40625 13.65625 L 52.5 16.25 L 34.875 27.375 L 30.25 24.34375 L 48.40625 13.65625 z M 53.6875 16.15625 L 64.28125 16.15625 L 68.71875 19.125 L 58.03125 18.875 L 53.6875 16.15625 z M 71.0625 16.1875 C 73.853396 17.077874 78.651483 17.53927 82 16.25 C 81.452497 17.227279 78.456763 17.915418 77.3125 17.90625 C 77.775774 18.634127 79.152363 19.631478 80.46875 20.0625 C 77.67627 20.740823 74.074403 20.130683 71.0625 19.53125 L 71.0625 16.1875 z M 52.78125 16.40625 L 56.90625 19 L 40.4375 31 L 35.03125 27.46875 L 52.78125 16.40625 z M 58.21875 19.03125 L 68.96875 19.3125 L 70.34375 20.25 L 70.34375 22.21875 L 62.6875 21.84375 L 58.21875 19.03125 z M 57.15625 19.15625 L 61.8125 22.09375 L 46.3125 34.8125 L 40.59375 31.09375 L 57.15625 19.15625 z M 71.0625 20.71875 L 73.5 22.375 L 71.0625 22.25 L 71.0625 20.71875 z M 62.84375 21.9375 L 70.34375 22.375 L 70.3125 25.375 L 67.65625 24.96875 L 62.84375 21.9375 z M 62.0625 22.25 L 66.71875 25.1875 L 53.1875 39.3125 L 46.46875 34.90625 L 62.0625 22.25 z M 71.0625 22.4375 L 73.8125 22.59375 L 80.09375 26.8125 L 71.0625 25.46875 L 71.0625 22.4375 z M 30.03125 24.90625 L 37.625 29.9375 L 37.625 31.5625 L 34.25 29.3125 L 34.25 30.9375 L 29.96875 28.09375 L 30.03125 24.90625 z M 67.84375 25.09375 L 70.3125 25.46875 L 70.3125 26.65625 L 67.84375 25.09375 z M 66.96875 25.34375 L 70.3125 27.4375 L 59 43.09375 L 53.3125 39.375 L 66.96875 25.34375 z M 71.0625 25.59375 L 80.40625 27 L 87.0625 31.5 L 71.125 27.15625 L 71.0625 27.125 L 71.0625 25.59375 z M 70.75 27.59375 L 70.875 27.625 L 77.53125 37.125 L 69.21875 39.96875 L 65.65625 34.84375 L 70.75 27.59375 z M 71.28125 27.75 L 81.28125 30.59375 L 84.625 34.71875 L 77.6875 37.09375 L 71.28125 27.75 z M 29.96875 28.375 L 33.5 30.6875 L 33.5 33.6875 L 29.90625 31.3125 L 29.96875 28.375 z M 37.8125 30.0625 L 50.5625 38.53125 L 50.5625 40.125 L 46.0625 37.125 L 46.0625 38.6875 L 40.75 35.21875 L 40.75 33.625 L 37.78125 31.65625 L 37.8125 30.0625 z M 34.78125 30.15625 L 40.25 33.8125 L 40.34375 48.4375 L 34.59375 44.53125 L 34.78125 30.15625 z M 81.75 30.71875 L 89.71875 33 L 84.78125 34.6875 L 81.75 30.71875 z M 33.6875 30.8125 L 34.25 31.1875 L 34.21875 34.15625 L 33.65625 33.78125 L 33.6875 30.8125 z M 29.90625 31.53125 L 33.5 33.90625 L 33.5 33.9375 L 33.59375 33.96875 L 34.21875 34.375 L 34.1875 37.21875 L 29.875 34.40625 L 29.90625 31.53125 z M 35.5 32 L 35.5 44.0625 L 39.375 46.84375 L 39.25 34.53125 L 35.5 32 z M 35.8125 32.5625 L 38.9375 34.75 L 39.0625 46.3125 L 35.8125 43.90625 L 35.8125 32.5625 z M 89.75 33.6875 C 89.81432 34.822502 89.854059 35.985919 89.875 37.0625 L 86.1875 38.28125 L 86.1875 36.21875 L 85.25 36.53125 L 85.25 35.21875 L 89.75 33.6875 z M 29.84375 34.65625 L 33.25 36.875 L 33.25 39.3125 L 29.8125 37.0625 L 29.84375 34.65625 z M 65.46875 35.0625 L 69.0625 40.03125 L 59.75 43.1875 L 65.46875 35.0625 z M 85.0625 35.28125 L 85.09375 36.59375 L 79.6875 38.46875 L 79.65625 40.40625 L 74.09375 42.25 L 74.125 39.03125 L 85.0625 35.28125 z M 40.75 35.5 L 42.96875 36.96875 L 42.96875 39.9375 L 40.75 38.46875 L 40.75 35.5 z M 85.625 36.9375 L 85.625 51.5625 L 80.03125 53.25 L 80.25 38.96875 L 85.625 36.9375 z M 33.4375 36.96875 L 34.1875 37.46875 L 34.15625 39.90625 L 33.40625 39.40625 L 33.4375 36.96875 z M 43.15625 37.09375 L 46.0625 39 L 46.03125 41.9375 L 43.125 40.03125 L 43.15625 37.09375 z M 89.90625 37.25 L 90.0625 40.4375 L 86.1875 41.6875 L 86.1875 38.46875 C 87.42397 38.056093 88.668542 37.649456 89.90625 37.25 z M 29.8125 37.3125 L 34.15625 40.15625 L 34.15625 42.5 L 29.78125 39.65625 L 29.8125 37.3125 z M 46.59375 37.96875 L 52.0625 41.625 L 52.15625 56.25 L 46.40625 52.34375 L 46.59375 37.96875 z M 50.75 38.65625 L 58.65625 43.90625 L 58.625 47 L 52.5625 43 L 52.5625 41.4375 L 50.71875 40.21875 L 50.75 38.65625 z M 84.6875 38.65625 L 80.9375 39.9375 L 80.9375 51.8125 L 84.8125 50.65625 L 84.6875 38.65625 z M 40.75 38.71875 L 42.96875 40.1875 L 42.96875 40.21875 L 46.03125 42.21875 L 46 44.96875 L 40.75 41.53125 L 40.75 38.71875 z M 73.9375 39.125 L 73.9375 42.3125 L 70.46875 43.46875 L 70.46875 41.25 L 63.96875 43.5 L 63.9375 45.625 L 63.28125 45.84375 L 63.3125 42.75 L 73.9375 39.125 z M 84.25 39.3125 L 84.53125 50.34375 L 81.28125 51.34375 L 81.21875 40.125 L 84.25 39.3125 z M 47.3125 39.8125 L 47.3125 51.875 L 51.1875 54.65625 L 51.0625 42.34375 L 47.3125 39.8125 z M 29.78125 39.875 L 33.25 42.15625 L 33.25 45.25 L 29.71875 42.9375 L 29.78125 39.875 z M 47.625 40.375 L 50.75 42.5625 L 50.875 54.125 L 47.625 51.71875 L 47.625 40.375 z M 79.65625 40.625 L 79.65625 43.8125 L 70.46875 46.78125 L 70.46875 43.65625 L 79.65625 40.625 z M 90.0625 40.625 L 90.1875 43.21875 L 86.1875 44.5 L 86.1875 41.90625 L 90.0625 40.625 z M 40.75 41.78125 L 43.0625 43.3125 L 42.96875 43.3125 L 42.96875 45.65625 L 40.75 44.21875 L 40.75 41.78125 z M 69.90625 41.96875 L 69.90625 56.59375 L 64.3125 58.28125 L 64.5 44 L 69.90625 41.96875 z M 33.4375 42.28125 L 34.15625 42.75 L 34.125 44.8125 L 40.75 49.40625 L 40.75 47.09375 L 42.96875 48.53125 L 42.96875 51.65625 L 33.40625 45.375 L 33.4375 42.28125 z M 63.125 42.8125 L 63.125 45.84375 L 63.21875 45.875 L 59.1875 47.1875 L 59.21875 44.15625 L 63.125 42.8125 z M 29.71875 43.1875 L 37.3125 48.21875 L 37.3125 49.625 L 29.6875 44.3125 L 29.71875 43.1875 z M 52.5625 43.3125 L 54.75 44.75 L 54.75 47.71875 L 52.5625 46.28125 L 52.5625 43.3125 z M 43.15625 43.375 L 46 45.25 L 45.96875 47.625 L 43.125 45.78125 L 43.15625 43.375 z M 90.1875 43.40625 L 90.34375 46.15625 L 86.1875 47.53125 L 86.1875 44.71875 L 90.1875 43.40625 z M 68.96875 43.6875 L 65.21875 44.96875 L 65.21875 56.84375 L 69.09375 55.6875 L 68.96875 43.6875 z M 79.65625 44 L 79.625 46.625 L 74.09375 48.40625 L 74.125 45.78125 L 79.65625 44 z M 68.53125 44.34375 L 68.78125 55.375 L 65.53125 56.40625 L 65.5 45.1875 L 68.53125 44.34375 z M 40.75 44.5 L 42.96875 45.9375 L 42.96875 46 L 43.0625 46 L 45.96875 47.90625 L 45.96875 50.21875 L 40.75 46.84375 L 40.75 44.5 z M 29.25 44.78125 L 32.3125 46.90625 L 17.96875 57.1875 L 13.90625 54.5625 L 29.25 44.78125 z M 54.9375 44.875 L 58.625 47.3125 L 58.59375 50.25 L 54.90625 47.8125 L 54.9375 44.875 z M 63.9375 45.78125 L 63.9375 48.875 L 59.15625 50.4375 L 59.1875 47.375 L 63.9375 45.78125 z M 73.9375 45.84375 L 73.9375 48.46875 L 70.46875 49.59375 L 70.46875 46.96875 L 73.9375 45.84375 z M 90.34375 46.375 L 90.4375 48.65625 L 86.1875 50.0625 L 86.1875 47.71875 L 90.34375 46.375 z M 52.5625 46.5625 L 58.5625 50.53125 L 58.53125 53.15625 L 52.5625 49.25 L 52.5625 46.5625 z M 79.625 46.84375 L 79.59375 49.6875 L 70.46875 52.65625 L 70.46875 49.78125 L 79.625 46.84375 z M 32.5625 47.09375 L 37.03125 50.21875 L 22.84375 60.3125 L 18.125 57.28125 L 32.5625 47.09375 z M 37.5 48.34375 L 50.5 56.9375 L 50.5 58.84375 L 37.46875 49.75 L 37.5 48.34375 z M 43.15625 48.65625 L 45.96875 50.5 L 45.9375 52.625 L 52.5625 57.21875 L 52.5625 54.84375 L 54.8125 56.3125 L 54.8125 59.5 L 43.125 51.78125 L 43.15625 48.65625 z M 90.46875 48.84375 L 90.59375 51.78125 L 83.96875 53.9375 L 80.59375 54.3125 L 80.625 53.625 L 86.1875 51.84375 L 86.1875 50.25 L 90.46875 48.84375 z M 63.9375 49.0625 L 63.90625 51.71875 L 63.3125 51.90625 L 63.3125 49.25 L 63.9375 49.0625 z M 63.125 49.3125 L 63.15625 51.96875 L 59.125 53.28125 L 59.15625 50.625 L 63.125 49.3125 z M 52.5625 49.53125 L 54.75 50.96875 L 54.75 53.375 L 52.5625 51.9375 L 52.5625 49.53125 z M 79.59375 49.875 L 79.5625 52.21875 L 73.96875 54.03125 L 74 51.6875 L 79.59375 49.875 z M 91.03125 50.28125 L 92.71875 51.4375 L 91.0625 51.25 L 91.03125 50.28125 z M 37.28125 50.375 L 41.46875 53.28125 L 27.46875 63.28125 L 23 60.40625 L 37.28125 50.375 z M 54.9375 51.09375 L 58.53125 53.46875 L 58.5 55.84375 L 54.90625 53.46875 L 54.9375 51.09375 z M 91.09375 51.53125 L 93.09375 51.71875 L 100.25 56.65625 L 78.28125 55.84375 L 77.15625 55.0625 L 91.15625 53.46875 L 91.09375 51.53125 z M 73.8125 51.75 L 73.8125 54.09375 L 70.46875 55.1875 L 70.46875 52.84375 L 73.8125 51.75 z M 63.90625 51.84375 L 63.84375 57.40625 L 59.03125 58.96875 L 59.15625 53.40625 L 63.90625 51.84375 z M 90.59375 52 L 90.65625 53.1875 L 84.90625 53.84375 L 90.59375 52 z M 52.5625 52.21875 L 58.5 56.125 L 58.46875 58.40625 L 52.5625 54.5625 L 52.5625 52.21875 z M 79.5625 52.40625 L 79.5625 53.96875 L 80.4375 53.6875 L 80.4375 54.34375 L 76.125 54.8125 L 69.28125 58.71875 L 69.28125 57.25 L 70.46875 56.875 L 70.46875 55.375 L 79.5625 52.40625 z M 41.6875 53.46875 L 46.21875 56.625 L 32.40625 66.46875 L 27.625 63.40625 L 41.6875 53.46875 z M 13.3125 55.1875 L 18.375 58.46875 L 18.375 61.34375 L 13.34375 58.0625 L 13.3125 58.0625 L 13.3125 55.1875 z M 76.09375 55.34375 L 77.375 56.21875 L 48.34375 76.71875 L 43.03125 73.3125 L 56.53125 63.8125 L 58.6875 65.3125 L 76.09375 55.34375 z M 78.6875 56.15625 L 100.46875 56.8125 L 107.03125 61.34375 L 82.03125 58.5 L 78.6875 56.15625 z M 77.59375 56.375 L 81.125 58.78125 L 53.75 80.21875 L 48.46875 76.8125 L 77.59375 56.375 z M 55 56.4375 L 58.46875 58.71875 L 58.4375 61.875 L 54.96875 59.59375 L 55 56.4375 z M 46.46875 56.78125 L 51.125 60.03125 L 37.53125 69.78125 L 32.5625 66.5625 L 46.46875 56.78125 z M 50.6875 57.0625 L 58.4375 62.1875 L 58.40625 64.34375 L 56.8125 63.25 L 51.90625 59.8125 L 51.875 59.78125 L 51.6875 59.625 L 51.65625 59.65625 L 50.65625 58.9375 L 50.6875 57.0625 z M 69.09375 57.3125 L 69.125 58.78125 L 59.0625 62.03125 L 59.09375 59.09375 L 63.84375 57.53125 L 63.84375 59 L 69.09375 57.3125 z M 13.3125 58.28125 L 23.0625 64.625 L 23.0625 67.9375 L 22.75 67.71875 L 22.75 65.25 L 16.25 60.9375 L 16.21875 63.5 L 13.3125 61.59375 L 13.3125 58.28125 z M 18.5625 58.59375 L 28.25 64.84375 L 28.25 67.75 L 18.53125 61.4375 L 18.5625 58.59375 z M 81.8125 58.90625 L 92.375 60.21875 L 96.65625 65.90625 L 88.5625 68.6875 L 81.8125 58.90625 z M 81.59375 59.0625 L 88.40625 68.71875 L 80.5625 71.4375 L 75.34375 64.0625 L 75.15625 64.25 L 80.40625 71.46875 L 71.125 74.65625 L 67.71875 70.09375 L 75.34375 64.0625 L 81.59375 59.0625 z M 68.5 59.15625 L 63.3125 62.125 L 63.3125 60.84375 L 68.5 59.15625 z M 51.34375 60.1875 L 56.28125 63.625 L 42.875 73.21875 L 37.65625 69.84375 L 51.34375 60.1875 z M 92.78125 60.25 L 102.03125 61.40625 L 103.6875 63.46875 L 96.8125 65.84375 L 92.78125 60.25 z M 63.125 60.90625 L 63.15625 62.21875 L 59.03125 64.5625 L 59.0625 62.21875 L 63.125 60.90625 z M 102.375 61.4375 L 107.71875 62.09375 L 103.875 63.40625 L 102.375 61.4375 z M 16.78125 61.78125 L 22.25 65.4375 L 22.34375 83.5625 L 18.53125 80.96875 L 18.5625 79.9375 L 21.375 81.96875 L 21.25 66.21875 L 17.5 63.6875 L 17.5 79.1875 L 18.375 79.8125 L 18.375 80.875 L 16.59375 79.65625 L 16.78125 61.78125 z M 13.3125 61.84375 L 13.5 61.96875 L 13.5 64.875 L 13.3125 64.75 L 13.3125 61.84375 z M 13.6875 62.09375 L 16.21875 63.75 L 16.21875 66.65625 L 13.65625 64.96875 L 13.6875 62.09375 z M 108.5 62.21875 L 108.53125 66 L 97.03125 69.90625 L 97.0625 66.25 L 108.5 62.21875 z M 17.8125 64.25 L 20.9375 66.4375 L 21.0625 81.4375 L 17.8125 79.03125 L 17.8125 64.25 z M 23.25 64.75 L 34.0625 71.78125 L 34.0625 72.5 L 28.5 68.8125 L 28.46875 71.46875 L 23.21875 68.03125 L 23.25 64.75 z M 28.4375 64.96875 L 39.5 72.125 L 39.5 75.0625 L 28.40625 67.84375 L 28.4375 64.96875 z M 13.3125 65 L 16.21875 66.90625 L 16.1875 70.3125 L 13.28125 68.4375 L 13.3125 65 z M 108.53125 66.1875 L 108.5625 69.34375 L 102.84375 71.28125 L 102.875 68.09375 L 108.53125 66.1875 z M 96.875 66.3125 L 96.875 69.9375 L 85.96875 73.65625 L 86 70.125 L 88.71875 69.1875 L 88.75 69.15625 L 96.875 66.3125 z M 22.75 68 L 28.3125 71.625 L 28.25 71.625 L 28.25 74.46875 L 22.71875 70.90625 L 22.75 68 z M 102.6875 68.15625 L 102.6875 71.34375 L 91.28125 75.21875 L 91.3125 72.03125 L 102.6875 68.15625 z M 13.28125 68.6875 L 13.5 68.84375 L 13.5 71.875 L 13.40625 71.8125 L 13.28125 71.84375 L 13.28125 68.6875 z M 13.6875 68.9375 L 16.1875 70.5625 L 16.15625 73.59375 L 13.65625 71.96875 L 13.6875 68.9375 z M 108.5625 69.5625 L 108.59375 72.65625 L 96.96875 76.59375 L 97 73.46875 L 108.5625 69.5625 z M 29.03125 69.65625 L 34.5 73.3125 L 34.59375 91.4375 L 28.84375 87.53125 L 29.03125 69.65625 z M 85.8125 70.1875 L 85.8125 73.71875 L 79.96875 75.6875 L 79.8125 75.6875 L 79.8125 75.75 L 74.28125 77.625 L 74.3125 74.25 L 85.8125 70.1875 z M 67.5 70.25 L 70.9375 74.71875 L 61.375 78.03125 L 59.96875 76.25 L 67.5 70.25 z M 22.71875 71.15625 L 23.0625 71.375 L 23.0625 74.78125 L 22.71875 74.5625 L 22.71875 71.15625 z M 23.25 71.5 L 28.46875 74.90625 L 28.4375 78.28125 L 23.21875 74.875 L 23.25 71.5 z M 29.75 71.5625 L 29.75 87.0625 L 33.625 89.84375 L 33.5 74.09375 L 29.75 71.5625 z M 28.4375 71.6875 L 28.46875 71.71875 L 28.46875 74.625 L 28.40625 74.59375 L 28.4375 71.6875 z M 34.25 71.90625 L 44.375 78.53125 L 44.375 79.125 L 41.25 77.0625 L 41.25 79.78125 L 35 75.6875 L 35 73.125 L 34.21875 72.625 L 34.25 71.90625 z M 13.28125 71.96875 L 16.15625 73.84375 L 16.15625 77.125 L 13.28125 75.28125 L 13.28125 71.96875 z M 91.125 72.09375 L 91.125 75.28125 L 79.96875 79.0625 L 80 75.875 L 91.125 72.09375 z M 30.0625 72.125 L 33.1875 74.3125 L 33.3125 89.3125 L 30.0625 86.90625 L 30.0625 72.125 z M 39.6875 72.25 L 49.8125 78.78125 L 49.8125 81.78125 L 39.65625 75.1875 L 39.6875 72.25 z M 108.59375 72.84375 L 108.625 76.3125 L 102.84375 78.28125 L 102.875 74.78125 L 108.59375 72.84375 z M 96.8125 73.53125 L 96.8125 76.65625 L 85.96875 80.3125 L 86 77.1875 L 96.8125 73.53125 z M 74.125 74.3125 L 74.125 77.6875 L 63.21875 81.375 L 63.25 78.125 L 71.375 75.28125 L 74.125 74.3125 z M 22.71875 74.8125 L 28.25 78.4375 L 28.25 81.46875 L 22.71875 77.875 L 22.71875 74.8125 z M 102.6875 74.84375 L 102.6875 78.3125 L 101.15625 78.84375 L 99.25 77.375 C 98.736823 77.583905 97.53034 77.726671 98.28125 79.34375 L 98.6875 79.65625 L 95.03125 80.90625 L 95.03125 79.90625 L 91.34375 81.15625 L 91.375 78.6875 L 102.6875 74.84375 z M 13.28125 75.53125 L 13.5 75.65625 L 13.5 78.71875 L 13.28125 78.5625 L 13.28125 75.53125 z M 13.6875 75.78125 L 16.15625 77.375 L 16.125 79.9375 L 18.375 81.46875 L 18.375 81.875 L 13.65625 78.8125 L 13.6875 75.78125 z M 79.8125 75.9375 L 79.8125 79.09375 L 68.53125 82.9375 L 68.5625 79.75 L 79.8125 75.9375 z M 35 75.96875 C 36.494919 76.95379 37.999835 77.927819 39.5 78.90625 L 39.5 81.78125 L 34.96875 78.875 L 35 75.96875 z M 59.78125 76.40625 L 61.15625 78.09375 L 54.96875 80.21875 L 59.78125 76.40625 z M 108.625 76.53125 L 108.65625 79.71875 L 104.21875 81.21875 L 101.3125 78.96875 L 108.625 76.53125 z M 85.8125 77.25 L 85.8125 80.375 L 74.28125 84.28125 L 74.3125 81.15625 L 85.8125 77.25 z M 99.375 77.78125 L 113.875 89.25 C 114.16335 89.74396 114.41014 90.571284 113.4375 90.1875 L 112.875 89.78125 L 113.625 89.25 L 113.15625 89.03125 L 112.5625 89.53125 L 98.78125 79.25 C 97.989147 78.389158 98.743199 77.803439 99.375 77.78125 z M 41.78125 77.90625 L 47.25 81.5625 L 47.34375 99.6875 L 41.59375 95.78125 L 41.78125 77.90625 z M 22.71875 78.125 L 23.0625 78.34375 L 23.0625 81.65625 L 22.6875 81.40625 L 22.71875 78.125 z M 63.0625 78.1875 L 63.0625 81.4375 L 54.25 84.40625 L 54.21875 81.3125 L 63.0625 78.1875 z M 23.25 78.46875 L 28.40625 81.84375 L 28.40625 85.09375 L 23.21875 81.75 L 23.25 78.46875 z M 44.5625 78.625 L 53.25 84.3125 L 53.28125 87.59375 L 47.75 83.96875 L 47.75 81.375 L 44.53125 79.25 L 44.5625 78.625 z M 91.1875 78.75 L 91.1875 81.21875 L 79.96875 85.03125 L 80 82.53125 L 91.1875 78.75 z M 13.28125 78.8125 L 23.15625 85.25 L 23.0625 85.25 L 23.0625 87.90625 L 13.28125 81.40625 L 13.28125 78.8125 z M 50 78.875 L 53.21875 80.96875 L 53.25 84 L 49.96875 81.875 L 50 78.875 z M 39.6875 79.03125 C 40.197807 79.364353 40.71124 79.696502 41.21875 80.03125 L 41.21875 82.875 L 39.65625 81.875 L 39.6875 79.03125 z M 34.96875 79.15625 C 37.032322 80.487581 39.096299 81.820432 41.15625 83.15625 L 41.1875 86.59375 L 34.96875 82.53125 L 34.96875 79.15625 z M 42.5 79.8125 L 42.5 95.3125 L 46.375 98.09375 L 46.25 82.34375 L 42.5 79.8125 z M 68.375 79.8125 L 68.375 83 L 58.34375 86.40625 L 58.375 83.1875 L 68.375 79.8125 z M 98.90625 79.8125 L 101.8125 82.03125 L 97 83.65625 L 97.03125 80.4375 L 98.90625 79.8125 z M 108.65625 79.9375 L 108.65625 83 L 107.1875 83.5 L 104.4375 81.34375 L 108.65625 79.9375 z M 12.625 80.15625 L 12.625 81.84375 L 53.65625 109.21875 L 78.21875 100.5 L 82.59375 103.96875 L 82.59375 104.03125 L 78.875 105.40625 L 84.40625 110.53125 L 60.03125 119.34375 L 5.5 82.625 L 12.625 80.15625 z M 42.8125 80.375 L 45.9375 82.5625 L 46.0625 97.5625 L 42.8125 95.15625 L 42.8125 80.375 z M 96.84375 80.5 L 96.84375 83.71875 L 95 84.34375 L 95.03125 81.125 L 96.84375 80.5 z M 94.375 80.84375 L 94.375 93.9375 L 93.78125 94.1875 L 93.59375 81.59375 L 83.9375 84.84375 L 84 97.65625 L 83.09375 97.96875 L 83.09375 85.1875 L 73.34375 88.65625 L 73.34375 101.375 L 72.59375 101.65625 L 72.59375 88.28125 L 94.375 80.84375 z M 74.125 81.21875 L 74.125 84.34375 L 66.75 86.84375 L 66.625 86.78125 L 66.625 86.875 L 63.21875 88.03125 L 63.25 84.90625 L 74.125 81.21875 z M 18.53125 81.59375 L 22.6875 84.40625 L 22.6875 81.65625 L 28.25 85.28125 L 28.25 88.28125 L 18.53125 81.96875 L 18.53125 81.59375 z M 93.28125 82.09375 L 93.28125 82.8125 L 84.5 96.84375 L 84.5 95.5625 L 92.875 82.21875 L 93.28125 82.09375 z M 102 82.15625 L 102.6875 82.6875 L 102.625 85.0625 L 95 87.625 L 95 84.53125 L 102 82.15625 z M 92.65625 82.3125 L 84.46875 95.25 L 84.46875 93.8125 L 91.46875 82.71875 L 92.65625 82.3125 z M 79.8125 82.59375 L 79.8125 85.0625 L 72.03125 87.71875 L 72.03125 88.71875 L 68.53125 89.90625 L 68.5625 86.40625 L 79.8125 82.59375 z M 91.25 82.78125 L 84.46875 93.53125 L 84.46875 92.09375 L 90.0625 83.1875 L 91.25 82.78125 z M 34.96875 82.8125 C 36.45501 83.787199 37.999535 84.799612 39.5 85.78125 L 39.5 88.78125 L 34.96875 85.84375 L 34.96875 82.8125 z M 103.1875 83.0625 L 111.84375 89.65625 L 111.90625 94.6875 L 103 88.78125 L 103.1875 83.0625 z M 93.28125 83.09375 L 93.3125 84.4375 L 85.21875 97.21875 L 84.5 97.46875 L 84.5 97.15625 L 93.28125 83.09375 z M 5.21875 83.1875 L 59.78125 120 L 59.875 125 L 5.25 88.21875 L 5.21875 83.1875 z M 108.65625 83.21875 L 108.6875 84.625 L 107.40625 83.65625 L 108.65625 83.21875 z M 58.1875 83.25 L 58.1875 86.4375 L 54.25 87.78125 L 54.25 84.59375 L 58.1875 83.25 z M 89.8125 83.28125 L 84.46875 91.78125 L 84.4375 90.375 L 88.6875 83.65625 L 89.8125 83.28125 z M 88.4375 83.75 L 84.4375 90.0625 L 84.4375 88.5 L 87.15625 84.1875 L 88.4375 83.75 z M 47.75 84.28125 L 49.8125 85.625 L 49.8125 88.53125 L 47.75 87.1875 L 47.75 84.28125 z M 86.90625 84.28125 L 84.4375 88.1875 L 84.40625 86.59375 L 85.625 84.71875 L 86.90625 84.28125 z M 93.3125 84.71875 L 93.3125 86.15625 L 86.59375 96.71875 L 85.5 97.125 L 93.3125 84.71875 z M 85.34375 84.8125 L 84.40625 86.28125 L 84.40625 85.125 L 85.34375 84.8125 z M 63.0625 84.96875 L 63.0625 88.09375 L 60.40625 89 L 60.3125 88.90625 L 60.1875 89.0625 L 54.28125 91.0625 L 54.25 87.96875 L 63.0625 84.96875 z M 102.625 85.25 L 102.5625 88.5 L 96.96875 90.375 L 97 87.15625 L 102.625 85.25 z M 23.25 85.3125 L 34.0625 92.34375 L 34.0625 95.25 L 23.21875 88.03125 L 23.25 85.3125 z M 50 85.75 L 53.28125 87.90625 L 53.3125 90.78125 L 49.96875 88.625 L 50 85.75 z M 82.65625 85.75 L 82.65625 86.78125 L 81.84375 86.03125 L 82.65625 85.75 z M 39.71875 85.90625 C 40.202083 86.223007 40.742647 86.578111 41.1875 86.875 L 41.15625 89.84375 L 39.65625 88.875 L 39.71875 85.90625 z M 34.96875 86.125 L 41.15625 90.125 L 41.15625 93.375 L 34.9375 89.375 L 34.96875 86.125 z M 81.59375 86.125 L 82.65625 87.09375 L 82.6875 88.6875 L 80.375 86.5625 L 81.59375 86.125 z M 93.3125 86.4375 L 93.34375 87.9375 L 88.0625 96.1875 L 86.84375 96.625 L 93.3125 86.4375 z M 68.375 86.46875 L 68.375 89.96875 L 68.28125 90 L 68 89.09375 L 67.125 88.6875 L 67.78125 87.3125 L 66.96875 86.9375 L 68.375 86.46875 z M 80.125 86.65625 L 82.6875 89 L 82.6875 90.5625 L 78.90625 87.09375 L 80.125 86.65625 z M 104.65625 86.75 L 104.5625 89.46875 L 108.625 91.96875 L 111.15625 90.15625 L 109.25 90.4375 L 109.5 88.875 L 108.03125 89.3125 L 107.9375 86.9375 L 106.875 88.625 L 106.09375 87.0625 L 105.5 88.3125 L 104.65625 86.75 z M 66.59375 87.0625 L 66.53125 88.4375 L 65.875 88.125 L 65.28125 88.71875 L 66.34375 89.25 L 65.53125 90.9375 L 64.0625 91.4375 L 62.3125 90.28125 L 63.3125 89.15625 L 62.125 89.1875 L 61.46875 89.9375 L 60.5625 89.125 L 66.59375 87.0625 z M 66.90625 87.09375 L 67.5 87.46875 L 67 88.375 L 66.78125 88.28125 L 66.90625 87.09375 z M 78.65625 87.1875 L 82.6875 90.875 L 82.71875 92.40625 L 77.46875 87.59375 L 78.65625 87.1875 z M 96.8125 87.21875 L 96.8125 90.4375 L 94.96875 91.0625 L 95 87.84375 L 96.8125 87.21875 z M 47.75 87.46875 L 53.3125 91.09375 L 53.34375 94.5 L 47.75 90.84375 L 47.75 87.46875 z M 77.21875 87.6875 L 82.71875 92.6875 L 82.71875 94.25 L 76.03125 88.125 L 77.21875 87.6875 z M 28.40625 87.84375 L 34.9375 92.21875 L 34.9375 89.625 L 39.5 92.59375 L 39.5 95.59375 L 28.40625 88.375 L 28.40625 87.84375 z M 75.8125 88.21875 L 82.71875 94.53125 L 82.71875 95.96875 L 74.71875 88.59375 L 75.8125 88.21875 z M 93.34375 88.21875 L 93.34375 89.71875 L 89.5625 95.6875 L 88.3125 96.125 L 93.34375 88.21875 z M 65.875 88.375 L 67.90625 89.25 L 68.21875 90 L 66.5 89.125 L 66.4375 89.09375 L 65.5 88.625 L 65.875 88.375 z M 74.4375 88.6875 L 82.75 96.25 L 82.75 97.625 L 73.84375 89.375 L 73.84375 88.90625 L 74.4375 88.6875 z M 102.5625 88.71875 L 102.5625 89.1875 L 102.71875 89.28125 L 102.71875 91.0625 L 94.96875 93.78125 L 94.96875 91.28125 L 102.5625 88.71875 z M 72.03125 88.90625 L 72.03125 92.15625 L 67.5 93.6875 L 66.0625 92.71875 L 66.65625 90.71875 L 68.25 90.1875 L 68.375 90.25 L 68.34375 90.15625 L 72.03125 88.90625 z M 60.40625 89.25 L 61.15625 89.96875 L 60.96875 90.15625 L 59.90625 89.71875 L 60.40625 89.25 z M 63.03125 89.25 L 61.71875 90.65625 L 61.65625 90.71875 L 61 91.46875 L 60.84375 91.03125 L 62.21875 89.34375 L 63.03125 89.25 z M 59.9375 89.34375 L 59.5 89.875 L 61.0625 90.4375 L 60.59375 91 L 61 91.71875 L 61.8125 90.84375 L 62.90625 91.8125 L 58.34375 93.375 L 58.375 89.875 L 59.9375 89.34375 z M 66.46875 89.375 L 66.6875 89.4375 L 66.875 89.5 L 65.90625 92.625 L 65.5 92.34375 L 65.875 91.28125 L 65.8125 91.25 L 65.4375 92.3125 L 65.1875 92.15625 L 66.46875 89.375 z M 102.90625 89.40625 L 104.5 90.4375 L 102.875 91 L 102.90625 89.40625 z M 67.03125 89.5625 L 68.03125 90.09375 L 66.71875 90.53125 L 67.03125 89.5625 z M 73.84375 89.6875 L 82.75 97.90625 L 82.75 98.09375 L 81.90625 98.375 L 73.875 90.96875 L 73.84375 89.6875 z M 58.1875 89.9375 L 58.1875 93.4375 L 54.3125 94.75 L 54.28125 91.25 L 58.1875 89.9375 z M 93.375 90.03125 L 93.375 91.5625 L 91.09375 95.125 L 89.8125 95.59375 L 93.375 90.03125 z M 112.40625 90.0625 L 113.5 90.90625 C 113.95274 90.809027 114.21282 90.621107 114.375 90.40625 L 123.3125 96.71875 L 102.5625 104.46875 L 96.53125 98.9375 L 92.875 100.28125 L 88.53125 96.84375 L 105.21875 90.90625 L 112.40625 95.59375 L 112.40625 90.0625 z M 62.1875 90.40625 L 69 94.9375 L 69.8125 96.1875 L 69.84375 96.28125 L 63.625 91.84375 L 63.5625 91.90625 L 69.71875 96.4375 L 68 96 L 61.9375 90.71875 L 62.0625 90.5625 L 62.1875 90.40625 z M 47.75 91.15625 L 49.8125 92.5 L 49.8125 95.46875 L 47.75 94.125 L 47.75 91.15625 z M 65.40625 91.1875 L 65 92.03125 L 64.28125 91.5625 L 65.40625 91.1875 z M 73.875 91.28125 L 81.71875 98.46875 L 80.5625 98.875 L 73.875 92.78125 L 73.875 91.28125 z M 93.375 91.84375 L 93.40625 93.375 L 92.59375 94.59375 L 91.34375 95.03125 L 93.375 91.84375 z M 63.0625 91.96875 L 63.0625 95.15625 L 58.28125 96.8125 L 58.1875 96.8125 L 58.1875 96.84375 L 54.3125 98.15625 L 54.3125 94.9375 L 63.0625 91.96875 z M 63.25 92.125 L 64.46875 93.1875 L 64.46875 93.21875 L 63.5625 95.03125 L 63.21875 95.15625 L 63.25 92.125 z M 72.03125 92.34375 L 72 95.4375 L 69.90625 96.15625 L 69.1875 94.78125 L 68.5625 94.375 L 68.5625 93.53125 L 72.03125 92.34375 z M 34.25 92.46875 L 44.4375 99.125 L 44.4375 102.125 L 34.21875 95.34375 L 34.25 92.46875 z M 50 92.625 L 53.375 94.8125 L 53.40625 97.8125 L 49.96875 95.5625 L 50 92.625 z M 39.6875 92.71875 L 41.15625 93.6875 L 41.125 96.0625 L 47.75 100.46875 L 47.75 98 L 49.8125 99.34375 L 49.8125 102.3125 L 39.65625 95.71875 L 39.6875 92.71875 z M 73.875 93.09375 L 80.28125 98.96875 L 79.15625 99.375 L 73.875 94.53125 L 73.875 93.09375 z M 64.625 93.34375 L 64.90625 93.625 L 63.125 98.40625 L 63.09375 96.625 L 64.625 93.34375 z M 68.375 93.59375 L 68.375 94.25 L 67.71875 93.8125 L 68.375 93.59375 z M 65.03125 93.6875 L 65.40625 94.0625 L 64.375 97.3125 L 63.28125 98.5625 L 65.03125 93.6875 z M 93.40625 93.6875 L 93.40625 94.3125 L 92.875 94.5 L 93.40625 93.6875 z M 65.59375 94.21875 L 67.875 96.25 L 68.375 96.34375 L 68.375 96.65625 L 63.78125 98.1875 L 64.59375 97.4375 L 65.59375 94.21875 z M 47.75 94.4375 L 53.40625 98.125 L 53.4375 101.375 L 47.75 97.6875 L 47.75 94.4375 z M 73.875 94.875 L 78.875 99.4375 L 77.8125 99.84375 L 73.90625 96.28125 L 73.875 94.875 z M 63.46875 95.25 L 62.8125 96.59375 L 63 98.5 L 58.34375 100.0625 L 58.375 96.96875 L 63.46875 95.25 z M 72 95.625 L 72 98.875 L 63.21875 101.84375 L 63.25 98.71875 L 63.46875 98.53125 L 69.3125 96.53125 L 70.1875 96.71875 L 69.96875 96.3125 L 72 95.625 z M 68.53125 96.375 L 68.96875 96.46875 L 68.53125 96.625 L 68.53125 96.375 z M 73.90625 96.59375 L 77.53125 99.90625 L 76.3125 100.34375 L 73.90625 98.15625 L 73.90625 96.59375 z M 88.3125 96.90625 L 92.65625 100.34375 L 82.78125 103.96875 L 82.78125 103.875 L 78.4375 100.40625 L 88.3125 96.90625 z M 58.1875 97.03125 L 58.1875 100.125 L 54.34375 101.4375 L 54.3125 98.34375 L 58.1875 97.03125 z M 124.28125 97.09375 L 124.34375 102.71875 L 102.6875 110.375 L 102.6875 104.78125 L 124.28125 97.09375 z M 73.90625 98.5 L 76.03125 100.4375 L 74.78125 100.90625 L 73.9375 100.125 L 73.90625 98.5 z M 63 98.71875 L 63.03125 98.9375 L 63.0625 98.90625 L 63.0625 101.90625 L 54.34375 104.84375 L 54.34375 101.625 L 63 98.71875 z M 72 99.0625 L 72 101.875 L 68.53125 103.09375 L 68.5625 100.21875 L 72 99.0625 z M 44.625 99.21875 L 53.46875 105 L 53.5 108.15625 L 44.59375 102.25 L 44.625 99.21875 z M 50 99.46875 L 53.4375 101.6875 L 53.46875 104.6875 L 49.96875 102.40625 L 50 99.46875 z M 96.21875 99.5 L 96.34375 101.40625 L 93.375 102.46875 L 93.1875 100.59375 L 96.21875 99.5 z M 96.625 99.5 L 102.1875 104.71875 L 102.25 109.1875 L 101.25 108.71875 L 101.15625 107.5 L 99.59375 106.59375 L 99.5625 105.125 L 98.1875 104.375 L 98.21875 102.53125 L 96.71875 101.59375 L 96.625 99.5 z M 68.375 100.28125 L 68.375 103.15625 L 58.34375 106.71875 L 58.375 103.65625 L 68.375 100.28125 z M 73.9375 100.4375 L 74.53125 100.96875 L 73.9375 101.1875 L 73.9375 100.4375 z M 92.96875 100.6875 L 93.1875 102.53125 L 83.09375 106.125 L 83.03125 106.0625 L 82.84375 104.375 L 92.96875 100.6875 z M 96.375 101.78125 L 97.65625 102.625 L 94.75 103.65625 L 93.53125 102.78125 L 96.375 101.78125 z M 93.34375 102.84375 L 94.53125 103.71875 L 84.5625 107.25 L 84.5625 107.15625 L 83.4375 106.34375 L 93.34375 102.84375 z M 97.875 102.90625 L 97.875 104.28125 L 95.1875 105.25 L 94.96875 103.9375 L 97.875 102.90625 z M 58.1875 103.71875 L 58.1875 106.78125 L 54.375 108.125 L 54.34375 105.03125 L 58.1875 103.71875 z M 94.78125 104 L 94.96875 105.3125 L 84.84375 108.90625 L 84.625 107.5625 L 94.78125 104 z M 82.65625 104.4375 L 82.84375 106.125 L 82.90625 106.1875 L 81.0625 106.84375 L 79.59375 105.5625 L 82.65625 104.4375 z M 98.15625 104.53125 L 99.09375 105.03125 L 96.09375 106.09375 L 95.25 105.5625 L 98.15625 104.53125 z M 99.21875 105.40625 L 99.25 106.46875 L 96.65625 107.375 L 96.53125 106.40625 L 96.46875 106.375 L 99.21875 105.40625 z M 95.03125 105.65625 L 95.875 106.1875 L 86.03125 109.71875 L 85.1875 109.125 L 95.03125 105.65625 z M 83.25 106.40625 L 84.40625 107.28125 L 84.40625 107.3125 L 82.375 108.03125 L 81.3125 107.09375 L 83.25 106.40625 z M 96.28125 106.4375 L 96.34375 106.46875 L 96.4375 107.46875 L 86.34375 111.0625 L 86.1875 109.96875 L 96.28125 106.4375 z M 99.46875 106.78125 L 100.5 107.4375 L 97.71875 108.4375 L 96.75 107.75 L 99.46875 106.78125 z M 84.4375 107.625 L 84.625 108.96875 L 84.625 109 L 83.78125 109.28125 L 82.625 108.25 L 84.4375 107.625 z M 100.75 107.78125 L 100.71875 108.65625 L 98.0625 109.5625 L 98 108.75 L 100.75 107.78125 z M 96.53125 107.8125 L 97.53125 108.5 L 87.625 112.03125 L 87.625 112 L 86.625 111.3125 L 96.53125 107.8125 z M 97.875 108.78125 L 97.9375 109.59375 L 87.71875 113.09375 L 87.65625 112.34375 L 97.875 108.78125 z M 100.96875 108.90625 L 102 109.4375 L 99.03125 110.46875 L 98.09375 109.9375 L 98.09375 109.875 L 100.96875 108.90625 z M 84.96875 109.21875 L 85.84375 109.78125 L 84.78125 110.15625 L 84.0625 109.53125 L 84.96875 109.21875 z M 102.28125 109.71875 L 102.28125 110.71875 L 99.71875 111.59375 L 99.75 110.875 L 99.4375 110.71875 L 102.28125 109.71875 z M 97.96875 109.9375 L 97.96875 110 L 98.90625 110.53125 L 88.9375 114 L 87.84375 113.34375 L 97.96875 109.9375 z M 86 110.03125 L 86.09375 111.125 L 86.09375 111.15625 L 85.15625 111.46875 L 85.40625 110.71875 L 85.03125 110.375 L 86 110.03125 z M 99.3125 110.75 L 99.53125 110.875 L 99.5 111.65625 L 89.34375 115.15625 L 89.375 114.25 L 89.34375 114.21875 L 99.3125 110.75 z M 84.5625 111.03125 L 84.5625 116.5625 L 60.4375 125.28125 L 60.3125 119.84375 L 84.5625 111.03125 z M 86.4375 111.375 L 87.5 112.09375 L 85.1875 112.90625 L 85.1875 111.8125 L 86.4375 111.375 z M 87.5 112.40625 L 87.5625 113.15625 L 85.21875 113.9375 L 85.1875 113.21875 L 87.5 112.40625 z M 87.65625 113.4375 L 88.78125 114.03125 L 85.21875 115.28125 L 85.21875 114.25 L 87.65625 113.4375 z M 89.15625 114.28125 L 89.125 115.21875 L 85.3125 116.53125 L 85.25 115.65625 L 89.15625 114.28125 z "
       id="path2308" />
  </g>
</svg>
