<?xml version="1.0" encoding="UTF-8" standalone="no"?>
<!-- Created with Inkscape (http://www.inkscape.org/) -->
<svg
   xmlns:dc="http://purl.org/dc/elements/1.1/"
   xmlns:cc="http://creativecommons.org/ns#"
   xmlns:rdf="http://www.w3.org/1999/02/22-rdf-syntax-ns#"
   xmlns:svg="http://www.w3.org/2000/svg"
   xmlns="http://www.w3.org/2000/svg"
   xmlns:xlink="http://www.w3.org/1999/xlink"
   xmlns:sodipodi="http://sodipodi.sourceforge.net/DTD/sodipodi-0.dtd"
   xmlns:inkscape="http://www.inkscape.org/namespaces/inkscape"
   width="128.00000px"
   height="128.00000px"
   id="svg2"
   sodipodi:version="0.32"
   inkscape:version="0.45+devel"
   sodipodi:docbase="/home/nicu/Desktop/hats"
   sodipodi:docname="tree08.svg"
   inkscape:export-filename="/home/nicu/Desktop/rpg_color.png"
   inkscape:export-xdpi="90.000000"
   inkscape:export-ydpi="90.000000"
   inkscape:output_extension="org.inkscape.output.svg.inkscape">
  <defs
     id="defs3">
    <linearGradient
       id="linearGradient2057"
       inkscape:collect="always">
      <stop
         id="stop2059"
         offset="0"
         style="stop-color:#000000;stop-opacity:1;" />
      <stop
         id="stop2061"
         offset="1"
         style="stop-color:#000000;stop-opacity:0;" />
    </linearGradient>
    <radialGradient
       inkscape:collect="always"
       xlink:href="#linearGradient2057"
       id="radialGradient1843"
       gradientUnits="userSpaceOnUse"
       gradientTransform="scale(1.395230,0.716728)"
       cx="14.207293"
       cy="222.04396"
       fx="14.207293"
       fy="222.04396"
       r="8.2519293" />
    <filter
       inkscape:collect="always"
       id="filter2893"
       x="-0.1089863"
       width="1.2179726"
       y="-0.21216"
       height="1.42432">
      <feGaussianBlur
         inkscape:collect="always"
         stdDeviation="0.72146876"
         id="feGaussianBlur2895" />
    </filter>
  </defs>
  <sodipodi:namedview
     id="base"
     pagecolor="#ffffff"
     bordercolor="#666666"
     borderopacity="1.0"
     inkscape:pageopacity="0.0"
     inkscape:pageshadow="2"
     inkscape:zoom="1"
     inkscape:cx="-178.2332"
     inkscape:cy="-48.836658"
     inkscape:document-units="px"
     inkscape:current-layer="layer1"
     inkscape:window-width="1151"
     inkscape:window-height="791"
     inkscape:window-x="1"
     inkscape:window-y="24"
     showgrid="false" />
  <g
     inkscape:label="Layer 1"
     inkscape:groupmode="layer"
     id="layer1">
    <g
       id="g1916"
       transform="matrix(2.469674,0.000000,0.000000,2.469674,-61.47580,-378.6608)">
      <path
         sodipodi:nodetypes="ccccccccccccccccc"
         id="path2841"
         d="M 52.802315,169.09090 C 53.128168,170.70625 53.904649,172.15566 54.121663,173.79306 C 54.434734,174.63916 55.087436,175.54204 55.333198,176.41623 C 55.835547,177.24247 56.557869,177.86204 56.970235,178.74490 C 57.570858,179.49161 57.939689,180.30040 57.984697,181.30381 C 58.131425,182.12792 58.431219,182.93565 58.429083,183.77917 C 58.238488,184.78185 57.005429,185.37961 56.086393,184.96711 C 54.039163,184.45755 51.909844,184.26641 49.806374,184.44558 C 48.263577,184.46933 46.283143,183.85183 44.930490,183.05893 C 44.986887,182.67994 44.443685,182.59845 45.052298,182.37840 C 45.290244,181.96471 45.323181,181.11632 45.344257,180.62406 C 45.480386,179.97613 46.173823,179.56130 46.621463,179.07701 C 47.059881,178.44744 47.245158,177.68132 47.305455,176.92714 C 47.594170,175.66736 47.420258,174.34570 48.114396,173.22801 C 48.906964,171.69926 49.605680,170.11153 49.832155,168.40037 C 49.965477,167.64123 50.326842,166.17231 50.924421,165.80736 C 50.924421,165.80736 52.752998,167.88381 52.802315,169.09090 z "
         style="fill:#00b300;fill-opacity:1.0000000;fill-rule:evenodd;stroke:none;stroke-width:1.0000000px;stroke-linecap:butt;stroke-linejoin:miter;stroke-opacity:1.0000000" />
      <path
         transform="translate(31.92901,31.60125)"
         d="M 28.401713 158.69876 A 7.9437737 4.0807056 0 1 1  12.514165,158.69876 A 7.9437737 4.0807056 0 1 1  28.401713 158.69876 z"
         sodipodi:ry="4.0807056"
         sodipodi:rx="7.9437737"
         sodipodi:cy="158.69876"
         sodipodi:cx="20.457939"
         id="path1329"
         style="fill:url(#radialGradient1843);fill-opacity:1;fill-rule:evenodd;stroke:none;stroke-width:2;stroke-miterlimit:4;stroke-opacity:1;opacity:0.50000000000000000;filter:url(#filter2893)"
         sodipodi:type="arc" />
      <path
         sodipodi:nodetypes="ccccccccccccccccccccccccccccccccccccccccccccccccccc"
         id="path1674"
         d="M 50.822033,165.59365 C 50.204613,165.59364 49.538223,167.43478 49.322033,169.74990 C 49.199863,171.05825 48.972373,171.80090 48.603283,172.18740 C 47.556083,173.28401 47.286763,173.93267 47.134533,175.78115 C 46.990283,177.53258 46.757463,178.28782 46.165783,178.99990 C 45.055373,180.33624 45.403854,180.57999 45.403854,180.78248 C 45.403854,181.25687 45.292543,181.04452 45.884533,180.18740 C 46.220443,179.70103 46.699383,179.02828 46.947033,178.68740 C 47.205583,178.33152 47.488993,177.19848 47.603283,176.03115 C 47.770823,174.32006 47.917273,173.84372 48.603283,173.06240 C 49.260373,172.31400 49.456633,171.77509 49.603283,170.34365 C 49.773683,168.68049 50.477793,166.03115 50.759533,166.03115 C 50.828993,166.03114 51.243383,166.41243 51.665783,166.87490 C 52.261623,167.52726 52.461853,168.06610 52.572033,169.28115 C 52.650133,170.14251 53.013293,171.47695 53.384533,172.21865 C 53.755793,172.96034 54.141513,174.10651 54.228283,174.78115 C 54.353593,175.75545 54.604643,176.20737 55.447033,176.96865 C 56.627413,178.03537 57.507363,179.71203 58.103283,181.99990 C 58.482663,183.45643 58.473473,183.54601 57.915783,184.18740 C 57.431783,184.74405 57.254613,184.81062 56.790783,184.56240 C 56.483783,184.39808 54.365963,184.21983 52.103283,184.15615 C 49.389813,184.07979 47.807333,183.91974 47.447033,183.68740 C 47.146593,183.49365 46.448563,183.26087 45.884533,183.15615 L 44.853283,182.96865 L 45.540783,181.93740 C 46.245073,180.90094 45.876857,180.52749 45.520137,180.53115 C 45.117727,180.53527 44.568983,182.74796 44.728283,183.24990 C 44.828733,183.56640 45.255743,183.81944 45.884533,183.93740 C 46.437553,184.04113 47.253413,184.30176 47.697033,184.53115 C 48.234633,184.80915 48.871793,184.91696 49.634533,184.81240 C 50.723903,184.66308 50.798453,184.67311 50.728283,185.31240 C 50.566483,186.78641 50.269103,188.34982 50.009533,189.18740 C 49.859123,189.67267 49.821133,190.19049 49.915783,190.34365 C 50.159283,190.73763 50.476173,190.71069 50.884533,190.21865 C 51.553023,189.41316 52.128523,189.26050 52.947033,189.68740 C 54.538563,190.51747 55.153343,189.94630 54.290783,188.43740 C 54.076093,188.06184 53.889853,187.10105 53.884533,186.31240 C 53.873623,184.69559 53.856973,184.70565 56.103283,185.18740 L 57.540783,185.49990 L 58.384533,184.46865 C 59.184433,183.51587 59.228923,183.40987 58.884533,182.74990 C 58.679993,182.35788 58.510463,181.74843 58.509533,181.40615 C 58.506683,180.35189 56.902083,177.44465 55.759533,176.43740 C 54.795293,175.58735 54.633043,175.26173 54.415783,173.71865 C 54.281403,172.76422 54.007593,171.80974 53.790783,171.56240 C 53.573983,171.31505 53.186573,170.13172 52.947033,168.93740 C 52.500973,166.71322 51.804493,165.59365 50.822033,165.59365 z M 51.072033,188.56240 C 51.156123,188.64648 51.071203,188.87713 50.884533,189.06240 C 50.614793,189.33013 50.611323,189.29542 50.759533,188.90615 C 50.862093,188.63678 50.987943,188.47830 51.072033,188.56240 z "
         style="fill:#5c2700;fill-opacity:1.0000000" />
    </g>
  </g>
  <metadata
     id="metadata14">
    <rdf:RDF>
      <cc:Work
         rdf:about="">
        <dc:title>tree - RPG map elements</dc:title>
        <dc:description />
        <dc:subject>
          <rdf:Bag>
            <rdf:li>mapsym</rdf:li>
          </rdf:Bag>
        </dc:subject>
        <dc:publisher>
          <cc:Agent>
            <dc:title />
          </cc:Agent>
        </dc:publisher>
        <dc:creator>
          <cc:Agent>
            <dc:title>Nicu Buculei</dc:title>
          </cc:Agent>
        </dc:creator>
        <dc:rights>
          <cc:Agent>
            <dc:title>Nicu Buculei</dc:title>
          </cc:Agent>
        </dc:rights>
        <dc:date />
        <dc:format>image/svg+xml</dc:format>
        <dc:type
           rdf:resource="http://purl.org/dc/dcmitype/StillImage" />
        <cc:license
           rdf:resource="http://web.resource.org/cc/PublicDomain" />
        <dc:language>en</dc:language>
      </cc:Work>
      <cc:License
         rdf:about="http://web.resource.org/cc/PublicDomain">
        <cc:permits
           rdf:resource="http://web.resource.org/cc/Reproduction" />
        <cc:permits
           rdf:resource="http://web.resource.org/cc/Distribution" />
        <cc:permits
           rdf:resource="http://web.resource.org/cc/DerivativeWorks" />
      </cc:License>
    </rdf:RDF>
  </metadata>
</svg>
