<?xml version="1.0" encoding="UTF-8" standalone="no"?>
<!-- Created with Inkscape (http://www.inkscape.org/) -->
<svg
   xmlns:dc="http://purl.org/dc/elements/1.1/"
   xmlns:cc="http://creativecommons.org/ns#"
   xmlns:rdf="http://www.w3.org/1999/02/22-rdf-syntax-ns#"
   xmlns:svg="http://www.w3.org/2000/svg"
   xmlns="http://www.w3.org/2000/svg"
   xmlns:xlink="http://www.w3.org/1999/xlink"
   xmlns:sodipodi="http://sodipodi.sourceforge.net/DTD/sodipodi-0.dtd"
   xmlns:inkscape="http://www.inkscape.org/namespaces/inkscape"
   width="128"
   height="128"
   id="svg2"
   sodipodi:version="0.32"
   inkscape:version="0.45+devel"
   version="1.0"
   sodipodi:docname="warehouse_outline.svg"
   inkscape:output_extension="org.inkscape.output.svg.inkscape">
  <defs
     id="defs4">
    <filter
       height="1.42432"
       y="-0.21216"
       width="1.2179726"
       x="-0.1089863"
       id="filter2892"
       inkscape:collect="always">
      <feGaussianBlur
         id="feGaussianBlur2894"
         stdDeviation="0.72146876"
         inkscape:collect="always" />
    </filter>
    <radialGradient
       r="8.2519293"
       fy="222.04396"
       fx="14.207293"
       cy="222.04396"
       cx="14.207293"
       gradientTransform="scale(1.39523,0.716728)"
       gradientUnits="userSpaceOnUse"
       id="radialGradient1968"
       xlink:href="#linearGradient2057"
       inkscape:collect="always" />
    <linearGradient
       inkscape:collect="always"
       id="linearGradient2057">
      <stop
         style="stop-color:#000000;stop-opacity:1;"
         offset="0"
         id="stop2059" />
      <stop
         style="stop-color:#000000;stop-opacity:0;"
         offset="1"
         id="stop2061" />
    </linearGradient>
  </defs>
  <sodipodi:namedview
     id="base"
     pagecolor="#ffffff"
     bordercolor="#666666"
     borderopacity="1.0"
     gridtolerance="10000"
     guidetolerance="10"
     objecttolerance="10"
     inkscape:pageopacity="0.0"
     inkscape:pageshadow="2"
     inkscape:zoom="1"
     inkscape:cx="63.010157"
     inkscape:cy="38.560951"
     inkscape:document-units="px"
     inkscape:current-layer="layer1"
     showgrid="false"
     width="744.09px"
     inkscape:window-width="1210"
     inkscape:window-height="975"
     inkscape:window-x="464"
     inkscape:window-y="24"
     showguides="true"
     inkscape:guide-bbox="true" />
  <metadata
     id="metadata7">
    <rdf:RDF>
      <cc:Work
         rdf:about="">
        <dc:format>image/svg+xml</dc:format>
        <dc:type
           rdf:resource="http://purl.org/dc/dcmitype/StillImage" />
      </cc:Work>
    </rdf:RDF>
  </metadata>
  <g
     inkscape:label="Layer 1"
     inkscape:groupmode="layer"
     id="layer1">
    <path
       style="fill:#5c2700;fill-opacity:1;fill-rule:evenodd;stroke:none;stroke-width:1px;stroke-linecap:butt;stroke-linejoin:miter;stroke-opacity:1"
       d="M 70.625 9.65625 L 37.59375 12.0625 L 4.5625 35.9375 L 4.4375 66.96875 L 4.5 67.03125 L 2.65625 67.4375 L 2.375 76.875 L 13 84.65625 L 16.53125 87.25 L 18.625 86.6875 L 18.5625 88.5625 L 29.1875 96.34375 L 32.71875 98.9375 L 42.1875 96.34375 L 42.1875 94.1875 L 55.84375 104.0625 C 55.733352 104.45169 55.727422 104.85976 55.96875 105.3125 C 56.213061 105.33115 56.409999 105.60172 56.65625 105.625 C 56.72453 105.93794 56.724342 106.25011 56.75 106.5625 C 57.391452 108.20844 59.279293 108.27241 60.84375 108.5 C 64.111796 108.78834 66.964955 107.87927 69.71875 106.21875 L 70.1875 105.84375 C 70.300192 105.47306 70.402927 105.09773 70.5 104.71875 C 70.830701 104.56913 70.727959 104.67918 71.0625 104.5 C 71.169271 104.02751 71.386243 103.41934 71.375 102.84375 C 72.252182 103.54907 73.587582 103.6434 74.75 103.8125 C 77.873788 103.99044 81.007026 103.44319 83.5 101.59375 C 83.537452 101.56597 83.587842 101.55963 83.625 101.53125 L 84.09375 101.15625 C 84.206444 100.78556 84.309177 100.41023 84.40625 100.03125 C 84.736953 99.881629 84.634209 99.99168 84.96875 99.8125 C 85.124021 99.125399 85.520877 98.13395 85.09375 97.40625 C 85.042344 97.432069 84.958411 97.47429 84.90625 97.5 C 84.989794 96.932592 85.043374 96.361452 85.09375 95.78125 L 112 85.3125 C 112.0008 85.322866 111.99915 85.333383 112 85.34375 C 112.64145 86.989694 114.52929 87.05366 116.09375 87.28125 C 119.21753 87.459194 122.35077 86.91194 124.84375 85.0625 C 124.8812 85.034724 124.93159 85.02838 124.96875 85 L 125.4375 84.625 C 125.55019 84.254314 125.65292 83.87898 125.75 83.5 C 126.0807 83.350378 125.97796 83.46043 126.3125 83.28125 C 126.46777 82.594148 126.86462 81.6027 126.4375 80.875 C 126.38609 80.900818 126.30216 80.94304 126.25 80.96875 C 126.43243 79.729688 126.55685 78.4629 126.53125 77.15625 C 126.67294 77.085462 126.7951 77.01377 126.9375 76.9375 C 127.31516 75.970232 127.14506 75.44944 126.59375 74.8125 C 126.51487 74.852112 126.42439 74.8669 126.34375 74.90625 C 126.24773 74.102252 126.12825 73.2922 125.9375 72.46875 L 125.90625 72.5 C 125.88344 72.203012 125.80857 71.90203 125.59375 71.53125 C 125.54119 71.500009 125.49053 71.467272 125.4375 71.4375 L 125.34375 56 L 125.40625 55.96875 L 125.34375 55.875 L 125.3125 49.4375 L 123.84375 46.90625 L 120.40625 45.875 L 119.5 43.875 L 116.375 42.9375 L 115.6875 41.5 L 113.1875 40.625 L 113.53125 39.46875 L 110.34375 38.5625 L 110.53125 37.34375 L 107.25 36.3125 L 107.0625 34.8125 L 103.34375 33.46875 L 103.53125 32.34375 L 100.625 31.5 L 100.96875 30.1875 L 97.65625 29.34375 L 97.59375 27.9375 L 94.46875 27 L 95.59375 26 L 91.125 24.59375 L 91.71875 23.65625 L 88.0625 22.375 L 88.46875 21.40625 L 85.28125 20.34375 L 85.71875 19.375 L 83.15625 18.78125 L 83.09375 17.59375 L 79.40625 16.0625 L 79.5625 15.21875 L 76.59375 14.03125 L 76.6875 13.25 L 73.78125 11.96875 L 74.1875 11 L 70.625 9.65625 z M 70.28125 10.21875 L 73.28125 11.0625 L 72.40625 11.78125 L 41.0625 14.5625 L 38.53125 12.75 L 70.28125 10.21875 z M 73.03125 12.21875 L 75.59375 13.25 L 75.28125 13.875 L 43.90625 16.625 L 41.5625 14.9375 L 73.03125 12.21875 z M 37.71875 12.8125 L 40.3125 14.71875 L 8.375 37.5625 L 6.3125 37.6875 L 6.125 35.9375 L 37.71875 12.8125 z M 75.875 14.28125 L 78.78125 15.4375 L 78.375 16.125 L 47.0625 18.90625 L 44.40625 17 L 75.875 14.28125 z M 40.8125 15.0625 L 43.28125 16.90625 L 11.375 39.75 L 9.4375 39.84375 L 8.9375 37.96875 L 40.8125 15.0625 z M 78.96875 16.5625 L 82.15625 17.71875 L 81.53125 18.40625 L 50.21875 21.1875 L 47.59375 19.28125 L 78.96875 16.5625 z M 43.78125 17.25 L 46.3125 19.125 L 14.40625 41.9375 L 12.21875 42.3125 L 11.9375 40.125 L 43.78125 17.25 z M 82.125 18.84375 L 84.78125 19.53125 L 84.03125 20.21875 L 52.75 23 L 50.71875 21.5625 L 82.125 18.84375 z M 46.8125 19.5 L 49.3125 21.34375 L 17.46875 44.15625 L 15.375 44.40625 L 14.625 42.53125 L 46.8125 19.5 z M 84.59375 20.65625 L 87.5625 21.5625 L 86.96875 22.375 L 55.28125 24.78125 L 55.25 24.8125 L 53.25 23.375 L 84.59375 20.65625 z M 49.8125 21.71875 L 52.03125 23.34375 L 20.1875 46.09375 L 18.5625 46.4375 L 18.03125 44.5625 L 49.8125 21.71875 z M 87.5 22.75 L 90.96875 23.8125 L 89.90625 24.5 L 58.21875 26.96875 L 55.8125 25.21875 L 87.5 22.75 z M 52.53125 23.6875 L 54.65625 25.25 L 23.125 48.21875 L 20.84375 48.40625 L 20.75 46.53125 L 52.53125 23.6875 z M 90.5 24.9375 L 94.21875 26.125 L 93.15625 26.875 L 61.15625 29.09375 L 58.6875 27.3125 L 90.5 24.9375 z M 55.03125 25.53125 L 57.375 27.25 L 25.96875 50.3125 L 24.09375 50.4375 L 23.65625 48.625 L 55.03125 25.53125 z M 93.75 27.3125 L 97.21875 28.0625 L 96.1875 29.09375 L 64.25 31.3125 L 61.65625 29.46875 L 93.75 27.3125 z M 57.71875 27.5 L 60.375 29.4375 L 29.1875 52.65625 L 27.09375 52.78125 L 26.5 50.6875 L 57.71875 27.5 z M 96.8125 29.5625 L 100.25 30.375 L 99.09375 31.21875 L 67.15625 33.4375 L 64.625 31.59375 L 96.8125 29.5625 z M 60.75 29.71875 L 63.40625 31.6875 L 32.4375 55 L 30.65625 55.0625 L 29.71875 53.03125 L 60.75 29.71875 z M 99.46875 31.5 L 102.84375 32.53125 L 101.875 33.25 L 70 35.46875 L 67.65625 33.78125 L 99.46875 31.5 z M 63.71875 31.90625 L 66.21875 33.75 L 35.40625 57.0625 L 33.625 57.40625 L 33 55.40625 L 63.71875 31.90625 z M 102.5 33.6875 L 106.34375 35.0625 L 105.59375 35.9375 L 73.03125 37.65625 L 70.5 35.84375 L 102.5 33.6875 z M 66.625 34.0625 L 69.125 35.875 L 38.40625 59.1875 L 36.3125 59.71875 L 35.90625 57.5 L 66.625 34.0625 z M 69.625 36.25 L 72.03125 38 L 41.78125 61.75 L 39.59375 61.84375 L 38.875 59.65625 L 69.625 36.25 z M 106.15625 36.34375 L 109.75 37.53125 L 108.875 38.34375 L 76.09375 39.875 L 73.4375 37.96875 L 106.15625 36.34375 z M 5.28125 36.59375 L 5.8125 38.09375 L 7.96875 38.53125 L 8.90625 40.21875 L 11.0625 40.75 L 11.875 42.5625 L 13.78125 42.6875 L 14.84375 44.8125 L 17.1875 45.125 L 17.96875 46.90625 L 19.6875 46.9375 L 20.34375 48.875 L 22.75 49.125 L 23.4375 50.78125 L 25.625 51.1875 L 26.59375 53.15625 L 28.78125 53.46875 L 30 55.5 L 32.15625 55.875 L 32.875 57.65625 L 35.03125 57.9375 L 35.75 59.90625 L 38.125 60.1875 L 39.15625 62.125 L 41.625 62.6875 L 42.34375 64.46875 L 44.59375 64.8125 L 45.625 66.90625 L 47.9375 67.21875 L 48.625 69.03125 L 51.0625 69.4375 L 52.40625 71.71875 L 55.09375 72.3125 L 56.21875 74.59375 L 58.8125 75 L 58.8125 76.78125 L 5.28125 38.34375 L 5.28125 36.59375 z M 72.40625 38.28125 L 75.09375 40.25 L 44.84375 63.96875 L 42.875 64.125 L 42.3125 62.125 L 72.40625 38.28125 z M 5.28125 38.46875 L 58.8125 76.96875 L 58.78125 78.90625 L 48.90625 71.8125 L 48.90625 70.84375 L 42.1875 66.25 L 42.1875 66.96875 L 33.3125 60.625 L 33.3125 59.21875 L 26.6875 54.5625 L 26.65625 55.84375 L 17.125 49 L 17.125 47.78125 L 10.3125 43.03125 L 10.3125 44.09375 L 5.25 40.46875 L 5.28125 38.46875 z M 109.5 38.78125 L 112.84375 39.5625 L 112 40.625 L 79.03125 42 L 76.5 40.15625 L 109.5 38.78125 z M 5.25 40.59375 L 10.28125 44.21875 L 10.28125 46.1875 L 5.25 42.5625 L 5.25 40.59375 z M 75.5625 40.59375 L 77.875 42.28125 L 48.125 66.34375 L 45.96875 66.53125 L 45.375 64.375 L 75.5625 40.59375 z M 112.5625 41.03125 L 115.15625 41.84375 L 115.21875 42.9375 L 82.125 44.21875 L 79.21875 42.125 L 112.5625 41.03125 z M 78.25 42.5625 L 81 44.59375 L 51.40625 68.71875 L 49.21875 68.625 L 48.6875 66.75 L 78.25 42.5625 z M 5.25 42.6875 L 10.28125 46.3125 L 10.25 48.40625 L 5.21875 44.8125 L 5.25 42.6875 z M 115.6875 43.3125 L 118.9375 44.1875 L 119.03125 45.75 L 84.9375 46.28125 L 82.5 44.5 L 115.6875 43.3125 z M 10.875 43.96875 L 16.53125 47.96875 L 16.5 56.3125 L 10.75 51.96875 L 10.875 43.96875 z M 81.34375 44.84375 L 83.9375 46.75 L 55.21875 71.46875 L 52.84375 71.3125 L 51.90625 69.09375 L 81.34375 44.84375 z M 5.21875 44.90625 L 10.25 48.5 L 10.21875 50.59375 L 5.21875 47 L 5.21875 44.90625 z M 11.46875 45.1875 L 11.5 51.46875 L 15.65625 54.5 L 15.6875 48.09375 L 11.46875 45.1875 z M 11.96875 46.25 L 12.46875 46.5625 L 13.84375 49.40625 L 15.0625 48.25 L 15.3125 48.40625 L 15.28125 48.9375 L 14.09375 50 L 15.125 52.875 L 15.09375 53.375 L 14.625 53 L 13.6875 50.15625 L 12.21875 51.21875 L 12.125 51.15625 L 12.125 50.8125 L 13.625 49.65625 L 12 46.8125 L 11.96875 46.25 z M 119.78125 46.28125 L 123.09375 47.1875 L 122.65625 48.375 L 87.125 47.84375 L 85.34375 46.5625 L 119.78125 46.28125 z M 12.84375 46.8125 L 14.78125 48.0625 L 13.875 48.9375 L 12.84375 46.8125 z M 84.21875 46.96875 L 86.40625 48.5625 L 58.875 74.125 L 56.625 74.0625 L 56.03125 72.0625 L 84.21875 46.96875 z M 5.21875 47.1875 L 10.21875 50.78125 L 10.1875 52.34375 L 17.0625 57.34375 L 17.0625 55.6875 L 26.59375 62.5 L 26.5625 63.875 L 33.34375 68.6875 L 33.34375 67.375 L 42.09375 73.6875 L 42.0625 75.5625 L 48.84375 80.46875 L 48.84375 78.5 L 58.75 85.625 L 58.75 87.875 L 5.1875 49.40625 L 5.21875 47.1875 z M 12 47.1875 L 13.1875 49.4375 L 12.09375 50.3125 L 12 47.1875 z M 87.84375 48.78125 L 90.9375 48.8125 L 96.0625 60.25 L 94.875 62.375 L 92.875 61.5 L 87.84375 48.78125 z M 87.4375 48.8125 L 92.34375 61.6875 L 90.5 63.875 L 88.15625 63.3125 L 84.46875 51.625 L 87.4375 48.8125 z M 91.53125 48.84375 L 96.25 48.90625 L 100.53125 58.53125 L 99.09375 60.875 L 96.59375 60.0625 L 91.53125 48.84375 z M 96.84375 48.90625 L 100.84375 48.9375 L 104.28125 57.0625 L 103.125 58.9375 L 100.96875 58.34375 L 96.84375 48.90625 z M 101.34375 48.96875 L 104.5625 49 L 107.71875 55.75 L 106.5625 57.875 L 104.71875 56.90625 L 101.34375 48.96875 z M 105.28125 49 L 108.9375 49.0625 L 111.5625 54.25 L 110.5 56.3125 L 108.15625 55.5625 L 105.28125 49 z M 109.65625 49.0625 L 113 49.09375 L 114.84375 52.96875 C 114.31287 53.11355 114.30469 54.667701 114 54.8125 L 112.21875 54 L 109.65625 49.0625 z M 113.625 49.125 L 116.71875 49.15625 L 118.0625 51.75 L 117.09375 53.3125 L 115.53125 52.71875 L 113.625 49.125 z M 17.125 49.15625 L 26.65625 56 L 26.65625 57.96875 L 17.09375 51.125 L 17.125 49.15625 z M 117.21875 49.15625 L 120.625 49.1875 L 121.1875 50.53125 L 120.34375 52.4375 L 118.5625 51.53125 L 117.21875 49.15625 z M 121.21875 49.21875 L 124.5 49.25 L 123.21875 51 L 121.71875 50.3125 L 121.21875 49.21875 z M 15.28125 49.34375 L 15.125 52.5 L 14.4375 50.0625 L 15.28125 49.34375 z M 5.1875 49.53125 L 58.75 88.03125 L 58.71875 90.1875 L 34.75 73 L 34.75 72.125 L 31.28125 69.4375 L 31.4375 69.0625 L 28.625 67.1875 L 28.3125 67.3125 L 24.96875 64.90625 L 25.0625 64.65625 L 22.53125 62.875 L 22.03125 62.8125 L 20.6875 61.84375 L 19.59375 62.09375 L 5.15625 51.71875 L 5.1875 49.53125 z M 124.59375 49.96875 L 124.59375 51.4375 L 99.15625 61.375 L 101.03125 59.0625 L 103.09375 59.625 L 104.6875 57.65625 L 106.65625 58.28125 L 108.15625 56.3125 L 110.59375 56.8125 L 112 54.8125 L 114.1875 55.25 L 115.375 53.53125 L 117.3125 53.90625 L 118.46875 52.34375 L 120.53125 52.96875 L 121.71875 51.09375 L 123.40625 51.59375 L 124.59375 49.96875 z M 13.5625 50.78125 L 14.1875 52.6875 L 12.53125 51.4375 L 13.5625 50.78125 z M 17.09375 51.25 L 26.625 58.09375 L 26.625 60.1875 L 17.09375 53.3125 L 17.09375 51.25 z M 124.59375 51.65625 L 124.625 53.6875 L 62.875 77.75 L 61.03125 76.4375 L 124.59375 51.65625 z M 5.15625 51.875 L 19.4375 62.125 L 17.3125 62.625 L 5.15625 53.875 L 5.15625 51.875 z M 84.125 51.9375 L 87.65625 63.5 L 86.28125 65.53125 L 84.0625 64.90625 L 81.125 54.75 L 84.125 51.9375 z M 17.09375 53.4375 L 26.625 60.3125 L 26.59375 62.34375 L 17.0625 55.53125 L 17.09375 53.4375 z M 124.625 53.90625 L 124.625 56.125 L 65.09375 79.3125 L 63.09375 77.90625 L 124.625 53.90625 z M 5.15625 54 L 17.1875 62.65625 L 14.71875 63.21875 L 5.15625 56.34375 L 5.125 56.375 L 5.15625 54 z M 80.71875 55.125 L 83.59375 65.09375 L 82.0625 67.21875 L 79.875 66.53125 L 78.125 57.5625 L 80.71875 55.125 z M 27.25 55.5 L 32.8125 59.25 L 32.6875 67.65625 L 27.125 63.5 L 27.25 55.5 z M 124.625 56.28125 L 124.625 58.15625 L 67 80.65625 L 65.28125 79.4375 L 124.625 56.28125 z M 5.125 56.46875 L 14.5625 63.25 L 14.5 63.28125 L 12.125 63.8125 L 5.15625 58.8125 L 5.125 58.875 L 5.125 56.46875 z M 27.84375 56.71875 L 27.875 63 L 32.03125 66.03125 L 32.0625 59.625 L 27.84375 56.71875 z M 28.34375 57.78125 L 28.84375 58.09375 L 30.21875 60.9375 L 31.4375 59.78125 L 31.6875 59.9375 L 31.65625 60.46875 L 30.46875 61.53125 L 31.5 64.40625 L 31.46875 64.90625 L 31 64.53125 L 30.0625 61.6875 L 28.59375 62.75 L 28.5 62.6875 L 28.5 62.34375 L 30 61.1875 L 28.375 58.34375 L 28.34375 57.78125 z M 77.71875 57.9375 L 79.375 66.71875 L 78.46875 68.40625 L 76.71875 67.75 C 76.256305 65.174894 75.835433 62.594541 75.5 60 L 77.71875 57.9375 z M 29.21875 58.34375 L 31.15625 59.59375 L 30.25 60.46875 L 29.21875 58.34375 z M 124.625 58.34375 L 124.625 60.46875 L 69.0625 82.125 L 67.125 80.75 L 124.625 58.34375 z M 28.375 58.71875 L 29.5625 60.96875 L 28.46875 61.84375 L 28.375 58.71875 z M 5.125 58.96875 L 11.90625 63.875 L 11.4375 63.96875 L 11.40625 65.4375 L 11.125 65.5 L 5.09375 61.15625 L 5.125 58.96875 z M 75.03125 60.40625 C 75.267584 62.917257 75.721128 65.48318 76.15625 67.96875 L 74.65625 70.15625 L 72.21875 69.46875 L 71.71875 63.53125 L 75.03125 60.40625 z M 124.625 60.65625 L 124.65625 62.84375 L 109.125 68.90625 L 109.125 67.59375 L 83.5625 77.75 L 83.5625 78.875 L 71.25 83.65625 L 69.25 82.25 L 124.625 60.65625 z M 96.625 60.75 L 99.09375 61.40625 L 60.875 76.34375 L 59.4375 75.3125 L 59.4375 75.125 L 62.53125 75.21875 L 65.09375 72.9375 L 66.71875 73.59375 L 68.28125 71.71875 L 70.40625 72.46875 L 72.09375 70.21875 L 74.8125 70.8125 L 76.625 68.46875 L 78.71875 69.21875 L 79.875 67.21875 L 82.15625 67.59375 L 83.96875 65.65625 L 86.375 66.09375 L 88.0625 64.0625 L 90.78125 64.46875 L 92.75 62.25 L 94.875 62.9375 L 96.625 60.75 z M 33.3125 60.8125 L 42.1875 67.1875 L 42.15625 69.09375 L 33.3125 62.75 L 33.3125 60.8125 z M 31.65625 60.875 L 31.5 64.03125 L 30.8125 61.59375 L 31.65625 60.875 z M 5.09375 61.28125 L 10.96875 65.53125 L 8.46875 66.125 L 5.09375 63.6875 L 5.09375 61.28125 z M 20.59375 62.3125 L 21.75 63.09375 L 20.84375 63.34375 L 19.75 62.53125 L 20.59375 62.3125 z M 29.9375 62.3125 L 30.5625 64.21875 L 28.90625 62.96875 L 29.9375 62.3125 z M 19.625 62.5625 L 20.6875 63.375 L 19.40625 63.6875 L 18.3125 62.875 L 19.625 62.5625 z M 33.3125 62.875 L 42.15625 69.25 L 42.125 71.3125 L 33.34375 65 L 33.3125 62.875 z M 18.1875 62.90625 L 19.28125 63.71875 L 17.78125 64.09375 L 16.6875 63.28125 L 18.1875 62.90625 z M 124.65625 63.03125 L 124.65625 65.125 L 109.125 71.1875 L 109.125 69.09375 L 124.65625 63.03125 z M 22.5625 63.25 L 24.71875 64.875 L 15.75 67.59375 L 13.25 65.78125 L 22.5625 63.25 z M 16.5625 63.3125 L 17.65625 64.15625 L 16.15625 64.53125 L 15.0625 63.6875 L 16.5625 63.3125 z M 14.875 63.75 L 15.96875 64.5625 L 14.3125 65 L 13.1875 64.1875 L 14.875 63.75 z M 5.09375 63.84375 L 8.28125 66.15625 L 6 66.6875 L 5.0625 66 L 5.09375 63.84375 z M 71.125 64.0625 L 71.71875 69.6875 L 70.375 71.6875 L 68.46875 70.9375 L 68.09375 66.90625 L 71.125 64.0625 z M 13.03125 64.21875 L 14.125 65.0625 L 13.09375 65.3125 L 12.125 64.4375 L 13.03125 64.21875 z M 11.84375 65.0625 L 12.78125 65.75 L 12.78125 66.96875 L 11.8125 66.28125 L 11.84375 65.0625 z M 33.34375 65.125 L 42.125 71.4375 L 42.09375 73.53125 L 33.34375 67.21875 L 33.34375 65.125 z M 24.5625 65.28125 L 27.53125 67.5 L 26.75 67.6875 L 23.78125 65.5 L 24.5625 65.28125 z M 124.65625 65.3125 L 124.65625 67.375 L 109.09375 73.4375 L 109.125 71.375 L 124.65625 65.3125 z M 23.59375 65.5625 L 26.53125 67.75 L 25.3125 68.03125 L 22.40625 65.90625 L 23.59375 65.5625 z M 11.375 65.875 L 11.375 66.3125 L 10.96875 66 L 11.375 65.875 z M 22.21875 65.96875 L 25.0625 68.09375 L 23.65625 68.4375 L 20.84375 66.34375 L 22.21875 65.96875 z M 10.84375 66.03125 L 11.375 66.4375 L 11.34375 66.96875 L 10.625 67.15625 L 9.53125 66.34375 L 10.84375 66.03125 z M 5.0625 66.09375 L 5.90625 66.71875 L 5.71875 66.75 L 5.53125 66.78125 L 5.0625 66.46875 L 5.0625 66.09375 z M 9.40625 66.375 L 10.5 67.1875 L 9 67.5625 L 7.90625 66.75 L 9.40625 66.375 z M 13.21875 66.375 L 15.3125 67.875 L 15.125 75.6875 L 13.09375 74.34375 L 13.21875 66.375 z M 11.8125 66.40625 L 12.78125 67.15625 L 12.75 68.625 L 11.78125 67.875 L 11.8125 66.40625 z M 20.625 66.40625 L 23.40625 68.5 L 22 68.84375 L 19.25 66.8125 L 20.625 66.40625 z M 7.78125 66.78125 L 8.875 67.625 L 7.375 68 L 6.28125 67.15625 L 7.78125 66.78125 z M 19.03125 66.875 L 21.75 68.90625 L 20.09375 69.3125 L 17.4375 67.34375 L 19.03125 66.875 z M 42.75 67.1875 L 48.3125 70.9375 L 48.28125 79.4375 L 42.625 75.1875 L 42.75 67.1875 z M 6.09375 67.21875 L 7.1875 68.03125 L 5.53125 68.46875 L 4.40625 67.65625 L 6.09375 67.21875 z M 67.625 67.34375 L 67.90625 71.15625 L 66.5 73.0625 L 65.1875 72.21875 L 64.9375 69.875 L 67.625 67.34375 z M 11.34375 67.375 L 11.25 69.78125 L 6.96875 71.0625 L 4.46875 69.25 L 11.34375 67.375 z M 17.25 67.375 L 19.875 69.34375 L 19.03125 69.5625 L 16.40625 67.625 L 17.25 67.375 z M 28.5625 67.46875 L 30.9375 69.09375 L 21.78125 72 L 19.46875 70.21875 L 28.5625 67.46875 z M 124.65625 67.53125 L 124.6875 69.84375 L 122.84375 70.5625 C 122.72018 70.543004 122.59275 70.51401 122.46875 70.5 C 122.40006 70.496062 122.25673 70.69207 122.1875 70.6875 C 122.11185 70.682501 122.10734 70.47386 122.03125 70.46875 C 121.79111 70.452633 121.55229 70.44069 121.3125 70.4375 C 121.21593 70.432202 121.06529 70.75082 120.96875 70.75 C 120.87803 70.74923 120.84069 70.43574 120.75 70.4375 C 120.48817 70.442602 120.23045 70.46466 119.96875 70.46875 C 119.90487 70.472126 119.84505 70.77718 119.78125 70.78125 C 119.72068 70.785121 119.65423 70.4955 119.59375 70.5 C 119.33784 70.519067 119.09699 70.53117 118.84375 70.5625 C 118.76118 70.572717 118.67594 70.89463 118.59375 70.90625 C 118.51679 70.917124 118.42033 70.61286 118.34375 70.625 C 118.09069 70.665122 117.8416 70.72647 117.59375 70.78125 C 117.52791 70.795808 117.50291 71.04685 117.4375 71.0625 C 117.3677 71.079192 117.25676 70.85702 117.1875 70.875 C 116.94368 70.938261 116.705 71.01382 116.46875 71.09375 C 116.40628 71.114878 116.40562 71.38389 116.34375 71.40625 C 116.28488 71.427519 116.1833 71.19635 116.125 71.21875 C 115.8496 71.324571 115.57374 71.43013 115.3125 71.5625 C 115.23237 71.603103 115.17239 71.95677 115.09375 72 C 115.01106 72.045458 114.92471 71.79531 114.84375 71.84375 C 114.51242 72.042032 114.17368 72.24851 113.875 72.5 C 113.8203 72.546052 113.83117 72.85491 113.78125 72.90625 C 113.7082 72.98137 113.57569 72.80067 113.5 72.875 C 113.16463 73.204342 112.84075 73.55231 112.5625 73.96875 C 112.52359 74.171049 112.45687 74.402976 112.40625 74.625 L 109.09375 75.90625 L 109.09375 73.625 L 124.65625 67.53125 z M 4.25 67.6875 L 5.34375 68.53125 L 4.3125 68.78125 L 3.34375 67.90625 L 4.25 67.6875 z M 11.75 68.03125 L 12.75 68.78125 L 12.75 70.5 L 11.71875 69.75 L 11.75 68.03125 z M 15.96875 68.125 L 18.9375 70.3125 L 18.9375 71.53125 L 15.90625 69.34375 L 15.96875 68.125 z M 108.5625 68.375 L 108.5 86.125 L 107.8125 86.375 L 107.8125 69.84375 L 84.96875 79.15625 L 84.96875 91.1875 C 84.877812 90.464745 84.764948 89.739028 84.59375 89 L 84.5625 89.03125 C 84.539698 88.734259 84.464822 88.43328 84.25 88.0625 C 84.177225 88.019242 84.105444 87.977966 84.03125 87.9375 L 83.9375 78.21875 L 108.5625 68.375 z M 43.34375 68.40625 L 43.375 74.6875 L 47.53125 77.71875 L 47.5625 71.3125 L 43.34375 68.40625 z M 3.0625 68.53125 L 4 69.21875 L 4 70.4375 L 3.03125 69.75 L 3.0625 68.53125 z M 43.84375 69.46875 L 44.34375 69.78125 L 45.71875 72.625 L 46.9375 71.46875 L 47.1875 71.625 L 47.15625 72.15625 L 45.96875 73.21875 L 47 76.09375 L 46.96875 76.59375 L 46.5 76.21875 L 45.5625 73.375 L 44.09375 74.4375 L 44 74.375 L 44 74.03125 L 45.5 72.875 L 43.875 70.03125 L 43.84375 69.46875 z M 15.90625 69.53125 L 18.9375 71.78125 L 18.90625 73.15625 L 15.84375 70.90625 L 15.90625 69.53125 z M 30.4375 69.6875 L 33.25 71.78125 L 32.5625 71.96875 L 29.75 69.90625 L 30.4375 69.6875 z M 4.4375 69.84375 L 6.53125 71.34375 L 6.34375 79.15625 L 4.3125 77.8125 L 4.4375 69.84375 z M 3.03125 69.875 L 4 70.625 L 3.96875 72.09375 L 3 71.34375 L 3.03125 69.875 z M 11.71875 69.90625 L 12.75 70.6875 L 12.71875 72.4375 L 11.65625 71.65625 L 11.71875 69.90625 z M 29.46875 70 L 32.25 72.0625 L 31.1875 72.375 L 28.40625 70.3125 L 29.46875 70 z M 124.6875 70 L 124.6875 71.0625 C 124.67905 71.05893 124.6647 71.066037 124.65625 71.0625 C 124.60877 71.042633 124.54774 71.39384 124.5 71.375 C 124.44883 71.354796 124.42644 70.98778 124.375 70.96875 C 124.12476 70.876203 123.88059 70.7846 123.625 70.71875 C 123.5635 70.702899 123.46799 70.95185 123.40625 70.9375 C 123.33588 70.921136 123.28939 70.63945 123.21875 70.625 C 123.18885 70.618884 123.15494 70.630778 123.125 70.625 L 124.6875 70 z M 11.25 70.03125 L 11.21875 70.84375 L 10.46875 70.28125 L 11.25 70.03125 z M 44.71875 70.03125 L 46.65625 71.28125 L 45.75 72.15625 L 44.71875 70.03125 z M 64.4375 70.3125 L 64.59375 72.4375 L 62.5625 74.6875 L 60.46875 74.03125 L 64.4375 70.3125 z M 10.25 70.34375 L 11.21875 71.0625 L 11.1875 72.6875 L 8.65625 70.8125 L 10.25 70.34375 z M 28.15625 70.40625 L 30.875 72.46875 L 29.625 72.84375 L 26.84375 70.8125 L 28.15625 70.40625 z M 43.875 70.40625 L 45.0625 72.65625 L 43.96875 73.53125 L 43.875 70.40625 z M 19.375 70.65625 L 21.59375 72.53125 L 21.25 80.40625 L 19.3125 78.90625 L 19.375 70.65625 z M 107.28125 70.65625 L 107.28125 71.40625 L 86.21875 94.75 L 85.71875 94.96875 L 85.6875 94.09375 L 106.125 71.15625 L 107.28125 70.65625 z M 8.46875 70.84375 L 11.09375 72.8125 L 10.25 73.03125 L 7.625 71.09375 L 8.46875 70.84375 z M 26.59375 70.875 L 29.3125 72.9375 L 28.03125 73.3125 L 25.3125 71.28125 L 26.59375 70.875 z M 15.84375 71.125 L 18.90625 73.4375 L 18.90625 75.03125 L 15.78125 72.75 L 15.84375 71.125 z M 120.78125 71.125 C 120.80239 71.125742 120.82262 71.12414 120.84375 71.125 L 120.78125 71.96875 C 120.47166 71.946452 120.16695 71.90498 119.875 71.90625 L 119.875 71.1875 C 120.17628 71.173562 120.48346 71.13376 120.78125 71.125 z M 121 71.125 C 121.32799 71.142922 121.64579 71.17009 121.96875 71.21875 L 121.84375 72.0625 C 121.554 72.019652 121.27322 71.99313 121 71.96875 L 121 71.125 z M 119.6875 71.1875 L 119.65625 71.90625 C 119.32922 71.914402 118.99794 71.93149 118.6875 71.96875 L 118.6875 71.25 C 119.01873 71.218872 119.35488 71.20474 119.6875 71.1875 z M 118.5 71.25 L 118.46875 71.96875 C 118.18166 72.009572 117.90311 72.09118 117.625 72.15625 L 117.59375 71.375 C 117.89223 71.324962 118.19551 71.28176 118.5 71.25 z M 122.15625 71.25 C 122.5159 71.311492 122.86667 71.42537 123.21875 71.53125 L 123.21875 72.3125 C 122.83591 72.226502 122.47925 72.18344 122.125 72.125 L 122.15625 71.25 z M 25.03125 71.375 L 27.71875 73.40625 L 26.25 73.84375 L 23.5625 71.84375 L 25.03125 71.375 z M 117.40625 71.40625 L 117.46875 72.1875 C 117.12952 72.272562 116.80289 72.38028 116.46875 72.5 L 116.4375 71.625 C 116.75215 71.534342 117.07828 71.46655 117.40625 71.40625 z M 2.96875 71.5 L 3.96875 72.25 L 3.96875 73.96875 L 2.9375 73.21875 L 2.96875 71.5 z M 123.375 71.5625 C 123.68855 71.663212 124.006 71.79668 124.3125 71.9375 L 124.28125 72.5625 C 123.98878 72.483872 123.68214 72.40798 123.40625 72.34375 L 123.375 71.5625 z M 7.1875 71.59375 L 10.15625 73.78125 L 10.15625 75 L 7.125 72.8125 L 7.1875 71.59375 z M 105.125 71.59375 L 101.5 75.6875 L 96.1875 77.625 L 96.15625 75.5625 L 105.125 71.59375 z M 116.28125 71.6875 C 116.26685 71.989872 116.23315 72.29027 116.21875 72.59375 C 115.90293 72.715032 115.56994 72.84955 115.25 73 L 115.25 72.09375 C 115.58123 71.931682 115.92398 71.79822 116.28125 71.6875 z M 11.65625 71.84375 L 12.71875 72.65625 L 12.71875 73.78125 L 11.625 73 L 11.65625 71.84375 z M 23.25 71.9375 L 25.9375 73.9375 L 25.21875 74.15625 L 22.53125 72.15625 L 23.25 71.9375 z M 48.90625 72 L 58.78125 79.09375 L 58.78125 81.03125 L 48.875 73.9375 L 48.90625 72 z M 124.46875 72 C 124.55166 72.040132 124.63641 72.08169 124.71875 72.125 C 124.92349 72.388672 125.05109 72.58384 125.09375 72.78125 C 124.84942 72.708292 124.63927 72.65752 124.40625 72.59375 L 124.46875 72 z M 107.28125 72.21875 L 107.25 73.5625 L 105.5 74.21875 L 107.28125 72.21875 z M 115 72.21875 L 115 73.125 C 114.65497 73.294032 114.29718 73.48706 113.9375 73.6875 L 113.90625 72.96875 C 114.24129 72.662462 114.61223 72.43066 115 72.21875 z M 33.9375 72.34375 L 34.25 80.625 L 25.5625 83.3125 L 25.59375 74.6875 L 33.9375 72.34375 z M 119.15625 72.40625 C 119.76369 72.374632 120.37018 72.38806 120.96875 72.4375 C 122.35997 72.552402 123.70792 72.84713 125.0625 73.1875 C 125.0085 73.347562 124.90187 73.51722 124.75 73.65625 C 124.71724 73.686238 124.75516 74.06418 124.71875 74.09375 C 124.67961 74.125543 124.57421 73.78097 124.53125 73.8125 C 124.19782 74.115554 123.76404 74.26954 123.375 74.46875 C 123.31593 74.49205 123.27863 74.78957 123.21875 74.8125 C 123.15883 74.835443 123.09068 74.57163 123.03125 74.59375 C 122.56448 74.767499 122.07419 74.92669 121.59375 75.0625 C 121.54661 75.075829 121.57847 75.33082 121.53125 75.34375 C 121.48718 75.355819 121.35663 75.11328 121.3125 75.125 C 120.90299 75.23382 120.50446 75.32875 120.09375 75.40625 C 120.04095 75.416211 119.99025 75.64683 119.9375 75.65625 C 119.88781 75.665123 119.83089 75.46037 119.78125 75.46875 C 119.35881 75.540107 118.94658 75.60056 118.53125 75.625 C 118.46632 75.628821 118.40838 75.87231 118.34375 75.875 C 118.26839 75.878138 118.16867 75.62342 118.09375 75.625 C 117.65688 75.634223 117.22923 75.61001 116.8125 75.5625 C 116.74485 75.554787 116.69198 75.85305 116.625 75.84375 C 116.55622 75.83419 116.47428 75.51126 116.40625 75.5 C 115.99112 75.4313 115.60082 75.35485 115.21875 75.21875 C 115.15218 75.195029 114.97165 75.49463 114.90625 75.46875 C 114.83572 75.440837 114.88162 75.06172 114.8125 75.03125 C 114.44236 74.868081 114.07381 74.67809 113.75 74.4375 C 113.71974 74.415021 113.59231 74.61694 113.5625 74.59375 C 113.52754 74.566548 113.59683 74.30943 113.5625 74.28125 C 115.46853 73.028722 117.3339 72.50112 119.15625 72.40625 z M 47.15625 72.5625 L 47 75.71875 L 46.3125 73.28125 L 47.15625 72.5625 z M 22.125 72.6875 L 24.96875 74.78125 L 24.96875 76 L 22.0625 73.875 L 22.125 72.6875 z M 15.78125 72.9375 L 18.90625 75.3125 L 18.875 77 L 15.71875 74.625 L 15.78125 72.9375 z M 7.125 73 L 10.15625 75.25 L 10.125 76.625 L 7.0625 74.375 L 7.125 73 z M 113.75 73.125 L 113.71875 73.8125 C 113.58222 73.890082 113.45212 73.94946 113.3125 74.03125 C 113.25204 73.974562 113.18316 73.93512 113.125 73.875 C 113.31522 73.604342 113.52932 73.34392 113.75 73.125 z M 34.75 73.15625 L 58.71875 90.375 L 58.71875 92.375 L 34.75 75.15625 L 34.75 73.15625 z M 2.9375 73.375 L 3.96875 74.15625 L 3.9375 75.90625 L 2.875 75.125 L 2.9375 73.375 z M 11.28125 73.5 L 13.6875 75.25 L 13 75.46875 L 10.6875 73.6875 L 11.28125 73.5 z M 33.1875 73.625 L 26.71875 75.4375 L 26.375 82.0625 L 32.9375 79.875 L 33.1875 73.625 z M 125.5 73.65625 C 125.64502 74.163892 125.75282 74.66617 125.84375 75.15625 C 125.57691 75.283602 125.28329 75.40534 125 75.53125 C 124.9669 75.082022 124.92822 74.63429 124.875 74.1875 C 125.12106 74.025682 125.33073 73.84142 125.5 73.65625 z M 32.875 73.8125 L 32.84375 74.25 L 32.4375 73.9375 L 32.875 73.8125 z M 32.34375 73.96875 L 32.84375 74.40625 L 32.8125 75.53125 L 31.03125 74.375 L 32.34375 73.96875 z M 107.25 73.96875 L 107.21875 77.875 L 100.0625 80.3125 L 104.9375 74.84375 L 107.25 73.96875 z M 45.4375 74 L 46.0625 75.90625 L 44.40625 74.65625 L 45.4375 74 z M 48.875 74.0625 L 58.78125 81.1875 L 58.78125 83.25 L 48.875 76.1875 L 48.875 74.0625 z M 10.59375 74.125 L 12.8125 76 L 12.46875 83.875 L 10.53125 82.375 L 10.59375 74.125 z M 22.0625 74.15625 L 24.9375 76.34375 L 24.9375 77.625 L 22 75.4375 L 22.0625 74.15625 z M 124.71875 74.28125 C 124.76652 74.718142 124.81337 75.15538 124.84375 75.59375 C 124.37462 75.798972 123.88555 76.0341 123.375 76.21875 C 123.36041 75.791042 123.33492 75.36559 123.3125 74.9375 C 123.47895 74.887072 123.65943 74.82837 123.8125 74.78125 C 124.13866 74.621242 124.44539 74.4491 124.71875 74.28125 z M 30.8125 74.4375 L 32.8125 75.6875 L 32.75 77.625 L 28.96875 75 L 30.8125 74.4375 z M 7.0625 74.59375 L 10.125 76.90625 L 10.125 78.5 L 7 76.21875 L 7.0625 74.59375 z M 113.0625 74.65625 C 113.12854 74.727382 113.21092 74.77875 113.28125 74.84375 C 113.20252 75.336092 113.1189 75.79474 113.0625 76.25 C 112.90337 76.186172 112.75407 76.13356 112.59375 76.0625 C 112.72819 75.601782 112.87388 75.12297 113.0625 74.65625 z M 112.375 74.8125 C 112.29018 75.175666 112.20611 75.532445 112.125 75.875 C 111.99018 75.824312 111.85426 75.77344 111.71875 75.71875 C 111.52163 76.303062 111.29558 76.873981 111.28125 77.53125 L 109.09375 78.375 L 109.09375 76.09375 L 112.375 74.8125 z M 15.6875 74.90625 L 18.875 77.28125 L 18.875 78.25 L 15.65625 75.90625 L 15.6875 74.90625 z M 113.40625 74.96875 C 113.8001 75.300522 114.2556 75.54398 114.75 75.71875 C 114.70282 76.069602 114.68853 76.42444 114.65625 76.78125 C 114.19321 76.658432 113.72456 76.49518 113.25 76.3125 C 113.29966 75.862912 113.33644 75.41074 113.40625 74.96875 z M 123.15625 74.96875 C 123.17841 75.406862 123.20453 75.84314 123.21875 76.28125 C 122.72789 76.454322 122.21306 76.58232 121.6875 76.71875 C 121.66957 76.282552 121.65547 75.8439 121.625 75.40625 C 122.17328 75.263602 122.68351 75.11079 123.15625 74.96875 z M 28.8125 75.03125 L 28.78125 75.09375 L 32.75 77.8125 L 32.6875 79.65625 L 27.1875 75.53125 L 28.8125 75.03125 z M 34.75 75.28125 L 58.71875 92.5 L 58.71875 93.65625 C 58.689662 93.679951 58.653761 93.694534 58.625 93.71875 C 58.570306 93.764803 58.58117 94.04241 58.53125 94.09375 C 58.458199 94.16887 58.325694 94.01942 58.25 94.09375 C 58.181817 94.160708 58.129446 94.243584 58.0625 94.3125 L 34.78125 77.59375 L 34.75 75.28125 z M 2.875 75.3125 L 3.9375 76.125 L 3.9375 77.25 L 2.84375 76.46875 L 2.875 75.3125 z M 126.125 75.40625 C 126.62231 75.346732 127.1447 75.75972 126.59375 76.65625 C 125.58324 77.333452 124.51865 77.83063 123.40625 78.1875 C 123.40609 78.177122 123.4064 78.16663 123.40625 78.15625 L 123.28125 78.21875 C 119.05647 79.530716 114.42357 78.80382 111.71875 77.71875 C 111.47235 77.351252 111.67276 76.62671 111.9375 76.375 C 115.50452 77.632502 120.28152 78.37378 126.125 75.40625 z M 121.46875 75.4375 C 121.49574 75.879222 121.51358 76.31208 121.53125 76.75 C 121.04444 76.871442 120.5451 76.95506 120.03125 77.03125 L 120.03125 75.75 C 120.52424 75.653682 121.00388 75.55595 121.46875 75.4375 z M 14.0625 75.53125 L 16.78125 77.53125 L 16.4375 77.625 L 13.75 75.625 L 14.0625 75.53125 z M 27 75.625 L 32.53125 79.75 L 30.53125 80.3125 C 28.816781 78.906194 28.48423 78.844381 27 77.34375 L 27 75.625 z M 22 75.75 L 24.9375 77.9375 L 24.90625 79.53125 L 21.9375 77.3125 L 22 75.75 z M 114.90625 75.78125 C 115.41276 75.942542 115.9618 75.99416 116.53125 76.03125 C 116.50557 76.394262 116.48745 76.75876 116.46875 77.125 C 115.93304 77.062002 115.39785 76.95107 114.84375 76.8125 C 114.86972 76.468202 114.86945 76.1242 114.90625 75.78125 z M 119.875 75.78125 L 119.875 77.0625 C 119.40576 77.126802 118.92726 77.17132 118.4375 77.1875 L 118.4375 76 C 118.92351 75.949972 119.39408 75.87148 119.875 75.78125 z M 59.53125 75.875 C 59.573754 75.861301 59.610743 75.863677 59.65625 75.875 C 59.708258 75.887941 59.761023 75.918788 59.8125 75.96875 L 74.875 86.90625 C 75.104668 87.075223 75.852269 87.699921 74.8125 88.34375 L 74.15625 87.875 C 74.348957 87.62971 74.60904 87.469204 75 87.25 L 74.84375 86.96875 C 74.164659 87.03311 74.048399 87.370295 74 87.75 L 59.5 77.3125 C 59.040117 76.643411 59.233722 75.970891 59.53125 75.875 z M 95.28125 75.9375 L 95.28125 77.9375 L 89.4375 80.09375 L 86.875 79.21875 L 95.28125 75.9375 z M 118.28125 76.03125 L 118.28125 77.21875 C 117.75185 77.230002 117.20738 77.21302 116.65625 77.15625 C 116.67193 76.790732 116.7001 76.42621 116.71875 76.0625 C 117.22603 76.084802 117.75402 76.07968 118.28125 76.03125 z M 13.34375 76.15625 L 16.1875 78.25 L 16.1875 79.46875 L 13.28125 77.34375 L 13.34375 76.15625 z M 48.875 76.3125 L 58.78125 83.40625 L 58.75 85.46875 L 48.84375 78.34375 L 48.875 76.3125 z M 100.875 76.34375 L 96.21875 81.59375 L 96.1875 78.125 L 100.875 76.34375 z M 7 76.40625 L 10.125 78.78125 L 10.09375 80.46875 L 6.9375 78.09375 L 7 76.40625 z M 126.0625 77.34375 C 126.10893 78.672632 126.00113 79.95892 125.71875 81.21875 C 125.50162 81.320018 125.26003 81.40082 125.03125 81.5 C 125.08828 80.257638 125.11351 79.0153 125.09375 77.78125 C 125.41851 77.640642 125.73457 77.5083 126.0625 77.34375 z M 27.03125 77.5625 C 28.334744 78.760608 28.823287 79.21139 30.28125 80.375 L 28.8125 80.78125 L 27.03125 79.21875 L 27.03125 77.5625 z M 21.9375 77.59375 L 24.90625 79.84375 L 24.875 81.46875 L 21.84375 79.21875 L 21.9375 77.59375 z M 13.28125 77.625 L 16.15625 79.8125 L 16.15625 81.09375 L 13.21875 78.90625 L 13.28125 77.625 z M 111.3125 77.71875 C 111.31911 77.881887 111.30566 78.042406 111.34375 78.21875 C 111.46573 78.228062 111.59628 78.23944 111.71875 78.25 C 111.66879 78.721769 111.67074 79.191153 111.65625 79.65625 L 109.09375 80.65625 L 109.09375 78.59375 L 111.3125 77.71875 z M 34.78125 77.75 L 57.96875 94.40625 C 57.739792 94.648738 57.508199 94.894615 57.3125 95.1875 C 57.255215 95.485333 57.172183 95.824544 57.09375 96.15625 L 34.78125 80.125 L 34.78125 77.75 z M 59.4375 77.75 L 60.625 78.625 L 59.40625 79.09375 L 59.4375 77.75 z M 124.9375 77.84375 C 124.95842 79.078592 124.96044 80.31976 124.90625 81.5625 C 124.42961 81.765988 123.92862 81.94381 123.40625 82.125 C 123.42804 80.889248 123.42304 79.643094 123.40625 78.40625 C 123.91307 78.244982 124.4223 78.06119 124.9375 77.84375 z M 17.4375 78 L 18.46875 78.75 L 17.9375 78.90625 L 17.59375 85.53125 L 18.65625 85.1875 L 18.625 86.1875 L 16.78125 86.78125 L 16.8125 78.15625 L 17.4375 78 z M 112.09375 78.28125 C 112.35903 78.357342 112.6363 78.43089 112.90625 78.5 C 112.83775 79.945236 112.88229 81.17886 112.96875 82.34375 C 112.69181 82.246188 112.4045 82.14867 112.125 82.03125 C 112.00172 80.776308 111.94411 79.505214 112.09375 78.28125 z M 107.21875 78.34375 L 107.1875 81.25 L 100.625 83.5625 L 97.875 82.78125 L 99.4375 81.03125 L 107.21875 78.34375 z M 6.90625 78.375 L 10.09375 80.75 L 10.09375 81.71875 L 6.875 79.375 L 6.90625 78.375 z M 95.28125 78.46875 L 95.28125 81.9375 L 95.125 82 L 90.28125 80.375 L 95.28125 78.46875 z M 123.25 78.46875 C 123.25928 78.465892 123.27196 78.47163 123.28125 78.46875 C 123.29522 79.705776 123.27002 80.95169 123.25 82.1875 C 122.77007 82.349668 122.26376 82.49546 121.75 82.625 C 121.77617 81.366268 121.77288 80.112294 121.75 78.84375 C 122.24212 78.739662 122.74921 78.62286 123.25 78.46875 z M 113.0625 78.53125 C 113.53455 78.649182 114.01429 78.75244 114.5 78.84375 C 114.46238 80.138906 114.52798 81.47588 114.59375 82.8125 C 114.09646 82.700328 113.60125 82.57985 113.09375 82.40625 C 113.01812 81.092358 113.00019 79.795904 113.0625 78.53125 z M 60.84375 78.78125 L 61.21875 79.0625 L 61.21875 80.8125 L 59.4375 81.5 L 59.40625 81.46875 L 59.40625 79.34375 L 60.84375 78.78125 z M 114.71875 78.875 C 115.27388 78.973812 115.83431 79.07022 116.40625 79.125 C 116.38154 80.430196 116.4007 81.75784 116.4375 83.09375 C 115.88052 83.043058 115.32357 82.96649 114.75 82.84375 C 114.70186 81.517878 114.68132 80.189874 114.71875 78.875 z M 18.6875 78.90625 L 18.9375 79.09375 L 18.84375 79.125 L 18.84375 79.3125 L 18.40625 79 L 18.6875 78.90625 z M 121.59375 78.90625 C 121.61859 80.173086 121.61584 81.44006 121.59375 82.6875 C 121.09012 82.809618 120.56328 82.89017 120.03125 82.96875 L 120.03125 79.09375 C 120.54558 79.039352 121.06898 79.01186 121.59375 78.90625 z M 18.21875 79.09375 L 18.84375 79.5625 L 18.78125 81.34375 C 18.603857 81.185882 18.44261 81.038833 18.21875 80.8125 L 18.21875 79.09375 z M 83.5625 79.09375 L 83.5625 81.125 L 73.3125 85.125 L 71.46875 83.8125 L 83.5625 79.09375 z M 119.875 79.125 L 119.90625 83 C 119.42376 83.067368 118.94038 83.1026 118.4375 83.125 L 118.4375 79.21875 C 118.91016 79.212292 119.39265 79.17148 119.875 79.125 z M 116.59375 79.15625 C 117.15075 79.204202 117.70924 79.2215 118.28125 79.21875 L 118.3125 83.15625 C 117.75427 83.176368 117.17358 83.14022 116.59375 83.09375 C 116.56656 81.773368 116.56901 80.456004 116.59375 79.15625 z M 13.21875 79.21875 L 16.15625 81.40625 L 16.125 83 L 13.15625 80.78125 L 13.21875 79.21875 z M 21.84375 79.46875 L 24.875 81.78125 L 24.875 82.5625 L 21.8125 80.34375 L 21.84375 79.46875 z M 27.03125 79.46875 L 28.625 80.84375 L 27.03125 81.28125 L 27.03125 79.46875 z M 61.78125 79.46875 L 73.34375 87.9375 L 72.78125 94.4375 L 61.78125 86.53125 L 61.78125 79.46875 z M 86.1875 79.53125 L 95.375 82.53125 L 94.5625 83.46875 L 85.53125 80.375 L 85.4375 79.71875 L 86.1875 79.53125 z M 19.53125 79.59375 L 19.59375 79.59375 L 20.71875 80.40625 L 20.5 80.46875 L 19.53125 79.59375 z M 111.625 79.8125 C 111.60964 80.463717 111.62098 81.112292 111.65625 81.78125 C 111.65681 81.791868 111.65568 81.801873 111.65625 81.8125 L 109.0625 82.8125 L 109.09375 80.8125 L 111.625 79.8125 z M 19.25 80.21875 L 20.1875 80.90625 L 20.1875 82.125 L 19.21875 81.4375 L 19.25 80.21875 z M 34.78125 80.28125 L 57.0625 96.3125 C 56.99829 96.581059 56.934699 96.841613 56.875 97.09375 C 56.740186 97.043063 56.604263 96.99219 56.46875 96.9375 C 56.368152 97.235711 56.272326 97.540223 56.1875 97.84375 L 42.15625 87.78125 L 42.15625 87.28125 L 38.6875 84.59375 L 38.84375 84.21875 L 36.03125 82.34375 L 35.71875 82.46875 L 34.1875 81.34375 L 34.78125 81.1875 L 34.78125 80.28125 z M 21.21875 80.78125 L 21.78125 81.1875 L 23.6875 82.59375 L 23.15625 82.75 L 20.65625 80.9375 L 21.21875 80.78125 z M 85.53125 80.9375 L 86.375 81.21875 L 85.53125 81.53125 L 85.53125 80.9375 z M 61.21875 81 L 61.21875 82.90625 L 59.40625 83.59375 L 59.40625 81.65625 L 59.46875 81.6875 L 61.21875 81 z M 18.25 81.03125 C 18.469652 81.233144 18.618383 81.358555 18.78125 81.5 L 18.71875 83.125 L 18.25 82.6875 L 18.25 81.03125 z M 13.15625 81.0625 L 16.125 83.3125 L 16.09375 84.9375 L 13.0625 82.6875 L 13.15625 81.0625 z M 63.3125 81.28125 L 63.1875 86.53125 L 64.03125 87.09375 L 68.59375 85 L 63.3125 81.28125 z M 83.5625 81.34375 L 83.53125 83.40625 L 75.28125 86.59375 C 75.26431 86.56459 75.267735 86.528845 75.25 86.5 L 73.5 85.25 L 83.5625 81.34375 z M 126.25 81.4375 C 126.31633 81.962907 126.52415 82.54806 125.90625 83.1875 C 121.6234 84.739858 117.29328 86.17042 111.46875 83.75 C 111.33342 83.229208 111.21067 82.24327 111.78125 82.34375 C 117.64112 84.369583 121.30987 83.03875 126.25 81.4375 z M 20.625 81.53125 L 22.71875 83.03125 L 22.53125 90.84375 L 20.5 89.5 L 20.625 81.53125 z M 87.28125 81.53125 L 92 83.09375 L 85.59375 85.25 L 85.53125 82.1875 L 87.28125 81.53125 z M 19.21875 81.5625 L 20.1875 82.3125 L 20.15625 83.78125 L 19.1875 83.03125 L 19.21875 81.5625 z M 33.46875 81.5625 L 34.9375 82.65625 L 34.15625 82.84375 L 32.6875 81.75 L 33.46875 81.5625 z M 107.15625 81.75 L 107.125 84.4375 L 105.65625 85 L 101.4375 83.78125 L 107.15625 81.75 z M 32.5 81.8125 L 33.9375 82.90625 L 32.71875 83.1875 L 31.28125 82.15625 L 32.5 81.8125 z M 111.4375 82.09375 C 111.09532 82.720149 110.81642 83.338969 111.21875 84.09375 C 111.30318 84.100195 111.39164 84.141487 111.46875 84.1875 L 109.0625 85.125 L 109.0625 83.03125 L 111.4375 82.09375 z M 31.0625 82.21875 L 32.46875 83.25 L 31.0625 83.59375 L 29.71875 82.5625 L 31.0625 82.21875 z M 35.96875 82.625 L 38.34375 84.25 L 29.1875 87.15625 L 26.875 85.375 L 35.96875 82.625 z M 29.46875 82.65625 L 30.8125 83.65625 L 29.40625 84 L 28.09375 83.03125 L 29.46875 82.65625 z M 23.90625 82.75 L 25.3125 83.78125 L 26.03125 83.59375 L 27.28125 84.5 L 26.4375 84.71875 L 23.8125 82.78125 L 23.90625 82.75 z M 13.0625 82.9375 L 16.09375 85.25 L 16.09375 86.03125 L 13.03125 83.8125 L 13.0625 82.9375 z M 18.25 82.9375 L 18.71875 83.34375 L 18.6875 84.65625 L 18.25 84.75 L 18.25 82.9375 z M 27.84375 83.09375 L 29.15625 84.0625 L 27.5 84.46875 L 26.25 83.53125 L 27.84375 83.09375 z M 61.1875 83.09375 L 61.1875 85.1875 L 59.375 85.90625 L 59.40625 83.78125 L 61.1875 83.09375 z M 97.53125 83.15625 L 107.125 86.03125 L 107.125 86.65625 L 106.3125 86.96875 L 96.4375 84.375 L 97.53125 83.15625 z M 19.15625 83.1875 L 20.15625 83.9375 L 20.15625 85.65625 L 19.125 84.90625 L 19.15625 83.1875 z M 23.375 83.28125 L 26.34375 85.46875 L 26.34375 86.6875 L 23.3125 84.5 L 23.375 83.28125 z M 92.75 83.34375 L 94.21875 83.8125 L 91.59375 86.75 L 85.625 88.84375 L 85.59375 85.8125 L 92.75 83.34375 z M 83.53125 83.59375 L 83.53125 85.875 L 80.6875 87 C 80.447352 86.98388 80.208545 86.97194 79.96875 86.96875 C 79.872183 86.963449 79.69029 87.28207 79.59375 87.28125 C 79.503032 87.280476 79.496945 86.96699 79.40625 86.96875 C 79.144419 86.973849 78.855452 86.99591 78.59375 87 C 78.529869 87.00338 78.470044 87.30843 78.40625 87.3125 C 78.345678 87.316368 78.310477 86.9955 78.25 87 C 77.994092 87.019071 77.721986 87.06242 77.46875 87.09375 C 77.386179 87.103971 77.300933 87.42588 77.21875 87.4375 C 77.141784 87.44837 77.076581 87.14411 77 87.15625 C 76.746934 87.196368 76.49785 87.25772 76.25 87.3125 C 76.18415 87.327062 76.159159 87.5781 76.09375 87.59375 C 76.023953 87.610439 75.913014 87.38827 75.84375 87.40625 C 75.789335 87.420368 75.741434 87.453494 75.6875 87.46875 L 75.625 87.59375 C 75.607462 87.311153 75.516113 87.024994 75.375 86.75 L 83.53125 83.59375 z M 124.90625 83.84375 C 124.91555 83.840118 124.92819 83.8474 124.9375 83.84375 C 124.9951 84.000278 124.93918 84.1297 124.875 84.25 C 124.88072 84.114604 124.89874 83.97964 124.90625 83.84375 z M 124.78125 83.90625 C 124.77202 84.083778 124.75801 84.26059 124.75 84.4375 C 124.59386 84.608704 124.39911 84.78735 124.28125 84.96875 C 123.97491 85.195064 123.6439 85.38662 123.3125 85.5625 C 123.32127 85.166594 123.3326 84.77185 123.34375 84.375 C 123.81028 84.232684 124.30749 84.08771 124.78125 83.90625 z M 111.59375 84.28125 C 111.69382 84.346703 111.79496 84.395729 111.90625 84.40625 C 111.92891 84.510109 111.92647 84.615026 111.9375 84.71875 L 109.0625 85.90625 L 109.0625 85.28125 L 111.59375 84.28125 z M 123.21875 84.40625 C 123.20875 84.813574 123.19611 85.21866 123.1875 85.625 C 122.68819 85.878874 122.16423 86.09045 121.625 86.25 C 121.64157 85.770794 121.67163 85.29244 121.6875 84.8125 C 122.19468 84.704254 122.70275 84.5602 123.21875 84.40625 z M 112.46875 84.4375 C 112.6942 84.503334 112.92866 84.56685 113.15625 84.625 C 113.19342 84.960484 113.21395 85.29356 113.25 85.625 C 113.02989 85.471484 112.80088 85.32342 112.59375 85.15625 C 112.54506 84.925874 112.51245 84.6648 112.46875 84.4375 z M 113.28125 84.65625 C 113.74458 84.771554 114.21532 84.85587 114.6875 84.9375 C 114.72203 85.447534 114.74393 85.95817 114.78125 86.46875 C 114.29128 86.282054 113.84009 86.03907 113.40625 85.75 C 113.35936 85.383814 113.31928 85.01905 113.28125 84.65625 z M 23.3125 84.6875 L 26.34375 86.9375 L 26.3125 88.3125 L 23.25 86.0625 L 23.3125 84.6875 z M 96.625 84.8125 L 96.875 84.875 L 96.625 84.96875 L 96.625 84.8125 z M 37.84375 84.84375 L 40.65625 86.9375 L 39.96875 87.125 L 37.15625 85.0625 L 37.84375 84.84375 z M 121.5625 84.84375 C 121.54761 85.325264 121.51663 85.80236 121.5 86.28125 C 121.01992 86.417064 120.52875 86.51615 120.03125 86.59375 L 120.03125 85.09375 C 120.53948 85.032134 121.0451 84.95052 121.5625 84.84375 z M 114.8125 84.96875 C 115.36633 85.060644 115.93397 85.14553 116.5 85.1875 C 116.52214 85.727904 116.56625 86.26942 116.59375 86.8125 C 115.99604 86.812924 115.43072 86.68636 114.90625 86.5 C 114.87556 85.988924 114.84095 85.47989 114.8125 84.96875 z M 19.125 85.0625 L 20.15625 85.84375 L 20.125 87.59375 L 19.0625 86.8125 L 19.125 85.0625 z M 68.90625 85.0625 L 63.875 87.4375 L 65 88.3125 L 69.96875 85.8125 L 68.90625 85.0625 z M 119.90625 85.09375 L 119.90625 86.625 C 119.42059 86.696364 118.92734 86.71981 118.4375 86.75 L 118.4375 85.21875 C 118.92527 85.202784 119.40975 85.15049 119.90625 85.09375 z M 97.71875 85.125 L 102.15625 86.34375 L 96.65625 88.46875 L 96.625 85.5 L 97.71875 85.125 z M 36.875 85.15625 L 39.65625 87.21875 L 38.59375 87.53125 L 35.8125 85.46875 L 36.875 85.15625 z M 116.65625 85.1875 C 117.20472 85.223554 117.75255 85.23317 118.3125 85.21875 L 118.3125 86.75 C 117.77574 86.779874 117.24524 86.81465 116.71875 86.8125 C 116.69798 86.269504 116.67224 85.72881 116.65625 85.1875 z M 95.6875 85.25 L 95.6875 85.3125 L 95.59375 85.34375 L 95.6875 85.25 z M 107.125 85.25 L 107.125 85.40625 L 106.84375 85.34375 L 107.125 85.25 z M 61.1875 85.40625 L 61.1875 87.0625 L 61.65625 87.40625 L 59.375 88.3125 L 59.375 86.0625 L 59.40625 86.09375 L 61.1875 85.40625 z M 35.5625 85.5625 L 38.28125 87.625 L 37.03125 88 L 34.25 85.96875 L 35.5625 85.5625 z M 26.78125 85.8125 L 29 87.6875 L 28.65625 95.5625 L 26.71875 94.0625 L 26.78125 85.8125 z M 95.6875 85.84375 L 95.65625 88.84375 L 90.84375 90.6875 L 94.9375 86.09375 L 95.6875 85.84375 z M 34 86.03125 L 36.71875 88.09375 L 35.4375 88.46875 L 32.71875 86.4375 L 34 86.03125 z M 83.53125 86.0625 L 83.53125 87.6875 C 83.459535 87.655035 83.384356 87.623815 83.3125 87.59375 C 83.265014 87.57388 83.172742 87.92509 83.125 87.90625 C 83.073829 87.88605 83.051446 87.48778 83 87.46875 C 82.749762 87.3762 82.505596 87.31585 82.25 87.25 C 82.188497 87.234153 82.092993 87.45185 82.03125 87.4375 C 81.960883 87.421141 81.914386 87.1707 81.84375 87.15625 C 81.597922 87.105957 81.37301 87.05927 81.125 87.03125 C 81.056315 87.027309 80.912976 87.22332 80.84375 87.21875 C 80.805923 87.216249 80.801345 87.178423 80.78125 87.125 L 83.53125 86.0625 z M 23.25 86.28125 L 26.3125 88.59375 L 26.3125 90.1875 L 23.1875 87.90625 L 23.25 86.28125 z M 69.34375 86.375 L 65.4375 88.28125 L 69.25 91.21875 L 69.34375 86.375 z M 32.4375 86.53125 L 35.125 88.5625 L 33.65625 89 L 30.96875 87 L 32.4375 86.53125 z M 103.25 86.65625 L 105.53125 87.28125 L 96.65625 90.71875 L 96.65625 89.03125 L 103.25 86.65625 z M 19.0625 87 L 20.125 87.8125 L 20.125 88.9375 L 19.03125 88.15625 L 19.0625 87 z M 30.65625 87.09375 L 33.34375 89.09375 L 32.625 89.3125 L 29.9375 87.3125 L 30.65625 87.09375 z M 41.34375 87.5 L 41.65625 95.78125 L 32.96875 98.46875 L 33 89.84375 L 41.34375 87.5 z M 61.84375 87.53125 L 63.71875 88.875 L 59.34375 90.5625 L 59.375 88.46875 L 59.40625 88.5 L 61.84375 87.53125 z M 90.90625 87.53125 L 86.65625 92.28125 L 85.78125 92.625 C 85.788943 92.410533 85.760502 92.215736 85.6875 92.03125 L 85.625 89.40625 L 90.90625 87.53125 z M 79.4375 87.65625 C 79.458642 87.656989 79.478878 87.65539 79.5 87.65625 L 79.4375 88.5 C 79.127912 88.477699 78.823201 88.43623 78.53125 88.4375 L 78.53125 87.71875 C 78.832534 87.704809 79.139717 87.66501 79.4375 87.65625 z M 79.65625 87.65625 C 79.98424 87.674169 80.302048 87.70134 80.625 87.75 L 80.5 88.59375 C 80.210256 88.550899 79.929472 88.52438 79.65625 88.5 L 79.65625 87.65625 z M 78.34375 87.71875 L 78.3125 88.4375 C 77.985474 88.445649 77.654192 88.46274 77.34375 88.5 L 77.34375 87.78125 C 77.674981 87.750119 78.011134 87.73599 78.34375 87.71875 z M 77.15625 87.78125 L 77.125 88.5 C 76.837917 88.540819 76.559367 88.62243 76.28125 88.6875 L 76.25 87.90625 C 76.548481 87.856209 76.851767 87.81301 77.15625 87.78125 z M 80.8125 87.78125 C 81.172159 87.842739 81.522925 87.95662 81.875 88.0625 L 81.875 88.84375 C 81.492169 88.757749 81.135508 88.71469 80.78125 88.65625 L 80.8125 87.78125 z M 29.53125 87.84375 L 32.375 89.9375 L 32.375 91.15625 L 29.46875 89.03125 L 29.53125 87.84375 z M 42.15625 87.9375 L 56.15625 98 C 56.047146 98.443457 55.977708 98.900298 56.09375 99.4375 C 56.215732 99.446813 56.346287 99.45819 56.46875 99.46875 C 56.428759 99.846385 56.423042 100.22116 56.40625 100.59375 L 42.15625 90.375 L 42.15625 87.9375 z M 76.0625 87.9375 L 76.125 88.71875 C 75.78577 88.803809 75.459143 88.91153 75.125 89.03125 L 75.09375 88.75 C 75.363393 88.519805 75.524188 88.287913 75.59375 88.03125 C 75.747683 87.991743 75.904754 87.966503 76.0625 87.9375 z M 23.1875 88.09375 L 26.3125 90.46875 L 26.28125 92.15625 L 23.125 89.78125 L 23.1875 88.09375 z M 82.03125 88.09375 C 82.344806 88.194459 82.662255 88.32793 82.96875 88.46875 L 82.9375 89.09375 C 82.645035 89.015119 82.338395 88.93923 82.0625 88.875 L 82.03125 88.09375 z M 74.125 88.53125 L 74.78125 89 C 74.822428 88.974928 74.837151 88.931902 74.875 88.90625 C 74.870133 88.978808 74.87846 89.052082 74.875 89.125 C 74.559187 89.246279 74.22619 89.3808 73.90625 89.53125 L 73.96875 88.59375 C 74.019645 88.570386 74.073035 88.552458 74.125 88.53125 z M 83.125 88.53125 C 83.207911 88.571379 83.292659 88.61294 83.375 88.65625 C 83.579743 88.919919 83.70734 89.11509 83.75 89.3125 C 83.505676 89.239539 83.295527 89.18877 83.0625 89.125 L 83.125 88.53125 z M 40.59375 88.78125 L 34.125 90.59375 L 33.78125 97.21875 L 40.34375 95.03125 L 40.59375 88.78125 z M 77.8125 88.9375 C 78.419949 88.905879 79.026435 88.91931 79.625 88.96875 C 81.016225 89.083649 82.364174 89.37838 83.71875 89.71875 C 83.664759 89.878809 83.526868 90.01722 83.375 90.15625 C 83.342239 90.186242 83.411404 90.59543 83.375 90.625 C 83.335858 90.65679 83.199211 90.31222 83.15625 90.34375 C 82.82282 90.6468 82.389041 90.80079 82 91 C 81.940927 91.023297 81.934885 91.32082 81.875 91.34375 C 81.815081 91.36669 81.715678 91.10288 81.65625 91.125 C 81.189488 91.298753 80.699184 91.45794 80.21875 91.59375 C 80.171609 91.607083 80.234719 91.86207 80.1875 91.875 C 80.143428 91.887073 80.012879 91.64453 79.96875 91.65625 C 79.559242 91.765067 79.129466 91.86 78.71875 91.9375 C 78.665952 91.947458 78.615253 92.17808 78.5625 92.1875 C 78.512812 92.19637 78.455887 91.99162 78.40625 92 C 77.983809 92.071361 77.571586 92.10056 77.15625 92.125 C 77.091324 92.128818 77.064629 92.40356 77 92.40625 C 76.924638 92.409392 76.824921 92.15467 76.75 92.15625 C 76.313135 92.165469 75.88548 92.14126 75.46875 92.09375 C 75.401095 92.086042 75.316986 92.3843 75.25 92.375 C 75.181227 92.365444 75.130533 92.04251 75.0625 92.03125 C 74.647365 91.962554 74.225824 91.8861 73.84375 91.75 C 73.832385 91.745951 73.796608 91.769679 73.78125 91.78125 L 73.90625 89.875 C 75.224053 89.285473 76.537537 89.003874 77.8125 88.9375 z M 40.28125 88.96875 L 40.25 89.40625 L 39.84375 89.09375 L 40.28125 88.96875 z M 63.875 88.96875 L 65.75 90.3125 L 59.34375 92.8125 L 59.34375 90.75 L 63.875 88.96875 z M 39.75 89.125 L 40.25 89.5625 L 40.21875 90.6875 L 38.4375 89.53125 L 39.75 89.125 z M 29.46875 89.3125 L 32.34375 91.5 L 32.34375 92.78125 L 29.40625 90.59375 L 29.46875 89.3125 z M 95.65625 89.375 L 95.65625 91.09375 L 87.78125 94.15625 L 90.28125 91.34375 L 95.65625 89.375 z M 38.21875 89.59375 L 40.21875 90.84375 L 40.15625 92.78125 L 36.375 90.15625 L 38.21875 89.59375 z M 23.09375 90.0625 L 26.28125 92.4375 L 26.28125 93.40625 L 23.0625 91.0625 L 23.09375 90.0625 z M 36.21875 90.1875 L 36.1875 90.25 L 40.15625 92.96875 L 40.09375 94.8125 L 34.59375 90.6875 L 36.21875 90.1875 z M 84.15625 90.1875 C 84.301276 90.695139 84.409077 91.19742 84.5 91.6875 C 84.233167 91.814849 83.93954 91.93659 83.65625 92.0625 C 83.62315 91.613269 83.584472 91.16554 83.53125 90.71875 C 83.777312 90.556929 83.986981 90.37267 84.15625 90.1875 z M 65.9375 90.4375 L 67.875 91.84375 C 67.657101 91.800542 67.436597 91.743362 67.21875 91.71875 C 67.150063 91.714813 67.037976 91.91082 66.96875 91.90625 C 66.893094 91.901251 66.888584 91.69261 66.8125 91.6875 C 66.572349 91.671384 66.302295 91.65944 66.0625 91.65625 C 65.965931 91.650953 65.81529 91.96957 65.71875 91.96875 C 65.628037 91.967981 65.621945 91.65449 65.53125 91.65625 C 65.269417 91.661353 64.980452 91.68341 64.71875 91.6875 C 64.654866 91.690877 64.595044 91.96468 64.53125 91.96875 C 64.470676 91.972622 64.404227 91.683 64.34375 91.6875 C 64.087839 91.706567 63.846986 91.74992 63.59375 91.78125 C 63.511176 91.791468 63.425933 92.11338 63.34375 92.125 C 63.266782 92.135867 63.201581 91.83161 63.125 91.84375 C 62.871935 91.883872 62.62285 91.91397 62.375 91.96875 C 62.309155 91.983309 62.252909 92.2656 62.1875 92.28125 C 62.117704 92.297943 62.038014 92.07577 61.96875 92.09375 C 61.724935 92.157011 61.486252 92.20132 61.25 92.28125 C 61.18753 92.302379 61.155622 92.60264 61.09375 92.625 C 61.034882 92.64627 60.933302 92.4151 60.875 92.4375 C 60.599601 92.543322 60.323746 92.64888 60.0625 92.78125 C 59.98237 92.821846 59.953641 93.17552 59.875 93.21875 C 59.792315 93.264208 59.674706 93.01406 59.59375 93.0625 C 59.510326 93.112424 59.425244 93.165575 59.34375 93.21875 L 59.34375 92.96875 L 59.40625 93 L 60.875 92.4375 L 61.25 92.28125 L 65.9375 90.4375 z M 42.15625 90.53125 L 56.40625 100.78125 C 56.381862 101.46392 56.37272 102.14532 56.40625 102.84375 L 42.1875 92.625 L 42.15625 90.53125 z M 34.40625 90.78125 L 39.9375 94.90625 L 37.9375 95.46875 C 36.22303 94.062442 35.89048 94.000631 34.40625 92.5 L 34.40625 90.78125 z M 83.375 90.8125 C 83.422773 91.249389 83.469619 91.68663 83.5 92.125 C 83.030878 92.330219 82.541806 92.56535 82.03125 92.75 C 82.016667 92.322289 81.991176 91.89684 81.96875 91.46875 C 82.135205 91.418319 82.315679 91.35962 82.46875 91.3125 C 82.794911 91.152489 83.101644 90.98035 83.375 90.8125 z M 29.40625 90.90625 L 32.34375 93.09375 L 32.3125 94.6875 L 29.34375 92.46875 L 29.40625 90.90625 z M 85 91.375 L 85.03125 91.4375 C 85.022204 91.441287 85.008837 91.433188 85 91.4375 C 84.997578 91.417218 85.002453 91.39529 85 91.375 z M 81.8125 91.5 C 81.834665 91.938109 81.860779 92.37439 81.875 92.8125 C 81.384142 92.985569 80.869315 93.11357 80.34375 93.25 C 80.325825 92.813799 80.31172 92.37515 80.28125 91.9375 C 80.829532 91.794849 81.339762 91.64204 81.8125 91.5 z M 84.78125 91.9375 C 85.278568 91.877979 85.800951 92.29097 85.25 93.1875 C 84.239494 93.864699 83.174899 94.36188 82.0625 94.71875 C 82.062346 94.708369 82.062657 94.69788 82.0625 94.6875 L 81.9375 94.75 C 79.09238 95.633522 76.08665 95.610422 73.59375 95.15625 L 73.6875 93.6875 C 76.775671 94.250839 80.4789 94.122388 84.78125 91.9375 z M 80.125 91.96875 C 80.151994 92.410469 80.169835 92.84333 80.1875 93.28125 C 79.70069 93.402689 79.201356 93.48631 78.6875 93.5625 L 78.6875 92.28125 C 79.180499 92.184929 79.660136 92.0872 80.125 91.96875 z M 68.15625 92.03125 L 68.21875 92.0625 C 68.193564 92.08577 68.17604 92.129599 68.15625 92.125 C 68.136549 92.120418 68.11091 92.095139 68.09375 92.0625 L 68.15625 92.03125 z M 78.53125 92.3125 L 78.53125 93.59375 C 78.062017 93.658049 77.583511 93.70257 77.09375 93.71875 L 77.09375 92.53125 C 77.579766 92.481219 78.050333 92.40273 78.53125 92.3125 z M 65.53125 92.34375 C 65.55239 92.344493 65.572628 92.34289 65.59375 92.34375 L 65.53125 93.1875 C 65.22166 93.165203 64.916951 93.12373 64.625 93.125 L 64.625 92.40625 C 64.926282 92.392313 65.233467 92.35251 65.53125 92.34375 z M 65.75 92.34375 C 66.077988 92.361673 66.395798 92.38884 66.71875 92.4375 L 66.59375 93.28125 C 66.304004 93.238403 66.023222 93.21188 65.75 93.1875 L 65.75 92.34375 z M 73.75 92.34375 C 74.204776 92.463966 74.685952 92.529832 75.1875 92.5625 C 75.161828 92.925509 75.143706 93.29001 75.125 93.65625 C 74.650239 93.600416 74.174977 93.491999 73.6875 93.375 L 73.75 92.34375 z M 64.4375 92.40625 L 64.40625 93.125 C 64.079222 93.133153 63.747942 93.15024 63.4375 93.1875 L 63.4375 92.46875 C 63.768729 92.437623 64.104884 92.42349 64.4375 92.40625 z M 63.25 92.46875 L 63.21875 93.1875 C 62.931665 93.228323 62.653117 93.30993 62.375 93.375 L 62.34375 92.59375 C 62.642229 92.543713 62.945517 92.50051 63.25 92.46875 z M 66.90625 92.46875 C 67.265907 92.530243 67.616675 92.64412 67.96875 92.75 L 67.96875 93.53125 C 67.585917 93.445253 67.229258 93.40219 66.875 93.34375 L 66.90625 92.46875 z M 76.9375 92.5625 L 76.9375 93.75 C 76.408105 93.761249 75.863633 93.74427 75.3125 93.6875 C 75.328187 93.321979 75.356349 92.95746 75.375 92.59375 C 75.882282 92.616049 76.410273 92.61093 76.9375 92.5625 z M 62.15625 92.625 L 62.21875 93.40625 C 61.879518 93.491313 61.552893 93.59903 61.21875 93.71875 L 61.1875 92.84375 C 61.502154 92.753093 61.828284 92.6853 62.15625 92.625 z M 34.4375 92.71875 C 35.740993 93.916856 36.229537 94.36764 37.6875 95.53125 L 36.21875 95.9375 L 34.4375 94.375 L 34.4375 92.71875 z M 29.34375 92.75 L 32.3125 95 L 32.28125 96.625 L 29.25 94.375 L 29.34375 92.75 z M 42.1875 92.78125 L 56.40625 103.03125 C 56.366286 103.01545 56.290022 103.1724 56.25 103.15625 C 56.214537 103.21951 56.190376 103.28047 56.15625 103.34375 L 42.1875 93.25 L 42.1875 92.78125 z M 68.125 92.78125 C 68.438554 92.881963 68.756005 93.01543 69.0625 93.15625 L 69.03125 93.78125 C 68.738783 93.702623 68.432145 93.62673 68.15625 93.5625 L 68.125 92.78125 z M 86.1875 92.8125 L 85.6875 93.375 L 85.6875 93.125 C 85.701319 93.07495 85.708459 93.016386 85.71875 92.96875 L 86.1875 92.8125 z M 61.03125 92.90625 C 61.016849 93.208623 60.983149 93.50902 60.96875 93.8125 C 60.652935 93.933783 60.31994 94.0683 60 94.21875 L 60 93.3125 C 60.331233 93.150433 60.673986 93.01697 61.03125 92.90625 z M 69.21875 93.21875 C 69.301659 93.258883 69.386409 93.30044 69.46875 93.34375 C 69.673491 93.607423 69.80109 93.80259 69.84375 94 C 69.599424 93.927043 69.389277 93.87627 69.15625 93.8125 L 69.21875 93.21875 z M 59.75 93.4375 L 59.75 94.34375 C 59.404972 94.512783 59.047183 94.70581 58.6875 94.90625 L 58.65625 94.1875 C 58.991296 93.881213 59.362235 93.64941 59.75 93.4375 z M 85.40625 93.5625 L 85.375 93.8125 L 85.1875 94.3125 C 85.19079 94.103773 85.19163 93.89825 85.1875 93.6875 C 85.264849 93.648857 85.334076 93.602277 85.40625 93.5625 z M 63.90625 93.625 C 64.513697 93.593383 65.120185 93.60681 65.71875 93.65625 C 67.109973 93.771153 68.457924 94.06588 69.8125 94.40625 C 69.758507 94.566313 69.651868 94.70472 69.5 94.84375 C 69.467236 94.873738 69.536404 95.28293 69.5 95.3125 C 69.460855 95.344286 69.324211 94.99972 69.28125 95.03125 C 68.947817 95.334297 68.514041 95.45704 68.125 95.65625 C 68.065924 95.679551 68.028635 95.97707 67.96875 96 C 67.908829 96.022944 67.840678 95.79038 67.78125 95.8125 C 67.314485 95.986249 66.824184 96.14544 66.34375 96.28125 C 66.296607 96.294579 66.359719 96.51832 66.3125 96.53125 C 66.268425 96.54332 66.137879 96.33203 66.09375 96.34375 C 65.684239 96.452571 65.254466 96.5475 64.84375 96.625 C 64.790957 96.634962 64.740253 96.86558 64.6875 96.875 C 64.637817 96.883866 64.580887 96.67912 64.53125 96.6875 C 64.108807 96.758857 63.696586 96.78806 63.28125 96.8125 C 63.216329 96.816322 63.189629 97.09106 63.125 97.09375 C 63.049639 97.096888 62.949921 96.84217 62.875 96.84375 C 62.438132 96.852973 61.97923 96.82876 61.5625 96.78125 C 61.494846 96.773538 61.441986 97.0718 61.375 97.0625 C 61.306224 97.05294 61.224283 96.73001 61.15625 96.71875 C 60.741117 96.65005 60.350824 96.54235 59.96875 96.40625 C 59.902183 96.38253 59.752898 96.71338 59.6875 96.6875 C 59.616963 96.659588 59.631617 96.28047 59.5625 96.25 C 59.192355 96.086831 58.85506 95.89684 58.53125 95.65625 C 58.500992 95.633772 58.342309 95.83569 58.3125 95.8125 C 58.277535 95.785299 58.346834 95.52818 58.3125 95.5 C 60.218536 94.247473 62.083906 93.71987 63.90625 93.625 z M 70.71875 93.84375 L 71.9375 94.75 C 71.554514 94.645498 71.178129 94.526526 70.84375 94.40625 C 70.808369 94.217259 70.762061 94.031877 70.71875 93.84375 z M 84.71875 93.875 C 84.765183 95.203879 84.657379 96.49017 84.375 97.75 C 84.157874 97.851269 83.916281 97.93207 83.6875 98.03125 C 83.744537 96.788889 83.769764 95.54655 83.75 94.3125 C 84.074764 94.171889 84.390826 94.03955 84.71875 93.875 z M 58.5 94.34375 L 58.46875 95.03125 C 58.332218 95.108833 58.202128 95.16821 58.0625 95.25 C 58.002041 95.193313 57.933162 95.15387 57.875 95.09375 C 58.065222 94.823093 58.279326 94.56267 58.5 94.34375 z M 83.59375 94.375 C 83.614675 95.609839 83.616691 96.85101 83.5625 98.09375 C 83.085863 98.297239 82.584873 98.47506 82.0625 98.65625 C 82.084299 97.420499 82.079297 96.17434 82.0625 94.9375 C 82.569328 94.776229 83.078552 94.59244 83.59375 94.375 z M 29.25 94.625 L 32.28125 96.9375 L 32.28125 97.71875 L 29.21875 95.5 L 29.25 94.625 z M 34.4375 94.625 L 36.03125 96 L 34.4375 96.4375 L 34.4375 94.625 z M 70.25 94.875 C 70.395024 95.382643 70.502827 95.88492 70.59375 96.375 C 70.326915 96.502353 70.03329 96.62409 69.75 96.75 C 69.716898 96.300773 69.678222 95.85304 69.625 95.40625 C 69.87106 95.244433 70.080731 95.06017 70.25 94.875 z M 70.9375 94.875 C 71.144071 94.932256 71.355855 94.978345 71.5625 95.03125 C 71.54142 95.47601 71.532606 95.876718 71.53125 96.28125 C 71.471332 96.19848 71.417842 96.11685 71.34375 96.03125 C 71.264875 96.070863 71.174391 96.08565 71.09375 96.125 C 71.044562 95.71311 71.005434 95.291056 70.9375 94.875 z M 81.90625 95 C 81.915536 94.997139 81.928212 95.00288 81.9375 95 C 81.951475 96.237019 81.926271 97.48294 81.90625 98.71875 C 81.426321 98.880919 80.92001 99.02671 80.40625 99.15625 C 80.432424 97.897519 80.429136 96.64354 80.40625 95.375 C 80.898379 95.270909 81.405462 95.15411 81.90625 95 z M 71.71875 95.0625 C 72.047229 95.144561 72.383409 95.212478 72.71875 95.28125 L 73.15625 95.59375 C 73.131256 96.821213 73.187883 98.081387 73.25 99.34375 C 72.752712 99.231579 72.257506 99.1111 71.75 98.9375 C 71.732594 98.63507 71.729768 98.331657 71.71875 98.03125 C 71.948123 97.380149 71.933699 96.931559 71.6875 96.5 C 71.689385 96.014848 71.695256 95.539377 71.71875 95.0625 z M 73.59375 95.4375 C 74.078261 95.522397 74.564643 95.608566 75.0625 95.65625 C 75.037799 96.961439 75.05695 98.28909 75.09375 99.625 C 74.536775 99.574309 73.979827 99.49774 73.40625 99.375 C 73.362316 98.16485 73.349865 96.952096 73.375 95.75 L 73.5625 95.875 L 73.59375 95.4375 z M 80.25 95.4375 C 80.27484 96.704329 80.272093 97.97131 80.25 99.21875 C 79.74637 99.340869 79.219532 99.42142 78.6875 99.5 L 78.6875 95.625 C 79.201839 95.570599 79.725236 95.54311 80.25 95.4375 z M 69.46875 95.5 C 69.516521 95.936893 69.563369 96.37413 69.59375 96.8125 C 69.124626 97.017723 68.635556 97.25285 68.125 97.4375 C 68.110415 97.009793 68.084926 96.58434 68.0625 96.15625 C 68.228953 96.105823 68.409429 96.04712 68.5625 96 C 68.888659 95.839993 69.195394 95.66785 69.46875 95.5 z M 78.53125 95.65625 L 78.5625 99.53125 C 78.080017 99.598619 77.596638 99.63385 77.09375 99.65625 L 77.09375 95.75 C 77.566411 95.743539 78.048904 95.70273 78.53125 95.65625 z M 75.25 95.6875 C 75.807002 95.735449 76.365498 95.75275 76.9375 95.75 L 76.96875 99.6875 C 76.410523 99.707619 75.829833 99.67147 75.25 99.625 C 75.22281 98.304619 75.22526 96.98725 75.25 95.6875 z M 57.8125 95.875 C 57.878545 95.946133 57.960927 95.9975 58.03125 96.0625 C 57.952524 96.554843 57.868907 97.01349 57.8125 97.46875 C 57.653373 97.404923 57.504074 97.35231 57.34375 97.28125 C 57.478189 96.820533 57.623888 96.34172 57.8125 95.875 z M 58.15625 96.1875 C 58.550103 96.519273 59.005606 96.76273 59.5 96.9375 C 59.45282 97.288353 59.438529 97.64319 59.40625 98 C 58.943212 97.877183 58.47456 97.71393 58 97.53125 C 58.049661 97.081663 58.086446 96.62949 58.15625 96.1875 z M 67.90625 96.1875 C 67.928413 96.625613 67.954529 97.06189 67.96875 97.5 C 67.47789 97.673073 66.963065 97.80107 66.4375 97.9375 C 66.419573 97.501303 66.40547 97.06265 66.375 96.625 C 66.92328 96.482353 67.433512 96.32954 67.90625 96.1875 z M 70.875 96.625 C 71.372316 96.565483 71.894701 96.97847 71.34375 97.875 C 70.333242 98.552203 69.268649 99.04938 68.15625 99.40625 C 68.156094 99.395873 68.156407 99.38538 68.15625 99.375 L 68.03125 99.4375 C 63.806474 100.74947 59.173577 100.02257 56.46875 98.9375 C 56.222348 98.570003 56.422764 97.84546 56.6875 97.59375 C 60.254521 98.851253 65.031519 99.59253 70.875 96.625 z M 66.21875 96.65625 C 66.245742 97.097973 66.263585 97.53083 66.28125 97.96875 C 65.794438 98.090193 65.295106 98.17381 64.78125 98.25 L 64.78125 96.96875 C 65.274247 96.872433 65.753886 96.7747 66.21875 96.65625 z M 59.65625 97 C 60.162759 97.161293 60.711807 97.21291 61.28125 97.25 C 61.255576 97.613013 61.237456 97.97751 61.21875 98.34375 C 60.683043 98.280753 60.147855 98.16982 59.59375 98.03125 C 59.619725 97.686953 59.619454 97.34295 59.65625 97 z M 64.625 97 L 64.625 98.28125 C 64.155765 98.345553 63.677261 98.39007 63.1875 98.40625 L 63.1875 97.21875 C 63.673514 97.168723 64.144083 97.09023 64.625 97 z M 63.03125 97.25 L 63.03125 98.4375 C 62.501853 98.448753 61.957383 98.43177 61.40625 98.375 C 61.421935 98.009483 61.450099 97.64496 61.46875 97.28125 C 61.97603 97.303553 62.504023 97.29843 63.03125 97.25 z M 84.875 97.96875 C 84.941333 98.494157 85.180399 99.07931 84.5625 99.71875 C 80.545663 101.1747 76.481509 102.49149 71.1875 100.65625 C 71.234143 100.16366 71.269109 99.659487 71.28125 99.15625 C 76.639269 100.76215 80.186203 99.488535 84.875 97.96875 z M 71.59375 98.21875 C 71.603346 98.438356 71.609352 98.664159 71.625 98.875 C 71.512425 98.835342 71.395961 98.793843 71.28125 98.75 C 71.281499 98.624285 71.283728 98.50145 71.28125 98.375 C 71.388497 98.321422 71.491642 98.274957 71.59375 98.21875 z M 70.8125 98.5625 C 70.858931 99.891383 70.751129 101.17767 70.46875 102.4375 C 70.251622 102.53877 70.010031 102.61957 69.78125 102.71875 C 69.838285 101.47639 69.863514 100.23405 69.84375 99 C 70.168512 98.859393 70.484576 98.72705 70.8125 98.5625 z M 69.6875 99.0625 C 69.708423 100.29734 69.710441 101.53851 69.65625 102.78125 C 69.179611 102.98474 68.678623 103.16256 68.15625 103.34375 C 68.178047 102.108 68.173047 100.86185 68.15625 99.625 C 68.663076 99.463733 69.172302 99.27994 69.6875 99.0625 z M 56.84375 99.5 C 57.109036 99.576093 57.386308 99.64964 57.65625 99.71875 C 57.587752 101.16399 57.632293 102.39761 57.71875 103.5625 C 57.441808 103.46494 57.1545 103.36742 56.875 103.25 C 56.751727 101.99506 56.694115 100.72397 56.84375 99.5 z M 68 99.6875 C 68.009284 99.684643 68.021962 99.69038 68.03125 99.6875 C 68.045223 100.92453 68.020021 102.17044 68 103.40625 C 67.520069 103.56842 67.01376 103.71421 66.5 103.84375 C 66.526172 102.58502 66.522886 101.33105 66.5 100.0625 C 66.992127 99.958413 67.499212 99.84161 68 99.6875 z M 57.8125 99.75 C 58.284554 99.867933 58.764297 99.971193 59.25 100.0625 C 59.212385 101.35766 59.277979 102.69463 59.34375 104.03125 C 58.84646 103.91908 58.351256 103.7986 57.84375 103.625 C 57.768127 102.31111 57.750196 101.01466 57.8125 99.75 z M 59.46875 100.09375 C 60.02388 100.19256 60.584309 100.28897 61.15625 100.34375 C 61.131547 101.64895 61.1507 102.97659 61.1875 104.3125 C 60.630523 104.26181 60.073577 104.18524 59.5 104.0625 C 59.451863 102.73663 59.431325 101.40863 59.46875 100.09375 z M 66.34375 100.125 C 66.368588 101.39184 66.365843 102.65881 66.34375 103.90625 C 65.840118 104.02837 65.313282 104.10892 64.78125 104.1875 L 64.78125 100.3125 C 65.295587 100.2581 65.818986 100.23061 66.34375 100.125 z M 64.625 100.34375 L 64.65625 104.21875 C 64.173765 104.28612 63.690388 104.32135 63.1875 104.34375 L 63.1875 100.4375 C 63.660159 100.43104 64.142654 100.39023 64.625 100.34375 z M 61.34375 100.375 C 61.90075 100.42295 62.459248 100.44025 63.03125 100.4375 L 63.0625 104.375 C 62.504271 104.39512 61.923583 104.35897 61.34375 104.3125 C 61.316558 102.99212 61.31901 101.67476 61.34375 100.375 z M 83.5625 100.375 C 83.571803 100.37137 83.584445 100.37865 83.59375 100.375 C 83.651359 100.53153 83.595435 100.66094 83.53125 100.78125 C 83.536973 100.64584 83.554993 100.51089 83.5625 100.375 z M 83.4375 100.4375 C 83.428276 100.61503 83.41426 100.79184 83.40625 100.96875 C 83.250114 101.13995 83.055366 101.3186 82.9375 101.5 C 82.63116 101.72631 82.300151 101.91787 81.96875 102.09375 C 81.977522 101.69784 81.988851 101.3031 82 100.90625 C 82.466535 100.76393 82.963747 100.61896 83.4375 100.4375 z M 81.875 100.9375 C 81.865001 101.34482 81.852361 101.74991 81.84375 102.15625 C 81.344444 102.41012 80.820481 102.6217 80.28125 102.78125 C 80.297821 102.30204 80.327886 101.82369 80.34375 101.34375 C 80.850935 101.2355 81.359001 101.09145 81.875 100.9375 z M 71.125 100.96875 C 71.12513 100.96754 71.156121 100.96996 71.15625 100.96875 C 71.372867 101.0316 71.594543 101.10056 71.8125 101.15625 C 71.849672 101.49173 71.870208 101.82481 71.90625 102.15625 C 71.686143 102.00273 71.457133 101.85467 71.25 101.6875 C 71.201314 101.45712 71.168699 101.19605 71.125 100.96875 z M 71.9375 101.1875 C 72.40083 101.3028 72.871572 101.38712 73.34375 101.46875 C 73.378289 101.97878 73.400182 102.48942 73.4375 103 C 72.947535 102.8133 72.496341 102.57032 72.0625 102.28125 C 72.01561 101.91506 71.975532 101.5503 71.9375 101.1875 z M 80.21875 101.375 C 80.203861 101.85651 80.172887 102.33361 80.15625 102.8125 C 79.676176 102.94831 79.185001 103.0474 78.6875 103.125 L 78.6875 101.625 C 79.195737 101.56338 79.701358 101.48177 80.21875 101.375 z M 73.46875 101.5 C 74.02258 101.59189 74.590224 101.67678 75.15625 101.71875 C 75.178397 102.25915 75.222501 102.80067 75.25 103.34375 C 74.65229 103.34417 74.086977 103.21761 73.5625 103.03125 C 73.531818 102.52017 73.497203 102.01114 73.46875 101.5 z M 78.5625 101.625 L 78.5625 103.15625 C 78.07684 103.22761 77.583592 103.25106 77.09375 103.28125 L 77.09375 101.75 C 77.581528 101.73403 78.066 101.68174 78.5625 101.625 z M 75.3125 101.71875 C 75.860974 101.7548 76.408805 101.76442 76.96875 101.75 L 76.96875 103.28125 C 76.431991 103.31112 75.901489 103.3459 75.375 103.34375 C 75.354233 102.80075 75.328494 102.26006 75.3125 101.71875 z M 71 102.625 C 71.066331 103.15041 71.274149 103.76681 70.65625 104.40625 C 66.373399 105.95861 62.043282 107.38917 56.21875 104.96875 C 56.083422 104.44796 55.960672 103.46202 56.53125 103.5625 C 62.39112 105.58833 66.059869 104.22625 71 102.625 z M 69.65625 105.0625 C 69.665551 105.05887 69.678195 105.06615 69.6875 105.0625 C 69.745107 105.21903 69.689185 105.34845 69.625 105.46875 C 69.630721 105.33335 69.648743 105.19839 69.65625 105.0625 z M 69.53125 105.125 C 69.522024 105.30253 69.50801 105.47934 69.5 105.65625 C 69.343862 105.82745 69.149116 106.0061 69.03125 106.1875 C 68.724908 106.41381 68.393901 106.60537 68.0625 106.78125 C 68.07127 106.38534 68.082601 105.9906 68.09375 105.59375 C 68.560283 105.45143 69.057497 105.30646 69.53125 105.125 z M 67.96875 105.625 C 67.958749 106.03232 67.946111 106.43741 67.9375 106.84375 C 67.438192 107.09762 66.914231 107.3092 66.375 107.46875 C 66.391569 106.98954 66.421636 106.51119 66.4375 106.03125 C 66.944683 105.923 67.452751 105.77895 67.96875 105.625 z M 57.21875 105.65625 C 57.444201 105.72208 57.678664 105.7856 57.90625 105.84375 C 57.94342 106.17923 57.963958 106.51231 58 106.84375 C 57.779891 106.69023 57.550883 106.54217 57.34375 106.375 C 57.295062 106.14462 57.262449 105.88355 57.21875 105.65625 z M 58.03125 105.875 C 58.494578 105.9903 58.965322 106.07462 59.4375 106.15625 C 59.472037 106.66628 59.493932 107.17692 59.53125 107.6875 C 59.041283 107.5008 58.590091 107.25782 58.15625 106.96875 C 58.109358 106.60256 58.069282 106.2378 58.03125 105.875 z M 66.3125 106.0625 C 66.297609 106.54401 66.266637 107.02111 66.25 107.5 C 65.769924 107.63581 65.278751 107.7349 64.78125 107.8125 L 64.78125 106.3125 C 65.289485 106.25088 65.795108 106.16927 66.3125 106.0625 z M 59.5625 106.1875 C 60.116328 106.27939 60.683974 106.36428 61.25 106.40625 C 61.272145 106.94665 61.316251 107.48817 61.34375 108.03125 C 60.746038 108.03167 60.180727 107.90511 59.65625 107.71875 C 59.625566 107.20767 59.590953 106.69864 59.5625 106.1875 z M 64.65625 106.3125 L 64.65625 107.84375 C 64.170588 107.91511 63.677342 107.93856 63.1875 107.96875 L 63.1875 106.4375 C 63.675276 106.42153 64.15975 106.36924 64.65625 106.3125 z M 61.40625 106.40625 C 61.954722 106.4423 62.502555 106.45192 63.0625 106.4375 L 63.0625 107.96875 C 62.525739 107.99862 61.995239 108.0334 61.46875 108.03125 C 61.447981 107.48825 61.422244 106.94756 61.40625 106.40625 z "
       id="path2308" />
  </g>
</svg>
