<?xml version="1.0" encoding="UTF-8" standalone="no"?>
<!-- Created with Inkscape (http://www.inkscape.org/) -->
<svg
   xmlns:dc="http://purl.org/dc/elements/1.1/"
   xmlns:cc="http://creativecommons.org/ns#"
   xmlns:rdf="http://www.w3.org/1999/02/22-rdf-syntax-ns#"
   xmlns:svg="http://www.w3.org/2000/svg"
   xmlns="http://www.w3.org/2000/svg"
   xmlns:sodipodi="http://sodipodi.sourceforge.net/DTD/sodipodi-0.dtd"
   xmlns:inkscape="http://www.inkscape.org/namespaces/inkscape"
   width="128"
   height="128"
   id="svg2"
   sodipodi:version="0.32"
   inkscape:version="0.45+devel"
   version="1.0"
   sodipodi:docname="watch_tower_outline.svg"
   inkscape:output_extension="org.inkscape.output.svg.inkscape">
  <defs
     id="defs4" />
  <sodipodi:namedview
     id="base"
     pagecolor="#ffffff"
     bordercolor="#666666"
     borderopacity="1.0"
     gridtolerance="10000"
     guidetolerance="10"
     objecttolerance="10"
     inkscape:pageopacity="0.0"
     inkscape:pageshadow="2"
     inkscape:zoom="1"
     inkscape:cx="63.765625"
     inkscape:cy="60.190169"
     inkscape:document-units="px"
     inkscape:current-layer="layer1"
     showgrid="false"
     width="744.09px"
     inkscape:window-width="1248"
     inkscape:window-height="975"
     inkscape:window-x="285"
     inkscape:window-y="24"
     showguides="true"
     inkscape:guide-bbox="true" />
  <metadata
     id="metadata7">
    <rdf:RDF>
      <cc:Work
         rdf:about="">
        <dc:format>image/svg+xml</dc:format>
        <dc:type
           rdf:resource="http://purl.org/dc/dcmitype/StillImage" />
      </cc:Work>
    </rdf:RDF>
  </metadata>
  <g
     inkscape:label="outline"
     inkscape:groupmode="layer"
     id="layer1">
    <path
       style="fill:#5c2700;fill-opacity:1;fill-rule:evenodd;stroke:none;stroke-width:1px;stroke-linecap:butt;stroke-linejoin:miter;stroke-opacity:1"
       d="M 66.1875,20.9375 L 36.125,34.1875 L 34.9375,36.25 L 36.875,38.53125 L 38.4375,39.3125 L 38.53125,39.40625 L 34.84375,96.6875 C 35.024017,97.286509 36.094259,97.756953 37.65625,96.84375 L 37.6875,96.34375 L 38.46875,80.84375 L 56.15625,98.75 L 55.5625,114.375 C 56.454808,114.527 57.112344,115.08986 58.625,114.15625 L 58.96875,98.875 L 70.28125,94.09375 L 71.4375,111.8125 C 72.183801,112.27271 72.839989,112.03516 73.46875,111.4375 L 73.34375,109.6875 L 81.90625,106.6875 L 82.125,108.59375 C 82.733513,108.79484 83.475985,109.25985 84.15625,107.96875 L 82.09375,89.09375 L 89.03125,86.15625 L 90,104.125 C 91.003512,104.94827 91.846938,104.33077 92.6875,103.6875 L 88.8125,43.96875 L 92.03125,42.625 L 91.875,41.15625 L 87.90625,36.71875 L 83.375,34.4375 L 83.875,33.4375 L 80.0625,31.90625 L 80.25,31 L 77.34375,28.46875 L 76.03125,28.53125 L 74.1875,26.09375 L 73.03125,26.0625 L 68.8125,23.21875 L 69.09375,21.875 L 66.1875,20.9375 z M 66.125,21.28125 L 68.78125,21.96875 L 68.40625,23.0625 L 38.1875,37.375 L 37.03125,34.6875 L 66.125,21.28125 z M 68.40625,23.59375 L 72.5625,26.21875 L 41.84375,40.28125 L 39.4375,38.15625 L 38.8125,37.5625 L 68.40625,23.59375 z M 73.5,26.46875 L 75.46875,28.5625 L 45.625,43.375 L 43.65625,40.1875 L 73.5,26.46875 z M 76.8125,28.78125 L 79.90625,31.09375 L 79.5,31.84375 L 49.34375,45.9375 L 45.6875,44.03125 L 75.6875,28.9375 L 76.8125,28.78125 z M 79.53125,32.46875 L 83.5,33.53125 L 82.78125,34.5625 L 51.15625,48.875 L 49.875,46.4375 L 79.53125,32.46875 z M 36.28125,34.6875 L 37.78125,37.71875 L 37.875,37.78125 L 37.875,38.6875 C 37.611573,38.633381 37.345077,38.58299 37.09375,38.375 L 35.46875,36.15625 L 36.28125,34.6875 z M 83.34375,35.03125 L 87.15625,36.75 L 55.09375,51.5625 L 52.9375,48.78125 L 83.34375,35.03125 z M 87.71875,37.3125 L 90.78125,40.75 L 77.46875,46.25 L 77.375,45.4375 C 76.987636,45.24761 76.654535,45.118316 76.34375,45.25 C 76.17217,45.276891 75.987598,45.433745 75.78125,45.9375 L 75.875,46.90625 L 69.15625,49.65625 L 69,47.71875 C 68.171585,47.566257 67.87681,47.581965 67.28125,48.59375 L 67.40625,50.375 L 58.25,54.15625 L 54.90625,54.75 L 55.8125,51.90625 C 58.071356,50.870043 87.203816,37.544354 87.71875,37.3125 z M 38.15625,37.90625 L 38.875,38.28125 L 41.46875,40.53125 L 41.34375,41.3125 C 40.335462,40.454289 39.572153,39.82923 38.53125,38.96875 C 38.435336,38.889461 38.348846,38.853251 38.25,38.8125 L 38.15625,37.90625 z M 38.875,39.6875 L 40.0625,40.78125 L 37.09375,96.21875 C 36.190076,97.190188 35.757663,96.747844 35.34375,96.25 L 38.875,39.6875 z M 43.1875,40.4375 L 44.9375,43.0625 L 44.96875,43.75 L 44.59375,44.40625 C 44.496325,44.333236 44.394626,44.265171 44.3125,44.1875 C 44.152787,44.036451 44.910252,43.461834 44.75,43.3125 C 44.110019,42.716124 43.743342,42.075186 43.125,41.5 L 43.09375,40.46875 L 43.1875,40.4375 z M 42.6875,40.53125 L 42.625,41.3125 C 42.293846,41.351967 41.867328,41.502174 41.625,41.46875 L 41.78125,40.6875 L 42.6875,40.53125 z M 40.4375,41.125 L 41.40625,42 L 47.78125,53.96875 L 46.875,54 L 40.40625,41.9375 L 40.4375,41.125 z M 91.4375,41.3125 L 91.53125,42.40625 L 77.65625,48 L 77.53125,46.90625 L 91.4375,41.3125 z M 42.84375,41.75 L 44.28125,43.3125 L 43.71875,44.28125 L 45.3125,45.1875 L 44.25,46.5625 L 41.78125,41.9375 L 42.84375,41.75 z M 40.375,42.5625 L 43.25,47.875 L 39.875,52.15625 L 40.375,42.5625 z M 88.46875,44.09375 L 92.1875,103.34375 C 91.604167,104.28358 91.020833,103.96357 90.4375,103.96875 L 89.34375,83.84375 L 89.5,83.78125 L 89.3125,83.21875 L 88.15625,61.84375 L 88.15625,61.34375 L 87.25,44.59375 L 88.46875,44.09375 z M 45.0625,44.15625 L 48.78125,46.3125 L 48.6875,46.625 C 47.928956,46.007288 46.697102,45.548691 45.65625,45.03125 L 45.53125,44.90625 L 45.5,44.9375 C 45.261931,44.814759 45.015803,44.695595 44.8125,44.5625 L 45.0625,44.15625 z M 86.8125,44.78125 L 86.875,45.65625 L 78.34375,54.4375 L 78.21875,53.21875 L 86.1875,45.03125 L 86.8125,44.78125 z M 45.46875,45.28125 L 46.15625,45.6875 L 44.75,47.53125 L 44.34375,46.75 L 45.46875,45.28125 z M 85.40625,45.375 L 78.84375,52.15625 L 78.03125,51.375 L 77.71875,48.5625 L 85.40625,45.375 z M 76.34375,45.46875 C 76.665393,45.353954 76.981562,45.678354 77,45.875 L 83.84375,107.875 C 83.457901,108.69824 82.82335,108.44635 82.4375,108.375 L 82.25,106.59375 L 82.53125,106.5 C 83.085164,105.79475 82.890666,105.0171 82.4375,105.0625 L 82.125,105.15625 L 81.875,103.09375 L 82.25,102.96875 C 82.803915,102.2635 82.609416,101.48585 82.15625,101.53125 L 81.75,101.65625 L 81.5,99.34375 L 81.8125,99.25 C 82.366414,98.544749 82.140666,97.767098 81.6875,97.8125 L 81.375,97.90625 L 81.125,95.40625 L 81.46875,95.28125 C 82.022667,94.575993 81.828166,93.798348 81.375,93.84375 L 80.96875,93.96875 L 80.6875,91.25 L 80.84375,91.1875 C 81.397666,90.482249 81.171916,89.704598 80.71875,89.75 L 80.5625,89.8125 L 80.3125,87.5 L 80.5,87.4375 C 81.053912,86.732246 80.859416,85.954598 80.40625,86 L 80.15625,86.09375 L 79.96875,84.09375 L 80.125,84.03125 C 80.678909,83.325996 80.484416,82.548348 80.03125,82.59375 L 79.8125,82.65625 L 79.5625,80.53125 L 79.8125,80.4375 C 80.366415,79.732245 80.171916,78.954598 79.71875,79 L 79.4375,79.09375 L 79.15625,76.34375 L 79.25,76.3125 C 79.635285,76.045505 80.294132,75.349542 79.28125,74.90625 L 79.03125,75 L 78.8125,73 L 79.0625,72.90625 C 79.616411,72.200999 79.421916,71.423348 78.96875,71.46875 L 78.6875,71.5625 L 78.4375,69.4375 L 78.71875,69.34375 C 78.942434,68.735721 78.772932,68.242926 78.59375,67.75 L 78.28125,67.875 L 78.0625,65.875 L 78.46875,65.71875 C 78.499774,65.253489 78.791866,64.777765 78.28125,64.3125 L 77.9375,64.4375 L 77.75,62.90625 L 78.09375,62.78125 C 78.526133,62.107933 78.419086,61.594176 77.96875,61.15625 L 77.625,61.28125 L 77.375,59.15625 L 77.59375,59.09375 C 78.022636,58.413676 77.88327,57.805446 77.59375,57.53125 L 77.25,57.65625 L 77.03125,55.65625 L 77.375,55.53125 C 77.627271,54.881033 77.416427,54.456494 77.34375,53.96875 L 76.875,54.125 L 76.6875,52.375 L 77.125,52.21875 C 77.393914,51.573089 77.35357,51.021646 77.09375,50.65625 L 76.5625,50.84375 L 76.34375,48.84375 L 76.84375,48.625 C 76.997896,48.231839 77.15969,47.808067 76.71875,47.46875 L 76.21875,47.65625 L 76.0625,46.15625 C 76.109614,45.833742 76.208565,45.502947 76.34375,45.46875 z M 46.3125,45.75 L 48.375,46.9375 L 49.84375,49.53125 L 46.53125,50.875 L 44.875,47.75 L 46.3125,45.75 z M 86.875,46.09375 L 87.6875,60.875 L 79.96875,53.25 L 86.875,46.09375 z M 49.03125,46.46875 L 49.1875,46.5625 L 50.53125,48.75 L 50.46875,49.5 C 50.462457,49.496027 50.442234,49.504791 50.4375,49.5 C 49.750415,48.804649 49.621582,47.586138 48.9375,46.84375 L 49.03125,46.46875 z M 75.9375,47.53125 L 75.96875,47.75 L 69.1875,50.3125 L 69.1875,50.25 L 75.9375,47.53125 z M 76.5625,47.65625 C 76.667114,47.850239 76.917453,48.163239 76.6875,48.46875 L 69.25,51.46875 L 69.21875,50.59375 L 76.5625,47.65625 z M 43.34375,48.03125 L 43.78125,48.84375 L 40.4375,53.28125 L 39.8125,53.53125 L 39.875,52.53125 L 43.34375,48.03125 z M 68.0625,48.0625 C 68.261272,48.037902 68.506358,48.126367 68.75,48.28125 L 72.96875,110.84375 C 73.100433,111.3778 72.710907,111.95533 71.78125,111.34375 L 67.65625,48.5625 C 67.782657,48.248428 67.863728,48.087098 68.0625,48.0625 z M 76.09375,48.9375 L 76.1875,50.09375 L 75.1875,49.3125 L 76.09375,48.9375 z M 50.71875,49.03125 L 50.75,49.09375 L 51.78125,49.0625 L 51.78125,49.5 C 51.586719,49.425667 51.001126,49.559131 50.65625,49.5625 L 50.71875,49.03125 z M 52.21875,49.03125 L 52.3125,49.03125 L 54.96875,52.125 L 54.5625,55.21875 L 54.40625,55.5625 C 54.375964,55.540343 54.336713,55.527005 54.3125,55.5 C 53.800936,54.929444 54.578168,53.488638 54.3125,52.8125 C 54.002586,52.023755 53.516199,51.357438 52.96875,50.71875 L 53.03125,50.6875 L 52.90625,50.625 C 52.656735,50.339428 52.374118,50.060184 52.09375,49.78125 L 52.21875,49.03125 z M 43.90625,49.0625 L 45.15625,51.40625 L 40.96875,53.0625 L 43.90625,49.0625 z M 74.84375,49.46875 L 76.25,50.5625 L 76.28125,50.9375 L 74.90625,51.4375 L 73.4375,50.0625 L 74.84375,49.46875 z M 50.125,49.90625 L 51.75,49.9375 L 52.25,50.65625 L 47.5,52.6875 L 46.71875,51.25 L 50.125,49.90625 z M 73.0625,50.21875 L 74.5625,51.5625 L 69.40625,53.375 L 69.34375,51.8125 L 73.0625,50.21875 z M 52.46875,50.9375 L 53.9375,52.96875 L 53.90625,53.6875 L 48.15625,53.9375 L 47.625,52.9375 L 52.46875,50.9375 z M 67.4375,50.9375 L 67.5,52.09375 L 58.21875,55.84375 C 58.128255,55.468294 58.031276,55.075563 57.96875,54.75 L 67.4375,50.9375 z M 76.96875,50.9375 C 77.354958,51.231254 77.214604,51.943017 76.96875,52.0625 L 69.5,54.71875 L 69.40625,53.71875 L 76.96875,50.9375 z M 45.375,51.78125 L 46.1875,53.28125 L 44.28125,54.125 L 39.8125,54.3125 L 39.8125,54 L 45.375,51.78125 z M 78.09375,52 L 78.53125,52.4375 L 78.1875,52.8125 L 78.09375,52 z M 76.4375,52.46875 L 76.46875,52.875 L 76.0625,52.59375 L 76.4375,52.46875 z M 75.78125,52.71875 L 76.53125,53.3125 L 76.625,54.21875 L 69.625,56.6875 L 69.5,55.0625 L 75.78125,52.71875 z M 67.5625,52.75 L 67.8125,56.5625 L 66.625,56.28125 L 66.46875,53.1875 L 67.5625,52.75 z M 66.1875,53.3125 L 66.3125,56.21875 L 61.71875,55.15625 L 66.1875,53.3125 z M 46.28125,53.5 L 46.5625,54 L 44.875,54.09375 L 46.28125,53.5 z M 79.6875,53.5625 L 87.21875,61 L 84.84375,60.4375 L 78.71875,54.53125 L 79.6875,53.5625 z M 53.875,54.03125 L 53.8125,55.15625 L 40,55.5 L 39.78125,55.125 L 39.78125,54.875 L 39.78125,54.78125 L 53.875,54.03125 z M 77.15625,54.1875 C 77.171586,54.519137 77.576301,54.767787 77.21875,55.3125 L 69.71875,58 L 69.65625,57 L 77.15625,54.1875 z M 57.65625,54.84375 C 57.681999,55.195289 57.747325,55.535759 57.84375,55.875 C 57.211666,55.514504 55.722542,55.8604 54.84375,55.71875 L 55,55.15625 L 57.65625,54.84375 z M 78.46875,54.84375 L 83.96875,60.25 L 78.84375,59.0625 L 78.40625,54.90625 L 78.46875,54.84375 z M 61.09375,55.40625 L 67.84375,56.9375 L 67.875,57.71875 L 60.03125,55.84375 L 61.09375,55.40625 z M 53.78125,55.53125 L 53.78125,55.78125 L 54.125,55.875 L 51.625,59 L 50.6875,58.6875 L 49.0625,55.65625 L 53.78125,55.53125 z M 48.6875,55.65625 L 57.125,71.46875 L 57.09375,72.625 L 56.6875,72.21875 L 47.78125,55.6875 L 48.6875,55.65625 z M 47.46875,55.6875 L 48.75,58.0625 L 42.0625,55.8125 L 47.46875,55.6875 z M 76.75,55.75 L 76.78125,55.96875 L 74.34375,58.6875 L 71.78125,59.59375 L 75,56.375 L 76.75,55.75 z M 39.71875,55.78125 L 39.78125,55.84375 L 39.90625,56.15625 L 40.03125,56.09375 L 57.09375,72.96875 L 57,75.3125 L 39.59375,58.1875 L 39.71875,55.78125 z M 41.34375,55.8125 L 48.9375,58.375 L 49.40625,59.28125 L 40.65625,56.40625 L 40.25,56 L 40.59375,55.84375 L 41.34375,55.8125 z M 54.53125,55.96875 L 56.0625,56.375 L 52,61.15625 L 51.375,59.96875 L 54.53125,55.96875 z M 59.46875,56.09375 L 58.125,113.71875 L 56.25,114 L 58.09375,56.65625 L 59.46875,56.09375 z M 59.90625,56.1875 L 66.34375,57.71875 L 66.59375,64.03125 L 59.78125,61.75 L 59.90625,56.1875 z M 76.8125,56.3125 L 77,57.75 L 75.65625,58.21875 L 75.21875,58.15625 L 76.8125,56.3125 z M 56.375,56.46875 L 57.6875,56.8125 L 57.53125,61 L 53.625,59.6875 L 56.375,56.46875 z M 74.4375,56.59375 L 73.125,57.90625 L 71.6875,57.59375 L 74.4375,56.59375 z M 41,56.75 L 49.59375,59.59375 L 50.21875,60.75 L 47.96875,63.625 L 41,56.75 z M 77.5,57.71875 C 77.972978,57.887325 77.717866,58.525425 77.5,58.90625 L 69.96875,61.5 L 69.875,60.5 L 77.5,57.71875 z M 71.21875,57.75 L 72.875,58.15625 L 72.28125,58.75 L 70,58.1875 L 71.21875,57.75 z M 66.6875,57.78125 L 67.90625,58.09375 L 68.25,63.125 L 67,64.375 L 66.6875,57.78125 z M 75.03125,58.375 L 75.15625,58.40625 L 74.9375,58.46875 L 75.03125,58.375 z M 69.75,58.5 L 70,58.5625 L 71.59375,59.40625 L 71,59.875 L 69.8125,59.375 L 69.75,58.5 z M 39.5625,58.5625 L 40.1875,59.1875 L 56.3125,94.4375 L 56.28125,95.4375 L 55.65625,94.78125 L 39.46875,60.15625 L 39.5625,58.5625 z M 70.8125,58.75 L 72,59.03125 L 71.8125,59.21875 L 70.8125,58.75 z M 50.875,59.03125 L 51.46875,59.21875 L 51.15625,59.59375 L 50.875,59.03125 z M 77.125,59.25 L 77.21875,60.125 L 75.59375,59.8125 L 77.125,59.25 z M 78.90625,59.40625 L 87.59375,61.375 L 87.5,61.9375 L 86.875,62.21875 L 86.625,62.15625 L 79,60.34375 L 78.90625,59.40625 z M 69.84375,59.625 L 70.625,59.96875 L 69.875,60.25 L 69.84375,59.625 z M 40.84375,59.8125 L 46.53125,65.40625 L 44.5,67.90625 L 40.84375,59.8125 z M 53.46875,59.875 L 57.53125,61.25 L 57.5,61.90625 L 53,60.4375 L 53.46875,59.875 z M 75.21875,59.9375 L 77.25,60.40625 L 77.3125,61.15625 L 74.65625,60.15625 L 75.21875,59.9375 z M 74.21875,60.3125 L 77.21875,61.40625 L 76.15625,61.78125 L 73.28125,60.65625 L 74.21875,60.3125 z M 39.46875,60.53125 L 43.46875,69.25 L 38.75,75.15625 L 39.46875,60.53125 z M 52.84375,60.65625 L 57.5,62.15625 L 57.25,68.53125 L 56.15625,68.96875 L 52.15625,61.4375 L 52.84375,60.65625 z M 79.03125,60.6875 L 86.125,62.375 L 86.375,62.625 L 80.40625,65.03125 L 79.28125,63.03125 L 79.03125,60.6875 z M 72.875,60.71875 L 75.78125,61.90625 L 70.125,63.875 L 70.125,63.78125 L 72.875,60.71875 z M 72.125,61.0625 L 70.09375,63.25 L 70,61.96875 L 70.1875,61.78125 L 72.125,61.0625 z M 50.4375,61.125 L 51.03125,62.25 L 49,64.625 L 48.25,63.90625 L 50.4375,61.125 z M 77.78125,61.4375 C 78.12772,61.683453 78.329328,62.174615 77.96875,62.65625 L 70.21875,65.25 L 70.1875,64.1875 L 77.78125,61.4375 z M 59.78125,62.03125 L 66.625,64.34375 L 66.625,64.5 L 66.09375,64.71875 L 59.75,62.65625 L 59.78125,62.03125 z M 87.75,62.46875 L 87.84375,64.09375 L 79.75,67.34375 L 79.59375,65.75 L 87.75,62.46875 z M 51.21875,62.5625 L 54.96875,69.46875 L 54.1875,69.75 L 49.25,64.875 L 51.21875,62.5625 z M 59.75,62.9375 L 65.71875,64.90625 L 59.65625,67.5625 L 59.75,62.9375 z M 77.5,62.96875 L 77.6875,64.53125 L 71.8125,66.59375 L 70.46875,65.46875 L 77.5,62.96875 z M 68.25,63.5 L 68.34375,64.71875 L 60.15625,73.15625 L 59.53125,73.40625 L 59.5625,72.4375 L 68.25,63.5 z M 79.40625,64.125 L 80,65.1875 L 79.53125,65.375 L 79.40625,64.125 z M 87.875,64.46875 L 87.9375,65.375 L 80.40625,73.4375 L 80.28125,72.15625 L 87.15625,64.75 L 87.875,64.46875 z M 78.1875,64.53125 C 78.422245,64.857828 78.454982,65.208302 78.21875,65.59375 L 70.4375,68.40625 L 70.375,67.40625 L 78.1875,64.53125 z M 66.4375,64.96875 L 63.5,68 L 59.59375,69.78125 L 59.65625,67.9375 L 66.4375,64.96875 z M 86.34375,65.09375 L 82.6875,69 L 81.5625,67.0625 L 86.34375,65.09375 z M 68.375,65.25 L 68.6875,69.75 L 67.28125,70.3125 L 67.09375,66.59375 L 68.375,65.25 z M 46.8125,65.6875 L 47.5,66.375 L 45.09375,69.1875 L 44.71875,68.34375 L 46.8125,65.6875 z M 70.28125,65.8125 L 71.375,66.75 L 70.4375,67.0625 L 70.34375,67.03125 L 70.28125,65.8125 z M 87.9375,65.8125 L 88.6875,79.65625 L 83.53125,70.53125 L 87.9375,65.8125 z M 77.8125,65.9375 L 77.84375,66.1875 L 73.375,67.9375 L 73.15625,67.71875 L 77.8125,65.9375 z M 77.875,66.46875 L 78.03125,67.9375 L 70.59375,70.53125 L 70.5,69.40625 L 77.875,66.46875 z M 47.75,66.625 L 51.90625,70.6875 L 46.71875,72.78125 L 45.25,69.5625 L 47.75,66.625 z M 66.6875,67.03125 L 66.84375,70.46875 L 61.15625,72.75 L 66.6875,67.03125 z M 81.1875,67.21875 L 82.375,69.34375 L 81.78125,69.96875 L 80.4375,67.53125 L 81.1875,67.21875 z M 80,67.6875 L 81.4375,70.34375 L 80.21875,71.65625 L 79.8125,67.78125 L 80,67.6875 z M 72.75,67.875 L 73,68.09375 L 71.53125,68.65625 C 71.456234,68.578791 71.367263,68.50107 71.3125,68.4375 L 72.75,67.875 z M 78.4375,68.0625 C 78.647504,68.342356 78.762842,68.669279 78.5625,69.125 L 70.6875,71.8125 L 70.625,70.875 L 78.4375,68.0625 z M 62.96875,68.53125 L 59.5625,72.0625 L 59.59375,70.0625 L 62.96875,68.53125 z M 71,68.53125 C 71.086683,68.610929 71.177802,68.704354 71.25,68.78125 L 70.5,69.0625 L 70.46875,68.75 L 71,68.53125 z M 57.21875,68.9375 L 57.15625,70.78125 L 57.125,70.8125 L 56.3125,69.28125 L 57.21875,68.9375 z M 78.15625,69.53125 L 78.40625,71.65625 L 77.9375,71.8125 L 76.0625,70.28125 L 78.15625,69.53125 z M 43.65625,69.65625 L 44.03125,70.5 L 39.59375,75.6875 L 38.71875,76.03125 L 38.71875,75.84375 L 43.65625,69.65625 z M 55.125,69.78125 L 55.9375,71.28125 L 55.8125,71.34375 L 54.46875,70.03125 L 55.125,69.78125 z M 68.6875,70.125 L 68.8125,71.75 L 59.46875,75.5 L 59.5,73.84375 L 68.6875,70.125 z M 75.625,70.4375 L 77.46875,71.96875 L 75.84375,72.53125 L 74.15625,70.96875 L 75.625,70.4375 z M 44.1875,70.84375 L 45.34375,73.375 L 40.3125,75.40625 L 44.1875,70.84375 z M 83.21875,70.84375 L 88.75,80.5625 L 88.8125,81.96875 L 87.84375,81.0625 L 82.625,71.5 L 83.21875,70.84375 z M 52.15625,70.9375 L 53.53125,72.28125 L 47.625,74.75 L 46.84375,73.0625 L 52.15625,70.9375 z M 73.75,71.09375 L 75.34375,72.6875 L 70.84375,74.21875 L 70.6875,72.1875 L 73.75,71.09375 z M 56.09375,71.53125 L 56.1875,71.71875 L 56.03125,71.5625 L 56.09375,71.53125 z M 78.90625,71.6875 C 79.507505,71.836541 79.2908,72.569258 78.9375,72.71875 L 76.65625,73.53125 L 70.9375,75.5 L 70.875,74.5625 L 78.90625,71.6875 z M 82.28125,71.875 L 86.75,80.03125 L 80.5,74.1875 L 80.4375,73.8125 L 82.28125,71.875 z M 68.84375,72.21875 L 69.1875,77.5625 L 67.5,77.15625 L 67.34375,72.84375 L 68.84375,72.21875 z M 53.78125,72.53125 L 56.65625,75.375 L 48.1875,76.03125 L 47.78125,75.09375 L 53.78125,72.53125 z M 66.90625,73.03125 L 67.0625,77.0625 L 60.71875,75.5625 L 66.90625,73.03125 z M 78.15625,73.21875 L 78.21875,73.4375 L 77.46875,74.25 L 76.84375,73.6875 L 78.15625,73.21875 z M 78.59375,73.5625 L 78.71875,74.78125 L 78.28125,75.25 L 76.28125,75.9375 L 77.4375,74.71875 L 78.59375,73.5625 z M 45.46875,73.65625 L 46.25,75.3125 L 43.75,76.34375 L 38.75,76.71875 L 38.8125,76.3125 L 45.46875,73.65625 z M 76.4375,73.84375 L 77.21875,74.53125 L 75.75,76.125 L 71.09375,77.71875 L 70.96875,75.8125 L 76.4375,73.84375 z M 80.5625,74.78125 L 88.1875,82.09375 L 85.5,81.4375 L 80.78125,76.84375 L 80.5625,74.78125 z M 79.28125,75.09375 C 79.828492,74.947816 79.679209,75.894375 79.125,76.21875 L 71.1875,79 L 71.125,77.9375 L 79.28125,75.09375 z M 56.90625,75.59375 L 57,75.6875 L 56.96875,76.46875 L 48.71875,77.1875 L 48.34375,76.3125 L 56.90625,75.59375 z M 46.40625,75.65625 L 46.59375,76.125 L 45.03125,76.25 L 46.40625,75.65625 z M 60,75.84375 L 69.21875,77.96875 L 69.28125,79.03125 L 59.46875,76.65625 L 59.46875,76.0625 L 60,75.84375 z M 46.75,76.4375 L 47.15625,77.3125 L 39,77.96875 L 38.625,77.65625 L 38.6875,77.125 L 46.75,76.4375 z M 78.875,76.4375 L 79.15625,79.1875 L 78.375,79.46875 L 75.84375,78.90625 L 77.65625,76.875 L 78.875,76.4375 z M 56.96875,76.75 L 56.34375,93.9375 L 48.84375,77.4375 L 56.96875,76.75 z M 77.1875,77.0625 L 75.53125,78.84375 L 73.96875,78.5 L 74.3125,78.09375 L 77.1875,77.0625 z M 59.4375,77.09375 L 67.125,78.90625 L 67.34375,85.15625 C 67.394784,85.198071 67.450008,85.218405 67.5,85.25 L 59.0625,94.25 L 59.4375,77.09375 z M 47.25,77.5625 L 54.71875,93.875 L 39.5,78.59375 L 40.59375,78.125 L 47.25,77.5625 z M 80.875,77.65625 L 84.40625,81.1875 L 81.15625,80.40625 L 80.875,77.65625 z M 38.59375,78.15625 L 56.25,96.1875 L 56.15625,98.09375 L 38.46875,80.40625 L 38.59375,78.15625 z M 73.75,78.3125 L 73.625,78.4375 L 73.46875,78.40625 L 73.75,78.3125 z M 73.03125,78.59375 L 77.84375,79.625 L 75.21875,80.53125 L 71.25,79.46875 L 71.21875,79.25 L 73.03125,78.59375 z M 67.5625,79 L 69.3125,79.40625 L 69.53125,83.0625 L 67.84375,84.875 C 67.811642,84.868604 67.782097,84.85174 67.75,84.84375 L 67.5625,79 z M 79.65625,79.21875 C 80.257501,79.367796 80.0408,80.100508 79.6875,80.25 L 77.21875,81.09375 L 77.1875,81.09375 L 77.15625,81.125 L 71.46875,83.09375 L 71.40625,82.09375 L 75.09375,80.8125 L 75.125,80.8125 L 79.65625,79.21875 z M 71.25,79.75 L 72.3125,80.03125 L 71.34375,81.15625 L 71.25,79.75 z M 72.65625,80.125 L 73.9375,80.46875 L 73.25,81.1875 L 71.40625,81.8125 L 71.375,81.59375 L 72.65625,80.125 z M 74.1875,80.5625 L 74.6875,80.6875 L 73.78125,81 L 74.1875,80.5625 z M 79.28125,80.625 L 79.375,81.53125 L 77.65625,81.1875 L 79.28125,80.625 z M 81.21875,80.75 L 88.53125,82.4375 L 88.84375,82.71875 L 88.84375,82.875 L 88.71875,83.46875 L 88.40625,83.59375 L 81.34375,81.90625 L 81.21875,80.75 z M 77.09375,81.375 L 79.4375,81.90625 L 79.53125,82.78125 L 71.65625,85.4375 L 71.53125,83.8125 L 72.5625,82.9375 L 77.09375,81.375 z M 81.375,82.28125 L 86.8125,83.5625 L 87.3125,84.0625 L 81.8125,86.375 L 81.375,82.28125 z M 79.96875,82.78125 C 80.570004,82.930296 80.3533,83.694258 80,83.84375 L 71.75,86.71875 L 71.6875,85.6875 L 79.96875,82.78125 z M 71.8125,83.1875 L 71.5,83.46875 L 71.5,83.3125 L 71.8125,83.1875 z M 69.59375,83.625 L 69.65625,84.90625 L 59.5,95.78125 L 59.03125,95.96875 L 59.0625,94.90625 L 69.59375,83.625 z M 88.9375,84.03125 L 89,85.71875 L 82.0625,88.65625 L 81.875,86.9375 L 88.9375,84.03125 z M 79.65625,84.1875 L 79.875,86.1875 L 71.875,88.8125 L 71.75,86.96875 L 79.65625,84.1875 z M 69.71875,85.53125 L 70.09375,91.3125 L 60.34375,95.40625 L 69.5,85.59375 C 69.572469,85.575547 69.645562,85.553798 69.71875,85.53125 z M 80.34375,86.21875 C 80.945006,86.367797 80.7283,87.100508 80.375,87.25 L 71.96875,90.1875 L 71.90625,89.15625 L 80.34375,86.21875 z M 80,87.59375 L 80.28125,89.65625 L 78.25,90.5625 L 72.15625,92.59375 L 72,90.46875 L 80,87.59375 z M 80.6875,89.9375 C 81.288753,90.086541 81.07205,90.850508 80.71875,91 L 72.25,93.875 L 72.125,92.875 L 80.6875,89.9375 z M 80.375,91.34375 L 80.65625,94.09375 L 72.4375,96.78125 L 72.25,94.25 L 80.375,91.34375 z M 70.125,91.78125 L 70.25,93.6875 L 59.125,98.40625 L 59.0625,96.34375 L 70.125,91.78125 z M 81.3125,94.03125 C 81.913753,94.180293 81.69705,94.913008 81.34375,95.0625 L 72.53125,98.0625 L 72.4375,97.0625 L 81.3125,94.03125 z M 80.8125,95.5 L 81.0625,98.03125 L 72.71875,100.75 L 72.5,98.375 L 80.8125,95.5 z M 81.65625,98 C 82.2575,98.149041 82.0408,98.913008 81.6875,99.0625 L 72.8125,102.03125 L 72.75,101.0625 L 81.65625,98 z M 81.1875,99.4375 L 81.4375,101.78125 L 73,104.5625 L 72.84375,102.3125 L 81.1875,99.4375 z M 82.09375,101.71875 C 82.695002,101.86779 82.4783,102.63176 82.125,102.78125 L 73.0625,105.84375 L 73,104.84375 L 82.09375,101.71875 z M 81.5625,103.1875 L 81.8125,105.28125 L 73.25,108.09375 L 73.09375,106.125 L 81.5625,103.1875 z M 82.375,105.25 C 82.976251,105.39904 82.75955,106.16301 82.40625,106.3125 L 73.3125,109.375 L 73.25,108.40625 L 82.375,105.25 z"
       id="path2308" />
  </g>
</svg>
