<?xml version="1.0" encoding="UTF-8" standalone="no"?>
<!-- Created with Inkscape (http://www.inkscape.org/) -->

<svg
   xmlns:dc="http://purl.org/dc/elements/1.1/"
   xmlns:cc="http://creativecommons.org/ns#"
   xmlns:rdf="http://www.w3.org/1999/02/22-rdf-syntax-ns#"
   xmlns:svg="http://www.w3.org/2000/svg"
   xmlns="http://www.w3.org/2000/svg"
   xmlns:sodipodi="http://sodipodi.sourceforge.net/DTD/sodipodi-0.dtd"
   xmlns:inkscape="http://www.inkscape.org/namespaces/inkscape"
   width="603.00598"
   height="753.97943"
   id="svg2"
   version="1.1"
   inkscape:version="0.47 r22583"
   sodipodi:docname="cybergedeon_skull.svg"
   style="display:inline"
   inkscape:export-filename="/home/gaston/GNU/is/ecology/skull_perso.png"
   inkscape:export-xdpi="150"
   inkscape:export-ydpi="150">
  <defs
     id="defs4">
    <inkscape:perspective
       sodipodi:type="inkscape:persp3d"
       inkscape:vp_x="0 : 526.18109 : 1"
       inkscape:vp_y="0 : 1000 : 0"
       inkscape:vp_z="744.09448 : 526.18109 : 1"
       inkscape:persp3d-origin="372.04724 : 350.78739 : 1"
       id="perspective10" />
    <inkscape:perspective
       id="perspective2902"
       inkscape:persp3d-origin="0.5 : 0.33333333 : 1"
       inkscape:vp_z="1 : 0.5 : 1"
       inkscape:vp_y="0 : 1000 : 0"
       inkscape:vp_x="0 : 0.5 : 1"
       sodipodi:type="inkscape:persp3d" />
  </defs>
  <sodipodi:namedview
     id="base"
     pagecolor="#ffffff"
     bordercolor="#666666"
     borderopacity="1.0"
     inkscape:pageopacity="0.0"
     inkscape:pageshadow="2"
     inkscape:zoom="0.98994949"
     inkscape:cx="25.310712"
     inkscape:cy="294.7"
     inkscape:document-units="px"
     inkscape:current-layer="layer2"
     showgrid="false"
     inkscape:window-width="1633"
     inkscape:window-height="986"
     inkscape:window-x="0"
     inkscape:window-y="0"
     inkscape:window-maximized="0"
     showguides="true"
     inkscape:guide-bbox="true"
     guidetolerance="6"
     gridtolerance="10">
    <sodipodi:guide
       orientation="0,1"
       position="476.55945,398.50603"
       id="guide3704" />
    <sodipodi:guide
       orientation="1,0"
       position="301.04544,304.81439"
       id="guide3745" />
    <sodipodi:guide
       orientation="0,1"
       position="375.42406,305.50189"
       id="guide3752" />
    <sodipodi:guide
       orientation="0,1"
       position="365.78121,288.00189"
       id="guide3754" />
    <sodipodi:guide
       orientation="0,1"
       position="371.13835,297.46617"
       id="guide3756" />
    <sodipodi:guide
       orientation="0,1"
       position="289.53121,293.89474"
       id="guide2896" />
    <sodipodi:guide
       orientation="0,1"
       position="284.88835,332.46617"
       id="guide3675" />
  </sodipodi:namedview>
  <metadata
     id="metadata7">
    <rdf:RDF>
      <cc:Work
         rdf:about="">
        <dc:format>image/svg+xml</dc:format>
        <dc:type
           rdf:resource="http://purl.org/dc/dcmitype/StillImage" />
        <dc:title></dc:title>
      </cc:Work>
    </rdf:RDF>
  </metadata>
  <g
     inkscape:groupmode="layer"
     id="layer2"
     inkscape:label="1"
     style="display:inline"
     sodipodi:insensitive="true"
     transform="translate(-69.933082,-78.170326)">
    <path
       style="fill:#000000;fill-opacity:1;stroke:none"
       d="M 359.25814,78.178191 C 242.30188,77.465918 126.44419,125.08501 78.802095,239.66736 58.242747,289.11384 78.064979,380.94194 91.58267,415.84822 c 21.19243,13.53691 26.89427,39.81668 34.16118,57.33343 10.05177,24.22972 -19.69686,77.5132 -19.11114,98.1835 0.75809,26.75442 4.76184,41.53149 21.50003,43.47785 16.94642,1.97059 34.02563,0.17277 37.14728,-6.56946 2.86774,-6.19376 77.6683,-7.44834 76.44458,27.35283 -8.19253,15.08213 -4.96369,25.94166 10.30183,25.88245 3.95589,-0.0153 4.66716,-9.11571 6.06209,-19.0741 2.14484,-15.31212 13.10003,-13.21265 13.42898,-9.26551 0.0872,-0.22972 2.5477,10.56005 1.56991,20.10676 -0.51776,5.05463 -5.58345,8.83088 -4.40009,14.61482 -2.15141,9.03212 7.77832,6.42258 13.99089,10.04284 8.3031,4.83852 12.25823,10.34921 21.83528,8.80014 4.30228,-0.69587 2.09868,-20.50163 4.7557,-28.14264 2.50352,-7.19949 10.86767,-7.42656 11.57894,1.55552 0.58175,7.34609 -1.67493,12.69794 -0.19034,16.35746 6.58723,16.23813 23.69315,9.39844 29.0846,2.93815 3.07055,-3.67932 3.51095,-33.94364 5.31822,-36.41033 3.32644,-4.54016 8.40618,24.10818 7.42261,19.17942 -2.75113,-13.78621 7.16668,9.09514 7.16668,19.6401 0,10.00399 38.35029,6.30029 30.03178,-12.57582 -3.41023,-7.73841 8.95227,1.99337 8.56588,-0.92143 -0.84834,-6.3991 0.37114,8.15033 12.28576,13.6167 23.76039,10.9011 16.63062,-19.34633 17.79725,-31.41395 1.83983,-19.03146 19.05993,-28.24061 19.11114,2.74723 0.0612,37.02416 39.81253,15.2951 35.47507,-4.06112 -1.50569,-6.71917 -5.78396,-14.36447 -2.74723,-20.54448 8.81131,-17.93191 32.09277,-26.93437 51.83897,-29.9806 16.58439,-2.55849 33.95936,17.8672 49.2112,10.86946 13.13707,-6.02747 31.50689,-11.56049 26.69922,-25.19132 -22.4939,-63.77519 -20.50228,-84.93138 -10.81794,-114.57834 13.93153,-25.45995 8.33078,-40.97808 30.46324,-53.96956 C 688.98659,385.66389 671.52417,267.9392 663.48373,239.66736 625.7326,141.86929 491.80867,78.985453 359.25822,78.178191 l -8e-5,0 z M 224.64402,372.96758 c 21.67892,0.20946 44.43959,3.15908 63.54455,14.21392 53.18693,30.77597 50.40446,46.15884 27.23338,72.26401 -27.98418,31.52784 -72.33775,40.48971 -117.41409,27.35282 -59.11024,-17.22686 -52.38116,-110.71521 5.49446,-113.35297 6.83658,-0.31151 13.91538,-0.54757 21.1417,-0.47778 z m 280.0977,-0.0478 c 7.40729,-0.0699 15.01207,0.16626 22.81392,0.47776 57.88953,2.31201 64.48525,96.00668 5.37501,113.23354 -45.07634,13.13688 -89.31046,4.29446 -117.29464,-27.23339 -23.17108,-26.10517 -25.95355,-41.60747 27.23338,-72.38345 19.10492,-11.05484 39.65046,-13.88504 61.87233,-14.09446 z m -135.0919,99.42572 c 5.84763,0.12918 9.37681,-0.31227 12.54168,5.25557 -0.27519,-0.82618 31.15755,52.92208 33.80284,59.84175 9.87783,25.83892 -19.50746,19.84127 -24.6056,13.13892 -6.20312,-8.90247 -5.83546,-19.25219 -21.73892,-19.35003 -15.90345,-0.0978 -14.76779,13.60656 -21.73893,19.82781 -5.09813,6.70235 -34.48342,12.7 -24.6056,-13.13891 2.64529,-6.91969 34.07803,-60.66794 33.80284,-59.84178 3.8707,-5.28877 6.69406,-5.86252 12.54169,-5.73333 z"
       id="path2930"
       sodipodi:nodetypes="cscsssscsscscssssssssssssssssssscsccccssscccssscccscscsccc" />
    <path
       style="fill:#000000;fill-opacity:1;stroke:none"
       d="m 226.02617,675.16476 c -4.96652,-10.02765 -4.50943,-27.7634 -8.40335,-37.32903 -7.79674,-19.15307 -24.98279,-33.23772 -22.31098,8.66228 0.95362,14.95482 3.15954,26.1416 7.34163,39.6255 3.57386,11.52287 2.92879,30.71207 2.89644,42.2794 -0.13106,46.94595 8.30835,55.45978 40.95247,56.65093 l 46.4128,17.74603 c 44.22315,9.98825 41.19881,29.47692 76.77198,29.34929 35.57318,-0.12771 32.66064,-10.61302 50.18058,-14.33335 16.54216,-0.94554 32.35486,-7.28639 41.63501,-24.57151 l 17.06354,-19.79367 c 8.30203,-9.33248 20.2327,-11.40768 32.07939,-13.65082 9.80501,-7.89994 26.80339,-10.04517 19.79369,-31.39686 -4.91146,-15.41776 -3.73424,-47.07201 -3.41269,-76.44458 0.37917,-34.63624 -17.4907,-29.36783 -22.52385,-5.46032 l -8.19046,38.90482 c -5.29093,11.8452 -13.13823,14.31704 -23.88897,6.14285 -16.47954,-6.9037 -31.70149,-10.87304 -32.0794,19.79373 l -10.92068,-1.36512 c -5.21979,0.89907 -7.02682,-8.96858 -12.24661,-9.88221 -14.66914,-5.21918 -15.35921,3.54071 -17.78517,10.56476 l -14.33336,0.68253 c -3.41447,-16.45981 -5.49442,-10.03366 -10.24342,-10.05108 -5.1276,-0.0153 -3.41842,5.46673 -5.1276,7.32094 l -9.20044,0.68253 c -5.9899,-9.6773 -23.73257,-23.03985 -33.44451,-2.04765 l -10.92064,1.36512 c -4.2692,-11.97114 -20.89689,-18.0723 -23.20639,3.41271 l -12.96829,-0.68257 c -3.81505,-4.49169 -1.24009,-13.87244 -3.45553,-16.38292 -5.89502,-6.6801 -16.70207,-3.32481 -24.52866,-6.14095 -7.95107,12.94227 -11.71654,0.56976 -25.93653,-13.65078 z"
       id="path3758"
       sodipodi:nodetypes="csssscczcccccsscccccccsccccccscc" />
  </g>
</svg>
