<?xml version="1.0"?>
<svg xmlns:rdf="http://www.w3.org/1999/02/22-rdf-syntax-ns#" xmlns="http://www.w3.org/2000/svg" xmlns:cc="http://creativecommons.org/ns#" xmlns:xlink="http://www.w3.org/1999/xlink" xmlns:dc="http://purl.org/dc/elements/1.1/" xmlns:svg="http://www.w3.org/2000/svg" id="svg2" viewBox="0 0 247.12 205.02" version="1.0">
  <defs id="defs4">
    <linearGradient id="linearGradient3248">
      <stop id="stop3250" stop-color="#92857d" offset="0"/>
      <stop id="stop3252" stop-color="#ebedeb" offset="1"/>
    </linearGradient>
    <filter id="filter3408" color-interpolation-filters="sRGB">
      <feGaussianBlur id="feGaussianBlur3410" stdDeviation="4.1410521"/>
    </filter>
    <linearGradient id="linearGradient4036" x1="400" gradientUnits="userSpaceOnUse" y1="631.49" gradientTransform="matrix(.96593 -.25882 .25882 .96593 -157.58 92.445)" x2="403.38" y2="626.99">
      <stop id="stop3300" offset="0"/>
      <stop id="stop3302" stop-opacity="0" offset="1"/>
    </linearGradient>
    <radialGradient id="radialGradient4039" xlink:href="#linearGradient3248" spreadMethod="reflect" gradientUnits="userSpaceOnUse" cy="542.15" cx="498.12" gradientTransform="matrix(.11983 .037989 -.053880 .16996 393.24 482.74)" r="33.969"/>
    <radialGradient id="radialGradient4042" xlink:href="#linearGradient3248" spreadMethod="reflect" gradientUnits="userSpaceOnUse" cy="542.15" cx="498.12" gradientTransform="matrix(.11983 .037989 -.053880 .16996 397.18 484.36)" r="33.969"/>
    <linearGradient id="linearGradient4046" x1="218.88" gradientUnits="userSpaceOnUse" y1="673.67" gradientTransform="matrix(.96593 -.25882 .25882 .96593 -157.58 92.445)" x2="234.64" y2="673.67">
      <stop id="stop3198" offset="0"/>
      <stop id="stop3200" stop-opacity="0" offset="1"/>
    </linearGradient>
    <linearGradient id="linearGradient4049" x1="384.9" gradientUnits="userSpaceOnUse" y1="664.67" gradientTransform="matrix(.96593 -.25882 .25882 .96593 -157.58 92.445)" x2="366.9" y2="665.17">
      <stop id="stop3206" stop-color="#fff" offset="0"/>
      <stop id="stop3208" stop-color="#fff" stop-opacity="0" offset="1"/>
    </linearGradient>
    <linearGradient id="linearGradient4052" x1="426" gradientUnits="userSpaceOnUse" y1="672.4" gradientTransform="matrix(.96593 -.25882 .25882 .96593 -157.71 91.962)" x2="399.16" y2="672.4">
      <stop id="stop3478" stop-color="#fff" offset="0"/>
      <stop id="stop3480" stop-color="#fff" stop-opacity="0" offset="1"/>
    </linearGradient>
    <linearGradient id="linearGradient4056" x1="224.72" gradientUnits="userSpaceOnUse" y1="673.86" gradientTransform="matrix(.96593 -.25882 .25882 .96593 -157.58 92.445)" x2="241.16" y2="673.86">
      <stop id="stop3463" stop-color="#eeeeec" stop-opacity=".73239" offset="0"/>
      <stop id="stop3465" stop-color="#eeeeec" stop-opacity="0" offset="1"/>
    </linearGradient>
    <linearGradient id="linearGradient4086" y2="721.75" gradientUnits="userSpaceOnUse" y1="721.75" x2="208.94" x1="51.974">
      <stop id="stop4082" stop-color="#352929" offset="0"/>
      <stop id="stop4084" stop-color="#352929" stop-opacity="0" offset="1"/>
    </linearGradient>
    <linearGradient id="linearGradient4088" y2="712.91" gradientUnits="userSpaceOnUse" y1="725.36" x2="326.45" x1="72.746">
      <stop id="stop4064" stop-color="#ececec" offset="0"/>
      <stop id="stop4066" stop-color="#ececec" stop-opacity="0" offset="1"/>
    </linearGradient>
    <linearGradient id="linearGradient5204" y2="671.49" gradientUnits="userSpaceOnUse" y1="671.49" x2="411" x1="397.75">
      <stop id="stop3224" stop-opacity=".29412" offset="0"/>
      <stop id="stop3226" stop-color="#fff" stop-opacity=".29412" offset="1"/>
    </linearGradient>
  </defs>
  <g id="layer1" transform="translate(-215.38 -550.16)">
    <path id="path3958" filter="url(#filter3408)" transform="matrix(.96593 -.25882 .25882 .96593 -157.58 92.445)" fill="#888a85" d="m247.16 618.44c-11.871 0-21.438 9.5661-21.438 21.438v80c0 11.871 9.5661 21.406 21.438 21.406h133.56c5.6205-0.21052 12.564-5.7284 19.625-13.438 0.0537-0.0495 0.10154-0.1076 0.15625-0.15625 15.074-13.403 33.929-32.773 33.656-47.812 0.0685-13.903-18.781-34-33.438-47.625-7.1835-7.914-14.285-13.598-20-13.812h-133.56zm165.59 51.84c4.3165-0.00001 7.8125 3.5273 7.8125 7.8438 0.00001 4.3165-3.496 7.8125-7.8125 7.8125-4.3164-0.00001-7.8125-3.496-7.8125-7.8125 0.00001-4.3164 3.496-7.8438 7.8125-7.8438z"/>
    <path id="path3960" fill="#352929" d="m235.32 621.21c-11.467 3.0726-18.231 14.789-15.159 26.255l20.706 77.274c3.0726 11.467 14.78 18.201 26.247 15.128l129.01-34.569c5.3745-1.658 10.653-8.785 15.478-18.059 0.0391-0.0617 0.0702-0.13021 0.11048-0.19137 11.092-16.848 24.29-40.438 20.135-54.894-3.5322-13.447-26.941-27.98-44.624-37.348-8.9871-5.7852-17.317-9.4379-22.893-8.1655l-129.01 34.569zm173.37 7.2184c4.1694-1.1172 8.4592 1.3851 9.5764 5.5545s-1.3549 8.4511-5.5243 9.5683-8.4511-1.3549-9.5683-5.5243 1.3468-8.4813 5.5162-9.5985z"/>
    <rect id="rect3962" transform="rotate(-15)" ry="14.617" height="105.26" width="156.96" y="669.12" x="51.974" fill="url(#linearGradient4086)"/>
    <rect id="rect3964" transform="rotate(-15)" ry="2.7322" height="83.5" width="135.96" y="681.37" x="62.474" fill="url(#linearGradient4088)"/>
    <path id="path3966" fill="url(#linearGradient4056)" d="m235.32 621.21c-11.467 3.0726-18.231 14.789-15.159 26.255l20.706 77.274c3.0726 11.467 14.78 18.201 26.247 15.128l3.8637-1.0353c-11.467 3.0726-23.175-3.6615-26.247-15.128l-20.706-77.274c-3.0726-11.467 3.6917-23.183 15.159-26.255l-3.8637 1.0353z"/>
    <path id="path3968" fill="#241c1c" d="m387.58 604.71 18.894 70.513c0.7965-1.2878 1.5819-2.6827 2.3482-4.1556 0.027-0.0426 0.0385-0.0726 0.0663-0.11476 7.6487-11.618 16.76-27.886 13.895-37.855-2.4357-9.2729-18.583-19.296-30.777-25.756-1.5127-0.97373-2.988-1.8612-4.4257-2.6317zm21.108 23.72c4.1694-1.1172 8.4592 1.3851 9.5764 5.5545s-1.3549 8.4511-5.5243 9.5683-8.4511-1.3549-9.5683-5.5243 1.3468-8.4813 5.5162-9.5985z"/>
    <path id="path3970" stroke-linejoin="bevel" d="m387.45 604.23 18.891 70.502c0.7965-1.2878 1.5844-2.6597 2.3507-4.1326 0.027-0.0426 0.0484-0.0898 0.0762-0.13196 7.6487-11.618 16.75-27.886 13.885-37.855-2.4357-9.2729-18.578-19.295-30.773-25.755-1.5127-0.97375-2.9922-1.8575-4.43-2.628z" stroke="url(#linearGradient4052)" stroke-linecap="round" stroke-width="2" fill="none"/>
    <path id="path3972" stroke="url(#linearGradient4049)" stroke-width="1px" fill="none" d="m364.35 595.75s6.2097-1.1514 12.118 6.5881c1.1858 2.0373 21.886 79.332 22.071 80.92 1.9287 8.0657-6.9977 13.004-6.9977 13.004"/>
    <path id="path3974" stroke="url(#linearGradient4046)" stroke-width="1px" fill="none" d="m234.8 629.94s-5.9535 2.1077-7.2005 11.764c-0.008 2.3573 20.712 79.646 21.346 81.114 2.3626 7.9494 12.17 9.68 12.17 9.68"/>
    <path id="path3976" stroke-linejoin="bevel" d="m411 671.49c0 3.6589-2.9661 6.625-6.625 6.625s-6.625-2.9661-6.625-6.625 2.9661-6.625 6.625-6.625 6.625 2.9661 6.625 6.625z" transform="matrix(1.2985 -.34792 .34792 1.2985 -348.34 -95.633)" stroke="url(#linearGradient5204)" stroke-linecap="round" stroke-width="2" fill="none"/>
    <path id="path3978" fill="url(#radialGradient4042)" d="m425.17 552.77c-12.686 3.4678-24.578 15.614-29.89 32.37-1.3934 4.3952-2.2457 8.8043-2.5771 13.081l5.0138 2.8947c0.25453-4.6279 1.148-9.4704 2.6923-14.342 6.5798-20.755 22.61-34.291 38.242-29.335 15.632 4.9558 22.858 25.87 16.279 46.626-6.5798 20.755-24.523 33.671-40.155 28.715-2.6375-0.83613-4.9794-2.1101-7.0218-3.7478l-2.605 1.5068-0.70769 0.73961-0.1541 0.75304-0.0523 0.0463c2.6507 2.3331 5.6818 4.1174 9.0929 5.1987 17.296 5.4832 39.333-8.2941 46.724-31.608 7.3908-23.313-2.6855-47.235-19.982-52.718-4.8646-1.5422-9.9343-1.5384-14.898-0.18146z"/>
    <path id="path3980" fill="url(#radialGradient4039)" d="m421.22 551.18c-12.686 3.4677-24.548 15.606-29.86 32.362-1.328 4.1891-2.158 8.3644-2.5194 12.451l4.9755 2.8726c0.29903-4.4316 1.1622-9.0668 2.6347-13.712 6.5798-20.755 22.618-34.26 38.25-29.305 15.632 4.9558 22.85 25.84 16.27 46.595-6.5798 20.755-24.523 33.671-40.155 28.715-1.3782-0.43692-2.6542-0.98292-3.8709-1.648l-1.7944 1.0308-0.70769 0.73961-0.1541 0.75304-0.65916 0.92073c1.7916 1.1313 3.714 2.0688 5.7765 2.7227 17.296 5.4832 39.303-8.286 46.694-31.599 7.3908-23.313-2.6634-47.274-19.96-52.757-4.8646-1.5422-9.9564-1.5001-14.92-0.14318z"/>
    <path id="path3982" opacity=".35915" fill-rule="evenodd" fill="url(#linearGradient4036)" d="m388.9 595.64c0.70943 0.71578 9.2503 5.5448 9.2503 5.5448l-0.0954-5.6685-8.4351-3.9515-0.7198 4.0752z"/>
  </g>
  <metadata>
    <rdf:RDF>
      <cc:Work>
        <dc:format>image/svg+xml</dc:format>
        <dc:type rdf:resource="http://purl.org/dc/dcmitype/StillImage"/>
        <cc:license rdf:resource="http://creativecommons.org/licenses/publicdomain/"/>
        <dc:publisher>
          <cc:Agent rdf:about="http://openclipart.org/">
            <dc:title>Openclipart</dc:title>
          </cc:Agent>
        </dc:publisher>
        <dc:title>Brown Key Tag</dc:title>
        <dc:date>2011-11-01T15:49:55</dc:date>
        <dc:description>clip art, clipart, key, key tag, tag, </dc:description>
        <dc:source>http://openclipart.org/detail/165536/brown-key-tag-by-snowdrop</dc:source>
        <dc:creator>
          <cc:Agent>
            <dc:title>snowdrop</dc:title>
          </cc:Agent>
        </dc:creator>
        <dc:subject>
          <rdf:Bag>
            <rdf:li>clip art</rdf:li>
            <rdf:li>clipart</rdf:li>
            <rdf:li>key</rdf:li>
            <rdf:li>key tag</rdf:li>
            <rdf:li>tag</rdf:li>
          </rdf:Bag>
        </dc:subject>
      </cc:Work>
      <cc:License rdf:about="http://creativecommons.org/licenses/publicdomain/">
        <cc:permits rdf:resource="http://creativecommons.org/ns#Reproduction"/>
        <cc:permits rdf:resource="http://creativecommons.org/ns#Distribution"/>
        <cc:permits rdf:resource="http://creativecommons.org/ns#DerivativeWorks"/>
      </cc:License>
    </rdf:RDF>
  </metadata>
</svg>
