<?xml version="1.0"?>
<svg xmlns:rdf="http://www.w3.org/1999/02/22-rdf-syntax-ns#" xmlns="http://www.w3.org/2000/svg" xmlns:sodipodi="http://inkscape.sourceforge.net/DTD/sodipodi-0.dtd" xmlns:cc="http://web.resource.org/cc/" xmlns:xlink="http://www.w3.org/1999/xlink" xmlns:dc="http://purl.org/dc/elements/1.1/" xmlns:svg="http://www.w3.org/2000/svg" id="svg1" viewBox="0 0 120 120" sodipodi:version="0.32" sodipodi:docname="chain.svg" sodipodi:docbase="/home/nicu/Desktop/newsvg">
  <defs id="defs3">
    <linearGradient id="linearGradient2821">
      <stop id="stop2823" stop-color="#a0a0a0" offset="0"/>
      <stop id="stop2825" stop-color="#e0e0e0" offset="1"/>
    </linearGradient>
    <linearGradient id="linearGradient2827" x1="43.924" xlink:href="#linearGradient2821" gradientUnits="userSpaceOnUse" x2="6.1457" gradientTransform="scale(1.1179 .89451)" y1="116" y2="80.057"/>
    <linearGradient id="linearGradient3593" x1="73.541" xlink:href="#linearGradient2821" gradientUnits="userSpaceOnUse" x2="64.276" gradientTransform="scale(1.0149 .98529)" y1="81.669" y2="46.701"/>
    <linearGradient id="linearGradient3601" x1="112.68" xlink:href="#linearGradient2821" gradientUnits="userSpaceOnUse" x2="98.988" gradientTransform="scale(.88284 1.1327)" y1="58.78" y2="14.364"/>
  </defs>
  <sodipodi:namedview id="base" bordercolor="#666666" borderopacity="1.0" pagecolor="#ffffff"/>
  <g id="layer1" stroke="#000" stroke-width="1pt">
    <path id="path1088" sodipodi:nodetypes="cccccccccccccccccc" fill="url(#linearGradient2827)" d="m41.8 62.186c-8.373 0.034-16.416 3.172-23.685 7.103-6.477 3.64-12.657 9.063-14.652 16.484-1.7049 6.554 0.8346 13.781 5.6085 18.417 5.0115 4.69 12.396 5.61 18.942 4.62 7.618-1.21 14.891-4.26 21.4-8.35 5.847-3.786 11.13-9.365 12.328-16.461 0.922-6.036-1.172-11.646-5.507-15.891-2.214 2.965-4.124 5.548-5.494 9.002-0.195 1.699 0.699 3.281 0.091 5.165-0.863 4.423-4.703 7.396-8.312 9.658-5.406 3.097-11.319 5.677-17.58 6.274-3.574 0.328-7.847-0.48-9.788-3.842-1.811-2.777-1.436-6.529 0.561-9.104 3.669-4.931 9.46-7.621 15.025-9.837 3.388-1.268 6.439-2.148 10.081-2.18 0.853-3.785 2.705-7.453 4.854-10.665-1.404-0.241-2.448-0.384-3.873-0.393z"/>
    <path id="path1089" sodipodi:nodetypes="cccccccccccccccccccccc" fill="url(#linearGradient3593)" d="m77.31 42.112c-5.778 0.2-11.416 2.173-16.153 5.47-6.067 4.208-11.366 9.576-15.428 15.746-0.828 1.599-2.162 3.577-2.909 5.468-1.697 4.049-2.433 8.528-2.144 12.907 0.282 3.409 1.363 6.402 4.452 8.023 2.605-2.124 5.414-4.791 5.169-8.342-1.375-1.727-0.437-4.007 0.57-5.773 3.697-7.366 9.335-13.571 15.638-18.802 2.161-1.719 4.59-3.381 7.226-4.42 1.735-0.649 3.957-0.554 5.189 1.001 1.934 1.511 0.571 3.765 1.02 5.377 1.861 2.771 5.387 3.094 8.582 1.796 1.215-3.772 1.817-6.381 0.864-10.29-1.383-4.561-5.831-8.145-10.661-8.161-0.471-0.02-0.943-0.017-1.415 0zm-5.324 26.176c-3.378 3.806-5.859 6.665-9.983 9.652 1.032 4.074 0.11 8.227-1.845 11.925 8.528-2.799 14.959-8.586 20.77-15.233 1.138-1.054 1.629-1.882-0.216-1.972-3.09-0.916-6.506-2.008-8.726-4.372z"/>
    <path id="path1100" sodipodi:nodetypes="cccccccccccccccccc" fill="url(#linearGradient3601)" d="m93.183 13.422c-6.957-0.147-13.088 4.332-17.093 9.7-4.48 6.053-8.136 14.07-9.852 21.369 2.782-1.865 9.888-3.141 12.844-2.765 1.99-5.423 4.454-11.84 9.143-15.47 2.768-2.288 7.002-2.39 9.821-0.15 3.414 2.657 3.604 7.501 3.064 11.439-0.94 5.851-3.086 11.503-6.066 16.614-2.167 3.49-5.284 7.231-9.673 7.592-3.654 0.256-7.186-2.382-7.984-5.958-0.77-1.042-0.03-3.306-1.072-3.353-1.521-0.448-5.573 1.508-9.118 4.35 0.531 5.957 2.814 10.352 8.132 13.262 5.298 3.055 12.135 3.772 17.667 0.871 6.523-3.234 10.894-9.53 13.924-15.949 3.55-7.859 6.3-16.605 4.94-25.31-0.8-5.528-3.97-10.806-8.97-13.487-2.96-1.646-6.306-2.699-9.707-2.755z"/>
  </g>
  <metadata>
    <rdf:RDF>
      <cc:Work>
        <dc:format>image/svg+xml</dc:format>
        <dc:type rdf:resource="http://purl.org/dc/dcmitype/StillImage"/>
        <cc:license rdf:resource="http://creativecommons.org/licenses/publicdomain/"/>
        <dc:publisher>
          <cc:Agent rdf:about="http://openclipart.org/">
            <dc:title>Openclipart</dc:title>
          </cc:Agent>
        </dc:publisher>
        <dc:title>Chain</dc:title>
        <dc:date>2009-03-10T13:22:47</dc:date>
        <dc:description>golden chain</dc:description>
        <dc:source>http://openclipart.org/detail/22077/chain-by-nicubunu</dc:source>
        <dc:creator>
          <cc:Agent>
            <dc:title>nicubunu</dc:title>
          </cc:Agent>
        </dc:creator>
        <dc:subject>
          <rdf:Bag>
            <rdf:li>cartoon</rdf:li>
            <rdf:li>chain</rdf:li>
            <rdf:li>clip art</rdf:li>
            <rdf:li>clipart</rdf:li>
            <rdf:li>image</rdf:li>
            <rdf:li>link</rdf:li>
            <rdf:li>media</rdf:li>
            <rdf:li>png</rdf:li>
            <rdf:li>public domain</rdf:li>
            <rdf:li>svg</rdf:li>
            <rdf:li>symbol</rdf:li>
          </rdf:Bag>
        </dc:subject>
      </cc:Work>
      <cc:License rdf:about="http://creativecommons.org/licenses/publicdomain/">
        <cc:permits rdf:resource="http://creativecommons.org/ns#Reproduction"/>
        <cc:permits rdf:resource="http://creativecommons.org/ns#Distribution"/>
        <cc:permits rdf:resource="http://creativecommons.org/ns#DerivativeWorks"/>
      </cc:License>
    </rdf:RDF>
  </metadata>
</svg>
