<?xml version="1.0"?>
<svg xmlns:rdf="http://www.w3.org/1999/02/22-rdf-syntax-ns#" xmlns="http://www.w3.org/2000/svg" xmlns:cc="http://creativecommons.org/ns#" xmlns:xlink="http://www.w3.org/1999/xlink" xmlns:dc="http://purl.org/dc/elements/1.1/" xmlns:svg="http://www.w3.org/2000/svg" id="svg2" viewBox="0 0 199.64 156.24" version="1.0">
  <defs id="defs4">
    <filter id="filter3261">
      <feGaussianBlur id="feGaussianBlur3263" stdDeviation="1.0206824"/>
    </filter>
    <linearGradient id="linearGradient3406" x1="351.09" gradientUnits="userSpaceOnUse" y1="891.12" gradientTransform="translate(0,2)" x2="351.34" y2="839.68">
      <stop id="stop2429" offset="0"/>
      <stop id="stop2431" stop-opacity="0" offset="1"/>
    </linearGradient>
    <linearGradient id="linearGradient2454" x1="-819.27" gradientUnits="userSpaceOnUse" y1="1202.5" gradientTransform="matrix(1.0538 0 .73694 .71478 -1.0506 -.014060)" x2="-822.53" y2="1204.3">
      <stop id="stop2420" stop-color="#b3b3b3" offset="0"/>
      <stop id="stop2422" stop-color="#b3b3b3" stop-opacity="0" offset="1"/>
    </linearGradient>
    <linearGradient id="linearGradient2459" x1="327.29" gradientUnits="userSpaceOnUse" y1="464.45" gradientTransform="matrix(.017059 -.017059 .017059 .017059 11.064 855.46)" x2="327.29" y2="365.36">
      <stop id="stop3267" stop-color="#666" offset="0"/>
      <stop id="stop3269" stop-color="#666" stop-opacity=".53676" offset="1"/>
    </linearGradient>
    <linearGradient id="linearGradient2463" x1="301.43" gradientUnits="userSpaceOnUse" y1="686.65" gradientTransform="matrix(.017059 -.017059 .017059 .017059 11.064 855.46)" x2="422.86" y2="686.65">
      <stop id="stop2408" stop-color="#562200" offset="0"/>
      <stop id="stop2410" stop-color="#b44700" offset="1"/>
    </linearGradient>
  </defs>
  <g id="layer1" opacity="0.3" transform="translate(-19.042 -873.46)">
    <g id="g2475" transform="matrix(12.512 0 0 12.512 -216.93 -9799.4)" fill-rule="evenodd">
      <g id="g2466">
        <path id="path2393" d="m18.91 859.36c0.639 0.64 1.278 1.27 1.916 1.91 0.346 0.05 0.688 0.15 1.034 0.17 0.785-0.71 1.527-1.5 2.279-2.25 2.106 2.11 4.212 4.21 6.318 6.32 0.454 0.08 0.849-0.23 1.191-0.48 0.601-0.48 1.166-1.07 1.431-1.8 0.064-0.18 0.043-0.41-0.136-0.52-2.054-2.05-4.108-4.11-6.162-6.16 0.949-0.95 1.897-1.9 2.846-2.85-0.243-0.21-0.441-0.48-0.707-0.66l-5.013 1.09-5.013 5.01c-0.034 0.07-0.062 0.13 0.016 0.22z"/>
        <path id="rect2386" fill="url(#linearGradient2463)" d="m24.23 859.08l2.437-2.44 6.297 6.3c0.092 0.76-1.77 2.59-2.437 2.43l-6.297-6.29z"/>
        <path id="path2389" fill="url(#linearGradient2459)" d="m19.751 859.24l4.971-4.97 4.192-1.07 0.507 0.51-7.604 7.6-2.066-2.07z"/>
        <path id="path2391" transform="matrix(.0139 -.014211 .0139 .014211 7.9602 850.3)" fill="#803300" d="m421.43 724.51a70 12.143 0 1 1 -140 0 70 12.143 0 1 1 140 0z"/>
        <path id="path2414" filter="url(#filter3261)" transform="matrix(.017059 -.017059 .017059 .017059 11.064 855.46)" fill="url(#linearGradient3406)" d="m280 820.06v42.88c15.04 24.08 123.22 25.02 142.84 0v-42.88c-27.2 24.69-126.89 19.29-142.84 0z"/>
        <path id="rect2413" fill="url(#linearGradient2454)" d="m18.945 859.31c-0.041-0.06-0.015-0.08 0.016-0.1l0.788 0.03 2.071 2.07-0.924-0.12-1.951-1.88z"/>
        <path id="path3432" fill-opacity=".76271" fill="#fff" d="m28.875 853.34c-1.385 0.36-2.769 0.71-4.154 1.06-1.562 1.64-3.194 3.21-4.783 4.82 0.833-0.33 1.234-1.21 1.936-1.71 0.992-0.98 1.987-1.96 2.97-2.95 1.281-0.46 2.628-0.71 3.921-1.13 0.042-0.02 0.076-0.05 0.11-0.09z"/>
      </g>
      <g id="g2445" transform="translate(-18.305 .67840)">
        <path id="path2443" transform="translate(18.862 851.58)" d="m31.375 1.0312c-0.426-0.05669-0.884 0.0385-1.25 0.25-0.681 0.3932-0.997 1.1651-0.969 2.0313 0.001 0.0109 0 0.0203 0 0.0313-0.019 0.2446 0.045 0.4792 0.063 0.6562 0.018 0.1847 0.018 0.3002-0.188 0.4375l-6.406 6.2185c-0.01-0.001-0.021-0.001-0.031 0-0.325 0.325-0.341 0.84-0.094 1.219 0.002 0.015-0.009 0.011 0 0.031 0.05 0.117 0.12 0.245 0.219 0.344 0.01 0.001 0.021 0.001 0.031 0l0.656 0.625c0.387 0.387 0.998 0.408 1.375 0.031 0.001-0.01 0.001-0.021 0-0.031l5.907-6.1875c0.116-0.1488 0.195-0.2027 0.25-0.2187 0.054-0.0161 0.096-0.0093 0.187 0.0312 0.182 0.081 0.473 0.2976 0.937 0.375 0.409 0.0413 0.85-0.0056 1.219-0.2188 0.538-0.3104 0.841-0.8572 0.938-1.5 0.008-0.0558 0.005-0.0655 0-0.0312 0.043-0.2043 0.048-0.3964 0.031-0.625 0.001-0.0104 0.001-0.0209 0-0.0312-0.006-0.023-0.016-0.0443-0.031-0.0626-0.009-0.0118-0.02-0.0223-0.031-0.0312-0.011-0.001-0.021-0.001-0.032 0l-0.375-0.1875c-0.009-0.0118-0.019-0.0224-0.031-0.0313-0.01-0.001-0.021-0.001-0.031 0-0.011-0.001-0.021-0.001-0.031 0-0.011-0.001-0.021-0.001-0.032 0l-1.531 0.625-1-1.7812 1.563-1.0312c0.011-0.0089 0.022-0.0195 0.031-0.0313 0.015-0.0182 0.025-0.0396 0.031-0.0625 0.001-0.0104 0.001-0.0209 0-0.0312 0.001-0.0104 0.001-0.0209 0-0.0313 0.001-0.0104 0.001-0.0209 0-0.0313-0.009-0.0118-0.019-0.0223-0.031-0.0312l-0.094-0.1562c-0.009-0.0119-0.019-0.0224-0.031-0.0313-0.385-0.2751-0.792-0.4745-1.219-0.5313z"/>
        <path id="path2436" fill="#4d4d4d" d="m51.366 853.26c-0.739-0.53-1.606-0.67-2.278-0.28-0.629 0.36-0.943 1.11-0.907 1.94-0.046 0.42 0.292 0.9-0.205 1.23l-6.408 6.21c-0.317 0.32-0.304 0.84 0.029 1.17l0.655 0.66c0.333 0.33 0.856 0.34 1.172 0.03l5.912-6.21c0.508-0.64 0.661 0 1.519 0.14 0.39 0.04 0.768-0.01 1.101-0.2 0.653-0.38 1.066-1 1.002-1.88l-0.366-0.19-1.65 0.67-1.142-2.02 1.666-1.11-0.1-0.16z"/>
        <path id="path3287" fill="#ccc" d="m51.466 853.42c-0.739-0.53-1.605-0.67-2.277-0.28-0.63 0.36-0.943 1.11-0.907 1.94-0.047 0.42 0.291 0.9-0.206 1.23l-6.408 6.21c-0.317 0.32-0.303 0.84 0.029 1.17l0.655 0.66c0.333 0.33 0.856 0.34 1.172 0.03l5.912-6.21c0.508-0.64 0.661 0 1.519 0.14 0.39 0.04 0.769-0.01 1.101-0.2 0.653-0.38 0.966-1.16 0.902-2.04l-1.866 0.92-1.382-2.4 1.756-1.17z"/>
        <path id="rect3210" fill="#808080" d="m43.505 861.84c-0.289 0.28-0.538 0.56-0.735 0.83-0.413 0.54-0.411 0.76-0.259 0.9 0.146 0.14 0.387 0.21 0.915-0.17 0.285-0.21 0.598-0.47 0.91-0.78l4.445-4.38c0.152-0.15 0.275-0.29 0.404-0.44 0.054-0.15-0.004-0.19-0.142-0.14l-4.471 4.41c-0.891 0.87-1.732 1.46-1.871 1.33-0.14-0.13 0.474-0.96 1.365-1.84l4.487-4.39c0.087-0.13-0.016-0.21-0.127-0.13-0.153 0.13-0.301 0.27-0.46 0.43l-4.461 4.37z"/>
        <path id="path2620" opacity=".8" transform="matrix(.20146 0 0 .20146 41.791 685.58)" fill="#fff" d="m41.375 830.94c-0.659-0.04-1.308 0.01-1.937 0.12-0.878 0.16-1.66 0.47-2.469 0.94-2.989 1.73-4.581 5.2-4.407 9.25 0.002 0.02 0.002 0.04 0 0.06-0.102 0.91 0.221 2.04 0.313 3.19s-0.133 2.39-1.469 3.28v-0.03l-31.812 30.81c-0.6896 0.69-0.958 1.61-0.9378 2.53l32.875-31.71c2.332-2.26 1.985-5.13 1.907-7.1-0.17-4.32 0.637-7.54 2.781-9.22 2.112-1.65 5.392-1.64 9.969 0.22l0.656-0.4c-1.789-1.1-3.665-1.83-5.469-1.94z"/>
      </g>
    </g>
  </g>
  <metadata>
    <rdf:RDF>
      <cc:Work>
        <dc:format>image/svg+xml</dc:format>
        <dc:type rdf:resource="http://purl.org/dc/dcmitype/StillImage"/>
        <cc:license rdf:resource="http://creativecommons.org/licenses/publicdomain/"/>
        <dc:publisher>
          <cc:Agent rdf:about="http://openclipart.org/">
            <dc:title>Openclipart</dc:title>
          </cc:Agent>
        </dc:publisher>
        <dc:title>tools</dc:title>
        <dc:date>2008-09-14T14:59:35</dc:date>
        <dc:description>clip art, clipart, hammer, hammer, image, media, png, public domain, spanner, spanner, svg, tool, tool, </dc:description>
        <dc:source>http://openclipart.org/detail/19214/tools-by-sivvus-19214</dc:source>
        <dc:creator>
          <cc:Agent>
            <dc:title>sivvus</dc:title>
          </cc:Agent>
        </dc:creator>
        <dc:subject>
          <rdf:Bag>
            <rdf:li>clip art</rdf:li>
            <rdf:li>clipart</rdf:li>
            <rdf:li>hammer</rdf:li>
            <rdf:li>image</rdf:li>
            <rdf:li>media</rdf:li>
            <rdf:li>png</rdf:li>
            <rdf:li>public domain</rdf:li>
            <rdf:li>spanner</rdf:li>
            <rdf:li>svg</rdf:li>
            <rdf:li>tool</rdf:li>
          </rdf:Bag>
        </dc:subject>
      </cc:Work>
      <cc:License rdf:about="http://creativecommons.org/licenses/publicdomain/">
        <cc:permits rdf:resource="http://creativecommons.org/ns#Reproduction"/>
        <cc:permits rdf:resource="http://creativecommons.org/ns#Distribution"/>
        <cc:permits rdf:resource="http://creativecommons.org/ns#DerivativeWorks"/>
      </cc:License>
    </rdf:RDF>
  </metadata>
</svg>
